<svg xmlns="http://www.w3.org/2000/svg" width="24" height="24" viewBox="0 0 24 24" fill="none">
    <circle cx="12" cy="12" r="12" fill="#FF5129"/>
    <path fill-rule="evenodd" clip-rule="evenodd" d="M7.83573 11.2924V7.92284H6.24158V16.6555H7.83374L7.83573 13.5782C7.83375 13.061 7.88229 12.6716 7.97939 12.4071C8.07549 12.1435 8.22708 11.9454 8.43712 11.8136C8.6432 11.6828 8.88099 11.6164 9.14453 11.6164C9.37538 11.6164 9.5666 11.667 9.72017 11.771C9.87275 11.8711 9.97975 12.0088 10.0402 12.1831C10.1006 12.3565 10.1294 12.7647 10.1294 13.4087V16.6545H11.7235V13.0511C11.7235 12.4992 11.6958 12.093 11.6413 11.8314C11.5868 11.5689 11.4857 11.3311 11.3351 11.1131C11.1855 10.8981 10.9646 10.7208 10.6683 10.5821C10.3731 10.4434 10.0442 10.373 9.67658 10.373C8.96322 10.373 8.34894 10.6811 7.83573 11.2924ZM14.1132 11.2924V7.92188L14.1122 7.92284H12.5201V16.6555H14.1122V13.5782C14.1122 13.061 14.1608 12.6716 14.2559 12.4071C14.353 12.1435 14.5046 11.9454 14.7126 11.8136C14.9197 11.6828 15.1565 11.6164 15.42 11.6164C15.6509 11.6164 15.8441 11.667 15.9957 11.771C16.1502 11.8711 16.2562 12.0088 16.3167 12.1831C16.3781 12.3565 16.4078 12.7647 16.4078 13.4087V16.6545H18V13.0511C18 12.4992 17.9723 12.093 17.9178 11.8314C17.8643 11.5689 17.7622 11.3311 17.6116 11.1131C17.463 10.8981 17.2411 10.7208 16.9468 10.5821C16.6516 10.4434 16.3197 10.373 15.9541 10.373C15.2407 10.373 14.6264 10.6811 14.1132 11.2924Z" fill="white"/>
</svg>