<svg width="133" height="82" viewBox="0 0 133 82" fill="none" xmlns="http://www.w3.org/2000/svg">
    <path
        d="M44.072 26.8506C38.034 35.1629 34.8475 47.1708 34.5125 62.8743L96.3569 75.0063C103.244 32.5766 94.7883 11.9738 70.9908 13.1979C59.1679 13.8109 50.195 18.3618 44.072 26.8506ZM58.5515 25.4766C58.9608 25.6098 59.4623 25.8833 60.0562 26.2973C60.52 26.6359 60.8812 27.0017 61.1396 27.3949C61.9903 28.4443 62.5088 29.6921 62.6952 31.138C62.8446 32.5278 62.6265 33.8173 62.0409 35.0066C61.0767 37.0882 59.4792 38.3594 57.2485 38.8203L55.8355 38.9649C52.974 38.9557 50.8234 37.8558 49.3835 35.6654C48.6917 34.5517 48.3265 33.3842 48.2878 32.1629C48.2411 30.7459 48.6132 29.4154 49.4042 28.1715C50.1584 26.8715 51.1757 25.9414 52.4563 25.3811C54.4286 24.5271 56.4603 24.5589 58.5515 25.4766ZM80.3331 29.9802C81.4741 29.3911 82.697 29.1101 84.0017 29.1372C85.2503 29.2013 86.4267 29.6144 87.531 30.3765C88.6448 31.0921 89.473 32.0156 90.0156 33.147C90.5582 34.2783 90.7879 35.5148 90.7046 36.8565C90.6309 38.1516 90.2459 39.3096 89.5495 40.3303C88.5804 41.7315 87.2693 42.6737 85.6164 43.157L84.0349 43.4124C83.149 43.4719 82.2503 43.3588 81.3387 43.0733C80.7898 42.9113 80.2602 42.6562 79.7498 42.308C78.7659 41.6678 77.9698 40.8237 77.3614 39.7758C76.7627 38.6814 76.4817 37.4585 76.5184 36.1073C76.5455 34.8025 76.8888 33.6117 77.5483 32.5347C78.2077 31.4578 79.136 30.6063 80.3331 29.9802ZM46.4181 38.0369C48.1401 38.393 49.5204 38.9938 50.5588 39.8395C51.0403 40.3273 51.2426 40.7573 51.1656 41.1297C51.1079 41.4089 50.9386 41.6408 50.6578 41.8254C50.3208 42.047 50.0311 42.1569 49.7888 42.1553C48.2578 42.5182 46.4082 42.427 44.24 41.8816C42.3703 41.3009 41.116 40.6776 40.4772 40.0117C40.1626 39.6554 40.0013 39.3794 39.9932 39.1836C39.9209 38.829 40.0814 38.5224 40.4745 38.264C40.7088 38.0698 41.0547 37.9229 41.512 37.8233C42.1748 37.6692 42.9395 37.6089 43.8061 37.6425L46.4181 38.0369ZM96.2067 48.6226C96.149 48.9018 95.9797 49.1337 95.6989 49.3183C95.3619 49.5398 95.0722 49.6498 94.8299 49.6482C93.2989 50.0111 91.4493 49.9199 89.2811 49.3745C87.4113 48.7938 86.1571 48.1705 85.5183 47.5045C85.2037 47.1483 85.0423 46.8723 85.0343 46.6765C84.962 46.3218 85.1225 46.0153 85.5156 45.7569C85.7499 45.5626 86.0957 45.4158 86.5531 45.3162C87.2159 45.162 87.9806 45.1018 88.8472 45.1354L91.4592 45.5298C93.1812 45.8859 94.5615 46.4867 95.5999 47.3323C96.0814 47.8202 96.2837 48.2502 96.2067 48.6226ZM70.9851 44.2084C71.4505 44.3047 71.7844 44.5678 71.9866 44.9979C72.1327 45.4649 72.0927 45.8934 71.8664 46.2834L70.7521 47.8001L70.3862 48.1613L68.9107 49.3121C68.2367 49.7552 67.7224 50.0128 67.3677 50.0851C66.8173 50.1654 66.193 50.1334 65.4949 49.989C64.2109 49.6265 63.3483 48.9871 62.9068 48.0707L62.2735 46.5567L62.3192 45.9837L62.0567 45.4927C61.901 45.0722 61.9828 44.6766 62.3021 44.3058C62.6022 44.0282 62.9761 43.8628 63.4238 43.8098C63.9085 43.813 64.2945 43.9413 64.5818 44.1948L65.1644 44.8977L65.203 45.4152L65.4054 46.549C65.5338 46.8668 65.854 47.0786 66.3659 47.1844L66.8691 47.2157L67.3745 46.8834C67.7115 46.6619 67.9458 46.4677 68.0774 46.3007L68.8813 45.2294L69.2471 44.8683C69.735 44.3867 70.3143 44.1668 70.9851 44.2084ZM88.8682 39.7527L88.7719 39.5144C88.6065 39.1405 88.5054 38.9254 88.4685 38.8693C88.0993 38.3076 87.5368 38.0943 86.7809 38.2292L86.2345 38.4074L85.7844 38.8239L85.4883 39.1995L85.3463 39.5341L85.3295 39.9674L85.3681 40.485L85.4789 40.6534C85.5158 40.7096 85.5615 40.8404 85.6161 41.0458L85.8111 41.1589L86.0471 41.4261L86.5767 41.6812L86.9258 41.7534L87.3591 41.7702C87.9657 41.6529 88.3918 41.3528 88.6372 40.8697L88.7504 40.6747L88.8947 39.9766L88.8682 39.7527ZM82.8538 31.5206C81.9406 31.4774 81.1655 31.7054 80.5284 32.2045C80.1914 32.4261 79.9098 32.7318 79.6836 33.1218C79.1284 33.9291 78.964 34.8415 79.1904 35.859C79.4442 36.9791 80.0589 37.7614 81.0347 38.2058C81.7409 38.546 82.5417 38.663 83.4372 38.557C84.3054 38.3482 84.9746 37.9285 85.4447 37.2977C86.2246 36.3427 86.4459 35.2723 86.1087 34.0863L85.8607 33.5255C85.2812 32.3379 84.2789 31.6696 82.8538 31.5206ZM59.2266 33.4783L58.36 33.4447L57.9676 33.582L57.4333 34.0539L57.1517 34.3596L56.9664 34.9037L56.964 35.2672L57.017 35.715L57.058 35.869L57.2241 36.1218C57.2787 36.3272 57.3943 36.4724 57.5708 36.5574L57.891 36.7692L58.1558 36.8968L58.6445 36.9978L58.9382 36.9858L59.2463 36.9039L59.7229 36.7112L60.0888 36.3501L60.5268 35.6399L60.4906 34.7588L60.3389 34.4363C60.1832 34.0158 59.8124 33.6965 59.2266 33.4783ZM56.9558 27.913L56.3299 27.4196C55.7826 27.0152 55.1222 26.8059 54.3486 26.7915C53.5751 26.7772 52.8842 26.9498 52.276 27.3094L51.7417 27.7813L51.3614 28.2122C50.7019 29.2891 50.5127 30.439 50.7937 31.6619L50.9719 32.2083C51.5337 33.2466 52.3731 33.8812 53.4902 34.1122C54.5606 34.3335 55.5877 34.0605 56.5714 33.2933L56.9372 32.9322C57.4539 32.311 57.7475 31.5952 57.818 30.7848C57.8981 29.9278 57.7632 29.1719 57.4133 28.5172L56.9558 27.913Z"
        fill="white" />
    <path
        d="M0.999998 56.3077L34.5053 62.9078C34.8451 47.181 38.034 35.1615 44.072 26.8492C50.195 18.3603 59.168 13.8094 70.9908 13.1965C94.7884 11.9723 103.241 32.5868 96.3498 75.0397L121.254 79.9341M34.5053 62.9078L96.3498 75.0397"
        stroke="white" stroke-linecap="round" stroke-linejoin="round" />
</svg>