<svg width="30" height="30" viewBox="0 0 30 30" fill="none" xmlns="http://www.w3.org/2000/svg">
<path d="M17.1001 24.0337V16.3617C17.1001 15.9473 16.7695 15.6114 16.3616 15.6114H13.9283C13.5205 15.6114 13.1898 15.9473 13.1898 16.3617V24.0337C13.1898 24.4481 13.5205 24.7841 13.9283 24.7841H16.3616C16.7695 24.7841 17.1001 24.4481 17.1001 24.0337Z" fill="white"/>
<path d="M28.6484 15.5534V5.97161C28.6484 5.55444 28.3289 5.21625 27.9347 5.21625H25.583C25.1888 5.21625 24.8693 5.55444 24.8693 5.97161V15.5534C24.8693 15.9706 25.1888 16.3088 25.583 16.3088H27.9347C28.3289 16.3088 28.6484 15.9706 28.6484 15.5534Z" fill="white"/>
<path fill-rule="evenodd" clip-rule="evenodd" d="M5.26268 15.2427V5.96681C5.26268 5.55414 4.93037 5.21649 4.5242 5.21649H2.09091C1.68474 5.21649 1.35243 5.55414 1.35243 5.96681V15.2427H1.35205V18.5303C1.35205 18.9513 1.89217 19.2957 2.55232 19.2957H27.4459C28.106 19.2957 28.6461 18.9513 28.6461 18.5303V15.2427H5.26268Z" fill="#FF5129"/>
<path d="M2.55476 5.21625H27.4483C28.1085 5.21625 28.6486 5.5607 28.6486 5.9817V8.50387C28.6486 8.92487 28.1085 9.26932 27.4483 9.26932H1.35449V5.9817C1.35449 5.5607 1.89461 5.21625 2.55476 5.21625Z" fill="white"/>
</svg>
