<svg width="30" height="30" viewBox="0 0 30 30" fill="none" xmlns="http://www.w3.org/2000/svg">
<path d="M7.29492 6.2843L19.8349 6.2843V2.15546L8.14885 2.15546C7.67919 2.15546 7.29492 2.50636 7.29492 2.93522L7.29492 6.2843Z" fill="white"/>
<path d="M18 2.1554V20.1554H22.0557C22.5751 20.1554 23 19.834 23 19.4413V2.86954C23 2.47676 22.5751 2.1554 22.0557 2.1554L18 2.1554Z" fill="white"/>
<path d="M13.4354 18.1019C13.1793 18.1019 12.9717 18.3095 12.9717 18.5656V27.5363C12.9717 27.7924 13.1793 28 13.4354 28H16.6869C17.1627 28 17.5519 27.8233 17.5519 27.6073V18.4946C17.5519 18.2786 17.1627 18.1019 16.6869 18.1019H13.4354Z" fill="white"/>
<path fill-rule="evenodd" clip-rule="evenodd" d="M7 16.7631V2.83702C7 2.46219 7.42493 2.15552 7.94428 2.15552H12V16.1555H22.3925C22.728 16.1555 23 16.4275 23 16.7631V19.548C23 19.8835 22.728 20.1555 22.3925 20.1555H7.60754C7.272 20.1555 7 19.8835 7 19.548V19.1555V16.7631Z" fill="#FF5129"/>
</svg>
