<svg xmlns="http://www.w3.org/2000/svg" width="370" height="82" viewBox="0 0 370 82" fill="none">
    <mask id="path-1-outside-1_187_1317" maskUnits="userSpaceOnUse" x="0" y="0" width="370" height="82" fill="black">
        <rect fill="white" width="370" height="82"/>
        <path fill-rule="evenodd" clip-rule="evenodd" d="M61.3839 79.3805H41.2678L27.0505 50.0579H19.4348V79.3805H2V2.6195H32.1456C39.7099 2.6195 45.8823 4.90027 50.4709 9.60423C55.0764 14.2554 57.3816 20.0062 57.3816 26.7517C57.3816 31.9336 56.0382 36.3949 53.2625 40.0297C50.9373 43.0748 48.084 45.3707 44.7182 46.8979L61.3839 79.3805ZM42.4761 46.0592C42.988 45.8746 43.4884 45.6727 43.9771 45.4535C47.1332 44.0377 49.8036 41.8993 51.9883 39.0383C54.5113 35.7343 55.7728 31.6388 55.7728 26.7517C55.7728 20.4191 53.6248 15.0846 49.329 10.7481C45.1013 6.4117 39.3735 4.24348 32.1456 4.24348H3.60879V77.7565H17.826V48.4339H28.0543L42.2715 77.7565H58.739L42.4761 46.0592ZM120.111 79.3805H68.923V2.6195H120.111V18.6703H86.3578V32.6649H115.099V48.7157H86.3578V63.3297H120.111V79.3805ZM84.749 64.9537V47.0917H113.49V34.2888H84.749V17.0463H118.502V4.24348H70.5318V77.7565H118.502V64.9537H84.749ZM182.047 67.9626L182.043 67.9686C176.595 75.5938 168.755 79.3805 158.747 79.3805H130.852V2.6195H158.747C168.755 2.6195 176.595 6.40623 182.043 14.0314L182.047 14.0374C184.248 17.1482 185.603 20.6649 186.115 24.5602C186.678 28.2665 186.949 33.7655 186.949 41C186.949 48.2393 186.678 53.7715 186.115 57.5433C185.602 61.375 184.245 64.8562 182.047 67.9626ZM184.522 57.3133C185.068 53.6652 185.34 48.2274 185.34 41C185.34 33.7726 185.068 28.3693 184.522 24.79C184.045 21.1418 182.783 17.8723 180.738 14.9813C175.624 7.82277 168.293 4.24348 158.747 4.24348H132.461V77.7565H158.747C168.293 77.7565 175.624 74.1772 180.738 67.0187C182.783 64.1277 184.045 60.8926 184.522 57.3133ZM166.918 22.6259L166.898 22.6002C164.886 20.0467 161.857 18.6703 157.52 18.6703H148.287V63.3297H157.52C161.857 63.3297 164.886 61.9533 166.898 59.3998L166.918 59.3741L166.939 59.3493C167.974 58.1403 168.704 56.4036 169.017 54.004C169.343 51.5039 169.514 47.1928 169.514 41C169.514 34.8072 169.343 30.4961 169.017 27.996C168.704 25.5964 167.974 23.8597 166.939 22.6507L166.918 22.6259ZM146.678 64.9537V17.0463H157.52C162.225 17.0463 165.77 18.5606 168.157 21.5893C169.453 23.1036 170.271 25.1685 170.612 27.7842C170.953 30.3998 171.123 34.8051 171.123 41C171.123 47.1949 170.953 51.6002 170.612 54.2158C170.271 56.8315 169.453 58.8964 168.157 60.4107C165.77 63.4394 162.225 64.9537 157.52 64.9537H146.678ZM246.339 18.6703H227.315V79.3805H209.88V18.6703H190.855V2.6195H246.339V18.6703ZM211.489 17.0463V77.7565H225.706V17.0463H244.731V4.24348H192.464V17.0463H211.489ZM307.682 79.3805H289.391L285.095 66.3712H261.528L257.13 79.3805H238.851L266.513 2.6195H279.913L307.682 79.3805ZM260.377 64.7472H286.255L290.551 77.7565H305.382L278.788 4.24348H267.639L241.148 77.7565H255.979L260.377 64.7472ZM359.42 71.1318C353.831 77.0668 346.538 80 337.696 80C329.595 80 322.707 77.2699 317.139 71.7957L317.132 71.7882L317.124 71.7807C313.6 68.2227 311.339 64.2663 310.447 59.9138L310.444 59.8981L310.441 59.8824C309.663 55.6678 309.289 49.3495 309.289 41C309.289 32.6522 309.663 26.3651 310.442 22.2159L310.444 22.2053L310.446 22.1948C311.337 17.7761 313.594 13.7826 317.124 10.2193L317.132 10.2118L317.139 10.2043C322.707 4.73014 329.595 2 337.696 2C345.979 2 352.693 4.33052 357.632 9.16632C362.533 13.8975 365.551 19.8324 366.695 26.903L367 28.7887H349.508L349.22 27.5299C348.459 24.1983 347.104 21.8739 345.273 20.3717C343.446 18.8732 340.971 18.0508 337.696 18.0508C334.448 18.0508 331.856 19.1796 329.792 21.4332C328.675 22.7371 327.853 24.5689 327.414 27.0386C326.965 29.5643 326.724 34.1812 326.724 41C326.724 47.8888 326.965 52.5394 327.414 55.0647C327.854 57.5348 328.675 59.3668 329.792 60.6707C331.773 62.8382 334.357 63.9492 337.696 63.9492C341.699 63.9492 344.592 62.703 346.611 60.3738L346.615 60.3691L346.619 60.3643C348.484 58.2468 349.486 55.3915 349.486 51.6346V50.5741H336.087V35.2461H366.818V47.6079C366.818 53.1296 366.301 57.7127 365.214 61.2991C364.112 64.9306 362.17 68.2104 359.42 71.1318ZM351.095 48.9501V51.6346C351.095 55.6957 350.004 58.9653 347.822 61.4432C345.435 64.1965 342.06 65.5732 337.696 65.5732C333.945 65.5732 330.911 64.2998 328.592 61.753C327.229 60.1698 326.308 58.036 325.831 55.3516C325.354 52.6671 325.115 47.8832 325.115 41C325.115 34.1856 325.354 29.4362 325.831 26.7517C326.308 24.0672 327.229 21.9334 328.592 20.3503C330.979 17.7346 334.013 16.4268 337.696 16.4268C344.787 16.4268 349.151 20.0061 350.788 27.1647H365.107C365.018 26.6158 364.918 26.0745 364.806 25.5407C363.538 19.5137 360.775 14.4452 356.516 10.3351C351.947 5.86104 345.674 3.62398 337.696 3.62398C329.99 3.62398 323.512 6.2052 318.262 11.3676C314.921 14.7404 312.841 18.4574 312.023 22.5185C311.273 26.5108 310.898 32.6713 310.898 41C310.898 49.3287 311.273 55.5236 312.023 59.5848C312.841 63.577 314.921 67.2596 318.262 70.6324C323.512 75.7948 329.99 78.376 337.696 78.376C346.151 78.376 353.004 75.5883 358.254 70.0129C360.845 67.2596 362.652 64.1965 363.675 60.8237C364.698 57.451 365.21 53.0457 365.21 47.6079V36.8701H337.696V48.9501H351.095ZM37.5969 32.5826C39.1439 31.1325 39.9467 29.2409 39.9467 26.7517C39.9467 24.2625 39.1439 22.3709 37.5969 20.9208C36.0371 19.4587 33.9642 18.6703 31.225 18.6703H19.4348V34.8331H31.225C33.9642 34.8331 36.0371 34.0446 37.5969 32.5826ZM31.225 36.4571C34.2935 36.4571 36.7824 35.5622 38.6916 33.7726C40.6009 31.983 41.5555 29.6426 41.5555 26.7517C41.5555 23.8607 40.6009 21.5204 38.6916 19.7308C36.7824 17.9411 34.2935 17.0463 31.225 17.0463H17.826V36.4571H31.225ZM273.572 25.9257L264.366 52.6671H282.47L273.572 25.9257ZM273.546 30.9483L266.629 51.0431H280.233L273.546 30.9483Z"/>
    </mask>
    <path fill-rule="evenodd" clip-rule="evenodd" d="M61.3839 79.3805H41.2678L27.0505 50.0579H19.4348V79.3805H2V2.6195H32.1456C39.7099 2.6195 45.8823 4.90027 50.4709 9.60423C55.0764 14.2554 57.3816 20.0062 57.3816 26.7517C57.3816 31.9336 56.0382 36.3949 53.2625 40.0297C50.9373 43.0748 48.084 45.3707 44.7182 46.8979L61.3839 79.3805ZM42.4761 46.0592C42.988 45.8746 43.4884 45.6727 43.9771 45.4535C47.1332 44.0377 49.8036 41.8993 51.9883 39.0383C54.5113 35.7343 55.7728 31.6388 55.7728 26.7517C55.7728 20.4191 53.6248 15.0846 49.329 10.7481C45.1013 6.4117 39.3735 4.24348 32.1456 4.24348H3.60879V77.7565H17.826V48.4339H28.0543L42.2715 77.7565H58.739L42.4761 46.0592ZM120.111 79.3805H68.923V2.6195H120.111V18.6703H86.3578V32.6649H115.099V48.7157H86.3578V63.3297H120.111V79.3805ZM84.749 64.9537V47.0917H113.49V34.2888H84.749V17.0463H118.502V4.24348H70.5318V77.7565H118.502V64.9537H84.749ZM182.047 67.9626L182.043 67.9686C176.595 75.5938 168.755 79.3805 158.747 79.3805H130.852V2.6195H158.747C168.755 2.6195 176.595 6.40623 182.043 14.0314L182.047 14.0374C184.248 17.1482 185.603 20.6649 186.115 24.5602C186.678 28.2665 186.949 33.7655 186.949 41C186.949 48.2393 186.678 53.7715 186.115 57.5433C185.602 61.375 184.245 64.8562 182.047 67.9626ZM184.522 57.3133C185.068 53.6652 185.34 48.2274 185.34 41C185.34 33.7726 185.068 28.3693 184.522 24.79C184.045 21.1418 182.783 17.8723 180.738 14.9813C175.624 7.82277 168.293 4.24348 158.747 4.24348H132.461V77.7565H158.747C168.293 77.7565 175.624 74.1772 180.738 67.0187C182.783 64.1277 184.045 60.8926 184.522 57.3133ZM166.918 22.6259L166.898 22.6002C164.886 20.0467 161.857 18.6703 157.52 18.6703H148.287V63.3297H157.52C161.857 63.3297 164.886 61.9533 166.898 59.3998L166.918 59.3741L166.939 59.3493C167.974 58.1403 168.704 56.4036 169.017 54.004C169.343 51.5039 169.514 47.1928 169.514 41C169.514 34.8072 169.343 30.4961 169.017 27.996C168.704 25.5964 167.974 23.8597 166.939 22.6507L166.918 22.6259ZM146.678 64.9537V17.0463H157.52C162.225 17.0463 165.77 18.5606 168.157 21.5893C169.453 23.1036 170.271 25.1685 170.612 27.7842C170.953 30.3998 171.123 34.8051 171.123 41C171.123 47.1949 170.953 51.6002 170.612 54.2158C170.271 56.8315 169.453 58.8964 168.157 60.4107C165.77 63.4394 162.225 64.9537 157.52 64.9537H146.678ZM246.339 18.6703H227.315V79.3805H209.88V18.6703H190.855V2.6195H246.339V18.6703ZM211.489 17.0463V77.7565H225.706V17.0463H244.731V4.24348H192.464V17.0463H211.489ZM307.682 79.3805H289.391L285.095 66.3712H261.528L257.13 79.3805H238.851L266.513 2.6195H279.913L307.682 79.3805ZM260.377 64.7472H286.255L290.551 77.7565H305.382L278.788 4.24348H267.639L241.148 77.7565H255.979L260.377 64.7472ZM359.42 71.1318C353.831 77.0668 346.538 80 337.696 80C329.595 80 322.707 77.2699 317.139 71.7957L317.132 71.7882L317.124 71.7807C313.6 68.2227 311.339 64.2663 310.447 59.9138L310.444 59.8981L310.441 59.8824C309.663 55.6678 309.289 49.3495 309.289 41C309.289 32.6522 309.663 26.3651 310.442 22.2159L310.444 22.2053L310.446 22.1948C311.337 17.7761 313.594 13.7826 317.124 10.2193L317.132 10.2118L317.139 10.2043C322.707 4.73014 329.595 2 337.696 2C345.979 2 352.693 4.33052 357.632 9.16632C362.533 13.8975 365.551 19.8324 366.695 26.903L367 28.7887H349.508L349.22 27.5299C348.459 24.1983 347.104 21.8739 345.273 20.3717C343.446 18.8732 340.971 18.0508 337.696 18.0508C334.448 18.0508 331.856 19.1796 329.792 21.4332C328.675 22.7371 327.853 24.5689 327.414 27.0386C326.965 29.5643 326.724 34.1812 326.724 41C326.724 47.8888 326.965 52.5394 327.414 55.0647C327.854 57.5348 328.675 59.3668 329.792 60.6707C331.773 62.8382 334.357 63.9492 337.696 63.9492C341.699 63.9492 344.592 62.703 346.611 60.3738L346.615 60.3691L346.619 60.3643C348.484 58.2468 349.486 55.3915 349.486 51.6346V50.5741H336.087V35.2461H366.818V47.6079C366.818 53.1296 366.301 57.7127 365.214 61.2991C364.112 64.9306 362.17 68.2104 359.42 71.1318ZM351.095 48.9501V51.6346C351.095 55.6957 350.004 58.9653 347.822 61.4432C345.435 64.1965 342.06 65.5732 337.696 65.5732C333.945 65.5732 330.911 64.2998 328.592 61.753C327.229 60.1698 326.308 58.036 325.831 55.3516C325.354 52.6671 325.115 47.8832 325.115 41C325.115 34.1856 325.354 29.4362 325.831 26.7517C326.308 24.0672 327.229 21.9334 328.592 20.3503C330.979 17.7346 334.013 16.4268 337.696 16.4268C344.787 16.4268 349.151 20.0061 350.788 27.1647H365.107C365.018 26.6158 364.918 26.0745 364.806 25.5407C363.538 19.5137 360.775 14.4452 356.516 10.3351C351.947 5.86104 345.674 3.62398 337.696 3.62398C329.99 3.62398 323.512 6.2052 318.262 11.3676C314.921 14.7404 312.841 18.4574 312.023 22.5185C311.273 26.5108 310.898 32.6713 310.898 41C310.898 49.3287 311.273 55.5236 312.023 59.5848C312.841 63.577 314.921 67.2596 318.262 70.6324C323.512 75.7948 329.99 78.376 337.696 78.376C346.151 78.376 353.004 75.5883 358.254 70.0129C360.845 67.2596 362.652 64.1965 363.675 60.8237C364.698 57.451 365.21 53.0457 365.21 47.6079V36.8701H337.696V48.9501H351.095ZM37.5969 32.5826C39.1439 31.1325 39.9467 29.2409 39.9467 26.7517C39.9467 24.2625 39.1439 22.3709 37.5969 20.9208C36.0371 19.4587 33.9642 18.6703 31.225 18.6703H19.4348V34.8331H31.225C33.9642 34.8331 36.0371 34.0446 37.5969 32.5826ZM31.225 36.4571C34.2935 36.4571 36.7824 35.5622 38.6916 33.7726C40.6009 31.983 41.5555 29.6426 41.5555 26.7517C41.5555 23.8607 40.6009 21.5204 38.6916 19.7308C36.7824 17.9411 34.2935 17.0463 31.225 17.0463H17.826V36.4571H31.225ZM273.572 25.9257L264.366 52.6671H282.47L273.572 25.9257ZM273.546 30.9483L266.629 51.0431H280.233L273.546 30.9483Z" fill="#E87082"/>
    <path fill-rule="evenodd" clip-rule="evenodd" d="M61.3839 79.3805H41.2678L27.0505 50.0579H19.4348V79.3805H2V2.6195H32.1456C39.7099 2.6195 45.8823 4.90027 50.4709 9.60423C55.0764 14.2554 57.3816 20.0062 57.3816 26.7517C57.3816 31.9336 56.0382 36.3949 53.2625 40.0297C50.9373 43.0748 48.084 45.3707 44.7182 46.8979L61.3839 79.3805ZM42.4761 46.0592C42.988 45.8746 43.4884 45.6727 43.9771 45.4535C47.1332 44.0377 49.8036 41.8993 51.9883 39.0383C54.5113 35.7343 55.7728 31.6388 55.7728 26.7517C55.7728 20.4191 53.6248 15.0846 49.329 10.7481C45.1013 6.4117 39.3735 4.24348 32.1456 4.24348H3.60879V77.7565H17.826V48.4339H28.0543L42.2715 77.7565H58.739L42.4761 46.0592ZM120.111 79.3805H68.923V2.6195H120.111V18.6703H86.3578V32.6649H115.099V48.7157H86.3578V63.3297H120.111V79.3805ZM84.749 64.9537V47.0917H113.49V34.2888H84.749V17.0463H118.502V4.24348H70.5318V77.7565H118.502V64.9537H84.749ZM182.047 67.9626L182.043 67.9686C176.595 75.5938 168.755 79.3805 158.747 79.3805H130.852V2.6195H158.747C168.755 2.6195 176.595 6.40623 182.043 14.0314L182.047 14.0374C184.248 17.1482 185.603 20.6649 186.115 24.5602C186.678 28.2665 186.949 33.7655 186.949 41C186.949 48.2393 186.678 53.7715 186.115 57.5433C185.602 61.375 184.245 64.8562 182.047 67.9626ZM184.522 57.3133C185.068 53.6652 185.34 48.2274 185.34 41C185.34 33.7726 185.068 28.3693 184.522 24.79C184.045 21.1418 182.783 17.8723 180.738 14.9813C175.624 7.82277 168.293 4.24348 158.747 4.24348H132.461V77.7565H158.747C168.293 77.7565 175.624 74.1772 180.738 67.0187C182.783 64.1277 184.045 60.8926 184.522 57.3133ZM166.918 22.6259L166.898 22.6002C164.886 20.0467 161.857 18.6703 157.52 18.6703H148.287V63.3297H157.52C161.857 63.3297 164.886 61.9533 166.898 59.3998L166.918 59.3741L166.939 59.3493C167.974 58.1403 168.704 56.4036 169.017 54.004C169.343 51.5039 169.514 47.1928 169.514 41C169.514 34.8072 169.343 30.4961 169.017 27.996C168.704 25.5964 167.974 23.8597 166.939 22.6507L166.918 22.6259ZM146.678 64.9537V17.0463H157.52C162.225 17.0463 165.77 18.5606 168.157 21.5893C169.453 23.1036 170.271 25.1685 170.612 27.7842C170.953 30.3998 171.123 34.8051 171.123 41C171.123 47.1949 170.953 51.6002 170.612 54.2158C170.271 56.8315 169.453 58.8964 168.157 60.4107C165.77 63.4394 162.225 64.9537 157.52 64.9537H146.678ZM246.339 18.6703H227.315V79.3805H209.88V18.6703H190.855V2.6195H246.339V18.6703ZM211.489 17.0463V77.7565H225.706V17.0463H244.731V4.24348H192.464V17.0463H211.489ZM307.682 79.3805H289.391L285.095 66.3712H261.528L257.13 79.3805H238.851L266.513 2.6195H279.913L307.682 79.3805ZM260.377 64.7472H286.255L290.551 77.7565H305.382L278.788 4.24348H267.639L241.148 77.7565H255.979L260.377 64.7472ZM359.42 71.1318C353.831 77.0668 346.538 80 337.696 80C329.595 80 322.707 77.2699 317.139 71.7957L317.132 71.7882L317.124 71.7807C313.6 68.2227 311.339 64.2663 310.447 59.9138L310.444 59.8981L310.441 59.8824C309.663 55.6678 309.289 49.3495 309.289 41C309.289 32.6522 309.663 26.3651 310.442 22.2159L310.444 22.2053L310.446 22.1948C311.337 17.7761 313.594 13.7826 317.124 10.2193L317.132 10.2118L317.139 10.2043C322.707 4.73014 329.595 2 337.696 2C345.979 2 352.693 4.33052 357.632 9.16632C362.533 13.8975 365.551 19.8324 366.695 26.903L367 28.7887H349.508L349.22 27.5299C348.459 24.1983 347.104 21.8739 345.273 20.3717C343.446 18.8732 340.971 18.0508 337.696 18.0508C334.448 18.0508 331.856 19.1796 329.792 21.4332C328.675 22.7371 327.853 24.5689 327.414 27.0386C326.965 29.5643 326.724 34.1812 326.724 41C326.724 47.8888 326.965 52.5394 327.414 55.0647C327.854 57.5348 328.675 59.3668 329.792 60.6707C331.773 62.8382 334.357 63.9492 337.696 63.9492C341.699 63.9492 344.592 62.703 346.611 60.3738L346.615 60.3691L346.619 60.3643C348.484 58.2468 349.486 55.3915 349.486 51.6346V50.5741H336.087V35.2461H366.818V47.6079C366.818 53.1296 366.301 57.7127 365.214 61.2991C364.112 64.9306 362.17 68.2104 359.42 71.1318ZM351.095 48.9501V51.6346C351.095 55.6957 350.004 58.9653 347.822 61.4432C345.435 64.1965 342.06 65.5732 337.696 65.5732C333.945 65.5732 330.911 64.2998 328.592 61.753C327.229 60.1698 326.308 58.036 325.831 55.3516C325.354 52.6671 325.115 47.8832 325.115 41C325.115 34.1856 325.354 29.4362 325.831 26.7517C326.308 24.0672 327.229 21.9334 328.592 20.3503C330.979 17.7346 334.013 16.4268 337.696 16.4268C344.787 16.4268 349.151 20.0061 350.788 27.1647H365.107C365.018 26.6158 364.918 26.0745 364.806 25.5407C363.538 19.5137 360.775 14.4452 356.516 10.3351C351.947 5.86104 345.674 3.62398 337.696 3.62398C329.99 3.62398 323.512 6.2052 318.262 11.3676C314.921 14.7404 312.841 18.4574 312.023 22.5185C311.273 26.5108 310.898 32.6713 310.898 41C310.898 49.3287 311.273 55.5236 312.023 59.5848C312.841 63.577 314.921 67.2596 318.262 70.6324C323.512 75.7948 329.99 78.376 337.696 78.376C346.151 78.376 353.004 75.5883 358.254 70.0129C360.845 67.2596 362.652 64.1965 363.675 60.8237C364.698 57.451 365.21 53.0457 365.21 47.6079V36.8701H337.696V48.9501H351.095ZM37.5969 32.5826C39.1439 31.1325 39.9467 29.2409 39.9467 26.7517C39.9467 24.2625 39.1439 22.3709 37.5969 20.9208C36.0371 19.4587 33.9642 18.6703 31.225 18.6703H19.4348V34.8331H31.225C33.9642 34.8331 36.0371 34.0446 37.5969 32.5826ZM31.225 36.4571C34.2935 36.4571 36.7824 35.5622 38.6916 33.7726C40.6009 31.983 41.5555 29.6426 41.5555 26.7517C41.5555 23.8607 40.6009 21.5204 38.6916 19.7308C36.7824 17.9411 34.2935 17.0463 31.225 17.0463H17.826V36.4571H31.225ZM273.572 25.9257L264.366 52.6671H282.47L273.572 25.9257ZM273.546 30.9483L266.629 51.0431H280.233L273.546 30.9483Z" stroke="#C20A26" stroke-width="4" mask="url(#path-1-outside-1_187_1317)"/>
</svg>