<svg width="162" height="23" viewBox="0 0 162 23" fill="none" xmlns="http://www.w3.org/2000/svg">
<path fill-rule="evenodd" clip-rule="evenodd" d="M20.8333 6.61281L11.4332 2.29812L2.00962 6.61541L0.509766 5.92798L11.4332 0.920654L22.3332 5.92277L20.8333 6.61281Z" fill="#EDEDED"/>
<path fill-rule="evenodd" clip-rule="evenodd" d="M19.8387 22.5461H3.01215V7.53194L11.4306 3.67294L19.8387 7.53194V22.5461Z" fill="#EDEDED"/>
<path d="M155.451 8.11807C156.587 8.11807 157.508 7.17843 157.508 6.01932C157.508 4.86021 156.587 3.92056 155.451 3.92056C154.314 3.92056 153.393 4.86021 153.393 6.01932C153.393 7.17843 154.314 8.11807 155.451 8.11807Z" fill="#EDEDED"/>
<path fill-rule="evenodd" clip-rule="evenodd" d="M31.8038 15.7164H31.3013L28.3797 8.46191H23.138V22.5699H26.1742H26.8668V14.5082V12.9406L29.4863 19.3437H33.6188L36.2383 12.9406V14.5082V22.5699H36.9309H39.9671V8.46191H34.7254L31.8038 15.7164Z" fill="#EDEDED"/>
<path fill-rule="evenodd" clip-rule="evenodd" d="M46.5028 13.9897C46.7105 13.2327 47.1617 12.5652 47.7868 12.0903C48.4118 11.6154 49.1758 11.3595 49.9608 11.3623C50.7338 11.3453 51.4886 11.5983 52.0951 12.0779C52.7016 12.5575 53.1218 13.2336 53.2834 13.9897H46.5028ZM49.9608 8.04236C45.6461 8.04236 42.3522 11.3623 42.3522 15.513C42.3522 19.6636 45.6461 22.9836 49.9608 22.9836C53.0048 22.9836 54.8041 21.7389 55.9108 20.4917C56.5313 19.7607 57.002 18.9149 57.2961 18.0023H53.1454C52.9724 18.3153 52.7469 18.5963 52.4788 18.833C51.7666 19.4041 50.8732 19.7007 49.9608 19.6688C48.1641 19.6688 46.6695 18.1455 46.3648 16.3462H57.4341V15.5026C57.4341 11.3884 54.3901 8.04236 49.9608 8.04236Z" fill="#EDEDED"/>
<path fill-rule="evenodd" clip-rule="evenodd" d="M70.0498 8.46191H60.0378V22.5673H63.7666V11.8887H70.0498V8.46191Z" fill="#EDEDED"/>
<path fill-rule="evenodd" clip-rule="evenodd" d="M75.2421 16.5235L76.4503 11.8885H77.8616L79.0698 16.5235H75.2421ZM73.7292 8.45139L69.9014 22.5568H73.7292L74.4348 19.7367H79.877L80.5827 22.5568H84.4105L80.5879 8.47222L73.7292 8.45139Z" fill="#EDEDED"/>
<path fill-rule="evenodd" clip-rule="evenodd" d="M93.1415 11.4849C93.6534 11.4637 94.1641 11.5475 94.6424 11.7311C95.1207 11.9147 95.5563 12.1942 95.9225 12.5525C96.41 13.028 96.7546 13.6306 96.9172 14.2919H100.638C100.454 13.0263 99.9321 11.8336 99.1279 10.8391C98.0603 9.46946 96.1855 8.05814 93.1389 8.05814C88.5039 8.05814 85.2803 11.2844 85.2803 15.5157C85.2803 19.7471 88.5039 22.9707 93.1389 22.9707C96.2037 22.9707 98.0863 21.5204 99.1644 20.0492C99.9122 19.0705 100.416 17.9281 100.636 16.7161H96.8781C96.7619 17.3144 96.4928 17.8724 96.0969 18.3358C95.5527 18.9607 94.6856 19.5466 93.1545 19.5466C90.837 19.5466 89.2252 17.9322 89.2252 15.5157C89.2252 13.0993 90.824 11.4849 93.1415 11.4849Z" fill="#EDEDED"/>
<path fill-rule="evenodd" clip-rule="evenodd" d="M101.799 11.8887H106.234V22.5673H109.96V11.8887H114.395V8.46191H101.799V11.8887Z" fill="#EDEDED"/>
<path fill-rule="evenodd" clip-rule="evenodd" d="M123.516 15.3124H120.493V11.8882H123.516C124.946 11.8882 125.63 12.5731 125.63 13.599C125.63 14.6249 124.946 15.3124 123.516 15.3124ZM123.615 8.47189H116.764V22.5669H120.493V18.7391H123.618C127.164 18.7391 129.463 16.4216 129.463 13.599C129.463 10.7764 127.162 8.47189 123.615 8.47189Z" fill="#EDEDED"/>
<path fill-rule="evenodd" clip-rule="evenodd" d="M139.038 19.5466C136.721 19.5466 135.109 17.9322 135.109 15.5157C135.109 13.0993 136.728 11.4849 139.038 11.4849C141.348 11.4849 142.967 13.0967 142.967 15.5157C142.967 17.9348 141.363 19.5466 139.038 19.5466ZM139.038 8.05814C134.403 8.05814 131.179 11.4849 131.179 15.5157C131.179 19.5466 134.411 22.9707 139.038 22.9707C143.665 22.9707 146.899 19.5466 146.899 15.5157C146.899 11.4849 143.681 8.05814 139.038 8.05814Z" fill="#EDEDED"/>
<path fill-rule="evenodd" clip-rule="evenodd" d="M161.499 8.46191H158.271H157.667L152.628 17.0574V15.4144V8.46191H150.943H148.902V22.5673H150.943H152.628H153.232L158.271 13.9744V15.6175V22.5673H161.499H161.999V8.46191H161.499Z" fill="#EDEDED"/>
<path d="M155.234 5.36057H20.8331V6.61305H155.234V5.36057Z" fill="#EDEDED"/>
</svg>
