<svg width="162" height="21" viewBox="0 0 162 21" fill="none" xmlns="http://www.w3.org/2000/svg">
<path d="M91.1896 19.6932H81.1861V0.576385H89.9719C93.9527 0.576385 96.1055 3.05415 96.1055 5.99153C96.1055 7.30438 95.4425 8.65949 94.4255 9.67383C95.9285 10.4584 97.215 12.2467 97.215 14.1143C97.215 17.3792 94.6685 19.6932 91.1896 19.6932ZM85.9092 15.8497H90.5398C91.6915 15.8497 92.4364 14.9965 92.4364 13.969V13.9293C92.4364 12.8859 91.6783 12.0486 90.5398 12.0486H85.9092V15.8497ZM85.9092 8.19986H89.3617C90.5926 8.19986 91.3375 7.34664 91.3375 6.31908C91.3375 5.27568 90.6481 4.43831 89.3617 4.43831H85.9092C85.9092 4.43567 85.9092 8.19986 85.9092 8.19986Z" fill="#EDEDED"/>
<path d="M38.0263 19.6932L31.1478 9.9195L37.8097 0.576385H32.2599L26.953 8.23948V0.576385H22.119V19.6932H26.953V11.8557L32.2731 19.6932H38.0263Z" fill="#EDEDED"/>
<path d="M124.874 0.576385V14.7112C124.874 15.3479 124.589 15.8339 123.995 15.8339C123.155 15.8339 123.115 14.8724 123.115 14.2358H118.58C118.58 17.2947 120.339 20.166 124.129 20.166C127.434 20.166 129.693 17.4849 129.693 14.1829V4.88209H136.23V19.6932H141.064V0.576385H124.874Z" fill="#EDEDED"/>
<path d="M59.7423 0.576385L53.0539 14.6822C51.823 17.3633 49.2633 20.166 44.918 20.166C41.2225 20.166 37.7436 17.9181 37.1202 12.9784H41.8036C42.1549 14.9543 43.5629 15.8339 45.1346 15.8339C46.4739 15.8339 47.3825 15.0361 47.6388 14.5739L39.664 0.576385H45.227L50.2909 9.82176L54.4619 0.576385H59.7423Z" fill="#EDEDED"/>
<path d="M13.5204 19.6932H0.661438V0.576385H12.3185C16.2993 0.576385 18.4522 3.05415 18.4522 5.99153C18.4522 7.30438 17.7892 8.65949 16.7722 9.67383C18.2752 10.4584 19.5616 12.2467 19.5616 14.1143C19.559 17.3792 17.002 19.6932 13.5204 19.6932ZM5.3845 15.8497H12.8838C14.0355 15.8497 14.7804 14.9965 14.7804 13.969V13.9293C14.7804 12.8859 14.0223 12.0486 12.8838 12.0486H5.3845V15.8497ZM5.3845 8.19986H11.7057C12.9367 8.19986 13.6816 7.34664 13.6816 6.31908C13.6816 5.27568 12.9921 4.43831 11.7057 4.43831H5.3845V8.19986Z" fill="#EDEDED"/>
<path d="M73.6048 12.5195C72.8599 14.2655 71.2618 15.4991 69.0297 15.4991C65.8889 15.4991 63.9922 13.0478 63.9922 10.1368C63.9922 7.22584 65.8889 4.7745 69.0297 4.7745C71.2644 4.7745 72.8599 6.0213 73.6048 7.78056H78.8033C77.8286 3.40882 74.1595 0.104263 69.0297 0.104263C63.0043 0.104263 58.9971 4.65299 58.9971 10.1368V10.15C58.9971 15.6471 63.0043 20.1826 69.0297 20.1826C74.1595 20.1826 77.8286 16.8939 78.8033 12.5195H73.6048Z" fill="#EDEDED"/>
<path d="M112.892 0.576385L104.836 11.6259V0.576385H100.004V19.6932H104.403L112.472 8.65948V19.6932H117.306V0.576385H112.892Z" fill="#EDEDED"/>
<path d="M146.535 0.576385V13.4909C146.535 14.6822 145.859 15.4007 144.625 15.4007H143.204V19.68H145.764C149.135 19.68 151.369 17.5535 151.369 13.6678V4.86888H156.256V19.68H161.09V0.576385H146.535Z" fill="#EDEDED"/>
</svg>
