<svg width="87" height="34" viewBox="0 0 87 34" fill="none" xmlns="http://www.w3.org/2000/svg">
<path fill-rule="evenodd" clip-rule="evenodd" d="M74.9764 0.931748C78.2176 0.46831 81.1816 1.24766 83.2015 3.14736C85.0492 4.88502 85.981 7.34611 85.7583 9.90001C85.3368 14.7272 82.9822 18.595 76.4259 24.9673L65.6963 25.3177C65.6963 25.3177 73.1703 18.5642 75.9814 15.2645C77.8029 13.1262 78.5744 10.8181 77.8263 9.27967C77.3522 8.30472 76.2878 7.81952 74.9764 7.89206V0.931748ZM52.9893 4.75911V11.0344L62.3087 10.0147V3.45617L52.9893 4.75911ZM45.3997 33.1027V5.82035L51.7945 4.92612V33.1027H45.3997ZM20.1395 9.36014V14.6354L27.1835 13.8648V8.37554L20.1395 9.36014ZM14.3525 33.1027V10.1695L19.2305 9.48747V33.1027H14.3525ZM0 12.1761V16.8394L12.645 15.4555V10.4085L0 12.1761ZM4.03472 17.123V33.1027H8.66451V16.6529L4.03472 17.123ZM20.1395 23.9342V18.5619L24.7638 18.1665V23.683L20.1395 23.9342ZM20.1394 27.8055V33.1027H27.1835V27.5942L20.1394 27.8055ZM52.9893 22.1462V15.7545L59.0979 15.2336V21.8143L52.9893 22.1462ZM52.9893 26.8179V33.1027H62.3084V26.5382L52.9893 26.8179ZM29.0471 33.1027V8.11476L34.6037 7.33783V33.1027H29.0471ZM35.6407 27.3402V33.1027H43.7071V27.0981L35.6407 27.3402ZM86.1369 33.1027V25.819L64.3726 26.3576V33.1027H86.1369ZM64.6562 14.6057C64.2981 7.05496 67.4028 2.42693 73.7252 1.08801L73.7289 8.17681C72.4021 8.73307 71.0907 9.7449 71.3977 14.0107L64.6562 14.6057Z" fill="#EDEDED"/>
</svg>
