<svg width="119" height="23" viewBox="0 0 119 23" fill="none" xmlns="http://www.w3.org/2000/svg">
<path d="M63.3323 18.8147V3.98547H72.5449V7.42977H67.1737V18.8147H63.3323Z" fill="#EDEDED"/>
<path d="M84.1358 18.8147V13.0069H78.4289V18.8147H74.5875V3.98547H78.4289V9.51965H84.1358V3.98547H87.9772V18.8147H84.1358Z" fill="#EDEDED"/>
<path d="M110.27 18.8147V7.42977H105.783V3.98547H118.622V7.42977H114.114V18.8147H110.27Z" fill="#EDEDED"/>
<path d="M100.13 18.8125V10.3631L94.0154 18.8125H90.8032V3.98721H94.6447V12.3487L100.657 3.98721H103.974V18.8125H100.13Z" fill="#EDEDED"/>
<path d="M41.2566 18.8147V10.0018L37.4212 14.6576L33.5858 10.0018V18.8147H29.7443V3.98547H33.5355L37.4212 9.08451L41.3069 3.98547H45.098V18.8147H41.2566Z" fill="#EDEDED"/>
<path d="M52.3911 13.5993H55.9611L54.1761 8.94967L52.3911 13.5993ZM57.9633 18.8128L57.1593 16.7351H51.187L50.3829 18.8128H46.5215L52.4294 3.98547H55.9813L61.8912 18.8128H57.9633Z" fill="#EDEDED"/>
<path d="M-1.52588e-05 6.99857C0.00370422 5.20763 0.70555 3.49114 1.95185 2.22494C3.19815 0.958736 4.88736 0.245991 6.64963 0.242752H22.0014V3.67684H6.65365C5.78773 3.68059 4.95831 4.0317 4.34581 4.65378C3.73333 5.27585 3.38733 6.11856 3.3831 6.99857L3.363 12.7636C3.29293 13.5022 2.98412 14.1964 2.4848 14.738C1.98549 15.2794 1.32379 15.6375 0.603036 15.7564L-1.52588e-05 15.8504V6.99857Z" fill="#EDEDED"/>
<path d="M0.000762939 22.5571V19.1229H15.3524C16.2186 19.1187 17.048 18.7671 17.6604 18.1447C18.2728 17.5223 18.6188 16.6794 18.623 15.7992V10.3284C18.6272 9.53465 18.909 8.7683 19.4179 8.16619C19.9267 7.56408 20.6296 7.1654 21.401 7.04137L22.0041 6.94943V15.7992C22.0003 17.5904 21.2986 19.3071 20.0523 20.5736C18.8061 21.8401 17.1169 22.5532 15.3544 22.5571H0.000762939Z" fill="#EDEDED"/>
<path d="M13.0061 15.8622V11.4231L11.004 13.852L9.00384 11.4231V15.8622H6.35242V7.12688H8.86313L11.004 9.93584L13.1448 7.12688H15.6555V15.8622H13.0061Z" fill="#EDEDED"/>
</svg>
