<svg width="205" height="30" viewBox="0 0 205 30" fill="none" xmlns="http://www.w3.org/2000/svg">
<path fill-rule="evenodd" clip-rule="evenodd" d="M49.6265 7.42306H38.142V21.8615H44.6157C48.1827 21.8615 50.6159 20.4413 50.6159 17.2222C50.6159 14.4174 48.985 12.6658 45.1718 12.6658H41.7397V10.7226H49.617V7.42306H49.6265ZM45.0062 15.7524C46.2039 15.7524 46.8831 16.1855 46.8831 17.156C46.8831 18.1856 46.0784 18.5572 44.9896 18.5572H41.7397V15.7524H45.0062ZM63.4305 21.8568H67.2437L61.0896 7.41832H57.6149L51.3875 21.8568H55.0988L56.0693 19.4638H62.4601L63.4305 21.8568ZM59.286 11.6505L61.2032 16.3844H57.3475L59.286 11.6505ZM78.3945 21.8568H82.0017V7.41832H78.3945V12.8884L72.4156 12.8671V7.42306H68.8059V21.8615H72.4156V16.2683L78.3945 16.2896V21.8568ZM88.8256 7.41832H85.2184V21.8568H88.8256V17.5963L90.3524 15.9062L94.5371 21.8449H99.155L93.2376 13.6387L98.949 7.42306H94.3714L88.8256 13.7523V7.42306V7.41832ZM119.556 7.41832H115.295L112.266 11.996L109.198 7.42306H104.937L109.908 14.5358L104.701 21.8568H108.961L112.199 17.0305L115.416 21.8568H119.676L114.547 14.5358L119.556 7.43489V7.41832ZM131.092 21.8568H134.699V7.41832H123.463V9.04679C123.463 17.4163 122.969 18.4909 121.215 18.4909C121.036 18.4941 120.858 18.487 120.68 18.4696V21.8568C121.209 21.9637 121.747 22.0185 122.288 22.0201C124.391 22.0201 126.744 21.1751 126.927 13.499L126.988 10.9285H131.092V21.8568ZM151.212 21.8568H154.821V7.41832H151.22V21.8568H151.212ZM143.882 15.1891C145.55 15.1891 146.088 15.7666 146.088 16.8459C146.088 18.0294 145.528 18.6613 143.882 18.6613H141.625V15.1891H143.882ZM141.625 7.42306H138.025V21.8615H143.882C147.694 21.8615 149.798 20.1905 149.798 16.7891C149.798 13.6552 147.796 12.0055 143.943 12.0055H141.625V7.42306ZM167.676 21.8615H171.284V7.42306H167.683V12.8884L161.704 12.8671V7.42306H158.095V21.8615H161.704V16.2683L167.683 16.2896V21.8568L167.676 21.8615ZM173.712 14.6446C173.712 19.1419 176.907 22.1906 181.445 22.1906C185.982 22.1906 189.175 19.0993 189.175 14.6446C189.175 10.1474 185.979 7.09879 181.445 7.09879C176.846 7.09879 173.712 10.2729 173.712 14.6446ZM177.423 14.6446C177.423 12.1712 179.052 10.3983 181.447 10.3983C183.755 10.3983 185.47 12.1712 185.47 14.6446C185.47 17.1181 183.925 18.891 181.447 18.891C179.097 18.891 177.423 17.1181 177.423 14.6446ZM191.603 21.8615H198.51C201.768 21.8615 204.139 20.6023 204.139 17.5726C204.139 15.7784 203.232 14.5831 201.687 14.0458C203.005 13.4683 203.666 12.5428 203.666 11.1202C203.666 8.95448 202.444 7.42779 198.676 7.42779H191.61V21.8662L191.603 21.8615ZM198.345 15.9441C199.81 15.9441 200.387 16.3773 200.387 17.3879C200.387 18.4389 199.677 18.8721 198.365 18.8721H195.218V15.9394L198.345 15.9441ZM198.108 10.4173C199.491 10.4173 199.942 10.8907 199.942 11.738C199.942 12.5854 199.403 13.1582 198.169 13.1582H195.218V10.4125L198.108 10.4173Z" fill="#EDEDED"/>
<path fill-rule="evenodd" clip-rule="evenodd" d="M20.6911 29.3906H29.0725C29.1737 29.3994 29.2754 29.3806 29.3669 29.3362C29.4582 29.2919 29.536 29.2237 29.5918 29.1388C29.6475 29.0538 29.6794 28.9554 29.6838 28.8539C29.6882 28.7525 29.6651 28.6516 29.617 28.5622L24.8381 18.621C24.5849 18.0955 24.2297 17.8304 23.4889 17.8304H18.3952L29.1601 1.42736C29.2239 1.33518 29.2598 1.22663 29.2635 1.11463C29.2674 1.00263 29.2388 0.891901 29.1814 0.795631C29.1242 0.699362 29.0403 0.621607 28.94 0.571625C28.8396 0.521644 28.7271 0.501542 28.6157 0.513713H19.9645C19.7066 0.505723 19.4513 0.567468 19.2255 0.692441C18.9996 0.817413 18.8118 1.00098 18.6817 1.2238L13.9335 8.46433L10.4777 1.28771C10.3868 1.04635 10.2205 0.840731 10.0035 0.701318C9.78646 0.561905 9.5303 0.496119 9.27297 0.513713H0.891587C0.790612 0.505776 0.689361 0.525095 0.598404 0.569649C0.507447 0.614204 0.43012 0.682361 0.374498 0.767005C0.318875 0.851648 0.286996 0.949672 0.282192 1.05084C0.277388 1.15201 0.299833 1.25261 0.347184 1.34215L5.12607 11.2834C5.37933 11.8065 5.73438 12.0716 6.47523 12.0716H11.5689L0.804006 28.477C0.741137 28.5696 0.706028 28.6781 0.702817 28.7899C0.699606 28.9018 0.728426 29.0122 0.785882 29.1082C0.843339 29.2043 0.927042 29.2819 1.02712 29.3318C1.1272 29.3819 1.23949 29.4022 1.35078 29.3906H9.99963C10.2576 29.3986 10.5129 29.3369 10.7387 29.2119C10.9644 29.0869 11.1523 28.9034 11.2825 28.6805L16.0329 21.4376L19.4911 28.6166C19.5819 28.8572 19.7475 29.0623 19.9635 29.2015C20.1795 29.3409 20.4347 29.4072 20.6911 29.3906Z" fill="#EDEDED"/>
</svg>
