<svg width="105" height="34" viewBox="0 0 105 34" fill="none" xmlns="http://www.w3.org/2000/svg">
<path fill-rule="evenodd" clip-rule="evenodd" d="M0.0856018 33.8395H33.045V0.960083H0.0856018V33.8395ZM31.7382 32.5297H1.46968V2.33229H31.7412V32.5297H31.7382Z" fill="#EDEDED"/>
<path fill-rule="evenodd" clip-rule="evenodd" d="M9.59596 17.4651H12.3552V12.205L15.1531 17.4651H19.4865L12.572 4.36684H7.92973V7.41717H9.59596V17.4651Z" fill="#EDEDED"/>
<path fill-rule="evenodd" clip-rule="evenodd" d="M20.9269 17.4651H23.609V7.41717H25.2752V4.36684H18.9578V7.41717H20.9269V17.4651Z" fill="#EDEDED"/>
<path fill-rule="evenodd" clip-rule="evenodd" d="M20.6506 25.9V23.3605H18.925V24.5545L22.0852 30.5007H23.6089V25.9H20.6506Z" fill="#EDEDED"/>
<path fill-rule="evenodd" clip-rule="evenodd" d="M12.355 25.9058H9.59573V27.2305H7.93246V30.1323H14.241V27.2305H12.355V25.9058Z" fill="#EDEDED"/>
<path fill-rule="evenodd" clip-rule="evenodd" d="M47.1768 6.62402C47.1768 7.90118 47.1887 9.24665 47.2689 10.6307C46.7759 9.6298 46.2205 8.59322 45.6175 7.5715L41.8841 1.36985H38.3912V16.1403H41.4742V10.7585C41.4742 9.05954 41.4564 7.63684 41.4029 6.32701C41.9197 7.37547 42.5405 8.53085 43.2592 9.76643L47.0343 16.1374H50.2628V1.36688H47.1768V6.62105V6.62402Z" fill="#EDEDED"/>
<path fill-rule="evenodd" clip-rule="evenodd" d="M59.6067 9.90008H64.9054V7.10816H59.6067V4.1796H65.2202V1.36688H56.3307V16.1403H65.5321V13.3276H59.6067V9.90008Z" fill="#EDEDED"/>
<path fill-rule="evenodd" clip-rule="evenodd" d="M70.819 16.1403H74.0951V10.1496H79.269V7.35765H74.0951V4.1796H79.667V1.36688H70.819V16.1403Z" fill="#EDEDED"/>
<path d="M88.0871 1.36688H84.8111V16.1403H88.0871V1.36688Z" fill="#EDEDED"/>
<path fill-rule="evenodd" clip-rule="evenodd" d="M99.4745 7.27704C97.535 6.52262 97.0064 6.09492 97.0064 5.28705C97.0064 4.67223 97.5202 3.95049 98.9696 3.95049C100.167 3.95049 101.075 4.29205 101.628 4.57718L102.008 4.77618L102.816 2.01693L102.558 1.88327C101.892 1.5417 100.746 1.1348 99.035 1.1348C95.8926 1.1348 93.6947 2.94361 93.6947 5.53654C93.6947 7.53841 95.0194 8.98487 97.7459 9.95907C99.629 10.6481 99.9973 11.2154 99.9973 11.9669C99.9973 12.947 99.1775 13.5321 97.8024 13.5321C96.4272 13.5321 95.2718 13.0926 94.5798 12.6827L94.1818 12.451L93.4036 15.2786L93.6264 15.4152C94.5263 15.9766 96.1747 16.3657 97.6331 16.3657C101.821 16.3657 103.309 13.8915 103.309 11.7768C103.309 9.66206 102.124 8.26906 99.4745 7.27407V7.27704Z" fill="#EDEDED"/>
<path fill-rule="evenodd" clip-rule="evenodd" d="M50.3222 32.3422C49.345 32.6748 47.4946 33.1322 45.6472 33.1322C43.0899 33.1322 41.2425 32.4877 39.9535 31.261C38.6852 30.0373 37.9783 28.2048 37.9783 26.1524C37.9991 21.4952 41.3851 18.837 45.9798 18.837C47.7886 18.837 49.1787 19.1904 49.8648 19.4993L49.1995 22.0596C48.4302 21.7031 47.4946 21.4566 45.959 21.4566C43.3216 21.4566 41.3049 22.9298 41.3049 25.9861C41.3049 29.0423 43.1345 30.5779 45.7303 30.5779C46.4372 30.5779 47.0194 30.4947 47.2689 30.3878V27.4414H45.1066V24.9703H50.3222V32.3451V32.3422Z" fill="#EDEDED"/>
<path fill-rule="evenodd" clip-rule="evenodd" d="M55.9329 25.1934H57.1804C58.7605 25.1934 59.6961 24.4063 59.6961 23.1767C59.6961 21.9471 58.8228 21.2461 57.3675 21.2461C56.6012 21.2461 56.1616 21.2847 55.9329 21.353V25.1934ZM52.7965 19.167C53.8152 19.0036 55.3122 18.8759 57.014 18.8759C59.0931 18.8759 60.5485 19.1908 61.5435 19.9808C62.3959 20.6461 62.8533 21.6441 62.8533 22.9302C62.8533 24.6974 61.5851 25.9241 60.3792 26.3607V26.426C61.3564 26.8181 61.8969 27.7358 62.2504 29.0219C62.687 30.6199 63.1028 32.4495 63.3731 32.993H60.1327C59.9277 32.5772 59.5713 31.4545 59.1763 29.7258C58.7813 27.9645 58.1783 27.5071 56.8715 27.4804H55.9359V32.993H52.7994V19.17L52.7965 19.167Z" fill="#EDEDED"/>
<path fill-rule="evenodd" clip-rule="evenodd" d="M67.7359 26.004C67.7359 28.7692 69.0249 30.6998 71.1426 30.6998C73.2603 30.6998 74.5107 28.6623 74.5107 25.9416C74.5107 23.4051 73.3256 21.2459 71.1426 21.2459C68.9595 21.2459 67.7359 23.2804 67.7359 26.004ZM77.8551 25.8377C77.8551 30.4503 75.0928 33.2155 70.9792 33.2155C66.8656 33.2155 64.3915 30.0761 64.3915 26.0664C64.3915 22.0567 67.0913 18.7331 71.2079 18.7331C75.3245 18.7331 77.8551 21.9528 77.8551 25.8377Z" fill="#EDEDED"/>
<path fill-rule="evenodd" clip-rule="evenodd" d="M83.0916 18.9797V27.0228C83.0916 29.4553 84.0242 30.679 85.6281 30.679C87.232 30.679 88.2032 29.5147 88.2032 27.0228V18.9797H91.3634V26.8357C91.3634 31.1572 89.1804 33.2155 85.5212 33.2155C81.862 33.2155 79.9314 31.2404 79.9314 26.7911V18.9797H83.0916Z" fill="#EDEDED"/>
<path fill-rule="evenodd" clip-rule="evenodd" d="M97.2443 25.5261C97.5145 25.5855 97.8264 25.6092 98.3046 25.6092C99.9857 25.6092 101.025 24.7538 101.025 23.343C101.025 22.0569 100.131 21.2877 98.5303 21.2877C97.9066 21.2877 97.47 21.3263 97.2413 21.3887V25.5261H97.2443ZM94.1078 19.167C95.085 19.0007 96.4572 18.8759 98.3907 18.8759C100.324 18.8759 101.735 19.2531 102.671 20.0016C103.585 20.7085 104.168 21.8728 104.168 23.242C104.168 24.6113 103.731 25.7963 102.879 26.5656C101.797 27.5636 100.2 28.0418 98.3284 28.0418C97.9125 28.0418 97.5383 28.021 97.2472 27.9586V32.987H94.1108V19.167H94.1078Z" fill="#EDEDED"/>
<path fill-rule="evenodd" clip-rule="evenodd" d="M6.18638 20.9935V25.1339H4.80527V18.5224H6.18638L8.50605 22.5885V18.5224H9.89309V25.1339H8.50605L6.18638 20.9935ZM12.5068 21.1361H15.3284V22.3717H12.5068V23.8241H15.8422V25.1339H11.1227V18.5224H15.6967V19.7579H12.5068V21.1361ZM18.0223 21.2846H20.4162V22.5885H18.0223V25.1339H16.6353V18.5224H20.8499V19.7579H18.0223V21.2846ZM21.5775 18.5224H22.9587V25.1339H21.5775V18.5224ZM23.9002 22.9538H25.2754C25.2754 23.2449 25.3496 23.4617 25.4981 23.6756C25.6466 23.8953 26.006 24.0379 26.4367 24.0379C27.0901 24.0379 27.4584 23.7498 27.4584 23.3191L27.3158 22.8796L27.0248 22.5885L26.6565 22.4459C26.5139 22.4459 26.2911 22.3717 26.006 22.3004C25.6466 22.2261 25.4239 22.1519 25.2011 22.0806C25.0615 22.0093 24.8477 21.8638 24.6279 21.7182C24.4823 21.6469 24.3368 21.4301 24.2625 21.2103C24.117 20.9163 24.0398 20.6312 24.0398 20.2688C24.0398 19.6867 24.2625 19.2471 24.6279 18.8847C24.9902 18.5224 25.5694 18.3055 26.4367 18.3055C26.9475 18.3055 27.3129 18.3828 27.6722 18.5996C27.9633 18.7451 28.2544 19.0332 28.3999 19.3243C28.5455 19.6183 28.6197 19.9807 28.691 20.3401H27.3841C27.3158 19.8352 27.0248 19.6183 26.3684 19.6183C26.0803 19.6183 25.7892 19.6867 25.7179 19.7609L25.5011 20.1945C25.5011 20.4856 25.5694 20.7024 25.7892 20.7708C26.009 20.848 26.2198 20.9965 26.5852 21.0678C27.0931 21.1391 27.5326 21.2876 27.8207 21.4301C28.1831 21.5727 28.4029 21.7925 28.6227 22.0806C28.7652 22.3004 28.8365 22.6627 28.8365 23.0964C28.8365 23.7528 28.691 24.2607 28.3286 24.6913C27.892 25.0596 27.3158 25.2735 26.4396 25.2735C25.4268 25.2735 24.7675 25.0596 24.411 24.5488C24.0428 24.0379 23.9032 23.533 23.9032 22.9538H23.9002Z" fill="#EDEDED"/>
</svg>
