<svg width="147" height="33" viewBox="0 0 147 33" fill="none" xmlns="http://www.w3.org/2000/svg">
<path fill-rule="evenodd" clip-rule="evenodd" d="M38.5904 20.8415C39.4113 19.9009 40.4515 17.7374 40.7905 10.9408L40.8304 7.27835H52.7052V20.8481H55.3939V26.6476H52.1435V24.1118H39.7237V26.6476H36.4667V20.8415H38.5937H38.5904ZM42.4124 20.8415H49.2554V10.2628L44.2237 10.3193L44.0907 13.4135C43.7185 18.1328 43.1269 20.0339 42.4091 20.8415H42.4124ZM63.7192 11.1502C67.8636 11.1502 70.5324 13.9652 70.5324 17.7374C70.5324 21.4995 67.8636 24.3245 63.7192 24.3245C59.5749 24.3245 56.9061 21.5095 56.9061 17.7374C56.9061 13.9652 59.5749 11.1502 63.7192 11.1502ZM63.7192 21.3334C65.6901 21.3334 67.1424 19.9076 67.1424 17.7374C67.1424 15.6136 65.6668 14.1679 63.7192 14.1679C61.8249 14.1679 60.3293 15.5571 60.3293 17.7374C60.3293 19.8311 61.7717 21.3334 63.7192 21.3334Z" fill="#EDEDED"/>
<path d="M75.7805 11.1503H72.8027V24.3246H76.0929V16.2718L80.008 20.4594H80.0944L83.9031 16.2718V24.3246H87.19V11.1503H84.2986L80.1509 15.9262L75.7805 11.1503ZM134.124 11.1503H137.438V16.3017L142.323 11.1503H146.504L140.705 17.4118L146.999 24.3246H142.676L137.441 19.0137V24.3213H134.128V11.1503H134.124ZM92.7702 11.1503H89.46V24.3246H92.7702V19.0137L98.0046 24.3246H102.328L96.0371 17.4085L101.84 11.147H97.659L92.7735 16.2984V11.147L92.7702 11.1503ZM109.198 14.4838L109.152 15.893C108.985 23.3176 106.719 24.6304 103.086 24.2681V21.0443C105.037 21.1773 105.828 20.2467 105.918 15.2349L105.984 11.1503H115.955V24.1884H112.595V14.4838H109.198ZM121.591 11.1503H118.228V24.3246H121.591L127.737 15.9794V24.3213H131.097V11.1537H127.737L121.588 19.4989V11.157L121.591 11.1503Z" fill="#EDEDED"/>
<path d="M18.1214 32.0443V21.9176C18.1214 20.123 19.5406 18.6673 21.2954 18.6673H30.0162L18.1181 32.0443H18.1214Z" fill="#EDEDED"/>
<path fill-rule="evenodd" clip-rule="evenodd" d="M17.1212 32.0414H3.26212H3.25879C1.77319 32.0414 0.287598 30.4993 0.287598 29.0702V11.5355C0.287598 10.4853 0.64321 9.36525 2.07231 8.41141C2.49458 8.12924 3.38195 7.53046 4.50401 6.77331C7.16173 4.97994 11.1361 2.2981 13.3655 0.830546C14.5553 0.0528511 15.7451 0.0395571 16.9349 0.830546L28.5239 8.56097C29.501 9.21237 30.0095 10.3457 30.0095 11.5322V17.6705H23.768V13.0178L15.1502 7.07869L6.5291 13.0211V25.7999H17.1246V31.9632C17.1224 31.9891 17.1213 32.0152 17.1212 32.0414ZM30.0095 18.6675V18.6677H23.768V18.6675H30.0095Z" fill="#EDEDED"/>
</svg>
