<svg width="173" height="26" viewBox="0 0 173 26" fill="none" xmlns="http://www.w3.org/2000/svg">
<path d="M28.7947 14.0418C28.6256 6.38971 22.3736 0.252716 14.6832 0.252716C6.88457 0.252716 0.555939 6.57572 0.555939 14.3665H6.20369C6.20369 20.5959 11.2641 25.6507 17.4992 25.6507C23.6272 25.6507 28.6256 20.7661 28.7947 14.6753V14.0418ZM17.4992 20.0086C16.7576 20.01 16.023 19.8652 15.3374 19.5822C14.6519 19.2993 14.029 18.8838 13.5043 18.3597C12.9796 17.8355 12.5636 17.213 12.2799 16.5278C11.9963 15.8425 11.8507 15.1081 11.8514 14.3665C11.8507 13.6248 11.9963 12.8904 12.2799 12.2051C12.5636 11.5199 12.9796 10.8974 13.5043 10.3732C14.029 9.84909 14.6519 9.43364 15.3374 9.15069C16.023 8.86774 16.7576 8.72286 17.4992 8.72434C18.2408 8.72286 18.9754 8.86774 19.6609 9.15069C20.3465 9.43364 20.9694 9.84909 21.4941 10.3732C22.0187 10.8974 22.4348 11.5199 22.7184 12.2051C23.0021 12.8904 23.1477 13.6248 23.1469 14.3665C23.1477 15.1081 23.0021 15.8425 22.7184 16.5278C22.4348 17.213 22.0187 17.8355 21.4941 18.3597C20.9694 18.8838 20.3465 19.2993 19.6609 19.5822C18.9754 19.8652 18.2408 20.01 17.4992 20.0086ZM109.195 5.50817C104.274 5.50817 100.266 9.48188 100.266 14.3507C100.266 19.313 104.181 23.1932 109.195 23.1932C114.193 23.1932 118.123 19.313 118.123 14.3507C118.107 9.48076 114.115 5.50817 109.195 5.50817ZM109.195 19.4979C106.565 19.4979 104.646 17.1497 104.646 14.3665C104.646 11.5843 106.549 9.23388 109.195 9.23388C111.764 9.23388 113.697 11.6305 113.697 14.3665C113.697 17.1497 111.794 19.4979 109.195 19.4979ZM69.9692 5.89483L69.9545 7.85858C69.9545 7.85858 69.7527 7.61057 69.5825 7.4257C68.7483 6.42128 67.1227 5.52395 64.7554 5.52395C60.3759 5.52395 56.8012 9.49654 56.8012 14.3665C56.8012 19.251 60.3759 23.209 64.7554 23.209C67.1385 23.209 68.7472 22.3128 69.5825 21.3072C69.7527 21.1066 69.9545 20.8743 69.9545 20.8743L69.9703 22.8381H74.3025V5.89483H69.9692ZM70.2329 14.3665C70.2329 17.2568 68.4529 19.499 65.761 19.499C63.069 19.499 61.1808 17.2568 61.1808 14.3665C61.1808 11.4761 63.069 9.23388 65.761 9.23388C68.4529 9.21922 70.2329 11.4603 70.2329 14.3665C70.2329 14.3507 70.2329 14.3507 70.2329 14.3665ZM150.989 5.89483L150.973 7.85858C150.973 7.85858 150.771 7.61057 150.601 7.4257C149.766 6.42128 148.141 5.52395 145.774 5.52395C141.395 5.52395 137.821 9.49654 137.821 14.3665C137.821 19.251 141.395 23.209 145.774 23.209C148.157 23.209 149.766 22.3128 150.601 21.3072C150.771 21.1066 150.973 20.8743 150.973 20.8743L150.989 22.8381H155.321V5.89483H150.989ZM151.252 14.3665C151.252 17.2568 149.472 19.499 146.78 19.499C144.088 19.499 142.199 17.2568 142.199 14.3665C142.199 11.4761 144.088 9.23388 146.78 9.23388C149.472 9.21922 151.252 11.4603 151.252 14.3665C151.252 14.3507 151.252 14.3507 151.252 14.3665ZM50.2877 12.1096H54.6672C53.5986 7.9668 50.4421 5.50929 46.1877 5.50929C41.0969 5.50929 37.2596 9.31166 37.2596 14.3507C37.2596 19.3897 41.0969 23.1932 46.1877 23.1932C50.4421 23.1932 53.5986 20.7357 54.6672 16.5929H50.2719C49.4828 18.3706 48.0748 19.4832 46.1877 19.4832C43.5104 19.4832 41.638 17.2568 41.638 14.3507C41.638 11.4299 43.5104 9.21922 46.1877 9.21922C48.0748 9.21922 49.4986 10.3319 50.2877 12.1096ZM81.9005 5.89483H78.1702V22.8234H82.5182V12.4185L87.7173 19.0662L92.8848 12.4185V22.8234H97.2328V5.8937H93.5037L87.6869 13.3293L81.8993 5.8937L81.9005 5.89483ZM136.754 5.89483H131.631L125.457 13.3305V5.89483H121.109V22.8234H125.457V15.5118L132.344 22.8234H137.898L129.697 14.2289L136.754 5.89483ZM163.384 22.8234H167.732V9.54389H172.853V5.89483H158.277V9.54389H163.384V22.8234Z" fill="#EDEDED"/>
</svg>
