<svg width="140" height="39" viewBox="0 0 140 39" fill="none" xmlns="http://www.w3.org/2000/svg">
<path d="M16.4167 8.1524C18.8721 14.3836 14.8691 18.3821 10.8826 22.3867C7.17164 26.4785 3.90327 30.733 10.4776 38.3883C8.02072 32.1602 12.0253 28.1586 16.0087 24.1586C19.7242 20.0562 22.9911 15.8092 16.4167 8.1524Z" fill="#EDEDED"/>
<path d="M10.4781 0.185084C12.9366 6.41774 8.93504 10.4133 4.94556 14.4163C1.23609 18.5127 -2.03227 22.7672 4.5451 30.421C2.08668 24.1868 6.09122 20.1913 10.0762 16.1883C13.7887 12.0919 17.054 7.83891 10.4781 0.183578M111.371 24.8568V37.5916H116.949V32.9291H123.078V30.141H116.949V27.6434H129.106V37.5901H134.684V27.6434H139.736V24.8553M99.4045 34.826V32.6175H106.677V29.8278H99.4045V27.6419H108.746V24.8538H93.8267V37.5886H108.86V34.826" fill="#EDEDED"/>
<path d="M40.5811 24.8585H25.126V27.6466H30.0639V37.5932H35.6417V27.6466H40.5796M44.8039 32.7667L47.3843 27.8378L49.8547 32.7667H44.8039ZM51.5921 24.8569H45.6139L38.6526 37.5917H42.2777L43.4219 35.4058H51.2383L52.3794 37.5917H58.5563" fill="#EDEDED"/>
<path d="M86.9842 24.8587V31.2238L78.0643 24.8587H73.7346V37.5919H77.5525V30.5855L86.7117 37.5919H90.8006V24.8587" fill="#EDEDED"/>
<path d="M71.8413 24.8587H56.7098V27.6468H61.6478V37.5935H67.227V27.6468H71.8413" fill="#EDEDED"/>
</svg>
