<svg width="141" height="34" viewBox="0 0 141 34" fill="none" xmlns="http://www.w3.org/2000/svg">
<path d="M38.3809 24.1238V11.0054H49.0299V24.1238H46.4289V13.5111H40.9819V24.1238H38.3809Z" fill="#EDEDED"/>
<path d="M59.048 14.5641V24.1238H56.6422V20.8056C56.1747 20.8918 55.6799 21.0008 55.0853 21.0189L53.0925 24.1238H50.3871L52.7657 20.683C51.5174 20.1565 50.8592 19.2486 50.8592 17.8278C50.8592 15.8805 52.2845 14.5641 55.0943 14.5641H59.048ZM56.6422 16.5614H55.167C53.9368 16.5614 53.324 17.0017 53.324 17.8596C53.324 18.7175 53.9232 19.1215 55.117 19.1215C55.6436 19.1215 56.152 19.0852 56.6468 18.999V16.5614H56.6422Z" fill="#EDEDED"/>
<path d="M75.3214 15.3725C76.0613 16.0897 76.429 17.0747 76.429 18.3548V24.1242H73.9506V18.8087C73.9506 17.3516 73.1789 16.5799 72.035 16.5799C70.7867 16.5799 69.9242 17.4742 69.9242 18.8768V24.1196H67.4458V18.8223C67.4458 17.4015 66.6923 16.5754 65.5121 16.5754C64.3319 16.5754 63.4195 17.4696 63.4195 18.8904V24.1151H60.9411V14.5554H63.365V15.9217C63.9097 14.9231 65.0355 14.274 66.2838 14.2921C67.4776 14.2921 68.5852 14.8732 69.0936 15.9762C69.7971 14.9231 71.0954 14.2921 72.5207 14.2921C73.6646 14.2921 74.5951 14.6417 75.3169 15.3634" fill="#EDEDED"/>
<path d="M97.7317 15.7764C98.626 16.7387 99.0663 17.9326 99.0663 19.3352C99.0663 20.7378 98.6078 21.9316 97.7136 22.8939C96.8148 23.8563 95.6936 24.351 94.3409 24.351C93.1653 24.351 92.0804 23.8381 91.3359 22.9303V28.0551H88.8575V14.569H91.3178V15.8218C92.1031 14.8413 93.1471 14.3239 94.3591 14.3239C95.7118 14.3239 96.8375 14.8141 97.7317 15.781M95.8343 21.3052C96.3246 20.7787 96.5697 20.1295 96.5697 19.3579C96.5697 18.5862 96.3246 17.9371 95.8343 17.4105C95.3441 16.884 94.7086 16.6207 93.9188 16.6207C93.129 16.6207 92.5116 16.884 92.0214 17.4105C91.5266 17.9371 91.2815 18.5862 91.2815 19.3579C91.2815 20.1295 91.5266 20.7787 92.0214 21.3052C92.5116 21.8318 93.1471 22.095 93.9188 22.095C94.6905 22.095 95.3441 21.8318 95.8343 21.3052Z" fill="#EDEDED"/>
<path d="M101.404 15.7762C102.371 14.7957 103.601 14.3055 105.094 14.3055C106.588 14.3055 107.818 14.7957 108.785 15.7762C109.751 16.7385 110.228 17.9323 110.228 19.3349C110.228 20.7376 109.751 21.9495 108.785 22.9119C107.818 23.8742 106.588 24.369 105.094 24.369C103.601 24.369 102.371 23.8787 101.404 22.9119C100.437 21.9495 99.9603 20.7557 99.9603 19.3349C99.9603 17.9142 100.437 16.7385 101.404 15.7762ZM105.094 22.0721C105.848 22.0721 106.465 21.8088 106.973 21.2823C107.482 20.7376 107.745 20.0885 107.745 19.3349C107.745 18.5814 107.482 17.9323 106.973 17.4058C106.465 16.8792 105.848 16.6159 105.094 16.6159C104.341 16.6159 103.705 16.8792 103.197 17.4058C102.688 17.9323 102.443 18.5814 102.443 19.3349C102.443 20.0885 102.688 20.7376 103.197 21.2823C103.705 21.8088 104.341 22.0721 105.094 22.0721Z" fill="#EDEDED"/>
<path d="M117.205 14.5641H119.684V24.1238H117.205V20.9054C116.479 21.3185 115.694 21.5273 115.076 21.5273C113.932 21.5273 113.088 21.3185 112.334 20.8101C111.576 20.2654 111.159 19.2486 111.159 17.7779V14.5687H113.619V17.6009C113.619 18.7221 114.2 19.2849 115.358 19.2849C116.007 19.2849 116.561 19.1941 117.205 18.94V14.5687V14.5641Z" fill="#EDEDED"/>
<path d="M127.872 24.1242L124.059 19.7121V24.1242H121.581V14.551H124.059V18.3458L127.536 14.5646H130.664L126.392 18.9903L130.909 24.1242H127.872Z" fill="#EDEDED"/>
<path d="M138.176 14.5646H140.532V24.1197H138.176V22.8578C137.355 23.8564 136.329 24.3466 135.117 24.3466C133.746 24.3466 132.602 23.8746 131.708 22.9077C130.814 21.9408 130.373 20.7334 130.373 19.2945C130.373 17.8555 130.832 16.6617 131.726 15.7357C132.625 14.787 133.764 14.3149 135.117 14.3149C136.311 14.3149 137.368 14.8551 138.176 15.8129V14.56V14.5646ZM137.437 17.388C136.928 16.8433 136.293 16.58 135.521 16.58C134.749 16.58 134.096 16.8433 133.587 17.388C133.097 17.9327 132.847 18.5818 132.847 19.3353C132.847 20.0888 133.092 20.7561 133.605 21.3008C134.114 21.8455 134.749 22.1088 135.521 22.1088C136.293 22.1088 136.928 21.8455 137.437 21.3008C137.945 20.7561 138.208 20.107 138.208 19.3353C138.208 18.5636 137.945 17.9327 137.437 17.388Z" fill="#EDEDED"/>
<path d="M87.4138 20.2111H80.2282C80.5777 21.5593 81.5128 22.2447 83.0198 22.2447C84.0593 22.2447 85.2123 21.8589 86.0884 21.1644L87.087 22.7304C85.875 23.8607 84.4996 24.3328 82.9154 24.3328C81.2268 24.3328 79.9467 23.8425 79.048 22.8757C78.1492 21.9134 77.7134 20.7195 77.7134 19.3351C77.7134 17.878 78.1719 16.6887 79.1024 15.74C80.033 14.7913 81.2268 14.3192 82.7066 14.3192C84.0956 14.3192 85.2531 14.7595 86.1519 15.6174C87.0507 16.4753 87.5046 17.6329 87.5046 19.1263C87.5046 19.4576 87.4683 19.8299 87.4184 20.2157M80.9499 10.7287C81.7761 10.7287 82.4252 11.3778 82.4252 12.1676C82.4252 13.0255 81.7942 13.6565 80.9499 13.6565C80.1056 13.6565 79.4747 13.0255 79.4747 12.1676C79.4747 11.3778 80.1238 10.7287 80.9499 10.7287ZM80.2282 18.3728H85.0943C84.8673 17.129 83.9685 16.3755 82.7066 16.3755C81.4447 16.3755 80.5278 17.129 80.2282 18.3728ZM83.2876 12.1631C83.2876 11.3369 83.9367 10.7241 84.781 10.7241C85.6253 10.7241 86.2381 11.3732 86.2381 12.1631C86.2381 13.021 85.6072 13.6519 84.781 13.6519C83.9549 13.6519 83.2876 13.021 83.2876 12.1631Z" fill="#EDEDED"/>
<path fill-rule="evenodd" clip-rule="evenodd" d="M0.174164 16.952C0.174164 8.04597 7.41881 0.801331 16.3248 0.801331C25.2308 0.801331 32.4755 8.04597 32.4755 16.952C32.4755 25.858 25.2308 33.1026 16.3248 33.1026C7.41881 33.1026 0.174164 25.858 0.174164 16.952ZM25.1855 5.88554C23.4502 10.3933 19.1908 10.4277 15.6761 10.4561C15.1914 10.46 14.7209 10.4639 14.2732 10.4793L13.3744 13.979C17.9318 10.2614 23.9645 13.9472 23.3199 19.5577C22.8841 23.3344 20.1923 25.8038 17.3417 26.5164C14.2368 27.2926 10.8006 26.1306 9.25729 22.9713C9.09387 22.6354 8.8079 21.9681 8.69896 21.6095L11.9718 20.7697C12.0308 20.9604 12.1261 21.1419 12.2305 21.3054C14.423 24.8414 18.8623 23.0711 19.3617 19.408C19.8701 15.6767 14.6363 13.693 12.2532 18.0507L9.35261 16.8115L9.30268 16.7888L10.383 12.4493C10.5555 11.6776 11.0684 9.66219 11.1275 9.467C11.15 9.39266 11.1683 9.33034 11.1848 9.27449L11.1848 9.27441C11.2345 9.10522 11.2669 8.9954 11.3453 8.79066C13.2064 3.90189 16.8832 3.40711 20.1515 3.40711H20.5419C19.2073 2.99404 17.7911 2.76707 16.3249 2.76707C8.49469 2.76707 2.14882 9.11294 2.14882 16.9431C2.14882 24.7733 8.49469 31.1192 16.3249 31.1192C24.1551 31.1192 30.501 24.7733 30.501 16.9431C30.501 12.4674 28.422 8.47291 25.181 5.87646L25.1855 5.88554ZM23.8918 4.92784L23.8902 4.93288C23.5013 4.96434 23.0583 4.98231 22.5255 4.98231C22.1487 4.98231 21.7765 4.97777 21.377 4.9687C20.9776 4.95962 20.5645 4.95054 20.156 4.95054C17.21 4.95054 14.4411 5.31368 12.9023 9.03586C13.7217 8.93561 14.6165 8.92744 15.5504 8.91891H15.5504L15.6667 8.91784C17.4824 8.90422 19.3571 8.88607 20.9004 8.28688C22.3833 7.71097 23.3406 6.63672 23.8902 4.93288L23.8963 4.93238L23.8918 4.92784Z" fill="#EDEDED"/>
</svg>
