<svg width="171" height="43" viewBox="0 0 171 43" fill="none" xmlns="http://www.w3.org/2000/svg">
<path d="M21.9642 11.7742C24.6034 9.66277 27.3746 7.81531 30.0139 6.23178C27.3746 3.98844 24.7354 2.00902 21.9642 0.16156C19.193 1.87706 16.5538 3.98844 13.9145 6.23178C16.6857 7.81531 19.325 9.66277 21.9642 11.7742Z" fill="#EDEDED"/>
<path d="M15.4978 17.7129C17.6092 15.6015 19.8525 13.6221 22.0959 11.7746C19.4566 9.66325 16.6854 7.81579 14.0462 6.23225C12.5946 7.55187 11.0111 8.87148 9.69145 10.3231C8.63575 11.3787 7.58005 12.4344 6.65632 13.6221C9.29556 15.2056 11.9348 16.9211 14.4421 19.0325C14.706 18.5047 15.1019 18.1088 15.4978 17.7129Z" fill="#EDEDED"/>
<path d="M7.58009 26.8182C9.55952 24.047 11.8029 21.4077 14.3102 18.9005C11.8029 16.9211 9.16364 15.0736 6.5244 13.4901C4.14908 16.1293 2.03769 18.7685 0.190216 21.5397C2.6975 23.1232 5.20478 24.8387 7.58009 26.8182Z" fill="#EDEDED"/>
<path d="M29.75 18.9002C32.2573 16.9208 34.8965 15.0733 37.5358 13.4898C36.6121 12.4341 35.5564 11.2465 34.5007 10.1908C33.0491 8.7392 31.5975 7.41959 30.1459 6.09998C27.3747 7.68351 24.7355 9.53097 22.0962 11.6423C24.3396 13.4898 26.5829 15.3373 28.6943 17.5806C28.9583 18.1085 29.3541 18.5043 29.75 18.9002Z" fill="#EDEDED"/>
<path d="M36.4801 26.8182C38.8555 24.8387 41.3627 23.1232 43.87 21.5397C42.0226 18.7685 39.9112 16.1293 37.5358 13.4901C34.8966 15.0736 32.2574 16.7891 29.7501 18.9005C32.2574 21.4077 34.5007 24.1789 36.4801 26.8182Z" fill="#EDEDED"/>
<path d="M21.9643 42.1251C23.9438 39.3539 26.1871 36.5827 28.6944 33.9435C26.715 31.1723 24.4716 28.533 21.9643 25.8938C19.4571 28.533 17.2137 31.1723 15.2343 33.9435C17.7415 36.5827 19.9849 39.2219 21.9643 42.1251Z" fill="#EDEDED"/>
<path d="M75.9368 27.081C76.0687 27.081 76.3327 27.081 76.4646 26.949V30.2481C75.8048 30.512 74.7491 30.7759 73.8254 30.7759C72.2418 30.7759 70.9222 30.2481 70.2624 29.1924C68.8108 30.2481 67.2273 31.0398 65.1159 31.0398C62.2127 31.0398 59.9694 29.3243 59.9694 26.4212C59.9694 22.7263 63.5323 21.5386 66.4355 21.5386C67.4912 21.5386 68.6789 21.6706 69.6026 21.9345V21.4067C69.6026 20.351 68.6789 19.5592 66.5675 19.5592C64.588 19.5592 62.8725 20.0871 61.4209 20.7469V16.3921C62.6086 15.9963 64.9839 15.4684 67.2273 15.4684C71.9779 15.4684 75.013 17.0519 75.013 22.3304V26.4212C75.013 26.8171 75.5409 27.081 75.9368 27.081ZM67.3592 27.3449C68.283 27.3449 68.9428 27.213 69.7346 26.5532V24.5737C69.2067 24.4418 68.5469 24.3098 67.8871 24.3098C66.6994 24.3098 65.5118 24.7057 65.5118 25.8934C65.5118 26.5532 66.1716 27.3449 67.3592 27.3449Z" fill="#EDEDED"/>
<path d="M82.9303 7.81549V30.3809H77.6518V7.81549H82.9303Z" fill="#EDEDED"/>
<path d="M100.349 27.081C100.481 27.081 100.745 27.081 100.877 26.949V30.2481C100.217 30.512 99.1617 30.7759 98.238 30.7759C96.6545 30.7759 95.3348 30.2481 94.675 29.1924C93.2234 30.2481 91.6399 31.0398 89.5285 31.0398C86.6253 31.0398 84.382 29.3243 84.382 26.4212C84.382 22.7263 87.945 21.5386 90.8481 21.5386C91.9038 21.5386 93.0915 21.6706 94.0152 21.9345V21.4067C94.0152 20.351 93.0915 19.5592 90.9801 19.5592C89.0007 19.5592 87.2852 20.0871 85.8336 20.7469V16.3921C87.0212 15.9963 89.3966 15.4684 91.6399 15.4684C96.3905 15.4684 99.4257 17.0519 99.4257 22.3304V26.4212C99.4257 26.8171 99.8216 27.081 100.349 27.081ZM91.7719 27.3449C92.6956 27.3449 93.3554 27.213 94.1472 26.5532V24.5737C93.6193 24.4418 92.9595 24.3098 92.2997 24.3098C91.1121 24.3098 89.9244 24.7057 89.9244 25.8934C89.9244 26.5532 90.5842 27.3449 91.7719 27.3449Z" fill="#EDEDED"/>
<path d="M107.343 8.73866V16.7883C108.267 15.8646 109.719 15.0728 111.698 15.0728C116.713 15.0728 118.824 19.1636 118.824 22.9905C118.824 26.8174 116.581 30.9082 111.698 30.9082C109.059 30.9082 107.343 29.7205 106.684 28.4009V30.3803H102.065V8.73866H107.343ZM110.379 19.4275C108.927 19.4275 107.871 20.3513 107.343 21.275V24.706C107.871 25.6297 108.927 26.5534 110.379 26.5534C112.622 26.5534 113.546 24.706 113.546 22.9905C113.546 21.275 112.622 19.4275 110.379 19.4275Z" fill="#EDEDED"/>
<path d="M135.055 15.6004V30.38H130.437V28.6645C129.249 29.9842 127.665 30.7759 125.686 30.7759C121.595 30.7759 119.748 28.0047 119.748 24.7057V15.4684H125.026V23.9139C125.026 25.4975 125.95 26.2892 127.269 26.2892C128.457 26.2892 129.381 25.6294 129.777 24.9696V15.4684H135.055V15.6004Z" fill="#EDEDED"/>
<path d="M143.237 15.0733C145.876 15.0733 147.592 16.261 148.251 17.5806V15.6011H152.87V29.853C152.87 35.7912 148.515 37.7706 144.161 37.7706C141.785 37.7706 139.542 37.2428 137.826 36.3191V31.8324C139.41 32.7561 141.521 33.4159 143.501 33.4159C145.876 33.4159 147.724 32.7561 147.724 30.1169V29.1932C146.8 30.1169 145.348 30.9087 143.369 30.9087C138.354 30.9087 136.243 26.8179 136.243 22.991C136.111 19.1641 138.354 15.0733 143.237 15.0733ZM144.688 19.428C142.445 19.428 141.521 21.2755 141.521 22.991C141.521 24.7065 142.445 26.5539 144.688 26.5539C146.14 26.5539 147.196 25.6302 147.724 24.7065V21.2755C147.196 20.3518 146.14 19.428 144.688 19.428Z" fill="#EDEDED"/>
<path d="M169.762 27.081C169.893 27.081 170.157 27.081 170.289 26.949V30.2481C169.63 30.512 168.574 30.7759 167.65 30.7759C166.067 30.7759 164.747 30.2481 164.087 29.1924C162.636 30.2481 161.052 31.0398 158.941 31.0398C156.037 31.0398 153.794 29.3243 153.794 26.4212C153.794 22.7263 157.357 21.5386 160.26 21.5386C161.316 21.5386 162.504 21.6706 163.427 21.9345V21.4067C163.427 20.351 162.504 19.5592 160.392 19.5592C158.413 19.5592 156.697 20.0871 155.246 20.7469V16.3921C156.433 15.9963 158.809 15.4684 161.052 15.4684C165.803 15.4684 168.838 17.0519 168.838 22.3304V26.4212C168.706 26.8171 169.234 27.081 169.762 27.081ZM161.052 27.3449C161.976 27.3449 162.636 27.213 163.427 26.5532V24.5737C162.899 24.4418 162.24 24.3098 161.58 24.3098C160.392 24.3098 159.205 24.7057 159.205 25.8934C159.205 26.5532 159.864 27.3449 161.052 27.3449Z" fill="#EDEDED"/>
</svg>
