<svg width="25" height="25" viewBox="0 0 25 25" fill="none" xmlns="http://www.w3.org/2000/svg">
    <path
        d="M15.3425 12.896L10.9105 15.778C10.7349 15.8918 10.5 15.7689 10.5 15.5621V14.5393C10.5 14.4527 10.5449 14.3713 10.6175 14.3234L14.4107 11.8564L15.3412 12.4628C15.4982 12.565 15.4982 12.7913 15.3412 12.8934L15.3425 12.896Z"
        fill="white" />
    <path
        d="M14.4107 13.5028L10.5 10.9595V9.79844C10.5 9.59156 10.7349 9.46873 10.9105 9.58251L15.3412 12.4645C15.4982 12.5667 15.4982 12.7929 15.3412 12.8951L14.4107 13.5028Z"
        fill="white" />
    <path
        d="M11.8976 10.2251V15.1368L10.9105 15.7793C10.7349 15.8931 10.5 15.7703 10.5 15.5634V9.79842C10.5 9.59156 10.7349 9.46874 10.9105 9.58251L11.8976 10.2251Z"
        fill="white" />
    <rect x="11.3472" y="11.6672" width="2.26665" height="2.18545" fill="white" />
    <path
        d="M24.9998 21.0178V2.96243C24.9998 2.17633 24.6267 1.53906 24.1666 1.53906L21.4212 1.53906C20.961 1.53906 20.588 2.17633 20.588 2.96243V21.0178C20.588 21.8039 20.961 22.4412 21.4212 22.4412H24.1666C24.6267 22.4412 24.9998 21.8039 24.9998 21.0178Z"
        fill="white" />
    <path fill-rule="evenodd" clip-rule="evenodd"
        d="M4.41198 18.8727V2.8584C4.41198 2.13283 4.03704 1.53918 3.57879 1.53918H0.83341C0.375153 1.53918 0.000215424 2.13283 0.000215424 2.8584L0.000215424 18.8727H0L0 22.5944C0 23.071 0.494723 23.4609 1.09938 23.4609H23.9006C24.5053 23.4609 25 23.071 25 22.5944V18.8727H4.41198Z"
        fill="#FF5129" />
    <path
        d="M1.09938 1.53906H23.9006C24.5053 1.53906 25 1.929 25 2.40559V5.26081C25 5.7374 24.5053 6.12734 23.9006 6.12734H0L0 2.40559C0 1.929 0.494723 1.53906 1.09938 1.53906Z"
        fill="white" />
</svg>