<svg width="162" height="41" viewBox="0 0 162 41" fill="none" xmlns="http://www.w3.org/2000/svg">
<g clip-path="url(#clip0_3276_10160)">
<path d="M17.4442 5.67839C13.2652 5.75792 8.23284 6.48363 5.31006 8.23759C3.42546 9.38001 1.10821 11.7064 0.397106 15.2879C-0.313998 18.8694 0.0147057 22.3577 0.716038 25.9429C1.41737 29.5281 2.82212 33.5416 6.71353 35.6089C10.6049 37.6763 13.2148 37.9215 18.5482 37.9061C23.8817 37.9215 26.4915 37.6763 30.383 35.6089C34.2744 33.5416 35.6791 29.5281 36.3804 25.9429C37.0818 22.3577 37.4105 18.8694 36.6994 15.2879C35.9883 11.7064 33.671 9.38001 31.7864 8.23759C27.9891 6.14872 23.8113 5.74806 19.6523 5.67839C18.8948 5.68343 18.1456 5.66994 17.4442 5.67839ZM22.886 6.64252C24.4291 6.78974 28.2904 7.08901 31.1803 8.812C34.0702 10.535 35.3619 12.7261 35.9016 15.3835C36.4413 18.0409 36.3944 21.4018 35.6466 25.6557C34.8988 29.9095 32.8063 33.4488 29.968 34.9393C27.1297 36.4299 23.5264 37.2187 18.5482 37.1417C13.5701 37.2187 9.96677 36.4299 7.12847 34.9393C4.29017 33.4488 2.1977 29.9095 1.44991 25.6557C0.702118 21.4018 0.655154 18.0409 1.19484 15.3835C1.73453 12.7261 3.02631 10.535 5.9162 8.812C8.80609 7.08902 12.6674 6.78974 14.2105 6.64252C17.0924 6.4033 20.0403 6.38453 22.886 6.64252ZM17.591 7.38208C15.2222 7.41162 12.6862 7.7015 10.9508 8.07446C8.96742 8.5007 8.28929 8.6512 6.57888 9.67442C4.86847 10.6976 2.76529 12.781 2.11991 15.9888C1.47454 19.1967 1.77305 22.3213 2.40956 25.5324C3.04607 28.7435 4.32085 32.3384 7.85258 34.19C13.7222 37.2471 23.5216 37.1253 29.2439 34.19C32.7756 32.3384 34.0504 28.7435 34.6869 25.5324C35.3234 22.3213 35.6219 19.1967 34.9766 15.9888C34.3312 12.781 32.228 10.6976 30.5176 9.67442C28.8072 8.6512 28.1291 8.5007 26.1457 8.07446C24.4102 7.7015 21.8743 7.41162 19.5055 7.38208C18.8486 7.38708 18.1992 7.3749 17.591 7.38208ZM22.2501 8.92468C22.8942 8.98508 24.0073 9.07725 25.2658 9.31969C25.4521 9.35805 25.5569 9.4183 25.516 9.5955C23.4922 14.5041 21.3305 19.4147 19.0755 24.3234C18.7715 24.9744 18.3874 24.9994 18.0764 24.4438C15.8013 19.495 13.6209 14.5443 11.5805 9.5955C11.5396 9.4183 11.6444 9.35805 11.8307 9.31969C13.0892 9.07725 14.2023 8.98508 14.8463 8.92468C17.3057 8.72233 19.8298 8.70863 22.2501 8.92468ZM9.79588 9.85341C9.91111 9.85049 9.94969 9.9266 9.94558 10.0706L9.94721 10.0662V18.3259C9.94721 20.9328 10.3734 22.1555 11.5264 24.2811L17.052 34.4564C17.2407 34.816 16.9346 34.7925 16.6021 34.7961C13.3074 34.6546 10.7847 34.014 8.72924 32.9529C6.27755 31.6872 4.46994 28.6821 3.82401 25.0699C3.17808 21.4577 3.13735 18.6038 3.60353 16.3472C4.06971 14.0906 5.18547 12.2298 7.68172 10.7667C8.30416 10.4019 8.9789 10.1123 9.66163 9.88107C9.71456 9.86395 9.75937 9.85434 9.79588 9.85341ZM27.3006 9.85341C27.3371 9.85434 27.3819 9.86395 27.4349 9.88107C28.1176 10.1123 28.7923 10.4019 29.4148 10.7667C31.911 12.2298 33.0268 14.0906 33.493 16.3472C33.9591 18.6038 33.9184 21.4577 33.2725 25.0699C32.6265 28.6821 30.8189 31.6872 28.3672 32.9529C26.3118 34.014 23.7891 34.6546 20.4944 34.7961C20.1618 34.7925 19.8558 34.816 20.0445 34.4564L25.5701 24.2811C26.7231 22.1555 27.1493 20.9328 27.1493 18.3259V10.0662L27.1509 10.0706C27.1468 9.9266 27.1854 9.85049 27.3006 9.85341Z" fill="white"/>
<path d="M73.4505 8.14819V9.42027H66.1004V12.9773L68.7137 13.0009V11.3078C68.7111 11.073 68.8991 10.9962 69.21 11.021H80.7738C80.9092 11.0199 81.2192 11.0504 81.2245 11.2814V12.9773L83.8395 12.9538L83.8252 10.8526C83.8327 9.93162 83.1287 9.50639 82.3555 9.49105H76.301V8.14819H73.4505ZM94.1926 8.256L91.7221 12.8732H94.1117L95.0432 11.172H105.188V9.79493L96.0151 9.73432L97.048 8.27634L94.1926 8.256ZM114.22 8.256L113.126 9.87589L108.461 9.89053V11.2948L111.709 11.292C111.91 11.2904 112.009 11.4106 111.931 11.5365L109.522 15.1208C109.173 15.6931 109.227 16.6025 110.21 16.619L116.906 16.6431L116.925 19.0379H108.245V20.5504L116.906 20.5687L116.925 24.0798H119.552L119.571 20.5687L126.9 20.5504V19.0379H119.552L119.571 16.6431L125.891 16.6247V15.3287L119.586 15.3234L119.553 12.6995H116.924L116.933 15.303L113.187 15.2624C112.584 15.2938 112.489 14.9967 112.681 14.7156L115.029 11.3139L126.612 11.2948V9.89134L116.143 9.87589L117.212 8.26983L114.22 8.256ZM47.0238 8.45004V14.3837L44.2148 14.4284V15.9409H47.0238V22.8952C47.0742 23.5386 47.5027 23.8457 48.1169 23.9879H52.9086V22.4945H50.0582C49.8765 22.6287 49.5635 22.4242 49.5867 22.0234V15.8986H52.4607C54.6328 19.077 56.389 22.4074 62.87 24.0078L62.8025 22.1882C59.8501 20.9084 56.8662 19.6948 55.0757 15.969H62.8733V14.4614H49.5635V8.45452L47.0238 8.45004ZM89.4745 8.62049L86.7408 8.64083C87.4489 9.44036 88.0228 10.1004 89.0291 11.7797H91.3576C90.7931 10.7394 90.2946 9.71194 89.4745 8.62049ZM58.3032 8.73684C55.971 10.3335 53.9502 11.8266 52.7435 13.0481L55.4528 13.0717C57.6817 11.1528 59.8313 10.1043 62.0015 8.83122L58.3032 8.73684ZM72.2419 12.488L70.8751 14.4878H65.6151V15.9523H69.721C69.8239 16.0485 69.6937 16.2208 69.5591 16.3961L68.5364 18.0062C68.371 18.3086 68.3566 18.6183 68.7288 18.9476L72.7382 20.8006C72.905 20.8833 73.0906 20.9629 72.7586 21.1244C70.8698 21.6395 68.7853 22.1006 65.6151 22.2687V24.081C69.4482 23.6886 73.0852 23.1647 75.5834 21.9445C75.6443 21.894 75.6677 21.8122 75.9479 21.9445C78.603 22.7416 81.2027 23.6046 84.2451 24.0404V22.2687C82.2872 21.8953 80.2577 21.4132 78.084 20.7701C77.921 20.6733 77.927 20.5598 78.0336 20.4361C79.7999 19.2344 80.7008 17.6349 81.4251 15.9523H84.2451V14.4878H74.0038C73.9192 14.4412 73.7618 14.4518 73.8521 14.2803L75.1278 12.7312C75.1908 12.6469 75.1981 12.5723 75.2087 12.488H72.2419ZM94.9196 12.5917V13.924H104.427V12.5917H94.9196ZM89.4948 13.278L86.8828 13.3187C87.6253 14.2863 88.3675 15.2099 89.11 16.7C89.2429 17.1537 89.2403 17.6304 89.0494 18.1381C88.4729 20.2044 87.7825 22.1188 87.0447 23.97L89.4745 23.9899C90.2401 21.9312 90.7995 19.8725 91.297 17.8138C91.5257 16.5719 91.2808 16.3802 91.0944 15.8901C90.6408 14.9131 90.1104 14.039 89.4948 13.278ZM93.0108 15.3287V16.733L100.936 16.761C101.337 16.7307 101.414 16.9776 101.442 17.2671L101.462 20.7908C101.508 22.4318 103.524 23.9928 105.508 24.044L105.544 22.3952C104.458 22.1321 103.913 20.9725 103.912 20.2843V16.5381C103.898 16.0456 103.492 15.4151 102.698 15.3433L93.0108 15.3287ZM72.5308 15.9523H78.8167C78.4546 17.4541 77.3219 18.7796 75.509 19.976C74.063 19.5223 72.6883 18.9974 71.3567 18.4293C70.9533 18.205 71.0062 17.9808 71.1704 17.7565L72.5308 15.9523Z" fill="white"/>
<path d="M49.1124 26.9114C46.4938 26.9114 44.3125 27.7565 44.3125 31.0949C44.3717 34.4417 47.2143 35.2651 49.3003 35.2651H53.2744V33.6224L49.6908 33.6448C48.8862 33.6448 46.9295 33.3533 46.9295 31.1092C46.8715 28.7756 48.977 28.5732 49.817 28.5732H53.2744V26.9248L49.1124 26.9114ZM97.1171 26.9114C95.808 26.9253 92.3169 27.3167 92.3169 31.0949C92.3169 34.6859 95.0623 35.2651 97.0817 35.2651H101.279H102.307C102.432 35.2651 102.538 35.1735 102.538 35.0234V30.5405C102.538 30.4416 102.473 30.3733 102.37 30.3733L98.3986 30.3643V31.9041H100.095C100.293 31.9041 100.343 32.1254 100.316 32.1254V33.4275C100.316 33.5471 100.273 33.6367 100.116 33.6277L97.1639 33.6448C96.641 33.6448 94.9338 33.3404 94.9338 31.06C94.9338 28.6932 96.5666 28.5732 97.2904 28.5732H102.556V26.9248L97.1171 26.9114ZM71.0504 26.9248L67.5076 35.248L69.555 35.2651L72.266 28.803C72.3531 28.5919 72.6328 28.6179 72.7155 28.8339L75.524 35.2655L78.1373 35.2651L74.8077 27.664C74.4779 26.9784 74.1526 26.9248 73.5254 26.9248H71.0504ZM81.1867 26.9248L80.0908 26.9252L80.1075 35.2496L82.0406 35.2675V30.3956C82.1065 30.4086 82.1919 30.2807 82.5251 30.5335L87.3433 34.7537C87.5765 34.9762 87.9523 35.2655 88.604 35.2655H89.6706C89.8208 35.2655 89.9517 35.1414 89.9517 34.916L89.9716 26.9252L88.019 26.9248L88.0133 31.4143C88.0133 31.868 87.6675 31.8801 87.347 31.5595L82.5483 27.4252C82.2824 27.187 82.0209 26.9248 81.1867 26.9248ZM108.148 26.9248L104.605 35.248L106.652 35.2651L109.363 28.803C109.45 28.5919 109.73 28.6179 109.813 28.8339L112.621 35.2655L115.235 35.2651L111.904 27.664C111.575 26.9784 111.25 26.9248 110.623 26.9248H108.148ZM118.216 26.9248L117.12 26.9252L117.137 35.2496L119.07 35.2675V30.3956C119.136 30.4086 119.221 30.2807 119.554 30.5335L124.373 34.7537C124.606 34.9762 124.982 35.2655 125.633 35.2655H126.7C126.85 35.2655 126.981 35.1414 126.981 34.916L127.001 26.9252L125.048 26.9248L125.043 31.4143C125.043 31.868 124.697 31.8801 124.376 31.5595L119.578 27.4252C119.312 27.187 119.05 26.9248 118.216 26.9248ZM55.9178 26.9252V35.2655H58.2549V31.7934H63.1288V35.2655H65.5667V26.9252H63.1288V30.0547H58.2549V26.9252H55.9178Z" fill="white"/>
<path d="M47.2703 8.59717V8.62228H47.2976V8.59717H47.2703ZM47.2051 8.59847C47.1959 8.59847 47.1876 8.59967 47.1801 8.60207C47.1727 8.60439 47.1666 8.60757 47.1618 8.6116C47.1568 8.61572 47.1531 8.6204 47.1506 8.62564C47.1482 8.63087 47.147 8.63645 47.147 8.64238C47.147 8.65182 47.1496 8.6598 47.1549 8.66633C47.1602 8.67277 47.1692 8.67766 47.1818 8.68101C47.1863 8.68221 47.1913 8.68333 47.1968 8.68435C47.2024 8.68538 47.2069 8.68628 47.2104 8.68706C47.2196 8.68912 47.2259 8.69161 47.2292 8.69453C47.2324 8.69745 47.234 8.70174 47.234 8.7074C47.234 8.71479 47.231 8.72019 47.225 8.72363C47.219 8.72706 47.2107 8.72878 47.2001 8.72878C47.1915 8.72878 47.1825 8.7271 47.1731 8.72376C47.1638 8.72032 47.1553 8.71573 47.1476 8.70998H47.1464V8.73715C47.1524 8.74015 47.1598 8.74294 47.1686 8.74552C47.1776 8.74801 47.1874 8.74925 47.198 8.74925C47.2168 8.74925 47.2316 8.74505 47.2424 8.73663C47.2533 8.72822 47.2588 8.71745 47.2588 8.70431C47.2588 8.69384 47.2557 8.68543 47.2496 8.67907C47.2435 8.67281 47.2349 8.66839 47.2236 8.66581C47.2199 8.66495 47.2153 8.66401 47.2097 8.66298C47.2042 8.66195 47.1992 8.66092 47.1948 8.65989C47.1867 8.658 47.1809 8.65555 47.1773 8.65255C47.1736 8.64954 47.1717 8.64508 47.1717 8.63916C47.1717 8.63246 47.1748 8.62744 47.1809 8.62409C47.187 8.62066 47.1944 8.61894 47.2033 8.61894C47.2118 8.61894 47.2204 8.62053 47.2293 8.62371C47.2381 8.6268 47.2456 8.63062 47.2518 8.63517H47.2531V8.60928C47.2473 8.60628 47.2399 8.60375 47.2311 8.60169C47.2223 8.59954 47.2137 8.59847 47.2051 8.59847ZM47.2419 8.64636V8.6667H47.2719V8.78259C47.2719 8.78954 47.2716 8.79542 47.271 8.80023C47.2705 8.80512 47.2693 8.80929 47.2674 8.81272C47.2655 8.81615 47.2627 8.81873 47.2589 8.82045C47.2551 8.82216 47.2501 8.82302 47.2439 8.82302C47.2401 8.82302 47.2361 8.82242 47.232 8.82122C47.2279 8.82002 47.2247 8.81894 47.2223 8.818H47.221V8.84105C47.2248 8.84208 47.2295 8.84294 47.2351 8.84362C47.2407 8.84431 47.2453 8.84465 47.2487 8.84465C47.2631 8.84465 47.2746 8.84036 47.2832 8.83178C47.2918 8.82319 47.2961 8.81049 47.2961 8.79366V8.64636H47.2419ZM47.362 8.65028C47.3533 8.65028 47.3445 8.65106 47.3356 8.6526C47.3267 8.65415 47.3198 8.65556 47.3151 8.65685V8.68144H47.3164C47.3247 8.67827 47.3328 8.67587 47.3406 8.67423C47.3484 8.67252 47.3555 8.67166 47.3619 8.67166C47.3671 8.67166 47.3721 8.672 47.3769 8.67269C47.3817 8.67338 47.3859 8.67471 47.3893 8.67668C47.3929 8.67874 47.3956 8.68157 47.3975 8.68518C47.3995 8.68878 47.4005 8.69333 47.4005 8.69883V8.70256C47.3864 8.70325 47.3732 8.70428 47.361 8.70565C47.3487 8.70703 47.3382 8.70964 47.3294 8.71351C47.3207 8.71737 47.3141 8.72269 47.3093 8.72947C47.3047 8.73617 47.3024 8.74497 47.3024 8.75587C47.3024 8.76918 47.3069 8.78012 47.3159 8.78871C47.3249 8.79729 47.3359 8.80158 47.3489 8.80158C47.3559 8.80158 47.362 8.8009 47.3673 8.79952C47.3725 8.79823 47.3771 8.7966 47.3812 8.79463C47.3846 8.79308 47.3881 8.79102 47.3917 8.78845C47.3954 8.78579 47.3983 8.78373 47.4005 8.78227V8.79759H47.4246V8.69999C47.4246 8.69072 47.4232 8.68295 47.4203 8.67668C47.4175 8.67041 47.4134 8.66531 47.408 8.66136C47.4025 8.65732 47.3959 8.65449 47.3884 8.65286C47.3809 8.65114 47.3721 8.65028 47.362 8.65028ZM47.4005 8.72214V8.76218C47.3945 8.76682 47.388 8.77081 47.3809 8.77416C47.3739 8.77742 47.3661 8.77905 47.3576 8.77905C47.3474 8.77905 47.3398 8.77699 47.3348 8.77287C47.3298 8.76866 47.3274 8.76244 47.3274 8.7542C47.3274 8.7469 47.3295 8.74119 47.3338 8.73707C47.3381 8.73286 47.3437 8.72977 47.3507 8.7278C47.3565 8.72617 47.3644 8.72492 47.3744 8.72406C47.3844 8.72321 47.3931 8.72256 47.4005 8.72214Z" fill="white"/>
</g>
<defs>
<clipPath id="clip0_3276_10160">
<rect width="127" height="32.2312" fill="white" transform="translate(0 5.67554)"/>
</clipPath>
</defs>
</svg>
