<svg width="162" height="41" viewBox="0 0 162 41" fill="none" xmlns="http://www.w3.org/2000/svg">
<g clip-path="url(#clip0_3276_10109)">
<path d="M22.6256 15.1436C23.995 15.0865 25.4786 14.9724 26.734 15.0295C28.4458 15.1436 29.4729 15.3718 30.2718 16.7413C30.5 17.1978 31.1277 17.1978 31.1277 16.6842C31.1277 13.4317 29.1876 11.0352 26.8481 11.0352C25.1933 11.0352 24.3945 11.2634 23.7097 12.0052C23.0821 12.6899 22.6826 13.6029 22.2832 14.8012C22.2832 14.9724 22.3973 15.1436 22.6256 15.1436Z" fill="white"/>
<path d="M10.6987 34.5445C12.8099 31.8056 13.3235 29.5231 13.3235 27.1836C13.3235 20.7928 9.8998 16.4561 9.8998 12.3477C9.8998 8.12513 13.3805 7.32628 14.693 7.15509C14.6359 6.92685 14.5218 6.58448 14.3506 6.29917C14.1794 6.07093 13.837 5.89974 13.6088 6.01386C13.3805 6.07093 13.3235 6.29917 13.3235 6.52742C13.3235 6.6986 13.4376 6.81272 13.5517 6.98391C13.4947 6.98391 13.4376 6.98391 13.3235 7.04097C13.2094 6.92685 13.1523 6.81272 12.9811 6.6986C12.4105 6.12799 11.7258 6.24211 11.4405 6.41329C11.2122 6.58448 11.2693 6.86979 11.3834 7.04097C11.4405 7.15509 11.6116 7.32628 11.7258 7.4404C11.6687 7.4404 11.6116 7.49746 11.6116 7.49746C11.2122 7.32628 10.6416 7.15509 9.95686 7.15509C9.50037 7.15509 8.98681 7.26921 8.81563 7.61158C8.64445 7.89689 8.75857 8.29632 9.27212 8.58163C9.44331 8.63869 9.55743 8.69575 9.67155 8.75281C9.61449 8.80987 9.61449 8.80987 9.55743 8.86693C7.67441 8.69575 6.24787 9.32342 6.30493 10.0652C6.36199 10.6929 7.33204 10.75 8.18796 10.6358C8.18796 10.6929 8.1309 10.75 8.1309 10.807C7.21791 11.2064 5.67726 12.2906 5.84844 13.2036C5.96257 13.6601 6.81849 14.0025 8.1309 12.633L8.24502 12.7471C7.84559 14.8584 9.04388 18.1679 9.04388 21.8769C9.04388 24.8441 7.56028 26.4418 4.8784 26.4418C3.33774 26.4418 1.3406 25.9853 -0.0288759 25.7V30.2649C1.05529 30.2079 2.31064 30.2079 2.93831 30.2649L2.71007 30.8926C2.71007 30.8926 1.3406 31.1779 -0.0859375 31.4062V36.0281C-0.0859375 38.0823 0.941166 39.5659 2.42476 40.3077C6.47612 38.653 9.04388 36.6558 10.6987 34.5445Z" fill="white"/>
<path d="M17.8309 0.87793H4.76386C2.13903 0.87793 -0.0292969 2.81802 -0.0292969 5.84227V23.7025C1.28311 24.1019 3.28026 24.5584 4.64973 24.5584C6.36157 24.5584 7.61692 23.9307 7.61692 21.1918C7.61692 19.1946 6.87513 16.3416 6.761 14.5727C4.64973 15.0862 3.45145 12.6326 6.01921 11.149C4.02206 10.8637 4.59267 8.29591 7.5028 8.18178C6.81806 6.64113 8.35872 5.95639 9.55701 6.35582C9.61407 5.21459 11.2688 4.87222 12.296 5.4999C13.4372 4.58692 15.3202 4.7581 16.1191 6.64113C18.0021 7.09762 19.3716 10.4072 21.0263 10.4072C23.3659 10.4072 24.2788 9.89362 26.7325 9.89362C29.6997 9.89362 32.5527 12.062 32.5527 16.5698C32.5527 18.624 31.868 19.1946 30.7838 19.1946C30.2132 19.1946 29.6997 18.9664 29.4144 18.5099C29.129 18.0534 29.072 17.3116 27.5884 17.0263C26.9037 16.9692 25.5912 16.9122 24.0506 17.0263C24.6212 17.711 25.0206 19.7082 25.0206 20.9635C25.0206 21.5912 24.7353 21.7624 24.45 21.7624C23.7653 21.7624 22.7382 20.2217 21.0263 19.4799C19.3145 18.6811 17.1462 18.3958 16.0049 18.3958C14.4072 18.3958 14.0649 19.4799 14.3502 20.9065C14.5213 21.9906 14.9778 23.8166 15.092 25.9279C17.0891 26.4985 18.9721 26.7838 20.7981 26.7838C23.8223 26.7838 27.0178 25.8708 30.2703 23.8737C30.6697 23.6454 30.8409 23.6454 30.955 23.9307C31.2974 25.0149 31.0691 26.6697 30.042 27.9821C29.985 29.4657 28.8437 31.5199 27.189 32.4899C25.5912 35.4571 22.4529 37.1689 18.858 37.1689C16.9179 37.1689 14.7496 36.7695 12.5242 35.7424C11.383 37.3401 9.72819 38.9949 6.41864 40.8779H18.0021C29.6426 40.8779 38.5442 32.7752 38.5442 20.7923C38.373 8.86652 29.4144 0.87793 17.8309 0.87793Z" fill="white"/>
<path d="M24.9072 32.4323C23.9372 32.7176 22.3965 33.06 20.7417 33.0029C20.8559 32.8317 20.9129 32.6606 20.97 32.4894C23.8231 32.3752 26.9614 31.4052 27.5891 29.0657C26.5049 29.8075 24.0513 30.6634 21.4835 30.7775C21.5406 30.6063 21.5406 30.4352 21.5406 30.264C24.9643 29.8645 28.5021 28.381 29.4151 25.9844C27.8744 27.0115 25.0784 28.381 21.3694 28.6092C19.2581 28.7804 16.7475 28.4951 14.8644 27.9815C14.7503 29.9787 14.3509 32.147 13.1526 34.2012C14.7503 34.943 16.5763 35.2283 18.0599 35.2283C21.1412 35.3424 24.0513 34.03 24.9072 32.4323Z" fill="white"/>
<path d="M22.7379 19.0247C22.852 18.6823 21.6537 17.1987 18.5153 16.514C16.347 16.0575 13.8934 15.3727 12.638 13.4897C12.638 13.4326 12.581 13.4326 12.5239 13.4326C12.4668 13.4326 12.4668 13.4897 12.4668 13.5468C12.4668 13.6609 12.4668 13.775 12.5239 13.8891L12.3527 13.9462C12.0103 13.4897 11.9533 12.9191 12.2956 12.4626C12.7521 11.892 13.7792 11.949 14.3499 12.2914L14.2928 12.4626C14.0075 12.4055 13.6651 12.4055 13.4369 12.5767C13.2657 12.6908 13.2086 12.862 13.3227 13.0903C14.4069 15.0874 17.4882 15.4869 21.1402 15.2015C21.5396 15.1445 21.5966 14.9733 21.6537 14.8021C21.9961 13.5468 22.5667 12.4055 23.4226 11.5496C22.7379 11.6637 22.1102 11.6637 21.5966 11.7208C19.7136 11.8349 18.6295 11.6067 18.2871 11.3214L18.3441 11.1502C18.5724 11.2073 18.7436 11.2073 18.8006 11.1502C18.8577 11.0931 18.8006 11.0361 18.7436 10.9219C18.4012 10.5796 16.7464 8.9248 16.7464 8.9248C16.5752 7.49826 14.521 7.49827 13.7222 8.86774L13.3227 8.81067C13.3798 8.52537 13.551 8.24006 13.6651 8.06888C11.9533 8.46831 10.9832 10.009 10.812 11.4926C10.0703 17.8264 19.7136 16.3428 22.4526 18.9105C22.5096 18.9676 22.6237 19.1388 22.7379 19.0247ZM15.0346 8.86774C15.5481 8.69655 16.2329 9.2101 16.6323 9.9519C17.0317 10.6937 16.9176 11.4355 16.4041 11.6067C15.8905 11.7779 15.2058 11.3214 14.8634 10.5225C14.8063 10.4084 14.7493 10.2943 14.7493 10.2372H14.8634C15.0346 10.4084 15.2058 10.4084 15.3199 10.3513C15.4911 10.2372 15.4911 9.9519 15.3199 9.66659C15.2058 9.43835 14.9775 9.2101 14.7493 9.26716V9.2101C14.8063 9.03892 14.9205 8.9248 15.0346 8.86774Z" fill="white"/>
<path d="M57.6056 24.5596H49.2746C48.3046 24.5596 47.791 25.2443 47.791 26.0432V35.5724C47.791 36.4854 48.4758 37.056 49.3317 37.056C50.1305 37.056 50.8153 36.5424 50.8153 35.5724V27.4697H56.122V35.5724C56.122 36.4854 56.8067 37.056 57.6056 37.056C58.4044 37.056 59.0892 36.4854 59.0892 35.5724V26.0432C59.0892 25.2443 58.5185 24.5596 57.6056 24.5596Z" fill="white"/>
<path d="M72.0982 24.5596H71.9841C71.1281 24.5596 70.5005 25.0161 69.9298 25.872L65.0796 32.7764V26.0432C65.0796 25.1302 64.509 24.5596 63.6531 24.5596C62.7972 24.5596 62.2266 25.0731 62.2266 26.0432V35.23C62.2266 36.2001 62.8542 36.8848 63.8813 36.8848H63.9955C64.9084 36.8848 65.5361 36.4283 66.1067 35.5724L70.957 28.668V35.4583C70.957 36.3713 71.5276 36.9419 72.3835 36.9419C73.1823 36.9419 73.81 36.4283 73.81 35.4583V26.2714C73.81 25.1872 73.1823 24.5596 72.0982 24.5596Z" fill="white"/>
<path d="M88.7031 34.0316H87.9613V25.9289C87.9613 25.0159 87.2766 24.4453 86.4207 24.4453C85.6218 24.4453 84.9371 24.9589 84.9371 25.9289V34.0316H79.7445V25.9289C79.7445 25.0159 79.1168 24.4453 78.2609 24.4453C77.405 24.4453 76.7773 24.9589 76.7773 25.9289V35.4582C76.7773 36.257 77.2908 36.8847 78.2609 36.8847H87.2195V38.1971C87.2195 39.1101 87.8472 39.6807 88.646 39.6807C89.502 39.6807 90.1296 39.1671 90.1296 38.1971V35.4582C90.1867 34.5452 89.6161 34.0316 88.7031 34.0316Z" fill="white"/>
<path d="M103.709 34.0316H102.911V25.9289C102.911 25.0159 102.226 24.4453 101.37 24.4453C100.571 24.4453 99.8863 24.9589 99.8863 25.9289V34.0316H94.6937V25.9289C94.6937 25.0159 94.066 24.4453 93.2101 24.4453C92.3542 24.4453 91.7265 24.9589 91.7265 25.9289V35.4582C91.7265 36.257 92.2401 36.8847 93.2101 36.8847H102.169V38.1971C102.169 39.1101 102.796 39.6807 103.595 39.6807C104.451 39.6807 105.079 39.1671 105.079 38.1971V35.4582C105.136 34.5452 104.565 34.0316 103.709 34.0316Z" fill="white"/>
<path d="M118.26 34.8302L114.209 25.9857C113.753 25.0156 113.125 24.6162 112.212 24.6162H112.041C111.071 24.6162 110.443 25.0156 109.986 25.9857L105.935 34.8302C105.536 35.6861 105.821 36.485 106.62 36.7703C107.362 37.0556 108.046 36.8844 108.446 36.0285L109.359 34.0884C110.158 34.3737 111.185 34.4878 112.155 34.4878C113.182 34.4878 114.095 34.3737 114.837 34.0884L115.693 36.0285C116.092 36.8844 116.834 36.9985 117.519 36.7703C118.317 36.485 118.66 35.6861 118.26 34.8302ZM112.098 31.863C111.47 31.863 110.842 31.8059 110.329 31.6348L112.041 27.7546L113.753 31.6348C113.353 31.8059 112.725 31.863 112.098 31.863Z" fill="white"/>
<path d="M61.1438 14.2306H60.402V6.24196C60.402 5.4431 59.8884 4.81543 58.9184 4.81543H52.071C51.2722 4.81543 50.7586 5.32898 50.7586 6.29902V8.23911C50.7586 9.60858 50.7586 10.6927 50.4733 11.891C50.2451 13.0323 49.9598 13.717 49.5033 14.2876H49.1609C48.1909 14.2876 47.7344 14.8582 47.7344 15.7712V18.5102C47.7344 19.4231 48.362 19.9937 49.218 19.9937C50.0739 19.9937 50.7016 19.4802 50.7016 18.5102V17.1977H59.7173V18.5102C59.7173 19.4231 60.3449 19.9937 61.1438 19.9937C61.9997 19.9937 62.6274 19.4802 62.6274 18.5102V15.7712C62.6274 14.8582 62.1709 14.2306 61.1438 14.2306ZM57.4348 14.2306H52.5846C52.8699 13.6029 53.0981 13.0323 53.3264 12.1193C53.4976 11.2063 53.6117 10.2933 53.6117 9.09503V7.6685H57.3777V14.2306H57.4348Z" fill="white"/>
<path d="M69.6445 4.70117C66.0496 4.70117 63.3107 7.38305 63.3107 10.9779C63.3107 14.6298 66.0496 17.2547 69.6445 17.2547C73.2393 17.2547 75.9783 14.5157 75.9783 10.9209C75.9783 7.38305 73.1823 4.70117 69.6445 4.70117ZM69.6445 14.4587C67.7044 14.4587 66.2779 12.9751 66.2779 10.9779C66.2779 8.98077 67.7044 7.55424 69.6445 7.55424C71.6416 7.55424 73.0111 9.03783 73.0111 10.9779C73.0111 12.9751 71.6987 14.4587 69.6445 14.4587Z" fill="white"/>
<path d="M98.0603 4.70117C94.4654 4.70117 91.7265 7.38305 91.7265 10.9779C91.7265 14.6298 94.4654 17.2547 98.0603 17.2547C101.655 17.2547 104.394 14.5157 104.394 10.9209C104.337 7.38305 101.598 4.70117 98.0603 4.70117ZM98.0603 14.4587C96.1202 14.4587 94.6937 12.9751 94.6937 10.9779C94.6937 8.98077 96.1202 7.55424 98.0603 7.55424C100.057 7.55424 101.427 9.03783 101.427 10.9779C101.427 12.9751 100.057 14.4587 98.0603 14.4587Z" fill="white"/>
<path d="M89.6731 14.2306H88.9313V6.24196C88.9313 5.4431 88.4177 4.81543 87.4477 4.81543H80.6003C79.8015 4.81543 79.2879 5.32898 79.2879 6.29902V8.23911C79.2879 9.60858 79.2879 10.6927 79.0026 11.891C78.7744 13.0323 78.4891 13.717 78.0326 14.2876H77.6902C76.7202 14.2876 76.2637 14.8582 76.2637 15.7712V18.5102C76.2637 19.4231 76.8913 19.9937 77.7473 19.9937C78.6032 19.9937 79.2309 19.4802 79.2309 18.5102V17.1977H88.2466V18.5102C88.2466 19.4231 88.8742 19.9937 89.7301 19.9937C90.5861 19.9937 91.2137 19.4802 91.2137 18.5102V15.7712C91.1567 14.8582 90.6431 14.2306 89.6731 14.2306ZM85.907 14.2306H81.0568C81.3421 13.6029 81.5704 13.0323 81.7986 12.1193C81.9698 11.2063 82.0839 10.2933 82.0839 9.09503V7.6685H85.85V14.2306H85.907Z" fill="white"/>
</g>
<defs>
<clipPath id="clip0_3276_10109">
<rect width="162" height="40" fill="white" transform="translate(0 0.87793)"/>
</clipPath>
</defs>
</svg>
