<svg width="162" height="41" viewBox="0 0 162 41" fill="none" xmlns="http://www.w3.org/2000/svg">
<g clip-path="url(#clip0_3276_10192)">
<g clip-path="url(#clip1_3276_10192)">
<path d="M6.9918 6.53443C7.19283 6.43366 7.36043 6.33289 7.56146 6.23213C8.36571 5.89623 9.20354 5.62752 10.0748 5.56034C10.2758 5.52675 10.5104 5.52675 10.7115 5.52675C10.9461 5.49317 11.1471 5.49317 11.3817 5.52675L12.0184 5.56034L12.6886 5.6947L12.9902 5.76188C13.0907 5.79547 13.2248 5.82906 13.3253 5.86264L13.9621 6.06419C14.3642 6.19854 14.7663 6.40008 15.1684 6.60161L15.8051 6.83674V6.19854C15.8051 5.66111 15.9056 4.98932 16.1067 4.4183C16.2742 3.8137 16.5088 3.24268 16.844 2.70525C17.1791 2.16782 17.5477 1.66398 18.0168 1.22732C18.4525 0.757068 18.9886 0.421178 19.5248 0.0516958C20.061 0.421178 20.5636 0.757068 21.0327 1.22732C21.4684 1.66398 21.8706 2.16782 22.2056 2.70525C22.5072 3.24268 22.7753 3.8137 22.9429 4.4183C23.1105 4.98932 23.211 5.66111 23.211 6.19854L23.2445 6.83674L23.8477 6.60161C24.2498 6.40008 24.652 6.19854 25.0876 6.06419L25.7243 5.86264C25.8248 5.82906 25.9253 5.79547 26.0259 5.76188L26.361 5.6947L26.9976 5.56034L27.6679 5.52675C27.869 5.49317 28.07 5.49317 28.3046 5.52675C28.5056 5.52675 28.7402 5.52675 28.9413 5.56034C29.8126 5.62752 30.6504 5.89623 31.4546 6.23213C31.6556 6.33289 31.8567 6.43366 32.0243 6.53443C32.2254 6.6352 32.4264 6.73597 32.594 6.87033C32.6275 6.87033 32.6275 6.90391 32.6275 6.90391C31.7897 7.0047 30.9184 7.20621 30.1141 7.54209C28.9078 8.01233 27.7684 8.78494 26.9306 9.82622C26.0594 10.8338 25.5567 12.1439 25.4227 13.4539C25.2551 14.7638 25.4227 16.0738 25.7578 17.3166C26.0929 18.5258 26.5285 19.7014 26.495 20.9107C26.4615 22.1199 25.7243 23.1611 24.786 23.9337C23.8477 24.7398 22.7418 25.3444 21.6695 26.0498C21.1668 26.3857 20.6306 26.7888 20.195 27.259C19.8599 27.5949 19.6253 28.0316 19.5248 28.5018C19.4242 28.0316 19.1562 27.5949 18.8211 27.259C18.3855 26.7888 17.8827 26.3857 17.3466 26.0498C16.3077 25.3444 15.2019 24.7398 14.2301 23.9337C13.2918 23.1611 12.5546 22.1199 12.5546 20.9107C12.4876 19.7014 12.9232 18.5258 13.2583 17.3166C13.5934 16.0738 13.761 14.7638 13.6269 13.4539C13.4593 12.1439 12.9902 10.8338 12.1189 9.82622C11.2477 8.78494 10.1418 8.01233 8.90192 7.54209C8.09767 7.20621 7.25991 7.0047 6.38861 6.90391L6.42212 6.87033C6.62318 6.73597 6.79073 6.6352 6.9918 6.53443ZM8.60031 8.38185C9.70618 8.7513 10.745 9.42312 11.5157 10.33C12.2865 11.2034 12.7557 12.3454 12.9232 13.5546C13.0907 14.7302 12.9902 15.973 12.6886 17.1486C12.4206 18.3579 11.9513 19.6006 12.0519 20.9442C12.0854 21.6161 12.32 22.2542 12.6886 22.8253C13.0237 23.3963 13.5264 23.8329 14.0291 24.236C15.0343 25.0421 16.1737 25.5796 17.2126 26.2513C17.7487 26.5873 18.2849 26.9231 18.6871 27.3598C19.1562 27.7965 19.4577 28.3675 19.4577 28.9721H19.5583C19.5918 28.3675 19.8934 27.7965 20.3291 27.3598C20.7647 26.9231 21.2673 26.5873 21.8035 26.2513C22.8759 25.5796 24.0152 25.0421 25.0206 24.236C25.5232 23.8329 25.9924 23.3963 26.361 22.8253C26.7296 22.2542 26.9306 21.6161 26.9641 20.9442C27.0647 19.6006 26.6291 18.3579 26.3275 17.1486C26.0594 15.973 25.9253 14.7302 26.0929 13.5546C26.2605 12.3454 26.7296 11.2034 27.5339 10.33C28.3046 9.42312 29.3099 8.7513 30.4493 8.38185C31.5551 7.97875 32.7615 7.81082 33.9679 7.81082L35.2078 7.84439L34.3365 6.97112C33.9679 6.56802 33.5993 6.26572 33.1971 5.997C32.9961 5.86265 32.7615 5.72829 32.5605 5.59393C32.3594 5.49317 32.1248 5.35881 31.9238 5.25804C31.019 4.82138 30.0471 4.55266 29.0419 4.48549C28.8073 4.4519 28.5726 4.4519 28.3046 4.4519C28.07 4.4519 27.8355 4.4519 27.5674 4.48549L26.8301 4.58626L26.1264 4.7542L25.7578 4.82138C25.6572 4.85496 25.5567 4.88856 25.4227 4.95573L24.7525 5.19086C24.4844 5.29163 24.2498 5.42598 23.9817 5.56034C23.9147 5.09009 23.7806 4.61984 23.6131 4.18318C23.3785 3.54498 23.077 2.94037 22.6413 2.40295C22.2391 1.83193 21.77 1.36168 21.2338 0.958608C20.9992 0.72348 20.6977 0.555535 20.4296 0.387589C20.128 0.219642 19.8264 0.0852849 19.5248 -0.0490723V-0.0154829L19.4913 -0.0490723C19.1897 0.0852849 18.8881 0.219642 18.62 0.387589C18.3184 0.555535 18.0503 0.72348 17.7822 0.958608C17.2461 1.36168 16.7769 1.83193 16.3748 2.40295C15.9727 2.94037 15.6376 3.54498 15.403 4.18318C15.2354 4.61984 15.1014 5.09009 15.0343 5.56034C14.7998 5.42598 14.5317 5.29163 14.2971 5.19086L13.5934 4.95573C13.4928 4.88856 13.3588 4.85496 13.2583 4.82138L12.8897 4.7542L12.186 4.58626L11.4487 4.48549C11.2142 4.4519 10.9461 4.4519 10.7115 4.4519C10.4769 4.4519 10.2088 4.4519 9.97422 4.48549C8.96893 4.55266 7.99709 4.82138 7.12582 5.25804C6.89127 5.35881 6.69021 5.49317 6.45563 5.59393C6.25457 5.72829 6.0535 5.86265 5.85244 5.997C5.4168 6.26572 5.04818 6.56802 4.67956 6.97112L3.8418 7.84439L5.04818 7.81082C6.25457 7.81082 7.46094 7.97875 8.60031 8.38185Z" fill="white"/>
<path d="M21.4025 38.6123C20.9333 38.9482 20.4642 39.3177 20.0956 39.7879C19.8275 40.0902 19.6264 40.4597 19.5258 40.8628C19.4253 40.4597 19.1907 40.0902 18.9562 39.7879C18.5541 39.3177 18.0849 38.9482 17.6157 38.6123C16.9456 38.1756 16.2753 37.8061 15.6051 37.4702C15.8397 37.0672 16.0407 36.7313 16.2753 36.4289C16.3423 36.3282 16.4093 36.2274 16.4763 36.1266C16.5434 36.0259 16.6104 35.9251 16.6774 35.8243C16.711 35.7236 16.8115 35.6228 16.8785 35.522C16.9456 35.4213 17.0126 35.3205 17.1131 35.2197C17.4482 34.8167 17.8168 34.4808 18.2525 34.1449C18.6546 33.7754 19.0567 33.4731 19.5258 33.2044C19.9615 33.4731 20.3971 33.7754 20.7992 34.1449C21.2014 34.4808 21.57 34.8167 21.9051 35.2197C22.0056 35.3205 22.0727 35.4213 22.1397 35.522C22.2067 35.6228 22.3072 35.7236 22.3407 35.8243C22.4077 35.9251 22.4748 36.0259 22.5418 36.1266C22.6088 36.2274 22.6758 36.3282 22.7429 36.4289C22.9775 36.7313 23.212 37.0672 23.4466 37.4702C22.7429 37.8061 22.0727 38.1756 21.4025 38.6123ZM33.969 19.9702V20.071C35.1419 20.1046 36.2812 19.6343 37.119 18.8282C37.9903 18.022 38.4929 16.8464 38.5264 15.6708C38.5599 14.4952 38.0908 13.286 37.2865 12.4126C36.4488 11.5393 35.2759 11.0019 34.0695 10.9682C32.8631 10.9011 31.6567 11.3713 30.7519 12.2111C29.8471 13.0172 29.311 14.2264 29.244 15.4692C29.244 16.6449 29.3445 17.8205 29.6796 18.9625C29.9812 20.1046 30.4839 21.1794 31.02 22.1871C31.5562 23.2284 32.0924 24.2024 32.4945 25.2102C32.9301 26.2514 33.1647 27.3263 33.1982 28.4011C33.1982 28.6699 33.2317 28.9386 33.1982 29.2072L33.1647 29.5768L33.0976 29.9799L33.0641 30.1478L32.9971 30.3493L32.8631 30.6852C32.7626 30.9203 32.662 31.1554 32.528 31.3906C32.0254 32.2975 31.2211 33.0365 30.3498 33.6746C29.4785 34.3465 28.5067 34.9174 27.5014 35.4213C26.4961 35.9587 25.4572 36.4289 24.452 36.9328C24.2509 37.0336 24.0498 37.1343 23.8487 37.2351C23.9157 36.7985 23.8487 36.3282 23.6812 35.9251C23.4466 35.3205 22.944 34.9511 22.5083 34.6151C22.0391 34.2457 21.57 33.9434 21.0673 33.7082C20.5647 33.4396 20.062 33.238 19.5258 33.07V33.1373L19.4923 33.07C18.9562 33.238 18.4535 33.4396 17.9508 33.7082C17.4482 33.9434 16.9791 34.2457 16.5434 34.6151C16.1078 34.9511 15.5716 35.3205 15.337 35.9251C15.1695 36.3282 15.1024 36.7985 15.1695 37.2351C14.9684 37.1343 14.7673 37.0336 14.5998 36.9328C13.5609 36.4289 12.5221 35.9587 11.5503 35.4213C10.545 34.9174 9.57318 34.3465 8.70192 33.6746C7.79715 33.0365 7.0264 32.2975 6.4902 31.3906C6.35616 31.1554 6.25562 30.9203 6.15509 30.6852L6.02105 30.3493L5.95403 30.1478L5.92052 29.9799L5.85349 29.5768L5.81998 29.2072C5.78647 28.9386 5.81998 28.6699 5.85349 28.4011C5.88701 27.3263 6.12158 26.2514 6.52371 25.2102C6.92581 24.2024 7.49553 23.2284 7.99818 22.1871C8.56783 21.1794 9.07054 20.1046 9.37208 18.9625C9.67369 17.8205 9.80778 16.6449 9.77428 15.4692C9.7407 14.2264 9.17105 13.0172 8.26628 12.2111C7.39502 11.3713 6.15509 10.9011 4.9487 10.9682C3.74232 11.0019 2.56945 11.5393 1.76519 12.4126C0.927427 13.286 0.491786 14.4952 0.525297 15.6708C0.525297 16.8464 1.06147 18.022 1.89923 18.8282C2.737 19.6343 3.90987 20.1046 5.04924 20.071V19.9702C3.90987 19.9366 2.83753 19.4664 2.03328 18.6602C1.26253 17.8877 0.826891 16.7792 0.826891 15.6708C0.826891 14.5623 1.29604 13.4875 2.06678 12.7149C2.80402 11.9424 3.87636 11.4721 4.9487 11.4721C6.02105 11.4721 7.09341 11.9088 7.86416 12.6478C8.63491 13.3867 9.07054 14.4279 9.10404 15.4692C9.07054 16.5777 8.93645 17.6861 8.63491 18.761C8.33329 19.8023 7.83065 20.81 7.26093 21.784C6.72477 22.7917 6.12158 23.7658 5.65243 24.8743C5.18328 25.9491 4.88169 27.1583 4.81466 28.334C4.68062 29.5095 4.88169 30.8868 5.5519 31.928C5.85349 32.499 6.25562 32.9692 6.69126 33.4059C7.12691 33.809 7.59605 34.2121 8.06519 34.548C10.0088 35.8916 12.187 36.7313 14.2982 37.6382C15.337 38.0748 16.3758 38.4779 17.3477 39.049C17.8503 39.3177 18.3195 39.5864 18.7216 39.9894C19.1237 40.3589 19.4253 40.8628 19.4588 41.4002H19.5593C19.5929 40.8628 19.928 40.3589 20.2966 39.9894C20.6987 39.5864 21.1679 39.3177 21.6706 39.049C22.6423 38.4779 23.7147 38.0748 24.7535 37.6382C26.8312 36.7313 29.0094 35.8916 30.953 34.548C31.4556 34.2121 31.8913 33.809 32.3269 33.4059C32.7626 32.9692 33.1647 32.499 33.4663 31.928C34.1365 30.8868 34.3376 29.5095 34.237 28.334C34.1365 27.1583 33.8349 25.9491 33.3658 24.8743C32.8966 23.7658 32.2934 22.7917 31.7572 21.784C31.1876 20.81 30.7184 19.8023 30.3833 18.761C30.0817 17.6861 29.9476 16.5777 29.9476 15.4692C29.9476 14.4279 30.4168 13.3867 31.1541 12.6478C31.9248 11.9088 32.9971 11.4721 34.0695 11.4721C35.1419 11.4721 36.2141 11.9424 36.9849 12.7149C37.7556 13.4875 38.1913 14.5623 38.1913 15.6708C38.2248 16.7792 37.7556 17.8877 36.9849 18.6602C36.2141 19.4664 35.1083 19.9366 33.969 19.9702Z" fill="white"/>
<path d="M116.976 30.6516H117.646C117.713 30.5844 117.78 30.5172 117.847 30.45L118.048 30.1477C118.417 29.7111 118.618 29.3751 118.719 29.1736C118.786 28.9721 118.786 28.8378 118.752 28.7705C118.685 28.7034 118.585 28.6698 118.45 28.6698C118.316 28.7034 118.082 28.7034 117.814 28.7705L116.808 28.9049C116.741 28.9049 116.708 28.8713 116.674 28.8041C116.674 28.737 116.708 28.6698 116.775 28.6698L117.78 28.5018C117.881 28.5018 118.048 28.4682 118.249 28.4682C118.417 28.4347 118.585 28.4347 118.786 28.4347C118.953 28.4347 119.121 28.4682 119.288 28.5018C119.456 28.569 119.556 28.6362 119.624 28.7705C119.724 28.9049 119.758 29.0393 119.724 29.2072C119.724 29.3751 119.691 29.5431 119.59 29.7111C119.523 29.879 119.422 30.047 119.322 30.2149C119.221 30.3828 119.087 30.5172 118.987 30.6516H121.433C121.567 30.4836 121.668 30.3157 121.769 30.2149C121.97 29.9797 122.137 29.7447 122.271 29.5767L122.673 28.9385C122.807 28.7034 122.908 28.569 122.975 28.5354C123.042 28.5018 123.176 28.4682 123.31 28.4682H123.712C123.913 28.4682 124.047 28.5018 124.081 28.5354C124.114 28.6026 124.047 28.737 123.88 28.9721L123.109 30.0134L122.338 31.0546C122.271 31.189 122.171 31.3233 122.104 31.4577C121.936 31.7264 121.836 31.9952 121.735 32.2302C121.634 32.4654 121.634 32.6333 121.668 32.7677C121.701 32.8684 121.735 32.9356 121.802 33.0364C121.869 33.1036 121.936 33.1707 122.07 33.1707C122.271 33.1707 122.539 33.1036 122.841 32.9356C123.142 32.8013 123.478 32.5661 123.779 32.2975C124.114 32.0287 124.449 31.6928 124.751 31.3233C125.086 30.9874 125.354 30.5844 125.589 30.2149C125.622 30.1477 125.656 30.1477 125.756 30.1813C125.823 30.2149 125.857 30.2485 125.823 30.3157C125.589 30.6851 125.321 31.0546 125.052 31.4241C124.751 31.76 124.449 32.0959 124.114 32.3646C123.813 32.6669 123.478 32.9021 123.142 33.1036C122.807 33.2715 122.472 33.4059 122.171 33.4395C121.97 33.4395 121.769 33.4394 121.567 33.4059C121.333 33.3387 121.165 33.2379 120.998 33.0364C120.83 32.8348 120.73 32.5998 120.763 32.331C120.797 31.6592 120.864 31.5921 121.165 31.0546H118.652C118.551 31.1554 118.484 31.2562 118.383 31.3569C118.249 31.5249 117.914 32.1295 117.311 33.1371C117.277 33.2044 117.244 33.2715 117.21 33.3723H116.105C116.138 33.2044 116.44 32.5998 117.009 31.5921C117.11 31.4241 117.244 31.2562 117.378 31.0546H116.976V30.6516ZM111.078 29.6103C110.576 29.9798 110.207 30.4164 109.973 30.9203C109.705 31.3905 109.604 31.8608 109.638 32.2975C109.638 32.6669 109.805 32.9692 110.073 33.1371C110.174 33.2044 110.274 33.2044 110.375 33.2044C110.509 33.2044 110.609 33.2044 110.743 33.2044C110.877 33.1707 110.978 33.1371 111.112 33.1036C111.212 33.07 111.313 33.0364 111.38 33.0028C111.715 32.8348 112.017 32.6669 112.318 32.4318C112.62 32.1967 112.888 31.9615 113.122 31.6592C113.39 31.3905 113.592 31.1218 113.759 30.8195C113.927 30.5172 114.027 30.1813 114.094 29.879C114.128 29.7111 114.161 29.5095 114.128 29.3416C114.094 29.1401 114.027 28.9721 113.893 28.8378C113.793 28.737 113.692 28.6698 113.525 28.6362C113.39 28.6026 113.223 28.569 113.055 28.6026C112.787 28.6362 112.452 28.7705 112.084 28.9385C111.749 29.1064 111.38 29.3416 111.078 29.6103ZM112.084 28.4011C112.318 28.3675 112.553 28.3339 112.821 28.3339C113.089 28.3339 113.323 28.3339 113.558 28.4011C113.826 28.4682 114.061 28.5354 114.295 28.6362C114.53 28.7705 114.731 28.9049 114.898 29.1064C115.099 29.3751 115.233 29.6103 115.267 29.879C115.267 30.1141 115.267 30.3828 115.2 30.6851C115.099 30.9874 114.932 31.2898 114.731 31.5585C114.53 31.8608 114.262 32.0959 113.994 32.2975C113.726 32.5325 113.424 32.7005 113.122 32.8684C112.821 33.0364 112.553 33.1371 112.285 33.2379C112.117 33.2715 111.883 33.3387 111.615 33.3723C111.346 33.4059 111.045 33.4395 110.743 33.4395C110.442 33.4395 110.14 33.4059 109.839 33.3723C109.537 33.3051 109.269 33.1707 109.068 33.0028C108.8 32.8013 108.632 32.5998 108.565 32.331C108.498 32.0959 108.465 31.8272 108.465 31.5249C108.532 30.9539 108.766 30.45 109.168 30.0134C109.537 29.5767 110.006 29.2072 110.609 28.9049C110.81 28.8041 111.045 28.7034 111.346 28.6026C111.615 28.5018 111.883 28.4347 112.084 28.4011ZM100.087 31.5921C99.752 31.9952 99.5503 32.331 99.4501 32.5325C99.4501 32.5998 99.4501 32.6669 99.4833 32.7677C99.752 33.5067 100.891 32.6669 101.192 32.4318C101.46 32.2302 101.729 31.9952 101.997 31.76C102.265 31.4913 102.533 31.2226 102.801 30.9875C103.036 30.7187 103.27 30.45 103.471 30.2149C103.672 29.9797 103.84 29.7447 103.94 29.5767L104.343 28.9385C104.51 28.7034 104.611 28.569 104.678 28.5354C104.745 28.5018 104.845 28.4682 105.013 28.4682H105.415C105.616 28.4682 105.717 28.5018 105.75 28.5354C105.784 28.6026 105.717 28.737 105.549 28.9721L104.812 30.0134C104.644 30.2149 104.477 30.45 104.309 30.6851C104.108 30.9539 103.94 31.2226 103.773 31.4913C103.639 31.76 103.505 31.9952 103.438 32.2302C103.337 32.4654 103.304 32.6333 103.371 32.8013C103.371 32.8684 103.438 32.9692 103.471 33.0364C103.538 33.1036 103.639 33.1707 103.739 33.1707C103.974 33.1707 104.242 33.1036 104.544 32.9356C104.845 32.8013 105.147 32.5661 105.482 32.2975C105.817 32.0287 106.119 31.7264 106.454 31.3569C106.789 30.9874 107.057 30.618 107.258 30.2149C107.292 30.1813 107.359 30.1477 107.426 30.1813C107.527 30.2149 107.527 30.2821 107.493 30.3493C107.258 30.7187 107.024 31.0882 106.722 31.4241C106.421 31.76 106.119 32.0959 105.817 32.3646C105.482 32.6669 105.181 32.9021 104.812 33.1036C104.477 33.2715 104.175 33.4059 103.873 33.4395C103.672 33.4395 103.471 33.4394 103.237 33.4059C103.036 33.3387 102.834 33.2379 102.7 33.07C102.499 32.8348 102.432 32.5998 102.432 32.331C102.466 32.0959 102.499 31.8272 102.533 31.5921C102.265 31.8608 101.997 32.1295 101.695 32.3646C101.46 32.5661 101.226 32.7341 101.025 32.9021C100.723 33.07 100.455 33.2379 100.12 33.3051C99.752 33.4059 99.2153 33.3387 98.8471 33.2379C98.713 33.1707 98.579 33.1036 98.4782 32.9692C98.0429 32.2975 99.1483 30.9203 99.5172 30.45L99.752 30.1477C99.9192 29.9462 100.053 29.7447 100.154 29.6103C100.154 29.5431 100.187 29.4759 100.187 29.3751C100.221 29.2408 100.187 29.0728 100.12 28.9385C100.087 28.8378 100.02 28.7705 99.9192 28.7034C99.5172 28.6026 99.2491 28.6026 98.9141 28.8378C98.7462 28.9721 98.5452 29.1401 98.378 29.3416C98.1431 29.5431 97.9421 29.7782 97.7411 30.0134C97.54 30.2821 97.3722 30.4836 97.2381 30.6851L96.166 32.0287C95.8979 32.3982 95.5961 32.7677 95.261 33.1036C94.9598 33.4395 94.6248 33.7418 94.2897 33.9769C93.9547 34.212 93.6196 34.3799 93.2507 34.5143C92.9157 34.6487 92.5468 34.6487 92.2117 34.5815C92.1447 34.5815 92.0777 34.5479 92.0107 34.5479L91.7765 34.4807C91.7095 34.4472 91.6425 34.4136 91.6086 34.3799C91.5748 34.3128 91.5748 34.2792 91.6086 34.212C91.6425 34.1784 91.6756 34.1448 91.7427 34.1448C91.8097 34.1113 91.8435 34.1448 91.8767 34.1448C92.0777 34.2792 92.2117 34.3464 92.3126 34.3799C92.5806 34.4472 92.8818 34.4136 93.1837 34.2792C93.5188 34.1784 93.8206 34.0105 94.1218 33.7753C94.4569 33.5402 94.7588 33.2715 95.06 32.9692C95.3619 32.6333 95.6637 32.2975 95.9318 31.9615L97.071 30.4836C97.5732 29.7782 98.4782 28.6362 99.3161 28.4011C99.752 28.2667 101.058 28.3339 101.326 28.7705C101.393 28.9049 101.427 29.0393 101.427 29.2072C101.427 29.3751 101.36 29.5431 101.293 29.7111C101.226 29.879 101.125 30.047 100.991 30.2149L100.857 30.4164C100.69 30.7187 100.522 31.021 100.288 31.3233L100.087 31.5921ZM90.3016 29.5431C90.5365 29.308 90.8045 29.1064 91.0726 28.9385C91.3406 28.7705 91.6086 28.6362 91.8767 28.5018C92.1786 28.4011 92.4466 28.3339 92.7478 28.3339C93.0158 28.3003 93.2839 28.3675 93.5188 28.4347C93.7536 28.5354 93.9208 28.6698 94.0887 28.8378C94.2227 29.0057 94.3229 29.2072 94.3567 29.4424C94.4237 29.879 94.3229 30.3828 94.0217 30.9203C93.7536 31.4241 93.3509 31.9615 92.7816 32.4318C92.5468 32.6333 92.3126 32.8013 92.0445 32.9692C91.7765 33.1036 91.5078 33.2379 91.2397 33.3051C90.9717 33.4059 90.6705 33.4395 90.4025 33.473C90.1344 33.473 89.8664 33.4394 89.6315 33.3723C89.3966 33.2715 89.1956 33.1371 89.0284 32.9692C88.8605 32.8013 88.7604 32.5661 88.7265 32.2302L87.2523 34.0776C85.7111 36.0595 84.1022 37.5038 82.4939 38.4107C80.885 39.3512 79.2429 39.7878 77.5338 39.7878C76.6966 39.7878 75.8924 39.6199 75.1885 39.3176C74.4514 38.9817 73.8815 38.545 73.4794 37.9404C73.4456 37.9069 73.4124 37.8396 73.3454 37.8061C73.3115 37.7725 73.2784 37.6717 73.2114 37.571C73.1105 37.403 73.1105 37.2687 73.2445 37.2015C73.4124 37.1343 73.5126 37.235 73.5464 37.4366C73.5796 37.5038 73.5796 37.571 73.6134 37.6381C73.6466 37.7053 73.6466 37.7389 73.6804 37.8061C73.9153 38.1084 74.1834 38.3771 74.4846 38.6123C74.8196 38.8473 75.1547 39.0153 75.4897 39.1496C75.8586 39.3176 76.1936 39.4184 76.5625 39.4519C76.9307 39.5192 77.2326 39.5527 77.5677 39.5527C78.1708 39.5527 78.8077 39.4519 79.444 39.284C80.0809 39.1161 80.7178 38.8473 81.3209 38.5115C81.9579 38.1756 82.5609 37.7389 83.1302 37.2687C83.734 36.7648 84.27 36.1602 84.7723 35.522C85.2082 34.951 85.6102 34.4136 86.0461 33.8761C86.4143 33.4059 86.8164 32.9021 87.2185 32.3646C87.6205 31.8272 87.9894 31.3233 88.3245 30.8531C88.4585 30.6851 88.5925 30.5172 88.7265 30.3157C88.8944 30.1141 89.0284 29.9462 89.1286 29.7447C89.2294 29.5767 89.3296 29.4087 89.3635 29.2408C89.4305 29.0728 89.3966 28.9385 89.3635 28.8041C89.2965 28.737 89.2294 28.7034 89.0954 28.6698C88.9614 28.6698 88.7265 28.7034 88.3915 28.7705L87.3863 28.9049C87.3193 28.9049 87.2855 28.8713 87.2855 28.8041C87.2523 28.737 87.2855 28.6698 87.3863 28.6698L88.3245 28.5018C88.4923 28.5018 88.6264 28.4682 88.7935 28.4682C88.9946 28.4347 89.1624 28.4347 89.3296 28.4347C89.4975 28.4347 89.6654 28.4682 89.8325 28.5018C89.9666 28.569 90.1006 28.6362 90.2346 28.7705C90.2684 28.8378 90.3016 28.9049 90.3354 28.9721C90.3354 29.0728 90.3354 29.1736 90.3354 29.2408C90.3354 29.3416 90.3354 29.4424 90.3016 29.5431ZM91.1727 29.2072C90.9385 29.3751 90.6705 29.5767 90.4356 29.8454C90.1676 30.0805 89.9666 30.3493 89.7655 30.618C89.5645 30.8867 89.3966 31.1554 89.2626 31.4577C89.1286 31.7264 89.0616 31.9952 89.0616 32.2638C89.0616 32.5661 89.1956 32.8013 89.4636 32.9692C89.6315 33.07 89.8325 33.1036 90.0674 33.07C90.2684 33.0364 90.4695 32.9356 90.6705 32.8348C90.9717 32.7005 91.2736 32.499 91.5748 32.1967C91.8767 31.9279 92.1447 31.6256 92.3796 31.3233C92.6476 31.021 92.8487 30.6851 93.0158 30.3828C93.1837 30.047 93.2839 29.7782 93.2839 29.5431C93.3177 29.1736 93.2507 28.9385 93.0497 28.8041C92.8818 28.6698 92.6808 28.6362 92.4466 28.6362C92.2456 28.6698 92.0445 28.737 91.8767 28.8041C91.7095 28.8713 91.4746 29.0057 91.1727 29.2072ZM78.8747 32.331C78.8409 32.499 78.8409 32.6333 78.8747 32.7341C78.9079 32.8348 78.9749 32.9356 79.0419 32.9692C79.1089 33.07 79.2429 33.1036 79.3769 33.1036C79.511 33.07 79.6788 33.0364 79.8129 32.9692C80.1147 32.8348 80.4159 32.6333 80.7848 32.331C81.1199 32.0623 81.4549 31.7264 81.79 31.3569C82.125 30.9874 82.4269 30.618 82.6611 30.2821C82.896 29.9126 83.03 29.6103 83.0632 29.3751C83.164 29.1064 83.097 28.9049 82.9292 28.737C82.7951 28.6362 82.6611 28.6026 82.5271 28.6362C82.3599 28.6698 82.2259 28.7034 82.0919 28.7705C81.79 28.9049 81.4881 29.1064 81.1199 29.3416C80.7848 29.6103 80.4498 29.9126 80.1479 30.2485C79.8129 30.5844 79.5448 30.9203 79.3099 31.2898C79.0758 31.6592 78.9417 31.9952 78.8747 32.331ZM83.868 28.6362C83.9682 28.5018 84.0352 28.4011 84.069 28.3675C84.136 28.3339 84.2362 28.3339 84.4041 28.3339H84.9401C85.0742 28.3339 85.1412 28.3675 85.1743 28.4347C85.2082 28.5018 85.2082 28.569 85.1073 28.6698L83.868 30.5508C83.7001 30.7859 83.5322 31.021 83.3651 31.2562C83.1972 31.4913 83.0632 31.7264 82.963 31.9279C82.8621 32.1631 82.762 32.331 82.7281 32.499C82.6611 32.6669 82.695 32.8013 82.762 32.9021C82.829 33.0028 82.896 33.07 82.9962 33.1036C83.0632 33.1371 83.1302 33.1371 83.231 33.1371C83.3312 33.1036 83.5322 33.0364 83.7671 32.9356C84.0352 32.8013 84.337 32.6333 84.6382 32.4318C84.9401 32.2302 85.2752 31.9952 85.6102 31.6928C85.9453 31.4241 86.2133 31.0882 86.4814 30.7523C86.5484 30.6851 86.6154 30.6851 86.6492 30.7187C86.7162 30.7859 86.7162 30.8195 86.6824 30.8867C86.4814 31.189 86.2472 31.4913 85.9121 31.7936C85.6102 32.0959 85.2752 32.3646 84.9063 32.5998C84.5381 32.8348 84.203 33.0364 83.868 33.2044C83.5322 33.3387 83.231 33.4395 82.9962 33.4395C82.7951 33.473 82.5941 33.4394 82.3931 33.4059C82.2259 33.3387 82.058 33.2044 81.924 33.0028C81.8238 32.8684 81.7568 32.6669 81.7568 32.4654C81.7568 32.2638 81.7568 32.0623 81.79 31.7936C81.5551 32.0287 81.3209 32.2638 81.0529 32.499C80.7848 32.7005 80.5168 32.9021 80.2488 33.07C79.9469 33.2044 79.6788 33.3051 79.3769 33.3723C79.1089 33.4394 78.8409 33.4394 78.5728 33.4059C78.4057 33.3723 78.2378 33.2715 78.1038 33.1036C77.9697 32.9356 77.8696 32.7341 77.8026 32.499C77.7017 32.0959 77.7349 31.7264 77.8696 31.3233C78.0036 30.9203 78.2716 30.5172 78.6067 30.1477C78.8747 29.8454 79.2098 29.5767 79.578 29.3416C79.9469 29.0728 80.3158 28.8713 80.684 28.737C81.0529 28.569 81.4211 28.4347 81.7568 28.3675C82.0919 28.3339 82.4269 28.3003 82.6611 28.3675C82.896 28.4011 83.03 28.5018 83.164 28.6026C83.2642 28.737 83.3651 28.9049 83.4321 29.2072L83.868 28.6362ZM74.8866 31.5921C74.5184 32.0623 74.3174 32.3982 74.2504 32.5998C74.1833 32.8013 74.1834 32.9356 74.2165 32.9692C74.2835 33.07 74.5854 33.07 75.1547 32.9692L76.1266 32.8684C76.1936 32.8348 76.2275 32.8684 76.2607 32.9356C76.2607 33.0028 76.2275 33.07 76.1605 33.1036L75.1885 33.2379C75.0545 33.2715 74.9205 33.2715 74.7194 33.3051C74.5516 33.3051 74.3505 33.3051 74.1834 33.3051C73.9823 33.3051 73.8145 33.2715 73.6804 33.2379C73.5126 33.1707 73.3785 33.1036 73.3115 32.9692C73.2445 32.8684 73.2114 32.7005 73.2114 32.5325C73.2445 32.3982 73.2784 32.2302 73.3454 32.0623C73.4456 31.8608 73.5126 31.6928 73.6466 31.5249C73.7474 31.3569 73.8815 31.2226 73.9823 31.0882L74.1834 30.8195C74.3174 30.6851 74.4514 30.5172 74.5854 30.3493C74.6856 30.1813 74.7864 30.0134 74.8534 29.8454C74.9536 29.7111 74.9875 29.5431 75.0206 29.3751C75.0206 29.2408 74.9875 29.0728 74.9536 28.9385C74.8535 28.737 74.6856 28.6362 74.4175 28.6026C74.2504 28.569 74.0493 28.6362 73.8145 28.7705C73.6134 28.9385 73.4124 29.1064 73.1775 29.3416C72.9765 29.5431 72.7755 29.7782 72.5744 30.0134C72.3734 30.2821 72.2062 30.4836 72.0384 30.6851L70.9994 32.0287C70.6982 32.3982 70.3963 32.7677 70.0951 33.1036C69.7593 33.4395 69.4581 33.7418 69.1231 33.9769C68.7878 34.212 68.4192 34.3799 68.0841 34.5143C67.7155 34.6487 67.3804 34.6487 67.0118 34.5815C66.9783 34.5815 66.9113 34.5479 66.8442 34.5479C66.7437 34.5143 66.6767 34.5143 66.5762 34.4807C66.5091 34.4472 66.4756 34.4136 66.4421 34.3799C66.4086 34.3128 66.4086 34.2792 66.4086 34.212C66.4421 34.1784 66.4756 34.1448 66.5427 34.1448C66.6097 34.1113 66.6767 34.1448 66.7102 34.1448C66.9113 34.2792 67.0453 34.3464 67.1123 34.3799C67.3804 34.4472 67.682 34.4136 68.0171 34.2792C68.3187 34.1784 68.6203 34.0105 68.9554 33.7753C69.2571 33.5402 69.5583 33.2715 69.8602 32.9692C70.1621 32.6333 70.4633 32.2975 70.7313 31.9615L71.8712 30.4836C72.1724 30.1141 72.4404 29.7782 72.6753 29.4759C72.9095 29.2072 73.1775 28.9721 73.4124 28.7705C73.6466 28.6026 73.9153 28.4682 74.1495 28.3675C74.4175 28.3003 74.6856 28.3003 75.0206 28.3339C75.2217 28.3675 75.3895 28.4347 75.5235 28.5354C75.6576 28.6362 75.7916 28.8041 75.8924 29.0393C76.0265 29.3751 76.0265 29.7111 75.8254 30.1141C75.6576 30.5172 75.4227 30.9203 75.0876 31.3233L74.8866 31.5921ZM62.8899 30.9203C62.7894 31.0546 62.6554 31.2226 62.5213 31.3905C62.3873 31.5585 62.2868 31.7264 62.1863 31.8944C62.0857 32.0623 62.0187 32.2302 61.9517 32.3646C61.8847 32.5325 61.8847 32.6333 61.9517 32.7677C62.0187 32.9356 62.1527 33.0364 62.3873 33.07C62.5213 33.07 62.7224 33.0028 62.9235 32.9021C63.1581 32.7677 63.3927 32.6333 63.6607 32.4318C63.9288 32.2302 64.1634 31.9952 64.465 31.76C64.7331 31.4913 64.9677 31.2226 65.2357 30.9875C65.5038 30.7187 65.7048 30.45 65.9059 30.2149C66.107 29.9797 66.2746 29.7447 66.4086 29.5767L66.8107 28.9385C66.9448 28.7034 67.0453 28.569 67.1123 28.5354C67.1793 28.5018 67.3134 28.4682 67.4809 28.4682H67.8496C68.0506 28.4682 68.1847 28.5018 68.2182 28.5354C68.2517 28.6026 68.1847 28.737 68.0171 28.9721L67.2463 30.0134C67.1123 30.2149 66.9448 30.45 66.7437 30.6851C66.5762 30.9539 66.4086 31.2226 66.2411 31.4913C66.0735 31.76 65.9729 31.9952 65.8724 32.2302C65.8054 32.4654 65.7719 32.6333 65.8054 32.8013C65.8389 32.8684 65.8724 32.9692 65.9394 33.0364C66.0064 33.1036 66.0735 33.1707 66.2075 33.1707C66.4086 33.1707 66.6767 33.1036 66.9783 32.9356C67.2798 32.8013 67.615 32.5661 67.9501 32.2975C68.2517 32.0287 68.5868 31.7264 68.9219 31.3569C69.2233 30.9874 69.4913 30.618 69.7262 30.2149C69.7593 30.1813 69.8263 30.1477 69.894 30.1813C69.9611 30.2149 69.9942 30.2821 69.9611 30.3493C69.7262 30.7187 69.4581 31.0882 69.1901 31.4241C68.8884 31.76 68.5868 32.0959 68.2517 32.3646C67.9501 32.6669 67.615 32.9021 67.2798 33.1036C66.9448 33.2715 66.6097 33.4059 66.3081 33.4395C66.107 33.4395 65.9059 33.4394 65.7048 33.4059C65.4703 33.3387 65.3027 33.2379 65.1352 33.07C64.9677 32.8348 64.8671 32.5998 64.9006 32.331C64.9006 32.0959 64.9342 31.8272 65.0012 31.5921C64.6996 31.8608 64.4314 32.1295 64.1634 32.3646C63.8953 32.5998 63.6272 32.8013 63.3592 32.9692C63.091 33.1371 62.8229 33.2379 62.5549 33.3051C62.3203 33.3723 62.0522 33.3723 61.7506 33.3051C61.4155 33.2044 61.1474 32.9692 61.0134 32.5661C60.9128 32.2302 60.9799 31.9279 61.1809 31.5921C61.382 31.2898 61.6501 30.8867 61.9852 30.45L62.1863 30.1477C62.5549 29.7111 62.7559 29.3751 62.8564 29.1736C62.9235 28.9721 62.957 28.8378 62.8899 28.7705C62.8229 28.7034 62.7224 28.6698 62.5884 28.6698C62.4543 28.7034 62.2533 28.7034 61.9517 28.7705L60.9799 28.9049C60.9128 28.9049 60.8458 28.8713 60.8458 28.8041C60.8123 28.737 60.8458 28.6698 60.9463 28.6698L61.9182 28.5018C62.0522 28.5018 62.1863 28.4682 62.3873 28.4682C62.5549 28.4347 62.7559 28.4347 62.9235 28.4347C63.091 28.4347 63.2586 28.4682 63.4262 28.5018C63.5937 28.569 63.6942 28.6362 63.7613 28.7705C63.8618 28.9049 63.8953 29.0393 63.8953 29.2072C63.8618 29.3751 63.8283 29.5431 63.7613 29.7111C63.6607 29.879 63.5602 30.047 63.4597 30.2149C63.3592 30.3828 63.2251 30.5508 63.1246 30.6851L62.8899 30.9203ZM56.9586 31.8944L57.1262 31.6928C57.0591 31.76 57.0256 31.8272 56.9586 31.8944ZM50.625 31.3905C50.5915 31.4913 50.5245 31.5921 50.491 31.7264C50.4575 31.8608 50.3905 31.9951 50.3905 32.1631C50.357 32.2975 50.357 32.4318 50.357 32.5661C50.357 32.7005 50.357 32.8013 50.424 32.8684C50.491 33.0028 50.558 33.07 50.6585 33.1036C50.7591 33.1371 50.8596 33.1371 50.9602 33.1036C51.1613 33.07 51.4628 32.9356 51.7979 32.6333C52.133 32.331 52.4681 31.9952 52.8033 31.6256L53.0043 31.4241C53.1384 31.2226 53.2724 31.0546 53.4064 30.8531C53.507 30.6851 53.641 30.5172 53.8085 30.3157C53.9426 30.1141 54.0767 29.9462 54.1772 29.7782L54.2442 29.6439C54.3113 29.5095 54.3448 29.3416 54.3783 29.2072C54.4118 29.0393 54.3783 28.9049 54.3113 28.8041C54.2442 28.737 54.2107 28.7034 54.1772 28.7034C53.6745 28.6026 53.507 28.6698 53.2389 28.8041C53.1384 28.8378 53.0378 28.9049 52.9038 28.9721C52.6022 29.1736 52.3006 29.4087 51.999 29.6774C51.7309 29.9462 51.4628 30.2149 51.1948 30.5172C50.9602 30.8195 50.7591 31.1218 50.625 31.3905ZM56.2214 29.2072C55.9868 29.3751 55.7522 29.5767 55.4841 29.8454C55.283 30.047 55.1155 30.2485 54.9479 30.45C54.8139 30.6516 54.7134 30.8531 54.6128 31.0546C54.4453 31.3569 54.3113 31.6592 54.2107 31.9615C54.1437 32.1967 54.1437 32.4318 54.1772 32.5998C54.2442 32.7677 54.3783 32.8684 54.5123 32.9692C54.6128 33.0364 54.7134 33.07 54.8139 33.07C54.9479 33.07 55.1155 33.0364 55.283 32.9356C55.5176 32.8013 55.7857 32.6333 56.0538 32.3982C56.3219 32.1631 56.6235 31.8944 56.858 31.5921C57.1261 31.2898 57.3942 30.9875 57.5953 30.7187C57.6623 30.6516 57.7293 30.618 57.7628 30.6851C57.8299 30.7187 57.8634 30.7523 57.7963 30.8195C57.6288 31.0882 57.3942 31.3905 57.1597 31.6928C57.2602 31.5921 57.3607 31.4577 57.4613 31.3233C57.6958 31.021 57.8969 30.6851 58.0644 30.3828C58.232 30.047 58.3325 29.7782 58.366 29.5431C58.3995 29.1736 58.299 28.9385 58.1314 28.8041C57.9639 28.6698 57.7628 28.6362 57.5283 28.6362C57.2937 28.6698 57.0926 28.737 56.925 28.8041C56.791 28.8713 56.5564 29.0057 56.2214 29.2072ZM68.0506 22.7917C68.0506 22.8588 67.9836 22.8924 67.9166 22.8924C67.8496 22.8924 67.8831 22.926 67.8496 22.8924C67.7155 22.8253 67.6485 22.7917 67.615 22.7917C67.5815 22.758 67.5479 22.7245 67.4139 22.6573C67.0788 22.4557 66.9448 22.4222 66.4421 22.3886C65.9394 22.3886 65.3698 22.4222 64.8001 22.523C64.1969 22.6573 63.5602 22.8588 62.9235 23.1276C62.2868 23.3963 61.6501 23.6986 61.0134 24.1016C60.5107 24.4039 60.0416 24.7734 59.5724 25.1429C59.1033 25.546 58.6341 25.9491 58.1984 26.3857C57.7628 26.8224 57.3607 27.259 56.9921 27.7293C56.5899 28.1659 56.2549 28.6362 55.9198 29.0393L55.8528 29.1064L56.1208 28.9385C56.3889 28.7705 56.657 28.6362 56.9586 28.5018C57.2267 28.4011 57.5283 28.3339 57.7963 28.3339C58.0644 28.3003 58.3325 28.3675 58.6006 28.4347C58.8017 28.5354 59.0028 28.6698 59.1368 28.8378C59.3043 29.0057 59.3713 29.2072 59.4384 29.4424C59.4719 29.879 59.3713 30.3828 59.1033 30.9203C58.8017 31.4241 58.3995 31.9615 57.8634 32.4318C57.6288 32.6333 57.3607 32.8013 57.0926 32.9692C56.8245 33.1036 56.5564 33.2379 56.2884 33.3051C55.4506 33.6074 53.9761 33.7753 53.4064 32.9021C53.3729 32.8684 53.3394 32.8348 53.3394 32.8013L52.3341 34.0776C50.7591 36.0595 49.1841 37.5038 47.5756 38.4107C45.9671 39.3512 44.2915 39.7878 42.616 39.7878C41.7447 39.7878 40.974 39.6199 40.2367 39.3176C39.533 38.9817 38.9634 38.545 38.5277 37.9404C38.4942 37.9069 38.4607 37.8396 38.4272 37.8061C38.3936 37.7725 38.3266 37.6717 38.2596 37.571C38.1591 37.403 38.1926 37.2687 38.3266 37.2015C38.4942 37.1343 38.5612 37.235 38.5947 37.4366C38.6282 37.5038 38.6617 37.571 38.6952 37.6381C38.6952 37.7053 38.7288 37.7389 38.7623 37.8061C38.9634 38.1084 39.2315 38.3771 39.5665 38.6123C39.9016 38.8473 40.2367 39.0153 40.5719 39.1496C40.907 39.3176 41.2756 39.4184 41.6107 39.4519C41.9793 39.5192 42.3144 39.5527 42.616 39.5527C43.2527 39.5527 43.8559 39.4519 44.4926 39.284C45.1293 39.1161 45.766 38.8473 46.4027 38.5115C47.0059 38.1756 47.6091 37.7389 48.2123 37.2687C48.782 36.7648 49.3181 36.1602 49.8208 35.522L51.0942 33.8761C51.3288 33.5738 51.5634 33.3051 51.7979 32.9692L51.7644 33.0028C51.5299 33.1707 51.2953 33.3051 51.0607 33.3723C50.8261 33.473 50.5915 33.473 50.3235 33.4059C50.0889 33.3387 49.8879 33.2044 49.7203 33.0364C49.5192 32.8684 49.4187 32.6669 49.3516 32.4318C49.2511 32.0623 49.2846 31.6592 49.4187 31.2226C49.5862 30.8195 49.8543 30.4164 50.2229 30.0134C50.491 29.7111 50.7926 29.4424 51.1277 29.2408C51.4628 29.0057 51.8314 28.8041 52.1665 28.6698C52.5017 28.5354 52.8368 28.4347 53.1384 28.3675C53.4399 28.3339 54.3783 28.1659 54.8809 28.5018L55.0485 28.6026C55.1825 28.4011 55.35 28.1995 55.5511 27.998C55.9533 27.5613 56.3889 27.0911 56.925 26.5873C57.4613 26.0834 58.0644 25.6131 58.7012 25.1093C59.3713 24.6055 60.0416 24.1688 60.7453 23.7657C62.1863 22.9932 63.4932 22.4894 64.7331 22.2542C65.9394 22.0527 66.6767 22.0527 67.5144 22.4222C67.615 22.4894 67.682 22.523 67.749 22.523C67.7826 22.523 67.8496 22.523 67.9166 22.5565C67.9836 22.5901 67.9836 22.5901 68.0171 22.6237C68.0841 22.6909 68.0841 22.758 68.0506 22.7917Z" fill="white"/>
<path d="M137.049 30.9875H138.724L140.232 28.737H138.356C137.551 28.9721 136.378 30.0806 137.049 30.9875ZM136.479 33.0028H137.35C137.417 32.9693 137.484 32.8685 137.518 32.8013C137.618 32.667 137.719 32.499 137.819 32.3311L138.456 31.357C137.92 31.3905 137.484 31.357 137.183 31.357C136.881 31.7265 136.311 32.3982 135.473 33.3051C134.569 34.2793 133.865 34.9846 133.329 35.3541C132.793 35.7571 132.19 36.0594 131.519 36.3282C130.849 36.5969 130.079 36.7313 129.241 36.7313C128.571 36.7313 128.001 36.6305 127.498 36.4625C126.996 36.2946 126.56 36.0931 126.192 35.8244C125.823 35.5892 125.555 35.3205 125.32 35.0518C125.086 34.7831 124.885 34.5479 124.784 34.3128C124.751 34.2793 124.717 34.2456 124.717 34.2121C124.683 34.1785 124.616 34.1113 124.583 34.0777C124.549 34.0441 124.516 33.977 124.516 33.9098C124.549 33.8426 124.583 33.7754 124.65 33.7418C124.683 33.7082 124.751 33.7082 124.784 33.7418C124.851 33.7754 124.885 33.809 124.918 33.8762C124.918 33.9433 124.918 34.0105 124.952 34.0441C124.952 34.1113 124.952 34.1449 124.985 34.1449C125.086 34.3464 125.253 34.5816 125.454 34.8502C125.655 35.119 125.957 35.3877 126.292 35.6228C126.627 35.8579 127.029 36.0594 127.532 36.2274C128.001 36.3954 128.571 36.4961 129.241 36.4961C130.012 36.4961 130.749 36.3618 131.385 36.1267C132.022 35.8915 132.659 35.5556 133.228 35.0854C133.798 34.6823 134.368 34.1785 134.87 33.5739C136.01 32.2974 136.713 31.5585 136.914 31.2898C136.345 31.1219 135.943 30.6516 135.943 30.047C136.11 29.3416 136.78 28.9385 137.417 28.6698C138.758 28.1996 140.936 28.4683 142.478 28.4683V28.737H141.271H141.238L138.791 32.9357C138.657 33.1036 139.428 33.0028 139.562 33.0028V33.3387H136.479V33.0028ZM128.604 30.9203C128.47 31.0547 128.37 31.2226 128.236 31.3905C128.102 31.5585 127.968 31.7265 127.867 31.8944C127.767 32.0624 127.699 32.2303 127.632 32.3647C127.599 32.5326 127.599 32.6334 127.632 32.7678C127.699 32.9357 127.867 33.0364 128.068 33.0701C128.236 33.0701 128.403 33.0028 128.638 32.902C128.872 32.7678 129.107 32.6334 129.341 32.4318C129.609 32.2303 129.878 31.9951 130.146 31.7601C130.414 31.4913 130.682 31.2226 130.95 30.9875C131.184 30.7188 131.419 30.45 131.62 30.215C131.821 29.9798 131.989 29.7447 132.089 29.5767L132.491 28.9385C132.659 28.7034 132.759 28.5691 132.826 28.5354C132.893 28.5019 132.994 28.4683 133.161 28.4683H133.563C133.765 28.4683 133.865 28.5019 133.899 28.5354C133.932 28.6027 133.865 28.737 133.698 28.9721L132.96 30.0134C132.793 30.215 132.659 30.45 132.458 30.6852C132.257 30.9539 132.089 31.2226 131.922 31.4913C131.788 31.7601 131.653 31.9951 131.586 32.2303C131.486 32.4654 131.452 32.6334 131.519 32.8013C131.519 32.8685 131.586 32.9693 131.62 33.0364C131.687 33.1036 131.788 33.1708 131.888 33.1708C132.123 33.1708 132.391 33.1036 132.692 32.9357C132.994 32.8013 133.295 32.5662 133.63 32.2974C134.133 31.8944 134.803 31.2562 135.105 30.6852C135.138 30.6516 135.205 30.618 135.272 30.6516C135.339 30.6852 135.373 30.7524 135.339 30.8196C135.038 31.357 134.401 31.9616 133.966 32.3647C133.63 32.667 133.329 32.902 132.96 33.1036C132.625 33.2716 132.324 33.4059 132.022 33.4395C131.821 33.4395 131.62 33.4395 131.385 33.4059C131.184 33.3387 130.983 33.238 130.849 33.0701C130.648 32.8349 130.581 32.5997 130.581 32.3311C130.615 32.0959 130.648 31.8272 130.682 31.5921C130.414 31.8608 130.146 32.1295 129.844 32.3647C129.576 32.5997 129.308 32.8013 129.04 32.9693C128.772 33.1372 128.537 33.238 128.269 33.3051C128.001 33.3724 127.733 33.3724 127.465 33.3051C127.096 33.2044 126.862 32.9693 126.728 32.5662C126.627 32.2303 126.661 31.928 126.862 31.5921C127.063 31.2898 127.331 30.8867 127.666 30.45L127.901 30.1477C128.236 29.7111 128.47 29.3752 128.537 29.1737C128.638 28.9721 128.638 28.8377 128.571 28.7706C128.537 28.7034 128.437 28.6698 128.303 28.6698C128.169 28.7034 127.934 28.7034 127.632 28.7706L126.661 28.905C126.594 28.905 126.56 28.8714 126.527 28.8042C126.527 28.737 126.56 28.6698 126.627 28.6698L127.599 28.5019C127.733 28.5019 127.901 28.4683 128.068 28.4683C128.269 28.4347 128.437 28.4347 128.604 28.4347C128.805 28.4347 128.973 28.4683 129.107 28.5019C129.274 28.5691 129.408 28.6362 129.475 28.7706C129.542 28.905 129.576 29.0393 129.576 29.2073C129.576 29.3752 129.509 29.5431 129.442 29.7111C129.375 29.879 129.274 30.047 129.174 30.215C129.04 30.3829 128.939 30.5508 128.805 30.6852L128.604 30.9203Z" fill="white"/>
<path d="M109.267 18.694C109.233 18.8619 109.233 18.9963 109.267 19.097C109.3 19.1978 109.367 19.2986 109.401 19.3657C109.501 19.4329 109.635 19.4665 109.769 19.4665C109.903 19.4329 110.037 19.3993 110.205 19.3322C110.473 19.2314 110.808 18.9963 111.143 18.694C111.512 18.4253 111.847 18.0894 112.182 17.7199C112.518 17.3504 112.786 17.0145 113.02 16.645C113.288 16.2756 113.422 15.9733 113.456 15.7381C113.523 15.4694 113.49 15.2679 113.288 15.0999C113.188 15.0327 113.054 14.9991 112.886 14.9991C112.752 15.0327 112.618 15.0663 112.484 15.1335C112.182 15.2679 111.881 15.4694 111.512 15.7045C111.177 15.9733 110.842 16.2756 110.507 16.6114C110.205 16.9473 109.937 17.2832 109.702 17.6527C109.468 18.0222 109.334 18.358 109.267 18.694ZM114.26 14.9991C114.327 14.8648 114.428 14.764 114.461 14.7304C114.528 14.6968 114.629 14.6968 114.797 14.6968H115.299C115.467 14.6968 115.534 14.7304 115.567 14.7976C115.601 14.8648 115.567 14.932 115.5 15.0327L114.26 16.9137C114.093 17.1488 113.925 17.384 113.758 17.6191C113.59 17.8542 113.456 18.0894 113.355 18.2909C113.221 18.526 113.154 18.694 113.121 18.8619C113.054 19.0299 113.087 19.1642 113.154 19.265C113.221 19.3993 113.288 19.4665 113.355 19.4665C113.456 19.5001 113.523 19.5001 113.624 19.5001C113.724 19.4665 113.925 19.4329 114.16 19.2986C114.428 19.1642 114.696 19.0299 115.031 18.7947C115.467 18.526 116.305 17.9214 116.606 17.4848C116.673 17.4176 116.707 17.4176 116.774 17.4511C116.841 17.5183 116.841 17.5519 116.807 17.6191C116.539 18.0557 115.735 18.6603 115.299 18.9626C114.931 19.1978 114.596 19.3993 114.26 19.5673C113.892 19.7016 113.624 19.8024 113.389 19.8024C113.188 19.836 112.987 19.836 112.786 19.7688C112.585 19.7016 112.451 19.6009 112.316 19.3993C112.216 19.2314 112.149 19.0299 112.149 18.8283C112.149 18.6603 112.149 18.4253 112.182 18.1565C111.948 18.3917 111.713 18.6268 111.445 18.8619C111.177 19.097 110.909 19.265 110.607 19.4329C110.339 19.5673 110.037 19.7016 109.769 19.7352C109.468 19.8024 109.233 19.836 108.965 19.7688C108.798 19.7352 108.63 19.6345 108.496 19.4665C108.362 19.2986 108.262 19.097 108.194 18.8619C108.094 18.4588 108.127 18.0894 108.262 17.6863C108.396 17.2832 108.63 16.8802 108.999 16.5106C109.267 16.2083 109.602 15.9396 109.97 15.7045C110.306 15.4358 110.674 15.2343 111.043 15.0999C111.445 14.932 111.78 14.8312 112.149 14.764C112.484 14.6968 112.786 14.6633 113.054 14.7304C113.255 14.764 113.422 14.8648 113.557 14.9656C113.657 15.0999 113.758 15.3014 113.791 15.5702L114.26 14.9991ZM104.408 19.668C104.475 19.9032 104.509 20.1383 104.542 20.3399C104.576 20.575 104.643 20.7765 104.71 20.9445C104.777 21.146 104.911 21.3139 105.045 21.4819C105.179 21.6162 105.38 21.7506 105.614 21.885C106.117 22.0865 106.586 22.12 107.055 21.9857C107.558 21.8177 108.094 21.5491 108.697 21.1796C108.764 21.146 108.798 21.1796 108.831 21.2131C108.865 21.2804 108.865 21.3475 108.798 21.4147C108.06 21.9521 107.357 22.2544 106.687 22.3552C106.05 22.4223 105.413 22.3552 104.81 22.0865C104.475 21.9521 104.24 21.7842 104.073 21.5827C103.872 21.3475 103.738 21.1124 103.604 20.8773C103.503 20.6085 103.403 20.3399 103.369 20.0711C103.302 19.7688 103.235 19.5001 103.202 19.2314L103.101 18.7611C102.934 17.9214 102.733 17.3504 102.498 17.0145C102.263 16.6786 101.995 16.5106 101.66 16.5106C101.526 16.6786 101.392 16.8465 101.258 17.0817C101.124 17.2496 100.99 17.4511 100.823 17.6863C100.689 17.9214 100.521 18.1565 100.387 18.3917C100.286 18.4924 100.253 18.6268 100.186 18.7947C100.119 18.9291 100.119 19.0634 100.186 19.1642C100.219 19.265 100.354 19.3322 100.521 19.3993C100.722 19.4329 101.057 19.4665 101.56 19.4665C101.593 19.4665 101.627 19.5001 101.66 19.6009C101.66 19.668 101.627 19.7016 101.56 19.7016H96.4663C96.3993 19.7016 96.3654 19.668 96.3654 19.6009C96.3654 19.5001 96.3993 19.4665 96.4663 19.4665C96.9354 19.4665 97.3374 19.4665 97.6054 19.4329C97.9067 19.3993 98.1415 19.3322 98.3087 19.2314C98.5104 19.1306 98.6776 19.0299 98.7785 18.8619C98.9125 18.694 99.0797 18.4924 99.2137 18.2573C99.7166 17.4176 100.219 16.645 100.722 15.8725C101.191 15.1335 101.727 14.4281 102.297 13.6891C102.867 12.9502 103.503 12.2113 104.207 11.4386C104.911 10.6661 105.715 9.85997 106.687 8.98664C107.29 8.38203 107.993 7.87821 108.731 7.40797C109.468 6.93773 110.239 6.53463 111.009 6.19874C111.747 5.86284 112.518 5.59413 113.255 5.42619C113.992 5.25823 114.696 5.15747 115.299 5.15747C115.902 5.15747 116.405 5.19106 116.807 5.25823C117.243 5.359 117.611 5.42619 117.913 5.52695C118.215 5.62772 118.483 5.72849 118.717 5.86284C118.918 5.96361 119.119 6.06438 119.287 6.13156C119.354 6.19874 119.387 6.23233 119.454 6.26591C119.521 6.2995 119.588 6.3331 119.655 6.36668C119.722 6.43386 119.756 6.46745 119.789 6.53463C119.789 6.60181 119.756 6.66899 119.722 6.70258C119.689 6.76976 119.655 6.80335 119.555 6.76976C119.488 6.73616 119.421 6.70258 119.354 6.6354C119.32 6.60181 119.287 6.56822 119.253 6.50104C119.22 6.46745 119.186 6.40027 119.119 6.36668C118.985 6.26591 118.818 6.16515 118.617 6.06438C118.382 5.96361 118.148 5.86284 117.846 5.76208C117.544 5.66131 117.176 5.59413 116.774 5.52695C116.338 5.45977 115.869 5.42619 115.299 5.42619C114.663 5.42619 113.992 5.52695 113.288 5.72849C112.585 5.93002 111.881 6.19874 111.177 6.56822C110.473 6.97131 109.769 7.40797 109.066 7.91179C108.362 8.44925 107.725 9.02021 107.055 9.65846C106.352 10.3638 105.715 11.0356 105.179 11.6402C104.643 12.2784 104.173 12.8494 103.771 13.3868C103.369 13.9243 103.001 14.4281 102.699 14.8983C102.364 15.3687 102.096 15.8052 101.828 16.2419C101.995 16.2419 102.163 16.2419 102.331 16.2083C102.498 16.2083 102.666 16.1748 102.8 16.1412C102.967 16.1076 103.101 16.074 103.269 16.0068C103.436 15.9396 103.637 15.8389 103.838 15.7381C104.039 15.6373 104.24 15.5029 104.509 15.4022C104.743 15.2679 104.944 15.1671 105.112 15.0327C105.447 14.8648 105.782 14.6968 106.15 14.5289C106.519 14.3609 106.888 14.2266 107.223 14.1594C107.591 14.0586 107.96 14.0251 108.295 14.0586C108.664 14.0922 108.965 14.193 109.3 14.3945C109.334 14.4281 109.401 14.4617 109.434 14.4953C109.501 14.5289 109.535 14.5625 109.602 14.5625C109.702 14.596 109.736 14.6297 109.736 14.6968C109.736 14.7304 109.736 14.764 109.736 14.7976C109.702 14.8312 109.669 14.8648 109.602 14.8648C109.568 14.8648 109.501 14.8312 109.434 14.764C109.401 14.7304 109.367 14.6968 109.334 14.6633C109.334 14.6633 109.267 14.596 109.233 14.5625C108.731 14.2602 108.127 14.1594 107.457 14.3274C106.754 14.4953 106.016 14.7976 105.246 15.2343C105.045 15.3687 104.81 15.4694 104.576 15.6037C104.341 15.7381 104.14 15.8389 103.939 15.9733C103.637 16.1076 103.403 16.2083 103.202 16.3091C103.001 16.3763 102.8 16.4435 102.599 16.5106C102.833 16.7122 103.068 16.8802 103.235 17.0145C103.403 17.1488 103.537 17.3168 103.671 17.4848C103.838 17.6527 103.939 17.8542 104.039 18.123C104.14 18.358 104.207 18.694 104.308 19.097L104.408 19.668ZM96.1976 15.0999C96.1306 15.0327 96.0635 14.9656 95.9295 14.9656C95.7955 14.9656 95.7285 14.9656 95.6953 14.9656C95.6615 14.9991 95.5945 14.9991 95.4943 15.0327C95.4273 15.0327 95.3264 15.0999 95.1593 15.1671C94.9914 15.2343 94.8242 15.3687 94.6232 15.4694C94.4221 15.6037 94.2543 15.7045 94.1203 15.8389C93.8522 16.0404 93.6173 16.2756 93.3832 16.5106C93.1821 16.7794 92.9811 17.0145 92.8132 17.2832C92.6122 17.5183 92.512 17.7871 92.4112 18.0222C92.3103 18.2909 92.2771 18.526 92.3103 18.7276C92.3103 18.8619 92.3773 18.9963 92.445 19.1306C92.512 19.265 92.6122 19.3657 92.7462 19.4329C92.8471 19.4665 92.9811 19.5001 93.1483 19.5001C93.3161 19.5001 93.4833 19.4665 93.6512 19.3993C93.8184 19.3657 93.9862 19.2986 94.1534 19.1978C94.3213 19.1306 94.4892 19.0299 94.6563 18.9291C95.0584 18.694 95.3603 18.4588 95.6615 18.1901C95.9295 17.8878 96.1976 17.6527 96.4324 17.384C96.4994 17.3168 96.5665 17.3168 96.6335 17.384C96.7005 17.4511 96.7005 17.4848 96.6335 17.5855C96.3654 17.8878 96.0635 18.1901 95.7285 18.4588C95.3934 18.7611 95.0584 18.9963 94.6902 19.2314C94.3213 19.4329 93.9524 19.6009 93.5842 19.7016C93.1821 19.8024 92.8132 19.836 92.445 19.7688C92.2101 19.7352 92.0091 19.668 91.7742 19.5001C91.54 19.3657 91.3722 19.1642 91.272 18.8955C91.138 18.5932 91.138 18.2237 91.2382 17.8207C91.339 17.4176 91.5062 17.0481 91.7742 16.6786C92.0423 16.3427 92.3103 16.0404 92.646 15.8053C92.9811 15.5366 93.3161 15.335 93.6844 15.1671C94.0532 14.9991 94.4221 14.8648 94.7904 14.764C95.1593 14.6968 95.4943 14.6633 95.7955 14.6968C95.9634 14.7304 96.0974 14.764 96.2646 14.8312C96.3993 14.8648 96.4994 14.9991 96.6003 15.1671C96.6673 15.2679 96.7005 15.4022 96.7005 15.5366C96.7005 15.671 96.6673 15.8053 96.6003 15.9396C96.4324 16.1748 96.2646 16.3091 96.0304 16.2756C95.9965 16.2756 95.8964 16.2419 95.8293 16.2083C95.7285 16.1748 95.6953 16.1076 95.6283 16.0068C95.5945 15.9733 95.5945 15.906 95.5945 15.8053C95.5613 15.7381 95.5945 15.6373 95.6615 15.5366C95.6953 15.4694 95.7285 15.4022 95.7955 15.335C95.8964 15.3014 95.9965 15.2006 96.1976 15.0999ZM82.1566 17.0145H82.8606C82.9276 16.9473 82.9946 16.8802 83.0284 16.813L83.2626 16.5106C83.5977 16.074 83.8325 15.7381 83.8996 15.5366C83.9997 15.335 83.9997 15.2006 83.9327 15.1335C83.8996 15.0663 83.7987 15.0327 83.6647 15.0663C83.5307 15.0663 83.2965 15.0999 82.9946 15.1335L82.0226 15.2679C81.9556 15.2679 81.9224 15.2679 81.8886 15.1671C81.8886 15.0999 81.9224 15.0327 81.9894 15.0327L82.9614 14.8983C83.0954 14.8648 83.2626 14.8312 83.4305 14.8312C83.6315 14.7976 83.7987 14.7976 83.9666 14.7976C84.1676 14.7976 84.3348 14.8312 84.5026 14.8983C84.6367 14.932 84.7707 14.9991 84.8377 15.1335C84.9047 15.2679 84.9386 15.4022 84.9386 15.5702C84.9386 15.7381 84.8715 15.906 84.8045 16.074C84.7375 16.2419 84.6367 16.4435 84.5365 16.5779C84.4018 16.7458 84.3016 16.9137 84.2008 17.0145H86.6476C86.7817 16.8465 86.8818 16.7122 86.9827 16.5779C87.1837 16.3427 87.3509 16.1076 87.4518 15.9396L87.8538 15.3014C88.021 15.0999 88.1219 14.932 88.1889 14.8983C88.2559 14.8648 88.356 14.8312 88.5239 14.8312H88.926C89.127 14.8312 89.2279 14.8648 89.261 14.8983C89.2949 14.9656 89.2279 15.0999 89.0938 15.335L88.3229 16.3763L87.5519 17.4176C87.4518 17.5519 87.3848 17.6863 87.3177 17.8542C87.1499 18.123 87.0159 18.358 86.9488 18.5932C86.8487 18.8283 86.8148 18.9963 86.8818 19.1642C86.9157 19.2314 86.9488 19.3322 87.0159 19.3993C87.0497 19.5001 87.1499 19.5337 87.2507 19.5337C87.4849 19.5337 87.753 19.4665 88.0548 19.2986C88.356 19.1642 88.6579 18.9291 88.993 18.6603C89.328 18.3917 89.6299 18.0557 89.965 17.7199C90.3 17.3504 90.5681 16.9809 90.7691 16.5779C90.8029 16.5106 90.8699 16.5106 90.937 16.5442C91.0371 16.5779 91.0371 16.6114 91.004 16.7122C90.8029 17.0817 90.5349 17.4176 90.233 17.7871C89.965 18.123 89.6299 18.4588 89.328 18.7276C88.993 19.0299 88.6918 19.265 88.356 19.4665C87.9878 19.6345 87.6859 19.7688 87.3848 19.8024C87.1837 19.836 86.9827 19.8024 86.7478 19.7688C86.5468 19.7016 86.3458 19.6009 86.2117 19.4329C85.9098 19.097 85.8428 18.2909 86.0439 17.955C86.1779 17.7534 86.2787 17.5855 86.3789 17.4176H83.8325C83.7655 17.5183 83.6647 17.6191 83.5977 17.7199C83.4636 17.8878 83.0954 18.4924 82.5255 19.5001C82.4917 19.5673 82.4247 19.668 82.3915 19.7352H81.3193C81.3525 19.5673 81.6544 18.9626 82.2236 17.955C82.3245 17.7871 82.4247 17.6191 82.5925 17.4176H82.1566V17.0145ZM73.712 18.694C73.645 18.8619 73.645 18.9963 73.712 19.097C73.7459 19.1978 73.779 19.2986 73.846 19.3657C73.9469 19.4329 74.0471 19.4665 74.1811 19.4665C74.3151 19.4329 74.483 19.3993 74.6508 19.3322C74.9189 19.2314 75.2201 18.9963 75.589 18.694C75.924 18.4253 76.2922 18.0894 76.5941 17.7199C76.9292 17.3504 77.2311 17.0145 77.4652 16.645C77.7001 16.2756 77.8341 15.9733 77.9012 15.7381C77.9682 15.4694 77.9012 15.2679 77.7333 15.0999C77.5993 15.0327 77.4652 14.9991 77.3312 14.9991C77.1972 15.0327 77.03 15.0663 76.896 15.1335C76.628 15.2679 76.2922 15.4694 75.9572 15.7045C75.589 15.9733 75.2539 16.2756 74.952 16.6114C74.6508 16.9473 74.349 17.2832 74.1479 17.6527C73.913 18.0222 73.7459 18.358 73.712 18.694ZM78.6721 14.9991C78.7723 14.8648 78.8393 14.764 78.9063 14.7304C78.9402 14.6968 79.0403 14.6968 79.2082 14.6968H79.7443C79.8783 14.6968 79.9785 14.7304 79.9785 14.7976C80.0123 14.8648 80.0123 14.932 79.9453 15.0327L78.6721 16.9137C78.5042 17.1488 78.3364 17.384 78.1692 17.6191C78.0352 17.8542 77.9012 18.0894 77.7671 18.2909C77.6663 18.526 77.5661 18.694 77.5323 18.8619C77.4991 19.0299 77.4991 19.1642 77.5661 19.265C77.6331 19.3993 77.7001 19.4665 77.8003 19.4665C77.8673 19.5001 77.9682 19.5001 78.0352 19.5001C78.1692 19.4665 78.3364 19.4329 78.6051 19.2986C78.8393 19.1642 79.1412 19.0299 79.4424 18.7947C79.7443 18.5932 80.0793 18.358 80.4144 18.0557C80.7494 17.7871 81.0513 17.4511 81.2855 17.1153C81.3525 17.0481 81.4195 17.0481 81.4534 17.0817C81.5204 17.1488 81.5204 17.1825 81.4865 17.2496C81.3193 17.5519 81.0513 17.8542 80.7163 18.1565C80.4144 18.4588 80.0793 18.7276 79.7104 18.9626C79.3754 19.1978 79.0072 19.3993 78.6721 19.5673C78.3364 19.7016 78.0352 19.8024 77.8003 19.8024C77.5993 19.836 77.3982 19.836 77.2311 19.7688C77.03 19.7016 76.8622 19.6009 76.7281 19.3993C76.628 19.2314 76.5603 19.0299 76.5603 18.8283C76.5603 18.6603 76.5603 18.4253 76.5941 18.1565C76.3931 18.3917 76.1251 18.6268 75.857 18.8619C75.6221 19.097 75.3209 19.265 75.0529 19.4329C74.751 19.5673 74.483 19.7016 74.1811 19.7352C73.913 19.8024 73.645 19.836 73.4108 19.7688C73.2098 19.7352 73.0419 19.6345 72.9079 19.4665C72.7739 19.2986 72.6737 19.097 72.606 18.8619C72.5058 18.4588 72.539 18.0894 72.6737 17.6863C72.8409 17.2832 73.0758 16.8802 73.4108 16.5106C73.712 16.2083 74.0139 15.9396 74.3821 15.7045C74.751 15.4358 75.1199 15.2343 75.4881 15.0999C75.857 14.932 76.2252 14.8312 76.5603 14.764C76.9292 14.6968 77.2311 14.6633 77.4652 14.7304C77.7001 14.764 77.8673 14.8648 77.9682 14.9656C78.0683 15.0999 78.1692 15.3014 78.2362 15.5702L78.6721 14.9991ZM69.3557 20.1383C69.3557 20.0376 69.3557 19.9368 69.3225 19.836C69.2887 19.5673 69.2217 19.3322 69.0877 19.0634C68.8867 18.6603 68.5851 18.358 68.183 18.1901C67.8143 18.0222 67.3787 17.955 66.876 17.955C66.7755 17.955 66.7085 17.8878 66.7085 17.7871C66.7085 17.6863 66.7755 17.6527 66.8425 17.6527H67.6132C67.8478 17.6527 68.0824 17.6191 68.3505 17.5519C68.5851 17.5183 68.8196 17.4176 69.0877 17.2832C69.3225 17.1488 69.5567 16.9473 69.7916 16.6786C70.0258 16.4771 70.1267 16.2419 70.1937 15.9396C70.2607 15.671 70.2607 15.4358 70.1937 15.2006C70.1267 14.9656 69.9926 14.8312 69.8586 14.7304C69.6907 14.6297 69.5236 14.5289 69.3225 14.4953C69.1547 14.4617 68.9872 14.4617 68.7861 14.4617C68.5516 14.4953 68.3505 14.5289 68.1159 14.596C67.9149 14.6633 67.7138 14.7304 67.5127 14.8312C67.3117 14.932 67.1776 15.0663 67.0436 15.2006C66.9096 15.3014 66.809 15.4694 66.742 15.6373C66.675 15.8053 66.7085 15.906 66.876 15.9733C66.9766 16.0068 67.0436 16.074 67.0436 16.2083C67.0771 16.3091 67.0101 16.4099 66.9431 16.4435C66.8425 16.4435 66.7755 16.4771 66.742 16.4771C66.7085 16.4771 66.6415 16.4435 66.608 16.4099C66.5409 16.3763 66.5074 16.3091 66.4739 16.2419C66.4404 16.1748 66.4069 16.074 66.4069 15.906C66.3734 15.7045 66.4404 15.5029 66.5744 15.3014C66.7085 15.0663 66.9096 14.8983 67.1441 14.6968C67.3452 14.5625 67.6132 14.4617 67.8813 14.361C68.1495 14.2602 68.451 14.193 68.7191 14.1594C69.0207 14.1258 69.3225 14.1258 69.5906 14.1594C69.8918 14.193 70.1266 14.2602 70.3608 14.361C70.9646 14.6297 71.2997 15.0327 71.3998 15.6373C71.3998 15.8725 71.3667 16.1412 71.2658 16.4099C71.1318 16.7122 70.9308 16.9809 70.5619 17.216C70.2607 17.4848 69.9588 17.6527 69.6237 17.7534C69.2555 17.8542 68.9202 17.9214 68.5516 17.955C68.8531 18.0894 69.0877 18.2237 69.3557 18.358C69.5906 18.526 69.9256 18.8283 70.3277 19.3657C70.6966 19.8696 70.5287 20.5078 69.7246 21.3139C68.9537 22.0865 68.25 22.7583 67.6467 23.2621C67.0436 23.7995 66.4404 24.2026 65.8037 24.4713C65.167 24.7401 64.5303 24.908 63.8936 24.9416C63.2569 25.0424 62.5532 25.0424 61.8159 25.0087C61.4808 24.9751 61.1122 24.908 60.6766 24.7736C60.2409 24.6728 59.7718 24.5049 59.3361 24.3034C58.867 24.1018 58.4648 23.9003 58.0962 23.6316C57.6941 23.3629 57.0909 22.6575 56.8898 22.3552C56.8563 22.3552 56.8228 22.288 56.7893 22.2544C56.7558 22.1873 56.6888 22.0865 56.6218 22.0193C56.5883 21.9185 56.5547 21.8177 56.5547 21.7506C56.5547 21.6834 56.5883 21.6162 56.6553 21.5827C56.7223 21.5827 56.7893 21.5827 56.8563 21.5827C56.8898 21.6498 56.9568 21.717 56.9568 21.8177C56.9904 22.0529 57.0574 22.1873 57.0909 22.2544C57.359 22.7583 58.0627 23.3293 58.5318 23.6316C59.001 23.9003 59.5037 24.1355 60.0733 24.337C60.6095 24.5049 61.1457 24.6393 61.7153 24.7064C62.2516 24.7736 62.7542 24.7736 63.1898 24.7064C63.8266 24.6057 64.3627 24.4713 64.8319 24.2698C65.3011 24.1018 65.7367 23.8667 66.1388 23.5644C66.809 23.0606 69.3225 20.7093 69.3557 20.1383ZM57.9287 18.694C57.8952 18.8619 57.8952 18.9963 57.9287 19.097C57.9957 19.1978 58.0292 19.2986 58.0962 19.3657C58.1968 19.4329 58.2973 19.4665 58.4313 19.4665C58.5654 19.4329 58.7329 19.3993 58.9005 19.3322C59.1686 19.2314 59.4702 18.9963 59.8388 18.694C60.1739 18.4253 60.509 18.0894 60.8441 17.7199C61.1792 17.3504 61.4808 17.0145 61.7153 16.645C61.95 16.2756 62.084 15.9733 62.1511 15.7381C62.2181 15.4694 62.151 15.2679 61.9835 15.0999C61.8494 15.0327 61.7153 14.9991 61.5813 14.9991C61.4138 15.0327 61.2797 15.0663 61.1457 15.1335C60.8776 15.2679 60.5425 15.4694 60.2074 15.7045C59.8388 15.9733 59.5037 16.2756 59.2021 16.6114C58.867 16.9473 58.5989 17.2832 58.3643 17.6527C58.1632 18.0222 57.9957 18.358 57.9287 18.694ZM62.9218 14.9991C63.0223 14.8648 63.0893 14.764 63.1228 14.7304C63.1898 14.6968 63.2904 14.6968 63.4579 14.6968H63.9941C64.1282 14.6968 64.1952 14.7304 64.2287 14.7976C64.2622 14.8648 64.2622 14.932 64.1617 15.0327L62.9218 16.9137C62.7542 17.1488 62.5867 17.384 62.4191 17.6191C62.2851 17.8542 62.1175 18.0894 62.017 18.2909C61.9164 18.526 61.8159 18.694 61.7824 18.8619C61.7489 19.0299 61.7489 19.1642 61.8159 19.265C61.8829 19.3993 61.9499 19.4665 62.0505 19.4665C62.1175 19.5001 62.1846 19.5001 62.2851 19.5001C62.3856 19.4665 62.5867 19.4329 62.8212 19.2986C63.0893 19.1642 63.3909 19.0299 63.6925 18.7947C63.9941 18.5932 64.3292 18.358 64.6643 18.0557C64.9994 17.7871 65.3011 17.4511 65.5356 17.1153C65.6026 17.0481 65.6696 17.0481 65.7032 17.0817C65.7702 17.1488 65.7702 17.1825 65.7367 17.2496C65.5356 17.5519 65.3011 17.8542 64.9659 18.1565C64.6643 18.4588 64.3292 18.7276 63.9606 18.9626C63.6255 19.1978 63.2569 19.3993 62.9218 19.5673C62.5867 19.7016 62.2851 19.8024 62.0505 19.8024C61.8494 19.836 61.6483 19.836 61.4473 19.7688C61.2797 19.7016 61.1122 19.6009 60.9782 19.3993C60.8776 19.2314 60.8106 19.0299 60.8106 18.8283C60.8106 18.6603 60.8106 18.4253 60.8441 18.1565C60.6095 18.3917 60.3749 18.6268 60.1068 18.8619C59.8388 19.097 59.5707 19.265 59.3026 19.4329C59.001 19.5673 58.7329 19.7016 58.4313 19.7352C58.1632 19.8024 57.8952 19.836 57.6271 19.7688C57.4595 19.7352 57.292 19.6345 57.1579 19.4665C57.0239 19.2986 56.9233 19.097 56.8563 18.8619C56.7558 18.4588 56.7893 18.0894 56.9233 17.6863C57.0574 17.2832 57.3255 16.8802 57.6606 16.5106C57.9287 16.2083 58.2638 15.9396 58.6324 15.7045C59.001 15.4358 59.3697 15.2343 59.7382 15.0999C60.1068 14.932 60.4755 14.8312 60.8106 14.764C61.1457 14.6968 61.4808 14.6633 61.7153 14.7304C61.95 14.764 62.1175 14.8648 62.2181 14.9656C62.3186 15.0999 62.4191 15.3014 62.4861 15.5702L62.9218 14.9991ZM53.1032 19.668C53.1367 19.9032 53.1702 20.1383 53.2037 20.3399C53.2707 20.575 53.3042 20.7765 53.4047 20.9445C53.4718 21.146 53.5723 21.3139 53.7063 21.4819C53.8739 21.6162 54.0414 21.7506 54.3095 21.885C55.1473 22.2544 55.9515 22.0529 56.6888 21.5827C56.7558 21.5827 56.7893 21.5827 56.8228 21.6498C56.8563 21.717 56.8898 21.717 56.8563 21.7842C55.851 22.4896 54.6111 22.5567 53.4718 22.0865C53.1702 21.9521 52.9021 21.7842 52.7345 21.5827C52.5334 21.3475 52.3994 21.1124 52.2989 20.8773C52.1648 20.6085 52.0978 20.3399 52.0308 20.0711C51.9638 19.7688 51.9303 19.5001 51.8633 19.2314L51.7962 18.7611C51.6287 17.9214 51.4276 17.3504 51.193 17.0145C50.9249 16.6786 50.6569 16.5106 50.3218 16.5106C50.1877 16.6786 50.0537 16.8465 49.9196 17.0817C49.7856 17.2496 49.6515 17.4511 49.484 17.6863C49.3499 17.9214 49.2159 18.1565 49.0483 18.3917C48.9813 18.4924 48.9143 18.6268 48.8473 18.7947C48.7803 18.9291 48.7803 19.0634 48.8473 19.1642C48.9143 19.265 49.0148 19.3322 49.2159 19.3993C49.3834 19.4329 49.7185 19.4665 50.2212 19.4665C50.2883 19.4665 50.3218 19.5001 50.3218 19.6009C50.3218 19.668 50.2883 19.7016 50.2212 19.7016H45.1276C45.0941 19.7016 45.0605 19.668 45.0605 19.6009C45.0605 19.5001 45.0941 19.4665 45.1276 19.4665C45.5968 19.4665 45.9989 19.4665 46.3005 19.4329C46.5685 19.3993 46.8031 19.3322 47.0042 19.2314C47.1718 19.1306 47.3393 19.0299 47.4733 18.8619C47.6074 18.694 47.7414 18.4924 47.8755 18.2573C48.4117 17.4176 48.9143 16.645 49.3834 15.8725C49.8526 15.1335 50.3888 14.4281 50.9584 13.6891C51.5282 12.9502 52.1648 12.2113 52.8686 11.4386C53.5723 10.6661 54.4101 9.85997 55.3483 8.98664C55.9851 8.38203 56.6553 7.87821 57.3925 7.40797C58.1297 6.93773 58.9005 6.53463 59.6712 6.19874C60.442 5.86284 61.1792 5.59413 61.9164 5.42619C62.6872 5.25823 63.3574 5.15747 63.9941 5.15747C64.5638 5.15747 65.0665 5.19106 65.5021 5.25823C65.9042 5.359 66.2728 5.42619 66.608 5.52695C66.9096 5.62772 67.1776 5.72849 67.3787 5.86284C67.5797 5.96361 67.7808 6.06438 67.9484 6.13156C68.0154 6.19874 68.0824 6.23233 68.1159 6.26591C68.183 6.2995 68.25 6.3331 68.317 6.36668C68.384 6.43386 68.451 6.46745 68.451 6.53463C68.451 6.60181 68.451 6.66899 68.4175 6.70258C68.384 6.76976 68.317 6.80335 68.25 6.76976C68.1495 6.73616 68.0824 6.70258 68.0154 6.6354C68.0154 6.60181 67.9819 6.56822 67.9484 6.50104C67.8813 6.46745 67.8478 6.40027 67.7808 6.36668C67.6467 6.26591 67.4792 6.16515 67.2782 6.06438C67.0771 5.96361 66.809 5.86284 66.5074 5.76208C66.2058 5.66131 65.8372 5.59413 65.4351 5.52695C65.033 5.45977 64.5303 5.42619 63.9941 5.42619C63.3574 5.42619 62.6872 5.52695 61.9499 5.72849C61.2462 5.93002 60.5425 6.19874 59.8388 6.56822C59.1351 6.97131 58.4313 7.40797 57.7276 7.91179C57.0574 8.44925 56.3872 9.02021 55.7505 9.65846C55.0133 10.3638 54.3765 11.0356 53.8739 11.6402C53.3377 12.2784 52.8686 12.8494 52.4329 13.3868C52.0308 13.9243 51.6622 14.4281 51.3606 14.8983C51.059 15.3687 50.7574 15.8052 50.4893 16.2419C50.6904 16.2419 50.8579 16.2419 51.0254 16.2083C51.1595 16.2083 51.3271 16.1748 51.4946 16.1412C51.6287 16.1076 51.7962 16.074 51.9638 16.0068C52.0978 15.9396 52.2989 15.8389 52.4999 15.7381C52.701 15.6373 52.9356 15.5029 53.1702 15.4022C53.4047 15.2679 53.6058 15.1671 53.7733 15.0327C54.1084 14.8648 54.4771 14.6968 54.8122 14.5289C55.1808 14.3609 55.5494 14.2266 55.918 14.1594C56.2867 14.0586 56.6218 14.0251 56.9904 14.0586C57.3255 14.0922 57.6606 14.193 57.9622 14.3945C58.0292 14.4281 58.0627 14.4617 58.1297 14.4953C58.1632 14.5289 58.2303 14.5625 58.2973 14.5625C58.3643 14.596 58.3978 14.6297 58.3978 14.6968C58.4313 14.7304 58.4313 14.764 58.4313 14.7976C58.3978 14.8312 58.3308 14.8648 58.2973 14.8648C58.2303 14.8648 58.1968 14.8312 58.1297 14.764C58.0627 14.7304 58.0292 14.6968 58.0292 14.6633C57.9957 14.6633 57.9622 14.596 57.8952 14.5625C57.3925 14.2602 56.7893 14.1594 56.1191 14.3274C55.4154 14.4953 54.6782 14.7976 53.9074 15.2343C53.7063 15.3687 53.5053 15.4694 53.2707 15.6037C53.0026 15.7381 52.8015 15.8389 52.6004 15.9733C52.3324 16.1076 52.0978 16.2083 51.8633 16.3091C51.6622 16.3763 51.4611 16.4435 51.26 16.5106C51.5282 16.7122 51.7292 16.8802 51.8968 17.0145C52.0643 17.1488 52.2319 17.3168 52.3659 17.4848C52.4999 17.6527 52.6004 17.8542 52.701 18.123C52.8015 18.358 52.9021 18.694 52.9691 19.097L53.1032 19.668Z" fill="white"/>
<path d="M118.148 17.3498H119.823L121.331 15.0993H119.455C119.22 15.1665 119.019 15.2673 118.785 15.4352C118.517 15.6704 118.215 15.9727 118.047 16.3085C117.846 16.7452 117.846 16.9803 118.148 17.3498ZM117.578 19.3987H118.45C118.517 19.3316 118.584 19.2644 118.617 19.1636C118.718 19.0293 118.818 18.8949 118.919 18.6934L119.589 17.7193C119.019 17.7528 118.584 17.7528 118.282 17.7193C117.98 18.1224 117.411 18.7605 116.573 19.6674C115.668 20.6416 114.965 21.3469 114.429 21.7164C113.892 22.1194 113.289 22.4218 112.619 22.6905C111.949 22.9592 111.178 23.0936 110.34 23.0936C109.67 23.0936 109.1 22.9928 108.598 22.8248C108.095 22.6569 107.659 22.4554 107.29 22.2202C106.922 21.9515 106.62 21.7164 106.419 21.4141C106.184 21.1454 105.983 20.9102 105.883 20.6751C105.849 20.6751 105.849 20.6416 105.816 20.5744C105.782 20.5408 105.715 20.4736 105.682 20.44C105.648 20.4064 105.615 20.3393 105.615 20.2721C105.648 20.2049 105.682 20.1377 105.749 20.1041C105.782 20.0705 105.849 20.0705 105.883 20.1041C105.95 20.1377 105.983 20.1713 106.017 20.2721C106.017 20.3056 106.017 20.3728 106.05 20.4064C106.05 20.4736 106.05 20.5072 106.084 20.5408C106.184 20.7423 106.352 20.9775 106.553 21.2125C106.788 21.4813 107.056 21.75 107.391 21.9851C107.726 22.2202 108.128 22.4554 108.631 22.6233C109.1 22.7577 109.67 22.8584 110.34 22.8584C111.111 22.8584 111.848 22.7241 112.485 22.489C113.122 22.2538 113.758 21.9179 114.328 21.4813C114.931 21.0446 115.467 20.5408 115.97 19.9362C117.109 18.6934 117.813 17.9208 118.014 17.6521C116.506 17.2154 116.908 15.6704 118.517 15.0321C119.823 14.5619 122.069 14.8306 123.577 14.8306V15.0993H122.37C122.035 15.2673 120.293 18.6262 120.125 18.9285C120.024 19.0964 119.924 19.1972 119.89 19.298C119.857 19.3316 119.823 19.3651 119.823 19.3987H120.661V19.701H117.578V19.3987Z" fill="white"/>
</g>
</g>
<defs>
<clipPath id="clip0_3276_10192">
<rect width="162" height="40" fill="white" transform="translate(0 0.675537)"/>
</clipPath>
<clipPath id="clip1_3276_10192">
<rect width="143" height="41.4493" fill="white" transform="translate(0 -0.0490723)"/>
</clipPath>
</defs>
</svg>
