<svg width="162" height="41" viewBox="0 0 162 41" fill="none" xmlns="http://www.w3.org/2000/svg">
<g clip-path="url(#clip0_3276_10071)">
<path fill-rule="evenodd" clip-rule="evenodd" d="M143.544 27.3827C142.361 28.4165 141.084 29.5039 139.44 29.1642C139.014 29.0688 138.622 28.8563 138.31 28.5505C137.998 28.2447 137.777 27.8578 137.673 27.4334C137.48 26.6728 137.528 25.9436 137.625 25.158L144.298 25.1451L144.117 24.9107C140.75 20.826 138.077 16.2153 136.29 11.358C134.368 16.2771 131.671 21.1362 128.461 25.171L135.001 25.158C134.962 26.0571 135.166 27.1556 134.763 27.9273C134.356 28.7747 133.401 29.1947 132.519 29.2131C129.882 28.9602 128.128 26.574 127.124 24.3171C125.957 21.5423 126.387 17.7347 128.222 15.3642C130.776 11.875 135.285 10.4663 139.488 11.803C142.05 12.63 144.33 14.682 145.454 17.2934C146.787 20.5288 145.999 24.8553 143.544 27.3827ZM147.316 15.414C146.334 13.6427 144.889 11.9747 143.258 10.9122C139.593 8.41434 134.153 8.21681 130.323 10.3196C126.398 12.3947 123.69 16.734 123.974 21.4473C124.215 26.4993 127.794 30.9005 132.423 32.2796C137.337 33.8811 142.896 32.1743 146.074 28.2734C148.814 24.8322 149.507 19.4165 147.316 15.414Z" fill="white"/>
<path fill-rule="evenodd" clip-rule="evenodd" d="M115.695 25.5459C115.884 25.809 115.945 26.3315 115.769 26.7838C115.605 27.2029 115.387 27.4502 114.964 27.6265C114.386 27.8684 113.623 27.6441 113.378 27.3496C113.378 27.3496 111.397 25.0096 110.302 23.6785C110.108 23.4819 110.01 23.3019 109.806 23.1016L104.526 23.1265C103.217 23.1321 101.671 21.6127 101.671 20.4025V19.9355L111.502 19.9235C111.87 19.9235 112.282 19.5893 112.483 19.1527C112.665 18.7595 112.662 18.441 112.483 18.045C112.27 17.5742 111.785 17.2373 111.403 17.2392L100.711 17.2678L100.68 17.3721V26.6213C100.68 27.2379 99.804 28.0299 98.9465 27.9515C98.1545 27.8776 97.5046 27.0958 97.5055 26.5493L97.5175 16.7462C97.5185 15.7253 97.8249 15.3275 98.4895 14.7653C99.1366 14.2179 99.7218 14.097 100.58 14.0979L112.186 14.1099C113.843 14.1118 115.394 15.3302 116.015 17.0869C116.682 18.9699 116.067 20.637 114.567 21.9939C114.233 22.2958 113.624 22.6678 113.624 22.6678L115.695 25.5459ZM92.0502 27.4825C91.5517 27.9349 90.7329 28.0309 90.1662 27.7715C89.2708 26.9961 88.6523 26.0333 87.9332 25.1712L75.8815 25.1462L74.4582 27.0219C74.0077 27.6127 73.4372 28.0189 72.5585 27.8684C72.1025 27.777 71.6686 27.405 71.5172 27.0007C71.2837 26.4782 71.3086 25.9853 71.616 25.509L79.2554 15.6865C79.896 14.757 80.5883 14.0915 81.7846 14.0979C83.6649 14.1219 83.7942 14.5816 85.0911 16.1998C86.8985 18.6395 90.5483 23.217 92.3972 25.797C92.6308 26.3822 92.3575 27.0072 92.0502 27.4825ZM65.268 23.0527H57.432C56.2855 22.917 55.4058 22.1102 54.9526 21.1761C54.7975 20.8105 54.7892 20.2973 54.7458 19.9161L55.1511 19.9235H64.6228C65.0317 19.9235 65.4222 19.5607 65.6151 19.1047C65.7923 18.6875 65.7812 18.3496 65.5662 17.9509C65.328 17.5069 64.8978 17.2272 64.4751 17.2272H53.9105L53.8117 17.3241V26.4035C53.8117 27.2481 53.052 27.8712 52.1557 27.8545C51.3702 27.8407 50.6372 27.2213 50.6372 26.4201V16.6964C50.6372 15.8933 50.9529 15.4198 51.5409 14.8779C52.1575 14.3112 52.9689 14.0961 53.5634 14.097L65.2191 14.109C67.4649 14.1109 69.2862 16.3521 69.2252 18.6985C69.1662 20.9619 67.1326 23.0518 65.268 23.0518V23.0527ZM43.3966 26.4229C42.1938 27.8629 40.548 27.8813 38.7351 27.8795L28.1705 27.8684C27.0249 27.8665 26.0594 26.7709 25.8969 25.6447L25.8895 25.0752L39.8354 25.089C40.3025 25.089 40.9006 24.4632 40.9163 23.8235C40.9348 23.1321 40.4428 22.4758 39.7292 22.4758H29.6834C27.9462 22.4758 26.1748 20.8918 25.8895 18.9127C25.6588 17.3121 26.2006 16.1001 27.48 15.0662C28.4465 14.2862 29.1812 14.0629 30.5335 14.061L39.8252 14.0499C41.2606 14.0232 42.8234 14.2641 43.4963 15.5896C43.7003 15.9949 43.8074 16.4352 43.7935 16.9742L30.6683 16.9789C30.2677 16.9789 29.6409 17.2004 29.4111 17.7081C29.124 18.3413 29.4545 19.0659 30.1043 19.3456C30.3637 19.4573 30.8234 19.4416 30.8234 19.4416H40.3717C42.0794 19.5589 43.6025 20.625 44.1895 22.3789C44.7018 23.9056 44.4397 25.1758 43.3966 26.4229ZM0 8.87793V32.8779H119.077L119.102 8.87793H0Z" fill="white"/>
<path fill-rule="evenodd" clip-rule="evenodd" d="M82.4395 17.7893C82.3416 17.782 82.2392 17.9204 82.2392 17.9204L78.4453 22.0309H86.0718C84.9918 20.6149 83.7456 19.3004 82.6121 17.937C82.6121 17.937 82.5336 17.7967 82.4395 17.7893Z" fill="white"/>
</g>
<defs>
<clipPath id="clip0_3276_10071">
<rect width="148.615" height="24" fill="white" transform="translate(0 8.87793)"/>
</clipPath>
</defs>
</svg>
