<svg width="14" height="14" viewBox="0 0 14 14" fill="none" xmlns="http://www.w3.org/2000/svg">
<g clip-path="url(#clip0_3276_10206)">
<mask id="mask0_3276_10206" style="mask-type:luminance" maskUnits="userSpaceOnUse" x="1" y="0" width="14" height="14">
<path d="M14.0376 0.587891H1.0376V13.5879H14.0376V0.587891Z" fill="white"/>
</mask>
<g mask="url(#mask0_3276_10206)">
<path fill-rule="evenodd" clip-rule="evenodd" d="M1.95142 1.50172C1.0376 2.41555 1.0376 3.88633 1.0376 6.82789V7.34789C1.0376 10.2895 1.0376 11.7602 1.95142 12.6741C2.86525 13.5879 4.33604 13.5879 7.2776 13.5879H7.7976C10.7392 13.5879 12.2099 13.5879 13.1238 12.6741C14.0376 11.7602 14.0376 10.2895 14.0376 7.34789V6.82789C14.0376 3.88633 14.0376 2.41555 13.1238 1.50172C12.2099 0.587891 10.7392 0.587891 7.7976 0.587891H7.2776C4.33604 0.587891 2.86525 0.587891 1.95142 1.50172ZM3.23137 4.54209C3.30178 7.92209 4.99177 9.95332 7.95469 9.95332H8.12264V8.01957C9.21139 8.1279 10.0347 8.92417 10.3651 9.95332H11.9035C11.481 8.415 10.3705 7.56457 9.67715 7.23957C10.3705 6.83875 11.3455 5.86375 11.5784 4.54209H10.1809C9.87753 5.61459 8.97847 6.58957 8.12264 6.68165V4.54209H6.72508V8.2904C5.85843 8.07375 4.76428 7.02292 4.71553 4.54209H3.23137Z" fill="white"/>
</g>
</g>
<defs>
<clipPath id="clip0_3276_10206">
<rect width="13" height="13" fill="white" transform="translate(0.973145 0.587891)"/>
</clipPath>
</defs>
</svg>
