<svg width="105" height="146" viewBox="0 0 105 146" fill="none" xmlns="http://www.w3.org/2000/svg">
<path d="M104.8 97C104.8 112.467 100.067 124.4 90.6 132.8C81.1333 141.2 68.1333 145.4 51.6 145.4C32.2667 145.4 15.9333 139.667 2.6 128.2C1.13333 126.733 1.13333 125.067 2.6 123.2L14.4 106.6C15.7333 104.867 17.4 104.867 19.4 106.6C24.6 109.933 29.5333 112.467 34.2 114.2C38.8667 115.8 44.6667 116.6 51.6 116.6C58.4 116.6 63.6667 114.867 67.4 111.4C71.2667 107.8 73.2 102.533 73.2 95.6C73.2 82.8 65.4667 76.4 50 76.4C46 76.4 41.6 77 36.8 78.2C34.9333 78.7333 33.4667 78 32.4 76L27.6 65C26.8 63.2667 27.1333 61.6667 28.6 60.2L60.4 28.2H12.6C10.3333 28.2 9.2 27.0667 9.2 24.8V3.59999C9.2 1.19999 10.3333 -6.67572e-06 12.6 -6.67572e-06H96C98.2667 -6.67572e-06 99.4 1.19999 99.4 3.59999V20.2C99.4 21.9333 98.8 23.4 97.6 24.6L65.2 57V57.4C76.1333 57 85.4667 60.5333 93.2 68C100.933 75.4667 104.8 85.1333 104.8 97Z" fill="url(#paint0_linear_1_13074)"/>
<defs>
<linearGradient id="paint0_linear_1_13074" x1="55" y1="-5.59014" x2="55" y2="188" gradientUnits="userSpaceOnUse">
<stop stop-color="#FF5129"/>
<stop offset="1" stop-color="#FF5129" stop-opacity="0"/>
</linearGradient>
</defs>
</svg>
