<svg xmlns="http://www.w3.org/2000/svg" width="361" height="84" viewBox="0 0 361 84" fill="none">
    <path fill-rule="evenodd" clip-rule="evenodd" d="M2.99953 27.9789C3.1672 20.129 5.54736 14.049 10.14 9.73895C14.98 5.19228 21.8 2.91895 30.6 2.91895C38.96 2.91895 45.7067 5.04561 50.84 9.29895C55.9733 13.5523 58.54 19.1623 58.54 26.1289C58.54 29.5756 58.0633 32.6556 57.11 35.3689C56.23 38.0089 54.5067 41.1256 51.94 44.7189C49.7264 47.8441 46.3856 51.9807 41.9177 57.1289C41.3531 57.7795 40.7706 58.4461 40.17 59.1289H60.08V78.379H2V72.659C12.34 60.4856 19.6733 51.6856 24 46.2589C28.4 40.8323 31.4067 36.799 33.02 34.159C34.7067 31.4456 35.55 29.209 35.55 27.4489C35.55 25.9089 35.11 24.6623 34.23 23.709C33.35 22.7556 32.1767 22.2789 30.71 22.2789C27.19 22.2789 25.43 24.3323 25.43 28.4389V29.9789H2.99V28.8789C2.99 28.5764 2.99318 28.2764 2.99953 27.9789ZM44.5603 57.1289H62.08V80.379H0V71.9242L0.475668 71.3642C10.8149 59.1917 18.1306 50.4124 22.4362 45.0121L22.4413 45.0057L22.4465 44.9993C26.8423 39.5779 29.7751 35.6333 31.3134 33.1161L31.3174 33.1096L31.3214 33.1031C32.9491 30.4846 33.55 28.6403 33.55 27.4489C33.55 26.312 33.2373 25.5821 32.7604 25.0655C32.3103 24.5779 31.6989 24.2789 30.71 24.2789C29.3457 24.2789 28.6612 24.6624 28.2685 25.1205C27.8253 25.6376 27.43 26.6249 27.43 28.4389V31.9789H0.99V28.8789C0.99 20.1973 3.49987 13.2281 8.77065 8.28125C14.089 3.2852 21.4609 0.918945 30.6 0.918945C39.3044 0.918945 46.5403 3.13902 52.116 7.75891C57.7312 12.4114 60.54 18.5976 60.54 26.1289C60.54 29.7517 60.04 33.0568 59.0022 36.0168C58.0323 38.9186 56.187 42.2136 53.5699 45.878C51.497 48.8041 48.4876 52.5584 44.5603 57.1289ZM88.5073 27.9789C88.675 20.129 91.0552 14.049 95.6478 9.73895C100.488 5.19228 107.308 2.91895 116.108 2.91895C124.468 2.91895 131.214 5.04561 136.348 9.29895C141.481 13.5523 144.048 19.1623 144.048 26.1289C144.048 29.5756 143.571 32.6556 142.618 35.3689C141.738 38.0089 140.014 41.1256 137.448 44.7189C135.234 47.8441 131.893 51.9807 127.425 57.1289C126.861 57.7795 126.278 58.4461 125.678 59.1289H145.588V78.379H87.5078V72.659C97.8478 60.4856 105.181 51.6856 109.508 46.2589C113.908 40.8323 116.914 36.799 118.528 34.159C120.214 31.4456 121.058 29.209 121.058 27.4489C121.058 25.9089 120.618 24.6623 119.738 23.709C118.858 22.7556 117.684 22.2789 116.218 22.2789C112.698 22.2789 110.938 24.3323 110.938 28.4389V29.9789H88.4978V28.8789C88.4978 28.5764 88.501 28.2764 88.5073 27.9789ZM94.2785 8.28125C89.0077 13.2281 86.4978 20.1973 86.4978 28.8789V31.9789H112.938V28.4389C112.938 26.6249 113.333 25.6376 113.776 25.1205C114.169 24.6624 114.854 24.2789 116.218 24.2789C117.207 24.2789 117.818 24.5779 118.268 25.0655C118.745 25.5821 119.058 26.312 119.058 27.4489C119.058 28.6403 118.457 30.4846 116.829 33.1031L116.825 33.1096L116.821 33.1161C115.283 35.6333 112.35 39.5779 107.954 44.9993L107.949 45.0057L107.944 45.0121C103.638 50.4124 96.3227 59.1917 85.9835 71.3642L85.5078 71.9242V80.379H147.588V57.1289H130.068C133.995 52.5588 137.004 48.8046 139.077 45.8787C141.695 42.2138 143.54 38.9185 144.51 36.0164C145.548 33.0565 146.048 29.7516 146.048 26.1289C146.048 18.5976 143.239 12.4114 137.624 7.75891C132.048 3.13902 124.812 0.918945 116.108 0.918945C106.969 0.918945 99.5968 3.2852 94.2785 8.28125ZM214.294 71.7867L214.288 71.7944C207.489 79.3747 198.492 83.129 187.499 83.129C176.506 83.129 167.509 79.3747 160.71 71.7943L160.703 71.7868C153.93 64.1575 150.629 54.1886 150.629 42.0789C150.629 29.9725 153.929 20.0366 160.706 12.478C167.502 4.82397 176.5 1.02894 187.499 1.02894C198.497 1.02894 207.495 4.82397 214.292 12.478C221.069 20.0366 224.369 29.9725 224.369 42.0789C224.369 54.1886 221.067 64.1575 214.294 71.7867ZM212.799 13.8089C206.419 6.62228 197.985 3.02894 187.499 3.02894C177.012 3.02894 168.579 6.62228 162.199 13.8089C155.819 20.9223 152.629 30.3456 152.629 42.0789C152.629 53.8123 155.819 63.2723 162.199 70.459C168.579 77.5723 177.012 81.129 187.499 81.129C197.985 81.129 206.419 77.5723 212.799 70.459C219.179 63.2723 222.369 53.8123 222.369 42.0789C222.369 30.3456 219.179 20.9223 212.799 13.8089ZM290.456 71.7867L290.45 71.7944C283.651 79.3747 274.654 83.129 263.661 83.129C252.668 83.129 243.671 79.3747 236.872 71.7943L236.865 71.7868C230.092 64.1575 226.791 54.1886 226.791 42.0789C226.791 29.9725 230.091 20.0366 236.868 12.478C243.664 4.82397 252.662 1.02894 263.661 1.02894C274.66 1.02894 283.659 4.82455 290.455 12.4797C297.231 20.0382 300.531 29.9734 300.531 42.0789C300.531 54.1886 297.229 64.1575 290.456 71.7867ZM288.961 13.8089C282.581 6.62228 274.147 3.02894 263.661 3.02894C253.174 3.02894 244.741 6.62228 238.361 13.8089C231.981 20.9223 228.791 30.3456 228.791 42.0789C228.791 53.8123 231.981 63.2723 238.361 70.459C244.741 77.5723 253.174 81.129 263.661 81.129C274.147 81.129 282.581 77.5723 288.961 70.459C295.341 63.2723 298.531 53.8123 298.531 42.0789C298.531 30.3456 295.341 20.9223 288.961 13.8089ZM360.633 31.389V54.5289H343.693V72.7889H319.343V54.5289H302.403V31.389H319.343V13.3489H343.693V31.389H360.633ZM321.343 33.389H304.403V52.5289H321.343V70.7889H341.693V52.5289H358.633V33.389H341.693V15.3489H321.343V33.389ZM181.219 55.4108C182.834 58.3307 184.897 59.549 187.499 59.549C190.1 59.549 192.163 58.3307 193.779 55.4108C195.456 52.3793 196.389 47.9953 196.389 42.0789C196.389 36.1626 195.456 31.7786 193.779 28.7471C192.163 25.8272 190.1 24.6089 187.499 24.6089C184.897 24.6089 182.834 25.8272 181.219 28.7471C179.542 31.7786 178.609 36.1626 178.609 42.0789C178.609 47.9953 179.542 52.3793 181.219 55.4108ZM257.381 55.4108C258.996 58.3307 261.059 59.549 263.661 59.549C266.262 59.549 268.325 58.3307 269.941 55.4108C271.618 52.3793 272.551 47.9953 272.551 42.0789C272.551 36.1626 271.618 31.7786 269.941 28.7471C268.325 25.8272 266.262 24.6089 263.661 24.6089C261.059 24.6089 258.996 25.8272 257.381 28.7471C255.704 31.7786 254.771 36.1626 254.771 42.0789C254.771 47.9953 255.704 52.3793 257.381 55.4108ZM187.499 61.549C184.052 61.549 181.375 59.8256 179.469 56.379C177.562 52.9323 176.609 48.1656 176.609 42.0789C176.609 35.9923 177.562 31.2256 179.469 27.7789C181.375 24.3323 184.052 22.6089 187.499 22.6089C190.945 22.6089 193.622 24.3323 195.529 27.7789C197.435 31.2256 198.389 35.9923 198.389 42.0789C198.389 48.1656 197.435 52.9323 195.529 56.379C193.622 59.8256 190.945 61.549 187.499 61.549ZM263.661 61.549C260.214 61.549 257.537 59.8256 255.631 56.379C253.724 52.9323 252.771 48.1656 252.771 42.0789C252.771 35.9923 253.724 31.2256 255.631 27.7789C257.537 24.3323 260.214 22.6089 263.661 22.6089C267.107 22.6089 269.784 24.3323 271.691 27.7789C273.597 31.2256 274.551 35.9923 274.551 42.0789C274.551 48.1656 273.597 52.9323 271.691 56.379C269.784 59.8256 267.107 61.549 263.661 61.549Z" fill="#F30D30"/>
</svg>