<svg width="996" height="172" viewBox="0 0 996 172" fill="none" xmlns="http://www.w3.org/2000/svg">
<g style="mix-blend-mode:overlay">
<path fill-rule="evenodd" clip-rule="evenodd" d="M300.622 147.931C283.533 163.777 261.128 171.54 233.812 171.54C206.497 171.54 184.092 163.777 167.003 147.931C149.888 132.061 141.412 111.209 141.412 85.77C141.412 60.3311 149.888 39.479 167.003 23.6089C184.092 7.76262 206.497 0 233.812 0C261.128 0 283.533 7.76262 300.622 23.6089C317.737 39.479 326.212 60.3311 326.212 85.77C326.212 111.209 317.737 132.061 300.622 147.931ZM212.364 107.948C217.698 113.409 224.716 116.246 233.812 116.246C242.909 116.246 249.927 113.409 255.261 107.948C260.599 102.483 263.404 95.2238 263.404 85.77C263.404 76.3162 260.599 69.0574 255.261 63.592C249.927 58.1313 242.909 55.294 233.812 55.294C224.716 55.294 217.698 58.1313 212.364 63.592C207.026 69.0574 204.22 76.3162 204.22 85.77C204.22 95.2238 207.026 102.483 212.364 107.948ZM233.812 167.54C260.332 167.54 281.696 160.026 297.902 144.998C314.109 129.97 322.212 110.227 322.212 85.77C322.212 61.3127 314.109 41.57 297.902 26.542C281.696 11.514 260.332 4 233.812 4C207.292 4 185.929 11.514 169.722 26.542C153.516 41.57 145.412 61.3127 145.412 85.77C145.412 110.227 153.516 129.97 169.722 144.998C185.929 160.026 207.292 167.54 233.812 167.54ZM233.812 120.246C223.794 120.246 215.69 117.078 209.502 110.743C203.314 104.408 200.22 96.0833 200.22 85.77C200.22 75.4567 203.314 67.1323 209.502 60.797C215.69 54.4617 223.794 51.294 233.812 51.294C243.831 51.294 251.934 54.4617 258.122 60.797C264.31 67.1323 267.404 75.4567 267.404 85.77C267.404 96.0833 264.31 104.408 258.122 110.743C251.934 117.078 243.831 120.246 233.812 120.246ZM473.532 147.429C487.893 134.863 496.625 118.737 499.726 99.052C499.933 97.7346 500.116 96.4013 500.273 95.052H447.012C445.391 102.566 441.855 108.68 436.404 113.395C431.1 117.962 424.838 120.246 417.619 120.246C408.484 120.246 401.044 117.078 395.298 110.743C389.699 104.408 386.9 96.0833 386.9 85.77C386.9 75.4567 389.699 67.1323 395.298 60.797C401.044 54.3143 408.484 51.073 417.619 51.073C424.396 51.073 430.437 53.2093 435.741 57.482C441.192 61.6073 445.023 67.1323 447.233 74.057H499.831C499.65 72.7068 499.444 71.3735 499.211 70.057C495.846 50.9751 487.065 35.4388 472.869 23.448C457.841 10.4827 439.35 4 417.398 4C392.646 4 372.24 11.735 356.181 27.205C340.121 42.5277 332.092 62.0493 332.092 85.77C332.092 109.491 340.121 129.086 356.181 144.556C372.24 159.879 392.646 167.54 417.398 167.54C439.645 167.54 458.356 160.836 473.532 147.429ZM417.398 0C440.193 0 459.636 6.75515 475.466 20.4059C491.441 33.9056 500.874 51.6956 503.795 73.5265L504.402 78.057H444.311L443.422 75.2732C441.446 69.0821 438.078 64.2667 433.327 60.6716L433.279 60.635L433.231 60.597C428.635 56.894 423.478 55.073 417.619 55.073C409.558 55.073 403.232 57.8756 398.291 63.4502C393.476 68.9018 390.9 76.2107 390.9 85.77C390.9 95.3202 393.471 102.624 398.277 108.074C403.207 113.499 409.536 116.246 417.619 116.246C423.912 116.246 429.239 114.286 433.792 110.366C438.539 106.258 441.652 100.932 443.102 94.2086L443.783 91.052H504.766L504.246 95.5146C501.635 117.94 492.288 136.33 476.172 150.434C460.193 164.548 440.513 171.54 417.398 171.54C391.746 171.54 370.311 163.567 353.419 147.45L353.413 147.443L353.406 147.437C336.51 131.161 328.092 110.5 328.092 85.77C328.092 61.0426 336.508 40.4492 353.414 24.3166C370.302 8.05196 391.739 0 417.398 0ZM676.914 99.052C673.813 118.737 665.082 134.863 650.72 147.429C635.545 160.836 616.834 167.54 594.586 167.54C569.834 167.54 549.429 159.879 533.369 144.556C517.31 129.086 509.28 109.491 509.28 85.77C509.28 62.0493 517.31 42.5277 533.369 27.205C549.429 11.735 569.834 4 594.586 4C616.539 4 635.029 10.4827 650.057 23.448C664.253 35.4388 673.034 50.9751 676.4 70.057C676.632 71.3735 676.839 72.7068 677.019 74.057H624.421C622.211 67.1323 618.381 61.6073 612.929 57.482C607.625 53.2093 601.585 51.073 594.807 51.073C585.673 51.073 578.232 54.3143 572.486 60.797C566.888 67.1323 564.088 75.4567 564.088 85.77C564.088 96.0833 566.888 104.408 572.486 110.743C578.232 117.078 585.673 120.246 594.807 120.246C602.027 120.246 608.288 117.962 613.592 113.395C619.044 108.68 622.58 102.566 624.2 95.052H677.461C677.304 96.4013 677.122 97.7346 676.914 99.052ZM610.976 110.37C615.725 106.262 618.839 100.934 620.29 94.2086L620.971 91.052H681.954L681.434 95.5146C678.823 117.938 669.478 136.327 653.363 150.431C637.384 164.547 617.703 171.54 594.586 171.54C568.934 171.54 547.5 163.567 530.608 147.45L530.601 147.443L530.594 147.437C513.698 131.161 505.28 110.5 505.28 85.77C505.28 61.0458 513.695 40.4546 530.595 24.323C547.485 8.05386 568.924 0 594.586 0C617.382 0 636.826 6.75559 652.656 20.4072C668.63 33.9068 678.063 51.6962 680.984 73.5265L681.59 78.057H621.499L620.611 75.2732C618.635 69.0821 615.266 64.2667 610.516 60.6716L610.467 60.635L610.42 60.597C605.823 56.894 600.667 55.073 594.807 55.073C586.746 55.073 580.421 57.8756 575.48 63.4502C570.664 68.9018 568.088 76.2107 568.088 85.77C568.088 95.3202 570.659 102.624 575.466 108.074C580.395 113.499 586.724 116.246 594.807 116.246C601.099 116.246 606.424 114.287 610.976 110.37ZM743.266 84.4441L796.306 8.42004H839.401V163.12H789.897V89.5271L737.52 163.12H693.762V8.42004H743.266V84.4441ZM785.897 167.12V102.046L739.582 167.12H689.762V4.42004H747.266V71.7199L794.219 4.42004H843.401V167.12H785.897ZM873.999 24.553C884.755 13.7977 898.899 8.42004 916.431 8.42004H991.571V163.12H941.625V120.246H933.669L912.011 163.12H854.772L881.955 111.406C874.294 106.839 868.327 100.724 864.054 93.0631C859.929 85.2544 857.866 76.4144 857.866 66.5431C857.866 49.1577 863.244 35.161 873.999 24.553ZM937.625 167.12V124.246H936.13L914.472 167.12H848.151L876.709 112.789C869.964 108.13 864.568 102.196 860.561 95.0113L860.539 94.9717L860.518 94.9315C856.054 86.4819 853.866 76.9878 853.866 66.5431C853.866 48.2687 859.553 33.1896 871.179 21.7164C882.799 10.1007 898.018 4.42004 916.431 4.42004H995.571V167.12H937.625ZM919.525 80.245C922.03 81.4237 924.903 82.0131 928.144 82.0131H941.625V51.294H928.144C923.282 51.294 919.304 52.6937 916.21 55.493C913.264 58.2924 911.79 61.9757 911.79 66.5431C911.79 69.6371 912.453 72.3627 913.779 74.7201C915.253 77.0774 917.168 78.9191 919.525 80.245ZM928.144 78.0131H937.625V55.294H928.144C924.122 55.294 921.165 56.4213 918.93 58.4262C916.903 60.3695 915.79 62.9434 915.79 66.5431C915.79 69.0108 916.306 71.018 917.221 72.6796C918.315 74.4029 919.687 75.7196 921.36 76.687C923.223 77.5372 925.456 78.0131 928.144 78.0131ZM77.372 8.42004C94.9047 8.42004 109.27 13.8714 120.467 24.774C131.812 35.6767 137.484 49.747 137.484 66.985C137.484 84.2231 131.812 98.3671 120.467 109.417C109.27 120.467 94.9047 125.992 77.372 125.992H55.493V163.12H4V8.42004H77.372ZM77.372 4.42004C95.8042 4.42004 111.212 10.1843 123.248 21.8991C135.451 33.6309 141.484 48.7785 141.484 66.985C141.484 85.1925 135.451 100.402 123.266 112.275C111.233 124.144 95.8195 129.992 77.372 129.992H59.493V167.12H0V4.42004H77.372ZM67.427 83.5601C72.4363 83.5601 76.4143 82.0867 79.361 79.1401C82.455 76.0461 84.002 72.0681 84.002 67.2061C84.002 62.3441 82.455 58.4397 79.361 55.493C76.4143 52.3991 72.4363 50.8521 67.427 50.8521H55.493V83.5601H67.427ZM67.427 54.8521H59.493V79.5601H67.427C71.6048 79.5601 74.484 78.3602 76.5326 76.3116C78.7898 74.0544 80.002 71.1364 80.002 67.2061C80.002 63.2732 78.7913 60.4743 76.6024 58.3896L76.5317 58.3223L76.4645 58.2517C74.4034 56.0876 71.5467 54.8521 67.427 54.8521Z" fill="#c20a26"/>
</g>
</svg>
