<svg xmlns="http://www.w3.org/2000/svg" width="250" height="84" viewBox="0 0 250 84" fill="none">
    <g clip-path="url(#clip0_307_7727)">
        <g filter="url(#filter0_dddddd_307_7727)">
            <path fill-rule="evenodd" clip-rule="evenodd" d="M239.782 72.4155L239.776 72.4232C232.88 80.1114 223.755 83.919 212.606 83.919C201.457 83.919 192.331 80.1114 185.436 72.4232L185.429 72.4155C178.56 64.6778 175.211 54.5672 175.211 42.2853C175.211 30.0058 178.559 19.9281 185.433 12.2617C192.326 4.50003 201.452 0.651601 212.606 0.651601C223.76 0.651601 232.886 4.50062 239.78 12.2635C246.653 19.9296 250 30.0068 250 42.2853C250 54.5672 246.652 64.6778 239.782 72.4155ZM238.265 13.6133C231.795 6.32447 223.241 2.68004 212.606 2.68004C201.97 2.68004 193.417 6.32447 186.946 13.6133C180.475 20.8278 177.24 30.3851 177.24 42.2853C177.24 54.1855 180.475 63.78 186.946 71.0689C193.417 78.2833 201.97 81.8906 212.606 81.8906C223.241 81.8906 231.795 78.2833 238.265 71.0689C244.736 63.78 247.972 54.1855 247.972 42.2853C247.972 30.3851 244.736 20.8278 238.265 13.6133ZM206.236 55.8068C207.875 58.7682 209.967 60.0037 212.606 60.0037C215.244 60.0037 217.337 58.7682 218.975 55.8068C220.676 52.7322 221.622 48.2858 221.622 42.2853C221.622 36.2848 220.676 31.8385 218.975 28.7639C217.337 25.8025 215.244 24.5669 212.606 24.5669C209.967 24.5669 207.875 25.8025 206.236 28.7639C204.536 31.8385 203.589 36.2848 203.589 42.2853C203.589 48.2858 204.536 52.7322 206.236 55.8068ZM212.606 62.0322C209.11 62.0322 206.395 60.2843 204.462 56.7887C202.528 53.293 201.561 48.4585 201.561 42.2853C201.561 36.1121 202.528 31.2777 204.462 27.782C206.395 24.2863 209.11 22.5385 212.606 22.5385C216.101 22.5385 218.816 24.2863 220.75 27.782C222.684 31.2777 223.651 36.1121 223.651 42.2853C223.651 48.4585 222.684 53.293 220.75 56.7887C218.816 60.2843 216.101 62.0322 212.606 62.0322Z" fill="#F30D30"/>
            <path fill-rule="evenodd" clip-rule="evenodd" d="M112.207 27.9848C112.377 20.0232 114.791 13.8568 119.449 9.48546C124.358 4.87414 131.275 2.56848 140.2 2.56848C148.679 2.56848 155.521 4.72538 160.728 9.0392C165.934 13.353 168.537 19.0428 168.537 26.1085C168.537 29.6042 168.054 32.728 167.087 35.4799C166.194 38.1574 164.446 41.3184 161.843 44.9629C159.598 48.1324 156.21 52.3279 151.678 57.5493C151.106 58.2091 150.515 58.8852 149.906 59.5778H170.099V79.1015H111.193V73.3001C121.68 60.9537 129.118 52.0286 133.506 46.5248C137.968 41.0209 141.018 36.9302 142.654 34.2527C144.365 31.5008 145.22 29.2323 145.22 27.4473C145.22 25.8854 144.774 24.621 143.881 23.6541C142.989 22.6872 141.799 22.2038 140.311 22.2038C136.741 22.2038 134.956 24.2863 134.956 28.4514V30.0133H112.197V28.8976C112.197 28.5908 112.2 28.2865 112.207 27.9848ZM154.359 57.5493H172.127V81.1299H109.165V72.5549L109.647 71.987C120.133 59.6414 127.553 50.7372 131.92 45.2602L131.925 45.2537L131.93 45.2472C136.389 39.7487 139.363 35.748 140.923 33.195L140.927 33.1884L140.931 33.1818C142.582 30.5261 143.192 28.6556 143.192 27.4473C143.192 26.2941 142.874 25.5539 142.391 25.03C141.934 24.5354 141.314 24.2322 140.311 24.2322C138.928 24.2322 138.233 24.6212 137.835 25.0858C137.386 25.6102 136.985 26.6115 136.985 28.4514V32.0417H110.169V28.8976C110.169 20.0925 112.714 13.0242 118.06 8.00703C123.454 2.93994 130.931 0.540039 140.2 0.540039C149.028 0.540039 156.367 2.79168 162.022 7.47726C167.717 12.196 170.565 18.4701 170.565 26.1085C170.565 29.783 170.058 33.1353 169.006 36.1376C168.022 39.0807 166.15 42.4225 163.496 46.1391C161.393 49.1066 158.341 52.9141 154.359 57.5493Z" fill="#F30D30"/>
            <path fill-rule="evenodd" clip-rule="evenodd" d="M67.507 4.91133V24.1004H78.4403V79.1015H102.538V4.91133H67.507ZM76.4118 26.1288V81.1299H104.567V2.88289H65.4786V26.1288H76.4118Z" fill="#F30D30"/>
            <path fill-rule="evenodd" clip-rule="evenodd" d="M2.02844 4.91133V24.1004H12.9617V79.1015H37.0596V4.91133H2.02844ZM10.9333 26.1288V81.1299H39.088V2.88289H0V26.1288H10.9333Z" fill="#F30D30"/>
        </g>
    </g>
    <defs>
        <filter id="filter0_dddddd_307_7727" x="-128" y="-127.46" width="506" height="339.379" filterUnits="userSpaceOnUse" color-interpolation-filters="sRGB">
            <feFlood flood-opacity="0" result="BackgroundImageFix"/>
            <feColorMatrix in="SourceAlpha" type="matrix" values="0 0 0 0 0 0 0 0 0 0 0 0 0 0 0 0 0 0 127 0" result="hardAlpha"/>
            <feOffset/>
            <feGaussianBlur stdDeviation="2"/>
            <feComposite in2="hardAlpha" operator="out"/>
            <feColorMatrix type="matrix" values="0 0 0 0 0.760784 0 0 0 0 0.0392157 0 0 0 0 0.14902 0 0 0 0.5 0"/>
            <feBlend mode="normal" in2="BackgroundImageFix" result="effect1_dropShadow_307_7727"/>
            <feColorMatrix in="SourceAlpha" type="matrix" values="0 0 0 0 0 0 0 0 0 0 0 0 0 0 0 0 0 0 127 0" result="hardAlpha"/>
            <feOffset/>
            <feGaussianBlur stdDeviation="4"/>
            <feComposite in2="hardAlpha" operator="out"/>
            <feColorMatrix type="matrix" values="0 0 0 0 0.760784 0 0 0 0 0.0392157 0 0 0 0 0.14902 0 0 0 0.5 0"/>
            <feBlend mode="normal" in2="effect1_dropShadow_307_7727" result="effect2_dropShadow_307_7727"/>
            <feColorMatrix in="SourceAlpha" type="matrix" values="0 0 0 0 0 0 0 0 0 0 0 0 0 0 0 0 0 0 127 0" result="hardAlpha"/>
            <feOffset/>
            <feGaussianBlur stdDeviation="8"/>
            <feComposite in2="hardAlpha" operator="out"/>
            <feColorMatrix type="matrix" values="0 0 0 0 0.760784 0 0 0 0 0.0392157 0 0 0 0 0.14902 0 0 0 0.5 0"/>
            <feBlend mode="normal" in2="effect2_dropShadow_307_7727" result="effect3_dropShadow_307_7727"/>
            <feColorMatrix in="SourceAlpha" type="matrix" values="0 0 0 0 0 0 0 0 0 0 0 0 0 0 0 0 0 0 127 0" result="hardAlpha"/>
            <feOffset/>
            <feGaussianBlur stdDeviation="16"/>
            <feComposite in2="hardAlpha" operator="out"/>
            <feColorMatrix type="matrix" values="0 0 0 0 0.760784 0 0 0 0 0.0392157 0 0 0 0 0.14902 0 0 0 0.5 0"/>
            <feBlend mode="normal" in2="effect3_dropShadow_307_7727" result="effect4_dropShadow_307_7727"/>
            <feColorMatrix in="SourceAlpha" type="matrix" values="0 0 0 0 0 0 0 0 0 0 0 0 0 0 0 0 0 0 127 0" result="hardAlpha"/>
            <feOffset/>
            <feGaussianBlur stdDeviation="32"/>
            <feComposite in2="hardAlpha" operator="out"/>
            <feColorMatrix type="matrix" values="0 0 0 0 0.760784 0 0 0 0 0.0392157 0 0 0 0 0.14902 0 0 0 0.5 0"/>
            <feBlend mode="normal" in2="effect4_dropShadow_307_7727" result="effect5_dropShadow_307_7727"/>
            <feColorMatrix in="SourceAlpha" type="matrix" values="0 0 0 0 0 0 0 0 0 0 0 0 0 0 0 0 0 0 127 0" result="hardAlpha"/>
            <feOffset/>
            <feGaussianBlur stdDeviation="64"/>
            <feComposite in2="hardAlpha" operator="out"/>
            <feColorMatrix type="matrix" values="0 0 0 0 0.760784 0 0 0 0 0.0392157 0 0 0 0 0.14902 0 0 0 0.5 0"/>
            <feBlend mode="normal" in2="effect5_dropShadow_307_7727" result="effect6_dropShadow_307_7727"/>
            <feBlend mode="normal" in="SourceGraphic" in2="effect6_dropShadow_307_7727" result="shape"/>
        </filter>
        <clipPath id="clip0_307_7727">
            <rect width="250" height="83.379" fill="white" transform="translate(0 0.540039)"/>
        </clipPath>
    </defs>
</svg>