<svg width="71" height="51" viewBox="0 0 71 51" fill="none" xmlns="http://www.w3.org/2000/svg">
<path d="M30.3223 48.4645C30.3223 49.4506 31.1346 50.2527 32.136 50.2527H38.1187C39.1201 50.2527 39.9324 49.4506 39.9324 48.4645V33.4336H30.3171V48.4645H30.3223Z" fill="#5229A1"/>
<path d="M68.4464 0H1.81373C0.812353 0 0 0.802126 0 1.78818V9.46713H60.6499V23.9718H70.2601V1.78818C70.2601 0.802126 69.4477 0 68.4464 0Z" fill="#5229A1"/>
<path d="M9.61018 23.9666V9.47217H0V31.6456C0 32.6316 0.812353 33.4338 1.81373 33.4338H68.4464C69.4477 33.4338 70.2601 32.6316 70.2601 31.6456V23.9666H9.61018Z" fill="url(#paint0_linear)"/>
<defs>
<linearGradient id="paint0_linear" x1="35.13" y1="9.47217" x2="35.13" y2="33.4338" gradientUnits="userSpaceOnUse">
<stop stop-color="#FF9400"/>
<stop offset="1" stop-color="#FF5129"/>
</linearGradient>
</defs>
</svg>
