<svg width="34" height="51" viewBox="0 0 34 51" fill="none" xmlns="http://www.w3.org/2000/svg">
<path d="M24.3397 0H1.81372C0.812337 0 0 0.802126 0 1.78818V43.2841C0 44.2702 0.812337 45.0723 1.81372 45.0723H9.61529V9.46713H24.3448V0H24.3397Z" fill="url(#paint0_linear)"/>
<path d="M33.9548 43.2841V1.78818C33.9548 0.802126 33.1424 0 32.141 0H24.3446V35.6052L9.57422 35.6001V45.0723H13.1506V48.4647C13.1506 49.4508 13.9629 50.2529 14.9643 50.2529H20.947C21.9484 50.2529 22.7608 49.4508 22.7608 48.4647V45.0723H32.141C33.1373 45.0723 33.9548 44.2702 33.9548 43.2841Z" fill="#5229A1"/>
<defs>
<linearGradient id="paint0_linear" x1="-0.0920533" y1="2.6794e-08" x2="27.7524" y2="44.9599" gradientUnits="userSpaceOnUse">
<stop stop-color="#FF9400"/>
<stop offset="1" stop-color="#FF5129"/>
</linearGradient>
</defs>
</svg>
