<svg width="56" height="51" viewBox="0 0 56 51" fill="none" xmlns="http://www.w3.org/2000/svg">
<path d="M9.61018 23.9669V9.46729H0V31.6458C0 32.6318 0.812344 33.434 1.81372 33.434H53.9621C54.9635 33.434 55.7758 32.6318 55.7758 31.6458V23.9669H9.61018Z" fill="url(#paint0_linear)"/>
<path d="M23.0828 48.4645C23.0828 49.4506 23.8951 50.2527 24.8965 50.2527H30.8792C31.8806 50.2527 32.6929 49.4506 32.6929 48.4645V33.4336H23.0828V48.4645Z" fill="#5229A1"/>
<path d="M53.9672 0H1.81372C0.812344 0 0 0.802126 0 1.78818V9.46712H46.1708V23.9667H55.7809V1.78818C55.7809 0.802126 54.9686 0 53.9672 0Z" fill="#5229A1"/>
<defs>
<linearGradient id="paint0_linear" x1="0" y1="21.4497" x2="55.783" y2="21.4497" gradientUnits="userSpaceOnUse">
<stop stop-color="#FF9400"/>
<stop offset="1" stop-color="#FF5129"/>
</linearGradient>
</defs>
</svg>
