<svg width="97" height="64" viewBox="0 0 97 64" fill="none" xmlns="http://www.w3.org/2000/svg">
    <path fill-rule="evenodd" clip-rule="evenodd"
        d="M85.4067 31.9189C86.4325 31.5182 86.0532 31.7849 88.4106 32.3244C89.1783 32.477 90.9141 32.7098 91.0704 33.2504L96.39 50.9835C96.8626 52.6005 96.072 54.392 94.5754 54.9873C91.9843 56.0776 80.3549 60.8814 78.1142 60.589C77.3104 60.486 71.2683 60.3268 71.3975 58.2832C71.43 57.0292 71.3012 46.1731 71.1434 39.6357C68.2984 42.4879 64.1963 44.3495 61.0449 43.188C62.0418 47.1062 64.2646 55.9466 62.895 59.8486C61.1468 64.9231 54.5573 64.7146 53.639 56.899L45.7214 58.8154C41.4437 59.4072 37.0124 59.1992 32.7679 58.2336C31.9967 61.9636 28.2179 62.8745 24.8371 63.3423C9.02727 65.5294 0.181845 50.2249 1.08027 46.8256C1.32966 45.9299 2.03411 45.3149 2.55941 44.8941L12.851 36.438C10.8679 33.5174 9.26569 30.031 8.06246 26.1413C5.68057 18.2292 3.43633 14.0101 3.85988 13.474C2.76289 12.4612 0.208501 12.2969 0.225242 10.309C0.279033 7.41012 6.17877 7.71831 7.68794 11.4318C8.87109 11.2681 9.70179 17.5832 16.6021 20.0377C20.5749 21.4291 25.2319 20.5707 30.2859 17.4976C30.8973 17.1096 31.5208 16.8092 32.1022 16.5146C31.5296 15.3845 31.7027 13.9371 32.4502 13.0127C31.0396 11.2222 32.6515 9.6605 32.7691 9.30074C33.2126 8.28893 30.8306 4.00457 34.4619 1.12834C36.0668 -0.173532 38.2618 -0.218396 39.9244 0.97502C42.0308 -0.610401 45.2122 0.457675 45.9122 4.02871C46.4689 6.84314 48.1609 4.06121 48.6209 7.10767C48.8026 8.42122 53.0968 10.027 48.6399 14.4409C53.3638 15.5544 57.6615 19.016 59.6709 23.6152C62.6869 30.4044 70.8223 30.9611 75.8801 24.0054C80.1744 18.1058 86.2528 22.7445 83.5973 26.347L85.4067 31.9189ZM53.5686 23.6381C53.3281 23.1091 54.1158 22.7859 54.3082 23.2769C54.3679 23.3981 62.8059 41.7755 60.7505 41.9296C60.5063 41.9634 60.313 41.776 60.3254 41.5556C59.9451 37.5967 53.574 23.6768 53.568 23.633L53.5686 23.6381ZM14.0143 37.3072C13.6999 36.8331 14.3798 36.3508 14.6942 36.8249C14.7003 36.8687 18.3841 43.0881 29.5007 33.0943C29.9058 32.7348 30.4563 33.3949 30.0463 33.7506C18.1827 44.3653 14.0097 37.3078 14.0097 37.3078L14.0143 37.3072ZM40.9009 14.6011C40.2062 14.6972 39.5287 14.5768 38.8553 14.2371C38.895 14.834 38.9028 15.48 38.8089 16.0106C39.6907 17.2673 43.1874 15.8377 44.216 15.1777C43.8358 14.5387 43.5344 13.8486 43.2648 13.1095C42.6376 13.9726 41.8355 14.4718 40.8966 14.6017L40.9009 14.6011ZM76.5405 35.3465C76.6654 33.8611 76.8746 32.3642 77.1697 30.8999C76.2932 32.6588 75.2108 34.4506 73.8837 36.2719C74.7148 35.9829 75.6246 35.6428 76.5356 35.3428L76.5405 35.3465ZM80.9879 27.266C82.1034 29.3115 82.7332 31.1654 82.9315 32.9095C83.4445 32.7091 83.9574 32.5088 84.4662 32.309C83.9103 30.4002 83.3166 28.4966 82.7834 27.0622L80.9879 27.266ZM81.9056 33.3102C81.8109 31.7258 81.2408 29.993 80.265 28.0575C79.985 30.2515 79.8828 32.2111 79.896 34.1058C80.567 33.8389 81.2346 33.577 81.9056 33.3102ZM79.2415 27.8555C78.2595 30.0618 77.881 32.4435 77.6049 34.9448L78.8688 34.4665C78.832 32.4011 78.9112 30.2751 79.2415 27.8555ZM88.8664 33.4716C87.9705 33.2921 86.4684 32.6387 85.6807 32.9618C85.837 33.5025 85.9969 34.0381 86.1051 34.5408C87.0528 34.1955 87.9987 33.8058 88.8658 33.4672L88.8664 33.4716ZM84.739 33.3509C83.1683 34.001 81.5495 34.6132 79.9307 35.2254C79.927 35.7881 79.9606 36.3412 80.0009 36.9425L85.1219 34.94C85.0095 34.438 84.8532 33.8974 84.7354 33.3559L84.739 33.3509ZM78.903 35.5817C76.6492 36.4112 74.5156 37.1793 72.7692 37.769C72.6225 37.9187 72.518 38.0626 72.4195 38.2502C74.8175 39.0831 72.973 39.5524 78.9731 37.2989C78.9389 36.7414 78.9011 36.1888 78.903 35.5817ZM73.6098 39.9373C73.2084 39.7341 72.7588 39.4928 72.2352 39.3065C72.3509 45.8499 72.4947 57.0931 72.4681 58.3898C72.649 58.7977 74.6579 59.2069 76.3882 59.4004C75.6556 58.2925 73.8247 42.6694 73.6139 39.9364L73.6098 39.9373ZM74.6523 39.9671C75.2528 47.0058 76.263 51.6096 76.9277 57.9032C77.0376 59.008 78.1056 59.8107 79.1809 59.488C84.2385 57.9271 89.2969 56.0627 94.1614 54.0064C95.1873 53.6056 95.7258 52.4112 95.4029 51.2867L90.2439 34.0934C89.0641 34.56 87.7255 35.0888 86.3828 35.6181C86.7868 37.3293 87.4824 39.3481 86.6716 39.5049C86.6716 39.5049 86.1411 39.5783 86.0287 39.0762C85.9058 38.1874 85.6792 37.1389 85.3929 35.9692L80.0717 38.0441C80.2377 39.8327 80.6987 41.3665 79.8759 41.4357C79.1012 41.5428 79.1951 39.803 79.088 38.4389C76.5635 39.3906 75.3356 39.8192 74.6469 39.9591L74.6523 39.9671ZM80.392 24.4166C81.4909 24.2646 80.335 25.8033 81.3081 26.2309C82.9444 26.955 84.3737 23.1741 81.4758 22.3256C79.8325 21.8613 78.124 23.0035 77.0135 24.2816L78.3468 25.824L80.392 24.4166ZM53.5234 55.6613L52.4671 46.2272C46.3704 47.5035 39.8229 48.1906 33.5925 48.1913L32.9194 57.1285C39.7504 58.7715 47.0274 58.2423 53.522 55.6571L53.5234 55.6613ZM52.3211 45.172C51.795 42.2685 51.1468 39.3819 50.3819 36.5516C45.5746 38.1225 40.4265 38.75 35.3497 38.3725C34.6751 41.3127 34.1269 44.2354 33.7393 47.1404C39.9641 47.1002 46.1866 46.4535 52.3211 45.172ZM50.1132 35.5089C49.4492 33.0974 48.6589 30.7035 47.7947 28.3643C44.5756 29.4121 41.2325 29.8746 37.806 29.7016C36.9933 32.2325 36.2282 34.797 35.623 37.3395C40.4802 37.6179 45.5019 37.008 50.1132 35.5089ZM47.4039 27.3386C46.6084 25.2487 45.7475 23.2126 44.8017 21.1838L40.7252 22.0512C39.7852 24.2517 38.9253 26.4411 38.1935 28.6574C41.3265 28.7863 44.4192 28.3138 47.3955 27.3398L47.4039 27.3386ZM44.4573 20.1516C44.8236 18.8917 45.2654 18.4869 44.9616 15.9811C43.6642 16.8076 40.3703 18.2137 38.6568 17.2416C39.1681 18.5496 39.8425 19.795 40.6286 20.9803L44.4573 20.1516ZM44.8378 14.1865C45.1996 13.7929 46.9847 14.1037 47.4528 14.1684C47.4528 14.1684 51.2274 10.8395 48.7009 9.07834C46.8668 7.82388 48.2811 6.63314 46.8492 6.48762C43.985 6.19224 45.8963 2.60797 42.9206 1.50698C40.9064 0.750396 40.3838 2.67897 39.6312 2.04683C36.7661 -0.363485 32.4401 2.60883 33.6809 7.35899C34.3131 9.81948 33.5805 9.92083 33.0766 10.8071C32.3555 12.2008 34.4741 12.8136 33.5255 13.4624C32.8035 13.9505 32.5646 15.233 33.06 16.1149C34.7148 15.4531 36.3328 15.1445 37.8391 15.2395C37.9235 12.2515 36.6658 13.675 35.465 9.18262C33.9738 3.52117 37.5481 2.03162 38.4333 3.03365C39.5118 4.22313 43.4022 6.22829 43.5234 6.51504C45.6279 10.6237 42.7888 10.1998 44.8336 14.1872L44.8378 14.1865ZM2.35902 9.44763C1.17587 9.61132 0.675383 10.8006 2.51798 11.4961C3.30933 11.8195 4.23979 12.2485 4.79016 12.9086C5.09679 12.7368 5.67636 12.3978 6.75317 11.7758C6.02491 10.1095 4.03054 9.21639 2.35902 9.44763ZM37.5864 3.79772C34.3848 4.97243 36.9844 14.1485 40.8043 13.5353C43.8549 13.0686 43.4826 7.98869 42.7009 7.14631C41.0471 6.29526 39.3959 5.18501 37.7145 3.82467C37.7145 3.82467 37.6346 3.83568 37.5864 3.79772Z"
        fill="white" />
</svg>