<svg width="92" height="86" viewBox="0 0 92 86" fill="none" xmlns="http://www.w3.org/2000/svg">
    <path d="M45.1946 27.5036L42.8403 27.1543L38.7749 54.5521L41.1291 54.9014L45.1946 27.5036Z" fill="white" />
    <path d="M37.615 31.5603L35.2607 31.2109L31.9476 53.5388L34.3018 53.8881L37.615 31.5603Z" fill="white" />
    <path d="M29.9934 35.9001L27.6392 35.5508L25.1201 52.527L27.4744 52.8764L29.9934 35.9001Z" fill="white" />
    <path d="M22.5608 39.404L20.2065 39.0547L18.3562 51.5243L20.7105 51.8736L22.5608 39.404Z" fill="white" />
    <path d="M51.7698 25.8103L49.4155 25.4609L44.9622 55.4724L47.3165 55.8217L51.7698 25.8103Z" fill="white" />
    <path fill-rule="evenodd" clip-rule="evenodd"
        d="M50.8231 70.8261L59.5569 72.1211C60.0206 72.1899 60.1902 72.6288 60.2745 73.0901L61.7956 81.4154C61.8798 81.8766 61.2906 82.2031 60.8275 82.1343L27.7642 77.2282C27.301 77.1595 26.8319 76.6764 27.0466 76.2591L30.9196 68.7343C31.1343 68.3171 31.424 67.9466 31.8876 68.0154L40.6212 69.3123L40.0334 73.2738C39.8523 74.4939 40.6971 75.6346 41.9155 75.8154L47.6962 76.6732C48.9145 76.854 50.0542 76.0077 50.2352 74.7876L50.8231 70.8261Z"
        fill="white" />
    <path fill-rule="evenodd" clip-rule="evenodd"
        d="M50.2792 65.0689L48.8673 74.5838C48.7985 75.0479 48.3627 75.3715 47.8992 75.3027L42.1185 74.4449C41.6549 74.3761 41.332 73.9401 41.4009 73.4758L41.9885 69.5155L42.8127 63.9609L50.2792 65.0689Z"
        fill="white" />
    <path fill-rule="evenodd" clip-rule="evenodd"
        d="M85.3974 66.4553L91.298 26.6899C91.4358 25.7615 90.79 24.8893 89.8628 24.7518L16.6422 13.8868C15.7151 13.7493 14.8438 14.3963 14.7061 15.3248L8.80544 55.0901C8.66767 56.0186 9.3135 56.8907 10.2406 57.0283L83.4613 67.8932C84.3884 68.0307 85.2596 67.3838 85.3974 66.4553ZM88.4066 27.3352L82.818 64.9982L11.6968 54.4448L17.2855 16.7818L88.4066 27.3352Z"
        fill="white" />
    <path fill-rule="evenodd" clip-rule="evenodd"
        d="M67.3202 54.3143C72.9469 55.1492 78.2003 51.4428 79.3743 45.9491L69.1266 44.4285L62.8268 52.3751C62.8178 52.3881 62.8084 52.401 62.7984 52.4136C62.7783 52.4389 62.7568 52.4625 62.734 52.4842C64.057 53.4156 65.6111 54.0607 67.3202 54.3143ZM62.189 52.0738L62.1891 52.0739L62.2594 51.9852L62.189 52.0738Z"
        fill="white" />
    <path fill-rule="evenodd" clip-rule="evenodd"
        d="M61.5789 51.8842L68.2302 43.4941L68.2309 43.4895L59.878 36.8514C59.1203 37.7884 58.5139 38.8612 58.1021 40.0375C56.6839 44.2048 57.9389 48.9914 61.5789 51.8842Z"
        fill="white" />
    <path fill-rule="evenodd" clip-rule="evenodd"
        d="M69.7874 33.0016C66.3901 32.7158 63.1862 34.0657 61.0074 36.4333L68.4057 42.3127L69.7872 33.0025L69.7874 33.0016L69.7874 33.0016Z"
        fill="white" />
    <path fill-rule="evenodd" clip-rule="evenodd"
        d="M79.4983 45.2702C80.3684 39.4067 76.3269 33.949 70.4714 33.0801L70.4681 33.1025L68.9119 43.5901L68.9137 43.5915L68.9112 43.5946L68.896 43.6969L79.4759 45.2669L79.4983 45.2702Z"
        fill="white" />
    <g filter="url(#filter0_d_2089_49080)">
        <circle cx="15.5" cy="15.5" r="6.5" fill="#04D700" />
    </g>
    <defs>
        <filter id="filter0_d_2089_49080" x="0.9" y="0.9" width="29.2" height="29.2" filterUnits="userSpaceOnUse"
            color-interpolation-filters="sRGB">
            <feFlood flood-opacity="0" result="BackgroundImageFix" />
            <feColorMatrix in="SourceAlpha" type="matrix" values="0 0 0 0 0 0 0 0 0 0 0 0 0 0 0 0 0 0 127 0"
                result="hardAlpha" />
            <feOffset />
            <feGaussianBlur stdDeviation="4.05" />
            <feComposite in2="hardAlpha" operator="out" />
            <feColorMatrix type="matrix" values="0 0 0 0 0.0156863 0 0 0 0 0.843137 0 0 0 0 0 0 0 0 1 0" />
            <feBlend mode="normal" in2="BackgroundImageFix" result="effect1_dropShadow_2089_49080" />
            <feBlend mode="normal" in="SourceGraphic" in2="effect1_dropShadow_2089_49080" result="shape" />
        </filter>
    </defs>
</svg>