<svg width="66" height="73" viewBox="0 0 66 73" fill="none" xmlns="http://www.w3.org/2000/svg">
    <path
        d="M64.3532 18.5299L61.3353 16.7793C59.5324 7.46419 54.398 5.42611 49.3812 2.51271C47.0034 1.12786 44.2468 0.526887 41.2027 0.722856C39.3214 0.814308 37.3225 1.24544 35.2975 1.95093L32.3711 0.239464C30.4114 -0.897156 27.6025 2.23835 27.6025 4.89046V5.97483C15.0343 14.6367 5.13137 31.7905 3.95555 46.9716L2.98877 47.5333C1.5386 48.3695 0.388916 50.3422 0.388916 52.0276C0.388916 53.8435 1.30344 53.9481 4.34749 55.7248C4.75249 57.789 5.36653 59.6703 6.21573 61.3296C8.60655 66.0328 11.4024 67.1433 15.9358 69.7693C19.3979 71.9511 24.271 72.7088 30.3722 70.5401L33.2595 72.2124C35.2975 73.4143 38.0803 70.2004 38.0672 67.5875V66.5031C50.6484 57.8282 60.5514 40.6744 61.7403 25.4933L62.694 24.9446C64.1442 24.1085 65.2939 22.1227 65.2808 20.4504C65.2939 19.562 64.9542 18.8696 64.3532 18.5299ZM62.4588 18.556C62.2498 18.6606 61.8579 18.8827 61.688 18.9872C61.6488 18.6606 61.6096 18.347 61.5705 18.0465L62.4588 18.556ZM60.7474 19.5228L56.8019 21.8091C56.1225 16.8184 53.9146 13.0036 50.5178 11.0439C47.0949 9.07114 42.6398 9.09726 37.9235 11.0439L37.9105 6.51047C49.9952 0.958018 59.4932 6.37983 60.7474 19.5228ZM55.8351 28.9163C54.5156 40.2172 47.2125 52.8506 38.0672 59.6965C38.0542 57.6192 36.5125 56.9398 34.9579 57.8413C33.4946 58.6905 32.358 60.6633 32.358 62.3355V63.0671C22.9254 67.1694 15.5961 62.9626 14.3942 52.8245L15.0343 52.4587C16.4976 51.6095 17.6342 49.6367 17.6342 47.9645C17.6342 46.1746 16.2624 45.1948 14.4595 46.2399C15.7921 34.9391 23.0821 22.3056 32.2274 15.4467V15.5381C32.2274 16.4396 32.567 17.132 33.168 17.4717C33.4293 17.6154 33.7167 17.6938 34.0303 17.6938C34.4353 17.6938 34.8795 17.5631 35.3367 17.3018C36.8 16.4526 37.9366 14.4799 37.9366 12.8076V12.076C42.5092 10.0902 46.7944 10.0118 50.0344 11.88C53.2483 13.7352 55.3256 17.4325 55.9004 22.3186L55.2602 22.6845C53.797 23.5337 52.6604 25.5064 52.6604 27.1787C52.6604 28.9816 54.006 29.9745 55.8351 28.9163ZM8.09703 51.0738C8.56736 50.7995 7.52219 51.4005 15.0343 47.063C17.4774 45.652 17.0463 50.1985 14.564 51.6356L7.62671 55.6464C5.1575 57.0444 5.61476 52.4848 8.09703 51.0738ZM33.1941 7.58177C33.1941 6.26225 34.1609 4.58998 35.2975 3.93675C36.2904 3.37497 36.9306 3.77997 36.9306 4.86433L36.9567 12.8337C36.9567 14.1533 35.99 15.8255 34.8533 16.4788C34.383 16.7531 33.9519 16.8054 33.6645 16.6486C33.377 16.4788 33.2203 16.0868 33.2203 15.5512C33.2072 13.3694 33.1941 9.77663 33.1941 7.58177ZM28.5823 4.90353C28.5823 2.68255 30.8556 0.500757 31.8877 1.08866L35.0624 2.94384C33.4424 3.70159 32.2012 5.83112 32.2012 7.58177V8.0521L28.5823 5.9487V4.90353ZM32.2143 9.88114L32.2274 14.2447C22.4158 21.2735 14.5509 34.8999 13.4013 46.867L9.59946 49.0619C10.9712 34.5471 20.3124 18.3731 32.2143 9.88114ZM1.36876 52.0276C1.36876 50.708 2.33554 49.0488 3.47216 48.3825L4.39975 47.8469L8.01864 49.9633C5.86298 51.2045 4.84395 53.3601 4.98766 54.9802C1.55167 52.9682 1.36876 53.138 1.36876 52.0276ZM9.5472 55.6464L13.4796 53.3732C14.8906 63.7334 22.6641 68.1623 32.3711 64.1515C32.3841 67.888 32.3841 66.882 32.3841 68.6719C19.7899 74.4334 10.5401 68.1623 9.5472 55.6464ZM31.5741 70.109C31.8485 69.9914 32.1228 69.8738 32.3841 69.7562C32.3841 69.9914 32.3841 70.3833 32.3972 70.5793L31.5741 70.109ZM33.364 70.318C33.364 70.2657 33.3509 64.047 33.3378 62.3486C33.3248 59.4744 37.0743 56.8353 37.0743 59.6312L37.1004 67.6006C37.1135 70.4617 33.377 73.1008 33.364 70.318ZM38.0803 65.3012L38.0672 60.9245C47.8918 53.8958 55.7567 40.2694 56.9064 28.3022L60.7082 26.1074C59.3233 40.6222 49.9952 56.7961 38.0803 65.3012ZM62.2106 24.1085L55.2733 28.1193C54.2935 28.6811 53.6402 28.3153 53.6402 27.1917C53.6402 25.8853 54.607 24.213 55.7436 23.5467C56.7627 22.9588 55.9788 23.4161 61.8709 20.0062C62.9292 19.3922 63.3995 19.1048 63.8568 19.366C63.8568 19.366 63.8568 19.366 63.8698 19.366C64.8758 19.954 64.0919 23.0241 62.2106 24.1085Z"
        fill="white" />
    <path
        d="M35.1146 23.3247C28.2688 27.2702 22.7294 36.8596 22.7425 44.7506C22.7686 52.6155 28.3472 55.7902 35.193 51.8447C42.0519 47.8731 47.5913 38.2836 47.5652 30.4188C47.5391 22.5408 41.9736 19.3661 35.1146 23.3247ZM40.1053 35.8144L34.0956 43.8884C33.8996 44.1627 33.6775 44.3456 33.4685 44.4763C32.8806 44.8159 32.3319 44.5938 32.3319 43.823L32.3057 34.6255C32.3057 33.8547 32.8414 33.0055 33.4293 32.6659C33.6383 32.5352 33.8604 32.483 34.0564 32.5222L40.0922 33.6457C40.7716 33.7633 40.7716 34.913 40.1053 35.8144Z"
        fill="white" />
</svg>