<svg width="315" height="44" viewBox="0 0 315 44" fill="none" xmlns="http://www.w3.org/2000/svg">
<path d="M262.421 43.1855C258.434 43.1855 255.235 42.6159 252.917 41.4971C250.59 40.3742 248.809 38.9524 247.621 37.268C246.438 35.5876 245.674 33.7457 245.359 31.7867C245.049 29.864 244.891 28.0747 244.891 26.4711V1.13275H250.784V28.0383C250.784 28.8098 250.804 29.5894 250.841 30.3527C250.877 31.1001 251.011 31.8473 251.236 32.5784C251.462 33.3096 251.806 34.0608 252.255 34.8122C252.702 35.5594 253.369 36.3187 254.234 37.0701C255.332 38.0556 256.504 38.7988 257.728 39.2876C258.947 39.7763 260.37 40.0228 261.957 40.0228C263.822 40.0228 265.632 39.7521 267.34 39.2189C269.029 38.6938 270.572 37.6841 271.926 36.2178C272.677 35.3897 273.258 34.5537 273.65 33.7296C274.046 32.9016 274.341 32.0534 274.53 31.201C274.72 30.3487 274.834 29.4844 274.874 28.6321C274.915 27.7596 274.931 26.8911 274.931 26.055V1.13275H278.09V27.9818C278.09 30.0619 277.751 32.0452 277.08 33.8791C276.408 35.7168 275.395 37.3447 274.074 38.7262C272.749 40.1076 271.089 41.2104 269.138 41.9979C267.192 42.7856 264.929 43.1855 262.421 43.1855Z" fill="white"/>
<path d="M235.461 43.1893L202.625 12.2324V42.4905H199.349V0.437744L232.19 31.3906V1.13654H235.461V43.1893Z" fill="white"/>
<path d="M287.551 42.4867V1.13275H314.461V4.92965H293.445V18.95H311.492V22.2218H293.445V38.6858H314.461V42.4867H287.551Z" fill="white"/>
<path d="M166.905 42.4867V1.13275H193.819V4.92965H172.798V18.95H190.849V22.2218H172.798V38.6858H193.819V42.4867H166.905Z" fill="white"/>
<path d="M141 42.4867L123.692 1.13275H130.627L144.514 34.4687L157.997 1.13275H161.669L144.894 42.4867H141Z" fill="white"/>
<path d="M62.7755 42.4867V1.13275H78.5004C80.7786 1.13275 82.7942 1.47205 84.4907 2.14256C86.1912 2.81712 87.6251 3.73 88.7561 4.85695C89.887 5.98795 90.7434 7.33705 91.3009 8.86794C91.8542 10.3907 92.1329 11.9984 92.1329 13.6585L92.1289 13.7797L92.1329 13.8928C92.1329 15.5488 91.8542 17.1606 91.3009 18.6834C90.7434 20.2142 89.887 21.5633 88.7561 22.6943C87.6291 23.8213 86.1912 24.7382 84.4907 25.4088C82.7942 26.0792 80.7786 26.4185 78.5004 26.4185H68.6689V42.4867H62.7755ZM75.5316 23.2598C77.1109 23.2598 80.3221 22.9771 81.5177 22.4156C82.7134 21.8541 83.7191 21.1069 84.5028 20.19C85.2904 19.273 85.8883 18.2268 86.28 17.0838C86.6597 15.977 86.8616 14.8622 86.8737 13.7716C86.8616 12.685 86.6637 11.5702 86.28 10.4675C85.8883 9.32437 85.2864 8.2782 84.5028 7.36129C83.7191 6.44842 82.7134 5.69712 81.5177 5.13567C80.3221 4.5742 77.1109 4.29145 75.5316 4.29145H68.6689V23.2598H75.5316Z" fill="white"/>
<path d="M51.1241 1.13275H45.2308V42.4867H51.1241V1.13275Z" fill="white"/>
<path d="M18.2835 42.4867L0.975342 1.13275H7.91075L21.7977 34.4687L35.2849 1.13275H38.9525L22.1774 42.4867H18.2835Z" fill="white"/>
<path d="M120.892 42.4867H127.827L110.515 1.13275H106.621L89.8417 42.4867H93.5134L98.3646 30.4942H115.887L120.892 42.4867ZM99.6693 27.2749L107.001 9.15069L114.554 27.2749H99.6693Z" fill="white"/>
</svg>
