<svg width="97" height="78" viewBox="0 0 97 78" fill="none" xmlns="http://www.w3.org/2000/svg">
<path d="M45.0793 77.2698C35.4075 77.2698 25.7357 77.321 16.064 77.2442C12.4788 77.2154 8.93843 76.7672 5.82141 74.6797C1.396 71.7182 -0.61147 67.6841 0.292852 62.3758C2.09188 51.7944 3.92938 41.2194 5.75406 30.6444C6.85721 24.2539 7.90263 17.8507 9.08274 11.473C9.73693 7.94482 11.0068 4.59591 14.2682 2.65892C15.9101 1.68242 17.8598 1.0645 19.7518 0.709121C21.7785 0.328126 23.8982 0.366546 25.9795 0.363344C44.0948 0.340933 62.2069 0.312118 80.3222 0.401764C82.9037 0.41457 85.6199 0.645088 88.0314 1.47431C94.243 3.6098 98.1489 8.62036 96.6577 16.6693C94.6887 27.2763 92.8897 37.9153 91.0458 48.5448C90.0004 54.5638 89.2821 60.6533 87.9384 66.602C86.2035 74.2763 82.3008 77.1898 74.4152 77.2474C64.6376 77.3146 54.8601 77.2634 45.0793 77.2634V77.2762V77.2698ZM67.1261 69.1633C67.1261 69.1633 67.1261 69.1729 67.1261 69.1761C68.4089 69.1761 69.6916 69.1761 70.9743 69.1761C72.3116 69.1761 73.6456 69.1857 74.9828 69.1793C78.2314 69.1697 79.7289 67.8282 80.2484 64.6106C81.095 59.3631 81.9737 54.122 82.8812 48.8841C84.7829 37.8865 86.5819 26.8697 88.6792 15.9073C89.5995 11.1048 86.5819 8.47949 82.3746 8.46028C71.0962 8.40905 59.8146 8.43467 48.5362 8.46028C45.9419 8.46668 44.2359 9.99066 43.8126 12.5488C43.4662 14.649 43.1648 16.7557 42.8024 18.8496C40.7853 30.5292 38.7522 42.2055 36.7319 53.8851C36.1803 57.0803 35.6512 60.2787 35.1189 63.4772C34.9297 64.6074 34.4871 65.2573 33.1275 65.1516C31.3733 65.0172 29.5968 65.0396 27.8394 65.1644C26.3322 65.2701 26.1334 64.5945 26.3771 63.3651C26.7299 61.5914 27.0281 59.8081 27.3359 58.028C28.8143 49.4956 30.2862 40.9601 31.7646 32.4245C32.7266 26.8729 33.8298 21.3405 34.6026 15.7632C34.9938 12.9234 35.9078 10.8967 38.9222 10.234C39.3134 10.1475 39.5732 9.46559 39.8971 9.05899C39.4641 8.85088 39.0312 8.46668 38.5951 8.46348C32.8741 8.42186 27.1564 8.40265 21.4354 8.45068C18.9309 8.46988 17.3211 9.95864 16.8689 12.5392C15.5669 19.9734 14.297 27.414 13.0047 34.8514C11.4494 43.8031 9.9101 52.7581 8.30348 61.7035C7.49216 66.2178 9.769 69.1441 14.4125 69.1601C25.7999 69.2017 37.1841 69.1793 48.5715 69.1601C50.9926 69.1569 52.4229 68.1003 52.9713 65.7728C53.4683 63.6597 53.7665 61.4954 54.1353 59.3535C55.2577 52.8606 56.3769 46.3644 57.4929 39.8715C58.9937 31.1247 60.4752 22.3746 62.0305 13.6373C62.1075 13.1987 62.8034 12.568 63.2395 12.5424C65.372 12.4239 67.5142 12.5071 69.6499 12.4687C70.644 12.4495 70.8428 12.9426 70.6985 13.7782C69.2875 21.9488 67.8733 30.1193 66.4655 38.2899C65.2053 45.6281 63.9546 52.9662 62.6943 60.3044C62.1556 63.4388 62.053 66.8677 57.7751 67.4888C57.4768 67.5336 57.2684 68.1772 57.0183 68.5422C57.3902 68.7503 57.7622 69.1313 58.1374 69.1377C61.1294 69.1857 64.1246 69.1665 67.1165 69.1665L67.1261 69.1633Z" fill="white"/>
</svg>
