<svg width="340" height="34" viewBox="0 0 340 34" fill="none" xmlns="http://www.w3.org/2000/svg">
<path fill-rule="evenodd" clip-rule="evenodd" d="M174.944 0.219689C168.395 0.176224 163.094 1.86792 158.817 5.16413C154.496 8.46215 152.358 12.4706 152.358 17.4594C152.358 21.5578 154.496 25.3008 157.97 28.2411C162.159 31.8046 167.949 33.4081 175.077 33.4081C178.061 33.4081 181.136 32.9177 183.453 32.2945C186.883 31.4038 191.427 29.3541 192.807 26.3248L192.718 21.8263C192.63 18.7078 192.852 18.5736 196.06 18.5297V17.4594H183.987V18.5297C185.235 18.5297 186.081 18.4853 186.838 18.9748C187.551 19.5096 187.372 21.9147 187.372 22.8507L187.329 25.568C186.304 27.5283 183.942 28.597 182.25 29.2655C180.691 29.8894 177.838 30.5571 175.167 30.6016C170.711 30.6462 167.237 29.3986 164.341 27.5726C161.401 25.6561 158.55 21.6929 158.55 16.7477C158.55 11.9808 161.58 8.05962 165.144 5.6092C167.46 4.00637 171.38 2.62498 175.255 2.67027C178.597 2.71555 181.716 3.51599 183.987 4.80912C186.572 6.23446 189.334 9.13042 190.357 11.2681L191.381 10.8671L189.733 3.87305C187.685 2.62519 185.145 1.73351 182.739 1.15577C180.111 0.530936 177.438 0.26498 174.944 0.219689ZM18.3375 0.95884C13.7829 0.975298 9.24601 1.04226 1.02706 1.00829L0.98291 2.03356C2.09647 2.03356 2.49807 1.98852 3.16592 2.5228C3.7899 3.05888 3.87857 3.6363 3.87857 5.59773V26.5791C3.87857 28.3611 4.01214 30.1878 3.611 30.6776C3.03229 31.346 2.63099 31.4798 1.20545 31.4353V32.5038H18.1343C22.7675 32.5038 30.385 32.3706 33.5028 29.9208C34.7061 29.2528 36.8881 27.2037 36.8436 23.7285C36.8436 19.4965 35.0177 18.2039 33.3695 17.2687C31.8992 16.4673 29.5829 15.844 26.8655 15.3983C29.048 14.6414 29.5379 14.4175 30.9189 13.3486C32.3444 12.3235 33.2812 10.2751 33.2812 8.22581C33.2812 2.87943 27.4889 1.18779 23.0346 0.965021C21.3751 0.953723 19.8556 0.953369 18.3375 0.95884ZM339.728 1.00829L328.679 1.05245V1.98852C330.505 2.07727 331.042 2.12253 331.397 3.41384C331.574 3.90465 331.531 5.01683 331.531 6.57619V26.935C331.531 30.6322 331.844 31.4794 328.903 31.4794V32.5038H339.816L339.773 31.4794C336.788 31.4794 336.92 30.3203 336.92 26.935V6.57619C336.92 2.9232 336.832 1.98852 339.728 1.98852V1.00829ZM50.52 1.05333V2.21106C51.5897 2.21106 52.0357 2.25608 52.6589 2.61287C53.3721 3.0584 54.2631 5.10691 55.332 7.20054L68.6967 32.5038H73.1961C75.958 27.0247 80.4122 18.1153 83.8426 11.3882C86.1589 6.93412 87.8526 3.37035 88.5204 2.52456C88.9215 2.03376 90.0352 2.21106 90.7476 2.21106V1.05333L81.393 1.09749V2.21106C81.4821 2.21106 84.1101 1.85561 83.8426 3.54719C83.6199 4.88378 73.196 24.3967 71.9041 27.5152L61.5234 7.95912C60.7663 6.53197 60.1427 5.46328 59.8313 4.61749C58.9845 2.6126 60.2773 2.21106 62.0594 2.21106V1.05333H50.52ZM288.297 1.08336C287.632 1.0781 286.923 1.08055 286.171 1.08427C285.168 1.08919 284.086 1.09752 282.927 1.09752H268.674V2.07775C270.634 2.07775 271.436 2.65725 271.436 4.92837V7.28977V24.307V29.7415C271.436 31.4338 270.188 31.3889 268.674 31.3443V32.5038H279.811V31.3443C277.983 31.3443 276.914 31.1678 276.869 28.9847V19.7184C278.072 19.807 279.142 19.7184 281.013 19.7184C281.681 19.7184 285.243 19.7631 286.314 19.7184C290.367 19.7184 292.238 24.5294 294.422 27.9153C296.248 30.7663 295.446 32.5038 307.119 32.5038C307.119 32.2365 307.03 31.6567 307.03 31.3894C302.041 31.4339 301.104 28.4487 298.965 24.6178C296.962 21.1436 296.425 18.8718 291.258 18.2922C299.099 16.8229 301.149 13.259 301.149 9.20431C301.104 5.1076 298.076 2.56635 293.13 1.45252C291.902 1.17746 290.294 1.09913 288.297 1.08336ZM108.968 1.0966V2.07683C110.527 2.07683 110.972 2.21058 111.418 2.83541C111.863 3.41316 111.863 4.39334 111.863 6.13199V21.232V29.0288C111.863 31.0785 111.062 31.434 109.146 31.4785V32.5038H137.166L140.418 25.9998L139.395 25.598C138.325 27.3356 135.875 29.0288 131.999 29.0288H123.891H117.254V4.74996C117.254 3.27934 117.521 2.83543 117.877 2.47864C118.412 2.03312 118.679 2.12212 120.06 2.07683V1.0966H108.968ZM227.689 1.09752L214.725 25.7773C213.568 28.0052 213.122 28.7622 212.588 29.7866C211.963 30.8555 211.606 31.5691 209.467 31.6137V32.5038H219.135L219.18 31.4803C217.442 31.5249 216.687 31.3901 216.641 29.8307C216.641 29.3404 217.087 28.5403 217.755 27.3377L219.58 24.1295H238.29L240.519 27.9153C241.99 30.3659 241.587 31.2573 238.959 31.3911V32.5038H250.541V31.3011C247.78 31.3011 247.913 30.5453 245.463 26.0458L231.788 1.09752H227.689ZM282.699 3.36353C286.124 3.34296 289.594 3.51437 291.793 4.5716C293.664 5.46266 295.223 6.4874 295.223 9.60612C295.223 14.0163 292.506 15.1748 290.456 15.9317C286.848 16.867 280.922 16.5548 276.869 16.5993V3.45714C278.606 3.45714 280.645 3.37588 282.699 3.36353ZM18.7463 3.62139C21.4757 3.61778 24.1483 3.72627 25.6186 4.6608C27.5336 5.90865 27.9791 6.80005 27.9791 8.67092C27.9791 9.82822 27.0443 11.835 26.0645 12.5919C23.7476 14.4631 19.6046 14.5514 16.5306 14.5514H9.17978V3.6364H16.0396C16.9196 3.6364 17.8365 3.62266 18.7463 3.62139ZM228.757 5.82029L236.643 20.6095H221.274L228.757 5.82029ZM18.5079 17.3455C23.0368 17.3332 26.2521 17.5078 28.5133 19.1841C29.7161 20.0748 30.8747 21.634 30.8747 23.506C30.8747 28.6732 24.4159 29.0297 18.0452 29.0297H9.17978V17.3579C11.5852 17.3579 14.0804 17.4024 16.4865 17.3579C17.1881 17.3523 17.8609 17.3472 18.5079 17.3455Z" fill="white"/>
</svg>
