<svg width="276" height="50" viewBox="0 0 276 50" fill="none" xmlns="http://www.w3.org/2000/svg">
<path d="M252.742 0.672641C252.742 0.672641 250.16 9.53021 250.006 10.041H233.641C233.893 9.17339 236.37 0.672641 236.37 0.672641H231.444C231.444 0.672641 228.863 9.53721 228.716 10.048H223.811C223.825 9.78908 223.86 9.53021 223.86 9.27834C223.86 7.29133 223.202 5.50023 221.915 4.03796C219.914 1.77109 216.605 0.511721 212.589 0.511721C204.592 0.511721 197.133 5.40228 195.251 11.881C194.971 12.8396 194.832 13.7771 194.832 14.6726C194.832 16.6387 195.538 18.4018 196.84 19.857H189.36C189.157 19.6542 181.58 12.2169 180.957 11.6012C181.727 11.1184 198.638 0.546704 198.638 0.546704H191.466L174.738 11.0554L177.795 0.581686H172.681C172.681 0.581686 167.167 19.5142 167.013 20.039C166.461 20.039 146.996 20.039 146.996 20.039C146.982 20.039 146.493 20.025 146.493 20.025L146.066 20.011C142.365 20.011 139.328 18.9405 137.747 17.0724C136.963 16.1559 136.565 15.0714 136.565 13.896C136.565 13.7071 136.593 13.5182 136.621 13.3153C137.208 13.3153 140.777 13.3153 140.777 13.3153L164.691 13.3013L164.775 13.0355C165.103 11.951 165.264 10.8945 165.264 9.88004C165.264 7.99798 164.719 6.27684 163.648 4.83556C162.165 2.84156 158.897 0.45575 151.768 0.45575C141.945 0.45575 134.976 5.38828 132.542 10.048H125.447C125.286 9.5512 122.383 0.672641 122.383 0.672641H117.457C117.457 0.672641 109.124 9.80307 108.9 10.048H101.239C101.239 9.96399 101.253 9.88703 101.253 9.80307C101.253 7.87904 100.526 6.03196 99.1613 4.5557C97.4822 2.72262 94.0399 0.546704 87.2043 0.546704C77.1433 0.546704 71.5741 5.45125 69.6501 7.5572L69.0694 8.18688H74.7995L74.9045 8.08893C77.878 5.41627 82.0829 3.87704 86.4557 3.87704C90.0519 3.87704 93.0954 4.89153 94.8095 6.66165C95.7331 7.61317 96.1948 8.7466 96.2368 10.013C95.4532 10.013 78.6966 10.013 78.6966 10.013L77.724 13.3503C77.724 13.3503 94.0259 13.3503 95.2783 13.3503C93.0464 17.1844 87.3093 20.018 81.5371 20.018C77.0524 20.018 73.6801 18.5767 72.5187 16.1559L72.4207 15.939H66.9984L67.1523 16.4288C68.4817 20.8226 73.4562 23.3483 80.7885 23.3483C91.2413 23.3483 98.2448 18.1919 100.449 13.3153H105.927C104.919 14.4278 96.7126 23.4183 96.7126 23.4183H102.401C102.401 23.4183 117.758 6.47974 118.584 5.5632C118.954 6.71062 124.363 23.4183 124.363 23.4183H129.827C129.827 23.4183 126.819 14.2109 126.532 13.3153H131.52C131.485 13.6232 131.443 13.931 131.443 14.2249C131.443 15.988 132.045 17.6182 133.22 19.0105C135.557 21.7671 139.965 23.3483 145.324 23.3483L146.675 23.3133L166.573 23.3203L171.176 23.3273L174.367 12.3778L185.428 23.3553H206.166C213.568 23.3553 220.6 19.1434 223.027 13.3153H227.806C227.54 14.1969 224.854 23.4183 224.854 23.4183H229.786C229.786 23.4183 232.529 14.001 232.683 13.4832H249.04C248.782 14.3508 246.144 23.4183 246.144 23.4183H251.083L257.709 0.672641H252.742ZM150.984 3.80008C154.175 3.80008 156.938 4.73761 158.548 6.36779C159.541 7.36829 160.059 8.58568 160.129 9.96399H137.712C140.091 6.31182 145.408 3.80008 150.984 3.80008ZM219.172 11.881C217.808 16.5477 212.526 20.0669 206.886 20.0669C203.913 20.0669 201.555 19.1154 200.261 17.3943C199.19 15.96 198.931 14.1269 199.526 12.0979C200.89 7.40328 206.18 3.86305 211.826 3.86305C214.786 3.86305 217.129 4.82157 218.431 6.54271C219.508 7.98399 219.767 9.83106 219.172 11.881Z" fill="white"/>
<path d="M33.3605 9.19239C37.8942 9.19239 34.6478 11.928 33.3605 14.7266H44.3869L49.3824 7.50623C50.3619 6.13491 50.5648 4.21787 49.9002 2.68564C49.0676 1.10443 47.6333 0.0619507 45.9821 0.0619507C45.9821 0.0619507 16.6598 0.0619507 11.6643 0.0619507C5.99713 0.0619507 0.483887 9.19938 0.483887 9.19938C19.9132 9.19239 28.6728 9.19239 33.3605 9.19239Z" fill="white"/>
<path d="M30.5308 39.8263H48.9665C52.2199 37.2516 53.8641 35.2995 55.1515 33.8582L56.4388 32.41H35.8901L30.5308 39.8263Z" fill="white"/>
<path d="M24.0442 49.2499C33.9302 47.7596 40.5769 44.8701 45.7263 41.7846H29.2496C29.2496 41.7846 25.3315 47.4448 24.0442 49.2499Z" fill="white"/>
<path d="M19.6073 49.4111L35.4753 26.8964H24.4488C21.5593 30.7584 11.9811 44.7235 9.25244 48.2777C13.9401 50.1807 19.6073 49.4111 19.6073 49.4111Z" fill="white"/>
<path d="M59.2034 26.5147C59.7491 25.5631 60.3298 24.4367 60.8196 23.1773C61.3163 22.3378 61.6172 20.5606 60.9665 19.2593C60.2249 17.902 58.7766 17.0134 57.2304 17.0134C57.2304 17.0134 47.2044 17.0134 37.6262 17.0134H29.7901C30.0909 16.7406 31.1824 15.1034 31.1824 15.1034C31.1824 14.9634 31.3363 14.9634 31.3363 14.8235C31.987 14.2708 32.5887 12.6336 29.5942 12.6336H22.5627L18.022 18.6436C17.0775 19.812 16.9305 21.3023 17.6792 22.6176C18.3298 23.919 19.7221 24.8005 21.3173 24.8005C21.3173 24.8005 31.4972 24.8005 39.1864 24.8005H47.0645C51.1084 24.8005 48.4568 27.2073 46.5677 29.873H49.919H275.08V26.5147H59.2034Z" fill="white"/>
<path d="M72.5846 38.4576C72.5846 36.8484 71.4302 36.5545 70.6326 36.5545C68.8275 36.5545 67.0714 38.5066 67.0714 41.592C67.0714 43.0123 67.6521 43.9848 69.2263 43.9848C69.9539 43.9848 71.2903 43.607 72.0809 41.4801H73.1653C72.0319 44.9293 69.4782 45.0833 68.8485 45.0833C67.2743 45.0833 65.903 44.1387 65.903 41.7599C65.903 38.2827 68.0019 35.4631 70.8355 35.4631C72.8225 35.4631 73.6761 36.7364 73.6761 38.1427C73.6761 38.2407 73.6621 38.3806 73.6551 38.4576H72.5846Z" fill="white"/>
<path d="M75.1105 38.1771H76.055L75.8731 39.1217C76.3069 38.5829 76.8666 37.9882 77.9161 37.9882C79.2174 37.9882 79.8821 38.9467 79.8821 40.3181C79.8821 42.0322 78.8536 45.0267 76.4328 45.0267C75.6212 45.0267 75.1804 44.5999 74.9915 44.0542L74.3269 47.4685H73.3124L75.1105 38.1771ZM75.3973 42.424C75.3973 43.3965 75.7612 44.0612 76.6217 44.0612C77.6152 44.0612 78.8046 42.9138 78.8046 40.5C78.8046 39.7094 78.5668 39.0027 77.6292 39.0027C75.8171 38.9957 75.3973 41.3256 75.3973 42.424Z" fill="white"/>
<path d="M85.6141 42.7458C85.1944 43.7813 84.3268 45.0267 82.4657 45.0267C81.0594 45.0267 80.3318 44.0542 80.3318 42.6199C80.3318 40.1641 81.836 37.9882 84.0329 37.9882C85.3763 37.9882 86.0199 38.9188 86.0199 40.444C86.0199 40.8708 85.971 41.3605 85.873 41.8783H81.4792C81.4372 42.1441 81.4023 42.382 81.4023 42.5989C81.4023 43.5295 81.857 44.0612 82.8085 44.0612C83.7531 44.0612 84.5227 43.2426 84.6136 42.7528H85.6141V42.7458ZM84.9985 40.9897C85.0194 40.8148 85.0334 40.6399 85.0334 40.472C85.0334 39.6534 84.7116 38.9957 83.6901 38.9957C82.7666 38.9957 81.843 39.9542 81.6471 40.9827H84.9985V40.9897Z" fill="white"/>
<path d="M88.1406 40.3424L88.5604 38.1735H92.7863L91.6808 43.9037H92.3525L91.7928 46.7862H90.8692L91.247 44.8342H86.8532L86.4754 46.7862H85.5519L86.1116 43.9037H86.7833C87.5669 42.7422 87.8957 41.5878 88.1406 40.3424ZM91.5829 39.1041H89.358L89.1271 40.3145C88.8542 41.7347 88.4974 42.8052 87.8257 43.9037H90.6593L91.5829 39.1041Z" fill="white"/>
<path d="M97.6918 40.416C97.6918 39.4715 97.4049 38.9957 96.5513 38.9957C94.9561 38.9957 94.2914 41.1366 94.2914 42.5359C94.2914 43.3545 94.5783 44.0612 95.5578 44.0612C96.2435 44.0612 96.9291 43.5085 97.3069 42.487H98.2864C97.9786 43.5434 97.111 45.0337 95.3409 45.0337C93.9346 45.0337 93.193 44.0542 93.193 42.6129C93.193 40.1921 94.7112 37.9882 96.8941 37.9882C98.2655 37.9882 98.7062 38.9327 98.7062 39.9402C98.7062 40.1012 98.6922 40.2551 98.6713 40.416H97.6918Z" fill="white"/>
<path d="M104.593 38.1735L104.425 39.1041H102.438L101.332 44.8342H100.318L101.423 39.1041H99.4363L99.6112 38.1735H104.593Z" fill="white"/>
<path d="M105.49 38.1735H108.232C109.401 38.1735 109.925 38.7682 109.925 39.5308C109.925 40.4894 109.219 41.133 108.589 41.308C109.128 41.4479 109.674 41.8117 109.674 42.6443C109.674 43.9386 108.666 44.8342 107.071 44.8342H104.216L105.49 38.1735ZM105.406 43.9037H107.218C108.008 43.9037 108.659 43.5538 108.659 42.6583C108.659 42.1405 108.337 41.8117 107.519 41.8117H105.805L105.406 43.9037ZM105.979 40.9301H107.449C108.33 40.9301 108.862 40.5663 108.862 39.7477C108.862 39.3839 108.715 39.1041 107.826 39.1041H106.329L105.979 40.9301Z" fill="white"/>
<path d="M111.28 40.2061C111.602 38.5969 112.722 37.9882 114.212 37.9882C114.646 37.9882 116.115 38.1142 116.115 39.4365C116.115 39.8773 115.324 43.5294 115.324 43.7953C115.324 43.9562 115.394 44.0752 115.597 44.0752C115.688 44.0752 115.87 44.0402 115.926 44.0262L115.765 44.8448C115.625 44.8938 115.352 44.9707 115.205 44.9707C114.66 44.9707 114.296 44.7958 114.296 44.2291C114.296 44.1381 114.31 44.0542 114.317 43.9492C113.827 44.418 113.12 45.0337 111.945 45.0337C110.987 45.0337 110.371 44.439 110.371 43.5364C110.371 42.1162 111.469 41.1926 112.561 41.0457C112.939 40.9967 114.184 40.8428 114.373 40.7938C114.919 40.6539 115.045 40.1641 115.045 39.7373C115.045 39.1986 114.667 38.9327 113.834 38.9327C112.68 38.9327 112.365 39.7164 112.204 40.2201H111.28V40.2061ZM113.016 41.8573C112.225 41.9342 111.462 42.2841 111.462 43.2776C111.462 43.7953 111.756 44.0962 112.386 44.0962C113.33 44.0962 114.373 43.4315 114.541 42.5359L114.744 41.4375C114.569 41.5774 113.862 41.7803 113.016 41.8573Z" fill="white"/>
<path d="M122.408 40.3424L122.827 38.1735H127.053L125.948 43.9037H126.619L126.06 46.7862H125.136L125.514 44.8342H121.12L120.742 46.7862H119.819L120.379 43.9037H121.05C121.834 42.7422 122.163 41.5878 122.408 40.3424ZM125.85 39.1041H123.625L123.394 40.3145C123.121 41.7347 122.764 42.8052 122.093 43.9037H124.926L125.85 39.1041Z" fill="white"/>
<path d="M127.491 42.431C127.491 40.451 128.792 37.9882 131.052 37.9882C132.626 37.9882 133.27 39.1986 133.27 40.5699C133.27 42.5499 131.969 45.0267 129.709 45.0267C128.135 45.0267 127.491 43.8093 127.491 42.431ZM132.22 40.6959C132.22 39.8633 131.948 38.9607 130.877 38.9607C129.093 38.9607 128.547 41.4165 128.547 42.3121C128.547 43.1446 128.82 44.0612 129.898 44.0612C131.738 44.0612 132.22 41.5774 132.22 40.6959Z" fill="white"/>
<path d="M138.372 40.416C138.372 39.4715 138.085 38.9957 137.231 38.9957C135.636 38.9957 134.972 41.1366 134.972 42.5359C134.972 43.3545 135.258 44.0612 136.238 44.0612C136.924 44.0612 137.609 43.5085 137.987 42.487H138.967C138.659 43.5434 137.791 45.0337 136.021 45.0337C134.615 45.0337 133.873 44.0542 133.873 42.6129C133.873 40.1921 135.391 37.9882 137.574 37.9882C138.946 37.9882 139.386 38.9327 139.386 39.9402C139.386 40.1012 139.372 40.2551 139.351 40.416H138.372Z" fill="white"/>
<path d="M145.277 38.1735L145.109 39.1041H143.122L142.016 44.8342H141.002L142.107 39.1041H140.12L140.295 38.1735H145.277Z" fill="white"/>
<path d="M145.744 40.2061C146.066 38.5969 147.186 37.9882 148.676 37.9882C149.11 37.9882 150.579 38.1142 150.579 39.4365C150.579 39.8773 149.788 43.5294 149.788 43.7953C149.788 43.9562 149.858 44.0752 150.061 44.0752C150.152 44.0752 150.334 44.0402 150.39 44.0262L150.229 44.8448C150.089 44.8938 149.816 44.9707 149.669 44.9707C149.124 44.9707 148.76 44.7958 148.76 44.2291C148.76 44.1381 148.774 44.0542 148.781 43.9492C148.291 44.418 147.584 45.0337 146.409 45.0337C145.45 45.0337 144.835 44.439 144.835 43.5364C144.835 42.1162 145.933 41.1926 147.025 41.0457C147.402 40.9967 148.648 40.8428 148.837 40.7938C149.382 40.6539 149.508 40.1641 149.508 39.7373C149.508 39.1986 149.131 38.9327 148.298 38.9327C147.144 38.9327 146.829 39.7164 146.668 40.2201H145.744V40.2061ZM147.479 41.8573C146.689 41.9342 145.926 42.2841 145.926 43.2776C145.926 43.7953 146.22 44.0962 146.85 44.0962C147.794 44.0962 148.837 43.4315 149.005 42.5359L149.208 41.4375C149.033 41.5774 148.326 41.7803 147.479 41.8573Z" fill="white"/>
<path d="M152.578 38.1735H155.321C156.483 38.1735 157.007 38.7682 157.007 39.5308C157.007 40.4894 156.301 41.133 155.671 41.308C156.21 41.4479 156.755 41.8117 156.755 42.6443C156.755 43.9386 155.748 44.8342 154.153 44.8342H151.298L152.578 38.1735ZM152.501 43.9037H154.314C155.104 43.9037 155.755 43.5538 155.755 42.6583C155.755 42.1405 155.433 41.8117 154.614 41.8117H152.9L152.501 43.9037ZM153.068 40.9301H154.537C155.419 40.9301 155.951 40.5663 155.951 39.7477C155.951 39.3839 155.804 39.1041 154.915 39.1041H153.418L153.068 40.9301Z" fill="white"/>
<path d="M159.257 41.0701L162.405 38.1735H163.692L160.908 40.6573L162.552 44.8412H161.341L160.04 41.4409L159.012 42.3224L158.529 44.8412H157.514L158.795 38.1805H159.809L159.257 41.0701Z" fill="white"/>
<path d="M164.666 43.162H164.687L168.605 38.1735H169.668L168.388 44.8342H167.373L168.332 39.8457H168.311L164.393 44.8342H163.329L164.61 38.1735H165.624L164.666 43.162Z" fill="white"/>
<path d="M178.189 40.479C178.189 39.6884 177.776 38.9957 176.874 38.9957C176.02 38.9957 175.481 39.4715 175.138 40.381H174.159C174.481 39.2336 175.628 37.9882 177.014 37.9882C178.546 37.9882 179.217 38.9957 179.217 40.479C179.217 42.8858 177.804 45.0267 175.761 45.0267C174.152 45.0267 173.669 43.8303 173.669 42.7598H174.663C174.719 43.6064 175.166 44.0542 175.908 44.0542C177.014 44.0542 177.783 42.8928 177.972 41.8363H175.817L175.985 40.9547H178.14C178.182 40.7938 178.189 40.6329 178.189 40.479Z" fill="white"/>
<path d="M185.707 38.1735L184.427 44.8342H183.413L184.511 39.1041H182.125L181.545 42.1405C181.16 44.1555 180.404 44.9391 179.446 44.9391C179.173 44.9391 178.963 44.8902 178.816 44.8412L178.977 43.9736C179.054 43.9876 179.215 44.0016 179.39 44.0016C179.963 44.0016 180.236 43.7217 180.614 41.7697L181.3 38.1805H185.707V38.1735Z" fill="white"/>
<path d="M191.361 42.7458C190.941 43.7813 190.074 45.0267 188.213 45.0267C186.806 45.0267 186.079 44.0542 186.079 42.6199C186.079 40.1641 187.583 37.9882 189.78 37.9882C191.13 37.9882 191.767 38.9188 191.767 40.444C191.767 40.8708 191.718 41.3605 191.62 41.8783H187.226C187.177 42.1441 187.149 42.382 187.149 42.5989C187.149 43.5295 187.604 44.0612 188.555 44.0612C189.507 44.0612 190.27 43.2426 190.36 42.7528H191.361V42.7458ZM190.745 40.9897C190.766 40.8148 190.78 40.6399 190.78 40.472C190.78 39.6534 190.458 38.9957 189.43 38.9957C188.506 38.9957 187.583 39.9542 187.387 40.9827H190.745V40.9897Z" fill="white"/>
<path d="M193.933 41.0701L197.081 38.1735H198.369L195.584 40.6573L197.228 44.8412H196.018L194.716 41.4409L193.688 42.3224L193.205 44.8412H192.191L193.471 38.1805H194.486L193.933 41.0701Z" fill="white"/>
<path d="M203.775 38.1735L203.6 39.1041H201.613L200.508 44.8342H199.493L200.599 39.1041H198.612L198.787 38.1735H203.775Z" fill="white"/>
<path d="M204.777 38.1771H205.721L205.539 39.1217C205.973 38.5829 206.533 37.9882 207.582 37.9882C208.884 37.9882 209.548 38.9467 209.548 40.3181C209.548 42.0322 208.52 45.0267 206.099 45.0267C205.287 45.0267 204.84 44.5999 204.658 44.0542L203.993 47.4685H202.979L204.777 38.1771ZM205.063 42.424C205.063 43.3965 205.427 44.0612 206.288 44.0612C207.281 44.0612 208.471 42.9138 208.471 40.5C208.471 39.7094 208.233 39.0027 207.295 39.0027C205.49 38.9957 205.063 41.3256 205.063 42.424Z" fill="white"/>
<path d="M211.149 43.162H211.17L215.088 38.1735H216.151L214.871 44.8342H213.857L214.815 39.8457H214.794L210.876 44.8342H209.813L211.093 38.1735H212.107L211.149 43.162Z" fill="white"/>
<path d="M218.539 38.1735L218.155 40.2165C218.141 40.3075 218.134 40.3704 218.134 40.4404C218.134 40.9931 218.546 41.161 219.078 41.161C219.526 41.161 220.219 41.0981 220.722 40.9371L221.247 38.1805H222.262L220.981 44.8412H219.967L220.541 41.8677C219.904 42.0286 219.26 42.1195 218.588 42.1195C217.791 42.1195 217.021 41.8187 217.021 40.7832C217.021 40.6573 217.035 40.4964 217.056 40.3774L217.525 38.1735H218.539Z" fill="white"/>
<path d="M227.929 42.7458C227.509 43.7813 226.642 45.0267 224.781 45.0267C223.374 45.0267 222.647 44.0542 222.647 42.6199C222.647 40.1641 224.151 37.9882 226.348 37.9882C227.698 37.9882 228.335 38.9188 228.335 40.444C228.335 40.8708 228.293 41.3605 228.188 41.8783H223.794C223.745 42.1441 223.717 42.382 223.717 42.5989C223.717 43.5295 224.172 44.0612 225.123 44.0612C226.075 44.0612 226.838 43.2426 226.929 42.7528H227.929V42.7458ZM227.313 40.9897C227.334 40.8148 227.348 40.6399 227.348 40.472C227.348 39.6534 227.027 38.9957 225.998 38.9957C225.075 38.9957 224.151 39.9542 223.955 40.9827H227.313V40.9897Z" fill="white"/>
<path d="M233.443 40.416C233.443 39.4715 233.156 38.9957 232.303 38.9957C230.7 38.9957 230.043 41.1366 230.043 42.5359C230.043 43.3545 230.33 44.0612 231.309 44.0612C231.995 44.0612 232.68 43.5085 233.058 42.487H234.038C233.73 43.5434 232.862 45.0337 231.092 45.0337C229.686 45.0337 228.944 44.0542 228.944 42.6129C228.944 40.1921 230.462 37.9882 232.645 37.9882C234.017 37.9882 234.457 38.9327 234.457 39.9402C234.457 40.1012 234.443 40.2551 234.422 40.416H233.443Z" fill="white"/>
<path d="M240.355 38.1735L240.18 39.1041H238.193L237.087 44.8342H236.073L237.178 39.1041H235.191L235.359 38.1735H240.355Z" fill="white"/>
<path d="M241.245 38.1735H243.987C245.149 38.1735 245.681 38.7682 245.681 39.5308C245.681 40.4894 244.974 41.133 244.344 41.308C244.883 41.4479 245.429 41.8117 245.429 42.6443C245.429 43.9386 244.421 44.8342 242.826 44.8342H239.971L241.245 38.1735ZM241.161 43.9037H242.973C243.764 43.9037 244.414 43.5538 244.414 42.6583C244.414 42.1405 244.092 41.8117 243.274 41.8117H241.56L241.161 43.9037ZM241.735 40.9301H243.211C244.092 40.9301 244.624 40.5663 244.624 39.7477C244.624 39.3839 244.477 39.1041 243.589 39.1041H242.091L241.735 40.9301Z" fill="white"/>
<path d="M247.039 40.2061C247.361 38.5969 248.481 37.9882 249.971 37.9882C250.405 37.9882 251.881 38.1142 251.881 39.4365C251.881 39.8773 251.09 43.5294 251.09 43.7953C251.09 43.9562 251.16 44.0752 251.363 44.0752C251.454 44.0752 251.636 44.0402 251.692 44.0262L251.531 44.8448C251.391 44.8938 251.118 44.9707 250.971 44.9707C250.426 44.9707 250.055 44.7958 250.055 44.2291C250.055 44.1381 250.069 44.0542 250.076 43.9492C249.586 44.418 248.879 45.0337 247.704 45.0337C246.745 45.0337 246.13 44.439 246.13 43.5364C246.13 42.1162 247.228 41.1926 248.32 41.0457C248.697 40.9967 249.943 40.8428 250.132 40.7938C250.677 40.6539 250.803 40.1641 250.803 39.7373C250.803 39.1986 250.426 38.9327 249.593 38.9327C248.439 38.9327 248.117 39.7164 247.963 40.2201H247.039V40.2061ZM248.774 41.8573C247.984 41.9342 247.221 42.2841 247.221 43.2776C247.221 43.7953 247.515 44.0962 248.145 44.0962C249.089 44.0962 250.132 43.4315 250.3 42.5359L250.503 41.4375C250.328 41.5774 249.614 41.7803 248.774 41.8573Z" fill="white"/>
</svg>
