<svg width="140" height="96" viewBox="0 0 140 96" fill="none" xmlns="http://www.w3.org/2000/svg">
<path d="M47.3553 4.53427C50.6463 2.06413 53.8092 0.725427 57.7966 0.115032C59.0845 -0.0821361 64.426 -0.0121076 65.8502 0.220672C71.3166 1.11401 74.5079 2.08541 85.9664 6.34374C88.2099 7.17736 90.4981 8.01924 91.051 8.21445C91.6048 8.40966 92.0568 8.60118 92.0568 8.63994C92.0568 8.85309 82.702 16.1992 77.3741 20.1697C64.8102 29.5329 52.664 37.588 46.349 40.7452C41.458 43.1906 38.0926 44.1494 34.396 44.1509C29.7642 44.1528 25.9706 42.5866 20.4907 38.4101C18.1175 36.6012 16.5485 35.2964 11.8984 31.2652C7.82998 27.7381 5.90748 26.1382 4.20141 24.8602C2.76628 23.785 1.16538 22.7628 0.91664 22.7628C0.609056 22.7628 0.972328 22.4187 2.49904 21.2637C7.2357 17.6803 10.2665 15.944 13.0948 15.1935C13.9495 14.9667 14.4567 14.9102 16.0314 14.8662C18.246 14.8044 19.6441 14.9918 21.8502 15.6465C24.0147 16.2885 26.801 16.9846 27.7041 17.1088C29.5139 17.3572 31.2381 17.1781 32.9356 16.5649C35.2238 15.7383 37.0819 14.244 42.2885 9.04209C44.4781 6.85479 45.6342 5.82617 47.3553 4.53427Z" fill="white"/>
<path d="M48.3342 63.1523C48.3342 63.054 48.976 60.6248 51.2396 52.1554L52.1899 48.5996H58.323L58.2083 49.0068C57.7536 50.6223 56.8452 54.0884 56.8697 54.1144C56.8863 54.1321 57.875 53.0816 59.0667 51.7801C61.0095 49.6585 61.3105 49.3746 61.9781 49.0339L62.7227 48.6539L69.4887 48.5944L68.3467 49.7093C67.7186 50.3225 66.0415 51.9636 64.62 53.3564L62.0354 55.8885L63.4622 58.7042C64.247 60.2527 64.9207 61.5195 64.9593 61.5192C64.9979 61.5189 65.4511 60.847 65.9663 60.0263C66.4816 59.2055 67.4973 57.5934 68.2232 56.444C68.9492 55.2946 70.1323 53.4134 70.8523 52.2639C72.3234 49.9154 72.867 49.3064 73.8397 48.917C74.4812 48.6602 74.5578 48.6553 78.5286 48.6217L82.5653 48.5876L82.6388 49.2722C82.7418 50.2319 83.8825 59.8358 84.0411 61.0784L84.1718 62.1029L88.4238 57.0069C90.7624 54.2042 92.6619 51.8935 92.6454 51.8723C92.628 51.851 92.109 51.941 91.4926 52.0725C89.7522 52.4436 87.5537 53.209 85.8702 54.0296C85.0258 54.4413 84.335 54.749 84.335 54.7137C84.335 54.6783 84.934 53.2881 85.6661 51.6244L86.9974 48.5996H95.183C99.6854 48.5996 103.369 48.6265 103.369 48.6595C103.369 48.6923 102.157 50.0921 100.677 51.7698C95.2343 57.9378 93.3809 60.0545 93.4043 60.0776C93.4739 60.147 98.1954 58.8574 99.4394 58.4291C100.24 58.1538 100.915 57.9484 100.94 57.9731C100.964 57.9976 100.339 59.0377 99.5498 60.2845C98.7613 61.5311 98.0198 62.7099 97.9033 62.904L97.6911 63.2569H87.7502C80.7164 63.2569 77.8091 63.2227 77.8091 63.1399C77.8091 62.906 77.5688 60.379 77.5441 60.3524C77.5207 60.3272 75.164 61.4106 72.385 62.7238L71.257 63.2569L58.8299 63.2561L57.6335 60.5892C56.9755 59.1223 56.3693 57.7546 56.2863 57.5496C56.2035 57.3446 56.1056 57.1771 56.0688 57.1773C56.032 57.1775 55.7593 58.1097 55.4627 59.2487C54.7476 61.9939 54.3364 62.6784 53.1472 63.102C52.6559 63.277 48.3342 63.3222 48.3342 63.1523ZM77.2118 55.8916C77.1827 55.6729 77.1061 54.8597 77.0417 54.0843C76.9772 53.309 76.9137 52.6638 76.9003 52.6506C76.887 52.6372 76.6539 53.0028 76.3826 53.463C75.327 55.2523 73.6453 58.1048 73.588 58.2026C73.5549 58.2592 73.7938 58.1559 74.1187 57.9729C74.4435 57.79 75.2844 57.3363 75.9871 56.9648L77.2649 56.2893L77.2118 55.8916Z" fill="white"/>
<path d="M106.906 49.9317C107.388 49.3701 108.104 48.9367 108.848 48.7564C109.232 48.6633 110.58 48.6187 113.211 48.6124L117.018 48.6031L117.364 51.5074C117.555 53.1048 117.921 56.1853 118.178 58.3529C118.462 60.7373 118.681 62.2169 118.733 62.0987C118.804 61.9348 120.279 56.4374 121.939 50.1508L122.348 48.6043L129.541 48.6031L130.62 52.4527C131.214 54.57 131.73 56.2679 131.767 56.2256C131.804 56.1834 131.963 55.6603 132.121 55.0632C133.479 49.9322 133.494 49.8902 134.211 49.262C134.91 48.6493 135.151 48.6031 137.642 48.6031C138.891 48.6031 139.913 48.6397 139.913 48.6845C139.913 48.77 136.985 59.8049 136.391 61.9575L136.047 63.2062L128.755 63.2633L127.845 60.0318C126.666 55.8432 126.636 55.7407 126.591 55.7858C126.569 55.8068 126.226 57.0453 125.826 58.538C125.426 60.0306 125.036 61.402 124.961 61.5855C124.758 62.0724 124.173 62.6955 123.663 62.9682C123.224 63.2027 123.139 63.2066 117.763 63.2371L112.309 63.268L112.246 62.64C112.211 62.2945 112.151 61.6333 112.113 61.1704C112.075 60.7076 112.029 60.329 112.012 60.329C111.993 60.329 110.571 60.9885 108.851 61.7947L105.723 63.2604H102.098C100.105 63.2604 98.4741 63.2316 98.4741 63.1964C98.4741 63.0491 106.544 50.354 106.906 49.9317ZM111.686 55.9983C111.661 55.8423 111.586 55.0307 111.519 54.1946C111.452 53.3586 111.385 52.6622 111.37 52.647C111.355 52.6319 110.623 53.8462 109.742 55.3455C108.861 56.8448 108.16 58.0922 108.187 58.1173C108.212 58.1425 109.019 57.7399 109.982 57.2226C111.627 56.3385 111.729 56.2649 111.686 55.9983Z" fill="white"/>
<path d="M46.2686 70.8891C46.2696 70.7255 46.4905 69.8984 46.6456 69.4776C46.7117 69.2984 47.7574 69.3012 48.1146 69.4815C48.4875 69.6699 48.6015 70.0561 48.45 70.6178L48.3255 71.0791H47.2964C46.3884 71.0791 46.2675 71.0567 46.2686 70.8891Z" fill="white"/>
<path d="M57.2887 78.784C57.3346 78.412 59.387 70.5641 59.7095 69.5279C59.8006 69.2354 60.931 69.2601 61.3164 69.5629C61.6488 69.8238 61.676 70.1215 61.4387 70.9022C61.1686 71.7909 61.1889 71.835 61.8693 71.835H62.4618L62.3439 72.1878C62.1665 72.7187 61.7358 73.1204 61.2387 73.2184L60.8009 73.3049L60.1797 75.6371C59.4902 78.226 59.4908 78.2461 60.2637 78.305C60.4919 78.3224 60.6854 78.3395 60.6937 78.343C60.7021 78.3464 60.6253 78.6791 60.5232 79.0823L60.3376 79.8151H59.0027C57.7105 79.8151 57.6609 79.8064 57.4481 79.544C57.2737 79.3285 57.2409 79.1726 57.2887 78.784Z" fill="white"/>
<path d="M96.0437 74.0133C96.6088 71.8935 97.1182 69.9759 97.1773 69.7518L97.2843 69.3447H97.918C98.3935 69.3447 98.6222 69.4005 98.8378 69.5698C99.1707 69.831 99.1951 70.1053 98.9612 70.9733C98.8326 71.4523 98.7726 71.6672 98.8543 71.7635C98.9212 71.8436 99.0856 71.8419 99.389 71.8419H99.9793L99.8801 72.1867C99.735 72.6924 99.2568 73.1383 98.7787 73.2148C98.5361 73.2534 98.3475 73.3521 98.3162 73.4567C98.2875 73.5539 98.071 74.3418 97.8363 75.2077C97.2486 77.371 97.073 77.9631 97.2782 78.1622C97.3668 78.2482 97.5277 78.2608 97.7563 78.295C97.9797 78.3285 98.1101 78.3374 98.1666 78.4068C98.251 78.5096 98.1719 78.7447 97.9884 79.3877L97.8641 79.822L96.7166 79.8526C95.4082 79.8876 95.0361 79.7889 94.8709 79.3625C94.7249 78.9839 94.7466 78.8829 96.0437 74.0133Z" fill="white"/>
<path d="M102.169 71.0117C102.169 70.9322 102.484 69.6719 102.556 69.4635C102.637 69.2278 103.942 69.3462 104.241 69.6166C104.441 69.7966 104.467 69.9079 104.416 70.3473C104.382 70.6323 104.324 70.9133 104.288 70.9715C104.218 71.0843 102.169 71.1232 102.169 71.0117Z" fill="white"/>
<path d="M129.475 79.82C129.475 79.7101 132.209 69.5138 132.261 69.4297C132.346 69.2921 133.415 69.3303 133.714 69.4816C134.273 69.7635 134.261 69.8381 132.886 75.0169L131.596 79.8731L130.535 79.8734C129.952 79.8735 129.475 79.8495 129.475 79.82Z" fill="white"/>
<path d="M49.4118 74.4189C49.8662 73.1011 50.67 72.3354 52.0768 71.8804C53.9142 71.286 55.8698 71.7575 56.3526 72.911C56.6046 73.513 56.4862 74.3183 55.7167 77.2397L55.0232 79.8723L54.289 79.8726C53.4981 79.8728 53.1198 79.6643 53.1198 79.2281C53.1198 79.1125 53.389 78.0167 53.718 76.793C54.3614 74.4002 54.4064 74.0782 54.1491 73.7115C53.7352 73.1215 52.7088 73.1665 51.9782 73.8069C51.5743 74.1608 51.5344 74.2756 50.6136 77.7285L50.0418 79.8728H48.9588C48.1196 79.8728 47.888 79.8413 47.9297 79.7328C47.9593 79.6558 48.2566 78.5687 48.5903 77.3171C48.9241 76.0653 49.2937 74.7611 49.4118 74.4189Z" fill="white"/>
<path d="M64.2248 73.0959C64.8433 72.4204 65.2639 72.1345 66.0864 71.8306C66.8419 71.5512 68.631 71.5821 69.2161 71.8848C70.2268 72.4075 70.5901 73.1832 70.4873 74.5995C70.4523 75.0821 70.3551 75.6723 70.2713 75.9112L70.1189 76.3454L64.7568 76.4035V76.9927C64.7568 77.828 65.0491 78.1526 65.8626 78.2198C66.5015 78.2727 66.9687 78.1095 67.4573 77.6628C67.6709 77.4674 67.873 77.4252 68.7479 77.3932L69.7851 77.3551L69.5822 77.7089C69.2112 78.3558 68.3135 79.1733 67.5847 79.5277C66.2827 80.1611 64.5006 80.182 63.6148 79.574C62.9905 79.1458 62.5815 78.2967 62.5815 77.4291C62.5815 75.9658 63.2774 74.1307 64.2248 73.0959ZM68.3443 74.4726C68.3425 73.898 68.3005 73.8076 67.9139 73.5434C67.2335 73.0786 66.0311 73.4745 65.5046 74.3369C65.3398 74.6064 65.2332 74.7646 65.2744 74.8573C65.3363 74.9971 65.7335 74.9883 66.7723 74.9883H68.346L68.3443 74.4726Z" fill="white"/>
<path d="M78.7108 73.9038C79.2702 72.783 79.9046 72.2716 81.2906 71.8243C82.5067 71.4318 84.2728 71.6586 84.9665 72.2963C85.7356 73.0034 85.7129 73.6956 84.8078 77.1251L84.0833 79.8711H83.3867C82.2011 79.8711 82.0267 79.6063 82.3701 78.3268C83.1723 75.3369 83.366 74.4997 83.3363 74.1521C83.244 73.0694 81.5121 73.0184 80.7974 74.0774C80.6752 74.2583 80.2878 75.4772 79.9364 76.7859C79.5849 78.0946 79.2542 79.3242 79.2013 79.5182L79.1052 79.8711H76.9719L77.107 79.3554C78.098 75.5708 78.4126 74.5013 78.7108 73.9038Z" fill="white"/>
<path d="M88.3915 72.6285C88.9601 72.1053 89.2235 71.954 89.8833 71.7721C90.1528 71.6978 90.8622 71.6341 91.4612 71.6306C93.3721 71.6194 94.2997 72.2192 94.2093 73.409C94.1554 74.1224 93.4242 76.8237 93.0713 77.6132C92.7835 78.2569 91.9472 79.1541 91.3447 79.465C90.3458 79.9806 88.0829 80.1858 87.2734 79.8342C86.1683 79.3543 85.9154 78.2988 86.5629 76.8681C87.1088 75.6617 88.016 75.1531 90.2041 74.8266C91.7142 74.6012 92.2949 74.2518 92.1132 73.6789C91.9628 73.207 90.4623 73.1314 89.8703 73.5659C89.646 73.7306 89.3791 73.7799 88.6193 73.7966C88.0881 73.8081 87.6408 73.7863 87.6248 73.748C87.5604 73.5953 87.9351 73.0486 88.3915 72.6285ZM91.456 76.5938C91.5482 76.2835 91.6238 75.9897 91.6238 75.9407C91.6238 75.9176 91.6281 75.8987 91.6212 75.8869C91.5951 75.8438 91.4151 75.8939 90.3189 76.1734C89.6903 76.3335 89.074 76.5202 88.9479 76.5882C88.422 76.8713 88.1412 77.7906 88.4619 78.1766C88.6602 78.4148 89.6025 78.3981 90.1563 78.1466C90.7475 77.8785 91.2543 77.2738 91.456 76.5938Z" fill="white"/>
<path d="M106.04 73.1513C106.521 72.6011 107.462 71.9691 108.096 71.7708C108.639 71.6012 110.239 71.5804 110.799 71.7356C111.388 71.8988 112.019 72.5062 112.224 73.1091C112.751 74.6507 112.041 77.1656 110.677 78.5926C109.8 79.5106 108.942 79.8993 107.665 79.9578C106.528 80.0097 105.965 79.8854 105.361 79.4493C104.542 78.8572 104.301 77.829 104.614 76.2781C104.834 75.1911 105.463 73.8118 106.04 73.1513ZM109.147 77.5943C110.209 76.5002 110.63 74.2929 109.904 73.6357C109.788 73.5317 109.506 73.4258 109.278 73.4006C107.934 73.2526 106.844 74.6013 106.665 76.6354C106.581 77.5899 106.73 77.9542 107.302 78.1821C107.938 78.4363 108.506 78.2557 109.147 77.5943Z" fill="white"/>
<path d="M114.665 73.1794C115.095 72.5872 115.542 72.2846 116.526 71.9229C117.247 71.6571 117.468 71.6253 118.378 71.655C119.242 71.6834 119.503 71.7361 119.973 71.9778C120.684 72.3437 120.988 72.7667 121.064 73.4956C121.122 74.0663 121.003 74.6094 119.926 78.6785L119.624 79.8186L118.897 79.8505C118.284 79.8775 118.136 79.8478 117.948 79.6606C117.825 79.5384 117.725 79.3403 117.725 79.2203C117.725 79.1004 117.995 77.9858 118.323 76.7434C118.653 75.501 118.921 74.3643 118.921 74.2171C118.921 73.3389 117.646 73.0161 116.678 73.6495C116.284 73.9068 116.045 74.5503 115.32 77.2942L114.639 79.8728H113.564C112.592 79.8728 112.495 79.8548 112.547 79.6828C112.579 79.5783 112.707 79.1019 112.832 78.6242C113.93 74.449 114.09 73.9711 114.665 73.1794Z" fill="white"/>
<path d="M123.063 73.2906C123.446 72.6713 124.231 72.0682 124.949 71.8409C125.784 71.5763 127.451 71.547 128.246 71.7829C129.026 72.0141 129.473 72.5365 129.473 73.2182C129.473 73.8199 128.705 76.8103 128.338 77.6396C128.05 78.289 127.275 79.1152 126.661 79.4283C125.928 79.8012 125.078 79.9821 123.969 80.0013C123.001 80.0181 122.832 79.9915 122.409 79.7552C121.711 79.367 121.484 79.0058 121.494 78.3048C121.505 77.5288 121.823 76.6841 122.315 76.127C122.867 75.5011 123.782 75.1139 125.318 74.8571C126.967 74.5811 127.466 74.3189 127.387 73.7693C127.311 73.228 125.75 73.0926 125.102 73.571C124.856 73.753 124.638 73.7903 123.821 73.7903C123.28 73.7903 122.838 73.7595 122.838 73.7217C122.838 73.684 122.94 73.4899 123.063 73.2906ZM125.495 78.1258C126.148 77.8191 126.84 76.7627 126.858 76.0432C126.86 75.9386 126.826 75.8597 126.781 75.8676C126.354 75.9433 124.401 76.5047 124.21 76.6069C123.642 76.9101 123.373 78.005 123.81 78.238C124.154 78.4218 124.981 78.3668 125.495 78.1258Z" fill="white"/>
<path d="M45.6729 73.0381C45.829 72.4134 45.9805 71.8638 46.0098 71.8166C46.0389 71.7695 46.347 71.7309 46.6943 71.7309C47.4517 71.7309 47.9004 72.0073 47.8966 72.4717C47.8953 72.6315 47.7233 73.3974 47.5144 74.1738C47.3053 74.95 46.8803 76.5502 46.5696 77.7295L46.0048 79.8738H44.9397C44.3539 79.8738 43.8748 79.8508 43.8748 79.8227C43.8748 79.7564 44.8936 75.9222 45.1738 74.9338C45.2922 74.5157 45.517 73.6627 45.6729 73.0381Z" fill="white"/>
<path d="M75.8507 71.9539C76.1796 71.8885 76.5468 71.8157 76.6664 71.7922C77.0594 71.7149 77.5909 71.7227 77.5926 71.8057C77.5936 71.8505 77.4876 72.3331 77.3569 72.8782L77.1194 73.8691L76.4035 73.9205C75.5062 73.9847 74.867 74.2993 74.531 74.8421C74.3901 75.0696 74.0076 76.2669 73.6713 77.5326L73.0655 79.813L72.0109 79.844C71.356 79.8633 70.9563 79.8337 70.9563 79.766C70.9563 79.4187 72.1905 75.1834 72.4554 74.6216C73.0876 73.2806 74.4126 72.2397 75.8507 71.9539Z" fill="white"/>
<path d="M100.816 76.0166C101.332 74.046 101.804 72.2748 101.864 72.0808C101.972 71.732 101.98 71.728 102.644 71.7314C103.365 71.7351 103.632 71.863 103.786 72.2791C103.884 72.5441 103.753 73.101 102.446 77.9437L101.927 79.8709H100.856C100.05 79.8709 99.7984 79.8376 99.8323 79.7352C99.8567 79.6606 100.299 77.9872 100.816 76.0166Z" fill="white"/>
<path d="M51.4888 83.6633C51.4888 83.6009 51.5682 83.2344 51.6652 82.849L51.8416 82.1481H52.5897C53.6719 82.1481 53.9748 82.5143 53.6534 83.4347L53.534 83.7766H52.5114C51.8732 83.7766 51.4888 83.734 51.4888 83.6633Z" fill="white"/>
<path d="M84.0544 88.5539C84.7822 85.8361 85.4987 83.1463 85.6379 82.6094L85.7575 82.1481H86.4788C87.6001 82.1481 87.823 82.539 87.4337 83.8211C87.3446 84.1142 87.2717 84.3951 87.2717 84.4453C87.2717 84.4956 87.5409 84.5366 87.8699 84.5366C88.5211 84.5366 88.5471 84.572 88.3115 85.1349C88.1325 85.5621 87.5758 85.9471 87.1357 85.9477C86.9713 85.9479 86.8367 85.9739 86.8367 86.0052C86.8367 86.0366 86.5675 87.0638 86.2385 88.287C85.9095 89.5111 85.6403 90.6039 85.6403 90.716C85.6403 90.956 85.8447 91.0507 86.3648 91.0507C86.7368 91.0507 86.7435 91.0585 86.6681 91.4011C86.6257 91.5941 86.5332 91.9488 86.4627 92.1887L86.3343 92.6251L85.1084 92.6051C84.251 92.5903 83.7376 92.5869 83.4994 92.3287C83.1417 91.9409 83.4043 90.9812 84.0544 88.5539Z" fill="white"/>
<path d="M43.0237 85.2757C43.511 84.9053 44.2186 84.5547 44.7132 84.4383C45.3977 84.2773 46.8307 84.3061 47.4629 84.4935C48.1682 84.7026 48.7202 85.2126 48.8209 85.7479C48.9095 86.2197 48.0493 89.5587 47.6067 90.4611C47.2492 91.1905 46.4521 91.9555 45.6847 92.3058C45.0033 92.6171 43.6213 92.8318 42.7766 92.7579C42.0735 92.6962 41.3796 92.3754 41.0545 91.9633C40.6015 91.3878 40.8753 89.7438 41.5656 88.8927C41.9829 88.3781 42.9515 87.9139 44.0147 87.72C44.5045 87.6304 45.1512 87.5113 45.4519 87.4557C46.256 87.307 46.6999 87.0045 46.6999 86.6056C46.6999 86.2385 46.5327 86.119 45.8842 86.0221C45.3215 85.938 44.6759 86.0881 44.3712 86.3739C44.1629 86.5693 43.9937 86.6002 43.1309 86.6002C42.5813 86.6002 42.1318 86.5678 42.1318 86.5283C42.1318 86.3261 42.7098 85.5143 43.0237 85.2757ZM44.2906 91.0418C45.2289 90.8505 45.9127 90.0664 46.1986 88.8528C46.2373 88.6884 46.2313 88.5607 46.1853 88.5676C46.1393 88.5746 45.5165 88.7397 44.8013 88.9353C43.4289 89.31 43.0881 89.5317 42.9326 90.149C42.7438 90.9001 43.2738 91.2487 44.2906 91.0418Z" fill="white"/>
<path d="M61.6327 85.5717C62.1591 85.122 63.0669 84.6834 63.8787 84.4867C65.207 84.1647 66.5358 84.3587 67.2977 84.9856C68.6321 86.0837 68.0218 89.6047 66.1716 91.4807C65.3069 92.357 64.5148 92.7204 63.4548 92.7274C62.4967 92.7343 61.9456 92.5144 61.6159 91.9945C61.5288 91.8571 61.4772 91.7572 61.4278 91.758C61.3344 91.7598 61.2485 92.1232 60.9448 93.2786C60.536 94.833 60.3998 95.1207 59.9419 95.3998C59.5036 95.6667 58.1721 95.7136 58.27 95.4589C58.3027 95.3737 58.8015 93.5298 59.3787 91.3599C60.519 87.0731 60.8401 86.2489 61.6327 85.5717ZM65.8476 87.5321C65.8476 87.0939 65.6158 86.4549 65.4108 86.3284C65.0041 86.0775 64.0987 86.0906 63.618 86.3544C62.8265 86.7885 62.04 88.4258 62.0413 89.6368C62.0417 90.0811 62.3578 90.6557 62.7032 90.8409C63.0692 91.0356 64.0139 90.9165 64.4276 90.6227C65.1571 90.1037 65.8476 88.6005 65.8476 87.5321Z" fill="white"/>
<path d="M68.8082 89.8795C68.9455 87.2202 70.4822 85.0107 72.589 84.4432C73.2015 84.2782 74.5651 84.3035 75.1136 84.49C76.6139 85.0003 77.0834 86.7391 76.3277 88.9858C75.8312 90.4629 74.8783 91.6904 73.8031 92.2381C72.6754 92.8119 71.1276 92.9144 70.1589 92.4789C69.5618 92.2103 69.2889 91.9564 68.9961 91.3957C68.7799 90.9819 68.7596 90.8184 68.8082 89.8795ZM74.2527 88.9119C74.673 87.6374 74.6175 86.7381 74.0917 86.3044C73.8372 86.0943 73.2045 86.0623 72.7259 86.2348C71.862 86.5467 71.2049 87.6175 70.9652 89.1032C70.7857 90.2151 71.0452 90.8506 71.7411 91.0036C72.3486 91.1366 72.8033 90.9619 73.3973 90.3664C73.8654 89.8978 74.0073 89.6561 74.2527 88.9119Z" fill="white"/>
<path d="M49.1176 92.4408C49.1439 92.3661 49.6251 90.5578 50.1869 88.4235L51.2082 84.5419H51.9935C52.6817 84.5419 52.7996 84.5718 52.948 84.7832C53.0412 84.916 53.1174 85.1239 53.1174 85.2454C53.1174 85.3669 52.7195 86.9561 52.2333 88.7774C51.7472 90.5978 51.3254 92.1974 51.2961 92.3322C51.2453 92.5652 51.195 92.5765 50.1564 92.5765C49.3341 92.5765 49.0815 92.5434 49.1176 92.4408Z" fill="white"/>
<path d="M54.6949 87.3905C55.3278 86.0519 56.4748 85.1027 57.933 84.7108C58.2462 84.6265 58.8116 84.5545 59.1894 84.5506C59.7941 84.5442 59.8699 84.5661 59.8213 84.7334C59.791 84.8379 59.7142 85.1309 59.6509 85.3848C59.5875 85.6386 59.4848 86.0417 59.4227 86.2805L59.3097 86.7148L58.5797 86.7166C57.0677 86.7204 56.693 87.2192 55.8896 90.2976C55.6169 91.3426 55.3554 92.2928 55.3086 92.4084C55.2322 92.5971 55.1192 92.6171 54.2119 92.6031C53.6554 92.5945 53.1893 92.5727 53.176 92.5553C53.0924 92.4458 54.3888 88.0373 54.6949 87.3905Z" fill="white"/>
<path d="M78.0862 88.0921C78.6747 86.3564 79.918 85.1753 81.6458 84.7108C81.9589 84.6265 82.5244 84.5545 82.9022 84.5506C83.5076 84.5442 83.5826 84.566 83.5323 84.7334C83.5009 84.8379 83.3786 85.2769 83.2604 85.709C83.1422 86.1411 83.0199 86.5361 82.9885 86.5869C82.9572 86.6374 82.6283 86.6897 82.2576 86.7031C81.1905 86.7415 80.5788 87.1532 80.2239 88.0721C80.1548 88.2512 79.8506 89.3239 79.5483 90.4558C79.2458 91.5877 78.9823 92.5293 78.9627 92.5493C78.9431 92.5684 78.4678 92.5892 77.9064 92.5936C77.1054 92.6014 76.8886 92.571 76.8988 92.4545C76.9231 92.1763 77.8252 88.8623 78.0862 88.0921Z" fill="white"/>
</svg>
