<svg width="51" height="60" viewBox="0 0 51 60" fill="none" xmlns="http://www.w3.org/2000/svg">
    <g opacity="0.75">
        <mask id="mask0_2037_10018" style="mask-type:luminance" maskUnits="userSpaceOnUse" x="0" y="4" width="51"
            height="52">
            <path d="M50.0329 4.9834H0V55.0163H50.0329V4.9834Z" fill="white" />
        </mask>
        <g mask="url(#mask0_2037_10018)">
            <path fill-rule="evenodd" clip-rule="evenodd"
                d="M-0.00323486 4.98291H50.0296V55.0158H-0.00323486V4.98291ZM11.5411 16.4678L15.2182 8.83107H19.2366V20.3744H16.4185V12.114L12.8237 19.0918H10.2585L6.66371 12.114V20.3744H3.85142V8.83107H7.86393L11.5411 16.4678ZM33.3313 8.83107V11.1315H38.3558L38.344 20.3744H41.1563L41.168 11.1315H46.1984V8.83107H33.3313ZM42.8285 48.4387C43.1285 48.1563 43.3109 47.7739 43.3815 47.315L46.1997 47.3091C46.1232 48.2622 45.7996 49.0741 45.2348 49.7213C44.7171 50.3155 44.0052 50.7509 43.1168 51.0157C42.2578 51.2745 41.187 51.4099 39.8397 51.4099C38.4865 51.4099 37.3157 51.2157 36.3567 50.8333C35.38 50.445 34.6211 49.7978 34.1033 48.9094C33.6032 48.0563 33.3443 46.9208 33.3267 45.5264V45.397L33.4797 45.3911L33.3267 45.3852V45.2558C33.3443 43.8614 33.6032 42.7259 34.1033 41.8728C34.6269 40.9844 35.38 40.3372 36.3567 39.9489C37.3216 39.5665 38.4924 39.3723 39.8397 39.3723C41.1223 39.3723 42.2519 39.5076 43.1168 39.7665C44.0052 40.0313 44.7171 40.4667 45.2348 41.0609C45.7996 41.7081 46.1232 42.52 46.1997 43.4731H43.3815C43.3109 43.0142 43.1226 42.6376 42.8285 42.3494C42.5461 42.0787 42.1695 41.8846 41.6988 41.7787C41.2341 41.6728 40.581 41.608 39.8338 41.608C39.0866 41.608 38.4276 41.7081 37.8687 41.8963C37.3274 42.0846 36.8979 42.4023 36.5979 42.8553C36.292 43.3084 36.139 43.9614 36.139 44.8028V45.9853C36.139 46.8208 36.292 47.4797 36.5979 47.9327C36.8979 48.3858 37.3274 48.7094 37.8687 48.8918C38.4276 49.0859 39.1101 49.18 39.8338 49.18C40.5575 49.18 41.2341 49.1153 41.6988 49.0094C42.1695 48.8976 42.5461 48.7094 42.8285 48.4387Z"
                fill="white" fill-opacity="0.9" />
        </g>
    </g>
</svg>