<svg width="171" height="61" viewBox="0 0 171 61" fill="none" xmlns="http://www.w3.org/2000/svg">
    <path fill-rule="evenodd" clip-rule="evenodd"
        d="M133.218 36.254C133.435 36.556 133.505 37.1557 133.303 37.6748C133.115 38.1558 132.865 38.4398 132.378 38.6422C131.715 38.9197 130.839 38.6623 130.557 38.3243C130.557 38.3243 128.282 35.6385 127.025 34.1107C126.802 33.885 126.689 33.6784 126.455 33.4485L120.392 33.4771C118.888 33.4834 117.113 31.7395 117.113 30.3505V29.8144L128.403 29.8006C128.825 29.8006 129.299 29.417 129.53 28.9159C129.739 28.4646 129.736 28.099 129.53 27.6445C129.285 27.1042 128.727 26.7174 128.29 26.7196L116.011 26.7524L115.975 26.8721V37.4884C115.975 38.1961 114.969 39.1052 113.984 39.0151C113.075 38.9303 112.328 38.0329 112.329 37.4057L112.343 26.1538C112.344 24.982 112.696 24.5253 113.46 23.8801C114.203 23.2518 114.875 23.113 115.861 23.1141L129.189 23.1278C131.091 23.1299 132.872 24.5285 133.586 26.5447C134.352 28.7061 133.645 30.6196 131.922 32.1771C131.539 32.5235 130.84 32.9505 130.84 32.9505L133.218 36.254ZM106.065 38.4769C105.492 38.996 104.552 39.1062 103.901 38.8085C102.873 37.9185 102.163 36.8134 101.337 35.8239L87.4968 35.7953L85.8622 37.9482C85.3449 38.6263 84.6898 39.0924 83.6806 38.9197C83.157 38.8149 82.6587 38.3879 82.4849 37.9238C82.2167 37.3241 82.2453 36.7584 82.5983 36.2117L91.3713 24.9375C92.107 23.8705 92.902 23.1066 94.2758 23.1141C96.4351 23.1416 96.5835 23.6692 98.0729 25.5265C100.148 28.3268 104.34 33.5809 106.463 36.5422C106.731 37.2139 106.418 37.9312 106.065 38.4769ZM75.3084 33.3923H66.3096C64.993 33.2366 63.9828 32.3106 63.4623 31.2383C63.2842 30.8188 63.2747 30.2297 63.2249 29.7921L63.6902 29.8006H74.5674C75.037 29.8006 75.4854 29.3842 75.7069 28.8608C75.9105 28.3819 75.8977 27.9941 75.6508 27.5364C75.3773 27.0268 74.8833 26.7058 74.3978 26.7058H62.2655L62.1521 26.817V37.2383C62.1521 38.2078 61.2797 38.9229 60.2504 38.9039C59.3483 38.888 58.5066 38.177 58.5066 37.2574V26.0966C58.5066 25.1748 58.8691 24.6313 59.5444 24.0093C60.2525 23.3588 61.1843 23.1119 61.8669 23.113L75.2522 23.1268C77.8313 23.1289 79.9228 25.7014 79.8528 28.3946C79.785 30.9925 77.4497 33.3913 75.3084 33.3913V33.3923ZM50.1916 37.2606C48.8103 38.9134 46.9203 38.9346 44.8383 38.9325L32.7061 38.9197C31.3905 38.9176 30.2817 37.66 30.0952 36.3674L30.0867 35.7137L46.1019 35.7296C46.6383 35.7296 47.3252 35.0112 47.3432 34.277C47.3644 33.4834 46.7994 32.7301 45.98 32.7301H34.4435C32.4485 32.7301 30.4142 30.912 30.0867 28.6404C29.8217 26.8033 30.4439 25.4121 31.9131 24.2255C33.023 23.3302 33.8668 23.0738 35.4198 23.0717L46.0902 23.059C47.7386 23.0282 49.5333 23.3048 50.3061 24.8262C50.5403 25.2913 50.6633 25.7967 50.6474 26.4155L35.5746 26.4208C35.1145 26.4208 34.3947 26.6751 34.1308 27.2578C33.8011 27.9846 34.1806 28.8163 34.9269 29.1373C35.2247 29.2655 35.7526 29.2475 35.7526 29.2475H46.7178C48.6789 29.3821 50.428 30.6058 51.1022 32.6189C51.6905 34.3713 51.3894 35.8292 50.1916 37.2606ZM0.355499 17.1226L0.355499 44.6697H137.102L137.13 17.1226H0.355499Z"
        fill="white" fill-opacity="0.75" />
    <path fill-rule="evenodd" clip-rule="evenodd"
        d="M164.628 38.3622C163.269 39.5489 161.803 40.797 159.915 40.4071C159.425 40.2976 158.976 40.0536 158.617 39.7027C158.259 39.3517 158.006 38.9076 157.886 38.4205C157.665 37.5475 157.72 36.7105 157.831 35.8088L165.494 35.794L165.286 35.5249C161.419 30.8366 158.349 25.5443 156.297 19.9692C154.09 25.6153 150.994 31.1926 147.307 35.8236L154.817 35.8088C154.773 36.8408 155.007 38.1016 154.544 38.9873C154.076 39.96 152.98 40.442 151.967 40.4632C148.938 40.1729 146.924 37.4341 145.772 34.8436C144.431 31.6587 144.925 27.2883 147.032 24.5675C149.965 20.5625 155.144 18.9457 159.97 20.4799C162.912 21.4292 165.53 23.7845 166.821 26.7818C168.352 30.4954 167.448 35.4613 164.628 38.3622ZM168.959 24.6247C167.831 22.5915 166.172 20.677 164.299 19.4575C160.091 16.5905 153.843 16.3637 149.445 18.7773C144.938 21.159 141.827 26.1398 142.154 31.5496C142.431 37.3483 146.54 42.4 151.857 43.9829C157.5 45.8211 163.884 43.8621 167.534 39.3846C170.68 35.4348 171.476 29.2187 168.959 24.6247Z"
        fill="white" fill-opacity="0.75" />
    <path fill-rule="evenodd" clip-rule="evenodd"
        d="M94.6226 23.2239C94.5105 23.2054 94.3931 23.5511 94.3931 23.5511L90.0458 33.8131H98.7847C97.5472 30.278 96.1193 26.9963 94.8204 23.5926C94.8204 23.5926 94.7305 23.2423 94.6226 23.2239Z"
        fill="white" fill-opacity="0.75" />
</svg>