<svg width="202" height="60" viewBox="0 0 202 60" fill="none" xmlns="http://www.w3.org/2000/svg">
    <g opacity="0.75" clip-path="url(#clip0_2040_10122)">
        <path
            d="M20.6935 12.2188V30.6286C20.6935 31.4895 20.0313 32.0855 19.2366 32.0855H17.0513C16.9188 32.0855 16.8526 32.218 16.8526 32.2842V47.7141C17.3824 47.7141 17.9122 47.8465 18.5082 47.8465C28.3753 47.8465 36.3883 39.8336 36.3883 29.9664C36.3883 20.8939 29.5673 13.2783 20.6935 12.2188ZM20.2962 39.7674C19.0379 39.7674 18.1108 38.7078 18.1108 37.582C18.1108 36.3238 19.1704 35.3967 20.2962 35.3967C21.5544 35.3967 22.4815 36.4562 22.4815 37.582C22.614 38.774 21.5544 39.7674 20.2962 39.7674ZM25.5278 39.7674C24.2695 39.7674 23.3424 38.7078 23.3424 37.582C23.3424 36.3238 24.402 35.3967 25.5278 35.3967C26.786 35.3967 27.7131 36.4562 27.7131 37.582C27.7131 38.7078 26.8522 39.7674 25.5278 39.7674ZM30.8256 39.7674C29.5673 39.7674 28.6402 38.7078 28.6402 37.582C28.6402 36.3238 29.6998 35.3967 30.8256 35.3967C32.0838 35.3967 33.0109 36.4562 33.0109 37.582C33.0109 38.7078 32.0838 39.7674 30.8256 39.7674Z"
            fill="white" />
        <path
            d="M18.5075 12.1533C8.64032 12.1533 0.62738 20.1663 0.62738 30.0334C0.62738 38.7086 6.65364 45.7944 14.7328 47.45V31.3579C14.7328 30.6294 15.395 30.0334 16.0572 29.901H18.2426C18.375 29.901 18.4413 29.7685 18.4413 29.7023L18.5075 12.1533ZM15.0639 26.8547C13.8057 26.8547 12.8786 25.7952 12.8786 24.6694C12.8786 23.4112 13.9381 22.484 15.0639 22.484C16.3221 22.484 17.2493 23.5436 17.2493 24.6694C17.2493 25.7952 16.2559 26.8547 15.0639 26.8547Z"
            fill="white" />
        <path
            d="M197.508 21.8875V28.6422H188.502V21.8875H183.932V39.7676H188.502V32.5493H197.508V39.7676H201.945V21.8875H197.508ZM123.074 23.9404C122.345 22.351 120.889 21.4902 119.432 21.4902C117.975 21.4902 116.452 22.351 115.789 23.9404L108.571 39.8338H113.339L114.929 36.0591H124.2L125.789 39.8338H130.557L123.074 23.9404ZM116.187 32.4831L118.902 25.9271C119.034 25.7284 119.101 25.7284 119.233 25.7284C119.365 25.7284 119.564 25.7284 119.564 25.9271L122.279 32.4831H116.187ZM69.8309 18.7088C67.7118 18.7088 66.3873 19.8346 65.394 22.0862L59.6326 35.5293L53.805 22.0199C52.8779 19.8346 51.4873 18.6426 49.3681 18.6426C47.3815 18.6426 45.3948 19.967 45.3948 23.0795V39.7014H49.8317V23.6755L55.7255 36.9862C56.4539 38.9067 57.8446 40.0325 59.6326 40.0325C61.5531 40.0325 62.8113 38.9067 63.5398 36.9862L69.4336 23.6755V39.9H73.8705V23.2782C73.8043 20.1657 71.8176 18.7088 69.8309 18.7088ZM81.6848 35.9929C81.4861 35.9929 81.2212 35.7942 81.2212 35.5293V32.3507H92.3466V28.7084H81.2212V25.9933C81.2212 25.7946 81.4199 25.5297 81.6848 25.5297H92.7439V21.755H79.4994C77.9101 21.755 76.8505 23.0133 76.8505 24.4039V36.92C76.8505 38.2445 77.9763 39.5689 79.4994 39.5689H92.7439V35.7942H81.6848V35.9929ZM100.227 39.7676V26.1257C100.227 25.9271 100.426 25.6622 100.691 25.6622H111.75V21.8875H98.5053C96.916 21.8875 95.8564 23.1457 95.8564 24.5364V39.7014L100.227 39.7676ZM181.019 30.8938C181.019 24.6688 178.304 21.755 171.549 21.755H169.959C163.205 21.755 160.49 24.7351 160.49 30.8938C160.49 36.9862 163.205 40.0325 169.959 40.0325H171.416C178.304 39.9 181.019 36.9862 181.019 30.8938ZM171.416 36.2578H169.959C166.317 36.2578 164.794 34.6022 164.794 30.8938C164.794 27.3177 166.052 25.5297 169.959 25.5297H171.416C175.191 25.5297 176.582 27.3177 176.582 30.8938C176.582 34.536 175.191 36.2578 171.416 36.2578ZM148.106 19.1061H139.232C132.61 19.1061 129.961 22.4835 129.961 28.2449C129.961 29.172 130.093 30.0329 130.16 30.7613C130.888 34.8671 133.338 37.3836 139.497 37.3836H141.484V39.7014H145.921V37.3836H147.841C154.066 37.3836 156.516 34.8671 157.179 30.7613C157.311 30.0329 157.377 29.172 157.377 28.2449C157.311 22.4835 154.596 19.1061 148.106 19.1061ZM141.351 33.6751H139.365C136.318 33.6751 135.259 32.5493 134.597 30.6951C134.398 30.0329 134.398 29.1057 134.398 28.1786C134.398 24.4039 136.186 22.8146 138.702 22.8146H141.418V33.6751H141.351ZM152.742 30.8938C152.079 32.6818 150.954 33.8738 147.974 33.8738H145.987V22.947H148.702C151.218 22.947 153.007 24.5364 153.007 28.3111C152.94 29.3044 152.94 30.0991 152.742 30.8938Z"
            fill="white" />
    </g>
    <defs>
        <clipPath id="clip0_2040_10122">
            <rect width="201.317" height="60" fill="white" transform="translate(0.62738)" />
        </clipPath>
    </defs>
</svg>