<svg width="279" height="61" viewBox="0 0 279 61" fill="none" xmlns="http://www.w3.org/2000/svg">
    <g opacity="0.75">
        <path fill-rule="evenodd" clip-rule="evenodd"
            d="M1.70252 26.2805L6.20009 26.2928C6.35068 25.9547 6.40559 25.5223 6.57437 25.1551C6.7021 24.8774 6.67786 24.6337 6.85389 24.3657C6.86785 24.3444 6.91679 24.291 6.93166 24.2696C6.96959 24.2152 7.00724 24.1562 7.03745 24.1031C7.3054 23.6314 7.34396 23.6133 7.69998 23.2565C7.96535 22.9906 8.26719 22.7985 8.57646 22.6249C9.3152 22.2102 11.5125 21.9926 12.4598 22.3866C13.0183 22.6188 13.659 22.7531 14.058 23.2705C14.4061 23.722 14.5467 24.0737 14.7167 24.6562C14.9428 25.4308 14.8672 26.4891 14.6509 27.3008C14.6015 27.4863 14.5002 27.5505 14.3927 27.7218L13.2681 28.9031C13.1063 28.9961 13.2238 28.9265 13.0263 29.0079C13.0052 29.0166 12.9801 29.0242 12.9589 29.0331C12.938 29.042 12.9142 29.0517 12.8936 29.0608L12.1406 29.2658C11.928 29.2781 11.6157 29.2603 11.4227 29.2864C10.8548 29.3632 11.4181 29.4395 10.801 29.4393L7.94442 29.4543C7.79364 33.4071 7.87105 32.7968 8.8422 32.7967C9.69821 32.7965 11.2763 32.6559 12.0221 32.8875C12.8751 33.1524 13.4816 32.904 14.7644 33.8006C15.0851 34.0248 14.5847 33.9021 15.172 34.0048C15.2169 34.4628 15.2032 34.2783 15.3473 34.5302C15.4685 34.7422 15.3614 34.5077 15.464 34.7536L15.5859 35.08C15.9027 36.0507 15.8011 37.44 15.3753 38.3293C15.1071 38.8893 14.8903 39.272 14.4084 39.6674L13.4537 40.3052C12.3728 40.8111 10.332 40.9681 9.12108 40.5782C7.76582 40.1418 6.68135 39.335 6.13259 37.9827C5.88999 37.3848 5.69403 36.7195 5.63774 35.975C4.20837 35.9645 2.43888 35.8322 1.05019 35.976C1.0253 36.0727 1.00161 36.0916 0.979757 36.2415C0.842844 37.1795 1.38324 38.6769 1.83282 39.5027C1.99756 39.8052 1.96588 39.9883 2.13971 40.2743L2.64723 40.9153C3.21426 41.6955 3.26678 42.1212 4.22931 42.6518C4.45162 42.7744 4.36126 42.6995 4.53206 42.8612C4.54455 42.873 4.5631 42.892 4.57531 42.9045C4.58771 42.9171 4.60497 42.9373 4.61727 42.9504C4.88688 43.2363 5.18008 43.3626 5.52948 43.5647C5.78356 43.7117 5.58457 43.6384 5.90642 43.7348C6.42635 43.8907 6.5504 44.0763 7.10705 44.2205C7.37133 44.289 7.3458 44.3177 7.48217 44.3693C8.06049 44.5878 9.3489 44.7126 9.99967 44.7125C10.9869 44.7124 12.3387 44.8711 13.2591 44.5797C13.771 44.4176 13.9628 44.5951 14.4828 44.2929L14.8539 44.1404C15.041 44.078 15.0426 44.062 15.2477 44.0035C16.1324 43.7513 17.0209 43.2498 17.7834 42.6997L20.0749 39.8818C20.1044 39.8133 20.1272 39.7469 20.1499 39.683C20.648 38.278 20.6558 37.7892 20.6547 36.2399C20.6538 35.0007 20.3612 34.2398 19.6998 33.2282C19.6851 33.2058 19.6423 33.1408 19.6267 33.1191C19.3375 32.7173 19.0154 32.433 18.6282 32.1442C18.2327 31.8492 18.4007 31.8491 17.8873 31.6427L17.2458 31.3888C16.9245 31.1984 16.4298 31.2526 16.1349 30.8978C16.225 30.832 16.1329 30.8821 16.3114 30.797L17.463 30.1706C18.1895 29.5713 18.8905 28.8378 19.1842 27.9415C19.5275 26.8941 19.6688 26.9639 19.6688 25.5557C19.6688 24.4135 19.6237 23.3829 19.1583 22.4536L17.6246 20.4107C16.9032 19.8296 16.2219 19.3574 15.3869 18.924L13.1299 18.3202C12.014 18.1041 9.91464 18.1831 8.82632 18.4773L7.04323 18.84C6.15068 19.0649 5.50845 19.6352 4.77586 20.1405C4.22912 20.5176 3.77716 20.9832 3.36375 21.5043L2.93942 22.1509C2.81032 22.3598 2.65972 22.5351 2.53805 22.8138L1.99765 24.1473C1.80519 24.8944 1.66441 25.3567 1.70234 26.2804L1.70252 26.2805Z"
            fill="white" />
        <path fill-rule="evenodd" clip-rule="evenodd"
            d="M38.3293 36.5935C38.2547 36.9614 38.2058 37.4387 38.0967 37.7955C38.0522 37.9411 38.062 37.8579 37.9933 38.0491C37.6791 38.924 37.2159 39.5756 36.5614 40.251L36.474 40.3436C36.0853 40.7273 35.3515 40.9314 35.001 41.0851C34.6489 41.2395 34.9901 41.2238 34.5132 41.2686C33.1021 41.4012 31.4665 41.3441 30.4091 40.4257L30.3149 40.343C29.8402 39.9835 29.8323 40.0203 29.3641 39.3363C28.8368 38.566 28.6443 38.2549 28.446 37.4298C28.127 36.1019 28.1395 34.6987 28.2409 33.2973L29.1775 30.906C29.1883 30.8907 29.2042 30.8698 29.2151 30.8543C29.226 30.8385 29.2412 30.817 29.252 30.8009C30.4827 28.9943 32.6554 28.3532 34.8014 28.8499C35.8388 29.09 37.0633 29.9887 37.5939 30.996C37.8524 31.4868 38.0707 32.0224 38.1434 32.5935C38.1974 33.0186 38.165 32.8539 38.2725 33.1792C38.5364 33.9786 38.4747 35.8761 38.3292 36.5935H38.3293ZM32.8533 25.2861C32.8034 25.3133 31.1147 25.3639 30.713 25.4797C29.9681 25.6946 29.2536 25.8809 28.5516 26.2669L28.2632 26.4277C26.5363 27.3533 27.1633 27.2021 26.1118 28.102C26.0978 28.1141 26.0762 28.1294 26.0624 28.1419L24.7461 29.9502C24.6909 30.0607 24.6982 30.0871 24.6408 30.2038C24.1268 31.249 24.1419 31.6373 23.8333 32.4181C23.585 33.0464 23.6479 35.7171 23.7136 36.5959C23.7464 37.0348 23.8729 37.2845 23.9375 37.606C24.0336 38.0849 23.9292 38.1847 24.1045 38.6282L25.0887 40.6688C25.1533 40.7746 25.2651 40.9316 25.3526 41.0327C25.7824 41.5295 26.1582 41.9982 26.6497 42.4087L28.214 43.5285C28.883 43.8964 30.0897 44.4799 30.8536 44.5515C32.1191 44.6701 32.2701 44.7541 33.7969 44.7554C36.231 44.7574 36.4552 44.1726 37.2718 44.0358C37.811 43.9456 38.3022 43.6847 38.7108 43.3822C38.7326 43.3661 38.7921 43.3135 38.8124 43.2965C38.827 43.2843 38.8452 43.2653 38.8594 43.2532L40.1639 42.2511C40.1777 42.238 40.1959 42.2186 40.2095 42.2054L41.0822 41.1978C41.1738 41.0631 41.2043 40.9707 41.3213 40.8186L41.4447 40.677C41.5225 40.5844 41.5404 40.5691 41.6032 40.4755C42.0863 39.7549 42.5946 38.8333 42.6545 37.9273C42.7263 36.84 42.9978 37.6232 42.9371 34.4565C42.9202 33.5728 42.8892 32.6438 42.5967 31.8161L42.2834 30.878C41.87 29.9745 41.9829 30.058 41.5206 29.5765C41.4363 29.4886 41.4744 29.5406 41.4141 29.3693C41.2599 28.9307 40.9846 28.6865 40.7036 28.2738C40.4669 27.9265 40.2058 27.7172 39.8737 27.4808L39.5245 27.2037C39.5073 27.1922 39.484 27.179 39.4665 27.1681L39.1574 26.9641C39.1446 26.9521 39.1293 26.9303 39.1164 26.9178C38.8348 26.6464 38.5347 26.5515 38.2411 26.277L36.6981 25.6646C35.4569 25.2532 35.0847 25.3657 33.9951 25.2322C33.594 25.1831 33.2113 25.091 32.8532 25.2858L32.8533 25.2861Z"
            fill="white" />
        <path fill-rule="evenodd" clip-rule="evenodd"
            d="M49.3055 29.7578C49.3039 32.1706 49.233 37.8369 48.3664 39.5735L47.9699 40.2407C47.9347 40.3005 47.8837 40.4022 47.8325 40.4561C46.9994 41.3318 45.9455 40.1609 45.9458 41.2432L45.9513 44.5375C47.1148 44.7042 46.3409 44.7546 47.8164 44.7555C49.1516 44.7563 49.6576 44.4887 50.5378 43.8757C50.9235 43.6069 51.6026 42.5993 51.6829 42.437L51.9712 41.7402C52.2164 41.2532 52.5988 39.8987 52.699 39.3567C52.9277 38.1191 52.9616 35.5209 53.1215 34.5954C53.4004 32.9811 53.1641 31.3054 53.2734 30.2046C53.3133 29.8016 53.3656 30.0286 53.4178 29.6586C53.5291 28.8699 53.2372 28.9644 54.405 28.9652L58.8056 28.9905L58.8163 44.4716L63.2276 44.4683C63.3702 40.125 63.2358 34.5129 63.2358 29.9356L63.2403 26.2823C63.2514 25.612 63.3542 25.5745 62.6852 25.5745L50.1313 25.5744C49.4921 25.5741 49.4209 25.427 49.4164 26.0992L49.3963 28.6017C49.399 29.1289 49.3058 29.3193 49.3055 29.7576V29.7578Z"
            fill="white" />
        <path fill-rule="evenodd" clip-rule="evenodd"
            d="M70.8721 34.7518C70.8723 34.2977 70.8684 33.8267 70.9311 33.386C70.9697 33.1149 70.9759 33.04 71.0533 32.8116C71.2652 32.1872 71.0392 32.4286 71.2782 31.9691C71.7994 30.9673 71.615 30.7927 72.8414 29.7138C74.1068 28.6005 74.6575 28.9043 75.3716 28.7685C75.5875 28.7274 75.6005 28.6614 75.8485 28.6293C76.4266 28.5543 76.0592 28.7587 77.083 28.7944C77.4993 28.8089 77.7407 28.9247 78.1839 29.1147C79.334 29.6078 79.8259 30.3242 80.3125 31.3427L80.373 31.4594C80.3825 31.4756 80.3988 31.4956 80.4087 31.5114L80.516 31.6691C80.5228 31.6803 80.7301 32.0574 80.7322 32.0628C80.8025 32.2394 80.8143 32.465 80.8684 32.6416C80.9027 32.7533 81.0486 33.0623 81.0696 33.1335C81.1715 33.4795 81.1305 34.0064 81.1306 34.3955C81.1307 36.8107 81.3309 36.7621 80.3037 38.6889C80.291 38.7127 80.2555 38.7838 80.243 38.8081L79.8583 39.3973C79.5762 39.7249 79.5657 39.9326 79.14 40.2794L77.4528 41.084C76.6525 41.4703 74.7009 41.1493 73.9041 40.9258C73.6267 40.8481 73.9115 40.9612 73.6795 40.8156C73.6163 40.776 73.58 40.7451 73.5227 40.7058C72.3861 39.9261 71.9894 39.5069 71.4584 38.2277C71.2894 37.8206 71.2516 38.0823 71.1508 37.5978C70.8844 36.3159 70.8717 36.2099 70.8721 34.7516V34.7518ZM66.2934 34.1286L66.3806 36.9807C66.4035 37.5395 66.602 37.8176 66.7991 38.2454C66.9482 38.5693 66.7771 38.5552 67.1694 39.3965L68.3966 41.3812C68.4699 41.4769 68.5767 41.6399 68.6619 41.7421C68.7896 41.8953 69.1445 42.2069 69.3122 42.3463L69.6623 42.618C69.6768 42.6298 69.698 42.6458 69.7125 42.6577C69.7269 42.6694 69.7474 42.6857 69.7618 42.6975L70.3031 43.0551C70.3034 43.0553 70.5526 43.2771 70.635 43.3372L71.4415 43.716C72.4178 44.1184 71.6717 44.0565 72.7082 44.2336C73.2169 44.3206 72.6327 44.2038 73.1204 44.4164C74.0608 44.8265 76.389 44.7639 77.5307 44.7309C78.1996 44.7117 77.9391 44.5846 78.4214 44.4848C79.3242 44.2983 80.6159 43.8494 81.3948 43.3427L82.0486 42.839C82.5936 42.4132 82.7884 42.366 83.2794 41.7459C83.2911 41.7312 83.3062 41.7096 83.3177 41.695C83.4373 41.5445 83.5069 41.4789 83.6096 41.3693L84.7783 39.6C84.9871 39.1496 84.8848 39.0925 85.2662 38.3115C85.495 37.8429 85.7357 35.3581 85.7368 34.5738L85.2769 31.5371C85.1532 31.2606 85.0346 31.0074 84.8944 30.6935L84.7677 30.4528C84.7576 30.4363 84.741 30.4162 84.7309 30.4002C84.4519 29.9578 84.5447 29.7819 84.0981 29.0697L82.3564 27.2523C82.3448 27.2421 82.2255 27.1389 82.2089 27.126L81.6106 26.7335C81.0689 26.4126 81.3725 26.4732 80.9461 26.2536L80.7055 26.1399C80.6882 26.1307 80.6665 26.117 80.6492 26.1077C78.5519 24.9808 76.0628 24.9485 73.7569 25.278C73.237 25.3523 73.3476 25.4146 72.828 25.5134L71.2239 26.2145C70.8162 26.4234 70.9247 26.2789 70.4796 26.6386C70.2393 26.8328 70.0451 26.9098 69.799 27.1149C69.3406 27.497 68.6932 28.0593 68.3647 28.5369C68.3374 28.5767 68.2747 28.6651 68.2551 28.695C67.9177 29.21 67.9121 29.1003 67.6544 29.6169C67.0832 30.7619 67.4106 29.6608 67.0485 30.6903C66.9275 31.0342 66.6666 31.5675 66.5962 32.0145L66.2932 34.1289L66.2934 34.1286Z"
            fill="white" />
        <path fill-rule="evenodd" clip-rule="evenodd"
            d="M88.7369 29.0386L94.4008 29.0827C94.7835 29.6614 94.5765 31.8391 94.5765 32.779L94.5967 44.4349C94.664 44.7162 94.7441 44.7193 95.1439 44.7307C95.8105 44.7497 98.7937 44.8101 98.9783 44.6281C98.9896 44.6084 99.0042 44.5549 99.0071 44.5664C99.0102 44.5781 99.0291 44.518 99.0328 44.5014C99.2181 43.6501 98.829 29.5162 99.1488 29.2106C99.7186 28.9807 103.77 29.1832 104.845 29.1182C104.891 28.5799 104.865 27.9829 104.864 27.4369L104.87 26.185C104.853 25.9741 104.828 25.817 104.644 25.7779L103.875 25.7459C103.549 25.7476 103.222 25.746 102.896 25.746H96.8414C94.1999 25.746 91.369 25.6487 88.7508 25.7598L88.7368 29.0385L88.7369 29.0386Z"
            fill="white" />
        <path fill-rule="evenodd" clip-rule="evenodd"
            d="M112.531 34.2183C112.532 33.36 112.895 31.6204 113.371 31.0464C113.494 30.8981 113.39 31.0389 113.528 30.8507L113.673 30.6398C114.285 29.7072 113.898 30.2372 114.73 29.5576L115.407 29.0876C115.923 28.8206 117.121 28.6884 117.61 28.6902C117.895 28.6912 118.023 28.7531 118.242 28.7786C118.813 28.8451 118.77 28.6898 119.175 28.9173C119.655 29.1864 119.47 29.0048 119.812 29.1675C119.83 29.176 119.851 29.1902 119.869 29.1993C119.886 29.2084 119.907 29.223 119.924 29.2325C120.461 29.5306 120.841 29.7404 121.276 30.1967C121.704 30.6454 121.985 31.4457 122.199 32.0352L122.499 33.0586C122.662 33.7009 122.825 36.3038 122.532 36.9185C122.456 37.0793 122.126 38.5081 121.866 38.9274L121.517 39.4546C121.025 39.9484 120.836 40.2398 120.421 40.4856L120.195 40.6253C119.417 41.1452 120.095 40.7505 119.252 41.0077C118.32 41.292 118.97 41.2286 117.61 41.2291C115.727 41.2299 116.546 41.1637 115.817 40.9761L115.163 40.7434C114.704 40.503 114.21 40.0346 113.866 39.6552C113.262 38.9882 112.973 38.2212 112.786 37.3473C112.73 37.0874 112.703 37.0784 112.639 36.8724C112.478 36.3613 112.53 34.9071 112.531 34.2183ZM107.872 34.3963C107.873 35.4201 107.851 36.6035 108.16 37.5947C108.387 38.3246 107.974 37.7958 108.636 39.2715L110.632 42.1741C111.136 42.639 110.91 42.5523 111.35 42.7974C112.048 43.1865 112.289 43.6322 113.576 43.9858C113.919 44.0802 113.922 44.2177 114.841 44.4131C116.984 44.8691 115.809 44.7381 118.411 44.7384C119.204 44.7391 119.665 44.5959 120.361 44.4601C121.02 44.3316 121.465 44.0927 122.005 43.8713C122.402 43.709 122.416 43.6883 122.709 43.5068C122.92 43.3768 122.857 43.4091 123.026 43.2905C124.454 42.288 124.654 42.1092 125.647 40.7408C125.819 40.5044 125.974 40.3049 126.101 40.0286L127.18 36.5393C127.291 34.7723 127.133 33.8 126.976 32.1685C126.944 31.842 126.986 31.9685 126.872 31.7238C126.612 31.1676 126.547 30.6745 126.061 29.872L125.234 28.6227C124.659 28.1954 125.289 28.9322 124.875 28.2207C124.558 27.6773 123.763 26.9804 123.156 26.6221C122.887 26.4631 122.676 26.3809 122.39 26.2262C120.998 25.4736 120.181 25.4556 118.823 25.0836C118.196 24.912 116.693 25.0052 116.055 25.182C115.716 25.276 114.89 25.3218 114.103 25.6281C113.614 25.8184 113.824 25.6474 113.272 25.957C112.505 26.3869 113.151 25.8478 112.046 26.6047C111.767 26.7962 111.589 26.8796 111.358 27.0759L110.85 27.6333C109.999 28.4473 110.227 28.1966 109.6 29.161L109.38 29.4734C109.044 30.0044 108.781 30.3901 108.447 31.3004C108.086 32.2847 107.873 33.3236 107.873 34.3964L107.872 34.3963Z"
            fill="white" />
        <path fill-rule="evenodd" clip-rule="evenodd"
            d="M134.912 32.9533C134.875 32.4623 135.047 31.8576 135.238 31.4672L135.533 30.8703C135.948 29.843 136.766 29.1993 137.707 28.7017L137.817 28.6407C137.835 28.6334 137.856 28.6217 137.875 28.6157L139.604 28.377C140.39 28.3768 141.393 28.6075 142.111 28.9857C142.481 29.1807 142.492 29.2647 142.746 29.5773C143.408 30.3923 143.464 30.5115 143.853 31.5715C144.434 33.1588 143.838 32.9579 143.432 32.9582L134.912 32.9534L134.912 32.9533ZM130.217 34.1455L130.24 36.9108C130.261 37.5043 130.339 37.2909 130.455 37.7538C130.499 37.9278 130.502 38.045 130.548 38.1998C130.936 39.4918 131.634 41.3401 132.794 42.1286L133.22 42.4948C133.317 42.58 133.284 42.5401 133.374 42.6127L134.24 43.34C134.897 43.7692 135.747 44.0411 136.507 44.3667L137.019 44.4966C137.997 44.5791 137.787 44.7535 138.98 44.7547C140.349 44.7562 141.674 44.7773 142.967 44.4623L144.314 44.017C144.819 43.8391 146.09 43.015 146.462 42.606L146.894 42.1481C147.037 41.9905 146.968 42.0738 147.046 41.99C147.119 41.912 147.154 41.861 147.214 41.7632L148.113 39.9743C148.21 39.6897 148.654 38.8845 148.345 38.5801C148.098 38.3373 144.352 38.5017 144.045 38.586C143.948 38.8173 143.952 39.0475 143.867 39.3075C143.794 39.5334 143.65 39.7331 143.517 39.9284L143.107 40.4074C142.014 41.4202 139.663 41.6113 138.239 41.1993C138.042 41.1422 137.965 41.0566 137.83 41C137.621 40.9119 137.548 40.9516 137.359 40.8435L137.12 40.6418C136.567 40.2344 136.276 40.4222 135.483 38.9814C135.13 38.3399 134.676 36.7116 134.84 35.9768L148.379 35.9719C148.466 34.0378 148.514 31.9449 147.681 30.169C147.465 29.7083 147.612 30.2126 147.496 29.8402C147.391 29.5066 147.365 29.3474 147.132 29.0245L147.058 28.9206C146.985 28.8164 147.014 28.8586 146.951 28.7646L146.88 28.6571C146.869 28.641 146.855 28.6186 146.844 28.6026L145.983 27.4995C145.517 27.0409 144.94 26.7021 144.384 26.3391L142.946 25.6304C141.343 25.0092 139.147 24.9368 137.5 25.2787C137.089 25.364 137.142 25.4783 136.577 25.5086C136.414 25.5173 136.231 25.4997 136.082 25.5556L135.501 25.8601C135.394 25.9096 135.465 25.8788 135.327 25.952C134.217 26.5438 133.846 26.8947 132.943 27.6572C132.714 27.8503 132.648 28.015 132.451 28.244L130.938 30.7439C130.414 31.6731 130.217 32.9874 130.217 34.1455H130.217Z"
            fill="white" />
        <path fill-rule="evenodd" clip-rule="evenodd"
            d="M166.502 30.4072C166.502 31.0385 166.206 30.8461 165.537 30.8415C164.542 30.8347 162.353 30.9348 161.639 30.7441C160.886 30.543 160.477 30.5049 160.07 30.2651C159.261 29.7889 158.903 29.5645 158.502 28.5453C158.235 27.8645 158.303 26.9453 158.315 26.0443C158.327 25.1293 158.505 24.4914 158.968 24.0185C160.322 22.6354 162.695 22.6787 164.468 22.6793C166.544 22.6799 166.501 22.4899 166.501 23.2844L166.502 30.4072H166.502ZM153.38 25.9555L153.67 28.9048C153.857 29.3186 153.877 29.7365 154.143 30.1295C154.158 30.1512 154.206 30.206 154.221 30.2271L155.081 31.5114C155.093 31.524 155.112 31.543 155.124 31.5559C155.136 31.5689 155.154 31.5889 155.166 31.6022L155.838 32.2793C155.86 32.2948 155.925 32.3339 155.946 32.3491C156.11 32.4665 156.002 32.3869 156.137 32.5038C156.862 33.1288 157.89 33.3319 158.779 33.6087C158.739 33.9882 158.762 33.8449 158.613 34.0922C158.354 34.5252 157.957 34.863 157.682 35.2859L155.724 38.2244C155.708 38.2448 155.661 38.3018 155.645 38.3227L154.384 40.0934C154.292 40.267 154.298 40.3387 154.192 40.5351C153.795 41.2701 152.791 42.4595 152.271 43.2336C151.911 43.7713 151.443 44.0297 151.453 44.751L156.366 44.7554C156.625 44.6727 156.471 44.7816 156.712 44.5483C156.805 44.4587 156.875 44.3611 156.958 44.2678L158.298 42.3062C158.676 41.6025 158.634 41.8069 158.939 41.3483C159.085 41.1288 159.023 41.1172 159.138 40.9075C159.516 40.2167 160.145 39.7031 160.514 38.9997L162.281 36.4117C162.463 36.1144 162.525 36.0193 162.705 35.6611C162.85 35.3714 162.98 35.288 163.136 35.0268L163.578 34.3674L165.982 34.3569C166.63 34.3554 166.568 34.3901 166.563 35.032C166.547 36.7853 166.411 44.0048 166.643 44.6145C167.226 44.8351 169.822 44.6978 170.7 44.6988C171.077 44.6995 171.194 44.7816 171.372 44.5177L171.457 44.218C171.467 44.1252 171.458 43.87 171.457 43.7627L171.454 32.5437C171.454 28.2473 171.407 23.9246 171.459 19.6314C171.459 19.578 171.463 19.2981 171.458 19.2654C171.394 18.7973 171.529 19.0829 171.294 18.9396C171.032 18.7795 166.128 18.8867 165.715 18.8867C163.052 18.8867 160.688 18.7691 158.327 19.5353C158.219 19.5702 158.161 19.5776 158.05 19.6139L157.098 20.0062C157.082 20.0159 157.059 20.0291 157.042 20.0384C156.702 20.2205 157.321 19.9039 156.919 20.0942L155.998 20.7821C155.985 20.7947 155.966 20.8131 155.954 20.8257C155.941 20.8383 155.922 20.8565 155.909 20.869L154.595 22.245C154.549 22.3174 154.498 22.3807 154.455 22.4561C154.442 22.4799 154.403 22.5547 154.391 22.5803L153.895 23.4951C153.842 23.6067 153.81 23.7156 153.776 23.8374C153.699 24.1109 153.624 24.2592 153.589 24.4494L153.38 25.9553L153.38 25.9555Z"
            fill="white" />
        <path fill-rule="evenodd" clip-rule="evenodd"
            d="M189.216 35.884C189.076 36.6613 189.229 36.3979 188.937 37.6619L188.448 38.7559C188.435 38.7793 188.399 38.8481 188.386 38.8718C188.035 39.5145 187.454 40.1465 186.818 40.5054L186.085 40.8444C185.173 41.2334 184.463 41.3149 183.33 41.1604C182.117 40.9952 181.497 40.5828 180.594 39.7118L179.881 38.9124C179.871 38.8988 179.853 38.8798 179.844 38.8657L179.459 38.0247C178.713 36.0662 178.868 33.387 179.788 31.4986C179.881 31.3088 179.951 31.231 180.055 31.0634L180.156 30.8876C180.432 30.3955 181.812 29.4162 182.354 29.2065C183.205 28.8769 185.237 28.8274 186.178 29.163C186.606 29.3157 186.746 29.4099 187.109 29.6416C187.825 30.0988 188.103 30.3418 188.44 31.1407C188.607 31.536 188.749 31.5749 188.873 32.1368C189.115 33.2301 189.459 34.5216 189.216 35.8841V35.884ZM187.449 16.8117C186.498 16.8086 185.329 16.9426 184.329 17.0008L181.598 17.5659C180.51 17.9662 180.951 17.8915 180.291 18.214L178.817 19.2376C178.789 19.2633 178.627 19.3922 178.573 19.4327C177.807 20.0065 177.229 20.8724 176.673 21.636C176.543 21.815 176.485 21.9629 176.355 22.2095C176.213 22.4792 176.23 22.4501 176.102 22.7623C176.039 22.9168 175.931 23.0892 175.83 23.2863C175.672 23.5929 175.743 23.638 175.623 23.8865L175.107 25.8721C174.481 27.3987 174.898 28.7204 174.566 29.7788C174.472 30.0755 174.397 34.3197 174.547 34.8832C174.64 35.2361 174.633 34.8403 174.668 35.3473C174.767 36.7809 174.892 36.7493 174.943 37.3988L175.406 38.7293C175.484 38.921 175.438 39.0219 175.517 39.2487L175.9 40.1212C175.969 40.2428 175.973 40.2368 176.009 40.2874C176.02 40.3031 176.037 40.323 176.048 40.3384L176.344 40.8274C176.427 40.982 176.463 41.0932 176.578 41.235L178.63 43.2826L180.077 44.0604C180.95 44.4897 181.193 44.3407 182.158 44.5779C182.403 44.6381 182.261 44.6705 182.638 44.7063C183.913 44.8274 186.168 44.7272 187.21 44.3764L188.071 44.0776C188.446 43.9024 188.877 43.8472 189.243 43.5544C189.64 43.2381 189.919 43.1531 190.282 42.8092L191.063 42.1696C191.077 42.1573 191.098 42.1412 191.112 42.1287L191.373 41.8496C191.538 41.6632 191.367 41.843 191.544 41.6724C192.031 41.2029 192.074 40.9509 192.301 40.6413L192.378 40.5425C192.689 40.1301 192.941 39.5885 193.096 39.0959C193.413 38.0821 193.879 36.9812 193.882 35.7057C193.888 33.8469 193.854 32.6842 193.256 31.1647C192.967 30.4298 192.845 29.8359 192.351 29.1141C192.22 28.9228 192.001 28.676 191.85 28.4591C191.829 28.428 191.746 28.3001 191.742 28.2953C191.248 27.6352 190.39 26.9882 189.727 26.5656C189.278 26.2795 189.121 26.1751 188.51 25.9927L187.965 25.7565C186.997 25.3804 185.816 25.3502 184.778 25.3498L182.939 25.5023C182.497 25.6073 182.791 25.6062 182.474 25.7294C181.584 26.0757 181.812 25.8409 180.574 26.5149L180.266 26.7424C180.252 26.7546 180.231 26.7702 180.217 26.7828C179.54 27.3865 178.761 28.2247 178.356 29.0315C178.347 29.0498 178.335 29.0727 178.325 29.0909L178.101 29.4301C177.871 29.2077 177.962 28.6337 178.034 28.313L178.283 27.051C178.541 26.0831 178.963 25.2247 179.282 24.314L180.415 22.7973C180.429 22.7837 180.448 22.7658 180.461 22.7518L183.023 21.2254C184.351 20.6934 185.201 20.9674 186.38 20.8262C186.93 20.7605 186.366 20.7105 187.001 20.6656C187.491 20.631 189.043 20.6429 189.438 20.5084C190.024 20.3093 190.481 20.3224 191.041 20.1553C191.632 19.9789 191.669 20.1175 192.158 19.7686C192.187 18.7978 192.26 17.5864 192.189 16.6403C192.13 15.8596 191.271 16.4715 190.39 16.5524C189.398 16.6434 188.609 16.813 187.449 16.8115L187.449 16.8117Z"
            fill="white" />
        <path fill-rule="evenodd" clip-rule="evenodd"
            d="M200.333 27.3459L200.148 34.0021C200.033 34.9554 200.099 36.2546 199.909 37.1485C199.827 37.5308 199.793 37.4159 199.747 37.7612C199.707 38.058 199.763 38.1959 199.653 38.4761L199.216 39.7214C198.465 41.1268 198.131 40.7554 196.902 40.7888L196.883 44.3515C196.986 44.5601 196.885 44.4346 197.077 44.5519C197.507 44.8158 198.428 44.7474 198.956 44.747L200.611 44.4001C200.637 44.3888 200.713 44.3583 200.739 44.3471C200.994 44.2354 201.169 44.1134 201.394 43.938C201.625 43.7577 201.73 43.5421 201.922 43.3015L202.49 42.4443C202.5 42.4244 202.51 42.4001 202.519 42.3797C202.957 41.4476 202.948 42.1774 203.348 40.3768L203.793 37.5804C203.825 36.8455 203.984 37.3638 204.028 36.7009C204.075 35.992 203.993 35.1811 204.058 34.4808C204.26 32.3378 204.219 32.0394 204.247 29.9277C204.265 28.5439 203.641 28.9021 208.928 28.8993C209.924 28.8987 209.711 28.9221 209.711 29.7499C209.711 34.5181 209.645 39.7462 209.718 44.4577L214.198 44.4662C214.319 38.896 214.203 32.7105 214.207 27.0788L214.2 25.6372C211.681 25.4554 205.737 25.6121 202.607 25.6116C202.345 25.6116 200.763 25.586 200.643 25.6284C200.475 25.688 200.393 25.6353 200.343 26.3628C200.322 26.6714 200.333 27.0325 200.333 27.3459Z"
            fill="white" />
        <path fill-rule="evenodd" clip-rule="evenodd"
            d="M221.827 35.2964C221.826 34.2264 221.77 34.7168 221.964 33.9275C222.126 33.2637 221.8 33.5094 222.186 32.1641C222.433 31.3069 222.774 30.7364 223.38 30.0771C223.544 29.8987 223.427 30.0141 223.564 29.9061C223.817 29.706 223.372 30.0588 223.668 29.8337C223.683 29.8225 223.704 29.8069 223.719 29.7955C223.733 29.7843 223.753 29.767 223.768 29.7556L224.178 29.4557C224.353 29.3444 224.441 29.3112 224.643 29.2098C224.997 29.0317 225.324 28.9693 225.692 28.7399C226.039 28.5235 227.103 28.5383 227.61 28.5908C227.922 28.623 227.891 28.6917 228.151 28.7426C228.68 28.8464 228.46 28.6244 229.005 28.9298C229.555 29.2376 230.121 29.3367 231.008 30.6498C231.227 30.975 231.165 31.0731 231.458 31.4588C231.507 31.5244 231.573 31.5819 231.602 31.6436C231.677 31.8055 231.65 32.0218 231.711 32.2488C231.768 32.4606 231.865 32.5653 231.902 32.7507C232.146 33.9819 232.215 35.3505 231.912 36.5652C231.614 37.759 232.156 36.8334 231.243 38.6611C231.041 39.0654 231.012 39.1529 230.748 39.5028C230.37 40.0057 230.411 39.7169 230.046 40.2269C229.821 40.542 229.625 40.6224 229.277 40.7629C228.341 41.1414 228.37 41.2346 227.082 41.2388C225.97 41.2424 225.41 41.2097 224.629 40.7716L223.857 40.2932C223.571 40.0992 223.657 40.0984 223.427 39.8437C223.312 39.7169 223.228 39.6573 223.122 39.5253L222.309 38.2131L221.827 35.2964ZM217.253 35.6525C217.253 36.1954 217.457 37.911 217.781 38.4544C218.003 38.8277 218.067 39.2935 218.455 39.9842L219.502 41.6209C220.227 42.5779 220.087 42.1445 220.746 42.7841L221.759 43.4754C222.155 43.6921 222.387 43.6917 222.595 43.8081L224.151 44.4747C226.149 44.8305 225.61 44.7467 227.706 44.7478C228.136 44.7483 228.424 44.7841 228.763 44.6399C229.386 44.3752 229.404 44.7392 231.14 43.9076C232.604 43.2066 232.914 43.1302 233.983 42.016L234.158 41.8343C234.369 41.6127 234.528 41.5101 234.714 41.2355C235 40.8123 235.43 40.3057 235.604 39.7987C235.668 39.6103 235.652 39.5399 235.727 39.388C235.798 39.2443 235.718 39.4508 235.83 39.2339L236.072 38.5646C236.141 38.3439 236.117 38.2256 236.178 38.0401C236.2 37.9741 236.293 37.828 236.342 37.689C236.574 37.035 236.705 34.6492 236.627 33.6933C236.533 32.5258 236.077 30.9855 235.552 29.9467C235.075 29.0038 233.856 27.647 232.95 27.015C232.889 26.9731 232.861 26.9452 232.807 26.9013C232.793 26.89 232.774 26.8722 232.76 26.8608C232.745 26.8491 232.726 26.8313 232.712 26.8197C232.691 26.8034 232.631 26.7552 232.61 26.7396C232.283 26.5073 230.639 25.6454 230.107 25.5642C229.328 25.4453 229.859 25.4747 229.465 25.3453C229.329 25.301 229.275 25.3093 229.134 25.2993C227.42 25.1791 227.012 24.7737 224.715 25.3405C224.196 25.4686 223.23 25.6744 222.763 25.8985C222.342 26.1002 222.462 25.9337 221.917 26.302L218.756 29.2898L218.256 30.2069C217.938 30.7079 218.036 30.7865 217.882 31.1894C217.323 32.6501 217.256 34.1001 217.253 35.6525H217.253Z"
            fill="white" />
        <path fill-rule="evenodd" clip-rule="evenodd"
            d="M239.65 44.7553L244.176 44.7557L244.194 35.7648C244.532 35.9088 244.206 35.7252 244.454 35.9728C244.599 36.1171 244.581 36.0903 244.699 36.2559L245.587 37.329C245.732 37.4936 245.834 37.7285 245.971 37.9214L246.299 38.3134C246.313 38.3277 246.38 38.3822 246.428 38.442C246.469 38.4915 246.545 38.6321 246.603 38.712L248.606 41.2527C248.972 41.7237 249.463 42.2375 249.764 42.7515L251.143 44.685L256.062 44.7003C256.119 43.9457 255.436 43.4914 255.032 42.9282C254.979 42.8544 254.981 42.8408 254.924 42.7729C254.797 42.6202 254.86 42.7122 254.818 42.6729C254.641 42.5082 254.552 42.2881 254.376 42.0754L252.374 39.5393C252.249 39.3834 252.253 39.397 252.096 39.2657C251.923 39.1205 251.982 39.193 251.86 38.9966L250.869 37.6657C250.505 37.1909 250.086 36.8052 249.778 36.2738C249.57 35.9148 248.387 34.7693 248.428 34.4459C248.456 34.2312 249.166 33.5962 249.323 33.4287L251.809 30.3967C251.822 30.3834 251.841 30.3648 251.854 30.3513C253.013 29.1298 253.91 27.6817 255.088 26.4622C255.233 26.3117 255.236 26.357 255.359 26.1969C255.567 25.9262 255.473 26.1116 255.543 25.7765L251.407 25.7626C250.946 25.7656 250.907 25.7256 250.478 26.2167L250.394 26.3054C249.74 26.9267 249.287 27.7839 248.783 28.2525L247.905 29.2506C247.894 29.2654 247.879 29.287 247.867 29.3019L246.731 30.7481C246.576 30.9137 246.44 31.0486 246.308 31.215L245.118 32.7876C244.937 33.0349 244.913 33.082 244.722 33.2744C244.578 33.4202 244.399 33.6609 244.201 33.7436L244.193 25.7366L239.666 25.7222L239.65 44.755L239.65 44.7553Z"
            fill="white" />
        <path fill-rule="evenodd" clip-rule="evenodd"
            d="M268.625 41.2361C267.612 41.2332 266.963 41.076 266.321 40.7087C265.067 39.9911 264.719 39.3817 264.183 38.223C264.174 38.2034 264.164 38.1793 264.155 38.16L264.066 37.9853C263.396 36.6543 263.672 33.7047 263.936 32.2733C264.206 30.8099 265.79 29.1097 267.546 28.7967C267.821 28.7476 267.9 28.6481 268.047 28.6099C268.599 28.4661 269.991 28.6442 270.522 28.8744C271.637 29.3579 272.423 29.9967 272.992 31.1L273.536 32.6176C273.585 32.9558 273.541 32.8019 273.662 33.1016C273.828 33.514 273.796 33.7992 273.795 34.3146C273.794 36.0681 273.757 38.1515 272.574 39.6027C272.213 40.0452 272.179 40.1158 271.697 40.4025L270.612 40.9999C270.586 41.0112 270.511 41.0461 270.486 41.058C269.94 41.325 269.641 41.235 268.625 41.2362L268.625 41.2361ZM267.912 44.7455L270.657 44.7142L273.474 43.7034C274.018 43.4012 274.683 43.0677 275.065 42.6131C275.065 42.6126 276.297 41.5584 276.594 41.1211C277.301 40.0794 277.338 40.0309 277.815 38.773C278.253 37.6183 278.568 35.6442 278.441 34.5855C278.31 33.4865 278.474 33.6333 278.179 32.5363C277.984 31.8105 278.002 31.0559 277.554 30.4521L277.474 30.3569C277.464 30.3438 277.445 30.3257 277.435 30.3126C277.329 30.1652 277.402 30.2844 277.343 30.1619L277.241 29.9035C276.813 28.9535 275.887 27.9175 275.059 27.2535C274.933 27.1523 274.833 27.0732 274.712 26.9777L273.641 26.2682C273.407 26.1074 273.504 26.1182 273.242 26.0363L271.915 25.5629C270.824 25.3733 270.11 25.0968 268.714 25.0981C267.058 25.0997 266.698 25.3571 265.68 25.5505C265.217 25.6385 265.529 25.5829 265.22 25.7307C265.04 25.8169 264.931 25.818 264.747 25.8743C264.304 26.0104 264.304 26.1102 263.987 26.2748L263.441 26.5353C262.849 26.8609 262.336 27.2661 261.867 27.736C261.839 27.7641 261.601 27.9438 261.568 27.9705C261.037 28.3915 260.081 29.8978 259.895 30.491C259.77 30.8862 259.705 30.9855 259.604 31.3656C259.261 32.646 259.069 32.9477 259.075 34.4925C259.078 35.25 259.031 36.027 259.123 36.7777C259.182 37.2568 259.295 37.3504 259.342 37.7023C259.472 38.6727 259.254 37.8153 259.573 38.7362L260.103 39.9917C260.236 40.2815 260.162 40.1085 260.362 40.3466L260.691 40.8229C261.529 42.024 261.313 41.4409 261.687 41.95C261.876 42.207 261.792 42.096 261.988 42.287L263.291 43.3046C263.443 43.4064 263.276 43.3181 263.447 43.4162L263.57 43.4772C263.59 43.4865 263.616 43.4933 263.636 43.5023L264.075 43.7616C264.297 43.8863 264.647 44.0171 264.879 44.1206L266.705 44.692C267.068 44.7897 267.527 44.7456 267.913 44.7456L267.912 44.7455Z"
            fill="white" />
    </g>
</svg>