<svg width="166" height="60" viewBox="0 0 166 60" fill="none" xmlns="http://www.w3.org/2000/svg">
    <g opacity="0.75">
        <path
            d="M130.825 20.9005L136.928 16.3394H116.49V43.6646H136.928V39.0997H122.328V32.1253H134.807V27.5642H122.328V20.9005H130.825Z"
            fill="white" />
        <path
            d="M101.051 26.9808H93.9706V20.9005H105.298L111.405 16.3394H88.1328V43.6646H100.297C107.112 43.6646 111.048 40.5316 111.048 35.0764C111.048 29.8448 107.51 26.9808 101.051 26.9808ZM100.077 39.0997H93.9706V31.5419H100.077C103.794 31.5419 105.517 32.7959 105.517 35.3454C105.517 37.895 103.661 39.0997 100.077 39.0997Z"
            fill="white" />
        <path
            d="M153.476 16.3394H142.372V43.6646H148.21V35.925H153.521C160.598 35.925 165.023 32.1708 165.023 26.1322C165.023 20.0936 160.598 16.3394 153.476 16.3394ZM153.343 31.3639H148.169V20.9005H153.343C157.105 20.9005 159.14 22.7795 159.14 26.1322C159.14 29.4849 157.105 31.3639 153.343 31.3639Z"
            fill="white" />
        <path
            d="M78.1298 37.7581C76.5842 38.6105 74.8567 39.0575 73.0875 39.0575C67.8217 39.0575 64.0183 35.254 64.0183 30.0224C64.0183 24.7907 67.8217 20.9872 73.0875 20.9872C74.9893 20.9455 76.8493 21.5706 78.395 22.6881L82.6 19.559L82.3348 19.29C79.9027 17.0966 76.6258 15.979 72.9095 15.979C68.8863 15.979 65.2116 17.3655 62.5597 19.8696C59.9041 22.4646 58.4002 26.0863 58.4873 29.8443C58.4418 33.644 59.9041 37.3111 62.5597 39.9932C65.3442 42.6337 69.0605 44.1112 72.8678 44.0202C77.0691 44.0202 80.74 42.5428 83.2175 39.8607L79.4595 37.0421L78.1298 37.7581Z"
            fill="white" />
        <path
            d="M40.2164 16.1611C41.2771 17.5477 42.1636 19.0668 42.9137 20.6768L22.4756 35.9249L13.8912 30.4697V23.9424L22.4301 29.3521L40.2164 16.1611Z"
            fill="white" />
        <path
            d="M5.17511 30.0234C5.17511 29.7089 5.17511 29.4438 5.22057 29.1293L0.0457041 28.8604C0.0457041 29.2202 0.000244141 29.6218 0.000244141 29.9779C0.000244141 36.24 2.52327 41.9187 6.59194 46.0329L10.2628 42.3203C7.12231 39.1911 5.17511 34.8535 5.17511 30.0234Z"
            fill="white" />
        <path
            d="M22.4309 12.5813C22.7415 12.5813 23.0067 12.5813 23.3173 12.6268L23.5825 7.39507C23.2264 7.39507 22.8287 7.34961 22.4763 7.34961C16.2824 7.34961 10.6643 9.89916 6.59186 14.0133L10.2628 17.7259C13.3616 14.5512 17.6955 12.5813 22.4309 12.5813Z"
            fill="white" />
        <path
            d="M22.4307 47.4639C22.1201 47.4639 21.8549 47.4639 21.5442 47.4184L21.2791 52.6501C21.6352 52.6501 22.0329 52.6956 22.3852 52.6956C28.5792 52.6956 34.2011 50.146 38.2697 46.0319L34.5988 42.3193C31.5 45.5394 27.2078 47.4639 22.4307 47.4639Z"
            fill="white" />
        <path
            d="M32.1631 15.6234L36.5424 12.3578C32.6935 9.22867 27.7838 7.3042 22.4309 7.3042V12.5359C26.0601 12.5813 29.4204 13.6989 32.1631 15.6234Z"
            fill="white" />
        <path
            d="M44.9068 30.0228C44.9068 28.6362 44.7742 27.2952 44.5507 25.9541L39.7281 29.5757C39.7281 29.7083 39.7281 29.8902 39.7281 30.0228C39.7281 35.1673 37.5157 39.7739 34.0229 42.9486L37.5157 46.8392C42.0314 42.725 44.9068 36.6864 44.9068 30.0228Z"
            fill="white" />
        <path
            d="M22.4313 47.464C17.3436 47.464 12.7862 45.2288 9.6457 41.6943L5.79675 45.2288C9.91088 49.8355 15.8396 52.6957 22.4313 52.6957V47.464Z"
            fill="white" />
        <path
            d="M10.8841 17.0967L7.38749 13.2061C2.83013 17.3656 0.000244141 23.3588 0.000244141 30.0225H5.17511C5.17511 24.9234 7.38749 20.2751 10.8841 17.0967Z"
            fill="white" />
    </g>
</svg>