<svg width="100" height="100" viewBox="0 0 100 100" fill="none" xmlns="http://www.w3.org/2000/svg">
    <path
        d="M49.9999 18.3018C43.9299 18.3076 38.1102 20.7214 33.8181 25.0135C29.526 29.3056 27.1122 35.1253 27.1064 41.1953C27.1044 43.6746 27.5089 46.1375 28.3039 48.486C28.3071 48.5404 28.319 48.5939 28.3391 48.6445C28.3825 48.783 28.4354 48.9184 28.4976 49.0495C28.5328 49.1552 28.568 49.2609 28.6209 49.3841C28.7265 49.6307 28.8498 49.9301 29.0083 50.2471C29.5132 51.4506 30.1262 52.6059 30.8398 53.6987V53.7163C33.4285 58.3302 38.5179 66.431 48.4326 80.7483C48.4733 80.8227 48.5204 80.8934 48.5735 80.9596C48.6278 81.0392 48.6866 81.1156 48.7496 81.1885C48.8226 81.2514 48.899 81.3102 48.9785 81.3646L48.9961 81.3823C49.0683 81.4355 49.1449 81.4826 49.225 81.523C49.3364 81.5797 49.4549 81.6211 49.5772 81.6463C49.8546 81.7168 50.1452 81.7168 50.4225 81.6463C50.5449 81.6211 50.6634 81.5797 50.7747 81.523C50.8667 81.4872 50.9505 81.4333 51.0213 81.3646C51.1008 81.3101 51.1772 81.2513 51.2502 81.1884C51.3132 81.1155 51.372 81.0391 51.4263 80.9595L51.4439 80.942C51.4912 80.8815 51.5325 80.8166 51.5672 80.7482C61.4819 66.4309 66.5713 58.3301 69.16 53.7162C69.1776 53.7162 69.1776 53.7162 69.1776 53.6986C69.8788 52.6014 70.4856 51.4467 70.9915 50.247C71.15 49.9124 71.2733 49.6306 71.3789 49.384C71.4318 49.2607 71.467 49.155 71.5022 49.0494C71.5644 48.9182 71.6173 48.7828 71.6607 48.6443C71.6808 48.5937 71.6927 48.5402 71.6959 48.4858C72.4908 46.1374 72.8954 43.6746 72.8934 41.1953C72.8876 35.1253 70.4738 29.3056 66.1817 25.0135C61.8895 20.7214 56.0699 18.3076 49.9999 18.3018Z"
        stroke="white" stroke-width="3.7204" />
    <path
        d="M51.3693 52.0641C51.4591 52.0662 51.5489 52.0619 51.6381 52.0509C52.0308 52.0002 52.4017 51.8448 52.7099 51.6018C53.0181 51.3588 53.2518 51.0375 53.3851 50.6732L57.7125 38.6151C57.8433 38.2501 57.8647 37.8562 57.7742 37.4797C57.6838 37.1032 57.4852 36.7597 57.2018 36.4895C56.9148 36.2241 56.5551 36.0457 56.1663 35.9758C55.7775 35.906 55.3763 35.9477 55.0113 36.0959L43.0639 40.7538C42.699 40.8909 42.3801 41.1241 42.1429 41.4276C41.9056 41.731 41.7592 42.0928 41.72 42.4726C41.6864 42.7667 41.7208 43.0645 41.8208 43.3438C41.9209 43.6231 42.0839 43.877 42.2979 44.0865C42.4662 44.2582 42.667 44.3963 42.8892 44.4933L46.8269 46.2777C47.2258 46.4597 47.5485 46.7701 47.7407 47.1568L49.5147 50.9225C49.6794 51.2662 49.9417 51.5565 50.2705 51.7589C50.5993 51.9613 50.9806 52.0672 51.3693 52.0641Z"
        stroke="white" stroke-width="3.10033" />
</svg>