<svg xmlns="http://www.w3.org/2000/svg" width="411" height="136" viewBox="0 0 411 136" fill="none"
    preserveAspectRatio="none">
    <g filter="url(#filter0_b_499_5129)">
        <path
            d="M21.1336 112.626L0.82803 15.4882C0.101805 12.0141 2.5335 8.67229 6.06254 8.29457L40.0762 4.65402C41.022 4.55279 41.9782 4.67786 42.8662 5.01891L82.5634 20.2668C83.801 20.7422 85.1612 20.7943 86.4315 20.4149L152.139 0.793835C154.704 0.0278647 157.467 1.05388 158.91 3.30866L162.675 9.19253C163.793 10.9385 165.732 11.984 167.805 11.9577L395.405 9.07063C398.544 9.0308 401.184 11.4187 401.458 14.5468L409.982 111.914C410.275 115.257 407.769 118.191 404.421 118.423L166.102 134.959C165.712 134.986 165.32 134.975 164.932 134.926L26.2523 117.35C23.7129 117.028 21.6573 115.131 21.1336 112.626Z"
            fill="black" fill-opacity="0.15" />
        <path
            d="M21.1336 112.626L0.82803 15.4882C0.101805 12.0141 2.5335 8.67229 6.06254 8.29457L40.0762 4.65402C41.022 4.55279 41.9782 4.67786 42.8662 5.01891L82.5634 20.2668C83.801 20.7422 85.1612 20.7943 86.4315 20.4149L152.139 0.793835C154.704 0.0278647 157.467 1.05388 158.91 3.30866L162.675 9.19253C163.793 10.9385 165.732 11.984 167.805 11.9577L395.405 9.07063C398.544 9.0308 401.184 11.4187 401.458 14.5468L409.982 111.914C410.275 115.257 407.769 118.191 404.421 118.423L166.102 134.959C165.712 134.986 165.32 134.975 164.932 134.926L26.2523 117.35C23.7129 117.028 21.6573 115.131 21.1336 112.626Z"
            stroke="url(#paint0_linear_499_5129)" />
    </g>
    <defs>
        <filter id="filter0_b_499_5129" x="-99.8007" y="-99.9575" width="610.306" height="335.431"
            filterUnits="userSpaceOnUse" color-interpolation-filters="sRGB">
            <feFlood flood-opacity="0" result="BackgroundImageFix" />
            <feGaussianBlur in="BackgroundImageFix" stdDeviation="50" />
            <feComposite in2="SourceAlpha" operator="in" result="effect1_backgroundBlur_499_5129" />
            <feBlend mode="normal" in="SourceGraphic" in2="effect1_backgroundBlur_499_5129" result="shape" />
        </filter>
        <linearGradient id="paint0_linear_499_5129" x1="-49.6015" y1="-107.023" x2="476.651" y2="308.503"
            gradientUnits="userSpaceOnUse">
            <stop stop-color="#CECECE" />
            <stop offset="1" stop-opacity="0" />
        </linearGradient>
    </defs>
</svg>