<svg xmlns="http://www.w3.org/2000/svg" width="100" height="100" viewBox="0 0 100 100" fill="none">
    <path
        d="M56.8613 41.9805C56.3676 41.9843 55.893 42.1833 55.5446 42.5316C55.1925 42.8837 54.9935 43.3622 54.9935 43.8597C54.9935 44.3573 55.1925 44.8357 55.5446 45.1879L79.0443 68.6876C79.6108 69.254 79.6108 70.0846 79.0443 70.651C78.4779 71.2175 77.6473 71.2175 77.0809 70.651L53.5812 47.1513V47.1551C52.8463 46.4203 51.6561 46.4203 50.9212 47.1551C50.5691 47.5073 50.3701 47.9857 50.3701 48.4833C50.3701 48.9808 50.5691 49.4592 50.9212 49.8114L74.4209 73.3111C76.415 75.3052 79.7065 75.3052 81.7006 73.3111C83.6947 71.317 83.6947 68.0255 81.7006 66.0314L58.2009 42.5317H58.2047C57.8488 42.1758 57.3627 41.9766 56.8613 41.9805Z"
        fill="white" />
    <path
        d="M37.1039 42.5083C34.9835 40.3879 31.4815 40.3879 29.3612 42.5083C27.2408 44.6287 27.2408 48.1307 29.3612 50.251L39.2279 60.1177C41.3483 62.2381 44.8503 62.2381 46.9706 60.1177C49.0909 57.9973 49.091 54.4952 46.9706 52.3749L37.1039 42.5083ZM34.4478 45.1644L44.3145 55.0311C45.011 55.7277 45.011 56.7611 44.3145 57.4577C43.6179 58.1543 42.5845 58.1543 41.8879 57.4577L32.0173 47.5949C31.3207 46.8984 31.3207 45.865 32.0173 45.1684C32.7139 44.4718 33.7472 44.4718 34.4439 45.1684L34.4478 45.1644Z"
        fill="white" />
    <path
        d="M51.5222 24.8115C51.0285 24.8154 50.5539 25.0144 50.2055 25.3627L33.7516 41.8166C33.0168 42.5514 33.0168 43.7417 33.7516 44.4727L45.0076 55.7288C45.7387 56.4636 46.929 56.4636 47.6638 55.7288L64.1177 39.2749C64.8526 38.54 64.8526 37.3497 64.1177 36.6149L52.8617 25.3628C52.5096 25.0068 52.0236 24.8077 51.5222 24.8115ZM51.5375 29.3508L60.1338 37.947L46.3361 51.7447L37.7398 43.1484L51.5375 29.3508Z"
        fill="white" />
    <path
        d="M50.898 28.7149C48.7776 26.5945 48.7776 23.0924 50.898 20.9721C53.0184 18.8517 56.5204 18.8517 58.6407 20.9721L68.5074 30.8388C70.6278 32.9592 70.6278 36.4612 68.5074 38.5815C66.387 40.7019 62.885 40.7019 60.7647 38.5815L50.898 28.7149ZM53.5542 26.0587L63.4208 35.9254C64.1174 36.622 65.1508 36.622 65.8474 35.9254C66.544 35.2288 66.544 34.1954 65.8474 33.4988L55.9847 23.6321C55.2881 22.9355 54.2547 22.9355 53.5581 23.6321C52.8615 24.3287 52.8615 25.3621 53.5581 26.0587H53.5542Z"
        fill="white" />
    <path
        d="M47.3617 70.5293C50.0447 70.5293 51.989 72.9443 51.989 75.5737C51.989 78.2032 50.0447 80.6182 47.3617 80.6182H21.435C18.752 80.6182 16.8038 78.2032 16.8038 75.5737C16.8038 72.9443 18.7481 70.5293 21.435 70.5293H47.3617ZM47.3617 74.2877H21.435C21.0714 74.2877 20.5661 74.6973 20.5661 75.5737C20.5661 76.4502 21.0752 76.8597 21.435 76.8597H47.3617C47.7253 76.8597 48.2305 76.4502 48.2305 75.5737C48.2305 74.6973 47.7214 74.2877 47.3617 74.2877Z"
        fill="white" />
    <path
        d="M43.6605 63.8047C46.4391 63.8047 48.4599 66.3078 48.4599 69.0482C48.4599 71.7887 46.4391 74.2918 43.6605 74.2918H25.1362C22.3576 74.2918 20.3329 71.7887 20.3329 69.0482C20.3329 66.3078 22.3537 63.8047 25.1362 63.8047H43.6605ZM43.6605 67.5631H25.1362C24.6769 67.5631 24.0952 68.0607 24.0952 69.0443C24.0952 70.0318 24.6807 70.5255 25.1362 70.5255H43.6605C44.1197 70.5255 44.7015 70.0279 44.7015 69.0443C44.7015 68.0569 44.1159 67.5631 43.6605 67.5631Z"
        fill="white" />
</svg>