<svg width="677" height="120" viewBox="0 0 677 120" fill="none" xmlns="http://www.w3.org/2000/svg">
<g style="mix-blend-mode:overlay" opacity="0.5">
<path d="M94.8653 2.58825L47.4871 50.9506L77.8541 101H57.4688L28.6482 53.4812L20.3535 101H0.952353L18.2447 2.58825H37.6459L30.1947 44.7647L71.6682 2.58825H94.8653ZM125.751 102.968C111.504 102.968 100.211 97.8133 91.869 87.5035C83.5274 77.1 80.6688 64.7282 83.2931 50.3882C85.73 35.8608 92.4313 23.9577 103.397 14.6788C114.457 5.30629 127.532 0.620011 142.621 0.620011C156.68 0.620011 167.88 5.82177 176.222 16.2253C184.657 26.6288 187.61 39.0006 185.079 53.3406C182.548 67.868 175.8 79.7712 164.834 89.05C153.868 98.3288 140.841 102.968 125.751 102.968ZM128 83.9888C137.185 83.9888 145.339 80.9896 152.463 74.9912C159.679 68.9927 164.131 61.3073 165.818 51.9347C167.412 42.5622 165.725 34.8298 160.757 28.7377C155.79 22.5518 148.76 19.4588 139.669 19.4588C130.578 19.4588 122.517 22.5049 115.488 28.5971C108.552 34.5955 104.241 42.3278 102.554 51.7941C100.867 61.1667 102.413 68.899 107.193 74.9912C112.067 80.9896 119.003 83.9888 128 83.9888ZM304.012 2.58825L286.72 101H267.459L278.706 37.0324L242.435 82.8641H240.185L221.206 36.47L209.818 101H190.417L207.709 2.58825H227.532L246.09 49.6853L282.643 2.58825H304.012ZM368.462 101L365.931 83.2859H326.567L317.428 101H296.2L348.077 2.58825H372.117L389.41 101H368.462ZM335.986 65.15H363.26L357.356 24.0982L335.986 65.15ZM472.212 2.58825H491.472L474.18 101H454.919L462.089 60.2294H425.536L418.366 101H398.965L416.258 2.58825H435.659L428.77 41.6718H465.323L472.212 2.58825ZM585.391 2.58825L571.332 82.4424H581.876L575.268 119.839H555.867L559.241 101H504.693L501.46 119.839H482.058L488.666 82.4424H498.226C504.974 75.1318 509.661 64.0253 512.285 49.1229L520.439 2.58825H585.391ZM519.736 82.4424H551.931L562.897 20.7241H536.607L531.545 49.4041C529.015 63.8378 525.078 74.8506 519.736 82.4424ZM655.542 101L653.011 83.2859H613.647L604.509 101H583.28L635.157 2.58825H659.197L676.49 101H655.542ZM623.066 65.15H650.34L644.436 24.0982L623.066 65.15Z" fill="white"/>
</g>
</svg>
