<svg width="1205" height="96" viewBox="0 0 1205 96" fill="none" xmlns="http://www.w3.org/2000/svg">
    <path opacity="0.5"
        d="M1203.5 48C1203.5 48.9731 1202.88 50.224 1200.96 51.7275C1199.07 53.2093 1196.17 54.7359 1192.22 56.2759C1184.32 59.3496 1172.59 62.3435 1157.37 65.2097C1126.97 70.9376 1082.91 76.1041 1028.41 80.4459C919.432 89.1281 768.849 94.5 602.5 94.5C436.151 94.5 285.568 89.1281 176.587 80.4459C122.09 76.1041 78.0348 70.9376 47.6251 65.2097C32.4085 62.3435 20.6799 59.3496 12.7849 56.2759C8.82928 54.7359 5.92534 53.2093 4.03647 51.7275C2.11989 50.224 1.5 48.9731 1.5 48C1.5 47.0269 2.11989 45.776 4.03647 44.2725C5.92534 42.7907 8.82928 41.2641 12.7849 39.7241C20.6799 36.6504 32.4085 33.6565 47.6251 30.7903C78.0348 25.0624 122.09 19.8959 176.587 15.5541C285.568 6.87189 436.151 1.5 602.5 1.5C768.849 1.5 919.432 6.87189 1028.41 15.5541C1082.91 19.8959 1126.97 25.0624 1157.37 30.7903C1172.59 33.6565 1184.32 36.6504 1192.22 39.7241C1196.17 41.2641 1199.07 42.7907 1200.96 44.2725C1202.88 45.776 1203.5 47.0269 1203.5 48Z"
        stroke="url(#paint0_linear_1_1992)" stroke-width="3" />
    <defs>
        <linearGradient id="paint0_linear_1_1992" x1="602.5" y1="0" x2="602.5" y2="44.8653"
            gradientUnits="userSpaceOnUse">
            <stop stop-color="white" />
            <stop offset="1" stop-color="white" stop-opacity="0" />
        </linearGradient>
    </defs>
</svg>