<svg width="80" height="61" viewBox="0 0 80 61" fill="none" xmlns="http://www.w3.org/2000/svg">
    <path
        d="M11.9907 55.7576C18.4746 55.7576 23.7309 50.3604 23.7309 43.7025C23.7309 37.0447 18.4746 31.6475 11.9907 31.6475C5.50683 31.6475 0.250595 37.0447 0.250595 43.7025C0.250595 50.3604 5.50683 55.7576 11.9907 55.7576Z"
        fill="white" fill-opacity="0.75" />
    <path
        d="M30.3003 5.05684C30.2367 4.94412 30.1514 4.84589 30.0496 4.76814C29.9479 4.69038 29.8317 4.63474 29.7083 4.60461C29.5849 4.57448 29.4568 4.57049 29.3318 4.59289C29.2069 4.61528 29.0877 4.66359 28.9815 4.73487C26.9092 6.10872 25.3152 8.12265 24.4293 10.4865C24.384 10.6091 24.3411 10.7312 24.3007 10.8527C23.7983 12.4072 23.6252 14.054 23.793 15.6828C23.9608 17.3115 24.4656 18.8847 25.2736 20.2968C31.8326 31.9577 38.3916 43.6186 44.9506 55.2794C45.0122 55.3887 45.0941 55.4844 45.1918 55.561C45.2894 55.6377 45.4009 55.6938 45.5197 55.7261C45.6385 55.7584 45.7624 55.7663 45.8842 55.7493C46.006 55.7323 46.1234 55.6908 46.2295 55.6272C47.6899 54.7685 48.9302 53.565 49.8477 52.1164C51.266 49.8473 51.5598 47.4216 51.4319 45.3887C51.2859 43.2758 50.6676 41.2259 49.6249 39.3981C43.1833 27.951 36.7418 16.5039 30.3003 5.05684Z"
        fill="white" fill-opacity="0.75" />
    <path
        d="M58.0283 5.05684C57.9647 4.94412 57.8794 4.84589 57.7777 4.76814C57.6759 4.69038 57.5597 4.63474 57.4363 4.60461C57.3129 4.57448 57.1848 4.57049 57.0599 4.59289C56.9349 4.61528 56.8157 4.66359 56.7095 4.73487C54.6372 6.10872 53.0433 8.12265 52.1573 10.4865C52.112 10.6091 52.0691 10.7312 52.0287 10.8527C51.5263 12.4072 51.3532 14.054 51.521 15.6828C51.6888 17.3115 52.1936 18.8847 53.0016 20.2968C59.5606 31.9577 66.1196 43.6186 72.6786 55.2794C72.7402 55.3887 72.8221 55.4844 72.9198 55.561C73.0175 55.6377 73.1289 55.6938 73.2477 55.7261C73.3666 55.7584 73.4904 55.7663 73.6122 55.7493C73.734 55.7323 73.8514 55.6908 73.9575 55.6272C75.4179 54.7685 76.6582 53.565 77.5757 52.1164C78.994 49.8473 79.2878 47.4216 79.1599 45.3887C79.0139 43.2758 78.3956 41.2259 77.3529 39.3981C70.9113 27.951 64.4698 16.5039 58.0283 5.05684Z"
        fill="white" fill-opacity="0.75" />
</svg>