<svg width="202" height="60" viewBox="0 0 202 60" fill="none" xmlns="http://www.w3.org/2000/svg">
    <mask id="mask0_2041_10137" style="mask-type:luminance" maskUnits="userSpaceOnUse" x="0" y="19" width="202"
        height="22">
        <path d="M0 19.4941L201.955 19.4941V40.506H0V19.4941Z" fill="white" />
    </mask>
    <g mask="url(#mask0_2041_10137)">
        <path
            d="M170.967 19.937H166.49V40.0957H171.752L178.415 26.4629H178.516L178.21 40.0957H182.685V19.937H177.424L170.762 33.5698H170.659L170.967 19.937ZM122.04 30.1184V29.8797C122.04 25.5752 124.911 23.8668 129.591 23.8668C134.272 23.8668 137.176 25.5752 137.176 29.8797V30.1184C137.176 34.4229 134.272 36.1659 129.591 36.1659C124.876 36.1324 122.04 34.3894 122.04 30.1184ZM116.744 30.3927C116.744 36.5417 121.835 40.5395 129.591 40.5395C137.347 40.5395 142.472 36.5763 142.472 30.3916V29.6076C142.472 23.4575 137.347 19.5288 129.591 19.5288C121.835 19.5288 116.744 23.4575 116.744 29.6076V30.3927ZM201.955 19.937H189.143L188.972 31.1097C188.903 34.5266 188.391 35.722 186.546 35.722H185.385V40.0957H186.683C191.636 40.0957 193.071 38.1141 193.209 31.1097L193.311 23.7976H197.479V40.0957H201.92V19.937H201.955ZM90.0608 40.0957H94.6731L94.4679 26.7361H94.5705L99.5932 40.0957H104.205L109.16 26.7361H109.263L109.058 40.0957H113.67V19.937H107.315L101.951 34.8344H101.848L96.4161 19.937H90.0597L90.0608 40.0957ZM156.617 36.2005H150.262V32.4089H156.617C158.12 32.4089 158.769 33.0568 158.769 34.3214C158.769 35.5849 158.12 36.2005 156.617 36.2005ZM145.512 19.937V40.0957H156.445C160.443 40.0957 163.416 38.6259 163.416 34.3214C163.416 30.0169 160.478 28.5817 156.445 28.5817H150.296V23.9002H162.732V19.937H145.512Z"
            fill="white" fill-opacity="0.75" />
        <path
            d="M23.8477 35.0395L19.1674 33.0244C17.6976 35.655 15.3067 36.236 12.4028 36.236C7.61877 36.236 5.1933 34.1172 5.1933 30.154V29.8807C5.1933 25.9175 7.61877 23.7987 12.4017 23.7987C15.3067 23.7987 17.6987 24.3451 19.1674 27.0103L23.8477 24.9952C21.6274 20.4164 17.1177 19.4941 12.4017 19.4941C4.78404 19.4941 0 23.4228 0 29.6421V30.3926C0 36.6453 4.78404 40.5406 12.4017 40.5406C17.1177 40.5071 21.6274 39.6183 23.8477 35.0395ZM68.434 19.938H63.4805V40.0967H68.9816L80.6997 26.0535H80.8023L80.7354 40.0967H85.6889V19.938H80.1878L68.4686 33.9801H68.366L68.434 19.938ZM31.0226 19.938H26.5475V40.0967H31.8088L38.4708 26.4639H38.5734L38.2656 40.0967H42.7419V19.938H37.4805L30.852 33.5708H30.7494L31.0226 19.938ZM50.8056 23.9013V40.0621H55.4513V23.9013H60.8487V19.938H45.4082V23.9013H50.8056Z"
            fill="white" fill-opacity="0.75" />
    </g>
</svg>