<svg width="145" height="60" viewBox="0 0 145 60" fill="none" xmlns="http://www.w3.org/2000/svg">
    <g opacity="0.75" clip-path="url(#clip0_2037_10018)">
        <path fill-rule="evenodd" clip-rule="evenodd"
            d="M17.3705 14.2716C14.1221 13.9294 10.8474 14.6017 7.99663 16.1962C5.14582 17.7906 2.85883 20.2289 1.44999 23.1758C0.0411515 26.1228 -0.420364 29.4337 0.128879 32.6536C0.678122 35.8735 2.21116 38.8442 4.51728 41.1575C6.82339 43.4708 9.78938 45.013 13.0075 45.5722C16.2257 46.1314 19.5381 45.6801 22.4894 44.2804C25.4407 42.8807 27.886 40.6012 29.4893 37.7554C31.0925 34.9095 31.775 31.6369 31.4428 28.3875C31.0773 24.7755 29.4784 21.3997 26.9153 18.8287C24.3522 16.2576 20.9814 14.6482 17.3705 14.2716ZM16.8582 38.362C15.1111 38.5964 13.3345 38.2774 11.778 37.45C10.2216 36.6225 8.96352 35.3281 8.1807 33.7487C7.39788 32.1693 7.12964 30.3843 7.41367 28.6446C7.6977 26.9049 8.51974 25.2979 9.76424 24.0495C11.0087 22.8011 12.6131 21.9741 14.352 21.6846C16.0908 21.3951 17.8766 21.6578 19.4584 22.4356C21.0402 23.2135 22.3386 24.4675 23.1709 26.0214C24.0033 27.5752 24.3278 29.3509 24.0989 31.0987C23.8586 32.9371 23.0191 34.645 21.7101 35.9581C20.4012 37.2711 18.6959 38.1161 16.8582 38.362ZM39.8992 14.8971C39.3509 14.8984 38.8097 15.0219 38.3151 15.2587C37.8205 15.4955 37.3849 15.8396 37.04 16.2659C36.6951 16.6922 36.4496 17.1901 36.3214 17.7232C36.1931 18.2564 36.1853 18.8114 36.2986 19.348C36.6455 21.0862 38.2691 22.2739 40.0378 22.2739H50.3016L34.3287 43.4119C34.2106 43.5679 34.1382 43.7538 34.1198 43.9486C34.1014 44.1435 34.1376 44.3396 34.2244 44.515C34.3112 44.6905 34.4452 44.8383 34.6112 44.9418C34.7773 45.0454 34.9689 45.1006 35.1647 45.1014H60.2198C61.9872 45.1014 63.612 43.914 63.9589 42.1755C64.0722 41.6391 64.0645 41.0841 63.9363 40.551C63.8082 40.0179 63.5628 39.5201 63.2181 39.0937C62.8734 38.6674 62.438 38.3232 61.9435 38.0863C61.4491 37.8493 60.9081 37.7256 60.3598 37.724H47.854L63.8147 16.6024C63.934 16.4449 64.007 16.2572 64.0256 16.0604C64.0442 15.8637 64.0075 15.6656 63.9198 15.4885C63.8321 15.3114 63.6968 15.1623 63.529 15.0578C63.3613 14.9533 63.1677 14.8977 62.9701 14.8971H39.8992ZM140.018 14.9821C139.188 15.1794 138.451 15.6538 137.928 16.327C137.404 17.0002 137.127 17.8318 137.14 18.6843V30.9664L117.238 15.129C117.082 15.0052 116.894 14.9278 116.696 14.906C116.498 14.8842 116.298 14.9187 116.119 15.0056C115.939 15.0925 115.788 15.2282 115.683 15.3972C115.577 15.5662 115.521 15.7616 115.522 15.9608V41.3208C115.508 42.1733 115.786 43.0049 116.31 43.6781C116.833 44.3513 117.57 44.8257 118.4 45.0229C118.938 45.1414 119.497 45.1375 120.034 45.0114C120.571 44.8854 121.072 44.6404 121.502 44.2945C121.932 43.9486 122.278 43.5107 122.516 43.0131C122.754 42.5155 122.877 41.9708 122.876 41.4193V29.0309L142.778 44.8685C142.934 44.9923 143.122 45.0696 143.32 45.0914C143.518 45.1132 143.718 45.0787 143.897 44.9919C144.076 44.905 144.227 44.7693 144.333 44.6004C144.439 44.4315 144.494 44.2362 144.494 44.037V18.5846C144.494 18.0332 144.371 17.4887 144.133 16.9912C143.895 16.4937 143.549 16.056 143.119 15.7103C142.69 15.3646 142.188 15.1197 141.651 14.9937C141.115 14.8676 140.556 14.8637 140.018 14.9821ZM88.1992 21.5678C96.6171 21.5678 102.907 26.0163 102.907 29.9955C102.907 33.9747 96.6171 38.4232 88.1992 38.4232C79.7814 38.4232 73.4916 33.9747 73.4916 29.9955C73.4916 26.0163 79.7814 21.5678 88.1992 21.5678ZM88.1992 14.1913C76.0147 14.1913 66.1375 21.2671 66.1375 29.9955C66.1375 38.7239 76.0147 45.7997 88.1992 45.7997C100.384 45.7997 110.261 38.7239 110.261 29.9955C110.261 21.2671 100.383 14.1913 88.1992 14.1913Z"
            fill="white" />
    </g>
    <defs>
        <clipPath id="clip0_2037_10018">
            <rect width="144.493" height="31.6288" fill="white" transform="translate(0 14.1855)" />
        </clipPath>
    </defs>
</svg>