<svg width="130" height="60" viewBox="0 0 130 60" fill="none" xmlns="http://www.w3.org/2000/svg">
    <g clip-path="url(#clip0_2037_10018)">
        <g opacity="0.75" clip-path="url(#clip1_2037_10018)">
            <mask id="mask0_2037_10018" style="mask-type:luminance" maskUnits="userSpaceOnUse" x="-10" y="-43"
                width="150" height="149">
                <path d="M139.117 -42.395H-9.11737V105.84H139.117V-42.395Z" fill="white" />
            </mask>
            <g mask="url(#mask0_2037_10018)">
                <path d="M51.9852 26.3111H57.3958V11.71H64.5407V6.69971H51.9852V26.3111Z" fill="white" />
                <path
                    d="M40.8086 21.9386C40.2174 21.9662 39.6269 21.8698 39.0748 21.6561C38.5228 21.4423 38.0218 21.1156 37.6032 20.6973C37.1846 20.2787 36.8578 19.7773 36.6441 19.2253C36.4303 18.6733 36.3343 18.083 36.3616 17.4916H49.7027C49.7027 17.4916 49.7916 16.4836 49.7916 15.4459C49.7916 9.51653 46.2785 6.25537 40.7938 6.25537C34.9978 6.25537 30.9658 10.4801 30.9658 16.5132C30.9658 22.5464 34.9385 26.8896 40.7345 26.8896C46.1154 26.8896 49.7323 23.7767 49.8361 19.2111H44.5441C44.3849 20.0554 43.91 20.8073 43.2159 21.3139C42.5222 21.8206 41.6612 22.0438 40.8086 21.9386ZM40.8086 10.7617C41.2545 10.6994 41.7081 10.7273 42.143 10.8438C42.5779 10.96 42.985 11.1625 43.3401 11.4388C43.6953 11.7151 43.9915 12.0602 44.2112 12.4531C44.4306 12.8462 44.569 13.279 44.6182 13.7264H36.658C36.926 12.8319 37.4867 12.0534 38.2501 11.5156C39.0135 10.9781 39.9355 10.7125 40.8679 10.7617H40.8086Z"
                    fill="white" />
                <path
                    d="M21.5382 6.69971L17.8175 18.7215L14.2006 6.69971H8.22676L5.11383 26.3111H10.0797L11.9623 14.1114L15.6237 26.3111H19.878L23.6728 13.8891L25.4813 26.3111H30.5212L27.4231 6.69971H21.5382Z"
                    fill="white" />
                <path
                    d="M74.4575 6.22607C68.6912 6.22607 65.4152 9.05736 65.5634 13.875H71.1667C71.1667 11.8293 72.234 10.9103 74.4723 10.9103C76.0733 10.9103 77.0813 11.5773 77.0813 12.5853C77.0813 13.2376 76.8293 13.4896 75.8509 13.7712L71.4039 15.0016C67.0754 16.1726 65.1484 17.9663 65.1484 20.9309C65.1484 24.4441 67.698 26.7862 71.4483 26.7862C72.6455 26.906 73.8497 26.6436 74.8886 26.0364C75.9271 25.4293 76.7468 24.5084 77.2295 23.4065V26.3712H82.4029V13.282C82.3288 8.55336 79.3344 6.22607 74.4575 6.22607ZM72.5305 22.2206C71.1519 22.2206 70.4848 21.5535 70.4848 20.5752C70.4848 19.5968 70.9592 19.0928 72.4415 18.6333L77.1257 17.314V17.6698C77.1403 18.2752 77.0309 18.877 76.8047 19.4388C76.5782 20.0003 76.2393 20.5097 75.8091 20.936C75.3789 21.362 74.8663 21.6955 74.3025 21.9167C73.7386 22.1376 73.1356 22.241 72.5305 22.2206Z"
                    fill="white" />
                <path d="M108.922 31.5439V36.5543H114.526V51.1554H119.936V36.5543H125.54V31.5439H108.922Z"
                    fill="white" />
                <path
                    d="M89.4445 31.5439H83.4855L79.2756 38.8223H77.1262V31.5439H71.7156V51.1554H77.1262V43.6399H79.246L83.7671 51.1554H89.8744L83.9005 41.1496L89.4445 31.5439Z"
                    fill="white" />
                <path
                    d="M41.1495 31.0698C35.3831 31.0698 32.0923 33.9011 32.2554 38.7187H37.8587C37.8587 36.6731 38.9259 35.754 41.1643 35.754C42.7652 35.754 43.7732 36.4359 43.7732 37.4439C43.7732 38.0813 43.5212 38.3333 42.528 38.615L38.081 39.8453C33.7674 41.0312 31.8403 42.81 31.8403 45.7747C31.8403 49.273 34.39 51.63 38.1403 51.63C39.3389 51.7598 40.547 51.4995 41.5859 50.8879C42.6247 50.2766 43.4385 49.3463 43.9066 48.2354V51.2001H49.0948V38.0665C49.0207 33.3971 46.0264 31.0698 41.1495 31.0698ZM39.1928 47.0643C37.8438 47.0643 37.162 46.3973 37.162 45.4041C37.162 44.4109 37.6511 43.9218 39.1335 43.5067L43.8029 42.1874V42.5135C43.8177 43.1204 43.7077 43.7234 43.4806 44.2861C43.2532 44.8488 42.9132 45.359 42.4812 45.7854C42.0495 46.2117 41.5349 46.5449 40.9695 46.7649C40.4038 46.9849 39.7993 47.0869 39.1928 47.0643Z"
                    fill="white" />
                <path
                    d="M62.2431 31.07C61.1126 30.9991 59.989 31.2917 59.0367 31.9051C58.0848 32.5185 57.3537 33.4207 56.9511 34.4794V31.5147H51.5405V56.507H56.9511V48.2652C57.3679 49.3085 58.1047 50.1931 59.0551 50.7923C60.0059 51.3915 61.1218 51.6743 62.2431 51.6005C66.6901 51.6005 69.6548 48.1318 69.6548 41.3426C69.6548 34.5535 66.7346 31.07 62.2431 31.07ZM60.7607 46.5901C58.2852 46.5901 56.8029 44.9003 56.8029 41.3426C56.8029 37.785 58.2852 36.0803 60.7311 36.0803C63.1769 36.0803 64.3925 37.785 64.3925 41.3426C64.3925 44.9003 63.1473 46.5901 60.7311 46.5901H60.7607Z"
                    fill="white" />
                <path
                    d="M21.5382 31.5439L17.8175 43.551L14.2006 31.5439H8.22676L5.11383 51.1554H10.0797L11.9623 38.9557L15.6237 51.1554H19.878L23.6728 38.7333L25.4813 51.1554H30.5212L27.4231 31.5439H21.5382Z"
                    fill="white" />
                <path
                    d="M98.664 46.7833C98.0734 46.8085 97.4838 46.7107 96.9329 46.496C96.3821 46.2814 95.8816 45.9547 95.4636 45.5367C95.0456 45.1186 94.7189 44.6182 94.5042 44.0674C94.2896 43.5165 94.1918 42.9268 94.217 42.3363H107.558C107.558 42.3363 107.647 41.3283 107.647 40.2906C107.647 34.3613 104.149 31.1001 98.6492 31.1001C92.8532 31.1001 88.8212 35.3248 88.8212 41.3431C88.8212 47.3614 92.7939 51.7195 98.5899 51.7195C103.971 51.7195 107.588 48.6066 107.706 44.041H102.4C102.244 44.888 101.77 45.6434 101.076 46.153C100.381 46.6627 99.519 46.8883 98.664 46.7833ZM98.664 35.6064C99.1105 35.5463 99.5641 35.5756 99.999 35.6924C100.434 35.8095 100.841 36.0117 101.197 36.2877C101.553 36.5637 101.851 36.9076 102.072 37.2996C102.294 37.6915 102.435 38.1238 102.488 38.5711H94.5134C94.7791 37.6752 95.3391 36.8952 96.1031 36.3571C96.8671 35.819 97.7903 35.5546 98.7233 35.6064H98.664Z"
                    fill="white" />
            </g>
        </g>
    </g>
    <defs>
        <clipPath id="clip0_2037_10018">
            <rect width="130" height="60" fill="white" />
        </clipPath>
        <clipPath id="clip1_2037_10018">
            <rect width="136.376" height="63.4444" fill="white" transform="translate(-3.18793)" />
        </clipPath>
    </defs>
</svg>