<svg width="145" height="60" viewBox="0 0 145 60" fill="none" xmlns="http://www.w3.org/2000/svg">
    <g opacity="0.75" clip-path="url(#clip0_2037_10018)">
        <path
            d="M135.996 44.756C138.736 44.756 140.676 44.2698 142.121 43.2163V38.4487C140.638 39.4606 138.851 40.0996 136.339 40.0996C132.117 40.0996 130.365 36.8696 130.365 31.7639C130.365 26.3944 132.497 23.6598 136.376 23.6598C138.659 23.6598 140.903 24.4471 142.083 25.1996V20.2329C140.828 19.5568 138.659 19.0752 135.691 19.0752C128.12 19.0752 124.199 24.4447 124.199 31.9561C124.236 40.183 128.078 44.763 135.992 44.763L135.996 44.756ZM98.9797 42.5795V37.8096C97.1526 39.0484 94.0331 40.1251 91.1809 40.1251C86.8441 40.1251 85.207 38.0991 84.9419 33.966H99.2495V30.8864C99.2495 22.2867 95.4075 19.0566 89.511 19.0566C82.2821 19.0566 78.86 24.5026 78.86 31.977C78.86 40.5766 83.157 44.7445 90.6907 44.7445C94.4576 44.7445 97.2347 43.7326 98.9844 42.5679L98.9797 42.5795ZM44.6908 19.5197V29.2841H36.7771V19.5197H30.8359V44.2698H36.7701V33.9405H44.6838V44.2698H50.6179V19.5197H44.6908ZM77.3706 39.6064H74.746V19.5197H57.4738V21.6222C57.4738 27.6679 57.0938 35.4803 55.0016 39.6111H53.0994V49.9033H58.5762V44.2698H71.854V49.9033H77.3331V39.6064H77.3706ZM117.887 44.2652L109.138 32.0951V44.2652H103.202V19.5197H109.138V30.935L117.507 19.5197H123.483L115.112 30.935L124.623 44.2698L117.887 44.2652ZM89.3538 23.6575C92.2833 23.6575 93.1957 26.0609 93.1957 29.1776V29.6499H84.9419C85.0944 25.7136 86.5392 23.6413 89.3538 23.6413V23.6575ZM68.8096 39.6064H60.4408C62.0827 35.8901 62.533 29.1289 62.533 24.8476V24.0928H68.8096V39.6064Z"
            fill="white" />
        <path
            d="M25.8957 44.2695H19.8466V14.7102H17.1469C12.2003 14.7102 9.6132 17.1461 9.6132 20.7952C9.6132 24.926 11.4005 26.8432 15.0923 29.2838L18.1414 31.3121L9.39272 44.2787H2.87927L10.7555 32.7014C6.2263 29.5084 3.67909 26.3917 3.67909 21.1333C3.67909 14.562 8.31849 10.0908 17.1071 10.0908H25.8581V44.2695H25.8957Z"
            fill="white" />
    </g>
    <defs>
        <clipPath id="clip0_2037_10018">
            <rect width="139.623" height="46.541" fill="white" transform="translate(2.68854 6.72949)" />
        </clipPath>
    </defs>
</svg>