<svg width="70" height="60" viewBox="0 0 70 60" fill="none" xmlns="http://www.w3.org/2000/svg">
    <g opacity="0.75">
        <path
            d="M14.7542 6.36914C17.9629 6.36914 21.1715 6.36914 24.4774 6.36914C24.4774 10.0436 24.4774 13.718 24.4774 17.5037C27.6861 17.5037 30.8947 17.5037 34.2006 17.5037C34.2006 20.7124 34.2006 23.921 34.2006 27.2269C30.9919 27.2269 27.7833 27.2269 24.4774 27.2269C24.4774 32.6609 24.4774 38.0949 24.4774 43.6935C28.9281 43.6935 33.3788 43.6935 37.9644 43.6935C37.9644 46.9539 37.9644 50.2143 37.9644 53.5735C35.6064 53.5929 35.6064 53.5929 33.2008 53.6127C32.7107 53.6184 32.2206 53.6242 31.7156 53.63C27.4182 53.6592 23.6327 52.9865 20.2431 50.1234C20.1192 50.0223 19.9953 49.9212 19.8676 49.8171C17.1967 47.5457 15.2315 44.2159 14.7542 40.7139C14.67 39.5885 14.6946 38.4573 14.7008 37.3297C14.701 36.991 14.7009 36.6523 14.7006 36.3137C14.7005 35.3998 14.7032 34.4859 14.7065 33.572C14.7095 32.6148 14.7098 31.6577 14.7103 30.7006C14.7118 28.8905 14.7156 27.0805 14.7204 25.2705C14.7256 23.2088 14.7282 21.1471 14.7306 19.0855C14.7355 14.8467 14.7441 10.6079 14.7542 6.36914Z"
            fill="white" />
        <path
            d="M60.9983 14.6718C64.5273 17.3807 66.9571 20.9382 67.5654 25.4241C67.5829 25.6591 67.5954 25.8944 67.6046 26.1298C67.6126 26.2997 67.6207 26.4695 67.6291 26.6444C67.6682 28.1954 67.4724 29.6385 67.1341 31.1482C67.0959 31.3207 67.0577 31.4931 67.0183 31.6708C66.0213 35.4273 63.222 38.6733 59.9177 40.6086C59.7632 40.6953 59.6088 40.7821 59.4497 40.8714C59.3405 40.9339 59.2313 40.9963 59.1188 41.0607C57.2201 42.079 55.1219 42.6515 52.972 42.6321C52.8356 42.6321 52.6992 42.6322 52.5587 42.6322C52.1141 42.632 51.6695 42.6296 51.2249 42.6271C50.9142 42.6265 50.6035 42.6261 50.2928 42.6258C49.4797 42.6246 48.6666 42.6215 47.8534 42.618C46.8753 42.6142 45.8972 42.6128 44.9191 42.611C43.4373 42.608 41.9556 42.6019 40.4738 42.5965C40.4738 39.3361 40.4738 36.0757 40.4738 32.7165C41.3971 32.7106 42.3203 32.7048 43.2715 32.6987C43.8583 32.694 44.4451 32.6891 45.0318 32.6837C45.9621 32.6752 46.8923 32.6672 47.8226 32.6622C48.573 32.6581 49.3234 32.6517 50.0739 32.6439C50.3594 32.6413 50.6449 32.6394 50.9305 32.6385C51.3321 32.6369 51.7336 32.6325 52.1352 32.6275C52.3101 32.6278 52.3101 32.6278 52.4886 32.6282C54 32.6015 55.2477 32.0649 56.3131 30.9914C57.445 29.463 57.7512 28.0176 57.5677 26.1298C57.1833 24.6944 56.4841 23.5576 55.2546 22.7189C53.9717 21.9827 52.6079 21.7018 51.1379 21.8956C49.6894 22.2881 48.4389 23.0376 47.6002 24.3031C47.0897 25.2573 46.8804 26.1629 46.59 27.2276C43.3813 27.2276 40.1727 27.2276 36.8668 27.2276C36.8668 25.0126 36.8668 25.0126 37.1119 23.9735C37.1394 23.8545 37.1669 23.7355 37.1953 23.6129C38.1612 19.7081 40.6999 16.3534 44.0808 14.2111C49.3561 11.0508 55.9289 11.1076 60.9983 14.6718Z"
            fill="white" />
        <path
            d="M40.4741 43.6938C49.1685 43.6938 57.8629 43.6938 66.8208 43.6938C66.8208 46.9542 66.8208 50.2146 66.8208 53.5738C58.1264 53.5738 49.432 53.5738 40.4741 53.5738C40.4741 50.3134 40.4741 47.053 40.4741 43.6938Z"
            fill="white" />
        <path
            d="M2.36542 17.5039C5.57406 17.5039 8.78271 17.5039 12.0886 17.5039C12.0886 20.7125 12.0886 23.9212 12.0886 27.2271C8.87994 27.2271 5.67129 27.2271 2.36542 27.2271C2.36542 24.0184 2.36542 20.8098 2.36542 17.5039Z"
            fill="white" />
    </g>
</svg>