<svg width="154" height="60" viewBox="0 0 154 60" fill="none" xmlns="http://www.w3.org/2000/svg">
    <g opacity="0.75" clip-path="url(#clip0_2040_10084)">
        <path fill-rule="evenodd" clip-rule="evenodd"
            d="M47.0821 7.27051H0L5.39621e-06 29.3259C5.39621e-06 35.3961 3.23823 41.0055 8.49501 44.0408L23.5412 52.7291L38.5872 44.0408C43.8438 41.0055 47.0821 35.3961 47.0821 29.3259V7.27051ZM12.9881 25.9534V18.6351H34.0939V25.9534C33.0932 24.8233 31.2737 24.0586 29.1933 24.0586H26.9324V32.5704C26.9324 34.831 27.5459 37.0445 28.4564 38.1354H18.6222C19.5347 37.0457 20.1497 34.8294 20.1497 32.566V24.0586H17.8889C15.8084 24.0586 13.9889 24.8233 12.9881 25.9534Z"
            fill="white" />
        <path
            d="M69.4232 27.9119C68.359 27.5024 66.967 27.3799 65.4522 27.3799H57.0184V24.7597H71.5112V20.2563H51.0821V39.7436H64.92C66.8442 39.7436 68.2767 39.58 69.3415 39.1702C71.5932 38.3106 73.108 36.2227 73.108 33.4798C73.108 30.6961 71.675 28.7717 69.4232 27.9119ZM66.4755 34.6671C66.1482 34.79 65.6979 34.8307 65.1244 34.8307H57.0184V31.7192H65.1244C65.7797 31.7192 66.3117 31.7605 66.7213 31.965C67.2125 32.2107 67.4583 32.661 67.4583 33.234C67.4583 33.8072 67.1717 34.4214 66.4755 34.6671Z"
            fill="white" />
        <path
            d="M93.7705 20.2563H85.0913L77.108 39.7436H83.8222L84.9275 36.9187H93.9342L95.0807 39.7436H101.754L93.7705 20.2563ZM86.4012 32.62L89.2264 24.7597H89.6766L92.5014 32.62H86.4012Z"
            fill="white" />
        <path
            d="M111.69 32.4975V39.7438H105.754V20.2563H111.69V27.38H121.229V20.2563H127.165V39.7438H121.229V32.4975H111.69Z"
            fill="white" />
        <path
            d="M137.102 32.3748V39.7438H131.165V20.2563H137.102V27.5848H138.739L145.904 20.2563H153.355L143.857 29.5906L153.723 39.7438H145.822L138.739 32.3748H137.102Z"
            fill="white" />
    </g>
    <defs>
        <clipPath id="clip0_2040_10084">
            <rect width="153.723" height="60" fill="white" />
        </clipPath>
    </defs>
</svg>