<svg width="177" height="60" viewBox="0 0 177 60" fill="none" xmlns="http://www.w3.org/2000/svg">
    <g opacity="0.75" clip-path="url(#clip0_2040_10093)">
        <path
            d="M8.19742 30.6457L11.6147 20.3089H11.7414L14.9686 30.6457H8.19742ZM16.106 18.4013C15.412 16.2927 14.6115 14.6274 11.868 14.6274C9.12457 14.6274 8.27088 16.285 7.53879 18.4013L0 40.2196H5.00053L6.74083 35.0357H16.367L17.9755 40.2196H23.2953L16.106 18.4013Z"
            fill="white" />
        <path
            d="M27.7018 28.1774C27.5929 31.5569 27.1622 32.2348 25.2953 32.2348V36.4933H25.9919C30.6504 36.4933 31.7701 34.0444 31.9424 28.6028L32.1323 22.5733H36.4996V36.4933H41.0593V18.3535H28.0184L27.7018 28.1774Z"
            fill="white" />
        <path
            d="M50.5626 32.4926H47.6191V27.8861H50.5626C52.1459 27.8861 53.0958 28.595 53.0958 30.1082C53.0958 31.7528 52.1763 32.4926 50.5626 32.4926ZM50.9122 23.8622H47.6191V18.3535H43.0593V36.4933H50.973C55.9533 36.4933 57.7265 33.2015 57.7265 30.1082C57.7265 26.1152 55.2465 23.8622 50.9122 23.8622Z"
            fill="white" />
        <path
            d="M73.0182 32.4784V22.2394C75.5514 22.5926 77.1321 24.5259 77.1321 27.3589C77.1321 30.1919 75.5514 32.1252 73.0182 32.4784ZM68.4584 32.4784C65.9252 32.1252 64.3445 30.1919 64.3445 27.3589C64.3445 24.5259 65.9278 22.5926 68.4584 22.2394V32.4784ZM73.0182 17.8907V11.1602H68.4584V17.8882C63.2527 18.3418 59.7265 22.1106 59.7265 27.3589C59.7265 32.6073 63.24 36.4095 68.461 36.858V43.6865H73.0207V36.858C78.2416 36.4481 81.745 32.6408 81.745 27.3589C81.745 22.077 78.2416 18.3083 73.0182 17.8882V17.8907Z"
            fill="white" />
        <path
            d="M94.729 29.8864C94.729 31.9822 93.2724 33.1731 91.3725 33.1731C89.7284 33.1731 88.4314 32.5596 88.4314 30.7577C88.4314 28.9559 89.8551 28.6955 91.0888 28.6955H94.729V29.8864ZM99.2887 31.08V24.9938C99.2887 20.5472 96.5022 17.7451 91.8183 17.7451C86.9774 17.7451 84.4138 20.7096 84.1909 23.8003H88.8139C88.9685 23.1249 89.6651 21.9649 91.8132 21.9649C93.5865 21.9649 94.7264 22.8027 94.7264 24.9938H90.2021C86.149 24.9938 83.745 27.1514 83.745 30.7577C83.745 34.5264 86.377 37.1016 90.1717 37.1016C92.9582 37.1016 94.4959 35.7638 95.1723 34.7507C95.7726 35.9752 97.1026 36.6505 98.8429 36.6505H100.426V32.4642C99.6028 32.4642 99.2862 32.0776 99.2862 31.08H99.2887Z"
            fill="white" />
        <path
            d="M112.08 35.4866H107.206V28.9158H112.08C114.613 28.9158 116.037 30.1093 116.037 32.2025C116.037 34.3601 114.611 35.4866 112.08 35.4866ZM112.301 24.5052H107.206V19.3832H119.011V14.7793H102.426V40.0673H112.306C117.782 40.0673 120.918 37.2988 120.918 32.2102C120.911 27.4027 117.777 24.5052 112.301 24.5052Z"
            fill="white" />
        <path
            d="M133.9 29.8864C133.9 31.9822 132.446 33.1731 130.546 33.1731C128.899 33.1731 127.602 32.5596 127.602 30.7577C127.602 28.9559 129.026 28.6955 130.262 28.6955H133.9V29.8864ZM138.46 31.08V24.9938C138.46 20.5472 135.673 17.7451 130.992 17.7451C126.151 17.7451 123.587 20.7096 123.364 23.8003H127.985C128.144 23.1249 128.839 21.9649 130.992 21.9649C132.765 21.9649 133.902 22.8027 133.902 24.9938H129.376C125.322 24.9938 122.918 27.1514 122.918 30.7577C122.918 34.5264 125.55 37.1016 129.343 37.1016C132.129 37.1016 133.669 35.7638 134.343 34.7507C134.946 35.9752 136.273 36.6505 138.016 36.6505H139.597V32.4642C138.774 32.4642 138.457 32.0776 138.457 31.08H138.46Z"
            fill="white" />
        <path
            d="M152.454 25.1215H146.154V18.3574H141.597V36.4895H146.154V29.3388H152.454V36.4895H157.011V18.3574H152.454V25.1215Z"
            fill="white" />
        <path
            d="M169.866 18.3574L163.569 25.5391V18.3574H159.011V36.4895H163.569V28.8567L170.31 36.4895H176.197L167.906 26.9878L175.594 18.3574H169.866Z"
            fill="white" />
        <path d="M24.3693 43.6865H0V48.8395H24.3693V43.6865Z" fill="white" />
    </g>
    <defs>
        <clipPath id="clip0_2040_10093">
            <rect width="176.197" height="60" fill="white" />
        </clipPath>
    </defs>
</svg>