<svg width="69" height="60" viewBox="0 0 69 60" fill="none" xmlns="http://www.w3.org/2000/svg">
    <g opacity="0.75" clip-path="url(#clip0_2040_10105)">
        <path
            d="M15.485 28.8062C17.0377 32.4616 19.6297 35.5778 22.9374 37.7658C26.2452 39.9538 30.1224 41.1167 34.0851 41.1096C32.5237 37.4604 29.9297 34.3501 26.6239 32.1634C23.3181 29.9767 19.4455 28.8095 15.485 28.8062Z"
            fill="white" />
        <path
            d="M34.0838 0.683124C31.0938 0.687264 28.1721 1.58002 25.688 3.24856C23.2039 4.91709 21.2689 7.28652 20.1275 10.0574C18.9861 12.8282 18.6896 15.8761 19.2755 18.8159C19.8613 21.7557 21.3033 24.4553 23.419 26.5737C25.5347 28.692 28.2293 30.134 31.1622 30.7173C34.095 31.3006 37.1346 30.9992 39.8966 29.851C42.6586 28.7028 45.0192 26.7594 46.6799 24.2665C48.3407 21.7736 49.2271 18.843 49.2271 15.8451C49.2274 13.8522 48.8358 11.8787 48.0747 10.0376C47.3135 8.19657 46.1978 6.52405 44.7912 5.11579C43.3847 3.70753 41.715 2.59115 39.8777 1.83054C38.0404 1.06994 36.0716 0.680026 34.0838 0.683124ZM34.0838 23.4261C32.5863 23.4261 31.1224 22.9809 29.8773 22.1467C28.6321 21.3126 27.6616 20.1269 27.0886 18.7398C26.5155 17.3526 26.3655 15.8262 26.6577 14.3536C26.9499 12.881 27.671 11.5284 28.7299 10.4667C29.7888 9.40498 31.1379 8.68197 32.6067 8.38905C34.0754 8.09613 35.5978 8.24647 36.9814 8.82105C38.3649 9.39563 39.5474 10.3686 40.3794 11.6171C41.2114 12.8655 41.6555 14.3332 41.6555 15.8347C41.6555 16.8316 41.4596 17.8187 41.0791 18.7398C40.6986 19.6608 40.1409 20.4977 39.4378 21.2026C38.7347 21.9076 37.9 22.4667 36.9814 22.8483C36.0627 23.2298 35.0782 23.4261 34.0838 23.4261Z"
            fill="white" />
        <path
            d="M34.0847 41.104C36.9936 41.1115 39.8426 40.2753 42.2881 38.6961C44.7337 37.1168 46.6714 34.8621 47.8677 32.2036C44.9619 32.21 42.1188 33.0519 39.6758 34.6295C37.2329 36.207 35.2924 38.454 34.0847 41.104Z"
            fill="white" />
        <path
            d="M21.6139 57.0018C19.9221 57.0018 18.2615 56.3212 17.93 54.2218C22.6296 55.6563 26.8697 54.117 26.8697 50.7611C26.8697 48.7166 25.264 46.8973 21.3868 46.8973C18.3138 46.8973 14.7003 48.7297 14.7003 53.3998C14.7003 58.0698 18.4547 59.9049 21.5617 59.9049C23.7784 59.9049 25.4024 59.2033 26.572 57.9102L24.6165 55.8997C23.7785 56.614 22.7138 57.0048 21.6139 57.0018ZM21.4233 49.748C22.4886 49.748 23.4311 50.1669 23.4311 51.1276C23.4311 52.4234 21.2824 53.138 18.0004 52.1956C18.4208 50.4286 19.8281 49.748 21.4233 49.748ZM2.65355 47.2298L2.56739 51.8448C2.54912 53.7165 2.47862 54.6432 2.19926 55.6903C1.91989 56.7374 1.48387 56.9992 0.73454 56.9992C0.515314 57.0089 0.296106 56.9796 0.0870361 56.9128V59.5305C0.460271 59.6958 0.867939 59.7676 1.275 59.74C3.50993 59.6719 4.59346 58.6222 5.11564 56.7348C5.49944 55.3893 5.56993 54.3396 5.63782 52.7846L5.7057 50.2847H9.656V59.5305H12.8335V47.2271L2.65355 47.2298ZM67.7068 57.0542C67.0254 57.0542 66.6938 56.6694 66.6938 55.9181V47.2298H63.532V48.5386C62.5895 47.4366 61.2971 46.8947 59.6574 46.8947C58.862 46.8889 58.0743 47.052 57.3462 47.3732C56.6181 47.6945 55.9661 48.1666 55.433 48.7585C54.2767 50.0047 53.6502 51.6536 53.6863 53.3553C53.6491 55.0681 54.2752 56.7287 55.433 57.9887C55.9618 58.585 56.6115 59.0612 57.3387 59.3853C58.0659 59.7095 58.8538 59.8741 59.6496 59.8682C61.378 59.8682 62.7043 59.274 63.6469 58.0672L63.6991 57.9992C64.0307 59.151 64.8505 59.8682 66.511 59.8682C67.2017 59.8863 67.8877 59.7494 68.5188 59.4677V56.85C68.2699 56.9938 67.9863 57.0663 67.699 57.0594L67.7068 57.0542ZM62.6782 55.884C62.3606 56.2022 61.9812 56.4516 61.5635 56.6168C61.1459 56.7821 60.6988 56.8597 60.2501 56.8447C59.8015 56.8613 59.3544 56.7845 58.9369 56.6192C58.5195 56.4538 58.1407 56.2035 57.8246 55.884C57.504 55.5504 57.2537 55.1555 57.0886 54.7229C56.9236 54.2902 56.8471 53.8287 56.8637 53.3658C56.8438 52.9079 56.9189 52.451 57.0843 52.0238C57.2497 51.5966 57.5017 51.2085 57.8246 50.8841C58.3016 50.3904 58.9165 50.0531 59.5884 49.9166C60.2604 49.7801 60.9578 49.8508 61.5888 50.1195C62.2199 50.3881 62.755 50.842 63.1238 51.4215C63.4925 52.0009 63.6776 52.6788 63.6547 53.3658C63.6721 53.8301 63.5944 54.2931 63.4264 54.7262C63.2585 55.1593 63.0039 55.5534 62.6782 55.884ZM42.1278 47.2298V50.2899H46.0729V59.5358H49.253V50.2899H53.1458V47.2298H42.1278ZM37.4673 47.2298V51.7585H31.9322V47.2298H28.7548V59.5332H31.9322V54.7479H37.4569V59.5358H40.6344V47.2324L37.4673 47.2298Z"
            fill="white" />
    </g>
    <defs>
        <clipPath id="clip0_2040_10105">
            <rect width="68.5714" height="60" fill="white" />
        </clipPath>
    </defs>
</svg>