<svg width="24" height="34" viewBox="0 0 24 34" fill="none" xmlns="http://www.w3.org/2000/svg">
<circle cx="12" cy="17" r="12" fill="#FF5129"/>
<path d="M12.5887 19.6139H10.8323C10.6425 19.6139 10.5475 19.5242 10.5475 19.3449V18.7278C10.5475 18.2847 10.6372 17.905 10.8165 17.5885C11.0064 17.2615 11.2279 17.0031 11.4811 16.8132C11.7448 16.6233 12.0032 16.4493 12.2564 16.291C12.5201 16.1222 12.7416 15.9218 12.921 15.6897C13.1108 15.4577 13.2058 15.1887 13.2058 14.8828C13.2058 14.5136 13.0845 14.2129 12.8419 13.9809C12.6098 13.7382 12.2406 13.6169 11.7342 13.6169C10.9747 13.6169 10.2996 13.8754 9.70889 14.3923C9.56121 14.5294 9.43462 14.5188 9.32914 14.3606L8.44305 13.0315C8.34811 12.9049 8.35866 12.7783 8.47469 12.6517C8.83335 12.3247 9.31331 12.0504 9.91459 11.8289C10.5264 11.5968 11.1752 11.4808 11.8608 11.4808C12.9157 11.4808 13.8018 11.7656 14.5191 12.3353C15.2364 12.8943 15.5951 13.7224 15.5951 14.8195C15.5951 15.3258 15.5001 15.7636 15.3103 16.1328C15.1309 16.4914 14.9041 16.771 14.6299 16.9714C14.3661 17.1718 14.0972 17.3617 13.8229 17.541C13.5592 17.7098 13.3324 17.9208 13.1425 18.174C12.9632 18.4166 12.8735 18.7119 12.8735 19.0601V19.3923C12.8735 19.54 12.7786 19.6139 12.5887 19.6139ZM12.7469 20.7848C13.0106 21.0379 13.1425 21.365 13.1425 21.7658C13.1425 22.1667 13.0106 22.4989 12.7469 22.7627C12.4832 23.0264 12.1456 23.1582 11.7342 23.1582C11.3228 23.1582 10.9853 23.0264 10.7216 22.7627C10.4578 22.4989 10.326 22.1667 10.326 21.7658C10.326 21.365 10.4526 21.0379 10.7057 20.7848C10.9695 20.5211 11.3123 20.3892 11.7342 20.3892C12.1456 20.3892 12.4832 20.5211 12.7469 20.7848Z" fill="white"/>
</svg>
