<svg width="162" height="41" viewBox="0 0 162 41" fill="none" xmlns="http://www.w3.org/2000/svg">
<g clip-path="url(#clip0_5108_2113)">
<path d="M28.8432 15.6309L25.1443 21.9601L24.9692 21.9473C24.967 21.9473 23.5748 21.9281 21.7631 21.9516C19.558 21.9814 17.6102 22.1371 16.419 22.3845L15.7661 22.5423L19.7915 15.633H11.2219L0.609375 34.399H9.1833L11.5159 30.1169C12.5731 28.2019 14.8798 26.0396 17.4459 25.7794C18.2955 25.6941 19.2554 25.6557 20.2952 25.6557C21.5664 25.6557 22.5176 25.7261 22.5284 25.7261L22.9889 25.7368L18.2263 34.3968H26.8089L37.4215 15.6309H28.8432Z" fill="white"/>
<path d="M28.8432 15.6309L25.1443 21.9601L24.9692 21.9473C24.967 21.9473 23.5748 21.9281 21.7631 21.9516C19.558 21.9814 17.6102 22.1371 16.419 22.3845L15.7661 22.5423L19.7915 15.633H11.2219L0.609375 34.399H9.1833L11.5159 30.1169C12.5731 28.2019 14.8798 26.0396 17.4459 25.7794C18.2955 25.6941 19.2554 25.6557 20.2952 25.6557C21.5664 25.6557 22.5176 25.7261 22.5284 25.7261L22.9889 25.7368L18.2263 34.3968H26.8089L37.4215 15.6309H28.8432Z" fill="white"/>
<path d="M95.2857 15.6317L82.161 26.2451L81.7719 15.5592L73.6152 15.4824L73.9655 34.3977H83.3457L105.877 15.6317H95.2857Z" fill="white"/>
<path d="M95.2857 15.6317L82.161 26.2451L81.7719 15.5592L73.6152 15.4824L73.9655 34.3977H83.3457L105.877 15.6317H95.2857Z" fill="white"/>
<path d="M50.4121 18.5534C48.728 19.6985 46.7564 21.1892 46.2462 21.6604L31.8828 34.4426H39.6266L42.0111 32.1502C43.1634 31.1031 45.8354 29.9964 48.5313 29.9964H48.6631C51.4303 30.0326 53.951 30.2054 53.9748 30.2075L54.4029 30.2373L52.4767 34.4426H59.1092L68.1004 15.585H61.2408C56.675 15.585 51.934 17.517 50.4121 18.5534ZM56.0437 26.4863H48.194L51.4238 23.4432C51.5687 23.3174 54.7596 20.5537 56.2383 19.6943C57.196 19.1377 58.1926 19.0204 58.8606 19.0204C59.2411 19.0204 59.4832 19.0588 59.494 19.0609L59.8983 19.127L56.0437 26.4863Z" fill="white"/>
<path d="M50.4121 18.5534C48.728 19.6985 46.7564 21.1892 46.2462 21.6604L31.8828 34.4426H39.6266L42.0111 32.1502C43.1634 31.1031 45.8354 29.9964 48.5313 29.9964H48.6631C51.4303 30.0326 53.951 30.2054 53.9748 30.2075L54.4029 30.2373L52.4767 34.4426H59.1092L68.1004 15.585H61.2408C56.675 15.585 51.934 17.517 50.4121 18.5534ZM56.0437 26.4863H48.194L51.4238 23.4432C51.5687 23.3174 54.7596 20.5537 56.2383 19.6943C57.196 19.1377 58.1926 19.0204 58.8606 19.0204C59.2411 19.0204 59.4832 19.0588 59.494 19.0609L59.8983 19.127L56.0437 26.4863Z" fill="white"/>
<path d="M122.662 15.585C118.099 15.585 113.358 17.5191 111.836 18.5534C110.152 19.6964 108.18 21.1892 107.67 21.6604L93.3066 34.4426H101.05L103.435 32.1502C104.587 31.1031 107.259 29.9964 109.957 29.9964H110.089C112.856 30.0326 115.377 30.2054 115.401 30.2075L115.829 30.2373L113.903 34.4426H120.535L129.526 15.585H122.662ZM117.468 26.4863H109.618L112.848 23.4432C112.993 23.3174 116.183 20.5537 117.662 19.6943C118.62 19.1377 119.616 19.0204 120.284 19.0204C120.665 19.0204 120.909 19.0588 120.918 19.0609L121.324 19.127L117.468 26.4863Z" fill="white"/>
<path d="M122.662 15.585C118.099 15.585 113.358 17.5191 111.836 18.5534C110.152 19.6964 108.18 21.1892 107.67 21.6604L93.3066 34.4426H101.05L103.435 32.1502C104.587 31.1031 107.259 29.9964 109.957 29.9964H110.089C112.856 30.0326 115.377 30.2054 115.401 30.2075L115.829 30.2373L113.903 34.4426H120.535L129.526 15.585H122.662ZM117.468 26.4863H109.618L112.848 23.4432C112.993 23.3174 116.183 20.5537 117.662 19.6943C118.62 19.1377 119.616 19.0204 120.284 19.0204C120.665 19.0204 120.909 19.0588 120.918 19.0609L121.324 19.127L117.468 26.4863Z" fill="white"/>
<path d="M140.507 29.9204L140.44 29.9374C140.416 29.9246 139.832 29.6303 139.668 29.029C139.571 28.6686 139.64 28.3082 139.876 27.9307C139.91 27.871 143.864 20.9255 144.738 19.4605C145.875 17.5497 147.522 16.2745 148.56 15.6348H138.408C137.63 16.9143 131.829 27.1204 130.932 28.6771C129.998 30.2999 129.875 32.441 131.706 33.6458C132.666 34.2771 135.528 34.4007 136.551 34.4007H155.387L159.523 29.9225H140.507V29.9204Z" fill="white"/>
<path d="M140.507 29.9204L140.44 29.9374C140.416 29.9246 139.832 29.6303 139.668 29.029C139.571 28.6686 139.64 28.3082 139.876 27.9307C139.91 27.871 143.864 20.9255 144.738 19.4605C145.875 17.5497 147.522 16.2745 148.56 15.6348H138.408C137.63 16.9143 131.829 27.1204 130.932 28.6771C129.998 30.2999 129.875 32.441 131.706 33.6458C132.666 34.2771 135.528 34.4007 136.551 34.4007H155.387L159.523 29.9225H140.507V29.9204Z" fill="white"/>
</g>
<defs>
<clipPath id="clip0_5108_2113">
<rect width="160.133" height="20.1649" fill="white" transform="translate(0 15.1113)"/>
</clipPath>
</defs>
</svg>
