<svg width="259" height="41" viewBox="0 0 259 41" fill="none" xmlns="http://www.w3.org/2000/svg">
<g clip-path="url(#clip0_3276_10255)">
<path d="M18.9103 31.8232H13.3611V16.1359H9.02013V22.5332C9.02013 25.1626 8.89621 27.0949 8.66 28.3302C8.41603 29.5617 7.85066 30.4678 6.96387 31.0448C6.07708 31.6218 4.64428 31.9122 2.66546 31.9122C2.06136 31.9122 1.3682 31.8348 0.582092 31.6838V27.4667H1.41467C2.16205 27.4667 2.69644 27.273 3.00624 26.8897C3.31603 26.5063 3.47093 25.8054 3.47093 24.7831V11.0243H18.9103V31.8232ZM248.418 11.0243V31.8232H243.194V20.4033L236.514 31.8232H231.244V11.0243H236.491V22.5332L243.225 11.0243H248.418ZM23.4178 11.0243H38.2841V15.4699H28.9942V18.7808H37.6065V23.0211H28.9942V27.1181H38.5591V31.8232H23.4178V11.0243ZM56.6279 16.1359H47.9381V31.8232H42.3889V11.0243H56.6279V16.1359ZM59.9775 11.0243H74.8399V15.4699H65.55V18.7808H74.1623V23.0211H65.55V27.1181H75.1187V31.8232H59.9775V11.0243ZM78.9718 11.0243H84.521V18.2851H90.5969V11.0243H96.1732V31.8232H90.5969V23.4006H84.521V31.8232H78.9718V11.0243ZM119.559 36.3539H115.09V31.8232H103.612V36.3539H99.1433V27.0291H100.998C102.04 23.6717 102.559 19.8844 102.559 15.6635V11.0243H117.623V27.0291H119.559V36.3539ZM112.073 27.0291V16.1359H107.605V16.407C107.605 19.2803 107.186 22.8236 106.346 27.0291H112.073ZM133.635 28.396H127.342L126.44 31.8232H120.767L126.08 15.497C126.665 17.5881 127.528 19.4391 128.365 21.0694C128.628 21.5651 130.057 24.117 130.309 24.2797C130.479 23.114 130.533 22.2815 131.06 21.3482C131.339 21.6851 131.637 22.1808 131.9 22.5448C132.179 22.9359 132.45 23.2922 132.733 23.6678C133.298 24.4152 133.871 25.0851 134.456 25.7667C135.269 26.7232 136.257 27.699 137.178 28.4619L137.906 29.0311C138.061 29.155 138.046 29.155 138.162 29.1783C138.015 28.9382 137.806 28.6904 137.639 28.4425C136.295 26.4792 135.451 24.9844 134.286 22.8197C133.329 21.0345 132.024 18.1612 131.254 16.1746C131.161 15.9346 130.998 15.4505 130.897 15.2607C129.279 16.1437 129.186 17.8243 128.98 18.0257C128.005 15.9462 127.339 14.4669 126.839 13.1619L127.536 11.0243H133.616L140.354 31.8232H134.537L133.635 28.396ZM150.507 11.0243H160.913C162.647 11.0243 163.976 11.5238 164.905 12.5152C165.834 13.5065 166.299 14.738 166.299 16.2056C166.299 17.4332 165.97 18.4904 165.304 19.3655C164.866 19.958 164.216 20.4188 163.368 20.7596C164.661 21.1197 165.606 21.7355 166.218 22.6106C166.822 23.4858 167.128 24.5856 167.128 25.9061C167.128 26.9865 166.911 27.9546 166.481 28.8181C166.044 29.6778 165.451 30.3555 164.7 30.8628C164.231 31.1687 163.53 31.3972 162.589 31.5405C161.339 31.7263 160.506 31.8232 160.099 31.8232H150.507V11.0243ZM156.107 19.1874H158.527C159.395 19.1874 160.003 19.0131 160.339 18.6685C160.68 18.32 160.851 17.8204 160.851 17.1699C160.851 16.5619 160.68 16.0894 160.339 15.7487C160.003 15.4079 159.406 15.2375 158.566 15.2375H156.107V19.1874ZM156.107 27.3505H158.938C159.898 27.3505 160.572 27.153 160.963 26.7619C161.358 26.3669 161.555 25.8441 161.555 25.1819C161.555 24.5662 161.362 24.0744 160.971 23.6988C160.583 23.327 159.902 23.1373 158.926 23.1373H156.107V27.3505ZM170.148 21.4373C170.148 18.045 170.962 15.4002 172.6 13.5143C174.234 11.6207 176.511 10.6758 179.434 10.6758C182.424 10.6758 184.732 11.6052 186.351 13.4601C187.969 15.3188 188.779 17.925 188.779 21.2708C188.779 23.6988 188.426 25.6892 187.718 27.2459C187.013 28.7988 185.987 30.007 184.651 30.8744C183.311 31.7418 181.646 32.1717 179.651 32.1717C177.626 32.1717 175.945 31.7999 174.617 31.0525C173.289 30.3052 172.208 29.1241 171.384 27.5054C170.563 25.8945 170.148 23.8692 170.148 21.4373ZM175.698 21.4528C175.698 23.5516 176.034 25.0619 176.708 25.9758C177.386 26.8897 178.308 27.3505 179.469 27.3505C180.662 27.3505 181.591 26.9013 182.246 26.0029C182.9 25.1045 183.229 23.4974 183.229 21.1662C183.229 19.2106 182.885 17.7817 182.203 16.8833C181.518 15.9771 180.592 15.5279 179.419 15.5279C178.3 15.5279 177.394 15.9888 176.716 16.9027C176.034 17.8166 175.698 19.3384 175.698 21.4528ZM209.124 31.8232H203.575V16.1359H199.234V22.5332C199.234 25.1626 199.11 27.0949 198.874 28.3302C198.63 29.5617 198.065 30.4678 197.178 31.0448C196.291 31.6218 194.858 31.9122 192.88 31.9122C192.275 31.9122 191.582 31.8348 190.796 31.6838V27.4667H191.629C192.376 27.4667 192.911 27.273 193.216 26.8897C193.526 26.5063 193.685 25.8054 193.685 24.7831V11.0243H209.124V31.8232ZM227.871 16.1359H219.181V31.8232H213.632V11.0243H227.871V16.1359Z" fill="white"/>
</g>
<defs>
<clipPath id="clip0_3276_10255">
<rect width="249" height="25.6781" fill="white" transform="translate(0 10.6758)"/>
</clipPath>
</defs>
</svg>
