<svg width="13" height="14" viewBox="0 0 13 14" fill="none" xmlns="http://www.w3.org/2000/svg">
<path d="M12.9427 3.53135L12.9346 3.48426H0.0662645L0.0581266 3.53135C0.0191811 3.75049 0 3.97252 0 4.19456V9.56188C0 11.6667 1.71246 13.3779 3.81658 13.3779H9.18341C11.2877 13.3779 13 11.6661 13 9.56188V4.19456C13.0006 3.97194 12.9816 3.75047 12.9427 3.53135ZM4.18695 6.69981L3.58069 8.58082C3.55685 8.65522 3.48652 8.70579 3.40804 8.70579C3.33015 8.70579 3.2604 8.6558 3.23715 8.5814L2.8012 7.2323L2.36698 8.58082C2.34315 8.65581 2.27282 8.70579 2.19434 8.70579C2.11586 8.70579 2.04727 8.65522 2.02345 8.58082L1.4166 6.69921C1.3858 6.60446 1.43753 6.50275 1.53286 6.47194C1.62819 6.44114 1.72991 6.49287 1.76013 6.5882L2.19434 7.93672L2.62972 6.5882C2.65297 6.51321 2.72331 6.46264 2.80061 6.46264C2.87908 6.46264 2.94942 6.51321 2.97325 6.58761L3.40747 7.93614L3.84285 6.58761C3.87365 6.49287 3.97538 6.44056 4.07012 6.47136C4.16545 6.50275 4.2166 6.60563 4.18695 6.69981ZM7.54729 6.69922L6.94044 8.58084C6.91661 8.65524 6.84628 8.70581 6.7678 8.70581C6.68991 8.70581 6.62016 8.65582 6.59691 8.58142L6.16095 7.23231L5.72674 8.58084C5.7029 8.65582 5.63257 8.70581 5.55409 8.70581C5.4762 8.70581 5.40645 8.65582 5.3832 8.58142L4.77694 6.69936C4.74613 6.60403 4.79845 6.50289 4.89319 6.47209C4.98736 6.44129 5.09024 6.49418 5.12046 6.58834L5.55468 7.93687L5.99006 6.58834C6.01331 6.51336 6.08364 6.46279 6.16095 6.46279C6.23942 6.46279 6.30975 6.51336 6.33359 6.58776L6.76781 7.93629L7.20318 6.58776C7.23341 6.4936 7.33455 6.4407 7.42929 6.47151C7.52462 6.5029 7.5781 6.6039 7.54729 6.69922ZM10.9064 6.69922L10.2996 8.58084C10.2763 8.65582 10.206 8.70581 10.1287 8.70581C10.0502 8.70581 9.98048 8.65524 9.95606 8.58084L9.52184 7.23173L9.08762 8.58084C9.06379 8.65582 8.99346 8.70581 8.91498 8.70581C8.83709 8.70581 8.76734 8.65582 8.74409 8.58142L8.13725 6.69936C8.10644 6.60403 8.15875 6.50289 8.2535 6.47209C8.34767 6.44129 8.45055 6.49418 8.48077 6.58834L8.91499 7.93745L9.3492 6.58834C9.37304 6.51394 9.44337 6.46337 9.52185 6.46337C9.59974 6.46337 9.66949 6.51336 9.69274 6.58834L10.1287 7.93745L10.5629 6.58892C10.5931 6.49418 10.696 6.44186 10.7902 6.47267C10.8855 6.5029 10.9372 6.60448 10.9064 6.69922ZM11.7109 8.76208H11.5993C11.4999 8.76208 11.4197 8.6807 11.4197 8.58131C11.4197 8.48192 11.4993 8.40055 11.5993 8.40055H11.7109C11.8103 8.40055 11.8917 8.48134 11.8917 8.58131C11.8917 8.68071 11.8103 8.76208 11.7109 8.76208ZM12.8473 3.12319H0.151767L0.175018 3.04879C0.676077 1.46434 2.15012 0.37793 3.81675 0.37793H9.18358C10.8489 0.37793 12.3247 1.46489 12.8241 3.04879L12.8473 3.12319Z" fill="white"/>
</svg>
