<svg width="13" height="14" viewBox="0 0 13 14" fill="none" xmlns="http://www.w3.org/2000/svg">
<mask id="mask0_3276_10233" style="mask-type:alpha" maskUnits="userSpaceOnUse" x="0" y="0" width="13" height="14">
<path d="M6.5 13.3779C10.0899 13.3779 13 10.4678 13 6.87793C13 3.28808 10.0899 0.37793 6.5 0.37793C2.91015 0.37793 0 3.28808 0 6.87793C0 10.4678 2.91015 13.3779 6.5 13.3779Z" fill="white"/>
</mask>
<g mask="url(#mask0_3276_10233)">
<path d="M9.1875 12.1279C9.04363 12.5561 9.07777 12.998 9.24707 13.3779H5.3418L10.2939 8.83301L9.1875 12.1279ZM13 13.3779H12.4365C12.4636 13.3195 12.4888 13.2596 12.5098 13.1973L13 11.7373V13.3779ZM13 1.32812L3.70801 3.58691C2.77147 3.81453 2.18687 4.76072 2.40234 5.7002C2.61784 6.63965 3.55164 7.21687 4.48828 6.98926L7.83594 6.17578L0 13.3662V0.37793H13V1.32812Z" fill="white"/>
</g>
</svg>
