<svg width="60" height="28" viewBox="0 0 60 28" fill="none" xmlns="http://www.w3.org/2000/svg">
<g clip-path="url(#clip0_2003_600)">
<mask id="mask0_2003_600" style="mask-type:luminance" maskUnits="userSpaceOnUse" x="0" y="0" width="60" height="28">
<path d="M59.083 0.876221H0.701904V27.6235H59.083V0.876221Z" fill="white"/>
</mask>
<g mask="url(#mask0_2003_600)">
<path d="M39.3164 4.77074L26.4572 0.876221V3.15415L30.5354 4.36659V8.5183L26.4572 9.73074V12.0087L39.3164 8.11415V4.77074ZM32.3724 7.96719L32.4459 7.82022C32.6664 7.41607 32.8133 6.93844 32.8133 6.46082C32.8133 5.98319 32.7031 5.50556 32.4827 5.06467L32.4092 4.9177L37.4059 6.42407L32.3724 7.96719ZM15.9126 3.37459H20.4317C21.3502 3.37459 21.8646 3.9257 21.8646 4.99118C21.8646 6.05667 21.3502 6.60778 20.4317 6.60778H17.6027V8.48156H20.0643C21.8278 8.48156 22.0115 9.32659 22.0115 9.95119V11.4576H24.2527V9.65726C24.2527 9.21637 24.1058 8.73874 23.8118 8.40808C23.5179 8.04067 23.1138 7.82022 22.6729 7.71L22.4892 7.67326L22.6729 7.59978C23.7016 7.15889 24.069 5.94644 24.069 5.06467C24.069 2.78674 22.8566 1.61104 20.5787 1.61104H13.5979V11.4576H15.8391L15.9126 3.37459ZM56.8418 1.53755V9.54704H56.4009L50.853 1.53755H46.9585V11.3841H49.1997V3.37459H49.6406L55.115 11.3841H59.1197V1.50081L56.8418 1.53755ZM44.056 1.53755H41.8148V11.3841H44.056V1.53755ZM31.4172 13.2211H27.5227C24.2527 13.2211 23.9221 15.646 23.9221 16.7115V19.761C23.9221 20.5325 24.1792 23.1044 27.5227 23.1044H31.3804C34.6504 23.1044 34.9075 20.5325 34.9075 19.761V16.7115C34.9443 15.646 34.5769 13.2211 31.4172 13.2211ZM32.7031 19.467C32.7031 20.6427 32.2622 21.2306 31.2702 21.2306H27.5961C26.6409 21.2306 26.1632 20.6795 26.1632 19.5038V16.9687C26.1632 15.6827 26.6041 15.0949 27.6329 15.0949H31.2335C32.2622 15.0949 32.7031 15.6827 32.7031 16.9319V19.467ZM10.2912 10.4656C10.8056 9.95119 11.0628 9.25311 11.0628 8.5183C11.0628 8.00393 10.9158 7.5263 10.6219 7.12215C10.328 6.718 9.92383 6.42407 9.48294 6.24037L9.33598 6.20363L9.48294 6.13015C9.77687 6.01993 10.6954 5.50556 10.6954 3.96244C10.6954 1.64778 7.90309 1.50081 7.31524 1.50081H0.701904V11.3841H7.79287C8.85835 11.3841 9.74013 11.0902 10.2912 10.4656ZM2.97983 3.26437H7.20502C7.93983 3.26437 8.41746 3.70526 8.41746 4.40333C8.41746 4.5503 8.38072 4.734 8.30724 4.84422C8.23376 4.99119 8.16028 5.13815 8.05005 5.21163C7.93983 5.32185 7.79287 5.39533 7.64591 5.46881C7.49894 5.5423 7.35198 5.5423 7.16828 5.5423H2.97983C2.97983 5.57904 2.97983 3.26437 2.97983 3.26437ZM2.97983 9.65726V7.23237H7.2785C8.41746 7.23237 8.82161 7.85696 8.82161 8.40808C8.82161 9.32659 7.97657 9.62052 7.2785 9.62052C7.24176 9.65726 2.97983 9.65726 2.97983 9.65726ZM49.5671 23.1044H59.1197V21.3408H51.845V18.9159H58.6421V17.2993H51.845V14.9479H59.1197V13.1844H49.5671V23.1044ZM8.0868 17.1891H4.19228C3.89835 17.1891 2.97983 17.1156 2.97983 16.1236C2.97983 15.3521 3.60442 15.0582 4.19228 15.0582H8.2705C9.00531 15.0582 9.4462 15.4256 9.48294 16.0502H11.7241C11.6874 13.2946 8.4542 13.1844 8.0868 13.1844H4.33924C3.53094 13.1844 2.75939 13.3313 2.02457 13.6987C1.14279 14.2131 0.701904 15.0214 0.701904 16.1236C0.701904 17.4096 1.3265 18.9159 4.33924 18.9159H8.23376C8.82161 18.9159 9.4462 19.2833 9.4462 20.0549C9.4462 20.2019 9.40946 20.3488 9.33598 20.4958C9.2625 20.6427 9.18902 20.753 9.0788 20.8632C8.96857 20.9734 8.82161 21.0469 8.67465 21.1204C8.52768 21.1571 8.38072 21.1939 8.23376 21.1939H4.15553C3.86161 21.1939 3.56768 21.1204 3.3105 20.8999C3.09005 20.6795 2.94309 20.4223 2.94309 20.0916H0.701904C0.738645 21.1571 1.14279 21.9654 2.02457 22.4798C2.72265 22.8472 3.53094 23.0676 4.33924 23.0309H8.0868C9.74013 23.0309 11.7241 22.5165 11.7241 20.0182C11.6874 17.1891 8.96857 17.1891 8.0868 17.1891ZM12.9366 15.0949H16.7209V23.1044H18.9621V15.0949H22.7831V13.2211H12.9366V15.0949ZM46.1135 19.3568L45.893 19.3201L46.0767 19.2466C47.1055 18.8057 47.4729 17.5933 47.4729 16.7115C47.4729 14.4336 46.2604 13.2579 43.9825 13.2579H37.0018V23.1411H39.243V15.0949H43.7621C44.6806 15.0949 45.195 15.646 45.195 16.7115C45.195 17.777 44.6806 18.3281 43.7621 18.3281H40.933V20.2019H43.3947C45.1582 20.2019 45.3419 21.0469 45.3419 21.6715V23.1779H47.5831V21.3776C47.5831 20.9367 47.4361 20.459 47.1422 20.1284C46.9585 19.6875 46.5544 19.4303 46.1135 19.3568Z" fill="white"/>
<path d="M35.9363 26.705L14.7369 27.6235C14.443 27.6235 14.1123 27.5868 13.8184 27.4766C13.5244 27.3663 13.2673 27.2194 13.0101 26.9989C12.7896 26.7785 12.6059 26.5213 12.459 26.2641C12.312 25.9702 12.2385 25.6763 12.2385 25.3456L12.165 23.5453C12.165 23.2514 12.2018 22.9207 12.312 22.6268C12.4222 22.3329 12.5692 22.0757 12.7896 21.8185C13.0101 21.598 13.2673 21.4143 13.5244 21.2674C13.8184 21.1204 14.1123 21.0469 14.4062 21.0469L35.6056 20.1284C35.8996 20.1284 36.2302 20.1652 36.5242 20.2754C36.8181 20.3856 37.0753 20.5326 37.3325 20.753C37.5529 20.9735 37.7366 21.2306 37.8836 21.4878C38.0305 21.7818 38.104 22.0757 38.104 22.4063L38.1775 24.2066C38.2142 24.8312 37.9938 25.4558 37.5529 25.8967C37.112 26.3376 36.5609 26.705 35.9363 26.705Z" fill="#00FF29"/>
<path d="M34.5769 22.0757L34.0993 23.9495L33.3277 22.1492L32.5194 22.1859L33.7686 24.9415C33.6584 25.1986 33.5849 25.3456 33.3277 25.3824C33.2175 25.3824 33.1073 25.3824 32.9971 25.3456L33.0338 25.9702C33.1808 26.0069 33.3645 26.0437 33.5114 26.0437C34.0625 26.0069 34.3565 25.6763 34.5402 25.0149L35.4219 22.1124L34.5769 22.0757ZM17.419 22.737C16.7944 22.7738 16.2065 23.0309 16.2065 23.729L16.9413 23.6923C16.9413 23.3983 17.1251 23.2514 17.419 23.2514C17.7496 23.2146 17.8599 23.3616 17.8966 23.5821C17.8966 23.876 17.4557 23.9495 17.0148 24.0964C16.5372 24.2434 16.1331 24.5006 16.1698 25.0149C16.2065 25.5293 16.5739 25.7498 17.0883 25.713C17.272 25.713 17.4557 25.6395 17.6394 25.5293C17.7864 25.4191 17.8966 25.2354 17.9701 25.0517L18.0068 25.6028L18.7416 25.5661L18.6682 23.6555C18.6314 22.9207 18.0803 22.7003 17.419 22.737ZM17.3455 25.1986C17.3088 25.1986 17.2353 25.1986 17.1985 25.1986C17.1618 25.1986 17.0883 25.1619 17.0516 25.1252C17.0148 25.0884 16.9781 25.0517 16.9781 25.0149C16.9413 24.9782 16.9413 24.9047 16.9413 24.868C16.9413 24.6108 17.1251 24.5006 17.3822 24.4271C17.6027 24.3904 17.7864 24.2801 17.9701 24.1699C17.9333 24.5741 17.8231 25.1619 17.3455 25.1986ZM15.0676 24.9047C14.9941 24.9047 14.8839 24.9415 14.8471 24.9782C14.7736 25.0149 14.7369 25.0884 14.7002 25.1619C14.6634 25.2354 14.6634 25.3456 14.7002 25.4191C14.7369 25.4926 14.7736 25.5661 14.8471 25.6395C14.9206 25.713 14.9941 25.7498 15.0676 25.7498C15.1411 25.7498 15.2513 25.7498 15.3248 25.713C15.3982 25.6763 15.4717 25.6028 15.5085 25.5293C15.5452 25.4558 15.5819 25.3824 15.5819 25.2721C15.5819 25.1986 15.5819 25.1619 15.5452 25.0884C15.5085 25.0517 15.4717 24.9782 15.435 24.9415C15.3982 24.9047 15.3248 24.868 15.288 24.868C15.1778 24.9047 15.1411 24.9047 15.0676 24.9047ZM24.1425 22.4431C23.224 22.4798 22.7831 23.1779 22.8199 23.9862C22.8566 24.7945 23.3342 25.4558 24.2895 25.4191C24.5834 25.4191 24.8774 25.3089 25.1345 25.1252C25.355 24.9415 25.5387 24.6475 25.5754 24.3536L24.8406 24.3904C24.8039 24.5006 24.7671 24.6108 24.6569 24.721C24.5467 24.7945 24.4365 24.868 24.3262 24.868C23.8854 24.9047 23.6649 24.5741 23.6282 24.1332L25.6122 24.0597C25.6122 24.0597 25.6122 23.9495 25.6122 23.9127C25.5019 23.0309 25.0611 22.4064 24.1425 22.4431ZM23.5914 23.6188C23.6282 23.2881 23.8119 23.0309 24.1793 22.9942C24.5467 22.9942 24.6936 23.2146 24.7671 23.5453L23.5914 23.6188ZM27.7799 22.2594C27.5962 22.2594 27.4125 22.3329 27.2655 22.4431C27.1185 22.5533 27.0083 22.7003 26.9348 22.8472H26.8981L26.8614 22.4063L26.1265 22.4431L26.2368 25.2354L26.9716 25.1986L26.8981 23.7658C26.8614 23.2146 27.0818 22.9575 27.4859 22.9207C27.8166 22.9207 27.9636 23.1044 28.0003 23.5821L28.0738 25.1252L28.8086 25.0884L28.7351 23.3616C28.7719 22.737 28.5514 22.2594 27.7799 22.2594ZM21.387 22.6268V22.9942H21.3502C21.24 22.8472 21.1298 22.737 20.9828 22.6635C20.8359 22.5901 20.6522 22.5533 20.5052 22.5533C19.6969 22.5901 19.3295 23.2881 19.3662 24.0229C19.403 24.7578 19.8071 25.4191 20.6154 25.3824C20.7624 25.3824 20.9461 25.3456 21.0563 25.2721C21.2033 25.1986 21.3135 25.0884 21.4237 24.9782H21.4605V25.1252C21.4972 25.6028 21.3135 25.8967 20.8359 25.8967C20.2848 25.9335 20.248 25.5293 20.248 25.5293L19.5132 25.5661C19.5132 25.5661 19.5867 26.5213 20.8726 26.4846C21.8279 26.4478 22.232 25.86 22.1953 25.0517L22.0851 22.5901L21.387 22.6268ZM20.7991 24.868C20.3582 24.9047 20.1011 24.5006 20.1011 24.0229C20.0643 23.5821 20.2848 23.1412 20.7256 23.1412C21.1665 23.1044 21.4237 23.5086 21.4237 23.9862C21.4605 24.4271 21.24 24.868 20.7991 24.868ZM30.9396 24.5373C30.4619 24.5741 30.2782 24.1699 30.2415 23.6555C30.2048 23.1412 30.3517 22.737 30.8294 22.7003C30.9763 22.7003 31.1233 22.737 31.2335 22.8472C31.3437 22.9575 31.4172 23.0677 31.4172 23.2146L32.152 23.1779C32.1153 22.8472 31.9316 22.5533 31.6744 22.3696C31.4172 22.1859 31.0865 22.0757 30.7926 22.1124C29.8741 22.1492 29.4332 22.8472 29.4699 23.6555C29.5067 24.4638 30.0211 25.1252 30.9396 25.0884C31.2702 25.0884 31.5642 24.9782 31.7846 24.7578C32.0051 24.5373 32.152 24.2434 32.1888 23.9127L31.4539 23.9495C31.4539 24.0964 31.3805 24.2434 31.307 24.3169C31.1968 24.4638 31.0498 24.5373 30.9396 24.5373Z" fill="#1C1C1B"/>
</g>
</g>
<defs>
<clipPath id="clip0_2003_600">
<rect width="58.3811" height="26.7473" fill="white" transform="translate(0.701904 0.876221)"/>
</clipPath>
</defs>
</svg>
