<svg width="71" height="27" viewBox="0 0 71 27" fill="none" xmlns="http://www.w3.org/2000/svg">
<path fill-rule="evenodd" clip-rule="evenodd" d="M67.3368 15.2598H70.5745V22.984H67.8705V18.9975L66.3525 21.1006L64.7337 23.354L63.1148 21.1006L61.5969 18.9975V26.9415H58.8928V15.2598H62.1305L64.7337 18.8652L67.3368 15.2598Z" fill="white"/>
<path fill-rule="evenodd" clip-rule="evenodd" d="M54.6298 15.1272H57.3316V26.8089H45.6521V24.1048H54.6298V22.3201H45.6521V15.1272H48.3539V19.616H54.6298V15.1272Z" fill="white"/>
<path fill-rule="evenodd" clip-rule="evenodd" d="M40.6219 15.2598H43.8753V26.9415H41.1734V18.9818L35.4313 26.9415H32.1958V15.2598H34.8976V23.2038L40.6219 15.2598Z" fill="white"/>
<path fill-rule="evenodd" clip-rule="evenodd" d="M27.8234 15.2598H30.5252V26.9415H27.8234V22.4526H21.5475V26.9415H18.8457V15.2598H21.5475V19.7486H27.8234V15.2598Z" fill="white"/>
<path fill-rule="evenodd" clip-rule="evenodd" d="M45.5454 0.896484H57.2271V12.5782H54.5231V8.08936H48.2495V12.5782H45.5454V0.896484ZM54.5231 5.38531V3.5826H48.2495V5.38531H54.5231Z" fill="white"/>
<path fill-rule="evenodd" clip-rule="evenodd" d="M32.1958 0.896484H43.8775V8.08936H34.8999V12.5782H32.1958V0.896484ZM41.1735 5.38531V3.60054H34.8999V5.38531H41.1735Z" fill="white"/>
<path fill-rule="evenodd" clip-rule="evenodd" d="M30.5252 0.896484V8.08936H27.2718L30.5252 12.5782H27.2897L24.0341 8.08936H21.5475V12.5782H18.8457V0.896484H21.5475V5.38531H27.8234V0.896484H30.5252Z" fill="white"/>
<path fill-rule="evenodd" clip-rule="evenodd" d="M16.83 0.876221V11.9951L13.2089 17.0243H0.681885V14.1364H11.0385L13.7717 10.3113H4.76039V7.59151H13.9421V3.74171H0.681885V0.876221H16.83Z" fill="white"/>
<path d="M70.5747 24.2578H67.8909V26.9417H70.5747V24.2578Z" fill="#08FBBB"/>
<path d="M3.48953 7.59155H0.769775V10.3113H3.48953V7.59155Z" fill="#08FBBB"/>
</svg>
