<svg width="77" height="27" viewBox="0 0 77 27" fill="none" xmlns="http://www.w3.org/2000/svg">
<path d="M9.79893 3.41839C10.3325 3.41839 10.8005 3.54476 11.203 3.7975C11.6055 4.04088 11.9144 4.38255 12.1297 4.8225C12.3543 5.26246 12.4667 5.76326 12.4667 6.3249V11.1691H11.2732V6.68997C11.2732 6.24065 11.203 5.85218 11.0626 5.52456C10.9315 5.19693 10.735 4.94887 10.4729 4.78038C10.2201 4.60253 9.91593 4.5136 9.56023 4.5136C9.00797 4.5136 8.53058 4.7523 8.12808 5.2297C7.73494 5.69773 7.53837 6.2781 7.53837 6.97079V11.1691H6.37299V6.68997C6.37299 6.00664 6.21855 5.47307 5.90965 5.08928C5.61012 4.70549 5.18889 4.5136 4.64599 4.5136C4.37453 4.5136 4.11244 4.57912 3.85971 4.71017C3.61633 4.83186 3.40104 5.00036 3.21383 5.21565C3.03599 5.43095 2.8909 5.69305 2.77857 6.00196C2.67561 6.3015 2.62412 6.62444 2.62412 6.97079V11.1691H1.43066V3.58689H2.28715L2.48372 4.62593C2.62412 4.43871 2.78325 4.27022 2.9611 4.12045C3.14831 3.97068 3.34488 3.84431 3.55081 3.74134C3.75674 3.63837 3.97671 3.5588 4.21072 3.50264C4.44474 3.44647 4.67875 3.41839 4.91276 3.41839C5.44631 3.41839 5.91433 3.54944 6.31683 3.81154C6.71933 4.06428 7.02355 4.41531 7.22948 4.86463C7.41669 4.56508 7.64602 4.30766 7.91747 4.09237C8.18893 3.87707 8.48378 3.71326 8.80204 3.60093C9.12965 3.47924 9.46195 3.41839 9.79893 3.41839Z" fill="white"/>
<path d="M21.301 7.40607C21.301 7.50903 21.2916 7.65413 21.2729 7.84134H14.8002C14.8938 8.54339 15.1839 9.10972 15.6707 9.54031C16.1574 9.96155 16.7565 10.1722 17.4679 10.1722C17.9921 10.1722 18.4554 10.0598 18.8579 9.83518C19.2698 9.60116 19.5974 9.27353 19.8408 8.8523H21.0904C20.7721 9.6386 20.2948 10.2517 19.6582 10.6917C19.0217 11.1223 18.2916 11.3376 17.4679 11.3376C16.3727 11.3376 15.4554 10.9585 14.7159 10.2002C13.9764 9.44203 13.6067 8.50127 13.6067 7.37798C13.6067 6.24533 13.9764 5.30458 14.7159 4.55572C15.4554 3.7975 16.3727 3.41839 17.4679 3.41839C18.6005 3.41839 19.5225 3.80218 20.2339 4.56976C20.9453 5.33734 21.301 6.28278 21.301 7.40607ZM17.4679 4.55572C17.0186 4.55572 16.6067 4.64465 16.2323 4.8225C15.8673 5.00036 15.563 5.25778 15.3197 5.59476C15.0763 5.92239 14.9125 6.3015 14.8282 6.73209H20.0935C20.0093 6.29214 19.8455 5.90835 19.6021 5.58072C19.3587 5.24374 19.0545 4.991 18.6894 4.8225C18.3244 4.64465 17.9172 4.55572 17.4679 4.55572Z" fill="white"/>
<path d="M28.628 0.876953H29.8214V11.1691H28.9088L28.7403 10.0879C27.9914 10.921 27.0226 11.3376 25.8339 11.3376C24.6919 11.3376 23.7512 10.9631 23.0117 10.2143C22.2816 9.45607 21.9165 8.51063 21.9165 7.37798C21.9165 6.23597 22.2816 5.29054 23.0117 4.54168C23.7512 3.79282 24.6919 3.41839 25.8339 3.41839C26.9571 3.41839 27.8885 3.79282 28.628 4.54168V0.876953ZM23.9243 9.38586C24.4485 9.91942 25.1084 10.1862 25.9041 10.1862C26.7091 10.1862 27.3783 9.91942 27.9119 9.38586C28.4454 8.84294 28.7122 8.17365 28.7122 7.37798C28.7122 6.57296 28.4454 5.90367 27.9119 5.37011C27.3877 4.83654 26.7231 4.56976 25.9181 4.56976C25.525 4.56976 25.1552 4.64465 24.8089 4.79442C24.4625 4.93483 24.1677 5.12673 23.9243 5.37011C23.6809 5.61348 23.4891 5.91303 23.3486 6.26874C23.2082 6.61508 23.138 6.98483 23.138 7.37798C23.138 8.18301 23.4001 8.8523 23.9243 9.38586Z" fill="white"/>
<path d="M31.624 2.26702V0.905036H32.9157V2.26702H31.624ZM31.6802 11.1691V3.58689H32.8736V11.1691H31.6802Z" fill="white"/>
<path d="M54.2306 10.0598H55.059V11.1691H54.0762C53.5426 11.1691 53.0746 11.0661 52.6721 10.8602C52.279 10.6449 51.9748 10.336 51.7595 9.93346C51.5535 9.53095 51.4506 9.05824 51.4506 8.51531V4.66805H50.1167V4.45743L52.4615 1.9862H52.644V3.58689H55.0169V4.66805H52.644V8.47319C52.644 8.81954 52.7049 9.10972 52.8266 9.34374C52.9483 9.57776 53.1261 9.75561 53.3601 9.8773C53.6035 9.99899 53.8937 10.0598 54.2306 10.0598ZM46.5083 6.68997C46.7703 6.72741 46.9622 6.76017 47.0839 6.78826C47.215 6.80698 47.3975 6.8491 47.6315 6.91463C47.8749 6.97079 48.0621 7.03164 48.1931 7.09716C48.3242 7.16269 48.4739 7.25629 48.6424 7.37798C48.8203 7.49031 48.9513 7.62136 49.0356 7.77113C49.1198 7.91155 49.1947 8.0894 49.2602 8.3047C49.3258 8.51063 49.3585 8.73997 49.3585 8.99271C49.3585 9.70413 49.0824 10.2751 48.5301 10.7057C47.9872 11.127 47.2664 11.3376 46.3678 11.3376C45.7688 11.3376 45.2446 11.2393 44.7953 11.0427C44.346 10.8368 43.995 10.5466 43.7422 10.1722C43.4895 9.78837 43.3538 9.34374 43.3351 8.83826H44.5004C44.5285 9.28757 44.7157 9.63392 45.0621 9.8773C45.4084 10.1113 45.853 10.2283 46.3959 10.2283C46.9295 10.2283 47.3601 10.1254 47.6877 9.91942C48.0153 9.70413 48.1791 9.41394 48.1791 9.04887C48.1791 8.88038 48.1417 8.73061 48.0668 8.59956C47.9919 8.46851 47.903 8.36554 47.8 8.29065C47.697 8.20641 47.5426 8.13152 47.3367 8.066C47.1401 8.00047 46.9669 7.95367 46.8171 7.92559C46.6767 7.8975 46.4755 7.86006 46.2134 7.81326C46.0449 7.78518 45.9139 7.76177 45.8203 7.74305C45.7267 7.72433 45.6003 7.70093 45.4412 7.67285C45.282 7.6354 45.151 7.60264 45.048 7.57456C44.9544 7.53712 44.8374 7.49499 44.697 7.44819C44.5566 7.39202 44.4443 7.33586 44.36 7.2797C44.2758 7.21417 44.1775 7.14396 44.0652 7.06908C43.9622 6.98483 43.878 6.89591 43.8124 6.8023C43.7563 6.70869 43.6954 6.60572 43.6299 6.49339C43.5737 6.3717 43.5316 6.23597 43.5035 6.0862C43.4848 5.93643 43.4755 5.78198 43.4755 5.62285C43.4755 4.96759 43.7376 4.43871 44.2617 4.0362C44.7859 3.62433 45.4739 3.41839 46.3257 3.41839C47.1869 3.41839 47.8749 3.63369 48.3897 4.06428C48.9045 4.48552 49.1713 5.05184 49.19 5.76326H48.0668C48.0387 5.35138 47.8702 5.0378 47.5613 4.8225C47.2618 4.59785 46.8452 4.48552 46.3117 4.48552C45.7969 4.48552 45.385 4.58848 45.0761 4.79442C44.7766 4.991 44.6268 5.2531 44.6268 5.58072C44.6268 5.73049 44.6642 5.86622 44.7391 5.98791C44.814 6.10024 44.8983 6.19385 44.9919 6.26874C45.0855 6.33426 45.2305 6.39979 45.4271 6.46531C45.6237 6.52148 45.7875 6.5636 45.9185 6.59168C46.0589 6.6104 46.2555 6.64317 46.5083 6.68997Z" fill="white"/>
<path d="M59.6924 11.3376C58.9435 11.3376 58.2602 11.1691 57.6424 10.8321C57.0246 10.4857 56.5426 10.013 56.1962 9.41394C55.8499 8.8055 55.6767 8.12684 55.6767 7.37798C55.6767 6.23597 56.0558 5.29054 56.814 4.54168C57.5816 3.79282 58.541 3.41839 59.6924 3.41839C60.4506 3.41839 61.1339 3.59157 61.7423 3.93791C62.3601 4.2749 62.8422 4.74762 63.1885 5.35606C63.5442 5.95515 63.7221 6.62912 63.7221 7.37798C63.7221 8.51063 63.3383 9.45607 62.5707 10.2143C61.8032 10.9631 60.8437 11.3376 59.6924 11.3376ZM57.6845 9.3999C58.2181 9.9241 58.8874 10.1862 59.6924 10.1862C60.5067 10.1862 61.176 9.9241 61.7002 9.3999C62.2337 8.86634 62.5005 8.19237 62.5005 7.37798C62.5005 6.5636 62.2337 5.89431 61.7002 5.37011C61.176 4.83654 60.5067 4.56976 59.6924 4.56976C58.8874 4.56976 58.2181 4.83654 57.6845 5.37011C57.1604 5.89431 56.8983 6.5636 56.8983 7.37798C56.8983 8.19237 57.1604 8.86634 57.6845 9.3999Z" fill="white"/>
<path d="M68.4282 3.54476H69.1022V4.68209H68.3299C67.6466 4.68209 67.1131 4.89271 66.7293 5.31394C66.3549 5.72581 66.1677 6.30618 66.1677 7.05504V11.1691H64.9742V3.58689H65.8166L66.0132 4.73826C66.5655 3.94259 67.3705 3.54476 68.4282 3.54476Z" fill="white"/>
<path d="M76.6861 7.40607C76.6861 7.50903 76.6768 7.65413 76.658 7.84134H70.1853C70.2789 8.54339 70.5691 9.10972 71.0558 9.54031C71.5425 9.96155 72.1416 10.1722 72.853 10.1722C73.3772 10.1722 73.8405 10.0598 74.243 9.83518C74.6549 9.60116 74.9825 9.27353 75.2259 8.8523H76.4755C76.1573 9.6386 75.6799 10.2517 75.0434 10.6917C74.4068 11.1223 73.6767 11.3376 72.853 11.3376C71.7578 11.3376 70.8405 10.9585 70.101 10.2002C69.3616 9.44203 68.9918 8.50127 68.9918 7.37798C68.9918 6.24533 69.3616 5.30458 70.101 4.55572C70.8405 3.7975 71.7578 3.41839 72.853 3.41839C73.9856 3.41839 74.9076 3.80218 75.619 4.56976C76.3304 5.33734 76.6861 6.28278 76.6861 7.40607ZM72.853 4.55572C72.4037 4.55572 71.9918 4.64465 71.6174 4.8225C71.2524 5.00036 70.9482 5.25778 70.7048 5.59476C70.4614 5.92239 70.2976 6.3015 70.2134 6.73209H75.4786C75.3944 6.29214 75.2306 5.90835 74.9872 5.58072C74.7438 5.24374 74.4396 4.991 74.0746 4.8225C73.7095 4.64465 73.3023 4.55572 72.853 4.55572Z" fill="white"/>
<mask id="mask0_2007_7500" style="mask-type:alpha" maskUnits="userSpaceOnUse" x="33" y="3" width="10" height="9">
<rect x="33.7581" y="3.35107" width="8.43505" height="8.02381" fill="#D9D9D9"/>
</mask>
<g mask="url(#mask0_2007_7500)">
<path d="M41.1699 6.81107H42.1247V14.3933H41.1278L41.0014 13.2419C40.6457 13.6631 40.2104 13.9908 39.6956 14.2248C39.1902 14.4494 38.6332 14.5618 38.0248 14.5618C36.9109 14.5618 35.9795 14.1873 35.2307 13.4385C34.4818 12.6803 34.1074 11.7348 34.1074 10.6022C34.1074 9.46952 34.4818 8.52877 35.2307 7.77991C35.9795 7.02169 36.9109 6.64258 38.0248 6.64258C38.6426 6.64258 39.2042 6.75959 39.7097 6.99361C40.2245 7.22762 40.6598 7.55525 41.0155 7.97648L41.1699 6.81107ZM36.1152 12.61C36.6488 13.1436 37.3181 13.4104 38.1231 13.4104C38.9281 13.4104 39.5927 13.1436 40.1168 12.61C40.641 12.0765 40.9031 11.4072 40.9031 10.6022C40.9031 9.79715 40.641 9.12785 40.1168 8.59429C39.5927 8.06073 38.9281 7.79395 38.1231 7.79395C37.3181 7.79395 36.6488 8.06541 36.1152 8.60833C35.5911 9.14189 35.329 9.80651 35.329 10.6022C35.329 11.3978 35.5911 12.0671 36.1152 12.61Z" fill="#F95410"/>
<path d="M41.1699 -2.03561H42.1247V5.54659H41.1278L41.0014 4.39522C40.6457 4.81645 40.2104 5.14408 39.6956 5.37809C39.1902 5.60275 38.6332 5.71508 38.0248 5.71508C36.9109 5.71508 35.9795 5.34065 35.2307 4.59179C34.4818 3.83357 34.1074 2.88814 34.1074 1.75549C34.1074 0.622841 34.4818 -0.317913 35.2307 -1.06677C35.9795 -1.82499 36.9109 -2.2041 38.0248 -2.2041C38.6426 -2.2041 39.2042 -2.08709 39.7097 -1.85307C40.2245 -1.61906 40.6598 -1.29143 41.0155 -0.870196L41.1699 -2.03561ZM36.1152 3.76337C36.6488 4.29693 37.3181 4.56371 38.1231 4.56371C38.9281 4.56371 39.5927 4.29693 40.1168 3.76337C40.641 3.22981 40.9031 2.56051 40.9031 1.75549C40.9031 0.950467 40.641 0.281174 40.1168 -0.252388C39.5927 -0.78595 38.9281 -1.05273 38.1231 -1.05273C37.3181 -1.05273 36.6488 -0.78127 36.1152 -0.238347C35.5911 0.295215 35.329 0.959827 35.329 1.75549C35.329 2.55115 35.5911 3.22045 36.1152 3.76337Z" fill="#F95410"/>
</g>
</svg>
