<svg width="149" height="30" viewBox="0 0 149 30" fill="none" xmlns="http://www.w3.org/2000/svg">
<g clip-path="url(#clip0_2003_952)">
<path d="M41.6261 0.280029H5.35487C2.56076 0.280029 0.274414 2.5426 0.274414 5.30766V19.0757C0.274414 21.8408 2.56076 24.1034 5.35487 24.1034H6.52132V27.9557C6.52132 28.5699 7.02344 29.0668 7.64404 29.0668H39.3355C39.9561 29.0668 40.4583 28.5699 40.4583 27.9557V24.1034H41.6247C44.4188 24.1034 46.7052 21.8408 46.7052 19.0757V5.30766C46.7052 2.5426 44.4188 0.280029 41.6261 0.280029Z" fill="#FF9400"/>
<path d="M41.6261 2.79395H5.35346C3.95711 2.79395 2.81323 3.92454 2.81323 5.30776V19.0758C2.81323 20.4577 3.9557 21.5897 5.35346 21.5897H41.6247C43.0211 21.5897 44.1649 20.4591 44.1649 19.0758V5.30637C44.1649 3.92453 43.0225 2.79395 41.6261 2.79395Z" fill="white"/>
<path fill-rule="evenodd" clip-rule="evenodd" d="M26.6456 5.44165H24.2168C24.0532 5.44165 23.9023 5.53238 23.8261 5.67475L19.5736 13.7145V5.76827C19.5736 5.58821 19.4255 5.44165 19.2436 5.44165H16.9713C16.764 5.44165 16.6596 5.55052 16.6596 5.76827V18.6151C16.6596 18.8329 16.7626 18.9417 16.9713 18.9417H19.4185C19.5821 18.9417 19.733 18.851 19.8092 18.7086L24.0617 10.6703V18.6151C24.0617 18.8329 24.166 18.9417 24.3734 18.9417H26.6456C26.8276 18.9417 26.9757 18.7952 26.9757 18.6151V5.76827C26.9757 5.58681 26.8276 5.44165 26.6456 5.44165ZM41.1788 5.44165H38.8544C38.6852 5.44165 38.53 5.53796 38.4567 5.68871L35.2281 12.3466L31.9996 5.68871C31.9263 5.53796 31.7725 5.44165 31.6019 5.44165H29.2774C29.0701 5.44165 28.9657 5.55052 28.9657 5.76827V18.6151C28.9657 18.8329 29.0701 18.9417 29.2774 18.9417H31.5497C31.7316 18.9417 31.8797 18.7952 31.8797 18.6151V11.1476L34.0673 15.6881C34.1407 15.8403 34.2958 15.9366 34.4651 15.9366H35.9912C36.1604 15.9366 36.3156 15.8403 36.3889 15.6881L38.5766 11.1476V18.6137C38.5766 18.7938 38.7246 18.9403 38.9066 18.9403H41.1788C41.3862 18.9403 41.4905 18.8315 41.4905 18.6137V5.76827C41.4905 5.55052 41.3862 5.44165 41.1788 5.44165ZM5.80048 5.44186H10.6567C12.0967 5.44186 13.2392 5.85501 14.0827 6.68551C14.9247 7.51321 15.3464 8.62845 15.3464 10.0298C15.3464 11.4438 14.9261 12.5646 14.0827 13.3923C13.2392 14.2214 12.0982 14.6345 10.6567 14.6345H8.4211V18.6153C8.4211 18.8331 8.31673 18.9419 8.10939 18.9419H5.80048C5.59173 18.9419 5.48877 18.8331 5.48877 18.6153V5.76847C5.48877 5.55073 5.59314 5.44186 5.80048 5.44186ZM8.4211 11.9323H10.2533C11.6327 11.9323 12.3238 11.2972 12.3238 10.0284C12.3238 8.75965 11.6327 8.12457 10.2533 8.12457H8.4211V11.9323Z" fill="#5229A1"/>
<path d="M17.7134 23.7616C17.6429 23.5509 17.5188 23.4015 17.3382 23.3136C17.1577 23.2257 16.9137 23.181 16.6034 23.181H15.3438C15.3227 23.181 15.3072 23.1977 15.3072 23.2173V27.4465C15.3072 27.4675 15.3241 27.4828 15.3438 27.4828H16.5357C16.8008 27.4828 17.0364 27.4382 17.2437 27.3474C17.4511 27.2567 17.602 27.0906 17.6979 26.8463C17.7571 26.6984 17.7896 26.496 17.7952 26.2406C17.7994 25.9851 17.8009 24.655 17.7994 24.3898C17.7966 24.1232 17.7684 23.9138 17.7134 23.7616ZM16.9913 26.3494C16.9913 26.5155 16.9532 26.6412 16.8784 26.7277C16.8037 26.8142 16.6654 26.8575 16.4652 26.8575H16.1196V23.8035H16.4652C16.6711 23.8035 16.8093 23.8482 16.8827 23.9375C16.9546 24.0268 16.9913 24.1497 16.9913 24.3074V26.3494V26.3494ZM38.5247 23.4895C38.3018 23.2829 37.9492 23.181 37.4682 23.181H36.3483C36.3272 23.181 36.3117 23.1977 36.3117 23.2173V27.4465C36.3117 27.4675 36.3286 27.4828 36.3483 27.4828H37.086C37.1072 27.4828 37.1227 27.4661 37.1227 27.4465V25.833H37.4541C37.7249 25.833 37.9492 25.7995 38.1269 25.7339C38.3046 25.6683 38.4485 25.5762 38.5585 25.4589C38.6685 25.3417 38.7461 25.2007 38.7912 25.036C38.8364 24.8713 38.859 24.6884 38.859 24.4861C38.859 24.0268 38.7475 23.696 38.5247 23.4895ZM37.9309 25.0193C37.8336 25.1379 37.6587 25.1965 37.409 25.1965H37.1227V23.8063H37.4231C37.6742 23.8063 37.8448 23.8677 37.9379 23.9892C38.031 24.1106 38.0776 24.2781 38.0776 24.4889C38.0776 24.7233 38.0282 24.9006 37.9309 25.0193ZM18.6302 27.4828H19.3679C19.389 27.4828 19.4045 27.4661 19.4045 27.4465V23.2173C19.4045 23.1964 19.3876 23.181 19.3679 23.181H18.6302C18.609 23.181 18.5935 23.1977 18.5935 23.2173V27.4465C18.5921 27.4661 18.609 27.4828 18.6302 27.4828ZM12.4877 27.4828H14.7359C14.7571 27.4828 14.7726 27.4661 14.7726 27.4465V26.8952C14.7726 26.8743 14.7557 26.8589 14.7359 26.8589H13.2634V25.6167H14.5413C14.5625 25.6167 14.578 25.5999 14.578 25.5804V25.0165C14.578 24.9955 14.561 24.9802 14.5413 24.9802H13.2634V23.8063H14.7373C14.7585 23.8063 14.774 23.7896 14.774 23.77V23.2187C14.774 23.1977 14.7571 23.1824 14.7373 23.1824H12.4877C12.4665 23.1824 12.451 23.1991 12.451 23.2187V27.4479C12.451 27.4661 12.4679 27.4828 12.4877 27.4828ZM10.3466 24.38L9.92629 25.3375H9.88961L9.47917 24.4037L8.92204 23.2005C8.9164 23.188 8.9023 23.1796 8.88819 23.1796H8.15899C8.13783 23.1796 8.12231 23.1964 8.12231 23.2159V27.4451C8.12231 27.4661 8.13924 27.4814 8.15899 27.4814H8.89665C8.91781 27.4814 8.93333 27.4647 8.93333 27.4451V24.9913H8.97141L9.29299 25.7451L9.65689 26.5211C9.66253 26.5337 9.67664 26.5421 9.69074 26.5421H10.1308C10.1449 26.5421 10.1576 26.5337 10.1647 26.5211L10.5215 25.7702L10.8515 25.0039H10.8812V27.4465C10.8812 27.4675 10.8981 27.4828 10.9178 27.4828H11.6555C11.6767 27.4828 11.6922 27.4661 11.6922 27.4465V23.2173C11.6922 23.1964 11.6753 23.181 11.6555 23.181H10.9348C10.9207 23.181 10.9066 23.1894 10.9009 23.2019L10.3466 24.38ZM24.6514 25.7032H25.0873V26.5504C25.0873 26.6579 25.0435 26.7417 24.9575 26.8045C24.8715 26.8659 24.7572 26.8966 24.6134 26.8966C24.4709 26.8966 24.3708 26.8659 24.3143 26.8031C24.2579 26.7417 24.2227 26.6733 24.2071 26.5993C24.1916 26.5574 24.1846 26.5141 24.1846 26.4695V24.2837C24.1846 24.2306 24.1902 24.1734 24.2029 24.1134C24.2156 24.0534 24.2382 23.9975 24.2692 23.9459C24.3016 23.8942 24.3468 23.8524 24.406 23.8189C24.4653 23.7854 24.5414 23.77 24.6359 23.77C24.7939 23.77 24.9081 23.8189 24.9801 23.918C25.045 24.0073 25.0802 24.1218 25.0859 24.2585C25.0873 24.2809 25.107 24.2976 25.1282 24.2934L25.8517 24.1762C25.8701 24.1734 25.8842 24.158 25.8828 24.1399C25.8743 23.9096 25.7756 23.5676 25.5823 23.4141C25.3708 23.2466 25.0689 23.1447 24.643 23.1447C24.4131 23.1447 24.217 23.1754 24.0562 23.2368C23.8954 23.2982 23.7643 23.3834 23.6613 23.4909C23.5583 23.5983 23.485 23.7226 23.4399 23.8649C23.3947 24.0073 23.3722 24.158 23.3722 24.32V26.4653C23.3722 26.8114 23.4751 27.0739 23.681 27.2539C23.887 27.4326 24.2043 27.5233 24.6359 27.5233C25.0111 27.5233 25.3158 27.4368 25.5499 27.2637C25.7826 27.0906 25.8997 26.8352 25.8997 26.4974V25.1616C25.8997 25.1407 25.8828 25.1253 25.863 25.1253H24.6514C24.6303 25.1253 24.6148 25.1421 24.6148 25.1616V25.6697C24.6134 25.6864 24.6303 25.7032 24.6514 25.7032ZM29.0069 25.1184C29.1 24.9313 29.1466 24.701 29.1466 24.4288C29.1466 23.9878 29.0267 23.6695 28.7855 23.4741C28.5443 23.2787 28.2114 23.181 27.7855 23.181H26.6275C26.6063 23.181 26.5908 23.1977 26.5908 23.2173V27.4465C26.5908 27.4675 26.6077 27.4828 26.6275 27.4828H27.3652C27.3863 27.4828 27.4018 27.4661 27.4018 27.4465V25.7032H27.7855L28.4526 27.4591C28.4583 27.4731 28.4724 27.4828 28.4879 27.4828H29.234C29.2608 27.4828 29.2777 27.4563 29.2679 27.4326L28.5133 25.5608C28.7502 25.4533 28.9152 25.3068 29.0069 25.1184ZM28.2001 24.9146C28.1 25.0151 27.9449 25.0653 27.7347 25.0653H27.4032V23.8049H27.7192C27.9449 23.8049 28.1056 23.8594 28.2044 23.9682C28.3017 24.0771 28.3511 24.2306 28.3511 24.4288C28.3497 24.6522 28.3003 24.8141 28.2001 24.9146ZM34.7475 26.4192C34.7475 26.5518 34.7122 26.6635 34.6417 26.7556C34.5712 26.8477 34.4541 26.8952 34.2877 26.8952C34.1226 26.8952 34.0056 26.8505 33.9379 26.7626C33.8702 26.6747 33.8363 26.5742 33.8363 26.4625V23.2229C33.8363 23.2019 33.8194 23.1866 33.7997 23.1866H33.062C33.0408 23.1866 33.0253 23.2033 33.0253 23.2229V26.4499C33.0253 26.7961 33.1269 27.0613 33.3286 27.2441C33.5317 27.427 33.8518 27.5191 34.2919 27.5191C34.732 27.5191 35.0521 27.4228 35.2552 27.2316C35.4583 27.0404 35.5585 26.757 35.5585 26.3815V23.2229C35.5585 23.2019 35.5416 23.1866 35.5218 23.1866H34.7841C34.763 23.1866 34.7475 23.2033 34.7475 23.2229V26.4192V26.4192ZM32.038 23.4462C31.9407 23.3471 31.8109 23.2717 31.6487 23.2201C31.4865 23.1684 31.2848 23.1433 31.045 23.1433C30.8208 23.1433 30.6261 23.1712 30.4639 23.2271C30.3017 23.2829 30.1705 23.3611 30.0704 23.4616C29.9703 23.562 29.8969 23.6835 29.849 23.8231C29.801 23.9626 29.7784 24.1176 29.7784 24.2865V26.4499C29.7784 26.7961 29.8786 27.0613 30.0789 27.2441C30.2792 27.427 30.5979 27.5191 31.038 27.5191C31.478 27.5191 31.7996 27.4228 32.0056 27.2316C32.2101 27.0404 32.313 26.757 32.313 26.3815V24.2795C32.313 24.1022 32.2919 23.9431 32.2496 23.8035C32.2058 23.6653 32.1353 23.5453 32.038 23.4462ZM31.4992 26.4192C31.4992 26.5518 31.4639 26.6635 31.3934 26.7556C31.3229 26.8477 31.2058 26.8952 31.0394 26.8952C30.8744 26.8952 30.7573 26.8505 30.6896 26.7626C30.6219 26.6747 30.588 26.5742 30.588 26.4625V24.299C30.588 24.246 30.5937 24.1874 30.6064 24.1232C30.6191 24.0589 30.6416 24.0017 30.6741 23.9501C30.7065 23.8984 30.7531 23.8552 30.8137 23.8203C30.8744 23.7854 30.9519 23.7672 31.0464 23.7672C31.2213 23.7672 31.3412 23.8147 31.4033 23.9096C31.4653 24.0045 31.4978 24.112 31.4978 24.2306V26.4192H31.4992ZM20.9462 23.2089L19.9123 27.4382C19.9067 27.4619 19.925 27.4842 19.949 27.4842H20.6993C20.7163 27.4842 20.7318 27.4717 20.736 27.4549L20.925 26.5881H21.8869L22.083 27.4563C22.0872 27.4731 22.1013 27.4856 22.1197 27.4856H22.87C22.894 27.4856 22.9123 27.4633 22.9067 27.4396L21.8644 23.2103C21.8601 23.1936 21.846 23.1824 21.8277 23.1824H20.9843C20.9645 23.181 20.9504 23.1922 20.9462 23.2089ZM21.0435 25.9628L21.382 24.1762H21.4201L21.7586 25.9628H21.0435Z" fill="white"/>
</g>
<path d="M72.125 10.4147V14.5694L83.2785 13.3366V8.83963L72.125 10.4147ZM75.6843 14.8222V29.0594H79.7677V14.4028L75.6843 14.8222ZM84.7848 8.62695V29.0594H89.0876V8.01903L84.7848 8.62695ZM89.8892 7.90572V12.606L96.1024 11.9191V7.02846L89.8892 7.90572ZM89.8892 16.1044V20.8904L93.9678 20.6669V15.7517L89.8892 16.1044ZM89.8892 24.3401V29.0594H96.1024V24.1518L89.8892 24.3401ZM112.17 4.75189V29.0594H117.811V3.95519L112.17 4.75189ZM118.864 3.80626V9.39754L127.085 8.4893V2.64507L118.864 3.80626ZM118.864 13.6026V19.2974L124.252 19.0018V13.1389L118.864 13.6026ZM118.864 23.46V29.0594H127.085V23.2105L118.864 23.46ZM97.7464 6.79587V29.0594H102.648V6.10341L97.7464 6.79587ZM103.563 23.9256V29.0592H110.677V23.7098L103.563 23.9256ZM145.514 2.3702C143.731 0.67766 141.117 -0.0165752 138.258 0.39616V6.59758C139.416 6.53296 140.354 6.96473 140.772 7.83401C141.432 9.20456 140.751 11.2609 139.145 13.1661C136.665 16.1062 130.073 22.1239 130.073 22.1239L139.537 21.8112C145.32 16.1339 147.397 12.6877 147.769 8.38661C147.965 6.11115 147.143 3.91868 145.514 2.3702ZM148.103 29.0594V22.5705L128.906 23.1517M128.906 23.1517L128.908 29.0592H148.103M137.155 0.535361C131.578 1.72886 128.839 5.85178 129.155 12.5792L135.101 12.049C134.831 8.2483 135.987 7.3467 137.157 6.85098L137.155 0.535361Z" fill="white"/>
<defs>
<clipPath id="clip0_2003_952">
<rect width="46.4308" height="28.7794" fill="white" transform="translate(0.274414 0.280029)"/>
</clipPath>
</defs>
</svg>
