<svg width="148" height="34" viewBox="0 0 148 34" fill="none" xmlns="http://www.w3.org/2000/svg">
<g clip-path="url(#clip0_865_8189)">
<path d="M41.3517 5H5.08046C2.28635 5 0 7.26258 0 10.0276V23.7957C0 26.5608 2.28635 28.8233 5.08046 28.8233H6.2469V32.6757C6.2469 33.2899 6.74903 33.7868 7.36963 33.7868H39.0611C39.6817 33.7868 40.1839 33.2899 40.1839 32.6757V28.8233H41.3503C44.1444 28.8233 46.4308 26.5608 46.4308 23.7957V10.0276C46.4308 7.26258 44.1444 5 41.3517 5Z" fill="#FF9400"/>
<path d="M41.3517 7.51367H5.07905C3.6827 7.51367 2.53882 8.64426 2.53882 10.0275V23.7956C2.53882 25.1774 3.68129 26.3094 5.07905 26.3094H41.3503C42.7467 26.3094 43.8905 25.1788 43.8905 23.7956V10.0261C43.8905 8.64426 42.7481 7.51367 41.3517 7.51367Z" fill="white"/>
<path fill-rule="evenodd" clip-rule="evenodd" d="M26.3713 10.1616H23.9425C23.7789 10.1616 23.628 10.2523 23.5518 10.3947L19.2993 18.4345V10.4882C19.2993 10.3082 19.1512 10.1616 18.9692 10.1616H16.697C16.4896 10.1616 16.3853 10.2705 16.3853 10.4882V23.3351C16.3853 23.5528 16.4882 23.6617 16.697 23.6617H19.1441C19.3077 23.6617 19.4587 23.571 19.5348 23.4286L23.7873 15.3902V23.3351C23.7873 23.5528 23.8917 23.6617 24.0991 23.6617H26.3713C26.5533 23.6617 26.7013 23.5151 26.7013 23.3351V10.4882C26.7013 10.3068 26.5533 10.1616 26.3713 10.1616ZM40.9046 10.1616H38.5802C38.4109 10.1616 38.2558 10.2579 38.1824 10.4087L34.9539 17.0666L31.7254 10.4087C31.6521 10.2579 31.4983 10.1616 31.3276 10.1616H29.0032C28.7959 10.1616 28.6915 10.2705 28.6915 10.4882V23.3351C28.6915 23.5528 28.7959 23.6617 29.0032 23.6617H31.2755C31.4574 23.6617 31.6055 23.5151 31.6055 23.3351V15.8676L33.7931 20.4081C33.8665 20.5603 34.0216 20.6566 34.1909 20.6566H35.717C35.8862 20.6566 36.0414 20.5603 36.1147 20.4081L38.3023 15.8676V23.3337C38.3023 23.5137 38.4504 23.6603 38.6324 23.6603H40.9046C41.112 23.6603 41.2163 23.5514 41.2163 23.3337V10.4882C41.2163 10.2705 41.112 10.1616 40.9046 10.1616ZM5.52619 10.1617H10.3824C11.8225 10.1617 12.9649 10.5749 13.8084 11.4054C14.6504 12.2331 15.0721 13.3483 15.0721 14.7497C15.0721 16.1636 14.6518 17.2844 13.8084 18.1121C12.9649 18.9412 11.8239 19.3544 10.3824 19.3544H8.14681V23.3352C8.14681 23.5529 8.04244 23.6618 7.8351 23.6618H5.52619C5.31744 23.6618 5.21448 23.5529 5.21448 23.3352V10.4883C5.21448 10.2706 5.31885 10.1617 5.52619 10.1617ZM8.14681 16.6521H9.97899C11.3584 16.6521 12.0495 16.0171 12.0495 14.7483C12.0495 13.4795 11.3584 12.8444 9.97899 12.8444H8.14681V16.6521Z" fill="#5229A1"/>
<path d="M17.4389 28.4814C17.3683 28.2706 17.2442 28.1213 17.0637 28.0333C16.8832 27.9454 16.6391 27.9007 16.3288 27.9007H15.0693C15.0482 27.9007 15.0326 27.9175 15.0326 27.937V32.1663C15.0326 32.1872 15.0496 32.2025 15.0693 32.2025H16.2611C16.5263 32.2025 16.7619 32.1579 16.9692 32.0672C17.1765 31.9764 17.3274 31.8103 17.4234 31.5661C17.4826 31.4181 17.515 31.2157 17.5207 30.9603C17.5249 30.7049 17.5263 29.3747 17.5249 29.1095C17.5221 28.8429 17.4939 28.6335 17.4389 28.4814ZM16.7167 31.0692C16.7167 31.2353 16.6786 31.3609 16.6039 31.4474C16.5291 31.534 16.3909 31.5772 16.1906 31.5772H15.8451V28.5232H16.1906C16.3965 28.5232 16.5348 28.5679 16.6081 28.6572C16.68 28.7466 16.7167 28.8694 16.7167 29.0271V31.0692V31.0692ZM38.2501 28.2092C38.0273 28.0026 37.6747 27.9007 37.1937 27.9007H36.0738C36.0526 27.9007 36.0371 27.9175 36.0371 27.937V32.1663C36.0371 32.1872 36.0541 32.2025 36.0738 32.2025H36.8115C36.8326 32.2025 36.8481 32.1858 36.8481 32.1663V30.5527H37.1796C37.4504 30.5527 37.6747 30.5192 37.8524 30.4536C38.0301 30.388 38.174 30.2959 38.284 30.1787C38.394 30.0614 38.4716 29.9204 38.5167 29.7557C38.5618 29.591 38.5844 29.4082 38.5844 29.2058C38.5844 28.7466 38.473 28.4158 38.2501 28.2092ZM37.6563 29.739C37.559 29.8576 37.3841 29.9162 37.1345 29.9162H36.8481V28.526H37.1486C37.3996 28.526 37.5703 28.5875 37.6634 28.7089C37.7565 28.8303 37.803 28.9978 37.803 29.2086C37.803 29.4431 37.7537 29.6203 37.6563 29.739ZM18.3557 32.2025H19.0933C19.1145 32.2025 19.13 32.1858 19.13 32.1663V27.937C19.13 27.9161 19.1131 27.9007 19.0933 27.9007H18.3557C18.3345 27.9007 18.319 27.9175 18.319 27.937V32.1663C18.3176 32.1858 18.3345 32.2025 18.3557 32.2025ZM12.2131 32.2025H14.4614C14.4826 32.2025 14.4981 32.1858 14.4981 32.1663V31.6149C14.4981 31.594 14.4811 31.5786 14.4614 31.5786H12.9889V30.3364H14.2668C14.2879 30.3364 14.3034 30.3196 14.3034 30.3001V29.7362C14.3034 29.7153 14.2865 29.6999 14.2668 29.6999H12.9889V28.526H14.4628C14.484 28.526 14.4995 28.5093 14.4995 28.4897V27.9384C14.4995 27.9175 14.4826 27.9021 14.4628 27.9021H12.2131C12.192 27.9021 12.1765 27.9189 12.1765 27.9384V32.1677C12.1765 32.1858 12.1934 32.2025 12.2131 32.2025ZM10.0721 29.0997L9.65175 30.0572H9.61508L9.20464 29.1234L8.64751 27.9203C8.64186 27.9077 8.62776 27.8993 8.61366 27.8993H7.88445C7.86329 27.8993 7.84778 27.9161 7.84778 27.9356V32.1649C7.84778 32.1858 7.8647 32.2012 7.88445 32.2012H8.62212C8.64328 32.2012 8.65879 32.1844 8.65879 32.1649V29.7111H8.69687L9.01846 30.4648L9.38235 31.2408C9.38799 31.2534 9.4021 31.2618 9.4162 31.2618H9.85627C9.87037 31.2618 9.88307 31.2534 9.89012 31.2408L10.247 30.4899L10.577 29.7236H10.6066V32.1663C10.6066 32.1872 10.6236 32.2025 10.6433 32.2025H11.381C11.4021 32.2025 11.4176 32.1858 11.4176 32.1663V27.937C11.4176 27.9161 11.4007 27.9007 11.381 27.9007H10.6602C10.6461 27.9007 10.632 27.9091 10.6264 27.9217L10.0721 29.0997ZM24.3769 30.4229H24.8127V31.2702C24.8127 31.3776 24.769 31.4614 24.683 31.5242C24.5969 31.5856 24.4827 31.6163 24.3388 31.6163C24.1964 31.6163 24.0962 31.5856 24.0398 31.5228C23.9834 31.4614 23.9481 31.393 23.9326 31.319C23.9171 31.2771 23.91 31.2339 23.91 31.1892V29.0034C23.91 28.9504 23.9157 28.8931 23.9284 28.8331C23.9411 28.7731 23.9636 28.7173 23.9947 28.6656C24.0271 28.614 24.0722 28.5721 24.1315 28.5386C24.1907 28.5051 24.2669 28.4897 24.3614 28.4897C24.5194 28.4897 24.6336 28.5386 24.7055 28.6377C24.7704 28.727 24.8057 28.8415 24.8113 28.9783C24.8127 29.0006 24.8325 29.0174 24.8536 29.0132L25.5772 28.8959C25.5955 28.8931 25.6096 28.8778 25.6082 28.8596C25.5998 28.6293 25.501 28.2874 25.3078 28.1338C25.0962 27.9663 24.7944 27.8644 24.3684 27.8644C24.1385 27.8644 23.9425 27.8951 23.7817 27.9566C23.6209 28.018 23.4897 28.1031 23.3868 28.2106C23.2838 28.3181 23.2105 28.4423 23.1653 28.5847C23.1202 28.727 23.0976 28.8778 23.0976 29.0397V31.185C23.0976 31.5312 23.2006 31.7936 23.4065 31.9736C23.6124 32.1523 23.9298 32.243 24.3614 32.243C24.7366 32.243 25.0412 32.1565 25.2754 31.9834C25.5081 31.8103 25.6252 31.5549 25.6252 31.2171V29.8813C25.6252 29.8604 25.6082 29.8451 25.5885 29.8451H24.3769C24.3557 29.8451 24.3402 29.8618 24.3402 29.8813V30.3894C24.3388 30.4062 24.3557 30.4229 24.3769 30.4229ZM28.7324 29.8381C28.8255 29.651 28.872 29.4207 28.872 29.1486C28.872 28.7075 28.7521 28.3892 28.5109 28.1938C28.2698 27.9984 27.9369 27.9007 27.5109 27.9007H26.3529C26.3318 27.9007 26.3163 27.9175 26.3163 27.937V32.1663C26.3163 32.1872 26.3332 32.2025 26.3529 32.2025H27.0906C27.1118 32.2025 27.1273 32.1858 27.1273 32.1663V30.4229H27.5109L28.1781 32.1788C28.1837 32.1928 28.1978 32.2025 28.2133 32.2025H28.9595C28.9863 32.2025 29.0032 32.176 28.9933 32.1523L28.2387 30.2805C28.4757 30.1731 28.6407 30.0265 28.7324 29.8381ZM27.9256 29.6343C27.8255 29.7348 27.6703 29.785 27.4602 29.785H27.1287V28.5246H27.4446C27.6703 28.5246 27.8311 28.5791 27.9298 28.6879C28.0272 28.7968 28.0765 28.9504 28.0765 29.1486C28.0751 29.3719 28.0257 29.5338 27.9256 29.6343ZM34.4729 31.139C34.4729 31.2716 34.4377 31.3832 34.3672 31.4753C34.2966 31.5675 34.1796 31.6149 34.0131 31.6149C33.8481 31.6149 33.731 31.5703 33.6633 31.4823C33.5956 31.3944 33.5618 31.2939 33.5618 31.1822V27.9426C33.5618 27.9217 33.5449 27.9063 33.5251 27.9063H32.7874C32.7663 27.9063 32.7508 27.9231 32.7508 27.9426V31.1697C32.7508 31.5158 32.8523 31.781 33.054 31.9639C33.2571 32.1467 33.5773 32.2388 34.0174 32.2388C34.4574 32.2388 34.7776 32.1425 34.9807 31.9513C35.1838 31.7601 35.2839 31.4767 35.2839 31.1013V27.9426C35.2839 27.9217 35.267 27.9063 35.2473 27.9063H34.5096C34.4885 27.9063 34.4729 27.9231 34.4729 27.9426V31.139V31.139ZM31.7635 28.1659C31.6661 28.0668 31.5364 27.9915 31.3742 27.9398C31.212 27.8882 31.0103 27.863 30.7705 27.863C30.5462 27.863 30.3516 27.891 30.1894 27.9468C30.0272 28.0026 29.896 28.0808 29.7959 28.1813C29.6957 28.2818 29.6224 28.4032 29.5744 28.5428C29.5265 28.6824 29.5039 28.8373 29.5039 29.0062V31.1697C29.5039 31.5158 29.604 31.781 29.8043 31.9639C30.0046 32.1467 30.3234 32.2388 30.7634 32.2388C31.2035 32.2388 31.5251 32.1425 31.731 31.9513C31.9355 31.7601 32.0385 31.4767 32.0385 31.1013V28.9992C32.0385 28.8219 32.0173 28.6628 31.975 28.5232C31.9313 28.3851 31.8608 28.265 31.7635 28.1659ZM31.2247 31.139C31.2247 31.2716 31.1894 31.3832 31.1189 31.4753C31.0484 31.5675 30.9313 31.6149 30.7648 31.6149C30.5998 31.6149 30.4828 31.5703 30.4151 31.4823C30.3474 31.3944 30.3135 31.2939 30.3135 31.1822V29.0188C30.3135 28.9657 30.3191 28.9071 30.3318 28.8429C30.3445 28.7787 30.3671 28.7214 30.3995 28.6698C30.432 28.6182 30.4785 28.5749 30.5392 28.54C30.5998 28.5051 30.6774 28.487 30.7719 28.487C30.9468 28.487 31.0667 28.5344 31.1287 28.6293C31.1908 28.7242 31.2232 28.8317 31.2232 28.9504V31.139H31.2247ZM20.6716 27.9286L19.6378 32.1579C19.6321 32.1816 19.6505 32.2039 19.6744 32.2039H20.4248C20.4417 32.2039 20.4572 32.1914 20.4615 32.1746L20.6505 31.3078H21.6124L21.8085 32.176C21.8127 32.1928 21.8268 32.2053 21.8451 32.2053H22.5955C22.6195 32.2053 22.6378 32.183 22.6322 32.1593L21.5898 27.93C21.5856 27.9133 21.5715 27.9021 21.5532 27.9021H20.7097C20.69 27.9007 20.6759 27.9119 20.6716 27.9286ZM20.769 30.6825L21.1075 28.8959H21.1455L21.4841 30.6825H20.769Z" fill="white"/>
</g>
<path d="M72 10.1346V14.2894L83.1535 13.0565V8.5596L72 10.1346ZM75.5593 14.5421V28.7794H79.6427V14.1228L75.5593 14.5421ZM84.6598 8.34692V28.7794H88.9626V7.739L84.6598 8.34692ZM89.7642 7.62569V12.326L95.9774 11.6391V6.74843L89.7642 7.62569ZM89.7642 15.8244V20.6103L93.8428 20.3868V15.4716L89.7642 15.8244ZM89.7642 24.0601V28.7794H95.9774V23.8717L89.7642 24.0601ZM112.045 4.47186V28.7794H117.686V3.67516L112.045 4.47186ZM118.739 3.52623V9.11751L126.96 8.20927V2.36504L118.739 3.52623ZM118.739 13.3225V19.0174L124.127 18.7217V12.8589L118.739 13.3225ZM118.739 23.1799V28.7794H126.96V22.9305L118.739 23.1799ZM97.6214 6.51584V28.7794H102.523V5.82338L97.6214 6.51584ZM103.438 23.6455V28.7792H110.552V23.4298L103.438 23.6455ZM145.389 2.09017C143.606 0.397631 140.992 -0.296604 138.133 0.11613V6.31755C139.291 6.25293 140.229 6.6847 140.647 7.55399C141.307 8.92453 140.626 10.9809 139.02 12.8861C136.54 15.8262 129.948 21.8439 129.948 21.8439L139.412 21.5312C145.195 15.8538 147.272 12.4077 147.644 8.10658C147.84 5.83112 147.018 3.63865 145.389 2.09017ZM147.978 28.7794V22.2905L128.781 22.8716M128.781 22.8716L128.783 28.7792H147.978M137.03 0.255331C131.453 1.44883 128.714 5.57175 129.03 12.2992L134.976 11.769C134.706 7.96827 135.862 7.06667 137.032 6.57095L137.03 0.255331Z" fill="white"/>
<path d="M60.0365 21.5533L63.475 26.4345C63.5936 26.619 63.5475 26.7112 63.3367 26.7112H61.8743C61.7558 26.7112 61.6701 26.6651 61.6174 26.5728L59.0484 22.6797L56.4793 26.5728C56.4266 26.6651 56.3344 26.7112 56.2026 26.7112H54.7403C54.5295 26.7112 54.4833 26.619 54.6019 26.4345L58.0405 21.5533L54.8193 16.7709C54.7666 16.705 54.7534 16.6457 54.7798 16.5931C54.8061 16.5272 54.8654 16.4942 54.9576 16.4942H56.341C56.4464 16.4942 56.5386 16.5469 56.6176 16.6523L59.0484 20.4071L61.4791 16.6523C61.5581 16.5469 61.6438 16.4942 61.736 16.4942H63.1193C63.2116 16.4942 63.2708 16.5272 63.2972 16.5931C63.3367 16.6457 63.3301 16.705 63.2774 16.7709L60.0365 21.5533Z" fill="white"/>
<defs>
<clipPath id="clip0_865_8189">
<rect width="46.4308" height="28.7794" fill="white" transform="translate(0 5)"/>
</clipPath>
</defs>
</svg>
