
<svg width="156" height="54" viewBox="0 0 156 54" fill="none" xmlns="http://www.w3.org/2000/svg">
    <g filter="url(#filter0_dddd_1062_2418)">
        <g clip-path="url(#clip0_1062_2418)">
            <path d="M44.6261 17.28H8.35487C5.56076 17.28 3.27441 19.5426 3.27441 22.3077V36.0757C3.27441 38.8408 5.56076 41.1034 8.35487 41.1034H9.52132V44.9557C9.52132 45.5699 10.0234 46.0668 10.644 46.0668H42.3355C42.9561 46.0668 43.4583 45.5699 43.4583 44.9557V41.1034H44.6247C47.4188 41.1034 49.7052 38.8408 49.7052 36.0757V22.3077C49.7052 19.5426 47.4188 17.28 44.6261 17.28Z" fill="#FF9400"/>
            <path d="M44.6261 19.7939H8.35346C6.95711 19.7939 5.81323 20.9245 5.81323 22.3078V36.0758C5.81323 37.4577 6.9557 38.5897 8.35346 38.5897H44.6247C46.0211 38.5897 47.1649 37.4591 47.1649 36.0758V22.3064C47.1649 20.9245 46.0225 19.7939 44.6261 19.7939Z" fill="white"/>
            <path fill-rule="evenodd" clip-rule="evenodd" d="M29.6456 22.4417H27.2168C27.0532 22.4417 26.9023 22.5324 26.8261 22.6747L22.5736 30.7145V22.7683C22.5736 22.5882 22.4255 22.4417 22.2436 22.4417H19.9713C19.764 22.4417 19.6596 22.5505 19.6596 22.7683V35.6151C19.6596 35.8329 19.7626 35.9417 19.9713 35.9417H22.4185C22.5821 35.9417 22.733 35.851 22.8092 35.7086L27.0617 27.6703V35.6151C27.0617 35.8329 27.166 35.9417 27.3734 35.9417H29.6456C29.8276 35.9417 29.9757 35.7952 29.9757 35.6151V22.7683C29.9757 22.5868 29.8276 22.4417 29.6456 22.4417ZM44.1788 22.4417H41.8544C41.6852 22.4417 41.53 22.538 41.4567 22.6887L38.2281 29.3466L34.9996 22.6887C34.9263 22.538 34.7725 22.4417 34.6019 22.4417H32.2774C32.0701 22.4417 31.9657 22.5505 31.9657 22.7683V35.6151C31.9657 35.8329 32.0701 35.9417 32.2774 35.9417H34.5497C34.7316 35.9417 34.8797 35.7952 34.8797 35.6151V28.1476L37.0673 32.6881C37.1407 32.8403 37.2958 32.9366 37.4651 32.9366H38.9912C39.1604 32.9366 39.3156 32.8403 39.3889 32.6881L41.5766 28.1476V35.6137C41.5766 35.7938 41.7246 35.9403 41.9066 35.9403H44.1788C44.3862 35.9403 44.4905 35.8315 44.4905 35.6137V22.7683C44.4905 22.5505 44.3862 22.4417 44.1788 22.4417ZM8.80048 22.4419H13.6567C15.0967 22.4419 16.2392 22.855 17.0827 23.6855C17.9247 24.5132 18.3464 25.6284 18.3464 27.0298C18.3464 28.4438 17.9261 29.5646 17.0827 30.3923C16.2392 31.2214 15.0982 31.6345 13.6567 31.6345H11.4211V35.6153C11.4211 35.8331 11.3167 35.9419 11.1094 35.9419H8.80048C8.59173 35.9419 8.48877 35.8331 8.48877 35.6153V22.7685C8.48877 22.5507 8.59314 22.4419 8.80048 22.4419ZM11.4211 28.9323H13.2533C14.6327 28.9323 15.3238 28.2972 15.3238 27.0284C15.3238 25.7597 14.6327 25.1246 13.2533 25.1246H11.4211V28.9323Z" fill="#5229A1"/>
            <path d="M20.7134 40.7616C20.6429 40.5509 20.5188 40.4015 20.3382 40.3136C20.1577 40.2257 19.9137 40.181 19.6034 40.181H18.3438C18.3227 40.181 18.3072 40.1977 18.3072 40.2173V44.4465C18.3072 44.4675 18.3241 44.4828 18.3438 44.4828H19.5357C19.8008 44.4828 20.0364 44.4382 20.2437 44.3474C20.4511 44.2567 20.602 44.0906 20.6979 43.8463C20.7571 43.6984 20.7896 43.496 20.7952 43.2406C20.7994 42.9851 20.8009 41.655 20.7994 41.3898C20.7966 41.1232 20.7684 40.9138 20.7134 40.7616ZM19.9913 43.3494C19.9913 43.5155 19.9532 43.6412 19.8784 43.7277C19.8037 43.8142 19.6654 43.8575 19.4652 43.8575H19.1196V40.8035H19.4652C19.6711 40.8035 19.8093 40.8482 19.8827 40.9375C19.9546 41.0268 19.9913 41.1497 19.9913 41.3074V43.3494V43.3494ZM41.5247 40.4895C41.3018 40.2829 40.9492 40.181 40.4682 40.181H39.3483C39.3272 40.181 39.3117 40.1977 39.3117 40.2173V44.4465C39.3117 44.4675 39.3286 44.4828 39.3483 44.4828H40.086C40.1072 44.4828 40.1227 44.4661 40.1227 44.4465V42.833H40.4541C40.7249 42.833 40.9492 42.7995 41.1269 42.7339C41.3046 42.6683 41.4485 42.5762 41.5585 42.4589C41.6685 42.3417 41.7461 42.2007 41.7912 42.036C41.8364 41.8713 41.859 41.6884 41.859 41.4861C41.859 41.0268 41.7475 40.696 41.5247 40.4895ZM40.9309 42.0193C40.8336 42.1379 40.6587 42.1965 40.409 42.1965H40.1227V40.8063H40.4231C40.6742 40.8063 40.8448 40.8677 40.9379 40.9892C41.031 41.1106 41.0776 41.2781 41.0776 41.4889C41.0776 41.7233 41.0282 41.9006 40.9309 42.0193ZM21.6302 44.4828H22.3679C22.389 44.4828 22.4045 44.4661 22.4045 44.4465V40.2173C22.4045 40.1964 22.3876 40.181 22.3679 40.181H21.6302C21.609 40.181 21.5935 40.1977 21.5935 40.2173V44.4465C21.5921 44.4661 21.609 44.4828 21.6302 44.4828ZM15.4877 44.4828H17.7359C17.7571 44.4828 17.7726 44.4661 17.7726 44.4465V43.8952C17.7726 43.8743 17.7557 43.8589 17.7359 43.8589H16.2634V42.6167H17.5413C17.5625 42.6167 17.578 42.5999 17.578 42.5804V42.0165C17.578 41.9955 17.561 41.9802 17.5413 41.9802H16.2634V40.8063H17.7373C17.7585 40.8063 17.774 40.7896 17.774 40.77V40.2187C17.774 40.1977 17.7571 40.1824 17.7373 40.1824H15.4877C15.4665 40.1824 15.451 40.1991 15.451 40.2187V44.4479C15.451 44.4661 15.4679 44.4828 15.4877 44.4828ZM13.3466 41.38L12.9263 42.3375H12.8896L12.4792 41.4037L11.922 40.2005C11.9164 40.188 11.9023 40.1796 11.8882 40.1796H11.159C11.1378 40.1796 11.1223 40.1964 11.1223 40.2159V44.4451C11.1223 44.4661 11.1392 44.4814 11.159 44.4814H11.8967C11.9178 44.4814 11.9333 44.4647 11.9333 44.4451V41.9913H11.9714L12.293 42.7451L12.6569 43.5211C12.6625 43.5337 12.6766 43.5421 12.6907 43.5421H13.1308C13.1449 43.5421 13.1576 43.5337 13.1647 43.5211L13.5215 42.7702L13.8515 42.0039H13.8812V44.4465C13.8812 44.4675 13.8981 44.4828 13.9178 44.4828H14.6555C14.6767 44.4828 14.6922 44.4661 14.6922 44.4465V40.2173C14.6922 40.1964 14.6753 40.181 14.6555 40.181H13.9348C13.9207 40.181 13.9066 40.1894 13.9009 40.2019L13.3466 41.38ZM27.6514 42.7032H28.0873V43.5504C28.0873 43.6579 28.0435 43.7417 27.9575 43.8045C27.8715 43.8659 27.7572 43.8966 27.6134 43.8966C27.4709 43.8966 27.3708 43.8659 27.3143 43.8031C27.2579 43.7417 27.2227 43.6733 27.2071 43.5993C27.1916 43.5574 27.1846 43.5141 27.1846 43.4695V41.2837C27.1846 41.2306 27.1902 41.1734 27.2029 41.1134C27.2156 41.0534 27.2382 40.9975 27.2692 40.9459C27.3016 40.8942 27.3468 40.8524 27.406 40.8189C27.4653 40.7854 27.5414 40.77 27.6359 40.77C27.7939 40.77 27.9081 40.8189 27.9801 40.918C28.045 41.0073 28.0802 41.1218 28.0859 41.2585C28.0873 41.2809 28.107 41.2976 28.1282 41.2934L28.8517 41.1762C28.8701 41.1734 28.8842 41.158 28.8828 41.1399C28.8743 40.9096 28.7756 40.5676 28.5823 40.4141C28.3708 40.2466 28.0689 40.1447 27.643 40.1447C27.4131 40.1447 27.217 40.1754 27.0562 40.2368C26.8954 40.2982 26.7643 40.3834 26.6613 40.4909C26.5583 40.5983 26.485 40.7226 26.4399 40.8649C26.3947 41.0073 26.3722 41.158 26.3722 41.32V43.4653C26.3722 43.8114 26.4751 44.0739 26.681 44.2539C26.887 44.4326 27.2043 44.5233 27.6359 44.5233C28.0111 44.5233 28.3158 44.4368 28.5499 44.2637C28.7826 44.0906 28.8997 43.8352 28.8997 43.4974V42.1616C28.8997 42.1407 28.8828 42.1253 28.863 42.1253H27.6514C27.6303 42.1253 27.6148 42.1421 27.6148 42.1616V42.6697C27.6134 42.6864 27.6303 42.7032 27.6514 42.7032ZM32.0069 42.1184C32.1 41.9313 32.1466 41.701 32.1466 41.4288C32.1466 40.9878 32.0267 40.6695 31.7855 40.4741C31.5443 40.2787 31.2114 40.181 30.7855 40.181H29.6275C29.6063 40.181 29.5908 40.1977 29.5908 40.2173V44.4465C29.5908 44.4675 29.6077 44.4828 29.6275 44.4828H30.3652C30.3863 44.4828 30.4018 44.4661 30.4018 44.4465V42.7032H30.7855L31.4526 44.4591C31.4583 44.4731 31.4724 44.4828 31.4879 44.4828H32.234C32.2608 44.4828 32.2777 44.4563 32.2679 44.4326L31.5133 42.5608C31.7502 42.4533 31.9152 42.3068 32.0069 42.1184ZM31.2001 41.9146C31.1 42.0151 30.9449 42.0653 30.7347 42.0653H30.4032V40.8049H30.7192C30.9449 40.8049 31.1056 40.8594 31.2044 40.9682C31.3017 41.0771 31.3511 41.2306 31.3511 41.4288C31.3497 41.6522 31.3003 41.8141 31.2001 41.9146ZM37.7475 43.4192C37.7475 43.5518 37.7122 43.6635 37.6417 43.7556C37.5712 43.8477 37.4541 43.8952 37.2877 43.8952C37.1226 43.8952 37.0056 43.8505 36.9379 43.7626C36.8702 43.6747 36.8363 43.5742 36.8363 43.4625V40.2229C36.8363 40.2019 36.8194 40.1866 36.7997 40.1866H36.062C36.0408 40.1866 36.0253 40.2033 36.0253 40.2229V43.4499C36.0253 43.7961 36.1269 44.0613 36.3286 44.2441C36.5317 44.427 36.8518 44.5191 37.2919 44.5191C37.732 44.5191 38.0521 44.4228 38.2552 44.2316C38.4583 44.0404 38.5585 43.757 38.5585 43.3815V40.2229C38.5585 40.2019 38.5416 40.1866 38.5218 40.1866H37.7841C37.763 40.1866 37.7475 40.2033 37.7475 40.2229V43.4192V43.4192ZM35.038 40.4462C34.9407 40.3471 34.8109 40.2717 34.6487 40.2201C34.4865 40.1684 34.2848 40.1433 34.045 40.1433C33.8208 40.1433 33.6261 40.1712 33.4639 40.2271C33.3017 40.2829 33.1705 40.3611 33.0704 40.4616C32.9703 40.562 32.8969 40.6835 32.849 40.8231C32.801 40.9626 32.7784 41.1176 32.7784 41.2865V43.4499C32.7784 43.7961 32.8786 44.0613 33.0789 44.2441C33.2792 44.427 33.5979 44.5191 34.038 44.5191C34.478 44.5191 34.7996 44.4228 35.0056 44.2316C35.2101 44.0404 35.313 43.757 35.313 43.3815V41.2795C35.313 41.1022 35.2919 40.9431 35.2496 40.8035C35.2058 40.6653 35.1353 40.5453 35.038 40.4462ZM34.4992 43.4192C34.4992 43.5518 34.4639 43.6635 34.3934 43.7556C34.3229 43.8477 34.2058 43.8952 34.0394 43.8952C33.8744 43.8952 33.7573 43.8505 33.6896 43.7626C33.6219 43.6747 33.588 43.5742 33.588 43.4625V41.299C33.588 41.246 33.5937 41.1874 33.6064 41.1232C33.6191 41.0589 33.6416 41.0017 33.6741 40.9501C33.7065 40.8984 33.7531 40.8552 33.8137 40.8203C33.8744 40.7854 33.9519 40.7672 34.0464 40.7672C34.2213 40.7672 34.3412 40.8147 34.4033 40.9096C34.4653 41.0045 34.4978 41.112 34.4978 41.2306V43.4192H34.4992ZM23.9462 40.2089L22.9123 44.4382C22.9067 44.4619 22.925 44.4842 22.949 44.4842H23.6993C23.7163 44.4842 23.7318 44.4717 23.736 44.4549L23.925 43.5881H24.8869L25.083 44.4563C25.0872 44.4731 25.1013 44.4856 25.1197 44.4856H25.87C25.894 44.4856 25.9123 44.4633 25.9067 44.4396L24.8644 40.2103C24.8601 40.1936 24.846 40.1824 24.8277 40.1824H23.9843C23.9645 40.181 23.9504 40.1922 23.9462 40.2089ZM24.0435 42.9628L24.382 41.1762H24.4201L24.7586 42.9628H24.0435Z" fill="white"/>
        </g>
        <path d="M63.7378 31.1222L67.1763 36.0034C67.2949 36.1878 67.2488 36.28 67.038 36.28H65.5756C65.457 36.28 65.3714 36.2339 65.3187 36.1417L62.7497 32.2486L60.1806 36.1417C60.1279 36.2339 60.0357 36.28 59.9039 36.28H58.4415C58.2308 36.28 58.1846 36.1878 58.3032 36.0034L61.7418 31.1222L58.5206 26.3398C58.4679 26.2739 58.4547 26.2146 58.4811 26.1619C58.5074 26.096 58.5667 26.0631 58.6589 26.0631H60.0423C60.1477 26.0631 60.2399 26.1158 60.3189 26.2212L62.7497 29.976L65.1804 26.2212C65.2594 26.1158 65.3451 26.0631 65.4373 26.0631H66.8206C66.9128 26.0631 66.9721 26.096 66.9985 26.1619C67.038 26.2146 67.0314 26.2739 66.9787 26.3398L63.7378 31.1222Z" fill="white"/>
        <g clip-path="url(#clip1_1062_2418)">
            <mask id="mask0_1062_2418" style="mask-type:luminance" maskUnits="userSpaceOnUse" x="76" y="17" width="40" height="30">
                <path d="M115.208 17.28H76.1506V46.0412H115.208V17.28Z" fill="white"/>
            </mask>
            <g mask="url(#mask0_1062_2418)">
                <path d="M97.9007 46.0232C95.8022 46.0232 93.7377 46.0712 91.6752 46.0133C86.9486 45.8833 83.0215 41.9502 82.9715 37.1796C82.9035 30.6044 82.9535 24.0292 82.9535 17.4539C82.9535 17.4059 82.9695 17.358 82.9835 17.28H88.8073V24.217H95.6124V30.0928H88.8512V40.1755H97.9007V46.0232Z" fill="#FDFDFD"/>
                <path d="M102.803 30.0829H96.8875C97.0114 29.2895 97.0673 28.5141 97.2592 27.7726C98.3184 23.6536 102.25 20.7497 106.413 20.9735C110.855 21.2134 114.429 24.3771 115.098 28.666C115.964 34.204 111.685 39.2003 106.073 39.2064C103.711 39.2083 101.348 39.2064 98.95 39.2064V33.3466C99.1099 33.3466 99.2837 33.3466 99.4576 33.3466C101.672 33.3466 103.886 33.3626 106.101 33.3406C107.574 33.3266 108.799 32.3893 109.205 31.0362C109.614 29.6652 109.093 28.1983 107.908 27.3909C105.891 26.0179 103.141 27.277 102.837 29.7092C102.823 29.8231 102.817 29.937 102.805 30.0849L102.803 30.0829Z" fill="#FDFDFD"/>
                <path d="M114.801 40.2097V45.9935H98.938V40.2097H114.801Z" fill="#FEFEFE"/>
                <path d="M76.1506 30.0509V24.2571H81.9724V30.0509H76.1506Z" fill="#F83492"/>
            </g>
        </g>
    </g>
    <defs>
        <filter id="filter0_dddd_1062_2418" x="0.807609" y="0.834662" width="154.692" height="52.6251" filterUnits="userSpaceOnUse" color-interpolation-filters="sRGB">
            <feFlood flood-opacity="0" result="BackgroundImageFix"/>
            <feColorMatrix in="SourceAlpha" type="matrix" values="0 0 0 0 0 0 0 0 0 0 0 0 0 0 0 0 0 0 127 0" result="hardAlpha"/>
            <feOffset dx="1.64454"/>
            <feGaussianBlur stdDeviation="2.05567"/>
            <feColorMatrix type="matrix" values="0 0 0 0 0 0 0 0 0 0 0 0 0 0 0 0 0 0 0.2 0"/>
            <feBlend mode="normal" in2="BackgroundImageFix" result="effect1_dropShadow_1062_2418"/>
            <feColorMatrix in="SourceAlpha" type="matrix" values="0 0 0 0 0 0 0 0 0 0 0 0 0 0 0 0 0 0 127 0" result="hardAlpha"/>
            <feOffset dx="7.40042" dy="-0.822268"/>
            <feGaussianBlur stdDeviation="3.70021"/>
            <feColorMatrix type="matrix" values="0 0 0 0 0 0 0 0 0 0 0 0 0 0 0 0 0 0 0.17 0"/>
            <feBlend mode="normal" in2="effect1_dropShadow_1062_2418" result="effect2_dropShadow_1062_2418"/>
            <feColorMatrix in="SourceAlpha" type="matrix" values="0 0 0 0 0 0 0 0 0 0 0 0 0 0 0 0 0 0 127 0" result="hardAlpha"/>
            <feOffset dx="16.4454" dy="-2.4668"/>
            <feGaussianBlur stdDeviation="4.93361"/>
            <feColorMatrix type="matrix" values="0 0 0 0 0 0 0 0 0 0 0 0 0 0 0 0 0 0 0.1 0"/>
            <feBlend mode="normal" in2="effect2_dropShadow_1062_2418" result="effect3_dropShadow_1062_2418"/>
            <feColorMatrix in="SourceAlpha" type="matrix" values="0 0 0 0 0 0 0 0 0 0 0 0 0 0 0 0 0 0 127 0" result="hardAlpha"/>
            <feOffset dx="28.7794" dy="-4.93361"/>
            <feGaussianBlur stdDeviation="5.75588"/>
            <feColorMatrix type="matrix" values="0 0 0 0 0 0 0 0 0 0 0 0 0 0 0 0 0 0 0.03 0"/>
            <feBlend mode="normal" in2="effect3_dropShadow_1062_2418" result="effect4_dropShadow_1062_2418"/>
            <feBlend mode="normal" in="SourceGraphic" in2="effect4_dropShadow_1062_2418" result="shape"/>
        </filter>
        <clipPath id="clip0_1062_2418">
            <rect width="46.4308" height="28.7794" fill="white" transform="translate(3.27441 17.28)"/>
        </clipPath>
        <clipPath id="clip1_1062_2418">
            <rect width="39.0577" height="28.7794" fill="white" transform="translate(76.1506 17.28)"/>
        </clipPath>
    </defs>
</svg>
