<svg width="47" height="30" viewBox="0 0 47 30" fill="none" xmlns="http://www.w3.org/2000/svg">
<path d="M41.6844 0.280029H5.7025C2.93152 0.280029 0.669922 2.54163 0.669922 5.3126V19.1063C0.669922 21.8773 2.93152 24.1389 5.7025 24.1389H9.39033V27.9897C9.39033 28.601 9.87933 29.1104 10.5109 29.1104H36.8759C37.4872 29.1104 37.9965 28.6214 37.9965 27.9897V24.1389H41.6844C44.4553 24.1389 46.717 21.8773 46.717 19.1063V5.3126C46.717 2.54163 44.4553 0.280029 41.6844 0.280029Z" fill="#FF9400"/>
<path d="M41.6844 2.80664H5.7025C4.31701 2.80664 3.17603 3.94763 3.17603 5.33311V19.1268C3.17603 20.5123 4.31701 21.6533 5.7025 21.6533H41.6844C43.0699 21.6533 44.2109 20.5123 44.2109 19.1268V5.31274C44.2109 3.92725 43.0699 2.80664 41.6844 2.80664Z" fill="white"/>
<path d="M41.2361 5.45532H38.9337C38.7707 5.45532 38.6077 5.5572 38.5466 5.69982L35.3477 12.3624L32.1489 5.69982C32.0674 5.5572 31.9248 5.45532 31.7618 5.45532H29.4594C29.2557 5.45532 29.1538 5.5572 29.1538 5.78132V18.6582C29.1538 18.8823 29.2557 18.9842 29.4594 18.9842H31.721C31.9044 18.9842 32.047 18.8416 32.047 18.6582V11.1806L34.2068 15.7242C34.2883 15.8668 34.4309 15.9687 34.5939 15.9687H36.1016C36.2646 15.9687 36.4276 15.8668 36.4887 15.7242L38.6688 11.1806V18.6582C38.6688 18.8416 38.8115 18.9842 38.9948 18.9842H41.2564C41.4602 18.9842 41.5621 18.8823 41.5621 18.6582V5.78132C41.5621 5.5572 41.4602 5.45532 41.2361 5.45532Z" fill="#5229A1"/>
<path d="M26.8311 5.45532H24.4269C24.2639 5.45532 24.1213 5.53682 24.0398 5.67945L19.8222 13.7479V5.78132C19.8222 5.59795 19.6796 5.45532 19.4962 5.45532H17.2346C17.0308 5.45532 16.929 5.5572 16.929 5.78132V18.6582C16.929 18.8823 17.0308 18.9842 17.2346 18.9842H19.6592C19.8222 18.9842 19.9648 18.9027 20.0463 18.7601L24.2639 10.712V18.6786C24.2639 18.9027 24.3658 19.0046 24.5695 19.0046H26.8311C27.0145 19.0046 27.1571 18.8619 27.1571 18.6786V5.78132C27.1571 5.59795 27.0145 5.45532 26.8311 5.45532Z" fill="#5229A1"/>
<path d="M10.9794 5.45532H6.15059C5.94684 5.45532 5.84497 5.5572 5.84497 5.78132V18.6582C5.84497 18.8823 5.94684 18.9842 6.15059 18.9842H8.43257C8.63632 18.9842 8.73819 18.8823 8.73819 18.6582V14.6647H10.959C12.3853 14.6647 13.5263 14.2572 14.3616 13.4219C15.197 12.5865 15.6045 11.4659 15.6045 10.06C15.6045 8.65416 15.1766 7.53355 14.3616 6.69818C13.5263 5.86282 12.4057 5.45532 10.9794 5.45532ZM10.5719 11.9549H8.75857V8.14479H10.5719C11.937 8.14479 12.6298 8.77641 12.6298 10.06C12.6298 11.3436 11.937 11.9549 10.5719 11.9549Z" fill="#5229A1"/>
<path d="M36.4075 24.4448C36.4075 24.1799 36.3871 23.9761 36.326 23.8131C36.2649 23.6094 36.1222 23.4464 35.9592 23.3649C35.7759 23.2834 35.5314 23.2223 35.2257 23.2223H33.9829C33.9625 23.2223 33.9421 23.2427 33.9421 23.263V27.501C33.9421 27.5214 33.9625 27.5417 33.9829 27.5417H35.1646C35.4295 27.5417 35.6536 27.501 35.8777 27.3991C36.1019 27.2972 36.2241 27.1342 36.326 26.8897C36.3871 26.7471 36.4075 26.5434 36.4279 26.2785C36.4075 26.0544 36.4075 24.7096 36.4075 24.4448ZM35.6129 26.4007C35.6129 26.5637 35.5721 26.686 35.4906 26.7879C35.4091 26.8694 35.2869 26.9101 35.0831 26.9101H34.7367V23.8539H35.0831C35.2869 23.8539 35.4295 23.8946 35.4906 23.9965C35.5721 24.078 35.5925 24.2003 35.5925 24.3633V26.4007H35.6129ZM16.5828 23.2427H15.8493C15.8289 23.2427 15.8086 23.263 15.8086 23.2834V27.5214C15.8086 27.5417 15.8289 27.5621 15.8493 27.5621H18.0294C18.0498 27.5621 18.0702 27.5417 18.0702 27.5214V26.9712C18.0702 26.9509 18.0498 26.9305 18.0294 26.9305H16.6236V23.2834C16.6236 23.2427 16.6032 23.2427 16.5828 23.2427ZM14.2397 27.5417H14.9732C14.9936 27.5417 15.0139 27.5214 15.0139 27.501V23.263C15.0139 23.2427 14.9936 23.2223 14.9732 23.2223H14.2397C14.2193 23.2223 14.199 23.2427 14.199 23.263V27.501C14.2193 27.5417 14.2193 27.5417 14.2397 27.5417ZM12.8746 25.3005V25.2801C13.0783 25.1986 13.221 25.0968 13.3025 24.9541C13.384 24.8115 13.4247 24.6281 13.4247 24.4448C13.4247 24.0576 13.3228 23.7724 13.1191 23.5687C12.9153 23.3649 12.5893 23.263 12.1207 23.263H11.0205C11.0001 23.263 10.9797 23.2834 10.9797 23.3038V27.5417C10.9797 27.5621 11.0001 27.5825 11.0205 27.5825H12.0596C12.5282 27.5825 12.895 27.4806 13.1191 27.2769C13.3432 27.0731 13.4655 26.7471 13.4655 26.2785C13.4655 26.0544 13.4247 25.8506 13.3432 25.6876C13.2617 25.5246 13.0987 25.3616 12.8746 25.3005ZM11.7947 23.8539H12.0596C12.2837 23.8539 12.4263 23.8946 12.5282 23.9761C12.6301 24.0576 12.6708 24.2003 12.6708 24.404C12.6708 24.5874 12.6301 24.73 12.5282 24.8115C12.4263 24.9134 12.2837 24.9541 12.08 24.9541H11.8151L11.7947 23.8539ZM12.6912 26.4619C12.6708 26.5434 12.6505 26.6249 12.6097 26.7064C12.569 26.7675 12.5078 26.8286 12.4263 26.8694C12.3448 26.9101 12.243 26.9305 12.1207 26.9305H11.7947V25.5858H12.1003C12.3245 25.5858 12.4875 25.6265 12.569 25.7284C12.6505 25.8303 12.7116 25.9729 12.7116 26.1766C12.7116 26.2785 12.6912 26.3804 12.6912 26.4619ZM28.3187 23.263L27.2999 27.501C27.2999 27.5214 27.3203 27.5417 27.3407 27.5417H28.0742C28.0946 27.5417 28.1149 27.5214 28.1149 27.5214L28.2983 26.6452H29.2559L29.4597 27.5214C29.4597 27.5417 29.48 27.5417 29.5004 27.5417H30.2339C30.2543 27.5417 30.2747 27.5214 30.2747 27.501L29.2355 23.263C29.2355 23.2427 29.2152 23.2427 29.1948 23.2427H28.3594C28.3187 23.2223 28.3187 23.2427 28.3187 23.263ZM28.4002 26.0136L28.7466 24.2206H28.7873L29.1337 26.0136H28.4002ZM19.2519 23.2427H18.5184C18.498 23.2427 18.4777 23.263 18.4777 23.2834V27.5214C18.4777 27.5417 18.498 27.5621 18.5184 27.5621H20.6985C20.7189 27.5621 20.7393 27.5417 20.7393 27.5214V26.9712C20.7393 26.9509 20.7189 26.9305 20.6985 26.9305H19.2927V23.2834C19.2927 23.2427 19.2927 23.2427 19.2519 23.2427ZM23.062 25.3005V25.2801C23.2657 25.1986 23.4084 25.0968 23.4899 24.9541C23.5714 24.8115 23.6121 24.6281 23.6121 24.4448C23.6121 24.0576 23.5102 23.7724 23.3065 23.5687C23.1027 23.3649 22.7767 23.263 22.3081 23.263H21.2079C21.1875 23.263 21.1671 23.2834 21.1671 23.3038V27.5417C21.1671 27.5621 21.1875 27.5825 21.2079 27.5825H22.247C22.7156 27.5825 23.0824 27.4806 23.3065 27.2769C23.5306 27.0731 23.6529 26.7471 23.6529 26.2785C23.6529 26.0544 23.6121 25.8506 23.5306 25.6876C23.4287 25.4839 23.2861 25.3616 23.062 25.3005ZM21.9821 23.8539H22.2266C22.4507 23.8539 22.5934 23.8946 22.6952 23.9761C22.7971 24.0576 22.8379 24.2003 22.8379 24.404C22.8379 24.5874 22.7971 24.73 22.6952 24.8115C22.5934 24.9134 22.4507 24.9541 22.247 24.9541H21.9821V23.8539ZM22.8582 26.4619C22.8379 26.5434 22.8175 26.6249 22.7767 26.7064C22.736 26.7675 22.6749 26.8286 22.5934 26.8694C22.5119 26.9101 22.41 26.9305 22.2877 26.9305H21.9617V25.5858H22.2674C22.4915 25.5858 22.6545 25.6265 22.736 25.7284C22.8175 25.8303 22.8786 25.9729 22.8786 26.1766C22.8786 26.2785 22.8786 26.3804 22.8582 26.4619ZM26.5665 23.5075C26.4646 23.4057 26.3423 23.3242 26.1793 23.2834C26.0163 23.2223 25.8126 23.2019 25.5885 23.2019C25.3643 23.2019 25.181 23.2223 25.018 23.2834C24.855 23.3445 24.7327 23.426 24.6308 23.5279C24.529 23.6298 24.4678 23.752 24.4067 23.8946C24.366 24.0373 24.3456 24.1799 24.3456 24.3633V26.523C24.3456 26.8694 24.4475 27.1342 24.6512 27.3176C24.855 27.501 25.1606 27.6029 25.6088 27.6029C26.0571 27.6029 26.3627 27.501 26.5665 27.3176C26.7702 27.1342 26.8721 26.849 26.8721 26.4619V24.3225C26.8721 24.1391 26.8517 23.9761 26.811 23.8539C26.7498 23.7113 26.6683 23.589 26.5665 23.5075ZM26.0367 26.4822C26.0367 26.6249 25.996 26.7267 25.9348 26.8286C25.8737 26.9305 25.7515 26.9712 25.5885 26.9712C25.4255 26.9712 25.3032 26.9305 25.2421 26.8286C25.181 26.7471 25.1402 26.6452 25.1402 26.523V24.3633C25.1402 24.3021 25.1402 24.241 25.1606 24.1799C25.181 24.1188 25.2013 24.0576 25.2217 24.0169C25.2625 23.9558 25.3032 23.915 25.3643 23.8946C25.4255 23.8539 25.507 23.8335 25.5885 23.8335C25.7515 23.8335 25.8737 23.8743 25.9348 23.9761C25.996 24.078 26.0367 24.1799 26.0367 24.3021V26.4822ZM33.1271 25.1783C33.2086 24.9949 33.2698 24.7504 33.2698 24.4855C33.2698 24.0373 33.1475 23.7316 32.903 23.5279C32.6585 23.3242 32.3325 23.2427 31.9046 23.2427H30.7637C30.7433 23.2427 30.7229 23.263 30.7229 23.2834V27.5214C30.7229 27.5417 30.7433 27.5621 30.7637 27.5621H31.4972C31.5175 27.5621 31.5379 27.5417 31.5379 27.5214V25.7691H31.925L32.577 27.5214C32.577 27.5417 32.5974 27.5417 32.6178 27.5417H33.3513C33.3716 27.5417 33.392 27.5214 33.392 27.4806L32.6381 25.6061C32.8623 25.5043 33.0253 25.3616 33.1271 25.1783ZM32.3325 24.9745C32.2306 25.0764 32.0676 25.1171 31.8639 25.1171H31.5379V23.8539H31.8435C32.0676 23.8539 32.2306 23.915 32.3325 24.0169C32.4344 24.1188 32.4751 24.2818 32.4751 24.4855C32.4751 24.7096 32.4344 24.8726 32.3325 24.9745Z" fill="white"/>
</svg>
