<svg width="30" height="30" viewBox="0 0 30 30" fill="none" xmlns="http://www.w3.org/2000/svg">
<path d="M29.5 15C29.5 23.0082 23.0082 29.5 15 29.5C6.99178 29.5 0.5 23.008 0.5 15C0.5 6.99178 6.99195 0.5 15 0.5C23.0082 0.5 29.5 6.99178 29.5 15Z" stroke="white"/>
<path d="M8.38203 7.93066V13.0329C9.15856 12.1071 10.0897 11.6406 11.1698 11.6406C11.7262 11.6406 12.2244 11.7465 12.6709 11.9577C13.119 12.1671 13.4543 12.4358 13.6803 12.7619C13.9079 13.0913 14.0615 13.4519 14.1445 13.8495C14.2275 14.2449 14.2686 14.8607 14.2686 15.6954V21.1513H11.8544V16.2378C11.8544 15.2624 11.8108 14.6449 11.7191 14.3824C11.6274 14.1182 11.4661 13.9107 11.2344 13.7578C11.002 13.6007 10.7127 13.5231 10.3632 13.5231C9.96376 13.5231 9.60425 13.6235 9.29265 13.8219C8.97427 14.022 8.74493 14.3208 8.60034 14.72C8.45272 15.1201 8.37918 15.7106 8.38221 16.4923L8.37936 21.1511H5.96875V7.93066H8.38221H8.38203Z" fill="#EBFFFF"/>
<path d="M17.8858 7.93066V13.0329C18.6628 12.1071 19.5934 11.6406 20.6733 11.6406C21.2276 11.6406 21.7287 11.7465 22.1769 11.9577C22.6228 12.1671 22.958 12.4358 23.1835 12.7619C23.4112 13.0913 23.5652 13.4519 23.6475 13.8495C23.7305 14.2449 23.7718 14.8607 23.7718 15.6954V21.1513H21.3605V16.2378C21.3605 15.2624 21.3151 14.6449 21.2228 14.3824C21.1311 14.1182 20.9705 13.9107 20.7376 13.7578C20.5077 13.6007 20.2159 13.5231 19.8663 13.5231C19.467 13.5231 19.1082 13.6235 18.7958 13.8219C18.481 14.022 18.2511 14.3208 18.1041 14.72C17.9593 15.1201 17.8858 15.7106 17.8858 16.4923V21.1511H15.4746V7.93066H17.8858Z" fill="white"/>
</svg>
