<svg width="48" height="49" viewBox="0 0 48 49" fill="none" xmlns="http://www.w3.org/2000/svg">
<path fill-rule="evenodd" clip-rule="evenodd" d="M24.113 48.2564C37.3056 48.2564 48 37.454 48 24.1282C48 10.8024 37.3056 0 24.113 0C10.9208 0 0.226074 10.8024 0.226074 24.1282C0.226074 37.4537 10.9205 48.2564 24.113 48.2564ZM13.574 12.7559V20.963C14.8106 19.4739 16.2933 18.7235 18.0134 18.7235C18.8995 18.7235 19.6929 18.8939 20.4038 19.2336C21.1175 19.5704 21.6515 20.0026 22.0113 20.5271C22.3737 21.057 22.6184 21.637 22.7505 22.2765C22.8827 22.9127 22.9482 23.9031 22.9482 25.2459V34.0219H19.1037V26.1183C19.1037 24.5493 19.0342 23.556 18.8882 23.1338C18.7421 22.7087 18.4852 22.3751 18.1163 22.129C17.7463 21.8764 17.2855 21.7515 16.7289 21.7515C16.0929 21.7515 15.5204 21.9131 15.0241 22.2321C14.5171 22.5541 14.1519 23.0347 13.9217 23.6769C13.6866 24.3204 13.5695 25.2702 13.5743 26.5276L13.5698 34.0216H9.73096V12.7559H13.574ZM28.7086 20.963V12.7559H24.8689V34.0216H28.7086V26.5276C28.7086 25.2702 28.8257 24.3204 29.0562 23.6769C29.2904 23.0347 29.6565 22.5541 30.1578 22.2321C30.6552 21.9131 31.2266 21.7515 31.8626 21.7515C32.4192 21.7515 32.8839 21.8764 33.25 22.129C33.6209 22.3751 33.8767 22.7087 34.0227 23.1338C34.1696 23.556 34.2419 24.5493 34.2419 26.1183V34.0219H38.0819V25.2459C38.0819 23.9031 38.0161 22.9127 37.8839 22.2765C37.7529 21.637 37.5076 21.057 37.145 20.5271C36.786 20.0026 36.2521 19.5704 35.542 19.2336C34.8283 18.8939 34.0304 18.7235 33.1477 18.7235C31.4279 18.7235 29.946 19.4739 28.7086 20.963Z" fill="white"/>
</svg>
