<svg width="49" height="49" viewBox="0 0 49 49" fill="none" xmlns="http://www.w3.org/2000/svg">
<path fill-rule="evenodd" clip-rule="evenodd" d="M48.3692 24.1291C48.3692 37.4546 37.5667 48.2571 24.2411 48.2571C10.9155 48.2571 0.113037 37.4546 0.113037 24.1291C0.113037 10.8035 10.9155 0.000976562 24.2411 0.000976562C37.5667 0.000976562 48.3692 10.8035 48.3692 24.1291ZM25.1054 17.8127C22.7586 18.7888 18.0683 20.8091 11.0345 23.8737C9.8923 24.3279 9.29397 24.7722 9.2395 25.2067C9.14745 25.941 10.067 26.2301 11.3192 26.6239C11.4895 26.6774 11.666 26.7329 11.8469 26.7917C13.0788 27.1922 14.736 27.6607 15.5975 27.6793C16.379 27.6962 17.2511 27.374 18.2141 26.7128C24.786 22.2765 28.1785 20.0343 28.3914 19.9859C28.5417 19.9518 28.7499 19.9089 28.891 20.0343C29.0321 20.1597 29.0182 20.3972 29.0033 20.4609C28.9122 20.8493 25.3027 24.205 23.4347 25.9416C22.8524 26.4829 22.4394 26.867 22.3549 26.9547C22.1658 27.1511 21.973 27.337 21.7877 27.5156C20.6432 28.6189 19.785 29.4463 21.8353 30.7974C22.8205 31.4466 23.6089 31.9836 24.3955 32.5192C25.2545 33.1042 26.1113 33.6877 27.2198 34.4143C27.5023 34.5995 27.772 34.7918 28.0347 34.979C29.0344 35.6917 29.9325 36.332 31.0421 36.2299C31.6868 36.1706 32.3528 35.5643 32.691 33.7562C33.4903 29.4831 35.0615 20.2246 35.4246 16.4093C35.4564 16.0751 35.4164 15.6473 35.3843 15.4595C35.3521 15.2717 35.285 15.0042 35.0409 14.8061C34.7518 14.5715 34.3055 14.522 34.1059 14.5256C33.1984 14.5415 31.8061 15.0257 25.1054 17.8127Z" fill="white"/>
</svg>
