<svg width="29" height="30" viewBox="0 0 29 30" fill="none" xmlns="http://www.w3.org/2000/svg">
<path fill-rule="evenodd" clip-rule="evenodd" d="M17.9801 22.069C18.1962 22.2273 18.4748 22.2669 18.7232 22.1697C18.9716 22.0718 19.1541 21.8523 19.2092 21.5864C19.7926 18.7503 21.2076 11.5718 21.7386 8.99193C21.7789 8.79749 21.7118 8.5954 21.5641 8.46554C21.4164 8.33568 21.2117 8.29818 21.0291 8.36832C18.2143 9.4461 9.54588 12.8107 6.00278 14.1669C5.7779 14.253 5.63155 14.4767 5.63894 14.7218C5.64699 14.9676 5.80676 15.1808 6.03702 15.2523C7.62598 15.744 9.71169 16.428 9.71169 16.428C9.71169 16.428 10.6864 19.4732 11.1946 21.0218C11.2584 21.2162 11.4054 21.369 11.5994 21.4218C11.7927 21.4739 11.9995 21.419 12.1438 21.278C12.9601 20.4808 14.2221 19.2482 14.2221 19.2482C14.2221 19.2482 16.62 21.0669 17.9801 22.069ZM10.5891 16.0433L11.7162 19.8892L11.9666 17.4537C11.9666 17.4537 16.3213 13.3905 18.8037 11.0746C18.8762 11.0065 18.8863 10.8926 18.8259 10.8128C18.7661 10.7329 18.656 10.7142 18.5735 10.7683C15.6963 12.669 10.5891 16.0433 10.5891 16.0433Z" fill="white"/>
<path d="M28.5 15C28.5 23.0242 22.2161 29.5 14.5 29.5C6.78386 29.5 0.5 23.0242 0.5 15C0.5 6.97576 6.78386 0.5 14.5 0.5C22.2161 0.5 28.5 6.97576 28.5 15Z" stroke="white"/>
</svg>
