<svg width="49" height="49" viewBox="0 0 49 49" fill="none" xmlns="http://www.w3.org/2000/svg">
<path fill-rule="evenodd" clip-rule="evenodd" d="M24.1281 48.2571C37.4536 48.2571 48.2562 37.4546 48.2562 24.1291C48.2562 10.8035 37.4536 0.000976562 24.1281 0.000976562C10.8025 0.000976562 0 10.8035 0 24.1291C0 37.4546 10.8025 48.2571 24.1281 48.2571ZM7.9022 14.4784C8.16361 27.025 14.4369 34.565 25.4353 34.565H26.0587V27.3869C30.1001 27.7891 33.1561 30.7448 34.3826 34.565H40.0931C38.5248 28.8547 34.4027 25.6979 31.8291 24.4915C34.4027 23.0036 38.0219 19.3845 38.8865 14.4784H33.6988C32.5728 18.4596 29.2355 22.0787 26.0587 22.4205V14.4784H20.8709V28.3923C17.6539 27.588 13.5924 23.6873 13.4115 14.4784H7.9022Z" fill="white"/>
</svg>
