<svg width="108" height="108" viewBox="0 0 108 108" fill="none" xmlns="http://www.w3.org/2000/svg">
<path d="M107.307 69.0198C107.401 68.6877 107.208 68.3421 106.876 68.2489L87.1695 62.7276C78.6034 60.3275 71.3417 54.6227 66.9818 46.8682C62.6219 39.1137 61.5209 29.9447 63.9211 21.3782L69.4421 1.67357C69.5349 1.34208 69.3415 0.998068 69.01 0.905191C68.6785 0.812313 68.3345 1.00574 68.2416 1.33723L62.7207 21.0419C61.5322 25.2835 59.52 29.2496 56.7989 32.7136C54.0777 36.1776 50.701 39.0718 46.8614 41.2307C43.0219 43.3897 38.7947 44.7713 34.4213 45.2966C30.0479 45.8219 25.6139 45.4806 21.3724 44.2922L1.67366 38.7728C1.34216 38.68 0.998126 38.8734 0.905242 39.2049C0.81236 39.5364 1.0058 39.8804 1.3373 39.9733L21.041 45.494C29.6062 47.8939 36.8673 53.5978 41.2274 61.3512C45.5875 69.1046 46.6894 78.2725 44.2907 86.8384L38.7698 106.543C38.6769 106.875 38.8703 107.219 39.2018 107.311C39.5333 107.404 39.8773 107.211 39.9702 106.879L45.4911 87.1748C47.8922 78.6104 53.5963 71.3502 61.349 66.9908C69.1018 62.6314 78.2684 61.5297 86.8331 63.928L106.539 69.4494C106.87 69.542 107.213 69.35 107.307 69.0198Z" fill="white"/>
</svg>
