<svg width="25" height="24" viewBox="0 0 25 24" fill="none" xmlns="http://www.w3.org/2000/svg">
<circle cx="12.5" cy="12" r="12" fill="#FF5129"/>
<path fill-rule="evenodd" clip-rule="evenodd" d="M15.7849 7.90977C15.9217 7.85218 16.0715 7.83231 16.2186 7.85225C16.3658 7.87218 16.5048 7.93118 16.6214 8.02312C16.738 8.11505 16.8278 8.23655 16.8815 8.37497C16.9352 8.51338 16.9508 8.66366 16.9267 8.81016L15.6708 16.4281C15.549 17.1629 14.7427 17.5843 14.0688 17.2182C13.5051 16.912 12.6679 16.4402 11.9148 15.948C11.5382 15.7015 10.3848 14.9124 10.5265 14.3509C10.6483 13.8709 12.5865 12.0667 13.6939 10.9941C14.1286 10.5727 13.9304 10.3296 13.4171 10.7173C12.1423 11.6797 10.0957 13.1432 9.41902 13.5552C8.82208 13.9185 8.51088 13.9805 8.13876 13.9185C7.45987 13.8055 6.83026 13.6305 6.31638 13.4173C5.62198 13.1294 5.65576 12.1747 6.31583 11.8967L15.7849 7.90977Z" fill="white"/>
</svg>
