<svg width="24" height="24" viewBox="0 0 24 24" fill="none" xmlns="http://www.w3.org/2000/svg">
<circle cx="12" cy="12" r="12" fill="#FF5129"/>
<g clip-path="url(#clip0_139_380)">
<path fill-rule="evenodd" clip-rule="evenodd" d="M17.153 9.85725C17.2311 9.60031 17.153 9.41113 16.7789 9.41113H15.5436C15.2292 9.41113 15.0843 9.57443 15.0057 9.75466C15.0057 9.75466 14.3774 11.2587 13.4876 12.2356C13.1996 12.5189 13.0687 12.6088 12.9116 12.6088C12.833 12.6088 12.7149 12.5189 12.7149 12.2615V9.85725C12.7149 9.54854 12.6283 9.41113 12.3666 9.41113H10.424C10.2278 9.41113 10.1097 9.55419 10.1097 9.69019C10.1097 9.98243 10.5549 10.0502 10.6005 10.8728V12.6601C10.6005 13.0521 10.5285 13.1231 10.3713 13.1231C9.9525 13.1231 8.93368 11.6121 8.32897 9.88313C8.21179 9.54666 8.09321 9.41113 7.77744 9.41113H6.54121C6.18826 9.41113 6.11768 9.57443 6.11768 9.75466C6.11768 10.0756 6.5365 11.67 8.06826 13.7787C9.08944 15.2187 10.5271 15.9994 11.8367 15.9994C12.6221 15.9994 12.7191 15.8262 12.7191 15.5274V14.4389C12.7191 14.0921 12.7934 14.0229 13.0424 14.0229C13.2259 14.0229 13.5398 14.1133 14.273 14.8074C15.1106 15.6304 15.2485 15.9994 15.72 15.9994H16.9553C17.3083 15.9994 17.4852 15.8262 17.3836 15.4836C17.2716 15.1429 16.8716 14.6483 16.3412 14.0615C16.0532 13.7274 15.6212 13.3674 15.4899 13.1871C15.3069 12.9561 15.3591 12.853 15.4899 12.6474C15.4899 12.6474 16.9958 10.5645 17.1525 9.85725" fill="white"/>
</g>
<defs>
<clipPath id="clip0_139_380">
<rect width="11.2941" height="11.2941" fill="white" transform="translate(6.11768 7.05859)"/>
</clipPath>
</defs>
</svg>
