<svg width="638" height="100" viewBox="0 0 638 100" fill="none" xmlns="http://www.w3.org/2000/svg">
<g style="mix-blend-mode:overlay">
<path d="M94.8653 0.588246L47.4871 48.9506L77.8541 99H57.4688L28.6482 51.4812L20.3535 99H0.952353L18.2447 0.588246H37.6459L30.1947 42.7647L71.6682 0.588246H94.8653ZM80.8163 99.2812L83.9093 81.2859C89.6265 81.942 94.1722 80.6767 97.5463 77.49C101.014 74.3033 103.592 68.0706 105.279 58.7918L115.542 0.588246H182.462L165.169 99H145.909L159.968 19.1459H131.569L124.68 58.2294C123.368 65.54 121.54 71.8665 119.197 77.2088C116.948 82.5512 114.37 86.6751 111.465 89.5806C108.653 92.4861 105.513 94.8292 102.045 96.61C98.5773 98.2971 95.0626 99.1875 91.501 99.2812C88.0332 99.4686 84.4716 99.4686 80.8163 99.2812ZM183.415 99L200.707 0.588246H220.108L209.705 59.3541L262.285 0.588246H277.047L259.754 99H240.353L250.757 40.2341L198.177 99H183.415ZM352.241 19.1459H311.47L307.674 40.2341H345.071L341.696 58.37H304.581L300.645 80.4424H342.118L338.885 99H278.01L295.302 0.588246H355.474L352.241 19.1459ZM425.807 0.588246H445.067L427.775 99H408.514L415.684 58.2294H379.131L371.961 99H352.56L369.853 0.588246H389.254L382.365 39.6718H418.918L425.807 0.588246ZM528.442 0.588246L525.208 19.1459H498.637L484.578 99H465.177L479.236 19.1459H452.805L456.039 0.588246H528.442ZM521.98 99L539.272 0.588246H558.673L552.909 32.9235H569.921C578.824 32.9235 586.088 36.3914 591.712 43.3271C597.335 50.169 599.397 58.1826 597.898 67.3677C596.117 77.1151 591.712 84.8475 584.682 90.5647C577.653 96.1882 568.936 99 558.533 99H521.98ZM601.272 99L618.564 0.588246H637.825L620.532 99H601.272ZM544.474 80.8641H561.626C565.937 80.8641 569.639 79.4582 572.732 76.6465C575.825 73.8347 577.747 70.2731 578.496 65.9618C579.246 61.6504 578.496 58.0888 576.247 55.2771C574.091 52.4653 570.952 51.0594 566.828 51.0594H549.816L544.474 80.8641Z" fill="white"/>
</g>
</svg>
