<svg width="200" height="59" viewBox="0 0 200 59" fill="none" xmlns="http://www.w3.org/2000/svg">
<path d="M170.531 45.0426H177.448V32.4057H192.587V45.0426H199.504V14.5784H192.587V26.6409H177.448V14.5784H170.531V45.0426Z" fill="white"/>
<path d="M167.166 31.2032C167.166 20.1511 161.401 13.3274 152.318 13.3274C143.235 13.3274 136.411 20.9192 136.411 29.7118C136.411 38.9368 142.899 46.1446 153.086 46.1446C157.747 46.1446 162.073 44.6082 165.675 41.532L162.647 37.0648C160.052 38.9403 156.834 40.3798 153.325 40.3798C148.135 40.3798 144.436 37.4005 143.377 32.5457H167.163V31.1997L167.166 31.2032ZM143.332 27.1166C144.245 22.3587 147.896 19.1407 152.318 19.1407C156.74 19.1407 159.623 22.1684 160.391 27.1166H143.332Z" fill="white"/>
<path d="M120.503 46.1516C129.008 46.1516 134.296 42.1169 134.296 36.7327C134.296 33.4177 132.42 30.5353 127.808 29.6218L127.52 29.5734V29.2862L127.808 29.2377C132.181 28.3727 134.005 25.6806 134.005 22.5109C134.005 17.6112 129.441 13.4277 121.51 13.4277C116.129 13.4277 110.89 15.4451 106.565 18.6666L109.305 23.376C112.333 21.2618 116.61 19.196 121.029 19.196C125.064 19.196 127.275 20.9261 127.275 23.2307C127.275 25.3449 125.306 26.9297 121.077 27.075L113.773 27.4107V32.0232L121.077 32.3589C125.545 32.5976 127.275 34.1859 127.275 36.1548C127.275 38.4628 124.873 40.4802 120.018 40.4802C115.164 40.4802 111.177 38.5113 107.766 36.1548V42.5944C109.831 43.7951 114.347 46.1516 120.499 46.1516H120.503Z" fill="white"/>
<path d="M101.717 38.1705V14.5784H77.547L75.7684 30.2915C75.0002 36.731 73.0763 38.1705 69.6161 38.1705H69.3289V51.9631H76.2494V45.0426H98.8346V51.9631H105.755V38.1705H101.72H101.717ZM94.8449 39.2778H77.9795V38.9906C80.0453 38.2224 81.8239 36.9248 82.3533 31.8797L83.554 20.2982H94.8449V39.2778Z" fill="white"/>
<path fill-rule="evenodd" clip-rule="evenodd" d="M29.9901 58.8867H29.7583C18.2148 58.8867 11.4638 57.7241 6.76132 53.115C1.9204 48.1772 0.802734 41.4746 0.802734 29.9761V29.6509C0.802734 18.1524 1.9204 11.4014 6.76132 6.51203C11.5088 1.90295 18.2148 0.740295 29.7618 0.740295H29.9936C41.4921 0.740295 48.2431 1.90295 52.9871 6.51203C57.828 11.4498 58.9457 18.1524 58.9457 29.6509V29.9761C58.9457 41.4781 57.828 48.2256 52.9871 53.115C48.2396 57.7241 41.5371 58.8867 29.9901 58.8867ZM51.6272 28.9588C51.8487 28.9692 52.0286 29.1526 52.0286 29.374H52.0251V30.3014C52.0251 30.5263 51.8452 30.7097 51.6237 30.7166C43.6755 31.0177 38.8415 32.0281 35.4539 35.4157C32.0698 38.7998 31.0594 43.6269 30.7548 51.5613C30.7445 51.7828 30.5611 51.9627 30.3396 51.9627H29.4088C29.1839 51.9627 29.0005 51.7828 28.9936 51.5613C28.6891 43.6269 27.6787 38.7998 24.2945 35.4157C20.9104 32.0315 16.0729 31.0177 8.12467 30.7166C7.90321 30.7062 7.72328 30.5229 7.72328 30.3014V29.374C7.72328 29.1491 7.90321 28.9657 8.12467 28.9588C16.0729 28.6578 20.9069 27.6474 24.2945 24.2598C27.6856 20.8687 28.696 16.0243 28.997 8.06223C29.0074 7.84077 29.1908 7.66084 29.4123 7.66084H30.3396C30.5645 7.66084 30.7479 7.84077 30.7548 8.06223C31.0559 16.0278 32.0663 20.8687 35.4574 24.2598C38.8415 27.6439 43.679 28.6578 51.6272 28.9588Z" fill="white"/>
</svg>
