<svg width="121" height="76" viewBox="0 0 121 76" fill="none" xmlns="http://www.w3.org/2000/svg">
<g clip-path="url(#clip0_609_887)">
<path fill-rule="evenodd" clip-rule="evenodd" d="M107.846 0.284424H14.0307C6.80377 0.284424 0.890137 6.18534 0.890137 13.3968V49.3046C0.890137 56.516 6.80377 62.4169 14.0307 62.4169H17.0477V72.4641C17.0477 74.0659 18.3465 75.3618 19.9517 75.3618H101.922C103.527 75.3618 104.826 74.0659 104.826 72.4641V62.4169H107.843C115.07 62.4169 120.983 56.516 120.983 49.3046V13.3968C120.983 6.18534 115.07 0.284424 107.846 0.284424ZM14.0271 6.84048H107.846C111.458 6.84048 114.413 9.78912 114.413 13.393V49.3045C114.413 52.912 111.454 55.8607 107.843 55.8607H14.0271C10.4118 55.8607 7.45685 52.9084 7.45685 49.3045V13.3966C7.45685 9.78912 10.4155 6.84048 14.0271 6.84048ZM45.0256 60.3566C45.4926 60.5859 45.8136 60.9754 45.996 61.5251C46.1383 61.9219 46.2113 62.4679 46.2186 63.1632C46.2222 63.8549 46.2186 67.3241 46.2076 67.9903C46.193 68.6564 46.1091 69.1843 45.9559 69.5702C45.7078 70.2072 45.3175 70.6404 44.7812 70.877C44.2449 71.1136 43.6357 71.2301 42.9498 71.2301H39.8671C39.8161 71.2301 39.7723 71.1901 39.7723 71.1355V60.1054C39.7723 60.0544 39.8124 60.0107 39.8671 60.0107H43.1249C43.9275 60.0107 44.5587 60.1272 45.0256 60.3566ZM43.8363 69.2607C44.0297 69.035 44.1282 68.7074 44.1282 68.2742V62.9485C44.1282 62.5371 44.0333 62.2168 43.8473 61.9838C43.6576 61.7508 43.3 61.6343 42.7674 61.6343H41.8736V69.5993H42.7674C43.2855 69.5993 43.643 69.4864 43.8363 69.2607ZM97.0919 60.0107C98.3359 60.0107 99.2479 60.2765 99.8243 60.8152C100.401 61.354 100.689 62.2168 100.689 63.4144C100.689 63.9423 100.631 64.4191 100.514 64.8487C100.397 65.2783 100.196 65.6459 99.9119 65.9517C99.6273 66.2575 99.2552 66.4977 98.7955 66.6688C98.3359 66.8399 97.7558 66.9273 97.0554 66.9273H96.1981V71.1355C96.1981 71.1864 96.1579 71.2301 96.1032 71.2301H94.1952C94.1442 71.2301 94.1004 71.1901 94.1004 71.1355V60.1054C94.1004 60.0544 94.1405 60.0107 94.1952 60.0107H97.0919ZM96.9386 65.2673C97.5844 65.2673 98.0367 65.1144 98.2885 64.805C98.5402 64.4956 98.6678 64.0333 98.6678 63.4217C98.6678 62.872 98.5475 62.4352 98.3067 62.1185C98.0659 61.8018 97.6245 61.6416 96.9751 61.6416H96.1981V65.2673H96.9386ZM50.2753 71.2301H48.3673C48.3126 71.2301 48.2688 71.1864 48.2725 71.1355V60.1054C48.2725 60.0544 48.3126 60.0107 48.3673 60.0107H50.2753C50.3264 60.0107 50.3701 60.0508 50.3701 60.1054V71.1355C50.3701 71.1864 50.33 71.2301 50.2753 71.2301ZM38.2948 71.2301H32.4797C32.4286 71.2301 32.3848 71.1864 32.3848 71.1391V60.109C32.3848 60.0581 32.4249 60.0144 32.4797 60.0144H38.2985C38.3495 60.0144 38.3933 60.0544 38.3933 60.109V61.5469C38.3933 61.5979 38.3532 61.6416 38.2985 61.6416H34.4861V64.7031H37.7914C37.8424 64.7031 37.8862 64.7431 37.8862 64.7977V66.2684C37.8862 66.3194 37.8461 66.3631 37.7914 66.3631H34.4861V69.6029H38.2948C38.3459 69.6029 38.3897 69.643 38.3897 69.6976V71.1355C38.3897 71.1864 38.3495 71.2301 38.2948 71.2301ZM25.8547 65.635L26.9418 63.1378L28.3755 60.0653C28.3901 60.0326 28.4266 60.0107 28.4631 60.0107H30.3273C30.3783 60.0107 30.4221 60.0508 30.4221 60.1054V71.1355C30.4221 71.1864 30.382 71.2301 30.3273 71.2301H28.4193C28.3682 71.2301 28.3244 71.1901 28.3244 71.1355V64.765H28.2478L27.3942 66.7635L26.4712 68.722C26.4529 68.7547 26.4201 68.7766 26.3836 68.7766H25.2454C25.2089 68.7766 25.1724 68.7547 25.1579 68.722L24.2166 66.698L23.3849 64.7322H23.2864V71.1318C23.2864 71.1828 23.2462 71.2265 23.1915 71.2265H21.2835C21.2325 71.2265 21.1887 71.1864 21.1887 71.1318V60.1018C21.1887 60.0508 21.2288 60.0071 21.2835 60.0071H23.1696C23.2061 60.0071 23.2426 60.0289 23.2572 60.0617L24.6982 63.1996L25.7598 65.635H25.8547ZM65.0685 66.5888H63.9412C63.8865 66.5888 63.8427 66.5451 63.8464 66.5014V65.1763C63.8464 65.1254 63.8865 65.0817 63.9412 65.0817H67.075C67.126 65.0817 67.1698 65.1217 67.1698 65.1763V68.6601C67.1698 69.541 66.867 70.2072 66.2651 70.6586C65.6595 71.11 64.8715 71.3357 63.9011 71.3357C62.7848 71.3357 61.9639 71.0991 61.4313 70.6331C60.8987 70.1635 60.6324 69.4792 60.6324 68.5764V62.9812C60.6324 62.5589 60.6907 62.1658 60.8075 61.7945C60.9242 61.4232 61.1139 61.0992 61.3802 60.8189C61.6465 60.5386 61.9858 60.3165 62.4017 60.1564C62.8176 59.9962 63.3247 59.9161 63.9193 59.9161C65.0211 59.9161 65.8018 60.1818 66.349 60.6187C66.8488 61.0191 67.1042 61.911 67.126 62.5116C67.1297 62.5589 67.0932 62.599 67.0458 62.6063L65.1743 62.9121C65.1196 62.923 65.0685 62.8793 65.0648 62.821C65.0503 62.4643 64.9591 62.1658 64.7912 61.9328C64.6052 61.6744 64.3097 61.5469 63.9011 61.5469C63.6567 61.5469 63.4597 61.587 63.3064 61.6744C63.1532 61.7617 63.0365 61.8709 62.9526 62.0056C62.8723 62.1403 62.8139 62.2859 62.7811 62.4425C62.7483 62.599 62.7337 62.7482 62.7337 62.8866V68.5873C62.7337 68.7038 62.7519 68.8166 62.7921 68.9258C62.8322 69.1188 62.9234 69.2971 63.0693 69.4573C63.2152 69.6211 63.4743 69.7012 63.8427 69.7012C64.2148 69.7012 64.5103 69.6211 64.7329 69.461C64.9554 69.2971 65.0685 69.0787 65.0685 68.7984V66.5888ZM75.5678 63.2652C75.5678 63.975 75.4474 64.5757 75.2067 65.0635C74.9695 65.5549 74.5427 65.9371 73.9298 66.2174L75.8816 71.0991C75.9071 71.161 75.8633 71.2301 75.794 71.2301H73.8642C73.824 71.2301 73.7875 71.2047 73.773 71.1683L72.0474 66.5888H71.0551V71.1355C71.0551 71.1864 71.015 71.2301 70.9602 71.2301H69.0523C69.0012 71.2301 68.9574 71.1901 68.9574 71.1355V60.1054C68.9574 60.0544 68.9975 60.0107 69.0523 60.0107H72.0474C73.1491 60.0107 74.0101 60.2656 74.6339 60.7752C75.2577 61.2848 75.5678 62.1148 75.5678 63.2652ZM71.9161 64.9251C72.4596 64.9251 72.8609 64.7941 73.1199 64.532C73.379 64.2699 73.5066 63.8476 73.5103 63.2652C73.5103 62.7482 73.3826 62.3478 73.1309 62.0639C72.8755 61.7799 72.4596 61.638 71.8759 61.638H71.0587V64.9251H71.9161ZM89.781 69.3335C89.9634 69.0933 90.0546 68.8021 90.0546 68.4562V60.1199C90.0546 60.069 90.0947 60.0253 90.1495 60.0253H92.0574C92.1085 60.0253 92.1523 60.0653 92.1523 60.1199V68.3579C92.1523 69.3372 91.8933 70.0762 91.3679 70.5749C90.8426 71.0736 90.0145 71.3248 88.8762 71.3248C87.738 71.3248 86.9099 71.0845 86.3846 70.6076C85.8629 70.1308 85.6002 69.4391 85.6002 68.5363V60.1199C85.6002 60.069 85.6404 60.0253 85.6951 60.0253H87.6031C87.6541 60.0253 87.6979 60.0653 87.6979 60.1199V68.5691C87.6979 68.8603 87.7855 69.1224 87.9606 69.3517C88.1357 69.5811 88.4385 69.6976 88.8653 69.6976C89.2958 69.6976 89.5986 69.5738 89.781 69.3335ZM82.0396 60.1127C82.4592 60.2474 82.7948 60.4439 83.0465 60.7024C83.2982 60.9609 83.4807 61.2739 83.5937 61.6343C83.7032 61.9983 83.7579 62.4133 83.7579 62.8757V68.3579C83.7579 69.3372 83.4916 70.0762 82.9626 70.5749C82.43 71.0736 81.5982 71.3248 80.46 71.3248C79.3218 71.3248 78.4973 71.0845 77.9793 70.6076C77.4612 70.1308 77.2022 69.4391 77.2022 68.5363V62.8939C77.2022 62.4534 77.2606 62.0493 77.3846 61.6853C77.5086 61.3212 77.6983 61.0045 77.9574 60.7424C78.2164 60.4803 78.5557 60.2765 78.9752 60.1309C79.3947 59.9853 79.8982 59.9125 80.4782 59.9125C81.0984 59.9125 81.6201 59.978 82.0396 60.1127ZM81.3793 69.3335C81.5617 69.0933 81.6529 68.8021 81.6529 68.4562H81.6493V62.7482C81.6493 62.4388 81.5654 62.1585 81.4049 61.911C81.2443 61.6634 80.9342 61.5397 80.4819 61.5397C80.2375 61.5397 80.0368 61.587 79.8799 61.678C79.7231 61.769 79.6027 61.8819 79.5188 62.0165C79.4349 62.1512 79.3765 62.3005 79.3437 62.4679C79.3108 62.6354 79.2962 62.7883 79.2962 62.9266V68.5691C79.2962 68.8603 79.3838 69.1224 79.5589 69.3517C79.734 69.5811 80.0368 69.6976 80.4636 69.6976C80.8941 69.6976 81.1969 69.5738 81.3793 69.3335ZM51.6835 71.1136L54.3576 60.0835C54.3685 60.0399 54.405 60.0107 54.4561 60.0144H56.6376C56.6851 60.0144 56.7216 60.0435 56.7325 60.0872L59.4285 71.1173C59.4431 71.1792 59.3956 71.2374 59.3336 71.2374H57.3928C57.3454 71.2374 57.3089 71.2047 57.298 71.161L56.7909 68.8967H54.3028L53.814 71.1573C53.803 71.201 53.7629 71.2338 53.7191 71.2338H51.7783C51.7163 71.2338 51.6689 71.1755 51.6835 71.1136ZM55.4848 62.6063L54.6093 67.2659H56.4589L55.5833 62.6063H55.4848ZM62.817 13.7461H69.0991C69.5697 13.7461 69.9528 14.1246 69.9528 14.5979V48.1031C69.9528 48.5727 69.5697 48.955 69.0991 48.955H63.222C62.6857 48.955 62.4157 48.671 62.4157 48.1031V27.3826L51.4166 48.347C51.2196 48.7184 50.8292 48.955 50.4061 48.955H44.0765C43.5366 48.955 43.2703 48.671 43.2703 48.1031V14.5979C43.2703 14.03 43.5403 13.7461 44.0765 13.7461H49.9537C50.4243 13.7461 50.8074 14.1283 50.8074 14.5979V35.3221L61.8065 14.354C62.0035 13.9827 62.3938 13.7461 62.817 13.7461ZM100.677 13.7461H106.69C107.226 13.7461 107.496 14.03 107.496 14.5979V48.0995C107.496 48.6674 107.226 48.9513 106.69 48.9513H100.812C100.342 48.9513 99.9588 48.5691 99.9588 48.0995V28.6276L94.3005 40.4694C94.1108 40.8662 93.7095 41.1174 93.2717 41.1174H89.3245C88.8867 41.1174 88.4854 40.8662 88.2957 40.4694L82.6374 28.6276V48.1031C82.6374 48.5727 82.2544 48.955 81.7838 48.955H75.9066C75.3703 48.955 75.1004 48.671 75.1004 48.1031V14.5979C75.1004 14.03 75.3703 13.7461 75.9066 13.7461H81.9187C82.3602 13.7461 82.7578 13.9972 82.9475 14.3904L91.2981 31.7546L99.6487 14.3904C99.8384 13.9972 100.24 13.7461 100.677 13.7461ZM27.7438 13.7462H15.1833C14.647 13.7462 14.3771 14.0302 14.3771 14.5981V48.1033C14.3771 48.6712 14.6434 48.9552 15.1833 48.9552H21.1553C21.6916 48.9552 21.9615 48.6712 21.9615 48.1033V37.7212H27.7438C31.4722 37.7212 34.4236 36.6437 36.6051 34.4813C38.7867 32.3227 39.8739 29.3995 39.8739 25.7119C39.8739 22.057 38.7831 19.1484 36.6051 16.9897C34.4236 14.8238 31.4686 13.7462 27.7438 13.7462ZM26.7005 30.6736H21.9615V20.7429H26.7005C30.2683 20.7429 32.0559 22.3992 32.0559 25.7082C32.0559 29.0173 30.2683 30.6736 26.7005 30.6736Z" fill="white"/>
</g>
<defs>
<clipPath id="clip0_609_887">
<rect width="120.093" height="75.0582" fill="white" transform="translate(0.890137 0.284424)"/>
</clipPath>
</defs>
</svg>
