<svg width="188" height="56" viewBox="0 0 188 56" fill="none" xmlns="http://www.w3.org/2000/svg">
<path d="M93.5003 23.2966C92.2045 22.798 90.5095 22.6487 88.6651 22.6487H78.3957V19.4583H96.0428V13.9749H71.1675V37.7034H88.0171C90.3601 37.7034 92.1043 37.5041 93.4009 37.0051C96.1426 35.9584 97.987 33.4161 97.987 30.0762C97.987 26.6867 96.2422 24.3435 93.5003 23.2966ZM89.9111 31.5219C89.5126 31.6716 88.9642 31.7212 88.266 31.7212H78.3957V27.9325H88.266C89.0638 27.9325 89.7117 27.9827 90.2104 28.2318C90.8084 28.5309 91.1077 29.0793 91.1077 29.7769C91.1077 30.475 90.7588 31.2228 89.9111 31.5219Z" fill="white"/>
<path d="M118.256 13.9749H107.688L97.9673 37.7034H106.143L107.489 34.2636H118.456L119.852 37.7034H127.977L118.256 13.9749ZM109.283 29.0293L112.723 19.4583H113.271L116.711 29.0293H109.283Z" fill="white"/>
<path d="M137.277 28.8802V37.7036H130.049V13.9749H137.277V22.6489H148.892V13.9749H156.12V37.7036H148.892V28.8802H137.277Z" fill="white"/>
<path d="M167.563 28.7308V37.7036H160.335V13.9749H167.563V22.8982H169.557L178.281 13.9749H187.353L175.788 25.3406L187.802 37.7036H178.181L169.557 28.7308H167.563Z" fill="white"/>
<path fill-rule="evenodd" clip-rule="evenodd" d="M57.3291 0.13739H0L6.57065e-06 26.9929C6.57065e-06 34.3842 3.943 41.2145 10.3439 44.9104L28.6648 55.4896L46.9854 44.9104C53.3861 41.2145 57.3291 34.3842 57.3291 26.9929V0.13739ZM15.8149 22.8866V13.9755H41.5142V22.8866C40.2956 21.5105 38.0802 20.5794 35.547 20.5794H32.794V30.9437C32.794 33.6963 33.5411 36.3915 34.6497 37.7198H22.6752C23.7862 36.3929 24.5351 33.6943 24.5351 30.9383V20.5794H21.7823C19.249 20.5794 17.0335 21.5105 15.8149 22.8866Z" fill="white"/>
</svg>
