<svg width="210" height="41" viewBox="0 0 210 41" fill="none" xmlns="http://www.w3.org/2000/svg">
<path fill-rule="evenodd" clip-rule="evenodd" d="M95.3586 10.9382C94.9198 9.1829 94.2616 7.20821 90.0928 7.20821C85.924 7.20821 85.2657 8.74408 85.2657 10.0605C85.2657 14.6682 103.916 11.377 103.916 22.1281C103.916 30.6851 95.578 32.221 90.9704 32.221C84.1687 32.221 76.9282 30.0269 76.7087 22.1281H84.8269C84.8269 24.5416 86.3628 26.2969 91.1898 26.2969C95.1392 26.2969 96.2363 24.3222 96.2363 23.2252C96.2363 18.3981 77.8058 22.1281 77.8058 11.1576C77.8058 6.9888 80.4387 1.50354 89.8734 1.50354C95.578 1.50354 102.599 2.82 103.257 11.1576H95.3586V10.9382Z" fill="white"/>
<path fill-rule="evenodd" clip-rule="evenodd" d="M147.577 31.1272H139.678V13.5743C139.678 9.18613 137.703 7.86967 135.509 7.86967C131.56 7.86967 130.243 10.2832 130.243 13.7937V31.1272H122.564V13.5743C122.564 11.1608 122.564 7.65026 117.956 7.65026C114.226 7.65026 113.129 10.0638 113.129 13.3549V31.1272H105.23V2.165H112.69V6.33379H112.91C113.787 4.57851 115.982 1.28735 121.247 1.28735C125.636 1.28735 127.391 2.82323 129.585 5.89497C130.682 4.57851 132.657 1.28735 137.484 1.28735C143.188 1.28735 147.796 4.57851 147.796 10.9414V31.1272H147.577Z" fill="white"/>
<path fill-rule="evenodd" clip-rule="evenodd" d="M178.074 22.7863C176.099 29.8075 170.175 32.0016 165.128 32.0016C156.791 32.0016 150.428 28.0522 150.428 16.204C150.428 12.6935 151.744 1.50354 164.69 1.50354C170.614 1.50354 178.732 4.13646 178.732 17.5205V18.837H158.327C158.546 21.0311 158.985 25.8581 165.348 25.8581C167.542 25.8581 169.736 24.761 170.394 22.7863H178.074ZM170.394 13.7905C169.956 9.1829 166.884 7.64703 164.47 7.64703C160.74 7.64703 158.766 9.84113 158.327 13.7905H170.394Z" fill="white"/>
<path fill-rule="evenodd" clip-rule="evenodd" d="M209.89 1.28599V27.8346C209.89 32.6617 209.451 40.7799 194.97 40.7799C188.827 40.7799 182.464 38.3663 182.025 32.4423H190.582C191.021 33.7587 191.46 35.2946 196.067 35.2946C200.236 35.2946 202.211 33.3199 202.211 28.9317V25.6405H201.991C200.675 27.8346 198.7 29.8093 194.092 29.8093C186.852 29.8093 181.367 25.2017 181.367 15.3283C181.367 5.6742 187.071 0.847168 193.654 0.847168C199.139 0.847168 201.333 3.91891 202.43 5.6742H202.649V1.28599H209.89ZM195.409 23.0076C200.675 23.0076 201.991 18.8388 201.991 14.8894C201.991 10.2818 199.578 6.77125 195.409 6.77125C192.557 6.77125 189.265 8.74594 189.265 15.3283C189.265 18.8388 190.801 23.0076 195.409 23.0076Z" fill="white"/>
<path fill-rule="evenodd" clip-rule="evenodd" d="M19.6618 31.1193C19.6618 36.3852 15.4931 40.554 10.2272 40.554C4.96135 40.554 0.792555 36.3852 0.792555 31.1193C0.573145 25.8535 4.96135 21.4653 10.2272 21.4653C15.2736 21.4653 19.6618 25.8535 19.6618 31.1193Z" fill="white"/>
<path fill-rule="evenodd" clip-rule="evenodd" d="M38.5307 31.1193C38.5307 36.3852 34.3619 40.554 29.096 40.554C23.8302 40.554 19.6614 36.3852 19.6614 31.1193C19.6614 25.8535 23.8302 21.4653 29.096 21.4653C34.3619 21.4653 38.5307 25.8535 38.5307 31.1193Z" fill="white"/>
<path fill-rule="evenodd" clip-rule="evenodd" d="M57.6159 31.124C57.6159 36.3898 53.4471 40.5586 48.1812 40.5586C42.9154 40.5586 38.7466 36.3898 38.7466 31.124C38.7466 25.8581 42.9154 21.6893 48.1812 21.6893C53.4471 21.4699 57.6159 25.8581 57.6159 31.124Z" fill="white"/>
<path fill-rule="evenodd" clip-rule="evenodd" d="M38.5307 12.0424C38.5307 17.3083 34.3619 21.4771 29.096 21.4771C23.8302 21.4771 19.6614 17.3083 19.6614 12.0424C19.6614 6.77658 23.8302 2.60779 29.096 2.60779C34.3619 2.60779 38.5307 6.77658 38.5307 12.0424Z" fill="white"/>
<path fill-rule="evenodd" clip-rule="evenodd" d="M57.6159 12.0424C57.6159 17.3083 53.4471 21.4771 48.1812 21.4771C42.9154 21.4771 38.7466 17.3083 38.7466 12.0424C38.7466 6.77658 42.9154 2.60779 48.1812 2.60779C53.4471 2.60779 57.6159 6.77658 57.6159 12.0424Z" fill="white"/>
<path fill-rule="evenodd" clip-rule="evenodd" d="M76.7089 12.0424C76.7089 17.3083 72.5401 21.4771 67.2742 21.4771C62.0084 21.4771 57.8396 17.3083 57.8396 12.0424C57.8396 6.77658 62.0084 2.60779 67.2742 2.60779C72.3207 2.60779 76.7089 6.77658 76.7089 12.0424Z" fill="white"/>
</svg>
