<svg width="952" height="400" viewBox="0 0 952 400" fill="none" xmlns="http://www.w3.org/2000/svg">
<path fill-rule="evenodd" clip-rule="evenodd" d="M680.085 54.4303L680.089 54.4252C708.496 18.1324 747.131 0 795.506 0C843.879 0 882.336 18.1313 910.37 54.4395C938.3 90.2351 952 138.928 952 200C952 260.714 938.102 309.398 909.806 345.559C881.78 381.858 843.516 400 795.506 400C763.809 400 735.963 391.845 712.154 375.405C688.373 358.984 670.164 335.589 657.449 305.449C644.735 275.312 638.448 240.126 638.448 200C638.448 138.923 652.15 90.2268 680.085 54.4303ZM906.238 342.776C933.733 307.649 947.48 260.057 947.48 200C947.48 139.566 933.921 91.9736 906.803 57.2238C879.685 22.0963 842.586 4.53258 795.506 4.53258C748.426 4.53258 711.139 22.0963 683.645 57.2238C656.527 91.9736 642.967 139.566 642.967 200C642.967 239.66 649.182 274.221 661.611 303.683C674.04 333.144 691.742 355.807 714.717 371.671C737.692 387.535 764.622 395.467 795.506 395.467C842.21 395.467 879.12 377.904 906.238 342.776ZM843.591 113.354L843.576 113.328C832.273 93.845 816.38 84.4193 795.506 84.4193C774.219 84.4193 757.943 93.8833 746.28 113.374C734.832 132.756 728.841 161.452 728.841 200C728.841 238.521 734.823 267.418 746.282 287.196C757.925 306.279 774.192 315.581 795.506 315.581C816.823 315.581 832.883 306.281 844.15 287.224C855.622 267.44 861.607 238.718 861.607 200.567C861.607 162.034 855.432 133.145 843.607 113.38L843.591 113.354ZM848.048 289.518C835.995 309.915 818.481 320.113 795.506 320.113C772.531 320.113 754.829 309.915 742.4 289.518C730.348 268.744 724.322 238.905 724.322 200C724.322 161.095 730.348 131.445 742.4 111.048C754.829 90.2738 772.531 79.8867 795.506 79.8867C818.105 79.8867 835.43 90.2738 847.483 111.048C859.912 131.822 866.126 161.662 866.126 200.567C866.126 239.094 860.1 268.744 848.048 289.518Z" fill="#C20A26"/>
<path fill-rule="evenodd" clip-rule="evenodd" d="M344.619 54.4303L344.623 54.4252C373.029 18.1324 411.664 0 460.04 0C508.412 0 546.869 18.1313 574.903 54.4395C602.833 90.2351 616.534 138.928 616.534 200C616.534 260.714 602.636 309.398 574.34 345.559C546.314 381.858 508.05 400 460.04 400C428.342 400 400.497 391.845 376.688 375.405C352.906 358.984 334.697 335.589 321.982 305.449C309.268 275.312 302.981 240.126 302.981 200C302.981 138.923 316.684 90.2268 344.619 54.4303ZM570.772 342.776C598.267 307.649 612.014 260.057 612.014 200C612.014 139.566 598.455 91.9736 571.337 57.2238C544.219 22.0963 507.12 4.53258 460.04 4.53258C412.96 4.53258 375.673 22.0963 348.178 57.2238C321.06 91.9736 307.501 139.566 307.501 200C307.501 239.66 313.715 274.221 326.145 303.683C338.574 333.144 356.276 355.807 379.251 371.671C402.226 387.535 429.155 395.467 460.04 395.467C506.743 395.467 543.654 377.904 570.772 342.776ZM508.125 113.354L508.11 113.328C496.806 93.845 480.913 84.4193 460.04 84.4193C438.753 84.4193 422.479 93.882 410.816 113.37C399.366 132.752 393.375 161.449 393.375 200C393.375 238.521 399.357 267.419 410.816 287.197C422.46 306.279 438.726 315.581 460.04 315.581C481.358 315.581 497.418 306.28 508.685 287.22C520.156 267.437 526.14 238.716 526.14 200.567C526.14 162.034 519.965 133.145 508.141 113.38L508.125 113.354ZM512.581 289.518C500.529 309.915 483.015 320.113 460.04 320.113C437.065 320.113 419.363 309.915 406.934 289.518C394.881 268.744 388.855 238.905 388.855 200C388.855 161.095 394.881 131.445 406.934 111.048C419.363 90.2738 437.065 79.8867 460.04 79.8867C482.638 79.8867 499.964 90.2738 512.016 111.048C524.445 131.822 530.66 161.662 530.66 200.567C530.66 239.094 524.634 268.744 512.581 289.518Z" fill="#C20A26"/>
<path fill-rule="evenodd" clip-rule="evenodd" d="M253.667 172.238C230.692 149.575 201.125 138.243 164.968 138.243C155.413 138.243 145.857 139.508 136.302 142.038C134.182 142.599 132.061 143.223 129.941 143.909C131.007 142.11 132.142 140.19 133.346 138.147C141.494 124.319 152.789 104.898 167.228 79.8864C182.369 53.6581 194.681 32.3172 204.163 15.8637C205.059 14.3093 205.93 12.7984 206.775 11.3312H118.076L43.5018 140.51C17.5137 185.08 4.51967 224.929 4.51967 260.056C4.51967 299.716 17.702 332.2 44.0668 357.507C70.8082 382.814 105.271 395.467 147.454 395.467C188.508 395.467 222.217 382.814 248.582 357.507C275.323 332.2 288.694 299.716 288.694 260.056C288.694 224.173 277.018 194.901 253.667 172.238ZM256.823 168.993C232.898 145.401 202.147 133.711 164.968 133.711C156.468 133.711 147.981 134.672 139.513 136.585C147.453 123.068 157.997 104.923 171.139 82.1574C187.712 53.4506 200.895 30.5975 210.688 13.5987L214.606 6.79858H115.471L39.6003 138.222C39.5988 138.224 39.5974 138.227 39.5959 138.229C13.3835 183.186 0 223.835 0 260.056C0 300.838 13.6066 334.543 40.9416 360.781L40.9532 360.792L40.9648 360.803C68.6692 387.022 104.3 400 147.454 400C189.509 400 224.384 387.002 251.696 360.792C279.408 334.561 293.214 300.853 293.214 260.056C293.214 223.089 281.139 192.599 256.823 168.993ZM190.391 303.682C179.092 315.014 164.591 320.68 146.889 320.68C129.187 320.68 114.498 315.014 102.823 303.682C91.5234 292.351 85.8738 277.809 85.8738 260.056C85.8738 241.926 91.5234 227.195 102.823 215.864C114.498 204.532 129.187 198.867 146.889 198.867C164.591 198.867 179.092 204.532 190.391 215.864C201.69 227.195 207.34 241.926 207.34 260.056C207.34 277.809 201.69 292.351 190.391 303.682ZM105.992 219.095C116.742 208.676 130.259 203.399 146.889 203.399C163.534 203.399 176.839 208.683 187.195 219.069C197.533 229.436 202.82 242.956 202.82 260.056C202.82 276.749 197.552 290.091 187.195 300.477C176.839 310.863 163.534 316.147 146.889 316.147C130.259 316.147 116.741 310.87 105.992 300.451C95.6531 290.069 90.3934 276.735 90.3934 260.056C90.3934 242.971 95.672 229.459 105.992 219.095Z" fill="#C20A26"/>
</svg>
