<svg xmlns="http://www.w3.org/2000/svg" width="220" height="90" viewBox="0 0 220 90" fill="none">
    <path d="M64.4506 43.754L66.8628 48.9923H67.6022L70.0019 43.754L70.7152 48.9792H73.2315L71.8823 39.9026H69.3791L67.2262 44.8429L65.0859 39.9026H62.5958L61.221 48.9792H63.7504L64.4506 43.754Z" fill="#C8C8C8"/>
    <path d="M77.6537 49.2129C78.5359 49.2129 79.3077 48.9791 79.9686 48.5123C80.6301 48.0454 81.0821 47.4103 81.324 46.6062H78.9243C78.8464 46.7446 78.7447 46.8636 78.6194 46.9627C78.4941 47.0625 78.3488 47.1379 78.1849 47.1896C78.0203 47.2414 77.8432 47.2675 77.653 47.2675C77.2727 47.2675 76.9591 47.1641 76.7129 46.9565C76.4666 46.7489 76.3045 46.4466 76.2266 46.049H81.4275C81.4618 45.8246 81.4793 45.6126 81.4793 45.4138C81.4793 44.7313 81.319 44.1105 80.9998 43.5532C80.68 42.9954 80.228 42.5547 79.6444 42.2306C79.0608 41.9064 78.3975 41.7444 77.6537 41.7444C76.9361 41.7444 76.2877 41.9046 75.7085 42.2243C75.1293 42.5441 74.6754 42.9891 74.3468 43.5601C74.0182 44.1304 73.8536 44.7706 73.8536 45.4786C73.8536 46.542 74.2146 47.4302 74.9366 48.1433C75.6586 48.8563 76.5645 49.2129 77.6537 49.2129ZM76.7783 43.916C77.0165 43.7302 77.3083 43.6374 77.6537 43.6374C78.4062 43.6374 78.89 43.9964 79.1063 44.7138H76.2658C76.37 44.3673 76.5408 44.1017 76.7783 43.916Z" fill="#C8C8C8"/>
    <path d="M85.8511 49.2129C86.6554 49.2129 87.3599 48.9623 87.9653 48.4605L88.186 48.9791H89.976V39.4487H87.5899V42.2368C87.0712 41.9083 86.4914 41.7438 85.8517 41.7438C84.7794 41.7438 83.8978 42.0941 83.2057 42.794C82.5143 43.4946 82.1683 44.3891 82.1683 45.478C82.1683 46.5675 82.5143 47.462 83.2057 48.162C83.8965 48.8626 84.7787 49.2129 85.8511 49.2129ZM85.0531 44.3305C85.3511 44.0238 85.7252 43.8705 86.1747 43.8705C86.3904 43.8705 86.5961 43.9116 86.7907 43.9939C86.9852 44.0762 87.1516 44.1884 87.2901 44.3311C87.4278 44.4739 87.5382 44.6446 87.6205 44.8435C87.7022 45.0423 87.7439 45.2542 87.7439 45.4786C87.7439 45.9374 87.5943 46.3195 87.2963 46.6261C86.9983 46.9328 86.6242 47.0861 86.1747 47.0861C85.7252 47.0861 85.3511 46.9328 85.0531 46.6261C84.755 46.3195 84.6054 45.9368 84.6054 45.4786C84.606 45.0199 84.755 44.6378 85.0531 44.3305Z" fill="#C8C8C8"/>
    <path d="M93.9051 41.9775H91.4929V48.9792H93.9051V41.9775Z" fill="#C8C8C8"/>
    <path d="M93.8788 39.0598H91.5053V41.0955H93.8788V39.0598Z" fill="#C8C8C8"/>
    <path d="M96.7904 48.7332C97.3478 49.0529 97.9813 49.2131 98.6908 49.2131C99.495 49.2131 100.2 48.9669 100.805 48.4739L101.013 48.9669H102.867V41.9646H101.077L100.831 42.5094C100.217 42.0083 99.5038 41.7571 98.6908 41.7571C97.6184 41.7571 96.7368 42.1049 96.0448 42.8011C95.3527 43.4967 95.0073 44.385 95.0073 45.4658C95.0073 46.1832 95.1651 46.8271 95.4805 47.398C95.7966 47.9684 96.2331 48.4134 96.7904 48.7332ZM97.8865 44.3376C98.1801 44.0353 98.5561 43.8838 99.015 43.8838C99.4645 43.8838 99.8361 44.0353 100.13 44.3376C100.424 44.6405 100.571 45.0207 100.571 45.4782C100.571 45.937 100.424 46.3172 100.13 46.6195C99.8361 46.9224 99.462 47.0733 99.0081 47.0733C98.5542 47.0733 98.1801 46.9218 97.8865 46.6195C97.5922 46.3172 97.4457 45.937 97.4457 45.4782C97.4457 45.0207 97.5928 44.6399 97.8865 44.3376Z" fill="#C8C8C8"/>
    <path d="M110.551 39.8955H108.022V48.9721H110.551V39.8955Z" fill="#C8C8C8"/>
    <path d="M119.021 48.9721V44.7062C119.021 43.8161 118.776 43.1031 118.288 42.567C117.799 42.031 117.149 41.7629 116.336 41.7629C115.42 41.7629 114.685 42.074 114.132 42.6967L113.794 41.9705H112.108V48.9721H114.521V45.2379C114.521 44.935 114.566 44.6782 114.657 44.4662C114.747 44.2543 114.882 44.0922 115.059 43.9801C115.236 43.8679 115.45 43.8111 115.701 43.8111C116.306 43.8111 116.609 44.2175 116.609 45.0303V48.9721H119.021Z" fill="#C8C8C8"/>
    <path d="M126.271 46.7809C126.271 46.5908 126.251 46.4113 126.213 46.243C126.173 46.0747 126.128 45.9301 126.077 45.8085C126.025 45.6876 125.945 45.5729 125.837 45.4651C125.728 45.3572 125.635 45.2687 125.558 45.1995C125.48 45.1304 125.363 45.0612 125.207 44.992C125.052 44.9228 124.933 44.8736 124.851 44.843C124.769 44.8125 124.637 44.7763 124.456 44.7327C124.274 44.6897 124.146 44.661 124.073 44.6485C123.999 44.6354 123.871 44.6118 123.69 44.5769C123.465 44.5426 123.303 44.512 123.204 44.4859C123.104 44.4597 122.987 44.426 122.853 44.3824C122.719 44.3394 122.624 44.2833 122.568 44.2135C122.512 44.1443 122.484 44.0626 122.484 43.9673C122.484 43.8114 122.542 43.6861 122.659 43.5914C122.775 43.496 122.933 43.4487 123.132 43.4487C123.356 43.4487 123.536 43.5048 123.67 43.617C123.804 43.7292 123.871 43.8981 123.871 44.1225H126.128C126.119 43.405 125.844 42.8279 125.304 42.3915C124.764 41.9552 124.048 41.7371 123.158 41.7371C122.258 41.7371 121.537 41.9465 120.992 42.366C120.447 42.7855 120.175 43.3452 120.175 44.0452C120.175 44.3737 120.231 44.6635 120.343 44.9141C120.455 45.1653 120.588 45.3635 120.738 45.5106C120.89 45.6577 121.091 45.7855 121.341 45.8933C121.592 46.0017 121.813 46.0772 122.003 46.1202C122.193 46.1638 122.424 46.2068 122.697 46.2498C122.969 46.2935 123.179 46.334 123.326 46.3732C123.473 46.4119 123.605 46.4748 123.721 46.5609C123.838 46.6475 123.896 46.7553 123.896 46.885C123.896 47.0583 123.829 47.1923 123.695 47.287C123.561 47.3824 123.399 47.4297 123.209 47.4297C122.966 47.4297 122.772 47.3649 122.624 47.2353C122.477 47.1056 122.404 46.9199 122.404 46.678H120.07C120.088 47.4472 120.371 48.0612 120.919 48.5193C121.469 48.9774 122.219 49.2062 123.169 49.2062C124.103 49.2062 124.853 48.9862 125.419 48.5448C125.987 48.1035 126.271 47.5158 126.271 46.7809Z" fill="#C8C8C8"/>
    <path d="M130.531 46.6449C130.388 46.5022 130.317 46.3058 130.317 46.0552V43.812H132.003V41.9707H130.253V39.9219H129.759L126.621 43.2672V43.812H127.905V46.4704C127.905 46.989 128.004 47.4365 128.203 47.8124C128.402 48.1882 128.687 48.4762 129.059 48.6744C129.431 48.8732 129.876 48.9723 130.395 48.9723H132.043V46.8587H131.122C130.87 46.8587 130.674 46.787 130.531 46.6449Z" fill="#C8C8C8"/>
    <path d="M135.673 41.97H133.261V48.9716H135.673V41.97Z" fill="#C8C8C8"/>
    <path d="M135.647 39.053H133.274V41.0887H135.647V39.053Z" fill="#C8C8C8"/>
    <path d="M141.691 45.0303V48.9721H144.104V44.7062C144.104 43.8161 143.86 43.1031 143.372 42.567C142.883 42.031 142.232 41.7629 141.419 41.7629C140.503 41.7629 139.768 42.074 139.215 42.6967L138.878 41.9705H137.192V48.9721H139.604V45.2379C139.604 44.935 139.649 44.6782 139.74 44.4662C139.83 44.2543 139.965 44.0922 140.142 43.9801C140.319 43.8679 140.533 43.8111 140.784 43.8111C141.389 43.8111 141.691 44.2175 141.691 45.0303Z" fill="#C8C8C8"/>
    <path d="M149.869 46.7615C149.622 46.9479 149.339 47.0408 149.019 47.0408C148.596 47.0408 148.247 46.8937 147.975 46.6001C147.702 46.3065 147.566 45.9306 147.566 45.4719C147.566 45.0138 147.702 44.6404 147.975 44.3506C148.247 44.0607 148.595 43.9161 149.019 43.9161C149.33 43.9161 149.609 44.0003 149.856 44.1692C150.102 44.3381 150.277 44.5644 150.381 44.8498H152.728C152.641 44.2365 152.429 43.6961 152.093 43.2292C151.755 42.7624 151.321 42.399 150.789 42.1397C150.257 41.8804 149.667 41.7507 149.018 41.7507C148.274 41.7507 147.609 41.9084 147.021 42.2238C146.433 42.5392 145.973 42.9805 145.64 43.5465C145.307 44.1125 145.14 44.7526 145.14 45.4657C145.14 46.1787 145.307 46.8207 145.64 47.3911C145.973 47.9614 146.433 48.4071 147.021 48.7262C147.609 49.0459 148.275 49.2061 149.018 49.2061C150.004 49.2061 150.838 48.9126 151.521 48.3242C152.204 47.7364 152.615 46.9672 152.753 46.016H150.38C150.286 46.3271 150.115 46.5758 149.869 46.7615Z" fill="#C8C8C8"/>
    <path d="M157.527 46.8586C157.276 46.8586 157.08 46.7869 156.937 46.6448C156.794 46.502 156.723 46.3057 156.723 46.0545V43.8243H158.422V41.97H156.658V39.9211H156.165L153.027 43.2664V43.8243H154.31V46.469C154.31 47.2469 154.531 47.8584 154.972 48.3034C155.413 48.7491 156.022 48.9716 156.8 48.9716H158.461V46.858H157.527V46.8586Z" fill="#C8C8C8"/>
    <path d="M167.996 45.6842H170.252C170.114 46.0389 169.857 46.3218 169.48 46.5331C169.104 46.7451 168.679 46.851 168.203 46.851C167.745 46.851 167.343 46.7494 166.997 46.5462C166.651 46.343 166.386 46.0582 166.199 45.6904C166.013 45.3227 165.92 44.9057 165.92 44.4388C165.92 43.7127 166.13 43.1249 166.55 42.6755C166.968 42.2261 167.52 42.0011 168.203 42.0011C168.661 42.0011 169.078 42.1157 169.455 42.3445C169.831 42.5739 170.101 42.8787 170.265 43.2589H172.885C172.695 42.2043 172.159 41.3403 171.277 40.6659C170.395 39.9915 169.362 39.6543 168.177 39.6543C166.776 39.6543 165.624 40.1062 164.721 41.0094C163.817 41.9125 163.365 43.0557 163.365 44.4388C163.365 45.8132 163.821 46.9501 164.734 47.8489C165.646 48.7478 166.803 49.1972 168.204 49.1972C169.138 49.1972 169.967 48.9809 170.694 48.5489C171.42 48.117 171.982 47.5136 172.38 46.7401C172.777 45.9666 172.976 45.0914 172.976 44.1141H167.996V45.6842Z" fill="#C8C8C8"/>
    <path d="M176.076 42.7411L175.7 41.9632H174.092V48.9648H176.504V45.3989C176.504 44.9582 176.599 44.6385 176.789 44.4396C176.98 44.2408 177.286 44.1417 177.71 44.1417H178.644V41.9246H178.008C177.187 41.9239 176.543 42.1963 176.076 42.7411Z" fill="#C8C8C8"/>
    <path d="M182.963 41.7295C181.821 41.7295 180.881 42.0798 180.142 42.7798C179.403 43.4797 179.033 44.3748 179.033 45.4637C179.033 46.5446 179.403 47.4371 180.142 48.1415C180.881 48.8464 181.822 49.198 182.963 49.198C184.096 49.198 185.034 48.8458 185.777 48.1415C186.521 47.4371 186.893 46.5446 186.893 45.4637C186.893 44.3835 186.523 43.491 185.784 42.7866C185.045 42.0823 184.105 41.7295 182.963 41.7295ZM184.046 46.5919C183.765 46.8861 183.404 47.0326 182.963 47.0326C182.522 47.0326 182.159 46.8855 181.873 46.5919C181.588 46.2984 181.445 45.9225 181.445 45.4637C181.445 45.1614 181.51 44.8915 181.64 44.6534C181.77 44.416 181.949 44.2302 182.179 44.0962C182.407 43.9622 182.669 43.8949 182.963 43.8949C183.404 43.8949 183.765 44.042 184.046 44.3355C184.327 44.6291 184.467 45.0056 184.467 45.4637C184.467 45.9225 184.327 46.2984 184.046 46.5919Z" fill="#C8C8C8"/>
    <path d="M192.405 45.8535C192.405 46.2168 192.313 46.5036 192.127 46.7155C191.941 46.9274 191.686 47.0334 191.362 47.0334C191.038 47.0334 190.784 46.9299 190.603 46.7223C190.422 46.5148 190.331 46.2256 190.331 45.8535V41.9634H187.918V45.9569C187.918 46.9343 188.234 47.7184 188.865 48.3105C189.496 48.9027 190.331 49.1988 191.369 49.1988C192.051 49.1988 192.654 49.0647 193.178 48.7967C193.701 48.5293 194.105 48.1503 194.391 47.6623C194.676 47.1742 194.818 46.6058 194.818 45.9569V41.9634H192.406V45.8535H192.405Z" fill="#C8C8C8"/>
    <path d="M200.33 41.7295C199.5 41.7295 198.782 41.9932 198.177 42.5205L197.878 41.9632H196.244V51.4936H198.618V48.7318C199.136 49.0428 199.707 49.1986 200.33 49.1986C201.401 49.1986 202.282 48.8489 202.969 48.1483C203.656 47.4484 204 46.5533 204 45.4644C204 44.3754 203.656 43.4804 202.969 42.7804C202.282 42.0798 201.402 41.7295 200.33 41.7295ZM201.127 46.6119C200.829 46.9185 200.455 47.0725 200.005 47.0725C199.712 47.0725 199.443 47.0033 199.201 46.8649C198.959 46.7266 198.771 46.534 198.637 46.2878C198.503 46.0415 198.436 45.7673 198.436 45.4644C198.436 45.0062 198.585 44.6241 198.884 44.3168C199.182 44.0102 199.556 43.8568 200.005 43.8568C200.455 43.8568 200.829 44.0108 201.127 44.3168C201.426 44.6241 201.575 45.0062 201.575 45.4644C201.575 45.9225 201.426 46.3052 201.127 46.6119Z" fill="#C8C8C8"/>
    <path d="M35.1489 29.583H33.7486V43.524L26.598 36.3758L23.8192 33.5971L22.8292 34.5869L25.6086 37.365L32.7591 44.5138H18.814V45.9137H33.7486V60.8445H35.1489V46.9029L42.2994 54.0516L44.7852 56.5374L45.7752 55.5476L43.2889 53.0625L36.1383 45.9137H50.0834V44.5138H35.1489V29.583Z" fill="#C8C8C8"/>
    <path d="M51.569 26.9999L36.6582 41.9619L37.6497 42.9496L52.5606 27.9876L51.569 26.9999Z" fill="#C8C8C8"/>
    <path d="M31.0913 47.5932L16.3615 62.4197L17.3545 63.4058L32.0844 48.5793L31.0913 47.5932Z" fill="#C8C8C8"/>
</svg>