<svg xmlns="http://www.w3.org/2000/svg" width="220" height="90" viewBox="0 0 220 90" fill="none">
    <path d="M132.877 34L129.41 37.6273V37.6295L128.771 38.2995H128.767L126.097 41.093V41.8017H129.41V47.4678C129.41 51.2547 131.837 53.6751 135.607 53.6751H137.92V49.8312H136.149C134.493 49.8312 133.579 48.92 133.579 47.2401V41.8017H137.891V38.2995H133.579V34H132.877Z" fill="#C8C8C8"/>
    <path d="M118.786 38.2708L119.529 40.1785C120.642 38.8118 122.042 38.2139 124.012 38.2139H125.012V42.0578H123.555C121.214 42.0578 120.3 43.0828 120.3 45.6169V53.6464H116.13V38.2708H118.786Z" fill="#C8C8C8"/>
    <path d="M61.7135 54.1022C65.6259 54.1022 68.1961 52.0522 68.1961 48.9201C68.1961 45.2311 65.0873 44.6691 62.596 44.2189L62.4559 44.1935C60.8567 43.9088 59.5432 43.6525 59.5432 42.6275C59.5432 41.7448 60.3141 41.1754 61.5993 41.1754C63.0556 41.1754 63.9124 41.7733 63.941 42.9976H67.9104C67.8819 39.9225 65.426 37.844 61.7135 37.844C58.0011 37.844 55.5165 39.8656 55.5165 42.7699C55.5165 46.386 58.6578 47.0408 61.1138 47.4679C62.7416 47.7242 64.0838 48.0374 64.0838 49.0909C64.0838 50.116 63.0271 50.657 61.8849 50.657C60.3999 50.657 59.3433 49.9736 59.3146 48.6069H55.2595C55.2595 51.8813 57.8582 54.1022 61.7135 54.1022Z" fill="#C8C8C8"/>
    <path d="M83.478 40.3781C84.5347 38.8975 86.2767 37.9294 88.2472 37.9294C91.4456 37.9294 93.673 40.4066 93.673 44.0227V53.6467H89.5036V44.7061C89.5036 42.656 88.704 41.574 87.1906 41.574C85.3343 41.574 84.2205 42.9407 84.2205 45.3325V53.6467H80.1653V44.7061C80.1653 42.656 79.3657 41.574 77.8808 41.574C75.9961 41.574 74.8823 42.9407 74.8823 45.3325V53.6467H70.7128V38.2711H73.6257L74.3968 40.1788C75.482 38.8121 77.1668 37.9294 78.9946 37.9294C80.965 37.9294 82.5642 38.8406 83.478 40.3781Z" fill="#C8C8C8"/>
    <path fill-rule="evenodd" clip-rule="evenodd" d="M109.1 39.7232L109.529 38.2711H112.641V53.6467H109.386L109.015 52.2515C107.701 53.4189 105.988 54.1022 104.017 54.1022C99.3907 54.1022 95.9353 50.6 95.9353 45.9589C95.9353 41.3177 99.3907 37.844 104.017 37.844C106.016 37.844 107.758 38.5558 109.1 39.7232ZM100.162 45.9589C100.162 48.3506 101.932 50.1728 104.36 50.1728C106.787 50.1728 108.558 48.3791 108.558 45.9589C108.558 43.5386 106.787 41.7448 104.36 41.7448C101.932 41.7448 100.162 43.5386 100.162 45.9589Z" fill="#C8C8C8"/>
    <path d="M159.295 38.271L156.268 47.4679L152.098 38.3849H150.927L146.929 47.4394L143.874 38.271H139.647L144.73 53.6466H148.1L151.527 45.7025L155.011 53.6466H158.381L163.407 38.271H159.295Z" fill="#C8C8C8"/>
    <path fill-rule="evenodd" clip-rule="evenodd" d="M177.938 38.2711L177.51 39.7232C176.168 38.5558 174.426 37.844 172.427 37.844C167.8 37.844 164.345 41.3177 164.345 45.9589C164.345 50.6 167.8 54.1022 172.427 54.1022C174.397 54.1022 176.11 53.4189 177.424 52.2515L177.795 53.6467H181.052V38.2711H177.938ZM172.769 50.1728C170.342 50.1728 168.571 48.3506 168.571 45.9589C168.571 43.5386 170.342 41.7448 172.769 41.7448C175.197 41.7448 176.967 43.5386 176.967 45.9589C176.967 48.3791 175.197 50.1728 172.769 50.1728Z" fill="#C8C8C8"/>
    <path d="M195.741 38.271L191.887 47.7526L187.773 38.271H183.234L189.772 52.4791L189.715 52.5931C188.774 54.9278 188.259 55.4688 186.232 55.4688H184.804V59.1989H186.518C189.973 59.1989 191.601 57.6327 193.457 53.4471L200.168 38.271H195.741Z" fill="#C8C8C8"/>
    <path d="M20 35.6438H20.8889L24.4079 38.1699V49.8616C24.4079 51.6636 25.8772 53.1243 27.6896 53.1243C29.5021 53.1243 30.9714 51.6636 30.9714 49.8616V43.4769C30.9714 39.2281 34.4358 35.7838 38.7093 35.7838C42.9828 35.7838 46.4472 39.2281 46.4472 43.4769V57.5559H45.5657L42.0394 55.0168V43.4769C42.0394 41.6484 40.5484 40.1662 38.7093 40.1662C36.8701 40.1662 35.3793 41.6484 35.3793 43.4769V49.8616C35.3793 54.0839 31.9365 57.5068 27.6896 57.5068C23.4428 57.5068 20 54.0839 20 49.8616V35.6438Z" fill="#C8C8C8"/>
</svg>