<svg xmlns="http://www.w3.org/2000/svg" width="220" height="90" viewBox="0 0 220 90" fill="none">
    <path fill-rule="evenodd" clip-rule="evenodd" d="M17.0405 36.0994H21.1563C21.6766 36.0994 22.1494 36.5248 22.1494 37.045V40.9692C22.1494 41.4895 21.6766 41.9623 21.1089 41.9623H17.0405C16.4728 42.0097 16 41.5369 16 41.0167V37.045C16 36.5248 16.4728 36.0994 17.0405 36.0994ZM17.0405 42.7657H21.1563C21.7233 42.7657 22.1968 43.1918 22.1968 43.7588V47.6837C22.1968 48.2039 21.7233 48.6767 21.1563 48.6767H17.0405C16.4728 48.6767 16 48.2039 16 47.6837V43.7588C16 43.1918 16.4728 42.7657 17.0405 42.7657ZM17.0405 49.4327H21.1563C21.7233 49.4327 22.1968 49.8581 22.1968 50.4258V54.3507C22.1968 54.8709 21.7233 55.3431 21.1563 55.3431H17.0405C16.4728 55.3431 16 54.9177 16 54.3507V50.4258C16 49.8588 16.4728 49.4327 17.0405 49.4327ZM23.9459 42.7657H28.0611C28.6281 42.7657 29.1016 43.1918 29.1016 43.7588V47.6837C29.1016 48.2039 28.6281 48.6767 28.0611 48.6767H23.9459C23.3782 48.6767 22.9054 48.2507 22.9054 47.6837V43.7588C22.9528 43.1918 23.3782 42.7657 23.9459 42.7657ZM23.9459 49.4327H28.0611C28.6281 49.4327 29.1016 49.8581 29.1016 50.4258V54.3507C29.1016 54.8709 28.6281 55.3431 28.0611 55.3431H23.9459C23.3782 55.3431 22.9054 54.9177 22.9054 54.3507V50.4258C22.9528 49.8588 23.3782 49.4327 23.9459 49.4327ZM30.8987 49.4327H35.0132C35.5809 49.4327 36.0537 49.8581 36.0537 50.4258V54.3507C36.0537 54.8709 35.5809 55.3431 35.0132 55.3431H30.8987C30.3311 55.3431 29.8582 54.9177 29.8582 54.3507V50.4258C29.8582 49.8588 30.3311 49.4327 30.8987 49.4327Z" fill="#C8C8C8"/>
    <path fill-rule="evenodd" clip-rule="evenodd" d="M184.048 34.0007H184.379C184.332 34.2364 184.284 34.4254 184.143 34.5202C184 34.6618 183.811 34.7092 183.575 34.7092C183.338 34.7092 183.149 34.6618 183.007 34.5202C182.866 34.378 182.771 34.2371 182.771 34H183.102C183.149 34.1416 183.196 34.2371 183.244 34.2832C183.338 34.3312 183.433 34.378 183.575 34.378C183.716 34.378 183.859 34.3312 183.906 34.2838C183.954 34.2364 184 34.1416 184.048 34.0007ZM182.014 34.9931H182.487V38.2548L184.663 34.9924H185.183V39.1063H184.71V35.8439L182.534 39.1069H182.014V34.9931ZM173.169 34.9931H173.642V38.2548L175.818 34.9924H176.338V39.1063H175.865V35.8439L173.69 39.1069H173.169V34.9931ZM164.372 39.1069V34.9931H164.892V36.6954H167.021V34.9931H167.541V39.1069H167.021V37.1682H164.892V39.1069H164.372ZM156.521 37.4046H157.893L157.467 36.2693C157.325 35.9387 157.23 35.6549 157.183 35.4185C157.136 35.7017 157.041 35.9387 156.946 36.2219L156.521 37.4046ZM155.338 39.1069L156.899 34.9931H157.467L159.122 39.1069H158.507L158.034 37.8775H156.332L155.906 39.1069H155.338ZM146.967 34.9931H150.183V39.1069H149.663V35.4652H147.535V39.1069H147.014V34.9931H146.967ZM137.46 39.1069V34.9931H138.264L139.21 37.9249C139.305 38.208 139.352 38.3977 139.399 38.5393C139.446 38.3977 139.541 38.1613 139.635 37.8775L140.629 34.9931H141.338V39.1069H140.866V35.6549L139.683 39.1069H139.21L138.028 35.6075V39.1069H137.46ZM128.71 37.1208C128.71 37.5936 128.852 38.019 129.088 38.3029C129.372 38.586 129.703 38.7283 130.081 38.7283C130.507 38.7283 130.839 38.5867 131.075 38.3029C131.359 38.0197 131.453 37.5936 131.453 37.0734C131.453 36.7421 131.406 36.459 131.264 36.1751C131.169 35.9381 130.98 35.7497 130.791 35.6075C130.577 35.4793 130.331 35.4138 130.081 35.4185C129.703 35.4185 129.372 35.5601 129.088 35.7965C128.852 36.0336 128.71 36.4596 128.71 37.1208ZM128.19 37.0734C128.19 36.4116 128.379 35.8439 128.757 35.4659C129.136 35.0872 129.609 34.8982 130.176 34.8982C130.555 34.8982 130.885 34.9931 131.169 35.1821C131.453 35.3711 131.69 35.6075 131.879 35.9387C132.021 36.2693 132.116 36.648 132.116 37.026C132.116 37.452 132.021 37.8294 131.879 38.1613C131.706 38.4664 131.463 38.7256 131.169 38.9173C130.885 39.1069 130.555 39.1544 130.176 39.1544C129.81 39.1555 129.451 39.0575 129.136 38.8705C128.852 38.6809 128.616 38.4445 128.473 38.1132C128.237 37.7826 128.19 37.452 128.19 37.0734ZM120.291 34.9924H120.811V36.7902C121.048 36.7902 121.237 36.7428 121.331 36.648C121.426 36.5531 121.569 36.3167 121.71 35.9387C121.805 35.6556 121.899 35.4659 121.994 35.3711C122.089 35.2769 122.183 35.1821 122.325 35.0879C122.467 34.9931 122.609 34.9931 122.751 34.9931H123.082V35.4659H122.893C122.703 35.4659 122.609 35.5133 122.514 35.6075C122.419 35.7023 122.325 35.8913 122.23 36.1277C122.089 36.459 121.994 36.6954 121.899 36.7896C121.805 36.8844 121.71 36.9318 121.569 37.0266C121.852 37.1208 122.089 37.3572 122.325 37.7826L123.176 39.1537H122.514L121.852 38.019C121.663 37.6885 121.521 37.4988 121.379 37.4046C121.237 37.3098 121.095 37.2156 120.906 37.2156V39.1537H120.386V34.9931H120.291V34.9924ZM104.588 37.4053H105.96L105.535 36.27C105.392 35.9394 105.298 35.6556 105.251 35.4191C105.203 35.7023 105.108 35.9394 105.014 36.2226L104.588 37.4053ZM103.406 39.1076L104.967 34.9937H105.535L107.19 39.1076H106.575L106.102 37.8781H104.447L104.021 39.1076H103.406ZM95.0341 34.9937H98.2504V39.1076H97.7302V35.4659H95.6018V39.1076H95.0816V34.9931L95.0341 34.9937ZM86.19 34.9937H89.4063V39.1076H88.8861V35.4659H86.7577V39.1076H86.2374V34.9931L86.19 34.9937ZM77.4401 34.9937H78.0077L79.3314 37.4995L80.5141 34.9937H81.0343L79.521 38.2087C79.332 38.5874 79.1898 38.8712 79.0482 39.0121C78.906 39.1544 78.7644 39.2018 78.528 39.2018C78.3857 39.2018 78.1967 39.1544 78.0077 39.1076V38.6348C78.1493 38.7289 78.2909 38.7764 78.4805 38.7764C78.5427 38.778 78.6045 38.7662 78.6616 38.7417C78.7188 38.7173 78.77 38.6808 78.8118 38.6348C78.906 38.5399 79.0008 38.3509 79.1424 38.0671L77.4401 34.9937ZM69.8722 36.9311H70.9127C71.2439 36.9311 71.5277 36.8837 71.67 36.7421C71.8116 36.5999 71.9064 36.4109 71.9064 36.1745C71.9064 35.9855 71.859 35.8432 71.7641 35.7491C71.6693 35.6068 71.5751 35.5594 71.4329 35.512C71.3387 35.4652 71.1965 35.4652 70.9127 35.4652H69.8722V36.9311ZM69.3045 39.1063V34.9931H70.8185C71.1017 34.9931 71.2913 34.9931 71.4329 35.0405C71.6226 35.0872 71.8116 35.1347 71.9531 35.2295C72.0954 35.3237 72.1902 35.4659 72.2844 35.6075C72.3792 35.7965 72.4266 35.9861 72.4266 36.1751C72.4266 36.5057 72.3318 36.837 72.0954 37.0734C71.8583 37.3105 71.4803 37.452 70.9127 37.452H69.8722V39.1069L69.3045 39.1063ZM61.5009 34.9924H64.1495V35.4652H62.0685V39.1063H61.5483V34.9931H61.5009V34.9924ZM189.959 35.3994H204.999V55.0698H199.702V47.4084H193.269L194.877 43.5316H199.749V39.8913H193.837C193.317 39.8913 193.033 40.6005 193.033 42.0664V55.0211H187.783V40.2225C187.783 38.8988 187.972 37.7161 188.398 36.7705C188.823 35.8722 189.344 35.3994 189.959 35.3994ZM175.391 55.0698V42.775H178.465L181.067 48.5438L183.621 42.775H186.648V55.0211H183.431V47.6455L181.067 52.9882L178.654 47.6449V55.0211H175.391V55.0685V55.0698ZM165.127 42.7756H174.492V55.0218H171.182V50.2935H167.162L168.155 47.8819H171.182V45.6126H167.54C167.209 45.6126 167.067 46.0854 167.067 46.9837V55.0692H163.803V45.8016C163.803 44.9508 163.945 44.2409 164.182 43.6745C164.466 43.1069 164.797 42.7756 165.127 42.7756ZM152.641 51.4756V47.6929C152.641 46.8895 152.688 46.1803 152.831 45.5659C152.972 44.9508 153.161 44.4305 153.398 44.0525C153.635 43.6265 153.871 43.3433 154.202 43.1069C154.485 42.9172 154.817 42.7756 155.148 42.7756H162.952V55.0218H159.688V45.6126H156.992C156.614 45.6126 156.331 45.7542 156.141 46.1329C155.952 46.5109 155.905 47.0311 155.905 47.7403V51.3814C155.905 52.4219 155.81 53.3201 155.573 53.9819C155.337 54.6912 155.006 55.0224 154.58 55.0224H151.979V52.327C152.263 52.327 152.452 52.2322 152.499 51.9958C152.594 51.8068 152.641 51.6178 152.641 51.4756ZM143.749 55.0692H140.486V42.7756H143.749V55.0692ZM147.864 42.7282V46.1803C147.864 46.5109 147.817 46.7473 147.77 46.9837C147.722 47.2208 147.627 47.3623 147.533 47.5039C147.438 47.6455 147.344 47.7403 147.249 47.7871C147.155 47.8352 147.107 47.8819 147.06 47.8819H144.885L143.891 50.2935H147.06C147.344 50.2935 147.533 50.4357 147.675 50.7189C147.817 51.0027 147.864 51.3814 147.864 51.8542V55.0218H151.128V52.8947C151.128 52.4212 151.08 51.9484 150.986 51.4756C150.891 51.0027 150.796 50.5773 150.655 50.1993C150.512 49.8207 150.371 49.4901 150.182 49.2062C149.992 48.9224 149.851 48.7334 149.662 48.6386C149.851 48.4496 150.04 48.2132 150.182 47.9293C150.371 47.6462 150.512 47.3623 150.655 46.9837C150.796 46.6531 150.891 46.227 150.986 45.849C151.08 45.4236 151.08 44.9982 151.08 44.478V42.6802H147.864V42.7276V42.7282ZM139.587 42.7756H131.641C131.263 42.7756 130.932 42.9172 130.6 43.2485C130.27 43.5797 129.986 44.0051 129.75 44.5254C129.513 45.0456 129.323 45.7074 129.182 46.4634C129.04 47.2208 128.992 48.0242 128.992 48.875C128.992 49.7265 129.04 50.5299 129.182 51.2866C129.323 52.0432 129.513 52.705 129.75 53.2253C129.986 53.7923 130.27 54.2184 130.6 54.5489C130.932 54.8802 131.263 55.0218 131.641 55.0218H138.547L139.587 52.327H133.959C133.77 52.327 133.58 52.2322 133.391 52.0432C133.202 51.8542 133.06 51.6178 132.918 51.334C132.776 51.0027 132.682 50.6721 132.587 50.2461C132.49 49.8115 132.443 49.3676 132.445 48.9224C132.445 47.9768 132.587 47.1727 132.871 46.5583C133.155 45.9439 133.533 45.6126 133.911 45.6126H138.499L139.587 42.7756ZM132.824 50.2935H137.128L138.026 47.8819H133.817L132.824 50.2935ZM120.952 45.6126H124.546C124.689 45.6126 124.83 45.7074 124.925 45.9439C125.019 46.1803 125.067 46.4167 125.067 46.6999C125.067 46.9837 125.019 47.2201 124.925 47.4572C124.83 47.6929 124.736 47.7878 124.546 47.7878H122.182L121.189 50.1993H126.107C126.77 50.1993 127.242 49.8681 127.621 49.1588C127.999 48.497 128.189 47.6455 128.189 46.6531C128.189 45.5652 128.047 44.6195 127.715 43.8629C127.385 43.1069 126.864 42.7282 126.107 42.7282H117.783V54.975H121V45.6126H120.952ZM106.621 51.4756V47.6929C106.621 46.8895 106.668 46.1803 106.81 45.5659C106.952 44.9508 107.141 44.4305 107.378 44.0525C107.614 43.6265 107.851 43.3433 108.182 43.1069C108.466 42.9172 108.797 42.7756 109.127 42.7756H116.932V55.0218H113.668V45.6126H110.972C110.594 45.6126 110.31 45.7542 110.121 46.1329C109.932 46.5109 109.884 47.0311 109.884 47.7403V51.3814C109.884 52.4219 109.79 53.3201 109.554 53.9819C109.317 54.6912 108.986 55.0224 108.56 55.0224H105.959V52.327C106.242 52.327 106.431 52.2322 106.479 51.9958C106.574 51.8068 106.621 51.6178 106.621 51.4756ZM94.6548 42.7756V55.0218H103.31C103.641 55.0218 103.878 54.8802 104.114 54.6438C104.35 54.4067 104.54 54.0761 104.682 53.6981C104.824 53.3195 104.918 52.8947 105.013 52.3745C105.06 51.8542 105.107 51.3814 105.107 50.8611C105.107 49.9155 104.918 49.1588 104.54 48.6386C104.161 48.1183 103.689 47.8352 103.121 47.8352H97.3035V45.5645H103.689L104.824 42.7276H94.6548V42.7756ZM101.56 52.3738H97.2561V50.2935H101.56C101.702 50.2935 101.844 50.3883 101.938 50.6247C102.033 50.8137 102.033 51.0501 102.033 51.334C102.033 51.5704 101.986 51.8068 101.891 52.0432C101.844 52.2322 101.702 52.3257 101.56 52.3738ZM87.3708 52.327H89.2153C89.6414 52.327 89.972 51.9958 90.2558 51.334C90.5396 50.6721 90.6819 49.8681 90.6819 48.875C90.6819 48.4022 90.6345 47.9293 90.5871 47.5513C90.4929 47.1727 90.3981 46.7947 90.2558 46.5109C90.1142 46.2277 89.972 45.9906 89.783 45.849C89.7105 45.7717 89.6224 45.7106 89.5246 45.6699C89.4267 45.6291 89.3213 45.6096 89.2153 45.6126H87.3708C87.1818 45.6126 86.9928 45.7074 86.8031 45.8958C86.6141 46.0854 86.4725 46.3219 86.3303 46.6057C86.1887 46.8889 86.0939 47.2675 85.999 47.6929C85.9029 48.1275 85.8555 48.5715 85.8575 49.0166C85.8575 50.0097 85.999 50.7663 86.2829 51.4288C86.6141 52.0432 86.9454 52.327 87.3708 52.327ZM91.2021 55.0692H85.3372C84.9586 55.0692 84.628 54.9276 84.2967 54.5964C83.9655 54.2651 83.6817 53.8397 83.4452 53.2727C83.2088 52.705 83.0198 52.0432 82.8776 51.2866C82.736 50.5299 82.6886 49.6317 82.6886 48.7334C82.6886 47.8819 82.7834 47.0785 82.925 46.3693C83.051 45.7216 83.2411 45.088 83.4927 44.478C83.7291 43.9577 84.0129 43.5323 84.3441 43.2485C84.6747 42.9653 85.006 42.8231 85.3846 42.8231H91.2021C91.5801 42.8231 91.9114 42.9646 92.1952 43.2485C92.5265 43.5316 92.7629 43.9577 92.9993 44.478C93.2357 44.9982 93.4247 45.6126 93.5669 46.3219C93.7085 47.0311 93.7559 47.8352 93.7559 48.686C93.7559 49.5368 93.7085 50.3409 93.5669 51.0976C93.4247 51.8542 93.2357 52.5635 92.9993 53.1305C92.7629 53.6981 92.479 54.1709 92.1478 54.5022C91.864 54.8802 91.5334 55.0692 91.2021 55.0692ZM81.7897 42.7756H74.175C73.7964 42.7756 73.4658 42.9172 73.1346 43.2485C72.766 43.6111 72.4761 44.0457 72.2831 44.5254C72.0467 45.0456 71.8577 45.7074 71.7154 46.4167C71.5738 47.1727 71.5264 47.9293 71.5264 48.7808C71.5264 49.6317 71.5738 50.4357 71.7154 51.1917C71.8577 51.949 72.0467 52.6102 72.2831 53.1779C72.5201 53.7455 72.8033 54.1709 73.1346 54.5015C73.4658 54.8328 73.7964 55.0218 74.175 55.0218H80.7492L81.8371 52.327H76.067C75.6416 52.327 75.3097 51.9958 75.0265 51.334C74.7427 50.6721 74.6005 49.8681 74.6005 48.9224C74.6005 47.9768 74.7427 47.1727 75.0265 46.5583C75.3097 45.9439 75.6416 45.6126 76.067 45.6126H80.7018L81.7897 42.7756ZM64.1956 52.327H66.0395C66.4656 52.327 66.7968 51.9958 67.08 51.334C67.3645 50.6721 67.506 49.8681 67.506 48.875C67.506 48.4022 67.4586 47.9293 67.4119 47.5513C67.317 47.1727 67.2222 46.7947 67.0806 46.5109C66.9384 46.2277 66.7968 45.9906 66.6078 45.849C66.5353 45.7717 66.4472 45.7107 66.3493 45.6699C66.2515 45.6292 66.1461 45.6096 66.0401 45.6126H64.1956C64.0059 45.6126 63.8169 45.7074 63.6279 45.8958C63.4383 46.0854 63.2967 46.3219 63.1551 46.6057C63.0129 46.8889 62.918 47.2675 62.8239 47.6929C62.7273 48.1275 62.6796 48.5714 62.6816 49.0166C62.6816 50.0097 62.8239 50.7663 63.1077 51.4288C63.4383 52.0432 63.7695 52.327 64.1956 52.327ZM68.0263 55.0692H62.1614C61.7834 55.0692 61.4521 54.9276 61.1209 54.5964C60.7896 54.2651 60.5065 53.8397 60.2694 53.2727C60.033 52.705 59.844 52.0432 59.7017 51.2866C59.5602 50.5299 59.5127 49.6317 59.5127 48.7334C59.5127 47.8819 59.6076 47.0785 59.7498 46.3693C59.8753 45.7215 60.0652 45.0879 60.3168 44.478C60.5539 43.9577 60.8371 43.5323 61.1683 43.2485C61.4995 42.9653 61.8301 42.8231 62.2088 42.8231H68.0737C68.4524 42.8231 68.7829 42.9646 69.0668 43.2485C69.398 43.5316 69.6344 43.9577 69.8709 44.478C70.1079 44.9982 70.2969 45.6126 70.4385 46.3219C70.5808 47.0311 70.6275 47.8352 70.6275 48.686C70.6275 49.5368 70.5801 50.3409 70.4385 51.0976C70.2969 51.8542 70.1073 52.5635 69.8709 53.1305C69.6344 53.6981 69.3506 54.1709 69.0194 54.5022C68.7362 54.8802 68.4049 55.0692 68.0263 55.0692ZM40.2624 55.0692V35.3994H45.2291L49.3911 44.667L53.5062 35.3994H58.3307V55.0698H53.2224V43.2004L49.3911 51.7587L45.5129 43.2004V55.0685H40.2631L40.2624 55.0692Z" fill="#C8C8C8"/>
</svg>