<svg xmlns="http://www.w3.org/2000/svg" width="220" height="90" viewBox="0 0 220 90" fill="none">
    <path d="M88.9 48.3601H88C86.7646 48.4566 85.5853 48.9158 84.61 49.6801C83.1389 50.7516 81.7758 51.964 80.54 53.3001C80 53.8901 79.38 54.4701 78.75 55.0001C77.8907 55.682 76.8445 56.0865 75.75 56.1601C74.3867 56.3769 72.9897 56.1674 71.75 55.5601C71.57 55.4601 71.4 55.3401 71.18 55.2001C71.2564 55.1367 71.3404 55.083 71.43 55.0401C72.9605 54.7368 74.3586 53.9644 75.43 52.8301C76.78 51.5601 78 50.2201 79.28 48.9301C80.0995 48.1013 81.0361 47.3971 82.06 46.8401C82.8478 46.3736 83.7359 46.1027 84.65 46.0501C85.3947 46.0143 86.135 46.1838 86.79 46.5401C87.6082 46.9992 88.3257 47.6182 88.9 48.3601Z" fill="#C8C8C8"/>
    <path d="M92.78 9.57007C93.59 11.7701 95.34 13.0801 97.23 14.2601C98.7711 15.1412 100.239 16.1444 101.62 17.2601C102.421 17.9495 103.098 18.7714 103.62 19.6901C104.028 20.3962 104.227 21.2043 104.191 22.0193C104.156 22.8342 103.888 23.6221 103.42 24.2901C103.167 24.6996 102.872 25.0817 102.54 25.4301C102.416 24.549 102.114 23.7022 101.653 22.9408C101.193 22.1795 100.583 21.5193 99.86 21.0001C98.65 20.0001 97.33 19.1001 96.04 18.1701C95.65 17.8801 95.24 17.6101 94.84 17.3401C94.0292 16.777 93.3623 16.031 92.8932 15.1623C92.4241 14.2937 92.1661 13.3269 92.14 12.3401C92.0743 11.6277 92.156 10.9095 92.38 10.2301C92.45 10.0101 92.55 9.81007 92.64 9.60007L92.78 9.57007Z" fill="#C8C8C8"/>
    <path d="M142 22.4901C140.458 23.3936 139.251 24.7725 138.56 26.4201C138.2 27.1801 137.9 27.9601 137.56 28.7301C137 29.8401 136.52 31.0001 136 32.0001C135.486 32.9537 134.809 33.81 134 34.5301C133.238 35.3166 132.212 35.7939 131.12 35.8701C129.907 35.8958 128.717 35.5466 127.71 34.8701C127.77 34.7901 127.79 34.7401 127.82 34.7301C129.385 34.238 130.703 33.1643 131.5 31.7301C132.51 30.0764 133.393 28.348 134.14 26.5601L134.44 25.9301C134.894 24.98 135.576 24.1573 136.426 23.536C137.276 22.9146 138.267 22.514 139.31 22.3701C140.198 22.134 141.137 22.1758 142 22.4901Z" fill="#C8C8C8"/>
    <path d="M126.31 80.3899C125.87 79.6899 125.47 78.9699 124.99 78.3099C124.18 77.3591 123.212 76.5541 122.13 75.9299C120.82 75.0699 119.49 74.2399 118.21 73.3399C117.153 72.5971 116.249 71.6564 115.55 70.5699C115.066 69.873 114.798 69.0494 114.779 68.2014C114.759 67.3534 114.989 66.5184 115.44 65.7999C115.709 65.2964 116.045 64.832 116.44 64.4199C116.521 65.2359 116.767 66.027 117.162 66.7454C117.557 67.4638 118.094 68.0947 118.74 68.5999C119.66 69.3999 120.63 70.1499 121.61 70.8899C122.43 71.4899 123.28 72.0399 124.13 72.5999C125.292 73.4612 126.139 74.6798 126.542 76.0689C126.945 77.4579 126.881 78.9407 126.36 80.2899C126.349 80.3257 126.332 80.3594 126.31 80.3899Z" fill="#C8C8C8"/>
    <path d="M147.62 34.8401C145.568 35.3376 143.739 36.5018 142.42 38.1501C141.107 39.7399 139.625 41.1818 138 42.4501C137.266 42.9978 136.444 43.4171 135.57 43.6901C134.775 43.9383 133.928 43.9613 133.121 43.7565C132.314 43.5517 131.58 43.1272 131 42.5301C130.7 42.2501 130.43 41.9301 130 41.5301C130.856 41.6176 131.721 41.5269 132.54 41.2636C133.359 41.0002 134.115 40.57 134.76 40.0001C135.564 39.3771 136.331 38.7094 137.06 38.0001C137.91 37.2101 138.74 36.3901 139.55 35.5501C140.359 34.712 141.407 34.1429 142.55 33.9201C144.09 33.5383 145.716 33.7008 147.15 34.3801C147.347 34.4849 147.537 34.6018 147.72 34.7301C147.69 34.7699 147.657 34.8067 147.62 34.8401Z" fill="#C8C8C8"/>
    <path d="M122.79 60.79C123.318 62.0974 124.338 63.1457 125.63 63.71C127.3 64.4949 129.05 65.0951 130.85 65.5L132.76 65.98C133.863 66.2632 134.87 66.8349 135.678 67.6363C136.487 68.4377 137.067 69.44 137.36 70.54C137.493 70.9794 137.577 71.4321 137.61 71.89C137.61 72.1368 137.577 72.3825 137.51 72.62C137.15 72.28 136.87 72 136.57 71.74C135.484 70.8875 134.219 70.2925 132.87 70C131.26 69.6 129.64 69.28 128.04 68.86C126.466 68.4946 124.996 67.7766 123.74 66.76C123.288 66.3959 122.918 65.9405 122.654 65.4235C122.391 64.9065 122.239 64.3396 122.21 63.76C122.19 62.74 122.387 61.7274 122.79 60.79Z" fill="#C8C8C8"/>
    <path d="M77.1 67.4699C77.1995 67.3717 77.3065 67.2815 77.42 67.1999C78.7521 66.3428 79.797 65.1063 80.42 63.6499C81.12 62.1399 81.73 60.6499 82.42 59.0899C83.055 57.6132 83.9996 56.2901 85.19 55.2099C85.7926 54.6632 86.5351 54.2944 87.3348 54.1443C88.1345 53.9943 88.9601 54.0689 89.72 54.3599C90.2784 54.5604 90.8173 54.8114 91.33 55.1099C90.6626 55.3128 90.0315 55.62 89.46 56.0199C88.3491 56.9069 87.4506 58.031 86.83 59.3099C86.02 60.8699 85.26 62.4699 84.51 64.0799C84.0638 64.9978 83.4026 65.7944 82.5826 66.402C81.7626 67.0096 80.808 67.4102 79.8 67.5699C79.0118 67.7648 78.1881 67.7648 77.4 67.5699L77.1 67.4699Z" fill="#C8C8C8"/>
    <path d="M109.21 65.6201C109.21 65.7501 109.28 65.7901 109.27 65.8201C109.085 66.5694 109.054 67.3486 109.18 68.1102C109.305 68.8717 109.584 69.5998 110 70.2501C110.7 71.5401 111.55 72.7501 112.35 73.9901C112.78 74.6401 113.25 75.2701 113.71 75.9001C114.252 76.6673 114.612 77.5473 114.765 78.474C114.917 79.4007 114.857 80.3499 114.59 81.2501C114.398 82.1383 113.986 82.9638 113.39 83.6501C113.268 83.7749 113.137 83.8918 113 84.0001C113 83.6101 112.94 83.3101 112.9 83.0001C112.728 81.7628 112.257 80.5858 111.53 79.5701C110.71 78.4201 109.84 77.3101 108.99 76.1801C107.909 74.8551 107.073 73.3483 106.52 71.7301C106.284 71.0117 106.185 70.2551 106.23 69.5001C106.293 68.8794 106.491 68.2799 106.808 67.743C107.126 67.206 107.556 66.7444 108.07 66.3901C108.42 66.1201 108.81 65.8901 109.21 65.6201Z" fill="#C8C8C8"/>
    <path d="M96.14 29.0001C95.7622 28.2513 95.2399 27.5848 94.6031 27.039C93.9663 26.4931 93.2278 26.0789 92.43 25.8201C90.8058 25.1831 89.1339 24.6749 87.43 24.3001L85.77 23.8601C84.5446 23.4195 83.475 22.6298 82.6932 21.5885C81.9113 20.5472 81.4513 19.2997 81.37 18.0001C81.37 17.7901 81.37 17.5901 81.42 17.3501C81.4886 17.3768 81.5527 17.4139 81.61 17.4601C82.9102 18.8174 84.6027 19.7336 86.45 20.0801C87.75 20.3901 89.06 20.6601 90.36 20.9701C91.7763 21.277 93.1293 21.825 94.36 22.5901C94.8176 22.8818 95.2463 23.2166 95.64 23.5901C96.086 24.0433 96.4175 24.5963 96.6071 25.2033C96.7966 25.8102 96.8388 26.4536 96.73 27.0801C96.63 27.7101 96.46 28.3401 96.32 28.9701L96.14 29.0001Z" fill="#C8C8C8"/>
    <path d="M106 6V6.35C106.097 7.83045 106.614 9.2526 107.49 10.45C108.2 11.45 108.97 12.45 109.73 13.45C110.787 14.7393 111.646 16.1783 112.28 17.72C112.633 18.5777 112.787 19.5043 112.73 20.43C112.639 21.4946 112.141 22.4832 111.34 23.19C110.834 23.6749 110.249 24.0705 109.61 24.36C110.31 22.18 109.43 20.36 108.4 18.64C107.71 17.46 106.88 16.37 106.1 15.23C105.74 14.71 105.36 14.23 105.02 13.68C104.505 12.8797 104.225 11.9514 104.21 11C104.132 9.83773 104.327 8.67339 104.78 7.6C105.026 6.96128 105.449 6.40614 106 6Z" fill="#C8C8C8"/>
    <path d="M149 48.33L147.81 48.27C146.852 48.2122 145.894 48.3765 145.01 48.75C143.75 49.3 142.51 49.9 141.28 50.51C139.806 51.31 138.241 51.9311 136.62 52.36C135.793 52.56 134.937 52.6208 134.09 52.54C133.526 52.4923 132.978 52.3289 132.48 52.06C131.973 51.8082 131.529 51.446 131.18 51C130.674 50.3258 130.276 49.5768 130 48.78C130.58 48.94 131.08 49.12 131.58 49.21C132.657 49.3531 133.753 49.2436 134.78 48.89C136.259 48.435 137.698 47.8563 139.08 47.16C139.7 46.88 140.31 46.58 140.92 46.29C141.718 45.91 142.586 45.7004 143.469 45.6746C144.352 45.6488 145.231 45.8073 146.05 46.14C147.11 46.4885 148.047 47.1341 148.75 48C148.84 48.1048 148.924 48.215 149 48.33Z" fill="#C8C8C8"/>
    <path d="M89 41.2701C88.2048 40.8902 87.3379 40.684 86.4568 40.665C85.5758 40.646 84.7008 40.8148 83.89 41.1601C82.63 41.5801 81.41 42.1601 80.18 42.6501C79.49 42.9401 78.83 43.2901 78.18 43.6501C77.2085 44.1232 76.1339 44.3455 75.0544 44.2966C73.9748 44.2477 72.9248 43.9291 72 43.3701C71.4723 43.055 70.9737 42.6935 70.51 42.2901C70.3218 42.092 70.1511 41.8778 70 41.6501H70.72C72.055 41.7932 73.4036 41.5684 74.62 41.0001C75.62 40.5601 76.62 40.0001 77.62 39.5301C79.1801 38.623 80.8647 37.9492 82.62 37.5301C83.4305 37.3484 84.2666 37.3112 85.09 37.4201C86.1829 37.5604 87.1756 38.1287 87.85 39.0001C88.3759 39.6757 88.7664 40.4465 89 41.2701Z" fill="#C8C8C8"/>
    <path d="M132.11 12.8501C130.925 14.4886 130.285 16.458 130.28 18.4801C130.18 20.0701 130.11 21.6701 129.97 23.2501C129.869 24.4261 129.558 25.5745 129.05 26.6401C128.669 27.6127 127.962 28.4232 127.05 28.9337C126.139 29.4442 125.079 29.6231 124.05 29.4401C123.73 29.4401 123.43 29.3501 123.05 29.2901L123.67 28.7701C124.547 27.9684 125.167 26.9243 125.45 25.7701C125.894 24.1067 126.155 22.4 126.23 20.6801C126.31 19.7401 126.37 18.7901 126.5 17.8601C126.691 16.7741 127.215 15.7745 128 15.0001C128.502 14.3649 129.132 13.8419 129.848 13.4647C130.565 13.0875 131.352 12.8645 132.16 12.8101L132.11 12.8501Z" fill="#C8C8C8"/>
    <path d="M119.62 7.13989C119.631 7.25297 119.631 7.36681 119.62 7.47989C119.111 9.16345 119.16 10.9666 119.76 12.6199C120.19 14.0899 120.67 15.5499 121.09 17.0299C121.44 18.2238 121.592 19.4669 121.54 20.7099C121.53 21.1915 121.47 21.6708 121.36 22.1399C121.215 22.8356 120.888 23.4802 120.412 24.0075C119.936 24.5347 119.327 24.9256 118.65 25.1399C118.06 25.3599 117.44 25.4999 116.7 25.7099C116.93 25.3499 117.1 25.1299 117.24 24.8799C117.769 23.8227 117.981 22.6349 117.85 21.4599C117.583 19.3541 117.118 17.2782 116.46 15.2599C116.35 14.8499 116.23 14.4399 116.14 14.0299C115.981 13.1915 115.996 12.3294 116.183 11.4969C116.371 10.6644 116.727 9.87924 117.23 9.18989C117.68 8.48807 118.286 7.89948 119 7.46989C119.14 7.35989 119.35 7.26989 119.62 7.13989Z" fill="#C8C8C8"/>
    <path d="M91.55 34.48C90.3063 33.3457 88.6832 32.7179 87 32.72C85.3467 32.663 83.6916 32.7366 82.05 32.94C81.29 33 80.53 33.08 79.77 33.11C78.9627 33.123 78.1609 32.976 77.4108 32.6773C76.6607 32.3787 75.9773 31.9343 75.4 31.37C74.6844 30.7913 74.1214 30.0463 73.76 29.2C73.6848 28.9606 73.6246 28.7168 73.58 28.47C73.88 28.59 74.06 28.66 74.22 28.74C75.0695 29.132 75.9857 29.3593 76.92 29.41C78.4033 29.4382 79.8861 29.3311 81.35 29.09C82.67 28.96 84 28.83 85.35 28.79C86.3061 28.7704 87.259 28.9089 88.17 29.2C89.0377 29.4187 89.8158 29.902 90.3964 30.5829C90.977 31.2638 91.3312 32.1086 91.41 33C91.48 33.48 91.51 34 91.55 34.48Z" fill="#C8C8C8"/>
    <path d="M127.5 55.4299C128.188 56.0861 129.01 56.5865 129.909 56.897C130.808 57.2076 131.763 57.3212 132.71 57.2299C134.51 57.2299 136.31 57.0399 138.1 56.8799C139.281 56.6997 140.49 56.8377 141.6 57.2799C142.467 57.622 143.25 58.1451 143.899 58.8142C144.547 59.4833 145.045 60.283 145.36 61.1599C145.37 61.253 145.37 61.3468 145.36 61.4399C145.274 61.4551 145.186 61.4551 145.1 61.4399C143.454 60.611 141.588 60.3274 139.77 60.6299C138.32 60.7899 136.87 61.0399 135.42 61.1599C133.999 61.3069 132.564 61.2225 131.17 60.9099C130.449 60.7802 129.771 60.4764 129.194 60.0251C128.617 59.5737 128.159 58.9884 127.86 58.3199C127.534 57.3936 127.411 56.4079 127.5 55.4299Z" fill="#C8C8C8"/>
    <path d="M86.81 77.06L87.4 76.19C88.2319 74.766 88.6766 73.1491 88.69 71.5C88.7214 69.7411 88.8482 67.9852 89.07 66.24C89.2429 64.7041 89.819 63.2413 90.74 62C91.3913 61.2076 92.322 60.6957 93.34 60.57C94.1616 60.4515 94.9977 60.4786 95.81 60.65C95.81 60.74 95.81 60.82 95.75 60.84C94.6798 61.6016 93.92 62.7236 93.61 64C93.1717 65.4879 92.9067 67.0214 92.82 68.57C92.74 69.66 92.69 70.75 92.54 71.83C92.4035 72.6755 92.092 73.4831 91.6253 74.2012C91.1586 74.9192 90.5472 75.5319 89.83 76C89.0908 76.5752 88.2161 76.9506 87.29 77.09L86.81 77.06Z" fill="#C8C8C8"/>
    <path d="M102.11 64.4601C101.462 65.2842 101.11 66.3019 101.11 67.3501C101.088 68.1877 101.152 69.0254 101.3 69.8501C101.67 71.5601 102.09 73.2501 102.59 74.9201C102.933 75.9648 103.009 77.079 102.809 78.1605C102.61 79.2419 102.143 80.2561 101.45 81.1101C101.003 81.7313 100.422 82.2439 99.75 82.6101C99.62 82.6801 99.48 82.7201 99.33 82.7901C99.33 82.7001 99.26 82.6401 99.28 82.5901C99.8202 81.0048 99.8202 79.2853 99.28 77.7001C98.84 76.1701 98.34 74.7001 97.9 73.1101C97.4778 71.6772 97.3219 70.1791 97.44 68.6901C97.4712 67.7518 97.8057 66.8489 98.3935 66.1169C98.9813 65.3849 99.7906 64.8632 100.7 64.6301C101.12 64.5001 101.55 64.4101 101.97 64.3101L102.11 64.4601Z" fill="#C8C8C8"/>
    <path d="M102.56 49.73L101.92 48.07H98.81L98.17 49.73H97L99.8 43H101.05L103.8 49.76L102.56 49.73ZM100.39 43.94L99.14 47.2H101.62L100.39 43.94Z" fill="#C8C8C8"/>
    <path d="M112.2 51.08V49.54H107.53V51.08H106.53V48.65H107.24C107.875 47.5404 108.219 46.2883 108.24 45.01L108.36 43.01H112.63V48.69H113.32V51.12L112.2 51.08ZM111.38 43.85H109.38L109.27 45.28C109.22 46.4536 108.948 47.6071 108.47 48.68H111.47L111.38 43.85Z" fill="#C8C8C8"/>
    <path d="M118.28 49.73H116V43H118.48C120.05 43 121.19 43.46 121.19 44.69C121.202 44.8867 121.171 45.0837 121.098 45.2669C121.026 45.4501 120.914 45.6151 120.77 45.75C120.457 46.0571 120.047 46.2447 119.61 46.28C120.082 46.2874 120.538 46.4568 120.9 46.76C121.06 46.8976 121.188 47.068 121.276 47.2595C121.364 47.451 121.41 47.6592 121.41 47.87C121.34 49.36 119.86 49.73 118.28 49.73ZM118.38 43.84H117.29V45.84H118C118.73 45.84 119.81 45.75 119.81 44.84C119.81 44 119.06 43.84 118.38 43.84ZM118 46.63H117.26V48.83H118.08C119.08 48.83 119.96 48.66 119.96 47.83C119.96 47 118.96 46.72 117.96 46.72L118 46.63Z" fill="#C8C8C8"/>
</svg>