<svg xmlns="http://www.w3.org/2000/svg" width="220" height="90" viewBox="0 0 220 90" fill="none">
    <path fill-rule="evenodd" clip-rule="evenodd" d="M67.7305 37.1599H75.3615C76.242 37.1599 76.9083 37.3565 77.3604 37.7496C77.8151 38.1438 78.0433 38.7243 78.0433 39.4987C78.0433 40.2732 77.7935 40.8862 77.3185 41.3036C76.8436 41.7211 76.1452 41.9244 75.2513 41.9244H67.7305V37.1599ZM67.7305 52.0339H76.4603C81.141 52.0339 84.7432 50.9476 87.2666 48.7748C89.7901 46.6021 91.0524 43.4572 91.0534 39.3404C91.0534 35.3115 89.8636 32.2691 87.4839 30.2133C85.1042 28.1574 81.6128 27.1274 77.0096 27.1233H62.6183C60.4252 27.1533 58.3271 28.0228 56.7557 29.5529C55.1843 31.083 54.2593 33.1572 54.1709 35.3487V54.9036C54.26 57.0948 55.1853 59.1686 56.7565 60.6985C58.3277 62.2285 60.4254 63.0983 62.6183 63.129H67.7305V52.0339ZM145.877 27.1233H132.318V63.129H157.543C159.738 63.1006 161.838 62.2319 163.411 60.7018C164.984 59.1715 165.911 57.0964 166 54.9036V49.5647H145.877V27.1233ZM114.331 41.9244C115.226 41.9244 115.915 41.7175 116.398 41.3036C116.881 40.8877 117.121 40.2762 117.121 39.5017C117.121 38.7273 116.89 38.1485 116.435 37.7527C115.982 37.3596 115.316 37.163 114.436 37.163H106.807V41.9244H114.331ZM93.2443 27.1233H116.083C120.686 27.1254 124.178 28.1543 126.557 30.2102C128.937 32.266 130.127 35.3084 130.127 39.3373C130.128 43.4593 128.867 46.6067 126.345 48.7795C123.822 50.9523 120.22 52.0386 115.538 52.0386H106.807V63.129H93.2443V27.1233Z" fill="#C8C8C8"/>
</svg>