<svg xmlns="http://www.w3.org/2000/svg" width="220" height="90" viewBox="0 0 220 90" fill="none">
    <path fill-rule="evenodd" clip-rule="evenodd" d="M94.2376 19H91.7993V26.4874C90.2885 24.9574 88.3856 24.1924 86.0907 24.1924C83.7575 24.1924 81.8355 24.9574 80.3247 26.4874C78.833 28.0174 78.0872 29.949 78.0872 32.2822C78.0872 34.5963 78.833 36.5279 80.3247 38.077C81.8355 39.607 83.7575 40.372 86.0907 40.372C88.5195 40.372 90.4988 39.5209 92.0288 37.8188L92.373 40.0278H94.2376V19ZM86.2341 38.0196C84.6085 38.0196 83.2603 37.4746 82.1893 36.3845C81.1184 35.2944 80.5829 33.9269 80.5829 32.2822C80.5829 31.479 80.7263 30.7235 81.0132 30.0159C81.3 29.2892 81.6921 28.6772 82.1893 28.1799C82.6866 27.6827 83.289 27.2906 83.9966 27.0037C84.7042 26.6977 85.4596 26.5447 86.2628 26.5447C87.9075 26.5447 89.2653 27.0898 90.3363 28.1799C91.4264 29.27 91.9714 30.6375 91.9714 32.2822C91.9714 33.9078 91.4264 35.2752 90.3363 36.3845C89.2462 37.4746 87.8788 38.0196 86.2341 38.0196ZM53.3299 24.1924C54.4199 24.1924 55.3762 24.4506 56.1985 24.9669C57.0209 25.4642 57.652 26.1623 58.0918 27.0611C58.5508 27.96 58.7803 28.9832 58.7803 30.1307V40.0278H56.3419V30.8765C56.3419 29.9585 56.1985 29.1648 55.9116 28.4955C55.6439 27.8261 55.2423 27.3193 54.7068 26.9751C54.1905 26.6117 53.5689 26.43 52.8422 26.43C51.7139 26.43 50.7385 26.9177 49.9162 27.893C49.113 28.8493 48.7113 30.035 48.7113 31.4503V40.0278H46.3304V30.8765C46.3304 29.4804 46.0148 28.3903 45.3837 27.6062C44.7717 26.8221 43.9111 26.43 42.8019 26.43C42.2473 26.43 41.7119 26.5639 41.1955 26.8316C40.6983 27.0802 40.2584 27.4245 39.8759 27.8644C39.5126 28.3042 39.2161 28.8397 38.9866 29.4708C38.7763 30.0828 38.6711 30.7426 38.6711 31.4503V40.0278H36.2327V24.5366H37.9826L38.3842 26.6595C38.6711 26.277 38.9962 25.9328 39.3596 25.6268C39.742 25.3208 40.1437 25.0626 40.5644 24.8522C40.9851 24.6418 41.4345 24.4793 41.9127 24.3645C42.3908 24.2498 42.8689 24.1924 43.347 24.1924C44.4371 24.1924 45.3933 24.4601 46.2156 24.9956C47.038 25.512 47.6595 26.2292 48.0802 27.1472C48.4627 26.5352 48.9313 26.0093 49.4859 25.5694C50.0405 25.1295 50.6429 24.7948 51.2931 24.5653C51.9625 24.3167 52.6414 24.1924 53.3299 24.1924ZM76.8297 32.3396C76.8297 32.5499 76.8105 32.8464 76.7723 33.2289H63.5478C63.7391 34.6632 64.3319 35.8203 65.3264 36.7C66.3209 37.5606 67.5448 37.991 68.9983 37.991C70.0692 37.991 71.0159 37.7615 71.8382 37.3025C72.6797 36.8243 73.349 36.155 73.8463 35.2944H76.3994C75.7491 36.9008 74.7738 38.1535 73.4734 39.0524C72.1729 39.9321 70.6812 40.372 68.9983 40.372C66.7607 40.372 64.8865 39.5974 63.3757 38.0483C61.8649 36.4992 61.1095 34.5772 61.1095 32.2822C61.1095 29.9681 61.8649 28.046 63.3757 26.5161C64.8865 24.9669 66.7607 24.1924 68.9983 24.1924C71.3123 24.1924 73.196 24.9765 74.6495 26.5447C76.1029 28.113 76.8297 30.0446 76.8297 32.3396ZM68.9983 26.5161C68.0803 26.5161 67.2388 26.6977 66.4739 27.0611C65.728 27.4245 65.1065 27.9504 64.6092 28.6389C64.112 29.3083 63.7773 30.0828 63.6052 30.9626H74.3626C74.1905 30.0637 73.8558 29.2796 73.3586 28.6102C72.8614 27.9217 72.2398 27.4054 71.494 27.0611C70.7481 26.6977 69.9162 26.5161 68.9983 26.5161ZM97.9205 21.84V19.0574H100.56V21.84H97.9205ZM98.0352 24.5366H100.474V40.0278H98.0352V24.5366ZM145.8 37.7615H144.108C143.419 37.7615 142.827 37.6371 142.329 37.3885C141.851 37.1399 141.488 36.7765 141.239 36.2984C140.991 35.8203 140.866 35.2274 140.866 34.5198V26.7456H145.714V24.5366H140.866V21.2663H140.493L135.703 26.3152V26.7456H138.428V34.6059C138.428 35.7151 138.638 36.6809 139.059 37.5033C139.499 38.3256 140.12 38.9568 140.924 39.3966C141.746 39.8174 142.702 40.0278 143.792 40.0278H145.8V37.7615ZM129.506 31.0773C129.258 31.02 128.866 30.953 128.33 30.8765C127.814 30.7809 127.412 30.714 127.126 30.6757C126.858 30.6183 126.523 30.5323 126.121 30.4175C125.72 30.2837 125.423 30.1498 125.232 30.0159C125.041 29.8629 124.869 29.6717 124.716 29.4422C124.563 29.1935 124.486 28.9162 124.486 28.6102C124.486 27.9409 124.792 27.4054 125.404 27.0037C126.035 26.583 126.877 26.3726 127.929 26.3726C129.019 26.3726 129.87 26.6021 130.482 27.0611C131.113 27.501 131.457 28.1417 131.515 28.9832H133.809C133.771 27.5297 133.226 26.3726 132.174 25.512C131.122 24.6323 129.717 24.1924 127.957 24.1924C126.217 24.1924 124.811 24.6131 123.741 25.4546C122.67 26.277 122.134 27.3576 122.134 28.6963C122.134 29.0214 122.153 29.337 122.191 29.643C122.249 29.949 122.335 30.2263 122.45 30.4749C122.583 30.7044 122.708 30.9148 122.823 31.106C122.956 31.2973 123.129 31.479 123.339 31.6511C123.568 31.8041 123.769 31.9475 123.941 32.0814C124.113 32.1961 124.343 32.3109 124.63 32.4256C124.917 32.5213 125.156 32.6073 125.347 32.6838C125.557 32.7412 125.825 32.8081 126.15 32.8846C126.475 32.942 126.733 32.9898 126.925 33.0281C127.116 33.0663 127.384 33.1141 127.728 33.1715C128.263 33.2671 128.675 33.3436 128.961 33.401C129.267 33.4584 129.621 33.554 130.023 33.6879C130.444 33.8217 130.759 33.9747 130.969 34.1469C131.18 34.2999 131.362 34.5102 131.515 34.778C131.668 35.0457 131.744 35.3517 131.744 35.696C131.744 36.4418 131.409 37.0347 130.74 37.4746C130.071 37.8953 129.191 38.1057 128.101 38.1057C126.992 38.1057 126.083 37.8666 125.376 37.3885C124.668 36.8913 124.286 36.1837 124.228 35.2657H121.847C121.885 36.2984 122.163 37.2068 122.679 37.991C123.195 38.756 123.913 39.3488 124.831 39.7696C125.749 40.1712 126.82 40.372 128.043 40.372C129.879 40.372 131.352 39.9417 132.461 39.0811C133.59 38.2013 134.154 37.0347 134.154 35.5812C134.154 35.0649 134.087 34.5963 133.953 34.1756C133.819 33.7357 133.666 33.3723 133.494 33.0854C133.322 32.7794 133.054 32.5117 132.691 32.2822C132.346 32.0336 132.04 31.8423 131.773 31.7085C131.505 31.5746 131.122 31.4503 130.625 31.3355C130.147 31.2016 129.774 31.1156 129.506 31.0773ZM155.267 40.372C153.737 40.372 152.341 40.0278 151.078 39.3393C149.816 38.6316 148.831 37.6658 148.124 36.4418C147.416 35.1987 147.062 33.8122 147.062 32.2822C147.062 29.949 147.837 28.0174 149.386 26.4874C150.954 24.9574 152.914 24.1924 155.267 24.1924C156.816 24.1924 158.212 24.5462 159.455 25.2538C160.717 25.9423 161.702 26.9081 162.41 28.1512C163.136 29.3752 163.5 30.7522 163.5 32.2822C163.5 34.5963 162.716 36.5279 161.147 38.077C159.579 39.607 157.619 40.372 155.267 40.372ZM151.165 36.4132C152.255 37.4842 153.622 38.0196 155.267 38.0196C156.931 38.0196 158.298 37.4842 159.369 36.4132C160.459 35.323 161.004 33.9461 161.004 32.2822C161.004 30.6183 160.459 29.2509 159.369 28.1799C158.298 27.0898 156.931 26.5447 155.267 26.5447C153.622 26.5447 152.255 27.0898 151.165 28.1799C150.094 29.2509 149.558 30.6183 149.558 32.2822C149.558 33.9461 150.094 35.323 151.165 36.4132ZM174.492 24.4506H173.115C170.954 24.4506 169.309 25.2634 168.181 26.889L167.779 24.5366H166.058V40.0278H168.496V31.6224C168.496 30.0924 168.879 28.9067 169.644 28.0652C170.428 27.2046 171.518 26.7742 172.914 26.7742H174.492V24.4506ZM189.986 32.3396C189.986 32.5499 189.967 32.8464 189.929 33.2289H176.705C176.896 34.6632 177.489 35.8203 178.483 36.7C179.478 37.5606 180.702 37.991 182.155 37.991C183.226 37.991 184.173 37.7615 184.995 37.3025C185.837 36.8243 186.506 36.155 187.003 35.2944H189.556C188.906 36.9008 187.931 38.1535 186.63 39.0524C185.33 39.9321 183.838 40.372 182.155 40.372C179.918 40.372 178.043 39.5974 176.533 38.0483C175.022 36.4992 174.266 34.5772 174.266 32.2822C174.266 29.9681 175.022 28.046 176.533 26.5161C178.043 24.9669 179.918 24.1924 182.155 24.1924C184.469 24.1924 186.353 24.9765 187.806 26.5447C189.26 28.113 189.986 30.0446 189.986 32.3396ZM182.155 26.5161C181.237 26.5161 180.396 26.6977 179.631 27.0611C178.885 27.4245 178.263 27.9504 177.766 28.6389C177.269 29.3083 176.934 30.0828 176.762 30.9626H187.519C187.347 30.0637 187.013 29.2796 186.515 28.6102C186.018 27.9217 185.397 27.4054 184.651 27.0611C183.905 26.6977 183.073 26.5161 182.155 26.5161ZM49.4295 50.4096H51.3802V65.9005H49.3434L49.0852 63.5482C48.3585 64.4088 47.4692 65.0782 46.4174 65.5563C45.3846 66.0153 44.2467 66.2448 43.0036 66.2448C40.7278 66.2448 38.8249 65.4798 37.2949 63.9498C35.765 62.4007 35 60.4692 35 58.1551C35 55.841 35.765 53.919 37.2949 52.389C38.8249 50.8399 40.7278 50.0654 43.0036 50.0654C44.2659 50.0654 45.4133 50.3045 46.4461 50.7826C47.4979 51.2607 48.3872 51.93 49.1139 52.7906L49.4295 50.4096ZM39.1022 62.2573C40.1923 63.3474 41.5597 63.8925 43.2044 63.8925C44.8492 63.8925 46.207 63.3474 47.278 62.2573C48.3489 61.1672 48.8844 59.7998 48.8844 58.1551C48.8844 56.5104 48.3489 55.143 47.278 54.0529C46.207 52.9628 44.8492 52.4177 43.2044 52.4177C41.5597 52.4177 40.1923 52.9723 39.1022 54.0816C38.0312 55.1717 37.4958 56.5295 37.4958 58.1551C37.4958 59.7807 38.0312 61.1481 39.1022 62.2573ZM67.9388 50.4096H69.5739V63.7203C69.5739 66.2257 68.895 68.1955 67.5372 69.6298C66.1793 71.0642 64.3242 71.7813 61.9719 71.7813C60.0786 71.7813 58.4817 71.3128 57.1812 70.3757C55.8999 69.4386 55.0488 68.1477 54.6281 66.503H57.0665C57.4107 67.4592 58.0227 68.205 58.9024 68.7405C59.8013 69.276 60.8244 69.5438 61.9719 69.5438C63.5401 69.5438 64.7928 69.0465 65.7299 68.052C66.6861 67.0767 67.1642 65.738 67.1642 64.0359V63.0892C65.6916 64.6383 63.8174 65.4129 61.5416 65.4129C59.3805 65.4129 57.5637 64.6766 56.0911 63.204C54.6376 61.7314 53.9109 59.9145 53.9109 57.7535C53.9109 56.3382 54.2456 55.0473 54.9149 53.8807C55.5843 52.695 56.5023 51.7675 57.6689 51.0981C58.8355 50.4096 60.1264 50.0654 61.5416 50.0654C62.7465 50.0654 63.8652 50.314 64.898 50.8113C65.9498 51.2894 66.8295 51.9587 67.5372 52.8193L67.9388 50.4096ZM61.7998 63.0605C62.8134 63.0605 63.7314 62.831 64.5537 62.3721C65.3761 61.9131 66.0168 61.282 66.4757 60.4787C66.9347 59.6755 67.1642 58.7671 67.1642 57.7535C67.1642 56.2044 66.6574 54.9326 65.6438 53.9381C64.6302 52.9245 63.3489 52.4177 61.7998 52.4177C60.2507 52.4177 58.9598 52.9245 57.9271 53.9381C56.9135 54.9517 56.4067 56.2235 56.4067 57.7535C56.4067 59.2643 56.9135 60.5265 57.9271 61.5401C58.9598 62.5537 60.2507 63.0605 61.7998 63.0605ZM87.7565 59.1017C87.7947 58.7193 87.8138 58.4228 87.8138 58.2125C87.8138 55.9175 87.0871 53.9859 85.6336 52.4177C84.1802 50.8495 82.2964 50.0654 79.9823 50.0654C77.7447 50.0654 75.8705 50.8399 74.3597 52.389C72.8489 53.919 72.0934 55.841 72.0934 58.1551C72.0934 60.45 72.8489 62.3721 74.3597 63.9211C75.8705 65.4702 77.7447 66.2448 79.9823 66.2448C81.6653 66.2448 83.157 65.8049 84.4575 64.9252C85.7579 64.0263 86.7333 62.7737 87.3835 61.1672H84.8304C84.3332 62.0278 83.6638 62.6972 82.8223 63.1753C82 63.6343 81.0533 63.8638 79.9823 63.8638C78.5289 63.8638 77.3049 63.4335 76.3104 62.5729C75.3159 61.6931 74.7231 60.5361 74.5318 59.1017H87.7565ZM77.4579 52.9341C78.2229 52.5707 79.0643 52.389 79.9823 52.389C80.9003 52.389 81.7322 52.5707 82.4781 52.9341C83.2239 53.2783 83.8455 53.7947 84.3427 54.4832C84.84 55.1525 85.1746 55.9366 85.3468 56.8355H74.5892C74.7613 55.9558 75.096 55.1812 75.5932 54.5119C76.0905 53.8234 76.712 53.2974 77.4579 52.9341ZM98.0503 50.0654C99.8672 50.0654 101.311 50.6774 102.382 51.9014C103.472 53.1253 104.017 54.7031 104.017 56.6347V65.9005H101.579V57.2084C101.579 56.1566 101.416 55.2673 101.091 54.5405C100.785 53.8138 100.317 53.2592 99.6855 52.8767C99.0735 52.4942 98.3181 52.303 97.4192 52.303C96.0996 52.303 94.9904 52.8002 94.0915 53.7947C93.1927 54.77 92.7433 55.9844 92.7433 57.4379V65.9005H90.3049V50.4096H92.0261L92.5138 52.848C92.8963 52.2552 93.3648 51.7579 93.9194 51.3563C94.474 50.9356 95.1051 50.62 95.8127 50.4096C96.5204 50.1801 97.2662 50.0654 98.0503 50.0654ZM110.259 65.2121C111.503 65.9005 112.88 66.2448 114.39 66.2448C116.207 66.2448 117.795 65.738 119.152 64.7244C120.529 63.6916 121.457 62.3147 121.935 60.5935H119.468C118.99 61.6262 118.301 62.439 117.403 63.0318C116.523 63.6056 115.519 63.8925 114.39 63.8925C113.339 63.8925 112.382 63.6438 111.522 63.1466C110.68 62.6302 110.02 61.9417 109.542 61.0811C109.064 60.2014 108.825 59.2261 108.825 58.1551C108.825 56.5295 109.351 55.1717 110.403 54.0816C111.474 52.9723 112.803 52.4177 114.39 52.4177C115.519 52.4177 116.532 52.7046 117.431 53.2783C118.349 53.8521 119.038 54.6362 119.497 55.6306H121.906C121.428 53.9477 120.51 52.5994 119.152 51.5858C117.814 50.5722 116.226 50.0654 114.39 50.0654C112.095 50.0654 110.173 50.8399 108.624 52.389C107.094 53.919 106.329 55.841 106.329 58.1551C106.329 59.6659 106.674 61.0429 107.362 62.286C108.07 63.5291 109.036 64.5044 110.259 65.2121ZM135.255 50.4096H137.866L130.493 66.5316C129.919 67.7939 129.355 68.7692 128.801 69.4577C128.246 70.1462 127.624 70.6434 126.936 70.9494C126.247 71.2745 125.406 71.4371 124.412 71.4371H122.948V69.2282H124.211C125.243 69.2282 126.018 69.0178 126.534 68.5971C127.051 68.1764 127.624 67.3158 128.256 66.0153L128.801 64.8391L121.916 50.4096H124.584L130.092 62.1426L135.255 50.4096ZM115.958 24.0542H119.375V28.54H117.338L117.08 26.1876C116.353 27.0482 115.464 27.7176 114.412 28.1957C113.38 28.6547 112.242 28.8842 110.999 28.8842C108.723 28.8842 106.82 28.1192 105.29 26.5892C104.545 25.8349 103.981 24.9899 103.599 24.0542H106.419C106.614 24.3499 106.84 24.6307 107.097 24.8967C108.187 25.9868 109.555 26.5318 111.199 26.5318C112.844 26.5318 114.202 25.9868 115.273 24.8967C115.533 24.6322 115.761 24.3514 115.958 24.0542ZM119.375 31.1236V40.4476H116.694C116.818 39.9534 116.879 39.4272 116.879 38.8691C116.879 37.2244 116.344 35.857 115.273 34.7669C114.202 33.6768 112.844 33.1317 111.199 33.1317C109.555 33.1317 108.187 33.6863 107.097 34.7956C106.026 35.8857 105.491 37.2435 105.491 38.8691C105.491 39.4255 105.554 39.9517 105.679 40.4476H103.124C103.038 39.9429 102.995 39.4167 102.995 38.8691C102.995 36.555 103.76 34.633 105.29 33.103C106.82 31.5539 108.723 30.7793 110.999 30.7793C112.261 30.7793 113.408 31.0184 114.441 31.4965C115.493 31.9746 116.382 32.644 117.109 33.5046L117.424 31.1236H119.375Z" fill="#C8C8C8"/>
</svg>