<svg xmlns="http://www.w3.org/2000/svg" width="220" height="90" viewBox="0 0 220 90" fill="none">
    <path d="M21.5504 50.064C19.7584 50.064 18.2632 49.4817 17.0648 48.3169C15.8776 47.1409 15.284 45.6792 15.284 43.932C15.284 42.1848 15.8776 40.7288 17.0648 39.564C18.2632 38.388 19.7584 37.8 21.5504 37.8C22.7264 37.8 23.7904 38.0688 24.7424 38.6064C25.7056 39.1328 26.456 39.8664 26.9936 40.8072C27.5312 41.7368 27.8 42.7784 27.8 43.932C27.8 45.6904 27.2064 47.1521 26.0192 48.3169C24.832 49.4817 23.3424 50.064 21.5504 50.064ZM21.5504 47.6616C22.2448 47.6616 22.872 47.5048 23.432 47.1912C23.992 46.8664 24.4288 46.4184 24.7424 45.8472C25.0672 45.276 25.2296 44.6376 25.2296 43.932C25.2296 42.868 24.8768 41.9832 24.1712 41.2776C23.4768 40.5608 22.6032 40.2024 21.5504 40.2024C20.5088 40.2024 19.6296 40.5608 18.9128 41.2776C18.2072 41.9832 17.8544 42.868 17.8544 43.932C17.8544 44.996 18.2072 45.8864 18.9128 46.6032C19.6296 47.3088 20.5088 47.6616 21.5504 47.6616Z" fill="#C8C8C8"/>
    <path d="M44.1028 49.812H41.5156L40.3564 42.1344L36.8452 49.7952H36.2236L32.7124 42.1344L31.5532 49.812H28.9492L30.7972 38.052H33.3508L36.526 45.2592L39.718 38.052H42.2716L44.1028 49.812Z" fill="#C8C8C8"/>
    <path d="M50.5139 38.052C52.2387 38.052 53.6611 38.6064 54.7811 39.7152C55.9123 40.8128 56.4779 42.2128 56.4779 43.9152C56.4779 45.6176 55.9123 47.0288 54.7811 48.1488C53.6611 49.2577 52.2387 49.812 50.5139 49.812H46.0619V38.052H50.5139ZM50.4467 47.4432C51.4547 47.4432 52.2779 47.1129 52.9163 46.4521C53.5547 45.7912 53.8739 44.9456 53.8739 43.9152C53.8739 42.8848 53.5547 42.0448 52.9163 41.3952C52.2779 40.7456 51.4547 40.4208 50.4467 40.4208H48.6155V47.4432H50.4467Z" fill="#C8C8C8"/>
    <path d="M68.1113 50.064C66.3193 50.064 64.8241 49.4817 63.6257 48.3169C62.4385 47.1409 61.8449 45.6792 61.8449 43.932C61.8449 42.1848 62.4385 40.7288 63.6257 39.564C64.8241 38.388 66.3193 37.8 68.1113 37.8C69.2873 37.8 70.3513 38.0688 71.3033 38.6064C72.2665 39.1328 73.0169 39.8664 73.5545 40.8072C74.0921 41.7368 74.3609 42.7784 74.3609 43.932C74.3609 45.6904 73.7673 47.1521 72.5801 48.3169C71.3929 49.4817 69.9033 50.064 68.1113 50.064ZM68.1113 47.6616C68.8057 47.6616 69.4329 47.5048 69.9929 47.1912C70.5529 46.8664 70.9897 46.4184 71.3033 45.8472C71.6281 45.276 71.7905 44.6376 71.7905 43.932C71.7905 42.868 71.4377 41.9832 70.7321 41.2776C70.0377 40.5608 69.1641 40.2024 68.1113 40.2024C67.0697 40.2024 66.1905 40.5608 65.4737 41.2776C64.7681 41.9832 64.4153 42.868 64.4153 43.932C64.4153 44.996 64.7681 45.8864 65.4737 46.6032C66.1905 47.3088 67.0697 47.6616 68.1113 47.6616Z" fill="#C8C8C8"/>
    <path d="M90.6637 49.812H88.0766L86.9174 42.1344L83.4062 49.7952H82.7846L79.2734 42.1344L78.1142 49.812H75.5102L77.3582 38.052H79.9118L83.087 45.2592L86.279 38.052H88.8326L90.6637 49.812Z" fill="#C8C8C8"/>
    <path d="M101.8 43.6632H108.066C108.055 45.5224 107.49 47.0568 106.37 48.2664C105.25 49.4648 103.81 50.064 102.052 50.064C100.316 50.064 98.8655 49.4873 97.7007 48.3337C96.5471 47.1688 95.9703 45.7072 95.9703 43.9488C95.9703 42.1792 96.5415 40.712 97.6839 39.5472C98.8263 38.3824 100.266 37.8 102.002 37.8C103.469 37.8 104.751 38.22 105.849 39.06C106.946 39.8888 107.63 40.964 107.898 42.2856H105.278C105.11 41.86 104.869 41.496 104.555 41.1936C104.242 40.88 103.866 40.6392 103.43 40.4712C103.004 40.3032 102.545 40.2192 102.052 40.2192C101.01 40.2192 100.165 40.5664 99.5151 41.2608C98.8655 41.9552 98.5407 42.8512 98.5407 43.9488C98.5407 44.6656 98.6863 45.304 98.9775 45.864C99.2687 46.424 99.6775 46.8608 100.204 47.1744C100.742 47.488 101.358 47.6448 102.052 47.6448C102.556 47.6448 103.032 47.5609 103.48 47.3928C103.928 47.2248 104.309 46.9896 104.622 46.6873C104.947 46.3736 105.182 46.0208 105.328 45.6288H101.8V43.6632Z" fill="#C8C8C8"/>
    <path d="M114.433 40.6896H115.239V43.008H114.181C113.487 43.008 112.988 43.1704 112.686 43.4952C112.395 43.82 112.249 44.352 112.249 45.0912V49.812H109.796V40.74H111.375L111.812 41.8488C112.428 41.076 113.302 40.6896 114.433 40.6896Z" fill="#C8C8C8"/>
    <path d="M120.758 50.064C119.829 50.064 118.989 49.8568 118.238 49.4424C117.488 49.0281 116.9 48.4568 116.474 47.7288C116.06 46.9896 115.853 46.172 115.853 45.276C115.853 43.8984 116.318 42.756 117.247 41.8488C118.177 40.9416 119.347 40.488 120.758 40.488C122.158 40.488 123.323 40.9416 124.253 41.8488C125.182 42.756 125.647 43.8984 125.647 45.276C125.647 46.6425 125.177 47.7849 124.236 48.7032C123.306 49.6104 122.147 50.064 120.758 50.064ZM120.758 47.7624C121.464 47.7624 122.041 47.5329 122.489 47.0737C122.937 46.6032 123.161 46.004 123.161 45.276C123.161 44.548 122.937 43.9544 122.489 43.4952C122.041 43.0248 121.458 42.7896 120.742 42.7896C120.036 42.7896 119.459 43.0248 119.011 43.4952C118.563 43.9544 118.339 44.548 118.339 45.276C118.339 45.6344 118.395 45.9704 118.507 46.284C118.63 46.5976 118.798 46.8609 119.011 47.0737C119.224 47.2865 119.476 47.4544 119.767 47.5777C120.07 47.7008 120.4 47.7624 120.758 47.7624Z" fill="#C8C8C8"/>
    <path d="M134.641 48.9552C133.868 49.6945 132.837 50.064 131.549 50.064C130.273 50.064 129.242 49.6889 128.458 48.9384C127.685 48.1881 127.299 47.2024 127.299 45.9816V40.74H129.752V45.696C129.752 46.3456 129.909 46.8552 130.222 47.2248C130.547 47.5832 130.989 47.7624 131.549 47.7624C132.121 47.7624 132.563 47.5832 132.877 47.2248C133.201 46.8552 133.364 46.3456 133.364 45.696V40.74H135.817V45.9816C135.817 47.2136 135.425 48.2049 134.641 48.9552Z" fill="#C8C8C8"/>
    <path d="M143.004 40.488C144.37 40.488 145.501 40.9416 146.397 41.8488C147.305 42.756 147.758 43.8984 147.758 45.276C147.758 46.6537 147.305 47.8017 146.397 48.72C145.49 49.6272 144.359 50.0808 143.004 50.0808C142.074 50.0808 141.24 49.8288 140.501 49.3248V53.088H138.048V40.74H139.677L140.097 41.5632C140.904 40.8464 141.873 40.488 143.004 40.488ZM141.021 47.0568C141.492 47.5272 142.08 47.7624 142.785 47.7624C143.502 47.7624 144.096 47.5272 144.566 47.0568C145.037 46.5864 145.272 45.9928 145.272 45.276C145.272 44.8056 145.165 44.38 144.953 43.9992C144.74 43.6184 144.443 43.3216 144.062 43.1088C143.693 42.896 143.273 42.7896 142.802 42.7896C142.332 42.7896 141.906 42.896 141.525 43.1088C141.145 43.3216 140.848 43.6184 140.635 43.9992C140.433 44.38 140.333 44.8056 140.333 45.276C140.333 45.9928 140.562 46.5864 141.021 47.0568Z" fill="#C8C8C8"/>
    <path fill-rule="evenodd" clip-rule="evenodd" d="M157.076 57L157.076 33H158.876L158.876 57H157.076Z" fill="#C8C8C8"/>
    <path fill-rule="evenodd" clip-rule="evenodd" d="M173.837 57V48.4737C173.837 48.4737 172.908 49.4211 171.05 49.4211C167.334 49.4211 165.476 46.8947 165.476 44.3684C165.476 41.5263 166.095 38.0526 171.05 38.0526C176.005 38.0526 176.624 42.1579 176.624 44.3684H178.792L181.27 48.1579L183.437 44.3684H188.392V33H196.753C199.128 33.3158 203.876 35.4632 203.876 41.5263C203.876 47.5895 199.128 49.3158 196.753 49.4211H188.392V57H184.057V52.5789L181.27 55.7368L178.482 52.5789V57H173.837ZM193.347 44.3684V38.0526H195.824C196.65 38.0526 198.302 38.6842 198.302 41.2105C198.302 43.7368 196.65 44.3684 195.824 44.3684H193.347ZM171.05 45.6316C172.076 45.6316 172.908 44.7833 172.908 43.7368C172.908 42.6904 172.076 41.8421 171.05 41.8421C170.024 41.8421 169.192 42.6904 169.192 43.7368C169.192 44.7833 170.024 45.6316 171.05 45.6316Z" fill="#C8C8C8"/>
</svg>