<svg width="25" height="25" viewBox="0 0 25 25" fill="none" xmlns="http://www.w3.org/2000/svg">
    <g clip-path="url(#clip0_2007_6551)">
        <path
            d="M25 13.1198V1.73887C25 1.24336 24.6138 0.841675 24.1375 0.841675L21.2956 0.841675C20.8193 0.841675 20.4331 1.24336 20.4331 1.73887V13.1198C20.4331 13.6154 20.8193 14.017 21.2956 14.017H24.1375C24.6138 14.017 25 13.6154 25 13.1198Z"
            fill="white" />
        <path fill-rule="evenodd" clip-rule="evenodd"
            d="M4.56631 12.8132V1.73948C4.56631 1.24602 4.17819 0.842285 3.70382 0.842285H0.861912C0.387541 0.842285 -0.000579834 1.24602 -0.000579834 1.73948L-0.000579834 14.0176H0.000522137L0.000522137 16.7247C0.000522137 17.2256 0.494295 17.6354 1.0978 17.6354H10.236V23.3445C10.236 23.84 10.6221 24.2417 11.0985 24.2417H13.9404C14.4167 24.2417 14.8029 23.84 14.8029 23.3445V17.6354H23.8552C24.4587 17.6354 24.9525 17.2256 24.9525 16.7247V12.8132H4.56631Z"
            fill="#FF5129" />
        <path
            d="M1.09851 0.758179H23.856C24.4595 0.758179 24.9532 1.168 24.9532 1.66889V4.6697C24.9532 5.1706 24.4595 5.58042 23.856 5.58042H0.00123596L0.00123596 1.66889C0.00123596 1.168 0.495009 0.758179 1.09851 0.758179Z"
            fill="white" />
    </g>
    <defs>
        <clipPath id="clip0_2007_6551">
            <rect width="25" height="25" fill="white" />
        </clipPath>
    </defs>
</svg>