<svg width="112" height="143" viewBox="0 0 112 143" fill="none" xmlns="http://www.w3.org/2000/svg">
<path d="M92.6 143H68.8C66.4 143 65.2 141.8 65.2 139.4V117.6H4.2C1.8 117.6 0.6 116.467 0.6 114.2V96.8C0.6 95.6 0.933334 94.1333 1.6 92.4L48.2 2.6C49 0.866661 50.3333 -6.67572e-06 52.2 -6.67572e-06H79C82.0667 -6.67572e-06 82.9333 1.4 81.6 4.2L37.6 90.2H65.2L67.8 64.6C68.2 62.4667 69.4667 61.4 71.6 61.4H92.6C95 61.4 96.2 62.5333 96.2 64.8V90.2H107.8C110.067 90.2 111.2 91.3333 111.2 93.6V114.2C111.2 116.467 110.067 117.6 107.8 117.6H96.2V139.4C96.2 141.8 95 143 92.6 143Z" fill="url(#paint0_linear_1_13075)"/>
<defs>
<linearGradient id="paint0_linear_1_13075" x1="56" y1="-5.59014" x2="56" y2="188" gradientUnits="userSpaceOnUse">
<stop stop-color="#FF5129"/>
<stop offset="1" stop-color="#FF5129" stop-opacity="0"/>
</linearGradient>
</defs>
</svg>
