<svg width="101" height="146" viewBox="0 0 101 146" fill="none" xmlns="http://www.w3.org/2000/svg">
<path d="M97 146H4.2C1.8 146 0.6 144.8 0.6 142.4V125C0.6 123.267 1.2 121.8 2.4 120.6L35.2 87.6C47.3333 75.4667 55.6667 66.4667 60.2 60.6C64.7333 54.6 67 48.8667 67 43.4C67 39.2667 65.6 35.8667 62.8 33.2C60.1333 30.4 55.8667 29 50 29C40.6667 29 31.2667 33.6 21.8 42.8C20.2 44.6667 18.6 44.6 17 42.6L4.6 26C3.4 24.1333 3.46667 22.4667 4.8 21C18.2667 7.26666 33.7333 0.399991 51.2 0.399991C65.4667 0.399991 76.8667 4.13332 85.4 11.6C93.9333 18.9333 98.2 29.2667 98.2 42.6C98.2 50.3333 96.4 57.6 92.8 64.4C89.3333 71.0667 83.6 79 75.6 88.2C67.0667 97.9333 57.2 107.867 46 118H97C99.4 118 100.6 119.133 100.6 121.4V142.4C100.6 144.8 99.4 146 97 146Z" fill="url(#paint0_linear_1_13073)"/>
<defs>
<linearGradient id="paint0_linear_1_13073" x1="52" y1="-2.59014" x2="52" y2="191" gradientUnits="userSpaceOnUse">
<stop stop-color="#FF5129"/>
<stop offset="1" stop-color="#FF5129" stop-opacity="0"/>
</linearGradient>
</defs>
</svg>
