<svg xmlns="http://www.w3.org/2000/svg" width="100" height="100" viewBox="0 0 100 100" fill="none">
    <path fill-rule="evenodd" clip-rule="evenodd"
        d="M40.6195 73.9649H40.28C38.365 73.9649 36.8184 75.5143 36.8184 77.4235V81.361C36.8184 83.2703 38.3649 84.8168 40.28 84.8197H59.7298C61.6362 84.8168 63.1827 83.2703 63.1827 81.361V77.4235C63.1827 75.5143 61.6362 73.9649 59.7298 73.9649H59.3932L64.9817 66.7456C66.4238 64.8799 66.7227 62.3671 65.7565 60.2112C63.2814 54.6952 57.5075 41.8556 54.0921 34.2566C53.3667 32.6462 51.7708 31.6103 50.0008 31.6103C48.2395 31.6103 46.635 32.6462 45.9096 34.2566C42.4943 41.8556 36.7321 54.6958 34.2541 60.2112C33.2879 62.367 33.578 64.8799 35.0289 66.7456L40.6195 73.9649ZM59.7298 77.0609H40.2801C40.0769 77.0609 39.9116 77.2234 39.9116 77.4236V81.3611C39.9116 81.5613 40.0769 81.7238 40.2801 81.7238H59.7298C59.933 81.7238 60.0896 81.5613 60.0896 81.3611V77.4236C60.0896 77.2234 59.933 77.0609 59.7298 77.0609ZM51.547 36.2233V49.9394C53.6275 50.5951 55.1363 52.5421 55.1363 54.8373C55.1363 57.6722 52.8353 59.9732 50.0004 59.9732C47.1656 59.9732 44.8645 57.6722 44.8645 54.8373C44.8645 52.5422 46.3733 50.5952 48.4538 49.9394V36.2233L37.1088 61.4938C36.604 62.5935 36.7607 63.8789 37.5035 64.8335L44.5747 73.9649H55.4353L62.5065 64.8335C63.2522 63.8789 63.3973 62.5935 62.904 61.4938L51.547 36.2233ZM44.6325 19.0079H28.015C27.3767 17.1741 25.6271 15.8568 23.5756 15.8568C20.9844 15.8568 18.875 17.9633 18.875 20.5574C18.875 23.1514 20.9844 25.2579 23.5756 25.2579C25.627 25.2579 27.3767 23.9377 28.015 22.1039H36.7022C27.1155 26.8393 20.4042 36.5308 19.9191 47.8208C18.0737 48.4533 16.739 50.2088 16.739 52.2719C16.739 54.8659 18.8456 56.9724 21.4396 56.9724C24.0394 56.9724 26.1402 54.8659 26.1402 52.2719C26.1402 50.2291 24.8345 48.4911 23.0152 47.8411C23.6042 35.3233 32.7267 25.0197 44.6815 22.6294C44.815 23.436 45.2038 24.1876 45.7841 24.7736C46.527 25.5164 47.5338 25.9343 48.5871 25.9343H51.4219C52.4665 25.9343 53.4821 25.5164 54.2162 24.7736C54.8081 24.1875 55.194 23.436 55.3304 22.6294C67.2852 25.0203 76.4047 35.324 76.9848 47.8411C75.1655 48.4911 73.8598 50.2291 73.8598 52.2719C73.8598 54.8659 75.9693 56.9724 78.5604 56.9724C81.1632 56.9724 83.261 54.8659 83.261 52.2719C83.261 50.2088 81.9379 48.4534 80.0896 47.8208C79.605 36.5278 72.8936 26.8363 63.3095 22.1039H71.9937C72.632 23.9377 74.373 25.2579 76.4332 25.2579C79.0243 25.2579 81.1337 23.1514 81.1337 20.5574C81.1337 17.9633 79.0243 15.8568 76.4332 15.8568C74.373 15.8568 72.632 17.1741 71.9937 19.0079H55.3762C55.3472 18.0068 54.9323 17.0523 54.2156 16.3384C53.4815 15.5956 52.4659 15.1807 51.4213 15.1807H48.5865C47.5332 15.1807 46.5264 15.5956 45.7835 16.3384C45.0756 17.0522 44.6606 18.0068 44.6316 19.0079H44.6325ZM50.0005 56.8794C48.8776 56.8794 47.9607 55.9654 47.9607 54.8367C47.9607 53.7109 48.8776 52.7969 50.0005 52.7969C51.1321 52.7969 52.0403 53.7109 52.0403 54.8367C52.0403 55.9654 51.1321 56.8794 50.0005 56.8794ZM78.5609 53.8763C77.6817 53.8763 76.9562 53.1567 76.9562 52.2716C76.9562 51.3837 77.6816 50.6641 78.5609 50.6641C79.4516 50.6641 80.1684 51.3837 80.1684 52.2716C80.1684 53.1566 79.4517 53.8763 78.5609 53.8763ZM21.4401 53.8763C20.558 53.8763 19.8326 53.1567 19.8326 52.2716C19.8326 51.3837 20.558 50.6641 21.4401 50.6641C22.328 50.6641 23.0447 51.3837 23.0447 52.2716C23.0447 53.1566 22.328 53.8763 21.4401 53.8763ZM52.2839 21.9703V19.1412C52.2839 18.912 52.1968 18.6914 52.0315 18.5289C51.8661 18.3665 51.6455 18.2736 51.4221 18.2736H48.5873C48.3551 18.2736 48.1346 18.3665 47.9779 18.5289C47.8154 18.6914 47.7168 18.912 47.7168 19.1412V21.9703C47.7168 22.2024 47.8154 22.4229 47.9779 22.5854C48.1346 22.7479 48.3551 22.8378 48.5873 22.8378H51.4221C51.6455 22.8378 51.8661 22.7479 52.0315 22.5854C52.1969 22.4229 52.2839 22.2024 52.2839 21.9703ZM76.4342 22.1618C75.5434 22.1618 74.8296 21.4422 74.8296 20.5571C74.8296 19.6693 75.5434 18.9496 76.4342 18.9496C77.3134 18.9496 78.0388 19.6692 78.0388 20.5571C78.0388 21.4421 77.3134 22.1618 76.4342 22.1618ZM23.5757 22.1618C22.6878 22.1618 21.9711 21.4422 21.9711 20.5571C21.9711 19.6693 22.6878 18.9496 23.5757 18.9496C24.4665 18.9496 25.1832 19.6692 25.1832 20.5571C25.1832 21.4421 24.4665 22.1618 23.5757 22.1618Z"
        fill="white" />
</svg>