<svg xmlns="http://www.w3.org/2000/svg" width="100" height="100" viewBox="0 0 100 100" fill="none">
    <path fill-rule="evenodd" clip-rule="evenodd"
        d="M74.1592 34.6582H68.8953V22.4034C68.8952 22.1778 68.8506 21.9544 68.764 21.746C68.6775 21.5376 68.5507 21.3483 68.3909 21.189C68.2312 21.0297 68.0415 20.9034 67.8329 20.8174C67.6243 20.7315 67.4007 20.6875 67.1751 20.688H32.8278C32.6021 20.6875 32.3786 20.7315 32.1699 20.8174C31.9613 20.9034 31.7717 21.0297 31.6119 21.189C31.4521 21.3483 31.3253 21.5376 31.2388 21.746C31.1522 21.9544 31.1076 22.1778 31.1075 22.4034V34.6582H25.8379C24.4723 34.6598 23.1631 35.2029 22.1973 36.1683C21.2315 37.1338 20.6879 38.4428 20.6858 39.8084V56.984C20.6876 58.3495 21.2311 59.6586 22.197 60.624C23.1629 61.5893 24.4723 62.1321 25.8379 62.1332H31.1075V77.5971C31.1077 77.8227 31.1524 78.046 31.239 78.2543C31.3256 78.4626 31.4524 78.6518 31.6122 78.811C31.772 78.9703 31.9616 79.0964 32.1701 79.1823C32.3787 79.2682 32.6022 79.3122 32.8278 79.3116H56.8699C57.3255 79.3112 57.7626 79.1313 58.0865 78.8109L68.3917 68.5028C68.7104 68.1799 68.891 67.7457 68.8953 67.292V62.1332H74.1592C75.5254 62.133 76.8356 61.5906 77.8021 60.6252C78.7687 59.6597 79.3125 58.3501 79.3142 56.984V39.8084C79.3122 38.4423 78.7683 37.1327 77.8019 36.1672C76.8354 35.2016 75.5254 34.6589 74.1592 34.6582ZM34.5423 24.1237H65.4549V34.6582H34.5423V24.1237ZM34.5423 51.8338H65.4549V65.5689H56.8699C56.644 65.5691 56.4203 65.6139 56.2117 65.7006C56.003 65.7874 55.8136 65.9144 55.654 66.0744C55.4945 66.2345 55.3682 66.4244 55.2821 66.6333C55.1961 66.8422 55.152 67.066 55.1525 67.292V75.8769H34.5423V51.8338ZM58.5873 73.4466V69.0036H63.0303L58.5873 73.4466ZM75.8794 56.984C75.8786 57.4397 75.6971 57.8765 75.3745 58.1985C75.052 58.5204 74.6149 58.7013 74.1592 58.7013H68.8953V51.8338H70.6098C70.8357 51.8344 71.0595 51.7904 71.2684 51.7043C71.4772 51.6183 71.667 51.4919 71.827 51.3323C71.9869 51.1728 72.1138 50.9833 72.2004 50.7746C72.287 50.566 72.3315 50.3423 72.3315 50.1164C72.3315 49.8905 72.287 49.6669 72.2004 49.4582C72.1138 49.2496 71.9869 49.0601 71.827 48.9005C71.667 48.741 71.4772 48.6146 71.2684 48.5286C71.0595 48.4425 70.8357 48.3985 70.6098 48.3991H29.3921C29.1662 48.3985 28.9424 48.4425 28.7335 48.5286C28.5247 48.6146 28.3348 48.741 28.1749 48.9005C28.015 49.0601 27.8881 49.2496 27.8015 49.4582C27.7149 49.6669 27.6704 49.8905 27.6704 50.1164C27.6704 50.3423 27.7149 50.566 27.8015 50.7746C27.8881 50.9833 28.015 51.1728 28.1749 51.3323C28.3348 51.4919 28.5247 51.6183 28.7335 51.7043C28.9424 51.7904 29.1662 51.8344 29.3921 51.8338H31.1075V58.7013H25.8379C25.6125 58.7012 25.3894 58.6567 25.1813 58.5703C24.9731 58.4839 24.784 58.3573 24.6248 58.1979C24.4656 58.0384 24.3394 57.8491 24.2533 57.6408C24.1673 57.4325 24.1231 57.2093 24.1234 56.984V39.8084C24.1232 39.5832 24.1674 39.3602 24.2535 39.1521C24.3396 38.944 24.4659 38.7549 24.6251 38.5956C24.7844 38.4364 24.9734 38.3101 25.1815 38.224C25.3896 38.1379 25.6127 38.0937 25.8379 38.0939H74.1592C74.6146 38.0933 75.0517 38.2735 75.3743 38.595C75.6968 38.9165 75.8785 39.353 75.8794 39.8084L75.8794 56.984ZM68.8953 43.2431C68.8965 43.5836 68.7965 43.9168 68.6082 44.2004C68.4199 44.484 68.1516 44.7054 67.8374 44.8365C67.5232 44.9676 67.1771 45.0025 66.843 44.9367C66.509 44.871 66.2019 44.7076 65.9607 44.4673C65.7196 44.2269 65.5552 43.9204 65.4883 43.5866C65.4215 43.2527 65.4552 42.9065 65.5853 42.5919C65.7153 42.2772 65.9358 42.0082 66.2188 41.8189C66.5018 41.6297 66.8346 41.5286 67.1751 41.5286C67.6303 41.5287 68.067 41.7091 68.3894 42.0305C68.7118 42.3519 68.8938 42.7879 68.8953 43.2431Z"
        fill="white" />
</svg>