<svg xmlns="http://www.w3.org/2000/svg" width="332" height="194" viewBox="0 0 332 194" fill="none"
    preserveAspectRatio="none">
    <g filter="url(#filter0_b_575_10471)">
        <path
            d="M197 12.5L117.774 20.4226C117.26 20.474 116.742 20.4589 116.232 20.3776L24.8095 5.80296C20.0297 5.04097 16.3613 9.96102 18.4558 14.3245L42.3993 64.2068C43.1028 65.6725 43.1814 67.3609 42.6171 68.8856L0.942946 181.495C-0.822095 186.264 3.77464 190.929 8.56945 189.234L52.6263 173.662C53.8429 173.232 55.1658 173.206 56.3986 173.587L102.273 187.775C102.756 187.924 103.255 188.012 103.76 188.036L217.848 193.469C218.281 193.49 218.716 193.463 219.143 193.39L316.817 176.714C319.324 176.286 321.288 174.324 321.72 171.818L331 117.903C331.315 116.072 330.764 114.198 329.508 112.829L288.686 68.3376C287.607 67.1613 287.041 65.6034 287.113 64.0087L289.676 7.63744C289.845 3.91274 286.612 0.937184 282.914 1.41433L197 12.5Z"
            fill="black" fill-opacity="0.15" />
        <path
            d="M197 12.5L117.774 20.4226C117.26 20.474 116.742 20.4589 116.232 20.3776L24.8095 5.80296C20.0297 5.04097 16.3613 9.96102 18.4558 14.3245L42.3993 64.2068C43.1028 65.6725 43.1814 67.3609 42.6171 68.8856L0.942946 181.495C-0.822095 186.264 3.77464 190.929 8.56945 189.234L52.6263 173.662C53.8429 173.232 55.1658 173.206 56.3986 173.587L102.273 187.775C102.756 187.924 103.255 188.012 103.76 188.036L217.848 193.469C218.281 193.49 218.716 193.463 219.143 193.39L316.817 176.714C319.324 176.286 321.288 174.324 321.72 171.818L331 117.903C331.315 116.072 330.764 114.198 329.508 112.829L288.686 68.3376C287.607 67.1613 287.041 65.6034 287.113 64.0087L289.676 7.63744C289.845 3.91274 286.612 0.937184 282.914 1.41433L197 12.5Z"
            stroke="url(#paint0_linear_575_10471)" />
    </g>
    <defs>
        <filter id="filter0_b_575_10471" x="-99.9438" y="-99.1362" width="531.531" height="393.112"
            filterUnits="userSpaceOnUse" color-interpolation-filters="sRGB">
            <feFlood flood-opacity="0" result="BackgroundImageFix" />
            <feGaussianBlur in="BackgroundImageFix" stdDeviation="50" />
            <feComposite in2="SourceAlpha" operator="in" result="effect1_backgroundBlur_575_10471" />
            <feBlend mode="normal" in="SourceGraphic" in2="effect1_backgroundBlur_575_10471" result="shape" />
        </filter>
        <linearGradient id="paint0_linear_575_10471" x1="25.7436" y1="-150.688" x2="568.945" y2="81.0031"
            gradientUnits="userSpaceOnUse">
            <stop stop-color="#CECECE" />
            <stop offset="1" stop-opacity="0" />
        </linearGradient>
    </defs>
</svg>