<svg xmlns="http://www.w3.org/2000/svg" width="336" height="207" viewBox="0 0 336 207" fill="none"
    preserveAspectRatio="none">
    <g filter="url(#filter0_b_581_13851)">
        <path
            d="M242.236 0.5H118.5L33.3657 10.3232C30.1111 10.6987 27.7594 13.6156 28.0828 16.8758L33.3473 69.956C33.4478 70.9687 33.289 71.9903 32.8859 72.9247L1.93958 144.663C1.0547 146.714 1.38275 149.087 2.79094 150.821L46.0229 204.065C47.2615 205.59 49.1684 206.413 51.1278 206.266L254.958 191.04C255.319 191.014 255.676 190.954 256.026 190.863L330.92 171.325C333.828 170.566 335.727 167.772 335.361 164.789L326.559 93.0594C326.229 90.3688 324.136 88.2337 321.453 87.8504L282.16 82.2371C281.074 82.082 280.052 81.6323 279.204 80.937L257.336 63.0054C256.156 62.0383 255.39 60.6583 255.191 59.146L248.185 5.7198C247.793 2.73325 245.248 0.5 242.236 0.5Z"
            fill="black" fill-opacity="0.15" />
        <path
            d="M242.236 0.5H118.5L33.3657 10.3232C30.1111 10.6987 27.7594 13.6156 28.0828 16.8758L33.3473 69.956C33.4478 70.9687 33.289 71.9903 32.8859 72.9247L1.93958 144.663C1.0547 146.714 1.38275 149.087 2.79094 150.821L46.0229 204.065C47.2615 205.59 49.1684 206.413 51.1278 206.266L254.958 191.04C255.319 191.014 255.676 190.954 256.026 190.863L330.92 171.325C333.828 170.566 335.727 167.772 335.361 164.789L326.559 93.0594C326.229 90.3688 324.136 88.2337 321.453 87.8504L282.16 82.2371C281.074 82.082 280.052 81.6323 279.204 80.937L257.336 63.0054C256.156 62.0383 255.39 60.6583 255.191 59.146L248.185 5.7198C247.793 2.73325 245.248 0.5 242.236 0.5Z"
            stroke="url(#paint0_linear_581_13851)" />
    </g>
    <defs>
        <filter id="filter0_b_581_13851" x="-99.0513" y="-100" width="534.957" height="406.783"
            filterUnits="userSpaceOnUse" color-interpolation-filters="sRGB">
            <feFlood flood-opacity="0" result="BackgroundImageFix" />
            <feGaussianBlur in="BackgroundImageFix" stdDeviation="50" />
            <feComposite in2="SourceAlpha" operator="in" result="effect1_backgroundBlur_581_13851" />
            <feBlend mode="normal" in="SourceGraphic" in2="effect1_backgroundBlur_581_13851" result="shape" />
        </filter>
        <linearGradient id="paint0_linear_581_13851" x1="24.7324" y1="-151.188" x2="567.934" y2="80.5031"
            gradientUnits="userSpaceOnUse">
            <stop stop-color="#CECECE" />
            <stop offset="1" stop-opacity="0" />
        </linearGradient>
    </defs>
</svg>