<svg xmlns="http://www.w3.org/2000/svg" width="100" height="100" viewBox="0 0 100 100" fill="none">
    <path
        d="M29.6926 60.3705L28.4533 59.2345L28.4533 59.2345L29.6926 60.3705ZM48.8082 61.4532L50.1679 60.4643L50.1679 60.4643L48.8082 61.4532ZM49.6227 62.5731L48.263 63.5619L48.263 63.5619L49.6227 62.5731ZM72.7804 62.8707L71.5239 63.9876L71.5239 63.9876L72.7804 62.8707ZM57.5495 62.9302L56.2842 61.823L56.2842 61.823L57.5495 62.9302ZM62.4316 58.2907L63.1164 59.8261L63.1164 59.8261L62.4316 58.2907ZM67.8623 58.2695L67.1894 59.8102L67.1894 59.8102L67.8623 58.2695ZM52.0385 65.3072L51.2552 66.7948L51.2552 66.7948L52.0385 65.3072ZM54.8977 65.436L54.2513 63.8839L54.2513 63.8839L54.8977 65.436ZM38.7326 53.1292L38.5878 51.4542L38.5878 51.4542L38.7326 53.1292ZM40.6436 53.2374L40.3106 54.8854L40.3106 54.8854L40.6436 53.2374ZM29.825 37.4528C29.825 38.3813 30.5777 39.1341 31.5062 39.1341C32.4348 39.1341 33.1875 38.3813 33.1875 37.4528H29.825ZM33.1875 25.6841C33.1875 24.7555 32.4348 24.0028 31.5062 24.0028C30.5777 24.0028 29.825 24.7555 29.825 25.6841H33.1875ZM66.8125 37.4528C66.8125 38.3813 67.5652 39.1341 68.4937 39.1341C69.4223 39.1341 70.175 38.3813 70.175 37.4528H66.8125ZM70.175 25.6841C70.175 24.7555 69.4223 24.0028 68.4937 24.0028C67.5652 24.0028 66.8125 24.7555 66.8125 25.6841H70.175ZM18.0562 66.0341L16.375 66.0341L16.375 66.0341L18.0562 66.0341ZM81.9437 66.0341L80.2625 66.0341L81.9437 66.0341ZM68.8281 23.907C67.9154 23.7362 67.0371 24.3375 66.8662 25.2502C66.6953 26.1628 67.2966 27.0412 68.2093 27.2121L68.8281 23.907ZM31.7085 27.2275C32.621 27.0555 33.2212 26.1764 33.0492 25.2639C32.8772 24.3515 31.9981 23.7512 31.0856 23.9232L31.7085 27.2275ZM22.6581 70.5326L30.9319 61.5066L28.4533 59.2345L20.1794 68.2605L22.6581 70.5326ZM47.4485 62.442L48.263 63.5619L50.9824 61.5842L50.1679 60.4643L47.4485 62.442ZM71.5239 63.9876L77.3247 70.5135L79.8378 68.2796L74.037 61.7537L71.5239 63.9876ZM58.8148 64.0373C60.0088 62.6726 60.8457 61.7178 61.5494 61.0228C62.2439 60.3368 62.7076 60.0085 63.1164 59.8261L61.7467 56.7552C60.8065 57.1746 60.0069 57.8201 59.1865 58.6305C58.3752 59.4317 57.4455 60.4959 56.2842 61.823L58.8148 64.0373ZM74.037 61.7537C72.8654 60.4356 71.9274 59.3788 71.1099 58.5839C70.2832 57.7799 69.4786 57.1407 68.5351 56.7287L67.1894 59.8102C67.5996 59.9894 68.066 60.3141 68.7658 60.9946C69.4749 61.6841 70.3192 62.6323 71.5239 63.9876L74.037 61.7537ZM63.1164 59.8261C64.4115 59.2485 65.8899 59.2427 67.1894 59.8102L68.5351 56.7287C66.3692 55.7829 63.9052 55.7925 61.7467 56.7552L63.1164 59.8261ZM48.263 63.5619C48.8222 64.3308 49.2957 64.9837 49.7198 65.4835C50.1503 65.9909 50.6315 66.4665 51.2552 66.7948L52.8217 63.8195C52.7529 63.7833 52.6007 63.6817 52.2836 63.308C51.9602 62.9268 51.572 62.395 50.9824 61.5842L48.263 63.5619ZM56.2842 61.823C55.6241 62.5775 55.1897 63.0723 54.8333 63.4229C54.4839 63.7665 54.3232 63.854 54.2513 63.8839L55.544 66.988C56.1947 66.7171 56.7168 66.2867 57.1911 65.8201C57.6585 65.3605 58.1887 64.7528 58.8148 64.0373L56.2842 61.823ZM51.2552 66.7948C52.5847 67.4948 54.157 67.5657 55.544 66.988L54.2513 63.8839C53.789 64.0765 53.2649 64.0529 52.8217 63.8195L51.2552 66.7948ZM30.9319 61.5066C33.1048 59.1362 34.6333 57.4731 35.9358 56.3573C37.2158 55.2609 38.0778 54.8733 38.8774 54.8042L38.5878 51.4542C36.7785 51.6106 35.2643 52.5051 33.7483 53.8036C32.2549 55.0829 30.5678 56.9277 28.4533 59.2345L30.9319 61.5066ZM50.1679 60.4643C48.3273 57.9335 46.8593 55.91 45.5199 54.4703C44.1602 53.0089 42.7567 51.9492 40.9766 51.5895L40.3106 54.8854C41.0973 55.0443 41.91 55.5268 43.058 56.7607C44.2262 58.0164 45.5572 59.8415 47.4485 62.442L50.1679 60.4643ZM38.8774 54.8042C39.3566 54.7628 39.8392 54.7901 40.3106 54.8854L40.9766 51.5895C40.1909 51.4307 39.3865 51.3852 38.5878 51.4542L38.8774 54.8042ZM33.1875 37.4528V25.6841H29.825V37.4528H33.1875ZM70.175 37.4528V25.6841H66.8125V37.4528H70.175ZM19.7375 66.0341V32.4091H16.375V66.0341H19.7375ZM80.2625 32.4091V66.0341H83.625V32.4091H80.2625ZM68.2093 27.2121C73.6827 28.2369 77.4593 29.6478 79.2607 31.0688L81.3431 28.4287C78.8605 26.4704 74.3848 24.9474 68.8281 23.907L68.2093 27.2121ZM79.2607 31.0688C80.1466 31.7676 80.258 32.2295 80.2623 32.3953C80.2662 32.5451 80.1949 32.9796 79.366 33.6644L81.5075 36.2567C82.7331 35.2443 83.6653 33.9178 83.6237 32.3083C83.5825 30.715 82.5992 29.4195 81.3431 28.4287L79.2607 31.0688ZM79.366 33.6644C77.6605 35.0733 73.977 36.4956 68.5533 37.5407L69.1895 40.8424C74.688 39.783 79.1042 38.2421 81.5075 36.2567L79.366 33.6644ZM68.5533 37.5407C63.2164 38.569 56.735 39.1312 50.051 39.1341L50.0524 42.4966C56.9054 42.4936 63.6042 41.9186 69.1895 40.8424L68.5533 37.5407ZM50.051 39.1341C43.3671 39.1369 36.8784 38.5803 31.5282 37.5563L30.8961 40.8589C36.4939 41.9302 43.1994 42.4995 50.0524 42.4966L50.051 39.1341ZM31.5282 37.5563C26.0926 36.5161 22.3868 35.0964 20.6585 33.6845L18.5311 36.2885C20.9533 38.2673 25.3837 39.8039 30.8961 40.8589L31.5282 37.5563ZM20.6585 33.6845C19.8159 32.9961 19.7355 32.555 19.7375 32.4019C19.7397 32.2403 19.8412 31.7848 20.7137 31.0891L18.6173 28.4601C17.3686 29.4558 16.397 30.7586 16.3754 32.3562C16.3536 33.9623 17.2984 35.2814 18.5311 36.2885L20.6585 33.6845ZM20.7137 31.0891C22.4923 29.6708 26.2469 28.2572 31.7085 27.2275L31.0856 23.9232C25.5426 24.9682 21.0812 26.4954 18.6173 28.4601L20.7137 31.0891ZM80.2625 66.0341C80.2625 66.2487 80.0744 66.9019 78.6106 67.8319C77.2273 68.7108 75.0749 69.5851 72.1598 70.3523L73.0155 73.6041C76.0909 72.7947 78.6166 71.8118 80.4137 70.6701C82.1304 69.5795 83.625 68.0489 83.625 66.0341L80.2625 66.0341ZM72.1598 70.3523C66.3493 71.8814 58.3765 72.7591 50 72.7591L50 76.1216C58.5675 76.1216 66.8447 75.228 73.0155 73.6041L72.1598 70.3523ZM50 72.7591C41.6235 72.7591 33.6507 71.8814 27.8402 70.3523L26.9845 73.6041C33.1553 75.228 41.4325 76.1216 50 76.1216L50 72.7591ZM27.8402 70.3523C24.925 69.5851 22.7727 68.7108 21.3894 67.8319C19.9256 66.9019 19.7375 66.2487 19.7375 66.0341L16.375 66.0341C16.375 68.0489 17.8696 69.5795 19.5863 70.6701C21.3834 71.8118 23.909 72.7947 26.9845 73.6041L27.8402 70.3523Z"
        fill="white" />
</svg>