<svg width="48" height="43" viewBox="0 0 48 43" fill="none" xmlns="http://www.w3.org/2000/svg">
    <path d="M47.7329 22.6351V1.79612C47.7329 0.888828 47.009 0.15332 46.116 0.15332L40.7884 0.15332C39.8954 0.15332 39.1715 0.888828 39.1715 1.79612V22.6351C39.1715 23.5424 39.8954 24.2779 40.7884 24.2779H46.116C47.009 24.2779 47.7329 23.5424 47.7329 22.6351Z" fill="white"/>
    <path fill-rule="evenodd" clip-rule="evenodd" d="M9.42758 22.0734V1.7971C9.42758 0.893558 8.69999 0.154297 7.8107 0.154297H2.48309C1.59381 0.154297 0.866211 0.893558 0.866211 1.7971V24.2788H0.867641V29.2356C0.867641 30.1527 1.7933 30.9031 2.92465 30.9031H20.0558V41.357C20.0558 42.2643 20.7797 42.9998 21.6727 42.9998H27.0003C27.8932 42.9998 28.6171 42.2643 28.6171 41.357V30.9031H45.5871C46.7185 30.9031 47.6441 30.1527 47.6441 29.2356V22.0734H9.42758Z" fill="url(#paint0_linear_1007_13805)"/>
    <path d="M27.1233 15.6771L22.4343 18.8336C22.2486 18.9582 22 18.8236 22 18.5971V17.4769C22 17.3821 22.0475 17.2929 22.1243 17.2405L26.1375 14.5386L27.1219 15.2027C27.2881 15.3146 27.2881 15.5624 27.1219 15.6743L27.1233 15.6771Z" fill="white"/>
    <path d="M26.1375 16.3412L22 13.5557V12.2841C22 12.0575 22.2486 11.923 22.4343 12.0476L27.1219 15.204C27.2881 15.3159 27.2881 15.5637 27.1219 15.6756L26.1375 16.3412Z" fill="white"/>
    <path d="M23.4788 12.7514V18.1311L22.4343 18.8349C22.2486 18.9595 22 18.825 22 18.5984V12.2841C22 12.0575 22.2486 11.923 22.4343 12.0476L23.4788 12.7514Z" fill="white"/>
    <rect x="23.1653" y="14.3652" width="1.74886" height="2.36471" fill="white"/>
    <path d="M2.92567 0L45.5881 0C46.7195 0 47.6451 0.750398 47.6451 1.66755V7.16214C47.6451 8.07929 46.7195 8.82969 45.5881 8.82969H0.868652V1.66755C0.868652 0.750398 1.79431 0 2.92567 0Z" fill="white"/>
    <defs>
        <linearGradient id="paint0_linear_1007_13805" x1="5.95077" y1="17.8149" x2="42.6934" y2="42.3248" gradientUnits="userSpaceOnUse">
            <stop stop-color="#FF5129"/>
            <stop offset="1" stop-color="#FF9400"/>
        </linearGradient>
    </defs>
</svg>
