<svg width="27" height="43" viewBox="0 0 27 43" fill="none" xmlns="http://www.w3.org/2000/svg">
<path d="M0.490082 6.87061L21.3537 6.87061V0.00117193L1.91083 0.00117193C1.12942 0.00117193 0.490082 0.584975 0.490082 1.29851L0.490082 6.87061Z" fill="white"/>
<path d="M18.3016 0.00183105L18.3016 29.9497H25.0494C25.9135 29.9497 26.6205 29.415 26.6205 28.7615V1.19C26.6205 0.536508 25.9135 0.00183105 25.0494 0.00183105L18.3016 0.00183105Z" fill="white"/>
<path d="M10.707 26.5323C10.2809 26.5323 9.93549 26.8778 9.93549 27.3039L9.93549 42.229C9.93549 42.6551 10.2809 43.0006 10.707 43.0006H16.1167C16.9083 43.0006 17.5559 42.7065 17.5559 42.3472V27.1857C17.5559 26.8264 16.9083 26.5323 16.1167 26.5323H10.707Z" fill="white"/>
<path fill-rule="evenodd" clip-rule="evenodd" d="M0.000727394 24.2658V1.13557C0.000727394 0.511949 0.707709 0.00170898 1.5718 0.00170898L8.31958 0.00170898V23.2948H25.6095C26.1677 23.2948 26.6203 23.7473 26.6203 24.3056V28.9391C26.6203 29.4973 26.1677 29.9499 25.6095 29.9499H1.01076C0.45251 29.9499 -4.12676e-05 29.4973 -4.12676e-05 28.9391V24.3056C-4.12676e-05 24.2923 0.000216225 24.279 0.000727394 24.2658Z" fill="#FF5129"/>
<path d="M15.8871 15.6772L11.1981 18.8337C11.0124 18.9583 10.7638 18.8238 10.7638 18.5972V17.4771C10.7638 17.3822 10.8113 17.293 10.8881 17.2406L14.9013 14.5387L15.8857 15.2028C16.0519 15.3147 16.0519 15.5625 15.8857 15.6744L15.8871 15.6772Z" fill="white"/>
<path d="M14.9012 16.3412L10.7637 13.5557V12.2841C10.7637 12.0575 11.0123 11.923 11.198 12.0476L15.8856 15.204C16.0518 15.3159 16.0518 15.5637 15.8856 15.6756L14.9012 16.3412Z" fill="white"/>
<path d="M12.2425 12.7514V18.1311L11.198 18.8349C11.0123 18.9595 10.7637 18.825 10.7637 18.5984V12.2841C10.7637 12.0575 11.0123 11.923 11.198 12.0476L12.2425 12.7514Z" fill="white"/>
<rect x="11.9291" y="14.365" width="1.74886" height="2.36471" fill="white"/>
</svg>
