<svg width="50" height="50" viewBox="0 0 50 50" fill="none" xmlns="http://www.w3.org/2000/svg">
<path d="M39.4668 12.8525L16.5431 12.8525V4.46545L37.9058 4.46545C38.7643 4.46545 39.4668 5.17823 39.4668 6.04941V12.8525Z" fill="white"/>
<path d="M18.3931 4.45752L18.3931 44.4226H11.7317C10.8786 44.4226 10.1807 43.709 10.1807 42.837L10.1807 6.04312C10.1807 5.17104 10.8786 4.45752 11.7317 4.45752H18.3931Z" fill="white"/>
<path fill-rule="evenodd" clip-rule="evenodd" d="M39.6711 37.7735V6.04468C39.6711 5.17174 38.9415 4.45752 38.0497 4.45752H31.0855V36.9517H11.7754C10.9672 36.9517 10.312 37.6069 10.312 38.4151V44.0789C10.312 44.8871 10.9672 45.5423 11.7754 45.5423H38.3555C39.1637 45.5423 39.8189 44.8871 39.8189 44.0789V38.4151C39.8189 38.1849 39.7658 37.9672 39.6711 37.7735Z" fill="#FF5129"/>
</svg>
