<svg width="50" height="50" viewBox="0 0 50 50" fill="none" xmlns="http://www.w3.org/2000/svg">
<path d="M15.2012 8.66553L30.5007 8.66553V3.0605L16.243 3.0605C15.67 3.0605 15.2012 3.53685 15.2012 4.11905V8.66553Z" fill="white"/>
<path d="M29.3022 3L29.3022 43.8993H33.7025C34.266 43.8993 34.7271 43.1691 34.7271 42.2766V4.62266C34.7271 3.7302 34.266 3 33.7025 3L29.3022 3Z" fill="white"/>
<path fill-rule="evenodd" clip-rule="evenodd" d="M15.0641 43.4916V4.62325C15.0641 3.73046 15.5482 3 16.1399 3H20.7602V40.2494H33.956C34.497 40.2494 34.9355 40.6879 34.9355 41.2289V45.02C34.9355 45.561 34.497 45.9995 33.956 45.9995H16.1645C15.6236 45.9995 15.185 45.561 15.185 45.02V43.4916H15.0641Z" fill="#FF5129"/>
</svg>
