<svg width="50" height="50" viewBox="0 0 50 50" fill="none" xmlns="http://www.w3.org/2000/svg">
<path d="M12.1802 9.86963L33.0438 9.86963V3.0002L13.6009 3.0002C12.8195 3.0002 12.1802 3.584 12.1802 4.29754V9.86963Z" fill="white"/>
<path d="M29.9917 3.00098L29.9917 32.9488H36.7395C37.6036 32.9488 38.3105 32.4141 38.3105 31.7607V4.18915C38.3105 3.53565 37.6036 3.00098 36.7395 3.00098L29.9917 3.00098Z" fill="white"/>
<path d="M22.397 29.5312C21.9709 29.5312 21.6255 29.8767 21.6255 30.3028V45.2279C21.6255 45.654 21.9709 45.9995 22.397 45.9995H27.8068C28.5983 45.9995 29.2459 45.7054 29.2459 45.3461V30.1846C29.2459 29.8253 28.5983 29.5312 27.8068 29.5312H22.397Z" fill="white"/>
<path fill-rule="evenodd" clip-rule="evenodd" d="M11.6905 27.2651V4.13484C11.6905 3.51122 12.3975 3.00098 13.2616 3.00098H20.0094V26.294H37.2993C37.8575 26.294 38.3101 26.7466 38.3101 27.3048V31.9383C38.3101 32.4966 37.8575 32.9491 37.2993 32.9491H12.7006C12.1423 32.9491 11.6897 32.4966 11.6897 31.9383V27.3048C11.6897 27.2915 11.69 27.2783 11.6905 27.2651Z" fill="#FF5129"/>
</svg>
