<svg width="68" height="37" viewBox="0 0 68 37" fill="none" xmlns="http://www.w3.org/2000/svg">
<path d="M67.0568 22.3657V1.63432C67.0568 0.73171 66.2958 0 65.357 0L59.7565 0C58.8178 0 58.0568 0.73171 58.0568 1.63432V22.3657C58.0568 23.2683 58.8178 24 59.7565 24H65.357C66.2958 24 67.0568 23.2683 67.0568 22.3657Z" fill="white"/>
<path fill-rule="evenodd" clip-rule="evenodd" d="M8.61806 22.0732V1.7971C8.61806 0.893558 7.89047 0.154297 7.00118 0.154297H1.67357C0.784285 0.154297 0.0566893 0.893558 0.0566893 1.7971V22.0732H0L0 29.2354C0 30.1525 0.425656 30.9029 1.55701 30.9029H13.057V36.0184C13.057 36.5605 13.818 37 14.7567 37H20.3573C21.296 37 22.057 36.5605 22.057 36.0184V30.9029H44.057V36.0184C44.057 36.5605 44.818 37 45.7567 37H51.3573C52.296 37 53.057 36.5605 53.057 36.0184V30.9029H65.557C66.6884 30.9029 67.0567 30.1525 67.0567 29.2354V22.0732H8.61806Z" fill="url(#paint0_linear_467_8134)"/>
<path d="M2.05725 0L61.2423 0C62.7903 0 64.0568 0.764872 64.0568 1.69972V7.30028C64.0568 8.23513 62.7903 9 61.2423 9H0.0567627V1.69972C0.0567627 0.764872 0.509318 0 2.05725 0Z" fill="white"/>
<defs>
<linearGradient id="paint0_linear_467_8134" x1="29.2067" y1="17.8149" x2="66.0082" y2="42.4672" gradientUnits="userSpaceOnUse">
<stop stop-color="#FF5129"/>
<stop offset="1" stop-color="#FF9400"/>
</linearGradient>
</defs>
</svg>
