<svg width="661" height="229" viewBox="0 0 661 229" fill="none" xmlns="http://www.w3.org/2000/svg">
<mask id="path-1-outside-1_1_12730" maskUnits="userSpaceOnUse" x="-2" y="-1" width="665" height="232" fill="black">
<rect fill="white" x="-2" y="-1" width="665" height="232"/>
<path d="M5.5124 0.826531H90.0802C115.185 0.826531 135.077 8.16638 149.756 22.8461C164.436 37.313 171.776 56.8859 171.776 81.5648C171.776 106.456 164.436 126.242 149.756 140.922C135.077 155.389 115.185 162.622 90.0802 162.622H51.1471V223.256C51.1471 227.085 49.3387 229 45.722 229H5.5124C1.89566 229 0.0872929 227.085 0.0872929 223.256V6.57076C0.0872929 2.74127 1.89566 0.826531 5.5124 0.826531ZM51.1471 115.073H83.0595C107.1 115.073 119.12 103.903 119.12 81.5648C119.12 59.2262 107.1 48.0568 83.0595 48.0568H51.1471V115.073ZM377.202 229H337.63C334.014 229 332.205 227.085 332.205 223.256V173.153C332.205 146.985 333.907 116.668 337.311 82.2031L336.354 81.884C324.653 109.541 312.313 134.327 299.336 156.24L257.85 225.171C256.36 227.724 254.126 229 251.148 229H208.704C205.088 229 203.279 227.085 203.279 223.256V6.57076C203.279 2.74127 205.088 0.826531 208.704 0.826531H248.276C252.105 0.826531 254.02 2.74127 254.02 6.57076V63.6939C254.02 90.5003 252.85 118.902 250.51 148.9L251.467 149.219C257.424 135.816 268.806 113.052 285.613 80.9266L328.376 4.65602C329.652 2.10303 331.78 0.826531 334.758 0.826531H377.202C381.031 0.826531 382.946 2.74127 382.946 6.57076V223.256C382.946 227.085 381.031 229 377.202 229ZM475.153 229H435.901C432.071 229 430.156 227.085 430.156 223.256V6.57076C430.156 2.74127 432.071 0.826531 435.901 0.826531H481.216C484.195 0.826531 486.322 2.2094 487.599 4.97514L516.32 60.5027C523.766 74.9696 533.34 95.9254 545.041 123.37H546.317C554.402 103.159 563.869 82.2031 574.719 60.5027L603.76 4.97514C605.036 2.2094 607.164 0.826531 610.142 0.826531H655.458C659.074 0.826531 660.883 2.74127 660.883 6.57076V223.256C660.883 227.085 659.074 229 655.458 229H615.886C612.057 229 610.142 227.085 610.142 223.256V181.131C610.142 150.283 611.206 116.243 613.333 79.0118L612.057 78.6927C604.185 97.8401 594.505 119.221 583.017 142.837L567.38 174.43C566.103 177.196 563.976 178.578 560.997 178.578H530.361C527.17 178.578 525.043 177.196 523.979 174.43L508.023 142.837C496.534 119.221 486.854 97.8401 478.982 78.6927L477.706 79.0118C479.833 116.243 480.897 150.283 480.897 181.131V223.256C480.897 227.085 478.982 229 475.153 229Z"/>
</mask>
<path d="M149.756 22.8461L148.771 23.8311L148.779 23.8382L149.756 22.8461ZM149.756 140.922L150.734 141.914L150.741 141.907L149.756 140.922ZM51.1471 162.622V161.229H49.7541V162.622H51.1471ZM51.1471 115.073H49.7541V116.466H51.1471V115.073ZM51.1471 48.0568V46.6639H49.7541V48.0568H51.1471ZM5.5124 2.2195H90.0802V-0.566437H5.5124V2.2195ZM90.0802 2.2195C114.898 2.2195 134.406 9.46568 148.771 23.831L150.741 21.8611C135.747 6.86708 115.471 -0.566437 90.0802 -0.566437V2.2195ZM148.779 23.8382C163.141 37.9927 170.383 57.1799 170.383 81.5648H173.169C173.169 56.592 165.731 36.6334 150.734 21.8539L148.779 23.8382ZM170.383 81.5648C170.383 106.166 163.139 125.569 148.771 139.937L150.741 141.907C165.733 126.915 173.169 106.747 173.169 81.5648H170.383ZM148.779 139.93C134.414 154.086 114.903 161.229 90.0802 161.229V164.015C115.466 164.015 135.739 156.692 150.734 141.914L148.779 139.93ZM90.0802 161.229H51.1471V164.015H90.0802V161.229ZM49.7541 162.622V223.256H52.5401V162.622H49.7541ZM49.7541 223.256C49.7541 224.975 49.3467 226.005 48.7781 226.608C48.2236 227.195 47.2946 227.607 45.722 227.607V230.393C47.7661 230.393 49.5496 229.848 50.8035 228.52C52.0433 227.208 52.5401 225.366 52.5401 223.256H49.7541ZM45.722 227.607H5.5124V230.393H45.722V227.607ZM5.5124 227.607C3.93974 227.607 3.01077 227.195 2.45627 226.608C1.88767 226.005 1.48026 224.975 1.48026 223.256H-1.30567C-1.30567 225.366 -0.808905 227.208 0.430864 228.52C1.68474 229.848 3.46832 230.393 5.5124 230.393V227.607ZM1.48026 223.256V6.57076H-1.30567V223.256H1.48026ZM1.48026 6.57076C1.48026 4.85152 1.88767 3.82108 2.45627 3.21903C3.01077 2.63192 3.93974 2.2195 5.5124 2.2195V-0.566437C3.46832 -0.566437 1.68474 -0.021492 0.430864 1.30614C-0.808905 2.61884 -1.30567 4.46052 -1.30567 6.57076H1.48026ZM51.1471 116.466H83.0595V113.68H51.1471V116.466ZM83.0595 116.466C95.2701 116.466 104.688 113.631 111.053 107.716C117.438 101.783 120.513 92.9762 120.513 81.5648H117.727C117.727 92.4922 114.792 100.439 109.157 105.675C103.502 110.93 94.8895 113.68 83.0595 113.68V116.466ZM120.513 81.5648C120.513 70.1535 117.438 61.3464 111.053 55.4134C104.688 49.4983 95.2701 46.6639 83.0595 46.6639V49.4498C94.8895 49.4498 103.502 52.2 109.157 57.4543C114.792 62.6906 117.727 70.6375 117.727 81.5648H120.513ZM83.0595 46.6639H51.1471V49.4498H83.0595V46.6639ZM49.7541 48.0568V115.073H52.5401V48.0568H49.7541ZM337.311 82.2031L338.698 82.34L338.807 81.2333L337.752 80.8816L337.311 82.2031ZM336.354 81.884L336.794 80.5625L335.573 80.1553L335.071 81.3412L336.354 81.884ZM299.336 156.24L300.529 156.958L300.534 156.95L299.336 156.24ZM257.85 225.171L256.656 224.452L256.651 224.46L256.646 224.469L257.85 225.171ZM250.51 148.9L249.121 148.792L249.036 149.877L250.069 150.221L250.51 148.9ZM251.467 149.219L251.027 150.541L252.226 150.94L252.74 149.785L251.467 149.219ZM285.613 80.9266L284.398 80.2454L284.388 80.263L284.379 80.2809L285.613 80.9266ZM328.376 4.65602L329.591 5.33725L329.607 5.30848L329.622 5.27898L328.376 4.65602ZM377.202 227.607H337.63V230.393H377.202V227.607ZM337.63 227.607C336.058 227.607 335.129 227.195 334.574 226.608C334.006 226.005 333.598 224.975 333.598 223.256H330.812C330.812 225.366 331.309 227.208 332.549 228.52C333.803 229.848 335.586 230.393 337.63 230.393V227.607ZM333.598 223.256V173.153H330.812V223.256H333.598ZM333.598 173.153C333.598 147.043 335.297 116.773 338.698 82.34L335.925 82.0662C332.518 116.563 330.812 146.928 330.812 173.153H333.598ZM337.752 80.8816L336.794 80.5625L335.913 83.2054L336.871 83.5246L337.752 80.8816ZM335.071 81.3412C323.39 108.951 311.078 133.679 298.137 155.53L300.534 156.95C313.549 134.974 325.915 110.132 337.637 82.4267L335.071 81.3412ZM298.142 155.521L256.656 224.452L259.043 225.889L300.529 156.958L298.142 155.521ZM256.646 224.469C255.409 226.59 253.636 227.607 251.148 227.607V230.393C254.617 230.393 257.311 228.857 259.053 225.872L256.646 224.469ZM251.148 227.607H208.704V230.393H251.148V227.607ZM208.704 227.607C207.132 227.607 206.203 227.195 205.648 226.608C205.08 226.005 204.672 224.975 204.672 223.256H201.886C201.886 225.366 202.383 227.208 203.623 228.52C204.877 229.848 206.66 230.393 208.704 230.393V227.607ZM204.672 223.256V6.57076H201.886V223.256H204.672ZM204.672 6.57076C204.672 4.85152 205.08 3.82108 205.648 3.21903C206.203 2.63192 207.132 2.2195 208.704 2.2195V-0.566437C206.66 -0.566437 204.877 -0.021492 203.623 1.30614C202.383 2.61884 201.886 4.46052 201.886 6.57076H204.672ZM208.704 2.2195H248.276V-0.566437H208.704V2.2195ZM248.276 2.2195C249.976 2.2195 250.995 2.64356 251.599 3.24757C252.203 3.85157 252.627 4.87074 252.627 6.57076H255.413C255.413 4.4413 254.88 2.58835 253.569 1.27761C252.258 -0.0331268 250.405 -0.566437 248.276 -0.566437V2.2195ZM252.627 6.57076V63.6939H255.413V6.57076H252.627ZM252.627 63.6939C252.627 90.4601 251.459 118.826 249.121 148.792L251.898 149.008C254.241 118.979 255.413 90.5405 255.413 63.6939H252.627ZM250.069 150.221L251.027 150.541L251.908 147.898L250.95 147.578L250.069 150.221ZM252.74 149.785C258.677 136.427 270.04 113.698 286.848 81.5723L284.379 80.2809C267.572 112.405 256.171 135.205 250.194 148.653L252.74 149.785ZM286.828 81.6078L329.591 5.33725L327.161 3.97479L284.398 80.2454L286.828 81.6078ZM329.622 5.27898C330.16 4.20296 330.842 3.46075 331.646 2.97836C332.453 2.49388 333.471 2.2195 334.758 2.2195V-0.566437C333.067 -0.566437 331.532 -0.202576 330.212 0.589447C328.889 1.38356 327.868 2.5561 327.13 4.03307L329.622 5.27898ZM334.758 2.2195H377.202V-0.566437H334.758V2.2195ZM377.202 2.2195C378.902 2.2195 379.921 2.64356 380.525 3.24757C381.129 3.85157 381.553 4.87074 381.553 6.57076H384.339C384.339 4.4413 383.806 2.58835 382.495 1.27761C381.184 -0.0331268 379.331 -0.566437 377.202 -0.566437V2.2195ZM381.553 6.57076V223.256H384.339V6.57076H381.553ZM381.553 223.256C381.553 224.956 381.129 225.975 380.525 226.579C379.921 227.183 378.902 227.607 377.202 227.607V230.393C379.331 230.393 381.184 229.86 382.495 228.549C383.806 227.238 384.339 225.385 384.339 223.256H381.553ZM487.599 4.97514L486.334 5.55888L486.347 5.5873L486.361 5.6151L487.599 4.97514ZM516.32 60.5027L517.558 59.8652L517.557 59.8627L516.32 60.5027ZM545.041 123.37L543.76 123.916L544.121 124.763H545.041V123.37ZM546.317 123.37V124.763H547.26L547.611 123.887L546.317 123.37ZM574.719 60.5027L573.485 59.8571L573.479 59.8684L573.474 59.8797L574.719 60.5027ZM603.76 4.97514L604.994 5.6207L605.01 5.59016L605.024 5.55888L603.76 4.97514ZM613.333 79.0118L614.724 79.0913L614.79 77.9401L613.671 77.6605L613.333 79.0118ZM612.057 78.6927L612.395 77.3414L611.227 77.0493L610.769 78.1631L612.057 78.6927ZM583.017 142.837L584.265 143.455L584.269 143.446L583.017 142.837ZM567.38 174.43L566.131 173.812L566.123 173.829L566.115 173.846L567.38 174.43ZM523.979 174.43L525.279 173.93L525.254 173.864L525.222 173.802L523.979 174.43ZM508.023 142.837L506.77 143.446L506.775 143.455L506.779 143.465L508.023 142.837ZM478.982 78.6927L480.271 78.1631L479.813 77.0493L478.644 77.3413L478.982 78.6927ZM477.706 79.0118L477.368 77.6605L476.249 77.9401L476.315 79.0913L477.706 79.0118ZM475.153 227.607H435.901V230.393H475.153V227.607ZM435.901 227.607C434.201 227.607 433.181 227.183 432.577 226.579C431.973 225.975 431.549 224.956 431.549 223.256H428.763C428.763 225.385 429.297 227.238 430.607 228.549C431.918 229.86 433.771 230.393 435.901 230.393V227.607ZM431.549 223.256V6.57076H428.763V223.256H431.549ZM431.549 6.57076C431.549 4.87074 431.973 3.85157 432.577 3.24757C433.181 2.64356 434.201 2.2195 435.901 2.2195V-0.566437C433.771 -0.566437 431.918 -0.0331268 430.607 1.27761C429.297 2.58835 428.763 4.4413 428.763 6.57076H431.549ZM435.901 2.2195H481.216V-0.566437H435.901V2.2195ZM481.216 2.2195C482.484 2.2195 483.486 2.51106 484.287 3.03161C485.089 3.55345 485.783 4.36627 486.334 5.55888L488.863 4.39141C488.137 2.81827 487.129 1.55679 485.805 0.695763C484.478 -0.166565 482.927 -0.566437 481.216 -0.566437V2.2195ZM486.361 5.6151L515.083 61.1426L517.557 59.8627L488.836 4.33518L486.361 5.6151ZM515.081 61.1402C522.504 75.5622 532.063 96.4818 543.76 123.916L546.322 122.824C534.617 95.3691 525.028 74.377 517.558 59.8652L515.081 61.1402ZM545.041 124.763H546.317V121.977H545.041V124.763ZM547.611 123.887C555.679 103.716 565.13 82.7953 575.965 61.1256L573.474 59.8797C562.608 81.6108 553.124 102.602 545.024 122.853L547.611 123.887ZM575.954 61.1482L604.994 5.6207L602.525 4.32959L573.485 59.8571L575.954 61.1482ZM605.024 5.55888C605.575 4.36627 606.269 3.55345 607.072 3.03161C607.873 2.51106 608.875 2.2195 610.142 2.2195V-0.566437C608.431 -0.566437 606.88 -0.166565 605.554 0.695763C604.229 1.55679 603.221 2.81828 602.495 4.39141L605.024 5.55888ZM610.142 2.2195H655.458V-0.566437H610.142V2.2195ZM655.458 2.2195C657.03 2.2195 657.959 2.63193 658.514 3.21903C659.082 3.82108 659.49 4.85152 659.49 6.57076H662.276C662.276 4.46052 661.779 2.61884 660.539 1.30614C659.285 -0.021492 657.502 -0.566437 655.458 -0.566437V2.2195ZM659.49 6.57076V223.256H662.276V6.57076H659.49ZM659.49 223.256C659.49 224.975 659.082 226.005 658.514 226.608C657.959 227.195 657.03 227.607 655.458 227.607V230.393C657.502 230.393 659.285 229.848 660.539 228.52C661.779 227.208 662.276 225.366 662.276 223.256H659.49ZM655.458 227.607H615.886V230.393H655.458V227.607ZM615.886 227.607C614.186 227.607 613.167 227.183 612.563 226.579C611.959 225.975 611.535 224.956 611.535 223.256H608.749C608.749 225.385 609.283 227.238 610.593 228.549C611.904 229.86 613.757 230.393 615.886 230.393V227.607ZM611.535 223.256V181.131H608.749V223.256H611.535ZM611.535 181.131C611.535 150.314 612.598 116.301 614.724 79.0913L611.943 78.9324C609.814 116.185 608.749 150.252 608.749 181.131H611.535ZM613.671 77.6605L612.395 77.3414L611.719 80.0441L612.996 80.3632L613.671 77.6605ZM610.769 78.1631C602.91 97.2775 593.243 118.632 581.764 142.227L584.269 143.446C595.767 119.811 605.46 98.4027 613.345 79.2224L610.769 78.1631ZM581.768 142.219L566.131 173.812L568.628 175.048L584.265 143.454L581.768 142.219ZM566.115 173.846C565.564 175.039 564.87 175.852 564.067 176.373C563.267 176.894 562.265 177.185 560.997 177.185V179.971C562.708 179.971 564.259 179.572 565.586 178.709C566.91 177.848 567.918 176.587 568.644 175.014L566.115 173.846ZM560.997 177.185H530.361V179.971H560.997V177.185ZM530.361 177.185C528.966 177.185 527.917 176.884 527.131 176.373C526.353 175.868 525.724 175.086 525.279 173.93L522.679 174.93C523.298 176.539 524.264 177.832 525.613 178.709C526.955 179.581 528.565 179.971 530.361 179.971V177.185ZM525.222 173.802L509.266 142.209L506.779 143.465L522.735 175.058L525.222 173.802ZM509.275 142.227C497.796 118.632 488.129 97.2775 480.271 78.1631L477.694 79.2224C485.579 98.4027 495.272 119.811 506.77 143.446L509.275 142.227ZM478.644 77.3413L477.368 77.6605L478.044 80.3632L479.32 80.0441L478.644 77.3413ZM476.315 79.0913C478.441 116.301 479.504 150.314 479.504 181.131H482.29C482.29 150.252 481.225 116.185 479.097 78.9324L476.315 79.0913ZM479.504 181.131V223.256H482.29V181.131H479.504ZM479.504 223.256C479.504 224.956 479.08 225.975 478.476 226.579C477.872 227.183 476.853 227.607 475.153 227.607V230.393C477.282 230.393 479.135 229.86 480.446 228.549C481.757 227.238 482.29 225.385 482.29 223.256H479.504Z" fill="url(#paint0_linear_1_12730)" mask="url(#path-1-outside-1_1_12730)"/>
<defs>
<linearGradient id="paint0_linear_1_12730" x1="330.5" y1="-82" x2="330.5" y2="301" gradientUnits="userSpaceOnUse">
<stop stop-color="white"/>
<stop offset="1" stop-color="white" stop-opacity="0"/>
</linearGradient>
</defs>
</svg>
