<svg width="165" height="187" viewBox="0 0 165 187" fill="none" xmlns="http://www.w3.org/2000/svg">
<path opacity="0.5" fill-rule="evenodd" clip-rule="evenodd" d="M25.4375 44.3554C25.5575 44.2398 25.6779 44.1245 25.7986 44.0096C27.6522 42.2452 29.587 40.5682 31.5968 38.9839C31.7276 38.8807 31.8588 38.7779 31.9904 38.6755L82.6056 103.69L25.4375 44.3554ZM26.1455 44.3696L76.3825 96.5107L31.9039 39.3784C29.9081 40.9519 27.9865 42.6175 26.1455 44.3696Z" fill="white"/>
<path opacity="0.5" fill-rule="evenodd" clip-rule="evenodd" d="M19.5615 50.6406C19.6688 50.513 19.7765 50.3858 19.8846 50.259C21.5441 48.3109 23.2935 46.4412 25.127 44.656C25.2464 44.5398 25.3662 44.4239 25.4863 44.3084C25.4863 44.3083 25.4863 44.3084 25.4863 44.3084L82.6057 103.69L19.5615 50.6406ZM20.2672 50.5809L75.6678 97.1986L25.4737 45.0164C23.6528 46.7894 21.9154 48.6463 20.2672 50.5809Z" fill="white"/>
<path opacity="0.5" fill-rule="evenodd" clip-rule="evenodd" d="M14.3662 57.5143C14.4596 57.3762 14.5534 57.2385 14.6477 57.101C16.0947 54.9903 17.6392 52.9482 19.2763 50.9812C19.3829 50.8531 19.49 50.7254 19.5973 50.5979L82.6056 103.69L14.3662 57.5143ZM15.0618 57.3812L75.0277 97.9587L19.6587 51.3034C18.0329 53.2569 16.4989 55.2851 15.0618 57.3812Z" fill="white"/>
<path opacity="0.5" fill-rule="evenodd" clip-rule="evenodd" d="M9.93164 64.8647C10.0102 64.7177 10.0892 64.571 10.1686 64.4244C11.3881 62.1747 12.7118 59.9829 14.1354 57.8563C14.2256 57.7215 14.3162 57.587 14.4073 57.4527C14.4098 57.449 14.4123 57.4453 14.4148 57.4417L82.605 103.69L9.93164 64.8647ZM10.6096 64.6601L74.4718 98.7782L14.5492 58.137C13.1355 60.249 11.8209 62.4257 10.6096 64.6601Z" fill="white"/>
<path opacity="0.5" fill-rule="evenodd" clip-rule="evenodd" d="M6.31445 72.5681C6.31446 72.5681 6.31445 72.5681 6.31445 72.5681C6.37741 72.4138 6.44084 72.2596 6.50472 72.1057C7.4857 69.7421 8.57626 67.4255 9.77286 65.1634C9.85078 65.0161 9.92916 64.869 10.008 64.7222L82.605 103.69L6.31445 72.5681ZM6.96769 72.2946L74.0086 99.6433L10.2134 65.3999C9.0251 67.6465 7.94202 69.9472 6.96769 72.2946Z" fill="white"/>
<path opacity="0.5" fill-rule="evenodd" clip-rule="evenodd" d="M3.51758 80.5834C3.56432 80.4234 3.61155 80.2636 3.65926 80.1039C4.39183 77.6519 5.23823 75.2354 6.19572 72.8622C6.25806 72.7077 6.32088 72.5533 6.38417 72.3992C6.38418 72.3992 6.38416 72.3992 6.38417 72.3992L82.6055 103.69L3.51758 80.5834ZM4.1392 80.2442L73.6383 100.55L6.65827 73.0521C5.70743 75.4091 4.86683 77.809 4.1392 80.2442Z" fill="white"/>
<path opacity="0.5" fill-rule="evenodd" clip-rule="evenodd" d="M1.54297 88.9344C1.57282 88.7705 1.60316 88.6066 1.63401 88.4428C2.10758 85.9279 2.69805 83.4365 3.40352 80.9765C3.44851 80.8196 3.49397 80.6629 3.53991 80.5062C3.54087 80.5029 3.54184 80.4996 3.54281 80.4963L82.6053 103.69L1.54297 88.9344ZM2.12593 88.5323L73.36 101.499L3.88331 81.1173C3.18277 83.5604 2.59635 86.0347 2.12593 88.5323Z" fill="white"/>
<path opacity="0.5" fill-rule="evenodd" clip-rule="evenodd" d="M0.444336 97.4869C0.456885 97.3207 0.469937 97.1545 0.483493 96.9884C0.691643 94.4378 1.01851 91.8983 1.46303 89.3781C1.49139 89.2173 1.52023 89.0566 1.54954 88.896C1.55015 88.8927 1.55076 88.8893 1.55137 88.886L82.6049 103.69L0.444336 97.4869ZM0.982083 97.0261L73.1813 102.477L1.9549 89.468C1.51352 91.9709 1.1889 94.493 0.982083 97.0261Z" fill="white"/>
<path opacity="0.5" fill-rule="evenodd" clip-rule="evenodd" d="M0.244363 106.037C0.239616 105.87 0.235375 105.704 0.231639 105.537C0.174277 102.979 0.236139 100.419 0.417024 97.8663C0.428803 97.7 0.441087 97.5338 0.453875 97.3677C0.453877 97.3677 0.453874 97.3677 0.453875 97.3677L82.6053 103.69L0.244363 106.037ZM0.731446 105.523L73.1067 103.461L0.915559 97.9046C0.736009 100.44 0.674571 102.982 0.731446 105.523Z" fill="white"/>
<path opacity="0.5" fill-rule="evenodd" clip-rule="evenodd" d="M0.933119 114.577C0.932728 114.574 0.932339 114.571 0.931949 114.568C0.910333 114.406 0.889202 114.244 0.868555 114.081C0.545815 111.543 0.341521 108.99 0.256338 106.433C0.250836 106.268 0.245831 106.102 0.241324 105.937C0.241286 105.936 0.241249 105.934 0.241211 105.933L82.605 103.69L0.933119 114.577ZM1.36418 114.015C1.04375 111.494 0.840855 108.959 0.756162 106.419L73.134 104.448L1.36418 114.015Z" fill="white"/>
<path opacity="0.5" fill-rule="evenodd" clip-rule="evenodd" d="M4.98204 131.322C4.98031 131.317 4.97857 131.312 4.97684 131.307C4.92271 131.155 4.86902 131.003 4.81579 130.85C3.97223 128.434 3.24168 125.98 2.62653 123.496C2.58744 123.338 2.54883 123.18 2.51067 123.022C2.50972 123.018 2.50877 123.014 2.50781 123.01L82.605 103.69L4.98204 131.322ZM5.28685 130.683C4.44916 128.283 3.72362 125.846 3.1126 123.379L73.4986 106.401L5.28685 130.683Z" fill="white"/>
<path opacity="0.5" fill-rule="evenodd" clip-rule="evenodd" d="M8.30631 139.305C8.30548 139.303 8.30465 139.302 8.30381 139.3C8.23261 139.151 8.16186 139.003 8.09156 138.854C6.99942 136.539 6.01569 134.175 5.14358 131.77C5.08841 131.617 5.0337 131.465 4.97942 131.312C4.97782 131.308 4.97621 131.303 4.97461 131.299L82.6057 103.69L8.30631 139.305ZM8.54244 138.638C7.45788 136.339 6.4809 133.991 5.61468 131.602L73.8336 107.341L8.54244 138.638Z" fill="white"/>
<path opacity="0.5" fill-rule="evenodd" clip-rule="evenodd" d="M12.4389 146.881C12.3515 146.739 12.2646 146.597 12.1781 146.454C10.8499 144.267 9.62432 142.019 8.50535 139.717C8.43333 139.569 8.36176 139.421 8.29063 139.272C8.28978 139.271 8.28893 139.269 8.28809 139.267L82.6057 103.69L12.4389 146.881ZM74.2635 108.238L12.6039 146.192C11.2849 144.02 10.0677 141.787 8.95635 139.502L74.2635 108.238Z" fill="white"/>
<path opacity="0.5" fill-rule="evenodd" clip-rule="evenodd" d="M17.3141 153.948C17.2125 153.816 17.1112 153.683 17.0104 153.551C15.4617 151.513 14.0089 149.405 12.6565 147.233C12.5684 147.091 12.4808 146.949 12.3936 146.807L82.6057 103.69L17.3141 153.948ZM74.782 109.081L17.4066 153.246C15.8687 151.222 14.4258 149.129 13.0826 146.971L74.782 109.081Z" fill="white"/>
<path opacity="0.5" fill-rule="evenodd" clip-rule="evenodd" d="M22.9297 160.503C22.9271 160.5 22.9245 160.498 22.9219 160.495C22.8096 160.377 22.6976 160.259 22.586 160.14C20.8328 158.276 19.1673 156.331 17.5951 154.312C17.4949 154.183 17.3952 154.054 17.2958 153.925C17.2936 153.922 17.2913 153.919 17.2891 153.916L82.6049 103.69L22.9297 160.503ZM75.3882 109.87L22.9482 159.795C21.207 157.944 19.553 156.012 17.9914 154.007L75.3882 109.87Z" fill="white"/>
<path opacity="0.5" fill-rule="evenodd" clip-rule="evenodd" d="M29.1526 166.393C29.1523 166.393 29.1528 166.394 29.1526 166.393C29.026 166.285 28.899 166.177 28.7731 166.068C26.8357 164.396 24.9773 162.635 23.2038 160.79C23.0883 160.67 22.9732 160.549 22.8584 160.428L82.6048 103.69L29.1526 166.393ZM29.0974 165.687L76.069 110.586L23.5664 160.445C25.3277 162.278 27.1734 164.027 29.0974 165.687Z" fill="white"/>
<path opacity="0.5" fill-rule="evenodd" clip-rule="evenodd" d="M35.9221 171.583C35.9183 171.581 35.9146 171.578 35.9109 171.576C35.7773 171.484 35.644 171.391 35.5109 171.299C33.4111 169.836 31.3805 168.276 29.4259 166.625C29.3011 166.519 29.1767 166.413 29.0525 166.307C29.05 166.305 29.0475 166.303 29.0449 166.301L82.6057 103.69L35.9221 171.583ZM35.7942 170.887L76.8177 111.225L29.7509 166.245C31.6922 167.885 33.7088 169.434 35.7942 170.887Z" fill="white"/>
<path opacity="0.5" fill-rule="evenodd" clip-rule="evenodd" d="M43.2036 176.053C43.0573 175.973 42.9111 175.893 42.7652 175.812C40.5252 174.575 38.344 173.234 36.2288 171.794C36.0947 171.702 35.9608 171.61 35.8272 171.518C35.8236 171.516 35.82 171.513 35.8164 171.511L82.6052 103.69L43.2036 176.053ZM43.0044 175.373L77.6288 111.784L36.5128 171.382C38.6135 172.812 40.7797 174.144 43.0044 175.373Z" fill="white"/>
<path opacity="0.5" fill-rule="evenodd" clip-rule="evenodd" d="M50.8881 179.735C50.8879 179.735 50.8883 179.735 50.8881 179.735C50.7345 179.671 50.5805 179.606 50.4272 179.541C48.0714 178.542 45.7634 177.433 43.5107 176.219C43.373 176.145 43.2355 176.07 43.0982 175.995C43.0892 175.99 43.0802 175.986 43.0713 175.981L82.6051 103.69L50.8881 179.735ZM50.6197 179.08L78.4912 112.255L43.7506 175.781C45.9879 176.986 48.2801 178.087 50.6197 179.08Z" fill="white"/>
<path opacity="0.5" fill-rule="evenodd" clip-rule="evenodd" d="M59.0214 182.637C58.8617 182.589 58.7021 182.541 58.5427 182.493C56.0952 181.745 53.6838 180.884 51.3165 179.912C51.1725 179.853 51.0288 179.794 50.8852 179.734C50.8749 179.73 50.8647 179.725 50.8545 179.721L82.6055 103.69L59.0214 182.637ZM58.6858 182.013L79.4105 112.638L51.5091 179.451C53.8603 180.416 56.2551 181.271 58.6858 182.013Z" fill="white"/>
<path opacity="0.5" fill-rule="evenodd" clip-rule="evenodd" d="M67.2913 184.649C67.1275 184.618 66.9639 184.586 66.8003 184.554C64.2887 184.064 61.8014 183.456 59.3464 182.733C59.1865 182.686 59.0268 182.639 58.8672 182.591L82.6057 103.69L67.2913 184.649ZM66.8932 184.063L80.3508 112.92L59.4905 182.255C61.9287 182.972 64.3989 183.575 66.8932 184.063Z" fill="white"/>
<path opacity="0.5" fill-rule="evenodd" clip-rule="evenodd" d="M75.8937 185.811C75.7276 185.797 75.5615 185.783 75.3955 185.768C72.8462 185.545 70.3088 185.202 67.7914 184.742C67.6274 184.712 67.4636 184.681 67.2998 184.65L82.6056 103.69L75.8937 185.811ZM75.4362 185.27L81.3343 113.106L67.8843 184.251C70.3844 184.707 72.9044 185.048 75.4362 185.27Z" fill="white"/>
<path opacity="0.5" fill-rule="evenodd" clip-rule="evenodd" d="M92.9416 185.434C92.7763 185.455 92.6108 185.475 92.4454 185.495C89.9046 185.8 87.351 185.988 84.7928 186.056C84.6262 186.06 84.4596 186.064 84.293 186.067L82.6055 103.69L92.9416 185.434ZM92.3827 184.999C89.8593 185.302 87.3232 185.488 84.7826 185.556L83.2997 113.166L92.3827 184.999Z" fill="white"/>
<path opacity="0.5" fill-rule="evenodd" clip-rule="evenodd" d="M101.352 183.924C101.19 183.961 101.027 183.999 100.865 184.036C98.3694 184.603 95.8489 185.054 93.3115 185.386C93.1462 185.408 92.9809 185.429 92.8155 185.45L82.6055 103.69L101.352 183.924ZM100.751 183.549C98.2727 184.112 95.7695 184.56 93.2495 184.89L84.2774 113.043L100.751 183.549Z" fill="white"/>
<path opacity="0.5" fill-rule="evenodd" clip-rule="evenodd" d="M109.566 181.549C109.561 181.551 109.557 181.552 109.552 181.554C109.399 181.607 109.246 181.659 109.093 181.711C106.669 182.534 104.209 183.243 101.72 183.837C101.558 183.875 101.395 183.914 101.233 183.951L82.6055 103.69L109.566 181.549ZM108.929 181.239C106.522 182.056 104.079 182.76 101.607 183.35L85.2376 112.82L108.929 181.239Z" fill="white"/>
<path opacity="0.5" fill-rule="evenodd" clip-rule="evenodd" d="M117.504 178.329C117.504 178.329 117.505 178.329 117.504 178.329C117.354 178.399 117.202 178.469 117.051 178.539C114.726 179.609 112.353 180.57 109.939 181.419C109.793 181.47 109.647 181.521 109.502 181.571C109.49 181.575 109.478 181.579 109.466 181.583L82.6055 103.69L117.504 178.329ZM116.839 178.086C114.53 179.149 112.173 180.103 109.776 180.946L86.1714 112.497L116.839 178.086Z" fill="white"/>
<path opacity="0.5" fill-rule="evenodd" clip-rule="evenodd" d="M125.122 174.268C124.979 174.354 124.836 174.439 124.693 174.524C122.493 175.832 120.233 177.035 117.921 178.132C117.78 178.199 117.638 178.266 117.496 178.332C117.487 178.337 117.478 178.341 117.469 178.345L82.6055 103.69L125.122 174.268ZM87.0732 112.076L124.435 174.096C122.25 175.394 120.006 176.59 117.71 177.679L87.0732 112.076Z" fill="white"/>
<path opacity="0.5" fill-rule="evenodd" clip-rule="evenodd" d="M138.932 163.824C138.811 163.938 138.689 164.052 138.566 164.165C136.688 165.903 134.73 167.553 132.698 169.109C132.566 169.21 132.433 169.311 132.3 169.411L82.6055 103.69L138.932 163.824ZM88.7269 110.957L138.224 163.8C136.359 165.526 134.414 167.165 132.396 168.71L88.7269 110.957Z" fill="white"/>
<path opacity="0.5" fill-rule="evenodd" clip-rule="evenodd" d="M144.891 157.629C144.881 157.64 144.872 157.65 144.863 157.661C144.763 157.776 144.663 157.891 144.562 158.006C142.875 159.93 141.099 161.775 139.241 163.534C139.12 163.648 138.999 163.762 138.877 163.876C138.877 163.876 138.877 163.876 138.877 163.876L82.6055 103.69L144.891 157.629ZM144.184 157.679L89.4507 110.28L138.899 163.169C140.745 161.422 142.509 159.59 144.184 157.679Z" fill="white"/>
<path opacity="0.5" fill-rule="evenodd" clip-rule="evenodd" d="M150.177 150.838C150.082 150.975 149.986 151.111 149.89 151.247C148.413 153.337 146.839 155.357 145.174 157.3C145.065 157.427 144.957 157.553 144.847 157.679L82.6055 103.69L150.177 150.838ZM149.48 150.961L90.1006 109.53L144.796 156.973C146.45 155.042 148.013 153.037 149.48 150.961Z" fill="white"/>
<path opacity="0.5" fill-rule="evenodd" clip-rule="evenodd" d="M154.757 143.476C154.753 143.484 154.749 143.492 154.744 143.5C154.668 143.638 154.592 143.776 154.515 143.913C153.265 146.147 151.913 148.321 150.461 150.428C150.367 150.565 150.272 150.702 150.176 150.839L82.6055 103.69L154.757 143.476ZM154.077 143.672L90.6728 108.71L150.051 150.142C151.493 148.049 152.836 145.89 154.077 143.672Z" fill="white"/>
<path opacity="0.5" fill-rule="evenodd" clip-rule="evenodd" d="M158.521 135.716C158.456 135.869 158.391 136.023 158.325 136.176C157.316 138.528 156.198 140.831 154.975 143.079C154.896 143.225 154.816 143.371 154.735 143.516C154.735 143.517 154.735 143.517 154.735 143.517L82.6055 103.69L158.521 135.716ZM157.865 135.982L91.1532 107.839L154.537 142.837C155.752 140.605 156.863 138.317 157.865 135.982Z" fill="white"/>
<path opacity="0.5" fill-rule="evenodd" clip-rule="evenodd" d="M163.499 119.347C163.498 119.351 163.497 119.355 163.496 119.359C163.465 119.519 163.434 119.678 163.402 119.838C162.901 122.347 162.282 124.832 161.55 127.284C161.505 127.432 161.46 127.581 161.415 127.729C161.412 127.74 161.408 127.751 161.405 127.763L82.6055 103.69L163.499 119.347ZM162.911 119.743L91.8258 105.984L161.071 127.138C161.799 124.703 162.413 122.235 162.911 119.743Z" fill="white"/>
<path opacity="0.5" fill-rule="evenodd" clip-rule="evenodd" d="M164.692 110.801C164.678 110.967 164.663 111.133 164.648 111.299C164.411 113.847 164.057 116.383 163.584 118.898C163.553 119.062 163.522 119.225 163.49 119.389L82.6055 103.69L164.692 110.801ZM164.15 111.256L92.0151 105.007L163.093 118.802C163.562 116.305 163.915 113.786 164.15 111.256Z" fill="white"/>
<path opacity="0.5" fill-rule="evenodd" clip-rule="evenodd" d="M164.988 102.315C164.991 102.482 164.993 102.649 164.995 102.815C165.022 105.374 164.93 107.933 164.719 110.483C164.706 110.65 164.691 110.816 164.677 110.982L82.6055 103.69L164.988 102.315ZM164.495 102.824L92.1007 104.032L164.221 110.439C164.431 107.906 164.522 105.365 164.495 102.824Z" fill="white"/>
<path opacity="0.5" fill-rule="evenodd" clip-rule="evenodd" d="M164.399 93.7559C164.419 93.9213 164.438 94.0868 164.458 94.2524C164.751 96.7946 164.925 99.3491 164.981 101.908C164.984 102.062 164.987 102.217 164.989 102.371C164.989 102.383 164.99 102.396 164.99 102.408L82.6055 103.69L164.399 93.7559ZM163.961 94.3127L92.0847 103.043L164.481 101.915C164.426 99.3745 164.252 96.8375 163.961 94.3127Z" fill="white"/>
<path opacity="0.5" fill-rule="evenodd" clip-rule="evenodd" d="M162.911 85.2546C162.948 85.4171 162.985 85.5796 163.021 85.7423C163.579 88.2399 164.02 90.7622 164.342 93.3008C164.362 93.4545 164.381 93.6082 164.399 93.762C164.401 93.7736 164.402 93.7853 164.404 93.797L82.6055 103.69L162.911 85.2546ZM162.534 85.8542L91.965 102.055L163.846 93.3609C163.525 90.8396 163.087 88.3347 162.534 85.8542Z" fill="white"/>
<path opacity="0.5" fill-rule="evenodd" clip-rule="evenodd" d="M157.325 68.9648C157.395 69.116 157.465 69.2673 157.534 69.4189C158.599 71.7461 159.554 74.1216 160.397 76.5378C160.452 76.6951 160.507 76.8526 160.561 77.0103L82.6055 103.69L157.325 68.9648ZM157.081 69.6296L91.4205 100.145L159.924 76.6997C159.087 74.3001 158.138 71.9409 157.081 69.6296Z" fill="white"/>
<path opacity="0.5" fill-rule="evenodd" clip-rule="evenodd" d="M153.281 61.3376C153.287 61.3476 153.293 61.3577 153.299 61.3677C153.379 61.5007 153.458 61.6339 153.537 61.7673C154.839 63.9704 156.038 66.2329 157.129 68.5475C157.199 68.6949 157.268 68.8424 157.337 68.9902C157.338 68.9936 157.34 68.997 157.341 69.0004L82.6055 103.69L153.281 61.3376ZM153.108 62.0243L91.0012 99.242L156.676 68.758C155.592 66.4593 154.401 64.2123 153.108 62.0243Z" fill="white"/>
<path opacity="0.5" fill-rule="evenodd" clip-rule="evenodd" d="M148.51 54.2388C148.516 54.2464 148.521 54.2541 148.527 54.2618C148.621 54.3875 148.715 54.5134 148.809 54.6396C150.332 56.6958 151.759 58.8219 153.085 61.0109C153.171 61.1534 153.257 61.2962 153.342 61.4393L82.6055 103.69L148.51 54.2388ZM148.409 54.9397L90.4948 98.3956L152.655 61.2673C151.339 59.0933 149.922 56.9819 148.409 54.9397Z" fill="white"/>
<path opacity="0.5" fill-rule="evenodd" clip-rule="evenodd" d="M142.932 47.5691C143.045 47.6911 143.158 47.8135 143.271 47.9362C145.003 49.8204 146.646 51.7843 148.195 53.8214C148.296 53.9541 148.396 54.0871 148.496 54.2203L82.6055 103.69L142.932 47.5691ZM142.905 48.2768L89.8929 97.5936L147.795 54.1216C146.256 52.0985 144.625 50.1481 142.905 48.2768Z" fill="white"/>
<path opacity="0.5" fill-rule="evenodd" clip-rule="evenodd" d="M136.789 41.6182C136.915 41.7278 137.04 41.8378 137.165 41.9481C139.083 43.6427 140.92 45.4256 142.672 47.2912C142.779 47.4049 142.885 47.519 142.991 47.6333C142.998 47.6411 143.006 47.649 143.013 47.6568L82.6055 103.69L136.789 41.6182ZM136.836 42.3248L89.2217 96.8712L142.305 47.6313C140.566 45.7785 138.74 44.0078 136.836 42.3248Z" fill="white"/>
<path opacity="0.5" fill-rule="evenodd" clip-rule="evenodd" d="M130.099 36.3611C130.235 36.4572 130.371 36.5536 130.506 36.6505C132.589 38.1383 134.6 39.7222 136.535 41.3972C136.661 41.5063 136.787 41.6158 136.912 41.7256L82.6055 103.69L130.099 36.3611ZM130.218 37.0591L88.4832 96.2252L136.206 41.7733C134.284 40.1098 132.286 38.5367 130.218 37.0591Z" fill="white"/>
<path opacity="0.5" fill-rule="evenodd" clip-rule="evenodd" d="M122.883 31.8113C123.028 31.8928 123.173 31.9747 123.318 32.057C125.543 33.3215 127.708 34.689 129.805 36.1549C129.94 36.2489 130.074 36.3433 130.208 36.4381C130.21 36.4396 130.212 36.4411 130.214 36.4426L82.6055 103.69L122.883 31.8113ZM123.074 32.4932L87.6798 95.6574L129.516 36.563C127.433 35.1072 125.283 33.7491 123.074 32.4932Z" fill="white"/>
<path d="M82.3947 21.5068C64.2202 21.5068 46.5557 27.5159 32.1514 38.5985L82.3947 103.901V21.5068Z" fill="#8F62E4"/>
<path d="M0.931641 114.561C1.31328 117.428 1.84564 120.273 2.52652 123.085L82.6058 103.69L0.931641 114.561Z" fill="#8F62E4"/>
<path d="M75.7002 185.795C78.5826 186.037 81.4759 186.128 84.3678 186.066L82.6048 103.69L75.7002 185.795Z" fill="#8F62E4"/>
<path d="M125.122 174.267C127.6 172.775 129.998 171.153 132.305 169.408L82.6055 103.69L125.122 174.267Z" fill="#8F62E4"/>
<path d="M158.501 135.763C159.627 133.099 160.612 130.377 161.452 127.609L82.6055 103.69L158.501 135.763Z" fill="#8F62E4"/>
<path d="M162.91 85.2519C162.263 82.4326 161.468 79.6494 160.528 76.9138L82.6055 103.69L162.91 85.2519Z" fill="#8F62E4"/>
<path d="M122.998 31.8762C120.477 30.4581 117.883 29.1738 115.226 28.0286L82.6055 103.69L122.998 31.8762Z" fill="#8F62E4"/>
<path opacity="0.5" fill-rule="evenodd" clip-rule="evenodd" d="M107.252 25.0686C107.252 25.0686 107.252 25.0686 107.252 25.0686C107.411 25.1184 107.57 25.1688 107.729 25.2196C110.166 25.9999 112.565 26.8933 114.919 27.897C115.068 27.9601 115.216 28.0237 115.363 28.0878C115.368 28.09 115.374 28.0922 115.379 28.0945L82.6055 103.69L107.252 25.0686ZM107.579 25.6967L85.9208 94.7861L114.721 28.3557C112.383 27.3591 110 26.4718 107.579 25.6967Z" fill="white"/>
<path opacity="0.5" fill-rule="evenodd" clip-rule="evenodd" d="M98.9041 22.9241C99.0674 22.957 99.2307 22.9905 99.3939 23.0245C101.899 23.5459 104.379 24.1838 106.825 24.936C106.984 24.985 107.143 25.0344 107.302 25.0843C107.302 25.0844 107.302 25.0843 107.302 25.0843L82.6055 103.69L98.9041 22.9241ZM99.295 23.5146L84.9725 94.4885L106.675 25.413C104.246 24.666 101.783 24.0325 99.295 23.5146Z" fill="white"/>
<path opacity="0.5" fill-rule="evenodd" clip-rule="evenodd" d="M90.3755 21.6631C90.5414 21.6788 90.7073 21.695 90.8731 21.7117C93.4193 21.9685 95.9521 22.3438 98.4633 22.8363C98.6269 22.8684 98.7903 22.901 98.9537 22.934L82.6055 103.69L90.3755 21.6631ZM90.8259 22.2095L83.998 94.2915L98.3641 23.3264C95.8701 22.8373 93.3546 22.4646 90.8259 22.2095Z" fill="white"/>
<path opacity="0.5" fill-rule="evenodd" clip-rule="evenodd" d="M81.916 21.2988C82.0827 21.2974 82.2494 21.2965 82.416 21.2961C84.9751 21.2902 87.533 21.4036 90.0816 21.6358C90.2475 21.6509 90.4135 21.6666 90.5794 21.6827L82.6049 103.69L81.916 21.2988ZM82.4202 21.7961L83.0256 94.1982L90.0332 22.1335C87.5021 21.903 84.9617 21.7904 82.4202 21.7961Z" fill="white"/>
<path d="M104.748 65.0695C126.171 77.4386 133.512 104.833 121.143 126.257C108.774 147.681 81.3791 155.021 59.9553 142.652C38.5315 130.283 31.1911 102.888 43.5602 81.4646C55.9292 60.0408 83.3237 52.7005 104.748 65.0695Z" fill="#FF5129"/>
<path d="M24.2572 4.99C24.2572 5.72333 24.0239 6.30667 23.5572 6.74C23.0906 7.17333 22.4939 7.39 21.7672 7.39C20.8606 7.39 20.0472 7.07667 19.3272 6.45C19.2672 6.38333 19.2672 6.31333 19.3272 6.24L19.8172 5.67C19.8839 5.60333 19.9539 5.60333 20.0272 5.67C20.3206 5.88333 20.5906 6.04 20.8372 6.14C21.0906 6.24 21.4006 6.29 21.7672 6.29C22.1606 6.29 22.4739 6.17667 22.7072 5.95C22.9472 5.71667 23.0672 5.38667 23.0672 4.96C23.0672 4.15333 22.5972 3.75 21.6572 3.75C21.4506 3.75 21.2406 3.77333 21.0272 3.82C20.9539 3.84 20.8939 3.81 20.8472 3.73L20.6572 3.32C20.6239 3.24667 20.6372 3.17667 20.6972 3.11L21.6772 2.04C22.1039 1.58667 22.3872 1.30667 22.5272 1.2H19.8172C19.7239 1.2 19.6772 1.15 19.6772 1.05V0.27C19.6772 0.17 19.7239 0.12 19.8172 0.12H23.8972C23.9906 0.12 24.0372 0.17 24.0372 0.27V0.85C24.0372 0.91 24.0139 0.97 23.9672 1.03L22.1572 2.95L22.1672 2.97C22.7272 2.95667 23.2139 3.13333 23.6272 3.5C24.0472 3.86 24.2572 4.35667 24.2572 4.99Z" fill="white"/>
<path d="M30.2406 4.94C30.2406 5.75333 29.9973 6.36667 29.5106 6.78C29.0306 7.18667 28.4539 7.39 27.7806 7.39C27.3539 7.39 26.9606 7.31333 26.6006 7.16C26.2406 7 25.9339 6.73 25.6806 6.35C25.4339 5.96333 25.3106 5.49333 25.3106 4.94V2.41C25.3106 1.61 25.5539 1.01 26.0406 0.61C26.5273 0.203333 27.1073 0 27.7806 0C28.4539 0 29.0306 0.203333 29.5106 0.61C29.9973 1.01 30.2406 1.61 30.2406 2.41V4.94ZM26.4806 4.98C26.4806 5.44 26.6073 5.77 26.8606 5.97C27.1139 6.16333 27.4206 6.26 27.7806 6.26C28.1406 6.26 28.4439 6.16333 28.6906 5.97C28.9439 5.77 29.0706 5.44 29.0706 4.98V2.43C29.0706 1.96333 28.9439 1.63 28.6906 1.43C28.4439 1.23 28.1406 1.13 27.7806 1.13C27.4206 1.13 27.1139 1.23 26.8606 1.43C26.6073 1.63 26.4806 1.96333 26.4806 2.43V4.98Z" fill="white"/>
<path d="M37.4811 6.83C36.9545 7.20333 36.3645 7.39 35.7111 7.39C35.0178 7.39 34.4711 7.20667 34.0711 6.84C33.6711 6.47333 33.4711 5.98333 33.4711 5.37V3.98C33.4711 3.36667 33.6711 2.88 34.0711 2.52C34.4711 2.15333 35.0145 1.97 35.7011 1.97C36.2811 1.97 36.8278 2.13 37.3411 2.45C37.4211 2.50333 37.4345 2.57333 37.3811 2.66L36.9911 3.26C36.9378 3.33333 36.8678 3.34667 36.7811 3.3C36.4478 3.10667 36.0978 3.01 35.7311 3.01C35.3778 3.01 35.1045 3.09333 34.9111 3.26C34.7245 3.42667 34.6311 3.66667 34.6311 3.98V5.38C34.6311 5.68667 34.7245 5.92667 34.9111 6.1C35.1045 6.26667 35.3745 6.35 35.7211 6.35C36.1278 6.35 36.5145 6.23 36.8811 5.99C36.9745 5.93667 37.0445 5.95 37.0911 6.03L37.5111 6.63C37.5645 6.71 37.5545 6.77667 37.4811 6.83Z" fill="white"/>
<path d="M42.4896 4.02V5.03C42.4896 5.12333 42.4396 5.17 42.3396 5.17H39.2996V5.45C39.2996 5.75 39.3929 5.98 39.5796 6.14C39.7729 6.29333 40.0329 6.37 40.3596 6.37C40.8462 6.37 41.3162 6.21667 41.7696 5.91C41.8496 5.85667 41.9162 5.86667 41.9696 5.94L42.3796 6.49C42.4462 6.56333 42.4362 6.63333 42.3496 6.7C41.7696 7.16 41.0929 7.39 40.3196 7.39C39.7062 7.39 39.1862 7.22333 38.7596 6.89C38.3396 6.55 38.1296 6.06667 38.1296 5.44V4.02C38.1296 3.33333 38.3429 2.82 38.7696 2.48C39.1962 2.14 39.7162 1.97 40.3296 1.97C40.9362 1.97 41.4462 2.14 41.8596 2.48C42.2796 2.82 42.4896 3.33333 42.4896 4.02ZM41.3596 4.01C41.3596 3.66333 41.2629 3.40667 41.0696 3.24C40.8762 3.07333 40.6296 2.99 40.3296 2.99C39.6429 2.99 39.2996 3.33 39.2996 4.01V4.27H41.3596V4.01Z" fill="white"/>
<path d="M47.8237 7.27H46.8137C46.727 7.27 46.667 7.24 46.6337 7.18L45.0737 5.13L44.6637 5.57V7.12C44.6637 7.22 44.6137 7.27 44.5137 7.27H43.6837C43.5837 7.27 43.5337 7.22 43.5337 7.12V2.24C43.5337 2.14 43.5837 2.09 43.6837 2.09H44.5137C44.6137 2.09 44.6637 2.14 44.6637 2.24V4.17L46.4537 2.17C46.4937 2.11667 46.5537 2.09 46.6337 2.09H47.6437C47.7104 2.09 47.7504 2.10667 47.7637 2.14C47.7837 2.17333 47.7737 2.21667 47.7337 2.27L45.8437 4.32L47.9237 7.09C47.997 7.21 47.9637 7.27 47.8237 7.27Z" fill="white"/>
<path d="M51.7423 5.87V2.23C51.7423 2.13667 51.7923 2.09 51.8923 2.09H52.7523C52.8523 2.09 52.9023 2.13667 52.9023 2.23V6.94C52.9023 8.49333 52.159 9.27 50.6723 9.27C49.8723 9.27 49.219 9.06 48.7123 8.64C48.639 8.58667 48.629 8.52 48.6823 8.44L49.1123 7.83C49.1656 7.74333 49.229 7.72667 49.3023 7.78C49.749 8.08667 50.2023 8.24 50.6623 8.24C51.0356 8.24 51.3156 8.14 51.5023 7.94C51.689 7.74667 51.7723 7.41333 51.7523 6.94C51.3656 7.06 51.009 7.12 50.6823 7.12C50.109 7.12 49.609 6.94333 49.1823 6.59C48.7556 6.23 48.5423 5.72667 48.5423 5.08V2.23C48.5423 2.13667 48.5923 2.09 48.6923 2.09H49.5623C49.6556 2.09 49.7023 2.13667 49.7023 2.23V5.03C49.7023 5.39 49.809 5.65333 50.0223 5.82C50.2356 5.98667 50.509 6.07 50.8423 6.07C51.1823 6.07667 51.4823 6.01 51.7423 5.87Z" fill="white"/>
<path d="M55.1687 7.27H54.3087C54.2087 7.27 54.1587 7.22 54.1587 7.12V2.23C54.1587 2.13667 54.2087 2.09 54.3087 2.09H55.1687C55.2687 2.09 55.3187 2.13667 55.3187 2.23V4.07H57.2587V2.23C57.2587 2.13667 57.3087 2.09 57.4087 2.09H58.2687C58.3687 2.09 58.4187 2.13667 58.4187 2.23V7.12C58.4187 7.22 58.3687 7.27 58.2687 7.27H57.4087C57.3087 7.27 57.2587 7.22 57.2587 7.12V5.1H55.3187V7.12C55.3187 7.22 55.2687 7.27 55.1687 7.27Z" fill="white"/>
<path d="M60.1763 8.62H59.3663C59.273 8.62 59.2263 8.57333 59.2263 8.48V6.39C59.2263 6.29667 59.273 6.25 59.3663 6.25H59.5863C59.8063 6.09667 59.9763 5.75 60.0963 5.21C60.2163 4.66333 60.333 3.67 60.4463 2.23C60.4596 2.13667 60.5096 2.09 60.5963 2.09H63.9163C64.0163 2.09 64.0663 2.13667 64.0663 2.23V6.25H64.5763C64.6763 6.25 64.7263 6.3 64.7263 6.4V8.48C64.7263 8.57333 64.6763 8.62 64.5763 8.62H63.7663C63.6663 8.62 63.6163 8.57333 63.6163 8.48V7.27H60.3263V8.48C60.3263 8.57333 60.2763 8.62 60.1763 8.62ZM61.5263 3.11C61.393 4.76333 61.163 5.81 60.8363 6.25H62.9163V3.11H61.5263Z" fill="white"/>
<path fill-rule="evenodd" clip-rule="evenodd" d="M56.4102 12.3198C56.6863 12.3198 56.9102 12.5437 56.9102 12.8198L56.9102 18.7353C56.9102 19.0115 56.6863 19.2353 56.4102 19.2353C56.134 19.2353 55.9102 19.0115 55.9102 18.7353L55.9102 12.8198C55.9102 12.5437 56.134 12.3198 56.4102 12.3198Z" fill="white"/>
<path d="M119.43 9.78C119.43 10.5333 119.206 11.1367 118.76 11.59C118.313 12.0433 117.706 12.27 116.94 12.27C116.026 12.27 115.233 11.96 114.56 11.34C114.506 11.2733 114.506 11.2033 114.56 11.13L115.11 10.53C115.17 10.4633 115.24 10.4667 115.32 10.54C115.84 10.9467 116.383 11.15 116.95 11.15C117.37 11.15 117.69 11.03 117.91 10.79C118.136 10.5433 118.25 10.2067 118.25 9.78C118.25 8.94 117.82 8.52 116.96 8.52C116.433 8.52 116.006 8.66333 115.68 8.95C115.613 9.01 115.546 9.02667 115.48 9L114.8 8.77C114.713 8.75 114.67 8.69333 114.67 8.6L114.8 5.15C114.8 5.05 114.85 5 114.95 5H118.89C118.99 5 119.04 5.05 119.04 5.15V5.95C119.04 6.05 118.99 6.1 118.89 6.1H115.93L115.88 7.76C116.22 7.55333 116.626 7.45 117.1 7.45C117.82 7.45 118.386 7.65667 118.8 8.07C119.22 8.47667 119.43 9.04667 119.43 9.78Z" fill="white"/>
<path d="M126.468 11.71C125.941 12.0833 125.351 12.27 124.698 12.27C124.005 12.27 123.458 12.0867 123.058 11.72C122.658 11.3533 122.458 10.8633 122.458 10.25V8.86C122.458 8.24667 122.658 7.76 123.058 7.4C123.458 7.03333 124.001 6.85 124.688 6.85C125.268 6.85 125.815 7.01 126.328 7.33C126.408 7.38333 126.421 7.45333 126.368 7.54L125.978 8.14C125.925 8.21333 125.855 8.22667 125.768 8.18C125.435 7.98667 125.085 7.89 124.718 7.89C124.365 7.89 124.091 7.97333 123.898 8.14C123.711 8.30667 123.618 8.54667 123.618 8.86V10.26C123.618 10.5667 123.711 10.8067 123.898 10.98C124.091 11.1467 124.361 11.23 124.708 11.23C125.115 11.23 125.501 11.11 125.868 10.87C125.961 10.8167 126.031 10.83 126.078 10.91L126.498 11.51C126.551 11.59 126.541 11.6567 126.468 11.71Z" fill="white"/>
<path d="M131.476 8.9V9.91C131.476 10.0033 131.426 10.05 131.326 10.05H128.286V10.33C128.286 10.63 128.38 10.86 128.566 11.02C128.76 11.1733 129.02 11.25 129.346 11.25C129.833 11.25 130.303 11.0967 130.756 10.79C130.836 10.7367 130.903 10.7467 130.956 10.82L131.366 11.37C131.433 11.4433 131.423 11.5133 131.336 11.58C130.756 12.04 130.08 12.27 129.306 12.27C128.693 12.27 128.173 12.1033 127.746 11.77C127.326 11.43 127.116 10.9467 127.116 10.32V8.9C127.116 8.21333 127.33 7.7 127.756 7.36C128.183 7.02 128.703 6.85 129.316 6.85C129.923 6.85 130.433 7.02 130.846 7.36C131.266 7.7 131.476 8.21333 131.476 8.9ZM130.346 8.89C130.346 8.54333 130.25 8.28667 130.056 8.12C129.863 7.95333 129.616 7.87 129.316 7.87C128.63 7.87 128.286 8.21 128.286 8.89V9.15H130.346V8.89Z" fill="white"/>
<path d="M136.811 12.15H135.801C135.714 12.15 135.654 12.12 135.621 12.06L134.061 10.01L133.651 10.45V12C133.651 12.1 133.601 12.15 133.501 12.15H132.671C132.571 12.15 132.521 12.1 132.521 12V7.12C132.521 7.02 132.571 6.97 132.671 6.97H133.501C133.601 6.97 133.651 7.02 133.651 7.12V9.05L135.441 7.05C135.481 6.99667 135.541 6.97 135.621 6.97H136.631C136.697 6.97 136.737 6.98667 136.751 7.02C136.771 7.05333 136.761 7.09667 136.721 7.15L134.831 9.2L136.911 11.97C136.984 12.09 136.951 12.15 136.811 12.15Z" fill="white"/>
<path d="M140.729 10.75V7.11C140.729 7.01667 140.779 6.97 140.879 6.97H141.739C141.839 6.97 141.889 7.01667 141.889 7.11V11.82C141.889 13.3733 141.146 14.15 139.659 14.15C138.859 14.15 138.206 13.94 137.699 13.52C137.626 13.4667 137.616 13.4 137.669 13.32L138.099 12.71C138.153 12.6233 138.216 12.6067 138.289 12.66C138.736 12.9667 139.189 13.12 139.649 13.12C140.023 13.12 140.303 13.02 140.489 12.82C140.676 12.6267 140.759 12.2933 140.739 11.82C140.353 11.94 139.996 12 139.669 12C139.096 12 138.596 11.8233 138.169 11.47C137.743 11.11 137.529 10.6067 137.529 9.96V7.11C137.529 7.01667 137.579 6.97 137.679 6.97H138.549C138.643 6.97 138.689 7.01667 138.689 7.11V9.91C138.689 10.27 138.796 10.5333 139.009 10.7C139.223 10.8667 139.496 10.95 139.829 10.95C140.169 10.9567 140.469 10.89 140.729 10.75Z" fill="white"/>
<path d="M144.156 12.15H143.296C143.196 12.15 143.146 12.1 143.146 12V7.11C143.146 7.01667 143.196 6.97 143.296 6.97H144.156C144.256 6.97 144.306 7.01667 144.306 7.11V8.95H146.246V7.11C146.246 7.01667 146.296 6.97 146.396 6.97H147.256C147.356 6.97 147.406 7.01667 147.406 7.11V12C147.406 12.1 147.356 12.15 147.256 12.15H146.396C146.296 12.15 146.246 12.1 146.246 12V9.98H144.306V12C144.306 12.1 144.256 12.15 144.156 12.15Z" fill="white"/>
<path d="M149.163 13.5H148.353C148.26 13.5 148.213 13.4533 148.213 13.36V11.27C148.213 11.1767 148.26 11.13 148.353 11.13H148.573C148.793 10.9767 148.963 10.63 149.083 10.09C149.203 9.54333 149.32 8.55 149.433 7.11C149.447 7.01667 149.497 6.97 149.583 6.97H152.903C153.003 6.97 153.053 7.01667 153.053 7.11V11.13H153.563C153.663 11.13 153.713 11.18 153.713 11.28V13.36C153.713 13.4533 153.663 13.5 153.563 13.5H152.753C152.653 13.5 152.603 13.4533 152.603 13.36V12.15H149.313V13.36C149.313 13.4533 149.263 13.5 149.163 13.5ZM150.513 7.99C150.38 9.64333 150.15 10.69 149.823 11.13H151.903V7.99H150.513Z" fill="white"/>
<path fill-rule="evenodd" clip-rule="evenodd" d="M120 16.1499C120.276 16.1499 120.5 16.3738 120.5 16.6499L120.5 22.7767C120.5 23.0528 120.276 23.2767 120 23.2767C119.724 23.2767 119.5 23.0528 119.5 22.7767L119.5 16.6499C119.5 16.3738 119.724 16.1499 120 16.1499Z" fill="white"/>
</svg>
