<svg xmlns="http://www.w3.org/2000/svg" width="220" height="90" viewBox="0 0 220 90" fill="none">
    <path d="M47.2835 36.4743C47.2955 37.2988 47.3152 38.1292 47.2323 38.9474C47.0981 40.2747 46.7259 41.5502 46.1354 42.7558C44.5711 45.951 42.0898 48.1407 38.6881 49.3071C37.5087 49.7114 36.2888 49.9139 35.0402 49.9451C32.0051 50.0213 29.2739 49.1547 26.8806 47.3187C24.6911 45.6394 23.2186 43.4683 22.464 40.8306C22.2265 40.0006 22.079 39.1567 22.0303 38.2956C22.0282 38.256 22.0103 38.2177 22 38.1785V36.7889C22.0573 36.3329 22.1013 35.8751 22.1743 35.4216C22.3824 34.1301 22.7999 32.9047 23.4122 31.7451C24.2506 30.1567 25.3769 28.8008 26.8062 27.6933C28.7205 26.2111 30.8843 25.3272 33.311 25.0808C33.5571 25.056 33.8028 25.0269 34.0489 25H35.2881C35.5256 25.0269 35.7628 25.0577 36.0008 25.0804C37.9164 25.264 39.6871 25.87 41.3176 26.8705C41.7206 27.1177 42.1 27.4028 42.4897 27.6718C42.5286 27.6988 42.5615 27.735 42.6132 27.7817C42.2137 28.0719 41.827 28.3532 41.4403 28.6344C41.0574 28.9128 40.6737 29.1899 40.2934 29.4716C40.1985 29.5419 40.128 29.563 40.0135 29.488C38.7769 28.6816 37.4267 28.1675 35.9521 27.9864C33.2422 27.6533 30.8014 28.3026 28.6504 29.9634C26.8528 31.3513 25.7064 33.1599 25.1778 35.3437C24.9355 36.3447 24.8847 37.3624 24.9868 38.3886C25.2299 40.8352 26.2862 42.8846 28.1091 44.5463C29.4687 45.7851 31.0651 46.5983 32.8978 46.8905C36.7327 47.5019 39.8917 46.3018 42.3367 43.3348C43.549 41.8635 44.1921 40.1484 44.3502 38.2598C44.3754 37.9604 44.3711 37.6585 44.3903 37.3582C44.3946 37.29 44.4211 37.1986 44.4706 37.162C45.3406 36.5211 46.2157 35.8869 47.1254 35.2254C47.184 35.6646 47.2771 36.0688 47.2831 36.4743H47.2835ZM72.3192 49.9695C71.2702 49.9695 70.2387 49.967 69.2077 49.9754C69.1449 49.9758 69.0607 50.047 69.0235 50.1072C67.6455 52.35 66.2722 54.5956 64.8975 56.8405C64.639 57.2624 64.3775 57.6823 64.1079 58.1185C64.0686 58.0617 64.0429 58.0288 64.0212 57.9934C62.4034 55.3772 60.7852 52.7609 59.1709 50.1426C59.0974 50.0238 59.0261 49.9641 58.8731 49.9653C57.8553 49.9733 56.837 49.9691 55.8188 49.9699C55.7568 49.9699 55.6953 49.9771 55.6167 49.9822C55.6167 50.079 55.6167 50.162 55.6167 50.2449C55.6167 55.0791 55.6167 59.9128 55.6167 64.7469C55.6167 64.8311 55.6214 64.9149 55.6239 64.9992H58.3155C58.3227 64.9019 58.3368 64.8046 58.3368 64.7073C58.3381 61.1933 58.3377 57.6793 58.3377 54.1653V53.9261C58.3544 53.9223 58.371 53.9185 58.3873 53.9152C58.5484 54.1661 58.7103 54.4163 58.8705 54.6681C60.3246 56.955 61.7791 59.2416 63.2298 61.5306C63.2986 61.6393 63.3712 61.6814 63.5011 61.678C63.8425 61.6687 64.1844 61.6683 64.5258 61.678C64.6707 61.6818 64.7531 61.638 64.8305 61.5117C65.9487 59.6787 67.0733 57.8494 68.1971 56.0194C68.6479 55.285 69.1 54.551 69.5764 53.7766C69.5871 53.8587 69.5961 53.8954 69.5961 53.9324C69.5961 57.6216 69.5952 61.3108 69.5944 65H72.3287C72.3304 64.9507 72.3333 64.9019 72.3333 64.853C72.3333 59.9557 72.3333 55.0589 72.3333 50.1615C72.3333 50.1013 72.3244 50.0415 72.3184 49.9708L72.3192 49.9695ZM162.107 49.975C162.041 49.9754 161.957 50.0432 161.912 50.1026C161.393 50.7949 160.879 51.4918 160.364 52.187C158.48 54.7312 156.595 57.2759 154.71 59.8197C154.393 60.2467 154.073 60.6712 153.718 61.1449V49.9826H150.981V50.2656C150.981 53.7034 150.981 57.1412 150.981 60.5789C150.981 62.0524 150.983 63.5258 150.984 64.9987H153.89C155.044 63.4289 156.199 61.8591 157.352 60.2888C158.839 58.265 160.325 56.2404 161.811 54.2158C161.944 54.0356 162.075 53.8545 162.257 53.6781V53.908C162.257 57.5067 162.257 61.1053 162.257 64.704C162.257 64.8021 162.261 64.9002 162.263 64.9983H164.955C164.963 64.9221 164.977 64.8459 164.977 64.7697C164.978 59.9145 164.978 55.0597 164.978 50.2045C164.978 50.13 164.971 50.055 164.967 49.9687C163.999 49.9687 163.053 49.9662 162.107 49.9742L162.107 49.975ZM179.982 49.9805V56.0189H171.652V49.9822H168.93V64.9983H171.664V58.4912H179.986V58.748C179.986 60.7335 179.986 62.7185 179.986 64.704C179.986 64.8021 179.992 64.9002 179.994 64.9983H182.686C182.698 64.9166 182.718 64.8345 182.718 64.7528C182.72 59.9119 182.72 55.0706 182.72 50.2298C182.72 50.1481 182.72 50.0668 182.72 49.98H179.981L179.982 49.9805ZM126.118 58.4739H133.081V56.0303H126.119V52.4477H133.886V49.983H123.38V50.2453C123.38 55.0719 123.38 59.8989 123.38 64.7254C123.38 64.8164 123.383 64.9078 123.385 64.9987H134.152V62.5076H126.118V58.4739H126.118ZM119.812 63.3342C118.45 61.745 117.088 60.1553 115.726 58.5657C115.314 58.0848 114.901 57.6039 114.484 57.1163C116.419 54.7376 118.344 52.3706 120.298 49.9691C119.182 49.9691 118.123 49.967 117.064 49.9742C117.002 49.9742 116.925 50.0344 116.883 50.0879C115.312 52.1045 113.744 54.1232 112.18 56.1444C112.097 56.2514 112.012 56.2893 111.878 56.2868C111.444 56.2783 111.009 56.2838 110.575 56.2838H109.791V49.9822H107.065V64.9983H109.8V58.4886C109.877 58.4844 109.932 58.4794 109.988 58.4794C110.664 58.479 111.34 58.4739 112.017 58.4849C112.114 58.4865 112.239 58.5417 112.301 58.6141C113.585 60.1128 114.862 61.6174 116.14 63.1202C116.633 63.7001 117.128 64.2791 117.62 64.8598C117.655 64.9002 117.676 64.952 117.703 64.9983H121.207C121.169 64.9406 121.136 64.8787 121.092 64.8265C120.666 64.3279 120.238 63.8315 119.812 63.3337V63.3342ZM89.9068 64.76C89.9384 64.8358 89.9529 64.9187 89.9756 64.9987H87.1131C87.0858 64.9423 87.055 64.8871 87.0311 64.829C86.588 63.7502 86.1436 62.6718 85.706 61.5904C85.6582 61.4721 85.6099 61.4152 85.4676 61.4157C83.255 61.4207 81.0425 61.4203 78.83 61.4157C78.7001 61.4157 78.6484 61.4607 78.6048 61.5753C78.427 62.038 78.236 62.4958 78.0527 62.956C77.7818 63.6361 77.5135 64.3174 77.2438 64.9979H74.4668C74.7087 64.3962 74.9467 63.7927 75.1937 63.1931C76.9725 58.868 78.753 54.5439 80.5332 50.2192C80.5652 50.1413 80.599 50.0643 80.6396 49.9687H81.6736C82.2859 49.9687 82.8983 49.9754 83.5106 49.9645C83.6789 49.9615 83.7575 50.01 83.8216 50.1658C84.7446 52.3933 85.6744 54.618 86.6033 56.843C87.7049 59.482 88.8073 62.1206 89.9076 64.76H89.9068ZM84.6335 58.9552C83.7986 56.9032 82.9777 54.8849 82.1407 52.8279C81.3006 54.8938 80.4789 56.9142 79.6491 58.9552H84.6331H84.6335ZM103.974 53.8166C104.173 54.9536 104.141 56.0918 103.707 57.1845C103.169 58.5396 102.113 59.3456 100.758 59.8126C99.882 60.1145 98.9744 60.2631 98.048 60.285C97.0665 60.3082 96.085 60.312 95.1035 60.3238C95.0403 60.3246 94.9771 60.3238 94.8882 60.3238V64.9979H92.1539V49.9683C92.2466 49.9683 92.3223 49.9683 92.3983 49.9683C94.1925 49.9691 95.9872 49.9502 97.781 49.9775C98.8744 49.9944 99.9598 50.127 101.003 50.4849C102.63 51.0433 103.676 52.1213 103.974 53.8158V53.8166ZM101.133 54.148C100.983 53.5783 100.637 53.1677 100.111 52.9007C99.5991 52.6409 99.0441 52.515 98.4766 52.4982C97.311 52.4637 96.1444 52.4649 94.9783 52.4523C94.9518 52.4523 94.9254 52.4615 94.892 52.4679V57.8423H95.0993C95.9316 57.8423 96.7653 57.868 97.5964 57.8334C98.1591 57.8098 98.7296 57.7471 99.2769 57.6199C100.164 57.4144 100.831 56.9117 101.099 56.0114C101.282 55.3978 101.298 54.7733 101.133 54.148ZM135.792 52.454H140.845V52.75C140.845 56.7281 140.845 60.7061 140.846 64.6842C140.846 64.789 140.855 64.8939 140.861 64.9987H143.552C143.558 64.8939 143.569 64.789 143.569 64.6846C143.57 60.7065 143.57 56.7285 143.57 52.7504V52.4481H148.686V49.9834H135.792V52.4544L135.792 52.454ZM186.661 49.9674V64.9987H189.395V52.4519H197V49.9678H186.661V49.9674ZM71.7505 44.9901C71.7296 44.9901 71.7086 44.9842 71.6689 44.9779V29.9878H84.7737C84.3348 30.3091 83.928 30.6085 83.5191 30.9054C82.85 31.3913 82.183 31.8798 81.507 32.3556C81.4006 32.4306 81.2519 32.4828 81.1224 32.4832C79.1645 32.4912 77.2062 32.4887 75.2484 32.4887H74.9822V35.8221C75.0633 35.8221 75.1394 35.8221 75.2159 35.8221C76.5901 35.8221 77.9647 35.8057 79.3384 35.8276C80.3951 35.8444 81.4275 36.0179 82.3846 36.4946C83.5751 37.0875 84.2857 38.0303 84.51 39.3315C84.6728 40.2751 84.6181 41.2003 84.2647 42.0938C83.8054 43.2539 82.9205 43.9921 81.7723 44.4486C80.9425 44.7787 80.0734 44.9539 79.1816 44.9619C76.7046 44.9842 74.2276 44.9829 71.7501 44.9905L71.7505 44.9901ZM74.9783 42.4732C75.0642 42.4732 75.1407 42.4732 75.2172 42.4732C76.3269 42.4732 77.437 42.48 78.5467 42.4694C78.8787 42.4665 79.2137 42.437 79.5406 42.3814C80.1067 42.2854 80.6417 42.1027 81.0293 41.6496C81.6779 40.8912 81.6856 39.0994 80.1879 38.5899C79.5871 38.3857 78.9705 38.3309 78.3467 38.3242C77.3011 38.3128 76.2551 38.3208 75.2091 38.3217C75.1339 38.3217 75.0586 38.3284 74.9783 38.3326V42.4732ZM109.134 40.7093C108.025 40.7308 106.915 40.7295 105.805 40.7379C105.72 40.7388 105.636 40.7379 105.53 40.7379V44.9716H102.224V29.9782C102.289 29.9748 102.331 29.9702 102.373 29.9702C104.566 29.9702 106.759 29.9415 108.951 29.9824C110.374 30.0089 111.735 30.3373 112.922 31.1707C114.071 31.9779 114.727 33.0883 114.92 34.4561C115.083 35.6073 114.975 36.7333 114.44 37.7877C113.782 39.0822 112.687 39.8675 111.322 40.3215C110.613 40.5573 109.882 40.695 109.134 40.7093H109.134ZM108.577 38.2164C108.866 38.213 109.159 38.1861 109.442 38.1292C110.44 37.9292 111.195 37.4248 111.52 36.4276C111.733 35.7737 111.74 35.1087 111.569 34.4426C111.356 33.616 110.835 33.0568 110.036 32.746C109.59 32.5725 109.124 32.49 108.645 32.4891C107.677 32.4874 106.71 32.4883 105.742 32.4891C105.674 32.4891 105.605 32.4954 105.53 32.4997V38.2215C105.606 38.2215 105.661 38.2215 105.717 38.2215C106.67 38.2215 107.624 38.2274 108.577 38.2164H108.577ZM99.1556 42.4657H90.9626V38.6346H97.9429V36.1408H90.96V32.4887H91.2211C92.6594 32.4887 94.0973 32.4908 95.5355 32.4845C95.6398 32.4841 95.7607 32.4474 95.8445 32.3876C96.5816 31.8625 97.3122 31.329 98.0446 30.7972C98.407 30.534 98.7689 30.2704 99.159 29.9866H87.6489V44.9779H99.1556V42.4657ZM59.1555 44.3109C60.8011 45.1265 62.5551 45.3316 64.3737 45.0882C65.6906 44.9122 66.9016 44.4776 67.9702 43.6927C68.2963 43.4531 68.5919 43.1744 68.9193 42.8985C68.283 42.4379 67.6784 42.0298 67.1109 41.5767C66.8477 41.3666 66.6593 41.3611 66.3781 41.53C65.1022 42.2947 63.7212 42.592 62.2381 42.3486C60.9545 42.1376 59.879 41.5586 59.0889 40.5253C58.1578 39.3075 57.9117 37.9238 58.192 36.4512C58.7458 33.5419 61.4655 32.2015 64.075 32.5961C64.7984 32.7056 65.4658 32.9713 66.076 33.376C66.1239 33.4075 66.232 33.4105 66.2769 33.3789C67.0302 32.8416 67.7775 32.2967 68.5509 31.7358C68.4706 31.6646 68.4138 31.6128 68.3548 31.5627C66.8618 30.3011 65.0903 29.808 63.1666 29.7659C62.3932 29.7491 61.6227 29.8358 60.8694 30.0182C58.9051 30.4936 57.2776 31.4781 56.1653 33.1726C54.9091 35.086 54.6429 37.1839 55.1736 39.3715C55.7175 41.6146 57.0648 43.2746 59.1568 44.3113L59.1555 44.3109ZM29.8503 34.1474C29.8405 34.211 29.8332 34.2367 29.8332 34.2624C29.8323 35.3711 29.8285 36.4798 29.84 37.5881C29.8409 37.6732 29.9315 37.7865 30.0122 37.837C31.5116 38.7727 33.017 39.6991 34.5176 40.6326C34.6257 40.7 34.6967 40.6983 34.7962 40.6225C35.1394 40.3619 35.4889 40.1092 35.8376 39.8557C38.5039 37.9208 41.1702 35.9867 43.837 34.0522C44.6202 33.4842 45.403 32.9153 46.182 32.3502C46.0444 31.8579 45.0808 30.2708 44.6646 29.8531C41.3283 32.2756 37.9997 34.6927 34.6612 37.1165C33.0636 36.1303 31.4676 35.1454 29.8503 34.147V34.1474Z" fill="#C8C8C8"/>
</svg>