<svg width="167" height="157" viewBox="0 0 167 157" fill="none" xmlns="http://www.w3.org/2000/svg">
    <g clip-path="url(#clip0_2027_45060)">
        <g filter="url(#filter0_dddddd_2027_45060)">
            <path
                d="M59.5978 128.764C59.6853 129.026 59.5438 129.31 59.2819 129.397C59.02 129.485 58.7368 129.343 58.6493 129.081L59.5978 128.764ZM65.9166 104.278L66.2806 104.621L65.9166 104.278ZM94.9856 77.8193L94.9428 78.3175L94.9856 77.8193ZM108.217 27.8759C108.461 28.0034 108.557 28.3054 108.429 28.5503L106.35 32.5414C106.223 32.7863 105.921 32.8815 105.676 32.7539C105.431 32.6263 105.336 32.3244 105.463 32.0795L107.311 28.5318L103.764 26.6841C103.519 26.5565 103.423 26.2546 103.551 26.0097C103.679 25.7647 103.981 25.6696 104.225 25.7972L108.217 27.8759ZM58.6493 129.081C58.3944 128.318 58.1732 127.578 57.9837 126.861L58.9506 126.605C59.1343 127.301 59.3493 128.02 59.5978 128.764L58.6493 129.081ZM57.1615 122.293C57.0128 120.602 57.0661 119.053 57.2826 117.621L58.2714 117.771C58.0674 119.12 58.0156 120.589 58.1576 122.205L57.1615 122.293ZM58.6076 113.125C59.2625 111.668 60.0873 110.35 61.0014 109.123L61.8034 109.72C60.9218 110.904 60.1382 112.159 59.5198 113.535L58.6076 113.125ZM63.9877 105.603C64.5087 105.04 65.0354 104.485 65.5526 103.936L66.2806 104.621C65.7601 105.174 65.2386 105.724 64.7212 106.282L63.9877 105.603ZM65.5526 103.936C66.176 103.274 67.0677 102.72 68.1187 102.264L68.5171 103.181C67.5345 103.608 66.7767 104.094 66.2806 104.621L65.5526 103.936ZM73.8292 100.788C75.6913 100.527 77.6901 100.408 79.6696 100.437L79.6548 101.437C77.7235 101.409 75.7762 101.525 73.9679 101.779L73.8292 100.788ZM85.4991 100.998C87.6927 101.417 89.6633 102.081 91.0855 103.031L90.5304 103.862C89.2654 103.018 87.442 102.388 85.3115 101.981L85.4991 100.998ZM93.0156 108.575C92.6872 109.389 92.1412 110.245 91.3643 111.146L90.6069 110.493C91.3335 109.65 91.8114 108.886 92.0883 108.2L93.0156 108.575ZM91.3643 111.146C90.7102 111.904 89.9751 112.427 89.1775 112.722L88.8308 111.784C89.4495 111.555 90.0485 111.14 90.6069 110.493L91.3643 111.146ZM84.044 111.921C82.7306 111.142 81.4357 109.983 80.2346 108.57L80.9964 107.922C82.1475 109.276 83.3607 110.353 84.5541 111.061L84.044 111.921ZM77.3823 104.428C76.5817 103.001 75.8754 101.462 75.3039 99.869L76.2451 99.5314C76.7977 101.072 77.4807 102.559 78.2545 103.939L77.3823 104.428ZM74.0384 95.0105C73.7668 93.3158 73.6791 91.6156 73.8231 89.9722L74.8193 90.0596C74.6835 91.6092 74.7652 93.2261 75.0258 94.8523L74.0384 95.0105ZM75.1005 85.054C75.8125 83.5412 76.8284 82.1667 78.1964 81.0041L78.844 81.7661C77.5893 82.8323 76.6592 84.0905 76.0053 85.4798L75.1005 85.054ZM82.6089 78.4955C84.0431 77.9717 85.6708 77.5893 87.5074 77.3699L87.626 78.3629C85.8559 78.5743 84.3046 78.9408 82.9519 79.4348L82.6089 78.4955ZM92.5017 77.1729C93.3129 77.1971 94.1549 77.2462 95.0284 77.3212L94.9428 78.3175C94.0868 78.244 93.2635 78.1961 92.4719 78.1725L92.5017 77.1729ZM95.0284 77.3212C96.0259 77.4068 96.9025 77.4279 97.6692 77.3906L97.7178 78.3894C96.8972 78.4293 95.9749 78.4061 94.9428 78.3175L95.0284 77.3212ZM101.927 75.5791C102.554 74.4991 102.509 72.8871 101.942 70.7499L102.908 70.4931C103.485 72.6637 103.634 74.6287 102.793 76.0807L101.927 75.5791ZM100.169 65.7697C99.5283 64.2113 98.8083 62.5665 98.0775 60.8469L98.9978 60.4557C99.7226 62.161 100.45 63.8245 101.094 65.3893L100.169 65.7697ZM96.0682 55.8627C95.4378 54.1669 94.8669 52.4419 94.4225 50.7182L95.3908 50.4685C95.8241 52.1493 96.3831 53.8401 97.0055 55.5142L96.0682 55.8627ZM93.5204 45.3639C93.4006 43.497 93.5193 41.6602 93.972 39.8975L94.9406 40.1462C94.5191 41.7873 94.4039 43.5159 94.5184 45.2999L93.5204 45.3639ZM96.3766 34.9452C97.4016 33.6082 98.729 32.3693 100.407 31.2503L100.962 32.0823C99.3657 33.1466 98.1218 34.3124 97.1702 35.5536L96.3766 34.9452ZM105.249 28.759C106.061 28.4359 106.922 28.1301 107.835 27.8424L108.136 28.7962C107.245 29.077 106.407 29.3747 105.619 29.6881L105.249 28.759Z"
                fill="white" />
        </g>
    </g>
    <defs>
        <filter id="filter0_dddddd_2027_45060" x="-320.306" y="-351.643" width="806.175" height="858.448"
            filterUnits="userSpaceOnUse" color-interpolation-filters="sRGB">
            <feFlood flood-opacity="0" result="BackgroundImageFix" />
            <feColorMatrix in="SourceAlpha" type="matrix" values="0 0 0 0 0 0 0 0 0 0 0 0 0 0 0 0 0 0 127 0"
                result="hardAlpha" />
            <feOffset />
            <feGaussianBlur stdDeviation="4.49265" />
            <feColorMatrix type="matrix" values="0 0 0 0 1 0 0 0 0 1 0 0 0 0 1 0 0 0 1 0" />
            <feBlend mode="normal" in2="BackgroundImageFix" result="effect1_dropShadow_2027_45060" />
            <feColorMatrix in="SourceAlpha" type="matrix" values="0 0 0 0 0 0 0 0 0 0 0 0 0 0 0 0 0 0 127 0"
                result="hardAlpha" />
            <feOffset />
            <feGaussianBlur stdDeviation="8.98531" />
            <feColorMatrix type="matrix" values="0 0 0 0 1 0 0 0 0 1 0 0 0 0 1 0 0 0 1 0" />
            <feBlend mode="normal" in2="effect1_dropShadow_2027_45060" result="effect2_dropShadow_2027_45060" />
            <feColorMatrix in="SourceAlpha" type="matrix" values="0 0 0 0 0 0 0 0 0 0 0 0 0 0 0 0 0 0 127 0"
                result="hardAlpha" />
            <feOffset />
            <feGaussianBlur stdDeviation="31.4486" />
            <feColorMatrix type="matrix" values="0 0 0 0 1 0 0 0 0 1 0 0 0 0 1 0 0 0 1 0" />
            <feBlend mode="normal" in2="effect2_dropShadow_2027_45060" result="effect3_dropShadow_2027_45060" />
            <feColorMatrix in="SourceAlpha" type="matrix" values="0 0 0 0 0 0 0 0 0 0 0 0 0 0 0 0 0 0 127 0"
                result="hardAlpha" />
            <feOffset />
            <feGaussianBlur stdDeviation="62.8972" />
            <feColorMatrix type="matrix" values="0 0 0 0 1 0 0 0 0 1 0 0 0 0 1 0 0 0 1 0" />
            <feBlend mode="normal" in2="effect3_dropShadow_2027_45060" result="effect4_dropShadow_2027_45060" />
            <feColorMatrix in="SourceAlpha" type="matrix" values="0 0 0 0 0 0 0 0 0 0 0 0 0 0 0 0 0 0 127 0"
                result="hardAlpha" />
            <feOffset />
            <feGaussianBlur stdDeviation="107.824" />
            <feColorMatrix type="matrix" values="0 0 0 0 1 0 0 0 0 1 0 0 0 0 1 0 0 0 1 0" />
            <feBlend mode="normal" in2="effect4_dropShadow_2027_45060" result="effect5_dropShadow_2027_45060" />
            <feColorMatrix in="SourceAlpha" type="matrix" values="0 0 0 0 0 0 0 0 0 0 0 0 0 0 0 0 0 0 127 0"
                result="hardAlpha" />
            <feOffset />
            <feGaussianBlur stdDeviation="188.691" />
            <feColorMatrix type="matrix" values="0 0 0 0 1 0 0 0 0 1 0 0 0 0 1 0 0 0 1 0" />
            <feBlend mode="normal" in2="effect5_dropShadow_2027_45060" result="effect6_dropShadow_2027_45060" />
            <feBlend mode="normal" in="SourceGraphic" in2="effect6_dropShadow_2027_45060" result="shape" />
        </filter>
        <clipPath id="clip0_2027_45060">
            <rect width="167" height="157" fill="white" />
        </clipPath>
    </defs>
</svg>