<svg width="1006" height="875" viewBox="0 0 1006 875" fill="none" xmlns="http://www.w3.org/2000/svg">
    <g filter="url(#filter0_dddddd_286_25135)">
        <path
            d="M592.255 379.567C592.568 379.112 592.453 378.489 591.998 378.176C591.543 377.863 590.92 377.978 590.607 378.433L592.255 379.567ZM603.891 445.833L604.553 445.084L603.891 445.833ZM619.119 433.58L618.723 434.499L619.119 433.58ZM547.822 461.985L548.729 462.404L547.822 461.985ZM381.199 413.108C380.658 412.997 380.13 413.347 380.02 413.888L378.225 422.707C378.115 423.248 378.465 423.776 379.006 423.887C379.547 423.997 380.075 423.647 380.185 423.106L381.781 415.267L389.62 416.862C390.161 416.972 390.689 416.623 390.799 416.081C390.909 415.54 390.56 415.012 390.019 414.902L381.199 413.108ZM380.166 414.639C380.641 415.357 381.117 416.07 381.594 416.778L383.253 415.66C382.779 414.957 382.306 414.248 381.834 413.536L380.166 414.639ZM384.471 420.971C385.45 422.371 386.433 423.752 387.42 425.114L389.04 423.94C388.059 422.588 387.083 421.216 386.111 419.825L384.471 420.971ZM390.44 429.203C391.47 430.57 392.503 431.917 393.54 433.243L395.115 432.01C394.086 430.694 393.06 429.358 392.038 428L390.44 429.203ZM396.705 437.211C397.788 438.542 398.874 439.85 399.964 441.137L401.49 439.844C400.409 438.568 399.331 437.269 398.257 435.949L396.705 437.211ZM403.276 444.966C404.415 446.257 405.558 447.523 406.703 448.766L408.174 447.41C407.038 446.178 405.905 444.922 404.775 443.643L403.276 444.966ZM410.176 452.45C411.371 453.689 412.568 454.903 413.767 456.091L415.175 454.67C413.986 453.493 412.8 452.29 411.616 451.062L410.176 452.45ZM417.424 459.627C418.669 460.802 419.916 461.95 421.164 463.07L422.5 461.581C421.264 460.472 420.03 459.336 418.797 458.173L417.424 459.627ZM425.015 466.433C426.317 467.541 427.621 468.619 428.926 469.668L430.179 468.109C428.889 467.072 427.599 466.006 426.31 464.91L425.015 466.433ZM432.953 472.809C434.326 473.848 435.7 474.854 437.073 475.828L438.23 474.196C436.874 473.235 435.517 472.241 434.159 471.214L432.953 472.809ZM441.264 478.7C442.702 479.651 444.139 480.566 445.573 481.445L446.618 479.739C445.204 478.873 443.787 477.97 442.368 477.032L441.264 478.7ZM449.984 484.038C451.485 484.883 452.983 485.688 454.476 486.454L455.388 484.674C453.919 483.92 452.444 483.128 450.966 482.295L449.984 484.038ZM459.051 488.681C460.625 489.406 462.194 490.087 463.756 490.723L464.51 488.871C462.977 488.246 461.436 487.578 459.888 486.864L459.051 488.681ZM468.547 492.542C470.18 493.117 471.804 493.641 473.419 494.116L473.983 492.198C472.403 491.733 470.812 491.219 469.211 490.656L468.547 492.542ZM478.367 495.424C480.052 495.818 481.726 496.157 483.386 496.44L483.722 494.469C482.103 494.192 480.47 493.862 478.822 493.477L478.367 495.424ZM488.464 497.137C490.191 497.315 491.901 497.431 493.592 497.485L493.655 495.486C492.013 495.434 490.35 495.321 488.669 495.148L488.464 497.137ZM498.74 497.452C500.474 497.373 502.185 497.225 503.871 497.008L503.616 495.024C501.985 495.234 500.329 495.377 498.649 495.454L498.74 497.452ZM508.95 496.129C510.641 495.758 512.303 495.314 513.933 494.795L513.327 492.889C511.756 493.389 510.154 493.818 508.522 494.175L508.95 496.129ZM518.771 492.998C520.356 492.321 521.904 491.569 523.416 490.741L522.455 488.987C521.001 489.783 519.51 490.507 517.986 491.158L518.771 492.998ZM527.818 488.041C529.231 487.077 530.604 486.039 531.936 484.929L530.656 483.393C529.373 484.462 528.05 485.461 526.69 486.389L527.818 488.041ZM535.741 481.446C536.939 480.243 538.097 478.974 539.212 477.638L537.677 476.357C536.598 477.648 535.48 478.874 534.324 480.034L535.741 481.446ZM542.342 473.556C543.313 472.177 544.244 470.739 545.134 469.244L543.416 468.221C542.551 469.674 541.647 471.068 540.707 472.404L542.342 473.556ZM547.6 464.744C547.986 463.977 548.363 463.197 548.729 462.404L546.914 461.565C546.557 462.338 546.19 463.098 545.814 463.844L547.6 464.744ZM548.729 462.404C549.085 461.636 549.463 460.882 549.865 460.142L548.107 459.188C547.685 459.965 547.287 460.758 546.914 461.565L548.729 462.404ZM552.552 455.847C553.532 454.472 554.594 453.153 555.73 451.89L554.242 450.553C553.059 451.869 551.949 453.247 550.923 454.686L552.552 455.847ZM559.322 448.29C560.576 447.155 561.891 446.075 563.257 445.052L562.059 443.451C560.645 444.51 559.281 445.629 557.98 446.808L559.322 448.29ZM567.472 442.173C568.916 441.274 570.4 440.431 571.915 439.646L570.994 437.87C569.434 438.679 567.904 439.548 566.415 440.476L567.472 442.173ZM576.542 437.462C578.115 436.789 579.71 436.175 581.317 435.619L580.664 433.729C579.012 434.3 577.373 434.931 575.755 435.623L576.542 437.462ZM586.211 434.117C587.875 433.67 589.541 433.285 591.199 432.964L590.819 431C589.114 431.331 587.402 431.726 585.692 432.186L586.211 434.117ZM596.254 432.177C597.978 431.975 599.679 431.845 601.346 431.787L601.277 429.788C599.553 429.848 597.797 429.983 596.021 430.191L596.254 432.177ZM606.441 431.841C608.189 431.944 609.877 432.135 611.49 432.415L611.832 430.444C610.139 430.151 608.376 429.952 606.559 429.845L606.441 431.841ZM616.386 433.617C617.197 433.883 617.977 434.177 618.723 434.499L619.515 432.662C618.71 432.315 617.874 432 617.009 431.717L616.386 433.617ZM618.723 434.499C619.53 434.846 620.26 435.206 620.917 435.574L621.894 433.829C621.171 433.424 620.379 433.035 619.515 432.662L618.723 434.499ZM624.574 438.446C625.711 439.807 626.089 441.143 625.983 442.356L627.975 442.531C628.134 440.722 627.538 438.875 626.109 437.164L624.574 438.446ZM623.988 446.093C622.974 447.057 621.62 447.878 620.033 448.444L620.705 450.328C622.521 449.68 624.126 448.723 625.366 447.542L623.988 446.093ZM615.401 449.265C613.888 449.286 612.308 449.081 610.725 448.597L610.14 450.509C611.928 451.056 613.716 451.289 615.43 451.265L615.401 449.265ZM606.451 446.553C605.808 446.122 605.174 445.634 604.553 445.084L603.228 446.582C603.915 447.19 604.62 447.733 605.337 448.214L606.451 446.553ZM604.553 445.084C603.963 444.562 603.355 444.028 602.736 443.485L601.416 444.987C602.036 445.532 602.641 446.063 603.228 446.582L604.553 445.084ZM599.123 440.272C597.96 439.216 596.786 438.12 595.625 436.977L594.222 438.402C595.408 439.569 596.602 440.684 597.778 441.752L599.123 440.272ZM592.312 433.522C591.256 432.347 590.234 431.126 589.268 429.856L587.676 431.067C588.68 432.386 589.737 433.649 590.825 434.859L592.312 433.522ZM586.589 425.944C585.773 424.606 585.03 423.217 584.38 421.773L582.556 422.595C583.244 424.12 584.026 425.582 584.881 426.985L586.589 425.944ZM582.747 417.362C582.318 415.887 581.988 414.356 581.773 412.768L579.791 413.036C580.019 414.726 580.371 416.353 580.827 417.921L582.747 417.362ZM581.49 408.079C581.509 406.567 581.631 405.005 581.869 403.389L579.891 403.096C579.639 404.799 579.51 406.451 579.49 408.054L581.49 408.079ZM582.838 398.772C583.233 397.311 583.721 395.808 584.31 394.262L582.441 393.55C581.829 395.156 581.32 396.722 580.907 398.251L582.838 398.772ZM586.195 389.889C586.857 388.51 587.597 387.099 588.419 385.656L586.681 384.666C585.837 386.148 585.075 387.6 584.392 389.023L586.195 389.889ZM590.905 381.583C591.338 380.917 591.787 380.246 592.255 379.567L590.607 378.433C590.13 379.126 589.671 379.812 589.228 380.493L590.905 381.583Z"
            fill="white" />
    </g>
    <defs>
        <filter id="filter0_dddddd_286_25135" x="0.822144" y="0.617065" width="1004.56" height="874.251"
            filterUnits="userSpaceOnUse" color-interpolation-filters="sRGB">
            <feFlood flood-opacity="0" result="BackgroundImageFix" />
            <feColorMatrix in="SourceAlpha" type="matrix" values="0 0 0 0 0 0 0 0 0 0 0 0 0 0 0 0 0 0 127 0"
                result="hardAlpha" />
            <feOffset />
            <feGaussianBlur stdDeviation="4.49265" />
            <feColorMatrix type="matrix" values="0 0 0 0 1 0 0 0 0 1 0 0 0 0 1 0 0 0 1 0" />
            <feBlend mode="normal" in2="BackgroundImageFix" result="effect1_dropShadow_286_25135" />
            <feColorMatrix in="SourceAlpha" type="matrix" values="0 0 0 0 0 0 0 0 0 0 0 0 0 0 0 0 0 0 127 0"
                result="hardAlpha" />
            <feOffset />
            <feGaussianBlur stdDeviation="8.98531" />
            <feColorMatrix type="matrix" values="0 0 0 0 1 0 0 0 0 1 0 0 0 0 1 0 0 0 1 0" />
            <feBlend mode="normal" in2="effect1_dropShadow_286_25135" result="effect2_dropShadow_286_25135" />
            <feColorMatrix in="SourceAlpha" type="matrix" values="0 0 0 0 0 0 0 0 0 0 0 0 0 0 0 0 0 0 127 0"
                result="hardAlpha" />
            <feOffset />
            <feGaussianBlur stdDeviation="31.4486" />
            <feColorMatrix type="matrix" values="0 0 0 0 1 0 0 0 0 1 0 0 0 0 1 0 0 0 1 0" />
            <feBlend mode="normal" in2="effect2_dropShadow_286_25135" result="effect3_dropShadow_286_25135" />
            <feColorMatrix in="SourceAlpha" type="matrix" values="0 0 0 0 0 0 0 0 0 0 0 0 0 0 0 0 0 0 127 0"
                result="hardAlpha" />
            <feOffset />
            <feGaussianBlur stdDeviation="62.8972" />
            <feColorMatrix type="matrix" values="0 0 0 0 1 0 0 0 0 1 0 0 0 0 1 0 0 0 1 0" />
            <feBlend mode="normal" in2="effect3_dropShadow_286_25135" result="effect4_dropShadow_286_25135" />
            <feColorMatrix in="SourceAlpha" type="matrix" values="0 0 0 0 0 0 0 0 0 0 0 0 0 0 0 0 0 0 127 0"
                result="hardAlpha" />
            <feOffset />
            <feGaussianBlur stdDeviation="107.824" />
            <feColorMatrix type="matrix" values="0 0 0 0 1 0 0 0 0 1 0 0 0 0 1 0 0 0 1 0" />
            <feBlend mode="normal" in2="effect4_dropShadow_286_25135" result="effect5_dropShadow_286_25135" />
            <feColorMatrix in="SourceAlpha" type="matrix" values="0 0 0 0 0 0 0 0 0 0 0 0 0 0 0 0 0 0 127 0"
                result="hardAlpha" />
            <feOffset />
            <feGaussianBlur stdDeviation="188.691" />
            <feColorMatrix type="matrix" values="0 0 0 0 1 0 0 0 0 1 0 0 0 0 1 0 0 0 1 0" />
            <feBlend mode="normal" in2="effect5_dropShadow_286_25135" result="effect6_dropShadow_286_25135" />
            <feBlend mode="normal" in="SourceGraphic" in2="effect6_dropShadow_286_25135" result="shape" />
        </filter>
    </defs>
</svg>