<svg width="167" height="157" viewBox="0 0 167 157" fill="none" xmlns="http://www.w3.org/2000/svg">
    <g clip-path="url(#clip0_2027_45060)">
        <g filter="url(#filter0_dddddd_2027_45060)">
            <path
                d="M77.0537 143.276C76.9832 143.543 76.7096 143.702 76.4426 143.632C76.1756 143.561 76.0163 143.287 76.0869 143.02L77.0537 143.276ZM115.185 120.553L115.362 120.086L115.185 120.553ZM109.113 86.9511L109.501 87.2663L109.113 86.9511ZM36.6825 16.464C36.5082 16.2498 36.5405 15.9349 36.7547 15.7606L40.2452 12.9204C40.4594 12.7461 40.7743 12.7784 40.9486 12.9926C41.1229 13.2068 41.0905 13.5218 40.8763 13.696L37.7737 16.2207L40.2984 19.3233C40.4727 19.5375 40.4403 19.8524 40.2261 20.0267C40.0119 20.201 39.697 20.1686 39.5227 19.9545L36.6825 16.464ZM37.1214 15.6511C37.999 15.7412 38.8704 15.8364 39.7357 15.9365L39.6208 16.9298C38.7598 16.8302 37.8926 16.7355 37.0192 16.6458L37.1214 15.6511ZM44.9051 16.6033C46.6485 16.8519 48.3649 17.1212 50.0536 17.4103L49.8848 18.396C48.2054 18.1084 46.4983 17.8406 44.764 17.5933L44.9051 16.6033ZM55.1774 18.3652C56.9072 18.7145 58.6055 19.0854 60.2717 19.477L60.0428 20.4505C58.3871 20.0613 56.6991 19.6927 54.9795 19.3455L55.1774 18.3652ZM65.33 20.7557C67.0388 21.219 68.7103 21.7051 70.344 22.2129L70.0472 23.1678C68.4254 22.6637 66.7656 22.1811 65.0683 21.7209L65.33 20.7557ZM75.3029 23.8614C76.9778 24.4559 78.6079 25.0745 80.1923 25.7159L79.8171 26.6428C78.2465 26.0071 76.63 25.3936 74.9683 24.8038L75.3029 23.8614ZM84.994 27.7928C86.6126 28.5403 88.1762 29.3133 89.6838 30.1101L89.2165 30.9942C87.7253 30.206 86.1776 29.441 84.5747 28.7006L84.994 27.7928ZM94.2305 32.6877C95.7569 33.6161 97.2141 34.5714 98.6009 35.5513L98.0238 36.3679C96.6565 35.4018 95.2185 34.4591 93.7108 33.542L94.2305 32.6877ZM102.772 38.7487C104.151 39.8987 105.441 41.0767 106.639 42.2799L105.93 42.9854C104.755 41.8052 103.489 40.648 102.132 39.5169L102.772 38.7487ZM110.147 46.2039C111.27 47.6128 112.274 49.0498 113.155 50.5106L112.299 51.0273C111.441 49.6056 110.463 48.2042 109.365 46.8272L110.147 46.2039ZM115.537 55.2209C116.218 56.8803 116.747 58.5628 117.117 60.2624L116.14 60.4754C115.782 58.835 115.272 57.2083 114.612 55.6007L115.537 55.2209ZM117.754 65.5095C117.799 67.2602 117.678 69.0204 117.386 70.7837L116.399 70.6203C116.681 68.919 116.798 67.2221 116.755 65.5352L117.754 65.5095ZM116.057 75.9041C115.487 77.5115 114.773 79.1153 113.913 80.711L113.033 80.2364C113.87 78.6838 114.563 77.1268 115.114 75.57L116.057 75.9041ZM111.11 85.1656C110.604 85.8684 110.067 86.5688 109.501 87.2663L108.724 86.636C109.279 85.9529 109.804 85.2676 110.299 84.5807L111.11 85.1656ZM109.501 87.2663C109.018 87.8606 108.553 88.4704 108.105 89.0937L107.293 88.5101C107.752 87.8712 108.229 87.2459 108.724 86.636L109.501 87.2663ZM105.632 92.9746C104.877 94.3154 104.194 95.6954 103.585 97.0997L102.668 96.702C103.29 95.2667 103.988 93.8556 104.761 92.4839L105.632 92.9746ZM101.97 101.413C101.5 102.894 101.11 104.385 100.804 105.868L99.8251 105.666C100.138 104.149 100.536 102.624 101.017 101.11L101.97 101.413ZM100.127 110.418C99.9846 111.984 99.9425 113.521 100.003 115.008L99.0033 115.048C98.9415 113.515 98.985 111.934 99.1306 110.328L100.127 110.418ZM100.541 119.551C100.86 121.1 101.313 122.553 101.904 123.882L100.99 124.288C100.367 122.886 99.893 121.363 99.5619 119.752L100.541 119.551ZM104.283 127.697C104.775 128.267 105.309 128.789 105.886 129.261L105.254 130.035C104.63 129.526 104.054 128.962 103.526 128.35L104.283 127.697ZM105.886 129.261C106.733 129.952 107.58 130.47 108.411 130.84L108.003 131.754C107.086 131.344 106.165 130.778 105.254 130.035L105.886 129.261ZM114.139 131.26C116.153 130.632 117.724 129.219 118.466 127.621L119.373 128.042C118.506 129.911 116.704 131.508 114.437 132.215L114.139 131.26ZM117.516 122.503C116.912 121.941 116.089 121.431 115.007 121.021L115.362 120.086C116.542 120.534 117.482 121.106 118.196 121.77L117.516 122.503ZM115.007 121.021C114.27 120.741 113.473 120.481 112.625 120.251L112.888 119.286C113.766 119.525 114.594 119.794 115.362 120.086L115.007 121.021ZM107.68 119.347C106.072 119.188 104.382 119.147 102.652 119.262L102.586 118.265C104.373 118.145 106.119 118.187 107.778 118.352L107.68 119.347ZM97.6907 120.036C96.1069 120.433 94.524 120.983 92.9723 121.714L92.5462 120.81C94.1601 120.049 95.8046 119.478 97.4476 119.066L97.6907 120.036ZM88.6824 124.292C87.3976 125.252 86.1572 126.372 84.9816 127.669L84.2406 126.997C85.4594 125.652 86.7474 124.49 88.0837 123.491L88.6824 124.292ZM81.9455 131.67C81.091 133.015 80.2924 134.491 79.5614 136.111L78.65 135.7C79.3996 134.039 80.2205 132.52 81.1016 131.134L81.9455 131.67ZM77.7602 140.842C77.5109 141.627 77.2751 142.438 77.0537 143.276L76.0869 143.02C76.3123 142.167 76.5527 141.34 76.8072 140.539L77.7602 140.842Z"
                fill="white" />
        </g>
    </g>
    <defs>
        <filter id="filter0_dddddd_2027_45060" x="-340.813" y="-364.574" width="837.569" height="885.606"
            filterUnits="userSpaceOnUse" color-interpolation-filters="sRGB">
            <feFlood flood-opacity="0" result="BackgroundImageFix" />
            <feColorMatrix in="SourceAlpha" type="matrix" values="0 0 0 0 0 0 0 0 0 0 0 0 0 0 0 0 0 0 127 0"
                result="hardAlpha" />
            <feOffset />
            <feGaussianBlur stdDeviation="4.49265" />
            <feColorMatrix type="matrix" values="0 0 0 0 1 0 0 0 0 1 0 0 0 0 1 0 0 0 1 0" />
            <feBlend mode="normal" in2="BackgroundImageFix" result="effect1_dropShadow_2027_45060" />
            <feColorMatrix in="SourceAlpha" type="matrix" values="0 0 0 0 0 0 0 0 0 0 0 0 0 0 0 0 0 0 127 0"
                result="hardAlpha" />
            <feOffset />
            <feGaussianBlur stdDeviation="8.98531" />
            <feColorMatrix type="matrix" values="0 0 0 0 1 0 0 0 0 1 0 0 0 0 1 0 0 0 1 0" />
            <feBlend mode="normal" in2="effect1_dropShadow_2027_45060" result="effect2_dropShadow_2027_45060" />
            <feColorMatrix in="SourceAlpha" type="matrix" values="0 0 0 0 0 0 0 0 0 0 0 0 0 0 0 0 0 0 127 0"
                result="hardAlpha" />
            <feOffset />
            <feGaussianBlur stdDeviation="31.4486" />
            <feColorMatrix type="matrix" values="0 0 0 0 1 0 0 0 0 1 0 0 0 0 1 0 0 0 1 0" />
            <feBlend mode="normal" in2="effect2_dropShadow_2027_45060" result="effect3_dropShadow_2027_45060" />
            <feColorMatrix in="SourceAlpha" type="matrix" values="0 0 0 0 0 0 0 0 0 0 0 0 0 0 0 0 0 0 127 0"
                result="hardAlpha" />
            <feOffset />
            <feGaussianBlur stdDeviation="62.8972" />
            <feColorMatrix type="matrix" values="0 0 0 0 1 0 0 0 0 1 0 0 0 0 1 0 0 0 1 0" />
            <feBlend mode="normal" in2="effect3_dropShadow_2027_45060" result="effect4_dropShadow_2027_45060" />
            <feColorMatrix in="SourceAlpha" type="matrix" values="0 0 0 0 0 0 0 0 0 0 0 0 0 0 0 0 0 0 127 0"
                result="hardAlpha" />
            <feOffset />
            <feGaussianBlur stdDeviation="107.824" />
            <feColorMatrix type="matrix" values="0 0 0 0 1 0 0 0 0 1 0 0 0 0 1 0 0 0 1 0" />
            <feBlend mode="normal" in2="effect4_dropShadow_2027_45060" result="effect5_dropShadow_2027_45060" />
            <feColorMatrix in="SourceAlpha" type="matrix" values="0 0 0 0 0 0 0 0 0 0 0 0 0 0 0 0 0 0 127 0"
                result="hardAlpha" />
            <feOffset />
            <feGaussianBlur stdDeviation="188.691" />
            <feColorMatrix type="matrix" values="0 0 0 0 1 0 0 0 0 1 0 0 0 0 1 0 0 0 1 0" />
            <feBlend mode="normal" in2="effect5_dropShadow_2027_45060" result="effect6_dropShadow_2027_45060" />
            <feBlend mode="normal" in="SourceGraphic" in2="effect6_dropShadow_2027_45060" result="shape" />
        </filter>
        <clipPath id="clip0_2027_45060">
            <rect width="167" height="157" fill="white" />
        </clipPath>
    </defs>
</svg>