<svg width="75" height="30" viewBox="0 0 75 30" fill="none" xmlns="http://www.w3.org/2000/svg">
<path d="M52.4105 13.6437L55.0994 4.0835H60.7481L61.1091 10.1201L64.7726 4.0835H70.6739L67.9849 13.6437H64.3755L66.108 7.47053L62.1738 13.6437H58.384L57.8065 7.30664L56.0198 13.6437H52.4105Z" fill="white"/>
<path d="M72.2736 4.17452C71.3786 4.17452 70.6984 3.47643 70.6984 2.5725C70.6984 1.51195 71.4949 0.684087 72.5958 0.684087C73.4907 0.684087 74.1664 1.38217 74.1664 2.28611C74.1664 3.33324 73.3833 4.17452 72.2736 4.17452ZM72.287 3.81205C73.2043 3.81205 73.7906 3.07817 73.7906 2.30401C73.7906 1.59697 73.2804 1.04656 72.5779 1.04656C71.656 1.04656 71.0743 1.78044 71.0743 2.55908C71.0743 3.26611 71.5889 3.81205 72.287 3.81205ZM71.6113 3.28401L71.9737 1.56565H72.6718C73.0522 1.56565 73.258 1.77149 73.2446 2.02209C73.2312 2.23241 73.0925 2.45168 72.8284 2.49643C72.9895 2.50985 73.1059 2.59488 73.0522 2.84995L72.9582 3.28401H72.5376L72.6226 2.88127C72.6539 2.73807 72.6137 2.67095 72.466 2.67095H72.1617L72.0319 3.28401H71.6113ZM72.551 2.32638C72.7166 2.32638 72.8016 2.24136 72.8105 2.09816C72.8195 1.98181 72.7389 1.92364 72.5823 1.92364H72.3183L72.2378 2.32638H72.551Z" fill="white"/>
<path fill-rule="evenodd" clip-rule="evenodd" d="M44.8964 9.12715C46.2877 9.56966 47.4622 10.1697 48.3706 10.9002L49.5519 6.6784H53.8832L54.6231 4.0835H41.9903L41.2504 6.6784H45.5816L44.8964 9.12715Z" fill="white"/>
<path fill-rule="evenodd" clip-rule="evenodd" d="M44.8964 9.12704L43.6326 13.6437H47.6029L48.3706 10.9001C49.8635 12.1007 50.6378 13.6538 50.475 15.4399H41.9536C42.0311 14.0915 40.6754 13.1242 38.6225 13.1242H38.4288C36.5696 13.1242 35.6013 13.7398 35.6013 14.5312C35.6013 15.1175 36.1823 15.4692 38.1964 15.9675L41.5663 16.7883C46.0981 17.9022 48.1123 19.8075 48.1123 22.3577C48.1123 26.4028 43.2318 29.3927 36.221 29.3927C28.7841 29.3927 23.3227 26.2856 23.7875 21.7421H32.3089C32.1927 23.2957 33.9357 24.5268 36.2985 24.5268H36.4921C38.3126 24.5268 39.3584 23.9992 39.3584 23.0905C39.3584 22.5042 38.8162 22.1525 37.2668 21.7421L33.6258 20.8041C28.9003 19.573 26.9249 17.7263 26.9249 15.2054C26.9249 11.1016 31.573 8.2583 38.6612 8.2583C41.0212 8.2583 43.133 8.56617 44.8964 9.12704Z" fill="white"/>
<path d="M0 29.0703L5.77133 8.55151H18.7859C25.3319 8.55151 28.0432 11.0138 28.0432 13.5053C28.0432 16.2607 25.1769 18.4299 21.3423 18.7816C24.1699 19.3972 25.9516 20.8921 25.9516 23.0319C25.9516 26.5788 21.8071 29.0703 15.8808 29.0703H0ZM9.68344 24.2338H15.2998C16.7717 24.2338 17.7013 23.4423 17.7013 22.4457C17.7013 21.5663 17.0428 21.0387 15.416 21.0387H10.5743L9.68344 24.2338ZM11.8913 16.3487H17.0041C18.3598 16.3487 19.3281 15.6452 19.3281 14.6192C19.3281 13.8864 18.6309 13.3881 17.3527 13.3881H12.7434L11.8913 16.3487Z" fill="white"/>
</svg>
