<svg width="67" height="27" viewBox="0 0 67 27" fill="none" xmlns="http://www.w3.org/2000/svg">
<path d="M65.9229 15.6877C65.3191 14.409 64.36 13.3079 63.1169 12.562C61.8737 11.7806 60.4529 11.3544 58.9611 11.3544H42.3027C41.9119 11.3544 41.5212 11.2833 41.166 11.1412C40.6333 10.9281 40.136 10.5729 39.8163 10.1112C39.6742 9.89807 39.5322 9.68496 39.4611 9.43632C39.3901 9.18769 39.319 8.93906 39.319 8.69042V7.83796C39.319 7.48277 39.3901 7.1631 39.5322 6.84342C39.7808 6.34616 40.136 5.91993 40.6333 5.63577C41.1305 5.3161 41.6988 5.17402 42.3027 5.17402H48.1988V0.734131H42.3027C41.3081 0.734131 40.3491 0.911727 39.4256 1.30244C38.1114 1.83522 36.9393 2.7232 36.0868 3.85982C35.6606 4.42812 35.3054 5.06747 35.0923 5.74233C34.8436 6.45271 34.7371 7.19862 34.7371 7.94452V8.72594C34.7371 9.72048 34.9502 10.6795 35.3764 11.603C35.9802 12.8817 36.9393 13.9828 38.1824 14.7287C39.4256 15.5101 40.8464 15.9363 42.3382 15.9363H58.9967C59.3874 15.9363 59.7781 16.0074 60.1333 16.1494C60.6661 16.3626 61.1633 16.7178 61.483 17.1795C61.6251 17.3926 61.7671 17.6057 61.8382 17.8544C61.9092 18.103 61.9803 18.3516 61.9803 18.6003V19.3817C61.9803 19.7369 61.9092 20.0566 61.7671 20.3762C61.5185 20.8735 61.1278 21.2997 60.6661 21.5839C60.2043 21.868 59.636 22.0456 59.0677 22.0456H32.1797C32.2507 21.9035 32.3218 21.7615 32.3573 21.6194C32.6059 20.909 32.748 20.1276 32.748 19.3817V18.6358C32.748 17.6412 32.5349 16.6112 32.0731 15.7232C31.6824 14.9773 31.1852 14.3024 30.5813 13.7341C30.83 13.4855 31.0786 13.2014 31.2917 12.9172C31.7535 12.3489 32.1087 11.7095 32.3573 11.0347C32.6414 10.3243 32.748 9.54288 32.748 8.79698V7.94452C32.748 6.94998 32.5349 5.95545 32.0731 5.03195C31.4338 3.75326 30.4037 2.68768 29.1606 1.94178C28.5567 1.55107 27.8819 1.26692 27.1715 1.08932C26.4611 0.876207 25.7152 0.76965 24.9693 0.76965H0.780762V26.6276H58.9967C59.9912 26.6276 60.9502 26.45 61.8737 26.0593C63.2234 25.5265 64.36 24.6385 65.2125 23.5019C65.6387 22.9336 65.9939 22.2943 66.207 21.6194C66.4557 20.909 66.5622 20.1631 66.5622 19.4172V18.6003C66.5622 17.5702 66.3491 16.6112 65.9229 15.6877ZM5.39825 5.24506H25.0048C25.3955 5.24506 25.8218 5.3161 26.177 5.45818C26.7453 5.67129 27.278 6.062 27.6688 6.52375C27.8464 6.73687 27.9529 6.94998 28.0595 7.19862C28.1305 7.41173 28.166 7.62485 28.166 7.87348V8.69042C28.166 9.01009 28.095 9.32977 27.9529 9.61392C27.6688 10.1467 27.2425 10.6085 26.7453 10.8926C26.4611 11.0702 26.177 11.1768 25.8928 11.2833C25.6086 11.3544 25.3245 11.4254 25.0048 11.4254H5.39825V5.24506ZM5.39825 15.9008H25.0048C25.3955 15.9008 25.8218 15.9718 26.177 16.1494C26.7453 16.3626 27.278 16.7533 27.6688 17.215C27.8464 17.4281 27.9529 17.6412 28.0595 17.8899C28.1305 18.103 28.166 18.3161 28.166 18.5647V19.3817C28.166 19.7014 28.095 20.021 27.9529 20.3052C27.6688 20.838 27.2425 21.2642 26.7453 21.5484C26.4611 21.726 26.177 21.8325 25.8928 21.9391C25.6086 22.0101 25.3245 22.0811 25.0048 22.0811H5.39825C5.39825 22.0456 5.39825 15.9008 5.39825 15.9008Z" fill="black"/>
<path d="M54.0239 4.28592H50.9693V0.698486H50.0103V5.20942H54.0239V4.28592Z" fill="black"/>
<path d="M65.4255 4.81871C65.6741 4.57007 65.7807 4.2504 65.7807 3.89521V3.82417C65.7807 3.5045 65.6741 3.22035 65.461 2.97171C65.6741 2.72308 65.7807 2.43892 65.7807 2.11925V2.01269C65.7807 1.6575 65.6741 1.33783 65.4255 1.0892C65.3189 0.94712 65.1768 0.876082 64.9992 0.805044C64.8572 0.734005 64.7151 0.698486 64.5375 0.698486H60.8435V5.20942H64.5375C64.7151 5.20942 64.8927 5.1739 65.0348 5.10286C65.1768 5.03182 65.3189 4.92527 65.4255 4.81871ZM61.767 1.62198H64.502C64.5375 1.62198 64.573 1.62198 64.6085 1.6575C64.6441 1.6575 64.6796 1.69302 64.7151 1.72854C64.7861 1.79958 64.8216 1.90614 64.8216 2.01269V2.11925C64.8216 2.22581 64.7861 2.33237 64.7151 2.40341C64.6796 2.43892 64.6441 2.47444 64.6085 2.47444C64.573 2.47444 64.5375 2.50996 64.502 2.50996H61.767V1.62198ZM61.767 3.43346H64.502C64.5375 3.43346 64.573 3.43346 64.6085 3.46898C64.6441 3.46898 64.6796 3.5045 64.7151 3.54002C64.7861 3.61106 64.8216 3.71761 64.8216 3.82417V3.89521C64.8216 4.00177 64.7861 4.10832 64.7151 4.17936C64.6796 4.21488 64.6441 4.2504 64.6085 4.2504C64.573 4.2504 64.5375 4.28592 64.502 4.28592H61.767V3.43346Z" fill="black"/>
<path d="M55.9421 4.07281H58.7837L59.2809 5.24494H60.311L58.3574 0.698486H56.3683L54.4148 5.24494H55.4448L55.9421 4.07281ZM56.9722 1.62198H57.7181L58.3929 3.11379H56.3683C56.3683 3.14931 56.9722 1.62198 56.9722 1.62198Z" fill="black"/>
</svg>
