<svg width="92" height="26" viewBox="0 0 92 26" fill="none" xmlns="http://www.w3.org/2000/svg">
<g clip-path="url(#clip0_2003_352)">
<rect x="2.19775" y="1.61353" width="88.2601" height="18.3786" fill="white"/>
<path fill-rule="evenodd" clip-rule="evenodd" d="M3.4585 25.3348H2.71053L2.58231 24.4586H2.02668L1.89846 25.3348H1.2146L1.77023 22.1933H2.90287L3.4585 25.3348ZM2.5182 24.138L2.32586 22.5139H2.28312L2.09079 24.138H2.5182ZM6.40763 22.4498H5.59555V25.3348H4.84758V22.2147H6.40763V22.4498ZM9.46361 25.3348H7.64712V22.2147H9.46361V22.4711H8.45919V23.5397H9.46361V23.8602H8.45919V25.057H9.52772L9.46361 25.3348ZM12.776 25.3348H12.0281V23.8389H11.6434V25.3348H10.8954V22.2147H11.6434V23.5397H12.0281V22.2147H12.776V25.3348ZM15.9816 22.4498H15.426V25.3348H14.678V22.4498H14.0583V22.1292H16.003C15.9816 22.1292 15.9816 22.4498 15.9816 22.4498ZM19.1658 24.886C19.1658 25.0142 19.1658 25.1425 19.1017 25.2066C18.9735 25.3348 18.7811 25.3989 18.482 25.3989H17.9904C17.7981 25.3989 17.6058 25.3989 17.5417 25.3348C17.4134 25.2707 17.2852 25.1425 17.2852 24.886V22.7062C17.2852 22.578 17.2852 22.4498 17.3493 22.3857C17.4775 22.2574 17.6699 22.1933 17.9691 22.1933H18.4606C18.717 22.1933 18.888 22.2574 19.0162 22.3216C19.1444 22.3857 19.1444 22.5139 19.1444 22.7062V23.2619H18.3965V22.6421C18.3965 22.6421 18.3965 22.578 18.3324 22.578C18.2682 22.578 18.2682 22.5139 18.2041 22.5139H18.0759C18.0118 22.5139 18.0118 22.578 18.0118 22.578V24.9501C18.0118 24.9501 18.0118 25.0142 18.0759 25.0142H18.2255C18.2896 25.0142 18.3537 25.0142 18.3537 24.9501H18.4178V24.2663H19.1658V24.886ZM22.2859 22.4498H21.7303V25.3348H20.9823V22.4498H20.4267V22.1292H22.3714L22.2859 22.4498ZM25.4915 24.886C25.4915 25.0142 25.4274 25.0783 25.3632 25.1425C25.235 25.2707 25.0427 25.3348 24.7435 25.3348H23.6109V22.2147H24.7435C24.9999 22.2147 25.1923 22.2788 25.2991 22.3429C25.4274 22.407 25.4915 22.5353 25.4915 22.7276V23.4114C25.4915 23.4756 25.4915 23.6038 25.4274 23.6038C25.3632 23.732 25.1709 23.732 24.9358 23.732C25.1282 23.732 25.2564 23.732 25.3205 23.7961C25.4487 23.8602 25.4487 23.9243 25.4487 24.0526L25.4915 24.886ZM24.7221 23.3901V22.6421C24.7221 22.578 24.7221 22.578 24.658 22.5139C24.5939 22.5139 24.5298 22.4498 24.4657 22.4498H24.4229V23.5183H24.4871C24.6794 23.5183 24.7221 23.5183 24.7221 23.3901ZM24.7221 24.886V24.0098C24.7221 23.8816 24.658 23.8175 24.4657 23.8175H24.3375V25.0142H24.4016C24.6794 25.0142 24.7221 24.9501 24.7221 24.886ZM28.9321 24.8219C28.9321 24.9501 28.9321 25.0783 28.868 25.1425C28.7398 25.2707 28.5474 25.3348 28.3124 25.3348H27.8209C27.5644 25.3348 27.3293 25.2707 27.2652 25.1425C27.2011 25.0783 27.137 24.9501 27.137 24.8219V22.6848C27.137 22.5566 27.2011 22.4284 27.2011 22.3643C27.3293 22.2361 27.5217 22.172 27.7567 22.172H28.2483C28.5047 22.172 28.7398 22.2361 28.8039 22.3643C28.868 22.4284 28.9321 22.5566 28.9321 22.6848V24.8219ZM28.1628 24.9501V22.6421C28.1628 22.578 28.1628 22.578 28.0987 22.578C28.0346 22.578 28.0346 22.5139 27.9704 22.5139C27.9063 22.5139 27.8422 22.5139 27.8422 22.578L27.7781 22.6421V24.9501C27.7781 25.0142 27.7781 25.0142 27.8422 25.0142H27.9704C28.12 25.0142 28.1628 25.0142 28.1628 24.9501ZM35.6211 25.3348H34.8731V23.8389H34.4884V25.3348H33.7405V22.2147H34.4884V23.5397H34.8731V22.2147H35.6211V25.3348ZM39.2968 25.3348H38.5488L38.4206 24.4586H37.865L37.8009 25.3348H37.0529L37.6085 22.2147H38.7412L39.2968 25.3348ZM38.3565 24.138L38.1642 22.5139H38.1001L37.9077 24.138H38.3565ZM42.5665 23.6893C42.5665 23.8816 42.5024 24.0098 42.31 24.1167C42.1818 24.1808 42.0536 24.1808 41.8826 24.1808H41.4552V25.3134H40.7073V22.1933H41.904C42.0963 22.1933 42.2887 22.1933 42.3314 22.2574C42.5237 22.3216 42.5879 22.4498 42.5879 22.6421L42.5665 23.6893ZM41.7972 23.7534V22.6207C41.7972 22.5566 41.7972 22.4925 41.733 22.4925C41.6689 22.4284 41.6048 22.4284 41.5407 22.4284H41.4125V23.8602H41.6689C41.7544 23.8816 41.7972 23.8175 41.7972 23.7534ZM46.0713 22.1933L45.3233 24.8219C45.2592 25.0142 45.1309 25.2066 45.0027 25.2707C44.8745 25.3348 44.6822 25.3348 44.383 25.3348H43.9556V25.0142H44.1479C44.3402 25.0142 44.4685 25.0142 44.5326 24.9501C44.5326 24.9501 44.5967 24.886 44.5967 24.8219L44.6608 24.6296L43.8487 22.1933H44.6608L45.0455 23.9457L45.366 22.1933H46.0713ZM50.4949 25.3348H49.6829L49.2555 23.903V25.3348H48.5075V23.903L48.0587 25.3348H47.3107L47.9305 23.7106L47.3748 22.2147H48.1228L48.5075 23.6465V22.2147H49.2555V23.6465L49.6401 22.2147H50.3881L49.8325 23.7106L50.4949 25.3348ZM53.7646 25.3348H53.0167V23.8389H52.632V25.3348H51.884V22.2147H52.632V23.5397H53.0167V22.2147H53.7646V25.3348ZM57.1412 24.8219C57.1412 24.9501 57.1412 25.0783 57.077 25.1425C56.9488 25.2707 56.7565 25.3348 56.5214 25.3348H55.9658C55.7093 25.3348 55.4743 25.2707 55.4102 25.1425C55.346 25.0783 55.2819 24.9501 55.2819 24.8219V22.6848C55.2819 22.5566 55.346 22.4284 55.346 22.3643C55.4743 22.2361 55.6666 22.172 55.9017 22.172H56.3932C56.6496 22.172 56.8847 22.2361 56.9488 22.3643C57.0129 22.4284 57.077 22.5566 57.077 22.6848L57.1412 24.8219ZM56.3718 24.9501V22.6421C56.3718 22.578 56.3718 22.578 56.3077 22.578C56.2436 22.578 56.2436 22.5139 56.1795 22.5139C56.1154 22.5139 56.0513 22.5139 56.0513 22.578L55.9872 22.6421V24.9501C55.9872 25.0142 55.9872 25.0142 56.0513 25.0142H56.1795C56.3291 25.0142 56.3718 25.0142 56.3718 24.9501ZM60.4536 21.7659C60.4536 21.8941 60.3895 21.9583 60.3254 21.9583C60.1971 22.0224 60.0689 22.0224 59.9407 22.0224H59.5133C59.321 22.0224 59.1927 22.0224 59.1286 21.9583C59.0645 21.8941 59.0004 21.83 59.0004 21.7659V21.6377H59.556V21.7659C59.556 21.83 59.6201 21.8941 59.7484 21.8941C59.8125 21.8941 59.8766 21.8941 59.8766 21.83C59.9407 21.83 59.9407 21.7659 59.9407 21.7659V21.6377H60.4963V21.7659H60.4536ZM60.6245 25.3348H59.8766V23.5824L59.4492 25.3348H58.7012V22.2147H59.4492V24.0312L59.8766 22.2147H60.6245V25.3348ZM67.6341 23.7106C67.6341 23.903 67.57 24.0312 67.3776 24.138C67.2494 24.2022 67.1212 24.2022 66.9502 24.2022H66.5228V25.3348H65.7748V22.2147H66.9716C67.1639 22.2147 67.3563 22.2147 67.399 22.2788C67.5913 22.3429 67.6554 22.4711 67.6554 22.6635L67.6341 23.7106ZM66.822 23.7534V22.6207C66.822 22.5566 66.822 22.4925 66.7579 22.4925C66.6938 22.4925 66.6297 22.4284 66.5655 22.4284H66.4373V23.8602H66.6297C66.822 23.8816 66.822 23.8175 66.822 23.7534ZM70.8396 25.3348H69.0232V22.2147H70.8396V22.4711H69.8352V23.5397H70.8396V23.8602H69.8352V25.057H70.9038L70.8396 25.3348ZM74.2162 25.3348H73.4682L72.9767 23.8389V25.3348H72.2287V22.2147H72.9767V23.5824L73.3614 22.2147H74.1093L73.6178 23.7106L74.2162 25.3348ZM77.5927 25.3348H76.8447V22.4498H76.4601V24.8219C76.4601 25.0142 76.396 25.1425 76.2036 25.2707C76.0754 25.3348 75.9472 25.3348 75.7762 25.3348H75.3274V25.0142C75.4557 25.0142 75.5198 25.0142 75.5839 24.9501C75.648 24.886 75.7121 24.886 75.7121 24.8219V22.1933H77.5927V25.3348ZM81.2043 25.3348H80.4564L80.3281 24.4586H79.7725L79.6443 25.3348H78.8963L79.4519 22.2147H80.5846L81.2043 25.3348ZM80.3281 24.138L80.1358 22.5139H80.0717L79.8794 24.138H80.3281ZM86.0341 25.3348H85.2861V22.8986L84.7305 25.3348H83.9825L83.4269 22.8986V25.3348H82.6789V22.2147H83.8115L84.3672 24.715L84.9869 22.2147H86.1195V25.3348H86.0341ZM90.5432 25.3348H89.7953V22.2147H90.5432V25.3348ZM89.4106 24.886C89.4106 25.0142 89.4106 25.0783 89.3465 25.1425C89.2183 25.2707 89.0259 25.3348 88.7267 25.3348H87.53V22.2147H88.278V23.4114H88.6626C88.9832 23.4114 89.1541 23.4756 89.2824 23.6038C89.3465 23.6679 89.3465 23.732 89.3465 23.8602L89.4106 24.886ZM88.6626 24.886V23.7534C88.6626 23.6893 88.5985 23.6893 88.4703 23.6893H88.3421V25.057H88.4703C88.5985 25.0142 88.6626 24.9501 88.6626 24.886Z" fill="white"/>
<path fill-rule="evenodd" clip-rule="evenodd" d="M0.274414 21.1247H91.7187V0.544922H0.274414V21.1247ZM35.9845 7.16977C36.1768 6.4218 36.476 5.67384 37.1171 5.16095C37.5018 4.84039 37.9933 4.71217 38.4848 4.71217C39.4251 4.64805 39.8525 5.52424 39.4251 6.14399C38.7413 7.08429 37.801 7.76815 36.6042 7.89637C36.1127 7.98185 35.8776 7.68266 35.9845 7.16977ZM60.5178 15.3119C59.7698 15.8034 58.9578 16.0599 58.0816 16.1881C56.9489 16.3804 56.0086 16.0599 55.3248 15.0555C55.2607 14.9914 55.1966 14.8631 55.1324 14.799C54.876 14.4785 54.6409 14.4785 54.3204 14.7349C53.7647 15.2264 53.1877 15.7393 52.5039 16.1026C52.0124 16.4232 51.4995 16.6583 50.9438 16.7865C50.5164 16.8506 50.1318 16.7865 49.7471 16.5942C49.4265 16.4659 49.2983 16.2095 49.2983 15.8462V15.0341C49.2983 14.8418 49.2342 14.8418 49.106 14.9059C48.1657 15.6539 47.0971 16.2095 46.05 16.8506C45.5585 17.1712 44.9815 17.4062 44.3617 17.5986C43.9343 17.7268 43.6138 17.5986 43.3573 17.1712C43.0368 16.6155 42.9299 15.9744 42.8658 15.3547C42.8658 14.97 43.3146 14.6067 43.8702 14.5426C44.1908 14.5426 44.4258 14.6067 44.6823 14.6708C44.8746 14.7349 44.9387 14.6708 44.8746 14.4785C44.8105 14.3503 44.8105 14.1579 44.7464 14.0511C44.4899 13.5595 44.2976 13.0467 44.1266 12.5551C44.0625 12.2987 43.9343 12.2987 43.742 12.4269C42.9299 12.9825 42.246 13.6878 41.5408 14.3075C41.1134 14.6922 40.7287 15.1196 40.2372 15.5043C39.8526 15.8248 39.4893 16.0599 39.0405 16.2522C38.1643 16.5728 37.2881 16.3805 36.6683 15.6325C36.2837 15.2051 36.0486 14.6922 35.8563 14.2007C35.7922 14.1365 35.7922 14.0083 35.728 13.9442C35.5357 13.5168 35.3006 13.3886 34.8519 13.6878C34.0398 14.3075 33.3559 14.9914 32.4797 15.5684C31.7318 16.0599 30.9838 16.6369 30.1076 16.9361C29.6161 17.1284 29.1032 17.1925 28.5476 17.1284C28.0988 17.0643 27.8637 16.8079 27.8637 16.3163C27.8637 15.9317 27.9919 15.6325 28.1843 15.3119C28.5048 14.6922 28.804 14.1152 28.9322 13.4313C29.0605 12.8116 28.804 12.1705 28.3766 11.9354C28.1202 11.8072 27.9492 11.8072 27.7569 11.9354C27.4363 12.1918 27.1371 12.491 26.8166 12.8116C26.0045 13.5595 25.3206 14.4357 24.4444 15.0555C23.8247 15.547 23.0767 15.9317 22.2646 16.1881C21.2602 16.5087 20.4482 16.0599 20.0849 15.0555C20.0207 14.8631 19.9566 14.6281 19.8925 14.4357C19.8284 14.1152 19.8284 14.1152 19.572 14.3075C18.7599 15.0555 17.9478 15.7393 16.9434 16.3163C16.3236 16.6369 15.7466 17.0002 14.9987 17.0643C14.443 17.1284 13.9943 16.9361 13.631 16.5728C13.4386 16.4446 13.4386 16.2522 13.4386 16.124C13.4386 15.6325 13.631 15.1837 13.8233 14.6922C12.3915 15.5684 10.8742 16.1881 9.31413 16.7651C7.94642 17.2566 6.55734 17.5131 5.12551 17.5131H4.99729C3.99288 17.5131 3.56547 16.8933 3.86466 15.953C4.35618 14.1365 4.99729 12.3842 5.68115 10.6318C5.87348 10.183 6.0017 9.81971 6.17267 9.37093C6.23678 9.24271 6.23678 9.1786 6.17267 9.05037C5.68115 8.60159 5.72389 8.04596 5.98033 7.55444C6.23678 7.06292 6.60008 6.61414 6.98475 6.18673C7.6686 5.43876 8.2456 4.62668 8.92946 3.94283C9.48509 3.3872 10.1262 3.00253 10.8742 2.74608C11.1306 2.68197 11.3657 2.68197 11.6221 2.8743C11.9427 3.06664 12.0068 3.25897 11.8786 3.62227C11.558 4.62668 11.0665 5.50287 10.6177 6.37906C9.61332 8.25967 8.54479 10.0762 7.73271 12.0209C7.34804 12.833 7.04886 13.7091 6.92063 14.5853C6.85652 14.97 6.92063 14.97 7.3053 15.0341C8.18149 15.1623 8.99357 14.97 9.80565 14.7136C11.558 14.222 13.1181 13.41 14.7422 12.5765C15.1269 12.3842 15.362 11.9568 15.6825 11.6362C16.6228 10.8241 17.6272 10.2044 18.7385 9.69149C19.5506 9.30682 20.3627 9.00763 21.2389 8.68708C21.6663 8.49474 22.0509 8.55885 22.4356 8.8153C22.6921 8.94352 22.6921 9.13586 22.5638 9.30682C22.3715 9.56327 22.115 9.7556 21.88 9.92656C20.6191 10.8028 19.3796 11.6789 18.1188 12.491C17.5631 12.8757 16.9861 13.3031 16.6228 13.9228C16.5587 14.0511 16.3664 14.1793 16.4946 14.3716C16.6228 14.4998 16.8152 14.3716 16.922 14.3716C17.6059 14.1152 18.1829 13.6237 18.8026 13.239C19.4224 12.8116 20.0635 12.3628 20.6832 11.8713C20.8756 11.7431 21.0679 11.6789 21.2389 11.5507C21.5594 11.4225 21.7945 11.4225 22.115 11.6789C22.3715 11.9354 22.4356 12.1705 22.3715 12.491C22.2433 12.8116 22.2433 13.1749 22.1792 13.4954C22.115 14.0511 22.4356 14.3716 22.9912 14.3075C23.3118 14.2434 23.5469 14.1152 23.8033 13.987C24.8077 13.3672 25.5557 12.4269 26.3037 11.6148C26.3678 11.5507 26.496 11.4225 26.5601 11.2943C26.6883 11.1661 26.6883 11.0378 26.6242 10.8455C26.4319 10.354 26.496 10.1616 26.9448 9.90519C27.7569 9.41367 28.5689 9.09312 29.5092 9.52053C30.4495 10.012 31.0693 10.7814 31.2616 11.8926C31.454 12.7688 31.0693 13.5809 30.6419 14.3289C30.5778 14.4571 30.5136 14.5212 30.4495 14.6494C30.3854 14.7777 30.2572 14.9059 30.3213 15.0341C30.3854 15.1623 30.5778 15.0982 30.706 15.0982C30.8983 15.0982 31.0265 14.97 31.1334 14.9059C32.437 14.222 33.3773 13.2176 34.3817 12.2132C34.8091 11.7644 35.1938 11.2729 35.6426 10.8455C35.9631 10.4608 36.3264 10.2258 36.8393 10.4181C37.3949 10.6104 37.8437 10.9096 37.9719 11.6148C38.0361 12.1705 38.1002 12.7475 38.2284 13.239C38.2925 13.4954 38.3566 13.7305 38.4848 13.9228C38.7413 14.3716 39.0405 14.4785 39.5534 14.3075C40.109 14.0511 40.5578 13.6237 40.9852 13.239C41.9255 12.4269 42.8017 11.5507 43.742 10.6745C44.1908 10.2471 44.6823 9.86245 45.1097 9.47778C45.7294 8.98626 46.798 9.15723 47.2254 9.86245C47.4177 10.183 47.3536 10.4822 47.033 10.6745C46.7125 10.8669 46.5843 11.1019 46.5415 11.4866C46.4774 12.4269 46.7338 13.3031 47.033 14.1793C47.0971 14.4357 47.2895 14.4357 47.4604 14.3716C48.529 13.9228 49.5334 13.4313 50.3455 12.6192C51.9696 11.0592 53.9143 9.99068 55.9659 9.24271C56.2223 9.11449 56.5215 9.11449 56.778 9.11449C57.0344 9.11449 57.2268 9.24271 57.3336 9.49915C57.4618 9.7556 57.2695 9.94793 57.1413 10.0548C56.4574 10.7386 55.6453 11.2515 54.7691 11.7431C54.0212 12.1918 53.2732 12.5551 52.5894 13.1749C52.3329 13.4313 52.1619 13.6664 51.9696 13.9228C51.9055 14.0511 51.8414 14.1793 51.9696 14.3075C52.0337 14.4357 52.1619 14.4357 52.3543 14.4357C52.5466 14.4357 52.739 14.3075 52.9099 14.1793C53.5938 13.7946 54.1067 13.3031 54.6623 12.8116C54.8546 12.6192 55.1111 12.491 55.3462 12.3842C55.9659 12.1918 56.4147 12.3842 56.778 12.8757C56.9062 13.1321 57.0985 13.3672 57.2268 13.6237C57.6542 14.4998 58.2953 14.8204 59.2356 14.564C59.5561 14.4998 59.7912 14.3716 60.1118 14.3075C60.3682 14.2434 60.6033 14.1793 60.7956 14.4998C60.8811 14.7563 60.817 15.1196 60.5178 15.3119ZM89.7313 19.3723H64.5782V2.2973H89.7313V19.3723Z" fill="#DA251E"/>
<path fill-rule="evenodd" clip-rule="evenodd" d="M71.0105 16.5088C71.0105 17.1285 70.9464 17.6414 70.754 17.9406C70.4335 18.5603 69.8137 18.8809 68.9375 18.8809H67.3775C66.7578 18.8809 66.309 18.7527 66.0098 18.5603C65.5824 18.2398 65.3259 17.4918 65.3259 16.4233V5.18243C65.3259 4.43446 65.39 3.92157 65.5824 3.62238C65.9029 3.06675 66.4586 2.8103 67.3348 2.8103H68.8948C69.6428 2.8103 70.1557 3.00264 70.519 3.36594C70.8395 3.68649 70.9464 4.30624 70.9464 5.11831V7.93922H68.7025V4.79776C68.7025 4.66953 68.6384 4.54131 68.5101 4.41309C68.446 4.34898 68.3178 4.28487 68.1255 4.28487C68.0614 4.28487 67.9331 4.34898 67.8049 4.41309C67.6767 4.54131 67.6126 4.66953 67.6126 4.79776V16.808C67.6126 16.9362 67.6767 17.0644 67.7408 17.1926C67.869 17.3209 67.9331 17.3209 68.1255 17.3209C68.3178 17.3209 68.446 17.2567 68.5529 17.0644C68.617 17.0003 68.6811 16.8721 68.6811 16.808V13.175H70.925V16.4874L71.0105 16.5088ZM74.8999 18.8809H72.656V2.85304H74.8999V18.8809ZM81.8453 4.41309H80.0929V18.8595H77.849V4.41309H76.0967V2.85304H81.7812L81.8453 4.41309ZM89.0258 2.85304L86.8887 14.6282V18.8168H84.6448V14.6282L82.5292 2.85304H85.0936L85.8416 9.542L86.5896 2.85304H89.0258Z" fill="#DA251E"/>
</g>
<defs>
<clipPath id="clip0_2003_352">
<rect width="91.4443" height="24.8325" fill="white" transform="translate(0.274414 0.544922)"/>
</clipPath>
</defs>
</svg>
