<svg width="93" height="32" viewBox="0 0 93 32" fill="none" xmlns="http://www.w3.org/2000/svg">
<path d="M11.6452 3.09077C12.2941 3.09077 12.8632 3.24445 13.3527 3.55182C13.8422 3.84781 14.2179 4.26332 14.4797 4.79837C14.7529 5.33342 14.8895 5.94247 14.8895 6.62551V12.5168H13.4381V7.06949C13.4381 6.52305 13.3527 6.05062 13.182 5.65218C13.0226 5.25373 12.7836 4.95206 12.4648 4.74714C12.1575 4.53085 11.7875 4.4227 11.3549 4.4227C10.6833 4.4227 10.1027 4.71299 9.61319 5.29358C9.13508 5.86278 8.89602 6.56859 8.89602 7.41101V12.5168H7.47874V7.06949C7.47874 6.23845 7.29091 5.58956 6.91525 5.12282C6.55097 4.65607 6.0387 4.4227 5.37845 4.4227C5.04832 4.4227 4.72958 4.50239 4.42222 4.66176C4.12624 4.80976 3.86441 5.01467 3.63674 5.2765C3.42045 5.53833 3.244 5.85709 3.1074 6.23276C2.98217 6.59705 2.91956 6.9898 2.91956 7.41101V12.5168H1.46814V3.29568H2.50975L2.74881 4.55931C2.91956 4.33163 3.11309 4.12671 3.32938 3.94457C3.55705 3.76242 3.79611 3.60874 4.04655 3.48352C4.29699 3.35829 4.56451 3.26153 4.8491 3.19322C5.1337 3.12492 5.41829 3.09077 5.70288 3.09077C6.35176 3.09077 6.92094 3.25014 7.41044 3.5689C7.89994 3.87627 8.26991 4.30317 8.52035 4.8496C8.74803 4.48531 9.02693 4.17225 9.35706 3.91042C9.68719 3.64858 10.0458 3.44936 10.4328 3.31276C10.8313 3.16476 11.2354 3.09077 11.6452 3.09077Z" fill="white"/>
<path d="M25.6334 7.94037C25.6334 8.06559 25.622 8.24204 25.5993 8.46972H17.7274C17.8413 9.32353 18.1942 10.0123 18.7861 10.5359C19.3781 11.0482 20.1066 11.3044 20.9718 11.3044C21.6093 11.3044 22.1728 11.1677 22.6623 10.8945C23.1632 10.6099 23.5616 10.2115 23.8576 9.6992H25.3773C24.9902 10.6555 24.4097 11.4011 23.6356 11.9362C22.8615 12.4598 21.9736 12.7217 20.9718 12.7217C19.6399 12.7217 18.5243 12.2606 17.625 11.3385C16.7257 10.4164 16.276 9.2723 16.276 7.90621C16.276 6.52875 16.7257 5.38465 17.625 4.47393C18.5243 3.55182 19.6399 3.09077 20.9718 3.09077C22.3492 3.09077 23.4705 3.55751 24.3357 4.491C25.2008 5.42449 25.6334 6.57428 25.6334 7.94037ZM20.9718 4.47393C20.4254 4.47393 19.9245 4.58208 19.4691 4.79837C19.0252 5.01467 18.6552 5.32773 18.3592 5.73756C18.0632 6.136 17.864 6.59705 17.7616 7.12072H24.1649C24.0625 6.58567 23.8633 6.11892 23.5673 5.72048C23.2713 5.31065 22.9013 5.00329 22.4574 4.79837C22.0134 4.58208 21.5182 4.47393 20.9718 4.47393Z" fill="white"/>
<path d="M34.5441 0H35.9955V12.5168H34.8856L34.6807 11.2019C33.77 12.2151 32.5918 12.7217 31.146 12.7217C29.7572 12.7217 28.6132 12.2663 27.7138 11.3556C26.8259 10.4335 26.3819 9.28368 26.3819 7.90621C26.3819 6.51736 26.8259 5.36757 27.7138 4.45685C28.6132 3.54613 29.7572 3.09077 31.146 3.09077C32.5121 3.09077 33.6448 3.54613 34.5441 4.45685V0ZM28.8238 10.3481C29.4612 10.997 30.2638 11.3214 31.2314 11.3214C32.2104 11.3214 33.0243 10.997 33.6732 10.3481C34.3221 9.68782 34.6465 8.87386 34.6465 7.90621C34.6465 6.92719 34.3221 6.11323 33.6732 5.46434C33.0357 4.81545 32.2275 4.491 31.2485 4.491C30.7704 4.491 30.3207 4.58208 29.8995 4.76422C29.4783 4.93498 29.1197 5.16835 28.8238 5.46434C28.5278 5.76032 28.2944 6.12461 28.1237 6.55721C27.9529 6.97842 27.8675 7.42809 27.8675 7.90621C27.8675 8.88524 28.1863 9.6992 28.8238 10.3481Z" fill="white"/>
<path d="M38.1877 1.69053V0.0341527H39.7587V1.69053H38.1877ZM38.256 12.5168V3.29568H39.7074V12.5168H38.256Z" fill="white"/>
<path d="M65.6807 11.1677H66.6882V12.5168H65.4929C64.844 12.5168 64.2748 12.3915 63.7853 12.1411C63.3072 11.8792 62.9373 11.5036 62.6754 11.0141C62.425 10.5245 62.2998 9.94965 62.2998 9.28938V4.61054H60.6776V4.3544L63.5292 1.34901H63.7512V3.29568H66.637V4.61054H63.7512V9.23815C63.7512 9.65936 63.8252 10.0123 63.9732 10.2969C64.1212 10.5815 64.3375 10.7978 64.622 10.9458C64.918 11.0937 65.2709 11.1677 65.6807 11.1677ZM56.2892 7.06949C56.6079 7.11502 56.8413 7.15487 56.9893 7.18902C57.1486 7.21179 57.3706 7.26302 57.6552 7.3427C57.9512 7.41101 58.1789 7.48501 58.3382 7.56469C58.4976 7.64438 58.6797 7.75822 58.8846 7.90621C59.1009 8.04282 59.2603 8.2022 59.3628 8.38434C59.4652 8.55511 59.5563 8.7714 59.636 9.03323C59.7157 9.28368 59.7555 9.56259 59.7555 9.86996C59.7555 10.7351 59.4197 11.4296 58.748 11.9532C58.0878 12.4655 57.2112 12.7217 56.1184 12.7217C55.3898 12.7217 54.7524 12.6021 54.2059 12.3631C53.6595 12.1126 53.2326 11.7597 52.9253 11.3044C52.6179 10.8376 52.4528 10.2969 52.4301 9.68212H53.8474C53.8815 10.2286 54.1092 10.6498 54.5304 10.9458C54.9516 11.2304 55.4923 11.3727 56.1526 11.3727C56.8014 11.3727 57.3251 11.2474 57.7235 10.997C58.1219 10.7351 58.3212 10.3822 58.3212 9.93827C58.3212 9.73335 58.2756 9.55121 58.1845 9.39183C58.0935 9.23246 57.9853 9.10723 57.8601 9.01616C57.7349 8.9137 57.5471 8.82263 57.2966 8.74294C57.0576 8.66325 56.847 8.60633 56.6648 8.57218C56.4941 8.53803 56.2493 8.49249 55.9306 8.43557C55.7257 8.40142 55.5663 8.37296 55.4525 8.35019C55.3386 8.32742 55.1849 8.29896 54.9914 8.26481C54.7979 8.21928 54.6385 8.17943 54.5133 8.14528C54.3995 8.09974 54.2572 8.04852 54.0864 7.9916C53.9157 7.92329 53.779 7.85499 53.6766 7.78668C53.5741 7.70699 53.4546 7.62161 53.318 7.53054C53.1928 7.42809 53.0903 7.31994 53.0106 7.2061C52.9423 7.09226 52.8684 6.96703 52.7887 6.83042C52.7204 6.68243 52.6691 6.51736 52.635 6.33522C52.6122 6.15307 52.6008 5.96524 52.6008 5.77171C52.6008 4.97483 52.9196 4.33163 53.5571 3.84211C54.1946 3.34122 55.0313 3.09077 56.0672 3.09077C57.1145 3.09077 57.9512 3.3526 58.5773 3.87626C59.2034 4.38855 59.5278 5.07728 59.5506 5.94247H58.1845C58.1504 5.44157 57.9455 5.06021 57.5698 4.79837C57.2056 4.52516 56.699 4.38855 56.0501 4.38855C55.424 4.38855 54.9231 4.51377 54.5474 4.76422C54.1832 5.00329 54.001 5.32204 54.001 5.72048C54.001 5.90262 54.0466 6.06769 54.1376 6.21569C54.2287 6.35229 54.3312 6.46613 54.445 6.55721C54.5588 6.63689 54.7353 6.71658 54.9743 6.79627C55.2134 6.86458 55.4126 6.9158 55.572 6.94996C55.7427 6.97272 55.9818 7.01257 56.2892 7.06949Z" fill="white"/>
<path d="M72.323 12.7217C71.4123 12.7217 70.5813 12.5168 69.83 12.1069C69.0786 11.6857 68.4924 11.1108 68.0712 10.3822C67.65 9.64228 67.4394 8.81694 67.4394 7.90621C67.4394 6.51736 67.9004 5.36757 68.8225 4.45685C69.756 3.54613 70.9228 3.09077 72.323 3.09077C73.2451 3.09077 74.0761 3.30137 74.816 3.72258C75.5674 4.13241 76.1536 4.7073 76.5748 5.44726C77.0074 6.17584 77.2237 6.99549 77.2237 7.90621C77.2237 9.28368 76.757 10.4335 75.8235 11.3556C74.89 12.2663 73.7232 12.7217 72.323 12.7217ZM69.8812 10.3652C70.5301 11.0027 71.344 11.3214 72.323 11.3214C73.3134 11.3214 74.1273 11.0027 74.7648 10.3652C75.4137 9.71628 75.7381 8.89663 75.7381 7.90621C75.7381 6.9158 75.4137 6.10184 74.7648 5.46434C74.1273 4.81545 73.3134 4.491 72.323 4.491C71.344 4.491 70.5301 4.81545 69.8812 5.46434C69.2437 6.10184 68.925 6.9158 68.925 7.90621C68.925 8.89663 69.2437 9.71628 69.8812 10.3652Z" fill="white"/>
<path d="M82.9471 3.24445H83.7667V4.62761H82.8275C81.9965 4.62761 81.3477 4.88375 80.8809 5.39603C80.4256 5.89693 80.1979 6.60274 80.1979 7.51347V12.5168H78.7465V3.29568H79.771L80.0101 4.69592C80.6817 3.72827 81.6607 3.24445 82.9471 3.24445Z" fill="white"/>
<path d="M92.9899 7.94037C92.9899 8.06559 92.9785 8.24204 92.9558 8.46972H85.0839C85.1978 9.32353 85.5507 10.0123 86.1426 10.5359C86.7346 11.0482 87.4631 11.3044 88.3283 11.3044C88.9658 11.3044 89.5293 11.1677 90.0188 10.8945C90.5197 10.6099 90.9181 10.2115 91.2141 9.6992H92.7338C92.3467 10.6555 91.7662 11.4011 90.9921 11.9362C90.218 12.4598 89.3301 12.7217 88.3283 12.7217C86.9964 12.7217 85.8808 12.2606 84.9815 11.3385C84.0822 10.4164 83.6325 9.2723 83.6325 7.90621C83.6325 6.52875 84.0822 5.38465 84.9815 4.47393C85.8808 3.55182 86.9964 3.09077 88.3283 3.09077C89.7057 3.09077 90.827 3.55751 91.6922 4.491C92.5573 5.42449 92.9899 6.57428 92.9899 7.94037ZM88.3283 4.47393C87.7819 4.47393 87.281 4.58208 86.8256 4.79837C86.3817 5.01467 86.0117 5.32773 85.7157 5.73756C85.4197 6.136 85.2205 6.59705 85.1181 7.12072H91.5214C91.419 6.58567 91.2198 6.11892 90.9238 5.72048C90.6278 5.31065 90.2578 5.00329 89.8139 4.79837C89.3699 4.58208 88.8747 4.47393 88.3283 4.47393Z" fill="white"/>
<mask id="mask0_863_8200" style="mask-type:alpha" maskUnits="userSpaceOnUse" x="40" y="3" width="12" height="10">
<rect x="40.7827" y="3.00879" width="10.2583" height="9.75814" fill="#D9D9D9"/>
</mask>
<g mask="url(#mask0_863_8200)">
<path d="M49.7967 7.21663H50.9578V16.4377H49.7454L49.5918 15.0375C49.1592 15.5497 48.6298 15.9482 48.0037 16.2328C47.389 16.506 46.7117 16.6426 45.9717 16.6426C44.6171 16.6426 43.4844 16.1873 42.5737 15.2765C41.663 14.3544 41.2076 13.2046 41.2076 11.8272C41.2076 10.4497 41.663 9.3056 42.5737 8.39488C43.4844 7.47277 44.6171 7.01172 45.9717 7.01172C46.7231 7.01172 47.4061 7.15402 48.0208 7.43862C48.6469 7.72322 49.1762 8.12166 49.6088 8.63394L49.7967 7.21663ZM43.6494 14.269C44.2983 14.9179 45.1123 15.2424 46.0913 15.2424C47.0703 15.2424 47.8785 14.9179 48.516 14.269C49.1535 13.6202 49.4722 12.8062 49.4722 11.8272C49.4722 10.8481 49.1535 10.0342 48.516 9.38529C47.8785 8.7364 47.0703 8.41196 46.0913 8.41196C45.1123 8.41196 44.2983 8.74209 43.6494 9.40237C43.012 10.0513 42.6932 10.8595 42.6932 11.8272C42.6932 12.7948 43.012 13.6088 43.6494 14.269Z" fill="#F95410"/>
<path d="M49.7967 -3.54216H50.9578V5.67892H49.7454L49.5918 4.27868C49.1592 4.79096 48.6298 5.1894 48.0037 5.474C47.389 5.74722 46.7117 5.88383 45.9717 5.88383C44.6171 5.88383 43.4844 5.42847 42.5737 4.51774C41.663 3.59564 41.2076 2.44585 41.2076 1.06838C41.2076 -0.30909 41.663 -1.45319 42.5737 -2.36391C43.4844 -3.28602 44.6171 -3.74707 45.9717 -3.74707C46.7231 -3.74707 47.4061 -3.60477 48.0208 -3.32017C48.6469 -3.03557 49.1762 -2.63713 49.6088 -2.12484L49.7967 -3.54216ZM43.6494 3.51026C44.2983 4.15915 45.1123 4.48359 46.0913 4.48359C47.0703 4.48359 47.8785 4.15915 48.516 3.51026C49.1535 2.86137 49.4722 2.04741 49.4722 1.06838C49.4722 0.0893516 49.1535 -0.724607 48.516 -1.3735C47.8785 -2.02239 47.0703 -2.34683 46.0913 -2.34683C45.1123 -2.34683 44.2983 -2.0167 43.6494 -1.35642C43.012 -0.707531 42.6932 0.100735 42.6932 1.06838C42.6932 2.03602 43.012 2.84998 43.6494 3.51026Z" fill="#F95410"/>
</g>
<path d="M9.3234 18.2979H10.4846V27.5188H9.27217L9.11849 26.1186C8.6859 26.6309 8.15655 27.0293 7.53044 27.3139C6.91571 27.5871 6.23837 27.7237 5.49841 27.7237C4.14373 27.7237 3.01104 27.2684 2.10033 26.3576C1.18962 25.4355 0.73426 24.2858 0.73426 22.9083C0.73426 21.5309 1.18962 20.3868 2.10033 19.4761C3.01104 18.554 4.14373 18.0929 5.49841 18.0929C6.24975 18.0929 6.93278 18.2352 7.54751 18.5198C8.17363 18.8044 8.70298 19.2029 9.13556 19.7151L9.3234 18.2979ZM3.1761 25.3502C3.82498 25.9991 4.63893 26.3235 5.61795 26.3235C6.59696 26.3235 7.40521 25.9991 8.04271 25.3502C8.68021 24.7013 8.99896 23.8873 8.99896 22.9083C8.99896 21.9293 8.68021 21.1154 8.04271 20.4665C7.40521 19.8176 6.59696 19.4932 5.61795 19.4932C4.63893 19.4932 3.82498 19.8233 3.1761 20.4836C2.53861 21.1324 2.21986 21.9407 2.21986 22.9083C2.21986 23.876 2.53861 24.6899 3.1761 25.3502ZM20.341 18.2979H21.3144V26.221C21.3144 27.7123 20.9102 28.8849 20.102 29.7387C19.2937 30.5924 18.1895 31.0193 16.7893 31.0193C15.6623 31.0193 14.7117 30.7404 13.9376 30.1826C13.1749 29.6248 12.6683 28.8564 12.4179 27.8774H13.8693C14.0742 28.4466 14.4385 28.8906 14.9622 29.2093C15.4972 29.5281 16.1062 29.6874 16.7893 29.6874C17.7227 29.6874 18.4684 29.3914 19.0262 28.7995C19.5954 28.2189 19.88 27.422 19.88 26.4089V25.8454C19.0034 26.7675 17.8878 27.2285 16.5331 27.2285C15.2468 27.2285 14.1653 26.7902 13.2887 25.9137C12.4235 25.0371 11.991 23.9556 11.991 22.6693C11.991 21.8269 12.1902 21.0584 12.5886 20.364C12.9871 19.6582 13.5335 19.1061 14.2279 18.7077C14.9223 18.2979 15.6907 18.0929 16.5331 18.0929C17.2503 18.0929 17.9163 18.2409 18.531 18.5369C19.1571 18.8215 19.6808 19.2199 20.102 19.7322L20.341 18.2979ZM16.6868 25.8283C17.2902 25.8283 17.8366 25.6917 18.3261 25.4185C18.8156 25.1453 19.197 24.7696 19.4702 24.2915C19.7434 23.8133 19.88 23.2726 19.88 22.6693C19.88 21.7472 19.5783 20.9901 18.975 20.3982C18.3716 19.7948 17.6089 19.4932 16.6868 19.4932C15.7647 19.4932 14.9963 19.7948 14.3816 20.3982C13.7782 21.0015 13.4766 21.7586 13.4766 22.6693C13.4766 23.5686 13.7782 24.3199 14.3816 24.9233C14.9963 25.5266 15.7647 25.8283 16.6868 25.8283ZM32.1716 22.9425C32.1716 23.0677 32.1603 23.2442 32.1375 23.4718H24.2655C24.3794 24.3256 24.7323 25.0143 25.3242 25.538C25.9162 26.0503 26.6448 26.3064 27.5099 26.3064C28.1474 26.3064 28.7109 26.1698 29.2005 25.8966C29.7013 25.612 30.0998 25.2136 30.3958 24.7013H31.9155C31.5285 25.6575 30.9479 26.4032 30.1738 26.9382C29.3997 27.4619 28.5117 27.7237 27.5099 27.7237C26.178 27.7237 25.0624 27.2627 24.1631 26.3406C23.2638 25.4185 22.8141 24.2744 22.8141 22.9083C22.8141 21.5309 23.2638 20.3868 24.1631 19.4761C25.0624 18.554 26.178 18.0929 27.5099 18.0929C28.8874 18.0929 30.0087 18.5597 30.8739 19.4932C31.7391 20.4266 32.1716 21.5764 32.1716 22.9425ZM27.5099 19.4761C26.9635 19.4761 26.4626 19.5842 26.0073 19.8005C25.5633 20.0168 25.1933 20.3299 24.8973 20.7397C24.6014 21.1381 24.4021 21.5992 24.2997 22.1228H30.7031C30.6007 21.5878 30.4015 21.1211 30.1055 20.7226C29.8095 20.3128 29.4395 20.0054 28.9955 19.8005C28.5516 19.5842 28.0564 19.4761 27.5099 19.4761ZM38.2649 18.0929C39.3464 18.0929 40.2059 18.4572 40.8434 19.1858C41.4922 19.9144 41.8167 20.8535 41.8167 22.0033V27.5188H40.3652V22.3448C40.3652 21.7187 40.2685 21.1894 40.075 20.7568C39.8928 20.3242 39.6139 19.9941 39.2382 19.7664C38.874 19.5387 38.4243 19.4249 37.8892 19.4249C37.1038 19.4249 36.4435 19.7208 35.9084 20.3128C35.3734 20.8934 35.1059 21.6163 35.1059 22.4814V27.5188H33.6544V18.2979H34.679L34.9693 19.7493C35.197 19.3964 35.4759 19.1004 35.806 18.8614C36.1361 18.6109 36.5118 18.4231 36.933 18.2979C37.3542 18.1612 37.7982 18.0929 38.2649 18.0929ZM47.9913 27.7237C47.092 27.7237 46.2724 27.5188 45.5324 27.109C44.8038 26.6878 44.229 26.1072 43.8078 25.3672C43.3979 24.6273 43.193 23.8077 43.193 22.9083C43.193 21.5309 43.6484 20.3868 44.5591 19.4761C45.4812 18.554 46.6253 18.0929 47.9913 18.0929C49.0842 18.0929 50.029 18.3946 50.8259 18.998C51.6342 19.6013 52.1806 20.4039 52.4652 21.4057H51.0308C50.7576 20.8137 50.3478 20.347 49.8014 20.0054C49.2663 19.6639 48.663 19.4932 47.9913 19.4932C47.0465 19.4932 46.2553 19.8233 45.6178 20.4836C44.9917 21.1324 44.6786 21.9407 44.6786 22.9083C44.6786 23.5458 44.8209 24.1264 45.1055 24.6501C45.3901 25.1623 45.7829 25.5722 46.2837 25.8795C46.796 26.1755 47.3652 26.3235 47.9913 26.3235C48.663 26.3235 49.2606 26.1527 49.7843 25.8112C50.3193 25.4583 50.7292 24.9745 51.0138 24.3598H52.4823C52.1977 25.3843 51.6456 26.204 50.8259 26.8187C50.0177 27.422 49.0728 27.7237 47.9913 27.7237ZM60.4111 18.2979H61.965L57.5765 27.8945C57.2349 28.6458 56.8991 29.2264 56.569 29.6362C56.2389 30.046 55.8689 30.342 55.4591 30.5241C55.0492 30.7177 54.5484 30.8144 53.9564 30.8144H53.0855V29.4996H53.8369C54.4516 29.4996 54.9126 29.3744 55.22 29.1239C55.5274 28.8735 55.8689 28.3612 56.2446 27.5871L56.569 26.887L52.4708 18.2979H54.0588L57.3374 25.2819L60.4111 18.2979Z" fill="#F95410"/>
</svg>
