<svg width="111" height="28" viewBox="0 0 111 28" fill="none" xmlns="http://www.w3.org/2000/svg">
<path d="M28.1265 13.8157L22.4908 16.5031V11.1805L28.1265 13.8157ZM30.7617 13.1113C30.6313 12.8764 30.4225 12.6938 30.1877 12.5894L22.4386 8.96273C22.2298 8.85837 21.995 8.83228 21.7863 8.83228C21.5776 8.83228 21.3427 8.91055 21.134 9.04101C20.9514 9.17146 20.7948 9.32801 20.6644 9.53674C20.56 9.74547 20.5078 9.95421 20.5078 10.189V17.4946C20.5078 17.7294 20.56 17.9382 20.6644 18.1469C20.7687 18.3556 20.9253 18.5122 21.134 18.6426C21.3166 18.7731 21.5515 18.8253 21.7863 18.8514C22.0211 18.8775 22.2298 18.8253 22.4386 18.7209L30.1877 15.042C30.3704 14.9638 30.5008 14.8333 30.6313 14.7028C30.7617 14.5463 30.84 14.3897 30.8922 14.2071C30.9444 14.0245 30.9705 13.8418 30.9444 13.6331C30.9444 13.4505 30.8661 13.2678 30.7617 13.1113Z" fill="#FF6900"/>
<path d="M2.19168 15.4856C2.40041 15.6683 2.63523 15.8248 2.89614 15.9292C3.13097 16.0596 3.39188 16.164 3.6528 16.2423C3.91371 16.3206 4.17462 16.3727 4.43554 16.4249C4.69645 16.451 4.95736 16.4771 5.19219 16.4771C5.66183 16.4771 6.10539 16.4249 6.54894 16.2684C6.91422 16.1379 7.25341 15.9553 7.54041 15.6944C7.80133 15.4595 8.01006 15.1725 8.16661 14.8594C8.32315 14.5202 8.37534 14.1811 8.37534 13.8158C8.37534 13.4766 8.29706 13.1374 8.16661 12.8243C8.03615 12.5112 7.82742 12.2242 7.5665 11.9894C7.2795 11.7546 6.9664 11.5458 6.60112 11.4154C6.18366 11.2849 5.7662 11.2066 5.34874 11.2066C5.06173 11.2066 4.74863 11.2327 4.46163 11.2849C4.17462 11.3371 3.88762 11.4154 3.60061 11.5197C3.3397 11.6241 3.07878 11.7546 2.81787 11.9111C2.58305 12.0416 2.37432 12.2242 2.19168 12.4068V15.4856ZM2.19168 20.6778L0 21.8258V11.1806C0 11.1806 2.19168 9.27588 5.63574 9.27588C6.34021 9.27588 7.01858 9.38024 7.69696 9.61507C8.29706 9.8238 8.84498 10.1369 9.28854 10.5283C9.73209 10.9196 10.0974 11.4154 10.3322 11.9633C10.5931 12.5634 10.7236 13.1896 10.6975 13.8419C10.6714 14.4942 10.567 15.1204 10.3061 15.6944C10.0452 16.2423 9.67991 16.738 9.21026 17.1294C8.71453 17.5469 8.16661 17.8599 7.5665 18.0426C6.88813 18.2513 6.20975 18.3818 5.50528 18.3557C5.19219 18.3557 4.87909 18.3296 4.56599 18.3035C4.27899 18.2774 3.96589 18.1991 3.67889 18.147C3.41797 18.0687 3.13097 17.9904 2.87005 17.886C2.63523 17.8078 2.4265 17.7034 2.19168 17.5729V20.6778Z" fill="#FF6900"/>
<path d="M12.4197 10.6587C12.4197 10.6587 14.5331 8.8584 18.7599 8.8584V10.8674C16.3073 10.8674 14.6114 11.885 14.6114 11.885V18.2252H12.4197V10.6587Z" fill="#FF6900"/>
<path d="M92.4678 10.6587C92.4678 10.6587 94.5812 8.8584 98.808 8.8584V10.8674C96.3815 10.8674 94.6855 11.885 94.6855 11.885V18.2252H92.4939L92.4678 10.6587Z" fill="#FF6900"/>
<path d="M34.6233 13.8938C34.6233 14.233 34.7015 14.5722 34.832 14.8853C34.9624 15.1984 35.1712 15.4854 35.4321 15.7202C35.7191 15.9551 36.0322 16.1638 36.3975 16.2682C36.8149 16.3986 37.2324 16.4769 37.6499 16.4769C37.9369 16.4769 38.25 16.4508 38.537 16.3986C38.824 16.3464 39.111 16.2682 39.398 16.1638C39.6589 16.0594 39.9198 15.929 40.1807 15.7724C40.4156 15.642 40.6243 15.4593 40.8069 15.2767V12.224C40.5982 12.0414 40.3634 11.8848 40.1025 11.7804C39.8676 11.65 39.6067 11.5456 39.3458 11.4673C39.0849 11.3891 38.824 11.3369 38.5631 11.2847C38.3021 11.2586 38.0412 11.2325 37.8064 11.2325C37.3629 11.2325 36.8932 11.2847 36.4497 11.4413C36.0844 11.5717 35.7452 11.7544 35.4582 12.0153C35.1973 12.2501 34.9885 12.5371 34.832 12.8502C34.6754 13.1633 34.6233 13.5286 34.6233 13.8938ZM32.3011 13.8938C32.3011 13.2416 32.4316 12.5893 32.6925 11.9892C32.9534 11.4413 33.3187 10.9455 33.7883 10.5541C34.2841 10.1367 34.832 9.82359 35.4321 9.64095C36.1105 9.43222 36.7888 9.30176 37.4933 9.32785C37.8064 9.32785 38.1195 9.35394 38.4326 9.38004C38.7196 9.40613 39.0327 9.4844 39.3197 9.53658C39.5806 9.61486 39.8676 9.69313 40.1285 9.7975C40.3634 9.87577 40.5721 9.98014 40.8069 10.1106V7.18836L42.9986 5.88379V16.503C42.9986 16.503 41.1983 18.4077 37.3629 18.4077C36.6584 18.4077 35.98 18.3033 35.3016 18.0685C34.7015 17.8597 34.1536 17.5466 33.7101 17.1553C33.2665 16.7639 32.9012 16.2682 32.6664 15.7202C32.4055 15.1462 32.275 14.52 32.3011 13.8938Z" fill="#FF6900"/>
<path d="M45.347 9.45859H47.5387V18.2514H45.347V9.45859ZM46.4428 8.25838C46.2341 8.25838 46.0515 8.23229 45.8427 8.18011C45.6862 8.12792 45.5296 8.04965 45.3992 7.91919C45.2687 7.81483 45.1905 7.68437 45.1122 7.55391C45.0339 7.42346 45.0078 7.26691 45.0078 7.11036C45.0078 6.95381 45.0339 6.79726 45.1122 6.64072C45.1905 6.51026 45.2687 6.3798 45.3992 6.27544C45.5296 6.17107 45.6862 6.0928 45.8427 6.01452C46.0254 5.96234 46.2341 5.91016 46.4428 5.91016C46.6516 5.91016 46.8603 5.93625 47.0429 6.01452C47.1995 6.0667 47.356 6.14498 47.4865 6.27544C47.617 6.3798 47.6952 6.51026 47.7735 6.64072C47.8518 6.77117 47.8779 6.92772 47.8779 7.11036C47.8779 7.26691 47.8518 7.42346 47.7735 7.55391C47.6952 7.68437 47.617 7.81483 47.4865 7.91919C47.356 8.02356 47.1995 8.12792 47.0429 8.18011C46.8603 8.23229 46.6516 8.25838 46.4428 8.25838Z" fill="#FF6900"/>
<path d="M51.5828 13.7635C51.5828 14.1026 51.6611 14.4418 51.7915 14.7549C51.922 15.068 52.1307 15.355 52.3916 15.5638C52.6786 15.7986 52.9917 15.9812 53.357 16.1117C53.7745 16.2421 54.1919 16.3204 54.6094 16.3204C54.9225 16.3204 55.2095 16.2943 55.5226 16.2421C55.8096 16.19 56.0966 16.1117 56.3836 16.0073C56.6445 15.903 56.9054 15.7725 57.1664 15.6159C57.4012 15.4855 57.6099 15.3029 57.7926 15.1202V12.2241C57.5838 12.0414 57.3229 11.8849 57.0881 11.7805C56.8533 11.6501 56.5923 11.5457 56.3314 11.4674C56.0705 11.3891 55.8096 11.337 55.5487 11.2848C55.2878 11.2587 55.0269 11.2326 54.792 11.2326C54.3224 11.2326 53.8788 11.3109 53.4353 11.4413C53.07 11.5457 52.7308 11.7544 52.4438 11.9892C52.1829 12.198 51.9742 12.485 51.8176 12.7981C51.6611 13.0851 51.5828 13.4243 51.5828 13.7635ZM52.0264 19.9732C52.0264 19.9732 52.6004 20.1037 52.8613 20.1298C53.1222 20.1819 53.3831 20.208 53.644 20.208C53.9049 20.2341 54.1137 20.2341 54.2963 20.2341C54.8181 20.2341 55.34 20.1819 55.8357 20.0254C56.2271 19.8949 56.5923 19.7123 56.9315 19.4514C57.2185 19.2166 57.4273 18.9556 57.5838 18.6165C57.7404 18.3034 57.7926 17.9642 57.7926 17.625V17.2336C57.5838 17.3641 57.349 17.4945 57.1403 17.5989C56.8794 17.7294 56.5923 17.8337 56.3053 17.912C55.9922 18.0164 55.6791 18.0685 55.34 18.1207C55.0008 18.1729 54.6355 18.199 54.2963 18.199C53.6179 18.199 52.9396 18.0946 52.3134 17.8859C51.7393 17.6772 51.1914 17.3902 50.7218 16.9727C50.2782 16.5813 49.9129 16.1117 49.6781 15.5638C49.4172 14.9898 49.2868 14.3636 49.3128 13.7374C49.3128 13.0851 49.4433 12.4589 49.7042 11.8849C49.9651 11.337 50.3304 10.8412 50.8001 10.4759C51.2958 10.0585 51.8437 9.77147 52.4438 9.56274C53.1222 9.35401 53.8006 9.22355 54.505 9.24965C57.9752 9.24965 60.0103 11.1804 60.0103 11.1804V17.1814C60.0364 17.912 59.906 18.6165 59.645 19.2948C59.4102 19.8949 59.0449 20.4168 58.5753 20.8603C58.0796 21.3039 57.4795 21.617 56.8272 21.7996C56.0444 22.0344 55.2356 22.1388 54.4268 22.1127C54.1137 22.1127 53.7745 22.0866 53.4353 22.0605C53.0961 22.0344 52.7308 21.9822 52.3916 21.9301C52.0524 21.8779 51.6872 21.8257 51.348 21.7474C51.0088 21.6692 50.6696 21.5909 50.3565 21.4865L52.0264 19.9732Z" fill="#FF6900"/>
<path d="M62.2279 9.45859H64.4195V18.2514H62.2279V9.45859ZM63.3237 8.25838C63.115 8.25838 62.9323 8.23229 62.7236 8.18011C62.567 8.12792 62.4105 8.04965 62.28 7.91919C62.1496 7.81483 62.0713 7.68437 61.993 7.55391C61.9148 7.42346 61.8887 7.26691 61.8887 7.11036C61.8887 6.95381 61.9148 6.79726 61.993 6.64072C62.0713 6.51026 62.1496 6.3798 62.28 6.27544C62.4105 6.17107 62.567 6.0928 62.7236 6.01452C62.9062 5.96234 63.115 5.91016 63.3237 5.91016C63.5324 5.91016 63.7412 5.93625 63.9238 6.01452C64.0804 6.0667 64.2369 6.14498 64.3674 6.27544C64.4978 6.3798 64.5761 6.51026 64.6544 6.64072C64.7326 6.79726 64.7587 6.95381 64.7587 7.11036C64.7587 7.26691 64.7326 7.42346 64.6544 7.55391C64.5761 7.68437 64.4978 7.81483 64.3674 7.91919C64.2369 8.02356 64.0804 8.12792 63.9238 8.18011C63.7412 8.23229 63.5324 8.25838 63.3237 8.25838Z" fill="#FF6900"/>
<path d="M69.7684 11.1023H72.1949V9.45859H69.7684V6.71899H67.5507V9.45859H65.4373V11.1023H67.5507V18.2514H69.7684V11.1023Z" fill="#FF6900"/>
<path d="M74.9086 15.4072C74.9086 15.5638 74.9346 15.6942 75.0129 15.8247C75.0912 15.9812 75.2217 16.0856 75.3782 16.1639C75.5608 16.2682 75.7957 16.3726 76.0044 16.3987C76.3175 16.477 76.6306 16.503 76.9437 16.477C78.9005 16.477 80.3877 15.8508 80.5704 15.6942V14.8593C80.2312 14.781 79.892 14.6766 79.5789 14.6245C79.2397 14.5723 78.9266 14.5201 78.6396 14.4679C78.3526 14.4418 78.0656 14.4157 77.7786 14.3896C77.5177 14.3636 77.2829 14.3636 77.0741 14.3636C76.735 14.3636 76.3958 14.3896 76.0566 14.4418C75.8218 14.494 75.613 14.5462 75.4043 14.6506C75.2477 14.7288 75.1434 14.8332 75.039 14.9637C74.9607 15.1202 74.9086 15.2507 74.9086 15.4072ZM72.5864 15.4594C72.5864 15.068 72.6647 14.6506 72.8734 14.3114C73.0822 13.9461 73.3431 13.633 73.7084 13.4243C74.1258 13.1373 74.5955 12.9546 75.0912 12.8503C75.7174 12.6937 76.3697 12.6415 76.9959 12.6415C77.5699 12.6415 78.1439 12.6937 78.6918 12.772C79.318 12.8503 79.9442 12.9807 80.5443 13.1373C80.5182 12.8763 80.4399 12.5893 80.2834 12.3545C80.1268 12.1197 79.9181 11.911 79.6833 11.7544C79.3963 11.5718 79.0832 11.4413 78.7701 11.363C78.3787 11.2587 77.9613 11.2065 77.5438 11.2326C77.2829 11.2326 77.022 11.2587 76.735 11.2848C76.448 11.3109 76.1349 11.363 75.8218 11.4152C75.5087 11.4674 75.1956 11.5457 74.8825 11.65C74.5955 11.7283 74.3085 11.8327 74.0215 11.9631L73.3431 10.1628C73.6823 10.0324 74.0215 9.92801 74.4128 9.82365C74.8042 9.71928 75.1695 9.64101 75.5869 9.56274C75.9783 9.48446 76.3697 9.43228 76.7871 9.40619C77.1785 9.354 77.5699 9.354 77.9352 9.354C79.5789 9.354 80.8052 9.77147 81.588 10.6064C82.3707 11.4413 82.7882 12.7198 82.7882 14.4679V16.764C82.7882 16.764 80.9096 18.4599 76.7871 18.4599C76.187 18.4599 75.5608 18.3816 74.9868 18.2251C74.5172 18.0946 74.0736 17.8859 73.6823 17.5989C73.3431 17.3641 73.0822 17.0249 72.8995 16.6596C72.6908 16.2682 72.5864 15.8769 72.5864 15.4594Z" fill="#FF6900"/>
<path d="M86.6758 5.88379H84.458V18.2511H86.6758V5.88379Z" fill="#FF6900"/>
<path d="M100.295 9.43237H102.487V13.7114C102.487 14.0766 102.539 14.468 102.617 14.8333C102.696 15.1464 102.852 15.4595 103.087 15.6943C103.322 15.9552 103.609 16.1379 103.948 16.2422C104.392 16.3727 104.835 16.451 105.279 16.451C107.001 16.451 107.992 15.8769 107.992 15.8769V9.43237H110.184V17.1032C110.184 17.1032 107.914 18.3817 105.227 18.3817C104.418 18.3817 103.296 18.2774 102.722 18.0947C102.2 17.9382 101.704 17.6512 101.313 17.2598C100.948 16.8684 100.661 16.3988 100.504 15.903C100.321 15.3029 100.243 14.6767 100.243 14.0505L100.295 9.43237Z" fill="#FF6900"/>
<path d="M91.0329 16.9467C91.0329 17.2338 90.9546 17.5208 90.7981 17.7556C90.6415 17.9904 90.4067 18.173 90.1458 18.2774C89.8849 18.3818 89.5979 18.4079 89.3109 18.3557C89.0239 18.3035 88.7629 18.173 88.5803 17.9643C88.3716 17.7556 88.2411 17.4947 88.1889 17.2338C88.1368 16.9728 88.1628 16.6597 88.2672 16.3988C88.3716 16.1379 88.5542 15.9031 88.789 15.7465C89.0239 15.59 89.3109 15.5117 89.5979 15.5117C89.7805 15.5117 89.9631 15.5378 90.1458 15.6161C90.3284 15.6944 90.485 15.7987 90.6154 15.9292C90.7459 16.0596 90.8503 16.2162 90.9285 16.3988C91.0068 16.5815 91.0329 16.7641 91.0329 16.9467Z" fill="#FF6900"/>
</svg>
