<svg width="58" height="31" viewBox="0 0 58 31" fill="none" xmlns="http://www.w3.org/2000/svg">
<path d="M2.17212 8.4978H56.1335V27.7697L2.17212 23.5299V8.4978Z" fill="white"/>
<path d="M57.9321 30.5963V0.789062L0.373291 6.08242V25.2772L57.9321 30.5963ZM8.93002 16.8747L11.4996 21.1916H8.51889L6.61739 17.3372H5.53816V21.1916H2.96858V10.5021H7.2084C7.8251 10.5021 8.36471 10.5792 8.82724 10.7591C9.28976 10.9389 9.6752 11.1702 10.0092 11.4786C10.3176 11.7869 10.5489 12.1466 10.703 12.5578C10.8572 12.9689 10.9343 13.4057 10.9343 13.8683C10.9343 14.3051 10.8572 14.6905 10.7287 15.0246C10.6003 15.3586 10.4204 15.6413 10.2405 15.8982C10.0349 16.1552 9.80368 16.3608 9.57242 16.5149C9.34116 16.6691 9.13559 16.7976 8.93002 16.8747ZM19.8508 17.8511H14.5831C14.5831 17.8511 14.6345 18.7762 15.2512 19.1616C15.688 19.4443 16.2533 19.5471 16.9214 19.5471C18.1548 19.5471 18.7972 19.213 19.0285 19.0845L19.491 20.8062C19.1827 20.9603 18.7972 21.0888 18.3347 21.1916C17.8722 21.2944 17.2812 21.3715 16.6131 21.3715C15.9964 21.3715 15.4311 21.2944 14.8658 21.1145C14.3262 20.9603 13.8379 20.7034 13.4268 20.3693C13.0157 20.0353 12.6816 19.5985 12.4504 19.0845C12.2191 18.5706 12.0906 17.9539 12.0906 17.2087C12.0906 16.5663 12.1934 15.9753 12.399 15.4357C12.6045 14.8961 12.8872 14.4336 13.2469 14.0481C13.6067 13.6627 14.0435 13.3544 14.5574 13.1488C15.0713 12.9432 15.611 12.8404 16.2277 12.8404C17.3583 12.8404 18.2319 13.1745 18.9 13.8683C19.5681 14.5364 19.9022 15.5128 19.9022 16.7719C19.8508 16.7719 19.8508 17.8511 19.8508 17.8511ZM29.1013 21.1916H27.3797L27.1227 20.3179H27.0456C26.8914 20.5749 26.6088 20.8062 26.2234 21.0374C25.8379 21.2687 25.324 21.3972 24.6816 21.3972C24.142 21.3972 23.6538 21.2944 23.2169 21.0888C22.7544 20.8832 22.369 20.6006 22.0349 20.2408C21.7009 19.8811 21.4439 19.4186 21.264 18.9047C21.0842 18.3907 20.9814 17.7997 20.9814 17.1316C20.9814 16.4892 21.0585 15.8982 21.2384 15.3843C21.4182 14.8704 21.6495 14.4079 21.9835 14.0481C22.3176 13.6884 22.703 13.4057 23.1655 13.2002C23.6538 12.9946 24.1677 12.8918 24.7844 12.8918C25.1698 12.8918 25.5039 12.9432 25.8379 13.046C26.172 13.1488 26.4289 13.2773 26.5831 13.4571V9.08883H29.1013V21.1916ZM38.5317 12.5064H35.6024V21.1916H33.0328V12.5064H30.1805V10.5021H38.5317V12.5064ZM45.3668 21.1916H43.4396L43.2083 20.3693H43.1312C42.9 20.652 42.5916 20.9089 42.1805 21.0888C41.7694 21.2687 41.3068 21.3715 40.7672 21.3715C40.3047 21.3715 39.8936 21.2944 39.5595 21.1659C39.2255 21.0374 38.9171 20.8575 38.7116 20.6263C38.4803 20.395 38.3261 20.1381 38.1976 19.8297C38.0692 19.5214 38.0178 19.1873 38.0178 18.8276C38.0178 18.365 38.1205 17.9539 38.3261 17.5942C38.5317 17.2601 38.8143 16.9775 39.1741 16.7719C39.5338 16.5663 39.945 16.3865 40.4332 16.3094C40.9214 16.2066 41.4353 16.1552 41.9749 16.1552H42.8229V15.7184C42.8229 15.41 42.7201 15.1788 42.4888 15.0246C42.2833 14.8704 41.9749 14.7676 41.5638 14.7676C41.2298 14.7676 40.8957 14.819 40.5617 14.9218C40.2276 15.0246 39.8679 15.1788 39.4824 15.41L38.6345 13.7655C39.097 13.4828 39.6109 13.2773 40.2019 13.1231C40.7929 12.9689 41.3839 12.8661 42.0006 12.8661C43.0028 12.8661 43.825 13.0974 44.416 13.5856C45.0327 14.0738 45.3411 14.8447 45.3411 15.8982L45.3668 21.1916ZM55.3368 14.5878H54.5659L53.6152 14.4336C53.7436 14.6134 53.8464 14.819 53.9235 15.076C54.0006 15.3329 54.052 15.5899 54.052 15.8469C54.052 16.2837 53.9749 16.6691 53.8207 17.0289C53.6666 17.3886 53.4353 17.697 53.1269 17.9539C52.8186 18.2109 52.4589 18.4164 51.9963 18.5449C51.5338 18.6734 51.0456 18.7762 50.4803 18.7762C50.3518 18.7762 50.249 18.7762 50.1205 18.7505C50.0177 18.7505 49.8893 18.7248 49.7865 18.6991C49.7094 18.7505 49.6323 18.8019 49.5552 18.879C49.4781 18.9561 49.4524 19.0588 49.4524 19.1873C49.4524 19.3415 49.5038 19.4443 49.6066 19.5471C49.7094 19.6498 49.9407 19.6755 50.249 19.6755H51.9706C52.4075 19.6755 52.8186 19.7269 53.204 19.804C53.5638 19.9068 53.8978 20.0353 54.1548 20.2408C54.4117 20.4464 54.6173 20.7034 54.7715 21.0374C54.9257 21.3715 55.0027 21.7569 55.0027 22.1937C55.0027 22.6306 54.9 23.0417 54.6687 23.4271C54.4631 23.8126 54.1548 24.1209 53.7693 24.4036C53.3839 24.6862 52.8957 24.8918 52.3561 25.046C51.7908 25.2002 51.1741 25.2772 50.506 25.2772C49.2469 25.2772 48.2447 25.046 47.5252 24.6091C46.8058 24.1723 46.446 23.5299 46.446 22.7334C46.446 22.3736 46.5745 22.0396 46.8058 21.7826C47.037 21.4999 47.3968 21.2944 47.8336 21.1402C47.7051 21.0374 47.5509 20.8832 47.3711 20.6777C47.1912 20.4464 47.1141 20.1895 47.1141 19.8554C47.1141 19.47 47.2426 19.1359 47.4739 18.8533C47.7051 18.5706 47.9878 18.365 48.3475 18.1852C48.1933 18.1081 48.0392 18.0053 47.885 17.8511C47.7308 17.7227 47.5766 17.5428 47.4225 17.3629C47.294 17.183 47.1655 16.9518 47.0627 16.7205C46.9599 16.4892 46.9342 16.2066 46.9342 15.8982C46.9342 15.4614 47.037 15.0503 47.2169 14.6905C47.3968 14.3308 47.6537 13.9967 47.9621 13.7398C48.2961 13.4828 48.6559 13.2773 49.0927 13.1231C49.5295 12.9689 50.0177 12.9175 50.5317 12.9175C50.7115 12.9175 50.9428 12.9432 51.1998 12.9689C51.4567 12.9946 51.688 13.046 51.8678 13.0974H55.3368V14.5878ZM51.3025 16.7205C51.5081 16.5149 51.6109 16.2066 51.6109 15.8212C51.6109 15.4357 51.5081 15.1274 51.3025 14.9218C51.097 14.7162 50.84 14.6134 50.506 14.6134C50.1719 14.6134 49.915 14.7162 49.7094 14.9218C49.5038 15.1274 49.401 15.4357 49.401 15.8212C49.401 16.2066 49.5038 16.5149 49.7094 16.7205C49.915 16.9261 50.1719 17.0289 50.506 17.0289C50.8143 17.0289 51.097 16.9261 51.3025 16.7205ZM51.3539 21.5513H49.2212C49.0927 21.6284 48.9642 21.7312 48.8614 21.8597C48.7586 21.9882 48.7073 22.168 48.7073 22.3736C48.7073 22.6563 48.8357 22.8875 49.1184 23.0931C49.3753 23.2987 49.8636 23.4014 50.5831 23.4014C51.2511 23.4014 51.7394 23.2987 52.0734 23.0674C52.4075 22.8361 52.5616 22.5792 52.5616 22.2965C52.5616 22.0396 52.4589 21.8597 52.279 21.7312C52.0991 21.6027 51.7908 21.5513 51.3539 21.5513ZM42.8486 18.8276V17.6713L42.2833 17.697C41.9749 17.697 41.6923 17.7483 41.4867 17.7997C41.2811 17.8511 41.1013 17.9282 40.9728 18.0053C40.8443 18.0824 40.7415 18.1852 40.6901 18.3137C40.6387 18.4421 40.6131 18.5449 40.6131 18.6734C40.6131 19.0331 40.7158 19.2644 40.9214 19.3929C41.127 19.5214 41.3582 19.5985 41.6409 19.5985C41.9235 19.5985 42.1548 19.5214 42.3861 19.3672C42.6173 19.213 42.7715 19.0331 42.8486 18.8276ZM26.5831 18.7505V15.2558C26.4803 15.1274 26.3261 14.9989 26.1206 14.8704C25.915 14.7419 25.658 14.6905 25.4011 14.6905C25.1441 14.6905 24.8872 14.7419 24.6816 14.819C24.4503 14.8961 24.2448 15.0503 24.0906 15.2302C23.9107 15.4357 23.7822 15.667 23.6795 15.9753C23.5767 16.2837 23.5253 16.6434 23.5253 17.0803C23.5253 17.9282 23.6795 18.5449 24.0135 18.9561C24.3476 19.3672 24.7844 19.5471 25.324 19.5471C25.658 19.5471 25.915 19.47 26.1463 19.2901C26.3518 19.1359 26.506 18.9304 26.5831 18.7505ZM15.097 15.0503C14.8401 15.3329 14.6859 15.6927 14.6345 16.1809L17.2812 16.1552C17.2812 15.9753 17.2555 15.7698 17.2041 15.5899C17.1527 15.41 17.0756 15.2558 16.9985 15.1017C16.8957 14.9732 16.7673 14.8447 16.6131 14.7676C16.4589 14.6905 16.279 14.6391 16.0735 14.6391C15.688 14.6391 15.354 14.7676 15.097 15.0503ZM8.28762 13.8683C8.28762 13.4314 8.13345 13.0717 7.85079 12.8147C7.56814 12.5578 7.13131 12.4293 6.566 12.4293H5.53816V15.3843H6.30904C6.90005 15.3843 7.36257 15.2558 7.72231 15.0246C8.10775 14.7933 8.28762 14.4079 8.28762 13.8683Z" fill="#C42732"/>
</svg>
