<svg xmlns="http://www.w3.org/2000/svg" width="61" height="39" viewBox="0 0 61 39" fill="none">
    <g clip-path="url(#clip0_1_12850)">
        <path d="M54.2954 0.0263672H6.69051C3.02357 0.0263672 0.0234375 3.03 0.0234375 6.70122V24.9823C0.0234375 28.6533 3.02357 31.657 6.69051 31.657H19.1379V36.773C19.1379 37.5879 19.7976 38.2484 20.6115 38.2484H39.9902C40.8041 38.2484 41.4641 37.5879 41.4641 36.773V31.657H54.2954C57.9622 31.657 60.9626 28.6533 60.9626 24.9821V6.70122C60.9626 3.02984 57.9622 0.0263672 54.2954 0.0263672Z" fill="#FF9400"/>
        <path d="M54.2392 3.36328H6.63411C4.80083 3.36328 3.30078 4.86498 3.30078 6.70056V24.9818C3.30078 26.8175 4.80075 28.3192 6.63411 28.3192H54.2392C56.0727 28.3192 57.5725 26.8175 57.5725 24.9818V6.70056C57.5725 4.86498 56.0727 3.36328 54.2392 3.36328Z" fill="white"/>
        <path d="M53.645 6.87891H50.5943C50.3719 6.87891 50.1695 7.00663 50.0728 7.20735L45.8366 16.0473L41.5995 7.20735C41.5032 7.00663 41.3005 6.87891 41.078 6.87891H38.0278C37.7553 6.87891 37.619 7.02336 37.619 7.31238V24.3703C37.619 24.659 37.7553 24.8036 38.0278 24.8036H41.0096C41.2484 24.8036 41.4422 24.6096 41.4422 24.3703V14.4567L44.3135 20.4852C44.4093 20.6866 44.6125 20.815 44.835 20.815H46.8374C47.0602 20.815 47.2634 20.6866 47.3593 20.4852L50.2305 14.4569V24.3703C50.2305 24.6096 50.4243 24.8036 50.6631 24.8036H53.645C53.917 24.8036 54.0534 24.659 54.0534 24.3703V7.31232C54.0534 7.02336 53.917 6.87891 53.645 6.87891ZM34.5712 6.87915L31.3841 6.87891C31.1688 6.87891 30.9713 6.99846 30.8715 7.18929L25.2901 17.8639V7.31262C25.2901 7.07315 25.0964 6.87915 24.8571 6.87915H21.8756C21.6028 6.87915 21.4671 7.0236 21.4671 7.31262V24.3703C21.4671 24.6592 21.6028 24.8036 21.8756 24.8036H25.087C25.3023 24.8036 25.4996 24.6841 25.5995 24.4934L31.181 13.8206V24.3703C31.181 24.6592 31.3171 24.8036 31.5896 24.8036H34.5712C34.8105 24.8036 35.0042 24.6097 35.0042 24.3703V7.31244C35.0042 7.07315 34.8105 6.87915 34.5712 6.87915ZM13.5854 6.87915H7.21347C6.94058 6.87915 6.80469 7.0236 6.80469 7.31244V24.3701C6.80469 24.6592 6.94058 24.8036 7.21347 24.8036H10.2432C10.5156 24.8036 10.652 24.6592 10.652 24.3701V19.0837H13.5854C15.4766 19.0837 16.9755 18.5342 18.0818 17.4348C19.1877 16.3358 19.741 14.847 19.741 12.9693C19.741 11.1079 19.1877 9.6276 18.0818 8.52803C16.9755 7.429 15.4766 6.87915 13.5854 6.87915ZM13.0564 15.4971H10.6521V10.4417H13.0564C14.8675 10.4417 15.7733 11.2844 15.7733 12.9693C15.7733 14.6545 14.8675 15.4971 13.0564 15.4971Z" fill="#5229A1"/>
        <path fill-rule="evenodd" clip-rule="evenodd" d="M34.2074 36.0604L35.5652 30.4451C35.5726 30.4144 35.5495 30.3848 35.5178 30.3848H34.5339C34.511 30.3848 34.4912 30.401 34.4862 30.4233L34.0801 32.4043H33.1429L32.7173 30.423C32.7124 30.4008 32.6927 30.3848 32.6696 30.3848H31.6857C31.6538 30.3848 31.6307 30.4144 31.6381 30.4451L33.0057 36.0604C33.0108 36.0823 33.0305 36.0976 33.0528 36.0976H34.16C34.1828 36.0976 34.2024 36.0823 34.2074 36.0604ZM33.6362 34.7763L34.0801 32.4043H33.1429L33.5868 34.7763H33.6362Z" fill="white"/>
        <path d="M39.3908 36.0972H36.4396C36.4129 36.0972 36.3909 36.0755 36.3909 36.0484V30.4332C36.3909 30.4062 36.4129 30.3843 36.4396 30.3843H39.3908C39.418 30.3843 39.4396 30.4062 39.4396 30.4332V31.1646C39.4396 31.1915 39.4179 31.2133 39.3908 31.2133H37.4566V32.7727H39.1344C39.1613 32.7727 39.1832 32.7948 39.1832 32.8215V33.5695C39.1832 33.5965 39.1613 33.6183 39.1344 33.6183H37.4566V35.2681H39.3908C39.418 35.2681 39.4396 35.2899 39.4396 35.3168V36.0482C39.4396 36.0754 39.4179 36.0972 39.3908 36.0972Z" fill="white"/>
        <path fill-rule="evenodd" clip-rule="evenodd" d="M28.5899 32.9578C28.7116 32.709 28.7727 32.4039 28.7727 32.0429C28.7727 31.4572 28.6146 31.0348 28.2989 30.7746C27.9832 30.5147 27.5458 30.3848 26.9868 30.3848H25.4668C25.44 30.3848 25.418 30.4067 25.418 30.4337V36.0487C25.418 36.0759 25.44 36.0976 25.4668 36.0976H26.435C26.4619 36.0976 26.4838 36.0759 26.4838 36.0487V33.7338H26.9868L27.8628 36.0659C27.87 36.085 27.8882 36.0976 27.9086 36.0976H28.8881C28.9225 36.0976 28.9463 36.0626 28.9334 36.0307L27.9439 33.5448C28.253 33.4024 28.4682 33.2069 28.5899 32.9578ZM26.9178 32.8881C27.1941 32.8881 27.3977 32.8213 27.5294 32.6872C27.6609 32.5531 27.7269 32.3383 27.7269 32.0429C27.7269 31.7803 27.6626 31.5764 27.5344 31.4313C27.4061 31.2864 27.1941 31.2138 26.8979 31.2138H26.4838V32.8881H26.9178Z" fill="white"/>
        <path fill-rule="evenodd" clip-rule="evenodd" d="M24.4857 31.1563C24.3937 30.8772 24.23 30.6789 23.9941 30.5611C23.7579 30.4436 23.4365 30.3848 23.03 30.3848H21.377C21.3503 30.3848 21.3281 30.4067 21.3281 30.4337V36.0489C21.3281 36.0759 21.3503 36.0976 21.377 36.0976H22.9415C23.289 36.0976 23.5987 36.0374 23.8711 35.9171C24.1432 35.7967 24.3414 35.5751 24.4663 35.2522C24.5449 35.0553 24.5875 34.787 24.5942 34.4478C24.6004 34.1085 24.6023 32.3425 24.5991 31.9895C24.5956 31.6365 24.5577 31.3591 24.4857 31.1563ZM23.3903 35.0956C23.489 34.98 23.5384 34.8126 23.5384 34.5927V31.8813C23.5384 31.6725 23.4903 31.5092 23.3953 31.391C23.2999 31.2731 23.1172 31.2138 22.8476 31.2138H22.394V35.2686H22.8476C23.1105 35.2686 23.2916 35.2109 23.3903 35.0956Z" fill="white"/>
        <path d="M30.7709 36.0976H29.8026C29.7757 36.0976 29.7539 36.0759 29.7539 36.0487V30.4337C29.7539 30.4067 29.7757 30.3848 29.8026 30.3848H30.7709C30.7976 30.3848 30.8194 30.4067 30.8194 30.4337V36.0487C30.8194 36.0759 30.7976 36.0976 30.7709 36.0976Z" fill="white"/>
    </g>
    <defs>
        <clipPath id="clip0_1_12850">
            <rect width="61" height="38.2636" fill="white"/>
        </clipPath>
    </defs>
</svg>