<svg width="130" height="20" viewBox="0 0 130 20" fill="none" xmlns="http://www.w3.org/2000/svg">
<path d="M5.80398 2.10497C6.09187 2.63276 6.41974 3.28851 6.7876 4.0722C7.17145 4.8399 7.56329 5.67957 7.96314 6.59122C8.37897 7.48687 8.78682 8.40651 9.18666 9.35014C9.5865 10.2938 9.96236 11.1814 10.3142 12.0131C10.6661 11.1814 11.0419 10.2938 11.4418 9.35014C11.8416 8.40651 12.2415 7.48687 12.6413 6.59122C13.0571 5.67957 13.449 4.8399 13.8168 4.0722C14.2007 3.28851 14.5366 2.63276 14.8245 2.10497H18.2311C18.3911 3.20854 18.535 4.44805 18.663 5.82352C18.8069 7.18299 18.9268 8.60643 19.0228 10.0938C19.1348 11.5653 19.2307 13.0447 19.3107 14.5321C19.4067 16.0195 19.4866 17.419 19.5506 18.7305H15.904C15.8561 17.1151 15.7921 15.3558 15.7121 13.4525C15.6321 11.5493 15.5122 9.63003 15.3522 7.69479C15.0644 8.36652 14.7445 9.11023 14.3926 9.92591C14.0408 10.7416 13.6889 11.5573 13.337 12.373C13.0012 13.1886 12.6733 13.9723 12.3534 14.724C12.0335 15.4597 11.7617 16.0915 11.5377 16.6193H8.92276C8.69885 16.0915 8.42696 15.4597 8.10708 14.724C7.78721 13.9723 7.45134 13.1886 7.09948 12.373C6.76361 11.5573 6.41974 10.7416 6.06788 9.92591C5.71602 9.11023 5.39614 8.36652 5.10825 7.69479C4.94832 9.63003 4.82836 11.5493 4.74839 13.4525C4.66843 15.3558 4.60445 17.1151 4.55647 18.7305H0.909896C0.973871 17.419 1.04584 16.0195 1.12581 14.5321C1.22177 13.0447 1.31774 11.5653 1.4137 10.0938C1.52566 8.60643 1.64561 7.18299 1.77356 5.82352C1.9175 4.44805 2.06944 3.20854 2.22938 2.10497H5.80398ZM22.0807 12.5169C22.0807 11.3973 22.2486 10.4217 22.5845 9.59004C22.9363 8.74238 23.3922 8.03865 23.9519 7.47887C24.5117 6.91909 25.1515 6.49525 25.8712 6.20737C26.6069 5.91948 27.3586 5.77554 28.1263 5.77554C29.9176 5.77554 31.3331 6.32732 32.3727 7.43089C33.4122 8.51846 33.932 10.1258 33.932 12.253C33.932 12.4609 33.924 12.6928 33.9081 12.9487C33.8921 13.1886 33.8761 13.4046 33.8601 13.5965H25.7512C25.8312 14.3322 26.1751 14.916 26.7828 15.3478C27.3906 15.7796 28.2063 15.9955 29.2299 15.9955C29.8856 15.9955 30.5254 15.9396 31.1491 15.8276C31.7889 15.6997 32.3087 15.5477 32.7085 15.3718L33.1883 18.2746C32.9964 18.3706 32.7405 18.4666 32.4206 18.5625C32.1008 18.6585 31.7409 18.7385 31.3411 18.8024C30.9572 18.8824 30.5414 18.9464 30.0935 18.9944C29.6457 19.0423 29.1979 19.0663 28.7501 19.0663C27.6145 19.0663 26.6229 18.8984 25.7752 18.5625C24.9436 18.2267 24.2478 17.7708 23.688 17.1951C23.1443 16.6033 22.7364 15.9076 22.4645 15.1079C22.2086 14.3082 22.0807 13.4445 22.0807 12.5169ZM30.4774 11.1494C30.4614 10.8456 30.4054 10.5497 30.3095 10.2618C30.2295 9.97389 30.0935 9.71799 29.9016 9.49408C29.7257 9.27017 29.4938 9.08624 29.2059 8.9423C28.934 8.79835 28.5901 8.72638 28.1743 8.72638C27.7744 8.72638 27.4306 8.79835 27.1427 8.9423C26.8548 9.07025 26.6149 9.24618 26.423 9.47009C26.2311 9.694 26.0791 9.9579 25.9672 10.2618C25.8712 10.5497 25.7992 10.8456 25.7512 11.1494H30.4774ZM39.7374 12.325C39.7374 13.4285 39.9853 14.3162 40.4811 14.9879C40.9769 15.6597 41.7126 15.9955 42.6882 15.9955C43.0081 15.9955 43.304 15.9875 43.5759 15.9715C43.8478 15.9396 44.0717 15.9076 44.2476 15.8756V9.37413C44.0237 9.23018 43.7278 9.11023 43.36 9.01427C43.0081 8.91831 42.6483 8.87033 42.2804 8.87033C40.5851 8.87033 39.7374 10.0219 39.7374 12.325ZM47.8222 18.3226C47.5024 18.4186 47.1345 18.5146 46.7187 18.6105C46.3028 18.6905 45.863 18.7625 45.3992 18.8264C44.9514 18.8904 44.4875 18.9384 44.0077 18.9704C43.5439 19.0184 43.0961 19.0423 42.6643 19.0423C41.6247 19.0423 40.697 18.8904 39.8813 18.5865C39.0657 18.2826 38.3779 17.8508 37.8181 17.291C37.2584 16.7153 36.8265 16.0275 36.5227 15.2278C36.2348 14.4122 36.0908 13.5005 36.0908 12.4929C36.0908 11.4693 36.2188 10.5497 36.4747 9.73399C36.7306 8.90231 37.0984 8.19859 37.5782 7.62281C38.0581 7.04704 38.6418 6.60721 39.3296 6.30333C40.0333 5.99945 40.833 5.84751 41.7286 5.84751C42.2244 5.84751 42.6643 5.89549 43.0481 5.99145C43.4479 6.08741 43.8478 6.22336 44.2476 6.39929V0.689525L47.8222 0.11375V18.3226ZM54.7439 18.7305H51.1693V6.1114H54.7439V18.7305ZM55.0798 2.46483C55.0798 3.12057 54.8639 3.64037 54.432 4.02422C54.0162 4.39208 53.5204 4.576 52.9446 4.576C52.3688 4.576 51.865 4.39208 51.4332 4.02422C51.0174 3.64037 50.8094 3.12057 50.8094 2.46483C50.8094 1.80909 51.0174 1.29729 51.4332 0.929431C51.865 0.545581 52.3688 0.353656 52.9446 0.353656C53.5204 0.353656 54.0162 0.545581 54.432 0.929431C54.8639 1.29729 55.0798 1.80909 55.0798 2.46483ZM62.9262 16.2354C63.2781 16.2354 63.6139 16.2274 63.9338 16.2115C64.2537 16.1955 64.5096 16.1715 64.7015 16.1395V13.4285C64.5576 13.3966 64.3416 13.3646 64.0538 13.3326C63.7659 13.3006 63.502 13.2846 63.2621 13.2846C62.9262 13.2846 62.6063 13.3086 62.3024 13.3566C62.0146 13.3886 61.7587 13.4605 61.5347 13.5725C61.3108 13.6844 61.1349 13.8364 61.007 14.0283C60.879 14.2202 60.815 14.4601 60.815 14.748C60.815 15.3078 60.999 15.6997 61.3668 15.9236C61.7507 16.1315 62.2705 16.2354 62.9262 16.2354ZM62.6383 5.77554C63.6939 5.77554 64.5736 5.89549 65.2773 6.13539C65.981 6.3753 66.5408 6.71917 66.9566 7.16699C67.3885 7.61482 67.6923 8.1586 67.8683 8.79835C68.0442 9.4381 68.1322 10.1498 68.1322 10.9335V18.3706C67.6204 18.4826 66.9086 18.6105 65.997 18.7545C65.0854 18.9144 63.9818 18.9944 62.6863 18.9944C61.8706 18.9944 61.1269 18.9224 60.4552 18.7784C59.7994 18.6345 59.2316 18.4026 58.7518 18.0827C58.272 17.7469 57.9042 17.315 57.6483 16.7872C57.3924 16.2594 57.2644 15.6117 57.2644 14.844C57.2644 14.1083 57.4084 13.4845 57.6962 12.9727C58.0001 12.4609 58.4 12.0531 58.8958 11.7492C59.3916 11.4453 59.9594 11.2294 60.5991 11.1015C61.2389 10.9575 61.9026 10.8855 62.5903 10.8855C63.0542 10.8855 63.462 10.9095 63.8139 10.9575C64.1817 10.9895 64.4776 11.0375 64.7015 11.1015V10.7656C64.7015 10.1578 64.5176 9.67001 64.1497 9.30216C63.7819 8.9343 63.1421 8.75037 62.2305 8.75037C61.6227 8.75037 61.0229 8.79835 60.4312 8.89432C59.8394 8.97428 59.3276 9.09424 58.8958 9.25418L58.44 6.3753C58.6479 6.31133 58.9038 6.24735 59.2077 6.18338C59.5275 6.10341 59.8714 6.03943 60.2393 5.99145C60.6071 5.92748 60.991 5.8795 61.3908 5.84751C61.8066 5.79953 62.2225 5.77554 62.6383 5.77554ZM78.2978 12.0371C78.2978 10.8855 78.1459 10.0699 77.842 9.59004C77.5541 9.11023 77.0503 8.87033 76.3306 8.87033C76.1067 8.87033 75.8748 8.88632 75.6349 8.91831C75.3949 8.9343 75.163 8.95829 74.9391 8.99028V18.7305H71.3645V6.54324C71.6684 6.46327 72.0203 6.3833 72.4201 6.30333C72.8359 6.20737 73.2678 6.1274 73.7156 6.06342C74.1794 5.98345 74.6512 5.92748 75.1311 5.89549C75.6109 5.84751 76.0827 5.82352 76.5465 5.82352C77.4581 5.82352 78.1939 5.94347 78.7536 6.18338C79.3294 6.40729 79.8012 6.67918 80.1691 6.99906C80.6809 6.6312 81.2647 6.34331 81.9204 6.13539C82.5921 5.92748 83.2079 5.82352 83.7677 5.82352C84.7753 5.82352 85.599 5.96746 86.2387 6.25535C86.8944 6.52724 87.4142 6.91909 87.7981 7.43089C88.1819 7.94269 88.4458 8.55045 88.5898 9.25418C88.7337 9.9579 88.8057 10.7416 88.8057 11.6053V18.7305H85.2311V12.0371C85.2311 10.8855 85.0792 10.0699 84.7753 9.59004C84.4874 9.11023 83.9836 8.87033 83.2639 8.87033C83.0719 8.87033 82.8001 8.91831 82.4482 9.01427C82.1123 9.11023 81.8324 9.23018 81.6085 9.37413C81.7205 9.74198 81.7924 10.1338 81.8244 10.5497C81.8564 10.9495 81.8724 11.3813 81.8724 11.8452V18.7305H78.2978V12.0371ZM95.6263 18.7305H92.0517V6.1114H95.6263V18.7305ZM95.9622 2.46483C95.9622 3.12057 95.7463 3.64037 95.3145 4.02422C94.8986 4.39208 94.4028 4.576 93.827 4.576C93.2513 4.576 92.7475 4.39208 92.3156 4.02422C91.8998 3.64037 91.6919 3.12057 91.6919 2.46483C91.6919 1.80909 91.8998 1.29729 92.3156 0.929431C92.7475 0.545581 93.2513 0.353656 93.827 0.353656C94.4028 0.353656 94.8986 0.545581 95.3145 0.929431C95.7463 1.29729 95.9622 1.80909 95.9622 2.46483ZM104.025 18.9704C102.985 18.9544 102.137 18.8424 101.482 18.6345C100.842 18.4266 100.33 18.1387 99.9462 17.7708C99.5783 17.387 99.3224 16.9312 99.1785 16.4034C99.0505 15.8596 98.9865 15.2518 98.9865 14.5801V0.689525L102.561 0.11375V13.8604C102.561 14.1802 102.585 14.4681 102.633 14.724C102.681 14.9799 102.769 15.1959 102.897 15.3718C103.041 15.5477 103.241 15.6917 103.497 15.8036C103.753 15.9156 104.097 15.9875 104.528 16.0195L104.025 18.9704ZM105.978 12.5169C105.978 11.3973 106.145 10.4217 106.481 9.59004C106.833 8.74238 107.289 8.03865 107.849 7.47887C108.409 6.91909 109.048 6.49525 109.768 6.20737C110.504 5.91948 111.255 5.77554 112.023 5.77554C113.814 5.77554 115.23 6.32732 116.27 7.43089C117.309 8.51846 117.829 10.1258 117.829 12.253C117.829 12.4609 117.821 12.6928 117.805 12.9487C117.789 13.1886 117.773 13.4046 117.757 13.5965H109.648C109.728 14.3322 110.072 14.916 110.68 15.3478C111.287 15.7796 112.103 15.9955 113.127 15.9955C113.782 15.9955 114.422 15.9396 115.046 15.8276C115.686 15.6997 116.206 15.5477 116.605 15.3718L117.085 18.2746C116.893 18.3706 116.637 18.4666 116.317 18.5625C115.998 18.6585 115.638 18.7385 115.238 18.8024C114.854 18.8824 114.438 18.9464 113.99 18.9944C113.543 19.0423 113.095 19.0663 112.647 19.0663C111.511 19.0663 110.52 18.8984 109.672 18.5625C108.84 18.2267 108.145 17.7708 107.585 17.1951C107.041 16.6033 106.633 15.9076 106.361 15.1079C106.105 14.3082 105.978 13.4445 105.978 12.5169ZM114.374 11.1494C114.358 10.8456 114.302 10.5497 114.206 10.2618C114.126 9.97389 113.99 9.71799 113.798 9.49408C113.623 9.27017 113.391 9.08624 113.103 8.9423C112.831 8.79835 112.487 8.72638 112.071 8.72638C111.671 8.72638 111.327 8.79835 111.04 8.9423C110.752 9.07025 110.512 9.24618 110.32 9.47009C110.128 9.694 109.976 9.9579 109.864 10.2618C109.768 10.5497 109.696 10.8456 109.648 11.1494H114.374ZM124.21 16.1635C124.866 16.1635 125.33 16.0995 125.601 15.9715C125.873 15.8436 126.009 15.5957 126.009 15.2278C126.009 14.94 125.833 14.692 125.482 14.4841C125.13 14.2602 124.594 14.0123 123.874 13.7404C123.314 13.5325 122.803 13.3166 122.339 13.0927C121.891 12.8688 121.507 12.6049 121.187 12.301C120.867 11.9811 120.619 11.6053 120.444 11.1734C120.268 10.7416 120.18 10.2218 120.18 9.61403C120.18 8.4305 120.619 7.49486 121.499 6.80713C122.379 6.1194 123.586 5.77554 125.122 5.77554C125.889 5.77554 126.625 5.84751 127.329 5.99145C128.033 6.1194 128.592 6.26335 129.008 6.42328L128.384 9.20619C127.969 9.06225 127.513 8.9343 127.017 8.82234C126.537 8.71039 125.993 8.65441 125.386 8.65441C124.266 8.65441 123.706 8.96629 123.706 9.59004C123.706 9.73399 123.73 9.86194 123.778 9.97389C123.826 10.0858 123.922 10.1978 124.066 10.3098C124.21 10.4057 124.402 10.5177 124.642 10.6456C124.898 10.7576 125.218 10.8855 125.601 11.0295C126.385 11.3174 127.033 11.6053 127.545 11.8931C128.057 12.165 128.456 12.4689 128.744 12.8048C129.048 13.1247 129.256 13.4845 129.368 13.8844C129.496 14.2842 129.56 14.748 129.56 15.2758C129.56 16.5233 129.088 17.467 128.144 18.1067C127.217 18.7465 125.897 19.0663 124.186 19.0663C123.066 19.0663 122.131 18.9704 121.379 18.7784C120.643 18.5865 120.132 18.4266 119.844 18.2986L120.444 15.3958C121.051 15.6357 121.675 15.8276 122.315 15.9715C122.955 16.0995 123.586 16.1635 124.21 16.1635Z" fill="white"/>
</svg>
