<svg width="29" height="30" viewBox="0 0 29 30" fill="none" xmlns="http://www.w3.org/2000/svg">
<path d="M14.8525 20.8332C9.0727 20.8332 5.77604 16.4538 5.63867 9.1665H8.53385C8.62894 14.5152 10.7633 16.7808 12.4539 17.2479V9.1665H15.1801V13.7794C16.8496 13.5809 18.6033 11.4788 19.1951 9.1665H21.9213C21.4669 12.016 19.565 14.1181 18.2125 14.9823C19.565 15.683 21.7312 17.5165 22.5553 20.8332H19.5544C18.9099 18.6143 17.3039 16.8976 15.1801 16.664V20.8332H14.8525Z" fill="white"/>
<path d="M28.5 15C28.5 23.0242 22.2161 29.5 14.5 29.5C6.78386 29.5 0.5 23.0242 0.5 15C0.5 6.97576 6.78386 0.5 14.5 0.5C22.2161 0.5 28.5 6.97576 28.5 15Z" stroke="white"/>
</svg>
