<svg xmlns="http://www.w3.org/2000/svg" width="356" height="355" viewBox="0 0 356 355" fill="none">
    <path d="M355.452 189.51L355.187 194.39L337.614 193.443L337.879 188.563L344.632 188.927L344.917 183.671L338.164 183.307L338.428 178.452L356 179.399L355.737 184.254L349.385 183.912L349.1 189.167L355.452 189.51Z" fill="#FF103E"/>
    <path d="M352.704 210.886L352.064 214.616L334.718 211.659L335.519 206.99L344.762 208.566L336.701 200.097L337.332 196.416L354.678 199.373L353.878 204.042L344.585 202.458L352.704 210.886Z" fill="#FF103E"/>
    <path d="M339.893 227.387C338.508 228.767 336.939 229.201 335.186 228.689C334.089 228.379 333.221 227.787 332.581 226.912C331.958 226.041 331.592 225.061 331.483 223.971C331.391 222.885 331.512 221.756 331.845 220.582C332.183 219.393 332.709 218.369 333.423 217.511C334.137 216.653 335.024 216.044 336.085 215.684C337.157 215.344 338.289 215.343 339.483 215.68L338.167 220.31C337.603 220.15 337.099 220.208 336.655 220.482C336.228 220.76 335.941 221.157 335.795 221.671C335.639 222.218 335.662 222.719 335.864 223.176C336.081 223.636 336.44 223.937 336.94 224.079C337.423 224.215 337.863 224.14 338.258 223.852C338.665 223.585 338.958 223.138 339.136 222.511L339.526 221.136L343.251 222.188L342.875 223.514C342.715 224.077 342.726 224.558 342.909 224.957C343.103 225.376 343.418 225.647 343.854 225.77C344.337 225.907 344.762 225.853 345.127 225.609C345.509 225.37 345.768 225.009 345.905 224.526C346.042 224.044 346.008 223.583 345.802 223.143C345.592 222.719 345.239 222.428 344.743 222.271L346.025 217.761C347.169 218.085 348.074 218.67 348.739 219.518C349.4 220.381 349.789 221.342 349.906 222.4C350.035 223.478 349.94 224.58 349.62 225.706C349.314 226.783 348.848 227.719 348.221 228.515C347.606 229.331 346.819 229.925 345.86 230.296C344.917 230.673 343.921 230.713 342.873 230.417C341.373 229.993 340.38 228.983 339.893 227.387Z" fill="#FF103E"/>
    <path d="M323.927 244.084L326.03 238.742L335.098 236.905L327.867 234.076L329.639 229.573L346.021 235.982L344.248 240.485L337.345 237.784L342.549 244.801L340.501 250.004L334.625 241.674L323.927 244.084Z" fill="#FF103E"/>
    <path d="M318.259 254.787L321.253 255.245L324.142 249.738L322.057 247.547L324.457 242.972L336.847 257.211L334.656 261.386L315.788 259.495L318.259 254.787ZM325.164 255.955L330.895 256.766L326.958 252.535L325.164 255.955Z" fill="#FF103E"/>
    <path d="M326.664 274.711L322.308 281.215L307.672 271.473L310.338 267.492L314.917 270.54L315.825 269.185L312.837 263.761L315.852 259.259L319.202 265.677C320.146 265.14 321.134 264.883 322.166 264.907C323.188 264.945 324.167 265.274 325.101 265.896C326.09 266.555 326.822 267.373 327.295 268.351C327.783 269.339 327.968 270.386 327.851 271.494C327.748 272.61 327.352 273.683 326.664 274.711ZM319.456 270.758L318.158 272.697L321.42 274.868L322.718 272.929C323.072 272.401 323.214 271.873 323.145 271.345C323.066 270.83 322.783 270.41 322.295 270.086C321.807 269.761 321.303 269.656 320.782 269.772C320.252 269.901 319.81 270.23 319.456 270.758Z" fill="#FF103E"/>
    <path d="M295.54 292.584L294.378 293.868L288.724 288.778L291.69 285.504L294.041 287.621L301.893 278.953L314.953 290.712L311.685 294.32L301.926 285.535L298.809 288.976L308.567 297.761L305.298 301.37L295.54 292.584Z" fill="#FF103E"/>
    <path d="M288.69 298.605L283.764 303.04L280.95 299.934L289.458 292.274L301.253 305.294L292.895 312.82L290.081 309.713L294.857 305.413L293.121 303.497L288.83 307.361L286.168 304.422L290.459 300.558L288.69 298.605Z" fill="#FF103E"/>
    <path d="M281.38 321.67L277.436 324.574L266.981 310.462L270.924 307.559L274.942 312.982L279.188 309.854L275.17 304.431L279.093 301.543L289.549 315.654L285.626 318.543L281.847 313.443L277.601 316.57L281.38 321.67Z" fill="#FF103E"/>
    <path d="M254.34 317.92L256.62 319.908L262.022 316.806L261.442 313.842L265.929 311.266L268.721 329.908L264.626 332.26L249.721 320.572L254.34 317.92ZM259.538 322.6L263.938 326.35L262.893 320.674L259.538 322.6Z" fill="#FF103E"/>
    <path d="M221.14 349.435L216.404 350.696L211.865 333.745L216.602 332.485L218.346 338.999L223.447 337.641L221.703 331.127L226.415 329.874L230.953 346.824L226.241 348.078L224.601 341.952L219.5 343.309L221.14 349.435Z" fill="#FF103E"/>
    <path d="M199.871 353.376L196.113 353.914L193.613 336.548L198.317 335.875L199.649 345.129L205.26 334.882L208.968 334.351L211.467 351.717L206.764 352.39L205.425 343.087L199.871 353.376Z" fill="#FF103E"/>
    <path d="M180.184 346.292C178.439 345.406 177.539 344.052 177.486 342.232C177.442 341.097 177.738 340.09 178.375 339.213C179.013 338.352 179.834 337.702 180.84 337.262C181.847 336.839 182.962 336.603 184.184 336.556C185.424 336.509 186.563 336.691 187.602 337.102C188.641 337.514 189.497 338.166 190.169 339.06C190.824 339.971 191.176 341.044 191.224 342.28L186.401 342.466C186.378 341.881 186.167 341.421 185.769 341.085C185.371 340.766 184.904 340.617 184.368 340.638C183.798 340.66 183.327 340.837 182.954 341.169C182.582 341.517 182.406 341.951 182.426 342.468C182.445 342.969 182.653 343.362 183.05 343.648C183.431 343.951 183.948 344.09 184.601 344.065L186.033 344.01L186.182 347.867L184.801 347.92C184.214 347.942 183.759 348.102 183.435 348.399C183.095 348.713 182.934 349.095 182.952 349.546C182.971 350.047 183.154 350.433 183.5 350.704C183.846 350.991 184.271 351.126 184.773 351.106C185.276 351.087 185.705 350.911 186.061 350.58C186.4 350.249 186.568 349.825 186.565 349.307L191.263 349.126C191.309 350.311 191.03 351.35 190.428 352.243C189.808 353.136 189.012 353.802 188.039 354.241C187.051 354.697 185.97 354.948 184.798 354.993C183.676 355.036 182.638 354.884 181.686 354.536C180.717 354.205 179.907 353.643 179.255 352.849C178.605 352.071 178.258 351.14 178.216 350.054C178.156 348.502 178.812 347.247 180.184 346.292Z" fill="#FF103E"/>
    <path d="M158.735 336.25L164.481 336.604L169.02 344.643L169.499 336.914L174.342 337.212L173.256 354.723L168.413 354.424L168.871 347.045L163.771 354.138L158.176 353.793L164.322 345.66L158.735 336.25Z" fill="#FF103E"/>
    <path d="M146.875 334.185L147.37 337.164L153.52 338.188L154.959 335.531L160.067 336.382L150.349 352.551L145.687 351.774L141.618 333.31L146.875 334.185ZM147.91 341.091L148.921 346.774L151.729 341.727L147.91 341.091Z" fill="#FF103E"/>
    <path d="M130.293 348.224L122.747 346.093L127.542 329.213L132.162 330.517L130.662 335.798L132.234 336.242L136.492 331.74L141.717 333.215L136.621 338.367C137.424 339.097 137.973 339.955 138.268 340.942C138.546 341.923 138.532 342.953 138.226 344.03C137.902 345.171 137.346 346.117 136.558 346.867C135.766 347.633 134.823 348.131 133.73 348.361C132.632 348.606 131.487 348.561 130.293 348.224ZM131.85 340.171L129.6 339.536L128.531 343.298L130.781 343.933C131.394 344.106 131.942 344.079 132.424 343.85C132.891 343.617 133.205 343.22 133.364 342.657C133.524 342.094 133.469 341.584 133.199 341.125C132.912 340.662 132.462 340.344 131.85 340.171Z" fill="#FF103E"/>
    <path d="M103.729 324.131L102.15 323.416L105.299 316.501L109.328 318.325L108.018 321.201L118.686 326.03L111.409 342.004L106.969 339.994L112.405 328.058L108.17 326.141L102.734 338.076L98.2931 336.066L103.729 324.131Z" fill="#FF103E"/>
    <path d="M96.0215 319.536L90.2824 316.212L92.3911 312.593L102.304 318.333L93.4651 333.504L83.7261 327.864L85.8348 324.245L91.4 327.468L92.7006 325.236L87.7006 322.34L89.6957 318.916L94.6956 321.811L96.0215 319.536Z" fill="#FF103E"/>
    <path d="M71.767 319.622L67.792 316.761L78.0921 302.536L82.067 305.397L78.1088 310.863L82.3895 313.944L86.3477 308.477L90.3022 311.323L80.0022 325.548L76.0476 322.702L79.7704 317.561L75.4897 314.48L71.767 319.622Z" fill="#FF103E"/>
    <path d="M67.1371 292.824L65.9338 295.595L70.5457 299.778L73.1995 298.322L77.0304 301.796L60.0741 310.136L56.578 306.965L63.1947 289.248L67.1371 292.824ZM64.2533 299.187L62.0141 304.509L67.1171 301.784L64.2533 299.187Z" fill="#FF103E"/>
    <path d="M26.8394 270.907L24.1926 266.794L39.0053 257.322L41.6522 261.435L35.9598 265.075L38.8103 269.505L44.5026 265.865L47.1358 269.958L32.3231 279.43L29.6898 275.338L35.0436 271.914L32.1932 267.484L26.8394 270.907Z" fill="#FF103E"/>
    <path d="M16.6162 252.121L14.9445 248.723L30.7446 240.998L32.8369 245.251L24.4177 249.367L35.9256 251.529L37.575 254.882L21.7749 262.607L19.6826 258.354L28.147 254.216L16.6162 252.121Z" fill="#FF103E"/>
    <path d="M17.2817 231.135C17.5974 229.208 18.6168 227.942 20.3401 227.337C21.4115 226.95 22.4633 226.925 23.4954 227.263C24.5116 227.607 25.3831 228.19 26.1096 229.011C26.8204 229.839 27.3842 230.826 27.8011 231.972C28.2237 233.135 28.3964 234.272 28.3194 235.384C28.2423 236.496 27.8789 237.507 27.2293 238.417C26.5582 239.317 25.6396 239.978 24.4736 240.399L22.8289 235.875C23.3804 235.676 23.7559 235.336 23.9554 234.855C24.1392 234.38 24.1398 233.891 23.957 233.388C23.7629 232.854 23.4504 232.46 23.0197 232.207C22.5732 231.96 22.1057 231.924 21.6172 232.101C21.1445 232.272 20.832 232.589 20.6797 233.053C20.506 233.506 20.5305 234.04 20.7532 234.652L21.2415 235.995L17.6016 237.31L17.1304 236.014C16.9305 235.465 16.6396 235.081 16.2575 234.864C15.8539 234.636 15.4394 234.599 15.014 234.753C14.5413 234.924 14.2281 235.215 14.0744 235.626C13.905 236.042 13.906 236.486 14.0773 236.958C14.2486 237.429 14.5468 237.783 14.9718 238.021C15.3911 238.242 15.8479 238.273 16.342 238.112L17.9439 242.518C16.8252 242.923 15.7476 242.974 14.7112 242.673C13.6691 242.357 12.7905 241.803 12.0754 241.013C11.3388 240.213 10.7707 239.263 10.3709 238.164C9.98829 237.111 9.81828 236.079 9.86089 235.069C9.88204 234.048 10.173 233.108 10.7338 232.248C11.2789 231.393 12.0635 230.781 13.0877 230.411C14.5531 229.881 15.9511 230.123 17.2817 231.135Z" fill="#FF103E"/>
    <path d="M20.5315 208.713L21.974 214.269L15.7132 221.062L23.2338 219.122L24.4495 223.805L7.41268 228.201L6.19698 223.518L13.3768 221.665L5.03168 219.029L3.62702 213.618L13.2887 216.924L20.5315 208.713Z" fill="#FF103E"/>
    <path d="M18.8465 196.888L16.1541 198.271L17.0633 204.421L20.0417 204.971L20.7969 210.079L2.37871 205.819L1.68947 201.157L18.0693 191.631L18.8465 196.888ZM12.5709 199.989L7.45606 202.691L13.1354 203.807L12.5709 199.989Z" fill="#FF103E"/>
    <path d="M0.272399 185.042L0 177.228L17.5875 176.618L17.7543 181.402L12.2519 181.593L12.3086 183.221L17.9105 185.886L18.0991 191.296L11.6211 188.035C11.1691 189.02 10.5173 189.803 9.66546 190.385C8.81309 190.949 7.82578 191.251 6.70353 191.29C5.51428 191.331 4.44105 191.092 3.48384 190.574C2.50988 190.056 1.74611 189.313 1.19252 188.346C0.622176 187.379 0.31547 186.278 0.272399 185.042ZM8.4387 184.057L8.35751 181.728L4.43801 181.864L4.5192 184.193C4.54132 184.828 4.73524 185.339 5.10096 185.728C5.46609 186.1 5.94179 186.275 6.52804 186.255C7.11429 186.235 7.58497 186.026 7.94008 185.629C8.29461 185.216 8.46082 184.692 8.4387 184.057Z" fill="#FF103E"/>
    <path d="M15.0383 152.251L15.2318 150.533L22.8017 151.38L22.3081 155.764L19.1602 155.411L17.8533 167.018L0.365066 165.061L0.909132 160.229L13.9754 161.691L14.4942 157.083L1.42796 155.621L1.97202 150.789L15.0383 152.251Z" fill="#FF103E"/>
    <path d="M16.982 143.675L18.3746 137.206L22.4795 138.084L20.0743 149.258L2.86785 145.577L5.23092 134.599L9.33588 135.477L7.98555 141.75L10.5174 142.292L11.7305 136.656L15.6143 137.487L14.4011 143.123L16.982 143.675Z" fill="#FF103E"/>
    <path d="M9.49193 120.341L11.0052 115.692L27.7439 121.108L26.2306 125.757L19.7982 123.676L18.1684 128.682L24.6009 130.763L23.0953 135.388L6.35667 129.972L7.86221 125.347L13.912 127.305L15.5418 122.298L9.49193 120.341Z" fill="#FF103E"/>
    <path d="M33.5293 107.946L30.5144 107.654L27.9366 113.314L30.1408 115.385L27.9995 120.086L14.8345 106.557L16.7886 102.267L35.7329 103.108L33.5293 107.946ZM26.5694 107.162L20.8017 106.671L24.9686 110.677L26.5694 107.162Z" fill="#FF103E"/>
    <path d="M42.362 62.589L45.4858 58.8224L59.0485 70.0017L55.9247 73.7683L50.7127 69.4723L47.3486 73.5286L52.5606 77.8246L49.4528 81.5719L35.8901 70.3926L38.9979 66.6453L43.8998 70.6858L47.2639 66.6295L42.362 62.589Z" fill="#FF103E"/>
    <path d="M56.795 47.5156L59.5277 44.8886L71.7433 57.5174L68.323 60.8055L61.8138 54.0761L63.274 65.6594L60.5776 68.2516L48.3619 55.6227L51.7822 52.3346L58.3263 59.1001L56.795 47.5156Z" fill="#FF103E"/>
    <path d="M76.827 41.7972C78.7628 41.5013 80.2853 42.077 81.3946 43.5241C82.095 44.4204 82.4433 45.4101 82.4396 46.4931C82.4257 47.5628 82.139 48.5691 81.5796 49.5117C81.0099 50.4412 80.2424 51.2807 79.2772 52.0302C78.2987 52.79 77.2671 53.3051 76.1825 53.5755C75.0979 53.8458 74.0211 53.8136 72.9522 53.4788C71.8862 53.1204 70.9722 52.4536 70.2101 51.4781L74.0182 48.5212C74.3786 48.9825 74.8191 49.2335 75.3394 49.2742C75.8495 49.3017 76.3161 49.1512 76.7393 48.8226C77.1888 48.4735 77.4678 48.0557 77.5763 47.5691C77.6744 47.0693 77.5639 46.6151 77.2446 46.2065C76.9356 45.811 76.5364 45.6127 76.0469 45.6116C75.5603 45.587 75.0592 45.7749 74.5435 46.1753L73.413 47.0532L71.034 44.0082L72.1248 43.1611C72.5876 42.8018 72.8637 42.4074 72.9531 41.9779C73.0454 41.525 72.9525 41.1207 72.6744 40.7647C72.3655 40.3693 71.9912 40.1622 71.5517 40.1434C71.1019 40.1115 70.6786 40.2495 70.2819 40.5576C69.8852 40.8656 69.6393 41.2577 69.5441 41.7341C69.4621 42.2001 69.5741 42.6426 69.8801 43.0615L66.1712 45.9415C65.44 45.0056 65.0579 43.9998 65.0248 42.9242C65.0049 41.8383 65.2615 40.8343 65.7944 39.9122C66.3303 38.9666 67.061 38.1344 67.9866 37.4157C68.8725 36.7278 69.8041 36.248 70.7815 35.9762C71.7617 35.681 72.7488 35.6664 73.7427 35.9324C74.7263 36.1853 75.5528 36.7401 76.2222 37.5969C77.18 38.8229 77.3816 40.223 76.827 41.7972Z" fill="#FF103E"/>
    <path d="M100.06 37.4138L95.1914 40.477L86.7933 36.6031L90.9394 43.1523L86.8362 45.734L77.4438 30.8976L81.547 28.3159L85.5052 34.5684L85.4801 25.8413L90.2211 22.8583L90.0075 33.0397L100.06 37.4138Z" fill="#FF103E"/>
    <path d="M111.025 32.087L108.883 29.9522L103.285 32.6892L103.667 35.6849L99.0171 37.9584L97.475 19.1718L101.718 17.097L115.81 29.7473L111.025 32.087ZM106.15 27.0731L102.01 23.0399L102.674 28.7727L106.15 27.0731Z" fill="#FF103E"/>
    <path d="M115.736 11.1831L123.111 8.51868L129.107 25.0129L124.593 26.644L122.717 21.4837L121.18 22.0388L120.362 28.1727L115.256 30.0173L116.375 22.8687C115.295 22.7434 114.347 22.3662 113.53 21.7373C112.729 21.1026 112.137 20.259 111.754 19.2065C111.349 18.0912 111.246 16.9997 111.446 15.9322C111.641 14.8489 112.114 13.8958 112.867 13.073C113.614 12.2344 114.57 11.6044 115.736 11.1831ZM119.191 18.6256L121.389 17.8314L120.053 14.1555L117.854 14.9497C117.256 15.1661 116.827 15.5075 116.569 15.974C116.326 16.4349 116.305 16.9402 116.505 17.49C116.705 18.0398 117.049 18.422 117.537 18.6367C118.041 18.8456 118.592 18.8419 119.191 18.6256Z" fill="#FF103E"/>
    <path d="M151.305 15.1542L153.005 14.8108L154.518 22.2536L150.181 23.1296L149.552 20.0346L138.07 22.3542L134.575 5.15958L139.355 4.19392L141.966 17.0407L146.525 16.1199L143.913 3.27306L148.693 2.3074L151.305 15.1542Z" fill="#FF103E"/>
    <path d="M160.105 14.339L166.709 13.6768L167.129 17.8413L155.722 18.985L153.961 1.52905L165.168 0.405343L165.588 4.56985L159.184 5.21196L159.443 7.78049L165.197 7.20359L165.594 11.1437L159.841 11.7206L160.105 14.339Z" fill="#FF103E"/>
    <path d="M180.937 0.0390865L185.839 0.0579525L185.771 17.6019L180.869 17.583L180.895 10.8411L175.616 10.8208L175.59 17.5627L170.713 17.5439L170.781 0L175.658 0.0187693L175.633 6.35965L180.913 6.37997L180.937 0.0390865Z" fill="#FF103E"/>
    <path d="M200.493 19.09L199.85 16.1392L193.657 15.4221L192.352 18.1474L187.208 17.5517L196.106 0.919981L200.8 1.4636L205.787 19.7031L200.493 19.09ZM199.114 12.244L197.821 6.61903L195.268 11.7987L199.114 12.244Z" fill="#FF103E"/>
    <path d="M245.445 13.2187L250.002 15.0211L243.512 31.3285L238.955 29.5261L241.449 23.2594L236.541 21.3184L234.047 27.5851L229.514 25.7919L236.004 9.48451L240.537 11.2777L238.192 17.1716L243.099 19.1127L245.445 13.2187Z" fill="#FF103E"/>
    <path d="M264.662 22.4479L268.006 24.2391L259.678 39.6938L255.492 37.4519L259.93 29.2167L249.313 34.1425L246.013 32.375L254.342 16.9203L258.528 19.1622L254.066 27.4415L264.662 22.4479Z" fill="#FF103E"/>
    <path d="M276.438 39.8366C277.31 41.5847 277.224 43.2057 276.179 44.6998C275.536 45.6378 274.697 46.2699 273.661 46.5962C272.634 46.9087 271.586 46.9429 270.515 46.6987C269.453 46.4408 268.417 45.9676 267.407 45.2792C266.383 44.5815 265.577 43.7588 264.989 42.8111C264.4 41.8635 264.103 40.8312 264.097 39.7142C264.115 38.5929 264.474 37.5219 265.174 36.5011L269.159 39.2168C268.828 39.6996 268.722 40.1943 268.841 40.7008C268.971 41.1936 269.256 41.5908 269.699 41.8926C270.17 42.2132 270.654 42.3509 271.152 42.3057C271.659 42.2467 272.059 42.0034 272.353 41.5758C272.636 41.162 272.704 40.7225 272.556 40.2573C272.432 39.7878 272.099 39.3692 271.56 39.0014L270.377 38.1952L272.562 35.0089L273.703 35.7868C274.188 36.1168 274.648 36.2589 275.086 36.213C275.547 36.1627 275.905 35.9514 276.16 35.5789C276.444 35.1651 276.528 34.7467 276.412 34.3236C276.306 33.8867 276.045 33.5269 275.63 33.244C275.215 32.9611 274.765 32.847 274.281 32.9016C273.811 32.9657 273.422 33.2068 273.115 33.6249L269.234 30.98C269.905 30.0006 270.75 29.3315 271.768 28.9725C272.799 28.623 273.836 28.5609 274.88 28.7862C275.946 29.0071 276.964 29.4476 277.933 30.1077C278.86 30.7395 279.602 31.478 280.159 32.3233C280.74 33.1642 281.054 34.0971 281.103 35.1219C281.16 36.1329 280.882 37.0867 280.267 37.9832C279.388 39.266 278.111 39.8838 276.438 39.8366Z" fill="#FF103E"/>
    <path d="M287.704 60.5577L283.294 56.8684L284.436 47.7138L279.442 53.6463L275.726 50.5369L287.038 37.0976L290.754 40.207L285.987 45.8707L294.317 43.1874L298.612 46.7801L288.82 49.6798L287.704 60.5577Z" fill="#FF103E"/>
    <path d="M296 69.1838L297.383 66.4969L293.055 62.0227L290.311 63.3023L286.716 59.5859L304.183 52.3691L307.464 55.7608L299.7 73.0085L296 69.1838ZM299.295 63.0219L301.878 57.8575L296.608 60.2436L299.295 63.0219Z" fill="#FF103E"/>
    <path d="M317.848 67.7849L322.645 73.9715L308.722 84.7015L305.785 80.9142L310.141 77.5572L309.142 76.2683L303.033 77.3648L299.712 73.0817L306.881 71.9598C306.671 70.8968 306.742 69.8814 307.093 68.9138C307.455 67.9594 308.08 67.1398 308.968 66.4551C309.91 65.7296 310.921 65.2988 312.002 65.1628C313.096 65.0165 314.151 65.175 315.166 65.6381C316.196 66.091 317.089 66.8066 317.848 67.7849ZM311.794 73.3372L313.224 75.1813L316.327 72.79L314.897 70.9459C314.508 70.4436 314.051 70.1411 313.526 70.0384C313.012 69.949 312.523 70.0831 312.059 70.4408C311.595 70.7984 311.335 71.2417 311.279 71.7706C311.233 72.3126 311.405 72.8348 311.794 73.3372Z" fill="#FF103E"/>
    <path d="M324.956 102.84L325.805 104.348L319.163 108.065L316.997 104.219L319.759 102.673L314.025 92.4882L329.371 83.901L331.758 88.141L320.293 94.5568L322.569 98.6001L334.035 92.1842L336.422 96.4242L324.956 102.84Z" fill="#FF103E"/>
    <path d="M328.452 111.054L331.106 117.119L327.258 118.792L322.674 108.317L338.804 101.302L343.308 111.594L339.459 113.267L336.886 107.387L334.513 108.419L336.825 113.702L333.184 115.286L330.872 110.002L328.452 111.054Z" fill="#FF103E"/>
    <path d="M348.132 125.485L349.628 130.139L332.869 135.492L331.373 130.837L337.814 128.78L336.203 123.768L329.763 125.825L328.275 121.195L345.034 115.842L346.522 120.472L340.464 122.407L342.075 127.419L348.132 125.485Z" fill="#FF103E"/>
    <path d="M335.813 149.173L338.427 147.647L337.189 141.555L334.185 141.165L333.156 136.105L351.777 139.375L352.716 143.993L336.871 154.38L335.813 149.173ZM341.913 145.741L346.875 142.77L341.144 141.958L341.913 145.741Z" fill="#FF103E"/>
</svg>