<svg xmlns="http://www.w3.org/2000/svg" width="80" height="40" viewBox="0 0 80 40" fill="none">
    <path d="M73.5859 40C70.0491 40 67.174 37.1226 67.174 33.5881C67.174 32.7289 67.3494 31.9096 67.658 31.1592L48.6776 13.4932C47.6608 14.1726 46.4419 14.5722 45.1297 14.5722C44.4637 14.5722 43.8198 14.4634 43.2026 14.268L37.1371 21.9099C37.59 22.8002 37.8564 23.7771 37.8564 24.805C37.8564 28.3396 34.9813 31.2169 31.4445 31.2169C27.9078 31.2169 25.0326 28.3396 25.0326 24.805C25.0326 24.4809 25.0926 24.1701 25.1392 23.8548L9.83099 11.8502C8.83856 12.4786 7.67297 12.8582 6.4119 12.8582C2.87514 12.8582 0 9.98085 0 6.44631C0 2.90955 2.87514 0.0321922 6.4119 0.0321922C9.94866 0.0321922 12.8238 2.90955 12.8238 6.44631C12.8238 7.09905 12.6972 7.71848 12.5152 8.31127L27.3172 19.9184C27.3571 19.8851 27.386 19.8407 27.426 19.8096C28.5605 18.8949 29.9881 18.3909 31.4467 18.3909C32.2948 18.3909 33.1185 18.5574 33.8801 18.8705L39.7125 11.5217C39.0908 10.5226 38.7178 9.37918 38.7178 8.1603C38.7178 4.62354 41.593 1.74618 45.1297 1.74618C48.6643 1.74618 51.5416 4.62354 51.5416 8.1603C51.5416 8.75087 51.4351 9.31035 51.2863 9.85208L70.6819 27.9022C71.5589 27.4515 72.5357 27.174 73.5881 27.174C77.1226 27.174 80 30.0513 80 33.5859C80 37.1204 77.1226 40 73.5859 40ZM6.4119 4.47701C5.32401 4.47701 4.44037 5.36064 4.44037 6.45075C4.44037 7.53642 5.32401 8.42228 6.4119 8.42228C7.49979 8.42228 8.38343 7.53864 8.38343 6.45075C8.38565 5.36064 7.49979 4.47701 6.4119 4.47701ZM30.2123 23.2687C29.7438 23.6483 29.473 24.2078 29.473 24.8073C29.473 25.8929 30.3566 26.7788 31.4445 26.7788C32.5324 26.7788 33.416 25.8952 33.416 24.8073C33.416 24.2811 33.2118 23.786 32.841 23.4152V23.413H32.8388C32.0573 22.6359 30.683 22.8912 30.2123 23.2687ZM45.1297 6.18877C44.0418 6.18877 43.1582 7.0724 43.1582 8.16252C43.1582 8.77973 43.438 9.34588 43.9308 9.72553C43.9397 9.73219 43.953 9.73441 43.9619 9.74329L43.9641 9.74551C44.2061 9.92535 44.5947 10.134 45.132 10.134C46.2176 10.134 47.1035 9.25041 47.1035 8.16252C47.1013 7.07462 46.2176 6.18877 45.1297 6.18877ZM73.5859 31.6166C72.498 31.6166 71.6143 32.5002 71.6143 33.5881C71.6143 34.676 72.498 35.5596 73.5859 35.5596C74.6715 35.5596 75.5574 34.676 75.5574 33.5881C75.5574 32.5002 74.6738 31.6166 73.5859 31.6166Z" fill="white"/>
</svg>