<svg xmlns="http://www.w3.org/2000/svg" width="5316" height="75" viewBox="0 0 5316 75" fill="none">
	<path d="M0 5.99974C115 5.99974 134.9 67.3997 286.5 70.9997C438.1 74.5997 489 5.99974 633 5.99974C800 5.99974 798 50.5 950.5 50.5C1113.5 50.5 1100 5.99974 1223 5.99974C1346 5.99974 1374 50.5 1513 50.5C1615.5 50.5 1629 16 1711.5 16C1794 16 1877.5 50.5 2019.5 50.5C2094 50.5 2142.5 16 2213.5 16C2284.5 16 2389 50.5 2492 50.5C2595 50.5 2607.5 7 2710 7C2806 7 2863.5 48 3017.5 48C3171.5 48 3162.6 16 3252 16C3344.5 16 3443 48 3545 48C3647 48 3689.5 3 3807.5 3C3925.5 3 3971.5 48 4086 48C4200.5 48 4260.5 3 4398.5 3C4511.5 3 4556 40.5 4672.5 40.5C4777 40.5 4827 3 4927.5 3C5028 3 5171 48 5315.5 40.5" stroke="url(#paint0_linear_390_106)" stroke-width="6" stroke-dasharray="13 13"/>
	<defs>
		<linearGradient id="paint0_linear_390_106" x1="0" y1="3" x2="5316" y2="3.00001" gradientUnits="userSpaceOnUse">
			<stop stop-color="#E94003"/>
			<stop offset="1" stop-color="#5305B5"/>
		</linearGradient>
	</defs>
</svg>