<svg width="167" height="157" viewBox="0 0 167 157" fill="none" xmlns="http://www.w3.org/2000/svg">
    <g clip-path="url(#clip0_2027_45060)">
        <g filter="url(#filter0_dddddd_2027_45060)">
            <path
                d="M87.5117 26.266C87.7844 26.3091 88.0405 26.1229 88.0835 25.8501C88.1266 25.5774 87.9404 25.3213 87.6677 25.2783L87.5117 26.266ZM58.5197 47.5678L59.0189 47.5394L58.5197 47.5678ZM80.4119 59.8658L80.9119 59.858L80.4119 59.8658ZM63.5412 86.2655L63.2284 86.6556L63.5412 86.2655ZM113.055 120.956C113.156 120.699 113.03 120.409 112.773 120.307L108.586 118.657C108.329 118.556 108.039 118.682 107.938 118.939C107.837 119.196 107.963 119.486 108.22 119.588L111.941 121.054L110.474 124.776C110.373 125.033 110.499 125.323 110.756 125.424C111.013 125.526 111.304 125.399 111.405 125.142L113.055 120.956ZM87.6677 25.2783C86.7894 25.1396 85.9285 25.0431 85.085 24.9861L85.0176 25.9838C85.8309 26.0388 86.6624 26.1319 87.5117 26.266L87.6677 25.2783ZM79.9029 25.1373C78.1193 25.3695 76.4362 25.7833 74.8568 26.3431L75.1909 27.2856C76.7053 26.7488 78.3198 26.3518 80.0319 26.1289L79.9029 25.1373ZM70.1714 28.5831C68.6579 29.5104 67.2794 30.5718 66.0396 31.717L66.7182 32.4516C67.9129 31.348 69.2395 30.3268 70.6939 29.4357L70.1714 28.5831ZM62.5764 35.5721C61.4905 37.0317 60.5921 38.5348 59.8878 40.0062L60.7898 40.4379C61.466 39.0252 62.3309 37.5774 63.3787 36.169L62.5764 35.5721ZM58.2186 44.945C58.0434 45.8936 57.9745 46.7879 58.0205 47.5962L59.0189 47.5394C58.9783 46.8264 59.0381 46.0136 59.202 45.1267L58.2186 44.945ZM58.0205 47.5962C58.0703 48.4719 58.3666 49.4474 58.83 50.4626L59.7397 50.0473C59.3044 49.0939 59.0591 48.2452 59.0189 47.5394L58.0205 47.5962ZM61.9437 55.294C63.0941 56.7235 64.4259 58.1483 65.8359 59.4618L66.5175 58.7301C65.1403 57.4472 63.8415 56.0572 62.7227 54.6671L61.9437 55.294ZM70.2948 63.0273C72.1152 64.2413 73.9321 65.1415 75.5403 65.482L75.7475 64.5037C74.3162 64.2006 72.6214 63.3769 70.8496 62.1954L70.2948 63.0273ZM80.5593 62.818C80.8101 62.0105 80.9301 61.0274 80.9119 59.858L79.912 59.8736C79.9291 60.9713 79.815 61.843 79.6043 62.5214L80.5593 62.818ZM80.9119 59.858C80.8971 58.9116 80.699 58.0736 80.3352 57.3478L79.4412 57.7959C79.7301 58.3722 79.8993 59.0597 79.912 59.8736L80.9119 59.858ZM76.2916 54.4031C74.8508 54.0379 73.1767 53.9794 71.4132 54.1827L71.5277 55.1761C73.2054 54.9827 74.7524 55.0446 76.0459 55.3725L76.2916 54.4031ZM66.701 55.2769C65.2098 55.7898 63.7221 56.4585 62.3086 57.2684L62.8058 58.1361C64.1635 57.3581 65.5935 56.7154 67.0263 56.2225L66.701 55.2769ZM58.3831 60.0878C57.1604 61.1878 56.0838 62.4247 55.2331 63.7844L56.0809 64.3147C56.8754 63.0449 57.8884 61.878 59.0519 60.8312L58.3831 60.0878ZM53.4192 68.3266C53.1262 69.8689 53.1244 71.5035 53.4803 73.2126L54.4593 73.0087C54.1301 71.4279 54.1332 69.926 54.4016 68.5132L53.4192 68.3266ZM55.2256 77.7611C55.9413 79.0441 56.8604 80.3542 58.004 81.6868L58.7629 81.0356C57.6576 79.7475 56.7783 78.4919 56.0989 77.274L55.2256 77.7611ZM61.3725 85.0893C61.9556 85.6086 62.5738 86.1308 63.2284 86.6556L63.854 85.8754C63.2121 85.3608 62.6071 84.8498 62.0375 84.3425L61.3725 85.0893ZM63.2284 86.6556C63.8595 87.1616 64.4443 87.6943 64.9871 88.2506L65.7028 87.5522C65.1321 86.9672 64.5172 86.4072 63.854 85.8754L63.2284 86.6556ZM67.8739 92.0144C68.6927 93.377 69.3639 94.8213 69.9258 96.3203L70.8622 95.9693C70.2827 94.4232 69.5862 92.9225 68.731 91.4993L67.8739 92.0144ZM71.3142 100.921C71.6933 102.487 72.0017 104.076 72.2784 105.661L73.2635 105.489C72.9848 103.892 72.6721 102.28 72.2861 100.686L71.3142 100.921ZM73.0652 110.458C73.3352 112.114 73.6148 113.736 73.9522 115.28L74.9292 115.066C74.5978 113.55 74.3216 111.95 74.0522 110.298L73.0652 110.458ZM75.3302 120.023C75.9678 121.651 76.7771 123.123 77.8533 124.358L78.6072 123.701C77.6263 122.575 76.8698 121.212 76.2613 119.658L75.3302 120.023ZM81.9722 127.266C83.3738 127.824 85.002 128.157 86.9 128.237L86.9423 127.238C85.1368 127.162 83.6221 126.846 82.342 126.337L81.9722 127.266ZM91.8214 127.956C93.3012 127.748 94.9051 127.431 96.6451 126.995L96.4024 126.025C94.6913 126.454 93.1224 126.763 91.6826 126.965L91.8214 127.956ZM101.332 125.641C102.788 125.17 104.323 124.631 105.944 124.02L105.591 123.084C103.984 123.69 102.463 124.224 101.024 124.69L101.332 125.641ZM110.479 122.216C111.232 121.901 112.002 121.573 112.789 121.231L112.39 120.314C111.608 120.654 110.843 120.98 110.093 121.293L110.479 122.216Z"
                fill="white" />
        </g>
    </g>
    <defs>
        <filter id="filter0_dddddd_2027_45060" x="-324.177" y="-352.397" width="814.65" height="858.017"
            filterUnits="userSpaceOnUse" color-interpolation-filters="sRGB">
            <feFlood flood-opacity="0" result="BackgroundImageFix" />
            <feColorMatrix in="SourceAlpha" type="matrix" values="0 0 0 0 0 0 0 0 0 0 0 0 0 0 0 0 0 0 127 0"
                result="hardAlpha" />
            <feOffset />
            <feGaussianBlur stdDeviation="4.49265" />
            <feColorMatrix type="matrix" values="0 0 0 0 1 0 0 0 0 1 0 0 0 0 1 0 0 0 1 0" />
            <feBlend mode="normal" in2="BackgroundImageFix" result="effect1_dropShadow_2027_45060" />
            <feColorMatrix in="SourceAlpha" type="matrix" values="0 0 0 0 0 0 0 0 0 0 0 0 0 0 0 0 0 0 127 0"
                result="hardAlpha" />
            <feOffset />
            <feGaussianBlur stdDeviation="8.98531" />
            <feColorMatrix type="matrix" values="0 0 0 0 1 0 0 0 0 1 0 0 0 0 1 0 0 0 1 0" />
            <feBlend mode="normal" in2="effect1_dropShadow_2027_45060" result="effect2_dropShadow_2027_45060" />
            <feColorMatrix in="SourceAlpha" type="matrix" values="0 0 0 0 0 0 0 0 0 0 0 0 0 0 0 0 0 0 127 0"
                result="hardAlpha" />
            <feOffset />
            <feGaussianBlur stdDeviation="31.4486" />
            <feColorMatrix type="matrix" values="0 0 0 0 1 0 0 0 0 1 0 0 0 0 1 0 0 0 1 0" />
            <feBlend mode="normal" in2="effect2_dropShadow_2027_45060" result="effect3_dropShadow_2027_45060" />
            <feColorMatrix in="SourceAlpha" type="matrix" values="0 0 0 0 0 0 0 0 0 0 0 0 0 0 0 0 0 0 127 0"
                result="hardAlpha" />
            <feOffset />
            <feGaussianBlur stdDeviation="62.8972" />
            <feColorMatrix type="matrix" values="0 0 0 0 1 0 0 0 0 1 0 0 0 0 1 0 0 0 1 0" />
            <feBlend mode="normal" in2="effect3_dropShadow_2027_45060" result="effect4_dropShadow_2027_45060" />
            <feColorMatrix in="SourceAlpha" type="matrix" values="0 0 0 0 0 0 0 0 0 0 0 0 0 0 0 0 0 0 127 0"
                result="hardAlpha" />
            <feOffset />
            <feGaussianBlur stdDeviation="107.824" />
            <feColorMatrix type="matrix" values="0 0 0 0 1 0 0 0 0 1 0 0 0 0 1 0 0 0 1 0" />
            <feBlend mode="normal" in2="effect4_dropShadow_2027_45060" result="effect5_dropShadow_2027_45060" />
            <feColorMatrix in="SourceAlpha" type="matrix" values="0 0 0 0 0 0 0 0 0 0 0 0 0 0 0 0 0 0 127 0"
                result="hardAlpha" />
            <feOffset />
            <feGaussianBlur stdDeviation="188.691" />
            <feColorMatrix type="matrix" values="0 0 0 0 1 0 0 0 0 1 0 0 0 0 1 0 0 0 1 0" />
            <feBlend mode="normal" in2="effect5_dropShadow_2027_45060" result="effect6_dropShadow_2027_45060" />
            <feBlend mode="normal" in="SourceGraphic" in2="effect6_dropShadow_2027_45060" result="shape" />
        </filter>
        <clipPath id="clip0_2027_45060">
            <rect width="167" height="157" fill="white" />
        </clipPath>
    </defs>
</svg>