<svg width="903" height="831" viewBox="0 0 903 831" fill="none" xmlns="http://www.w3.org/2000/svg">
    <g filter="url(#filter0_dddddd_286_25137)">
        <path
            d="M378.951 377.725C378.399 377.752 377.974 378.221 378.001 378.773C378.028 379.324 378.498 379.749 379.049 379.722L378.951 377.725ZM524.767 445.641C525.121 445.217 525.065 444.586 524.642 444.232L517.738 438.458C517.314 438.104 516.684 438.16 516.329 438.584C515.975 439.007 516.031 439.638 516.455 439.992L522.591 445.125L517.459 451.261C517.105 451.685 517.161 452.316 517.584 452.67C518.008 453.024 518.639 452.968 518.993 452.544L524.767 445.641ZM379.049 379.722C379.923 379.679 380.784 379.643 381.632 379.614L381.564 377.616C380.705 377.645 379.834 377.681 378.951 377.725L379.049 379.722ZM386.579 379.522C388.312 379.518 389.99 379.545 391.615 379.602L391.685 377.604C390.034 377.546 388.331 377.518 386.574 377.522L386.579 379.522ZM396.542 379.877C398.249 380.009 399.892 380.177 401.474 380.379L401.727 378.395C400.111 378.189 398.435 378.018 396.697 377.883L396.542 379.877ZM406.411 381.153C408.098 381.469 409.708 381.828 411.246 382.226L411.748 380.29C410.163 379.88 408.509 379.512 406.78 379.187L406.411 381.153ZM415.97 383.643C417.581 384.198 419.104 384.801 420.549 385.448L421.366 383.622C419.866 382.951 418.287 382.326 416.621 381.752L415.97 383.643ZM424.933 387.672C426.396 388.509 427.769 389.397 429.064 390.328L430.232 388.705C428.881 387.733 427.45 386.808 425.926 385.936L424.933 387.672ZM432.897 393.399C434.14 394.504 435.307 395.653 436.413 396.84L437.876 395.476C436.731 394.247 435.519 393.053 434.225 391.904L432.897 393.399ZM439.63 400.585C440.663 401.883 441.647 403.213 442.599 404.565L444.235 403.413C443.265 402.036 442.257 400.674 441.196 399.34L439.63 400.585ZM445.389 408.697C446.301 410.095 447.195 411.503 448.092 412.916L449.78 411.844C448.884 410.433 447.984 409.015 447.065 407.605L445.389 408.697ZM450.806 417.156C451.723 418.564 452.66 419.966 453.632 421.349L455.268 420.199C454.314 418.841 453.391 417.46 452.482 416.064L450.806 417.156ZM456.666 425.422C457.715 426.742 458.817 428.034 459.988 429.289L461.45 427.924C460.319 426.713 459.252 425.461 458.232 424.177L456.666 425.422ZM463.652 432.861C464.91 433.972 466.245 435.039 467.672 436.053L468.831 434.423C467.464 433.452 466.184 432.429 464.976 431.362L463.652 432.861ZM472.001 438.793C473.443 439.602 474.968 440.361 476.585 441.064L477.383 439.23C475.827 438.553 474.362 437.824 472.98 437.049L472.001 438.793ZM481.367 442.883C482.926 443.398 484.562 443.867 486.28 444.286L486.754 442.343C485.085 441.936 483.501 441.482 481.994 440.984L481.367 442.883ZM491.226 445.311C492.827 445.588 494.491 445.826 496.224 446.023L496.45 444.036C494.754 443.843 493.128 443.61 491.567 443.34L491.226 445.311ZM501.285 446.468C502.934 446.573 504.639 446.644 506.404 446.679L506.444 444.68C504.707 444.644 503.031 444.575 501.412 444.472L501.285 446.468ZM511.379 446.688C513.027 446.661 514.724 446.607 516.47 446.523L516.374 444.525C514.648 444.608 512.973 444.662 511.347 444.688L511.379 446.688ZM521.482 446.21C522.34 446.145 523.209 446.074 524.089 445.995L523.911 444.003C523.04 444.081 522.179 444.152 521.331 444.216L521.482 446.21Z"
            fill="white" />
    </g>
    <defs>
        <filter id="filter0_dddddd_286_25137" x="0.617065" y="0.13855" width="901.766" height="830.148"
            filterUnits="userSpaceOnUse" color-interpolation-filters="sRGB">
            <feFlood flood-opacity="0" result="BackgroundImageFix" />
            <feColorMatrix in="SourceAlpha" type="matrix" values="0 0 0 0 0 0 0 0 0 0 0 0 0 0 0 0 0 0 127 0"
                result="hardAlpha" />
            <feOffset />
            <feGaussianBlur stdDeviation="4.49265" />
            <feColorMatrix type="matrix" values="0 0 0 0 1 0 0 0 0 1 0 0 0 0 1 0 0 0 1 0" />
            <feBlend mode="normal" in2="BackgroundImageFix" result="effect1_dropShadow_286_25137" />
            <feColorMatrix in="SourceAlpha" type="matrix" values="0 0 0 0 0 0 0 0 0 0 0 0 0 0 0 0 0 0 127 0"
                result="hardAlpha" />
            <feOffset />
            <feGaussianBlur stdDeviation="8.98531" />
            <feColorMatrix type="matrix" values="0 0 0 0 1 0 0 0 0 1 0 0 0 0 1 0 0 0 1 0" />
            <feBlend mode="normal" in2="effect1_dropShadow_286_25137" result="effect2_dropShadow_286_25137" />
            <feColorMatrix in="SourceAlpha" type="matrix" values="0 0 0 0 0 0 0 0 0 0 0 0 0 0 0 0 0 0 127 0"
                result="hardAlpha" />
            <feOffset />
            <feGaussianBlur stdDeviation="31.4486" />
            <feColorMatrix type="matrix" values="0 0 0 0 1 0 0 0 0 1 0 0 0 0 1 0 0 0 1 0" />
            <feBlend mode="normal" in2="effect2_dropShadow_286_25137" result="effect3_dropShadow_286_25137" />
            <feColorMatrix in="SourceAlpha" type="matrix" values="0 0 0 0 0 0 0 0 0 0 0 0 0 0 0 0 0 0 127 0"
                result="hardAlpha" />
            <feOffset />
            <feGaussianBlur stdDeviation="62.8972" />
            <feColorMatrix type="matrix" values="0 0 0 0 1 0 0 0 0 1 0 0 0 0 1 0 0 0 1 0" />
            <feBlend mode="normal" in2="effect3_dropShadow_286_25137" result="effect4_dropShadow_286_25137" />
            <feColorMatrix in="SourceAlpha" type="matrix" values="0 0 0 0 0 0 0 0 0 0 0 0 0 0 0 0 0 0 127 0"
                result="hardAlpha" />
            <feOffset />
            <feGaussianBlur stdDeviation="107.824" />
            <feColorMatrix type="matrix" values="0 0 0 0 1 0 0 0 0 1 0 0 0 0 1 0 0 0 1 0" />
            <feBlend mode="normal" in2="effect4_dropShadow_286_25137" result="effect5_dropShadow_286_25137" />
            <feColorMatrix in="SourceAlpha" type="matrix" values="0 0 0 0 0 0 0 0 0 0 0 0 0 0 0 0 0 0 127 0"
                result="hardAlpha" />
            <feOffset />
            <feGaussianBlur stdDeviation="188.691" />
            <feColorMatrix type="matrix" values="0 0 0 0 1 0 0 0 0 1 0 0 0 0 1 0 0 0 1 0" />
            <feBlend mode="normal" in2="effect5_dropShadow_286_25137" result="effect6_dropShadow_286_25137" />
            <feBlend mode="normal" in="SourceGraphic" in2="effect6_dropShadow_286_25137" result="shape" />
        </filter>
    </defs>
</svg>