<svg width="167" height="157" viewBox="0 0 167 157" fill="none" xmlns="http://www.w3.org/2000/svg">
    <g clip-path="url(#clip0_2027_45060)">
        <g filter="url(#filter0_dddddd_2027_45060)">
            <path
                d="M67.8178 20.5873C67.5424 20.5665 67.3023 20.7728 67.2815 21.0482C67.2606 21.3235 67.4669 21.5636 67.7423 21.5845L67.8178 20.5873ZM114.624 96.9371L114.218 96.6456L114.218 96.6456L114.624 96.9371ZM41.4888 130.897C41.2644 131.058 41.213 131.37 41.3739 131.595L43.9964 135.252C44.1574 135.476 44.4697 135.528 44.6941 135.367C44.9185 135.206 44.97 134.893 44.8091 134.669L42.4779 131.418L45.7284 129.087C45.9528 128.926 46.0043 128.614 45.8434 128.39C45.6824 128.165 45.37 128.114 45.1456 128.275L41.4888 130.897ZM41.699 131.797C42.483 131.926 43.268 132.041 44.0536 132.143L44.1818 131.151C43.4076 131.051 42.6341 130.937 41.8615 130.81L41.699 131.797ZM48.7923 132.587C50.3779 132.679 51.9647 132.715 53.5506 132.694L53.5375 131.694C51.9754 131.715 50.4124 131.679 48.8503 131.588L48.7923 132.587ZM58.3045 132.461C59.8826 132.327 61.4582 132.136 63.0293 131.889L62.8736 130.901C61.326 131.145 59.7742 131.333 58.2198 131.465L58.3045 132.461ZM67.701 130.98C69.2394 130.624 70.7718 130.212 72.2964 129.745L72.0031 128.789C70.5008 129.249 68.991 129.655 67.4754 130.006L67.701 130.98ZM76.7945 128.193C78.2648 127.628 79.7261 127.011 81.1767 126.339L80.7566 125.432C79.3262 126.094 77.8855 126.703 76.4362 127.259L76.7945 128.193ZM85.4273 124.2C86.8063 123.45 88.1739 122.649 89.5287 121.798L88.9966 120.951C87.6593 121.791 86.3097 122.582 84.9492 123.322L85.4273 124.2ZM93.4743 119.148C94.7492 118.236 96.0109 117.277 97.2582 116.271L96.6305 115.492C95.3979 116.486 94.1514 117.434 92.8923 118.335L93.4743 119.148ZM100.875 113.185C102.037 112.138 103.184 111.048 104.316 109.916L103.609 109.209C102.489 110.329 101.354 111.407 100.206 112.442L100.875 113.185ZM107.59 106.472C108.638 105.313 109.672 104.115 110.69 102.878L109.918 102.243C108.91 103.468 107.886 104.654 106.848 105.801L107.59 106.472ZM113.623 99.1459C114.096 98.5158 114.565 97.8768 115.03 97.2286L114.218 96.6456C113.757 97.2879 113.292 97.9212 112.823 98.5455L113.623 99.1459ZM115.03 97.2286C115.511 96.5589 115.965 95.8789 116.392 95.1895L115.542 94.6626C115.127 95.3329 114.685 95.9941 114.218 96.6456L115.03 97.2286ZM118.677 90.8681C119.343 89.3674 119.899 87.8341 120.349 86.2757L119.388 85.9982C118.95 87.5137 118.41 89.0041 117.763 90.4625L118.677 90.8681ZM121.39 81.5015C121.633 79.8946 121.772 78.2702 121.814 76.6357L120.815 76.6101C120.774 78.2046 120.637 79.7877 120.402 81.3525L121.39 81.5015ZM121.654 71.7603C121.51 70.1518 121.276 68.5408 120.957 66.9341L119.976 67.129C120.288 68.702 120.517 70.2778 120.658 71.8498L121.654 71.7603ZM119.769 62.2089C119.301 60.6671 118.756 59.1357 118.139 57.6207L117.213 57.9982C117.819 59.4854 118.353 60.9879 118.813 62.4995L119.769 62.2089ZM116.105 53.1989C115.369 51.765 114.568 50.3523 113.704 48.9665L112.856 49.4953C113.705 50.858 114.492 52.2466 115.215 53.6555L116.105 53.1989ZM110.968 44.9463C110.008 43.6496 108.991 42.3838 107.92 41.1542L107.166 41.8108C108.219 43.0207 109.22 44.266 110.165 45.5416L110.968 44.9463ZM104.588 37.6152C103.436 36.4832 102.235 35.391 100.989 34.3439L100.345 35.1096C101.572 36.1399 102.754 37.2146 103.887 38.3285L104.588 37.6152ZM97.1455 31.3652C95.8307 30.4266 94.474 29.5364 93.0781 28.6995L92.5638 29.5572C93.9366 30.3802 95.2711 31.2558 96.5645 32.1791L97.1455 31.3652ZM88.8063 26.3685C87.3592 25.6539 85.8767 24.9955 84.3614 24.3979L83.9945 25.3281C85.4837 25.9155 86.9409 26.5626 88.3636 27.2652L88.8063 26.3685ZM79.7638 22.8051C78.2188 22.3422 76.6448 21.942 75.0443 21.6088L74.8405 22.5878C76.4126 22.9151 77.9589 23.3082 79.4768 23.763L79.7638 22.8051ZM70.2464 20.8242C69.4424 20.7282 68.6328 20.649 67.8178 20.5873L67.7423 21.5845C68.5429 21.6451 69.3381 21.7228 70.1277 21.8171L70.2464 20.8242Z"
                fill="white" />
        </g>
    </g>
    <defs>
        <filter id="filter0_dddddd_2027_45060" x="-336.103" y="-356.797" width="835.3" height="869.64"
            filterUnits="userSpaceOnUse" color-interpolation-filters="sRGB">
            <feFlood flood-opacity="0" result="BackgroundImageFix" />
            <feColorMatrix in="SourceAlpha" type="matrix" values="0 0 0 0 0 0 0 0 0 0 0 0 0 0 0 0 0 0 127 0"
                result="hardAlpha" />
            <feOffset />
            <feGaussianBlur stdDeviation="4.49265" />
            <feColorMatrix type="matrix" values="0 0 0 0 1 0 0 0 0 1 0 0 0 0 1 0 0 0 1 0" />
            <feBlend mode="normal" in2="BackgroundImageFix" result="effect1_dropShadow_2027_45060" />
            <feColorMatrix in="SourceAlpha" type="matrix" values="0 0 0 0 0 0 0 0 0 0 0 0 0 0 0 0 0 0 127 0"
                result="hardAlpha" />
            <feOffset />
            <feGaussianBlur stdDeviation="8.98531" />
            <feColorMatrix type="matrix" values="0 0 0 0 1 0 0 0 0 1 0 0 0 0 1 0 0 0 1 0" />
            <feBlend mode="normal" in2="effect1_dropShadow_2027_45060" result="effect2_dropShadow_2027_45060" />
            <feColorMatrix in="SourceAlpha" type="matrix" values="0 0 0 0 0 0 0 0 0 0 0 0 0 0 0 0 0 0 127 0"
                result="hardAlpha" />
            <feOffset />
            <feGaussianBlur stdDeviation="31.4486" />
            <feColorMatrix type="matrix" values="0 0 0 0 1 0 0 0 0 1 0 0 0 0 1 0 0 0 1 0" />
            <feBlend mode="normal" in2="effect2_dropShadow_2027_45060" result="effect3_dropShadow_2027_45060" />
            <feColorMatrix in="SourceAlpha" type="matrix" values="0 0 0 0 0 0 0 0 0 0 0 0 0 0 0 0 0 0 127 0"
                result="hardAlpha" />
            <feOffset />
            <feGaussianBlur stdDeviation="62.8972" />
            <feColorMatrix type="matrix" values="0 0 0 0 1 0 0 0 0 1 0 0 0 0 1 0 0 0 1 0" />
            <feBlend mode="normal" in2="effect3_dropShadow_2027_45060" result="effect4_dropShadow_2027_45060" />
            <feColorMatrix in="SourceAlpha" type="matrix" values="0 0 0 0 0 0 0 0 0 0 0 0 0 0 0 0 0 0 127 0"
                result="hardAlpha" />
            <feOffset />
            <feGaussianBlur stdDeviation="107.824" />
            <feColorMatrix type="matrix" values="0 0 0 0 1 0 0 0 0 1 0 0 0 0 1 0 0 0 1 0" />
            <feBlend mode="normal" in2="effect4_dropShadow_2027_45060" result="effect5_dropShadow_2027_45060" />
            <feColorMatrix in="SourceAlpha" type="matrix" values="0 0 0 0 0 0 0 0 0 0 0 0 0 0 0 0 0 0 127 0"
                result="hardAlpha" />
            <feOffset />
            <feGaussianBlur stdDeviation="188.691" />
            <feColorMatrix type="matrix" values="0 0 0 0 1 0 0 0 0 1 0 0 0 0 1 0 0 0 1 0" />
            <feBlend mode="normal" in2="effect5_dropShadow_2027_45060" result="effect6_dropShadow_2027_45060" />
            <feBlend mode="normal" in="SourceGraphic" in2="effect6_dropShadow_2027_45060" result="shape" />
        </filter>
        <clipPath id="clip0_2027_45060">
            <rect width="167" height="157" fill="white" />
        </clipPath>
    </defs>
</svg>