<svg width="916" height="898" viewBox="0 0 916 898" fill="none" xmlns="http://www.w3.org/2000/svg">
    <g filter="url(#filter0_dddddd_286_25136)">
        <path
            d="M379.48 474.299C379.369 473.758 378.841 473.409 378.3 473.52C377.759 473.63 377.41 474.159 377.52 474.7L379.48 474.299ZM439.5 485.999L439.137 486.931L439.5 485.999ZM479.5 504.499L480.125 505.28L479.5 504.499ZM532.276 378.369C531.927 377.94 531.297 377.875 530.869 378.224L523.887 383.903C523.458 384.251 523.393 384.881 523.742 385.309C524.09 385.738 524.72 385.803 525.149 385.454L531.355 380.406L536.403 386.613C536.751 387.041 537.381 387.106 537.81 386.758C538.238 386.409 538.303 385.779 537.955 385.351L532.276 378.369ZM377.52 474.7C377.702 475.589 377.893 476.455 378.093 477.298L380.039 476.836C379.844 476.014 379.658 475.169 379.48 474.299L377.52 474.7ZM379.51 482.444C380.078 484.236 380.694 485.906 381.353 487.465L383.195 486.686C382.561 485.188 381.967 483.576 381.416 481.84L379.51 482.444ZM383.719 492.286C384.654 493.933 385.65 495.424 386.697 496.78L388.28 495.557C387.292 494.279 386.348 492.866 385.458 491.298L383.719 492.286ZM390.329 500.786C391.688 502.062 393.103 503.176 394.557 504.16L395.679 502.504C394.306 501.575 392.975 500.527 391.698 499.327L390.329 500.786ZM399.217 506.861C400.834 507.664 402.474 508.362 404.119 508.997L404.839 507.131C403.237 506.512 401.655 505.839 400.107 505.07L399.217 506.861ZM409.109 510.779C409.943 511.06 410.779 511.339 411.603 511.615L412.24 509.72C411.408 509.44 410.582 509.165 409.749 508.884L409.109 510.779ZM411.603 511.615C412.362 511.87 413.189 512.054 414.064 512.175L414.339 510.194C413.562 510.087 412.86 509.928 412.24 509.72L411.603 511.615ZM418.97 512.295C420.501 512.193 422.114 511.979 423.763 511.667L423.392 509.702C421.81 510.001 420.278 510.204 418.837 510.3L418.97 512.295ZM428.431 510.558C429.958 510.123 431.486 509.619 432.982 509.056L432.278 507.185C430.833 507.728 429.358 508.215 427.884 508.635L428.431 510.558ZM437.396 507.175C438.887 506.459 440.308 505.686 441.619 504.867L440.56 503.171C439.318 503.946 437.962 504.684 436.53 505.372L437.396 507.175ZM445.548 501.965C446.907 500.752 448.021 499.45 448.751 498.085L446.987 497.142C446.401 498.239 445.461 499.361 444.216 500.474L445.548 501.965ZM449.427 492.788C448.969 491.278 447.933 489.87 446.33 488.579L445.076 490.136C446.46 491.251 447.203 492.344 447.514 493.369L449.427 492.788ZM442.103 486.025C441.409 485.698 440.663 485.379 439.863 485.067L439.137 486.931C439.899 487.228 440.603 487.529 441.252 487.835L442.103 486.025ZM439.863 485.067C438.965 484.717 438.098 484.464 437.265 484.303L436.885 486.266C437.589 486.402 438.339 486.62 439.137 486.931L439.863 485.067ZM431.738 484.737C429.966 485.469 428.575 486.771 427.561 488.41L429.263 489.462C430.093 488.119 431.179 487.131 432.502 486.585L431.738 484.737ZM425.724 493.471C425.432 495.134 425.358 496.92 425.501 498.747L427.495 498.591C427.364 496.916 427.433 495.299 427.694 493.817L425.724 493.471ZM426.466 503.903C426.958 505.553 427.626 507.185 428.477 508.742L430.232 507.783C429.452 506.355 428.836 504.853 428.383 503.332L426.466 503.903ZM431.501 513.041C432.657 514.333 433.985 515.504 435.486 516.501L436.593 514.835C435.241 513.938 434.041 512.88 432.991 511.707L431.501 513.041ZM440.235 518.825C441.822 519.359 443.534 519.722 445.372 519.884L445.547 517.892C443.863 517.744 442.307 517.412 440.874 516.929L440.235 518.825ZM450.589 519.815C452.207 519.64 453.901 519.325 455.672 518.855L455.158 516.922C453.48 517.368 451.885 517.663 450.375 517.826L450.589 519.815ZM460.576 517.224C462.088 516.624 463.648 515.918 465.257 515.101L464.351 513.318C462.793 514.109 461.289 514.789 459.838 515.365L460.576 517.224ZM469.715 512.619C471.1 511.781 472.52 510.865 473.972 509.865L472.838 508.217C471.416 509.196 470.03 510.091 468.68 510.907L469.715 512.619ZM478.065 506.891C478.745 506.371 479.431 505.835 480.125 505.28L478.875 503.718C478.193 504.264 477.519 504.791 476.851 505.301L478.065 506.891ZM480.125 505.28C480.78 504.756 481.427 504.223 482.065 503.68L480.771 502.156C480.147 502.686 479.515 503.207 478.875 503.718L480.125 505.28ZM485.803 500.319C487.016 499.166 488.197 497.979 489.349 496.76L487.895 495.387C486.768 496.58 485.611 497.742 484.425 498.87L485.803 500.319ZM492.704 493.025C493.789 491.755 494.845 490.457 495.872 489.132L494.292 487.906C493.283 489.206 492.247 490.48 491.184 491.725L492.704 493.025ZM498.858 485.103C499.821 483.742 500.757 482.358 501.668 480.953L499.989 479.866C499.093 481.248 498.172 482.61 497.225 483.947L498.858 485.103ZM504.309 476.698C505.161 475.266 505.988 473.816 506.791 472.349L505.037 471.389C504.245 472.835 503.43 474.264 502.591 475.675L504.309 476.698ZM509.121 467.92C509.872 466.433 510.601 464.933 511.307 463.42L509.494 462.574C508.797 464.068 508.078 465.55 507.336 467.018L509.121 467.92ZM513.356 458.859C514.017 457.329 514.656 455.789 515.275 454.243L513.418 453.5C512.806 455.03 512.173 456.553 511.52 458.066L513.356 458.859ZM517.072 449.58C517.652 448.016 518.212 446.447 518.753 444.876L516.861 444.225C516.326 445.782 515.771 447.336 515.197 448.884L517.072 449.58ZM520.323 440.135C520.831 438.544 521.319 436.953 521.789 435.363L519.872 434.796C519.405 436.373 518.921 437.95 518.418 439.527L520.323 440.135ZM523.156 430.564C523.598 428.95 524.022 427.341 524.429 425.738L522.49 425.247C522.087 426.837 521.666 428.434 521.227 430.035L523.156 430.564ZM525.612 420.888C525.995 419.254 526.36 417.63 526.708 416.018L524.754 415.596C524.407 417.197 524.045 418.809 523.664 420.432L525.612 420.888ZM527.722 411.133C528.051 409.482 528.362 407.848 528.657 406.234L526.689 405.875C526.396 407.479 526.087 409.103 525.761 410.742L527.722 411.133ZM529.514 401.326C529.792 399.659 530.053 398.016 530.299 396.402L528.321 396.102C528.078 397.707 527.818 399.339 527.541 400.997L529.514 401.326ZM531.013 391.459C531.244 389.773 531.458 388.125 531.656 386.52L529.671 386.275C529.474 387.872 529.262 389.51 529.032 391.187L531.013 391.459ZM532.233 381.566C532.325 380.73 532.412 379.908 532.495 379.102L530.505 378.897C530.423 379.699 530.336 380.516 530.245 381.348L532.233 381.566Z"
            fill="white" />
    </g>
    <defs>
        <filter id="filter0_dddddd_286_25136" x="0.116821" y="0.617065" width="915.445" height="896.651"
            filterUnits="userSpaceOnUse" color-interpolation-filters="sRGB">
            <feFlood flood-opacity="0" result="BackgroundImageFix" />
            <feColorMatrix in="SourceAlpha" type="matrix" values="0 0 0 0 0 0 0 0 0 0 0 0 0 0 0 0 0 0 127 0"
                result="hardAlpha" />
            <feOffset />
            <feGaussianBlur stdDeviation="4.49265" />
            <feColorMatrix type="matrix" values="0 0 0 0 1 0 0 0 0 1 0 0 0 0 1 0 0 0 1 0" />
            <feBlend mode="normal" in2="BackgroundImageFix" result="effect1_dropShadow_286_25136" />
            <feColorMatrix in="SourceAlpha" type="matrix" values="0 0 0 0 0 0 0 0 0 0 0 0 0 0 0 0 0 0 127 0"
                result="hardAlpha" />
            <feOffset />
            <feGaussianBlur stdDeviation="8.98531" />
            <feColorMatrix type="matrix" values="0 0 0 0 1 0 0 0 0 1 0 0 0 0 1 0 0 0 1 0" />
            <feBlend mode="normal" in2="effect1_dropShadow_286_25136" result="effect2_dropShadow_286_25136" />
            <feColorMatrix in="SourceAlpha" type="matrix" values="0 0 0 0 0 0 0 0 0 0 0 0 0 0 0 0 0 0 127 0"
                result="hardAlpha" />
            <feOffset />
            <feGaussianBlur stdDeviation="31.4486" />
            <feColorMatrix type="matrix" values="0 0 0 0 1 0 0 0 0 1 0 0 0 0 1 0 0 0 1 0" />
            <feBlend mode="normal" in2="effect2_dropShadow_286_25136" result="effect3_dropShadow_286_25136" />
            <feColorMatrix in="SourceAlpha" type="matrix" values="0 0 0 0 0 0 0 0 0 0 0 0 0 0 0 0 0 0 127 0"
                result="hardAlpha" />
            <feOffset />
            <feGaussianBlur stdDeviation="62.8972" />
            <feColorMatrix type="matrix" values="0 0 0 0 1 0 0 0 0 1 0 0 0 0 1 0 0 0 1 0" />
            <feBlend mode="normal" in2="effect3_dropShadow_286_25136" result="effect4_dropShadow_286_25136" />
            <feColorMatrix in="SourceAlpha" type="matrix" values="0 0 0 0 0 0 0 0 0 0 0 0 0 0 0 0 0 0 127 0"
                result="hardAlpha" />
            <feOffset />
            <feGaussianBlur stdDeviation="107.824" />
            <feColorMatrix type="matrix" values="0 0 0 0 1 0 0 0 0 1 0 0 0 0 1 0 0 0 1 0" />
            <feBlend mode="normal" in2="effect4_dropShadow_286_25136" result="effect5_dropShadow_286_25136" />
            <feColorMatrix in="SourceAlpha" type="matrix" values="0 0 0 0 0 0 0 0 0 0 0 0 0 0 0 0 0 0 127 0"
                result="hardAlpha" />
            <feOffset />
            <feGaussianBlur stdDeviation="188.691" />
            <feColorMatrix type="matrix" values="0 0 0 0 1 0 0 0 0 1 0 0 0 0 1 0 0 0 1 0" />
            <feBlend mode="normal" in2="effect5_dropShadow_286_25136" result="effect6_dropShadow_286_25136" />
            <feBlend mode="normal" in="SourceGraphic" in2="effect6_dropShadow_286_25136" result="shape" />
        </filter>
    </defs>
</svg>