<svg id="Layer_1" data-name="Layer 1" xmlns="http://www.w3.org/2000/svg" viewBox="0 0 40 40"><defs><style>.cls-1{fill-rule:evenodd;}</style></defs><g id="Vkontakte_VK_" data-name="Vkontakte (VK)"><g id="Vkontakte_VK__2" data-name="Vkontakte (VK)_2"><path id="Subtract" class="cls-1" d="M20,0A20,20,0,1,0,40,20,20,20,0,0,0,20,0ZM31.84,12.71c.88,0,1.07.45.88,1.07h0c-.37,1.7-3.92,6.71-3.92,6.71-.31.49-.44.74,0,1.29a7,7,0,0,0,.85.9c.38.37.81.8,1.16,1.21a12.74,12.74,0,0,1,2.46,3.41c.24.83-.18,1.24-1,1.24H29.34c-.78,0-1.18-.43-2-1.38-.36-.4-.8-.89-1.39-1.48C24.19,24,23.45,23.79,23,23.79c-.59,0-.77.17-.77,1v2.62c0,.72-.23,1.13-2.08,1.13-3.09,0-6.49-1.87-8.9-5.33-3.61-5.07-4.6-8.91-4.6-9.68,0-.43.16-.82,1-.82h2.91c.75,0,1,.32,1.31,1.13,1.43,4.16,3.83,7.79,4.82,7.79.37,0,.54-.17.54-1.11v-4.3a3.2,3.2,0,0,0-.81-2.14,1.14,1.14,0,0,1-.35-.7.7.7,0,0,1,.75-.67h4.58c.62,0,.83.33.83,1.07v5.78c0,.62.27.83.46.83.37,0,.68-.21,1.36-.89a24.37,24.37,0,0,0,3.58-6,1.27,1.27,0,0,1,1.27-.82Z"/></g></g></svg>