<svg width="100" height="100" viewBox="0 0 100 100" fill="none" xmlns="http://www.w3.org/2000/svg">
<path d="M70.7774 44.575L68.0279 45.0718C67.5721 45.1537 67.2689 45.5914 67.3511 46.0491C67.4328 46.5066 67.87 46.8106 68.3254 46.7281L71.0744 46.2318C71.7288 46.1133 72.1326 46.506 72.2928 46.9128C72.4531 47.3191 72.4255 47.8823 71.8679 48.2451L67.8323 50.8692C67.4581 51.1129 67.0014 51.1302 66.6099 50.917C66.2186 50.7032 65.9847 50.3088 65.9847 49.8616L65.9837 43.4035C65.9832 42.3294 65.4218 41.3824 64.4812 40.8702C63.541 40.3572 62.4435 40.3998 61.5454 40.9836L51.3971 47.5829C50.2553 48.3256 49.8242 49.6775 50.3247 50.947C50.825 52.2169 52.0612 52.9071 53.4002 52.6659L62.2627 51.0655C62.7186 50.9835 63.0221 50.5459 62.9395 50.088C62.8576 49.6306 62.4211 49.326 61.9656 49.4085L53.1031 51.0087C52.4479 51.1268 52.0448 50.7342 51.8846 50.328C51.7244 49.9216 51.752 49.3584 52.3096 48.9953L62.4584 42.3963C62.8316 42.1533 63.2887 42.1353 63.6806 42.349C64.0716 42.5622 64.3055 42.9568 64.3055 43.4039L64.3069 49.8621C64.3069 50.9362 64.8682 51.8832 65.8089 52.3959C66.2456 52.6339 66.7164 52.7524 67.1853 52.7524C67.7256 52.7524 68.2636 52.595 68.7451 52.282L72.7804 49.6579C73.9224 48.9151 74.3538 47.5633 73.8528 46.2938C73.3526 45.0239 72.1154 44.3341 70.7774 44.575ZM84.7805 38.7573C84.1024 37.9569 83.3312 37.2357 82.4985 36.5971C80.8303 35.3173 78.923 34.3749 76.9455 33.6791C74.9625 32.9865 72.9024 32.539 70.8297 32.2377C68.755 31.9373 66.6628 31.7845 64.5709 31.7204C60.377 31.5658 56.1568 32.1182 52.1207 33.277C48.0733 34.4232 44.2361 36.1871 40.533 38.1253C38.6755 39.0868 36.8537 40.1074 34.9889 41.0207C34.0562 41.4753 33.1132 41.9054 32.1474 42.2606C31.1833 42.6181 30.1923 42.8975 29.1867 43.0183C28.184 43.1401 27.1612 43.0811 26.2084 42.7821C25.7382 42.6355 25.2949 42.4147 24.9455 42.0989C24.5976 41.7836 24.3552 41.3707 24.2837 40.9106C24.2026 40.4532 24.28 39.964 24.4472 39.5067C24.6107 39.0445 24.8703 38.6117 25.1689 38.2077C25.7723 37.4007 26.5415 36.7091 27.3737 36.1125C29.0499 34.9237 30.9686 34.0817 32.9447 33.4733C34.9248 32.8619 36.9756 32.48 39.0418 32.2645C41.1084 32.0424 43.1938 31.9861 45.2754 32.0507C47.3574 32.1248 49.4362 32.3173 51.5034 32.6013L49.5347 32.1894C48.8758 32.0667 48.2182 31.9313 47.5568 31.8188C46.2332 31.5986 44.906 31.3928 43.5717 31.2382C40.9053 30.9112 38.2171 30.727 35.5209 30.7331C32.8261 30.7518 30.1238 30.9646 27.4575 31.4609C24.7968 31.9664 22.1641 32.7682 19.7289 34.0465C18.5159 34.6876 17.3461 35.4387 16.3055 36.3657C15.7811 36.8221 15.2898 37.3221 14.8432 37.8643C14.3939 38.4032 13.9839 38.9819 13.6453 39.607C12.9611 40.8478 12.5239 42.2649 12.5151 43.7236C12.4988 45.1782 12.9271 46.6454 13.7229 47.8618C14.514 49.0868 15.634 50.0502 16.8614 50.7573C18.0928 51.4644 19.4464 51.919 20.804 52.1918C23.4807 52.7415 26.2632 52.9228 28.9968 52.5728C31.7318 52.2335 34.3828 51.3858 36.8519 50.2288C39.3282 49.0747 41.6404 47.6426 43.8808 46.1496C46.1235 44.6561 48.313 43.1118 50.5572 41.6684C52.8022 40.2293 55.0953 38.875 57.5024 37.7579C59.9067 36.6385 62.4208 35.7645 65.0055 35.175C67.5886 34.584 70.2484 34.3039 72.9012 34.2843C75.531 34.2917 78.1562 35.0128 80.5297 36.2022C81.7174 36.7996 82.8462 37.5232 83.8728 38.3756C84.7574 39.1084 85.5715 39.9425 86.2239 40.8975C86.3251 41.0521 86.4293 41.2049 86.5247 41.3637C86.0426 40.4355 85.4575 39.5587 84.7807 38.7574L84.7805 38.7573ZM38.1982 32.0043C38.7895 31.9537 39.3817 31.9172 39.9739 31.8909C39.6531 31.9102 39.3321 31.9261 39.0113 31.9528C36.9255 32.1411 34.8482 32.4963 32.8297 33.0882C30.8148 33.6791 28.8458 34.5053 27.0926 35.7114C26.2239 36.3205 25.4 37.0226 24.748 37.8913C24.4244 38.3258 24.1363 38.7976 23.9466 39.3224C23.7551 39.8421 23.6528 40.4232 23.7509 41.0005C23.8368 41.5802 24.1516 42.12 24.5766 42.5052C25.0039 42.8936 25.5177 43.1462 26.0398 43.3131C27.0804 43.6448 28.1864 43.71 29.2521 43.5853C30.3208 43.4616 31.3538 43.1729 32.3467 42.8098C33.342 42.4485 34.3032 42.0151 35.2484 41.5591C37.1362 40.6402 38.9707 39.6398 40.8164 38.6716C44.4976 36.7251 48.2839 34.9659 52.2748 33.8165C56.2563 32.6506 60.4097 32.1089 64.5597 32.1894C64.621 32.1904 64.6822 32.1923 64.7433 32.1936C64.6079 32.1946 64.4719 32.1942 64.3364 32.1969L62.6542 32.2813C58.1665 32.5882 53.7623 33.7822 49.6369 35.5464C47.5726 36.4297 45.5709 37.4471 43.6061 38.5173C41.6402 39.5858 39.7133 40.7142 37.7611 41.7727C36.7873 42.307 35.806 42.8214 34.8061 43.2882C33.811 43.7657 32.7872 44.1697 31.7466 44.5037C30.7075 44.8444 29.6352 45.0595 28.5576 45.147C28.0182 45.2067 27.4778 45.1828 26.9383 45.1706L26.1331 45.0853C25.8641 45.0623 25.6036 44.9859 25.3379 44.9396C24.2814 44.7498 23.28 44.3074 22.5716 43.5726C22.2306 43.1996 21.9645 42.7595 21.8393 42.2714C21.701 41.7872 21.7005 41.2661 21.7869 40.7582C21.9728 39.7353 22.5282 38.7822 23.2175 37.9606C23.9087 37.1336 24.7485 36.4223 25.6535 35.8103C27.4708 34.5848 29.5388 33.7386 31.6615 33.1383C33.7893 32.5376 35.9881 32.1884 38.1982 32.0043H38.1982ZM34.411 32.0531C33.4438 32.2138 32.4831 32.4138 31.5326 32.665C29.3633 33.2419 27.234 34.0698 25.3248 35.3126C24.3735 35.934 23.4795 36.6636 22.7234 37.5389C21.9766 38.4133 21.3541 39.4518 21.1285 40.6383C21.0239 41.2287 21.0197 41.8538 21.185 42.449C21.3358 43.0474 21.6609 43.5942 22.0705 44.0441C22.9154 44.9311 24.0648 45.419 25.188 45.6298C25.4706 45.6819 25.7485 45.7624 26.0347 45.7896L26.8918 45.8848C27.4653 45.9022 28.0411 45.9289 28.6118 45.8697C29.7542 45.7831 30.8845 45.5605 31.9656 45.2128C33.0487 44.8713 34.106 44.4593 35.1243 43.9775C36.148 43.5061 37.1471 42.9912 38.1302 42.4546C40.0941 41.3763 42.0117 40.2392 43.9602 39.1675C45.9072 38.0934 47.8814 37.0775 49.9139 36.1951C51.9465 35.3164 54.0369 34.575 56.1765 34.0161C58.315 33.4598 60.4979 33.0732 62.7014 32.874C63.6734 32.7963 64.6499 32.7508 65.6278 32.7367C63.9825 32.8238 62.3409 33.0146 60.7194 33.3211C55.9835 34.1823 51.5112 36.1149 47.3359 38.4231C45.2402 39.5736 43.2067 40.8215 41.1686 42.0375C39.1305 43.253 37.082 44.4414 34.9406 45.3954C34.6749 45.5206 34.4069 45.6373 34.1354 45.7441C33.8646 45.8533 33.5955 45.9686 33.3233 46.073C32.7726 46.2609 32.2281 46.4738 31.6658 46.6185C31.1104 46.7943 30.5421 46.9053 29.976 47.0281C29.6926 47.0871 29.4043 47.1133 29.1185 47.1584L28.6893 47.2192C28.5454 47.2351 28.4011 47.2388 28.2573 47.2497L27.3929 47.3016L26.5269 47.2848C26.2379 47.289 25.9506 47.2576 25.6634 47.2252C25.3765 47.1924 25.0876 47.1747 24.8027 47.1292C24.2384 47.013 23.6527 46.938 23.1138 46.7777C22.5702 46.6179 22.0443 46.4085 21.5577 46.1373C21.0715 45.8655 20.624 45.5322 20.2495 45.1344C19.8773 44.7347 19.5802 44.2718 19.3822 43.7685C18.9801 42.7591 19.0268 41.6025 19.3874 40.5486C19.7499 39.4878 20.4047 38.5248 21.1869 37.6884C21.9659 36.8444 22.8845 36.1199 23.8682 35.4996C25.8395 34.2535 28.0635 33.4134 30.338 32.8243C31.676 32.4809 33.0379 32.2324 34.411 32.053V32.0531ZM28.9877 32.5301C29.2567 32.4681 29.5272 32.4105 29.7975 32.3549C27.6058 32.9107 25.4528 33.7006 23.4925 34.89C22.4552 35.5188 21.4736 36.262 20.6207 37.1523C19.7721 38.0403 19.0482 39.0872 18.6288 40.2849C18.2117 41.4728 18.1357 42.8463 18.6138 44.068C18.8479 44.6752 19.2028 45.2329 19.6394 45.7067C20.0784 46.1785 20.595 46.5656 21.1437 46.8768C21.6943 47.1879 22.2782 47.4232 22.8736 47.6022C23.4746 47.7835 24.0711 47.8628 24.6703 47.9888C24.9717 48.0379 25.2766 48.06 25.5793 48.0961C25.8829 48.1318 26.1864 48.1659 26.4922 48.164L27.4077 48.187L28.3227 48.1379C28.4749 48.1275 28.6275 48.1241 28.7794 48.1079L29.2329 48.0469C29.5342 48.002 29.8391 47.9748 30.1376 47.9144C30.734 47.7898 31.3332 47.6754 31.9137 47.4959C32.5041 47.3469 33.0701 47.1309 33.6446 46.9374C33.928 46.831 34.2059 46.7133 34.4871 46.6018C34.7687 46.4917 35.0475 46.3759 35.3189 46.2452C37.5181 45.2499 39.5849 44.032 41.623 42.8005C43.6616 41.5677 45.6768 40.3147 47.7439 39.1642C49.8092 38.011 51.9229 36.9534 54.1101 36.0771C56.2977 35.2051 58.5507 34.4988 60.8566 34.0209C62.9376 33.5893 65.059 33.3489 67.1867 33.2842L66.339 33.3419C63.8002 33.5874 61.283 34.0977 58.8459 34.8668C56.4065 35.6324 54.0523 36.6521 51.7946 37.8353C49.5332 39.0143 47.3586 40.3394 45.2174 41.6914C43.0736 43.0397 40.963 44.4239 38.7815 45.6563C38.2304 45.9515 37.6896 46.2697 37.1287 46.5415L36.2936 46.9623L35.445 47.3489L35.0205 47.5424L34.5884 47.7144L33.7253 48.0588L32.8464 48.3554L32.4074 48.5034L31.9614 48.6244L31.0694 48.8676L30.1646 49.0518L29.7125 49.1435C29.5607 49.168 29.408 49.1839 29.2558 49.2039L28.3414 49.3216C27.1173 49.4079 25.8838 49.4416 24.6596 49.2963C24.3538 49.2625 24.0464 49.2397 23.7415 49.1965L22.8312 49.0325C22.2161 48.9355 21.6351 48.7898 21.0625 48.6018C19.9263 48.2166 18.8642 47.6248 18.032 46.8029C17.1993 45.9852 16.6313 44.9191 16.4633 43.7706C16.2857 42.6221 16.5131 41.4215 17.0012 40.3357C17.4968 39.2486 18.2379 38.2665 19.109 37.4136C19.9795 36.5584 20.9753 35.8184 22.0415 35.1948C24.1777 33.9422 26.554 33.0959 28.9877 32.5303L28.9877 32.5301ZM64.8395 34.3965C62.1797 34.9275 59.5904 35.7953 57.1118 36.8923C54.6342 37.9954 52.2654 39.3233 49.9848 40.7624C47.7006 42.1978 45.4877 43.7245 43.2487 45.1813C41.0079 46.6326 38.7404 48.0286 36.3478 49.1335C33.9598 50.2417 31.4378 51.0346 28.8461 51.3476C26.2559 51.6611 23.6177 51.5154 21.0462 50.993C19.7781 50.7437 18.5564 50.3331 17.457 49.7079C16.3637 49.0833 15.3927 48.2469 14.7179 47.2103C14.042 46.1785 13.6633 44.963 13.6642 43.7259C13.6572 42.4878 14.0163 41.2516 14.6132 40.1373C14.9084 39.5769 15.2727 39.0497 15.6767 38.5534C16.0783 38.0544 16.5258 37.5885 17.0082 37.1588C17.9666 36.2905 19.051 35.5534 20.1967 34.9227C21.6828 34.105 23.2712 33.4719 24.9081 32.9775C23.7822 33.3889 22.6817 33.8787 21.6262 34.4691C20.4993 35.0998 19.4312 35.858 18.4784 36.7573C17.5303 37.6599 16.7078 38.724 16.1381 39.9391C15.5772 41.1519 15.289 42.5417 15.4857 43.9109C15.6693 45.2792 16.3431 46.5683 17.3061 47.5308C18.2674 48.5041 19.4774 49.1649 20.7272 49.5956C21.3541 49.805 22.0013 49.9676 22.6347 50.0697L23.5893 50.2446C23.9091 50.2909 24.2323 50.3167 24.5541 50.3532C25.8418 50.5093 27.1458 50.4808 28.4395 50.3922L29.4053 50.2717C29.5664 50.2507 29.7275 50.2339 29.8882 50.209L30.3645 50.1143L31.3183 49.9231L32.2556 49.6701L32.7236 49.5407L33.1822 49.3846L34.099 49.0721L34.9949 48.7113L35.4431 48.5304L35.8808 48.3294L36.7565 47.9273L37.613 47.4915C38.1898 47.2094 38.7386 46.8842 39.3009 46.58C41.5179 45.3135 43.642 43.9246 45.7656 42.5576C47.8873 41.1884 50.0231 39.8579 52.2354 38.6761C54.4479 37.4981 56.7312 36.4582 59.1014 35.6584C61.4707 34.8594 63.9236 34.3117 66.4111 34.0215L68.282 33.8571C68.3988 33.8495 68.5159 33.8473 68.6327 33.842C67.361 33.9605 66.0948 34.1429 64.8395 34.3963V34.3965ZM81.8971 44.5731L79.1476 45.0697C78.6917 45.1518 78.3887 45.5895 78.4709 46.0468C78.5526 46.5046 78.9888 46.8088 79.4446 46.7263L82.1941 46.23C82.8485 46.1115 83.2523 46.5041 83.4126 46.9109C83.5728 47.3173 83.5458 47.8805 82.9876 48.2432L78.9524 50.8673C78.5779 51.111 78.1211 51.1283 77.7302 50.9151C77.3383 50.7014 77.1044 50.3069 77.1044 49.8598L77.103 41.358C77.103 40.8931 76.7275 40.5159 76.2642 40.5159C75.8004 40.5164 75.4254 40.8931 75.4254 41.358L75.4268 49.8603C75.4268 50.9344 75.9881 51.8814 76.9287 52.3941C77.3655 52.6321 77.8362 52.7506 78.305 52.7506C78.8454 52.7506 79.384 52.5932 79.8646 52.2802L83.9007 49.6561C85.0422 48.9133 85.4733 47.5615 84.9731 46.292C84.4724 45.0221 83.2362 44.3314 81.8972 44.5732L81.8971 44.5731Z" fill="white"/>
<path d="M31.363 62.1582L29.1428 62.1586L29.1424 60.0598L32.8661 60.0589C33.2446 60.0589 33.4895 59.8382 33.4895 59.4831C33.4895 59.146 33.2446 58.9254 32.8661 58.9254L28.8684 58.9259C28.2744 58.9263 27.9421 59.2517 27.9421 59.8506L27.943 66.2459C27.943 66.8446 28.2753 67.1701 28.8699 67.1701L31.3636 67.1692C32.9662 67.1692 33.9161 66.2389 33.9157 64.5935C33.9152 63.0297 32.9656 62.1576 31.3631 62.1581L31.363 62.1582ZM31.2354 66.0414L29.1434 66.0423L29.1428 63.2283L31.2349 63.2279C32.2428 63.2279 32.686 63.739 32.686 64.6171C32.686 65.5127 32.2431 66.0414 31.2354 66.0414ZM88.3601 63.1485C88.3601 61.6194 87.4739 60.9162 85.9419 60.9162C85.2426 60.9162 84.6013 61.0906 84.2052 61.2592C83.8845 61.3876 83.7448 61.5736 83.7508 61.8239C83.7512 62.1143 83.9725 62.3293 84.2464 62.3293C84.3802 62.3293 84.5259 62.2772 84.6832 62.213C84.9516 62.1083 85.4001 61.9859 85.8484 61.9859C86.8216 61.9854 87.2298 62.3576 87.2298 63.1313V63.6429C86.6586 63.4855 86.2043 63.4222 85.6796 63.4222C84.1183 63.4222 83.3492 64.3119 83.3492 65.2943C83.3496 66.4337 84.2116 67.2713 85.7096 67.2707C86.8864 67.2703 87.7841 66.8751 88.1394 66.6309C88.3023 66.514 88.3606 66.4097 88.3606 66.183L88.3602 63.1484L88.3601 63.1485ZM85.8201 66.2823C84.9812 66.2823 84.468 65.9223 84.468 65.2944C84.468 64.7306 84.9109 64.2939 85.8141 64.2939C86.2861 64.2939 86.6998 64.3637 87.2301 64.5206V65.9334C86.8456 66.137 86.3214 66.2824 85.8201 66.2824V66.2823ZM15.6561 59.9166C15.3938 59.1959 15.0153 58.8761 14.3915 58.8761C13.7682 58.8765 13.3836 59.1959 13.1212 59.9172L10.7682 66.2722C10.6928 66.4753 10.6807 66.5857 10.6807 66.6729C10.6807 66.9753 10.9256 67.2256 11.2634 67.2256C11.5372 67.2256 11.7474 67.0916 11.864 66.7482L12.621 64.6087L16.1407 64.6083L16.9047 66.7533C17.0209 67.0907 17.2305 67.2242 17.4989 67.2242C17.8427 67.2242 18.0875 66.974 18.0875 66.6661C18.0875 66.5497 18.0638 66.4449 17.9999 66.2648L15.6561 59.9166ZM13.0051 63.533L14.205 60.1494C14.2517 60.0275 14.2925 59.987 14.38 59.987C14.4674 59.987 14.5082 60.0275 14.5494 60.1494L15.7557 63.533H13.0051ZM21.7357 64.0026L23.7801 62.0431C23.9434 61.8802 24.0309 61.7173 24.0309 61.5257C24.0309 61.2118 23.8098 60.9791 23.4775 60.9791C23.291 60.9791 23.1392 61.0547 22.9703 61.2293L20.9371 63.2062C20.6632 63.474 20.634 63.491 20.3485 63.4916H20.174L20.1735 61.5959C20.1735 61.2067 19.9463 60.98 19.5904 60.98C19.2351 60.98 19.0079 61.2067 19.0079 61.5963L19.0088 66.5787C19.0088 66.9679 19.236 67.1952 19.5914 67.1952C19.9468 67.1952 20.1744 66.968 20.1744 66.5787L20.174 64.6133H20.3545C20.7159 64.6133 20.7395 64.6189 20.9958 64.8807L23.0064 66.9735C23.1754 67.1532 23.3444 67.2233 23.5368 67.2233C23.863 67.2233 24.0843 67.0082 24.0843 66.6882C24.0843 66.5198 24.0204 66.3452 23.8686 66.1766L21.7358 64.0026H21.7357ZM37.2548 60.9245C36.556 60.9245 35.9147 61.0995 35.5186 61.2681C35.1979 61.3959 35.0582 61.582 35.0642 61.8319C35.0642 62.1227 35.2858 62.3378 35.5598 62.3373C35.6935 62.3373 35.8394 62.2852 35.9966 62.2209C36.2646 62.1167 36.713 61.9943 37.1618 61.9943C38.135 61.9943 38.543 62.3665 38.543 63.1393V63.6509C37.972 63.4944 37.5177 63.4302 36.9934 63.4306C35.4311 63.4306 34.6626 64.3203 34.6626 65.3027C34.6626 66.4426 35.5251 67.2792 37.0231 67.2792C38.1998 67.2787 39.0975 66.8835 39.4529 66.6393C39.6157 66.5229 39.674 66.4181 39.674 66.1914L39.6736 63.1568C39.6731 61.6277 38.7874 60.9245 37.2548 60.9245H37.2548ZM37.1336 66.2907C36.2941 66.2907 35.7814 65.9305 35.7809 65.3026C35.7809 64.7385 36.2243 64.3027 37.1275 64.3027C37.5995 64.3023 38.0132 64.3719 38.5435 64.529V65.9417C38.1589 66.1448 37.6346 66.2908 37.1336 66.2908V66.2907ZM66.7093 60.9199C65.6431 60.9199 64.7629 61.3036 64.4076 61.5127C64.1453 61.6702 64.1105 61.7981 64.111 62.2338L64.112 68.6466C64.112 69.0362 64.3392 69.2625 64.6945 69.2625C65.056 69.2625 65.2832 69.0358 65.2832 68.6466L65.2827 66.9431C65.6613 67.1287 66.2443 67.2741 66.8038 67.2741C68.2489 67.2736 69.2275 66.3203 69.3613 64.9427C69.402 64.4773 69.402 63.7155 69.3608 63.2505C69.2326 61.867 68.2479 60.9196 66.7093 60.92V60.9199ZM68.1956 64.7795C68.1201 65.5936 67.608 66.1457 66.675 66.1462C66.1919 66.1462 65.5798 65.9952 65.2827 65.786L65.2823 62.4084C65.5792 62.1928 66.191 62.0419 66.6742 62.0419C67.6071 62.0419 68.1258 62.5935 68.1956 63.4135C68.2364 63.8202 68.2368 64.3433 68.1956 64.7795H68.1956ZM52.0171 64.9569C51.7493 64.9624 51.5975 65.1255 51.4985 65.3059C51.2772 65.7999 50.7941 66.1429 50.1528 66.1433C49.2378 66.1433 48.6956 65.5908 48.6202 64.7833C48.585 64.3525 48.585 63.8469 48.6196 63.4166C48.6951 62.6028 49.243 62.0501 50.1519 62.0501C50.7932 62.0501 51.2713 62.387 51.4984 62.8931C51.6034 63.0672 51.7487 63.2356 52.0171 63.2356C52.355 63.2416 52.5822 63.0265 52.5822 62.695C52.5822 62.5266 52.5183 62.352 52.4132 62.1485C52.0513 61.4628 51.2592 60.9222 50.1342 60.9222C48.6137 60.9226 47.5937 61.882 47.466 63.2601C47.4192 63.7195 47.4192 64.4748 47.466 64.9342C47.5946 66.3124 48.6146 67.2773 50.1351 67.2767C51.26 67.2767 52.0522 66.7357 52.4137 66.0441C52.5242 65.8404 52.5825 65.666 52.5825 65.4974C52.5825 65.1719 52.3553 64.9508 52.017 64.9568L52.0171 64.9569ZM60.776 59.9088C60.5137 59.1881 60.1351 58.8682 59.5113 58.8687C58.888 58.8687 58.5034 59.1886 58.2415 59.9097L55.888 66.2644C55.8126 66.4679 55.801 66.5779 55.801 66.6651C55.801 66.968 56.0458 67.2178 56.3836 67.2178C56.6571 67.2178 56.8672 67.0839 56.9838 66.7407L57.7413 64.6009L61.2605 64.6005L62.0244 66.7458C62.141 67.0828 62.3507 67.2168 62.6186 67.2168C62.9624 67.2163 63.2072 66.9665 63.2072 66.6581C63.2072 66.5422 63.1841 66.4375 63.1197 66.2574L60.7759 59.9088H60.776ZM58.1254 63.5256L59.3254 60.1415C59.3716 60.0196 59.4128 59.9791 59.4998 59.9791C59.5873 59.9791 59.628 60.0196 59.6692 60.1415L60.8755 63.5251L58.1254 63.5256ZM73.1609 60.9301C71.6343 60.9301 70.6029 61.9365 70.4691 63.3549C70.4284 63.7735 70.4344 64.4712 70.4751 64.907C70.6098 66.3027 71.6584 67.2731 73.2202 67.2726C73.9194 67.2726 74.5431 67.1102 75.0147 66.889C75.2419 66.7782 75.4696 66.6041 75.4636 66.3133C75.458 66.0109 75.2595 65.8248 74.98 65.8253C74.8227 65.8253 74.7121 65.883 74.5311 65.9532C74.1757 66.0982 73.762 66.203 73.2438 66.2034C72.2642 66.2034 71.6352 65.6507 71.5764 64.8137C71.5709 64.7209 71.5649 64.6221 71.5649 64.5233L75.0378 64.5229C75.5912 64.5229 75.7023 64.4296 75.702 63.8309V63.4643C75.702 61.9648 74.7519 60.9296 73.1611 60.9301H73.1609ZM74.6121 63.6568H71.5644C71.5705 63.5876 71.5705 63.5118 71.576 63.4417C71.6402 62.5524 72.2224 61.9477 73.1317 61.9477C74.0757 61.9477 74.6995 62.5636 74.6121 63.6568ZM43.6947 60.9236C42.6282 60.9236 41.7484 61.3073 41.393 61.517C41.1307 61.6739 41.0955 61.8018 41.0959 62.2381L41.0969 68.6503C41.0969 69.0401 41.3241 69.2668 41.68 69.2668C42.0413 69.2668 42.2682 69.0401 42.2682 68.6503V66.9468C42.6467 67.1328 43.2293 67.2778 43.7887 67.2778C45.234 67.2778 46.213 66.324 46.3468 64.9464C46.3874 64.481 46.387 63.7197 46.3462 63.2544C46.2177 61.8707 45.233 60.9233 43.6947 60.9237V60.9236ZM45.181 64.7834C45.1056 65.5978 44.593 66.15 43.6605 66.15C43.177 66.15 42.5652 65.9995 42.2682 65.7898L42.2672 62.4121C42.5643 62.1965 43.1761 62.0459 43.6595 62.0456C44.592 62.0456 45.1107 62.5977 45.1806 63.4172C45.2218 63.8244 45.2222 64.3475 45.181 64.7834ZM81.6754 60.9694C81.3199 60.9694 81.0927 61.1961 81.0927 61.5856V63.4924L78.0919 63.4934V61.5862C78.0919 61.1964 77.8642 60.9698 77.5088 60.9703C77.1534 60.9703 76.9262 61.1964 76.9262 61.5865L76.9271 66.5977C76.9271 66.9873 77.1543 67.2139 77.5098 67.2139C77.8651 67.2139 78.0929 66.9872 78.0929 66.5977L78.0923 64.5685L81.0932 64.5681L81.0937 66.5971C81.0937 66.9869 81.3209 67.2136 81.6763 67.2136C82.0377 67.2136 82.2589 66.9864 82.2589 66.5968L82.2579 61.5856C82.2579 61.196 82.0367 60.9694 81.6754 60.9694Z" fill="white"/>
</svg>
