<svg width="100" height="100" viewBox="0 0 100 100" fill="none" xmlns="http://www.w3.org/2000/svg">
<path d="M34.2508 43.7869H32.0159C31.7421 43.0767 30.4973 42.0133 28.7965 42.0133C27.8136 42.0055 26.8497 42.2826 26.0234 42.8105C26.0234 42.8105 24.8608 43.6063 23.1586 45.0268L17.8823 49.3725C17.6727 49.5814 17.4219 49.7452 17.1454 49.8534C16.869 49.9616 16.573 50.0119 16.276 50.0012H9.65904C9.48101 50.0012 9.56729 50.0909 9.56729 50.2729C10.0151 51.6933 11.2681 53.0229 13.4126 53.0229L11.8939 54.6104C11.8022 54.7 11.8022 54.882 11.9843 54.882H17.8864C22.1781 54.882 24.7732 53.0188 26.5616 50.4494C26.652 50.2729 26.8355 50.0053 26.9177 49.8288C26.9297 49.8286 26.9416 49.8308 26.9528 49.8353C26.9639 49.8399 26.974 49.8466 26.9825 49.8551C26.9909 49.8636 26.9975 49.8737 27.0019 49.8848C27.0063 49.8959 27.0084 49.9078 27.008 49.9198C26.5616 50.9777 25.4866 53.1071 23.4325 54.3469C22.8418 54.7116 22.2116 55.009 21.5537 55.2337C21.4619 55.2337 21.4619 55.3233 21.4619 55.4103L23.8748 62.0646H25.2127L22.9779 55.9453C24.5869 55.9453 27.9858 55.5922 29.8646 52.6657C31.7434 49.6482 32.3679 44.9494 32.3679 44.9494L34.3343 44.0626C34.4247 43.973 34.4247 43.791 34.2467 43.791L34.2508 43.7869ZM29.2429 46.0073C28.9342 46.0073 28.6381 45.8857 28.4198 45.6692C28.2015 45.4527 28.0789 45.1591 28.0789 44.853C28.0789 44.5468 28.2015 44.2532 28.4198 44.0367C28.6381 43.8203 28.9342 43.6987 29.2429 43.6987C29.4632 43.7052 29.6784 43.7663 29.8687 43.8766H29.6907C29.5669 43.8763 29.4457 43.9125 29.3426 43.9805C29.2395 44.0485 29.1591 44.1454 29.1115 44.2587C29.064 44.3721 29.0514 44.4969 29.0754 44.6174C29.0994 44.7379 29.1589 44.8486 29.2463 44.9355C29.3338 45.0225 29.4453 45.0817 29.5667 45.1058C29.6882 45.1298 29.8141 45.1176 29.9285 45.0707C30.0429 45.0237 30.1408 44.9442 30.2096 44.8421C30.2784 44.74 30.3151 44.62 30.3151 44.4972V44.4062C30.3881 44.5424 30.4195 44.6967 30.4055 44.8503C30.4006 45.1549 30.2767 45.4458 30.0598 45.6616C29.8429 45.8774 29.5501 46.0014 29.2429 46.0073Z" fill="white"/>
<path d="M24.6836 56.9112L26.5624 62.054H27.9031L25.9366 56.645C25.6627 56.7346 25.13 56.8256 24.6836 56.9166V56.9112Z" fill="white"/>
<path d="M17.2603 48.7511L20.3032 46.2673C20.9276 44.5806 21.5534 42.8084 22.2696 41.3919C22.6257 42.1877 22.8941 42.989 23.2542 43.7848C24.955 42.4553 25.9355 41.654 27.2775 41.301C26.3792 39.3522 25.8451 38.1979 25.5754 37.5786H18.9584C18.4202 38.7275 16.2757 43.0732 13.7725 49.1082H16.1854C16.6318 49.1082 16.9919 49.0173 17.2603 48.7511Z" fill="white"/>
<path d="M9.21143 62.0543H15.2039L17.1704 55.8481H11.4463C10.7301 57.7114 10.0153 59.7525 9.21143 62.0543Z" fill="white"/>
<path d="M31.2998 52.0376C30.3152 54.0746 29.3347 55.1407 27.0957 56.2067L29.1498 62.0598H34.9629C33.8907 58.5099 32.55 55.1407 31.2998 52.0376Z" fill="white"/>
<path d="M65.4328 62.3661H65.5957C67.7772 62.3661 69.2493 61.6097 70.0668 60.4201L70.3407 62.0415H74.3216V47.8271C72.7399 47.3409 70.8871 46.9077 67.506 46.9077C62.6529 46.9077 60.0359 49.8275 60.0359 55.2351C60.0359 60.2096 61.8901 62.3729 65.4341 62.3729L65.4328 62.3661ZM69.467 57.5003C69.178 57.8338 68.8175 58.099 68.4119 58.2766C68.0063 58.4542 67.5658 58.5398 67.1226 58.527C65.8148 58.527 65.1055 57.3373 65.1055 55.0124C65.1055 52.147 65.8682 50.7401 67.4499 50.7401C68.377 50.7401 68.8125 50.7944 69.467 50.9573V57.5003ZM54.0366 60.4201L54.3639 62.0415H58.2899V47.2255H53.4368V57.5533C52.9999 58.0408 52.1824 58.5813 51.4196 58.5813C50.0502 58.5813 49.3477 57.8235 49.3477 56.418V47.2255H44.4946V57.5533C44.0577 58.0408 43.1251 58.5813 42.3131 58.5813C41.0587 58.5813 40.3507 57.8235 40.3507 56.418V47.2255H35.4976V57.0617C35.4976 60.6306 37.0792 62.415 40.3507 62.415C42.6952 62.415 44.1125 61.5499 45.2025 60.4146C45.9667 61.7727 47.3292 62.415 49.3477 62.415C51.6921 62.3607 52.9999 61.5499 54.0366 60.4146V60.4201ZM85.9341 62.0959H90.7873V47.2255H85.9341V52.6875H81.3576V47.2255H76.5017V62.0959H81.3576V56.4723H85.9369L85.9341 62.0959Z" fill="white"/>
</svg>
