<svg width="100" height="100" viewBox="0 0 100 100" fill="none" xmlns="http://www.w3.org/2000/svg">
<path d="M67.9011 64.5978C68.318 64.6356 68.7382 64.5875 69.136 64.4563C69.5337 64.3252 69.9007 64.1138 70.2144 63.8351C70.528 63.5564 70.7818 63.2162 70.9602 62.8354C71.1386 62.4546 71.2378 62.0413 71.2518 61.6206H69.4691C69.2871 62.3407 68.856 62.7051 67.9011 62.7051C66.9462 62.7051 66.4551 62.3407 66.3005 61.6206H64.5127C64.5305 62.0431 64.6334 62.4575 64.8153 62.8388C64.9972 63.22 65.2541 63.5602 65.5707 63.8386C65.8872 64.117 66.2567 64.3278 66.6567 64.4583C67.0567 64.5888 67.4789 64.6363 67.8977 64.5978H67.9011ZM55.9394 74.2218C54.89 74.2218 54.1241 73.9524 54.1241 73.013C54.1241 72.2031 54.7664 71.8421 55.8775 71.3914L58.0226 70.528L58.0003 73.4413C57.7324 73.7124 57.4098 73.9227 57.0543 74.0579C56.6988 74.1932 56.3186 74.2502 55.9394 74.2253V74.2218ZM60.1556 73.3808L60.1865 69.1102C60.2174 66.4041 58.5258 65.292 56.0647 65.292C55.5558 65.2518 55.044 65.3134 54.559 65.4734C54.0739 65.6334 53.6252 65.8885 53.2389 66.224C52.8525 66.5595 52.5362 66.9687 52.3081 67.428C52.0801 67.8872 51.9449 68.3874 51.9103 68.8995H54.064C54.1876 67.9065 54.9845 67.5732 56.0647 67.5732C57.145 67.5732 57.9058 67.9065 58.0209 69.0135L55.273 70.1032C53.389 70.8509 51.9756 71.6971 51.9756 73.4689C51.9756 75.3029 53.0232 76.4772 55.1167 76.4772C55.7666 76.4937 56.4069 76.3166 56.957 75.9682C57.507 75.6197 57.9423 75.1155 58.2081 74.5189C58.318 75.8123 59.1973 76.3891 60.7189 76.3891H61.3355V74.3168H61.15C60.4407 74.3168 60.1642 74.0457 60.1642 73.386L60.1556 73.3808ZM42.1726 72.1184C41.9253 73.3186 41.5853 73.8333 40.912 73.8333C40.6314 73.8421 40.351 73.8107 40.0791 73.74V76.2389C40.4255 76.3973 40.8052 76.4684 41.1851 76.4461C41.712 76.4594 42.2293 76.3033 42.6617 76.0005C43.0942 75.6976 43.4192 75.2639 43.5895 74.7623C43.8687 73.9164 44.0418 73.0386 44.1047 72.1495C44.2558 70.7104 44.3281 69.2639 44.3211 67.8167H47.3077V76.2993H49.5506V65.5424H42.4491C42.497 67.7398 42.4046 69.9381 42.1726 72.1236V72.1184ZM65.6221 72.9163V65.532H63.3758V76.2958H65.7149L70.2402 68.7872V76.2958H72.4866V65.532H70.1475L65.6221 72.9163ZM81.9238 65.532V69.5626H77.553V65.532H75.3049V76.2958H77.553V71.7869H81.9238V76.2958H84.1701V65.532H81.9238ZM21.3697 74.1303C19.3448 74.1303 18.1427 72.6901 18.1427 70.5245V69.4124C18.5703 68.5714 19.7124 67.9065 21.3731 67.9065C23.1266 67.9065 24.4782 68.7199 24.4782 70.7628C24.4782 72.8058 23.4031 74.1303 21.3731 74.1303H21.3697ZM21.9553 65.6201C21.1273 65.5844 20.3058 65.7825 19.584 66.1921C18.8622 66.6017 18.2689 67.2064 17.8713 67.9376C17.9847 65.4958 18.4793 64.0417 21.3697 63.667L25.871 63.0643L25.6855 60.6587L21.0056 61.2925C16.9748 61.833 15.8379 64.8723 15.8379 69.6524C15.8379 73.8281 17.7768 76.5031 21.3765 76.5031C24.8835 76.5031 26.7898 73.8609 26.7898 70.7628C26.8333 70.0999 26.7403 69.4351 26.5164 68.8101C26.2926 68.185 25.9427 67.6132 25.4889 67.1304C25.035 66.6476 24.4869 66.2642 23.8789 66.0044C23.2708 65.7445 22.616 65.6137 21.9553 65.6201ZM31.2688 72.9163V65.532H29.0207V76.2958H31.3667L35.8903 68.7872V76.2958H38.1367V65.532H35.7925L31.2688 72.9163Z" fill="white"/>
<path d="M57.1845 52.3223C51.4432 55.5586 45.2193 56.1353 41.2435 54.1995C43.8428 55.7084 46.7872 56.5125 49.7885 56.5331C52.7898 56.5537 55.7449 55.79 58.3644 54.3169C60.9491 52.8877 63.1002 50.7807 64.5887 48.2199C66.0772 45.6592 66.8474 42.7405 66.8174 39.7746C66.553 44.1057 62.9172 49.0757 57.1845 52.3223ZM59.2454 26.8401C58.9036 26.2709 58.4328 25.791 57.8715 25.4396C59.9685 26.5222 61.8126 28.0409 63.2813 29.895C63.5389 30.2127 63.7793 30.5374 64.0043 30.8793C64.6091 31.9249 64.8968 33.1253 64.8321 34.3331C64.6844 38.7316 60.6914 44.0625 54.4023 47.6079C48.1131 51.1532 41.3912 51.8716 37.4171 49.7941C36.3246 49.2451 35.4076 48.3984 34.7706 47.3506L34.7448 47.3074C34.5731 46.9827 34.4306 46.6563 34.2897 46.3231C33.3613 44.15 32.9272 41.796 33.0188 39.4327C33.0504 40.1018 33.2418 40.7534 33.577 41.3323C35.6087 44.7706 43.0021 44.3198 50.0882 40.3238C57.1742 36.3277 61.284 30.2939 59.2505 26.8539L59.2454 26.8401ZM52.058 24.7125C51.995 24.6214 51.9249 24.5354 51.8485 24.4552C51.3724 24.0686 50.8197 23.7888 50.2273 23.6345C49.6349 23.4802 49.0166 23.455 48.4137 23.5607C48.1818 23.5779 47.9311 23.6039 47.6838 23.6436C45.4951 23.9239 43.381 24.6276 41.4582 25.7159C39.5463 26.7845 37.8631 28.2223 36.5052 29.9468C36.3575 30.1367 36.2167 30.3302 36.0741 30.5218C35.6777 30.9738 35.3882 31.5102 35.2273 32.0907C35.0664 32.6712 35.0383 33.2808 35.145 33.8738C35.1777 33.9773 35.2191 34.0778 35.2687 34.1743C36.4296 36.1447 41.137 35.6283 45.7655 33.0069C50.3939 30.3854 53.219 26.6864 52.058 24.7125Z" fill="white"/>
</svg>
