<svg width="100" height="100" viewBox="0 0 100 100" fill="none" xmlns="http://www.w3.org/2000/svg">
<path d="M65.1872 52.0643H62.4639V64.3026H65.6611L69.7141 56.0261H69.7762L69.5881 64.3026H72.3114V52.0643H69.1142L65.0593 60.3408H64.9972L65.1853 52.0643H65.1872ZM35.4171 58.2388V58.0924C35.4171 55.48 37.1643 54.4422 40.0117 54.4422C42.8591 54.4422 44.627 55.48 44.627 58.0924V58.2388C44.627 60.8513 42.861 61.9098 40.0117 61.9098C37.1624 61.9098 35.4171 60.8306 35.4171 58.2388ZM32.1954 58.404C32.1954 62.1387 35.2929 64.5654 40.0117 64.5654C44.7305 64.5654 47.8487 62.1594 47.8487 58.404V57.9273C47.8487 54.1944 44.7305 51.8091 40.0117 51.8091C35.2929 51.8091 32.1954 54.1944 32.1954 57.9273V58.4059V58.404ZM84.0416 52.0643H76.2459L76.1425 58.8394C76.1011 60.9151 75.7889 61.6395 74.6661 61.6395H73.9589V64.2951H74.7489C77.758 64.2951 78.6363 63.0921 78.7191 58.8394L78.7811 54.4009H81.3183V64.2951H84.0209V52.0643H84.0416ZM15.959 64.2951H18.765L18.6409 56.1932H18.703L21.7592 64.3045H24.5652L27.5744 56.1932H27.6365L27.5123 64.3045H30.3184V52.0643H26.4572L23.1942 61.1009H23.1321L19.8258 52.0643H15.959V64.3026V64.2951ZM56.455 61.9304H52.5882V59.6276H56.455C57.3709 59.6276 57.7715 60.0199 57.7715 60.7875C57.7715 61.555 57.3765 61.9285 56.455 61.9285V61.9304ZM49.6994 52.0643V64.3026H56.3515C58.7833 64.3026 60.5926 63.4112 60.5926 60.7968C60.5926 58.1825 58.804 57.3117 56.3515 57.3117H52.6088V54.4628H60.1769V52.0643H49.6994Z" fill="white"/>
<path d="M37.1348 45.9221L33.9714 44.5577C32.9784 46.3331 31.361 46.7254 29.3975 46.7254C26.1645 46.7254 24.5245 45.2953 24.5245 42.6228V42.4351C24.5245 39.7626 26.1645 38.3325 29.3975 38.3325C31.361 38.3325 32.9709 38.7079 33.9714 40.5002L37.1348 39.1395C35.6302 36.0523 32.5853 35.4292 29.3975 35.4292C24.248 35.4292 21.0132 38.0792 21.0132 42.2756V42.7823C21.0132 46.9975 24.248 49.6249 29.3975 49.6249C32.5947 49.6024 35.634 49.0037 37.1348 45.9146V45.9221ZM67.2755 35.737H63.9278V49.3359H67.646L75.5676 39.8658H75.6372L75.5921 49.3378H78.9417V35.737H75.2216L67.3037 45.2071H67.2341L67.2774 35.737H67.2755ZM41.9853 35.737H38.961V49.3359H42.5175L47.02 40.1398H47.0896L46.8827 49.3359H49.9088V35.737H46.3523L41.8705 44.9331H41.8009L41.989 35.737H41.9853ZM55.3592 38.4095V49.3115H58.5V38.4076H62.1486V35.737H51.7105V38.4076L55.3592 38.4095Z" fill="white"/>
</svg>
