<svg width="100" height="100" viewBox="0 0 100 100" fill="none" xmlns="http://www.w3.org/2000/svg">
<path d="M70.1199 38.0639H86.4599C86.8356 38.0932 87.1985 38.2115 87.518 38.4087C87.8375 38.6059 88.1041 38.8762 88.2952 39.1968C88.5334 39.6084 88.6348 40.0834 88.5852 40.5549C88.5355 41.0264 88.3372 41.4706 88.0182 41.8251C87.6406 42.2437 87.1147 42.5037 86.5488 42.5515C86.2389 42.5784 85.9261 42.5657 85.6161 42.5671H70.5059C70.292 42.5599 70.0789 42.5963 69.8799 42.674C69.6809 42.7518 69.5003 42.8691 69.3494 43.0188C69.115 43.2556 68.9659 43.5617 68.9249 43.8902C68.8839 44.2187 68.9534 44.5514 69.1226 44.8371C69.2567 45.0626 69.449 45.2489 69.68 45.3771C69.9109 45.5052 70.1722 45.5705 70.4371 45.5664C74.8692 45.5664 79.3023 45.5664 83.7363 45.5664C85.2837 45.5428 86.7825 46.0999 87.9295 47.1252C89.0766 48.1504 89.7863 49.5672 89.9153 51.0892V52.0365C89.8102 53.2455 89.3415 54.396 88.5693 55.3403C87.7537 56.331 86.6401 57.0402 85.3894 57.3653C84.7469 57.5231 84.0851 57.5912 83.4235 57.5678H67.382C66.9013 57.5678 66.4091 57.606 65.9471 57.4602C65.545 57.3365 65.1855 57.1052 64.9085 56.7921C64.6316 56.479 64.448 56.0963 64.3781 55.6864C64.3082 55.2765 64.3549 54.8555 64.5128 54.4702C64.6707 54.0849 64.9337 53.7503 65.2726 53.5036C65.6806 53.2104 66.1727 53.0531 66.6775 53.0547C72.2576 53.0547 77.8376 53.0547 83.4177 53.0547C83.7736 53.0547 84.151 53.0901 84.4782 52.9216C84.7589 52.793 84.9932 52.583 85.1498 52.3196C85.3065 52.0562 85.3779 51.7519 85.3547 51.4473C85.3314 51.1428 85.2146 50.8524 85.0198 50.6151C84.825 50.3778 84.5614 50.2048 84.2644 50.1191C83.9114 50.0285 83.5469 50.0767 83.1882 50.0738H70.4313C69.2217 50.071 68.0398 49.7164 67.0333 49.0542C65.1679 47.8421 64.0902 45.5622 64.3829 43.3743C64.5683 41.8095 65.371 40.3798 66.6172 39.3951C67.6187 38.6072 68.8416 38.1425 70.1199 38.0639ZM58.0662 38.0639H62.6136C62.6136 43.8274 62.6136 49.5909 62.6136 55.3545C62.6423 56.408 61.7756 57.3738 60.7324 57.5324C59.9805 57.674 59.2013 57.3823 58.6617 56.8626C52.985 52.8031 47.3021 48.7531 41.6129 44.7125C41.6129 49.0014 41.6129 53.2907 41.6129 57.5806C40.089 57.5872 38.5651 57.5872 37.0411 57.5806C37.0311 51.8723 37.0411 46.1626 37.0411 40.4543C37.0197 39.8737 37.2164 39.3058 37.5936 38.8598C37.9628 38.4343 38.4786 38.1588 39.0415 38.0866C39.9154 37.9705 40.4492 38.3032 41.0935 38.8343C46.752 42.8692 52.411 46.9013 58.0705 50.9306C58.0705 46.6417 58.0705 42.3528 58.0705 38.0639H58.0662ZM14.3902 42.5855V53.0491H25.3663C26.3092 53.0731 27.2416 52.8489 28.0676 52.3994C28.8935 51.9499 29.5833 51.2914 30.0658 50.4916C30.5436 49.6987 30.8004 48.7952 30.8101 47.8727C30.8199 46.9503 30.5823 46.0417 30.1215 45.2391C29.6606 44.4365 28.9929 43.7684 28.186 43.3026C27.3791 42.8369 26.4618 42.5899 25.527 42.5869C21.8143 42.5869 18.102 42.5869 14.3902 42.5869V42.5855ZM9.79834 38.0639H26.0134C28.3452 38.1882 30.5581 39.119 32.2637 40.6929C33.9694 42.2668 35.0588 44.3834 35.3407 46.671C35.5014 48.0449 35.3654 49.4368 34.9416 50.7551C34.5178 52.0734 33.8158 53.2882 32.8819 54.3194C31.948 55.3506 30.8033 56.1749 29.5232 56.738C28.2431 57.3011 26.8567 57.5901 25.4552 57.5862C20.2387 57.5862 15.0221 57.5862 9.80551 57.5862L9.79834 38.0639Z" fill="white"/>
<path d="M37.4732 62.4146C37.9534 62.0755 38.5377 61.9108 39.1269 61.9487C39.7162 61.9866 40.2739 62.2246 40.7054 62.6224C41.1369 63.0202 41.4155 63.5532 41.4939 64.1307C41.5722 64.7083 41.4455 65.2948 41.1353 65.7906C40.9286 66.1154 40.6508 66.3904 40.3222 66.5952C39.9937 66.8001 39.6228 66.9297 39.2368 66.9745H38.703C38.2164 66.9225 37.7549 66.7352 37.372 66.4343C36.9892 66.1335 36.7008 65.7315 36.5405 65.2752C36.3654 64.7626 36.3615 64.2082 36.5294 63.6933C36.6973 63.1784 37.0281 62.7302 37.4732 62.4146Z" fill="white"/>
<path d="M44.752 62.4076C45.2329 62.0713 45.8169 61.9094 46.4049 61.9493C46.9929 61.9892 47.5489 62.2285 47.9787 62.6266C48.4084 63.0247 48.6855 63.5572 48.763 64.1338C48.8405 64.7104 48.7137 65.2957 48.404 65.7906C48.1975 66.1141 47.9207 66.3882 47.5935 66.5929C47.2664 66.7977 46.8972 66.928 46.5127 66.9745H45.976C45.4771 66.9225 45.0043 66.7282 44.6154 66.4153C44.2266 66.1025 43.9384 65.6847 43.7863 65.2129C43.6267 64.7045 43.6342 64.1594 43.8077 63.6555C43.9812 63.1517 44.3117 62.7148 44.752 62.4076Z" fill="white"/>
<path d="M51.9304 62.4751C52.4025 62.11 52.9897 61.9205 53.5892 61.9398C54.1886 61.9591 54.7621 62.186 55.2091 62.5806C55.656 62.9753 55.948 63.5126 56.0339 64.0984C56.1197 64.6842 55.9939 65.2811 55.6786 65.7845C55.4721 66.1091 55.195 66.3843 54.8674 66.59C54.5397 66.7958 54.1698 66.927 53.7844 66.974H53.2563C52.78 66.9252 52.3267 66.747 51.9467 66.4593C51.5668 66.1715 51.275 65.7855 51.1039 65.3441C50.9142 64.8414 50.892 64.292 51.0407 63.7759C51.1893 63.2599 51.5011 62.8042 51.9304 62.4751Z" fill="white"/>
<path d="M58.2879 63.8793C58.5376 62.7691 59.6325 61.9053 60.7905 61.9478C61.2909 61.9496 61.7797 62.0967 62.1959 62.3708C62.6121 62.6448 62.9374 63.0338 63.1311 63.4891C63.3248 63.9444 63.3784 64.4459 63.2853 64.931C63.1921 65.4162 62.9563 65.8635 62.6072 66.2173C62.1918 66.6314 61.6486 66.8974 61.0632 66.9735H60.4892C60.1402 66.9223 59.8037 66.8086 59.4962 66.6379C59.0217 66.3667 58.6481 65.9522 58.4306 65.4555C58.213 64.9588 58.163 64.4062 58.2879 63.8793Z" fill="white"/>
</svg>
