<svg width="100" height="100" viewBox="0 0 100 100" fill="none" xmlns="http://www.w3.org/2000/svg">
<path d="M64.3191 48.4389V48.53C64.3301 48.6157 64.3301 48.7024 64.3191 48.7881C64.3089 49.0144 64.2146 49.2286 64.0549 49.3882C63.8952 49.5478 63.6818 49.6411 63.457 49.6497C63.2322 49.6583 63.0124 49.5815 62.8412 49.4346C62.67 49.2877 62.5598 49.0813 62.5325 48.8565L62.3893 48.9096C62.3286 48.9457 62.2706 48.9863 62.2159 49.0311C62.1616 49.0917 62.1136 49.1579 62.0727 49.2284C62.0266 49.3095 61.9912 49.3963 61.9672 49.4865C61.9067 49.6973 61.9067 49.921 61.9672 50.1318C62.0033 50.2515 62.0539 50.3662 62.1179 50.4734C62.1895 50.5902 62.2785 50.6952 62.3818 50.7847C62.4882 50.8817 62.6074 50.9635 62.7361 51.0276C62.8781 51.095 63.0273 51.146 63.1808 51.1794C63.3459 51.2019 63.5133 51.2019 63.6784 51.1794C63.8533 51.1588 64.0253 51.118 64.191 51.0579C64.3666 50.9912 64.5317 50.8992 64.681 50.7847C65.014 50.5409 65.2747 50.2101 65.4348 49.8281C65.6149 49.4077 65.6774 48.9457 65.6157 48.4921C65.5524 47.9938 65.3571 47.5218 65.0504 47.1256C64.8904 46.9165 64.7056 46.7278 64.5001 46.5639C64.3071 46.4028 64.0943 46.2675 63.8668 46.1615C63.6066 46.0527 63.3326 45.9812 63.0527 45.949C62.4584 45.8795 61.8565 45.974 61.3113 46.2223C61.0213 46.3519 60.7499 46.5204 60.5047 46.7233C60.2535 46.9308 60.0304 47.1707 59.8414 47.4369C59.6433 47.7151 59.4836 48.0189 59.3664 48.3402C59.2434 48.6698 59.1648 49.0145 59.1327 49.3651C59.0604 50.1001 59.1827 50.8414 59.487 51.5134C59.6477 51.861 59.8502 52.1874 60.0901 52.4851C60.3389 52.7756 60.6254 53.0309 60.942 53.2443C61.2687 53.4802 61.6264 53.6693 62.0049 53.806C62.5991 54.0191 63.2293 54.1121 63.8592 54.0795C64.4892 54.047 65.1066 53.8895 65.676 53.6162C66.0764 53.4124 66.4489 53.1573 66.7842 52.8571C67.6745 52.0444 68.2792 50.9629 68.5075 49.7749C68.7358 48.5869 68.5755 47.3563 68.0506 46.2678C67.8351 45.8056 67.5559 45.3762 67.2214 44.9925C66.885 44.5952 66.4971 44.2454 66.068 43.9524C65.6303 43.6549 65.1566 43.4151 64.6584 43.2389C64.153 43.0584 63.6254 42.9485 63.0904 42.9124C62.5425 42.878 61.9925 42.9162 61.4546 43.0263C60.9113 43.1382 60.3844 43.3193 59.8866 43.5653C59.3713 43.8601 58.8973 44.2226 58.4769 44.6433C58.0404 45.033 57.6575 45.4798 57.3386 45.9717C57.0216 46.4771 56.7684 47.0203 56.5848 47.5887C56.3901 48.1676 56.2735 48.7701 56.238 49.3803C56.2013 50.0007 56.2444 50.6233 56.3662 51.2325C56.4898 51.852 56.6951 52.4519 56.9768 53.0165C57.2574 53.5923 57.6123 54.1283 58.0321 54.6107C58.4609 55.0968 58.9499 55.5254 59.487 55.886C60.033 56.2496 60.6234 56.5405 61.2435 56.7515C62.544 57.1705 63.9313 57.2368 65.2654 56.9436C66.5995 56.6504 67.8333 56.008 68.8422 55.0814L69.8146 56.1821C69.1969 56.7233 68.5129 57.1825 67.7792 57.5485C66.3382 58.2984 64.7253 58.6494 63.1055 58.5658C61.5226 58.4649 59.9951 57.9409 58.6804 57.0475C58.0364 56.6205 57.4509 56.11 56.9391 55.5292C56.4304 54.9525 56.0019 54.309 55.6651 53.6162C55.3234 52.933 55.07 52.2084 54.9113 51.4603C54.7637 50.7109 54.713 49.9454 54.7605 49.1829C54.8026 48.4445 54.9394 47.7147 55.1676 47.0118C55.6215 45.6338 56.4244 44.3988 57.4969 43.4286C58.5369 42.4958 59.8035 41.8568 61.1681 41.5763C61.8298 41.4396 62.5069 41.3936 63.1808 41.4397C63.8439 41.4869 64.4979 41.6222 65.1257 41.842C65.753 42.0794 66.3442 42.4039 66.8822 42.8061C67.9492 43.5347 68.8051 44.5354 69.3623 45.706C69.6355 46.2747 69.8332 46.877 69.9503 47.4976C70.062 48.1108 70.0949 48.7359 70.0483 49.3575C70.0035 49.9652 69.8819 50.5647 69.6865 51.1414C69.4905 51.7082 69.2219 52.2466 68.8874 52.7432C68.2409 53.7195 67.3486 54.5054 66.3017 55.0206C65.7959 55.263 65.2614 55.439 64.7111 55.5444C64.1716 55.6421 63.6215 55.6677 63.0753 55.6203C62.2841 55.5556 61.5137 55.3321 60.8094 54.9632C60.1052 54.5943 59.4813 54.0873 58.9744 53.472C58.6491 53.0748 58.3778 52.6357 58.1678 52.1663C57.5524 50.804 57.4929 49.2529 58.002 47.8468C58.1647 47.4043 58.3853 46.9857 58.6578 46.6018C59.1831 45.8593 59.8963 45.2721 60.7233 44.9014C61.119 44.7205 61.5376 44.5953 61.9672 44.5294C62.3821 44.4686 62.8036 44.4686 63.2185 44.5294C63.6297 44.5765 64.0328 44.6787 64.4171 44.833C64.788 44.984 65.1377 45.1831 65.4574 45.4252C66.0764 45.8901 66.5669 46.5068 66.8822 47.2167C67.0208 47.5651 67.1145 47.9299 67.1611 48.3023C67.2135 48.6648 67.2135 49.033 67.1611 49.3954C67.1135 49.748 67.0197 50.0926 66.8822 50.4203C66.7502 50.7367 66.5752 51.0331 66.362 51.3009C66.1564 51.561 65.9183 51.7932 65.6534 51.9917C65.3967 52.1817 65.1151 52.3349 64.8167 52.4472C64.4011 52.6119 63.9561 52.6882 63.5098 52.6712C63.0635 52.6543 62.6255 52.5444 62.2235 52.3485C61.9752 52.2289 61.7444 52.0756 61.5375 51.893C61.3401 51.7099 61.1655 51.5034 61.0173 51.2781C60.8805 51.0573 60.7716 50.8201 60.6932 50.5721C60.544 50.1002 60.5258 49.5962 60.6404 49.1146C60.697 48.8913 60.7832 48.6769 60.8967 48.4769C61.0055 48.287 61.14 48.1133 61.2963 47.9607C61.4467 47.8137 61.6167 47.6885 61.8013 47.5887C61.9763 47.4949 62.1644 47.4283 62.3592 47.3913C62.5467 47.3646 62.737 47.3646 62.9245 47.3913C63.1028 47.4154 63.2775 47.4613 63.4447 47.528C63.6076 47.5924 63.7581 47.6849 63.8895 47.8013C64.0125 47.9118 64.1192 48.0397 64.2061 48.1808C64.2593 48.2665 64.3023 48.3582 64.3342 48.4541L64.3191 48.4389ZM7.44219 56.3795H9.59062V43.9297H6.4622C3.31871 43.9297 1.6678 45.5618 1.6678 47.9607C1.6678 49.8813 2.57241 50.9972 4.18562 52.1739L1.38135 56.3795H3.7107L6.83912 51.6653L5.7536 50.9061C4.44192 50.0103 3.79362 49.3119 3.79362 47.8088C3.79362 46.4804 4.72084 45.5846 6.48482 45.5846H7.44219V56.3795ZM35.696 55.7646V54.0338C34.8603 54.5654 33.8951 54.8544 32.9068 54.8688C31.3614 54.8688 30.7734 54.1097 30.6453 52.6369H35.7487V51.4755C35.7487 48.3402 34.3843 47.1636 32.266 47.1636C29.6879 47.1636 28.4968 49.1449 28.4968 51.8702C28.4968 55.0054 30.0045 56.5237 32.7259 56.5237C33.7691 56.5763 34.8039 56.3118 35.696 55.7646ZM48.9333 56.5237C49.6933 56.5984 50.4569 56.4254 51.1119 56.0303V54.2615C50.5099 54.6842 49.7873 54.8975 49.054 54.8688C47.5463 54.8688 46.9206 53.6921 46.9206 51.8323C46.9206 49.9724 47.6744 48.8716 49.069 48.8716C49.7871 48.8752 50.4917 49.0689 51.1119 49.4334V47.6191C50.4019 47.2997 49.627 47.1541 48.8504 47.1939C46.1517 47.1939 44.7495 49.1449 44.7495 51.8854C44.7495 54.9219 46.114 56.5541 48.9484 56.5541L48.9333 56.5237ZM16.3148 47.3685V50.9365H13.488V47.3685H11.3772V56.3795H13.488V52.5838H16.3148V56.3795H18.4331V47.3685H16.3148ZM27.9842 54.6942H27.0419V47.3685H20.8982V48.1277C20.8982 50.3292 20.7549 53.1759 20.0086 54.679H19.3528V58.4216H21.2751V56.3795H26.0243V58.4367H27.9842V54.6942ZM42.4579 56.3795L39.3295 51.9537V56.3795H37.2112V47.3685H39.3295V51.521L42.3448 47.3685H44.4782L41.4628 51.521L44.8551 56.3795H42.4579ZM32.266 48.8716C33.3214 48.8716 33.638 49.7522 33.638 50.8833V51.0579H30.698C30.7508 49.6232 31.271 48.8716 32.2811 48.8716H32.266ZM24.9237 54.6942H21.9083C22.456 52.9576 22.7108 51.1409 22.6621 49.3195V49.0538H24.9237V54.6942ZM74.0436 56.3795V43.9297H80.9789V45.6149H76.1996V49.2892H80.2552V50.9668H76.1996V54.6942H81.0694V56.3795H74.0436ZM89.7837 54.6942H90.726V58.4367H88.7434V56.3795H83.9943V58.4367H82.0343V54.6942H82.7127C83.4666 53.1759 83.6023 50.3444 83.6023 48.1429V47.3837H89.7687V54.7094L89.7837 54.6942ZM84.6803 54.6942H87.6956V49.0538H85.4341V49.3195C85.4341 50.8758 85.2758 53.3353 84.6803 54.6942ZM98.483 50.2381C98.483 48.0518 97.3749 47.2015 95.136 47.2015C94.0319 47.1953 92.9454 47.4806 91.9849 48.029V49.7978C92.8522 49.2362 93.8564 48.9263 94.8872 48.902C95.8973 48.902 96.3949 49.2664 96.3949 50.2305V50.7315H96.0556C92.8217 50.7315 91.3819 51.8019 91.3819 53.6314C91.3436 54.0069 91.3873 54.3863 91.51 54.743C91.6327 55.0997 91.8313 55.425 92.092 55.6963C92.3527 55.9675 92.6692 56.178 93.0192 56.3131C93.3692 56.4481 93.7444 56.5045 94.1183 56.4782C94.5225 56.516 94.9298 56.4596 95.3089 56.3135C95.688 56.1674 96.0286 55.9354 96.3044 55.6355H96.3949C96.4107 55.895 96.464 56.1507 96.5532 56.3947H98.6187C98.5434 55.6633 98.5057 54.9285 98.5056 54.1932V50.2381H98.483ZM96.3647 54.2311C96.1917 54.4664 95.9634 54.6548 95.7002 54.7794C95.4371 54.9039 95.1474 54.9607 94.857 54.9447C94.6775 54.9624 94.4962 54.9398 94.3264 54.8785C94.1565 54.8173 94.0022 54.7188 93.8746 54.5904C93.7471 54.4619 93.6493 54.3065 93.5885 54.1355C93.5276 53.9644 93.5052 53.7819 93.5228 53.601C93.5228 52.5458 94.2766 52.1739 96.0707 52.1739H96.3723L96.3647 54.2311Z" fill="white"/>
</svg>
