<svg width="100" height="100" viewBox="0 0 100 100" fill="none" xmlns="http://www.w3.org/2000/svg">
<path d="M79.577 44.989H76.817C76.2859 44.9678 75.7668 45.15 75.3665 45.4982C74.9662 45.8464 74.715 46.3341 74.6646 46.861L73.4606 53.0824C73.2448 54.2135 73.5742 54.9601 74.8974 54.9601H77.6745C78.2105 54.9928 78.7379 54.8142 79.1428 54.4628C79.5477 54.1115 79.7975 53.6156 79.8382 53.0824L81.082 46.861C81.2807 45.7582 80.9457 44.989 79.5997 44.989M78.8785 47.2796L77.8108 52.6921C77.8115 52.7367 77.8035 52.7809 77.7871 52.8224C77.7706 52.8639 77.7461 52.9017 77.715 52.9337C77.6839 52.9658 77.6468 52.9914 77.6057 53.0091C77.5646 53.0269 77.5205 53.0364 77.4757 53.0371H75.8913C75.6698 53.0371 75.6187 52.9523 75.6471 52.6978L76.7034 47.2852C76.7772 47.042 76.8908 46.9289 77.0952 46.9289H78.6399C78.8387 46.9289 78.9409 47.042 78.9012 47.2852M71.1549 53.0315L72.7337 44.989H68.4176C67.8769 44.9498 67.3425 45.1243 66.9301 45.4747C66.5177 45.8251 66.2604 46.3232 66.2141 46.861L64.4706 53.0315H63.5676L63.1701 54.9827H71.4048L71.7966 53.0315H71.1549ZM70.2122 46.9233L68.9855 53.0315H66.7138L68.2813 47.2796C68.2813 47.1851 68.319 47.0944 68.3861 47.0276C68.4532 46.9608 68.5442 46.9233 68.6391 46.9233H70.2065H70.2122ZM62.2614 54.9827L62.5283 45.0512H59.6206L54.8161 55.0166H57.1332L57.9339 53.1728H60.0125L59.8592 55.0166L62.2614 54.9827ZM60.4611 47.6302L60.1488 51.527H58.6382L60.3419 47.6302H60.4611ZM56.0712 46.861C56.2984 45.7582 55.9576 44.989 54.6174 44.989H50.0741L48.1034 54.9827H50.1877L50.7556 52.0869H53.2544C54.589 52.0869 55.1398 51.2838 55.3897 50.181L56.0712 46.861ZM53.8961 47.2796L53.385 49.7738C53.3225 50.0452 53.1976 50.1301 52.9761 50.1301H51.1361L51.8005 46.9233H53.6519C53.8734 46.9233 53.9529 47.0364 53.9245 47.2796M47.7797 46.861C47.9955 45.7582 47.6605 44.989 46.3145 44.989H43.5829C43.0345 44.9475 42.4914 45.1194 42.0677 45.4685C41.644 45.8177 41.3729 46.3168 41.3112 46.861L40.1186 53.0824C39.9198 54.2135 40.2436 54.9601 41.5611 54.9601H44.3211C44.86 54.9974 45.3918 54.821 45.8004 54.4691C46.209 54.1173 46.4612 53.6188 46.5019 53.0824L47.7797 46.861ZM45.5933 47.2796L44.5653 52.6921C44.5488 52.7899 44.497 52.8784 44.4196 52.9409C44.3423 53.0034 44.2446 53.0356 44.1451 53.0315H42.6004C42.3959 53.0315 42.3278 52.9466 42.3562 52.6921L43.4295 47.2796C43.4295 47.0364 43.5715 46.9233 43.8157 46.9233H45.3377C45.5251 46.9233 45.6444 47.0364 45.5819 47.2796M38.1082 53.0315L39.6813 44.989H35.3766C34.8419 44.9605 34.317 45.1397 33.9124 45.4889C33.5077 45.8381 33.2549 46.33 33.2071 46.861L31.4296 53.0315H30.538L30.1291 54.9827H38.3751L38.7613 53.0315H38.1082ZM37.1825 46.9233L35.9672 53.0315H33.6955L35.263 47.2796C35.2615 47.2333 35.2693 47.1872 35.286 47.1441C35.3027 47.1009 35.328 47.0615 35.3603 47.0283C35.3927 46.995 35.4314 46.9686 35.4742 46.9506C35.5169 46.9325 35.5629 46.9232 35.6094 46.9233H37.1825ZM30.0666 50.0848C30.2767 48.9537 29.9303 48.1619 28.5957 48.1619H26.1367L26.7727 44.989H24.6317L22.6667 54.9827H27.2725C27.8119 55.0201 28.3444 54.8438 28.7539 54.4921C29.1634 54.1404 29.4168 53.6419 29.4589 53.105L30.0666 50.0848ZM27.8745 50.3393L27.4315 52.7769C27.4202 52.8844 27.3692 52.9839 27.2884 53.056C27.2076 53.1282 27.1027 53.1678 26.9942 53.1672H25.1883L25.8243 49.9774H27.6416C27.8518 49.9774 27.9313 50.0792 27.8745 50.3337M20.5995 54.9827L22.5532 45.0512H18.0099C17.4705 45.0151 16.9384 45.1908 16.5275 45.5408C16.1167 45.8907 15.8599 46.387 15.8121 46.9233L13.478 55.011H15.7496L17.8509 47.3079C17.8501 47.2618 17.8585 47.2161 17.8755 47.1732C17.8925 47.1304 17.9178 47.0913 17.95 47.0582C17.9821 47.0251 18.0205 46.9987 18.063 46.9804C18.1054 46.9621 18.151 46.9523 18.1973 46.9515H20.0657L18.4415 54.9827H20.5995ZM13.8187 46.861C14.0288 45.7582 13.7051 44.989 12.3876 44.989H8.28725L7.90107 46.9233H11.3937C11.6038 46.9233 11.6663 47.0364 11.6379 47.2796L11.195 49.5758H9.01986L9.35492 47.9865L4.32324 50.3846H8.06009L7.73638 51.9682L11.0587 50.3959L10.6157 52.6582C10.6029 52.7588 10.5512 52.8504 10.4717 52.9138C10.3922 52.9771 10.2911 53.0071 10.1898 52.9975H6.70278L6.33364 54.9487H10.4453C10.9745 54.9861 11.4971 54.813 11.8984 54.4674C12.2997 54.1218 12.5471 53.6319 12.5863 53.105V53.071L13.8187 46.861ZM81.0422 52.6808L80.5936 54.9827H82.7062L83.1605 52.6808H81.0422ZM95.6772 47.9865H94.1382L93.0933 53.3312C93.0969 53.3561 93.0948 53.3814 93.087 53.4053C93.0793 53.4292 93.0661 53.451 93.0485 53.4691C93.031 53.4871 93.0095 53.5009 92.9857 53.5093C92.962 53.5178 92.9366 53.5207 92.9115 53.5178H91.7757C91.6735 53.5178 91.6394 53.4726 91.6678 53.3312L92.69 47.9865H91.134L90.0493 53.5631C89.8846 54.4001 90.106 54.9827 91.1226 54.9827H92.8888C93.091 54.9981 93.2943 54.9735 93.487 54.9105C93.6797 54.8474 93.8579 54.747 94.0115 54.6151C94.1651 54.4831 94.2909 54.3223 94.3819 54.1417C94.4728 53.9612 94.5271 53.7646 94.5414 53.5631L95.6772 47.9865ZM88.5273 47.9865H85.3526L84.0181 54.9827H85.4549L85.8694 52.9919H86.5907L86.903 54.9827H88.5102L88.0843 52.9014C88.3592 52.8081 88.6012 52.638 88.7815 52.4113C88.9618 52.1846 89.0727 51.911 89.1008 51.6232L89.5609 49.2987C89.7199 48.5295 89.4814 47.9696 88.5443 47.9696M88.0218 49.5758L87.664 51.2725C87.6243 51.4648 87.5391 51.5214 87.3858 51.5214H86.108L86.568 49.2591H87.8401C87.9877 49.2591 88.0445 49.3439 88.0275 49.5136" fill="white"/>
</svg>
