<svg width="100" height="100" viewBox="0 0 100 100" fill="none" xmlns="http://www.w3.org/2000/svg">
<g clip-path="url(#clip0_157_6901)">
<path d="M5.80829 59.0618C6.39033 59.0138 6.97148 59.1639 7.45609 59.4876C7.94071 59.8112 8.2999 60.289 8.47455 60.8424H4.30059C4.26872 60.84 4.23671 60.8445 4.20675 60.8556C4.1768 60.8666 4.14959 60.8839 4.12699 60.9064C4.1044 60.9288 4.08694 60.9558 4.07581 60.9856C4.06469 61.0153 4.06016 61.0471 4.06253 61.0787V62.4024C4.0551 62.4335 4.0551 62.4658 4.06253 62.4969V62.5757C4.11862 62.5977 4.18101 62.5977 4.2371 62.5757H8.5539C8.41534 63.1838 8.06257 63.7228 7.55917 64.0955C7.05576 64.4682 6.43484 64.6501 5.80829 64.6084C5.29832 64.6394 4.78914 64.5363 4.33216 64.3094C3.87517 64.0825 3.48655 63.74 3.20552 63.3163C3.1671 63.2797 3.11592 63.2593 3.06268 63.2593C3.00944 63.2593 2.95826 63.2797 2.91985 63.3163L1.82478 64.12C1.80748 64.1362 1.79371 64.1557 1.78429 64.1774C1.77488 64.1991 1.77002 64.2224 1.77002 64.246C1.77002 64.2696 1.77488 64.293 1.78429 64.3147C1.79371 64.3363 1.80748 64.3559 1.82478 64.3721C2.39705 65.2069 3.22351 65.8378 4.1831 66.1724C5.14269 66.507 6.18498 66.5277 7.15729 66.2315C8.12785 65.947 8.98186 65.3628 9.59542 64.5638C10.209 63.7648 10.5502 62.7924 10.5695 61.7878C10.586 61.1761 10.4747 60.5677 10.2425 60.0008C10.0103 59.434 9.66231 58.9211 9.22047 58.4945C8.77675 58.059 8.24792 57.7182 7.66654 57.4933C7.08517 57.2684 6.46357 57.164 5.84003 57.1866C5.04409 57.1878 4.26168 57.3911 3.56721 57.7773C2.87275 58.1634 2.28931 58.7195 1.87239 59.3927C1.84279 59.4311 1.82675 59.4782 1.82675 59.5266C1.82675 59.575 1.84279 59.6221 1.87239 59.6606L2.91985 60.4484C2.93772 60.4686 2.9597 60.4847 2.98432 60.4957C3.00895 60.5068 3.03566 60.5125 3.06268 60.5125C3.0897 60.5125 3.11641 60.5068 3.14104 60.4957C3.16566 60.4847 3.18764 60.4686 3.20552 60.4484C3.48083 60.0129 3.86559 59.656 4.32195 59.4129C4.77831 59.1697 5.29055 59.0487 5.80829 59.0618ZM13.7436 57.486C13.6875 57.4641 13.6251 57.4641 13.569 57.486H12.1565C12.1247 57.4837 12.0926 57.4882 12.0627 57.4992C12.0327 57.5103 12.0055 57.5276 11.9829 57.55C11.9603 57.5725 11.9429 57.5995 11.9318 57.6292C11.9206 57.659 11.9161 57.6907 11.9185 57.7224V66.1684C11.9045 66.1952 11.8973 66.225 11.8973 66.2551C11.8973 66.2853 11.9045 66.315 11.9185 66.3418C11.945 66.357 11.9751 66.365 12.0058 66.365C12.0364 66.365 12.0665 66.357 12.093 66.3418H13.569C13.5966 66.3535 13.6263 66.3595 13.6563 66.3595C13.6863 66.3595 13.716 66.3535 13.7436 66.3418C13.7589 66.3154 13.767 66.2855 13.767 66.2551C13.767 66.2247 13.7589 66.1948 13.7436 66.1684V62.6387H18.0128V66.1369C18.0016 66.1589 17.9958 66.1832 17.9958 66.2078C17.9958 66.2325 18.0016 66.2568 18.0128 66.2787C18.0393 66.294 18.0694 66.302 18.1001 66.302C18.1307 66.302 18.1608 66.294 18.1873 66.2787H19.6633C19.6898 66.294 19.72 66.302 19.7506 66.302C19.7812 66.302 19.8113 66.294 19.8379 66.2787C19.86 66.2231 19.86 66.1611 19.8379 66.1054V57.6121C19.8403 57.5804 19.8357 57.5487 19.8246 57.5189C19.8135 57.4892 19.796 57.4622 19.7734 57.4397C19.7508 57.4173 19.7236 57.4 19.6937 57.3889C19.6637 57.3779 19.6317 57.3734 19.5998 57.3757H18.1239C18.099 57.3644 18.0719 57.3585 18.0445 57.3585C18.0171 57.3585 17.9901 57.3644 17.9652 57.3757C17.9445 57.4317 17.9445 57.4931 17.9652 57.549V60.7006H13.8547V57.549C13.8525 57.5078 13.8357 57.4687 13.8071 57.4387L13.7436 57.486ZM30.1538 65.1442C30.185 65.1095 30.2023 65.0647 30.2023 65.0181C30.2023 64.9716 30.185 64.9267 30.1538 64.8921L29.3444 63.789C29.3295 63.7723 29.3112 63.7589 29.2906 63.7497C29.2701 63.7405 29.2478 63.7357 29.2253 63.7357C29.2028 63.7357 29.1806 63.7405 29.16 63.7497C29.1395 63.7589 29.1212 63.7723 29.1063 63.789C28.2852 64.4665 27.2361 64.81 26.1702 64.7503C25.5523 64.7914 24.9384 64.6238 24.4285 64.2748C23.9185 63.9258 23.5424 63.4159 23.3612 62.8278H30.5505C30.5805 62.8282 30.6102 62.822 30.6376 62.8098C30.6649 62.7976 30.6893 62.7797 30.7089 62.7572C30.7285 62.7347 30.743 62.7082 30.7513 62.6796C30.7596 62.651 30.7615 62.6209 30.7568 62.5915V61.9297C30.7837 61.3185 30.6819 60.7086 30.4578 60.1388C30.2337 59.569 29.8923 59.0519 29.4555 58.6206C29.0214 58.1843 28.5015 57.8415 27.928 57.6138C27.3546 57.386 26.74 57.2782 26.1226 57.2969C25.493 57.2713 24.8646 57.3726 24.2754 57.5946C23.6862 57.8167 23.1485 58.155 22.6946 58.589C22.0541 59.2623 21.6269 60.1074 21.466 61.0196C21.305 61.9318 21.4175 62.8708 21.7894 63.7201C22.1613 64.5694 22.7762 65.2915 23.5579 65.7968C24.3395 66.3021 25.2534 66.5683 26.1861 66.5624C27.6449 66.5827 29.0631 66.0854 30.1855 65.16L30.1538 65.1442ZM28.773 60.9684H23.3453C23.5248 60.3845 23.8955 59.8767 24.3986 59.5256C24.9017 59.1745 25.5084 59.0002 26.1226 59.0303C26.7256 58.9816 27.3259 59.1509 27.813 59.5071C28.3 59.8633 28.641 60.3823 28.773 60.9684ZM32.1693 68.926C32.1935 68.9398 32.2208 68.9471 32.2487 68.9471C32.2765 68.9471 32.3039 68.9398 32.328 68.926H33.9151C33.9421 68.9398 33.972 68.947 34.0024 68.947C34.0327 68.947 34.0627 68.9398 34.0897 68.926C34.0971 68.9086 34.1009 68.8898 34.1009 68.8709C34.1009 68.8519 34.0971 68.8332 34.0897 68.8157V65.6957C34.84 66.2876 35.7833 66.5849 36.7401 66.5309C37.3632 66.5623 37.9861 66.4635 38.5683 66.2409C39.1506 66.0183 39.6794 65.6769 40.1205 65.2387C40.5602 64.8062 40.9033 64.2866 41.1275 63.7138C41.3517 63.141 41.452 62.5277 41.4219 61.9139C41.454 61.2999 41.3546 60.686 41.1303 60.1129C40.906 59.5398 40.5618 59.0204 40.1205 58.589C39.6785 58.1512 39.1499 57.8089 38.5681 57.5838C37.9863 57.3588 37.3639 57.2557 36.7401 57.2812C35.7282 57.2481 34.7413 57.5972 33.9786 58.2581H33.8675L33.7088 57.6278C33.7008 57.5679 33.6701 57.5133 33.6229 57.4752C33.5756 57.4371 33.5155 57.4184 33.4548 57.423H32.328C32.3031 57.4117 32.2761 57.4058 32.2487 57.4058C32.2213 57.4058 32.1942 57.4117 32.1693 57.423C32.1554 57.4498 32.1481 57.4795 32.1481 57.5097C32.1481 57.5398 32.1554 57.5695 32.1693 57.5963V68.7369C32.1526 68.7657 32.1438 68.7983 32.1438 68.8315C32.1438 68.8647 32.1526 68.8973 32.1693 68.926ZM36.6924 64.6872C36.2013 64.7053 35.7115 64.6237 35.2531 64.4476C34.7947 64.2715 34.3772 64.0046 34.0262 63.663V60.1175C34.3626 59.7545 34.7768 59.4712 35.2383 59.2885C35.6998 59.1057 36.1968 59.0283 36.6924 59.0618C37.0665 59.0468 37.4395 59.1107 37.7869 59.2492C38.1344 59.3877 38.4483 59.5977 38.708 59.8654C38.9671 60.1308 39.1662 60.4479 39.2921 60.7957C39.418 61.1435 39.4677 61.514 39.4381 61.8824C39.4842 62.4267 39.3555 62.9715 39.0703 63.4386C38.7852 63.9057 38.3583 64.2711 37.851 64.4824C37.485 64.6355 37.0892 64.7055 36.6924 64.6872ZM42.8661 66.263C42.8926 66.2782 42.9227 66.2862 42.9534 66.2862C42.984 66.2862 43.0141 66.2782 43.0407 66.263H44.5008C44.5273 66.2782 44.5574 66.2862 44.5881 66.2862C44.6187 66.2862 44.6488 66.2782 44.6753 66.263C44.6975 66.2073 44.6975 66.1453 44.6753 66.0897V59.1878H49.5476C49.5752 59.1995 49.6049 59.2056 49.6349 59.2056C49.6649 59.2056 49.6946 59.1995 49.7222 59.1878C49.7361 59.161 49.7434 59.1313 49.7434 59.1012C49.7434 59.071 49.7361 59.0413 49.7222 59.0145V57.6593C49.7184 57.5979 49.6921 57.5399 49.6483 57.4964C49.6044 57.4528 49.546 57.4267 49.4841 57.423H43.0407C42.9893 57.405 42.9333 57.405 42.882 57.423C42.8337 57.4682 42.8052 57.5305 42.8026 57.5963V66.1212C42.7987 66.1554 42.8023 66.19 42.8133 66.2227C42.8243 66.2553 42.8423 66.2852 42.8661 66.3103V66.263ZM59.7048 61.8981C59.6762 60.9985 59.3894 60.1256 58.8783 59.3822C58.3671 58.6387 57.6528 58.0556 56.8194 57.7015C55.9859 57.3473 55.068 57.2367 54.1734 57.3828C53.2788 57.5289 52.4448 57.9255 51.7695 58.526C51.1265 59.165 50.6864 59.9771 50.5037 60.8619C50.321 61.7468 50.4037 62.6653 50.7416 63.504C51.0794 64.3426 51.6576 65.0644 52.4045 65.58C53.1514 66.0956 54.0342 66.3824 54.9436 66.4048C56.161 66.4067 57.3328 65.9456 58.2184 65.1162C59.1039 64.2868 59.6358 63.1522 59.7048 61.9454V61.8981ZM55.0864 64.6242C54.5323 64.618 53.9923 64.4491 53.5345 64.1389C53.0768 63.8287 52.7217 63.3909 52.5139 62.8808C52.3062 62.3706 52.255 61.8109 52.367 61.2719C52.4789 60.733 52.749 60.239 53.1431 59.8521C53.5371 59.4651 54.0377 59.2026 54.5817 59.0975C55.1258 58.9924 55.6889 59.0495 56.2004 59.2615C56.7118 59.4735 57.1487 59.8309 57.456 60.2889C57.7633 60.7469 57.9272 61.2848 57.9273 61.8351C57.9315 62.2074 57.861 62.5768 57.7199 62.9218C57.5789 63.2668 57.37 63.5805 57.1056 63.8445C56.8412 64.1085 56.5264 64.3176 56.1798 64.4596C55.8331 64.6016 55.4614 64.6736 55.0864 64.6715V64.6242ZM68.3066 57.3442H61.4982C61.4733 57.3329 61.4462 57.327 61.4188 57.327C61.3914 57.327 61.3644 57.3329 61.3395 57.3442C61.3255 57.371 61.3183 57.4007 61.3183 57.4309C61.3183 57.461 61.3255 57.4907 61.3395 57.5175V66.0424C61.332 66.0735 61.332 66.1058 61.3395 66.1369C61.3395 66.1369 61.3395 66.1369 61.3395 66.2157C61.3629 66.2313 61.3906 66.2396 61.4188 66.2396C61.4471 66.2396 61.4747 66.2313 61.4982 66.2157H65.7515C66.1885 66.2785 66.634 66.2472 67.0578 66.124C67.4816 66.0008 67.8738 65.7884 68.2076 65.5015C68.5415 65.2145 68.8093 64.8596 68.9928 64.4608C69.1763 64.062 69.2713 63.6287 69.2713 63.1903C69.2713 62.7518 69.1763 62.3185 68.9928 61.9197C68.8093 61.5209 68.5415 61.166 68.2076 60.879C67.8738 60.5921 67.4816 60.3798 67.0578 60.2565C66.634 60.1333 66.1885 60.102 65.7515 60.1648H63.2122V59.0145H68.1638C68.1908 59.0283 68.2207 59.0355 68.2511 59.0355C68.2815 59.0355 68.3114 59.0283 68.3384 59.0145C68.3605 58.9588 68.3605 58.8969 68.3384 58.8412V57.5333C68.3605 57.4776 68.3605 57.4156 68.3384 57.36L68.3066 57.3442ZM65.7515 64.5927H63.2122V62.0872H65.7515C66.7672 62.0872 67.3385 62.56 67.3385 63.3321C67.3385 64.1042 66.7513 64.5927 65.7515 64.5927ZM73.3217 66.5151C74.4977 66.5488 75.6392 66.1182 76.4959 65.3175L76.9244 66.3575C76.9308 66.388 76.9442 66.4166 76.9634 66.4412C76.9827 66.4658 77.0073 66.4856 77.0355 66.4994C77.0925 66.5156 77.153 66.5156 77.21 66.4994L78.4003 66.1212C78.4383 66.0804 78.4593 66.027 78.4593 65.9715C78.4593 65.916 78.4383 65.8625 78.4003 65.8218L78.194 65.1284C78.0255 64.518 77.9506 63.8859 77.9718 63.2533V60.3697C77.9718 58.1478 76.1784 57.2181 74.1946 57.2181C72.7776 57.1721 71.3878 57.6116 70.2587 58.463C70.2347 58.4851 70.2155 58.5119 70.2024 58.5418C70.1893 58.5716 70.1825 58.6038 70.1825 58.6363C70.1825 58.6689 70.1893 58.7011 70.2024 58.7309C70.2155 58.7607 70.2347 58.7875 70.2587 58.8097L70.9094 59.7236C70.9644 59.7712 71.0348 59.7975 71.1078 59.7975C71.1808 59.7975 71.2512 59.7712 71.3062 59.7236C72.2654 59.1406 73.3968 58.9014 74.512 59.046C75.5278 59.046 76.3372 59.3769 76.3372 60.149V60.3539L73.3852 60.7321C71.3221 60.9842 70.1 62.0084 70.1 63.7103C70.1086 64.1103 70.201 64.5042 70.3712 64.8669C70.5414 65.2296 70.7859 65.5532 71.0889 65.817C71.3919 66.0808 71.7469 66.2791 72.1313 66.3993C72.5157 66.5195 72.9211 66.5589 73.3217 66.5151ZM73.3217 62.4181L76.2737 61.9454V63.4424C75.9563 63.8651 75.5372 64.202 75.0548 64.4222C74.5723 64.6424 74.0419 64.739 73.5122 64.703C72.4489 64.703 71.9251 64.2775 71.9251 63.6C71.9251 62.9224 72.4171 62.5442 73.3376 62.4181H73.3217ZM81.9553 57.4387C81.8992 57.4168 81.8369 57.4168 81.7808 57.4387H80.3207C80.2646 57.4168 80.2022 57.4168 80.1461 57.4387C80.1322 57.4655 80.1249 57.4953 80.1249 57.5254C80.1249 57.5556 80.1322 57.5853 80.1461 57.6121V66.1684C80.1322 66.1952 80.1249 66.225 80.1249 66.2551C80.1249 66.2853 80.1322 66.315 80.1461 66.3418C80.1726 66.357 80.2027 66.365 80.2334 66.365C80.264 66.365 80.2941 66.357 80.3207 66.3418H81.7966C81.8232 66.357 81.8533 66.365 81.8839 66.365C81.9146 66.365 81.9447 66.357 81.9712 66.3418V66.263C81.9786 66.2319 81.9786 66.1995 81.9712 66.1684V62.6387H86.1293V66.1369C86.1175 66.1643 86.1114 66.1938 86.1114 66.2236C86.1114 66.2534 86.1175 66.2829 86.1293 66.3103C86.1558 66.3255 86.1859 66.3335 86.2166 66.3335C86.2472 66.3335 86.2773 66.3255 86.3039 66.3103H87.7798C87.8108 66.3209 87.8442 66.3227 87.8762 66.3155C87.9081 66.3082 87.9374 66.2921 87.9606 66.2691C87.9837 66.2461 87.9999 66.217 88.0073 66.1853C88.0146 66.1536 88.0128 66.1204 88.002 66.0897V57.6121C88.016 57.5853 88.0232 57.5556 88.0232 57.5254C88.0232 57.4953 88.016 57.4655 88.002 57.4387C87.9771 57.4274 87.9501 57.4215 87.9227 57.4215C87.8953 57.4215 87.8682 57.4274 87.8433 57.4387H86.3674C86.3113 57.4168 86.2489 57.4168 86.1928 57.4387C86.1789 57.4655 86.1716 57.4953 86.1716 57.5254C86.1716 57.5556 86.1789 57.5853 86.1928 57.6121V60.7636H82.0347V57.6121C82.0364 57.5804 82.0316 57.5488 82.0207 57.519C82.0098 57.4892 81.993 57.4619 81.9712 57.4387H81.9553ZM91.6205 57.4387H90.0335C90.0016 57.4364 89.9696 57.4409 89.9396 57.4519C89.9097 57.463 89.8825 57.4803 89.8599 57.5027C89.8373 57.5252 89.8198 57.5522 89.8087 57.5819C89.7976 57.6117 89.793 57.6435 89.7954 57.6751V66.1842C89.793 66.2158 89.7976 66.2476 89.8087 66.2774C89.8198 66.3071 89.8373 66.3341 89.8599 66.3566C89.8825 66.379 89.9097 66.3963 89.9396 66.4074C89.9696 66.4184 90.0016 66.4229 90.0335 66.4206H91.5094C91.5413 66.4229 91.5733 66.4184 91.6033 66.4074C91.6332 66.3963 91.6604 66.379 91.683 66.3566C91.7056 66.3341 91.7231 66.3071 91.7342 66.2774C91.7453 66.2476 91.7499 66.2158 91.7475 66.1842V63.1903L92.7315 62.4339L95.8104 66.2C95.862 66.2564 95.9262 66.3 95.9978 66.3274C96.0695 66.3547 96.1466 66.3651 96.223 66.3575H98.3179C98.4607 66.3575 98.5242 66.2315 98.4131 66.1212L94.1598 61.3151L98.1592 57.6278C98.2862 57.5175 98.1592 57.3757 98.0798 57.3757H96.0008C95.8412 57.3746 95.6855 57.4243 95.5564 57.5175L91.7951 61.1733V57.6121C91.8172 57.5564 91.8172 57.4944 91.7951 57.4387C91.7769 57.4155 91.7518 57.3984 91.7234 57.3899C91.6949 57.3814 91.6645 57.382 91.6364 57.3915L91.6205 57.4387Z" fill="white"/>
<path d="M58.4044 26.4922C56.1262 24.2581 53.0523 23.0067 49.8502 23.0098C47.4852 23.0315 45.1795 23.7478 43.2237 25.0682C41.2679 26.3886 39.7494 28.2542 38.8595 30.4299C37.9696 32.6056 37.7481 34.9941 38.2229 37.2946C38.6978 39.5951 39.8476 41.7046 41.5277 43.3574C43.2078 45.0102 45.343 46.1324 47.6642 46.5825C49.9855 47.0327 52.389 46.7908 54.572 45.8872C56.755 44.9836 58.6199 43.4587 59.9317 41.5047C61.2434 39.5508 61.9435 37.255 61.9436 34.9067C61.9452 33.3412 61.6332 31.791 61.0255 30.3464C60.4179 28.9018 59.5269 27.5916 58.4044 26.4922ZM56.5635 38.0267C55.9286 39.3328 54.9201 40.424 53.6639 41.1639C52.4078 41.9038 50.9598 42.2596 49.5011 42.1867C48.1161 42.1263 46.7762 41.6806 45.6341 40.9005C44.492 40.1203 43.5937 39.0372 43.0417 37.7746C42.4921 36.5157 42.3137 35.1277 42.5272 33.772C42.7407 32.4163 43.3374 31.1487 44.2479 30.1164C44.2925 30.0687 44.3465 30.0306 44.4066 30.0046C44.4666 29.9785 44.5315 29.9651 44.597 29.9651C44.6626 29.9651 44.7274 29.9785 44.7875 30.0046C44.8476 30.0306 44.9016 30.0687 44.9462 30.1164L46.2317 31.377C46.3109 31.4663 46.3546 31.5811 46.3546 31.7001C46.3546 31.819 46.3109 31.9339 46.2317 32.0231C45.6071 32.7716 45.242 33.7 45.1906 34.6707C45.1391 35.6414 45.404 36.6027 45.946 37.4122C46.5001 38.2287 47.3025 38.8481 48.2361 39.1797C49.1698 39.5114 50.1857 39.5381 51.1357 39.2558C51.8733 39.0511 52.5464 38.6638 53.092 38.1302C53.6376 37.5966 54.0378 36.9341 54.2551 36.205C54.4724 35.4759 54.4997 34.7039 54.3344 33.9614C54.1691 33.219 53.8166 32.5303 53.31 31.9601C53.2274 31.8725 53.1815 31.757 53.1815 31.637C53.1815 31.5171 53.2274 31.4016 53.31 31.314L54.6114 30.0219C54.6571 29.9762 54.7115 29.9399 54.7714 29.9151C54.8314 29.8903 54.8956 29.8776 54.9605 29.8776C55.0254 29.8776 55.0897 29.8903 55.1496 29.9151C55.2096 29.9399 55.264 29.9762 55.3097 30.0219C56.2976 31.0806 56.9446 32.4081 57.168 33.8342C57.3914 35.2603 57.1809 36.7201 56.5635 38.0267Z" fill="white"/>
</g>
<defs>
<clipPath id="clip0_157_6901">
<rect width="100" height="100" fill="white"/>
</clipPath>
</defs>
</svg>
