<svg width="100" height="100" viewBox="0 0 100 100" fill="none" xmlns="http://www.w3.org/2000/svg">
<path fill-rule="evenodd" clip-rule="evenodd" d="M49.9999 19.6304C43.9633 19.6304 38.0623 21.4115 33.0431 24.7486C28.0239 28.0857 24.1119 32.8288 21.8018 38.3782C19.4917 43.9276 18.8873 50.0339 20.065 55.9251C21.2427 61.8163 24.1495 67.2277 28.418 71.475C32.6865 75.7223 38.1249 78.6147 44.0455 79.7865C49.966 80.9584 56.1028 80.3569 61.6799 78.0583C67.2569 75.7597 72.0237 71.8671 75.3774 66.8728C78.7312 61.8785 80.5212 56.0068 80.5212 50.0002C80.5126 41.9483 77.2942 34.2286 71.5722 28.535C65.8502 22.8414 58.092 19.639 49.9999 19.6304ZM65.4046 28.217C63.0719 34.1687 57.792 35.3969 50.0869 35.3969C49.2658 35.3969 48.4556 35.3969 47.6563 35.3969C46.8569 35.3969 46.1772 35.3969 45.4812 35.3969C44.7852 35.3969 44.2197 35.3969 43.5944 35.4294C44.0527 34.21 44.753 33.0949 45.6536 32.1505C46.5541 31.206 47.6365 30.4516 48.8362 29.9322C52.2347 28.3577 56.6609 28.3577 60.6032 28.3577C62.278 28.3577 63.9093 28.3577 65.4046 28.217ZM49.9999 76.6259C46.0427 76.6248 42.1351 75.7504 38.5585 74.0657C34.9818 72.3809 31.8253 69.9278 29.3161 66.8831C26.807 63.8384 25.0077 60.2778 24.048 56.4579C23.0882 52.6379 22.9919 48.6537 23.7659 44.7923C24.5399 40.9309 26.165 37.2883 28.5241 34.127C30.8832 30.9657 33.9176 28.3644 37.4086 26.5105C40.8997 24.6566 44.7605 23.5962 48.713 23.4057C52.6655 23.2152 56.6113 23.8994 60.2661 25.4089C52.6208 25.436 43.0887 25.6091 40.1469 36.3925C40.0545 36.728 39.5107 38.7948 39.353 39.5361L36.743 49.9515L36.8354 49.9948L42.273 52.2835C46.7101 44.2054 56.4598 47.8901 55.5082 54.7995C54.5729 61.5952 46.3023 64.8686 42.2241 58.3218C42.0228 58.0107 41.8603 57.6764 41.7401 57.3262L35.5902 58.8845C35.9001 59.7464 36.2633 60.5885 36.6777 61.4058C39.5488 67.2655 45.9543 69.4136 51.7345 67.9797C54.6878 67.2174 57.3353 65.5728 59.3206 63.2675C61.3059 60.9622 62.5335 58.1069 62.8381 55.0862C64.0398 44.6924 52.8111 37.8588 44.3176 44.7519L45.9488 38.297C47.2321 38.297 48.6133 38.3403 50.0597 38.3403C56.6446 38.3403 64.3226 37.5937 67.77 30.1216C71.8201 33.7088 74.6791 38.4358 75.9683 43.6763C77.2575 48.9168 76.916 54.4234 74.989 59.4664C73.0619 64.5095 69.6404 68.8508 65.1778 71.9152C60.7151 74.9796 55.422 76.6224 49.9999 76.6259Z" fill="white"/>
</svg>
