<svg width="100" height="100" viewBox="0 0 100 100" fill="none" xmlns="http://www.w3.org/2000/svg">
<path d="M44.6509 79.3408V72.1025H49.1981V73.7777H46.5467V79.3341L44.6509 79.3408ZM39.2431 76.8029H41.0051L40.1241 74.5348L39.2431 76.8029ZM41.9945 79.3475L41.5963 78.334H38.6553L38.2588 79.3475H36.3529L39.2685 72.1109H41.022L43.9394 79.3475H41.9945ZM33.7472 79.3475V75.039L31.8616 77.3055L29.9676 75.039V79.3408H28.0718V72.1025H29.9438L31.8616 74.5918L33.7794 72.1025H35.643V79.3408L33.7472 79.3475ZM62.8073 79.3475V75.2166L59.7883 79.3391H58.2178V72.1126H60.1153V76.1932L63.0733 72.1126H64.7116V79.3475H62.8073ZM67.8119 79.3475V73.7877H65.6044V72.1126H71.9406V73.7877H69.7161V79.3441L67.8119 79.3475ZM54.9125 79.3475V76.5064H52.1019V79.3408H50.2061V72.1025H52.1019V74.8045H54.9193V72.1025H56.8151V79.3408L54.9125 79.3475Z" fill="white"/>
<path d="M28.0605 33.9506C28.0635 30.4388 29.4574 27.0678 31.9436 24.5599C33.1626 23.3301 34.6167 22.3521 36.2212 21.6827C37.8257 21.0132 39.5488 20.6657 41.2903 20.6602H71.8328V27.4159H41.2988C40.442 27.4196 39.5944 27.5914 38.8051 27.9212C38.0159 28.251 37.3006 28.7323 36.7008 29.3373C35.4789 30.5696 34.792 32.2249 34.7864 33.9506L34.7457 45.2912C34.6082 46.74 33.9947 48.1043 32.9991 49.1758C32.0118 50.2338 30.6962 50.9364 29.26 51.1726L28.0605 51.3636V33.9506ZM53.9356 51.387H59.2078V34.2036H54.2117L49.9526 39.7315L45.6935 34.2036H40.699V51.387H45.973V42.6546L49.9526 47.4337L53.9356 42.6546V51.387ZM28.0605 64.5569H58.6098C60.3511 64.5505 62.0738 64.2024 63.678 63.5327C65.2822 62.863 66.7359 61.885 67.9548 60.6555C70.4415 58.1471 71.8354 54.7754 71.8379 51.263V33.8535L70.6384 34.0344C69.0961 34.2809 67.6944 35.066 66.6876 36.2472C65.6728 37.4379 65.1133 38.9433 65.1069 40.5004V51.263C65.1003 52.9885 64.4135 54.6435 63.1925 55.8763C62.5931 56.4808 61.8788 56.962 61.0905 57.2923C60.3023 57.6226 59.4557 57.7955 58.5996 57.8011H28.0605V64.5569Z" fill="white"/>
</svg>
