<svg width="100" height="100" viewBox="0 0 100 100" fill="none" xmlns="http://www.w3.org/2000/svg">
<path d="M33.5234 50.5801H38.2212V52.0648H35.2825V53.5875H36.26C36.9169 53.5875 37.7649 53.6668 38.4028 54.2942C38.6058 54.5035 38.7646 54.7517 38.8699 55.0239C38.9751 55.2962 39.0247 55.5869 39.0155 55.8788C39.0256 56.1784 38.9767 56.477 38.8715 56.7576C38.7664 57.0382 38.6071 57.2953 38.4028 57.514C37.8422 58.0765 37.0353 58.2001 36.11 58.2001H33.5234V50.5801ZM35.9726 56.7851C36.2142 56.7851 36.6437 56.7645 36.9201 56.5427C37.0158 56.4594 37.0918 56.3557 37.1427 56.2392C37.1935 56.1227 37.2178 55.9964 37.2138 55.8693C37.2187 55.733 37.1905 55.5976 37.1316 55.4748C37.0728 55.3519 36.985 55.2453 36.8758 55.1641C36.5979 54.9645 36.1605 54.9645 35.9726 54.9645H35.2762V56.7946H35.9726V56.7851Z" fill="white"/>
<path d="M43.7394 53.1038H45.3817V58.2028H43.7394V57.588C43.5805 57.8415 43.3575 58.0482 43.0933 58.1874C42.829 58.3265 42.5327 58.3931 42.2346 58.3803C41.505 58.3803 40.8923 58.1981 40.3318 57.6023C39.8453 57.0908 39.5787 56.4078 39.5896 55.7008C39.5726 54.9367 39.8562 54.1967 40.3791 53.6409C40.6127 53.4131 40.8891 53.234 41.1921 53.1141C41.4951 52.9942 41.8189 52.9357 42.1446 52.9422C42.4506 52.9291 42.7553 52.99 43.0331 53.1196C43.3109 53.2491 43.5537 53.4437 43.741 53.6869V53.1117L43.7394 53.1038ZM41.655 54.7184C41.5332 54.8398 41.4371 54.9846 41.3722 55.1442C41.3074 55.3037 41.2752 55.4747 41.2776 55.647C41.2712 55.8212 41.3007 55.9949 41.3642 56.1572C41.4277 56.3194 41.5239 56.4668 41.6468 56.5901C41.7696 56.7134 41.9165 56.8099 42.0783 56.8737C42.24 56.9374 42.4131 56.967 42.5867 56.9605C42.9062 56.9601 43.2127 56.8331 43.4394 56.6072C43.6925 56.3573 43.8367 56.017 43.8405 55.6607C43.8444 55.3044 43.7076 54.9611 43.4599 54.7057C43.2103 54.4777 42.8848 54.3517 42.5472 54.3524C42.3826 54.3517 42.2194 54.3837 42.0671 54.4465C41.9148 54.5093 41.7764 54.6017 41.6598 54.7184H41.655Z" fill="white"/>
<path d="M46.377 53.1035H48.0192V54.875H49.8557V53.1035H51.4979V58.2025H49.8557V56.2013H48.0192V58.2025H46.377V53.1035Z" fill="white"/>
<path d="M52.4814 53.1035H54.1221V55.1301L55.7833 53.1035H57.8235L55.6475 55.4692L57.9735 58.2025H55.856L54.1221 55.9398V58.2025H52.4814V53.1035Z" fill="white"/>
<path d="M36.2016 40.7744C36.8585 40.7744 37.588 40.8663 38.1944 41.4082C38.8466 41.9771 38.9366 42.7361 38.9366 43.259C38.9366 44.2192 38.5718 44.7548 38.286 45.0558C37.6796 45.6706 36.8854 45.7293 36.3516 45.7293H35.2826V48.396H33.5298V40.7744H36.2016ZM35.2763 44.2842H35.9079C36.1479 44.2842 36.5664 44.2715 36.8553 43.9974C37.0431 43.7904 37.1428 43.5181 37.1333 43.2384C37.1389 43.1011 37.1163 42.9641 37.0669 42.836C37.0174 42.7078 36.9422 42.5913 36.8459 42.4936C36.5853 42.2449 36.2142 42.2068 35.8684 42.2068H35.2763V44.2842Z" fill="white"/>
<path d="M43.2179 43.2969H44.8601V48.3959H43.2179V47.7827C43.0588 48.0361 42.8358 48.2427 42.5716 48.3819C42.3073 48.521 42.0112 48.5876 41.713 48.575C40.9835 48.575 40.3708 48.3912 39.8181 47.797C39.3307 47.2829 39.0641 46.5971 39.0759 45.8876C39.0588 45.1235 39.3424 44.3834 39.8655 43.8277C40.0988 43.5994 40.375 43.4199 40.6781 43.2997C40.9812 43.1794 41.3051 43.1209 41.6309 43.1274C41.9354 43.1158 42.2383 43.1773 42.5143 43.3068C42.7903 43.4363 43.0315 43.6301 43.2179 43.8721V43.2969ZM41.1335 44.9131C41.0113 45.034 40.9148 45.1785 40.8496 45.3378C40.7845 45.4971 40.7521 45.6679 40.7545 45.8401C40.7478 46.0146 40.7772 46.1886 40.8407 46.3512C40.9042 46.5138 41.0005 46.6614 41.1236 46.7849C41.2466 46.9084 41.3938 47.005 41.5558 47.0687C41.7178 47.1325 41.8912 47.1619 42.0651 47.1552C42.3847 47.1548 42.6911 47.0278 42.9179 46.8019C43.1705 46.5518 43.3145 46.2116 43.3183 45.8554C43.3222 45.4993 43.1856 45.156 42.9384 44.9005C42.6883 44.6734 42.3629 44.548 42.0257 44.5487C41.8603 44.547 41.6962 44.5783 41.5431 44.6409C41.3899 44.7035 41.2506 44.796 41.1335 44.9131Z" fill="white"/>
<path d="M47.4904 43.2981V46.2137L49.6538 43.2981H51.1791V48.3972H49.5369V45.4372L47.372 48.3972H45.8481V43.2981H47.4904ZM50.5791 41.2382C50.4491 41.6346 50.1927 41.977 49.8496 42.2127C49.42 42.4995 48.891 42.5296 48.5136 42.5296C48.1362 42.5296 47.6151 42.4963 47.1777 42.2127C46.8332 41.9785 46.5764 41.6355 46.4482 41.2382L47.5883 40.793C47.6228 40.9962 47.7267 41.181 47.882 41.3159C48.0641 41.4476 48.2829 41.5185 48.5073 41.5185C48.7318 41.5185 48.9506 41.4476 49.1326 41.3159C49.288 41.181 49.3918 40.9962 49.4264 40.793L50.5791 41.2382Z" fill="white"/>
<path d="M54.808 50.9392V48.4753H54.7417C53.5889 48.4753 52.951 47.9999 52.6573 47.7099C52.2925 47.3566 51.9277 46.7497 51.9277 45.8212C51.9277 44.815 52.3841 44.1732 52.8073 43.8342C53.368 43.4277 54.0437 43.2122 54.7354 43.2194H54.8143V40.7744H56.455V43.2194H56.5339C57.2254 43.2132 57.9009 43.4286 58.462 43.8342C58.8852 44.1732 59.3416 44.815 59.3416 45.8212C59.3547 46.1693 59.2968 46.5164 59.1714 46.8412C59.0459 47.166 58.8555 47.4617 58.612 47.7099C58.3183 47.9983 57.6804 48.4753 56.5276 48.4753H56.4613V50.9392H54.808ZM54.8854 44.5456C54.6999 44.5326 54.5137 44.5571 54.3379 44.6178C54.1621 44.6785 54.0003 44.7742 53.8621 44.899C53.6354 45.1534 53.5165 45.4865 53.5305 45.8275C53.5179 46.0075 53.5446 46.1881 53.6088 46.3567C53.673 46.5253 53.7731 46.6778 53.9021 46.8035C54.0312 46.9292 54.186 47.0251 54.3559 47.0845C54.5257 47.1439 54.7064 47.1654 54.8854 47.1474V44.5456ZM56.3729 47.1553C56.5518 47.1725 56.7323 47.1504 56.9019 47.0906C57.0714 47.0309 57.226 46.9348 57.3549 46.8091C57.4838 46.6833 57.5839 46.531 57.6483 46.3626C57.7127 46.1942 57.7398 46.0138 57.7277 45.8338C57.7405 45.4927 57.6211 45.1599 57.3945 44.9053C57.2574 44.7795 57.0959 44.6833 56.9201 44.6228C56.7444 44.5623 56.5581 44.5387 56.3729 44.5535V47.1553Z" fill="white"/>
<path d="M62.703 50.9392V48.4753H62.6383C61.484 48.4753 60.846 47.9999 60.5523 47.7099C60.1875 47.3566 59.8228 46.7497 59.8228 45.8212C59.8228 44.815 60.2791 44.1732 60.7023 43.8342C61.263 43.4277 61.9387 43.2122 62.6304 43.2194H62.7093V40.7744H64.3516V43.2194H64.4258C65.1173 43.213 65.7928 43.4284 66.3539 43.8342C66.7786 44.1732 67.2334 44.815 67.2334 45.8212C67.2466 46.1693 67.1887 46.5164 67.0632 46.8412C66.9378 47.166 66.7474 47.4617 66.5039 47.7099C66.2117 47.9983 65.5722 48.4753 64.4195 48.4753H64.3547V50.9392H62.703ZM62.7804 44.5456C62.5952 44.5324 62.4092 44.5569 62.2336 44.6176C62.058 44.6784 61.8965 44.774 61.7587 44.899C61.5309 45.1528 61.4113 45.4862 61.4255 45.8275C61.4135 46.0074 61.4406 46.1878 61.5049 46.3561C61.5693 46.5244 61.6695 46.6767 61.7984 46.8023C61.9273 46.9279 62.0819 47.0238 62.2515 47.0834C62.4211 47.143 62.6015 47.1648 62.7804 47.1474V44.5456ZM64.2679 47.1553C64.4559 47.1658 64.6439 47.1368 64.8201 47.0702C64.9963 47.0036 65.1567 46.901 65.2911 46.7687C65.5164 46.5109 65.635 46.1765 65.6227 45.8338C65.6359 45.493 65.5171 45.1602 65.2911 44.9053C65.1536 44.7796 64.9918 44.6835 64.8158 44.623C64.6398 44.5625 64.4533 44.5389 64.2679 44.5535V47.1553Z" fill="white"/>
<path d="M71.8641 43.2972H73.5047V48.3962H71.8641V47.783C71.705 48.0363 71.482 48.243 71.2178 48.3821C70.9535 48.5213 70.6574 48.5879 70.3592 48.5753C69.6281 48.5753 69.017 48.3915 68.4564 47.7973C67.9686 47.2833 67.7015 46.5976 67.7127 45.8879C67.6955 45.1238 67.9792 44.3836 68.5022 43.828C68.7355 43.5993 69.012 43.4195 69.3154 43.2993C69.6188 43.179 69.9431 43.1207 70.2692 43.1276C70.575 43.1149 70.8794 43.1758 71.1569 43.3054C71.4344 43.435 71.6769 43.6294 71.8641 43.8724V43.2972ZM69.7781 44.9134C69.6564 45.0346 69.5603 45.1791 69.4955 45.3384C69.4306 45.4976 69.3984 45.6683 69.4007 45.8404C69.3941 46.0147 69.4234 46.1886 69.4868 46.3511C69.5502 46.5135 69.6464 46.6611 69.7692 46.7846C69.8921 46.908 70.0391 47.0047 70.2009 47.0685C70.3628 47.1324 70.536 47.162 70.7098 47.1555C71.0298 47.1555 71.3369 47.0285 71.5641 46.8022C71.8158 46.5514 71.9589 46.2113 71.9625 45.8554C71.966 45.4995 71.8297 45.1565 71.583 44.9007C71.3333 44.6741 71.0086 44.5487 70.6719 44.549C70.5063 44.5473 70.342 44.5787 70.1885 44.6412C70.0351 44.7038 69.8956 44.7963 69.7781 44.9134Z" fill="white"/>
<path d="M76.1369 43.2981V46.2137L78.3002 43.2981H79.8241V48.3972H78.1818V45.4372L76.02 48.3972H74.4946V43.2981H76.1369ZM79.2256 41.2382C79.0951 41.6348 78.8382 41.9773 78.4945 42.2127C78.0649 42.4995 77.5375 42.5296 77.1601 42.5296C76.7827 42.5296 76.26 42.4963 75.8242 42.2127C75.4796 41.9785 75.2229 41.6355 75.0947 41.2382L76.2348 40.793C76.2693 40.9962 76.3731 41.181 76.5285 41.3159C76.7106 41.4476 76.9293 41.5185 77.1538 41.5185C77.3783 41.5185 77.5971 41.4476 77.7791 41.3159C77.9334 41.1803 78.0365 40.9957 78.0713 40.793L79.2256 41.2382Z" fill="white"/>
<path d="M80.651 43.7369C80.9179 43.5706 81.1991 43.4285 81.4911 43.3123C81.8775 43.1837 82.2827 43.1216 82.6896 43.1284C82.9644 43.1284 83.8961 43.149 84.4108 43.6513C84.5378 43.7706 84.6379 43.9157 84.7043 44.0769C84.7708 44.2382 84.8021 44.4118 84.7961 44.5862C84.8059 44.7454 84.7829 44.905 84.7285 45.0549C84.6742 45.2048 84.5897 45.3419 84.4803 45.4577C84.3587 45.5824 84.2124 45.6802 84.0508 45.7445C84.3066 45.8047 84.5423 45.9308 84.7346 46.1105C84.8477 46.219 84.9364 46.3504 84.9947 46.4961C85.053 46.6418 85.0795 46.7983 85.0725 46.9551C85.0747 47.1534 85.0366 47.3501 84.9606 47.5331C84.8846 47.7162 84.7722 47.8818 84.6303 48.0199C84.2008 48.4446 83.6071 48.5697 82.7607 48.5697C82.288 48.5772 81.8179 48.4993 81.3727 48.34C81.0428 48.2097 80.7349 48.029 80.46 47.8044L81.1642 46.7253C81.3558 46.89 81.5682 47.0285 81.7959 47.1373C82.0469 47.2391 82.3147 47.2929 82.5854 47.2958C82.7902 47.3011 82.9934 47.2588 83.1792 47.1722C83.2494 47.1356 83.308 47.08 83.3482 47.0116C83.3884 46.9433 83.4086 46.8649 83.4065 46.7856C83.4078 46.7105 83.385 46.6371 83.3415 46.576C83.298 46.515 83.2361 46.4695 83.1649 46.4465C82.9738 46.3839 82.7738 46.3528 82.5728 46.3546H81.9538V45.2454H82.4275C82.6354 45.2494 82.8425 45.2183 83.0402 45.1535C83.1096 45.1271 83.1696 45.0807 83.2126 45.02C83.2556 44.9593 83.2797 44.8872 83.2818 44.8128C83.2783 44.7388 83.2528 44.6676 83.2086 44.6083C83.1645 44.549 83.1036 44.5043 83.0339 44.4801C82.8704 44.4143 82.6951 44.383 82.5191 44.3882C82.2881 44.3849 82.0591 44.4319 81.848 44.526C81.6492 44.6076 81.4643 44.7199 81.3 44.8588L80.651 43.7369Z" fill="white"/>
<path d="M91.0167 46.1343H87.2269C87.2293 46.4504 87.3372 46.7567 87.5333 47.0042C87.6431 47.1135 87.7747 47.1983 87.9195 47.2529C88.0643 47.3075 88.2189 47.3307 88.3733 47.3211C88.6029 47.3269 88.8299 47.2723 89.0318 47.1626C89.1808 47.0575 89.2995 46.9149 89.376 46.7491L90.9267 46.9075C90.7666 47.4387 90.4198 47.8936 89.9508 48.1878C89.4592 48.4614 88.9017 48.593 88.3402 48.5681C87.579 48.5681 86.9079 48.4303 86.3142 47.8361C86.0641 47.5747 85.8682 47.2662 85.7375 46.9284C85.6069 46.5907 85.5442 46.2303 85.5531 45.8681C85.544 45.1217 85.8217 44.4005 86.3284 43.8541C86.9395 43.2393 87.7085 43.1221 88.2754 43.1221C88.8423 43.1221 89.6634 43.2266 90.2951 43.8874C90.9015 44.5212 91.012 45.3246 91.012 45.96V46.1359L91.0167 46.1343ZM89.5055 45.1534C89.4492 44.9291 89.3342 44.724 89.1724 44.5592C88.9461 44.3655 88.6563 44.2629 88.359 44.2714C88.0617 44.2799 87.7781 44.3988 87.5633 44.6052C87.4204 44.7587 87.3216 44.9482 87.2774 45.1534H89.5055Z" fill="white"/>
<path d="M91.7583 43.2988H93.4005V45.0688H95.2386V43.2988H96.8793V48.3979H95.2386V46.3966H93.4005V48.3979H91.7583V43.2988Z" fill="white"/>
<path d="M24.258 36.4141H8.04237C4.87629 36.4141 3.11719 38.1792 3.11719 41.3562V57.6215C3.11719 60.7905 4.87629 62.5636 8.04237 62.5636H24.2517C27.4099 62.5636 29.1769 60.7985 29.1769 57.6215V41.3562C29.1769 38.1792 27.4178 36.4141 24.258 36.4141ZM19.8745 45.7169V48.2141L18.6112 49.4817L24.8391 55.7391L22.3773 58.203L16.1478 51.9536L9.9199 58.1967L7.45652 55.7327L13.6844 49.4881L12.4212 48.2204V45.7295L11.5258 44.8232V46.9908L10.7363 47.7831L7.5939 44.6188L6.81857 45.3968C6.83054 44.0002 7.39252 42.665 8.38187 41.6826C9.93253 40.1789 11.6127 40.8603 12.1859 41.4355L15.3267 44.5855L14.5261 45.3905L16.1478 47.0178L17.7696 45.3762L16.969 44.5728L20.1082 41.4212C20.6814 40.846 22.3631 40.1662 23.9138 41.67C24.9027 42.6526 25.4646 43.9876 25.4771 45.3841L24.7018 44.6061L21.5546 47.7625L20.7651 46.9702V44.8232L19.8745 45.7169Z" fill="white"/>
</svg>
