<svg width="100" height="100" viewBox="0 0 100 100" fill="none" xmlns="http://www.w3.org/2000/svg">
<path d="M11.3018 45.6985V49.8781L22.7231 48.6488V44.1102L11.3018 45.6985ZM77.816 35.741C72.1053 36.9433 69.3121 41.1008 69.6349 47.8817L75.7179 47.3457C75.4399 43.5152 76.6242 42.6055 77.821 42.1064V35.741H77.816ZM69.3742 58.5374V64.4898H89.0064V57.9498L69.3717 58.5374H69.3742ZM86.3745 37.585C87.1976 38.3571 87.8329 39.3043 88.2325 40.3549C88.632 41.4056 88.7855 42.5325 88.6811 43.6504C88.3013 47.985 86.1759 51.459 80.2616 57.1729L70.5784 57.4876C70.5784 57.4876 77.3219 51.4222 79.8569 48.4595C81.5006 46.5393 82.1983 44.4667 81.5229 43.0849C81.0959 42.2097 80.135 41.7745 78.9507 41.8384V35.6009C81.8706 35.1854 84.5446 35.8836 86.3745 37.585ZM43.4577 59.3168V64.4799H50.7351V59.098L43.4577 59.3168ZM37.4988 42.0523V64.4922H42.5117V41.3541L37.4988 42.0523ZM59.0999 58.8472V64.5021H67.507V58.6014L59.0999 58.8472ZM59.0999 48.9119V54.6528L64.6095 54.3528V48.4521L59.0999 48.9193V48.9119ZM59.0999 39.038V44.6732L67.507 43.7586V37.8579L59.0999 39.0282V39.038ZM52.2521 39.992V64.4898H58.0224V39.188L52.2521 39.992ZM29.4616 59.7348V64.4898H35.8178V59.543L29.4616 59.7348ZM29.4616 51.4344V56.2706L33.6329 56.0444V51.0779L29.4616 51.4344ZM29.4616 43.171V47.9112L35.8178 47.2204V42.2859L29.4616 43.171ZM24.2476 43.9086V64.5021H28.6522V43.2841L24.25 43.8963L24.2476 43.9086ZM14.9417 50.1412L19.1179 49.7183V64.4898H14.9417V50.1412Z" fill="white"/>
</svg>
