<svg width="100" height="100" viewBox="0 0 100 100" fill="none" xmlns="http://www.w3.org/2000/svg">
<path fill-rule="evenodd" clip-rule="evenodd" d="M91.2237 70.1845H48.7705V29.8154H91.2237V70.1845ZM62.1799 63.6583C62.1799 63.7835 62.1784 63.8927 62.1764 63.9863L64.4081 60.5919H65.4637V65.4491H64.5187V62.2475C64.5187 62.1677 64.5195 62.0942 64.5218 62.0271L62.2423 65.4491H61.2288V60.5919H62.1799V63.6583ZM66.8946 61.2328C67.3797 60.7569 68.0005 60.516 68.7385 60.516L68.7384 60.5159C69.2113 60.5159 69.6101 60.583 69.9245 60.7152L69.9793 60.7387V61.7245L69.8413 61.644C69.5312 61.4633 69.1975 61.3758 68.8217 61.3758C68.3347 61.3758 67.9331 61.5295 67.6302 61.8344C67.3292 62.1381 67.1758 62.5546 67.1758 63.0711C67.1758 63.5685 67.3146 63.9508 67.6001 64.241C67.8826 64.5304 68.2479 64.6707 68.7165 64.6707C69.1559 64.6707 69.5227 64.5728 69.838 64.3717L69.9793 64.2814V65.2206L69.9304 65.2457C69.5555 65.4334 69.0899 65.5289 68.5462 65.5289C67.8306 65.5289 67.2483 65.3035 66.8147 64.8588C66.382 64.4118 66.1631 63.824 66.1631 63.1107C66.1631 62.3399 66.4093 61.7075 66.8946 61.2328ZM57.1889 62.5585H59.256V60.5919H60.2346V65.4491H59.256V63.4221H57.1889V65.4491H56.2151V60.5919H57.1889V62.5585ZM84.5287 63.6583C84.5287 63.7767 84.5276 63.8853 84.5249 63.9817L86.7565 60.5916H87.8124V65.4488H86.866V62.2471C86.866 62.1673 86.8667 62.0949 86.869 62.0297L84.5897 65.4488H83.5784V60.5916H84.5287V63.6583ZM53.8878 62.8909L53.8956 62.8703H53.8958L54.8484 60.5916H55.892L54.347 63.9605C54.07 64.5563 53.7944 64.9708 53.5265 65.1921C53.251 65.4182 52.9488 65.5331 52.6267 65.5331C52.3759 65.5331 52.1592 65.4957 51.9831 65.4233L51.9269 65.4001V64.4406L52.0663 64.5235C52.3792 64.7115 52.6891 64.7539 52.9515 64.5289C53.069 64.4217 53.1989 64.2337 53.338 63.9712L51.6975 60.5916H52.8069L53.8154 62.866C53.8259 62.8883 53.8386 62.9238 53.8563 62.9743C53.8655 62.949 53.876 62.9216 53.8878 62.8909ZM73.1044 46.3105L73.0894 52.6371H73.0895C78.2542 52.9736 83.2501 54.1774 88.0719 56.28C75.7292 51.8991 63.9762 52.0799 52.7492 56.2674C56.7401 54.4785 61.3827 53.1951 67.0021 52.6695V47.7918C63.3661 48.2092 60.7741 46.1714 64.2841 43.1054C62.3846 45.5409 62.256 47.2697 67.011 46.8481V36.0254L70.1525 33.8789L70.1606 46.2562L70.6034 46.0754L70.5941 39.1192L73.1125 37.1499V45.0855C76.7843 42.9929 79.0696 40.3792 74.4197 39.3453C81.4804 39.6416 76.6857 45.0422 73.1044 46.3105ZM70.1517 47.2273L70.1544 52.5632H70.61L70.6042 47.0828L70.1517 47.2273ZM78.774 61.2159C79.2106 60.7514 79.811 60.5159 80.5586 60.5159H80.5587C81.2524 60.5159 81.8212 60.7452 82.2478 61.1969C82.6702 61.6467 82.8849 62.2405 82.8849 62.9624C82.8849 63.7474 82.6652 64.3762 82.2332 64.833C81.7954 65.2946 81.2077 65.5289 80.4843 65.5289C79.7699 65.5289 79.191 65.2981 78.7644 64.8433C78.3347 64.3913 78.1174 63.7963 78.1174 63.0757C78.1174 62.3011 78.3385 61.6755 78.774 61.2159ZM80.4858 64.6703C80.9181 64.6703 81.2504 64.5331 81.4993 64.2491H81.4994C81.7472 63.9631 81.8732 63.5549 81.8732 63.0386C81.8732 62.506 81.7511 62.0891 81.5099 61.8004C81.2682 61.5148 80.9444 61.3753 80.5201 61.3753C80.1081 61.3753 79.781 61.5218 79.5209 61.8235C79.2588 62.1302 79.1317 62.5241 79.1317 63.0278C79.1317 63.5223 79.2596 63.9257 79.5108 64.2279C79.7648 64.5253 80.0839 64.6703 80.4858 64.6703ZM76.0062 60.5915C76.5677 60.5915 77.0167 60.7255 77.3405 60.9896H77.3405C77.6623 61.2524 77.8249 61.6304 77.8249 62.1145C77.8249 62.5973 77.6569 62.9938 77.3258 63.294C76.9932 63.5996 76.5412 63.7553 75.9832 63.7553H75.439V65.449H74.4656V60.5915H76.0062ZM75.8617 62.9407C76.1762 62.9407 76.4167 62.8713 76.5778 62.7333C76.7342 62.5969 76.8109 62.4046 76.8109 62.1476C76.8109 61.6516 76.5203 61.4096 75.9238 61.4096H75.439V62.9407H75.8617ZM71.6026 61.4307H70.2327H70.2326V60.5918H73.9499V61.4307H72.578V65.449H71.6026V61.4307ZM85.7281 59.7054C85.8841 59.7054 86.0087 59.6623 86.1073 59.5732V59.5733C86.2082 59.4839 86.2703 59.3556 86.2927 59.1926L86.3035 59.1147H87.1297L87.1185 59.2137C87.0807 59.5633 86.9312 59.8431 86.6741 60.0431C86.4221 60.2442 86.1003 60.3468 85.7184 60.3468C85.3269 60.3468 85.0035 60.2442 84.7577 60.0419C84.5072 59.8419 84.3688 59.5618 84.3457 59.21L84.34 59.1147H85.1642L85.1708 59.1976C85.1974 59.544 85.3747 59.7054 85.7281 59.7054Z" fill="white" fill-opacity="0.75"/>
<path fill-rule="evenodd" clip-rule="evenodd" d="M48.7729 70.1845H8.77686V29.8154H48.7729V70.1845ZM21.8251 39.2709L21.3761 39.9541L20.5961 41.0151H19.9935V38.131H20.6717V39.9375H20.6844L21.314 39.0138L21.9569 38.131H22.5169V41.0151H21.8386V39.2709H21.8251ZM23.7085 40.9573C23.5608 40.9018 23.4383 40.8243 23.34 40.7249V40.725C23.2424 40.6254 23.1692 40.5068 23.1218 40.3684C23.0733 40.2309 23.049 40.0786 23.049 39.9125V39.2335C23.049 39.0843 23.0733 38.9421 23.1218 38.8064C23.1692 38.6712 23.2425 38.5517 23.34 38.4481C23.4383 38.3444 23.5607 38.2624 23.7085 38.2015C23.8564 38.141 24.0294 38.1105 24.2298 38.1105C24.523 38.1105 24.7678 38.1776 24.9627 38.3118C25.1577 38.4451 25.2938 38.6228 25.3697 38.8439L24.7266 39.0589C24.7031 38.9598 24.6487 38.8763 24.5639 38.8088C24.4788 38.741 24.3659 38.707 24.2248 38.707C24.1396 38.707 24.0667 38.7202 24.0051 38.7464C23.9426 38.7729 23.8919 38.8077 23.8505 38.8523C23.8089 38.8967 23.7786 38.9467 23.7585 39.0034C23.7377 39.0601 23.7276 39.1171 23.7276 39.1752V39.9587C23.7276 40.022 23.7377 40.0828 23.7585 40.1406C23.7786 40.1988 23.8089 40.2501 23.8505 40.2941C23.8918 40.3383 23.9426 40.3741 24.0051 40.4019C24.0668 40.4293 24.1396 40.4432 24.2248 40.4432C24.3628 40.4432 24.4749 40.4097 24.5616 40.3414C24.6487 40.274 24.7031 40.1877 24.7266 40.0828L25.3697 40.3144C25.2938 40.5414 25.1559 40.7187 24.9578 40.8471C24.7604 40.9757 24.5165 41.0401 24.2298 41.0401C24.0294 41.0401 23.8564 41.012 23.7085 40.9573ZM36.3027 63.0101C36.4499 62.8113 36.6468 62.7114 36.8922 62.7114C36.9835 62.7114 37.0673 62.7207 37.1424 62.7392C37.2183 62.7581 37.2884 62.7889 37.3543 62.832L37.1482 63.3076C37.0789 63.2671 37.0118 63.2397 36.9467 63.2243C36.8807 63.2086 36.8155 63.2012 36.7505 63.2012C36.6152 63.2012 36.5061 63.2386 36.421 63.3161C36.3355 63.3927 36.2939 63.5052 36.2939 63.6521V65.0263H35.7377V62.7346H36.2834V63.0101H36.3027ZM17.6662 62.778C17.7827 62.7333 17.8963 62.7114 18.0081 62.7114C18.2566 62.7114 18.4562 62.778 18.6073 62.9117C18.7576 63.0463 18.8335 63.2486 18.8335 63.5199V65.022H18.2778V63.6629C18.2778 63.5148 18.2432 63.4008 18.1726 63.3214C18.1018 63.2409 17.9877 63.2012 17.8316 63.2012C17.6967 63.2012 17.585 63.2409 17.4971 63.3214C17.4084 63.4008 17.3649 63.5148 17.3649 63.6629V65.022H16.8092V62.7298H17.3649V62.9699H17.3741C17.4527 62.8867 17.5503 62.8227 17.6662 62.778ZM15.3513 39.6065L15.5722 38.9267H15.5721L15.8314 38.1313H16.5498L15.7301 40.2277C15.6692 40.3826 15.6098 40.5144 15.5547 40.6235C15.498 40.7325 15.4364 40.8215 15.3693 40.8909C15.3015 40.9595 15.2256 41.0096 15.1396 41.0397C15.0545 41.0701 14.9524 41.0851 14.8318 41.0851H14.5104V40.5633H14.7527C14.8202 40.5633 14.8707 40.5495 14.9046 40.5217C14.9381 40.4944 14.9666 40.457 14.9902 40.4099L15.0167 40.356L14.0791 38.1313H14.819L15.0877 38.9101L15.3293 39.6065H15.3513ZM15.5313 64.437C15.6203 64.3561 15.6658 64.2412 15.6658 64.0941V62.7341H16.2203V65.022H15.6658V64.7931H15.6507C15.5752 64.8798 15.4796 64.9445 15.3652 64.9861C15.2507 65.0278 15.139 65.0494 15.0311 65.0494C14.7794 65.0494 14.5771 64.9831 14.4245 64.8506C14.273 64.718 14.1963 64.5129 14.1963 64.2362V62.7341H14.7517V64.0941C14.7517 64.2506 14.786 64.3674 14.8546 64.4444C14.9227 64.5215 15.0384 64.5593 15.2014 64.5593C15.3316 64.5593 15.441 64.5191 15.5313 64.437ZM15.0125 46.3701H14.3347H14.3346V43.486H16.5007V44.0579H15.0125V46.3701ZM24.8722 45.8399L25.2068 45.7731V45.7732C25.2606 45.7292 25.3039 45.6815 25.339 45.6303C25.3751 45.5794 25.4037 45.5142 25.4268 45.4356C25.4507 45.3566 25.4692 45.2583 25.4819 45.1392C25.4954 45.0206 25.5078 44.8698 25.5201 44.6876L25.586 43.4864H27.6685V45.8025H27.981V47.0372H27.4176V46.3701H25.4407V47.0372H24.8722V45.8399ZM26.0746 45.303C26.0599 45.3982 26.0399 45.4891 26.0148 45.5762V45.5762C25.9905 45.6633 25.9555 45.7384 25.9119 45.8025H26.9998V44.062H26.1624L26.1227 44.7292C26.1174 44.8174 26.1116 44.9114 26.1051 45.0109C26.0996 45.1103 26.0892 45.2078 26.0746 45.303ZM38.8526 38.9679L39.2577 38.1309H39.8973V41.015H39.2195V39.6435L39.206 39.6392L38.929 40.2234L38.7217 40.6296H38.2025L37.9863 40.2025L37.7173 39.6392L37.7046 39.6519V41.015H37.0268V38.1309H37.6395L38.0538 38.9679L38.4507 39.8338H38.4684L38.8526 38.9679ZM29.5744 64.296L29.815 63.5842L30.1248 62.7341H30.709L29.638 65.4837C29.5694 65.6598 29.4716 65.7796 29.3436 65.8467C29.2165 65.9122 29.0782 65.9461 28.9309 65.9461H28.7251V65.5068H28.8774C28.9486 65.5068 29.0095 65.4829 29.0588 65.4348C29.1082 65.3874 29.1456 65.3314 29.1721 65.2668L29.2944 64.9061L28.4003 62.7341H29.0003L29.3144 63.5753L29.5545 64.296H29.5744ZM31.5988 40.9487C31.4505 40.8878 31.3274 40.8054 31.2288 40.702V40.7021C31.1302 40.5984 31.0573 40.4786 31.0088 40.3413C30.9599 40.205 30.9355 40.0616 30.9355 39.9125V39.2334C30.9355 39.0843 30.9599 38.9421 31.0088 38.8064C31.0573 38.6712 31.1302 38.5517 31.2288 38.448C31.3274 38.3443 31.4504 38.2627 31.5988 38.2018C31.7467 38.1409 31.9214 38.1104 32.121 38.1104C32.3052 38.1104 32.4721 38.1386 32.6212 38.1957C32.7688 38.2519 32.8956 38.3301 32.9993 38.4295C33.1033 38.529 33.1834 38.6477 33.2394 38.7857C33.2952 38.924 33.3234 39.0732 33.3234 39.2334V39.9125C33.3234 40.0843 33.2944 40.2397 33.2366 40.3788C33.1792 40.5186 33.099 40.6374 32.9945 40.7352C32.8901 40.8335 32.7642 40.9083 32.6158 40.961C32.4678 41.0138 32.3021 41.04 32.121 41.04C31.9214 41.04 31.7467 41.0092 31.5988 40.9487ZM31.645 39.0034C31.6246 39.0601 31.6146 39.1174 31.6146 39.1752V39.9583C31.6146 40.0219 31.6246 40.0827 31.645 40.1406C31.6659 40.1988 31.6968 40.25 31.7384 40.2936C31.7795 40.3383 31.8312 40.3741 31.8928 40.4018C31.9549 40.4293 32.0285 40.4427 32.1145 40.4427C32.279 40.4427 32.4071 40.3968 32.4972 40.3044C32.5865 40.2118 32.6313 40.0966 32.6313 39.9583V39.1752C32.6313 39.0485 32.5865 38.9383 32.4972 38.8457C32.407 38.7532 32.279 38.7074 32.1145 38.7074C32.0285 38.7074 31.9548 38.7201 31.8928 38.7463C31.8312 38.7729 31.7795 38.8079 31.7384 38.8523C31.6967 38.8962 31.6659 38.9467 31.645 39.0034ZM30.1175 45.7816H29.0913H29.0912L28.8623 46.3701H28.1482L29.3378 43.486H29.8708L31.0593 46.3701H30.346L30.1175 45.7816ZM29.5933 44.34L29.4172 44.9033L29.302 45.2428H29.9058L29.7914 44.9114L29.611 44.34H29.5933ZM38.9533 64.437C39.0426 64.356 39.0877 64.2412 39.0877 64.0941H39.0878V62.734H39.6431V65.0219H39.0878V64.7931H39.0731C38.9977 64.8798 38.9024 64.9445 38.7884 64.9861C38.6739 65.0277 38.5621 65.0493 38.4542 65.0493C38.2026 65.0493 38.0003 64.983 37.8477 64.8505C37.6954 64.7179 37.6195 64.5129 37.6195 64.2362V62.734H38.1748V64.0941C38.1748 64.2505 38.2084 64.3673 38.2765 64.4443C38.3448 64.5214 38.4607 64.5592 38.6238 64.5592C38.754 64.5592 38.8642 64.5191 38.9533 64.437ZM27.087 41.015H26.4091V38.7031H25.5724V38.1309H27.924V38.7031H27.087V41.015ZM29.6153 39.9621H29.0162V41.015H28.338V38.1313H29.6019C29.7634 38.1313 29.9101 38.1525 30.0424 38.1956C30.1742 38.2384 30.2871 38.2996 30.3811 38.3798C30.4752 38.46 30.5484 38.5571 30.5993 38.6719C30.6505 38.7864 30.6759 38.9159 30.6759 39.0588C30.6759 39.1891 30.649 39.3093 30.5927 39.4196C30.5372 39.5301 30.4616 39.6257 30.3657 39.7055C30.2706 39.7856 30.1584 39.8484 30.0289 39.894C29.8998 39.9397 29.7618 39.9621 29.6153 39.9621ZM29.5668 38.7031H29.0161V39.3906H29.5837C29.6955 39.3906 29.7914 39.3598 29.8708 39.2974C29.9502 39.2354 29.9896 39.1517 29.9896 39.0469C29.9896 38.9309 29.9522 38.8442 29.8793 38.7879C29.8057 38.7312 29.7021 38.7031 29.5668 38.7031ZM33.204 61.8146C33.266 61.7625 33.3396 61.7232 33.4255 61.6966H33.4254C33.5107 61.6701 33.6001 61.6573 33.6953 61.6573H34.054V62.1105H33.7831C33.6984 62.1105 33.639 62.1332 33.6066 62.1771C33.5742 62.2219 33.5576 62.2797 33.5576 62.3506V62.7344H34.054V63.1548H33.5576V65.0219H33.0027V63.1548H32.7172V62.7344H33.0027V62.2905C33.0027 62.1826 33.0208 62.0893 33.0571 62.0106C33.093 61.9321 33.1424 61.8666 33.204 61.8146ZM24.4764 44.1407C24.5316 44.279 24.5597 44.4282 24.5597 44.5885H24.5597V45.268C24.5597 45.439 24.5309 45.5947 24.4734 45.7339C24.4163 45.8733 24.3358 45.992 24.2318 46.0903C24.1273 46.1882 24.0006 46.2633 23.8529 46.3158C23.7046 46.3685 23.5396 46.3947 23.3577 46.3947C23.1577 46.3947 22.9839 46.3642 22.836 46.3037C22.6876 46.2429 22.5639 46.1604 22.466 46.0571C22.3674 45.9534 22.2945 45.8332 22.2456 45.6968C22.1971 45.5601 22.1727 45.4166 22.1727 45.2679V44.5884C22.1727 44.4393 22.1971 44.2971 22.2456 44.1614C22.2945 44.0262 22.3674 43.9067 22.466 43.803C22.5639 43.6994 22.6876 43.6173 22.836 43.5565C22.9839 43.496 23.1577 43.4655 23.3577 43.4655C23.5423 43.4655 23.7093 43.494 23.8572 43.5503C24.006 43.607 24.1316 43.6852 24.2365 43.7846C24.3409 43.884 24.4201 44.0028 24.4764 44.1407ZM23.7335 45.6591C23.8233 45.5669 23.8676 45.4517 23.8676 45.3134V44.5303C23.8676 44.4032 23.8233 44.2937 23.7335 44.2013C23.6433 44.1083 23.5162 44.0621 23.3509 44.0621C23.2649 44.0621 23.192 44.0752 23.1299 44.101C23.0684 44.1277 23.0159 44.1631 22.9751 44.2071C22.9339 44.2513 22.9022 44.3018 22.8822 44.3581C22.8613 44.4152 22.8514 44.4722 22.8514 44.5303V45.3135C22.8514 45.3774 22.8613 45.4379 22.8822 45.4957C22.9022 45.5539 22.9339 45.6052 22.9751 45.6492C23.0159 45.6934 23.0684 45.7292 23.1299 45.7567C23.192 45.7844 23.2649 45.7978 23.3509 45.7978C23.5162 45.7978 23.6433 45.7516 23.7335 45.6591ZM21.9596 63.716C22.0563 63.7422 22.1411 63.7799 22.2151 63.8293V63.8293C22.288 63.8787 22.348 63.9434 22.3936 64.0236C22.4395 64.1033 22.4629 64.2039 22.4629 64.3238C22.4629 64.4383 22.436 64.5396 22.384 64.6287C22.3316 64.718 22.2607 64.7944 22.1708 64.858C22.0803 64.9208 21.9755 64.9685 21.8556 65.0013C21.7366 65.0333 21.6086 65.0494 21.4702 65.0494C21.2903 65.0494 21.1115 65.0262 20.9326 64.9801C20.7539 64.9342 20.5816 64.8417 20.4148 64.7029L20.7145 64.3283C20.829 64.4266 20.9503 64.4967 21.0799 64.5384C21.2097 64.58 21.3484 64.6012 21.4945 64.6012C21.6128 64.6012 21.7131 64.578 21.7948 64.5318C21.8768 64.4856 21.9177 64.4213 21.9177 64.338C21.9177 64.2574 21.8834 64.1985 21.8143 64.16C21.7458 64.121 21.6357 64.0941 21.4853 64.0794C21.3774 64.0667 21.2684 64.0513 21.1585 64.0328C21.049 64.0143 20.9501 63.9819 20.8618 63.9357C20.7731 63.8894 20.7007 63.8266 20.6452 63.7461C20.5897 63.6664 20.5619 63.5597 20.5619 63.4273C20.5619 63.3103 20.5862 63.207 20.6351 63.118C20.6844 63.0285 20.7503 62.9538 20.8317 62.8937C20.9142 62.8335 21.0101 62.7881 21.1191 62.7573C21.2293 62.726 21.3458 62.7109 21.4702 62.7109C21.6571 62.7109 21.8259 62.7306 21.9759 62.7684C22.1273 62.8077 22.2696 62.8744 22.4036 62.9699L22.1384 63.3672C22.0241 63.2963 21.9104 63.2451 21.7974 63.215C21.6846 63.1841 21.5785 63.1684 21.4803 63.1684C21.3492 63.1684 21.251 63.1923 21.1859 63.2401C21.1199 63.2878 21.088 63.3457 21.088 63.4131C21.088 63.4905 21.1334 63.546 21.2252 63.5799C21.3168 63.6134 21.4641 63.6416 21.6672 63.6628C21.765 63.6721 21.8621 63.6901 21.9596 63.716ZM23.6067 64.3053C23.6067 64.3854 23.6233 64.4486 23.6553 64.4948L23.6553 64.4948C23.6877 64.5412 23.7462 64.5642 23.8302 64.5642H24.0106V65.022H23.6761C23.4961 65.022 23.3462 64.9723 23.2291 64.8737C23.1111 64.7754 23.0518 64.6332 23.0518 64.4486V63.1545H22.772V62.7298H23.0568V62.1337H23.6017V62.7298H23.9751V63.1545H23.6067V64.3053ZM36.3837 38.1309V41.015H35.7058V39.2708H35.6919L35.2426 39.954L34.463 41.015H33.8603V38.1309H34.5386V39.9374H34.5512L35.1813 39.0137L35.8241 38.1309H36.3837ZM31.5877 63.01C31.7357 62.8112 31.9322 62.7113 32.1773 62.7113C32.2691 62.7113 32.3527 62.7206 32.4278 62.7391C32.5038 62.758 32.5739 62.7888 32.6394 62.832L32.4324 63.3075C32.3638 63.2671 32.2976 63.2397 32.2316 63.2242C32.1662 63.2085 32.1006 63.2012 32.0351 63.2012C31.9006 63.2012 31.7912 63.2386 31.7059 63.316C31.6208 63.3927 31.578 63.5052 31.578 63.652V65.0262H31.0239V62.7345H31.5689V63.01H31.5877ZM25.0407 63.01C25.188 62.8112 25.3848 62.7113 25.6303 62.7113C25.7224 62.7113 25.8053 62.7206 25.8808 62.7391C25.9563 62.758 26.0264 62.7888 26.0923 62.832L25.8858 63.3075C25.8173 63.2671 25.7506 63.2397 25.6842 63.2242C25.6188 63.2085 25.5537 63.2012 25.4882 63.2012C25.354 63.2012 25.2443 63.2386 25.1595 63.316C25.0735 63.3927 25.0306 63.5052 25.0306 63.652V65.0262H24.4765V62.7345H25.0215V63.01H25.0407ZM27.7599 62.8054C27.9056 62.872 28.0227 62.9668 28.1113 63.0902C28.1731 63.1795 28.2192 63.2878 28.2485 63.4158C28.2778 63.5437 28.2909 63.6856 28.2875 63.8432C28.2875 64.0185 28.2737 64.1692 28.2459 64.2937C28.2181 64.4186 28.1766 64.5268 28.1206 64.6193C28.0258 64.7642 27.8983 64.8737 27.7375 64.9453C27.5768 65.0178 27.4004 65.0544 27.2073 65.0544C27.0234 65.0544 26.8597 65.0247 26.7159 64.9661C26.5714 64.9079 26.4558 64.8166 26.3676 64.6937C26.2331 64.5056 26.1687 64.2347 26.1753 63.8802C26.1753 63.7572 26.1845 63.6397 26.203 63.5287C26.2212 63.4181 26.2527 63.3195 26.2982 63.2335C26.3837 63.064 26.5101 62.9333 26.6785 62.8423C26.8481 62.7522 27.0435 62.7068 27.2662 62.7068C27.4496 62.7068 27.6143 62.7394 27.7599 62.8054ZM27.6786 64.2505C27.6951 64.2069 27.7064 64.153 27.7129 64.0886V64.0886C27.7202 64.0235 27.7229 63.9422 27.7229 63.8431C27.7229 63.6647 27.7017 63.5302 27.6593 63.4411C27.6219 63.3518 27.5676 63.2859 27.4936 63.2423C27.4196 63.1991 27.3359 63.178 27.2438 63.178C27.1487 63.178 27.0627 63.2011 26.9873 63.2473C26.9121 63.2936 26.8538 63.3563 26.8145 63.4362C26.7852 63.4983 26.7645 63.566 26.7532 63.6396C26.7418 63.7137 26.734 63.7957 26.7313 63.8848C26.7313 63.9741 26.736 64.0559 26.7452 64.1299C26.7552 64.2039 26.7753 64.2687 26.8046 64.3237C26.8412 64.4039 26.8955 64.4663 26.9679 64.5111C27.04 64.5557 27.124 64.578 27.2196 64.578C27.3248 64.578 27.4188 64.551 27.5006 64.4967C27.5833 64.4432 27.6423 64.3607 27.6786 64.2505ZM17.6547 39.2874H18.659V38.1309H19.3284V41.015H18.659V39.838H17.6547V41.015H16.9768V38.1309H17.6547V39.2874ZM20.0074 65.022H19.452V62.7345H20.0074V65.022ZM21.6028 45.061C21.5068 45.1407 21.3951 45.2035 21.266 45.2494L21.2659 45.2494C21.1365 45.2945 20.9985 45.3177 20.8517 45.3177H20.2528V46.3696H19.5743V43.4859H20.839C21.0005 43.4859 21.1473 43.5076 21.2787 43.5503C21.4109 43.5931 21.5242 43.6547 21.6186 43.7346C21.7123 43.8151 21.7843 43.9122 21.836 44.0267C21.8876 44.1415 21.9134 44.271 21.9134 44.4144C21.9134 44.5442 21.8854 44.6645 21.8294 44.7751C21.7739 44.8852 21.698 44.9805 21.6028 45.061ZM20.2529 44.0578V44.7457L20.253 44.7457H20.8214C20.9328 44.7457 21.0279 44.7145 21.1069 44.6525C21.1863 44.5905 21.226 44.5068 21.226 44.402C21.226 44.2856 21.1893 44.1997 21.1161 44.1426C21.0429 44.0863 20.9385 44.0578 20.804 44.0578H20.2529ZM18.3399 43.5503C18.4879 43.607 18.6139 43.6852 18.7183 43.7846H18.7184C18.8228 43.884 18.9019 44.0028 18.9589 44.1408C19.0136 44.2791 19.0424 44.4283 19.0424 44.5885V45.268C19.0424 45.4391 19.0136 45.5948 18.9561 45.7339C18.8991 45.8734 18.8177 45.992 18.7142 46.0903C18.6096 46.1882 18.4837 46.2634 18.3353 46.3158C18.187 46.3686 18.0216 46.3948 17.8402 46.3948C17.6405 46.3948 17.4659 46.3643 17.3179 46.3038C17.17 46.2429 17.0463 46.1605 16.948 46.0571C16.8494 45.9534 16.7765 45.8333 16.7279 45.6968C16.6794 45.5601 16.6555 45.4167 16.6555 45.268V44.5885C16.6555 44.4394 16.6794 44.2971 16.7279 44.1615C16.7765 44.0262 16.8494 43.9067 16.948 43.8031C17.0462 43.6994 17.17 43.6174 17.3179 43.5565C17.4659 43.496 17.6405 43.4655 17.8402 43.4655C18.0247 43.4655 18.1911 43.494 18.3399 43.5503ZM18.2154 45.6591C18.3056 45.5669 18.3507 45.4517 18.3507 45.3134V44.5303C18.3507 44.4032 18.3055 44.2937 18.2154 44.2013C18.1252 44.1083 17.998 44.0621 17.8335 44.0621C17.7476 44.0621 17.674 44.0752 17.6116 44.101C17.5503 44.1277 17.4989 44.1631 17.4573 44.2071C17.4165 44.2513 17.3853 44.3018 17.3642 44.3581C17.3437 44.4152 17.3337 44.4722 17.3337 44.5303V45.3135C17.3337 45.3774 17.3437 45.4379 17.3642 45.4957C17.3853 45.5539 17.4165 45.6052 17.4573 45.6492C17.499 45.6934 17.5503 45.7292 17.6116 45.7567C17.674 45.7844 17.7476 45.7978 17.8335 45.7978C17.998 45.7978 18.1252 45.7516 18.2154 45.6591ZM35.0946 65.022H34.4268V64.3842H35.0946V65.022ZM20.0074 62.2859H19.452V61.8053H20.0074V62.2859Z" fill="white"/>
</svg>
