<svg width="100" height="100" viewBox="0 0 100 100" fill="none" xmlns="http://www.w3.org/2000/svg">
<path d="M15.299 35.3013L13.9261 39.0573H32.9433L34.3163 35.3013H15.299ZM13.2404 40.9328L11.8624 44.6872H30.8847L32.2576 40.9328H13.2404ZM11.1918 46.5661L9.81885 50.3204H28.8294L30.2024 46.5661H11.1918Z" fill="white"/>
<path d="M50.2421 51.758V51.8367C51.0133 52.1349 51.7333 52.5513 52.3762 53.0709C53.7173 54.1845 54.3141 55.6564 54.3141 57.5671C54.3141 60.7119 52.6528 62.9793 49.9252 63.696C49.087 63.9355 48.227 64.0142 46.6043 64.0142H38.3496V41.0073H45.6621C47.1709 41.0073 48.1918 41.086 49.1005 41.3238C51.7492 42.0405 53.4893 43.8725 53.4893 46.7762C53.4893 48.3285 52.9344 49.6414 52.0258 50.5172C51.5192 51.0446 50.913 51.4663 50.2421 51.758ZM42.9296 54.1845V60.2347H46.0913C47.0401 60.2347 47.9102 60.1543 48.5439 59.5649C49.1776 58.9754 49.4525 58.2118 49.4525 57.2205C49.4745 56.5108 49.2663 55.813 48.859 55.2311C48.1885 54.3938 47.3503 54.1962 45.9337 54.1962L42.9296 54.1845ZM42.8893 50.2057H45.4593C46.2489 50.2057 46.6445 50.2057 47.0401 50.0851C48.108 49.767 48.7803 48.8125 48.7803 47.4996C48.7803 45.9473 48.0678 45.2708 47.0401 44.9526C46.6043 44.8337 46.1718 44.7935 45.3017 44.7935H42.8893V50.2057ZM61.1907 64.0142V44.8655H54.5907V41.014H72.9307L71.6281 44.8655H65.7757V64.0075L61.1907 64.0142ZM74.3539 64.0142V41.0073H89.217L87.9128 44.8588H78.9004V49.9529H82.5768C85.5407 49.9529 87.083 50.6696 88.1492 51.5856C88.9874 52.3023 90.4023 53.8931 90.4023 57.0379C90.4023 60.1409 88.9404 61.8523 87.72 62.7315C86.2967 63.7262 84.7946 64.0041 81.752 64.0041L74.3539 64.0142ZM78.9004 60.1543H82.3387C83.643 60.1543 84.4342 59.8361 84.9874 59.1194C85.264 58.7611 85.658 58.1247 85.658 56.9308C85.658 55.7368 85.2624 54.9012 84.4728 54.3051C83.9984 53.9467 83.3647 53.7474 82.2934 53.7474H78.9004V60.1543Z" fill="white"/>
</svg>
