<svg width="30" height="30" viewBox="0 0 30 30" fill="none" xmlns="http://www.w3.org/2000/svg">
<path d="M25.6807 15.5174V6.01899C25.6807 5.60545 25.3507 5.2702 24.9437 5.2702H22.5154C22.1084 5.2702 21.7784 5.60545 21.7784 6.01899V15.5174C21.7784 15.9309 22.1084 16.2661 22.5154 16.2661H24.9437C25.3507 16.2661 25.6807 15.9309 25.6807 15.5174Z" fill="white"/>
<path fill-rule="evenodd" clip-rule="evenodd" d="M8.22111 15.2615V6.01936C8.22111 5.60752 7.88947 5.27057 7.48414 5.27057H5.05582C4.65048 5.27057 4.31885 5.60752 4.31885 6.01936V16.2665H4.31966V18.526C4.31966 18.944 4.74157 19.2861 5.25724 19.2861H13.0656V24.0509C13.0656 24.4645 13.3955 24.7997 13.8025 24.7997H16.2309C16.6379 24.7997 16.9678 24.4645 16.9678 24.0509V19.2861H24.7027C25.2184 19.2861 25.6403 18.944 25.6403 18.526V15.2615H8.22111Z" fill="url(#paint0_linear_247_7493)"/>
<path d="M5.25741 5.20032H24.7029C25.2186 5.20032 25.6405 5.54235 25.6405 5.96039V8.46481C25.6405 8.88285 25.2186 9.22488 24.7029 9.22488H4.31982V5.96039C4.31982 5.54235 4.74174 5.20032 5.25741 5.20032Z" fill="white"/>
<defs>
<linearGradient id="paint0_linear_247_7493" x1="6.6364" y1="13.3204" x2="23.3838" y2="24.492" gradientUnits="userSpaceOnUse">
<stop stop-color="#FF5129"/>
<stop offset="1" stop-color="#FF9400"/>
</linearGradient>
</defs>
</svg>
