<svg width="30" height="30" viewBox="0 0 30 30" fill="none" xmlns="http://www.w3.org/2000/svg">
<path d="M16.9636 15.3416L13.3963 17.7475C13.255 17.8425 13.0659 17.74 13.0659 17.5673V16.7135C13.0659 16.6412 13.102 16.5732 13.1605 16.5332L16.2136 14.4738L16.9625 14.98C17.089 15.0653 17.089 15.2542 16.9625 15.3395L16.9636 15.3416Z" fill="white"/>
<path d="M16.2136 15.848L13.0659 13.7249V12.7556C13.0659 12.5829 13.255 12.4804 13.3963 12.5753L16.9625 14.9812C17.089 15.0665 17.089 15.2554 16.9625 15.3407L16.2136 15.848Z" fill="white"/>
<path d="M14.1909 13.1117V17.212L13.3963 17.7484C13.255 17.8434 13.0659 17.7409 13.0659 17.5682V12.7556C13.0659 12.5829 13.255 12.4804 13.3963 12.5753L14.1909 13.1117Z" fill="white"/>
<rect x="14.167" y="14.6942" width="1.33601" height="1.80648" fill="white"/>
<path d="M26.7427 19.5499V6.24288C26.7427 5.66352 26.2804 5.19385 25.7102 5.19385H22.3082C21.7379 5.19385 21.2757 5.66352 21.2757 6.24288V19.5499C21.2757 20.1293 21.7379 20.5989 22.3082 20.5989H25.7102C26.2804 20.5989 26.7427 20.1293 26.7427 19.5499Z" fill="white"/>
<path fill-rule="evenodd" clip-rule="evenodd" d="M8.7248 19.2516V6.24301C8.7248 5.66604 8.26018 5.19397 7.69232 5.19397H4.29029C3.72243 5.19397 3.25781 5.66604 3.25781 6.24301V20.599H3.25817V23.7572C3.25817 24.3342 3.72278 24.8062 4.29065 24.8062H25.7043C26.2722 24.8062 26.7368 24.3342 26.7368 23.7572V19.2516H8.7248Z" fill="#FF5129"/>
<path d="M4.29225 5.19385H25.7059C26.2738 5.19385 26.7384 5.66591 26.7384 6.24288V9.69945C26.7384 10.2764 26.2738 10.7485 25.7059 10.7485H3.25977V6.24288C3.25977 5.66591 3.72438 5.19385 4.29225 5.19385Z" fill="white"/>
</svg>
