<svg width="30" height="30" viewBox="0 0 30 30" fill="none" xmlns="http://www.w3.org/2000/svg">
<path d="M9.69189 6.42377L17.9787 6.42377V3.38787L10.2562 3.38787C9.94583 3.38787 9.69189 3.64587 9.69189 3.96122V6.42377Z" fill="white"/>
<path d="M17.3296 3.35474V25.5074H19.713C20.0182 25.5074 20.2679 25.1119 20.2679 24.6285V4.23364C20.2679 3.75024 20.0182 3.35474 19.713 3.35474H17.3296Z" fill="white"/>
<path fill-rule="evenodd" clip-rule="evenodd" d="M9.61821 25.2868V4.23413C9.61821 3.75057 9.88041 3.35492 10.2009 3.35492H12.7034V23.5307H19.8508C20.1438 23.5307 20.3813 23.7682 20.3813 24.0612V26.1147C20.3813 26.4077 20.1438 26.6452 19.8508 26.6452H10.2142C9.92122 26.6452 9.6837 26.4077 9.6837 26.1147V25.2868H9.61821Z" fill="#FF5129"/>
</svg>
