<svg width="30" height="30" viewBox="0 0 30 30" fill="none" xmlns="http://www.w3.org/2000/svg">
<path d="M23.5 22.9998L23.5 6.99982H27.5L27.5 21.9103C27.5 22.5095 27.1601 22.9998 26.7446 22.9998H23.5Z" fill="white"/>
<path d="M27.5 8.99982L3.5 8.99982V5.75525C3.5 5.33976 3.92849 4.99982 4.45219 4.99982L26.5478 4.99982C27.0715 4.99982 27.5 5.33976 27.5 5.75525V8.99982Z" fill="white"/>
<path fill-rule="evenodd" clip-rule="evenodd" d="M5.92597 25L26.578 25C27.0851 25 27.5 24.6601 27.5 24.2446L27.5 21L6.5 21V5.57403C6.5 5.257 6.243 5 5.92597 5H3.07403C2.757 5 2.5 5.257 2.5 5.57403L2.5 24.426C2.5 24.743 2.757 25 3.07403 25H4.5H5.92597Z" fill="#FF5129"/>
</svg>
