<svg xmlns="http://www.w3.org/2000/svg" width="335" height="72" viewBox="0 0 335 72" fill="none">
    <path fill-rule="evenodd" clip-rule="evenodd" d="M54.4522 71.4137H36.035L23.0185 44.5676H16.046V71.4137H0.0836792V1.13578H27.6832C34.6087 1.13578 40.2598 3.22392 44.4609 7.5306C48.6774 11.7889 50.7878 17.0541 50.7878 23.2298C50.7878 27.974 49.5579 32.0585 47.0167 35.3864C44.8878 38.1743 42.2755 40.2763 39.1939 41.6746L54.4522 71.4137ZM37.1412 40.9066C37.61 40.7377 38.068 40.5528 38.5154 40.3521C41.405 39.0558 43.8499 37.0981 45.8501 34.4787C48.16 31.4538 49.3149 27.7042 49.3149 23.2298C49.3149 17.4321 47.3484 12.5481 43.4154 8.5779C39.5447 4.6077 34.3007 2.6226 27.6832 2.6226H1.55659V69.9269H14.5731V43.0808H23.9375L36.9539 69.9269H52.0306L37.1412 40.9066ZM108.219 71.4137H61.3545V1.13578H108.219V15.831H77.3168V28.6436H103.631V43.3388H77.3168V56.7185H108.219V71.4137ZM75.8439 58.2054V41.8519H102.158V30.1304H75.8439V14.3441H106.746V2.6226H62.8274V69.9269H106.746V58.2054H75.8439ZM164.924 60.9601L164.92 60.9656C159.933 67.9468 152.755 71.4137 143.592 71.4137H118.053V1.13578H143.592C152.755 1.13578 159.933 4.60269 164.92 11.5839L164.924 11.5894C166.939 14.4374 168.18 17.6571 168.649 21.2234C169.164 24.6167 169.413 29.6512 169.413 36.2747C169.413 42.9026 169.164 47.9675 168.649 51.4208C168.179 54.929 166.937 58.1161 164.924 60.9601ZM167.19 51.2103C167.69 47.8702 167.94 42.8917 167.94 36.2747C167.94 29.6578 167.69 24.7108 167.19 21.4338C166.753 18.0938 165.599 15.1004 163.726 12.4536C159.043 5.89959 152.332 2.6226 143.592 2.6226H119.526V69.9269H143.592C152.332 69.9269 159.043 66.6499 163.726 60.0959C165.599 57.4491 166.753 54.4872 167.19 51.2103ZM151.073 19.4525L151.055 19.429C149.212 17.0911 146.44 15.831 142.469 15.831H134.015V56.7185H142.469C146.44 56.7185 149.212 55.4584 151.055 53.1205L151.073 53.097L151.093 53.0743C152.04 51.9674 152.708 50.3774 152.995 48.1804C153.293 45.8915 153.45 41.9445 153.45 36.2747C153.45 30.605 153.293 26.658 152.995 24.3691C152.708 22.1721 152.04 20.582 151.093 19.4752L151.073 19.4525ZM132.542 58.2054V14.3441H142.469C146.776 14.3441 150.022 15.7306 152.207 18.5034C153.394 19.8898 154.143 21.7804 154.455 24.1751C154.767 26.5698 154.923 30.603 154.923 36.2747C154.923 41.9465 154.767 45.9797 154.455 48.3744C154.143 50.7691 153.394 52.6597 152.207 54.0461C150.022 56.8189 146.776 58.2054 142.469 58.2054H132.542ZM223.787 15.831H206.369V71.4137H190.407V15.831H172.989V1.13578H223.787V15.831ZM191.879 14.3441V69.9269H204.896V14.3441H222.314V2.6226H174.462V14.3441H191.879ZM279.948 71.4137H263.202L259.269 59.5031H237.693L233.666 71.4137H216.931L242.256 1.13578H254.525L279.948 71.4137ZM236.639 58.0163H260.331L264.264 69.9269H277.842L253.495 2.6226H243.288L219.034 69.9269H232.612L236.639 58.0163ZM327.317 63.8617C322.2 69.2954 315.523 71.9809 307.427 71.9809C300.011 71.9809 293.704 69.4813 288.607 64.4695L288.6 64.4627L288.593 64.4558C285.366 61.1983 283.297 57.576 282.48 53.5911L282.477 53.5768L282.475 53.5624C281.762 49.7037 281.42 43.9191 281.42 36.2747C281.42 28.6319 281.762 22.8759 282.475 19.0771L282.477 19.0674L282.479 19.0578C283.294 15.0123 285.362 11.356 288.593 8.09373L288.6 8.08681L288.607 8.07998C293.704 3.06816 300.011 0.568604 307.427 0.568604C315.011 0.568604 321.158 2.70229 325.68 7.12967C330.167 11.4613 332.93 16.8949 333.977 23.3684L334.257 25.0948H318.242L317.978 23.9423C317.281 20.8921 316.041 18.764 314.364 17.3887C312.692 16.0167 310.425 15.2638 307.427 15.2638C304.454 15.2638 302.081 16.2972 300.191 18.3605C299.168 19.5543 298.416 21.2314 298.014 23.4925C297.603 25.8049 297.382 30.0319 297.382 36.2747C297.382 42.5817 297.603 46.8396 298.014 49.1515C298.416 51.4131 299.169 53.0903 300.191 54.2841C302.005 56.2685 304.37 57.2857 307.427 57.2857C311.093 57.2857 313.741 56.1448 315.589 54.0123L315.593 54.0079L315.597 54.0036C317.304 52.0649 318.222 49.4507 318.222 46.0112V45.0403H305.954V31.0068H334.09V42.3246C334.09 47.3799 333.617 51.5759 332.621 54.8594C331.613 58.1842 329.834 61.187 327.317 63.8617ZM319.694 43.5534V46.0112C319.694 49.7293 318.696 52.7227 316.698 54.9914C314.513 57.5122 311.423 58.7725 307.427 58.7725C303.994 58.7725 301.215 57.6067 299.093 55.275C297.844 53.8255 297.001 51.8719 296.564 49.4142C296.127 46.9565 295.909 42.5766 295.909 36.2747C295.909 30.0359 296.127 25.6876 296.564 23.2298C297.001 20.7721 297.844 18.8185 299.093 17.369C301.278 14.9743 304.056 13.777 307.427 13.777C313.92 13.777 317.915 17.054 319.414 23.6079H332.524C332.442 23.1054 332.35 22.6098 332.248 22.1211C331.087 16.6032 328.557 11.9627 324.658 8.19978C320.475 4.10355 314.731 2.05543 307.427 2.05543C300.373 2.05543 294.442 4.41864 289.635 9.14507C286.576 12.233 284.672 15.636 283.923 19.3541C283.236 23.0092 282.892 28.6495 282.892 36.2747C282.892 43.9 283.236 49.5718 283.923 53.2899C284.672 56.945 286.576 60.3165 289.635 63.4044C294.442 68.1308 300.373 70.4941 307.427 70.4941C315.168 70.4941 321.442 67.9418 326.25 62.8373C328.622 60.3165 330.276 57.5122 331.213 54.4242C332.149 51.3363 332.617 47.3031 332.617 42.3246V32.4936H307.427V43.5534H319.694ZM32.6742 28.5682C34.0905 27.2406 34.8255 25.5088 34.8255 23.2298C34.8255 20.9509 34.0905 19.219 32.6742 17.8914C31.2461 16.5528 29.3483 15.831 26.8404 15.831H16.046V30.6287H26.8404C29.3483 30.6287 31.2461 29.9068 32.6742 28.5682ZM26.8404 32.1155C29.6497 32.1155 31.9284 31.2962 33.6764 29.6578C35.4244 28.0193 36.2984 25.8766 36.2984 23.2298C36.2984 20.583 35.4244 18.4404 33.6764 16.8019C31.9284 15.1634 29.6497 14.3441 26.8404 14.3441H14.5731V32.1155H26.8404ZM248.719 22.4736L240.291 46.9565H256.866L248.719 22.4736ZM248.695 27.0719L242.362 45.4696H254.817L248.695 27.0719Z" fill="#C20A26"/>
</svg>