<svg width="185" height="22" viewBox="0 0 185 22" fill="none" xmlns="http://www.w3.org/2000/svg">
<g clip-path="url(#clip0_1_870)">
<path d="M62.3728 1.24414V20.4934H59.2648V11.7891H49.7096V20.4934H46.6016V1.24414H49.7096V8.81989H59.2648V1.24414H62.3728Z" fill="white"/>
<mask id="mask0_1_870" style="mask-type:luminance" maskUnits="userSpaceOnUse" x="0" y="0" width="185" height="22">
<path d="M185 0.00488281H0V21.7054H185V0.00488281Z" fill="white"/>
</mask>
<g mask="url(#mask0_1_870)">
<path d="M88.5224 17.8573C87.6101 17.8723 86.7045 17.7 85.8615 17.351C85.0185 17.0019 84.2561 16.4837 83.6214 15.8282C82.9868 15.1727 82.4934 14.394 82.1717 13.5402C81.85 12.6864 81.707 11.7756 81.7514 10.8643C81.7083 9.95378 81.8523 9.04406 82.1746 8.19134C82.4968 7.33863 82.9904 6.56103 83.625 5.90656C84.2595 5.25209 85.0215 4.73465 85.8638 4.38619C86.7061 4.03773 87.611 3.86565 88.5224 3.88058C89.2522 3.90211 89.9724 4.05242 90.6499 4.32458L92.0374 1.69758C90.9395 1.20645 89.7528 0.945171 88.5502 0.929827C87.237 0.896758 85.9307 1.13119 84.711 1.61886C83.4913 2.10653 82.3835 2.83724 81.455 3.76655C80.5266 4.69585 79.7969 5.80432 79.3104 7.02452C78.8238 8.24473 78.5906 9.55115 78.6249 10.8643C78.5868 12.1798 78.8172 13.4892 79.302 14.7127C79.7868 15.9362 80.5159 17.048 81.4447 17.9803C82.3736 18.9126 83.4827 19.6458 84.7043 20.1352C85.926 20.6246 87.2346 20.8598 88.5502 20.8266C89.7576 20.7937 90.9463 20.5201 92.0467 20.0218L90.6499 17.4226C89.9623 17.692 89.2329 17.8391 88.4947 17.8573" fill="white"/>
</g>
<path d="M131.193 1.24414V20.4934H127.512L118.558 6.08189V20.4934H115.45V1.24414H119.113L128.085 15.6649V9.30089V1.24414H131.193Z" fill="#F05323"/>
<path d="M145.706 17.5241V20.4934H134.199V1.24414H137.307V17.5241H145.706Z" fill="#F05323"/>
<path d="M150.692 1.24414H147.584V20.5026H150.692V1.24414Z" fill="#F05323"/>
<path d="M172.43 1.24414V20.4934H185V17.5241H175.538V11.7891H183.298V8.81989H175.538V4.21339H184.732V1.24414H172.43Z" fill="#F05323"/>
<mask id="mask1_1_870" style="mask-type:luminance" maskUnits="userSpaceOnUse" x="0" y="0" width="185" height="22">
<path d="M185 0.00488281H0V21.7054H185V0.00488281Z" fill="white"/>
</mask>
<g mask="url(#mask1_1_870)">
<path d="M110.334 10.8551C110.336 12.4069 109.877 13.9244 109.017 15.2155C108.156 16.5067 106.931 17.5135 105.498 18.1086C104.065 18.7037 102.488 18.8604 100.966 18.5588C99.4433 18.2572 98.0448 17.5108 96.9469 16.4142C95.849 15.3176 95.101 13.9199 94.7976 12.3981C94.4941 10.8762 94.6489 9.2986 95.2424 7.86475C95.8358 6.43091 96.8412 5.2053 98.1313 4.34298C99.4214 3.48066 100.938 3.02038 102.49 3.02038C104.569 3.02038 106.563 3.84553 108.033 5.31457C109.504 6.7836 110.332 8.77638 110.334 10.8551ZM102.49 0.00488281C100.344 0.00488281 98.2464 0.641239 96.4621 1.83348C94.6778 3.02572 93.2871 4.7203 92.4658 6.70292C91.6446 8.68555 91.4297 10.8672 91.8484 12.9719C92.267 15.0767 93.3004 17.01 94.8179 18.5274C96.3353 20.0449 98.2686 21.0782 100.373 21.4969C102.478 21.9156 104.66 21.7007 106.642 20.8795C108.625 20.0582 110.32 18.6675 111.512 16.8832C112.704 15.0989 113.34 13.0011 113.34 10.8551C113.338 7.97822 112.194 5.21984 110.16 3.18555C108.125 1.15127 105.367 0.00733229 102.49 0.00488281Z" fill="#F05323"/>
</g>
<path d="M103.832 12.1771H96.4688V11.8626L101.454 9.79988L103.545 4.70312H103.832V12.1771Z" fill="white"/>
<mask id="mask2_1_870" style="mask-type:luminance" maskUnits="userSpaceOnUse" x="0" y="0" width="185" height="22">
<path d="M185 0.00488281H0V21.7054H185V0.00488281Z" fill="white"/>
</mask>
<g mask="url(#mask2_1_870)">
<path d="M10.4155 14.5539C10.4155 12.7039 9.4905 11.6124 7.05775 11.6124H3.108V17.5232H6.89125C9.287 17.5232 10.4155 16.3669 10.4155 14.5539ZM13.579 14.5539C13.579 18.2539 11.211 20.4647 7.00225 20.4647H0V1.24316H12.173V4.21241H3.108V8.74491H7.1965C11.433 8.74491 13.579 10.8909 13.579 14.5817" fill="white"/>
<path d="M41.3661 10.3736C42.1464 10.0514 42.8111 9.50098 43.2733 8.79455C43.7354 8.08811 43.9734 7.25856 43.9561 6.41456C43.9561 3.19556 41.1163 0.929314 37.0463 0.929314C36.1084 0.918894 35.1738 1.0435 34.2713 1.29931V4.53681C35.0952 4.05096 36.0454 3.82227 37.0001 3.88006C39.5068 3.88006 40.8296 5.06406 40.8296 6.79381C40.8296 8.52356 39.5253 9.25431 37.0741 9.25431H35.2703V12.0293H37.6568C40.4873 12.0293 41.4216 13.1578 41.4216 14.8043C41.4216 16.6543 40.0711 17.9123 37.2961 17.9123C36.1241 17.9581 34.9578 17.7268 33.8921 17.2371V20.4561C35.0218 20.7482 36.1848 20.8912 37.3516 20.8816C41.7268 20.8816 44.5851 18.6523 44.5851 15.0726C44.6221 14.057 44.3282 13.0568 43.7477 12.2227C43.1671 11.3886 42.3313 10.7656 41.3661 10.4476" fill="white"/>
</g>
<path d="M68.108 4.21339V8.81989H75.8688V11.7891H68.108V17.5241H77.5708V20.4934H65V1.24414H77.3025V4.21339H68.108Z" fill="white"/>
<path d="M169.432 1.24414V20.4934H165.741L156.796 6.08189V20.4934H153.688V1.24414H157.342L166.324 15.6649V9.30089V1.24414H169.432Z" fill="#F05323"/>
<path d="M15.7803 1.24414V20.4934H19.4618L28.4158 6.08189V20.4934H31.5238V1.24414H27.87L18.8883 15.6649V9.30089V1.24414H15.7803Z" fill="white"/>
</g>
<defs>
<clipPath id="clip0_1_870">
<rect width="185" height="21.7092" fill="white"/>
</clipPath>
</defs>
</svg>
