<svg width="50" height="50" viewBox="0 0 50 50" fill="none" xmlns="http://www.w3.org/2000/svg">
<path d="M48.4336 26.1351V5.29612C48.4336 4.38883 47.7097 3.65332 46.8167 3.65332L41.4891 3.65332C40.5961 3.65332 39.8722 4.38883 39.8722 5.29612V26.1351C39.8722 27.0424 40.5961 27.7779 41.4891 27.7779H46.8167C47.7097 27.7779 48.4336 27.0424 48.4336 26.1351Z" fill="white"/>
<path fill-rule="evenodd" clip-rule="evenodd" d="M10.1283 25.5734V5.2971C10.1283 4.39356 9.40067 3.6543 8.51139 3.6543H3.18377C2.29449 3.6543 1.56689 4.39356 1.56689 5.2971V27.7788H1.56833V32.7356C1.56833 33.6527 2.49398 34.4031 3.62534 34.4031H20.7565V44.857C20.7565 45.7643 21.4804 46.4998 22.3733 46.4998H27.701C28.5939 46.4998 29.3178 45.7643 29.3178 44.857V34.4031H46.2878C47.4192 34.4031 48.3448 33.6527 48.3448 32.7356V25.5734H10.1283Z" fill="url(#paint0_linear_182_6930)"/>
<path d="M3.62635 3.5H46.2888C47.4202 3.5 48.3458 4.2504 48.3458 5.16755V10.6621C48.3458 11.5793 47.4202 12.3297 46.2888 12.3297H1.56934V5.16755C1.56934 4.2504 2.49499 3.5 3.62635 3.5Z" fill="white"/>
<defs>
<linearGradient id="paint0_linear_182_6930" x1="6.65145" y1="21.3149" x2="43.3941" y2="45.8248" gradientUnits="userSpaceOnUse">
<stop stop-color="#FF5129"/>
<stop offset="1" stop-color="#FF9400"/>
</linearGradient>
</defs>
</svg>
