<svg width="43" height="43" viewBox="0 0 43 43" fill="none" xmlns="http://www.w3.org/2000/svg">
    <path d="M41.8862 22.6352V1.79613C41.8862 0.888832 41.1623 0.15332 40.2693 0.15332L34.9417 0.15332C34.0487 0.15332 33.3248 0.888832 33.3248 1.79613V22.6352C33.3248 23.5425 34.0487 24.278 34.9417 24.278H40.2693C41.1623 24.278 41.8862 23.5425 41.8862 22.6352Z" fill="white"/>
    <path fill-rule="evenodd" clip-rule="evenodd" d="M8.97988 22.0741V1.79711C8.97988 0.893564 8.25228 0.154297 7.36299 0.154297H2.03535C1.14606 0.154297 0.418457 0.893564 0.418457 1.79711V24.279H0.418518V29.2364C0.418518 30.1536 1.34418 30.904 2.47554 30.904L17.4115 30.9037V41.3573C17.4115 42.2646 18.1354 43.0001 19.0284 43.0001H24.3561C25.2491 43.0001 25.973 42.2646 25.973 41.3573V30.9035L40.0433 30.9032C41.1746 30.9032 42.1003 30.1528 42.1003 29.2356V22.0735L8.97988 22.0741Z" fill="url(#paint0_linear_1007_13837)"/>
    <path d="M23.981 15.6771L19.2919 18.8336C19.1062 18.9582 18.8577 18.8236 18.8577 18.5971V17.4769C18.8577 17.3821 18.9051 17.2929 18.9819 17.2405L22.9952 14.5386L23.9796 15.2027C24.1458 15.3146 24.1458 15.5624 23.9796 15.6743L23.981 15.6771Z" fill="white"/>
    <path d="M22.9952 16.3412L18.8577 13.5557V12.2841C18.8577 12.0575 19.1062 11.923 19.2919 12.0476L23.9796 15.204C24.1458 15.3159 24.1458 15.5637 23.9796 15.6756L22.9952 16.3412Z" fill="white"/>
    <path d="M20.3364 12.7514V18.1311L19.2919 18.8349C19.1062 18.9595 18.8577 18.825 18.8577 18.5984V12.2841C18.8577 12.0575 19.1062 11.923 19.2919 12.0476L20.3364 12.7514Z" fill="white"/>
    <rect x="20.0229" y="14.3652" width="1.74886" height="2.36471" fill="white"/>
    <path d="M2.47475 0L40.046 0C41.1774 0 42.103 0.750403 42.103 1.66756V7.16218C42.103 8.07934 41.1774 8.82974 40.046 8.82974L0.417725 8.82974V1.66756C0.417725 0.750403 1.34339 0 2.47475 0Z" fill="white"/>
    <defs>
        <linearGradient id="paint0_linear_1007_13837" x1="2.99393" y1="17.815" x2="38.7833" y2="40.2092" gradientUnits="userSpaceOnUse">
            <stop stop-color="#FF5129"/>
            <stop offset="1" stop-color="#FF9400"/>
        </linearGradient>
    </defs>
</svg>
