<svg width="61" height="43" viewBox="0 0 61 43" fill="none" xmlns="http://www.w3.org/2000/svg">
    <path d="M35.5896 41.3517V24.4926C35.5896 23.582 34.863 22.8438 33.9668 22.8438H28.6197C27.7234 22.8438 26.9969 23.582 26.9969 24.4926V41.3517C26.9969 42.2623 27.7234 43.0005 28.6197 43.0005H33.9668C34.863 43.0005 35.5896 42.2623 35.5896 41.3517Z" fill="white"/>
    <path d="M60.9668 22.7157V1.6599C60.9668 0.743163 60.2646 0 59.3984 0L54.2306 0C53.3644 0 52.6622 0.743163 52.6622 1.6599V22.7157C52.6622 23.6325 53.3644 24.3757 54.2306 24.3757H59.3984C60.2646 24.3757 60.9668 23.6325 60.9668 22.7157Z" fill="white"/>
    <path fill-rule="evenodd" clip-rule="evenodd" d="M9.57697 22.0337V1.64979C9.57697 0.742945 8.84671 0.000976562 7.95417 0.000976562L2.60705 0.000976562C1.71451 0.000976562 0.984249 0.742945 0.984249 1.64979V22.0337H0.983398V29.2582C0.983398 30.1834 2.1703 30.9403 3.62097 30.9403H58.3241C59.7748 30.9403 60.9617 30.1834 60.9617 29.2582V22.0337H9.57697Z" fill="#FF5129"/>
    <path d="M34.887 15.6771L30.1979 18.8336C30.0122 18.9582 29.7637 18.8236 29.7637 18.5971V17.4769C29.7637 17.3821 29.8112 17.2929 29.888 17.2405L33.9012 14.5386L34.8856 15.2027C35.0518 15.3146 35.0518 15.5624 34.8856 15.6743L34.887 15.6771Z" fill="white"/>
    <path d="M33.9012 16.3412L29.7637 13.5557V12.2841C29.7637 12.0575 30.0122 11.923 30.1979 12.0476L34.8856 15.204C35.0518 15.3159 35.0518 15.5637 34.8856 15.6756L33.9012 16.3412Z" fill="white"/>
    <path d="M31.2424 12.7514V18.1311L30.1979 18.8349C30.0122 18.9595 29.7637 18.825 29.7637 18.5984V12.2841C29.7637 12.0575 30.0122 11.923 30.1979 12.0476L31.2424 12.7514Z" fill="white"/>
    <rect x="30.929" y="14.3652" width="1.74886" height="2.36471" fill="white"/>
    <path d="M3.62585 0L58.329 0C59.7796 0 60.9665 0.756932 60.9665 1.68207V7.2245C60.9665 8.14963 59.7796 8.90657 58.329 8.90657H0.988281V1.68207C0.988281 0.756932 2.17519 0 3.62585 0Z" fill="white"/>
</svg>
