<svg width="31" height="43" viewBox="0 0 31 43" fill="none" xmlns="http://www.w3.org/2000/svg">
    <path d="M29.7927 9.35303L6.86901 9.35303V0.965934L28.2317 0.965934C29.0903 0.965934 29.7927 1.67872 29.7927 2.54989V9.35303Z" fill="white"/>
    <path d="M8.71875 0.958008L8.71875 40.9231H2.05735C1.20432 40.9231 0.506378 40.2095 0.506378 39.3375L0.506378 2.54361C0.506378 1.67153 1.20432 0.958008 2.05735 0.958008L8.71875 0.958008Z" fill="white"/>
    <path d="M17.887 21.6351L13.1979 24.7916C13.0122 24.9162 12.7637 24.7817 12.7637 24.5551V23.435C12.7637 23.3401 12.8112 23.2509 12.888 23.1985L16.9012 20.4966L17.8856 21.1607C18.0518 21.2726 18.0518 21.5204 17.8856 21.6323L17.887 21.6351Z" fill="white"/>
    <path d="M16.9012 22.2992L12.7637 19.5137V18.2421C12.7637 18.0155 13.0122 17.881 13.1979 18.0056L17.8856 21.162C18.0518 21.2739 18.0518 21.5217 17.8856 21.6336L16.9012 22.2992Z" fill="white"/>
    <path d="M14.2424 18.7094V24.0891L13.1979 24.7929C13.0122 24.9175 12.7637 24.783 12.7637 24.5564V18.2421C12.7637 18.0155 13.0122 17.881 13.1979 18.0056L14.2424 18.7094Z" fill="white"/>
    <rect x="13.929" y="20.3232" width="1.74886" height="2.36471" fill="white"/>
    <path fill-rule="evenodd" clip-rule="evenodd" d="M29.9968 34.2739V2.54517C29.9968 1.67223 29.2671 0.958008 28.3753 0.958008H21.4111V33.4521H2.1011C1.29288 33.4521 0.637695 34.1073 0.637695 34.9156V40.5794C0.637695 41.3876 1.29288 42.0428 2.1011 42.0428H28.6812C29.4894 42.0428 30.1446 41.3876 30.1446 40.5794V34.9156C30.1446 34.6854 30.0915 34.4677 29.9968 34.2739Z" fill="#FF5129"/>
</svg>
