<svg width="50" height="50" viewBox="0 0 50 50" fill="none" xmlns="http://www.w3.org/2000/svg">
<rect x="22.6548" y="23.5928" width="3.75235" height="3.75235" fill="white"/>
<path d="M27.725 26.744L21.251 22.3774V20.3838C21.251 20.0286 21.6399 19.8177 21.9305 20.0131L29.2654 24.9614C29.5254 25.1368 29.5254 25.5253 29.2654 25.7007L27.725 26.744Z" fill="white"/>
<path d="M23.5647 21.1163V29.5496L21.9305 30.6528C21.6399 30.8482 21.251 30.6373 21.251 30.2821V20.3838C21.251 20.0286 21.6399 19.8177 21.9305 20.0131L23.5647 21.1163Z" fill="white"/>
<path d="M48.9209 40.6736V7.45016C48.9209 6.00367 48.2863 4.83105 47.5036 4.83105H42.8335C42.0507 4.83105 41.4162 6.00367 41.4162 7.45016V40.6736C41.4162 42.1201 42.0507 43.2927 42.8335 43.2927H47.5036C48.2863 43.2927 48.9209 42.1201 48.9209 40.6736Z" fill="white"/>
<path fill-rule="evenodd" clip-rule="evenodd" d="M8.58332 37.6641V7.25852C8.58332 5.92342 7.94553 4.83105 7.166 4.83105H2.49593C1.71641 4.83105 1.07861 5.92342 1.07861 7.25852V37.6641V40.4784V43.7515C1.07861 44.5311 2.02536 45.1689 3.18251 45.1689H46.8172C47.9744 45.1689 48.9211 44.5311 48.9211 43.7515V37.6641H8.58332Z" fill="#FF5129"/>
<path d="M3.18251 4.83105H46.8172C47.9744 4.83105 48.9211 5.46885 48.9211 6.24837V10.9184C48.9211 11.698 47.9744 12.3358 46.8172 12.3358H1.07861V6.24837C1.07861 5.46885 2.02536 4.83105 3.18251 4.83105Z" fill="white"/>
<path d="M29.2675 25.7018L21.9305 30.6502C21.6399 30.8455 21.251 30.6346 21.251 30.2794V28.5234C21.251 28.3747 21.3253 28.2348 21.4454 28.1527L27.725 23.917L29.2654 24.9582C29.5254 25.1335 29.5254 25.522 29.2654 25.6974L29.2675 25.7018Z" fill="white"/>
</svg>
