<svg width="50" height="50" viewBox="0 0 50 50" fill="none" xmlns="http://www.w3.org/2000/svg">
<path d="M45.6255 27.1352V6.29613C45.6255 5.38883 44.9016 4.65332 44.0086 4.65332H38.681C37.788 4.65332 37.0641 5.38883 37.0641 6.29613V27.1352C37.0641 28.0425 37.788 28.778 38.681 28.778H44.0086C44.9016 28.778 45.6255 28.0425 45.6255 27.1352Z" fill="white"/>
<path fill-rule="evenodd" clip-rule="evenodd" d="M12.7196 26.5741V6.29711C12.7196 5.39356 11.992 4.6543 11.1027 4.6543H5.77509C4.8858 4.6543 4.1582 5.39356 4.1582 6.29711V28.779H4.15826V33.7364C4.15826 34.6536 5.08393 35.404 6.21529 35.404L21.1513 35.4037V45.8573C21.1513 46.7646 21.8752 47.5001 22.7682 47.5001H28.0958C28.9888 47.5001 29.7127 46.7646 29.7127 45.8573V35.4035L43.783 35.4032C44.9144 35.4032 45.84 34.6528 45.84 33.7356V26.5735L12.7196 26.5741Z" fill="url(#paint0_linear_182_6930)"/>
<path d="M6.21425 4.5H43.7855C44.9169 4.5 45.8425 5.2504 45.8425 6.16756V11.6622C45.8425 12.5793 44.9169 13.3297 43.7855 13.3297L4.15723 13.3297V6.16756C4.15723 5.2504 5.08289 4.5 6.21425 4.5Z" fill="white"/>
<defs>
<linearGradient id="paint0_linear_182_6930" x1="6.73368" y1="22.315" x2="42.523" y2="44.7092" gradientUnits="userSpaceOnUse">
<stop stop-color="#FF5129"/>
<stop offset="1" stop-color="#FF9400"/>
</linearGradient>
</defs>
</svg>
