<svg width="50" height="50" viewBox="0 0 50 50" fill="none" xmlns="http://www.w3.org/2000/svg">
<path d="M28.8584 40.7561V27.3751C28.8584 26.6523 28.2817 26.0664 27.5704 26.0664H23.3264C22.6151 26.0664 22.0384 26.6523 22.0384 27.3751V40.7561C22.0384 41.4788 22.6151 42.0647 23.3264 42.0647H27.5704C28.2817 42.0647 28.8584 41.4788 28.8584 40.7561Z" fill="white"/>
<path d="M49 25.9649V9.253C49 8.52539 48.4427 7.93555 47.7552 7.93555H43.6535C42.966 7.93555 42.4087 8.52539 42.4087 9.253V25.9649C42.4087 26.6925 42.966 27.2823 43.6535 27.2823H47.7552C48.4427 27.2823 49 26.6925 49 25.9649Z" fill="white"/>
<path fill-rule="evenodd" clip-rule="evenodd" d="M8.21242 25.4237V9.24518C8.21242 8.52542 7.63282 7.93652 6.92441 7.93652H2.68044C1.97204 7.93652 1.39243 8.52542 1.39243 9.24518V25.4237H1.3916V31.1577C1.3916 31.892 2.33364 32.4928 3.48502 32.4928H46.9025C48.0539 32.4928 48.996 31.892 48.996 31.1577V25.4237H8.21242Z" fill="#FF5129"/>
<path d="M3.48942 7.93555H46.9069C48.0583 7.93555 49.0003 8.53632 49.0003 9.2706V13.6696C49.0003 14.4039 48.0583 15.0046 46.9069 15.0046H1.396V9.2706C1.396 8.53632 2.33803 7.93555 3.48942 7.93555Z" fill="white"/>
</svg>
