<svg width="50" height="50" viewBox="0 0 50 50" fill="none" xmlns="http://www.w3.org/2000/svg">
<path d="M40.8628 40.1133L40.8628 9.88663L48.6354 9.88663L48.6354 38.0549C48.6354 39.187 47.9748 40.1133 47.1675 40.1133H40.8628Z" fill="white"/>
<path d="M48.6353 14.2046L4.59071 14.2046V7.89993C4.59071 7.09258 5.37706 6.43202 6.33816 6.43202L46.8878 6.43202C47.8489 6.43202 48.6353 7.09258 48.6353 7.89993V14.2046Z" fill="white"/>
<path fill-rule="evenodd" clip-rule="evenodd" d="M9.1984 43.5677L46.9388 43.5677C47.8719 43.5677 48.6353 42.9072 48.6353 42.0998L48.6353 35.7952H9.77242V7.00615C9.77242 6.68913 9.51542 6.43213 9.1984 6.43213L2.57388 6.43213C2.25685 6.43213 1.99985 6.68913 1.99985 7.00615L1.99985 42.9937C1.99985 43.3107 2.25685 43.5677 2.57388 43.5677H6.31794H9.1984Z" fill="#FF5129"/>
</svg>
