<svg width="66" height="44" viewBox="0 0 66 44" fill="none" xmlns="http://www.w3.org/2000/svg">
<g clip-path="url(#clip0_1_1322)">
<path d="M12.5397 8.92761H14.9153V15.1198C15.0822 14.9696 15.1823 14.8805 15.2769 14.7915C17.2074 12.8666 19.1435 10.9416 21.0575 8.99994C21.3466 8.70506 21.636 8.63273 22.031 8.71618V19.7374H19.6721V13.5119C19.4996 13.6733 19.3939 13.7734 19.2883 13.8791C17.3799 15.793 15.4716 17.7012 13.58 19.6317C13.2796 19.9377 12.9847 20.0714 12.5397 19.9655V8.93318V8.92761Z" fill="white"/>
<path d="M0.806747 8.92696H3.2213C3.2213 9.08831 3.2213 9.23852 3.2213 9.38317C3.23799 10.3735 3.19906 11.3749 3.29363 12.3596C3.39934 13.4779 4.15041 14.1511 5.27979 14.1845C5.90848 14.2012 6.54272 14.0843 7.17138 14.0287C7.42731 14.0064 7.52188 13.8785 7.52188 13.6003C7.50519 12.1983 7.51633 10.7963 7.51633 9.39431V8.94366H9.91975V19.7368H7.52188V16.3375C6.57053 16.382 5.65812 16.4822 4.75127 16.4599C2.61488 16.4043 0.98478 14.8465 0.845692 12.7213C0.767803 11.514 0.795621 10.3011 0.778931 9.09386C0.778931 9.04379 0.795621 8.99929 0.812312 8.92139" fill="white"/>
<path d="M29.2498 17.2211C29.2498 7.7632 36.9161 0.0966797 46.3741 0.0966797C55.832 0.0966797 63.4985 7.7632 63.4985 17.2211C63.4985 26.6792 55.832 34.3455 46.3741 34.3455C36.9161 34.3455 29.2498 26.6792 29.2498 17.2211Z" fill="#E50040"/>
<path d="M46.0591 16.0202L42.1925 15.3415L41.803 17.5724L43.7335 17.9119L42.2314 19.1357L43.6557 20.8939L46.6878 18.4292L65.5814 21.7284L65.9709 19.4974L49.0077 16.5321L62.6773 5.41064L61.2474 3.65259L46.0591 16.0202Z" fill="white"/>
<path d="M29.7212 17.7658C27.7851 17.7658 26.3219 16.2915 26.3163 14.3332C26.3163 12.3804 27.7851 10.8894 29.7101 10.8838C31.6407 10.8838 33.1094 12.3859 33.0871 14.3387C33.0648 16.3082 31.6349 17.7603 29.7212 17.7658ZM29.7046 8.67509C26.4275 8.69178 23.9518 11.1063 23.9352 14.3053C23.9129 17.4988 26.4388 19.9968 29.6933 20.0024C32.9814 20.0024 35.4461 17.5822 35.4516 14.3387C35.4516 11.0841 32.998 8.66395 29.7101 8.67509" fill="white"/>
<path d="M15.7892 22.5562H18.1648V28.7484C18.3317 28.5981 18.4318 28.5092 18.5265 28.4201C20.457 26.4951 22.3931 24.5703 24.3069 22.6286C24.5962 22.3337 24.8854 22.2614 25.2805 22.3448V33.366H22.9217V27.1406C22.749 27.3019 22.6434 27.4021 22.5377 27.5078C20.6294 29.4215 18.7212 31.3298 16.8296 33.2603C16.5291 33.5663 16.2343 33.6998 15.7892 33.5942V22.5619V22.5562Z" fill="white"/>
<path d="M4.06492 22.5502H6.47948C6.47948 22.7116 6.47948 22.8617 6.47948 23.0065C6.49617 23.9967 6.45722 24.9981 6.5518 25.9829C6.65751 27.1011 7.40858 27.7744 8.53798 27.8078C9.16664 27.8244 9.80088 27.7076 10.4296 27.652C10.6855 27.6296 10.7801 27.5017 10.7801 27.2235C10.7634 25.8215 10.7745 24.4195 10.7745 23.0175V22.567H13.1779V33.3601H10.7801V29.9608C9.82871 30.0052 8.91629 30.1055 8.00943 30.0832C5.87306 30.0275 4.24295 28.4697 4.10387 26.3446C4.02597 25.1373 4.0538 23.9244 4.03711 22.7171C4.03711 22.667 4.0538 22.6225 4.07049 22.5447" fill="white"/>
<path d="M33.1114 31.3986C31.1753 31.3986 29.7121 29.9243 29.7066 27.966C29.7066 26.0132 31.1753 24.5221 33.1004 24.5166C35.0309 24.5166 36.4997 26.0187 36.4774 27.9716C36.455 29.9411 35.0254 31.393 33.1114 31.3986ZM33.0948 22.3079C29.818 22.3245 27.3421 24.7392 27.3255 27.9382C27.3032 31.1315 29.829 33.6296 33.0836 33.6351C36.3717 33.6351 38.8363 31.2151 38.8419 27.9716C38.8419 24.7169 36.3883 22.2967 33.1004 22.3079" fill="white"/>
<path d="M2.93176 39.3306H6.71619V43.6744H5.58416V40.3507H4.06381V43.6744H2.93176V39.3306Z" fill="white"/>
<path d="M10.0986 43.3119H8.53876L8.3808 43.6739H7.16321L9.13768 39.2512H9.49968L11.4742 43.6739H10.2566L10.0986 43.3119ZM9.32196 41.3968L8.94023 42.4037H9.69713L9.32196 41.3968Z" fill="white"/>
<path d="M11.9233 39.3306H13.628C13.9483 39.3306 14.2357 39.392 14.4902 39.5149C14.7447 39.6377 14.9443 39.8133 15.0891 40.0414C15.2339 40.2652 15.3063 40.5262 15.3063 40.8246C15.3063 41.1186 15.2317 41.3796 15.0825 41.6079C14.9377 41.836 14.7381 42.0137 14.4836 42.141C14.2291 42.2638 13.9439 42.3252 13.628 42.3252H13.0554V43.6744H11.9233V39.3306ZM13.6346 41.3379C13.7925 41.3379 13.9176 41.2919 14.0097 41.1997C14.1062 41.1032 14.1545 40.9782 14.1545 40.8246C14.1545 40.671 14.1062 40.5482 14.0097 40.456C13.9176 40.364 13.7925 40.3178 13.6346 40.3178H13.0554V41.3379H13.6346Z" fill="white"/>
<path d="M19.7759 39.2512V43.6739H18.6439V41.4165L16.2878 43.753H15.9258V39.3301H17.0578V41.5612L19.4141 39.2512H19.7759Z" fill="white"/>
<path d="M23.4253 43.6744L21.7734 41.5091V43.6744H20.6414V39.3306H21.7734V41.2985L23.2082 39.3306H24.5244L23.0304 41.3972L24.768 43.6744H23.4253Z" fill="white"/>
<path d="M29.639 39.2512V43.6739H28.507V41.8509L27.6054 42.9039H27.2434L26.3483 41.8575V43.6739H25.2163V39.2512H25.5783L27.4277 41.5087L29.2772 39.2512H29.639Z" fill="white"/>
<path d="M33.026 43.3119H31.4661L31.3082 43.6739H30.0906L32.0651 39.2512H32.4271L34.4016 43.6739H33.1839L33.026 43.3119ZM32.2494 41.3968L31.8675 42.4037H32.6246L32.2494 41.3968Z" fill="white"/>
<path d="M37.2206 43.6744L36.4572 42.4568L35.7001 43.6744H34.4233L35.8383 41.4695L34.5024 39.3306H35.7792L36.4572 40.489L37.135 39.3306H38.4118L37.0955 41.4695L38.4974 43.6744H37.2206Z" fill="white"/>
<path d="M38.9497 39.3306H41.9642V40.3507H40.0819V40.9496H41.4244V41.8974H40.0819V42.6543H42.0431V43.6744H38.9497V39.3306Z" fill="white"/>
<path d="M42.7451 39.3306H44.4498C44.7701 39.3306 45.0574 39.392 45.312 39.5149C45.5664 39.6377 45.766 39.8133 45.9108 40.0414C46.0557 40.2652 46.128 40.5262 46.128 40.8246C46.128 41.1186 46.0535 41.3796 45.9042 41.6079C45.7594 41.836 45.5598 42.0137 45.3054 42.141C45.0508 42.2638 44.7656 42.3252 44.4498 42.3252H43.8771V43.6744H42.7451V39.3306ZM44.4564 41.3379C44.6143 41.3379 44.7393 41.2919 44.8315 41.1997C44.928 41.1032 44.9763 40.9782 44.9763 40.8246C44.9763 40.671 44.928 40.5482 44.8315 40.456C44.7393 40.364 44.6143 40.3178 44.4564 40.3178H43.8771V41.3379H44.4564Z" fill="white"/>
<path d="M48.8575 43.753C48.4275 43.753 48.0326 43.6542 47.6729 43.4569C47.3174 43.2593 47.0345 42.9895 46.8238 42.6472C46.6177 42.305 46.5144 41.9232 46.5144 41.5021C46.5144 41.0853 46.6177 40.7056 46.8238 40.3635C47.0345 40.0167 47.3174 39.7447 47.6729 39.5473C48.0326 39.3498 48.4297 39.2512 48.864 39.2512C49.2985 39.2512 49.689 39.3543 50.0357 39.5605C50.3823 39.7623 50.6543 40.0475 50.8517 40.4161L49.9896 41.0019C49.7088 40.528 49.3314 40.291 48.8575 40.291C48.6293 40.291 48.4254 40.3415 48.2454 40.4424C48.0655 40.5434 47.925 40.6859 47.8242 40.8703C47.7234 41.0545 47.6729 41.2672 47.6729 41.5087C47.6729 41.8684 47.7825 42.1602 48.0018 42.384C48.2256 42.6033 48.5109 42.7131 48.8575 42.7131C49.3314 42.7131 49.7088 42.4762 49.9896 42.0023L50.8517 42.5881C50.6543 42.9565 50.3823 43.244 50.0357 43.4501C49.689 43.652 49.2963 43.753 48.8575 43.753Z" fill="white"/>
<path d="M54.2827 43.6744L52.6308 41.5091V43.6744H51.4988V39.3306H52.6308V41.2985L54.0655 39.3306H55.3819L53.8879 41.3972L55.6254 43.6744H54.2827Z" fill="white"/>
<path d="M58.5907 43.3119H57.0308L56.8729 43.6739H55.6553L57.6298 39.2512H57.9918L59.9662 43.6739H58.7486L58.5907 43.3119ZM57.8141 41.3968L57.4324 42.4037H58.1893L57.8141 41.3968Z" fill="white"/>
<path d="M63.7579 39.3306V43.6744H62.6257V42.3976H62.2571L61.3752 43.6744H60.1775L61.2042 42.187C60.9453 42.0553 60.7412 41.8755 60.5921 41.6473C60.4473 41.4147 60.3748 41.1515 60.3748 40.8574C60.3748 40.5591 60.4494 40.2958 60.5986 40.0677C60.7522 39.8353 60.965 39.6552 61.237 39.5281C61.5091 39.3965 61.8206 39.3306 62.1717 39.3306H63.7579ZM62.6257 40.3178H62.1255C61.9501 40.3178 61.8052 40.3683 61.6912 40.4691C61.5816 40.5702 61.5266 40.7018 61.5266 40.8642C61.5266 41.0264 61.5816 41.158 61.6912 41.259C61.8052 41.3599 61.9501 41.4104 62.1255 41.4104H62.6257V40.3178Z" fill="white"/>
</g>
<defs>
<clipPath id="clip0_1_1322">
<rect width="65.3781" height="43.7584" fill="white" transform="translate(0.62207)"/>
</clipPath>
</defs>
</svg>
