<svg id="Layer_1" data-name="Layer 1" xmlns="http://www.w3.org/2000/svg" viewBox="0 0 40 41"><defs><style>.cls-1{fill-rule:evenodd;}</style></defs><path class="cls-1" d="M40,20.43a20,20,0,1,1-20-20A20,20,0,0,1,40,20.43ZM18.44,17.84a3.3,3.3,0,0,0-1.35-1.07,4.62,4.62,0,0,0-2-.42,4.68,4.68,0,0,0-3.71,1.86V11.4H8.16V29h3.21V22.82a7,7,0,0,1,.29-2.37,2.24,2.24,0,0,1,.92-1.19,2.57,2.57,0,0,1,1.43-.4,2,2,0,0,1,1.16.31,1.6,1.6,0,0,1,.64.83A9.43,9.43,0,0,1,16,22.48V29h3.21V21.76a13.41,13.41,0,0,0-.16-2.47A4,4,0,0,0,18.44,17.84Zm13.29,1.45a4,4,0,0,0-.62-1.45,3.33,3.33,0,0,0-1.34-1.07,4.74,4.74,0,0,0-5.72,1.44V11.4H20.83V29h3.22V22.82a7.5,7.5,0,0,1,.29-2.37,2.24,2.24,0,0,1,.92-1.19,2.59,2.59,0,0,1,1.43-.4,2,2,0,0,1,1.16.31,1.67,1.67,0,0,1,.65.83,10.1,10.1,0,0,1,.18,2.48V29H31.9V21.76A13.21,13.21,0,0,0,31.73,19.29Z"/></svg>