<svg id="Layer_1" data-name="Layer 1" xmlns="http://www.w3.org/2000/svg" viewBox="0 0 40 40"><defs><style>.cls-1{fill-rule:evenodd;}</style></defs><g id="Instagram"><g id="Instagram_2" data-name="Instagram 2"><path id="Subtract" class="cls-1" d="M20,0A20,20,0,1,0,40,20,20,20,0,0,0,20,0Zm0,15.83A4.17,4.17,0,1,0,24.17,20,4.17,4.17,0,0,0,20,15.83Zm0,10.59A6.42,6.42,0,1,1,26.42,20,6.42,6.42,0,0,1,20,26.42Zm5.43-12.26a1.48,1.48,0,0,1-.26-.83,1.5,1.5,0,0,1,.44-1.06,1.52,1.52,0,0,1,1.06-.44h0a1.49,1.49,0,0,1,1.39.92,1.53,1.53,0,0,1,.08.87,1.45,1.45,0,0,1-.41.77,1.49,1.49,0,0,1-.76.41,1.43,1.43,0,0,1-.87-.09A1.39,1.39,0,0,1,25.43,14.16ZM12.63,29.74a6.55,6.55,0,0,0,2.32.43c1.32.07,1.71.08,5.05.08s3.73,0,5.05-.08a6.55,6.55,0,0,0,2.32-.43,3.73,3.73,0,0,0,1.44-.93,3.87,3.87,0,0,0,.94-1.44,7,7,0,0,0,.43-2.32c.06-1.32.07-1.71.07-5.05s0-3.73-.07-5.05a7,7,0,0,0-.43-2.32,4.18,4.18,0,0,0-2.38-2.38,7,7,0,0,0-2.32-.43c-1.32-.06-1.71-.07-5.05-.07s-3.73,0-5.05.07a7,7,0,0,0-2.32.43,3.87,3.87,0,0,0-1.44.94,3.73,3.73,0,0,0-.93,1.44A6.79,6.79,0,0,0,9.83,15c-.06,1.32-.08,1.71-.08,5.05s0,3.73.08,5.05a6.55,6.55,0,0,0,.43,2.32,3.73,3.73,0,0,0,.93,1.44A3.81,3.81,0,0,0,12.63,29.74ZM11.81,8.16a9.2,9.2,0,0,1,3-.58c1.33-.07,1.76-.08,5.15-.08s3.82,0,5.15.08a9.2,9.2,0,0,1,3,.58,6.39,6.39,0,0,1,3.65,3.65,9.2,9.2,0,0,1,.58,3c.07,1.33.08,1.76.08,5.15s0,3.82-.08,5.15a9,9,0,0,1-.58,3,6.39,6.39,0,0,1-3.65,3.65,9.2,9.2,0,0,1-3,.58c-1.33.07-1.75.08-5.15.08s-3.82,0-5.15-.08a9.2,9.2,0,0,1-3-.58,6.39,6.39,0,0,1-3.65-3.65,9.2,9.2,0,0,1-.58-3C7.51,23.82,7.5,23.39,7.5,20s0-3.82.08-5.15a9.2,9.2,0,0,1,.58-3,6.39,6.39,0,0,1,3.65-3.65Z"/></g></g></svg>