<svg width="397.000000" height="507.000000" viewBox="0 0 397 507" fill="none" xmlns="http://www.w3.org/2000/svg" xmlns:xlink="http://www.w3.org/1999/xlink">
	<defs/>
	<path id="Vector 2087" d="M7.99 38.03L1.38 41.29L-0.39 37.7L6.22 34.44L7.99 38.03ZM34.11 26.25Q27.58 28.96 20.86 32L19.21 28.35Q25.99 25.29 32.58 22.55L34.11 26.25ZM61 16.21Q54.36 18.4 47.49 20.96L46.09 17.22Q53.03 14.62 59.75 12.41L61 16.21ZM88.52 8.6Q81.72 10.1 74.67 12.06L73.6 8.21Q80.76 6.22 87.66 4.7L88.52 8.6ZM116.73 4.29Q109.8 4.84 102.55 5.96L101.94 2.01Q109.34 0.86 116.41 0.3L116.73 4.29ZM145.15 4.57Q138.25 3.82 130.97 3.76L131 -0.24Q138.48 -0.18 145.59 0.6L145.15 4.57ZM172.69 10.87Q166.1 8.48 159.1 6.89L159.98 2.99Q167.23 4.63 174.06 7.11L172.69 10.87ZM197.76 23.91Q191.89 19.81 185.64 16.56L187.48 13.01Q193.97 16.39 200.05 20.63L197.76 23.91ZM218.87 42.74Q214 37.33 208.83 32.7L211.5 29.72Q216.83 34.5 221.85 40.07L218.87 42.74ZM235.94 65.5Q232.01 59.28 227.88 53.75L231.09 51.36Q235.3 57.02 239.32 63.36L235.94 65.5ZM249.74 90.59Q246.5 83.89 243.19 77.83L246.69 75.91Q250.06 82.05 253.34 88.85L249.74 90.59ZM261.22 116.9Q258.42 109.88 255.7 103.62L259.37 102.03Q262.11 108.35 264.94 115.42L261.22 116.9ZM271.43 144.07L266.41 130.35L270.16 128.98L275.19 142.7L271.43 144.07ZM278.61 164.17L276.25 157.56L280.01 156.21L282.38 162.82Q283.48 165.9 284.94 169L281.32 170.7Q279.78 167.43 278.61 164.17ZM296.68 194.1Q291.88 188.33 288.24 182.87L291.57 180.65Q295.1 185.93 299.75 191.55L296.68 194.1ZM315.65 214.29Q310.15 208.92 305.88 204.42L308.78 201.67Q313 206.11 318.44 211.43L315.65 214.29ZM295.79 499.67L295.79 488.53C295.79 487.41 294.91 486.53 293.79 486.53C292.67 486.53 291.79 487.41 291.79 488.53L291.79 504.53C291.79 505.65 292.68 506.53 293.79 506.53L309.79 506.53C310.92 506.53 311.79 505.65 311.79 504.53C311.79 503.41 310.91 502.53 309.79 502.53L298.59 502.53L300.23 500.88L297.39 498.07L295.79 499.67ZM335.64 233.31L325.68 223.89L328.43 220.99L338.39 230.4L335.64 233.31ZM306.93 488.18Q311.74 483.11 316.28 478.13L319.24 480.83Q314.67 485.84 309.84 490.94L306.93 488.18ZM325.4 467.91Q330.03 462.6 334.34 457.4L337.42 459.95Q333.08 465.19 328.42 470.54L325.4 467.91ZM355.14 252.74Q350.81 248.11 345.54 242.88L348.35 240.04Q353.69 245.32 358.06 250.01L355.14 252.74ZM342.82 446.87Q347.21 441.26 351.21 435.78L354.44 438.14Q350.4 443.67 345.97 449.34L342.82 446.87ZM372.51 273.8Q368.76 268.49 364.2 263L367.28 260.44Q371.94 266.05 375.78 271.49L372.51 273.8ZM359.04 424.61Q362.92 418.84 366.35 413.23L369.76 415.31Q366.29 421 362.36 426.84L359.04 424.61ZM385.7 297.39Q383.19 291.3 379.77 285.24L383.26 283.28Q386.8 289.55 389.4 295.87L385.7 297.39ZM373.24 401.26Q376.59 395.05 379.36 389.02L383 390.7Q380.17 396.84 376.76 403.16L373.24 401.26ZM391.55 317.4Q390.91 313.77 389.98 310.18L393.86 309.18Q394.82 312.93 395.49 316.73Q396.04 319.86 396.38 323.02L392.4 323.45Q392.07 320.41 391.55 317.4ZM384.6 376.46Q387.04 369.9 388.76 363.54L392.63 364.59Q390.85 371.12 388.35 377.85L384.6 376.46ZM391.62 350.31Q392.7 343.49 392.91 336.88L396.9 337.01Q396.69 343.86 395.57 350.93L391.62 350.31Z" fill="#FFFFFF" fill-opacity="1.000000" fill-rule="evenodd"/>
</svg>
