<svg width="36" height="36" viewBox="0 0 36 36" fill="none" xmlns="http://www.w3.org/2000/svg">
<path fill-rule="evenodd" clip-rule="evenodd" d="M22.3203 26.4826C22.5887 26.6726 22.9345 26.7201 23.2428 26.6035C23.5512 26.486 23.7778 26.2226 23.8462 25.9035C24.5703 22.5001 26.327 13.886 26.9862 10.7901C27.0362 10.5568 26.9528 10.3143 26.7695 10.1585C26.5862 10.0026 26.332 9.95762 26.1053 10.0418C22.6112 11.3351 11.8503 15.3726 7.452 17.0001C7.17283 17.1035 6.99116 17.3718 7.00033 17.666C7.01033 17.961 7.20866 18.2168 7.4945 18.3026C9.467 18.8926 12.0562 19.7135 12.0562 19.7135C12.0562 19.7135 13.2662 23.3676 13.897 25.226C13.9762 25.4593 14.1587 25.6426 14.3995 25.706C14.6395 25.7685 14.8962 25.7026 15.0753 25.5335C16.0887 24.5768 17.6553 23.0976 17.6553 23.0976C17.6553 23.0976 20.632 25.2801 22.3203 26.4826ZM13.1453 19.2518L14.5445 23.8668L14.8553 20.9443C14.8553 20.9443 20.2612 16.0685 23.3428 13.2893C23.4328 13.2076 23.4453 13.071 23.3703 12.9751C23.2962 12.8793 23.1595 12.8568 23.057 12.9218C19.4853 15.2026 13.1453 19.2518 13.1453 19.2518Z" fill="white"/>
<circle cx="18" cy="18" r="17.5" stroke="white"/>
</svg>
