<svg width="647" height="136" viewBox="0 0 647 136" fill="none" xmlns="http://www.w3.org/2000/svg">
<g style="mix-blend-mode:overlay">
<path d="M277.439 0C280.413 5.6101 285.002 10.199 290.612 13.1733C285.002 16.1477 280.413 20.7366 277.439 26.3467C274.464 20.7366 269.875 16.1477 264.265 13.1733C269.875 10.199 274.464 5.6101 277.439 0Z" fill="white"/>
<path d="M6.52404 33.8464C7.97382 33.6707 9.79704 33.495 11.9937 33.3193C14.1903 33.0996 16.6506 32.9019 19.3744 32.7262C22.0983 32.5504 25.0637 32.4186 28.2708 32.3308C31.5219 32.199 34.9267 32.1331 38.4852 32.1331C43.4496 32.1331 48.6557 32.2868 54.1034 32.5944C59.595 32.9019 65.1086 33.451 70.6441 34.2418C76.1797 34.9887 81.6273 36.0431 86.9872 37.405C92.3909 38.723 97.4871 40.4364 102.276 42.5452C107.108 44.61 111.546 47.0922 115.587 49.9918C119.629 52.8914 123.078 56.2962 125.934 60.2062C128.789 64.0723 130.854 68.2459 132.128 72.7271C133.446 77.2082 134.105 81.8212 134.105 86.5659C134.105 87.7521 134.061 88.9603 133.973 90.1904C133.71 94.9352 132.831 99.3065 131.337 103.304C129.844 107.302 127.889 110.905 125.472 114.112C123.1 117.275 120.332 120.065 117.169 122.481C114.05 124.897 110.667 126.918 107.021 128.544C103.374 130.169 99.552 131.378 95.5541 132.168C91.5562 133.003 87.5363 133.42 83.4945 133.42C78.2225 133.42 73.0385 132.717 67.9423 131.312C62.846 129.95 58.1232 127.863 53.7739 125.051C49.4685 122.239 45.7122 118.725 42.5051 114.507C39.3419 110.246 37.0354 105.281 35.5857 99.614L50.3471 95.8577C51.05 98.5816 52.1264 101.042 53.5762 103.238C55.026 105.391 56.7174 107.302 58.6504 108.972C60.5835 110.641 62.6703 112.069 64.9109 113.255C67.1515 114.397 69.392 115.342 71.6326 116.089C73.9171 116.792 76.1357 117.319 78.2885 117.67C80.4412 118.022 82.3742 118.198 84.0876 118.198C87.734 118.198 91.2047 117.561 94.4997 116.287C97.7947 115.012 100.782 113.299 103.462 111.146C106.186 108.994 108.514 106.468 110.447 103.568C112.424 100.624 113.874 97.5931 114.797 94.4739C115.763 91.3546 116.246 88.2574 116.246 85.182C116.246 84.8306 116.203 83.7103 116.115 81.8212C116.071 79.8881 115.302 77.2741 113.808 73.9792C112.314 70.6403 110.096 67.4991 107.152 64.5555C104.209 61.5681 100.387 58.9321 95.6859 56.6476C91.029 54.3631 85.4276 52.5179 78.8815 51.1121C72.3355 49.7062 64.7351 48.9154 56.0804 48.7397L19.0449 130.982H0L37.1672 48.4761C34.3555 48.4761 31.4779 48.542 28.5344 48.6738C25.5909 48.8056 22.7572 48.9813 20.0334 49.201C17.3096 49.3767 14.7615 49.5744 12.3891 49.7941C10.0606 50.0138 8.10562 50.2115 6.52404 50.3872V33.8464Z" fill="white"/>
<path d="M158.554 34.3736V62.4468C164.529 52.3861 171.822 44.7857 180.432 39.6456C189.043 34.5054 198.862 31.9354 209.889 31.9354C217.27 31.9354 223.992 32.7481 230.055 34.3736C236.161 35.9552 241.455 38.3276 245.936 41.4908C250.242 44.5221 253.559 48.1246 255.887 52.2983C258.26 56.4719 259.446 60.8652 259.446 65.4781C259.446 68.158 259.028 70.816 258.194 73.452C257.359 76.0879 256.107 78.6141 254.437 81.0304C252.812 83.4028 250.769 85.6214 248.309 87.6862C245.849 89.7071 242.993 91.4645 239.742 92.9582C236.491 94.4519 232.844 95.6381 228.803 96.5167C224.805 97.3515 220.411 97.7688 215.623 97.7688C206.924 97.7688 198.972 96.5826 191.767 94.2103C193.876 97.1977 196.248 100.141 198.884 103.041C201.52 105.896 204.442 108.445 207.649 110.685C210.9 112.926 214.415 114.749 218.193 116.155C222.015 117.517 226.123 118.198 230.516 118.198C231.966 118.198 233.525 118.022 235.195 117.67C236.908 117.319 238.644 116.836 240.401 116.221C242.202 115.562 243.981 114.771 245.739 113.848C247.54 112.926 249.253 111.915 250.879 110.817L259.446 123.404C257.161 124.985 254.789 126.391 252.329 127.621C249.868 128.851 247.386 129.906 244.882 130.784C242.422 131.619 239.962 132.256 237.501 132.695C235.085 133.179 232.757 133.42 230.516 133.42C225.068 133.42 219.972 132.674 215.227 131.18C210.527 129.73 206.177 127.775 202.179 125.315C198.181 122.855 194.535 120.043 191.24 116.88C187.945 113.716 184.958 110.443 182.278 107.061C179.642 103.634 177.313 100.229 175.292 96.8462C173.271 93.4634 171.558 90.3442 170.152 87.4885C170.064 87.3128 169.933 87.0053 169.757 86.5659L185.836 74.5723C193.744 79.8442 203.673 82.4802 215.623 82.4802C220.324 82.4802 224.431 81.9969 227.946 81.0304C231.504 80.0639 234.492 78.7898 236.908 77.2082C239.325 75.5827 241.126 73.7595 242.312 71.7386C243.542 69.6737 244.157 67.5869 244.157 65.4781C244.157 63.3694 243.542 61.3265 242.312 59.3495C241.126 57.3286 239.39 55.5054 237.106 53.8799C236.008 53.133 234.646 52.3642 233.02 51.5734C231.439 50.7826 229.528 50.0577 227.287 49.3987C225.09 48.7397 222.542 48.2125 219.643 47.8171C216.787 47.3778 213.536 47.1581 209.889 47.1581C199.961 47.1581 191.394 49.9479 184.189 55.5273C176.984 61.0629 171.097 69.4101 166.528 80.5691C165.078 84.0837 163.87 87.5764 162.903 91.0471C161.937 94.5178 161.146 97.7688 160.531 100.8C159.96 103.832 159.52 106.555 159.213 108.972C158.905 111.344 158.686 113.211 158.554 114.573V131.048H142.079V34.3736H158.554Z" fill="white"/>
<path d="M286.728 130.982H268.408V34.3736H286.728V130.982Z" fill="white"/>
<path d="M485.481 34.3077V130.982H467.029V51.5075C465.403 51.9907 463.207 52.7156 460.439 53.6822C457.715 54.6047 454.618 55.747 451.147 57.1089C447.676 58.4708 443.942 60.0524 439.944 61.8537C435.99 63.611 431.97 65.588 427.885 67.7846C423.799 69.9373 419.735 72.2877 415.693 74.8358C411.695 77.34 407.939 80.0199 404.424 82.8756C407.368 86.6099 409.63 90.2563 411.212 93.8149C412.794 97.3295 413.826 100.449 414.309 103.173C414.837 105.896 415.1 108.291 415.1 110.356C415.1 111.19 415.012 112.508 414.837 114.31C414.705 116.111 414.265 118.154 413.519 120.438C412.816 122.679 411.937 124.634 410.883 126.303C409.828 127.973 408.796 129.269 407.785 130.191C405.72 132.124 403.348 133.53 400.668 134.409C397.988 135.288 395.264 135.727 392.497 135.727C389.509 135.727 386.632 135.244 383.864 134.277C381.096 133.354 378.768 131.993 376.879 130.191C374.726 128.17 372.968 125.469 371.607 122.086C370.289 118.703 369.63 114.903 369.63 110.685C369.63 106.468 370.442 101.986 372.068 97.2416C373.737 92.4529 376.461 87.6643 380.239 82.8756C377.12 80.3275 373.803 77.9112 370.289 75.6266C366.818 73.3421 363.237 71.1894 359.547 69.1685C355.901 67.1037 352.21 65.1926 348.476 63.4353C344.742 61.634 341.073 60.0085 337.471 58.5587C333.912 57.065 330.441 55.725 327.059 54.5388C323.72 53.3527 320.578 52.3422 317.635 51.5075V130.982H299.183V34.3077H315.922C319.304 35.2303 323.039 36.3946 327.124 37.8004C331.21 39.1623 335.472 40.7219 339.909 42.4793C344.39 44.2366 348.959 46.1916 353.616 48.3443C358.317 50.4531 362.93 52.7376 367.455 55.1978C371.98 57.6581 376.351 60.2721 380.569 63.0399C384.83 65.8076 388.762 68.6852 392.365 71.6727C396.538 68.202 401.305 64.7313 406.665 61.2606C412.025 57.7899 417.912 54.451 424.326 51.2439C430.784 47.9928 437.726 44.9395 445.15 42.0839C452.619 39.1843 460.505 36.5923 468.808 34.3077H485.481ZM398.296 111.146C398.296 108.071 397.769 105.15 396.714 102.382C395.66 99.5701 394.21 96.8462 392.365 94.2103C390.52 96.8462 389.07 99.5701 388.016 102.382C386.961 105.15 386.434 108.071 386.434 111.146C386.434 112.201 386.5 113.255 386.632 114.31C386.807 115.364 387.093 116.33 387.488 117.209C387.928 118.088 388.543 118.813 389.333 119.384C390.124 119.911 391.157 120.175 392.431 120.175C393.661 120.175 394.649 119.889 395.396 119.318C396.187 118.747 396.78 118.022 397.176 117.143C397.615 116.265 397.9 115.298 398.032 114.244C398.208 113.145 398.296 112.113 398.296 111.146Z" fill="white"/>
<path d="M579.98 73.0566C584.198 72.5733 588.13 72.2438 591.776 72.0681C595.467 71.8484 598.959 71.7386 602.254 71.7386C610.821 71.7386 617.96 72.3976 623.672 73.7156C629.383 75.0336 633.952 76.8128 637.379 79.0534C640.849 81.2501 643.31 83.7982 644.759 86.6977C646.209 89.5973 646.956 92.6067 647 95.7259C647 95.9017 647 96.0554 647 96.1872C647 99.1747 646.583 102.162 645.748 105.15C644.913 108.137 643.441 110.971 641.333 113.651C639.224 116.33 636.368 118.813 632.766 121.097C629.207 123.338 624.704 125.271 619.256 126.896C613.853 128.522 607.416 129.796 599.948 130.719C592.479 131.597 583.803 132.037 573.918 132.037C566.625 132.037 559.639 131.641 552.962 130.85C546.328 130.016 540.133 128.983 534.378 127.753C528.623 126.523 523.373 125.183 518.628 123.733C513.927 122.283 509.863 120.921 506.437 119.647C503.054 118.373 500.374 117.297 498.397 116.418C496.464 115.496 495.366 114.969 495.102 114.837L502.483 100.009C502.527 100.009 503.383 100.405 505.053 101.196C506.766 101.942 509.16 102.865 512.236 103.963C515.311 105.062 519.001 106.27 523.307 107.588C527.612 108.862 532.401 110.048 537.673 111.146C542.945 112.245 548.612 113.167 554.675 113.914C560.782 114.661 567.152 115.034 573.786 115.034C582.924 115.034 590.7 114.727 597.114 114.112C603.528 113.453 608.844 112.596 613.062 111.542C617.279 110.487 620.53 109.279 622.815 107.917C625.143 106.555 626.725 105.193 627.56 103.832C628.394 102.47 628.812 101.196 628.812 100.009C628.812 99.6579 628.724 99.0209 628.548 98.0983C628.416 97.1757 627.911 96.0335 627.032 94.6716C626.286 93.4854 625.187 92.4969 623.738 91.7061C622.288 90.8714 620.552 90.2343 618.531 89.795C616.555 89.3117 614.314 88.9822 611.81 88.8065C609.306 88.5869 606.604 88.477 603.704 88.477C599.399 88.477 594.742 88.6527 589.733 89.0042C584.769 89.3117 579.629 89.6632 574.313 90.0586C568.997 90.454 563.615 90.8274 558.168 91.1789C552.72 91.4864 547.404 91.6402 542.22 91.6402C537.958 91.6402 533.829 91.4864 529.831 91.1789C525.877 90.8714 522.165 90.3442 518.694 89.5973C515.223 88.8504 512.06 87.84 509.204 86.5659C506.349 85.2919 503.889 83.6883 501.824 81.7553C499.759 79.8222 498.155 77.5158 497.013 74.8358C495.915 72.1559 495.366 69.0367 495.366 65.4781C495.366 62.93 495.761 60.3819 496.552 57.8338C497.343 55.2857 498.726 52.8474 500.703 50.519C502.724 48.1466 505.448 45.95 508.875 43.929C512.346 41.8642 516.739 40.041 522.055 38.4594C527.415 36.8778 533.807 35.6038 541.232 34.6372C548.7 33.6707 557.421 33.0776 567.394 32.858C568.58 32.858 569.744 32.858 570.886 32.858C576.949 32.858 583.034 33.1655 589.14 33.7805C595.291 34.3956 601.266 35.2523 607.065 36.3506C612.908 37.4489 618.202 38.6791 622.947 40.041C627.735 41.4029 631.865 42.677 635.336 43.8631C638.807 45.0493 641.53 46.0818 643.507 46.9604C645.528 47.7951 646.649 48.2784 646.868 48.4102L639.883 63.1058C639.839 63.0618 638.982 62.6664 637.313 61.9196C635.687 61.1288 633.381 60.1623 630.393 59.02C627.45 57.8777 623.869 56.6696 619.652 55.3955C615.434 54.0776 610.733 52.8914 605.549 51.837C600.409 50.7386 595.071 49.882 589.536 49.2669C584 48.6518 578.509 48.3443 573.061 48.3443C571.963 48.3443 570.864 48.3663 569.766 48.4102C561.199 48.5859 553.796 48.9813 547.558 49.5964C541.319 50.1675 536.047 50.9144 531.742 51.837C527.437 52.7596 523.988 53.814 521.396 55.0001C518.804 56.1863 516.871 57.4604 515.597 58.8223C514.323 60.1403 513.642 61.2386 513.554 62.1173C513.466 62.9959 513.422 63.589 513.422 63.8966C513.422 65.0388 513.642 66.203 514.081 67.3892C514.696 68.9708 515.816 70.2888 517.442 71.3432C519.067 72.3976 521.066 73.2543 523.439 73.9133C525.855 74.5723 528.623 75.0555 531.742 75.363C534.905 75.6266 538.31 75.7584 541.956 75.7584C547.536 75.7584 553.555 75.4948 560.013 74.9676C566.471 74.4405 573.127 73.8034 579.98 73.0566Z" fill="white"/>
</g>
</svg>
