<svg width="123" height="23" viewBox="0 0 123 23" fill="none" xmlns="http://www.w3.org/2000/svg">
<path fill-rule="evenodd" clip-rule="evenodd" d="M57.5478 0.973587L53.24 22.5666H58.1325L62.4404 0.973587H57.5478Z" fill="#EDEDED"/>
<path fill-rule="evenodd" clip-rule="evenodd" d="M9.20037 0.973587H4.30783L-3.05176e-05 22.5666H4.89251L9.20037 0.973587Z" fill="#EDEDED"/>
<path fill-rule="evenodd" clip-rule="evenodd" d="M55.9617 0.973587H51.0692L41.9629 15.9603L39.0865 0.973587H34.1939L38.3338 22.5666H42.8365L55.9617 0.973587Z" fill="#EDEDED"/>
<path fill-rule="evenodd" clip-rule="evenodd" d="M80.7335 0.973587H64.7655L63.9187 5.50993H69.4766L66.0693 22.5666H70.9618L74.3624 5.50993H79.8934L80.7335 0.973587Z" fill="#EDEDED"/>
<path fill-rule="evenodd" clip-rule="evenodd" d="M28.1121 0.973587L25.2625 15.2614L17.7759 0.973587H13.5487L9.24753 22.5666H13.9586L16.8148 8.24518L24.2814 22.5666H28.522L32.8231 0.973587H28.1121Z" fill="#EDEDED"/>
<path fill-rule="evenodd" clip-rule="evenodd" d="M92.367 0.973587H83.3951L79.0872 22.5666H84.0067L87.3669 5.50993H91.5942C92.4445 5.47026 93.2743 5.7784 93.8926 6.36344C94.3663 6.87468 94.5965 7.56539 94.5243 8.25862C94.316 10.4293 92.609 11.4307 90.3979 11.4307H86.8293L91.4261 22.5666H96.3187L93.2608 15.174C96.7968 14.7192 99.4492 11.7161 99.4639 8.1511C99.6655 3.96422 96.5875 0.973587 92.3469 0.973587" fill="#EDEDED"/>
<path d="M100.391 11.7737C100.763 5.49028 105.999 0.603503 112.293 0.664676C118.805 0.664676 123.201 5.60425 122.844 11.767C122.472 18.0504 117.237 22.9372 110.942 22.876C104.43 22.876 100.035 17.9364 100.398 11.7737M118.295 11.7737C118.454 10.0213 117.858 8.28414 116.654 7.00007C115.451 5.71601 113.757 5.00752 111.997 5.05317C108.225 5.0387 105.114 8.00473 104.948 11.7737C104.788 13.5261 105.385 15.2632 106.588 16.5473C107.791 17.8314 109.486 18.5399 111.245 18.4942C115.02 18.5123 118.135 15.5453 118.301 11.7737" fill="#EDEDED"/>
</svg>
