<svg width="59" height="47" viewBox="0 0 59 47" fill="none" xmlns="http://www.w3.org/2000/svg">
<path d="M10.7816 46.1837C16.739 46.1837 21.5684 41.3542 21.5684 35.3968C21.5684 29.4395 16.739 24.61 10.7816 24.61C4.82422 24.61 -0.00518799 29.4395 -0.00518799 35.3968C-0.00518799 41.3542 4.82422 46.1837 10.7816 46.1837Z" fill="#EDEDED"/>
<path d="M21.0946 0.530668C21.0362 0.429808 20.9579 0.341909 20.8644 0.272336C20.7709 0.202764 20.6642 0.152978 20.5508 0.126018C20.4374 0.0990569 20.3197 0.0954871 20.2049 0.115526C20.09 0.135565 19.9805 0.178793 19.883 0.24257C17.979 1.47188 16.5144 3.27394 15.7004 5.38906C15.6588 5.49879 15.6194 5.60804 15.5823 5.71681C15.1207 7.10775 14.9616 8.58128 15.1158 10.0387C15.27 11.4961 15.7338 12.9037 16.4761 14.1673C22.5025 24.6014 28.5289 35.0354 34.5553 45.4695C34.6119 45.5673 34.6872 45.6529 34.7769 45.7215C34.8666 45.7901 34.969 45.8403 35.0782 45.8692C35.1874 45.8981 35.3012 45.9052 35.4131 45.89C35.525 45.8748 35.6329 45.8377 35.7304 45.7807C37.0722 45.0123 38.2117 43.9355 39.0547 42.6393C40.3579 40.6089 40.6278 38.4384 40.5103 36.6194C40.3762 34.7288 39.808 32.8945 38.85 31.2591C32.9316 21.0163 27.0131 10.7735 21.0946 0.530668Z" fill="#EDEDED"/>
<path d="M39.0779 0.530668C39.0195 0.429808 38.9412 0.341909 38.8476 0.272336C38.7541 0.202764 38.6474 0.152978 38.534 0.126018C38.4206 0.0990569 38.303 0.0954871 38.1881 0.115526C38.0733 0.135565 37.9638 0.178793 37.8662 0.24257C35.9622 1.47188 34.4977 3.27394 33.6837 5.38906C33.642 5.49879 33.6027 5.60804 33.5655 5.71681C33.1039 7.10775 32.9449 8.58127 33.0991 10.0387C33.2532 11.4961 33.717 12.9037 34.4594 14.1673C40.4858 24.6014 46.5122 35.0354 52.5386 45.4695C52.5952 45.5673 52.6705 45.6529 52.7602 45.7215C52.8499 45.7901 52.9523 45.8403 53.0615 45.8692C53.1707 45.8981 53.2845 45.9052 53.3964 45.89C53.5083 45.8748 53.6161 45.8377 53.7137 45.7807C55.0555 45.0123 56.195 43.9355 57.038 42.6393C58.3411 40.6089 58.6111 38.4384 58.4936 36.6194C58.3595 34.7288 57.7913 32.8945 56.8333 31.2591C50.9148 21.0163 44.9964 10.7735 39.0779 0.530668Z" fill="#EDEDED"/>
</svg>
