<svg width="131" height="15" viewBox="0 0 131 15" fill="none" xmlns="http://www.w3.org/2000/svg">
<path d="M71.0006 13.7854V5.368C70.9684 5.35846 70.9362 5.34892 70.9028 5.33818C70.8145 5.54328 70.7167 5.746 70.638 5.95467C69.7258 8.39559 68.8089 10.8341 67.9169 13.2834C67.7786 13.6638 67.5926 13.8176 67.1859 13.7949C66.6124 13.7639 66.0341 13.7592 65.4605 13.7961C65.0098 13.8248 64.7915 13.6614 64.6353 13.2381C63.735 10.7936 62.8061 8.35743 61.8868 5.92009C61.8128 5.72453 61.727 5.53255 61.5016 5.3513C61.4909 5.54925 61.467 5.746 61.4706 5.94394C61.5064 8.33716 61.5326 10.7304 61.5946 13.1224C61.6077 13.6352 61.4813 13.8343 60.94 13.7985C60.2531 13.7544 59.5603 13.7878 58.8186 13.7878C58.8008 13.5302 58.7757 13.3418 58.7757 13.1522C58.7733 9.33404 58.7864 5.51705 58.7614 1.69887C58.7578 1.13842 58.9367 0.990559 59.4673 1.01202C60.3783 1.04899 61.2929 1.04183 62.2052 1.01322C62.6082 1.00129 62.7918 1.13723 62.9302 1.52C63.933 4.30553 64.9609 7.08272 65.9804 9.86229C66.0531 10.059 66.1295 10.2546 66.2666 10.6111C66.4252 10.2594 66.5289 10.0638 66.6029 9.85871C67.6057 7.09345 68.6133 4.33057 69.5935 1.55816C69.7354 1.1575 69.919 1.0001 70.3519 1.01322C71.3237 1.04422 72.2967 1.03229 73.2686 1.01918C73.6191 1.01441 73.7622 1.12888 73.761 1.49496C73.7527 5.43119 73.761 9.36743 73.7408 13.3037C73.7408 13.4646 73.5237 13.7568 73.3961 13.7639C72.6091 13.8069 71.8186 13.7854 70.9982 13.7854H71.0006Z" fill="#EDEDED"/>
<path d="M84.0577 0.729555C85.7725 0.724786 87.424 1.01455 88.9455 1.8099C90.9786 2.87236 92.0888 4.53343 92.2331 6.86464C92.4751 10.7746 90.163 12.9759 86.8683 13.7247C84.3976 14.2864 81.9507 14.191 79.5897 13.1798C76.9568 12.0529 75.5724 9.51543 75.8609 6.6667C76.1936 3.38392 78.5475 1.50822 81.8136 0.939424C82.5517 0.810641 83.3089 0.796332 84.0577 0.728363V0.729555ZM88.9443 7.37262C88.9443 5.20119 87.9952 4.02307 85.875 3.58306C84.6563 3.33026 83.4341 3.33026 82.2154 3.58306C80.2789 3.98491 79.3345 4.94959 79.1616 6.90996C78.9744 9.02415 79.7566 10.554 81.94 11.1169C83.2433 11.4531 84.5705 11.4806 85.8893 11.1825C88.0238 10.6995 88.9443 9.54167 88.9443 7.37262Z" fill="#EDEDED"/>
<path d="M41.7168 13.8007V13.0971C41.7168 9.29804 41.7299 5.49774 41.7036 1.69864C41.7001 1.10957 41.8837 0.949787 42.4453 0.983175C43.1954 1.0273 43.949 0.993907 44.773 0.993907V10.0207C45.0305 9.74043 45.176 9.59496 45.3072 9.43755C47.5346 6.77961 49.7657 4.12525 51.9788 1.45657C52.2579 1.11911 52.5441 0.968866 52.9876 0.984368C53.9177 1.01656 54.849 0.993907 55.8244 0.993907V13.7959C54.8991 13.7959 53.9714 13.8126 53.0473 13.7709C52.9507 13.7661 52.7921 13.4227 52.7909 13.2367C52.7814 11.1785 52.7992 9.12037 52.8076 7.06222C52.81 6.35391 52.8076 5.64441 52.8076 4.9361C52.7253 4.86814 52.643 4.80017 52.5619 4.7322C52.4689 4.9206 52.4081 5.13524 52.2781 5.29264C50.0471 7.97205 47.7994 10.6395 45.5755 13.3249C45.2809 13.6814 44.9781 13.8281 44.5178 13.8102C43.6115 13.7768 42.7017 13.8007 41.7179 13.8007H41.7168Z" fill="#EDEDED"/>
<path d="M94.2972 1.05926C94.5631 1.04376 94.7563 1.02349 94.9507 1.02349C98.1464 1.0211 101.342 1.03541 104.538 1.00918C105.108 1.00441 105.272 1.20116 105.218 1.72464C105.185 2.03825 105.182 2.36021 105.218 2.67263C105.283 3.23546 105.085 3.42625 104.498 3.41671C102.335 3.38451 100.171 3.42267 98.0081 3.39167C97.4154 3.38332 97.1781 3.54788 97.2294 4.1596C97.2771 4.72958 97.264 5.30791 97.233 5.87909C97.2056 6.36084 97.3641 6.52539 97.8685 6.52659C99.4533 6.53136 101.046 6.51228 102.622 6.65418C103.982 6.777 105.108 7.4233 105.486 8.8578C105.871 10.3245 105.835 11.7888 104.541 12.8143C103.97 13.2674 103.159 13.6132 102.439 13.649C99.8647 13.7766 97.2831 13.7563 94.7038 13.7683C94.5691 13.7683 94.3151 13.5417 94.3151 13.4189C94.2948 9.32524 94.2984 5.2316 94.2984 1.05688L94.2972 1.05926ZM99.6023 11.3834C99.6023 11.3834 99.6023 11.3738 99.6023 11.3679C100.295 11.3679 100.99 11.4037 101.68 11.3583C102.499 11.3047 102.938 10.6787 102.785 9.87256C102.661 9.21315 102.308 8.89238 101.461 8.86138C100.196 8.81487 98.9286 8.82918 97.6623 8.8578C97.5132 8.86138 97.2556 9.10463 97.2425 9.25369C97.1924 9.82129 97.1936 10.3984 97.2413 10.966C97.2533 11.1151 97.4953 11.3536 97.6444 11.3631C98.2943 11.4072 98.9489 11.3822 99.6023 11.3822V11.3834Z" fill="#EDEDED"/>
<path d="M13.2833 9.35869C14.2634 9.77962 15.2043 10.1839 16.1952 10.6096C15.4869 12.0774 14.3743 13.0684 12.8766 13.5012C10.233 14.2656 7.56435 14.3645 4.9398 13.3557C2.71233 12.5008 1.38038 10.9017 1.07393 8.52637C0.766279 6.13792 1.23133 3.98557 3.20719 2.38413C4.34716 1.45999 5.70534 1.00209 7.13746 0.829191C8.81521 0.625284 10.4989 0.663442 12.1624 1.03667C13.9737 1.4433 15.5024 2.61427 16.1737 4.16324C15.2377 4.56867 14.3004 4.97529 13.3286 5.39503C13.2272 5.27102 13.1247 5.15774 13.0364 5.03611C12.4772 4.26818 11.7426 3.76259 10.8042 3.57418C9.42335 3.29754 8.04967 3.2713 6.6891 3.70416C5.32257 4.1394 4.50456 5.08142 4.33881 6.47538C4.247 7.2445 4.29827 8.0649 4.46521 8.82209C4.73589 10.0491 5.63141 10.7717 6.81311 11.108C8.25596 11.517 9.71908 11.5039 11.1607 11.0961C12.0753 10.8361 12.7491 10.2256 13.2833 9.35869Z" fill="#EDEDED"/>
<path d="M28.3199 0.993702V13.7587H25.5392C25.6036 10.8981 25.6668 8.06843 25.73 5.23997C25.6787 5.22447 25.6274 5.20897 25.5761 5.19347C25.4724 5.38783 25.3627 5.57981 25.2661 5.77776C24.0379 8.2783 22.8001 10.7753 21.5934 13.2865C21.4002 13.6884 21.1725 13.8267 20.7348 13.81C19.8656 13.7754 18.9939 13.8005 18.0757 13.8005V1.04736H20.7301V9.67107C20.8672 9.43377 20.9733 9.2716 21.058 9.0987C22.3005 6.56 23.5466 4.02368 24.77 1.47783C24.9382 1.12725 25.1266 0.972238 25.5284 0.985354C26.4371 1.01397 27.3481 0.994894 28.3199 0.994894V0.993702Z" fill="#EDEDED"/>
<path d="M107.757 1.06047H110.494C110.433 3.91755 110.374 6.7484 110.314 9.57924C110.363 9.59594 110.411 9.61263 110.459 9.62933C110.569 9.43973 110.691 9.25609 110.787 9.06053C112.016 6.55999 113.249 4.06184 114.458 1.55176C114.646 1.16064 114.867 0.988926 115.313 1.01039C116.045 1.04736 116.781 1.03185 117.515 1.01635C117.875 1.00801 118.052 1.09386 118.049 1.50764C118.036 5.44387 118.045 9.37891 118.031 13.3151C118.031 13.4678 117.879 13.7492 117.789 13.7528C116.965 13.7874 116.138 13.773 115.27 13.773C115.337 10.8516 115.4 8.01954 115.464 5.18631C115.41 5.16723 115.356 5.14934 115.302 5.13026C115.197 5.32105 115.084 5.50826 114.987 5.70382C113.751 8.22225 112.507 10.7371 111.291 13.2663C111.097 13.6681 110.861 13.8136 110.425 13.7945C109.692 13.7623 108.956 13.8064 108.224 13.7683C108.063 13.7599 107.778 13.5417 107.777 13.4189C107.753 9.32645 107.757 5.234 107.757 1.05928V1.06047Z" fill="#EDEDED"/>
<path d="M124.748 3.35834C124.748 5.00509 124.777 6.56361 124.738 8.12093C124.714 9.06534 124.631 10.0145 124.49 10.9482C124.218 12.7416 123.202 13.6181 121.404 13.7063C120.934 13.729 120.465 13.7623 119.939 13.7945V11.1593C120.135 11.1378 120.324 11.1151 120.515 11.0949C121.512 10.9864 121.926 10.6036 122.044 9.60909C122.117 9.00214 122.162 8.38923 122.167 7.77751C122.181 5.56434 122.173 3.34999 122.173 1.08555C122.511 1.05574 122.701 1.02474 122.889 1.02474C125.173 1.02116 127.455 1.03189 129.739 1.01401C130.195 1.01043 130.35 1.13563 130.348 1.6138C130.329 5.47253 130.33 9.33006 130.348 13.1888C130.35 13.655 130.217 13.8279 129.743 13.7957C129.23 13.76 128.71 13.7635 128.196 13.7957C127.738 13.8244 127.629 13.6371 127.632 13.2079C127.647 10.1803 127.64 7.15267 127.639 4.12627C127.639 3.36072 127.636 3.36072 126.847 3.35953C126.214 3.35953 125.582 3.35953 124.75 3.35953L124.748 3.35834Z" fill="#EDEDED"/>
<path d="M39.9234 1.02937C39.9234 1.73291 39.9079 2.34463 39.9294 2.95635C39.9425 3.31885 39.8006 3.44883 39.4464 3.44287C38.6928 3.42975 37.9392 3.4381 37.1844 3.44287C36.9709 3.44406 36.7563 3.46433 36.4665 3.47983V4.21437C36.4665 7.16088 36.4498 10.1074 36.4808 13.0539C36.4868 13.6406 36.3056 13.8183 35.7415 13.7694C35.23 13.7253 34.7089 13.7372 34.1949 13.767C33.7335 13.7932 33.5713 13.6322 33.5773 13.16C33.5999 11.301 33.5856 9.44202 33.5856 7.5842C33.5856 6.45735 33.557 5.3293 33.5975 4.20364C33.619 3.6265 33.4819 3.38086 32.8499 3.42975C32.1201 3.48699 31.382 3.42975 30.6486 3.44525C30.273 3.45241 30.1323 3.31527 30.1144 2.93012C30.0238 0.995985 30.0143 0.997177 31.952 0.997177C34.3523 0.997177 36.7527 0.997177 39.1543 0.99837C39.3868 0.99837 39.6193 1.01864 39.9246 1.03295L39.9234 1.02937Z" fill="#EDEDED"/>
</svg>
