<svg width="112" height="26" viewBox="0 0 112 26" fill="none" xmlns="http://www.w3.org/2000/svg">
<path d="M38.7206 21.8132H41.46L45.2889 7.58681V21.8132H48.3708V3.0107H44.1371L40.3082 16.8013L36.4792 3.0107H32.1522V21.8132H34.7982V7.58681L38.7206 21.8132ZM61.2585 12.5053C61.2585 9.17444 59.6087 7.92924 56.1844 7.92924C54.0364 7.92924 52.3554 8.58297 51.3592 9.17444V11.8205C52.1998 11.1668 54.0987 10.4819 55.7797 10.4819C57.3673 10.4819 58.021 11.0734 58.021 12.4742V13.2213H57.523C52.6044 13.2213 50.3631 14.8712 50.3631 17.6418C50.3631 20.4124 52.013 21.9689 54.5345 21.9689C56.4334 21.9689 57.2739 21.3774 57.8654 20.7237H58.021C58.021 21.0661 58.1767 21.5642 58.2701 21.8132H61.4453C61.3519 20.7237 61.2897 19.5719 61.2897 18.4823C61.2585 18.4823 61.2585 12.5053 61.2585 12.5053ZM58.021 18.5757C57.6163 19.1672 56.8692 19.6652 55.6863 19.6652C54.3477 19.6652 53.694 18.8247 53.694 17.6729C53.694 16.0853 54.7835 15.525 57.6163 15.525H58.1144V18.6068H58.021V18.5757ZM66.8308 8.17828H63.8423V25.7356H67.0798V20.2567C67.9203 21.5019 69.0721 22.0934 70.5041 22.0934C73.6793 22.0934 75.8273 19.603 75.8273 15.0269C75.8273 10.4508 73.7416 7.96037 70.6597 7.96037C69.1655 7.96037 67.9203 8.6141 66.9864 9.95269C67.0175 9.92156 66.8308 8.17828 66.8308 8.17828ZM69.6013 19.5719C67.9514 19.5719 67.0175 18.171 67.0175 15.0891C67.0175 12.0073 67.9203 10.513 69.757 10.513C71.5936 10.513 72.403 11.9139 72.403 14.9957C72.403 18.0776 71.5002 19.5719 69.6013 19.5719ZM85.8822 21.8132H89.5555L84.388 14.4977L88.9641 8.17828H85.7266L81.1505 14.4977V8.17828H77.913V21.8132H81.1505V15.1514L85.8822 21.8132ZM100.358 20.9104V18.2644C99.3614 18.9181 97.7115 19.5096 96.1239 19.5096C93.7892 19.5096 92.8864 18.42 92.6996 16.0853H100.42V14.342C100.42 9.61026 98.3341 7.86698 95.0966 7.86698C91.1743 7.86698 89.2754 10.8555 89.2754 15.0269C89.2754 19.7586 91.6101 22.0934 95.6881 22.0934C97.9606 22.0623 99.4548 21.5642 100.358 20.9104ZM95.1278 10.513C96.7154 10.513 97.2135 11.8516 97.2135 13.5015V13.7505H92.6996C92.793 11.6026 93.6335 10.513 95.1278 10.513ZM112 10.7621V8.17828H101.198V10.7621H105.027V21.8132H108.265V10.7621H112Z" fill="#EDEDED"/>
<path fill-rule="evenodd" clip-rule="evenodd" d="M24.329 17.8029C22.3751 22.1382 18.021 25.1449 12.9446 25.1449C8.65185 25.1449 4.83177 22.9753 2.58099 19.6648L6.90544 13.9373L6.06494 19.852L10.641 21.4396L16.2133 12.5365C15.9642 14.1864 15.5595 18.0153 19.2017 19.1983C21.0022 19.7463 22.7319 19.1039 24.329 17.8029ZM25.2002 10.2694C23.4071 12.9749 21.6793 14.8881 20.7582 14.6533C19.1979 14.2556 20.5542 9.34752 21.4583 6.07593C21.4741 6.0187 21.4898 5.96197 21.5053 5.90577V5.81238L16.4312 4.0691L10.3608 13.9684L11.2014 8.55182L6.81205 7.02645L0.674094 15.0598C0.527536 14.284 0.454175 13.4823 0.461568 12.6617C0.461568 5.75089 6.0338 0.178619 12.9446 0.178619C19.0369 0.178619 24.0888 4.50901 25.2002 10.2694Z" fill="#EDEDED"/>
</svg>
