<svg width="136" height="30" viewBox="0 0 136 30" fill="none" xmlns="http://www.w3.org/2000/svg">
<path d="M23.3344 20.1351L19.9276 12.7353L16.5208 20.1351L18.096 20.1534L19.836 22.0766L19.9276 21.985L20.0192 22.0766L21.7592 20.1534L23.3344 20.1351Z" fill="#EDEDED"/>
<path d="M23.3342 20.135L27.8033 29.8609H39.5073L28.078 0.93959L19.9274 12.7352L23.3342 20.135Z" fill="#EDEDED"/>
<path d="M19.9276 12.7352L11.7952 0.93959L0.347626 29.8609H12.07L16.5208 20.135L19.9276 12.7352Z" fill="#EDEDED"/>
<path d="M50.1774 12.2168L47.6215 8.26571L49.1574 7.33949L52.3347 12.2168H50.1774ZM44.8429 12.2168V4.00979H46.7305V12.2168H44.8429ZM46.1794 8.91054V7.32776H49.0401V8.91054H46.1794ZM49.3333 8.32433L47.5863 8.11329L50.2477 4.00979H52.2526L49.3333 8.32433Z" fill="#EDEDED"/>
<path d="M56.9162 12.2168V10.9857L56.7989 10.7161V8.51192C56.7989 8.12111 56.6778 7.81627 56.4355 7.59742C56.201 7.37857 55.8376 7.26914 55.3451 7.26914C55.009 7.26914 54.6769 7.32385 54.3486 7.43328C54.0281 7.53489 53.7545 7.67558 53.5279 7.85536L52.8713 6.57741C53.2152 6.33511 53.6295 6.14752 54.1141 6.01464C54.5987 5.88177 55.0911 5.81533 55.5914 5.81533C56.5527 5.81533 57.2992 6.042 57.8307 6.49534C58.3622 6.94868 58.6279 7.65604 58.6279 8.61743V12.2168H56.9162ZM54.9934 12.3106C54.501 12.3106 54.0789 12.2285 53.7272 12.0644C53.3755 11.8924 53.1058 11.6618 52.9182 11.3726C52.7306 11.0834 52.6368 10.7591 52.6368 10.3995C52.6368 10.0243 52.7267 9.69607 52.9065 9.41469C53.0941 9.1333 53.3872 8.91445 53.7858 8.75813C54.1844 8.59399 54.7042 8.51192 55.3451 8.51192H57.0217V9.57883H55.5445C55.1146 9.57883 54.8175 9.64917 54.6534 9.78986C54.4971 9.93055 54.4189 10.1064 54.4189 10.3175C54.4189 10.5519 54.5088 10.7395 54.6886 10.8802C54.8762 11.0131 55.1302 11.0795 55.4507 11.0795C55.7555 11.0795 56.0291 11.0092 56.2714 10.8685C56.5137 10.72 56.6895 10.505 56.7989 10.2237L57.0803 11.0678C56.9475 11.4743 56.7052 11.783 56.3534 11.994C56.0017 12.2051 55.5484 12.3106 54.9934 12.3106Z" fill="#EDEDED"/>
<path d="M62.2933 12.334C61.8087 12.334 61.3241 12.2832 60.8395 12.1816C60.3627 12.08 59.9211 11.9276 59.5147 11.7244L60.0071 10.4464C60.3276 10.6027 60.6754 10.7239 61.0505 10.8099C61.4335 10.888 61.8204 10.9271 62.2112 10.9271C62.4926 10.9271 62.7349 10.8998 62.9382 10.845C63.1492 10.7825 63.3094 10.6965 63.4188 10.5871C63.5283 10.4777 63.583 10.3448 63.583 10.1885C63.583 9.98527 63.497 9.83285 63.3251 9.73124C63.1531 9.62182 62.903 9.5671 62.5747 9.5671H61.285V8.42985H62.4223C62.6333 8.42985 62.8131 8.4064 62.9616 8.3595C63.1101 8.3126 63.2195 8.24617 63.2899 8.16019C63.368 8.06639 63.4071 7.95697 63.4071 7.83191C63.4071 7.69903 63.3602 7.5857 63.2664 7.4919C63.1726 7.39811 63.0359 7.32776 62.8561 7.28087C62.6763 7.22615 62.4496 7.1988 62.1761 7.1988C61.8634 7.1988 61.5391 7.23788 61.203 7.31604C60.8669 7.38638 60.523 7.4919 60.1712 7.63259L59.7257 6.36637C60.14 6.19441 60.5503 6.05763 60.9568 5.95602C61.3632 5.85441 61.7657 5.7997 62.1644 5.79188C62.7506 5.77625 63.2782 5.83878 63.7471 5.97947C64.2161 6.12016 64.5835 6.32338 64.8492 6.58913C65.1228 6.85488 65.2596 7.17926 65.2596 7.56225C65.2596 7.86708 65.1658 8.14065 64.9782 8.38295C64.7984 8.62525 64.5483 8.81675 64.2278 8.95744C63.9074 9.09031 63.5478 9.15675 63.1492 9.15675L63.1961 8.7933C63.8917 8.7933 64.4389 8.93399 64.8375 9.21537C65.2361 9.48894 65.4354 9.86412 65.4354 10.3409C65.4354 10.7473 65.2947 11.103 65.0133 11.4078C64.7398 11.7048 64.3646 11.9354 63.8878 12.0995C63.4188 12.2559 62.8873 12.334 62.2933 12.334Z" fill="#EDEDED"/>
<path d="M70.5182 12.2168V10.9857L70.4009 10.7161V8.51192C70.4009 8.12111 70.2798 7.81627 70.0375 7.59742C69.803 7.37857 69.4395 7.26914 68.9471 7.26914C68.611 7.26914 68.2788 7.32385 67.9505 7.43328C67.6301 7.53489 67.3565 7.67558 67.1298 7.85536L66.4733 6.57741C66.8172 6.33511 67.2315 6.14752 67.7161 6.01464C68.2007 5.88177 68.6931 5.81533 69.1933 5.81533C70.1547 5.81533 70.9011 6.042 71.4326 6.49534C71.9641 6.94868 72.2299 7.65604 72.2299 8.61743V12.2168H70.5182ZM68.5954 12.3106C68.103 12.3106 67.6809 12.2285 67.3292 12.0644C66.9774 11.8924 66.7078 11.6618 66.5202 11.3726C66.3326 11.0834 66.2388 10.7591 66.2388 10.3995C66.2388 10.0243 66.3287 9.69607 66.5085 9.41469C66.696 9.1333 66.9892 8.91445 67.3878 8.75813C67.7864 8.59399 68.3062 8.51192 68.9471 8.51192H70.6237V9.57883H69.1464C68.7165 9.57883 68.4195 9.64917 68.2554 9.78986C68.0991 9.93055 68.0209 10.1064 68.0209 10.3175C68.0209 10.5519 68.1108 10.7395 68.2905 10.8802C68.4781 11.0131 68.7322 11.0795 69.0526 11.0795C69.3575 11.0795 69.631 11.0092 69.8733 10.8685C70.1156 10.72 70.2915 10.505 70.4009 10.2237L70.6823 11.0678C70.5494 11.4743 70.3071 11.783 69.9554 11.994C69.6037 12.2051 69.1503 12.3106 68.5954 12.3106Z" fill="#EDEDED"/>
<path d="M73.8187 12.2168V5.90912H75.636V8.37122H78.3794V5.90912H80.2084V12.2168H78.3794V9.86021H75.636V12.2168H73.8187Z" fill="#EDEDED"/>
<path d="M84.9607 12.3106C84.2807 12.3106 83.6749 12.1738 83.1434 11.9002C82.6119 11.6189 82.1938 11.232 81.8889 10.7395C81.5919 10.2471 81.4434 9.68825 81.4434 9.06296C81.4434 8.42985 81.5919 7.87099 81.8889 7.38638C82.1938 6.89396 82.6119 6.51097 83.1434 6.2374C83.6749 5.95602 84.2807 5.81533 84.9607 5.81533C85.6251 5.81533 86.2035 5.95602 86.6959 6.2374C87.1883 6.51097 87.5518 6.90569 87.7862 7.42156L86.3676 8.18364C86.2035 7.88662 85.9963 7.66777 85.7462 7.52708C85.5039 7.38638 85.2382 7.31604 84.949 7.31604C84.6363 7.31604 84.3549 7.38638 84.1048 7.52708C83.8547 7.66777 83.6554 7.86708 83.5069 8.12501C83.3662 8.38295 83.2958 8.6956 83.2958 9.06296C83.2958 9.43032 83.3662 9.74297 83.5069 10.0009C83.6554 10.2588 83.8547 10.4581 84.1048 10.5988C84.3549 10.7395 84.6363 10.8099 84.949 10.8099C85.2382 10.8099 85.5039 10.7434 85.7462 10.6106C85.9963 10.4699 86.2035 10.2471 86.3676 9.94228L87.7862 10.7161C87.5518 11.2241 87.1883 11.6189 86.6959 11.9002C86.2035 12.1738 85.6251 12.3106 84.9607 12.3106Z" fill="#EDEDED"/>
<path d="M93.3646 12.2168L91.2542 9.2271L92.7432 8.34778L95.5219 12.2168H93.3646ZM88.8977 12.2168V5.90912H90.7266V12.2168H88.8977ZM90.1873 9.82504V8.3595H92.3915V9.82504H90.1873ZM92.9191 9.27399L91.2073 9.08641L93.4232 5.90912H95.3694L92.9191 9.27399Z" fill="#EDEDED"/>
<path d="M96.42 12.2168V5.90912H98.2372V9.6609L101.309 5.90912H102.986V12.2168H101.168V8.46502L98.1083 12.2168H96.42Z" fill="#EDEDED"/>
<path d="M104.744 12.2168V5.90912H106.561V9.6609L109.633 5.90912H111.309V12.2168H109.492V8.46502L106.432 12.2168H104.744ZM107.909 5.22912C107.221 5.22912 106.706 5.08061 106.362 4.78359C106.018 4.47876 105.842 4.02151 105.834 3.41185H107.03C107.038 3.6776 107.112 3.88864 107.253 4.04496C107.393 4.20129 107.608 4.27945 107.898 4.27945C108.179 4.27945 108.394 4.20129 108.542 4.04496C108.699 3.88864 108.777 3.6776 108.777 3.41185H109.996C109.996 4.02151 109.82 4.47876 109.469 4.78359C109.117 5.08061 108.597 5.22912 107.909 5.22912Z" fill="#EDEDED"/>
<path d="M44.7256 25.1135V18.8058H46.6367L49.0167 23.1204H48.2546L50.7988 18.8058H52.5105L52.534 25.1135H50.8809V20.6817L51.1622 20.8693L48.9933 24.5038H48.2195L46.0387 20.7403L46.3787 20.6583V25.1135H44.7256Z" fill="#EDEDED"/>
<path d="M57.3694 25.2073C56.6503 25.2073 56.0172 25.0666 55.4701 24.7852C54.9308 24.5038 54.5126 24.1209 54.2156 23.6362C53.9186 23.1438 53.7701 22.585 53.7701 21.9597C53.7701 21.3266 53.9147 20.7677 54.2039 20.2831C54.5009 19.7907 54.9034 19.4077 55.4115 19.1341C55.9195 18.8527 56.494 18.712 57.1349 18.712C57.7524 18.712 58.3073 18.8449 58.7998 19.1107C59.3 19.3686 59.6947 19.7438 59.9839 20.2362C60.2731 20.7208 60.4177 21.3031 60.4177 21.9831C60.4177 22.0535 60.4138 22.1355 60.406 22.2293C60.3982 22.3153 60.3904 22.3974 60.3825 22.4755H55.259V21.4086H59.4212L58.7177 21.7252C58.7177 21.3969 58.6513 21.1116 58.5184 20.8693C58.3855 20.627 58.2018 20.4394 57.9673 20.3065C57.7329 20.1659 57.4593 20.0955 57.1466 20.0955C56.834 20.0955 56.5565 20.1659 56.3142 20.3065C56.0797 20.4394 55.8961 20.6309 55.7632 20.881C55.6303 21.1233 55.5639 21.4125 55.5639 21.7486V22.03C55.5639 22.3739 55.6381 22.6788 55.7866 22.9445C55.943 23.2024 56.1579 23.4018 56.4315 23.5425C56.7128 23.6753 57.0411 23.7418 57.4163 23.7418C57.7524 23.7418 58.0455 23.691 58.2956 23.5894C58.5536 23.4877 58.788 23.3353 58.9991 23.1321L59.9722 24.1873C59.683 24.5156 59.3195 24.7696 58.8818 24.9494C58.4441 25.1213 57.94 25.2073 57.3694 25.2073Z" fill="#EDEDED"/>
<path d="M62.9504 25.1135V19.8845L63.3608 20.3065H60.8166V18.8058H66.9015V20.3065H64.3573L64.7677 19.8845V25.1135H62.9504Z" fill="#EDEDED"/>
<path d="M71.593 25.2073C71.0615 25.2073 70.5965 25.0901 70.1978 24.8556C69.7992 24.6211 69.4866 24.2655 69.2599 23.7887C69.0411 23.3041 68.9316 22.6944 68.9316 21.9597C68.9316 21.2171 69.0371 20.6075 69.2482 20.1307C69.4592 19.6539 69.764 19.2983 70.1627 19.0638C70.5613 18.8293 71.0381 18.712 71.593 18.712C72.1871 18.712 72.7186 18.8488 73.1875 19.1224C73.6643 19.3881 74.0395 19.7633 74.3131 20.2479C74.5944 20.7325 74.7351 21.3031 74.7351 21.9597C74.7351 22.6241 74.5944 23.1985 74.3131 23.6831C74.0395 24.1677 73.6643 24.5429 73.1875 24.8087C72.7186 25.0744 72.1871 25.2073 71.593 25.2073ZM67.8647 27.388V18.8058H69.6116V20.0955L69.5765 21.9714L69.6937 23.8356V27.388H67.8647ZM71.2765 23.7066C71.5813 23.7066 71.851 23.6362 72.0855 23.4956C72.3278 23.3549 72.5192 23.1556 72.6599 22.8976C72.8084 22.6319 72.8827 22.3192 72.8827 21.9597C72.8827 21.5923 72.8084 21.2797 72.6599 21.0217C72.5192 20.7638 72.3278 20.5645 72.0855 20.4238C71.851 20.2831 71.5813 20.2128 71.2765 20.2128C70.9716 20.2128 70.6981 20.2831 70.4558 20.4238C70.2135 20.5645 70.022 20.7638 69.8813 21.0217C69.7406 21.2797 69.6703 21.5923 69.6703 21.9597C69.6703 22.3192 69.7406 22.6319 69.8813 22.8976C70.022 23.1556 70.2135 23.3549 70.4558 23.4956C70.6981 23.6362 70.9716 23.7066 71.2765 23.7066Z" fill="#EDEDED"/>
<path d="M78.9715 25.2073C78.2993 25.2073 77.7014 25.0666 77.1777 24.7852C76.6618 24.5038 76.2515 24.1209 75.9467 23.6362C75.6497 23.1438 75.5011 22.585 75.5011 21.9597C75.5011 21.3266 75.6497 20.7677 75.9467 20.2831C76.2515 19.7907 76.6618 19.4077 77.1777 19.1341C77.7014 18.8527 78.2993 18.712 78.9715 18.712C79.6359 18.712 80.2299 18.8527 80.7536 19.1341C81.2773 19.4077 81.6876 19.7868 81.9847 20.2714C82.2817 20.756 82.4302 21.3187 82.4302 21.9597C82.4302 22.585 82.2817 23.1438 81.9847 23.6362C81.6876 24.1209 81.2773 24.5038 80.7536 24.7852C80.2299 25.0666 79.6359 25.2073 78.9715 25.2073ZM78.9715 23.7066C79.2764 23.7066 79.5499 23.6362 79.7922 23.4956C80.0345 23.3549 80.226 23.1556 80.3667 22.8976C80.5074 22.6319 80.5777 22.3192 80.5777 21.9597C80.5777 21.5923 80.5074 21.2797 80.3667 21.0217C80.226 20.7638 80.0345 20.5645 79.7922 20.4238C79.5499 20.2831 79.2764 20.2128 78.9715 20.2128C78.6667 20.2128 78.3931 20.2831 78.1508 20.4238C77.9085 20.5645 77.7131 20.7638 77.5646 21.0217C77.4239 21.2797 77.3536 21.5923 77.3536 21.9597C77.3536 22.3192 77.4239 22.6319 77.5646 22.8976C77.7131 23.1556 77.9085 23.3549 78.1508 23.4956C78.3931 23.6362 78.6667 23.7066 78.9715 23.7066Z" fill="#EDEDED"/>
<path d="M83.6882 25.1135V18.8058H89.9606V25.1135H88.1316V19.8962L88.542 20.3065H85.0951L85.5054 19.8962V25.1135H83.6882Z" fill="#EDEDED"/>
<path d="M94.6687 25.2073C93.9966 25.2073 93.3986 25.0666 92.8749 24.7852C92.3591 24.5038 91.9487 24.1209 91.6439 23.6362C91.3469 23.1438 91.1984 22.585 91.1984 21.9597C91.1984 21.3266 91.3469 20.7677 91.6439 20.2831C91.9487 19.7907 92.3591 19.4077 92.8749 19.1341C93.3986 18.8527 93.9966 18.712 94.6687 18.712C95.3331 18.712 95.9271 18.8527 96.4508 19.1341C96.9745 19.4077 97.3849 19.7868 97.6819 20.2714C97.9789 20.756 98.1274 21.3187 98.1274 21.9597C98.1274 22.585 97.9789 23.1438 97.6819 23.6362C97.3849 24.1209 96.9745 24.5038 96.4508 24.7852C95.9271 25.0666 95.3331 25.2073 94.6687 25.2073ZM94.6687 23.7066C94.9736 23.7066 95.2471 23.6362 95.4894 23.4956C95.7317 23.3549 95.9232 23.1556 96.0639 22.8976C96.2046 22.6319 96.275 22.3192 96.275 21.9597C96.275 21.5923 96.2046 21.2797 96.0639 21.0217C95.9232 20.7638 95.7317 20.5645 95.4894 20.4238C95.2471 20.2831 94.9736 20.2128 94.6687 20.2128C94.3639 20.2128 94.0903 20.2831 93.848 20.4238C93.6057 20.5645 93.4103 20.7638 93.2618 21.0217C93.1211 21.2797 93.0508 21.5923 93.0508 21.9597C93.0508 22.3192 93.1211 22.6319 93.2618 22.8976C93.4103 23.1556 93.6057 23.3549 93.848 23.4956C94.0903 23.6362 94.3639 23.7066 94.6687 23.7066Z" fill="#EDEDED"/>
<path d="M98.4965 25.1018L98.5903 23.6011C98.6372 23.6089 98.6841 23.6167 98.731 23.6245C98.7779 23.6245 98.8209 23.6245 98.86 23.6245C99.0788 23.6245 99.2508 23.562 99.3758 23.4369C99.5009 23.3119 99.5947 23.1438 99.6572 22.9328C99.7198 22.7139 99.7627 22.4677 99.7862 22.1942C99.8175 21.9206 99.8409 21.6353 99.8565 21.3383L99.9503 18.8058H105.343V25.1135H103.515V19.861L103.925 20.3065H101.158L101.545 19.8376L101.463 21.4204C101.439 21.9831 101.392 22.499 101.322 22.968C101.26 23.4369 101.154 23.8434 101.006 24.1873C100.857 24.5234 100.658 24.7852 100.408 24.9728C100.157 25.1526 99.837 25.2425 99.4462 25.2425C99.3055 25.2425 99.157 25.2308 99.0007 25.2073C98.8443 25.1839 98.6763 25.1487 98.4965 25.1018Z" fill="#EDEDED"/>
<path d="M107.102 25.1135V18.8058H108.92V22.5576L111.991 18.8058H113.668V25.1135H111.851V21.3617L108.791 25.1135H107.102Z" fill="#EDEDED"/>
<path d="M116.774 25.1135V19.8845L117.185 20.3065H114.641V18.8058H120.725V20.3065H118.181L118.592 19.8845V25.1135H116.774Z" fill="#EDEDED"/>
<path d="M124.521 25.2073C123.801 25.2073 123.168 25.0666 122.621 24.7852C122.082 24.5038 121.664 24.1209 121.367 23.6362C121.07 23.1438 120.921 22.585 120.921 21.9597C120.921 21.3266 121.066 20.7677 121.355 20.2831C121.652 19.7907 122.055 19.4077 122.563 19.1341C123.071 18.8527 123.645 18.712 124.286 18.712C124.904 18.712 125.458 18.8449 125.951 19.1107C126.451 19.3686 126.846 19.7438 127.135 20.2362C127.424 20.7208 127.569 21.3031 127.569 21.9831C127.569 22.0535 127.565 22.1355 127.557 22.2293C127.549 22.3153 127.541 22.3974 127.534 22.4755H122.41V21.4086H126.572L125.869 21.7252C125.869 21.3969 125.802 21.1116 125.67 20.8693C125.537 20.627 125.353 20.4394 125.118 20.3065C124.884 20.1659 124.61 20.0955 124.298 20.0955C123.985 20.0955 123.708 20.1659 123.465 20.3065C123.231 20.4394 123.047 20.6309 122.914 20.881C122.781 21.1233 122.715 21.4125 122.715 21.7486V22.03C122.715 22.3739 122.789 22.6788 122.938 22.9445C123.094 23.2024 123.309 23.4018 123.583 23.5425C123.864 23.6753 124.192 23.7418 124.567 23.7418C124.904 23.7418 125.197 23.691 125.447 23.5894C125.705 23.4877 125.939 23.3353 126.15 23.1321L127.123 24.1873C126.834 24.5156 126.471 24.7696 126.033 24.9494C125.595 25.1213 125.091 25.2073 124.521 25.2073Z" fill="#EDEDED"/>
<path d="M128.971 25.1135V18.8058H130.788V21.2679H133.532V18.8058H135.361V25.1135H133.532V22.7569H130.788V25.1135H128.971Z" fill="#EDEDED"/>
</svg>
