<svg width="93" height="33" viewBox="0 0 93 33" fill="none" xmlns="http://www.w3.org/2000/svg">
<path d="M92.3846 15.2607C91.0658 11.9172 87.7781 10.0783 84.2304 10.7284L76.9491 12.0287C75.7417 12.2516 74.943 13.4032 75.1473 14.6105C75.3702 15.8179 76.5219 16.6166 77.7292 16.4123L85.0105 15.1121C86.7379 14.7963 87.8153 15.8365 88.2425 16.9138C88.6697 17.9911 88.5954 19.4771 87.1094 20.4244L76.4104 27.3528C75.426 28.0029 74.2 28.04 73.1784 27.4828C72.1382 26.9256 71.5253 25.8854 71.5253 24.6966V2.22124C71.5253 0.995311 70.5408 -0.00772095 69.2963 -0.00772095C68.0518 -0.00772095 67.0673 0.995311 67.0673 2.22124V24.6594C67.0673 27.5014 68.5533 29.9904 71.0423 31.3463C72.194 31.9779 73.4385 32.2936 74.683 32.2936C76.1132 32.2936 77.5435 31.885 78.8251 31.0491L89.5241 24.1208C92.5518 22.1704 93.7034 18.6041 92.3846 15.2607ZM54.7709 10.7099L47.4896 12.0101C46.2823 12.233 45.4836 13.3846 45.6879 14.592C45.9108 15.7993 47.0624 16.598 48.2698 16.3937L55.551 15.0935C57.2785 14.7777 58.3558 15.8179 58.783 16.8952C59.2103 17.9726 59.136 19.4585 57.65 20.4058L46.951 27.3342C45.9665 27.9843 44.7406 28.0215 43.719 27.4642C42.6788 26.907 42.0658 25.8668 42.0658 24.678V7.62647C42.0658 4.78454 40.5799 2.29554 38.0908 0.939588C35.6018 -0.416363 32.6856 -0.304913 30.3081 1.23678L3.43049 18.6598C0.40282 20.6287 -0.730235 24.1951 0.588567 27.5385C1.90737 30.882 5.19509 32.7208 8.74285 32.0707L32.2212 27.8543C33.4286 27.6314 34.2273 26.4798 34.023 25.2724C33.8001 24.0651 32.6485 23.2663 31.4411 23.4707L7.96272 27.6871C6.23527 28.0029 5.15794 26.9627 4.73072 25.8854C4.3035 24.808 4.3778 23.3221 5.86378 22.3748L32.7413 4.95172C33.7258 4.3016 34.9517 4.26445 35.9733 4.82169C37.0135 5.37893 37.6265 6.41912 37.6265 7.60789V24.6594C37.6265 27.5014 39.1125 29.9904 41.6015 31.3463C42.7531 31.9779 43.9976 32.2936 45.2421 32.2936C46.6723 32.2936 48.1026 31.885 49.3657 31.0491L60.0647 24.1208C63.0924 22.1519 64.2254 18.5855 62.9066 15.2421C61.6064 11.8986 58.3187 10.0783 54.7709 10.7099Z" fill="#EDEDED"/>
</svg>
