<svg width="145" height="39" viewBox="0 0 145 39" fill="none" xmlns="http://www.w3.org/2000/svg">
<path d="M65.3965 22.8039L67.0119 15.4871C65.7477 15.2057 64.4835 14.9947 63.2192 14.9947C61.1825 14.9947 59.7076 15.4871 58.5838 16.8239C56.6874 19.0048 55.6474 22.9361 55.0009 24C54.3545 25.0639 52.0208 25.3092 51.9563 24.602C51.9563 24.602 51.8048 24.4437 52.1924 23.0854L52.5436 21.6783C52.7543 20.7637 52.8948 19.8491 52.965 18.9345C52.965 15.6981 50.2259 15.065 48.0486 15.065C46.4333 15.065 44.8881 15.4167 43.4132 16.05L43.9048 18.5123C45.0286 18.0199 46.2226 17.7384 47.4165 17.7384C49.0319 17.7384 49.5236 18.3716 49.5236 19.2862C49.5236 19.3566 49.5236 19.638 49.4534 19.8491H48.2593C46.0119 19.8491 43.9751 20.2712 42.6406 21.4672C41.7276 22.3115 41.2359 23.4372 41.3062 24.7036C41.2359 26.4624 42.5704 28.0102 44.3965 28.0806H44.8179C46.363 28.0102 47.7677 27.2363 48.6105 25.97C48.8212 27.5177 50.0855 28.1509 51.6306 28.0806C53.6674 28.0102 56.5818 28.0806 58.1623 25.0553C59.1457 23.015 59.848 20.6933 60.9718 19.0048C61.3229 18.3716 62.0252 18.0199 62.7276 18.0199H63.0788L61.955 23.015C61.5336 24.7739 61.6711 26.5622 62.9184 28.0807L65.6516 26.347C64.9492 25.0103 64.9751 24.2111 65.3965 22.8039ZM48.8915 22.4522C48.5403 23.9297 47.2761 24.985 45.8012 25.1256C45.0286 25.1256 44.6072 24.7739 44.6072 24C44.6072 23.5778 44.7477 23.1558 45.0988 22.8743C45.6607 22.3115 46.7142 22.03 48.3296 22.03H49.032L48.8915 22.4522ZM95.11 22.8041L96.7255 15.3465H93.424L90.0533 19.3567C89.491 19.99 88.9295 20.6231 88.5078 21.3267H88.3672C87.6651 19.2864 86.8924 17.3164 85.9798 15.3465H83.2406C82.6084 18.5828 81.8495 21.9175 81.0068 23.4653C80.0257 25.2665 78.1838 25.2222 77.481 24.9147C77.1452 24.7677 77.6922 23.7187 77.832 23.0855L78.1838 21.6784C78.3943 20.7639 78.5349 19.8492 78.6048 18.9346C78.6048 15.6983 75.8656 15.0651 73.6886 15.0651C72.0731 15.0651 70.528 15.4169 69.053 16.0501L69.5447 18.5125C70.6684 18.02 71.8624 17.7386 73.0564 17.7386C74.6718 17.7386 75.1635 18.3717 75.1635 19.2864C75.1635 19.4975 75.1635 19.6381 75.0935 19.8492H73.8991C71.6517 19.8492 69.6149 20.2714 68.2804 21.4674C67.3674 22.3117 66.6998 23.6652 66.7799 24.7282C66.6998 26.347 67.722 27.8734 70.0363 28.0807H70.4577C72.0029 28.0103 73.4075 27.2364 74.2501 25.9701C74.6012 28.7139 79.8691 28.4325 81.9762 27.0254C83.451 26.0404 84.0126 24.774 84.5748 23.0152C84.7853 22.3117 84.9965 21.5378 85.1364 20.8342H85.207C85.8392 22.2413 86.4007 24.0001 86.8224 25.2665H88.2973L90.5449 22.5931C90.9659 22.1006 91.5981 21.3267 91.9491 20.8342H92.0198C91.3876 23.0855 90.4743 25.9701 91.9491 28.2917L95.3205 27.0254C94.8289 25.6183 94.6883 24.1409 95.11 22.8041ZM74.7417 22.4523C74.3907 23.9298 73.1266 24.9851 71.6517 25.1258C70.8792 25.1258 70.3875 24.774 70.3875 24.0001C70.3875 23.578 70.528 23.1559 70.8791 22.8745C71.441 22.3117 72.4945 22.0302 74.1096 22.0302H74.8124L74.7417 22.4523ZM120.183 15.1355C118.357 14.7133 116.742 15.2762 115.267 17.3164C115.338 16.4019 115.127 15.5576 114.635 14.7837L111.685 15.9094C112.036 16.6833 112.177 17.5275 112.036 18.3014L110.702 24.563C109.929 24.9851 107.612 25.1962 107.331 24.8444C107.471 23.9298 107.822 22.6634 108.103 21.6081C108.314 20.6935 108.454 19.7789 108.525 18.8642C108.525 15.628 105.786 14.9948 103.608 14.9948C101.993 14.9948 100.448 15.3465 98.9731 15.9797L99.4647 18.4422C100.588 17.9497 101.782 17.6683 102.976 17.6683C104.591 17.6683 105.083 18.3014 105.083 19.2161C105.083 19.2864 105.083 19.5678 105.013 19.7789H103.819C101.572 19.7789 99.5346 20.201 98.2702 21.397C97.3576 22.2413 96.8165 23.4994 96.8689 24.6273C96.8325 26.285 98.2003 27.94 100.026 28.0103H100.448C101.993 27.94 103.398 27.1661 104.24 25.8997C104.17 26.6736 106.839 28.8546 110.21 27.5882L108.805 33.9905H112.317L113.722 27.6586C114.494 27.94 115.338 28.0807 116.18 28.0807C120.254 28.0807 123.134 24.9851 123.274 20.4825C123.344 18.1607 122.571 15.6983 120.395 15.2058L120.183 15.1355ZM104.521 22.5227C104.17 24.0001 102.906 25.0555 101.431 25.1962C100.658 25.1962 100.237 24.8444 100.237 24.0705C100.237 23.6484 100.377 23.2262 100.729 22.9448C101.291 22.382 102.344 22.1006 103.959 22.1006H104.662L104.521 22.5227ZM119.622 20.7639C119.551 23.0855 118.147 25.1258 115.759 25.1258C115.197 25.1258 114.706 24.9851 114.214 24.8444L114.706 22.1006C115.408 18.1607 119.832 16.1908 119.622 20.7639ZM123.555 27.7289H127.067L128.12 23.0855C128.331 21.8192 128.823 20.6935 129.525 19.6381C130.086 18.7939 130.93 18.2311 131.983 18.1607C132.615 18.1607 132.896 18.5125 132.896 19.1457C132.896 19.5678 132.826 19.99 132.685 20.412L131.07 27.7289H134.581L135.635 23.0855C135.846 21.8192 136.337 20.6231 137.11 19.6381C137.672 18.7939 138.514 18.2311 139.568 18.1607C140.13 18.1607 140.481 18.5125 140.481 19.1457C140.481 19.5678 140.411 19.99 140.27 20.412L139.217 25.1962C138.936 26.3218 139.006 27.5882 139.568 28.6436L142.869 27.4475C142.588 26.6736 142.518 25.8294 142.729 24.9851L143.712 20.5528C143.923 19.6381 144.064 18.7236 144.133 17.8089C144.133 16.0501 142.94 15.1355 141.184 15.1355C139.217 15.1355 137.461 16.5425 136.407 17.8793H136.337C136.337 16.0501 135.284 15.1355 133.598 15.1355C131.702 15.1355 129.946 16.4722 128.962 17.8089H128.893C129.033 16.824 128.893 15.839 128.542 14.9244L125.451 16.0501C125.732 16.824 125.802 17.5978 125.662 18.3717L123.555 27.7289Z" fill="#EDEDED"/>
<path d="M39.934 9.50633C38.7401 9.50633 35.2986 9.50633 34.4558 13.1648L31.2952 27.3764H35.3688L38.108 14.6422C38.3187 13.7277 38.5996 12.8834 40.0745 12.9538H45.8337L46.4658 9.50633H39.934Z" fill="#EDEDED"/>
<path fill-rule="evenodd" clip-rule="evenodd" d="M20.5237 8.8471C20.7447 8.54768 20.763 8.17849 20.7499 7.91481L20.5042 2.9603C22.8394 2.35763 25.088 1.77664 25.088 1.77664C25.5389 1.68042 25.7729 1.82175 25.4907 2.29003L20.7062 12.2243C20.4997 12.6892 20.1934 12.627 19.9526 12.3342C19.9526 12.3342 18.9911 10.9566 17.9143 9.41398L19.5892 9.24278C19.9081 9.26803 20.275 9.18392 20.5237 8.8471ZM17.4823 8.7952L19.5914 8.57964C19.9736 8.63676 20.1137 8.40202 20.0912 7.94742L19.8522 3.12854C17.7044 3.6827 15.6537 4.21116 15.3875 4.27736C14.8053 4.42214 14.6124 4.68839 15.0143 5.26136C15.2067 5.53562 16.3463 7.16786 17.4823 8.7952Z" fill="#EDEDED"/>
<path fill-rule="evenodd" clip-rule="evenodd" d="M3.28103 21.4172L1.4094 21.6594C0.879512 21.6856 0.527322 22.2345 0.553626 22.7648C0.557384 22.8406 0.579133 22.8965 0.600879 22.9524C0.622619 23.0083 0.644357 23.0642 0.648114 23.1399L4.6832 32.5861C4.94035 33.181 5.56098 33.4542 6.15906 33.2728C8.0214 32.5735 9.95944 31.8705 11.8975 31.1675C13.8356 30.4644 15.7738 29.7614 17.6363 29.062C18.1587 28.8844 18.3745 28.646 18.3294 27.7368L18.083 18.18L22.2889 15.7704C22.6599 15.6002 22.7849 15.0624 22.6148 14.6911C22.4446 14.3198 21.9072 14.1944 21.5362 14.3645L17.4061 16.7704C16.8912 17.0995 16.6147 17.6448 16.5691 18.2545L16.5648 19.6977L15.312 19.8598L16.9932 22.8456C17.0634 22.9486 17.1255 23.0715 17.1655 23.2052C17.2084 23.3488 17.2448 23.5699 17.1669 23.8072C17.0769 24.0812 16.8664 24.2786 16.6009 24.3694C16.3724 24.4476 16.1295 24.4399 15.9081 24.4032L10.9213 23.7283L6.26703 29.0231L6.26383 29.0266C6.00637 29.3111 5.57198 29.5825 5.08713 29.4078C4.60262 29.2332 4.45114 28.7537 4.50708 28.3789L5.04999 22.2931L3.28103 21.4172ZM4.45921 21.2647L14.6066 19.9512L16.4349 23.1984C16.5977 23.4183 16.6959 23.8691 16.0071 23.7511L10.6593 23.0273L5.77515 28.5837L5.77485 28.5841C5.41515 28.9815 5.10108 28.7692 5.16174 28.4624L5.74696 21.9023L4.45921 21.2647ZM14.6969 35.5862C14.6292 34.2225 13.5169 33.2141 12.1543 33.2813C10.7917 33.3484 9.78452 34.4613 9.85218 35.8249C9.91984 37.1886 11.0322 38.197 12.3948 38.1299C13.7574 38.0627 14.7646 36.9499 14.6969 35.5862ZM20.7469 30.5796C20.7131 29.8978 20.0775 29.3215 19.3962 29.3551C18.7148 29.3887 18.1393 30.0246 18.1732 30.7064C18.207 31.3882 18.8427 31.9645 19.5239 31.9309C20.2052 31.8973 20.7807 31.2614 20.7469 30.5796Z" fill="#EDEDED"/>
<path d="M30.728 0.287798L29.9178 0.78338L28.7711 0.612042C28.4645 0.551194 28.4683 0.626959 28.4796 0.854237L28.6723 1.68013L27.7296 2.56197C27.5856 2.72094 27.6689 2.86873 27.896 2.85755L29.4062 2.7072L30.2045 3.50327C30.3634 3.64733 30.5111 3.56411 30.5793 3.40885L30.9809 2.32585L32.6199 1.71348C32.847 1.7023 32.8358 1.47502 32.6086 1.48621L31.0721 1.10624L31.0383 0.424403C31.0195 0.0456023 30.8718 0.12882 30.728 0.287798Z" fill="#EDEDED"/>
<path d="M20.0917 7.94653L19.8023 2.11308C19.7797 1.65853 19.6133 1.36295 19.0797 1.31329L12.5358 0.95218C12.0021 0.902525 11.9452 1.28505 11.964 1.66385L13.0667 8.59646C13.0817 8.8995 13.3239 9.19129 13.7023 9.17264L13.8537 9.16523L19.5918 8.57875C19.9741 8.63587 20.1142 8.40113 20.0917 7.94653Z" fill="#EDEDED"/>
<path d="M7.45373 11.9448L6.62317 16.6183L1.74354 19.213C1.37256 19.3833 1.39135 19.762 1.70166 19.8986L5.74697 21.9017L5.16175 28.4618C5.10109 28.7686 5.41516 28.981 5.77486 28.5835L10.6594 23.0267L16.0071 23.7506C16.6959 23.8685 16.5977 23.4177 16.435 23.1978L13.6889 18.3208L17.2452 11.9941C17.4535 11.6041 17.2114 11.3122 16.8404 11.4824L10.6095 14.3715L7.96857 11.6157C7.72648 11.3238 7.5144 11.6381 7.45373 11.9448Z" fill="#EDEDED"/>
</svg>
