<svg width="187" height="26" viewBox="0 0 187 26" fill="none" xmlns="http://www.w3.org/2000/svg">
<path d="M110.96 9.27243L106.255 17.05H104.938L100.13 9.37653V20.2694H97.5159V5.6348H100.819L105.67 13.6005L110.478 5.6348H113.572V20.2703H110.959V9.27243H110.96Z" fill="#EDEDED"/>
<path d="M124.529 5.6348L130.551 20.2703H127.77L126.369 16.7998H119.657L118.277 20.2703H115.622L121.56 5.6348H124.529ZM120.599 14.3951H125.407L123.002 8.39478L120.598 14.3951H120.599Z" fill="#EDEDED"/>
<path d="M135.234 15.7121V20.2703H132.62V5.6348H137.492C142.112 5.6348 144.078 7.28697 144.078 10.5903C144.078 13.8937 141.778 15.713 137.492 15.713H135.234V15.7121ZM135.234 8.03856V13.3074H137.68C140.105 13.3074 141.36 12.5128 141.36 10.5264C141.36 8.72808 140.273 8.03856 137.722 8.03856H135.234Z" fill="#EDEDED"/>
<path d="M149.576 20.2703H146.963V5.6348H149.576V11.7812H151.772L156.476 5.6348H159.655L154.073 12.5968L160.554 20.2703H157.209L151.898 13.9348H149.577V20.2703H149.576Z" fill="#EDEDED"/>
<path d="M171.969 13.9348H165.236V17.8656H172.972V20.2703H162.622V5.6348H172.741V8.03951H165.235V11.531H171.968V13.9358L171.969 13.9348Z" fill="#EDEDED"/>
<path d="M186.96 8.03951H182.026V20.2703H179.412V8.03951H174.562V5.6348H186.96V8.03951Z" fill="#EDEDED"/>
<path d="M71.6915 8.07198L74.9988 5.6348H63.933V20.2703H74.9988V17.8332H67.0903V14.0866H73.8355V11.6495H67.0903V8.07198H71.6915Z" fill="#EDEDED"/>
<path d="M55.5796 11.34H51.7367V8.07198H57.8717L61.1779 5.6348H48.5785V20.2703H55.1719C58.8706 20.2703 60.9917 18.5943 60.9917 15.6729C60.9917 12.7515 59.0692 11.34 55.5796 11.34ZM55.0296 17.8341H51.7367V13.7772H55.0296C57.0341 13.7772 57.9672 14.4562 57.9672 15.8057C57.9672 17.1551 56.9787 17.8341 55.0296 17.8341Z" fill="#EDEDED"/>
<path d="M83.9636 5.6348H77.9384V20.2703H81.0966V16.1246H83.9636C87.8085 16.1246 90.1969 14.1029 90.1969 10.8721C90.1969 7.64127 87.8085 5.6348 83.9636 5.6348ZM83.8958 13.6874H81.0966V8.07103H83.8958C85.9194 8.07103 87.0339 9.06806 87.0339 10.8788C87.0339 12.6895 85.9194 13.6865 83.8958 13.6865V13.6874Z" fill="#EDEDED"/>
<path d="M43.1578 17.1015C42.3479 17.5484 41.4053 17.7843 40.4312 17.7843C37.5843 17.7843 35.5177 15.7521 35.5177 12.952C35.5177 10.1519 37.5843 8.1196 40.4312 8.1196C41.5085 8.1196 42.474 8.42234 43.3039 9.01827L45.5692 7.34891L45.4192 7.21712C44.0965 6.05487 42.3298 5.4408 40.309 5.4408C38.1172 5.4408 36.1279 6.17998 34.7078 7.52177C33.2791 8.87215 32.4932 10.7707 32.4932 12.8698C32.4932 14.9689 33.2772 16.9057 34.7002 18.2972C36.1279 19.6924 38.1124 20.4612 40.2889 20.4612C42.4654 20.4612 44.553 19.6676 45.9006 18.2236C44.8606 17.4577 43.8568 16.7176 43.8568 16.7176L43.1568 17.1005L43.1578 17.1015Z" fill="#EDEDED"/>
<path d="M25.1769 12.9517C25.1769 12.2078 25.11 11.4801 24.982 10.7724L22.3644 12.7015C22.3663 12.7846 22.3682 12.8677 22.3682 12.9508C22.3682 18.1078 18.1728 22.3032 13.0158 22.3032C7.8587 22.3032 3.66334 18.1088 3.66334 12.9517C3.66334 7.79467 7.8587 3.60026 13.0148 3.60026C14.9688 3.60026 16.7852 4.20287 18.2874 5.23238L20.653 3.48948C18.5653 1.80198 15.9085 0.790619 13.0148 0.790619C6.29821 0.790619 0.853699 6.23514 0.853699 12.9517C0.853699 19.6683 6.29821 25.1128 13.0148 25.1128C19.7314 25.1128 25.1759 19.6683 25.1759 12.9517H25.1769Z" fill="#EDEDED"/>
<path d="M22.6384 5.51743C23.2124 6.25948 23.7032 7.07028 24.0957 7.93457L13.0147 16.1009L8.38486 13.1986V9.70707L13.0147 12.6093L22.6384 5.51648V5.51743Z" fill="#EDEDED"/>
</svg>
