<svg width="79" height="29" viewBox="0 0 79 29" fill="none" xmlns="http://www.w3.org/2000/svg">
<path d="M11.5103 6.92583C5.65864 6.92583 0.892563 11.6604 0.892563 17.5653C0.892563 23.4436 5.65864 28.1782 11.5103 28.1782C17.3885 28.1782 22.1546 23.4436 22.1546 17.5653C22.1546 11.6604 17.3885 6.92583 11.5103 6.92583ZM11.5103 23.7362C8.2535 23.7362 5.57921 20.8369 5.57921 17.5653C5.57921 14.2671 8.2535 11.3678 11.5103 11.3678C14.7936 11.3678 17.4679 14.2671 17.4679 17.5653C17.4679 20.8369 14.7936 23.7362 11.5103 23.7362Z" fill="#EDEDED"/>
<path d="M5.42054 5.32999C6.69149 5.32999 7.75062 4.26605 7.75062 2.96271C7.75062 1.68597 6.69149 0.622025 5.42054 0.622025C4.12311 0.622025 3.06398 1.68597 3.06398 2.96271C3.06398 4.26605 4.12311 5.32999 5.42054 5.32999Z" fill="#EDEDED"/>
<path d="M17.6004 5.32999C18.8714 5.32999 19.9305 4.26605 19.9305 2.96271C19.9305 1.68597 18.8714 0.622025 17.6004 0.622025C16.303 0.622025 15.2438 1.68597 15.2438 2.96271C15.2438 4.26605 16.303 5.32999 17.6004 5.32999Z" fill="#EDEDED"/>
<path d="M11.5103 5.32999C12.7813 5.32999 13.8404 4.26605 13.8404 2.96271C13.8404 1.68597 12.7813 0.622025 11.5103 0.622025C10.2129 0.622025 9.15375 1.68597 9.15375 2.96271C9.15375 4.26605 10.2129 5.32999 11.5103 5.32999Z" fill="#EDEDED"/>
<path d="M58.4298 7.29788H53.2665L47.1501 15.8361V0.967392H42.4634V27.8055H47.1501V19.2673L53.7432 27.8055H59.2771L51.1483 17.432L58.4298 7.29788Z" fill="#EDEDED"/>
<path d="M40.2656 7.29788H35.1024L28.9859 15.8361V0.967392H24.2993V27.8055H28.9859V19.2673L35.579 27.8055H41.1129L32.9841 17.432L40.2656 7.29788Z" fill="#EDEDED"/>
<path d="M67.6177 6.92583C61.766 6.92583 57 11.6604 57 17.5653C57 23.4436 61.766 28.1782 67.6177 28.1782C73.4959 28.1782 78.262 23.4436 78.262 17.5653C78.262 11.6604 73.4959 6.92583 67.6177 6.92583ZM67.5913 23.7362C64.3344 23.7362 61.6601 20.8369 61.6601 17.5653C61.6601 14.2671 64.3344 11.3678 67.5913 11.3678C70.8745 11.3678 73.5488 14.2671 73.5488 17.5653C73.5488 20.8369 70.8745 23.7362 67.5913 23.7362Z" fill="#EDEDED"/>
</svg>
