<svg width="92" height="92" viewBox="0 0 92 92" fill="none" xmlns="http://www.w3.org/2000/svg">
    <circle cx="45.5891" cy="45.3668" r="7.36182" transform="rotate(-14.1556 45.5891 45.3668)" fill="white" />
    <path
        d="M75.9635 31.8098C75.8397 31.9341 75.8401 32.1352 75.9644 32.259C76.0888 32.3828 76.2899 32.3824 76.4137 32.2581C76.5374 32.1337 76.537 31.9326 76.4127 31.8088C76.2884 31.6851 76.0873 31.6855 75.9635 31.8098Z"
        fill="white" />
    <path
        d="M72.5344 28.3952C72.3951 28.5351 72.3956 28.7613 72.5355 28.9006C72.6753 29.0399 72.9016 29.0394 73.0408 28.8995C73.1801 28.7597 73.1796 28.5334 73.0398 28.3942C72.8999 28.2549 72.6737 28.2554 72.5344 28.3952Z"
        fill="white" />
    <path
        d="M69.1053 24.9807C68.9506 25.1361 68.9511 25.3875 69.1065 25.5422C69.2619 25.6969 69.5133 25.6964 69.668 25.541C69.8227 25.3856 69.8222 25.1342 69.6668 24.9795C69.5114 24.8248 69.26 24.8253 69.1053 24.9807Z"
        fill="white" />
    <path
        d="M65.7044 21.5942C65.5496 21.7495 65.5502 22.0009 65.7055 22.1557C65.8609 22.3104 66.1123 22.3099 66.2671 22.1545C66.4218 21.9991 66.4213 21.7477 66.2659 21.593C66.1105 21.4382 65.8591 21.4388 65.7044 21.5942Z"
        fill="white" />
    <path
        d="M62.3315 18.2356C62.1923 18.3755 62.1928 18.6017 62.3326 18.741C62.4725 18.8803 62.6987 18.8798 62.838 18.7399C62.9772 18.6001 62.9767 18.3738 62.8369 18.2346C62.697 18.0953 62.4708 18.0958 62.3315 18.2356Z"
        fill="white" />
    <path
        d="M58.9587 14.8771C58.8349 15.0014 58.8354 15.2025 58.9597 15.3263C59.084 15.4501 59.2851 15.4497 59.4089 15.3254C59.5327 15.2011 59.5322 14.9999 59.4079 14.8762C59.2836 14.7524 59.0825 14.7528 58.9587 14.8771Z"
        fill="white" />
    <path
        d="M75.8935 38.5132C75.7233 38.6842 75.7239 38.9607 75.8948 39.1309C76.0657 39.3011 76.3423 39.3005 76.5125 39.1296C76.6827 38.9587 76.6821 38.6821 76.5112 38.5119C76.3402 38.3417 76.0637 38.3423 75.8935 38.5132Z"
        fill="white" />
    <path
        d="M72.4363 35.0707C72.2351 35.2727 72.2358 35.5995 72.4378 35.8006C72.6398 36.0018 72.9666 36.0011 73.1678 35.7991C73.3689 35.5971 73.3682 35.2703 73.1662 35.0691C72.9642 34.868 72.6374 34.8687 72.4363 35.0707Z"
        fill="white" />
    <path
        d="M68.9791 31.6281C68.747 31.8612 68.7478 32.2383 68.9808 32.4704C69.2139 32.7025 69.591 32.7017 69.8231 32.4686C70.0552 32.2355 70.0544 31.8584 69.8213 31.6263C69.5882 31.3942 69.2111 31.395 68.9791 31.6281Z"
        fill="white" />
    <path
        d="M65.524 28.1877C65.2621 28.4507 65.263 28.8761 65.526 29.1379C65.789 29.3998 66.2144 29.3989 66.4763 29.1359C66.7381 28.873 66.7372 28.4475 66.4742 28.1857C66.2113 27.9238 65.7858 27.9247 65.524 28.1877Z"
        fill="white" />
    <path
        d="M62.123 24.8012C61.8612 25.0641 61.8621 25.4896 62.1251 25.7514C62.388 26.0133 62.8135 26.0123 63.0753 25.7494C63.3372 25.4864 63.3362 25.061 63.0733 24.7991C62.8103 24.5373 62.3849 24.5382 62.123 24.8012Z"
        fill="white" />
    <path
        d="M58.7762 21.4685C58.5441 21.7016 58.5449 22.0787 58.778 22.3108C59.0111 22.5429 59.3882 22.5421 59.6202 22.309C59.8523 22.0759 59.8515 21.6988 59.6185 21.4667C59.3854 21.2346 59.0083 21.2354 58.7762 21.4685Z"
        fill="white" />
    <path
        d="M55.4315 18.138C55.2304 18.34 55.231 18.6668 55.4331 18.868C55.6351 19.0691 55.9619 19.0684 56.163 18.8664C56.3642 18.6644 56.3635 18.3376 56.1615 18.1364C55.9595 17.9353 55.6327 17.936 55.4315 18.138Z"
        fill="white" />
    <path
        d="M52.0868 14.8075C51.9166 14.9784 51.9172 15.255 52.0881 15.4252C52.2591 15.5954 52.5356 15.5948 52.7058 15.4238C52.876 15.2529 52.8754 14.9764 52.7045 14.8062C52.5336 14.636 52.257 14.6366 52.0868 14.8075Z"
        fill="white" />
    <path
        d="M75.8798 45.2727C75.6941 45.4592 75.6948 45.7609 75.8812 45.9465C76.0677 46.1322 76.3694 46.1316 76.555 45.9451C76.7407 45.7586 76.7401 45.457 76.5536 45.2713C76.3671 45.0856 76.0655 45.0862 75.8798 45.2727Z"
        fill="white" />
    <path
        d="M72.3944 41.8021C72.1623 42.0352 72.1631 42.4123 72.3962 42.6444C72.6293 42.8765 73.0064 42.8757 73.2385 42.6426C73.4706 42.4095 73.4698 42.0324 73.2367 41.8003C73.0036 41.5682 72.6265 41.5691 72.3944 41.8021Z"
        fill="white" />
    <path
        d="M68.9112 38.3337C68.6339 38.6122 68.6349 39.0628 68.9134 39.3401C69.1919 39.6174 69.6424 39.6165 69.9198 39.338C70.1971 39.0595 70.1961 38.6089 69.9176 38.3316C69.6391 38.0542 69.1885 38.0552 68.9112 38.3337Z"
        fill="white" />
    <path
        d="M65.4259 34.8631C65.1021 35.1882 65.1032 35.7142 65.4284 36.038C65.7535 36.3617 66.2795 36.3606 66.6032 36.0355C66.927 35.7104 66.9258 35.1844 66.6007 34.8606C66.2756 34.5369 65.7496 34.538 65.4259 34.8631Z"
        fill="white" />
    <path
        d="M61.9405 31.3925C61.5704 31.7643 61.5716 32.3657 61.9434 32.7358C62.3151 33.106 62.9165 33.1047 63.2867 32.733C63.6568 32.3613 63.6555 31.7598 63.2838 31.3897C62.9121 31.0195 62.3107 31.0208 61.9405 31.3925Z"
        fill="white" />
    <path
        d="M58.5396 28.006C58.1694 28.3777 58.1707 28.9792 58.5424 29.3493C58.9141 29.7195 59.5156 29.7182 59.8857 29.3465C60.2559 28.9747 60.2546 28.3733 59.8829 28.0031C59.5111 27.633 58.9097 27.6343 58.5396 28.006Z"
        fill="white" />
    <path
        d="M55.223 24.7035C54.8993 25.0286 54.9004 25.5546 55.2255 25.8784C55.5506 26.2021 56.0766 26.201 56.4004 25.8759C56.7241 25.5508 56.723 25.0248 56.3979 24.701C56.0727 24.3773 55.5467 24.3784 55.223 24.7035Z"
        fill="white" />
    <path
        d="M51.9065 21.401C51.6291 21.6795 51.6301 22.1301 51.9086 22.4074C52.1871 22.6847 52.6377 22.6838 52.915 22.4053C53.1923 22.1268 53.1914 21.6762 52.9129 21.3989C52.6344 21.1216 52.1838 21.1225 51.9065 21.401Z"
        fill="white" />
    <path
        d="M48.5877 18.0964C48.3557 18.3295 48.3565 18.7066 48.5895 18.9386C48.8226 19.1707 49.1997 19.1699 49.4318 18.9369C49.6639 18.7038 49.6631 18.3267 49.43 18.0946C49.1969 17.8625 48.8198 17.8633 48.5877 18.0964Z"
        fill="white" />
    <path
        d="M45.2712 14.7939C45.0855 14.9804 45.0862 15.282 45.2726 15.4677C45.4591 15.6534 45.7608 15.6527 45.9464 15.4663C46.1321 15.2798 46.1315 14.9781 45.945 14.7925C45.7585 14.6068 45.4569 14.6074 45.2712 14.7939Z"
        fill="white" />
    <path
        d="M75.9223 52.0882C75.7521 52.2591 75.7527 52.5357 75.9237 52.7059C76.0946 52.8761 76.3711 52.8755 76.5413 52.7046C76.7115 52.5336 76.7109 52.2571 76.54 52.0869C76.3691 51.9167 76.0925 51.9173 75.9223 52.0882Z"
        fill="white" />
    <path
        d="M72.4088 48.5896C72.1768 48.8227 72.1776 49.1998 72.4106 49.4319C72.6437 49.664 73.0208 49.6632 73.2529 49.4301C73.485 49.197 73.4842 48.8199 73.2511 48.5878C73.018 48.3557 72.6409 48.3565 72.4088 48.5896Z"
        fill="white" />
    <path
        d="M68.8975 45.0932C68.6047 45.3872 68.6057 45.8629 68.8998 46.1557C69.1938 46.4485 69.6695 46.4475 69.9623 46.1535C70.2551 45.8594 70.2541 45.3837 69.9601 45.0909C69.666 44.7981 69.1903 44.7991 68.8975 45.0932Z"
        fill="white" />
    <path
        d="M65.384 41.5946C65.0293 41.9508 65.0306 42.527 65.3868 42.8817C65.7429 43.2364 66.3192 43.2352 66.6739 42.879C67.0286 42.5228 67.0274 41.9465 66.6712 41.5918C66.315 41.2372 65.7387 41.2384 65.384 41.5946Z"
        fill="white" />
    <path
        d="M61.8727 38.0981C61.4573 38.5153 61.4587 39.1902 61.8759 39.6056C62.293 40.021 62.9679 40.0195 63.3833 39.6024C63.7987 39.1852 63.7973 38.5103 63.3801 38.0949C62.963 37.6795 62.2881 37.681 61.8727 38.0981Z"
        fill="white" />
    <path
        d="M58.3592 34.5995C57.8819 35.0788 57.8836 35.8543 58.3629 36.3316C58.8422 36.8089 59.6176 36.8072 60.0949 36.3279C60.5722 35.8486 60.5705 35.0731 60.0912 34.5959C59.6119 34.1186 58.8365 34.1202 58.3592 34.5995Z"
        fill="white" />
    <path
        d="M54.9582 31.213C54.481 31.6923 54.4826 32.4678 54.9619 32.945C55.4412 33.4223 56.2167 33.4207 56.694 32.9414C57.1712 32.4621 57.1696 31.6866 56.6903 31.2093C56.211 30.732 55.4355 30.7337 54.9582 31.213Z"
        fill="white" />
    <path
        d="M51.6698 27.9385C51.2544 28.3557 51.2559 29.0306 51.673 29.446C52.0902 29.8614 52.7651 29.8599 53.1805 29.4428C53.5959 29.0256 53.5944 28.3507 53.1773 27.9353C52.7601 27.5199 52.0852 27.5214 51.6698 27.9385Z"
        fill="white" />
    <path
        d="M48.3792 24.6619C48.0246 25.0181 48.0258 25.5944 48.382 25.9491C48.7382 26.3037 49.3145 26.3025 49.6691 25.9463C50.0238 25.5901 50.0226 25.0139 49.6664 24.6592C49.3102 24.3045 48.7339 24.3057 48.3792 24.6619Z"
        fill="white" />
    <path
        d="M45.0908 21.3874C44.798 21.6815 44.7991 22.1572 45.0931 22.45C45.3871 22.7428 45.8629 22.7418 46.1556 22.4477C46.4484 22.1537 46.4474 21.678 46.1534 21.3852C45.8593 21.0924 45.3836 21.0934 45.0908 21.3874Z"
        fill="white" />
    <path
        d="M41.8003 18.1108C41.5682 18.3439 41.569 18.721 41.802 18.9531C42.0351 19.1852 42.4122 19.1844 42.6443 18.9513C42.8764 18.7182 42.8756 18.3411 42.6425 18.109C42.4094 17.8769 42.0323 17.8777 41.8003 18.1108Z"
        fill="white" />
    <path
        d="M38.5118 14.8363C38.3416 15.0073 38.3422 15.2838 38.5131 15.454C38.6841 15.6242 38.9606 15.6236 39.1308 15.4527C39.301 15.2818 39.3004 15.0052 39.1295 14.835C38.9586 14.6648 38.682 14.6654 38.5118 14.8363Z"
        fill="white" />
    <path
        d="M76.0212 58.9598C75.8974 59.0841 75.8978 59.2852 76.0221 59.409C76.1464 59.5327 76.3475 59.5323 76.4713 59.408C76.5951 59.2837 76.5947 59.0826 76.4704 58.9588C76.3461 58.835 76.1449 58.8354 76.0212 58.9598Z"
        fill="white" />
    <path
        d="M72.4795 55.4331C72.2784 55.6351 72.2791 55.962 72.4811 56.1631C72.6831 56.3643 73.0099 56.3636 73.211 56.1616C73.4122 55.9596 73.4115 55.6327 73.2095 55.4316C73.0075 55.2304 72.6807 55.2311 72.4795 55.4331Z"
        fill="white" />
    <path
        d="M68.9401 51.9087C68.6627 52.1872 68.6637 52.6378 68.9422 52.9151C69.2207 53.1924 69.6713 53.1914 69.9486 52.9129C70.2259 52.6344 70.225 52.1839 69.9465 51.9065C69.668 51.6292 69.2174 51.6302 68.9401 51.9087Z"
        fill="white" />
    <path
        d="M65.3984 48.3821C65.0438 48.7383 65.045 49.3145 65.4012 49.6692C65.7574 50.0239 66.3336 50.0227 66.6883 49.6665C67.043 49.3103 67.0418 48.734 66.6856 48.3793C66.3294 48.0247 65.7531 48.0259 65.3984 48.3821Z"
        fill="white" />
    <path
        d="M61.859 44.8576C61.4281 45.2903 61.4296 45.9903 61.8623 46.4212C62.295 46.8521 62.995 46.8506 63.4259 46.4179C63.8567 45.9852 63.8553 45.2851 63.4226 44.8543C62.9899 44.4234 62.2898 44.4249 61.859 44.8576Z"
        fill="white" />
    <path
        d="M58.3173 41.331C57.8091 41.8414 57.8109 42.6671 58.3213 43.1753C58.8316 43.6836 59.6574 43.6818 60.1656 43.1714C60.6738 42.661 60.6721 41.8353 60.1617 41.3271C59.6513 40.8189 58.8256 40.8206 58.3173 41.331Z"
        fill="white" />
    <path
        d="M54.7779 37.8065C54.1935 38.3934 54.1955 39.3429 54.7824 39.9273C55.3693 40.5117 56.3188 40.5097 56.9032 39.9228C57.4876 39.3359 57.4855 38.3864 56.8987 37.802C56.3118 37.2176 55.3623 37.2197 54.7779 37.8065Z"
        fill="white" />
    <path
        d="M51.3769 34.42C50.7925 35.0069 50.7945 35.9564 51.3814 36.5408C51.9683 37.1252 52.9178 37.1232 53.5022 36.5363C54.0866 35.9494 54.0846 34.9999 53.4977 34.4155C52.9108 33.8311 51.9613 33.8331 51.3769 34.42Z"
        fill="white" />
    <path
        d="M48.1145 31.1714C47.6063 31.6818 47.608 32.5075 48.1184 33.0157C48.6288 33.524 49.4545 33.5222 49.9627 33.0118C50.471 32.5014 50.4692 31.6757 49.9588 31.1675C49.4484 30.6592 48.6227 30.661 48.1145 31.1714Z"
        fill="white" />
    <path
        d="M44.8542 27.9249C44.4233 28.3576 44.4248 29.0577 44.8575 29.4885C45.2902 29.9194 45.9903 29.9179 46.4211 29.4852C46.852 29.0525 46.8505 28.3525 46.4178 27.9216C45.9851 27.4908 45.2851 27.4922 44.8542 27.9249Z"
        fill="white" />
    <path
        d="M41.5918 24.6763C41.2371 25.0325 41.2383 25.6088 41.5945 25.9635C41.9507 26.3182 42.527 26.3169 42.8816 25.9607C43.2363 25.6045 43.2351 25.0283 42.8789 24.6736C42.5227 24.3189 41.9464 24.3201 41.5918 24.6763Z"
        fill="white" />
    <path
        d="M38.3315 21.4299C38.0542 21.7084 38.0551 22.1589 38.3336 22.4363C38.6121 22.7136 39.0627 22.7126 39.34 22.4341C39.6173 22.1556 39.6164 21.705 39.3379 21.4277C39.0594 21.1504 38.6088 21.1514 38.3315 21.4299Z"
        fill="white" />
    <path
        d="M35.069 18.1813C34.8679 18.3833 34.8686 18.7101 35.0706 18.9112C35.2726 19.1124 35.5994 19.1117 35.8005 18.9097C36.0017 18.7077 36.001 18.3808 35.799 18.1797C35.597 17.9786 35.2702 17.9793 35.069 18.1813Z"
        fill="white" />
    <path
        d="M31.8088 14.9348C31.685 15.0591 31.6854 15.2602 31.8097 15.384C31.934 15.5078 32.1351 15.5074 32.2589 15.3831C32.3827 15.2587 32.3823 15.0576 32.258 14.9338C32.1337 14.8101 31.9325 14.8105 31.8088 14.9348Z"
        fill="white" />
    <path
        d="M72.6065 62.3327C72.4672 62.4725 72.4677 62.6988 72.6076 62.8381C72.7474 62.9773 72.9737 62.9768 73.1129 62.837C73.2522 62.6971 73.2517 62.4709 73.1119 62.3316C72.972 62.1924 72.7458 62.1928 72.6065 62.3327Z"
        fill="white" />
    <path
        d="M69.0367 58.7781C68.8046 59.0111 68.8054 59.3882 69.0385 59.6203C69.2716 59.8524 69.6487 59.8516 69.8808 59.6185C70.1129 59.3855 70.1121 59.0084 69.879 58.7763C69.6459 58.5442 69.2688 58.545 69.0367 58.7781Z"
        fill="white" />
    <path
        d="M65.4691 55.2256C65.1454 55.5507 65.1465 56.0767 65.4716 56.4004C65.7967 56.7242 66.3227 56.7231 66.6465 56.3979C66.9702 56.0728 66.9691 55.5468 66.644 55.2231C66.3189 54.8994 65.7929 54.9005 65.4691 55.2256Z"
        fill="white" />
    <path
        d="M61.9015 51.6731C61.4861 52.0903 61.4876 52.7652 61.9047 53.1806C62.3219 53.5959 62.9968 53.5945 63.4122 53.1774C63.8276 52.7602 63.8261 52.0853 63.409 51.6699C62.9918 51.2545 62.3169 51.256 61.9015 51.6731Z"
        fill="white" />
    <path
        d="M58.3318 48.1185C57.8235 48.6289 57.8253 49.4546 58.3357 49.9628C58.8461 50.471 59.6718 50.4693 60.18 49.9589C60.6882 49.4485 60.6865 48.6228 60.1761 48.1146C59.6657 47.6063 58.84 47.6081 58.3318 48.1185Z"
        fill="white" />
    <path
        d="M54.7642 44.566C54.1643 45.1684 54.1664 46.1431 54.7688 46.7429C55.3712 47.3428 56.3459 47.3407 56.9457 46.7383C57.5456 46.1359 57.5435 45.1612 56.9411 44.5614C56.3387 43.9615 55.364 43.9636 54.7642 44.566Z"
        fill="white" />
    <path
        d="M51.1966 41.0135C50.505 41.708 50.5074 42.8315 51.2019 43.5231C51.8963 44.2146 53.0199 44.2122 53.7114 43.5177C54.4029 42.8233 54.4005 41.6997 53.7061 41.0082C53.0116 40.3167 51.8881 40.3191 51.1966 41.0135Z"
        fill="white" />
    <path
        d="M47.7956 37.627C47.1041 38.3215 47.1065 39.445 47.8009 40.1365C48.4954 40.828 49.6189 40.8256 50.3105 40.1312C51.002 39.4367 50.9996 38.3132 50.3051 37.6217C49.6107 36.9302 48.4871 36.9325 47.7956 37.627Z"
        fill="white" />
    <path
        d="M44.5613 34.4064C43.9614 35.0088 43.9635 35.9835 44.5659 36.5833C45.1683 37.1832 46.143 37.1811 46.7429 36.5787C47.3427 35.9763 47.3406 35.0016 46.7382 34.4018C46.1358 33.8019 45.1612 33.804 44.5613 34.4064Z"
        fill="white" />
    <path
        d="M41.327 31.1858C40.8188 31.6962 40.8205 32.5219 41.3309 33.0302C41.8413 33.5384 42.667 33.5366 43.1753 33.0262C43.6835 32.5159 43.6817 31.6901 43.1713 31.1819C42.661 30.6737 41.8352 30.6754 41.327 31.1858Z"
        fill="white" />
    <path
        d="M38.0948 27.9674C37.6795 28.3845 37.6809 29.0594 38.0981 29.4748C38.5152 29.8902 39.1901 29.8888 39.6055 29.4716C40.0209 29.0545 40.0194 28.3795 39.6023 27.9642C39.1851 27.5488 38.5102 27.5502 38.0948 27.9674Z"
        fill="white" />
    <path
        d="M34.8605 24.7468C34.5368 25.0719 34.5379 25.5979 34.863 25.9216C35.1881 26.2454 35.7141 26.2442 36.0379 25.9191C36.3616 25.594 36.3605 25.068 36.0354 24.7443C35.7103 24.4205 35.1843 24.4217 34.8605 24.7468Z"
        fill="white" />
    <path
        d="M31.6262 21.5262C31.3941 21.7593 31.3949 22.1364 31.628 22.3684C31.8611 22.6005 32.2382 22.5997 32.4703 22.3667C32.7024 22.1336 32.7016 21.7565 32.4685 21.5244C32.2354 21.2923 31.8583 21.2931 31.6262 21.5262Z"
        fill="white" />
    <path
        d="M28.3941 18.3077C28.2548 18.4476 28.2553 18.6738 28.3952 18.8131C28.535 18.9524 28.7613 18.9519 28.9005 18.812C29.0398 18.6722 29.0393 18.4459 28.8994 18.3067C28.7596 18.1674 28.5333 18.1679 28.3941 18.3077Z"
        fill="white" />
    <path
        d="M69.1918 65.7056C69.0371 65.861 69.0376 66.1124 69.193 66.2671C69.3484 66.4219 69.5998 66.4213 69.7545 66.266C69.9093 66.1106 69.9087 65.8592 69.7533 65.7044C69.598 65.5497 69.3466 65.5502 69.1918 65.7056Z"
        fill="white" />
    <path
        d="M65.5961 62.1251C65.3342 62.3881 65.3351 62.8135 65.5981 63.0754C65.8611 63.3372 66.2865 63.3363 66.5484 63.0734C66.8102 62.8104 66.8093 62.385 66.5463 62.1231C66.2834 61.8613 65.8579 61.8622 65.5961 62.1251Z"
        fill="white" />
    <path
        d="M61.9982 58.5425C61.628 58.9142 61.6293 59.5156 62.001 59.8858C62.3728 60.256 62.9742 60.2547 63.3443 59.8829C63.7145 59.5112 63.7132 58.9098 63.3415 58.5396C62.9698 58.1695 62.3683 58.1708 61.9982 58.5425Z"
        fill="white" />
    <path
        d="M58.4025 54.962C57.9252 55.4413 57.9268 56.2168 58.4061 56.694C58.8854 57.1713 59.6609 57.1697 60.1382 56.6904C60.6155 56.2111 60.6138 55.4356 60.1345 54.9583C59.6552 54.4811 58.8797 54.4827 58.4025 54.962Z"
        fill="white" />
    <path
        d="M54.8067 51.3815C54.2223 51.9684 54.2243 52.9179 54.8112 53.5023C55.3981 54.0867 56.3476 54.0847 56.932 53.4978C57.5164 52.9109 57.5144 51.9614 56.9275 51.377C56.3406 50.7926 55.3911 50.7946 54.8067 51.3815Z"
        fill="white" />
    <path
        d="M51.211 47.801C50.5195 48.4955 50.5219 49.619 51.2163 50.3105C51.9108 51.0021 53.0343 50.9997 53.7258 50.3052C54.4173 49.6108 54.415 48.4872 53.7205 47.7957C53.026 47.1042 51.9025 47.1066 51.211 47.801Z"
        fill="white" />
    <path
        d="M47.6152 44.2205C46.8166 45.0226 46.8194 46.3202 47.6214 47.1188C48.4234 47.9174 49.721 47.9147 50.5197 47.1126C51.3183 46.3106 51.3155 45.013 50.5135 44.2144C49.7115 43.4157 48.4139 43.4185 47.6152 44.2205Z"
        fill="white" />
    <path
        d="M44.2143 40.834C43.4157 41.636 43.4184 42.9336 44.2204 43.7323C45.0225 44.5309 46.3201 44.5281 47.1187 43.7261C47.9173 42.9241 47.9146 41.6265 47.1125 40.8278C46.3105 40.0292 45.0129 40.032 44.2143 40.834Z"
        fill="white" />
    <path
        d="M41.0081 37.6414C40.3166 38.3359 40.319 39.4594 41.0134 40.1509C41.7079 40.8425 42.8315 40.8401 43.523 40.1456C44.2145 39.4512 44.2121 38.3276 43.5176 37.6361C42.8232 36.9446 41.6996 36.947 41.0081 37.6414Z"
        fill="white" />
    <path
        d="M37.8019 34.4488C37.2176 35.0357 37.2196 35.9852 37.8064 36.5696C38.3933 37.154 39.3428 37.152 39.9272 36.5651C40.5116 35.9782 40.5096 35.0287 39.9227 34.4443C39.3358 33.8599 38.3863 33.862 37.8019 34.4488Z"
        fill="white" />
    <path
        d="M34.5958 31.2563C34.1185 31.7356 34.1201 32.511 34.5994 32.9883C35.0788 33.4656 35.8542 33.4639 36.3315 32.9846C36.8088 32.5053 36.8071 31.7299 36.3278 31.2526C35.8485 30.7753 35.073 30.777 34.5958 31.2563Z"
        fill="white" />
    <path
        d="M31.3896 28.0637C31.0194 28.4354 31.0207 29.0368 31.3925 29.407C31.7642 29.7771 32.3656 29.7759 32.7358 29.4041C33.1059 29.0324 33.1046 28.431 32.7329 28.0608C32.3612 27.6907 31.7598 27.6919 31.3896 28.0637Z"
        fill="white" />
    <path
        d="M28.1856 24.8733C27.9237 25.1362 27.9246 25.5617 28.1876 25.8235C28.4506 26.0853 28.876 26.0844 29.1379 25.8215C29.3997 25.5585 29.3988 25.1331 29.1358 24.8712C28.8729 24.6094 28.4474 24.6103 28.1856 24.8733Z"
        fill="white" />
    <path
        d="M24.9794 21.6807C24.8247 21.8361 24.8252 22.0875 24.9806 22.2422C25.136 22.3969 25.3874 22.3964 25.5421 22.241C25.6968 22.0856 25.6963 21.8342 25.5409 21.6795C25.3855 21.5248 25.1341 21.5253 24.9794 21.6807Z"
        fill="white" />
    <path
        d="M65.8053 69.1066C65.6506 69.262 65.6511 69.5134 65.8065 69.6681C65.9619 69.8228 66.2133 69.8223 66.368 69.6669C66.5227 69.5115 66.5222 69.2601 66.3668 69.1054C66.2114 68.9507 65.96 68.9512 65.8053 69.1066Z"
        fill="white" />
    <path
        d="M62.2096 65.5261C61.9477 65.7891 61.9486 66.2145 62.2116 66.4763C62.4745 66.7382 62.9 66.7373 63.1618 66.4743C63.4237 66.2114 63.4228 65.7859 63.1598 65.5241C62.8968 65.2622 62.4714 65.2631 62.2096 65.5261Z"
        fill="white" />
    <path
        d="M58.6117 61.9434C58.2415 62.3152 58.2428 62.9166 58.6145 63.2868C58.9862 63.6569 59.5877 63.6556 59.9578 63.2839C60.328 62.9122 60.3267 62.3108 59.955 61.9406C59.5832 61.5704 58.9818 61.5717 58.6117 61.9434Z"
        fill="white" />
    <path
        d="M55.0159 58.363C54.5386 58.8423 54.5403 59.6177 55.0196 60.095C55.4989 60.5723 56.2744 60.5706 56.7516 60.0913C57.2289 59.612 57.2273 58.8366 56.748 58.3593C56.2687 57.882 55.4932 57.8837 55.0159 58.363Z"
        fill="white" />
    <path
        d="M51.4202 54.7825C50.8358 55.3693 50.8378 56.3189 51.4247 56.9032C52.0116 57.4876 52.9611 57.4856 53.5455 56.8987C54.1299 56.3119 54.1278 55.3624 53.541 54.778C52.9541 54.1936 52.0046 54.1956 51.4202 54.7825Z"
        fill="white" />
    <path
        d="M47.8244 51.202C47.1329 51.8964 47.1353 53.02 47.8298 53.7115C48.5242 54.403 49.6478 54.4006 50.3393 53.7062C51.0308 53.0117 51.0284 51.8882 50.334 51.1966C49.6395 50.5051 48.516 50.5075 47.8244 51.202Z"
        fill="white" />
    <path
        d="M44.2287 47.6215C43.4301 48.4235 43.4328 49.7211 44.2349 50.5197C45.0369 51.3184 46.3345 51.3156 47.1331 50.5136C47.9318 49.7116 47.929 48.414 47.127 47.6153C46.3249 46.8167 45.0273 46.8195 44.2287 47.6215Z"
        fill="white" />
    <path
        d="M40.8278 44.2349C40.0291 45.037 40.0319 46.3346 40.8339 47.1332C41.6359 47.9318 42.9335 47.9291 43.7322 47.1271C44.5308 46.325 44.528 45.0274 43.726 44.2288C42.924 43.4302 41.6264 43.4329 40.8278 44.2349Z"
        fill="white" />
    <path
        d="M37.6216 41.0424C36.9301 41.7368 36.9325 42.8604 37.6269 43.5519C38.3214 44.2434 39.4449 44.241 40.1364 43.5466C40.8279 42.8521 40.8256 41.7286 40.1311 41.037C39.4366 40.3455 38.3131 40.3479 37.6216 41.0424Z"
        fill="white" />
    <path
        d="M34.4154 37.8498C33.831 38.4367 33.833 39.3862 34.4199 39.9706C35.0068 40.555 35.9563 40.5529 36.5407 39.9661C37.1251 39.3792 37.1231 38.4297 36.5362 37.8453C35.9493 37.2609 34.9998 37.2629 34.4154 37.8498Z"
        fill="white" />
    <path
        d="M31.2092 34.6572C30.732 35.1365 30.7336 35.912 31.2129 36.3893C31.6922 36.8665 32.4677 36.8649 32.945 36.3856C33.4222 35.9063 33.4206 35.1308 32.9413 34.6535C32.462 34.1763 31.6865 34.1779 31.2092 34.6572Z"
        fill="white" />
    <path
        d="M28.0031 31.4646C27.6329 31.8364 27.6342 32.4378 28.0059 32.8079C28.3776 33.1781 28.9791 33.1768 29.3492 32.8051C29.7194 32.4334 29.7181 31.8319 29.3464 31.4618C28.9746 31.0916 28.3732 31.0929 28.0031 31.4646Z"
        fill="white" />
    <path
        d="M24.7991 28.2742C24.5372 28.5372 24.5381 28.9626 24.8011 29.2245C25.064 29.4863 25.4895 29.4854 25.7513 29.2224C26.0132 28.9595 26.0123 28.534 25.7493 28.2722C25.4863 28.0103 25.0609 28.0112 24.7991 28.2742Z"
        fill="white" />
    <path
        d="M21.5929 25.0816C21.4382 25.237 21.4387 25.4884 21.5941 25.6431C21.7495 25.7979 22.0009 25.7973 22.1556 25.642C22.3103 25.4866 22.3098 25.2352 22.1544 25.0804C21.999 24.9257 21.7476 24.9262 21.5929 25.0816Z"
        fill="white" />
    <path
        d="M62.4469 72.5356C62.3076 72.6754 62.3081 72.9017 62.448 73.0409C62.5878 73.1802 62.8141 73.1797 62.9533 73.0398C63.0926 72.9 63.0921 72.6737 62.9523 72.5345C62.8124 72.3952 62.5861 72.3957 62.4469 72.5356Z"
        fill="white" />
    <path
        d="M58.8771 68.9809C58.645 69.214 58.6458 69.5911 58.8789 69.8232C59.112 70.0553 59.4891 70.0545 59.7212 69.8214C59.9533 69.5883 59.9525 69.2112 59.7194 68.9791C59.4863 68.747 59.1092 68.7478 58.8771 68.9809Z"
        fill="white" />
    <path
        d="M55.3095 65.4285C54.9858 65.7536 54.9869 66.2796 55.312 66.6033C55.6371 66.927 56.1631 66.9259 56.4869 66.6008C56.8106 66.2757 56.8095 65.7497 56.4844 65.426C56.1593 65.1022 55.6333 65.1033 55.3095 65.4285Z"
        fill="white" />
    <path
        d="M51.7419 61.876C51.3265 62.2931 51.328 62.968 51.7451 63.3834C52.1623 63.7988 52.8372 63.7974 53.2526 63.3802C53.668 62.9631 53.6665 62.2882 53.2494 61.8728C52.8322 61.4574 52.1573 61.4588 51.7419 61.876Z"
        fill="white" />
    <path
        d="M48.1722 58.3213C47.6639 58.8317 47.6657 59.6575 48.1761 60.1657C48.6865 60.6739 49.5122 60.6722 50.0204 60.1618C50.5286 59.6514 50.5269 58.8256 50.0165 58.3174C49.5061 57.8092 48.6804 57.811 48.1722 58.3213Z"
        fill="white" />
    <path
        d="M44.6046 54.7689C44.0047 55.3713 44.0068 56.3459 44.6092 56.9458C45.2116 57.5457 46.1862 57.5436 46.7861 56.9412C47.386 56.3388 47.3839 55.3641 46.7815 54.7642C46.1791 54.1644 45.2044 54.1665 44.6046 54.7689Z"
        fill="white" />
    <path
        d="M41.037 51.2164C40.3454 51.9109 40.3478 53.0344 41.0423 53.7259C41.7367 54.4174 42.8603 54.415 43.5518 53.7206C44.2433 53.0261 44.2409 51.9026 43.5465 51.2111C42.852 50.5196 41.7285 50.5219 41.037 51.2164Z"
        fill="white" />
    <path
        d="M37.636 47.8299C36.9445 48.5243 36.9469 49.6479 37.6413 50.3394C38.3358 51.0309 39.4593 51.0285 40.1509 50.3341C40.8424 49.6396 40.84 48.516 40.1455 47.8245C39.4511 47.133 38.3275 47.1354 37.636 47.8299Z"
        fill="white" />
    <path
        d="M34.4017 44.6093C33.8018 45.2117 33.8039 46.1863 34.4063 46.7862C35.0087 47.3861 35.9834 47.384 36.5833 46.7816C37.1831 46.1792 37.181 45.2045 36.5786 44.6046C35.9762 44.0048 35.0016 44.0068 34.4017 44.6093Z"
        fill="white" />
    <path
        d="M31.1674 41.3887C30.6592 41.8991 30.6609 42.7248 31.1713 43.233C31.6817 43.7412 32.5074 43.7395 33.0156 43.2291C33.5239 42.7187 33.5221 41.893 33.0117 41.3847C32.5013 40.8765 31.6756 40.8783 31.1674 41.3887Z"
        fill="white" />
    <path
        d="M27.9352 38.1702C27.5199 38.5874 27.5213 39.2623 27.9384 39.6777C28.3556 40.0931 29.0305 40.0916 29.4459 39.6745C29.8613 39.2573 29.8598 38.5824 29.4427 38.167C29.0255 37.7516 28.3506 37.7531 27.9352 38.1702Z"
        fill="white" />
    <path
        d="M24.7009 34.9496C24.3772 35.2748 24.3783 35.8008 24.7034 36.1245C25.0285 36.4482 25.5545 36.4471 25.8783 36.122C26.202 35.7969 26.2009 35.2709 25.8758 34.9471C25.5507 34.6234 25.0247 34.6245 24.7009 34.9496Z"
        fill="white" />
    <path
        d="M21.4666 31.729C21.2345 31.9621 21.2353 32.3392 21.4684 32.5713C21.7015 32.8034 22.0786 32.8026 22.3107 32.5695C22.5428 32.3364 22.542 31.9593 22.3089 31.7273C22.0758 31.4952 21.6987 31.496 21.4666 31.729Z"
        fill="white" />
    <path
        d="M18.2345 28.5106C18.0952 28.6505 18.0957 28.8767 18.2356 29.016C18.3754 29.1552 18.6017 29.1547 18.7409 29.0149C18.8802 28.875 18.8797 28.6488 18.7398 28.5095C18.6 28.3703 18.3737 28.3708 18.2345 28.5106Z"
        fill="white" />
    <path
        d="M59.0885 75.9645C58.9647 76.0888 58.9651 76.29 59.0894 76.4137C59.2138 76.5375 59.4149 76.5371 59.5387 76.4128C59.6624 76.2885 59.662 76.0874 59.5377 75.9636C59.4134 75.8398 59.2123 75.8402 59.0885 75.9645Z"
        fill="white" />
    <path
        d="M55.5469 72.4379C55.3457 72.6399 55.3464 72.9667 55.5484 73.1679C55.7504 73.369 56.0772 73.3683 56.2784 73.1663C56.4795 72.9643 56.4788 72.6375 56.2768 72.4364C56.0748 72.2352 55.748 72.2359 55.5469 72.4379Z"
        fill="white" />
    <path
        d="M52.0074 68.9135C51.7301 69.192 51.731 69.6425 52.0095 69.9199C52.288 70.1972 52.7386 70.1962 53.0159 69.9177C53.2932 69.6392 53.2923 69.1886 53.0138 68.9113C52.7353 68.634 52.2847 68.635 52.0074 68.9135Z"
        fill="white" />
    <path
        d="M48.4658 65.3868C48.1111 65.743 48.1123 66.3193 48.4685 66.674C48.8247 67.0287 49.401 67.0275 49.7557 66.6713C50.1103 66.3151 50.1091 65.7388 49.7529 65.3841C49.3967 65.0294 48.8204 65.0306 48.4658 65.3868Z"
        fill="white" />
    <path
        d="M44.9263 61.8624C44.4954 62.2951 44.4969 62.9951 44.9296 63.426C45.3623 63.8568 46.0624 63.8553 46.4932 63.4227C46.9241 62.99 46.9226 62.2899 46.4899 61.8591C46.0572 61.4282 45.3572 61.4297 44.9263 61.8624Z"
        fill="white" />
    <path
        d="M41.3847 58.3358C40.8764 58.8462 40.8782 59.6719 41.3886 60.1801C41.899 60.6883 42.7247 60.6866 43.2329 60.1762C43.7412 59.6658 43.7394 58.8401 43.229 58.3318C42.7186 57.8236 41.8929 57.8254 41.3847 58.3358Z"
        fill="white" />
    <path
        d="M37.8452 54.8113C37.2608 55.3982 37.2628 56.3477 37.8497 56.9321C38.4366 57.5165 39.3861 57.5145 39.9705 56.9276C40.5549 56.3407 40.5529 55.3912 39.966 54.8068C39.3791 54.2224 38.4296 54.2244 37.8452 54.8113Z"
        fill="white" />
    <path
        d="M34.4442 51.4248C33.8599 52.0117 33.8619 52.9612 34.4488 53.5456C35.0356 54.1299 35.9851 54.1279 36.5695 53.5411C37.1539 52.9542 37.1519 52.0047 36.565 51.4203C35.9781 50.8359 35.0286 50.8379 34.4442 51.4248Z"
        fill="white" />
    <path
        d="M31.1818 48.1762C30.6736 48.6865 30.6753 49.5123 31.1857 50.0205C31.6961 50.5287 32.5218 50.527 33.0301 50.0166C33.5383 49.5062 33.5365 48.6805 33.0261 48.1722C32.5158 47.664 31.69 47.6658 31.1818 48.1762Z"
        fill="white" />
    <path
        d="M27.9215 44.9297C27.4907 45.3624 27.4922 46.0624 27.9248 46.4933C28.3575 46.9242 29.0576 46.9227 29.4884 46.49C29.9193 46.0573 29.9178 45.3572 29.4851 44.9264C29.0524 44.4955 28.3524 44.497 27.9215 44.9297Z"
        fill="white" />
    <path
        d="M24.6591 41.6811C24.3044 42.0373 24.3056 42.6136 24.6618 42.9682C25.018 43.3229 25.5943 43.3217 25.949 42.9655C26.3036 42.6093 26.3024 42.033 25.9462 41.6784C25.59 41.3237 25.0138 41.3249 24.6591 41.6811Z"
        fill="white" />
    <path
        d="M21.3988 38.4346C21.1215 38.7131 21.1224 39.1637 21.4009 39.441C21.6794 39.7184 22.13 39.7174 22.4073 39.4389C22.6847 39.1604 22.6837 38.7098 22.4052 38.4325C22.1267 38.1552 21.6761 38.1561 21.3988 38.4346Z"
        fill="white" />
    <path
        d="M18.1364 35.186C17.9352 35.388 17.9359 35.7148 18.1379 35.916C18.3399 36.1171 18.6667 36.1164 18.8679 35.9144C19.069 35.7124 19.0683 35.3856 18.8663 35.1845C18.6643 34.9833 18.3375 34.984 18.1364 35.186Z"
        fill="white" />
    <path
        d="M14.8761 31.9396C14.7523 32.0639 14.7527 32.265 14.877 32.3888C15.0013 32.5126 15.2025 32.5121 15.3262 32.3878C15.45 32.2635 15.4496 32.0624 15.3253 31.9386C15.201 31.8148 14.9999 31.8153 14.8761 31.9396Z"
        fill="white" />
    <path
        d="M52.2166 75.8949C52.0464 76.0658 52.047 76.3424 52.2179 76.5126C52.3888 76.6828 52.6654 76.6822 52.8356 76.5112C53.0058 76.3403 53.0052 76.0638 52.8343 75.8936C52.6633 75.7234 52.3868 75.724 52.2166 75.8949Z"
        fill="white" />
    <path
        d="M48.7031 72.3963C48.471 72.6294 48.4718 73.0065 48.7049 73.2386C48.938 73.4707 49.3151 73.4699 49.5472 73.2368C49.7792 73.0037 49.7784 72.6266 49.5454 72.3945C49.3123 72.1624 48.9352 72.1632 48.7031 72.3963Z"
        fill="white" />
    <path
        d="M45.1918 68.8999C44.899 69.1939 44.9 69.6696 45.194 69.9624C45.4881 70.2552 45.9638 70.2542 46.2566 69.9602C46.5494 69.6661 46.5484 69.1904 46.2543 68.8976C45.9603 68.6048 45.4846 68.6058 45.1918 68.8999Z"
        fill="white" />
    <path
        d="M41.6783 65.4013C41.3236 65.7575 41.3248 66.3337 41.681 66.6884C42.0372 67.0431 42.6135 67.0419 42.9682 66.6857C43.3228 66.3295 43.3216 65.7532 42.9654 65.3985C42.6092 65.0438 42.033 65.0451 41.6783 65.4013Z"
        fill="white" />
    <path
        d="M38.1669 61.9048C37.7516 62.322 37.753 62.9969 38.1701 63.4123C38.5873 63.8276 39.2622 63.8262 39.6776 63.4091C40.093 62.9919 40.0915 62.317 39.6744 61.9016C39.2572 61.4862 38.5823 61.4877 38.1669 61.9048Z"
        fill="white" />
    <path
        d="M34.6534 58.4062C34.1762 58.8855 34.1778 59.661 34.6571 60.1383C35.1364 60.6155 35.9119 60.6139 36.3892 60.1346C36.8664 59.6553 36.8648 58.8798 36.3855 58.4025C35.9062 57.9253 35.1307 57.9269 34.6534 58.4062Z"
        fill="white" />
    <path
        d="M31.2525 55.0197C30.7752 55.499 30.7769 56.2745 31.2562 56.7517C31.7355 57.229 32.5109 57.2274 32.9882 56.748C33.4655 56.2687 33.4638 55.4933 32.9845 55.016C32.5052 54.5387 31.7298 54.5404 31.2525 55.0197Z"
        fill="white" />
    <path
        d="M27.9641 51.7452C27.5487 52.1624 27.5501 52.8373 27.9673 53.2527C28.3844 53.668 29.0593 53.6666 29.4747 53.2494C29.8901 52.8323 29.8887 52.1574 29.4715 51.742C29.0544 51.3266 28.3795 51.3281 27.9641 51.7452Z"
        fill="white" />
    <path
        d="M24.6735 48.4686C24.3188 48.8248 24.32 49.4011 24.6762 49.7557C25.0324 50.1104 25.6087 50.1092 25.9634 49.753C26.3181 49.3968 26.3168 48.8205 25.9607 48.4659C25.6045 48.1112 25.0282 48.1124 24.6735 48.4686Z"
        fill="white" />
    <path
        d="M21.3851 45.1941C21.0923 45.4882 21.0933 45.9639 21.3873 46.2567C21.6814 46.5495 22.1571 46.5484 22.4499 46.2544C22.7427 45.9604 22.7417 45.4846 22.4476 45.1919C22.1536 44.8991 21.6779 44.9001 21.3851 45.1941Z"
        fill="white" />
    <path
        d="M18.0945 41.9175C17.8624 42.1506 17.8632 42.5277 18.0963 42.7598C18.3294 42.9918 18.7065 42.991 18.9386 42.758C19.1707 42.5249 19.1699 42.1478 18.9368 41.9157C18.7037 41.6836 18.3266 41.6844 18.0945 41.9175Z"
        fill="white" />
    <path
        d="M14.8061 38.643C14.6359 38.8139 14.6365 39.0905 14.8074 39.2607C14.9783 39.4309 15.2549 39.4303 15.4251 39.2594C15.5953 39.0884 15.5947 38.8119 15.4238 38.6417C15.2528 38.4715 14.9763 38.4721 14.8061 38.643Z"
        fill="white" />
    <path
        d="M45.401 75.8813C45.2153 76.0678 45.2159 76.3694 45.4024 76.5551C45.5889 76.7408 45.8905 76.7401 46.0762 76.5537C46.2619 76.3672 46.2612 76.0655 46.0748 75.8799C45.8883 75.6942 45.5866 75.6948 45.401 75.8813Z"
        fill="white" />
    <path
        d="M41.9156 72.4107C41.6835 72.6438 41.6843 73.0209 41.9174 73.253C42.1505 73.4851 42.5276 73.4843 42.7597 73.2512C42.9918 73.0181 42.991 72.641 42.7579 72.4089C42.5248 72.1768 42.1477 72.1776 41.9156 72.4107Z"
        fill="white" />
    <path
        d="M38.4324 68.9423C38.1551 69.2208 38.1561 69.6714 38.4346 69.9487C38.7131 70.226 39.1636 70.2251 39.441 69.9466C39.7183 69.6681 39.7173 69.2175 39.4388 68.9402C39.1603 68.6628 38.7097 68.6638 38.4324 68.9423Z"
        fill="white" />
    <path
        d="M34.9471 65.4717C34.6233 65.7968 34.6244 66.3228 34.9496 66.6466C35.2747 66.9703 35.8007 66.9692 36.1244 66.6441C36.4481 66.319 36.447 65.793 36.1219 65.4692C35.7968 65.1455 35.2708 65.1466 34.9471 65.4717Z"
        fill="white" />
    <path
        d="M31.4617 62.0011C31.0915 62.3729 31.0928 62.9743 31.4645 63.3444C31.8363 63.7146 32.4377 63.7133 32.8079 63.3416C33.178 62.9698 33.1767 62.3684 32.805 61.9983C32.4333 61.6281 31.8319 61.6294 31.4617 62.0011Z"
        fill="white" />
    <path
        d="M28.0607 58.6146C27.6906 58.9863 27.6919 59.5877 28.0636 59.9579C28.4353 60.3281 29.0367 60.3268 29.4069 59.955C29.7771 59.5833 29.7758 58.9819 29.404 58.6117C29.0323 58.2416 28.4309 58.2429 28.0607 58.6146Z"
        fill="white" />
    <path
        d="M24.7442 55.3121C24.4205 55.6372 24.4216 56.1632 24.7467 56.487C25.0718 56.8107 25.5978 56.8096 25.9215 56.4845C26.2453 56.1593 26.2442 55.6333 25.919 55.3096C25.5939 54.9859 25.0679 54.987 24.7442 55.3121Z"
        fill="white" />
    <path
        d="M21.4276 52.0096C21.1503 52.2881 21.1513 52.7387 21.4298 53.016C21.7083 53.2933 22.1589 53.2924 22.4362 53.0139C22.7135 52.7354 22.7125 52.2848 22.434 52.0075C22.1555 51.7302 21.705 51.7311 21.4276 52.0096Z"
        fill="white" />
    <path
        d="M18.1089 48.705C17.8768 48.9381 17.8776 49.3152 18.1107 49.5472C18.3438 49.7793 18.7209 49.7785 18.953 49.5455C19.1851 49.3124 19.1843 48.9353 18.9512 48.7032C18.7181 48.4711 18.341 48.4719 18.1089 48.705Z"
        fill="white" />
    <path
        d="M14.7924 45.4025C14.6067 45.5889 14.6073 45.8906 14.7938 46.0763C14.9803 46.262 15.282 46.2613 15.4676 46.0749C15.6533 45.8884 15.6527 45.5867 15.4662 45.4011C15.2797 45.2154 14.9781 45.216 14.7924 45.4025Z"
        fill="white" />
    <path
        d="M38.6416 75.9237C38.4714 76.0947 38.472 76.3712 38.6429 76.5414C38.8139 76.7116 39.0904 76.711 39.2606 76.5401C39.4308 76.3692 39.4302 76.0926 39.2593 75.9224C39.0884 75.7522 38.8118 75.7528 38.6416 75.9237Z"
        fill="white" />
    <path
        d="M35.1844 72.4812C34.9832 72.6832 34.9839 73.01 35.1859 73.2111C35.3879 73.4123 35.7148 73.4116 35.9159 73.2096C36.117 73.0076 36.1164 72.6808 35.9144 72.4796C35.7124 72.2785 35.3855 72.2792 35.1844 72.4812Z"
        fill="white" />
    <path
        d="M31.7272 69.0386C31.4951 69.2717 31.4959 69.6488 31.729 69.8809C31.962 70.113 32.3391 70.1122 32.5712 69.8791C32.8033 69.646 32.8025 69.2689 32.5694 69.0368C32.3364 68.8047 31.9593 68.8055 31.7272 69.0386Z"
        fill="white" />
    <path
        d="M28.2721 65.5982C28.0103 65.8612 28.0112 66.2866 28.2741 66.5484C28.5371 66.8103 28.9625 66.8094 29.2244 66.5464C29.4862 66.2835 29.4853 65.858 29.2224 65.5962C28.9594 65.3343 28.534 65.3352 28.2721 65.5982Z"
        fill="white" />
    <path
        d="M24.8712 62.2117C24.6093 62.4746 24.6102 62.9001 24.8732 63.1619C25.1361 63.4238 25.5616 63.4229 25.8234 63.1599C26.0853 62.8969 26.0844 62.4715 25.8214 62.2096C25.5584 61.9478 25.133 61.9487 24.8712 62.2117Z"
        fill="white" />
    <path
        d="M21.5243 58.879C21.2922 59.1121 21.293 59.4892 21.5261 59.7213C21.7592 59.9534 22.1363 59.9526 22.3684 59.7195C22.6004 59.4864 22.5996 59.1093 22.3666 58.8772C22.1335 58.6451 21.7564 58.6459 21.5243 58.879Z"
        fill="white" />
    <path
        d="M18.1796 55.5485C17.9785 55.7505 17.9792 56.0773 18.1812 56.2785C18.3832 56.4796 18.71 56.4789 18.9111 56.2769C19.1123 56.0749 19.1116 55.7481 18.9096 55.5469C18.7076 55.3458 18.3808 55.3465 18.1796 55.5485Z"
        fill="white" />
    <path
        d="M14.8349 52.218C14.6647 52.3889 14.6653 52.6655 14.8362 52.8357C15.0072 53.0059 15.2837 53.0053 15.4539 52.8343C15.6241 52.6634 15.6235 52.3869 15.4526 52.2167C15.2817 52.0465 15.0051 52.0471 14.8349 52.218Z"
        fill="white" />
    <path
        d="M31.9385 76.0222C31.8148 76.1465 31.8152 76.3476 31.9395 76.4714C32.0638 76.5952 32.2649 76.5948 32.3887 76.4705C32.5125 76.3462 32.5121 76.145 32.3877 76.0213C32.2634 75.8975 32.0623 75.8979 31.9385 76.0222Z"
        fill="white" />
    <path
        d="M28.5094 72.6077C28.3702 72.7475 28.3707 72.9738 28.5105 73.113C28.6504 73.2523 28.8766 73.2518 29.0159 73.1119C29.1551 72.9721 29.1546 72.7458 29.0148 72.6066C28.875 72.4673 28.6487 72.4678 28.5094 72.6077Z"
        fill="white" />
    <path
        d="M25.0804 69.1931C24.9256 69.3485 24.9262 69.5999 25.0815 69.7546C25.2369 69.9093 25.4883 69.9088 25.6431 69.7534C25.7978 69.598 25.7973 69.3466 25.6419 69.1919C25.4865 69.0372 25.2351 69.0377 25.0804 69.1931Z"
        fill="white" />
    <path
        d="M21.6794 65.8066C21.5247 65.962 21.5252 66.2134 21.6806 66.3681C21.836 66.5228 22.0874 66.5223 22.2421 66.3669C22.3968 66.2115 22.3963 65.9601 22.2409 65.8054C22.0855 65.6506 21.8341 65.6512 21.6794 65.8066Z"
        fill="white" />
    <path
        d="M18.3066 62.4481C18.1673 62.5879 18.1678 62.8142 18.3077 62.9534C18.4475 63.0927 18.6738 63.0922 18.813 62.9523C18.9523 62.8125 18.9518 62.5862 18.8119 62.447C18.6721 62.3077 18.4458 62.3082 18.3066 62.4481Z"
        fill="white" />
    <path
        d="M14.9338 59.0895C14.81 59.2138 14.8104 59.415 14.9347 59.5387C15.059 59.6625 15.2601 59.6621 15.3839 59.5378C15.5077 59.4135 15.5073 59.2124 15.383 59.0886C15.2587 58.9648 15.0575 58.9652 14.9338 59.0895Z"
        fill="white" />
</svg>