<svg width="438" height="83" viewBox="0 0 438 83" fill="none" xmlns="http://www.w3.org/2000/svg"
    preserveAspectRatio="none">
    <path
        d="M28.3625 29.5986L17.5989 7.4192C15.8514 3.81816 18.8328 -0.274233 22.7962 0.285303L98.5 10.9729L335.064 15.4646C335.354 15.4701 335.644 15.4503 335.931 15.4055L431.556 0.449991C435.544 -0.173732 438.589 3.94144 436.826 7.57293L425.505 30.9021C424.867 32.2163 424.836 33.7438 425.42 35.083L432.115 50.4427C432.679 51.7356 432.67 53.2064 432.091 54.4925L421.021 79.0929C420.118 81.1005 418.007 82.281 415.824 82.0002L349.5 73.4729L55.8059 65.4948C55.2721 65.4803 54.7394 65.5514 54.2281 65.7054L16.5201 77.0632C14.6749 77.619 12.6746 77.065 11.3783 75.6391L1.87136 65.1814C0.010707 63.1347 0.165365 59.9661 2.2165 58.1104L27.2188 35.4893C28.8668 33.9981 29.3328 31.5981 28.3625 29.5986Z"
        fill="#FF5129" />
</svg>