<svg width="292" height="86" viewBox="0 0 292 86" fill="none" xmlns="http://www.w3.org/2000/svg"
    preserveAspectRatio="none">
    <path
        d="M0.534414 28.3911L14.0574 2.64878C14.7516 1.32721 16.1368 0.515255 17.6291 0.555135L253.045 6.84646C254.072 6.8739 255.047 7.30359 255.76 8.04294L290.546 44.1178C292.944 46.6047 291.182 50.7526 287.727 50.7526H224.378C221.1 50.7526 219.273 54.538 221.311 57.1045L231.532 69.9763C233.703 72.7091 231.485 76.7015 228.018 76.3025L139.714 66.1406C139.064 66.0657 138.404 66.1552 137.797 66.401L91.3616 85.1964C90.1245 85.6971 88.7176 85.5334 87.6285 84.7619L62.5421 66.9924C61.671 66.3754 60.5857 66.1406 59.5375 66.3426L21.5288 73.6654C19.7474 74.0086 17.9635 73.0835 17.2177 71.4298L9.48233 54.2774L0.369299 31.677C-0.0607154 30.6106 -0.000339478 29.4091 0.534414 28.3911Z"
        fill="#3322B8" />
</svg>