<svg width="448" height="100" viewBox="0 0 448 100" fill="none" xmlns="http://www.w3.org/2000/svg"
    preserveAspectRatio="none">
    <path
        d="M1.37975 43.7688L29.0285 2.97563C29.9847 1.56482 31.5937 0.738243 33.2974 0.782579L430.835 11.1274C432.8 11.1786 434.553 12.3763 435.314 14.1884L446.991 41.972C447.907 44.1515 447.172 46.6746 445.228 48.0203L420.422 65.1938C418.057 66.8311 417.558 70.1212 419.33 72.3863L427.889 83.3223C430.43 86.5696 428.17 91.3241 424.047 91.4029L19.3947 99.1382C17.1341 99.1814 15.1259 97.7022 14.4967 95.5305L0.716153 47.9655C0.302442 46.5375 0.545642 44.9995 1.37975 43.7688Z"
        fill="#3322B8" />
</svg>