<svg width="69" height="75" viewBox="0 0 69 75" fill="none" xmlns="http://www.w3.org/2000/svg">
<path fill-rule="evenodd" clip-rule="evenodd" d="M17.6732 33.3509C11.2042 33.382 4.7223 39.2263 3.38667 46.1598L1.37386 56.5866C-0.405636 65.8333 3.11996 69.8954 13.5328 72.5323L13.4245 50.0495C13.4201 49.1385 14.1506 48.4 15.0626 48.3956C15.9746 48.3912 16.7121 49.1227 16.7165 50.0337L16.8284 73.2784C17.3449 73.3849 17.8605 73.4924 18.3769 73.584C27.2226 75.1614 36.288 74.6067 45.0111 72.3147C47.7886 71.5883 48.0669 69.7839 45.6641 68.3745C40.4303 65.3047 37.0329 59.629 36.9985 53.3011C36.9728 47.1391 40.2545 41.6842 45.1876 38.3544C46.7545 37.2949 47.6716 35.0344 45.4992 34.1239C44.0492 33.5099 42.5009 33.2313 40.9789 33.2387L17.6732 33.3509Z" fill="white"/>
<path fill-rule="evenodd" clip-rule="evenodd" d="M42.4522 10.8106C43.2926 14.2026 42.7318 17.7823 40.9021 20.7611C39.0725 23.743 36.1187 25.8772 32.6957 26.7067C29.2716 27.5302 25.6559 26.9736 22.6411 25.1601C19.6323 23.3466 17.4683 20.425 16.6329 17.039C14.8899 9.97928 19.2577 2.86416 26.3905 1.14179C29.8126 0.318307 33.4303 0.874892 36.4451 2.6874C39.4588 4.5019 41.6189 7.42354 42.4522 10.8106Z" fill="white"/>
<path fill-rule="evenodd" clip-rule="evenodd" d="M54.5881 45.5695C56.916 45.5583 58.8898 47.3718 58.9009 49.6698L58.9089 51.3418C60.0079 51.5505 60.8526 52.5155 60.8582 53.6714L60.8812 58.4524C60.8874 59.7534 59.8187 60.8375 58.5117 60.8438L50.8188 60.8809C49.5118 60.8872 48.4286 59.8134 48.4223 58.5124L48.3993 53.7314C48.3937 52.5754 49.2331 51.6024 50.326 51.3831L50.318 49.7111C50.3059 47.4132 52.2601 45.5807 54.5881 45.5695ZM54.5665 39.8406C47.1856 39.8761 41.2105 45.905 41.2461 53.2809C41.2816 60.6558 47.3144 66.6268 54.6953 66.5913C62.0702 66.5557 68.0473 60.5269 68.0117 53.152C67.9762 45.7761 61.9414 39.8051 54.5665 39.8406Z" fill="white"/>
<path fill-rule="evenodd" clip-rule="evenodd" d="M54.5981 47.6596C53.3441 47.6656 52.4056 48.5972 52.4109 49.7011L52.4187 51.3261L56.8147 51.305L56.8069 49.68C56.8025 48.575 55.8601 47.6535 54.5981 47.6596Z" fill="white"/>
<path fill-rule="evenodd" clip-rule="evenodd" d="M54.7296 54.0547C53.9426 54.0585 53.3108 54.7285 53.3148 55.5455C53.3171 56.0355 53.5534 56.4984 53.9457 56.7715L53.5264 58.5865C53.4964 58.7837 53.6432 58.95 53.7842 58.9493L55.7161 58.94C55.8621 58.9393 56.0083 58.7716 55.9704 58.5748L55.5396 56.7598C55.9293 56.4869 56.1551 56.0228 56.1587 55.5328C56.1548 54.7148 55.5106 54.0509 54.7296 54.0547Z" fill="white"/>
</svg>
