<svg width="348" height="340" viewBox="0 0 348 340" fill="none" xmlns="http://www.w3.org/2000/svg">
<g style="mix-blend-mode:overlay">
<path d="M9.08593 202.267L347.693 202.267" stroke="white" stroke-width="0.839251"/>
</g>
<g style="mix-blend-mode:overlay">
<path d="M9.08593 323.108H347.693" stroke="white" stroke-width="0.839251"/>
</g>
<path d="M8.66699 250.259C8.66699 248.865 9.7977 247.734 11.1925 247.734H66.008C67.4029 247.734 68.5336 248.865 68.5336 250.259V323.826H8.66699V250.259Z" fill="url(#paint0_linear_180_3040)"/>
<path d="M21.0737 259.668C21.0737 260.286 20.8844 260.764 20.5057 261.1C20.1271 261.436 19.6071 261.604 18.9457 261.604C18.1724 261.604 17.5191 261.374 16.9857 260.916C16.9271 260.857 16.9271 260.79 16.9857 260.716L17.4577 260.052C17.5111 259.982 17.5777 259.982 17.6577 260.052C17.8657 260.185 18.0631 260.286 18.2497 260.356C18.4364 260.42 18.6684 260.452 18.9457 260.452C19.2177 260.452 19.4284 260.382 19.5777 260.244C19.7324 260.1 19.8097 259.889 19.8097 259.612C19.8097 259.1 19.5004 258.844 18.8817 258.844C18.7217 258.844 18.5457 258.868 18.3537 258.916C18.2791 258.937 18.2204 258.908 18.1777 258.828L17.9857 258.388C17.9537 258.318 17.9671 258.254 18.0257 258.196L19.2977 256.916H17.3857C17.2951 256.916 17.2497 256.87 17.2497 256.78V255.932C17.2497 255.836 17.2951 255.788 17.3857 255.788H20.7217C20.8124 255.788 20.8577 255.836 20.8577 255.932V256.596C20.8577 256.665 20.8337 256.724 20.7857 256.772L19.4897 258.068V258.084C19.9271 258.068 20.3004 258.209 20.6097 258.508C20.9191 258.806 21.0737 259.193 21.0737 259.668ZM25.9311 259.524C25.9311 260.201 25.7391 260.718 25.3551 261.076C24.9764 261.433 24.4804 261.612 23.8671 261.612C23.2538 261.612 22.7551 261.433 22.3711 261.076C21.9871 260.718 21.7951 260.201 21.7951 259.524V257.732C21.7951 257.07 21.9871 256.564 22.3711 256.212C22.7551 255.86 23.2538 255.684 23.8671 255.684C24.4804 255.684 24.9764 255.86 25.3551 256.212C25.7391 256.564 25.9311 257.07 25.9311 257.732V259.524ZM23.0351 259.58C23.0351 259.873 23.1124 260.089 23.2671 260.228C23.4218 260.361 23.6218 260.428 23.8671 260.428C24.1124 260.428 24.3124 260.361 24.4671 260.228C24.6218 260.089 24.6991 259.873 24.6991 259.58V257.708C24.6991 257.414 24.6218 257.201 24.4671 257.068C24.3124 256.929 24.1124 256.86 23.8671 256.86C23.6218 256.86 23.4218 256.929 23.2671 257.068C23.1124 257.201 23.0351 257.414 23.0351 257.708V259.58ZM28.0195 260.5L27.3795 262.492C27.3528 262.566 27.2995 262.604 27.2195 262.604H26.5235C26.4168 262.604 26.3768 262.553 26.4035 262.452L26.8755 260.468C26.9021 260.382 26.9528 260.34 27.0275 260.34H27.8995C28.0061 260.34 28.0461 260.393 28.0195 260.5ZM28.6673 257.652C28.6673 257.06 28.8539 256.585 29.2273 256.228C29.6059 255.865 30.1073 255.684 30.7313 255.684C31.3499 255.684 31.8486 255.862 32.2273 256.22C32.6059 256.577 32.7953 257.041 32.7953 257.612V259.572C32.7953 260.201 32.6006 260.7 32.2113 261.068C31.8273 261.43 31.3313 261.612 30.7233 261.612C30.0139 261.612 29.3979 261.42 28.8753 261.036C28.8006 260.982 28.7873 260.916 28.8353 260.836L29.2993 260.092C29.3473 260.012 29.4139 260.001 29.4993 260.06C29.8566 260.321 30.2539 260.452 30.6913 260.452C30.9579 260.452 31.1659 260.377 31.3153 260.228C31.4699 260.073 31.5473 259.854 31.5473 259.572V259.156C31.2806 259.337 30.9526 259.428 30.5633 259.428C29.9819 259.428 29.5206 259.27 29.1793 258.956C28.8379 258.641 28.6673 258.206 28.6673 257.652ZM29.9233 257.644C29.9233 258.161 30.1953 258.42 30.7393 258.42C30.9793 258.42 31.1739 258.356 31.3233 258.228C31.4726 258.094 31.5473 257.905 31.5473 257.66V257.596C31.5473 257.361 31.4726 257.174 31.3233 257.036C31.1793 256.892 30.9846 256.82 30.7393 256.82C30.4833 256.82 30.2833 256.892 30.1393 257.036C29.9953 257.18 29.9233 257.382 29.9233 257.644ZM36.3829 261.508H35.4709C35.3749 261.508 35.3269 261.46 35.3269 261.364V257.484C35.3269 257.393 35.3749 257.348 35.4709 257.348H36.5029C36.5882 257.348 36.6416 257.382 36.6629 257.452L37.1189 258.38C37.3482 258.849 37.5216 259.228 37.6389 259.516H37.6709C37.7882 259.228 37.9616 258.849 38.1909 258.38L38.6389 257.452C38.6709 257.382 38.7269 257.348 38.8069 257.348H39.8389C39.9349 257.348 39.9829 257.393 39.9829 257.484V261.364C39.9829 261.46 39.9349 261.508 39.8389 261.508H38.9269C38.8362 261.508 38.7909 261.46 38.7909 261.364V260.436C38.7909 260.014 38.8042 259.585 38.8309 259.148H38.8149C38.6816 259.462 38.5509 259.764 38.4229 260.052L38.0949 260.748C38.0629 260.817 38.0069 260.852 37.9269 260.852H37.3829C37.3029 260.852 37.2469 260.817 37.2149 260.748L36.8869 260.052C36.7589 259.764 36.6282 259.462 36.4949 259.148H36.4789C36.5056 259.585 36.5189 260.014 36.5189 260.436V261.364C36.5189 261.46 36.4736 261.508 36.3829 261.508ZM42.2656 260.324C42.1589 260.75 41.9856 261.057 41.7456 261.244C41.5056 261.425 41.1536 261.526 40.6896 261.548C40.5936 261.548 40.5456 261.5 40.5456 261.404V260.62C40.5456 260.534 40.5909 260.484 40.6816 260.468C40.8043 260.446 40.9056 260.39 40.9856 260.3C41.0656 260.204 41.1296 260.049 41.1776 259.836C41.2843 259.388 41.3536 258.604 41.3856 257.484C41.3963 257.393 41.4443 257.348 41.5296 257.348H44.4176C44.5136 257.348 44.5616 257.393 44.5616 257.484V261.364C44.5616 261.46 44.5136 261.508 44.4176 261.508H43.4896C43.3936 261.508 43.3456 261.46 43.3456 261.364V258.412H42.5056C42.4789 259.212 42.3989 259.849 42.2656 260.324ZM45.5477 257.54C46.0864 257.337 46.6517 257.236 47.2437 257.236C47.8144 257.236 48.2731 257.398 48.6197 257.724C48.9664 258.044 49.1397 258.486 49.1397 259.052V259.844C49.1397 260.382 48.9797 260.812 48.6597 261.132C48.3397 261.452 47.9211 261.612 47.4037 261.612C47.1424 261.612 46.8971 261.566 46.6677 261.476V262.884C46.6677 262.98 46.6224 263.028 46.5317 263.028H45.5877C45.4917 263.028 45.4437 262.98 45.4437 262.884V257.692C45.4437 257.612 45.4784 257.561 45.5477 257.54ZM47.2277 260.548C47.6757 260.548 47.8997 260.321 47.8997 259.868V259.028C47.8997 258.558 47.6731 258.324 47.2197 258.324C47.0117 258.324 46.8277 258.353 46.6677 258.412V260.412C46.8224 260.502 47.0091 260.548 47.2277 260.548ZM50.5547 262.572H49.6667C49.5707 262.572 49.5227 262.526 49.5227 262.436V260.588C49.5227 260.497 49.5707 260.452 49.6667 260.452H49.8667C50.0427 260.324 50.1787 260.049 50.2747 259.628C50.3761 259.201 50.4587 258.489 50.5227 257.492C50.5334 257.396 50.5814 257.348 50.6667 257.348H53.5147C53.6054 257.348 53.6507 257.393 53.6507 257.484V260.452H54.0187C54.1147 260.452 54.1627 260.5 54.1627 260.596V262.436C54.1627 262.526 54.1147 262.572 54.0187 262.572H53.1307C53.0401 262.572 52.9947 262.526 52.9947 262.436V261.508H50.6987V262.436C50.6987 262.526 50.6507 262.572 50.5547 262.572ZM51.6347 258.396C51.5761 259.409 51.4161 260.094 51.1547 260.452H52.4507V258.396H51.6347ZM61.0353 257.764C61.0353 258.356 60.8567 258.828 60.4993 259.18C60.1473 259.526 59.67 259.7 59.0673 259.7H58.0993V260.156H59.1233C59.2193 260.156 59.2673 260.201 59.2673 260.292V260.788C59.2673 260.884 59.2193 260.932 59.1233 260.932H58.0993V261.364C58.0993 261.46 58.054 261.508 57.9633 261.508H57.0113C56.9153 261.508 56.8673 261.46 56.8673 261.364V260.932H56.3953C56.2993 260.932 56.2513 260.884 56.2513 260.788V260.292C56.2513 260.201 56.2993 260.156 56.3953 260.156H56.8673V255.932C56.8673 255.836 56.9153 255.788 57.0113 255.788H59.0673C59.67 255.788 60.1473 255.966 60.4993 256.324C60.8567 256.681 61.0353 257.161 61.0353 257.764ZM59.7953 257.74C59.7953 257.185 59.4913 256.908 58.8833 256.908H58.0993V258.588H58.8833C59.4913 258.588 59.7953 258.305 59.7953 257.74Z" fill="white"/>
<path opacity="0.8" d="M31.25 337.42H27.698C27.6394 337.42 27.61 337.391 27.61 337.332V337.004C27.61 336.956 27.626 336.919 27.658 336.892L29.218 335.252C29.6767 334.772 30.0127 334.38 30.226 334.076C30.4394 333.767 30.546 333.463 30.546 333.164C30.546 332.908 30.4607 332.69 30.29 332.508C30.1247 332.327 29.8714 332.236 29.53 332.236C29.018 332.236 28.5487 332.471 28.122 332.94C28.0847 332.988 28.042 332.988 27.994 332.94L27.738 332.588C27.706 332.546 27.706 332.503 27.738 332.46C28.2394 331.895 28.834 331.612 29.522 331.612C30.0287 331.612 30.4367 331.751 30.746 332.028C31.0607 332.306 31.218 332.682 31.218 333.156C31.218 333.53 31.1087 333.892 30.89 334.244C30.6714 334.591 30.3114 335.036 29.81 335.58C29.4154 336.018 29.0234 336.426 28.634 336.804H31.25C31.3087 336.804 31.338 336.836 31.338 336.9V337.332C31.338 337.391 31.3087 337.42 31.25 337.42ZM36.0717 335.62C36.0717 336.239 35.8877 336.708 35.5197 337.028C35.1517 337.348 34.7011 337.508 34.1677 337.508C33.6291 337.508 33.1731 337.348 32.7997 337.028C32.4317 336.708 32.2477 336.239 32.2477 335.62V333.484C32.2477 332.871 32.4317 332.407 32.7997 332.092C33.1731 331.772 33.6291 331.612 34.1677 331.612C34.7011 331.612 35.1517 331.772 35.5197 332.092C35.8877 332.407 36.0717 332.871 36.0717 333.484V335.62ZM32.9117 335.644C32.9117 336.06 33.0317 336.37 33.2717 336.572C33.5117 336.77 33.8104 336.868 34.1677 336.868C34.5197 336.868 34.8131 336.77 35.0477 336.572C35.2877 336.37 35.4077 336.06 35.4077 335.644V333.508C35.4077 333.076 35.2904 332.759 35.0557 332.556C34.8211 332.354 34.5251 332.252 34.1677 332.252C33.8051 332.252 33.5037 332.354 33.2637 332.556C33.0291 332.759 32.9117 333.076 32.9117 333.508V335.644ZM38.6665 337.42H38.1945C38.1305 337.42 38.0985 337.391 38.0985 337.332V332.492L37.1145 333.148C37.0612 333.18 37.0185 333.172 36.9865 333.124L36.7625 332.756C36.7252 332.714 36.7332 332.671 36.7865 332.628L38.1385 331.732C38.1759 331.711 38.2159 331.7 38.2585 331.7H38.6665C38.7305 331.7 38.7625 331.73 38.7625 331.788V337.332C38.7625 337.391 38.7305 337.42 38.6665 337.42ZM39.8537 333.524C39.8537 332.954 40.0297 332.492 40.3817 332.14C40.7337 331.788 41.1897 331.612 41.7497 331.612C42.3097 331.612 42.7657 331.783 43.1177 332.124C43.4751 332.466 43.6537 332.914 43.6537 333.468V335.652C43.6537 336.239 43.4724 336.695 43.1097 337.02C42.7524 337.346 42.3071 337.508 41.7737 337.508C41.1444 337.508 40.5844 337.276 40.0937 336.812C40.0511 336.77 40.0484 336.727 40.0857 336.684L40.3497 336.324C40.3817 336.276 40.4244 336.274 40.4777 336.316C40.8617 336.69 41.2911 336.876 41.7657 336.876C42.1124 336.876 42.4031 336.772 42.6377 336.564C42.8724 336.351 42.9897 336.058 42.9897 335.684V334.788C42.6804 335.162 42.2457 335.348 41.6857 335.348C41.1151 335.348 40.6671 335.191 40.3417 334.876C40.0164 334.556 39.8537 334.106 39.8537 333.524ZM40.5177 333.516C40.5177 334.322 40.9257 334.724 41.7417 334.724C42.0831 334.724 42.3764 334.626 42.6217 334.428C42.8671 334.226 42.9897 333.938 42.9897 333.564V333.468C42.9897 333.09 42.8751 332.791 42.6457 332.572C42.4217 332.348 42.1204 332.236 41.7417 332.236C41.3631 332.236 41.0644 332.351 40.8457 332.58C40.6271 332.804 40.5177 333.116 40.5177 333.516ZM47.0895 337.42H46.6175C46.5589 337.42 46.5295 337.391 46.5295 337.332V333.38C46.5295 333.316 46.5589 333.284 46.6175 333.284H49.0095C49.0682 333.284 49.0975 333.316 49.0975 333.38V333.78C49.0975 333.844 49.0682 333.876 49.0095 333.876H47.1855V337.332C47.1855 337.391 47.1535 337.42 47.0895 337.42ZM49.9296 337.02C49.9296 337.148 49.8869 337.255 49.8016 337.34C49.7216 337.42 49.6176 337.46 49.4896 337.46C49.3563 337.46 49.2496 337.42 49.1696 337.34C49.0896 337.255 49.0496 337.148 49.0496 337.02C49.0496 336.887 49.0896 336.78 49.1696 336.7C49.2496 336.615 49.3563 336.572 49.4896 336.572C49.6176 336.572 49.7216 336.615 49.8016 336.7C49.8869 336.78 49.9296 336.887 49.9296 337.02Z" fill="white"/>
<path opacity="0.8" d="M100.411 337.42H96.8592C96.8005 337.42 96.7712 337.391 96.7712 337.332V337.004C96.7712 336.956 96.7872 336.919 96.8192 336.892L98.3792 335.252C98.8378 334.772 99.1738 334.38 99.3872 334.076C99.6005 333.767 99.7072 333.463 99.7072 333.164C99.7072 332.908 99.6218 332.689 99.4512 332.508C99.2858 332.327 99.0325 332.236 98.6912 332.236C98.1792 332.236 97.7098 332.471 97.2832 332.94C97.2458 332.988 97.2032 332.988 97.1552 332.94L96.8992 332.588C96.8672 332.545 96.8672 332.503 96.8992 332.46C97.4005 331.895 97.9952 331.612 98.6832 331.612C99.1898 331.612 99.5978 331.751 99.9072 332.028C100.222 332.305 100.379 332.681 100.379 333.156C100.379 333.529 100.27 333.892 100.051 334.244C99.8325 334.591 99.4725 335.036 98.9712 335.58C98.5765 336.017 98.1845 336.425 97.7952 336.804H100.411C100.47 336.804 100.499 336.836 100.499 336.9V337.332C100.499 337.391 100.47 337.42 100.411 337.42ZM105.233 335.62C105.233 336.239 105.049 336.708 104.681 337.028C104.313 337.348 103.862 337.508 103.329 337.508C102.79 337.508 102.334 337.348 101.961 337.028C101.593 336.708 101.409 336.239 101.409 335.62V333.484C101.409 332.871 101.593 332.407 101.961 332.092C102.334 331.772 102.79 331.612 103.329 331.612C103.862 331.612 104.313 331.772 104.681 332.092C105.049 332.407 105.233 332.871 105.233 333.484V335.62ZM102.073 335.644C102.073 336.06 102.193 336.369 102.433 336.572C102.673 336.769 102.972 336.868 103.329 336.868C103.681 336.868 103.974 336.769 104.209 336.572C104.449 336.369 104.569 336.06 104.569 335.644V333.508C104.569 333.076 104.452 332.759 104.217 332.556C103.982 332.353 103.686 332.252 103.329 332.252C102.966 332.252 102.665 332.353 102.425 332.556C102.19 332.759 102.073 333.076 102.073 333.508V335.644ZM109.724 337.42H106.172C106.113 337.42 106.084 337.391 106.084 337.332V337.004C106.084 336.956 106.1 336.919 106.132 336.892L107.692 335.252C108.15 334.772 108.486 334.38 108.7 334.076C108.913 333.767 109.02 333.463 109.02 333.164C109.02 332.908 108.934 332.689 108.764 332.508C108.598 332.327 108.345 332.236 108.004 332.236C107.492 332.236 107.022 332.471 106.596 332.94C106.558 332.988 106.516 332.988 106.468 332.94L106.212 332.588C106.18 332.545 106.18 332.503 106.212 332.46C106.713 331.895 107.308 331.612 107.996 331.612C108.502 331.612 108.91 331.751 109.22 332.028C109.534 332.305 109.692 332.681 109.692 333.156C109.692 333.529 109.582 333.892 109.364 334.244C109.145 334.591 108.785 335.036 108.284 335.58C107.889 336.017 107.497 336.425 107.108 336.804H109.724C109.782 336.804 109.812 336.836 109.812 336.9V337.332C109.812 337.391 109.782 337.42 109.724 337.42ZM114.545 335.62C114.545 336.239 114.361 336.708 113.993 337.028C113.625 337.348 113.175 337.508 112.641 337.508C112.103 337.508 111.647 337.348 111.273 337.028C110.905 336.708 110.721 336.239 110.721 335.62V333.484C110.721 332.871 110.905 332.407 111.273 332.092C111.647 331.772 112.103 331.612 112.641 331.612C113.175 331.612 113.625 331.772 113.993 332.092C114.361 332.407 114.545 332.871 114.545 333.484V335.62ZM111.385 335.644C111.385 336.06 111.505 336.369 111.745 336.572C111.985 336.769 112.284 336.868 112.641 336.868C112.993 336.868 113.287 336.769 113.521 336.572C113.761 336.369 113.881 336.06 113.881 335.644V333.508C113.881 333.076 113.764 332.759 113.529 332.556C113.295 332.353 112.999 332.252 112.641 332.252C112.279 332.252 111.977 332.353 111.737 332.556C111.503 332.759 111.385 333.076 111.385 333.508V335.644ZM117.985 337.42H117.513C117.454 337.42 117.425 337.391 117.425 337.332V333.38C117.425 333.316 117.454 333.284 117.513 333.284H119.905C119.964 333.284 119.993 333.316 119.993 333.38V333.78C119.993 333.844 119.964 333.876 119.905 333.876H118.081V337.332C118.081 337.391 118.049 337.42 117.985 337.42ZM120.825 337.02C120.825 337.148 120.782 337.255 120.697 337.34C120.617 337.42 120.513 337.46 120.385 337.46C120.252 337.46 120.145 337.42 120.065 337.34C119.985 337.255 119.945 337.148 119.945 337.02C119.945 336.887 119.985 336.78 120.065 336.7C120.145 336.615 120.252 336.572 120.385 336.572C120.513 336.572 120.617 336.615 120.697 336.7C120.782 336.78 120.825 336.887 120.825 337.02Z" fill="white"/>
<path d="M78.6035 283.269C78.6035 281.874 79.7342 280.743 81.129 280.743H135.945C137.339 280.743 138.47 281.874 138.47 283.269V323.825H78.6035V283.269Z" fill="url(#paint1_linear_180_3040)"/>
<path d="M90.8876 294.339H87.1756C87.0796 294.339 87.0316 294.291 87.0316 294.195V293.499C87.0316 293.43 87.0556 293.371 87.1036 293.323L88.4156 292.003C88.9009 291.518 89.2342 291.158 89.4156 290.923C89.5969 290.683 89.6876 290.454 89.6876 290.235C89.6876 290.07 89.6316 289.934 89.5196 289.827C89.4129 289.715 89.2422 289.659 89.0076 289.659C88.6342 289.659 88.2582 289.843 87.8796 290.211C87.8156 290.286 87.7516 290.283 87.6876 290.203L87.1916 289.539C87.1436 289.464 87.1462 289.398 87.1996 289.339C87.7382 288.79 88.3569 288.515 89.0556 288.515C89.6262 288.515 90.0822 288.664 90.4236 288.963C90.7649 289.256 90.9356 289.67 90.9356 290.203C90.9356 290.512 90.8636 290.803 90.7196 291.075C90.5809 291.342 90.3516 291.659 90.0316 292.027C89.6902 292.416 89.2956 292.814 88.8476 293.219H90.8876C90.9836 293.219 91.0316 293.264 91.0316 293.355V294.195C91.0316 294.291 90.9836 294.339 90.8876 294.339ZM93.9051 294.331H92.9371C92.8465 294.331 92.8011 294.286 92.8011 294.195V290.091L92.0971 290.603C92.0171 290.656 91.9505 290.643 91.8971 290.563L91.4491 289.859C91.4065 289.795 91.4198 289.731 91.4891 289.667L92.8811 288.675C92.9345 288.638 92.9931 288.619 93.0571 288.619H93.9051C93.9958 288.619 94.0411 288.667 94.0411 288.763V294.195C94.0411 294.286 93.9958 294.331 93.9051 294.331ZM96.2675 293.331L95.6275 295.323C95.6008 295.398 95.5475 295.435 95.4675 295.435H94.7715C94.6648 295.435 94.6248 295.384 94.6515 295.283L95.1235 293.299C95.1502 293.214 95.2008 293.171 95.2755 293.171H96.1475C96.2542 293.171 96.2942 293.224 96.2675 293.331ZM101.283 292.619C101.283 293.19 101.089 293.638 100.699 293.963C100.315 294.283 99.79 294.443 99.1233 294.443C98.4567 294.443 97.9287 294.283 97.5393 293.963C97.1553 293.638 96.9633 293.19 96.9633 292.619C96.9633 292.326 97.03 292.062 97.1633 291.827C97.2967 291.592 97.486 291.414 97.7313 291.291C97.326 290.987 97.1233 290.595 97.1233 290.115C97.1233 289.651 97.3073 289.27 97.6753 288.971C98.0433 288.667 98.526 288.515 99.1233 288.515C99.7207 288.515 100.203 288.667 100.571 288.971C100.939 289.27 101.123 289.651 101.123 290.115C101.123 290.6 100.923 290.992 100.523 291.291C100.769 291.419 100.955 291.6 101.083 291.835C101.217 292.064 101.283 292.326 101.283 292.619ZM98.2273 292.603C98.2273 292.822 98.3073 292.998 98.4673 293.131C98.6273 293.264 98.846 293.331 99.1233 293.331C99.4007 293.331 99.6193 293.267 99.7793 293.139C99.9393 293.006 100.019 292.827 100.019 292.603C100.019 292.39 99.9393 292.222 99.7793 292.099C99.6247 291.976 99.406 291.915 99.1233 291.915C98.846 291.915 98.6273 291.976 98.4673 292.099C98.3073 292.222 98.2273 292.39 98.2273 292.603ZM98.3233 290.211C98.3233 290.419 98.3927 290.582 98.5313 290.699C98.6753 290.816 98.8727 290.875 99.1233 290.875C99.374 290.875 99.5713 290.816 99.7153 290.699C99.8593 290.582 99.9313 290.419 99.9313 290.211C99.9313 290.019 99.8593 289.87 99.7153 289.763C99.5713 289.651 99.374 289.595 99.1233 289.595C98.8727 289.595 98.6753 289.651 98.5313 289.763C98.3927 289.87 98.3233 290.019 98.3233 290.211ZM104.787 294.339H103.875C103.779 294.339 103.731 294.291 103.731 294.195V290.315C103.731 290.224 103.779 290.179 103.875 290.179H104.907C104.993 290.179 105.046 290.214 105.067 290.283L105.523 291.211C105.753 291.68 105.926 292.059 106.043 292.347H106.075C106.193 292.059 106.366 291.68 106.595 291.211L107.043 290.283C107.075 290.214 107.131 290.179 107.211 290.179H108.243C108.339 290.179 108.387 290.224 108.387 290.315V294.195C108.387 294.291 108.339 294.339 108.243 294.339H107.331C107.241 294.339 107.195 294.291 107.195 294.195V293.267C107.195 292.846 107.209 292.416 107.235 291.979H107.219C107.086 292.294 106.955 292.595 106.827 292.883L106.499 293.579C106.467 293.648 106.411 293.683 106.331 293.683H105.787C105.707 293.683 105.651 293.648 105.619 293.579L105.291 292.883C105.163 292.595 105.033 292.294 104.899 291.979H104.883C104.91 292.416 104.923 292.846 104.923 293.267V294.195C104.923 294.291 104.878 294.339 104.787 294.339ZM110.67 293.155C110.563 293.582 110.39 293.888 110.15 294.075C109.91 294.256 109.558 294.358 109.094 294.379C108.998 294.379 108.95 294.331 108.95 294.235V293.451C108.95 293.366 108.995 293.315 109.086 293.299C109.209 293.278 109.31 293.222 109.39 293.131C109.47 293.035 109.534 292.88 109.582 292.667C109.689 292.219 109.758 291.435 109.79 290.315C109.801 290.224 109.849 290.179 109.934 290.179H112.822C112.918 290.179 112.966 290.224 112.966 290.315V294.195C112.966 294.291 112.918 294.339 112.822 294.339H111.894C111.798 294.339 111.75 294.291 111.75 294.195V291.243H110.91C110.883 292.043 110.803 292.68 110.67 293.155ZM113.952 290.371C114.491 290.168 115.056 290.067 115.648 290.067C116.219 290.067 116.677 290.23 117.024 290.555C117.371 290.875 117.544 291.318 117.544 291.883V292.675C117.544 293.214 117.384 293.643 117.064 293.963C116.744 294.283 116.325 294.443 115.808 294.443C115.547 294.443 115.301 294.398 115.072 294.307V295.715C115.072 295.811 115.027 295.859 114.936 295.859H113.992C113.896 295.859 113.848 295.811 113.848 295.715V290.523C113.848 290.443 113.883 290.392 113.952 290.371ZM115.632 293.379C116.08 293.379 116.304 293.152 116.304 292.699V291.859C116.304 291.39 116.077 291.155 115.624 291.155C115.416 291.155 115.232 291.184 115.072 291.243V293.243C115.227 293.334 115.413 293.379 115.632 293.379ZM118.959 295.403H118.071C117.975 295.403 117.927 295.358 117.927 295.267V293.419C117.927 293.328 117.975 293.283 118.071 293.283H118.271C118.447 293.155 118.583 292.88 118.679 292.459C118.78 292.032 118.863 291.32 118.927 290.323C118.938 290.227 118.986 290.179 119.071 290.179H121.919C122.01 290.179 122.055 290.224 122.055 290.315V293.283H122.423C122.519 293.283 122.567 293.331 122.567 293.427V295.267C122.567 295.358 122.519 295.403 122.423 295.403H121.535C121.444 295.403 121.399 295.358 121.399 295.267V294.339H119.103V295.267C119.103 295.358 119.055 295.403 118.959 295.403ZM120.039 291.227C119.98 292.24 119.82 292.926 119.559 293.283H120.855V291.227H120.039ZM129.44 290.595C129.44 291.187 129.261 291.659 128.904 292.011C128.552 292.358 128.074 292.531 127.472 292.531H126.504V292.987H127.528C127.624 292.987 127.672 293.032 127.672 293.123V293.619C127.672 293.715 127.624 293.763 127.528 293.763H126.504V294.195C126.504 294.291 126.458 294.339 126.368 294.339H125.416C125.32 294.339 125.272 294.291 125.272 294.195V293.763H124.8C124.704 293.763 124.656 293.715 124.656 293.619V293.123C124.656 293.032 124.704 292.987 124.8 292.987H125.272V288.763C125.272 288.667 125.32 288.619 125.416 288.619H127.472C128.074 288.619 128.552 288.798 128.904 289.155C129.261 289.512 129.44 289.992 129.44 290.595ZM128.2 290.571C128.2 290.016 127.896 289.739 127.288 289.739H126.504V291.419H127.288C127.896 291.419 128.2 291.136 128.2 290.571Z" fill="white"/>
<path opacity="0.8" d="M171.762 337.42H168.21C168.151 337.42 168.122 337.39 168.122 337.332V337.004C168.122 336.956 168.138 336.918 168.17 336.892L169.73 335.252C170.188 334.772 170.524 334.38 170.738 334.076C170.951 333.766 171.058 333.462 171.058 333.164C171.058 332.908 170.972 332.689 170.802 332.508C170.636 332.326 170.383 332.236 170.042 332.236C169.53 332.236 169.06 332.47 168.634 332.94C168.596 332.988 168.554 332.988 168.506 332.94L168.25 332.588C168.218 332.545 168.218 332.502 168.25 332.46C168.751 331.894 169.346 331.612 170.034 331.612C170.54 331.612 170.948 331.75 171.258 332.028C171.572 332.305 171.73 332.681 171.73 333.156C171.73 333.529 171.62 333.892 171.402 334.244C171.183 334.59 170.823 335.036 170.322 335.58C169.927 336.017 169.535 336.425 169.146 336.804H171.762C171.82 336.804 171.85 336.836 171.85 336.9V337.332C171.85 337.39 171.82 337.42 171.762 337.42ZM176.583 335.62C176.583 336.238 176.399 336.708 176.031 337.028C175.663 337.348 175.213 337.508 174.679 337.508C174.141 337.508 173.685 337.348 173.311 337.028C172.943 336.708 172.759 336.238 172.759 335.62V333.484C172.759 332.87 172.943 332.406 173.311 332.092C173.685 331.772 174.141 331.612 174.679 331.612C175.213 331.612 175.663 331.772 176.031 332.092C176.399 332.406 176.583 332.87 176.583 333.484V335.62ZM173.423 335.644C173.423 336.06 173.543 336.369 173.783 336.572C174.023 336.769 174.322 336.868 174.679 336.868C175.031 336.868 175.325 336.769 175.559 336.572C175.799 336.369 175.919 336.06 175.919 335.644V333.508C175.919 333.076 175.802 332.758 175.567 332.556C175.333 332.353 175.037 332.252 174.679 332.252C174.317 332.252 174.015 332.353 173.775 332.556C173.541 332.758 173.423 333.076 173.423 333.508V335.644ZM181.074 337.42H177.522C177.464 337.42 177.434 337.39 177.434 337.332V337.004C177.434 336.956 177.45 336.918 177.482 336.892L179.042 335.252C179.501 334.772 179.837 334.38 180.05 334.076C180.264 333.766 180.37 333.462 180.37 333.164C180.37 332.908 180.285 332.689 180.114 332.508C179.949 332.326 179.696 332.236 179.354 332.236C178.842 332.236 178.373 332.47 177.946 332.94C177.909 332.988 177.866 332.988 177.818 332.94L177.562 332.588C177.53 332.545 177.53 332.502 177.562 332.46C178.064 331.894 178.658 331.612 179.346 331.612C179.853 331.612 180.261 331.75 180.57 332.028C180.885 332.305 181.042 332.681 181.042 333.156C181.042 333.529 180.933 333.892 180.714 334.244C180.496 334.59 180.136 335.036 179.634 335.58C179.24 336.017 178.848 336.425 178.458 336.804H181.074C181.133 336.804 181.162 336.836 181.162 336.9V337.332C181.162 337.39 181.133 337.42 181.074 337.42ZM183.608 337.42H183.136C183.072 337.42 183.04 337.39 183.04 337.332V332.492L182.056 333.148C182.003 333.18 181.96 333.172 181.928 333.124L181.704 332.756C181.667 332.713 181.675 332.67 181.728 332.628L183.08 331.732C183.117 331.71 183.157 331.7 183.2 331.7H183.608C183.672 331.7 183.704 331.729 183.704 331.788V337.332C183.704 337.39 183.672 337.42 183.608 337.42ZM187.32 337.42H186.848C186.789 337.42 186.76 337.39 186.76 337.332V333.38C186.76 333.316 186.789 333.284 186.848 333.284H189.24C189.299 333.284 189.328 333.316 189.328 333.38V333.78C189.328 333.844 189.299 333.876 189.24 333.876H187.416V337.332C187.416 337.39 187.384 337.42 187.32 337.42ZM190.16 337.02C190.16 337.148 190.117 337.254 190.032 337.34C189.952 337.42 189.848 337.46 189.72 337.46C189.587 337.46 189.48 337.42 189.4 337.34C189.32 337.254 189.28 337.148 189.28 337.02C189.28 336.886 189.32 336.78 189.4 336.7C189.48 336.614 189.587 336.572 189.72 336.572C189.848 336.572 189.952 336.614 190.032 336.7C190.117 336.78 190.16 336.886 190.16 337.02Z" fill="white"/>
<path d="M148.539 251.377C148.539 249.983 149.67 248.852 151.065 248.852H205.6C206.995 248.852 208.126 249.983 208.126 251.377V323.825H148.539V251.377Z" fill="url(#paint2_linear_180_3040)"/>
<path d="M160.683 260.607C160.683 261.225 160.494 261.703 160.115 262.039C159.736 262.375 159.216 262.543 158.555 262.543C157.782 262.543 157.128 262.313 156.595 261.855C156.536 261.796 156.536 261.729 156.595 261.655L157.067 260.991C157.12 260.921 157.187 260.921 157.267 260.991C157.475 261.124 157.672 261.225 157.859 261.295C158.046 261.359 158.278 261.391 158.555 261.391C158.827 261.391 159.038 261.321 159.187 261.183C159.342 261.039 159.419 260.828 159.419 260.551C159.419 260.039 159.11 259.783 158.491 259.783C158.331 259.783 158.155 259.807 157.963 259.855C157.888 259.876 157.83 259.847 157.787 259.767L157.595 259.327C157.563 259.257 157.576 259.193 157.635 259.135L158.907 257.855H156.995C156.904 257.855 156.859 257.809 156.859 257.719V256.871C156.859 256.775 156.904 256.727 156.995 256.727H160.331C160.422 256.727 160.467 256.775 160.467 256.871V257.535C160.467 257.604 160.443 257.663 160.395 257.711L159.099 259.007V259.023C159.536 259.007 159.91 259.148 160.219 259.447C160.528 259.745 160.683 260.132 160.683 260.607ZM165.54 260.463C165.54 261.14 165.348 261.657 164.964 262.015C164.586 262.372 164.09 262.551 163.476 262.551C162.863 262.551 162.364 262.372 161.98 262.015C161.596 261.657 161.404 261.14 161.404 260.463V258.671C161.404 258.009 161.596 257.503 161.98 257.151C162.364 256.799 162.863 256.623 163.476 256.623C164.09 256.623 164.586 256.799 164.964 257.151C165.348 257.503 165.54 258.009 165.54 258.671V260.463ZM162.644 260.519C162.644 260.812 162.722 261.028 162.876 261.167C163.031 261.3 163.231 261.367 163.476 261.367C163.722 261.367 163.922 261.3 164.076 261.167C164.231 261.028 164.308 260.812 164.308 260.519V258.647C164.308 258.353 164.231 258.14 164.076 258.007C163.922 257.868 163.722 257.799 163.476 257.799C163.231 257.799 163.031 257.868 162.876 258.007C162.722 258.14 162.644 258.353 162.644 258.647V260.519ZM167.629 261.439L166.989 263.431C166.962 263.505 166.909 263.543 166.829 263.543H166.133C166.026 263.543 165.986 263.492 166.013 263.391L166.485 261.407C166.512 261.321 166.562 261.279 166.637 261.279H167.509C167.616 261.279 167.656 261.332 167.629 261.439ZM169.728 262.447H168.656C168.603 262.447 168.566 262.431 168.544 262.399C168.528 262.367 168.531 262.327 168.552 262.279L170.496 257.887H168.152C168.056 257.887 168.008 257.841 168.008 257.751V256.871C168.008 256.775 168.056 256.727 168.152 256.727H171.816C171.912 256.727 171.96 256.775 171.96 256.871V257.543C171.96 257.591 171.947 257.649 171.92 257.719L169.896 262.335C169.864 262.409 169.808 262.447 169.728 262.447ZM175.274 262.447H174.362C174.266 262.447 174.218 262.399 174.218 262.303V258.423C174.218 258.332 174.266 258.287 174.362 258.287H175.394C175.479 258.287 175.532 258.321 175.554 258.391L176.01 259.319C176.239 259.788 176.412 260.167 176.53 260.455H176.562C176.679 260.167 176.852 259.788 177.082 259.319L177.53 258.391C177.562 258.321 177.618 258.287 177.698 258.287H178.73C178.826 258.287 178.874 258.332 178.874 258.423V262.303C178.874 262.399 178.826 262.447 178.73 262.447H177.818C177.727 262.447 177.682 262.399 177.682 262.303V261.375C177.682 260.953 177.695 260.524 177.722 260.087H177.706C177.572 260.401 177.442 260.703 177.314 260.991L176.986 261.687C176.954 261.756 176.898 261.791 176.818 261.791H176.274C176.194 261.791 176.138 261.756 176.106 261.687L175.778 260.991C175.65 260.703 175.519 260.401 175.386 260.087H175.37C175.396 260.524 175.41 260.953 175.41 261.375V262.303C175.41 262.399 175.364 262.447 175.274 262.447ZM181.156 261.263C181.05 261.689 180.876 261.996 180.636 262.183C180.396 262.364 180.044 262.465 179.58 262.487C179.484 262.487 179.436 262.439 179.436 262.343V261.559C179.436 261.473 179.482 261.423 179.572 261.407C179.695 261.385 179.796 261.329 179.876 261.239C179.956 261.143 180.02 260.988 180.068 260.775C180.175 260.327 180.244 259.543 180.276 258.423C180.287 258.332 180.335 258.287 180.42 258.287H183.308C183.404 258.287 183.452 258.332 183.452 258.423V262.303C183.452 262.399 183.404 262.447 183.308 262.447H182.38C182.284 262.447 182.236 262.399 182.236 262.303V259.351H181.396C181.37 260.151 181.29 260.788 181.156 261.263ZM184.438 258.479C184.977 258.276 185.542 258.175 186.134 258.175C186.705 258.175 187.164 258.337 187.51 258.663C187.857 258.983 188.03 259.425 188.03 259.991V260.783C188.03 261.321 187.87 261.751 187.55 262.071C187.23 262.391 186.812 262.551 186.294 262.551C186.033 262.551 185.788 262.505 185.558 262.415V263.823C185.558 263.919 185.513 263.967 185.422 263.967H184.478C184.382 263.967 184.334 263.919 184.334 263.823V258.631C184.334 258.551 184.369 258.5 184.438 258.479ZM186.118 261.487C186.566 261.487 186.79 261.26 186.79 260.807V259.967C186.79 259.497 186.564 259.263 186.11 259.263C185.902 259.263 185.718 259.292 185.558 259.351V261.351C185.713 261.441 185.9 261.487 186.118 261.487ZM189.445 263.511H188.557C188.461 263.511 188.413 263.465 188.413 263.375V261.527C188.413 261.436 188.461 261.391 188.557 261.391H188.757C188.933 261.263 189.069 260.988 189.165 260.567C189.267 260.14 189.349 259.428 189.413 258.431C189.424 258.335 189.472 258.287 189.557 258.287H192.405C192.496 258.287 192.541 258.332 192.541 258.423V261.391H192.909C193.005 261.391 193.053 261.439 193.053 261.535V263.375C193.053 263.465 193.005 263.511 192.909 263.511H192.021C191.931 263.511 191.885 263.465 191.885 263.375V262.447H189.589V263.375C189.589 263.465 189.541 263.511 189.445 263.511ZM190.525 259.335C190.467 260.348 190.307 261.033 190.045 261.391H191.341V259.335H190.525ZM199.926 258.703C199.926 259.295 199.747 259.767 199.39 260.119C199.038 260.465 198.561 260.639 197.958 260.639H196.99V261.095H198.014C198.11 261.095 198.158 261.14 198.158 261.231V261.727C198.158 261.823 198.11 261.871 198.014 261.871H196.99V262.303C196.99 262.399 196.945 262.447 196.854 262.447H195.902C195.806 262.447 195.758 262.399 195.758 262.303V261.871H195.286C195.19 261.871 195.142 261.823 195.142 261.727V261.231C195.142 261.14 195.19 261.095 195.286 261.095H195.758V256.871C195.758 256.775 195.806 256.727 195.902 256.727H197.958C198.561 256.727 199.038 256.905 199.39 257.263C199.747 257.62 199.926 258.1 199.926 258.703ZM198.686 258.679C198.686 258.124 198.382 257.847 197.774 257.847H196.99V259.527H197.774C198.382 259.527 198.686 259.244 198.686 258.679Z" fill="white"/>
<path opacity="0.8" d="M240.078 337.42H236.526C236.467 337.42 236.438 337.391 236.438 337.332V337.004C236.438 336.956 236.454 336.919 236.486 336.892L238.046 335.252C238.505 334.772 238.841 334.38 239.054 334.076C239.267 333.767 239.374 333.463 239.374 333.164C239.374 332.908 239.289 332.69 239.118 332.508C238.953 332.327 238.699 332.236 238.358 332.236C237.846 332.236 237.377 332.471 236.95 332.94C236.913 332.988 236.87 332.988 236.822 332.94L236.566 332.588C236.534 332.546 236.534 332.503 236.566 332.46C237.067 331.895 237.662 331.612 238.35 331.612C238.857 331.612 239.265 331.751 239.574 332.028C239.889 332.306 240.046 332.682 240.046 333.156C240.046 333.53 239.937 333.892 239.718 334.244C239.499 334.591 239.139 335.036 238.638 335.58C238.243 336.018 237.851 336.426 237.462 336.804H240.078C240.137 336.804 240.166 336.836 240.166 336.9V337.332C240.166 337.391 240.137 337.42 240.078 337.42ZM244.9 335.62C244.9 336.239 244.716 336.708 244.348 337.028C243.98 337.348 243.529 337.508 242.996 337.508C242.457 337.508 242.001 337.348 241.628 337.028C241.26 336.708 241.076 336.239 241.076 335.62V333.484C241.076 332.871 241.26 332.407 241.628 332.092C242.001 331.772 242.457 331.612 242.996 331.612C243.529 331.612 243.98 331.772 244.348 332.092C244.716 332.407 244.9 332.871 244.9 333.484V335.62ZM241.74 335.644C241.74 336.06 241.86 336.37 242.1 336.572C242.34 336.77 242.639 336.868 242.996 336.868C243.348 336.868 243.641 336.77 243.876 336.572C244.116 336.37 244.236 336.06 244.236 335.644V333.508C244.236 333.076 244.119 332.759 243.884 332.556C243.649 332.354 243.353 332.252 242.996 332.252C242.633 332.252 242.332 332.354 242.092 332.556C241.857 332.759 241.74 333.076 241.74 333.508V335.644ZM249.391 337.42H245.839C245.78 337.42 245.751 337.391 245.751 337.332V337.004C245.751 336.956 245.767 336.919 245.799 336.892L247.359 335.252C247.817 334.772 248.153 334.38 248.367 334.076C248.58 333.767 248.687 333.463 248.687 333.164C248.687 332.908 248.601 332.69 248.431 332.508C248.265 332.327 248.012 332.236 247.671 332.236C247.159 332.236 246.689 332.471 246.263 332.94C246.225 332.988 246.183 332.988 246.135 332.94L245.879 332.588C245.847 332.546 245.847 332.503 245.879 332.46C246.38 331.895 246.975 331.612 247.663 331.612C248.169 331.612 248.577 331.751 248.887 332.028C249.201 332.306 249.359 332.682 249.359 333.156C249.359 333.53 249.249 333.892 249.031 334.244C248.812 334.591 248.452 335.036 247.951 335.58C247.556 336.018 247.164 336.426 246.775 336.804H249.391C249.449 336.804 249.479 336.836 249.479 336.9V337.332C249.479 337.391 249.449 337.42 249.391 337.42ZM253.82 337.42H250.268C250.21 337.42 250.18 337.391 250.18 337.332V337.004C250.18 336.956 250.196 336.919 250.228 336.892L251.788 335.252C252.247 334.772 252.583 334.38 252.796 334.076C253.01 333.767 253.116 333.463 253.116 333.164C253.116 332.908 253.031 332.69 252.86 332.508C252.695 332.327 252.442 332.236 252.1 332.236C251.588 332.236 251.119 332.471 250.692 332.94C250.655 332.988 250.612 332.988 250.564 332.94L250.308 332.588C250.276 332.546 250.276 332.503 250.308 332.46C250.81 331.895 251.404 331.612 252.092 331.612C252.599 331.612 253.007 331.751 253.316 332.028C253.631 332.306 253.788 332.682 253.788 333.156C253.788 333.53 253.679 333.892 253.46 334.244C253.242 334.591 252.882 335.036 252.38 335.58C251.986 336.018 251.594 336.426 251.204 336.804H253.82C253.879 336.804 253.908 336.836 253.908 336.9V337.332C253.908 337.391 253.879 337.42 253.82 337.42ZM257.199 337.42H256.727C256.668 337.42 256.639 337.391 256.639 337.332V333.38C256.639 333.316 256.668 333.284 256.727 333.284H259.119C259.178 333.284 259.207 333.316 259.207 333.38V333.78C259.207 333.844 259.178 333.876 259.119 333.876H257.295V337.332C257.295 337.391 257.263 337.42 257.199 337.42ZM260.039 337.02C260.039 337.148 259.996 337.255 259.911 337.34C259.831 337.42 259.727 337.46 259.599 337.46C259.466 337.46 259.359 337.42 259.279 337.34C259.199 337.255 259.159 337.148 259.159 337.02C259.159 336.887 259.199 336.78 259.279 336.7C259.359 336.615 259.466 336.572 259.599 336.572C259.727 336.572 259.831 336.615 259.911 336.7C259.996 336.78 260.039 336.887 260.039 337.02Z" fill="white"/>
<path d="M218.195 244.384C218.195 242.989 219.326 241.858 220.721 241.858H275.536C276.931 241.858 278.062 242.989 278.062 244.384V323.825H218.195V244.384Z" fill="url(#paint3_linear_180_3040)"/>
<path d="M231.209 253.614C231.209 254.233 231.02 254.71 230.641 255.046C230.263 255.382 229.743 255.55 229.081 255.55C228.308 255.55 227.655 255.321 227.121 254.862C227.063 254.803 227.063 254.737 227.121 254.662L227.593 253.998C227.647 253.929 227.713 253.929 227.793 253.998C228.001 254.131 228.199 254.233 228.385 254.302C228.572 254.366 228.804 254.398 229.081 254.398C229.353 254.398 229.564 254.329 229.713 254.19C229.868 254.046 229.945 253.835 229.945 253.558C229.945 253.046 229.636 252.79 229.017 252.79C228.857 252.79 228.681 252.814 228.489 252.862C228.415 252.883 228.356 252.854 228.313 252.774L228.121 252.334C228.089 252.265 228.103 252.201 228.161 252.142L229.433 250.862H227.521C227.431 250.862 227.385 250.817 227.385 250.726V249.878C227.385 249.782 227.431 249.734 227.521 249.734H230.857C230.948 249.734 230.993 249.782 230.993 249.878V250.542C230.993 250.611 230.969 250.67 230.921 250.718L229.625 252.014V252.03C230.063 252.014 230.436 252.155 230.745 252.454C231.055 252.753 231.209 253.139 231.209 253.614ZM235.819 253.614C235.819 254.233 235.63 254.71 235.251 255.046C234.872 255.382 234.352 255.55 233.691 255.55C232.918 255.55 232.264 255.321 231.731 254.862C231.672 254.803 231.672 254.737 231.731 254.662L232.203 253.998C232.256 253.929 232.323 253.929 232.403 253.998C232.611 254.131 232.808 254.233 232.995 254.302C233.182 254.366 233.414 254.398 233.691 254.398C233.963 254.398 234.174 254.329 234.323 254.19C234.478 254.046 234.555 253.835 234.555 253.558C234.555 253.046 234.246 252.79 233.627 252.79C233.467 252.79 233.291 252.814 233.099 252.862C233.024 252.883 232.966 252.854 232.923 252.774L232.731 252.334C232.699 252.265 232.712 252.201 232.771 252.142L234.043 250.862H232.131C232.04 250.862 231.995 250.817 231.995 250.726V249.878C231.995 249.782 232.04 249.734 232.131 249.734H235.467C235.558 249.734 235.603 249.782 235.603 249.878V250.542C235.603 250.611 235.579 250.67 235.531 250.718L234.235 252.014V252.03C234.672 252.014 235.046 252.155 235.355 252.454C235.664 252.753 235.819 253.139 235.819 253.614ZM237.78 254.446L237.14 256.438C237.114 256.513 237.06 256.55 236.98 256.55H236.284C236.178 256.55 236.138 256.499 236.164 256.398L236.636 254.414C236.663 254.329 236.714 254.286 236.788 254.286H237.66C237.767 254.286 237.807 254.339 237.78 254.446ZM239.88 255.454H238.808C238.754 255.454 238.717 255.438 238.696 255.406C238.68 255.374 238.682 255.334 238.704 255.286L240.648 250.894H238.304C238.208 250.894 238.16 250.849 238.16 250.758V249.878C238.16 249.782 238.208 249.734 238.304 249.734H241.968C242.064 249.734 242.112 249.782 242.112 249.878V250.55C242.112 250.598 242.098 250.657 242.072 250.726L240.048 255.342C240.016 255.417 239.96 255.454 239.88 255.454ZM245.425 255.454H244.513C244.417 255.454 244.369 255.406 244.369 255.31V251.43C244.369 251.339 244.417 251.294 244.513 251.294H245.545C245.63 251.294 245.684 251.329 245.705 251.398L246.161 252.326C246.39 252.795 246.564 253.174 246.681 253.462H246.713C246.83 253.174 247.004 252.795 247.233 252.326L247.681 251.398C247.713 251.329 247.769 251.294 247.849 251.294H248.881C248.977 251.294 249.025 251.339 249.025 251.43V255.31C249.025 255.406 248.977 255.454 248.881 255.454H247.969C247.878 255.454 247.833 255.406 247.833 255.31V254.382C247.833 253.961 247.846 253.531 247.873 253.094H247.857C247.724 253.409 247.593 253.71 247.465 253.998L247.137 254.694C247.105 254.763 247.049 254.798 246.969 254.798H246.425C246.345 254.798 246.289 254.763 246.257 254.694L245.929 253.998C245.801 253.71 245.67 253.409 245.537 253.094H245.521C245.548 253.531 245.561 253.961 245.561 254.382V255.31C245.561 255.406 245.516 255.454 245.425 255.454ZM251.308 254.27C251.201 254.697 251.028 255.003 250.788 255.19C250.548 255.371 250.196 255.473 249.732 255.494C249.636 255.494 249.588 255.446 249.588 255.35V254.566C249.588 254.481 249.633 254.43 249.724 254.414C249.846 254.393 249.948 254.337 250.028 254.246C250.108 254.15 250.172 253.995 250.22 253.782C250.326 253.334 250.396 252.55 250.428 251.43C250.438 251.339 250.486 251.294 250.572 251.294H253.46C253.556 251.294 253.604 251.339 253.604 251.43V255.31C253.604 255.406 253.556 255.454 253.46 255.454H252.532C252.436 255.454 252.388 255.406 252.388 255.31V252.358H251.548C251.521 253.158 251.441 253.795 251.308 254.27ZM254.59 251.486C255.128 251.283 255.694 251.182 256.286 251.182C256.856 251.182 257.315 251.345 257.662 251.67C258.008 251.99 258.182 252.433 258.182 252.998V253.79C258.182 254.329 258.022 254.758 257.702 255.078C257.382 255.398 256.963 255.558 256.446 255.558C256.184 255.558 255.939 255.513 255.71 255.422V256.83C255.71 256.926 255.664 256.974 255.574 256.974H254.63C254.534 256.974 254.486 256.926 254.486 256.83V251.638C254.486 251.558 254.52 251.507 254.59 251.486ZM256.27 254.494C256.718 254.494 256.942 254.267 256.942 253.814V252.974C256.942 252.505 256.715 252.27 256.262 252.27C256.054 252.27 255.87 252.299 255.71 252.358V254.358C255.864 254.449 256.051 254.494 256.27 254.494ZM259.597 256.518H258.709C258.613 256.518 258.565 256.473 258.565 256.382V254.534C258.565 254.443 258.613 254.398 258.709 254.398H258.909C259.085 254.27 259.221 253.995 259.317 253.574C259.418 253.147 259.501 252.435 259.565 251.438C259.575 251.342 259.623 251.294 259.709 251.294H262.557C262.647 251.294 262.693 251.339 262.693 251.43V254.398H263.061C263.157 254.398 263.205 254.446 263.205 254.542V256.382C263.205 256.473 263.157 256.518 263.061 256.518H262.173C262.082 256.518 262.037 256.473 262.037 256.382V255.454H259.741V256.382C259.741 256.473 259.693 256.518 259.597 256.518ZM260.677 252.342C260.618 253.355 260.458 254.041 260.197 254.398H261.493V252.342H260.677ZM270.077 251.71C270.077 252.302 269.899 252.774 269.541 253.126C269.189 253.473 268.712 253.646 268.109 253.646H267.141V254.102H268.165C268.261 254.102 268.309 254.147 268.309 254.238V254.734C268.309 254.83 268.261 254.878 268.165 254.878H267.141V255.31C267.141 255.406 267.096 255.454 267.005 255.454H266.053C265.957 255.454 265.909 255.406 265.909 255.31V254.878H265.437C265.341 254.878 265.293 254.83 265.293 254.734V254.238C265.293 254.147 265.341 254.102 265.437 254.102H265.909V249.878C265.909 249.782 265.957 249.734 266.053 249.734H268.109C268.712 249.734 269.189 249.913 269.541 250.27C269.899 250.627 270.077 251.107 270.077 251.71ZM268.837 251.686C268.837 251.131 268.533 250.854 267.925 250.854H267.141V252.534H267.925C268.533 252.534 268.837 252.251 268.837 251.686Z" fill="white"/>
<path opacity="0.8" d="M311.371 337.42H307.819C307.76 337.42 307.731 337.39 307.731 337.332V337.004C307.731 336.956 307.747 336.918 307.779 336.892L309.339 335.252C309.798 334.772 310.134 334.38 310.347 334.076C310.56 333.766 310.667 333.462 310.667 333.164C310.667 332.908 310.582 332.689 310.411 332.508C310.246 332.326 309.992 332.236 309.651 332.236C309.139 332.236 308.67 332.47 308.243 332.94C308.206 332.988 308.163 332.988 308.115 332.94L307.859 332.588C307.827 332.545 307.827 332.502 307.859 332.46C308.36 331.894 308.955 331.612 309.643 331.612C310.15 331.612 310.558 331.75 310.867 332.028C311.182 332.305 311.339 332.681 311.339 333.156C311.339 333.529 311.23 333.892 311.011 334.244C310.792 334.59 310.432 335.036 309.931 335.58C309.536 336.017 309.144 336.425 308.755 336.804H311.371C311.43 336.804 311.459 336.836 311.459 336.9V337.332C311.459 337.39 311.43 337.42 311.371 337.42ZM316.193 335.62C316.193 336.238 316.009 336.708 315.641 337.028C315.273 337.348 314.822 337.508 314.289 337.508C313.75 337.508 313.294 337.348 312.921 337.028C312.553 336.708 312.369 336.238 312.369 335.62V333.484C312.369 332.87 312.553 332.406 312.921 332.092C313.294 331.772 313.75 331.612 314.289 331.612C314.822 331.612 315.273 331.772 315.641 332.092C316.009 332.406 316.193 332.87 316.193 333.484V335.62ZM313.033 335.644C313.033 336.06 313.153 336.369 313.393 336.572C313.633 336.769 313.931 336.868 314.289 336.868C314.641 336.868 314.934 336.769 315.169 336.572C315.409 336.369 315.529 336.06 315.529 335.644V333.508C315.529 333.076 315.411 332.758 315.177 332.556C314.942 332.353 314.646 332.252 314.289 332.252C313.926 332.252 313.625 332.353 313.385 332.556C313.15 332.758 313.033 333.076 313.033 333.508V335.644ZM320.684 337.42H317.132C317.073 337.42 317.044 337.39 317.044 337.332V337.004C317.044 336.956 317.06 336.918 317.092 336.892L318.652 335.252C319.11 334.772 319.446 334.38 319.66 334.076C319.873 333.766 319.98 333.462 319.98 333.164C319.98 332.908 319.894 332.689 319.724 332.508C319.558 332.326 319.305 332.236 318.964 332.236C318.452 332.236 317.982 332.47 317.556 332.94C317.518 332.988 317.476 332.988 317.428 332.94L317.172 332.588C317.14 332.545 317.14 332.502 317.172 332.46C317.673 331.894 318.268 331.612 318.956 331.612C319.462 331.612 319.87 331.75 320.18 332.028C320.494 332.305 320.652 332.681 320.652 333.156C320.652 333.529 320.542 333.892 320.324 334.244C320.105 334.59 319.745 335.036 319.244 335.58C318.849 336.017 318.457 336.425 318.068 336.804H320.684C320.742 336.804 320.772 336.836 320.772 336.9V337.332C320.772 337.39 320.742 337.42 320.684 337.42ZM325.273 335.644C325.273 336.209 325.092 336.66 324.729 336.996C324.372 337.332 323.911 337.5 323.345 337.5C322.935 337.5 322.58 337.433 322.281 337.3C321.988 337.161 321.711 336.964 321.449 336.708C321.407 336.665 321.407 336.622 321.449 336.58L321.721 336.284C321.769 336.241 321.815 336.241 321.857 336.284C322.097 336.486 322.324 336.636 322.537 336.732C322.751 336.828 323.02 336.876 323.345 336.876C323.724 336.876 324.028 336.766 324.257 336.548C324.487 336.329 324.601 336.025 324.601 335.636C324.601 335.257 324.484 334.966 324.249 334.764C324.02 334.561 323.692 334.46 323.265 334.46C323.116 334.46 322.953 334.476 322.777 334.508C322.724 334.518 322.689 334.497 322.673 334.444L322.569 334.228C322.543 334.185 322.548 334.142 322.585 334.1L323.609 332.988C323.908 332.657 324.127 332.433 324.265 332.316H321.793C321.735 332.316 321.705 332.284 321.705 332.22V331.788C321.705 331.729 321.735 331.7 321.793 331.7H325.049C325.108 331.7 325.137 331.729 325.137 331.788V332.1C325.137 332.137 325.124 332.174 325.097 332.212L323.449 333.988L323.505 333.996C324.007 333.985 324.425 334.129 324.761 334.428C325.103 334.726 325.273 335.132 325.273 335.644ZM328.578 337.42H328.106C328.047 337.42 328.018 337.39 328.018 337.332V333.38C328.018 333.316 328.047 333.284 328.106 333.284H330.498C330.556 333.284 330.586 333.316 330.586 333.38V333.78C330.586 333.844 330.556 333.876 330.498 333.876H328.674V337.332C328.674 337.39 328.642 337.42 328.578 337.42ZM331.418 337.02C331.418 337.148 331.375 337.254 331.29 337.34C331.21 337.42 331.106 337.46 330.978 337.46C330.845 337.46 330.738 337.42 330.658 337.34C330.578 337.254 330.538 337.148 330.538 337.02C330.538 336.886 330.578 336.78 330.658 336.7C330.738 336.614 330.845 336.572 330.978 336.572C331.106 336.572 331.21 336.614 331.29 336.7C331.375 336.78 331.418 336.886 331.418 337.02Z" fill="white"/>
<path d="M288.133 212.772C288.133 211.377 289.264 210.246 290.658 210.246H345.474C346.869 210.246 347.999 211.377 347.999 212.772V323.825H288.133V212.772Z" fill="url(#paint4_linear_180_3040)"/>
<path d="M299.622 223.841H298.67C298.574 223.841 298.526 223.793 298.526 223.697V222.825H296.086C295.99 222.825 295.942 222.78 295.942 222.689V221.993C295.942 221.945 295.955 221.886 295.982 221.817L297.846 218.225C297.878 218.156 297.931 218.121 298.006 218.121H299.078C299.2 218.121 299.235 218.177 299.182 218.289L297.422 221.729H298.526L298.63 220.705C298.646 220.62 298.696 220.577 298.782 220.577H299.622C299.718 220.577 299.766 220.622 299.766 220.713V221.729H300.23C300.32 221.729 300.366 221.774 300.366 221.865V222.689C300.366 222.78 300.32 222.825 300.23 222.825H299.766V223.697C299.766 223.793 299.718 223.841 299.622 223.841ZM305.227 222.121C305.227 222.692 305.032 223.14 304.643 223.465C304.259 223.785 303.733 223.945 303.067 223.945C302.4 223.945 301.872 223.785 301.483 223.465C301.099 223.14 300.907 222.692 300.907 222.121C300.907 221.828 300.973 221.564 301.107 221.329C301.24 221.094 301.429 220.916 301.675 220.793C301.269 220.489 301.067 220.097 301.067 219.617C301.067 219.153 301.251 218.772 301.619 218.473C301.987 218.169 302.469 218.017 303.067 218.017C303.664 218.017 304.147 218.169 304.515 218.473C304.883 218.772 305.067 219.153 305.067 219.617C305.067 220.102 304.867 220.494 304.467 220.793C304.712 220.921 304.899 221.102 305.027 221.337C305.16 221.566 305.227 221.828 305.227 222.121ZM302.171 222.105C302.171 222.324 302.251 222.5 302.411 222.633C302.571 222.766 302.789 222.833 303.067 222.833C303.344 222.833 303.563 222.769 303.723 222.641C303.883 222.508 303.963 222.329 303.963 222.105C303.963 221.892 303.883 221.724 303.723 221.601C303.568 221.478 303.349 221.417 303.067 221.417C302.789 221.417 302.571 221.478 302.411 221.601C302.251 221.724 302.171 221.892 302.171 222.105ZM302.267 219.713C302.267 219.921 302.336 220.084 302.475 220.201C302.619 220.318 302.816 220.377 303.067 220.377C303.317 220.377 303.515 220.318 303.659 220.201C303.803 220.084 303.875 219.921 303.875 219.713C303.875 219.521 303.803 219.372 303.659 219.265C303.515 219.153 303.317 219.097 303.067 219.097C302.816 219.097 302.619 219.153 302.475 219.265C302.336 219.372 302.267 219.521 302.267 219.713ZM307.242 222.833L306.602 224.825C306.575 224.9 306.522 224.937 306.442 224.937H305.746C305.639 224.937 305.599 224.886 305.626 224.785L306.098 222.801C306.125 222.716 306.175 222.673 306.25 222.673H307.122C307.229 222.673 307.269 222.726 307.242 222.833ZM312.258 222.121C312.258 222.692 312.063 223.14 311.674 223.465C311.29 223.785 310.765 223.945 310.098 223.945C309.431 223.945 308.903 223.785 308.514 223.465C308.13 223.14 307.938 222.692 307.938 222.121C307.938 221.828 308.005 221.564 308.138 221.329C308.271 221.094 308.461 220.916 308.706 220.793C308.301 220.489 308.098 220.097 308.098 219.617C308.098 219.153 308.282 218.772 308.65 218.473C309.018 218.169 309.501 218.017 310.098 218.017C310.695 218.017 311.178 218.169 311.546 218.473C311.914 218.772 312.098 219.153 312.098 219.617C312.098 220.102 311.898 220.494 311.498 220.793C311.743 220.921 311.93 221.102 312.058 221.337C312.191 221.566 312.258 221.828 312.258 222.121ZM309.202 222.105C309.202 222.324 309.282 222.5 309.442 222.633C309.602 222.766 309.821 222.833 310.098 222.833C310.375 222.833 310.594 222.769 310.754 222.641C310.914 222.508 310.994 222.329 310.994 222.105C310.994 221.892 310.914 221.724 310.754 221.601C310.599 221.478 310.381 221.417 310.098 221.417C309.821 221.417 309.602 221.478 309.442 221.601C309.282 221.724 309.202 221.892 309.202 222.105ZM309.298 219.713C309.298 219.921 309.367 220.084 309.506 220.201C309.65 220.318 309.847 220.377 310.098 220.377C310.349 220.377 310.546 220.318 310.69 220.201C310.834 220.084 310.906 219.921 310.906 219.713C310.906 219.521 310.834 219.372 310.69 219.265C310.546 219.153 310.349 219.097 310.098 219.097C309.847 219.097 309.65 219.153 309.506 219.265C309.367 219.372 309.298 219.521 309.298 219.713ZM315.762 223.841H314.85C314.754 223.841 314.706 223.793 314.706 223.697V219.817C314.706 219.726 314.754 219.681 314.85 219.681H315.882C315.967 219.681 316.02 219.716 316.042 219.785L316.498 220.713C316.727 221.182 316.9 221.561 317.018 221.849H317.05C317.167 221.561 317.34 221.182 317.57 220.713L318.018 219.785C318.05 219.716 318.106 219.681 318.186 219.681H319.218C319.314 219.681 319.362 219.726 319.362 219.817V223.697C319.362 223.793 319.314 223.841 319.218 223.841H318.306C318.215 223.841 318.17 223.793 318.17 223.697V222.769C318.17 222.348 318.183 221.918 318.21 221.481H318.194C318.06 221.796 317.93 222.097 317.802 222.385L317.474 223.081C317.442 223.15 317.386 223.185 317.306 223.185H316.762C316.682 223.185 316.626 223.15 316.594 223.081L316.266 222.385C316.138 222.097 316.007 221.796 315.874 221.481H315.858C315.884 221.918 315.898 222.348 315.898 222.769V223.697C315.898 223.793 315.852 223.841 315.762 223.841ZM321.645 222.657C321.538 223.084 321.365 223.39 321.125 223.577C320.885 223.758 320.533 223.86 320.069 223.881C319.973 223.881 319.925 223.833 319.925 223.737V222.953C319.925 222.868 319.97 222.817 320.061 222.801C320.183 222.78 320.285 222.724 320.365 222.633C320.445 222.537 320.509 222.382 320.557 222.169C320.663 221.721 320.733 220.937 320.765 219.817C320.775 219.726 320.823 219.681 320.909 219.681H323.797C323.893 219.681 323.941 219.726 323.941 219.817V223.697C323.941 223.793 323.893 223.841 323.797 223.841H322.869C322.773 223.841 322.725 223.793 322.725 223.697V220.745H321.885C321.858 221.545 321.778 222.182 321.645 222.657ZM324.927 219.873C325.465 219.67 326.031 219.569 326.623 219.569C327.193 219.569 327.652 219.732 327.999 220.057C328.345 220.377 328.519 220.82 328.519 221.385V222.177C328.519 222.716 328.359 223.145 328.039 223.465C327.719 223.785 327.3 223.945 326.783 223.945C326.521 223.945 326.276 223.9 326.047 223.809V225.217C326.047 225.313 326.001 225.361 325.911 225.361H324.967C324.871 225.361 324.823 225.313 324.823 225.217V220.025C324.823 219.945 324.857 219.894 324.927 219.873ZM326.607 222.881C327.055 222.881 327.279 222.654 327.279 222.201V221.361C327.279 220.892 327.052 220.657 326.599 220.657C326.391 220.657 326.207 220.686 326.047 220.745V222.745C326.201 222.836 326.388 222.881 326.607 222.881ZM329.934 224.905H329.046C328.95 224.905 328.902 224.86 328.902 224.769V222.921C328.902 222.83 328.95 222.785 329.046 222.785H329.246C329.422 222.657 329.558 222.382 329.654 221.961C329.755 221.534 329.838 220.822 329.902 219.825C329.912 219.729 329.96 219.681 330.046 219.681H332.894C332.984 219.681 333.03 219.726 333.03 219.817V222.785H333.398C333.494 222.785 333.542 222.833 333.542 222.929V224.769C333.542 224.86 333.494 224.905 333.398 224.905H332.51C332.419 224.905 332.374 224.86 332.374 224.769V223.841H330.078V224.769C330.078 224.86 330.03 224.905 329.934 224.905ZM331.014 220.729C330.955 221.742 330.795 222.428 330.534 222.785H331.83V220.729H331.014ZM340.414 220.097C340.414 220.689 340.236 221.161 339.878 221.513C339.526 221.86 339.049 222.033 338.446 222.033H337.478V222.489H338.502C338.598 222.489 338.646 222.534 338.646 222.625V223.121C338.646 223.217 338.598 223.265 338.502 223.265H337.478V223.697C337.478 223.793 337.433 223.841 337.342 223.841H336.39C336.294 223.841 336.246 223.793 336.246 223.697V223.265H335.774C335.678 223.265 335.63 223.217 335.63 223.121V222.625C335.63 222.534 335.678 222.489 335.774 222.489H336.246V218.265C336.246 218.169 336.294 218.121 336.39 218.121H338.446C339.049 218.121 339.526 218.3 339.878 218.657C340.236 219.014 340.414 219.494 340.414 220.097ZM339.174 220.073C339.174 219.518 338.87 219.241 338.262 219.241H337.478V220.921H338.262C338.87 220.921 339.174 220.638 339.174 220.073Z" fill="white"/>
<g filter="url(#filter0_dd_180_3040)">
<path d="M306.935 193.365C307.232 193.282 307.406 192.974 307.323 192.676L305.97 187.826C305.887 187.528 305.578 187.354 305.281 187.437C304.983 187.52 304.809 187.829 304.892 188.127L306.095 192.438L301.784 193.641C301.486 193.724 301.312 194.032 301.395 194.33C301.478 194.628 301.787 194.802 302.084 194.719L306.935 193.365ZM40.2352 239.002C40.4879 238.416 40.75 237.833 41.0211 237.252L40.0073 236.779C39.7315 237.369 39.465 237.962 39.2078 238.558L40.2352 239.002ZM42.7564 233.801C43.3616 232.679 44.0013 231.566 44.6747 230.465L43.7199 229.881C43.0362 231 42.3864 232.129 41.7714 233.27L42.7564 233.801ZM46.7837 227.209C47.502 226.159 48.2512 225.121 49.0306 224.093L48.1389 223.417C47.3489 224.459 46.5891 225.512 45.8604 226.576L46.7837 227.209ZM51.4465 221.055C52.2614 220.077 53.1039 219.109 53.9733 218.152L53.145 217.4C52.2651 218.369 51.4121 219.348 50.5868 220.339L51.4465 221.055ZM56.6405 215.335C57.5358 214.426 58.4557 213.528 59.3996 212.64L58.633 211.825C57.679 212.722 56.7489 213.63 55.8435 214.549L56.6405 215.335ZM62.2738 210.034C63.235 209.193 64.2182 208.362 65.2226 207.541L64.5147 206.674C63.5007 207.503 62.5079 208.342 61.5369 209.191L62.2738 210.034ZM68.2686 205.134C69.2838 204.357 70.3184 203.591 71.3718 202.834L70.7191 201.925C69.6567 202.688 68.6131 203.461 67.5888 204.245L68.2686 205.134ZM74.5624 200.612C75.6215 199.897 76.6978 199.192 77.7908 198.496L77.19 197.552C76.0886 198.253 75.0038 198.964 73.9362 199.685L74.5624 200.612ZM81.1049 196.448C82.1998 195.791 83.31 195.143 84.4351 194.505L83.8831 193.532C82.7501 194.174 81.6319 194.827 80.529 195.489L81.1049 196.448ZM87.8542 192.62C88.9791 192.017 90.1176 191.424 91.2692 190.84L90.7631 189.842C89.604 190.43 88.458 191.027 87.3256 191.634L87.8542 192.62ZM94.7613 189.117C95.917 188.563 97.0849 188.017 98.2646 187.482L97.8019 186.463C96.6151 187.002 95.4401 187.55 94.2773 188.108L94.7613 189.117ZM101.816 185.912C102.999 185.404 104.193 184.904 105.398 184.414L104.976 183.378C103.765 183.871 102.564 184.373 101.374 184.884L101.816 185.912ZM108.999 182.99C110.206 182.526 111.423 182.071 112.65 181.625L112.268 180.573C111.034 181.021 109.811 181.479 108.597 181.946L108.999 182.99ZM116.291 180.339C117.514 179.919 118.745 179.509 119.985 179.107L119.64 178.043C118.394 178.446 117.157 178.859 115.928 179.28L116.291 180.339ZM123.679 177.947C124.912 177.571 126.153 177.204 127.401 176.847L127.093 175.771C125.839 176.13 124.592 176.499 123.353 176.877L123.679 177.947ZM131.149 175.806C132.391 175.473 133.64 175.148 134.895 174.832L134.622 173.747C133.361 174.064 132.106 174.39 130.858 174.726L131.149 175.806ZM138.679 173.913C139.932 173.619 141.191 173.334 142.455 173.058L142.217 171.964C140.947 172.242 139.682 172.528 138.424 172.823L138.679 173.913ZM146.255 172.259C147.522 172.003 148.795 171.756 150.072 171.519L149.867 170.419C148.584 170.657 147.306 170.905 146.034 171.163L146.255 172.259ZM153.885 170.838C155.161 170.621 156.442 170.412 157.726 170.213L157.554 169.107C156.264 169.307 154.979 169.517 153.697 169.735L153.885 170.838ZM161.56 169.647C162.839 169.468 164.122 169.298 165.409 169.137L165.27 168.027C163.978 168.188 162.69 168.359 161.405 168.539L161.56 169.647ZM169.271 168.683C170.553 168.542 171.838 168.41 173.126 168.287L173.019 167.173C171.726 167.296 170.436 167.429 169.149 167.571L169.271 168.683ZM176.997 167.946C178.285 167.843 179.575 167.748 180.868 167.663L180.794 166.546C179.496 166.632 178.201 166.727 176.907 166.831L176.997 167.946ZM184.742 167.436C186.035 167.369 187.33 167.312 188.627 167.265L188.586 166.147C187.284 166.194 185.983 166.252 184.684 166.318L184.742 167.436ZM192.501 167.151C193.794 167.123 195.089 167.103 196.384 167.094L196.376 165.975C195.075 165.985 193.775 166.004 192.477 166.032L192.501 167.151ZM200.268 167.094C201.561 167.103 202.854 167.122 204.148 167.151L204.172 166.032C202.873 166.004 201.574 165.984 200.276 165.975L200.268 167.094ZM208.03 167.266C209.322 167.314 210.615 167.372 211.907 167.439L211.966 166.322C210.667 166.254 209.369 166.196 208.072 166.148L208.03 167.266ZM215.782 167.671C217.073 167.758 218.364 167.854 219.654 167.961L219.746 166.846C218.45 166.739 217.154 166.641 215.857 166.554L215.782 167.671ZM223.519 168.311C224.807 168.437 226.094 168.574 227.379 168.72L227.506 167.609C226.215 167.461 224.922 167.324 223.629 167.197L223.519 168.311ZM231.232 169.191C232.516 169.357 233.797 169.534 235.078 169.722L235.24 168.615C233.954 168.426 232.666 168.249 231.377 168.081L231.232 169.191ZM238.912 170.314C240.19 170.523 241.466 170.741 242.739 170.97L242.937 169.868C241.657 169.639 240.376 169.419 239.092 169.21L238.912 170.314ZM246.553 171.688C247.822 171.938 249.089 172.199 250.353 172.47L250.587 171.376C249.317 171.103 248.044 170.841 246.769 170.59L246.553 171.688ZM254.142 173.317C255.402 173.61 256.659 173.914 257.912 174.228L258.185 173.143C256.925 172.827 255.662 172.521 254.395 172.227L254.142 173.317ZM261.668 175.206C262.918 175.543 264.164 175.892 265.406 176.251L265.717 175.176C264.468 174.815 263.216 174.465 261.96 174.126L261.668 175.206ZM269.12 177.362C270.357 177.745 271.59 178.139 272.819 178.544L273.169 177.481C271.934 177.074 270.694 176.678 269.45 176.293L269.12 177.362ZM276.491 179.793C277.711 180.222 278.927 180.662 280.137 181.113L280.528 180.064C279.311 179.611 278.088 179.168 276.861 178.738L276.491 179.793ZM283.761 182.504C284.963 182.98 286.16 183.467 287.351 183.965L287.784 182.933C286.585 182.432 285.381 181.942 284.172 181.464L283.761 182.504ZM290.915 185.5C292.098 186.024 293.274 186.56 294.445 187.108L294.919 186.094C293.742 185.543 292.558 185.004 291.368 184.477L290.915 185.5ZM297.938 188.787C299.098 189.36 300.251 189.945 301.398 190.543L301.915 189.551C300.761 188.949 299.601 188.36 298.433 187.784L297.938 188.787ZM304.816 192.372C305.383 192.683 305.947 192.997 306.509 193.314L307.059 192.339C306.493 192.02 305.925 191.704 305.355 191.391L304.816 192.372Z" fill="#FF5129"/>
</g>
<g filter="url(#filter1_dd_180_3040)">
<path d="M300.451 213.339C300.731 213.206 300.849 212.873 300.717 212.593L298.557 208.045C298.425 207.765 298.091 207.647 297.812 207.779C297.533 207.912 297.414 208.245 297.546 208.525L299.466 212.568L295.423 214.488C295.143 214.62 295.025 214.954 295.157 215.233C295.29 215.512 295.623 215.631 295.903 215.499L300.451 213.339ZM245.211 237.052C245.333 236.426 245.471 235.81 245.624 235.203L244.539 234.93C244.381 235.556 244.239 236.192 244.113 236.837L245.211 237.052ZM246.749 231.594C247.198 230.399 247.71 229.248 248.28 228.143L247.286 227.629C246.695 228.774 246.166 229.965 245.702 231.201L246.749 231.594ZM250.211 224.901C250.923 223.856 251.694 222.861 252.52 221.918L251.679 221.18C250.823 222.157 250.024 223.188 249.286 224.271L250.211 224.901ZM255.174 219.233C256.108 218.395 257.093 217.609 258.126 216.878L257.48 215.965C256.412 216.72 255.393 217.533 254.426 218.401L255.174 219.233ZM261.329 214.871C262.424 214.266 263.56 213.714 264.733 213.218L264.297 212.187C263.088 212.699 261.917 213.267 260.788 213.892L261.329 214.871ZM268.291 211.918C269.483 211.548 270.707 211.229 271.958 210.964L271.726 209.869C270.442 210.141 269.185 210.469 267.959 210.85L268.291 211.918ZM275.699 210.343C276.94 210.191 278.203 210.09 279.485 210.039L279.441 208.921C278.129 208.973 276.835 209.077 275.564 209.232L275.699 210.343ZM283.287 210.039C284.536 210.087 285.799 210.182 287.074 210.326L287.199 209.214C285.897 209.067 284.606 208.97 283.33 208.921L283.287 210.039ZM290.839 210.883C292.07 211.109 293.31 211.38 294.556 211.695L294.831 210.611C293.561 210.289 292.297 210.013 291.041 209.783L290.839 210.883ZM298.216 212.748C298.818 212.941 299.42 213.146 300.024 213.36L300.399 212.306C299.785 212.088 299.171 211.88 298.559 211.682L298.216 212.748Z" fill="#FF5129"/>
</g>
<g filter="url(#filter2_d_180_3040)">
<path d="M261.668 146.008H266.5C266.884 146.008 267.076 146.2 267.076 146.584V150.008C267.076 150.392 266.884 150.584 266.5 150.584H261.668V155.48C261.668 155.864 261.476 156.056 261.092 156.056H257.54C257.177 156.056 256.996 155.864 256.996 155.48V150.584H252.132C251.769 150.584 251.588 150.392 251.588 150.008V146.584C251.588 146.2 251.769 146.008 252.132 146.008H256.996V141.112C256.996 140.728 257.177 140.536 257.54 140.536H261.092C261.476 140.536 261.668 140.728 261.668 141.112V146.008ZM286.56 151.384C286.56 153.837 285.803 155.789 284.288 157.24C282.774 158.669 280.715 159.384 278.112 159.384C274.912 159.384 272.299 158.456 270.272 156.6C270.059 156.344 270.059 156.077 270.272 155.8L272.256 153.176C272.47 152.899 272.736 152.888 273.056 153.144C274.635 154.232 276.278 154.776 277.984 154.776C280.395 154.776 281.6 153.603 281.6 151.256C281.6 149.208 280.438 148.184 278.112 148.184C276.64 148.184 275.382 148.536 274.336 149.24C274.059 149.432 273.803 149.485 273.568 149.4L271.104 148.6C270.784 148.493 270.624 148.28 270.624 147.96L271.04 136.696C271.04 136.312 271.232 136.12 271.616 136.12H284.544C284.928 136.12 285.12 136.312 285.12 136.696V140.152C285.12 140.515 284.928 140.696 284.544 140.696H275.68L275.52 144.984C276.416 144.365 277.611 144.056 279.104 144.056C281.387 144.056 283.2 144.717 284.544 146.04C285.888 147.341 286.56 149.123 286.56 151.384ZM305.722 152.12C305.722 154.403 304.944 156.195 303.386 157.496C301.85 158.776 299.749 159.416 297.082 159.416C294.416 159.416 292.304 158.776 290.746 157.496C289.21 156.195 288.442 154.403 288.442 152.12C288.442 150.947 288.709 149.891 289.242 148.952C289.776 148.013 290.533 147.299 291.514 146.808C289.893 145.592 289.082 144.024 289.082 142.104C289.082 140.248 289.818 138.723 291.29 137.528C292.762 136.312 294.693 135.704 297.082 135.704C299.472 135.704 301.402 136.312 302.874 137.528C304.346 138.723 305.082 140.248 305.082 142.104C305.082 144.045 304.282 145.613 302.682 146.808C303.664 147.32 304.41 148.045 304.922 148.984C305.456 149.901 305.722 150.947 305.722 152.12ZM293.498 152.056C293.498 152.931 293.818 153.635 294.458 154.168C295.098 154.701 295.973 154.968 297.082 154.968C298.192 154.968 299.066 154.712 299.706 154.2C300.346 153.667 300.666 152.952 300.666 152.056C300.666 151.203 300.346 150.531 299.706 150.04C299.088 149.549 298.213 149.304 297.082 149.304C295.973 149.304 295.098 149.549 294.458 150.04C293.818 150.531 293.498 151.203 293.498 152.056ZM293.882 142.488C293.882 143.32 294.16 143.971 294.714 144.44C295.29 144.909 296.08 145.144 297.082 145.144C298.085 145.144 298.874 144.909 299.45 144.44C300.026 143.971 300.314 143.32 300.314 142.488C300.314 141.72 300.026 141.123 299.45 140.696C298.874 140.248 298.085 140.024 297.082 140.024C296.08 140.024 295.29 140.248 294.714 140.696C294.16 141.123 293.882 141.72 293.882 142.488ZM316.984 143.832C316.984 145.261 316.547 146.371 315.672 147.16C314.798 147.949 313.656 148.344 312.248 148.344C310.862 148.344 309.72 147.949 308.824 147.16C307.95 146.371 307.512 145.261 307.512 143.832V140.44C307.512 139.011 307.95 137.912 308.824 137.144C309.699 136.355 310.84 135.96 312.248 135.96C313.678 135.96 314.819 136.355 315.672 137.144C316.547 137.912 316.984 139.011 316.984 140.44V143.832ZM313.976 159H311.16C310.947 159 310.808 158.936 310.744 158.808C310.68 158.659 310.702 158.499 310.808 158.328L324.536 136.568C324.686 136.333 324.92 136.216 325.24 136.216H328.024C328.238 136.216 328.376 136.291 328.44 136.44C328.526 136.568 328.515 136.717 328.408 136.888L314.648 158.648C314.499 158.883 314.275 159 313.976 159ZM310.904 143.768C310.904 144.28 311.032 144.664 311.288 144.92C311.544 145.155 311.864 145.272 312.248 145.272C313.166 145.272 313.624 144.771 313.624 143.768V140.504C313.624 140.013 313.496 139.651 313.24 139.416C312.984 139.16 312.654 139.032 312.248 139.032C311.864 139.032 311.544 139.16 311.288 139.416C311.032 139.651 310.904 140.013 310.904 140.504V143.768ZM331.832 154.712C331.832 156.141 331.395 157.251 330.52 158.04C329.646 158.829 328.504 159.224 327.096 159.224C325.688 159.224 324.547 158.829 323.672 158.04C322.798 157.251 322.36 156.141 322.36 154.712V151.32C322.36 149.891 322.798 148.792 323.672 148.024C324.547 147.235 325.688 146.84 327.096 146.84C328.504 146.84 329.646 147.235 330.52 148.024C331.395 148.792 331.832 149.891 331.832 151.32V154.712ZM325.752 154.68C325.752 155.171 325.88 155.544 326.136 155.8C326.392 156.035 326.712 156.152 327.096 156.152C327.48 156.152 327.8 156.035 328.056 155.8C328.312 155.544 328.44 155.171 328.44 154.68V151.384C328.44 150.915 328.312 150.552 328.056 150.296C327.8 150.04 327.48 149.912 327.096 149.912C326.712 149.912 326.392 150.04 326.136 150.296C325.88 150.552 325.752 150.915 325.752 151.384V154.68Z" fill="#FF5129"/>
</g>
<g filter="url(#filter3_b_180_3040)">
<rect x="135" y="182" width="100.864" height="54.8644" rx="5.94914" fill="black" fill-opacity="0.1"/>
<rect x="135.198" y="182.198" width="100.468" height="54.4678" rx="5.75084" stroke="url(#paint5_linear_180_3040)" stroke-width="0.39661"/>
<path d="M155.349 197.957H160.181C160.565 197.957 160.757 198.149 160.757 198.533V201.957C160.757 202.341 160.565 202.533 160.181 202.533H155.349V207.429C155.349 207.813 155.157 208.005 154.773 208.005H151.221C150.858 208.005 150.677 207.813 150.677 207.429V202.533H145.813C145.45 202.533 145.269 202.341 145.269 201.957V198.533C145.269 198.149 145.45 197.957 145.813 197.957H150.677V193.061C150.677 192.677 150.858 192.485 151.221 192.485H154.773C155.157 192.485 155.349 192.677 155.349 193.061V197.957ZM178.545 210.949H174.737C174.353 210.949 174.161 210.757 174.161 210.373V206.885H164.401C164.017 206.885 163.825 206.704 163.825 206.341V203.557C163.825 203.365 163.878 203.13 163.985 202.853L171.441 188.485C171.569 188.208 171.782 188.069 172.081 188.069H176.369C176.86 188.069 176.998 188.293 176.785 188.741L169.745 202.501H174.161L174.577 198.405C174.641 198.064 174.844 197.893 175.185 197.893H178.545C178.929 197.893 179.121 198.074 179.121 198.437V202.501H180.977C181.34 202.501 181.521 202.682 181.521 203.045V206.341C181.521 206.704 181.34 206.885 180.977 206.885H179.121V210.373C179.121 210.757 178.929 210.949 178.545 210.949ZM200.068 203.333C200.068 205.786 199.311 207.738 197.796 209.189C196.282 210.618 194.223 211.333 191.62 211.333C188.42 211.333 185.807 210.405 183.78 208.549C183.567 208.293 183.567 208.026 183.78 207.749L185.764 205.125C185.978 204.848 186.244 204.837 186.564 205.093C188.143 206.181 189.786 206.725 191.492 206.725C193.903 206.725 195.108 205.552 195.108 203.205C195.108 201.157 193.946 200.133 191.62 200.133C190.148 200.133 188.89 200.485 187.844 201.189C187.567 201.381 187.311 201.434 187.076 201.349L184.612 200.549C184.292 200.442 184.132 200.229 184.132 199.909L184.548 188.645C184.548 188.261 184.74 188.069 185.124 188.069H198.052C198.436 188.069 198.628 188.261 198.628 188.645V192.101C198.628 192.464 198.436 192.645 198.052 192.645H189.188L189.028 196.933C189.924 196.314 191.119 196.005 192.612 196.005C194.895 196.005 196.708 196.666 198.052 197.989C199.396 199.29 200.068 201.072 200.068 203.333ZM211.679 195.781C211.679 197.21 211.241 198.32 210.367 199.109C209.492 199.898 208.351 200.293 206.943 200.293C205.556 200.293 204.415 199.898 203.519 199.109C202.644 198.32 202.207 197.21 202.207 195.781V192.389C202.207 190.96 202.644 189.861 203.519 189.093C204.393 188.304 205.535 187.909 206.943 187.909C208.372 187.909 209.513 188.304 210.367 189.093C211.241 189.861 211.679 190.96 211.679 192.389V195.781ZM208.671 210.949H205.855C205.641 210.949 205.503 210.885 205.439 210.757C205.375 210.608 205.396 210.448 205.503 210.277L219.231 188.517C219.38 188.282 219.615 188.165 219.935 188.165H222.719C222.932 188.165 223.071 188.24 223.135 188.389C223.22 188.517 223.209 188.666 223.103 188.837L209.343 210.597C209.193 210.832 208.969 210.949 208.671 210.949ZM205.599 195.717C205.599 196.229 205.727 196.613 205.983 196.869C206.239 197.104 206.559 197.221 206.943 197.221C207.86 197.221 208.319 196.72 208.319 195.717V192.453C208.319 191.962 208.191 191.6 207.935 191.365C207.679 191.109 207.348 190.981 206.943 190.981C206.559 190.981 206.239 191.109 205.983 191.365C205.727 191.6 205.599 191.962 205.599 192.453V195.717ZM226.527 206.661C226.527 208.09 226.089 209.2 225.215 209.989C224.34 210.778 223.199 211.173 221.791 211.173C220.383 211.173 219.241 210.778 218.367 209.989C217.492 209.2 217.055 208.09 217.055 206.661V203.269C217.055 201.84 217.492 200.741 218.367 199.973C219.241 199.184 220.383 198.789 221.791 198.789C223.199 198.789 224.34 199.184 225.215 199.973C226.089 200.741 226.527 201.84 226.527 203.269V206.661ZM220.447 206.629C220.447 207.12 220.575 207.493 220.831 207.749C221.087 207.984 221.407 208.101 221.791 208.101C222.175 208.101 222.495 207.984 222.751 207.749C223.007 207.493 223.135 207.12 223.135 206.629V203.333C223.135 202.864 223.007 202.501 222.751 202.245C222.495 201.989 222.175 201.861 221.791 201.861C221.407 201.861 221.087 201.989 220.831 202.245C220.575 202.501 220.447 202.864 220.447 203.333V206.629Z" fill="#FF5129"/>
<path opacity="0.8" d="M143.541 216.979C144.037 216.787 144.554 216.691 145.093 216.691C145.642 216.691 146.077 216.835 146.397 217.123C146.717 217.406 146.877 217.841 146.877 218.427V219.307C146.877 219.835 146.717 220.251 146.397 220.555C146.077 220.854 145.653 221.003 145.125 221.003C144.757 221.003 144.426 220.921 144.133 220.755V222.347C144.133 222.406 144.101 222.435 144.037 222.435H143.565C143.506 222.435 143.477 222.406 143.477 222.347V217.083C143.477 217.03 143.498 216.995 143.541 216.979ZM145.085 220.419C145.837 220.419 146.213 220.049 146.213 219.307V218.427C146.213 217.654 145.834 217.267 145.077 217.267C144.703 217.267 144.389 217.321 144.133 217.427V220.131C144.41 220.323 144.727 220.419 145.085 220.419ZM151.045 218.283V219.067C151.045 219.131 151.015 219.163 150.957 219.163H148.341V219.499C148.341 219.793 148.437 220.019 148.629 220.179C148.821 220.339 149.071 220.419 149.381 220.419C149.818 220.419 150.226 220.27 150.605 219.971C150.658 219.939 150.701 219.947 150.733 219.995L150.965 220.299C151.002 220.342 150.997 220.385 150.949 220.427C150.49 220.811 149.962 221.003 149.365 221.003C148.901 221.003 148.503 220.873 148.173 220.611C147.842 220.345 147.677 219.974 147.677 219.499V218.283C147.677 217.766 147.839 217.371 148.165 217.099C148.495 216.827 148.898 216.691 149.373 216.691C149.842 216.691 150.237 216.827 150.557 217.099C150.882 217.371 151.045 217.766 151.045 218.283ZM150.405 218.283C150.405 217.958 150.309 217.71 150.117 217.539C149.93 217.369 149.682 217.283 149.373 217.283C149.058 217.283 148.807 217.369 148.621 217.539C148.434 217.705 148.341 217.953 148.341 218.283V218.619H150.405V218.283ZM155.249 220.915H154.689C154.641 220.915 154.601 220.897 154.569 220.859L153.057 219.043L152.601 219.499V220.827C152.601 220.886 152.569 220.915 152.505 220.915H152.049C151.991 220.915 151.961 220.886 151.961 220.827V216.875C151.961 216.811 151.991 216.779 152.049 216.779H152.505C152.569 216.779 152.601 216.811 152.601 216.875V218.691L154.441 216.827C154.468 216.795 154.505 216.779 154.553 216.779H155.129C155.167 216.779 155.191 216.793 155.201 216.819C155.212 216.841 155.204 216.865 155.177 216.891L153.497 218.587L155.305 220.803C155.327 220.835 155.332 220.862 155.321 220.883C155.311 220.905 155.287 220.915 155.249 220.915ZM159.079 219.435C159.079 219.91 158.919 220.291 158.599 220.579C158.285 220.862 157.858 221.003 157.319 221.003C156.781 221.003 156.351 220.859 156.031 220.571C155.717 220.283 155.559 219.905 155.559 219.435V218.283C155.559 217.809 155.719 217.425 156.039 217.131C156.359 216.838 156.786 216.691 157.319 216.691C157.858 216.691 158.285 216.838 158.599 217.131C158.919 217.425 159.079 217.809 159.079 218.283V219.435ZM156.223 219.435C156.223 219.739 156.317 219.979 156.503 220.155C156.695 220.331 156.967 220.419 157.319 220.419C157.671 220.419 157.943 220.331 158.135 220.155C158.327 219.979 158.423 219.739 158.423 219.435V218.283C158.423 217.974 158.327 217.731 158.135 217.555C157.943 217.374 157.671 217.283 157.319 217.283C156.967 217.283 156.695 217.374 156.503 217.555C156.317 217.731 156.223 217.974 156.223 218.283V219.435ZM160.087 216.979C160.583 216.787 161.101 216.691 161.639 216.691C162.189 216.691 162.623 216.835 162.943 217.123C163.263 217.406 163.423 217.841 163.423 218.427V219.307C163.423 219.835 163.263 220.251 162.943 220.555C162.623 220.854 162.199 221.003 161.671 221.003C161.303 221.003 160.973 220.921 160.679 220.755V222.347C160.679 222.406 160.647 222.435 160.583 222.435H160.111C160.053 222.435 160.023 222.406 160.023 222.347V217.083C160.023 217.03 160.045 216.995 160.087 216.979ZM161.631 220.419C162.383 220.419 162.759 220.049 162.759 219.307V218.427C162.759 217.654 162.381 217.267 161.623 217.267C161.25 217.267 160.935 217.321 160.679 217.427V220.131C160.957 220.323 161.274 220.419 161.631 220.419ZM164.417 222.011H163.969C163.911 222.011 163.881 221.979 163.881 221.915V220.419C163.881 220.361 163.911 220.331 163.969 220.331H164.145C164.332 220.219 164.476 219.929 164.577 219.459C164.684 218.985 164.777 218.123 164.857 216.875C164.857 216.811 164.887 216.779 164.945 216.779H167.497C167.561 216.779 167.593 216.811 167.593 216.875V220.331H168.009C168.073 220.331 168.105 220.361 168.105 220.419V221.915C168.105 221.979 168.073 222.011 168.009 222.011H167.569C167.505 222.011 167.473 221.979 167.473 221.915V220.915H164.505V221.915C164.505 221.979 164.476 222.011 164.417 222.011ZM165.465 217.371C165.417 218.23 165.345 218.897 165.249 219.371C165.159 219.841 165.033 220.161 164.873 220.331H166.937V217.371H165.465ZM169.435 220.915H168.963C168.905 220.915 168.875 220.886 168.875 220.827V216.875C168.875 216.811 168.905 216.779 168.963 216.779H169.435C169.499 216.779 169.531 216.811 169.531 216.875V218.475H171.483V216.875C171.483 216.811 171.513 216.779 171.571 216.779H172.043C172.107 216.779 172.139 216.811 172.139 216.875V220.827C172.139 220.886 172.107 220.915 172.043 220.915H171.571C171.513 220.915 171.483 220.886 171.483 220.827V219.059H169.531V220.827C169.531 220.886 169.499 220.915 169.435 220.915ZM174.914 220.915H173.33C173.272 220.915 173.242 220.886 173.242 220.827V216.875C173.242 216.811 173.272 216.779 173.33 216.779H173.802C173.866 216.779 173.898 216.811 173.898 216.875V218.163H174.914C175.405 218.163 175.792 218.289 176.074 218.539C176.362 218.79 176.506 219.131 176.506 219.563C176.506 220.022 176.368 220.363 176.09 220.587C175.813 220.806 175.421 220.915 174.914 220.915ZM173.898 218.723V220.355H174.81C175.498 220.355 175.842 220.086 175.842 219.547C175.848 219.275 175.762 219.07 175.586 218.931C175.416 218.793 175.157 218.723 174.81 218.723H173.898ZM177.57 220.915H177.098C177.04 220.915 177.01 220.886 177.01 220.827V216.875C177.01 216.811 177.04 216.779 177.098 216.779H177.57C177.634 216.779 177.666 216.811 177.666 216.875V220.827C177.666 220.886 177.634 220.915 177.57 220.915ZM179.43 220.915H178.862C178.803 220.915 178.774 220.886 178.774 220.827V216.875C178.774 216.811 178.803 216.779 178.862 216.779H179.334C179.392 216.779 179.422 216.811 179.422 216.875V219.003C179.422 219.094 179.419 219.257 179.414 219.491C179.414 219.721 179.414 219.883 179.414 219.979C179.707 219.446 179.942 219.046 180.118 218.779L181.406 216.843C181.432 216.801 181.47 216.779 181.518 216.779H182.078C182.136 216.779 182.166 216.811 182.166 216.875V220.827C182.166 220.886 182.136 220.915 182.078 220.915H181.614C181.55 220.915 181.518 220.886 181.518 220.827V218.763C181.518 218.481 181.523 218.147 181.534 217.763H181.526C181.312 218.163 181.083 218.55 180.838 218.923L179.542 220.859C179.52 220.897 179.483 220.915 179.43 220.915ZM181.678 215.051C181.64 215.377 181.512 215.638 181.294 215.835C181.08 216.033 180.795 216.131 180.438 216.131C180.086 216.131 179.803 216.035 179.59 215.843C179.382 215.646 179.256 215.385 179.214 215.059C179.203 215.001 179.23 214.966 179.294 214.955L179.614 214.915C179.667 214.91 179.702 214.934 179.718 214.987C179.792 215.414 180.032 215.627 180.438 215.627C180.854 215.627 181.099 215.414 181.174 214.987C181.179 214.934 181.214 214.91 181.278 214.915L181.59 214.955C181.654 214.966 181.683 214.998 181.678 215.051ZM185.119 216.979C185.615 216.787 186.132 216.691 186.671 216.691C187.22 216.691 187.655 216.835 187.975 217.123C188.295 217.406 188.455 217.841 188.455 218.427V219.307C188.455 219.835 188.295 220.251 187.975 220.555C187.655 220.854 187.231 221.003 186.703 221.003C186.335 221.003 186.004 220.921 185.711 220.755V222.347C185.711 222.406 185.679 222.435 185.615 222.435H185.143C185.084 222.435 185.055 222.406 185.055 222.347V217.083C185.055 217.03 185.076 216.995 185.119 216.979ZM186.663 220.419C187.415 220.419 187.791 220.049 187.791 219.307V218.427C187.791 217.654 187.412 217.267 186.655 217.267C186.281 217.267 185.967 217.321 185.711 217.427V220.131C185.988 220.323 186.305 220.419 186.663 220.419ZM192.767 219.435C192.767 219.91 192.607 220.291 192.287 220.579C191.972 220.862 191.545 221.003 191.007 221.003C190.468 221.003 190.039 220.859 189.719 220.571C189.404 220.283 189.247 219.905 189.247 219.435V218.283C189.247 217.809 189.407 217.425 189.727 217.131C190.047 216.838 190.473 216.691 191.007 216.691C191.545 216.691 191.972 216.838 192.287 217.131C192.607 217.425 192.767 217.809 192.767 218.283V219.435ZM189.911 219.435C189.911 219.739 190.004 219.979 190.191 220.155C190.383 220.331 190.655 220.419 191.007 220.419C191.359 220.419 191.631 220.331 191.823 220.155C192.015 219.979 192.111 219.739 192.111 219.435V218.283C192.111 217.974 192.015 217.731 191.823 217.555C191.631 217.374 191.359 217.283 191.007 217.283C190.655 217.283 190.383 217.374 190.191 217.555C190.004 217.731 189.911 217.974 189.911 218.283V219.435ZM196.703 220.539C196.282 220.849 195.81 221.003 195.287 221.003C194.764 221.003 194.348 220.862 194.039 220.579C193.73 220.291 193.575 219.918 193.575 219.459V218.243C193.575 217.785 193.73 217.411 194.039 217.123C194.348 216.835 194.762 216.691 195.279 216.691C195.743 216.691 196.178 216.825 196.583 217.091C196.636 217.129 196.644 217.174 196.607 217.227L196.399 217.555C196.362 217.603 196.319 217.611 196.271 217.579C195.967 217.382 195.642 217.283 195.295 217.283C194.959 217.283 194.698 217.371 194.511 217.547C194.324 217.723 194.231 217.955 194.231 218.243V219.459C194.231 219.753 194.324 219.987 194.511 220.163C194.698 220.334 194.956 220.419 195.287 220.419C195.655 220.419 196.012 220.302 196.359 220.067C196.407 220.025 196.45 220.03 196.487 220.083L196.719 220.411C196.756 220.465 196.751 220.507 196.703 220.539ZM198.965 220.915H198.485C198.426 220.915 198.397 220.886 198.397 220.827V217.371H197.149C197.085 217.371 197.053 217.339 197.053 217.275V216.875C197.053 216.811 197.085 216.779 197.149 216.779H200.293C200.357 216.779 200.389 216.811 200.389 216.875V217.275C200.389 217.339 200.357 217.371 200.293 217.371H199.053V220.827C199.053 220.886 199.023 220.915 198.965 220.915ZM146.301 227.883C146.301 228.267 146.117 228.55 145.749 228.731C146.213 228.897 146.445 229.222 146.445 229.707C146.445 230.081 146.29 230.39 145.981 230.635C145.671 230.881 145.277 231.003 144.797 231.003C144.151 231.003 143.605 230.803 143.157 230.403C143.114 230.371 143.111 230.331 143.149 230.283L143.397 229.971C143.439 229.929 143.485 229.926 143.533 229.963C143.917 230.267 144.33 230.419 144.773 230.419C145.082 230.419 145.327 230.355 145.509 230.227C145.69 230.099 145.781 229.921 145.781 229.691C145.781 229.254 145.482 229.035 144.885 229.035H144.085C144.021 229.035 143.989 229.003 143.989 228.939V228.619C143.989 228.555 144.021 228.523 144.085 228.523H144.877C145.111 228.523 145.298 228.467 145.437 228.355C145.575 228.243 145.645 228.091 145.645 227.899C145.645 227.691 145.565 227.534 145.405 227.427C145.245 227.321 145.029 227.267 144.757 227.267C144.33 227.267 143.951 227.398 143.621 227.659C143.573 227.707 143.53 227.702 143.493 227.643L143.253 227.339C143.215 227.286 143.218 227.241 143.261 227.203C143.687 226.862 144.189 226.691 144.765 226.691C145.218 226.691 145.586 226.806 145.869 227.035C146.157 227.259 146.301 227.542 146.301 227.883ZM147.28 227.107C147.685 226.83 148.189 226.691 148.792 226.691C149.293 226.691 149.683 226.825 149.96 227.091C150.243 227.353 150.384 227.737 150.384 228.243V230.643C150.384 230.697 150.36 230.731 150.312 230.747C149.843 230.918 149.328 231.003 148.768 231.003C148.272 231.003 147.861 230.897 147.536 230.683C147.211 230.47 147.048 230.139 147.048 229.691C147.048 229.281 147.203 228.966 147.512 228.747C147.821 228.529 148.24 228.419 148.768 228.419C149.045 228.419 149.365 228.451 149.728 228.515V228.259C149.728 227.929 149.653 227.683 149.504 227.523C149.355 227.363 149.109 227.283 148.768 227.283C148.341 227.283 147.963 227.382 147.632 227.579C147.584 227.611 147.544 227.603 147.512 227.555L147.28 227.219C147.253 227.171 147.253 227.134 147.28 227.107ZM147.704 229.691C147.704 229.926 147.8 230.107 147.992 230.235C148.189 230.358 148.448 230.419 148.768 230.419C149.088 230.419 149.408 230.371 149.728 230.275V229.075C149.387 229.011 149.067 228.979 148.768 228.979C148.059 228.979 147.704 229.217 147.704 229.691ZM153.323 226.779H156.403C156.461 226.779 156.491 226.811 156.491 226.875V230.827C156.491 230.886 156.461 230.915 156.403 230.915H155.931C155.867 230.915 155.835 230.886 155.835 230.827V227.371H153.883V230.827C153.883 230.886 153.853 230.915 153.795 230.915H153.323C153.259 230.915 153.227 230.886 153.227 230.827V226.875C153.227 226.811 153.259 226.779 153.323 226.779ZM160.962 229.435C160.962 229.91 160.802 230.291 160.482 230.579C160.167 230.862 159.741 231.003 159.202 231.003C158.663 231.003 158.234 230.859 157.914 230.571C157.599 230.283 157.442 229.905 157.442 229.435V228.283C157.442 227.809 157.602 227.425 157.922 227.131C158.242 226.838 158.669 226.691 159.202 226.691C159.741 226.691 160.167 226.838 160.482 227.131C160.802 227.425 160.962 227.809 160.962 228.283V229.435ZM158.106 229.435C158.106 229.739 158.199 229.979 158.386 230.155C158.578 230.331 158.85 230.419 159.202 230.419C159.554 230.419 159.826 230.331 160.018 230.155C160.21 229.979 160.306 229.739 160.306 229.435V228.283C160.306 227.974 160.21 227.731 160.018 227.555C159.826 227.374 159.554 227.283 159.202 227.283C158.85 227.283 158.578 227.374 158.386 227.555C158.199 227.731 158.106 227.974 158.106 228.283V229.435ZM164.898 230.539C164.477 230.849 164.005 231.003 163.482 231.003C162.96 231.003 162.544 230.862 162.234 230.579C161.925 230.291 161.77 229.918 161.77 229.459V228.243C161.77 227.785 161.925 227.411 162.234 227.123C162.544 226.835 162.957 226.691 163.474 226.691C163.938 226.691 164.373 226.825 164.778 227.091C164.832 227.129 164.84 227.174 164.802 227.227L164.594 227.555C164.557 227.603 164.514 227.611 164.466 227.579C164.162 227.382 163.837 227.283 163.49 227.283C163.154 227.283 162.893 227.371 162.706 227.547C162.52 227.723 162.426 227.955 162.426 228.243V229.459C162.426 229.753 162.52 229.987 162.706 230.163C162.893 230.334 163.152 230.419 163.482 230.419C163.85 230.419 164.208 230.302 164.554 230.067C164.602 230.025 164.645 230.03 164.682 230.083L164.914 230.411C164.952 230.465 164.946 230.507 164.898 230.539ZM166.64 229.491C166.549 230.035 166.411 230.411 166.224 230.619C166.037 230.827 165.741 230.937 165.336 230.947C165.277 230.947 165.248 230.918 165.248 230.859V230.451C165.248 230.398 165.277 230.366 165.336 230.355C165.523 230.345 165.667 230.27 165.768 230.131C165.869 229.993 165.949 229.726 166.008 229.331C166.093 228.745 166.16 227.926 166.208 226.875C166.208 226.811 166.24 226.779 166.304 226.779H168.92C168.984 226.779 169.016 226.811 169.016 226.875V230.827C169.016 230.886 168.984 230.915 168.92 230.915H168.448C168.389 230.915 168.36 230.886 168.36 230.827V227.371H166.824C166.797 228.049 166.736 228.755 166.64 229.491ZM173.341 228.283V229.067C173.341 229.131 173.312 229.163 173.253 229.163H170.637V229.499C170.637 229.793 170.733 230.019 170.925 230.179C171.117 230.339 171.368 230.419 171.677 230.419C172.115 230.419 172.523 230.27 172.901 229.971C172.955 229.939 172.997 229.947 173.029 229.995L173.261 230.299C173.299 230.342 173.293 230.385 173.245 230.427C172.787 230.811 172.259 231.003 171.661 231.003C171.197 231.003 170.8 230.873 170.469 230.611C170.139 230.345 169.973 229.974 169.973 229.499V228.283C169.973 227.766 170.136 227.371 170.461 227.099C170.792 226.827 171.195 226.691 171.669 226.691C172.139 226.691 172.533 226.827 172.853 227.099C173.179 227.371 173.341 227.766 173.341 228.283ZM172.701 228.283C172.701 227.958 172.605 227.71 172.413 227.539C172.227 227.369 171.979 227.283 171.669 227.283C171.355 227.283 171.104 227.369 170.917 227.539C170.731 227.705 170.637 227.953 170.637 228.283V228.619H172.701V228.283ZM174.363 232.011H173.915C173.856 232.011 173.827 231.979 173.827 231.915V230.419C173.827 230.361 173.856 230.331 173.915 230.331H174.091C174.277 230.219 174.421 229.929 174.523 229.459C174.629 228.985 174.723 228.123 174.803 226.875C174.803 226.811 174.832 226.779 174.891 226.779H177.443C177.507 226.779 177.539 226.811 177.539 226.875V230.331H177.955C178.019 230.331 178.051 230.361 178.051 230.419V231.915C178.051 231.979 178.019 232.011 177.955 232.011H177.515C177.451 232.011 177.419 231.979 177.419 231.915V230.915H174.451V231.915C174.451 231.979 174.421 232.011 174.363 232.011ZM175.411 227.371C175.363 228.23 175.291 228.897 175.195 229.371C175.104 229.841 174.979 230.161 174.819 230.331H176.883V227.371H175.411ZM179.381 230.915H178.909C178.85 230.915 178.821 230.886 178.821 230.827V226.875C178.821 226.811 178.85 226.779 178.909 226.779H179.381C179.445 226.779 179.477 226.811 179.477 226.875V228.475H181.429V226.875C181.429 226.811 181.458 226.779 181.517 226.779H181.989C182.053 226.779 182.085 226.811 182.085 226.875V230.827C182.085 230.886 182.053 230.915 181.989 230.915H181.517C181.458 230.915 181.429 230.886 181.429 230.827V229.059H179.477V230.827C179.477 230.886 179.445 230.915 179.381 230.915ZM183.844 230.915H183.276C183.217 230.915 183.188 230.886 183.188 230.827V226.875C183.188 226.811 183.217 226.779 183.276 226.779H183.748C183.806 226.779 183.836 226.811 183.836 226.875V229.003C183.836 229.094 183.833 229.257 183.828 229.491C183.828 229.721 183.828 229.883 183.828 229.979C184.121 229.446 184.356 229.046 184.532 228.779L185.82 226.843C185.846 226.801 185.884 226.779 185.932 226.779H186.492C186.55 226.779 186.58 226.811 186.58 226.875V230.827C186.58 230.886 186.55 230.915 186.492 230.915H186.028C185.964 230.915 185.932 230.886 185.932 230.827V228.763C185.932 228.481 185.937 228.147 185.948 227.763H185.94C185.726 228.163 185.497 228.55 185.252 228.923L183.956 230.859C183.934 230.897 183.897 230.915 183.844 230.915ZM190.904 228.283V229.067C190.904 229.131 190.875 229.163 190.816 229.163H188.2V229.499C188.2 229.793 188.296 230.019 188.488 230.179C188.68 230.339 188.931 230.419 189.24 230.419C189.677 230.419 190.085 230.27 190.464 229.971C190.517 229.939 190.56 229.947 190.592 229.995L190.824 230.299C190.861 230.342 190.856 230.385 190.808 230.427C190.349 230.811 189.821 231.003 189.224 231.003C188.76 231.003 188.363 230.873 188.032 230.611C187.701 230.345 187.536 229.974 187.536 229.499V228.283C187.536 227.766 187.699 227.371 188.024 227.099C188.355 226.827 188.757 226.691 189.232 226.691C189.701 226.691 190.096 226.827 190.416 227.099C190.741 227.371 190.904 227.766 190.904 228.283ZM190.264 228.283C190.264 227.958 190.168 227.71 189.976 227.539C189.789 227.369 189.541 227.283 189.232 227.283C188.917 227.283 188.667 227.369 188.48 227.539C188.293 227.705 188.2 227.953 188.2 228.283V228.619H190.264V228.283ZM196.801 227.651C197.132 227.971 197.297 228.43 197.297 229.027C197.297 229.625 197.124 230.102 196.777 230.459C196.431 230.811 195.961 230.987 195.369 230.987C194.649 230.987 194.039 230.731 193.537 230.219C193.5 230.171 193.5 230.129 193.537 230.091L193.857 229.763C193.895 229.721 193.937 229.723 193.985 229.771C194.401 230.161 194.868 230.355 195.385 230.355C195.78 230.355 196.084 230.238 196.297 230.003C196.516 229.769 196.625 229.446 196.625 229.035C196.625 228.214 196.22 227.803 195.409 227.803C194.929 227.803 194.535 227.95 194.225 228.243C194.188 228.281 194.148 228.291 194.105 228.275L193.721 228.139C193.668 228.123 193.641 228.089 193.641 228.035L193.745 225.283C193.745 225.225 193.777 225.195 193.841 225.195H196.913C196.977 225.195 197.009 225.225 197.009 225.283V225.731C197.009 225.79 196.977 225.819 196.913 225.819H194.345L194.281 227.531C194.612 227.291 195.007 227.171 195.465 227.171C196.025 227.171 196.471 227.331 196.801 227.651ZM200.82 229.491C200.729 230.035 200.59 230.411 200.404 230.619C200.217 230.827 199.921 230.937 199.516 230.947C199.457 230.947 199.428 230.918 199.428 230.859V230.451C199.428 230.398 199.457 230.366 199.516 230.355C199.702 230.345 199.846 230.27 199.948 230.131C200.049 229.993 200.129 229.726 200.188 229.331C200.273 228.745 200.34 227.926 200.388 226.875C200.388 226.811 200.42 226.779 200.484 226.779H203.1C203.164 226.779 203.196 226.811 203.196 226.875V230.827C203.196 230.886 203.164 230.915 203.1 230.915H202.628C202.569 230.915 202.54 230.886 202.54 230.827V227.371H201.004C200.977 228.049 200.916 228.755 200.82 229.491ZM207.521 228.283V229.067C207.521 229.131 207.492 229.163 207.433 229.163H204.817V229.499C204.817 229.793 204.913 230.019 205.105 230.179C205.297 230.339 205.548 230.419 205.857 230.419C206.294 230.419 206.702 230.27 207.081 229.971C207.134 229.939 207.177 229.947 207.209 229.995L207.441 230.299C207.478 230.342 207.473 230.385 207.425 230.427C206.966 230.811 206.438 231.003 205.841 231.003C205.377 231.003 204.98 230.873 204.649 230.611C204.318 230.345 204.153 229.974 204.153 229.499V228.283C204.153 227.766 204.316 227.371 204.641 227.099C204.972 226.827 205.374 226.691 205.849 226.691C206.318 226.691 206.713 226.827 207.033 227.099C207.358 227.371 207.521 227.766 207.521 228.283ZM206.881 228.283C206.881 227.958 206.785 227.71 206.593 227.539C206.406 227.369 206.158 227.283 205.849 227.283C205.534 227.283 205.284 227.369 205.097 227.539C204.91 227.705 204.817 227.953 204.817 228.283V228.619H206.881V228.283ZM209.863 230.915H209.383C209.325 230.915 209.295 230.886 209.295 230.827V227.371H208.047C207.983 227.371 207.951 227.339 207.951 227.275V226.875C207.951 226.811 207.983 226.779 208.047 226.779H211.191C211.255 226.779 211.287 226.811 211.287 226.875V227.275C211.287 227.339 211.255 227.371 211.191 227.371H209.951V230.827C209.951 230.886 209.922 230.915 209.863 230.915ZM212.537 227.995L212.209 227.755C212.156 227.718 212.148 227.678 212.185 227.635L212.761 226.835L211.833 226.531C211.769 226.515 211.748 226.478 211.769 226.419L211.889 226.027C211.916 225.963 211.953 225.942 212.001 225.963L212.945 226.267V225.283C212.945 225.225 212.977 225.195 213.041 225.195H213.441C213.505 225.195 213.537 225.225 213.537 225.283V226.275L214.473 225.971C214.521 225.945 214.558 225.963 214.585 226.027L214.713 226.411C214.734 226.47 214.716 226.507 214.657 226.523L213.713 226.827L214.289 227.627C214.326 227.665 214.321 227.705 214.273 227.747L213.945 227.995C213.908 228.033 213.868 228.027 213.825 227.979L213.241 227.179L212.665 227.971C212.633 228.014 212.59 228.022 212.537 227.995Z" fill="white"/>
</g>
<defs>
<filter id="filter0_dd_180_3040" x="30.256" y="157.023" width="286.04" height="90.9309" filterUnits="userSpaceOnUse" color-interpolation-filters="sRGB">
<feFlood flood-opacity="0" result="BackgroundImageFix"/>
<feColorMatrix in="SourceAlpha" type="matrix" values="0 0 0 0 0 0 0 0 0 0 0 0 0 0 0 0 0 0 127 0" result="hardAlpha"/>
<feOffset/>
<feGaussianBlur stdDeviation="3.10523"/>
<feComposite in2="hardAlpha" operator="out"/>
<feColorMatrix type="matrix" values="0 0 0 0 1 0 0 0 0 0.317647 0 0 0 0 0.160784 0 0 0 1 0"/>
<feBlend mode="normal" in2="BackgroundImageFix" result="effect1_dropShadow_180_3040"/>
<feColorMatrix in="SourceAlpha" type="matrix" values="0 0 0 0 0 0 0 0 0 0 0 0 0 0 0 0 0 0 127 0" result="hardAlpha"/>
<feOffset/>
<feGaussianBlur stdDeviation="4.476"/>
<feComposite in2="hardAlpha" operator="out"/>
<feColorMatrix type="matrix" values="0 0 0 0 1 0 0 0 0 0.317647 0 0 0 0 0.160784 0 0 0 1 0"/>
<feBlend mode="normal" in2="effect1_dropShadow_180_3040" result="effect2_dropShadow_180_3040"/>
<feBlend mode="normal" in="SourceGraphic" in2="effect2_dropShadow_180_3040" result="shape"/>
</filter>
<filter id="filter1_dd_180_3040" x="235.16" y="198.773" width="74.5632" height="47.2309" filterUnits="userSpaceOnUse" color-interpolation-filters="sRGB">
<feFlood flood-opacity="0" result="BackgroundImageFix"/>
<feColorMatrix in="SourceAlpha" type="matrix" values="0 0 0 0 0 0 0 0 0 0 0 0 0 0 0 0 0 0 127 0" result="hardAlpha"/>
<feOffset/>
<feGaussianBlur stdDeviation="3.10523"/>
<feComposite in2="hardAlpha" operator="out"/>
<feColorMatrix type="matrix" values="0 0 0 0 1 0 0 0 0 0.317647 0 0 0 0 0.160784 0 0 0 1 0"/>
<feBlend mode="normal" in2="BackgroundImageFix" result="effect1_dropShadow_180_3040"/>
<feColorMatrix in="SourceAlpha" type="matrix" values="0 0 0 0 0 0 0 0 0 0 0 0 0 0 0 0 0 0 127 0" result="hardAlpha"/>
<feOffset/>
<feGaussianBlur stdDeviation="4.476"/>
<feComposite in2="hardAlpha" operator="out"/>
<feColorMatrix type="matrix" values="0 0 0 0 1 0 0 0 0 0.317647 0 0 0 0 0.160784 0 0 0 1 0"/>
<feBlend mode="normal" in2="effect1_dropShadow_180_3040" result="effect2_dropShadow_180_3040"/>
<feBlend mode="normal" in="SourceGraphic" in2="effect2_dropShadow_180_3040" result="shape"/>
</filter>
<filter id="filter2_d_180_3040" x="244.544" y="128.66" width="94.3316" height="37.7994" filterUnits="userSpaceOnUse" color-interpolation-filters="sRGB">
<feFlood flood-opacity="0" result="BackgroundImageFix"/>
<feColorMatrix in="SourceAlpha" type="matrix" values="0 0 0 0 0 0 0 0 0 0 0 0 0 0 0 0 0 0 127 0" result="hardAlpha"/>
<feOffset/>
<feGaussianBlur stdDeviation="3.52188"/>
<feComposite in2="hardAlpha" operator="out"/>
<feColorMatrix type="matrix" values="0 0 0 0 1 0 0 0 0 0.317647 0 0 0 0 0.160784 0 0 0 1 0"/>
<feBlend mode="normal" in2="BackgroundImageFix" result="effect1_dropShadow_180_3040"/>
<feBlend mode="normal" in="SourceGraphic" in2="effect1_dropShadow_180_3040" result="shape"/>
</filter>
<filter id="filter3_b_180_3040" x="115.17" y="162.17" width="140.525" height="94.5255" filterUnits="userSpaceOnUse" color-interpolation-filters="sRGB">
<feFlood flood-opacity="0" result="BackgroundImageFix"/>
<feGaussianBlur in="BackgroundImageFix" stdDeviation="9.91524"/>
<feComposite in2="SourceAlpha" operator="in" result="effect1_backgroundBlur_180_3040"/>
<feBlend mode="normal" in="SourceGraphic" in2="effect1_backgroundBlur_180_3040" result="shape"/>
</filter>
<linearGradient id="paint0_linear_180_3040" x1="38.6003" y1="247.734" x2="38.6003" y2="323.826" gradientUnits="userSpaceOnUse">
<stop stop-color="#1F28FF" stop-opacity="0"/>
<stop offset="0.6" stop-color="#1F28FF"/>
</linearGradient>
<linearGradient id="paint1_linear_180_3040" x1="108.537" y1="280.743" x2="108.537" y2="323.825" gradientUnits="userSpaceOnUse">
<stop stop-color="#1F28FF" stop-opacity="0"/>
<stop offset="0.57" stop-color="#1F28FF"/>
</linearGradient>
<linearGradient id="paint2_linear_180_3040" x1="178.332" y1="248.852" x2="178.332" y2="323.825" gradientUnits="userSpaceOnUse">
<stop stop-color="#1F28FF" stop-opacity="0"/>
<stop offset="0.57" stop-color="#1F28FF"/>
</linearGradient>
<linearGradient id="paint3_linear_180_3040" x1="248.129" y1="241.858" x2="248.129" y2="323.825" gradientUnits="userSpaceOnUse">
<stop stop-color="#1F28FF" stop-opacity="0"/>
<stop offset="0.57" stop-color="#1F28FF"/>
</linearGradient>
<linearGradient id="paint4_linear_180_3040" x1="318.066" y1="210.246" x2="318.066" y2="323.825" gradientUnits="userSpaceOnUse">
<stop stop-color="#1F28FF" stop-opacity="0"/>
<stop offset="0.57" stop-color="#1F28FF"/>
</linearGradient>
<linearGradient id="paint5_linear_180_3040" x1="208.531" y1="256.667" x2="185.235" y2="176.798" gradientUnits="userSpaceOnUse">
<stop stop-color="#5229A1"/>
<stop offset="0.5" stop-color="#FFEDD5"/>
<stop offset="1" stop-color="#624F86"/>
</linearGradient>
</defs>
</svg>
