<svg width="46" height="57" viewBox="0 0 46 57" fill="none" xmlns="http://www.w3.org/2000/svg">
<path d="M16.8102 56.7402C17.1169 56.8474 17.4354 56.907 17.7657 56.907H17.2585C17.0815 56.907 16.9281 56.8474 16.8102 56.7402Z" fill="#5128A0"/>
<path d="M45.0514 22.7533C45.0514 24.7546 44.7919 26.6964 44.3082 28.5429C43.8246 30.4013 43.1168 32.1524 42.2202 33.7845L29.8337 55.418C29.5742 55.8707 29.1967 56.2519 28.7603 56.502L22.5316 45.1373V45.1254C22.5316 45.1254 32.8537 26.3986 32.8537 26.3867C33.3138 25.0525 33.4435 23.7182 33.4435 22.7533C33.4435 16.6778 28.5479 11.734 22.5316 11.734V0C34.9653 0 45.0514 10.1854 45.0514 22.7533Z" fill="#5229A1"/>
<path d="M22.5316 45.1373V45.1254C22.5316 45.1254 22.5198 45.1135 22.4962 45.0897L12.2449 26.3867C11.7613 25.0167 11.6197 23.7301 11.6197 22.7533C11.6197 16.6778 16.5153 11.734 22.5316 11.734V0C16.303 0 10.676 2.54932 6.59433 6.65921C2.52448 10.781 0 16.4634 0 22.7533C0 26.756 1.03811 30.5204 2.84299 33.7845L15.2177 55.418C15.5834 56.0494 16.1496 56.514 16.8102 56.7403C17.117 56.8475 17.4355 56.9071 17.7658 56.9071H27.2975C27.8165 56.9071 28.3238 56.7641 28.7603 56.502L22.5316 45.1373Z" fill="url(#paint0_linear)"/>
<defs>
<linearGradient id="paint0_linear" x1="14.3801" y1="0" x2="14.3801" y2="56.9071" gradientUnits="userSpaceOnUse">
<stop stop-color="#FF9600"/>
<stop offset="1" stop-color="#FF5129"/>
</linearGradient>
</defs>
</svg>
