<svg width="390" height="350" viewBox="0 0 390 350" fill="none" xmlns="http://www.w3.org/2000/svg">
    <g clip-path="url(#clip0_2091_49085)">
        <g style="mix-blend-mode:overlay">
            <path
                d="M278.209 74.7434L278.638 77.4531L284.15 76.58C284.373 76.5448 284.501 76.6323 284.534 76.8426L284.857 78.8842C284.893 79.1069 284.799 79.2359 284.576 79.2712L276.41 80.5646C276.187 80.5999 276.058 80.5061 276.023 80.2834L274.027 67.6814C273.992 67.4587 274.086 67.3297 274.308 67.2944L282.178 66.0481C282.4 66.0128 282.529 66.1065 282.565 66.3292L282.888 68.3708C282.921 68.5811 282.826 68.7039 282.604 68.7392L277.389 69.5652L277.791 72.1079L282.394 71.3789C282.617 71.3436 282.745 71.4311 282.778 71.6415L283.096 73.6459C283.129 73.8563 283.034 73.9791 282.811 74.0144L278.209 74.7434ZM289.714 78.4575L287.394 78.825C287.171 78.8602 287.042 78.7665 287.007 78.5438L285.011 65.9418C284.975 65.7191 285.069 65.5901 285.292 65.5548L287.612 65.1874C287.834 65.1521 287.963 65.2458 287.999 65.4685L288.74 70.1456L291.542 64.7742C291.619 64.6224 291.744 64.5328 291.918 64.5054L294.85 64.0409C294.986 64.0194 295.079 64.0428 295.127 64.1111C295.189 64.1775 295.185 64.2733 295.116 64.3983L291.557 70.5174L297.614 76.8067C297.716 76.892 297.749 76.9818 297.714 77.0763C297.688 77.1564 297.608 77.2072 297.471 77.2288L294.613 77.6815C294.452 77.707 294.311 77.6533 294.188 77.5205L290.044 73.0971L289.374 74.1544L289.995 78.0705C290.03 78.2933 289.936 78.4222 289.714 78.4575ZM300.488 76.751L298.001 77.1449C297.741 77.1861 297.635 77.0761 297.682 76.8149L299.986 63.4938C300.033 63.3088 300.137 63.2036 300.298 63.1781L303.119 62.7313C303.292 62.7038 303.423 62.7718 303.513 62.9352L309.82 74.8924C309.959 75.1242 309.892 75.2616 309.619 75.3047L307.151 75.6957C306.953 75.7271 306.808 75.6548 306.717 75.479L305.672 73.3235L301.162 74.0378L300.815 76.4138C300.795 76.6073 300.686 76.7197 300.488 76.751ZM302.186 66.2085C302.155 66.4163 302.058 67.161 301.893 68.4428C301.738 69.7102 301.612 70.6751 301.514 71.3375L304.502 70.8643C304.445 70.7464 303.698 69.1906 302.26 66.1967L302.186 66.2085ZM307.359 62.0597L317.121 60.5135C317.332 60.4802 317.454 60.5749 317.49 60.7976L317.825 62.9134C317.858 63.1238 317.77 63.2456 317.559 63.2789L314.163 63.8169L315.774 73.9876C315.809 74.2103 315.721 74.3383 315.511 74.3716L313.173 74.742C312.962 74.7753 312.839 74.6806 312.804 74.4579L311.193 64.2872L307.797 64.8251C307.574 64.8604 307.446 64.7729 307.413 64.5625L307.078 62.4467C307.042 62.224 307.136 62.095 307.359 62.0597ZM323.285 67.604L323.714 70.3137L329.226 69.4407C329.449 69.4054 329.577 69.4929 329.61 69.7033L329.934 71.7449C329.969 71.9676 329.875 72.0966 329.652 72.1318L321.486 73.4252C321.263 73.4605 321.134 73.3668 321.099 73.1441L319.103 60.5421C319.068 60.3194 319.162 60.1904 319.384 60.1551L327.254 58.9087C327.476 58.8734 327.605 58.9672 327.641 59.1899L327.964 61.2314C327.997 61.4418 327.903 61.5646 327.68 61.5999L322.465 62.4259L322.867 64.9686L327.47 64.2395C327.693 64.2043 327.821 64.2918 327.854 64.5021L328.172 66.5066C328.205 66.7169 328.11 66.8397 327.888 66.875L323.285 67.604ZM330.349 58.4184L335.268 57.6394C336.728 57.4082 337.952 57.6518 338.941 58.3703C339.928 59.0765 340.535 60.1472 340.763 61.5825C340.992 63.0301 340.747 64.2484 340.029 65.2374C339.308 66.214 338.218 66.8179 336.758 67.0492L334.494 67.4078L335.052 70.9341C335.087 71.1568 335 71.2849 334.79 71.3182L332.451 71.6886C332.241 71.7219 332.118 71.6272 332.083 71.4045L330.087 58.8024C330.051 58.5797 330.139 58.4517 330.349 58.4184ZM334.056 64.6424L335.912 64.3484C337.31 64.127 337.906 63.3667 337.7 62.0675C337.494 60.7683 336.693 60.2295 335.294 60.4509L333.438 60.7449L334.056 64.6424ZM354.068 68.2648L351.766 68.6293C351.556 68.6626 351.433 68.5679 351.398 68.3452L350.937 65.4313C350.695 63.9094 350.515 62.1306 350.396 60.0948L350.337 60.0851C349.911 61.8013 349.422 63.3565 348.869 64.7504L347.091 69.1415C347.028 69.3037 346.91 69.3985 346.737 69.4259L344.268 69.8169C344.058 69.8502 343.935 69.7555 343.9 69.5328L341.904 56.9308C341.869 56.7081 341.956 56.58 342.167 56.5467L344.468 56.1822C344.691 56.1469 344.82 56.2407 344.855 56.4634L345.381 59.7856C345.628 61.3446 345.822 63.0072 345.962 64.7733L346.02 64.7831C346.243 63.9487 346.696 62.5199 347.377 60.4968L349.162 55.6671C349.212 55.5069 349.324 55.413 349.498 55.3856L351.966 54.9946C352.189 54.9594 352.318 55.0531 352.353 55.2758L354.349 67.8778C354.384 68.1005 354.291 68.2295 354.068 68.2648ZM363.033 58.5689L362.263 53.7063C362.227 53.4835 362.321 53.3545 362.544 53.3193L364.864 52.9518C365.087 52.9165 365.216 53.0103 365.251 53.233L367.247 65.835C367.282 66.0577 367.188 66.1867 366.966 66.222L364.646 66.5894C364.423 66.6247 364.294 66.531 364.259 66.3083L363.471 61.3343L359.295 61.9957L360.083 66.9697C360.118 67.1924 360.024 67.3214 359.802 67.3567L357.482 67.7241C357.259 67.7594 357.13 67.6657 357.095 67.4429L355.099 54.8409C355.063 54.6182 355.157 54.4892 355.38 54.4539L357.7 54.0865C357.923 54.0512 358.052 54.1449 358.087 54.3677L358.857 59.2303L363.033 58.5689ZM372.706 65.3127L370.386 65.6802C370.164 65.7155 370.035 65.6217 369.999 65.399L368.004 52.797C367.968 52.5743 368.062 52.4453 368.285 52.41L375.709 51.2342C375.931 51.1989 376.06 51.2926 376.096 51.5154L376.431 53.6312C376.464 53.8415 376.369 53.9643 376.147 53.9996L371.377 54.7551L372.988 64.9258C373.023 65.1485 372.929 65.2775 372.706 65.3127ZM381.408 55.4493L383.709 55.0848C386.889 54.5811 388.693 55.678 389.12 58.3753C389.342 59.7735 389.107 60.8951 388.416 61.7401C387.724 62.5727 386.623 63.1086 385.113 63.3477L380.065 64.1473C379.842 64.1825 379.713 64.0888 379.678 63.8661L377.682 51.2641C377.647 51.0414 377.741 50.9124 377.963 50.8771L386.334 49.5513C386.556 49.5161 386.685 49.6098 386.721 49.8325L387.029 51.7813C387.065 52.004 386.971 52.133 386.748 52.1683L381.032 53.0736L381.408 55.4493ZM382.299 61.0729L384.674 60.6966C385.776 60.5222 386.242 59.9029 386.073 58.8388C385.991 58.3192 385.795 57.9634 385.486 57.7714C385.187 57.5651 384.753 57.507 384.183 57.5971L381.808 57.9734L382.299 61.0729ZM395.481 61.7056L392.92 62.1112C392.809 62.1289 392.723 62.1107 392.664 62.0567C392.615 61.9883 392.607 61.8945 392.638 61.7753L393.703 57.6875L388.26 49.6267C388.122 49.395 388.183 49.2585 388.442 49.2173L391.004 48.8117C391.189 48.7823 391.333 48.8483 391.435 49.0098L394.639 54.2288L395.889 48.3043C395.936 48.1193 396.046 48.0131 396.219 47.9857L398.78 47.58C399.04 47.5388 399.146 47.6489 399.099 47.91L395.83 61.384C395.783 61.569 395.667 61.6762 395.481 61.7056ZM400.854 47.2515L405.773 46.4725C407.233 46.2413 408.457 46.4849 409.446 47.2034C410.433 47.9096 411.04 48.9803 411.268 50.4156C411.497 51.8632 411.252 53.0816 410.534 54.0705C409.813 55.0471 408.723 55.651 407.263 55.8823L404.999 56.2409L405.557 59.7672C405.592 59.99 405.505 60.118 405.295 60.1513L402.956 60.5217C402.746 60.555 402.623 60.4603 402.588 60.2376L400.592 47.6356C400.556 47.4128 400.644 47.2848 400.854 47.2515ZM404.561 53.4755L406.417 53.1816C407.815 52.9601 408.411 52.1998 408.205 50.9006C407.999 49.6014 407.197 49.0626 405.799 49.284L403.943 49.578L404.561 53.4755ZM417.112 58.2796L414.792 58.6471C414.569 58.6823 414.44 58.5886 414.405 58.3659L412.409 45.7639C412.374 45.5412 412.467 45.4122 412.69 45.3769L420.114 44.2011C420.337 44.1658 420.466 44.2595 420.501 44.4822L420.836 46.598C420.869 46.8084 420.775 46.9312 420.552 46.9665L415.782 47.7219L417.393 57.8926C417.428 58.1153 417.335 58.2443 417.112 58.2796ZM432.952 54.6484C431.882 55.7437 430.549 56.4177 428.953 56.6705C427.283 56.9351 425.891 56.7179 424.778 56.019C423.676 55.3057 423 54.1572 422.749 52.5734L422.134 48.6945C421.884 47.1107 422.173 45.8155 423.003 44.8089C423.845 43.8004 425.083 43.1667 426.716 42.908C428.238 42.667 429.625 42.8533 430.876 43.4668C431.079 43.5488 431.133 43.6862 431.037 43.879L430.149 45.8459C430.053 46.0387 429.903 46.0941 429.7 46.0122C428.937 45.6765 428.11 45.5792 427.219 45.7203C426.452 45.8418 425.89 46.14 425.534 46.615C425.188 47.0756 425.069 47.6461 425.177 48.3267L425.753 51.9644C425.867 52.682 426.166 53.2055 426.649 53.5348C427.13 53.8517 427.755 53.9494 428.522 53.8279C429.475 53.677 430.293 53.281 430.978 52.6398C431.142 52.4743 431.295 52.4756 431.435 52.6435L432.905 54.2371C433.057 54.3907 433.072 54.5278 432.952 54.6484ZM437.575 55.0386L435.255 55.4061C435.032 55.4413 434.903 55.3476 434.868 55.1249L432.872 42.5229C432.836 42.3002 432.93 42.1712 433.153 42.1359L435.473 41.7685C435.696 41.7332 435.825 41.8269 435.86 42.0496L436.601 46.7267L439.403 41.3553C439.48 41.2035 439.605 41.1139 439.779 41.0865L442.711 40.622C442.847 40.6005 442.94 40.6239 442.989 40.6922C443.05 40.7586 443.046 40.8544 442.977 40.9795L439.418 47.0985L445.475 53.3878C445.577 53.4731 445.611 53.5629 445.575 53.6574C445.549 53.7375 445.469 53.7883 445.333 53.8099L442.474 54.2626C442.314 54.2881 442.172 54.2344 442.049 54.1016L437.905 49.6782L437.236 50.7356L437.856 54.6516C437.891 54.8744 437.797 55.0034 437.575 55.0386ZM456.998 51.9623L454.696 52.3268C454.486 52.3601 454.363 52.2654 454.328 52.0427L453.867 49.1288C453.626 47.6069 453.445 45.8281 453.326 43.7923L453.267 43.7825C452.841 45.4988 452.352 47.054 451.799 48.4479L450.021 52.839C449.958 53.0012 449.84 53.096 449.667 53.1234L447.198 53.5144C446.988 53.5477 446.865 53.453 446.83 53.2303L444.834 40.6283C444.799 40.4055 444.886 40.2775 445.097 40.2442L447.398 39.8797C447.621 39.8444 447.75 39.9382 447.785 40.1609L448.311 43.483C448.558 45.0421 448.752 46.7046 448.892 48.4708L448.95 48.4806C449.173 47.6462 449.626 46.2174 450.307 44.1943L452.092 39.3646C452.142 39.2044 452.254 39.1105 452.428 39.0831L454.896 38.6921C455.119 38.6568 455.248 38.7506 455.283 38.9733L457.279 51.5753C457.314 51.798 457.221 51.927 456.998 51.9623ZM466.173 33.5006C466.16 33.3378 466.049 33.2411 465.841 33.2106L464.267 33.1176C464.071 33.0851 463.959 33.1789 463.931 33.3991C463.842 33.9585 463.482 34.2883 462.851 34.3882C462.232 34.4862 461.794 34.2829 461.536 33.7783C461.441 33.5777 461.306 33.5231 461.13 33.6143L459.661 34.1895C459.45 34.299 459.383 34.4364 459.46 34.6018C459.716 35.335 460.169 35.8783 460.822 36.2316C461.472 36.5726 462.261 36.6695 463.189 36.5226C464.129 36.3736 464.855 36.0304 465.366 35.4928C465.887 34.941 466.156 34.2769 466.173 33.5006ZM467.891 50.2369C467.681 50.2703 467.558 50.1756 467.523 49.9528L467.061 47.039C466.82 45.5171 466.64 43.7382 466.52 41.7024L466.462 41.6927C466.036 43.409 465.547 44.9641 464.994 46.3581L463.216 50.7491C463.153 50.9113 463.035 51.0061 462.862 51.0336L460.393 51.4245C460.183 51.4578 460.06 51.3631 460.025 51.1404L458.029 38.5384C457.993 38.3157 458.081 38.1877 458.291 38.1544L460.593 37.7899C460.815 37.7546 460.944 37.8483 460.98 38.071L461.506 41.3932C461.753 42.9522 461.946 44.6148 462.087 46.381L462.145 46.3907C462.368 45.5563 462.821 44.1276 463.502 42.1044L465.287 37.2747C465.337 37.1145 465.449 37.0207 465.622 36.9932L468.091 36.6023C468.314 36.567 468.443 36.6607 468.478 36.8834L470.474 49.4855C470.509 49.7082 470.415 49.8372 470.193 49.8724L467.891 50.2369ZM284.234 106.662L281.198 107.143C280.901 107.19 280.73 107.065 280.683 106.769L278.028 90.0061C277.981 89.7098 278.106 89.5383 278.402 89.4913L281.907 88.9361C282.138 88.8996 282.319 88.9805 282.452 89.1788L285.354 93.1225C286.108 94.1505 287.105 95.6543 288.346 97.6341L288.445 97.6184C288.823 95.9558 289.299 94.2187 289.872 92.407L291.438 87.7556C291.503 87.526 291.651 87.3929 291.881 87.3564L295.387 86.8012C295.667 86.7569 295.83 86.8828 295.877 87.1791L298.532 103.942C298.579 104.238 298.462 104.408 298.183 104.453L295.121 104.938C294.825 104.985 294.653 104.86 294.606 104.564L294.09 101.305C293.712 98.9184 293.378 96.272 293.086 93.3657L292.983 93.3567C292.609 94.9344 292.122 96.7071 291.523 98.6747L290.7 101.31C290.635 101.54 290.488 101.673 290.257 101.709L287.887 102.085C287.64 102.124 287.459 102.043 287.343 101.842L285.721 99.5936C284.543 97.9075 283.532 96.372 282.689 94.9872L282.594 95.0275C283.215 97.8817 283.714 100.502 284.092 102.888L284.608 106.147C284.655 106.443 284.53 106.615 284.234 106.662ZM305.095 95.9936L305.666 99.598L312.998 98.4367C313.294 98.3898 313.465 98.5062 313.509 98.786L313.939 101.502C313.986 101.798 313.861 101.969 313.565 102.016L302.703 103.737C302.406 103.784 302.235 103.659 302.188 103.363L299.533 86.6C299.486 86.3038 299.611 86.1322 299.907 86.0853L310.374 84.4274C310.671 84.3805 310.842 84.5051 310.889 84.8014L311.319 87.517C311.364 87.7968 311.238 87.9601 310.941 88.0071L304.004 89.1058L304.54 92.488L310.662 91.5183C310.959 91.4714 311.129 91.5878 311.173 91.8676L311.595 94.5338C311.64 94.8136 311.514 94.977 311.218 95.0239L305.095 95.9936ZM312.986 84.0137L325.972 81.957C326.252 81.9127 326.415 82.0386 326.462 82.3349L326.908 85.1493C326.952 85.429 326.834 85.5911 326.554 85.6354L322.037 86.351L324.179 99.8797C324.226 100.176 324.11 100.346 323.83 100.391L320.719 100.883C320.44 100.928 320.276 100.802 320.229 100.505L318.087 86.9766L313.569 87.6921C313.273 87.7391 313.102 87.6226 313.058 87.3428L312.612 84.5285C312.565 84.2322 312.69 84.0606 312.986 84.0137ZM328.957 81.4841L335.5 80.4479C337.442 80.1403 339.071 80.4644 340.386 81.4202C341.699 82.3595 342.507 83.7837 342.809 85.6929C343.114 87.6185 342.789 89.239 341.833 90.5545C340.874 91.8536 339.424 92.6569 337.482 92.9645L334.47 93.4415L335.213 98.1321C335.26 98.4284 335.144 98.5987 334.864 98.643L331.753 99.1356C331.473 99.18 331.31 99.054 331.263 98.7577L328.608 81.9949C328.561 81.6987 328.678 81.5284 328.957 81.4841ZM333.888 89.7631L336.356 89.3721C338.216 89.0775 339.009 88.0662 338.735 86.338C338.462 84.6099 337.395 83.8931 335.535 84.1877L333.067 84.5787L333.888 89.7631ZM359.814 87.8078C360.163 90.0132 359.802 91.8335 358.73 93.2686C357.658 94.7037 355.987 95.6011 353.716 95.9608C351.461 96.3179 349.602 95.9797 348.139 94.946C346.677 93.9124 345.77 92.2928 345.421 90.0874L344.745 85.8165C344.398 83.6275 344.761 81.8155 345.832 80.3804C346.904 78.9453 348.567 78.0492 350.822 77.6921C353.093 77.3324 354.96 77.6693 356.423 78.703C357.883 79.7202 358.788 81.3315 359.138 83.5369L359.814 87.8078ZM349.458 89.3721C349.81 91.594 351.031 92.5394 353.121 92.2083C355.212 91.8773 356.081 90.6008 355.729 88.3789L355.076 84.2561C354.726 82.0507 353.507 81.1135 351.417 81.4446C349.326 81.7756 348.456 83.0439 348.805 85.2493L349.458 89.3721ZM367.508 93.4727L364.397 93.9653C364.101 94.0123 363.929 93.8876 363.882 93.5914L361.227 76.8286C361.181 76.5323 361.305 76.3607 361.601 76.3138L374.241 74.3118C374.538 74.2649 374.709 74.3896 374.756 74.6858L377.411 91.4486C377.458 91.7449 377.333 91.9164 377.037 91.9634L373.951 92.4521C373.655 92.4991 373.483 92.3744 373.437 92.0781L371.294 78.5494L365.714 79.4331L367.857 92.9618C367.904 93.2581 367.788 93.4284 367.508 93.4727ZM393.904 82.4085C394.253 84.6139 393.892 86.4342 392.82 87.8693C391.748 89.3044 390.077 90.2018 387.806 90.5615C385.551 90.9186 383.692 90.5804 382.229 89.5467C380.766 88.513 379.86 86.8935 379.511 84.6881L378.835 80.4172C378.488 78.2282 378.85 76.4162 379.922 74.9811C380.994 73.546 382.657 72.6499 384.912 72.2928C387.183 71.933 389.05 72.27 390.513 73.3037C391.973 74.3208 392.878 75.9322 393.227 78.1376L393.904 82.4085ZM383.548 83.9728C383.9 86.1947 385.121 87.1401 387.211 86.809C389.301 86.4779 390.171 85.2015 389.819 82.9796L389.166 78.8568C388.816 76.6514 387.597 75.7142 385.506 76.0453C383.416 76.3763 382.546 77.6446 382.895 79.85L383.548 83.9728ZM401.965 82.6755C401.787 84.6438 401.285 86.1068 400.458 87.0644C399.631 88.0221 398.399 88.6559 396.761 88.966C396.465 89.0129 396.294 88.8965 396.25 88.6167L395.8 85.7776C395.759 85.5143 395.875 85.344 396.15 85.2668C396.781 85.0993 397.236 84.7742 397.514 84.2915C397.805 83.7898 397.976 83.0036 398.026 81.9328C398.159 80.0053 397.909 76.4007 397.275 71.1192C397.244 70.8204 397.377 70.6475 397.673 70.6006L408.412 68.8997C408.692 68.8554 408.856 68.9813 408.902 69.2776L411.557 86.0404C411.604 86.3366 411.488 86.5069 411.208 86.5512L408.098 87.0439C407.818 87.0882 407.654 86.9622 407.607 86.666L405.469 73.1619L401.593 73.7758C402.017 77.5215 402.141 80.488 401.965 82.6755ZM428.735 83.7752L425.674 84.2601C425.394 84.3044 425.231 84.1784 425.184 83.8821L424.57 80.0062C424.249 77.9818 424.01 75.6157 423.851 72.9077L423.773 72.8948C423.206 75.1777 422.556 77.2463 421.82 79.1005L419.455 84.9413C419.371 85.1571 419.214 85.2832 418.984 85.3197L415.7 85.8397C415.421 85.8841 415.257 85.7581 415.21 85.4618L412.555 68.699C412.508 68.4028 412.625 68.2325 412.905 68.1882L415.966 67.7033C416.262 67.6564 416.434 67.7811 416.481 68.0773L417.18 72.4964C417.509 74.5701 417.766 76.7817 417.953 79.131L418.031 79.1439C418.328 78.034 418.929 76.1335 419.836 73.4424L422.209 67.0181C422.277 66.805 422.426 66.6802 422.656 66.6437L425.94 66.1236C426.236 66.0767 426.407 66.2014 426.454 66.4976L429.109 83.2604C429.156 83.5567 429.032 83.7283 428.735 83.7752ZM428.95 65.6469L441.935 63.5901C442.215 63.5458 442.379 63.6718 442.426 63.968L442.871 66.7824C442.916 67.0622 442.798 67.2243 442.518 67.2686L438 67.9841L440.143 81.5129C440.19 81.8091 440.074 81.9794 439.794 82.0237L436.683 82.5164C436.403 82.5607 436.24 82.4347 436.193 82.1385L434.05 68.6097L429.532 69.3253C429.236 69.3722 429.066 69.2558 429.022 68.976L428.576 66.1616C428.529 65.8654 428.654 65.6938 428.95 65.6469ZM450.134 73.0217L450.705 76.6261L458.037 75.4648C458.333 75.4178 458.504 75.5343 458.548 75.8141L458.978 78.5297C459.025 78.8259 458.9 78.9975 458.604 79.0445L447.742 80.7649C447.445 80.8118 447.274 80.6872 447.227 80.3909L444.572 63.6281C444.525 63.3319 444.65 63.1603 444.946 63.1134L455.413 61.4555C455.71 61.4085 455.881 61.5332 455.928 61.8295L456.358 64.5451C456.402 64.8249 456.277 64.9882 455.98 65.0351L449.043 66.1339L449.579 69.5161L455.701 68.5464C455.998 68.4994 456.168 68.6159 456.212 68.8957L456.634 71.5619C456.679 71.8417 456.553 72.0051 456.257 72.052L450.134 73.0217ZM469.736 66.2729L468.711 59.8048C468.664 59.5086 468.789 59.337 469.085 59.2901L472.171 58.8013C472.467 58.7544 472.639 58.879 472.686 59.1753L475.341 75.9381C475.388 76.2343 475.263 76.4059 474.967 76.4528L471.881 76.9416C471.585 76.9885 471.413 76.8639 471.366 76.5676L470.318 69.9514L464.764 70.8311L465.811 77.4474C465.858 77.7436 465.734 77.9152 465.437 77.9621L462.352 78.4509C462.055 78.4978 461.884 78.3732 461.837 78.0769L459.182 61.3141C459.135 61.0179 459.26 60.8463 459.556 60.7994L462.642 60.3106C462.938 60.2637 463.11 60.3883 463.156 60.6846L464.181 67.1527L469.736 66.2729ZM285.718 122.152L286.147 124.862L291.659 123.989C291.882 123.954 292.01 124.041 292.043 124.252L292.366 126.293C292.402 126.516 292.308 126.645 292.085 126.68L283.919 127.974C283.696 128.009 283.567 127.915 283.532 127.692L281.536 115.09C281.501 114.868 281.594 114.739 281.817 114.703L289.686 113.457C289.909 113.422 290.038 113.516 290.073 113.738L290.397 115.78C290.43 115.99 290.335 116.113 290.113 116.148L284.897 116.974L285.3 119.517L289.903 118.788C290.126 118.753 290.254 118.84 290.287 119.051L290.604 121.055C290.638 121.265 290.543 121.388 290.32 121.423L285.718 122.152ZM297.222 125.867L294.902 126.234C294.68 126.269 294.551 126.176 294.515 125.953L292.519 113.351C292.484 113.128 292.578 112.999 292.801 112.964L295.121 112.596C295.343 112.561 295.472 112.655 295.508 112.878L296.248 117.555L299.05 112.183C299.128 112.031 299.253 111.942 299.426 111.914L302.359 111.45C302.495 111.428 302.587 111.452 302.636 111.52C302.698 111.587 302.694 111.682 302.625 111.807L299.066 117.926L305.123 124.216C305.225 124.301 305.258 124.391 305.223 124.485C305.197 124.565 305.116 124.616 304.98 124.638L302.122 125.091C301.961 125.116 301.82 125.062 301.697 124.93L297.553 120.506L296.883 121.563L297.504 125.48C297.539 125.702 297.445 125.831 297.222 125.867ZM307.997 124.16L305.51 124.554C305.25 124.595 305.144 124.485 305.191 124.224L307.495 110.903C307.542 110.718 307.646 110.613 307.807 110.587L310.628 110.14C310.801 110.113 310.932 110.181 311.022 110.344L317.329 122.301C317.467 122.533 317.4 122.671 317.128 122.714L314.66 123.105C314.462 123.136 314.317 123.064 314.226 122.888L313.181 120.733L308.671 121.447L308.324 123.823C308.304 124.016 308.195 124.129 307.997 124.16ZM309.695 113.618C309.664 113.825 309.566 114.57 309.402 115.852C309.247 117.119 309.121 118.084 309.023 118.747L312.011 118.273C311.954 118.155 311.207 116.6 309.769 113.606L309.695 113.618ZM314.868 109.469L324.63 107.923C324.84 107.889 324.963 107.984 324.998 108.207L325.334 110.322C325.367 110.533 325.278 110.655 325.068 110.688L321.672 111.226L323.282 121.397C323.318 121.619 323.23 121.747 323.02 121.781L320.681 122.151C320.471 122.184 320.348 122.09 320.313 121.867L318.702 111.696L315.306 112.234C315.083 112.269 314.955 112.182 314.922 111.972L314.586 109.856C314.551 109.633 314.645 109.504 314.868 109.469ZM330.794 115.013L331.223 117.723L336.735 116.85C336.958 116.814 337.086 116.902 337.119 117.112L337.442 119.154C337.478 119.377 337.384 119.506 337.161 119.541L328.995 120.834C328.772 120.87 328.643 120.776 328.608 120.553L326.612 107.951C326.577 107.728 326.67 107.599 326.893 107.564L334.762 106.318C334.985 106.282 335.114 106.376 335.149 106.599L335.473 108.64C335.506 108.851 335.411 108.974 335.189 109.009L329.973 109.835L330.376 112.378L334.979 111.649C335.202 111.613 335.33 111.701 335.363 111.911L335.68 113.916C335.714 114.126 335.619 114.249 335.396 114.284L330.794 115.013ZM337.858 105.827L342.776 105.048C344.236 104.817 345.461 105.061 346.45 105.779C347.437 106.486 348.044 107.556 348.271 108.992C348.501 110.439 348.256 111.657 347.538 112.646C346.817 113.623 345.727 114.227 344.267 114.458L342.003 114.817L342.561 118.343C342.596 118.566 342.509 118.694 342.298 118.727L339.96 119.098C339.75 119.131 339.627 119.036 339.592 118.813L337.596 106.211C337.56 105.989 337.648 105.861 337.858 105.827ZM341.565 112.051L343.421 111.757C344.819 111.536 345.415 110.776 345.209 109.477C345.003 108.177 344.201 107.639 342.803 107.86L340.947 108.154L341.565 112.051ZM361.577 115.674L359.275 116.038C359.065 116.072 358.942 115.977 358.907 115.754L358.445 112.84C358.204 111.318 358.024 109.54 357.905 107.504L357.846 107.494C357.42 109.21 356.931 110.766 356.378 112.159L354.6 116.551C354.537 116.713 354.419 116.808 354.246 116.835L351.777 117.226C351.567 117.259 351.444 117.165 351.409 116.942L349.413 104.34C349.378 104.117 349.465 103.989 349.675 103.956L351.977 103.591C352.2 103.556 352.329 103.65 352.364 103.872L352.89 107.195C353.137 108.754 353.33 110.416 353.471 112.182L353.529 112.192C353.752 111.358 354.205 109.929 354.886 107.906L356.671 103.076C356.721 102.916 356.833 102.822 357.006 102.795L359.475 102.404C359.698 102.368 359.827 102.462 359.862 102.685L361.858 115.287C361.893 115.51 361.799 115.639 361.577 115.674ZM370.542 105.978L369.772 101.115C369.736 100.893 369.83 100.764 370.053 100.728L372.373 100.361C372.595 100.326 372.724 100.419 372.76 100.642L374.756 113.244C374.791 113.467 374.697 113.596 374.475 113.631L372.155 113.998C371.932 114.034 371.803 113.94 371.768 113.717L370.98 108.743L366.804 109.405L367.592 114.379C367.627 114.601 367.533 114.73 367.31 114.766L364.991 115.133C364.768 115.168 364.639 115.075 364.604 114.852L362.608 102.25C362.572 102.027 362.666 101.898 362.889 101.863L365.209 101.496C365.431 101.46 365.56 101.554 365.596 101.777L366.366 106.639L370.542 105.978ZM380.215 112.722L377.895 113.089C377.673 113.124 377.544 113.031 377.508 112.808L375.512 100.206C375.477 99.9833 375.571 99.8543 375.794 99.8191L383.217 98.6432C383.44 98.608 383.569 98.7017 383.604 98.9244L383.939 101.04C383.973 101.251 383.878 101.373 383.655 101.409L378.886 102.164L380.496 112.335C380.532 112.558 380.438 112.687 380.215 112.722ZM388.917 102.858L391.218 102.494C394.398 101.99 396.202 103.087 396.629 105.784C396.85 107.183 396.616 108.304 395.925 109.149C395.233 109.982 394.132 110.518 392.622 110.757L387.574 111.556C387.351 111.592 387.222 111.498 387.187 111.275L385.191 98.6731C385.156 98.4504 385.249 98.3214 385.472 98.2861L393.843 96.9604C394.065 96.9251 394.194 97.0188 394.229 97.2415L394.538 99.1903C394.573 99.413 394.48 99.542 394.257 99.5773L388.541 100.483L388.917 102.858ZM389.808 108.482L392.183 108.106C393.284 107.931 393.751 107.312 393.582 106.248C393.5 105.728 393.304 105.372 392.995 105.18C392.696 104.974 392.261 104.916 391.692 105.006L389.317 105.382L389.808 108.482ZM402.99 109.115L400.429 109.52C400.317 109.538 400.232 109.52 400.173 109.466C400.124 109.397 400.115 109.304 400.147 109.184L401.212 105.097L395.769 97.0358C395.631 96.804 395.692 96.6675 395.951 96.6264L398.513 96.2207C398.698 96.1913 398.842 96.2574 398.943 96.4188L402.148 101.638L403.398 95.7133C403.445 95.5283 403.555 95.4221 403.728 95.3947L406.289 94.989C406.549 94.9479 406.655 95.0579 406.608 95.3191L403.339 108.793C403.292 108.978 403.176 109.085 402.99 109.115ZM408.363 94.6605L413.281 93.8816C414.741 93.6503 415.966 93.894 416.955 94.6125C417.942 95.3186 418.549 96.3893 418.776 97.8246C419.006 99.2723 418.761 100.491 418.043 101.48C417.322 102.456 416.232 103.06 414.772 103.291L412.508 103.65L413.066 107.176C413.101 107.399 413.014 107.527 412.803 107.56L410.465 107.931C410.255 107.964 410.132 107.869 410.096 107.647L408.101 95.0446C408.065 94.8219 408.153 94.6939 408.363 94.6605ZM412.07 100.885L413.925 100.591C415.324 100.369 415.92 99.6088 415.714 98.3097C415.508 97.0105 414.706 96.4716 413.308 96.6931L411.452 96.987L412.07 100.885ZM424.621 105.689L422.301 106.056C422.078 106.091 421.949 105.998 421.914 105.775L419.918 93.1729C419.883 92.9502 419.976 92.8212 420.199 92.7859L427.623 91.6101C427.846 91.5748 427.975 91.6686 428.01 91.8913L428.345 94.0071C428.378 94.2174 428.284 94.3402 428.061 94.3755L423.291 95.131L424.902 105.302C424.937 105.524 424.843 105.653 424.621 105.689ZM440.46 102.057C439.391 103.153 438.058 103.827 436.462 104.08C434.792 104.344 433.4 104.127 432.287 103.428C431.185 102.715 430.508 101.566 430.258 99.9825L429.643 96.1035C429.392 94.5197 429.682 93.2246 430.512 92.218C431.354 91.2094 432.592 90.5758 434.225 90.3171C435.747 90.076 437.134 90.2623 438.385 90.8758C438.588 90.9578 438.642 91.0952 438.545 91.288L437.658 93.2549C437.562 93.4478 437.412 93.5032 437.209 93.4212C436.446 93.0855 435.618 92.9882 434.728 93.1293C433.96 93.2508 433.399 93.5491 433.043 94.024C432.697 94.4846 432.578 95.0552 432.686 95.7357L433.262 99.3734C433.376 100.091 433.674 100.615 434.158 100.944C434.639 101.261 435.264 101.358 436.031 101.237C436.983 101.086 437.802 100.69 438.487 100.049C438.651 99.8834 438.803 99.8846 438.944 100.053L440.414 101.646C440.565 101.8 440.581 101.937 440.46 102.057ZM445.083 102.448L442.764 102.815C442.541 102.85 442.412 102.757 442.377 102.534L440.381 89.9319C440.345 89.7092 440.439 89.5802 440.662 89.5449L442.982 89.1775C443.204 89.1422 443.333 89.2359 443.369 89.4587L444.109 94.1357L446.912 88.7644C446.989 88.6126 447.114 88.523 447.288 88.4955L450.22 88.0311C450.356 88.0095 450.449 88.0329 450.497 88.1013C450.559 88.1677 450.555 88.2634 450.486 88.3885L446.927 94.5075L452.984 100.797C453.086 100.882 453.119 100.972 453.084 101.066C453.058 101.147 452.978 101.197 452.841 101.219L449.983 101.672C449.822 101.697 449.681 101.643 449.558 101.511L445.414 97.0873L444.744 98.1446L445.365 102.061C445.4 102.283 445.306 102.412 445.083 102.448ZM464.507 99.3713L462.205 99.7358C461.995 99.7691 461.872 99.6744 461.837 99.4517L461.375 96.5379C461.134 95.016 460.954 93.2371 460.835 91.2013L460.776 91.1916C460.35 92.9079 459.861 94.463 459.308 95.857L457.53 100.248C457.467 100.41 457.349 100.505 457.176 100.532L454.707 100.923C454.497 100.957 454.374 100.862 454.339 100.639L452.343 88.0373C452.308 87.8146 452.395 87.6866 452.605 87.6532L454.907 87.2887C455.13 87.2535 455.259 87.3472 455.294 87.5699L455.82 90.8921C456.067 92.4511 456.261 94.1137 456.401 95.8799L456.459 95.8896C456.682 95.0552 457.135 93.6264 457.816 91.6033L459.601 86.7736C459.651 86.6134 459.763 86.5196 459.937 86.4921L462.405 86.1012C462.628 86.0659 462.757 86.1596 462.792 86.3823L464.788 98.9843C464.823 99.2071 464.729 99.336 464.507 99.3713ZM473.682 80.9096C473.668 80.7468 473.558 80.6501 473.35 80.6196L471.775 80.5266C471.58 80.4941 471.468 80.588 471.44 80.8081C471.351 81.3676 470.991 81.6973 470.36 81.7972C469.741 81.8952 469.303 81.6919 469.045 81.1873C468.95 80.9868 468.815 80.9321 468.639 81.0234L467.17 81.5985C466.959 81.708 466.892 81.8455 466.969 82.0108C467.224 82.744 467.678 83.2873 468.33 83.6406C468.981 83.9816 469.77 84.0786 470.698 83.9316C471.638 83.7827 472.364 83.4394 472.875 82.9019C473.396 82.35 473.665 81.6859 473.682 80.9096ZM475.4 97.646C475.19 97.6793 475.067 97.5846 475.032 97.3619L474.57 94.448C474.329 92.9261 474.149 91.1473 474.029 89.1115L473.971 89.1017C473.545 90.818 473.056 92.3732 472.503 93.7671L470.725 98.1582C470.662 98.3204 470.544 98.4152 470.37 98.4426L467.902 98.8336C467.692 98.8669 467.569 98.7722 467.534 98.5495L465.538 85.9475C465.502 85.7247 465.59 85.5967 465.8 85.5634L468.102 85.1989C468.324 85.1636 468.453 85.2573 468.489 85.4801L469.015 88.8022C469.262 90.3613 469.455 92.0238 469.595 93.79L469.654 93.7997C469.877 92.9654 470.329 91.5366 471.011 89.5134L472.795 84.6838C472.846 84.5235 472.958 84.4297 473.131 84.4023L475.6 84.0113C475.822 83.976 475.951 84.0698 475.987 84.2925L477.983 96.8945C478.018 97.1172 477.924 97.2462 477.702 97.2815L475.4 97.646ZM291.743 154.071L288.706 154.552C288.41 154.599 288.239 154.474 288.192 154.178L285.537 137.415C285.49 137.119 285.614 136.947 285.911 136.9L289.416 136.345C289.647 136.309 289.828 136.39 289.961 136.588L292.863 140.532C293.616 141.56 294.614 143.063 295.855 145.043L295.954 145.027C296.332 143.365 296.807 141.628 297.381 139.816L298.947 135.165C299.012 134.935 299.16 134.802 299.39 134.765L302.896 134.21C303.175 134.166 303.339 134.292 303.386 134.588L306.041 151.351C306.088 151.647 305.971 151.817 305.691 151.862L302.63 152.347C302.334 152.394 302.162 152.269 302.115 151.973L301.599 148.714C301.221 146.327 300.886 143.681 300.595 140.775L300.492 140.766C300.118 142.343 299.631 144.116 299.032 146.084L298.209 148.719C298.144 148.949 297.996 149.082 297.766 149.119L295.396 149.494C295.149 149.533 294.968 149.452 294.851 149.251L293.23 147.003C292.052 145.317 291.041 143.781 290.198 142.396L290.103 142.437C290.723 145.291 291.223 147.911 291.601 150.297L292.117 153.556C292.164 153.852 292.039 154.024 291.743 154.071ZM312.604 143.403L313.175 147.007L320.507 145.846C320.803 145.799 320.974 145.915 321.018 146.195L321.448 148.911C321.495 149.207 321.37 149.378 321.074 149.425L310.211 151.146C309.915 151.193 309.744 151.068 309.697 150.772L307.042 134.009C306.995 133.713 307.119 133.541 307.416 133.494L317.883 131.836C318.179 131.789 318.351 131.914 318.398 132.21L318.828 134.926C318.872 135.206 318.746 135.369 318.45 135.416L311.513 136.515L312.049 139.897L318.171 138.927C318.467 138.88 318.638 138.997 318.682 139.277L319.104 141.943C319.149 142.223 319.023 142.386 318.726 142.433L312.604 143.403ZM320.495 131.423L333.481 129.366C333.761 129.322 333.924 129.448 333.971 129.744L334.417 132.558C334.461 132.838 334.343 133 334.063 133.044L329.546 133.76L331.688 147.289C331.735 147.585 331.619 147.755 331.339 147.8L328.228 148.292C327.949 148.337 327.785 148.211 327.738 147.914L325.596 134.386L321.078 135.101C320.781 135.148 320.611 135.032 320.567 134.752L320.121 131.937C320.074 131.641 320.199 131.47 320.495 131.423ZM336.466 128.893L343.009 127.857C344.951 127.549 346.579 127.873 347.895 128.829C349.208 129.769 350.015 131.193 350.318 133.102C350.623 135.028 350.297 136.648 349.342 137.964C348.383 139.263 346.933 140.066 344.991 140.374L341.979 140.851L342.722 145.541C342.769 145.837 342.652 146.008 342.373 146.052L339.262 146.545C338.982 146.589 338.819 146.463 338.772 146.167L336.117 129.404C336.07 129.108 336.187 128.937 336.466 128.893ZM341.396 137.172L343.865 136.781C345.725 136.487 346.518 135.475 346.244 133.747C345.971 132.019 344.904 131.302 343.044 131.597L340.575 131.988L341.396 137.172ZM367.323 135.217C367.672 137.422 367.311 139.243 366.239 140.678C365.167 142.113 363.496 143.01 361.225 143.37C358.97 143.727 357.111 143.389 355.648 142.355C354.185 141.321 353.279 139.702 352.93 137.496L352.254 133.226C351.907 131.037 352.269 129.225 353.341 127.789C354.413 126.354 356.076 125.458 358.331 125.101C360.602 124.741 362.469 125.078 363.932 126.112C365.392 127.129 366.297 128.741 366.646 130.946L367.323 135.217ZM356.967 136.781C357.319 139.003 358.54 139.948 360.63 139.617C362.72 139.286 363.59 138.01 363.238 135.788L362.585 131.665C362.235 129.46 361.016 128.523 358.925 128.854C356.835 129.185 355.965 130.453 356.314 132.658L356.967 136.781ZM375.017 140.882L371.906 141.374C371.61 141.421 371.438 141.297 371.391 141L368.736 124.238C368.689 123.941 368.814 123.77 369.11 123.723L381.75 121.721C382.047 121.674 382.218 121.799 382.265 122.095L384.92 138.858C384.967 139.154 384.842 139.325 384.546 139.372L381.46 139.861C381.164 139.908 380.992 139.783 380.945 139.487L378.803 125.958L373.223 126.842L375.366 140.371C375.413 140.667 375.296 140.837 375.017 140.882ZM401.413 129.818C401.762 132.023 401.401 133.843 400.329 135.278C399.257 136.713 397.586 137.611 395.314 137.971C393.06 138.328 391.201 137.989 389.738 136.956C388.275 135.922 387.369 134.303 387.02 132.097L386.343 127.826C385.997 125.637 386.359 123.825 387.431 122.39C388.503 120.955 390.166 120.059 392.421 119.702C394.692 119.342 396.559 119.679 398.022 120.713C399.482 121.73 400.387 123.341 400.736 125.547L401.413 129.818ZM391.057 131.382C391.409 133.604 392.63 134.549 394.72 134.218C396.81 133.887 397.679 132.611 397.328 130.389L396.675 126.266C396.325 124.06 395.106 123.123 393.015 123.454C390.925 123.785 390.055 125.054 390.404 127.259L391.057 131.382ZM409.474 130.085C409.296 132.053 408.794 133.516 407.967 134.473C407.14 135.431 405.908 136.065 404.27 136.375C403.973 136.422 403.803 136.306 403.759 136.026L403.309 133.187C403.267 132.923 403.384 132.753 403.658 132.676C404.29 132.508 404.745 132.183 405.022 131.701C405.314 131.199 405.485 130.413 405.535 129.342C405.668 127.414 405.418 123.81 404.784 118.528C404.753 118.229 404.886 118.057 405.182 118.01L415.921 116.309C416.201 116.264 416.364 116.39 416.411 116.687L419.066 133.449C419.113 133.746 418.997 133.916 418.717 133.96L415.606 134.453C415.327 134.497 415.163 134.371 415.116 134.075L412.977 120.571L409.102 121.185C409.526 124.931 409.65 127.897 409.474 130.085ZM436.244 131.184L433.183 131.669C432.903 131.713 432.74 131.587 432.693 131.291L432.079 127.415C431.758 125.391 431.519 123.025 431.36 120.317L431.282 120.304C430.715 122.587 430.064 124.655 429.329 126.51L426.964 132.35C426.88 132.566 426.723 132.692 426.493 132.729L423.209 133.249C422.929 133.293 422.766 133.167 422.719 132.871L420.064 116.108C420.017 115.812 420.134 115.642 420.413 115.597L423.475 115.112C423.771 115.065 423.943 115.19 423.989 115.486L424.689 119.905C425.018 121.979 425.275 124.191 425.462 126.54L425.54 126.553C425.836 125.443 426.438 123.543 427.345 120.851L429.718 114.427C429.786 114.214 429.935 114.089 430.165 114.053L433.448 113.533C433.745 113.486 433.916 113.61 433.963 113.907L436.618 130.669C436.665 130.966 436.54 131.137 436.244 131.184ZM436.459 113.056L449.444 110.999C449.724 110.955 449.887 111.081 449.934 111.377L450.38 114.191C450.424 114.471 450.307 114.633 450.027 114.678L445.509 115.393L447.652 128.922C447.699 129.218 447.582 129.388 447.303 129.433L444.192 129.925C443.912 129.97 443.749 129.844 443.702 129.548L441.559 116.019L437.041 116.734C436.745 116.781 436.575 116.665 436.53 116.385L436.085 113.571C436.038 113.274 436.162 113.103 436.459 113.056ZM457.643 120.431L458.214 124.035L465.546 122.874C465.842 122.827 466.012 122.943 466.057 123.223L466.487 125.939C466.534 126.235 466.409 126.407 466.113 126.453L455.25 128.174C454.954 128.221 454.783 128.096 454.736 127.8L452.081 111.037C452.034 110.741 452.158 110.569 452.455 110.522L462.922 108.865C463.218 108.818 463.39 108.942 463.437 109.238L463.867 111.954C463.911 112.234 463.785 112.397 463.489 112.444L456.552 113.543L457.088 116.925L463.21 115.955C463.506 115.908 463.677 116.025 463.721 116.305L464.143 118.971C464.188 119.251 464.062 119.414 463.765 119.461L457.643 120.431ZM477.244 113.682L476.22 107.214C476.173 106.918 476.298 106.746 476.594 106.699L479.68 106.21C479.976 106.163 480.148 106.288 480.195 106.584L482.85 123.347C482.897 123.643 482.772 123.815 482.476 123.862L479.39 124.351C479.093 124.398 478.922 124.273 478.875 123.977L477.827 117.36L472.272 118.24L473.32 124.856C473.367 125.153 473.243 125.324 472.946 125.371L469.86 125.86C469.564 125.907 469.393 125.782 469.346 125.486L466.691 108.723C466.644 108.427 466.768 108.255 467.065 108.208L470.151 107.72C470.447 107.673 470.618 107.797 470.665 108.094L471.69 114.562L477.244 113.682ZM293.226 169.561L293.656 172.271L299.168 171.398C299.39 171.363 299.518 171.45 299.552 171.661L299.875 173.702C299.91 173.925 299.817 174.054 299.594 174.089L291.428 175.383C291.205 175.418 291.076 175.324 291.041 175.102L289.045 162.499C289.01 162.277 289.103 162.148 289.326 162.113L297.195 160.866C297.418 160.831 297.547 160.925 297.582 161.147L297.906 163.189C297.939 163.399 297.844 163.522 297.621 163.557L292.406 164.383L292.809 166.926L297.412 166.197C297.634 166.162 297.762 166.249 297.796 166.46L298.113 168.464C298.147 168.674 298.052 168.797 297.829 168.832L293.226 169.561ZM304.731 173.276L302.411 173.643C302.189 173.678 302.06 173.585 302.024 173.362L300.028 160.76C299.993 160.537 300.087 160.408 300.31 160.373L302.629 160.005C302.852 159.97 302.981 160.064 303.016 160.287L303.757 164.964L306.559 159.592C306.637 159.441 306.762 159.351 306.935 159.323L309.868 158.859C310.004 158.837 310.096 158.861 310.145 158.929C310.206 158.996 310.203 159.091 310.134 159.216L306.575 165.335L312.632 171.625C312.734 171.71 312.767 171.8 312.731 171.894C312.706 171.974 312.625 172.025 312.489 172.047L309.631 172.5C309.47 172.525 309.328 172.471 309.206 172.339L305.062 167.915L304.392 168.973L305.012 172.889C305.048 173.111 304.954 173.24 304.731 173.276ZM315.506 171.569L313.019 171.963C312.759 172.004 312.653 171.894 312.7 171.633L315.004 158.312C315.051 158.127 315.155 158.022 315.316 157.996L318.137 157.549C318.31 157.522 318.441 157.59 318.53 157.753L324.838 169.71C324.976 169.942 324.909 170.08 324.637 170.123L322.169 170.514C321.971 170.545 321.826 170.473 321.735 170.297L320.689 168.142L316.179 168.856L315.833 171.232C315.813 171.425 315.704 171.538 315.506 171.569ZM317.203 161.027C317.173 161.234 317.075 161.979 316.91 163.261C316.756 164.528 316.63 165.493 316.532 166.156L319.52 165.682C319.463 165.564 318.716 164.009 317.278 161.015L317.203 161.027ZM322.377 156.878L332.139 155.332C332.349 155.298 332.472 155.393 332.507 155.616L332.842 157.732C332.876 157.942 332.787 158.064 332.577 158.097L329.18 158.635L330.791 168.806C330.827 169.028 330.739 169.156 330.529 169.19L328.19 169.56C327.98 169.593 327.857 169.499 327.822 169.276L326.211 159.105L322.815 159.643C322.592 159.678 322.464 159.591 322.43 159.381L322.095 157.265C322.06 157.042 322.154 156.913 322.377 156.878ZM338.302 162.422L338.732 165.132L344.244 164.259C344.467 164.223 344.595 164.311 344.628 164.521L344.951 166.563C344.986 166.786 344.893 166.915 344.67 166.95L336.504 168.243C336.281 168.279 336.152 168.185 336.117 167.962L334.121 155.36C334.086 155.137 334.179 155.008 334.402 154.973L342.271 153.727C342.494 153.692 342.623 153.785 342.658 154.008L342.982 156.05C343.015 156.26 342.92 156.383 342.698 156.418L337.482 157.244L337.885 159.787L342.488 159.058C342.711 159.022 342.839 159.11 342.872 159.32L343.189 161.325C343.223 161.535 343.128 161.658 342.905 161.693L338.302 162.422ZM345.367 153.236L350.285 152.457C351.745 152.226 352.97 152.47 353.959 153.188C354.946 153.895 355.553 154.965 355.78 156.401C356.01 157.848 355.765 159.067 355.046 160.055C354.326 161.032 353.236 161.636 351.776 161.867L349.511 162.226L350.07 165.752C350.105 165.975 350.018 166.103 349.807 166.136L347.469 166.507C347.258 166.54 347.136 166.445 347.1 166.223L345.104 153.621C345.069 153.398 345.157 153.27 345.367 153.236ZM349.073 159.46L350.929 159.167C352.328 158.945 352.924 158.185 352.718 156.886C352.512 155.586 351.71 155.048 350.312 155.269L348.456 155.563L349.073 159.46ZM369.086 163.083L366.784 163.447C366.574 163.481 366.451 163.386 366.416 163.163L365.954 160.249C365.713 158.728 365.533 156.949 365.413 154.913L365.355 154.903C364.929 156.619 364.44 158.175 363.887 159.569L362.109 163.96C362.046 164.122 361.928 164.217 361.755 164.244L359.286 164.635C359.076 164.668 358.953 164.574 358.918 164.351L356.922 151.749C356.886 151.526 356.974 151.398 357.184 151.365L359.486 151C359.708 150.965 359.837 151.059 359.873 151.281L360.399 154.604C360.646 156.163 360.839 157.825 360.98 159.591L361.038 159.601C361.261 158.767 361.713 157.338 362.395 155.315L364.179 150.485C364.23 150.325 364.342 150.231 364.515 150.204L366.984 149.813C367.207 149.777 367.335 149.871 367.371 150.094L369.367 162.696C369.402 162.919 369.308 163.048 369.086 163.083ZM378.051 153.387L377.28 148.524C377.245 148.302 377.339 148.173 377.562 148.137L379.882 147.77C380.104 147.735 380.233 147.828 380.269 148.051L382.265 160.653C382.3 160.876 382.206 161.005 381.983 161.04L379.663 161.408C379.441 161.443 379.312 161.349 379.276 161.126L378.489 156.152L374.313 156.814L375.101 161.788C375.136 162.01 375.042 162.139 374.819 162.175L372.499 162.542C372.277 162.577 372.148 162.484 372.112 162.261L370.116 149.659C370.081 149.436 370.175 149.307 370.398 149.272L372.718 148.905C372.94 148.869 373.069 148.963 373.105 149.186L373.875 154.048L378.051 153.387ZM387.724 160.131L385.404 160.498C385.181 160.534 385.052 160.44 385.017 160.217L383.021 147.615C382.986 147.392 383.08 147.263 383.302 147.228L390.726 146.052C390.949 146.017 391.078 146.111 391.113 146.333L391.448 148.449C391.482 148.66 391.387 148.782 391.164 148.818L386.394 149.573L388.005 159.744C388.041 159.967 387.947 160.096 387.724 160.131ZM396.426 150.267L398.727 149.903C401.907 149.399 403.711 150.496 404.138 153.193C404.359 154.592 404.125 155.713 403.434 156.558C402.742 157.391 401.64 157.927 400.131 158.166L395.083 158.965C394.86 159.001 394.731 158.907 394.696 158.684L392.7 146.082C392.665 145.859 392.758 145.73 392.981 145.695L401.351 144.369C401.574 144.334 401.703 144.428 401.738 144.651L402.047 146.599C402.082 146.822 401.989 146.951 401.766 146.986L396.049 147.892L396.426 150.267ZM397.316 155.891L399.692 155.515C400.793 155.34 401.26 154.721 401.091 153.657C401.009 153.137 400.813 152.781 400.503 152.589C400.204 152.383 399.77 152.325 399.201 152.415L396.826 152.791L397.316 155.891ZM410.499 156.524L407.938 156.929C407.826 156.947 407.741 156.929 407.682 156.875C407.633 156.806 407.624 156.713 407.656 156.593L408.721 152.506L403.278 144.445C403.14 144.213 403.2 144.077 403.46 144.035L406.021 143.63C406.207 143.6 406.351 143.666 406.452 143.828L409.657 149.047L410.907 143.122C410.953 142.937 411.063 142.831 411.237 142.804L413.798 142.398C414.058 142.357 414.164 142.467 414.117 142.728L410.847 156.202C410.801 156.387 410.684 156.494 410.499 156.524ZM415.872 142.07L420.79 141.291C422.25 141.059 423.475 141.303 424.464 142.022C425.451 142.728 426.058 143.798 426.285 145.234C426.515 146.681 426.27 147.9 425.551 148.889C424.831 149.865 423.741 150.469 422.281 150.7L420.016 151.059L420.575 154.585C420.61 154.808 420.523 154.936 420.312 154.969L417.974 155.34C417.763 155.373 417.641 155.278 417.605 155.056L415.609 142.454C415.574 142.231 415.662 142.103 415.872 142.07ZM419.578 148.294L421.434 148C422.833 147.778 423.429 147.018 423.223 145.719C423.017 144.42 422.215 143.881 420.817 144.102L418.961 144.396L419.578 148.294ZM432.13 153.098L429.81 153.465C429.587 153.5 429.458 153.407 429.423 153.184L427.427 140.582C427.391 140.359 427.485 140.23 427.708 140.195L435.132 139.019C435.354 138.984 435.483 139.078 435.519 139.3L435.854 141.416C435.887 141.626 435.792 141.749 435.57 141.785L430.8 142.54L432.411 152.711C432.446 152.933 432.352 153.062 432.13 153.098ZM447.969 149.466C446.9 150.562 445.567 151.236 443.971 151.489C442.3 151.753 440.909 151.536 439.796 150.837C438.694 150.124 438.017 148.975 437.766 147.392L437.152 143.513C436.901 141.929 437.191 140.634 438.021 139.627C438.863 138.618 440.101 137.985 441.734 137.726C443.256 137.485 444.642 137.671 445.894 138.285C446.097 138.367 446.151 138.504 446.054 138.697L445.167 140.664C445.071 140.857 444.921 140.912 444.718 140.83C443.954 140.495 443.127 140.397 442.236 140.538C441.469 140.66 440.908 140.958 440.552 141.433C440.206 141.894 440.087 142.464 440.195 143.145L440.771 146.782C440.885 147.5 441.183 148.024 441.667 148.353C442.148 148.67 442.772 148.768 443.54 148.646C444.492 148.495 445.311 148.099 445.996 147.458C446.16 147.292 446.312 147.294 446.453 147.462L447.923 149.055C448.074 149.209 448.09 149.346 447.969 149.466ZM452.592 149.857L450.272 150.224C450.05 150.259 449.921 150.166 449.885 149.943L447.889 137.341C447.854 137.118 447.948 136.989 448.171 136.954L450.491 136.587C450.713 136.551 450.842 136.645 450.878 136.868L451.618 141.545L454.42 136.173C454.498 136.022 454.623 135.932 454.796 135.905L457.729 135.44C457.865 135.419 457.957 135.442 458.006 135.51C458.068 135.577 458.064 135.672 457.995 135.798L454.436 141.917L460.493 148.206C460.595 148.291 460.628 148.381 460.592 148.475C460.567 148.556 460.486 148.606 460.35 148.628L457.492 149.081C457.331 149.106 457.19 149.052 457.067 148.92L452.923 144.496L452.253 145.554L452.873 149.47C452.909 149.692 452.815 149.821 452.592 149.857ZM472.016 146.78L469.714 147.145C469.504 147.178 469.381 147.083 469.346 146.861L468.884 143.947C468.643 142.425 468.463 140.646 468.343 138.61L468.285 138.601C467.859 140.317 467.37 141.872 466.817 143.266L465.039 147.657C464.976 147.819 464.858 147.914 464.685 147.941L462.216 148.332C462.006 148.366 461.883 148.271 461.848 148.048L459.852 135.446C459.816 135.224 459.904 135.096 460.114 135.062L462.416 134.698C462.638 134.663 462.767 134.756 462.803 134.979L463.329 138.301C463.576 139.86 463.769 141.523 463.91 143.289L463.968 143.299C464.191 142.464 464.643 141.035 465.325 139.012L467.109 134.183C467.16 134.022 467.272 133.929 467.445 133.901L469.914 133.51C470.137 133.475 470.266 133.569 470.301 133.791L472.297 146.393C472.332 146.616 472.238 146.745 472.016 146.78ZM481.19 128.319C481.177 128.156 481.067 128.059 480.859 128.029L479.284 127.936C479.089 127.903 478.977 127.997 478.948 128.217C478.859 128.777 478.499 129.106 477.868 129.206C477.25 129.304 476.812 129.101 476.554 128.596C476.459 128.396 476.324 128.341 476.148 128.432L474.679 129.008C474.468 129.117 474.401 129.254 474.478 129.42C474.733 130.153 475.187 130.696 475.839 131.05C476.489 131.391 477.278 131.488 478.206 131.341C479.147 131.192 479.872 130.848 480.383 130.311C480.905 129.759 481.174 129.095 481.19 128.319ZM482.909 145.055C482.699 145.088 482.576 144.994 482.541 144.771L482.079 141.857C481.838 140.335 481.658 138.556 481.538 136.521L481.48 136.511C481.054 138.227 480.564 139.782 480.012 141.176L478.234 145.567C478.171 145.729 478.053 145.824 477.879 145.852L475.411 146.243C475.201 146.276 475.078 146.181 475.042 145.959L473.046 133.356C473.011 133.134 473.099 133.006 473.309 132.972L475.61 132.608C475.833 132.573 475.962 132.666 475.997 132.889L476.524 136.211C476.771 137.77 476.964 139.433 477.104 141.199L477.163 141.209C477.386 140.374 477.838 138.946 478.52 136.922L480.304 132.093C480.355 131.933 480.467 131.839 480.64 131.811L483.109 131.42C483.331 131.385 483.46 131.479 483.496 131.702L485.492 144.304C485.527 144.526 485.433 144.655 485.21 144.691L482.909 145.055ZM299.252 201.48L296.215 201.961C295.919 202.008 295.747 201.883 295.7 201.587L293.046 184.824C292.999 184.528 293.123 184.356 293.419 184.309L296.925 183.754C297.156 183.718 297.337 183.799 297.47 183.997L300.372 187.941C301.125 188.969 302.123 190.472 303.364 192.452L303.463 192.437C303.841 190.774 304.316 189.037 304.89 187.225L306.456 182.574C306.521 182.344 306.668 182.211 306.899 182.174L310.404 181.619C310.684 181.575 310.848 181.701 310.895 181.997L313.55 198.76C313.596 199.056 313.48 199.226 313.2 199.271L310.139 199.756C309.843 199.803 309.671 199.678 309.624 199.382L309.108 196.123C308.73 193.736 308.395 191.09 308.104 188.184L308.001 188.175C307.627 189.752 307.14 191.525 306.54 193.493L305.718 196.128C305.653 196.358 305.505 196.491 305.275 196.528L302.905 196.903C302.658 196.942 302.477 196.861 302.36 196.66L300.739 194.412C299.561 192.726 298.55 191.19 297.706 189.805L297.612 189.846C298.232 192.7 298.732 195.32 299.11 197.707L299.626 200.965C299.673 201.262 299.548 201.433 299.252 201.48ZM320.113 190.812L320.684 194.416L328.016 193.255C328.312 193.208 328.482 193.324 328.527 193.604L328.957 196.32C329.004 196.616 328.879 196.788 328.583 196.834L317.72 198.555C317.424 198.602 317.252 198.477 317.206 198.181L314.551 181.418C314.504 181.122 314.628 180.95 314.925 180.903L325.392 179.245C325.688 179.199 325.86 179.323 325.907 179.619L326.337 182.335C326.381 182.615 326.255 182.778 325.959 182.825L319.022 183.924L319.558 187.306L325.68 186.336C325.976 186.289 326.147 186.406 326.191 186.686L326.613 189.352C326.658 189.632 326.532 189.795 326.235 189.842L320.113 190.812ZM328.004 178.832L340.99 176.775C341.269 176.731 341.433 176.857 341.48 177.153L341.925 179.967C341.97 180.247 341.852 180.409 341.572 180.453L337.054 181.169L339.197 194.698C339.244 194.994 339.128 195.164 338.848 195.209L335.737 195.701C335.457 195.746 335.294 195.62 335.247 195.323L333.104 181.795L328.587 182.51C328.29 182.557 328.12 182.441 328.076 182.161L327.63 179.347C327.583 179.05 327.708 178.879 328.004 178.832ZM343.975 176.302L350.517 175.266C352.459 174.958 354.088 175.282 355.404 176.238C356.717 177.178 357.524 178.602 357.827 180.511C358.132 182.437 357.806 184.057 356.85 185.373C355.892 186.672 354.442 187.475 352.5 187.783L349.488 188.26L350.231 192.95C350.278 193.246 350.161 193.417 349.882 193.461L346.771 193.954C346.491 193.998 346.328 193.872 346.281 193.576L343.626 176.813C343.579 176.517 343.695 176.346 343.975 176.302ZM348.905 184.581L351.374 184.19C353.234 183.896 354.027 182.884 353.753 181.156C353.479 179.428 352.413 178.711 350.553 179.006L348.084 179.397L348.905 184.581ZM374.832 182.626C375.181 184.831 374.82 186.652 373.748 188.087C372.676 189.522 371.005 190.419 368.733 190.779C366.479 191.136 364.62 190.798 363.157 189.764C361.694 188.73 360.788 187.111 360.439 184.905L359.762 180.635C359.416 178.446 359.778 176.634 360.85 175.198C361.922 173.763 363.585 172.867 365.84 172.51C368.111 172.15 369.978 172.487 371.441 173.521C372.901 174.538 373.806 176.15 374.155 178.355L374.832 182.626ZM364.476 184.19C364.828 186.412 366.049 187.357 368.139 187.026C370.229 186.695 371.098 185.419 370.747 183.197L370.094 179.074C369.744 176.869 368.524 175.932 366.434 176.263C364.344 176.594 363.474 177.862 363.823 180.067L364.476 184.19ZM382.526 188.291L379.415 188.783C379.119 188.83 378.947 188.706 378.9 188.409L376.245 171.647C376.198 171.35 376.323 171.179 376.619 171.132L389.259 169.13C389.555 169.083 389.727 169.208 389.774 169.504L392.429 186.267C392.476 186.563 392.351 186.735 392.055 186.781L388.969 187.27C388.673 187.317 388.501 187.192 388.454 186.896L386.311 173.367L380.732 174.251L382.875 187.78C382.922 188.076 382.805 188.246 382.526 188.291ZM408.922 177.227C409.271 179.432 408.91 181.252 407.838 182.687C406.766 184.122 405.095 185.02 402.823 185.38C400.569 185.737 398.71 185.398 397.247 184.365C395.784 183.331 394.878 181.712 394.529 179.506L393.852 175.235C393.506 173.046 393.868 171.234 394.94 169.799C396.012 168.364 397.675 167.468 399.93 167.111C402.201 166.751 404.068 167.088 405.531 168.122C406.991 169.139 407.896 170.75 408.245 172.956L408.922 177.227ZM398.566 178.791C398.918 181.013 400.139 181.958 402.229 181.627C404.319 181.296 405.188 180.02 404.836 177.798L404.183 173.675C403.834 171.469 402.614 170.532 400.524 170.863C398.434 171.194 397.564 172.463 397.913 174.668L398.566 178.791ZM416.982 177.494C416.805 179.462 416.303 180.925 415.476 181.883C414.649 182.84 413.417 183.474 411.779 183.784C411.482 183.831 411.312 183.715 411.268 183.435L410.818 180.596C410.776 180.332 410.893 180.162 411.167 180.085C411.799 179.917 412.253 179.592 412.531 179.11C412.823 178.608 412.994 177.822 413.043 176.751C413.177 174.823 412.926 171.219 412.292 165.937C412.262 165.638 412.395 165.466 412.691 165.419L423.43 163.718C423.71 163.673 423.873 163.799 423.92 164.096L426.575 180.858C426.622 181.155 426.506 181.325 426.226 181.369L423.115 181.862C422.835 181.906 422.672 181.78 422.625 181.484L420.486 167.98L416.61 168.594C417.035 172.34 417.159 175.306 416.982 177.494ZM443.753 178.593L440.692 179.078C440.412 179.122 440.249 178.996 440.202 178.7L439.588 174.824C439.267 172.8 439.027 170.434 438.868 167.726L438.79 167.713C438.224 169.996 437.573 172.064 436.838 173.919L434.473 179.759C434.389 179.975 434.232 180.101 434.001 180.138L430.718 180.658C430.438 180.702 430.275 180.576 430.228 180.28L427.573 163.517C427.526 163.221 427.642 163.051 427.922 163.006L430.984 162.521C431.28 162.474 431.451 162.599 431.498 162.895L432.198 167.314C432.527 169.388 432.784 171.6 432.971 173.949L433.049 173.962C433.345 172.852 433.947 170.952 434.853 168.26L437.227 161.836C437.294 161.623 437.443 161.498 437.674 161.462L440.957 160.942C441.254 160.895 441.425 161.019 441.472 161.316L444.127 178.079C444.174 178.375 444.049 178.546 443.753 178.593ZM443.968 160.465L456.953 158.408C457.233 158.364 457.396 158.49 457.443 158.786L457.889 161.6C457.933 161.88 457.816 162.042 457.536 162.087L453.018 162.802L455.161 176.331C455.208 176.627 455.091 176.797 454.811 176.842L451.701 177.334C451.421 177.379 451.258 177.253 451.211 176.957L449.068 163.428L444.55 164.143C444.254 164.19 444.084 164.074 444.039 163.794L443.594 160.98C443.547 160.683 443.671 160.512 443.968 160.465ZM465.152 167.84L465.723 171.444L473.055 170.283C473.351 170.236 473.521 170.352 473.566 170.632L473.996 173.348C474.043 173.644 473.918 173.816 473.622 173.863L462.759 175.583C462.463 175.63 462.291 175.505 462.244 175.209L459.59 158.446C459.543 158.15 459.667 157.978 459.964 157.931L470.431 156.274C470.727 156.227 470.899 156.351 470.946 156.648L471.376 159.363C471.42 159.643 471.294 159.806 470.998 159.853L464.061 160.952L464.596 164.334L470.719 163.364C471.015 163.318 471.186 163.434 471.23 163.714L471.652 166.38C471.696 166.66 471.57 166.823 471.274 166.87L465.152 167.84ZM484.753 161.091L483.729 154.623C483.682 154.327 483.807 154.155 484.103 154.108L487.189 153.619C487.485 153.572 487.657 153.697 487.704 153.993L490.359 170.756C490.405 171.052 490.281 171.224 489.985 171.271L486.899 171.76C486.602 171.807 486.431 171.682 486.384 171.386L485.336 164.769L479.781 165.649L480.829 172.265C480.876 172.562 480.751 172.733 480.455 172.78L477.369 173.269C477.073 173.316 476.901 173.191 476.854 172.895L474.2 156.132C474.153 155.836 474.277 155.664 474.574 155.617L477.659 155.129C477.956 155.082 478.127 155.206 478.174 155.503L479.199 161.971L484.753 161.091ZM300.735 216.97L301.164 219.68L306.677 218.807C306.899 218.772 307.027 218.859 307.061 219.07L307.384 221.111C307.419 221.334 307.326 221.463 307.103 221.498L298.937 222.792C298.714 222.827 298.585 222.733 298.55 222.511L296.554 209.909C296.518 209.686 296.612 209.557 296.835 209.522L304.704 208.275C304.927 208.24 305.056 208.334 305.091 208.556L305.414 210.598C305.448 210.808 305.353 210.931 305.13 210.966L299.915 211.792L300.318 214.335L304.921 213.606C305.143 213.571 305.271 213.658 305.305 213.869L305.622 215.873C305.655 216.083 305.561 216.206 305.338 216.241L300.735 216.97ZM312.24 220.685L309.92 221.052C309.697 221.087 309.568 220.994 309.533 220.771L307.537 208.169C307.502 207.946 307.596 207.817 307.818 207.782L310.138 207.414C310.361 207.379 310.49 207.473 310.525 207.696L311.266 212.373L314.068 207.001C314.146 206.85 314.271 206.76 314.444 206.732L317.377 206.268C317.513 206.246 317.605 206.27 317.654 206.338C317.715 206.405 317.711 206.5 317.642 206.625L314.084 212.745L320.14 219.034C320.243 219.119 320.276 219.209 320.24 219.303C320.215 219.384 320.134 219.434 319.998 219.456L317.14 219.909C316.979 219.934 316.837 219.88 316.715 219.748L312.571 215.324L311.901 216.382L312.521 220.298C312.557 220.52 312.463 220.649 312.24 220.685ZM323.015 218.978L320.528 219.372C320.268 219.413 320.162 219.303 320.209 219.042L322.513 205.721C322.56 205.536 322.664 205.431 322.824 205.405L325.645 204.958C325.819 204.931 325.95 204.999 326.039 205.162L332.347 217.12C332.485 217.351 332.418 217.489 332.146 217.532L329.677 217.923C329.48 217.954 329.335 217.882 329.244 217.706L328.198 215.551L323.688 216.265L323.342 218.641C323.322 218.834 323.213 218.947 323.015 218.978ZM324.712 208.436C324.682 208.643 324.584 209.388 324.419 210.67C324.265 211.937 324.139 212.902 324.041 213.565L327.029 213.091C326.972 212.974 326.225 211.418 324.787 208.424L324.712 208.436ZM329.885 204.287L339.648 202.741C339.858 202.707 339.981 202.802 340.016 203.025L340.351 205.141C340.385 205.351 340.296 205.473 340.086 205.506L336.689 206.044L338.3 216.215C338.335 216.437 338.248 216.565 338.038 216.599L335.699 216.969C335.489 217.002 335.366 216.908 335.331 216.685L333.72 206.514L330.323 207.052C330.101 207.088 329.973 207 329.939 206.79L329.604 204.674C329.569 204.451 329.663 204.322 329.885 204.287ZM345.811 209.831L346.24 212.541L351.753 211.668C351.975 211.633 352.103 211.72 352.137 211.93L352.46 213.972C352.495 214.195 352.402 214.324 352.179 214.359L344.013 215.652C343.79 215.688 343.661 215.594 343.626 215.371L341.63 202.769C341.594 202.546 341.688 202.417 341.911 202.382L349.78 201.136C350.003 201.101 350.132 201.194 350.167 201.417L350.49 203.459C350.524 203.669 350.429 203.792 350.206 203.827L344.991 204.653L345.394 207.196L349.997 206.467C350.219 206.431 350.347 206.519 350.381 206.729L350.698 208.734C350.731 208.944 350.637 209.067 350.414 209.102L345.811 209.831ZM352.876 200.646L357.794 199.867C359.254 199.635 360.479 199.879 361.468 200.597C362.455 201.304 363.062 202.374 363.289 203.81C363.518 205.257 363.274 206.476 362.555 207.465C361.835 208.441 360.745 209.045 359.285 209.276L357.02 209.635L357.579 213.161C357.614 213.384 357.527 213.512 357.316 213.545L354.978 213.916C354.767 213.949 354.644 213.854 354.609 213.632L352.613 201.03C352.578 200.807 352.666 200.679 352.876 200.646ZM356.582 206.87L358.438 206.576C359.836 206.354 360.433 205.594 360.227 204.295C360.021 202.995 359.219 202.457 357.821 202.678L355.965 202.972L356.582 206.87ZM376.594 210.492L374.293 210.856C374.083 210.89 373.96 210.795 373.925 210.572L373.463 207.658C373.222 206.137 373.042 204.358 372.922 202.322L372.864 202.312C372.438 204.028 371.949 205.584 371.396 206.978L369.618 211.369C369.555 211.531 369.437 211.626 369.263 211.653L366.795 212.044C366.585 212.077 366.462 211.983 366.426 211.76L364.431 199.158C364.395 198.935 364.483 198.807 364.693 198.774L366.995 198.409C367.217 198.374 367.346 198.468 367.382 198.69L367.908 202.013C368.155 203.572 368.348 205.234 368.488 207L368.547 207.01C368.77 206.176 369.222 204.747 369.904 202.724L371.688 197.894C371.739 197.734 371.851 197.64 372.024 197.613L374.493 197.222C374.715 197.186 374.844 197.28 374.88 197.503L376.876 210.105C376.911 210.328 376.817 210.457 376.594 210.492ZM385.559 200.796L384.789 195.933C384.754 195.711 384.848 195.582 385.07 195.546L387.39 195.179C387.613 195.144 387.742 195.237 387.777 195.46L389.773 208.062C389.809 208.285 389.715 208.414 389.492 208.449L387.172 208.817C386.95 208.852 386.821 208.758 386.785 208.535L385.997 203.561L381.822 204.223L382.609 209.197C382.645 209.42 382.551 209.548 382.328 209.584L380.008 209.951C379.786 209.986 379.657 209.893 379.621 209.67L377.625 197.068C377.59 196.845 377.684 196.716 377.906 196.681L380.226 196.314C380.449 196.278 380.578 196.372 380.613 196.595L381.384 201.457L385.559 200.796ZM395.233 207.54L392.913 207.907C392.69 207.943 392.561 207.849 392.526 207.626L390.53 195.024C390.495 194.801 390.589 194.672 390.811 194.637L398.235 193.461C398.458 193.426 398.587 193.52 398.622 193.742L398.957 195.858C398.991 196.069 398.896 196.191 398.673 196.227L393.903 196.982L395.514 207.153C395.549 207.376 395.456 207.505 395.233 207.54ZM403.935 197.676L406.236 197.312C409.416 196.808 411.219 197.905 411.647 200.602C411.868 202.001 411.634 203.122 410.943 203.967C410.25 204.8 409.149 205.336 407.64 205.575L402.592 206.374C402.369 206.41 402.24 206.316 402.205 206.093L400.209 193.491C400.173 193.268 400.267 193.139 400.49 193.104L408.86 191.778C409.083 191.743 409.212 191.837 409.247 192.06L409.556 194.008C409.591 194.231 409.497 194.36 409.275 194.395L403.558 195.301L403.935 197.676ZM404.825 203.3L407.201 202.924C408.302 202.749 408.768 202.13 408.6 201.066C408.518 200.546 408.322 200.19 408.012 199.998C407.713 199.792 407.279 199.734 406.71 199.824L404.334 200.201L404.825 203.3ZM418.008 203.933L415.446 204.338C415.335 204.356 415.25 204.338 415.191 204.284C415.142 204.215 415.133 204.122 415.165 204.002L416.23 199.915L410.787 191.854C410.648 191.622 410.709 191.486 410.969 191.444L413.53 191.039C413.716 191.009 413.86 191.075 413.961 191.237L417.166 196.456L418.416 190.531C418.462 190.346 418.572 190.24 418.746 190.213L421.307 189.807C421.567 189.766 421.673 189.876 421.625 190.137L418.356 203.611C418.31 203.796 418.193 203.903 418.008 203.933ZM423.381 189.479L428.299 188.7C429.759 188.468 430.984 188.712 431.973 189.431C432.96 190.137 433.567 191.207 433.794 192.643C434.023 194.09 433.779 195.309 433.06 196.298C432.34 197.274 431.25 197.878 429.79 198.109L427.525 198.468L428.084 201.994C428.119 202.217 428.031 202.345 427.821 202.378L425.483 202.749C425.272 202.782 425.149 202.687 425.114 202.465L423.118 189.863C423.083 189.64 423.17 189.512 423.381 189.479ZM427.087 195.703L428.943 195.409C430.341 195.187 430.938 194.427 430.732 193.128C430.526 191.829 429.724 191.29 428.326 191.511L426.47 191.805L427.087 195.703ZM439.638 200.507L437.318 200.874C437.096 200.909 436.967 200.816 436.931 200.593L434.936 187.991C434.9 187.768 434.994 187.639 435.217 187.604L442.641 186.428C442.863 186.393 442.992 186.487 443.028 186.709L443.363 188.825C443.396 189.035 443.301 189.158 443.079 189.194L438.309 189.949L439.92 200.12C439.955 200.342 439.861 200.471 439.638 200.507ZM455.478 196.875C454.409 197.971 453.076 198.645 451.48 198.898C449.809 199.162 448.418 198.945 447.305 198.246C446.203 197.533 445.526 196.384 445.275 194.801L444.661 190.922C444.41 189.338 444.7 188.043 445.53 187.036C446.372 186.027 447.61 185.394 449.243 185.135C450.765 184.894 452.151 185.08 453.403 185.694C453.606 185.776 453.659 185.913 453.563 186.106L452.676 188.073C452.58 188.266 452.43 188.321 452.227 188.239C451.463 187.904 450.636 187.806 449.745 187.947C448.978 188.069 448.417 188.367 448.061 188.842C447.715 189.303 447.596 189.873 447.704 190.554L448.28 194.191C448.394 194.909 448.692 195.433 449.176 195.762C449.657 196.079 450.281 196.177 451.048 196.055C452.001 195.904 452.82 195.508 453.505 194.867C453.669 194.701 453.821 194.703 453.962 194.871L455.432 196.464C455.583 196.618 455.598 196.755 455.478 196.875ZM460.101 197.266L457.781 197.633C457.559 197.668 457.43 197.575 457.394 197.352L455.398 184.75C455.363 184.527 455.457 184.398 455.679 184.363L457.999 183.996C458.222 183.96 458.351 184.054 458.386 184.277L459.127 188.954L461.929 183.582C462.007 183.431 462.132 183.341 462.305 183.314L465.238 182.849C465.374 182.828 465.466 182.851 465.515 182.919C465.576 182.986 465.573 183.081 465.504 183.207L461.945 189.326L468.002 195.615C468.104 195.7 468.137 195.79 468.101 195.884C468.076 195.965 467.995 196.015 467.859 196.037L465.001 196.49C464.84 196.515 464.698 196.462 464.576 196.329L460.432 191.905L459.762 192.963L460.382 196.879C460.418 197.101 460.324 197.23 460.101 197.266ZM479.524 194.189L477.223 194.554C477.013 194.587 476.89 194.493 476.855 194.27L476.393 191.356C476.152 189.834 475.972 188.055 475.852 186.019L475.794 186.01C475.368 187.726 474.879 189.281 474.326 190.675L472.548 195.066C472.485 195.228 472.367 195.323 472.193 195.351L469.725 195.741C469.515 195.775 469.392 195.68 469.357 195.457L467.361 182.855C467.325 182.633 467.413 182.505 467.623 182.471L469.925 182.107C470.147 182.072 470.276 182.165 470.312 182.388L470.838 185.71C471.085 187.269 471.278 188.932 471.418 190.698L471.477 190.708C471.7 189.873 472.152 188.445 472.834 186.421L474.618 181.592C474.669 181.431 474.781 181.338 474.954 181.31L477.423 180.919C477.645 180.884 477.774 180.978 477.81 181.2L479.806 193.802C479.841 194.025 479.747 194.154 479.524 194.189ZM488.699 175.728C488.686 175.565 488.576 175.468 488.368 175.438L486.793 175.345C486.598 175.312 486.486 175.406 486.457 175.626C486.368 176.186 486.008 176.515 485.377 176.615C484.759 176.713 484.321 176.51 484.063 176.005C483.968 175.805 483.832 175.75 483.657 175.841L482.188 176.417C481.977 176.526 481.91 176.664 481.987 176.829C482.242 177.562 482.696 178.105 483.348 178.459C483.998 178.8 484.787 178.897 485.715 178.75C486.656 178.601 487.381 178.257 487.892 177.72C488.414 177.168 488.683 176.504 488.699 175.728ZM490.418 192.464C490.207 192.497 490.085 192.403 490.049 192.18L489.588 189.266C489.347 187.744 489.167 185.965 489.047 183.93L488.988 183.92C488.563 185.636 488.073 187.191 487.52 188.585L485.743 192.976C485.68 193.138 485.561 193.233 485.388 193.261L482.92 193.652C482.709 193.685 482.587 193.59 482.551 193.368L480.555 180.766C480.52 180.543 480.608 180.415 480.818 180.381L483.119 180.017C483.342 179.982 483.471 180.075 483.506 180.298L484.032 183.62C484.279 185.179 484.473 186.842 484.613 188.608L484.672 188.618C484.895 187.783 485.347 186.355 486.029 184.332L487.813 179.502C487.864 179.342 487.976 179.248 488.149 179.22L490.617 178.829C490.84 178.794 490.969 178.888 491.004 179.111L493 191.713C493.036 191.935 492.942 192.064 492.719 192.1L490.418 192.464ZM306.761 248.889L303.724 249.37C303.428 249.417 303.256 249.292 303.209 248.996L300.554 232.233C300.507 231.937 300.632 231.765 300.928 231.718L304.434 231.163C304.664 231.127 304.846 231.208 304.979 231.406L307.881 235.35C308.634 236.378 309.631 237.881 310.873 239.861L310.972 239.846C311.349 238.183 311.825 236.446 312.399 234.634L313.965 229.983C314.03 229.753 314.177 229.62 314.408 229.584L317.913 229.028C318.193 228.984 318.356 229.11 318.403 229.406L321.058 246.169C321.105 246.465 320.989 246.636 320.709 246.68L317.648 247.165C317.352 247.212 317.18 247.087 317.133 246.791L316.617 243.532C316.239 241.146 315.904 238.499 315.613 235.593L315.51 235.584C315.136 237.162 314.649 238.934 314.049 240.902L313.227 243.537C313.162 243.767 313.014 243.9 312.784 243.937L310.414 244.312C310.167 244.351 309.985 244.27 309.869 244.069L308.248 241.821C307.07 240.135 306.059 238.599 305.215 237.214L305.12 237.255C305.741 240.109 306.241 242.729 306.618 245.116L307.135 248.374C307.182 248.671 307.057 248.842 306.761 248.889ZM327.622 238.221L328.193 241.825L335.525 240.664C335.821 240.617 335.991 240.733 336.036 241.013L336.466 243.729C336.513 244.025 336.388 244.197 336.092 244.243L325.229 245.964C324.933 246.011 324.761 245.886 324.714 245.59L322.059 228.827C322.013 228.531 322.137 228.359 322.433 228.312L332.901 226.654C333.197 226.608 333.369 226.732 333.416 227.028L333.846 229.744C333.89 230.024 333.764 230.187 333.468 230.234L326.531 231.333L327.066 234.715L333.189 233.745C333.485 233.698 333.655 233.815 333.7 234.095L334.122 236.761C334.166 237.041 334.04 237.204 333.744 237.251L327.622 238.221ZM335.513 226.241L348.498 224.184C348.778 224.14 348.942 224.266 348.988 224.562L349.434 227.376C349.479 227.656 349.361 227.818 349.081 227.863L344.563 228.578L346.706 242.107C346.753 242.403 346.636 242.573 346.357 242.618L343.246 243.11C342.966 243.155 342.803 243.029 342.756 242.732L340.613 229.204L336.095 229.919C335.799 229.966 335.629 229.85 335.585 229.57L335.139 226.756C335.092 226.459 335.217 226.288 335.513 226.241ZM351.484 223.711L358.026 222.675C359.968 222.367 361.597 222.692 362.913 223.647C364.225 224.587 365.033 226.011 365.335 227.92C365.64 229.846 365.315 231.466 364.359 232.782C363.401 234.081 361.951 234.884 360.009 235.192L356.997 235.669L357.74 240.359C357.787 240.655 357.67 240.826 357.39 240.87L354.28 241.363C354 241.407 353.837 241.281 353.79 240.985L351.135 224.222C351.088 223.926 351.204 223.756 351.484 223.711ZM356.414 231.99L358.883 231.599C360.743 231.305 361.536 230.293 361.262 228.565C360.988 226.837 359.922 226.12 358.062 226.415L355.593 226.806L356.414 231.99ZM382.341 230.035C382.69 232.24 382.329 234.061 381.257 235.496C380.185 236.931 378.513 237.828 376.242 238.188C373.987 238.545 372.129 238.207 370.666 237.173C369.203 236.139 368.297 234.52 367.948 232.315L367.271 228.044C366.925 225.855 367.287 224.043 368.359 222.608C369.431 221.172 371.094 220.276 373.349 219.919C375.62 219.559 377.487 219.896 378.95 220.93C380.41 221.947 381.315 223.559 381.664 225.764L382.341 230.035ZM371.985 231.599C372.337 233.821 373.558 234.766 375.648 234.435C377.738 234.104 378.607 232.828 378.255 230.606L377.602 226.483C377.253 224.278 376.033 223.341 373.943 223.672C371.853 224.003 370.982 225.271 371.332 227.476L371.985 231.599ZM390.034 235.7L386.924 236.192C386.628 236.239 386.456 236.115 386.409 235.818L383.754 219.056C383.707 218.759 383.832 218.588 384.128 218.541L396.768 216.539C397.064 216.492 397.236 216.617 397.283 216.913L399.938 233.676C399.985 233.972 399.86 234.144 399.564 234.19L396.478 234.679C396.182 234.726 396.01 234.602 395.963 234.305L393.82 220.777L388.241 221.66L390.384 235.189C390.431 235.485 390.314 235.655 390.034 235.7ZM416.43 224.636C416.78 226.841 416.419 228.661 415.347 230.096C414.275 231.531 412.603 232.429 410.332 232.789C408.077 233.146 406.219 232.807 404.756 231.774C403.293 230.74 402.387 229.121 402.038 226.915L401.361 222.644C401.015 220.455 401.377 218.643 402.449 217.208C403.521 215.773 405.184 214.877 407.439 214.52C409.71 214.16 411.577 214.497 413.04 215.531C414.5 216.548 415.405 218.159 415.754 220.365L416.43 224.636ZM406.075 226.2C406.427 228.422 407.648 229.367 409.738 229.036C411.828 228.705 412.697 227.429 412.345 225.207L411.692 221.084C411.343 218.879 410.123 217.941 408.033 218.272C405.943 218.603 405.072 219.872 405.422 222.077L406.075 226.2ZM424.491 224.903C424.314 226.871 423.812 228.334 422.985 229.292C422.158 230.249 420.925 230.883 419.287 231.193C418.991 231.24 418.821 231.124 418.777 230.844L418.327 228.005C418.285 227.741 418.402 227.571 418.676 227.494C419.308 227.326 419.762 227.001 420.04 226.519C420.332 226.017 420.503 225.231 420.552 224.16C420.686 222.232 420.435 218.628 419.801 213.346C419.771 213.048 419.904 212.875 420.2 212.828L430.939 211.127C431.219 211.082 431.382 211.208 431.429 211.505L434.084 228.267C434.131 228.564 434.014 228.734 433.735 228.778L430.624 229.271C430.344 229.315 430.181 229.189 430.134 228.893L427.995 215.389L424.119 216.003C424.544 219.749 424.668 222.715 424.491 224.903ZM451.262 226.002L448.201 226.487C447.921 226.531 447.757 226.406 447.711 226.109L447.097 222.233C446.776 220.209 446.536 217.843 446.377 215.135L446.299 215.122C445.733 217.405 445.082 219.473 444.347 221.328L441.982 227.168C441.898 227.384 441.741 227.51 441.51 227.547L438.227 228.067C437.947 228.111 437.784 227.985 437.737 227.689L435.082 210.926C435.035 210.63 435.151 210.46 435.431 210.415L438.492 209.93C438.789 209.884 438.96 210.008 439.007 210.304L439.707 214.724C440.035 216.797 440.293 219.009 440.479 221.358L440.557 221.371C440.854 220.261 441.456 218.361 442.362 215.67L444.736 209.245C444.803 209.032 444.952 208.907 445.183 208.871L448.466 208.351C448.762 208.304 448.934 208.429 448.981 208.725L451.636 225.488C451.683 225.784 451.558 225.955 451.262 226.002ZM451.476 207.874L464.462 205.817C464.742 205.773 464.905 205.899 464.952 206.195L465.398 209.01C465.442 209.289 465.324 209.451 465.045 209.496L460.527 210.211L462.67 223.74C462.717 224.036 462.6 224.207 462.32 224.251L459.21 224.744C458.93 224.788 458.767 224.662 458.72 224.366L456.577 210.837L452.059 211.552C451.763 211.599 451.593 211.483 451.548 211.203L451.102 208.389C451.056 208.092 451.18 207.921 451.476 207.874ZM472.661 215.249L473.231 218.853L480.564 217.692C480.86 217.645 481.03 217.761 481.074 218.041L481.505 220.757C481.552 221.053 481.427 221.225 481.131 221.272L470.268 222.992C469.972 223.039 469.8 222.914 469.753 222.618L467.098 205.855C467.051 205.559 467.176 205.387 467.472 205.34L477.94 203.683C478.236 203.636 478.408 203.76 478.455 204.057L478.885 206.772C478.929 207.052 478.803 207.215 478.507 207.262L471.57 208.361L472.105 211.743L478.228 210.773C478.524 210.727 478.694 210.843 478.739 211.123L479.161 213.789C479.205 214.069 479.079 214.232 478.783 214.279L472.661 215.249ZM492.262 208.5L491.238 202.032C491.191 201.736 491.315 201.564 491.612 201.517L494.698 201.028C494.994 200.981 495.165 201.106 495.212 201.402L497.867 218.165C497.914 218.461 497.79 218.633 497.493 218.68L494.407 219.169C494.111 219.216 493.94 219.091 493.893 218.795L492.845 212.178L487.29 213.058L488.338 219.675C488.385 219.971 488.26 220.142 487.964 220.189L484.878 220.678C484.582 220.725 484.41 220.6 484.363 220.304L481.708 203.541C481.661 203.245 481.786 203.073 482.082 203.026L485.168 202.538C485.465 202.491 485.636 202.615 485.683 202.912L486.708 209.38L492.262 208.5ZM308.244 264.38L308.673 267.089L314.185 266.216C314.408 266.181 314.536 266.268 314.57 266.479L314.893 268.52C314.928 268.743 314.834 268.872 314.612 268.907L306.445 270.201C306.223 270.236 306.094 270.142 306.058 269.92L304.062 257.318C304.027 257.095 304.121 256.966 304.344 256.931L312.213 255.684C312.436 255.649 312.565 255.743 312.6 255.965L312.923 258.007C312.957 258.217 312.862 258.34 312.639 258.375L307.424 259.201L307.827 261.744L312.429 261.015C312.652 260.98 312.78 261.067 312.813 261.278L313.131 263.282C313.164 263.492 313.07 263.615 312.847 263.651L308.244 264.38ZM319.749 268.094L317.429 268.461C317.206 268.496 317.077 268.403 317.042 268.18L315.046 255.578C315.011 255.355 315.104 255.226 315.327 255.191L317.647 254.824C317.87 254.788 317.999 254.882 318.034 255.105L318.775 259.782L321.577 254.41C321.654 254.259 321.78 254.169 321.953 254.142L324.885 253.677C325.022 253.656 325.114 253.679 325.163 253.747C325.224 253.814 325.22 253.909 325.151 254.035L321.592 260.154L327.649 266.443C327.752 266.528 327.785 266.618 327.749 266.712C327.724 266.793 327.643 266.843 327.507 266.865L324.649 267.318C324.488 267.343 324.346 267.289 324.224 267.157L320.08 262.733L319.41 263.791L320.03 267.707C320.065 267.929 319.972 268.058 319.749 268.094ZM330.523 266.387L328.036 266.781C327.777 266.822 327.67 266.712 327.718 266.451L330.022 253.13C330.069 252.945 330.172 252.84 330.333 252.814L333.154 252.367C333.328 252.34 333.459 252.408 333.548 252.571L339.856 264.529C339.994 264.76 339.927 264.898 339.655 264.941L337.186 265.332C336.988 265.363 336.844 265.291 336.752 265.115L335.707 262.96L331.197 263.674L330.851 266.05C330.83 266.243 330.721 266.356 330.523 266.387ZM332.221 255.845C332.191 256.052 332.093 256.797 331.928 258.079C331.774 259.346 331.648 260.311 331.55 260.974L334.538 260.5C334.481 260.383 333.733 258.827 332.295 255.833L332.221 255.845ZM337.394 251.696L347.157 250.15C347.367 250.116 347.49 250.211 347.525 250.434L347.86 252.55C347.893 252.76 347.805 252.882 347.595 252.915L344.198 253.453L345.809 263.624C345.844 263.846 345.757 263.974 345.546 264.008L343.208 264.378C342.998 264.411 342.875 264.317 342.84 264.094L341.229 253.923L337.832 254.461C337.609 254.497 337.481 254.409 337.448 254.199L337.113 252.083C337.078 251.86 337.172 251.731 337.394 251.696ZM353.32 257.24L353.749 259.95L359.262 259.077C359.484 259.042 359.612 259.129 359.646 259.339L359.969 261.381C360.004 261.604 359.91 261.733 359.688 261.768L351.522 263.061C351.299 263.097 351.17 263.003 351.135 262.78L349.139 250.178C349.103 249.956 349.197 249.827 349.42 249.791L357.289 248.545C357.512 248.51 357.641 248.603 357.676 248.826L357.999 250.868C358.033 251.078 357.938 251.201 357.715 251.236L352.5 252.062L352.903 254.605L357.506 253.876C357.728 253.84 357.856 253.928 357.89 254.138L358.207 256.143C358.24 256.353 358.146 256.476 357.923 256.511L353.32 257.24ZM360.385 248.055L365.303 247.276C366.763 247.044 367.988 247.288 368.977 248.006C369.964 248.713 370.571 249.783 370.798 251.219C371.027 252.666 370.783 253.885 370.064 254.874C369.344 255.85 368.253 256.454 366.793 256.685L364.529 257.044L365.088 260.57C365.123 260.793 365.035 260.921 364.825 260.954L362.486 261.325C362.276 261.358 362.153 261.263 362.118 261.041L360.122 248.439C360.087 248.216 360.174 248.088 360.385 248.055ZM364.091 254.279L365.947 253.985C367.345 253.763 367.941 253.003 367.736 251.704C367.53 250.404 366.728 249.866 365.33 250.087L363.474 250.381L364.091 254.279ZM384.103 257.901L381.802 258.265C381.592 258.299 381.469 258.204 381.433 257.981L380.972 255.067C380.731 253.546 380.551 251.767 380.431 249.731L380.373 249.721C379.947 251.437 379.457 252.993 378.905 254.387L377.127 258.778C377.064 258.94 376.945 259.035 376.772 259.062L374.304 259.453C374.093 259.486 373.971 259.392 373.935 259.169L371.939 246.567C371.904 246.344 371.992 246.216 372.202 246.183L374.503 245.818C374.726 245.783 374.855 245.877 374.89 246.1L375.417 249.422C375.663 250.981 375.857 252.643 375.997 254.409L376.056 254.419C376.279 253.585 376.731 252.156 377.413 250.133L379.197 245.303C379.248 245.143 379.36 245.049 379.533 245.022L382.001 244.631C382.224 244.596 382.353 244.689 382.388 244.912L384.384 257.514C384.42 257.737 384.326 257.866 384.103 257.901ZM393.068 248.205L392.298 243.342C392.263 243.12 392.357 242.991 392.579 242.955L394.899 242.588C395.122 242.553 395.251 242.646 395.286 242.869L397.282 255.471C397.318 255.694 397.224 255.823 397.001 255.858L394.681 256.226C394.458 256.261 394.329 256.167 394.294 255.944L393.506 250.97L389.33 251.632L390.118 256.606C390.153 256.829 390.06 256.958 389.837 256.993L387.517 257.36C387.294 257.396 387.165 257.302 387.13 257.079L385.134 244.477C385.099 244.254 385.193 244.125 385.415 244.09L387.735 243.723C387.958 243.687 388.087 243.781 388.122 244.004L388.892 248.866L393.068 248.205ZM402.742 254.949L400.422 255.316C400.199 255.352 400.07 255.258 400.035 255.035L398.039 242.433C398.004 242.21 398.097 242.081 398.32 242.046L405.744 240.87C405.967 240.835 406.096 240.929 406.131 241.152L406.466 243.267C406.499 243.478 406.405 243.6 406.182 243.636L401.412 244.391L403.023 254.562C403.058 254.785 402.965 254.914 402.742 254.949ZM411.443 245.085L413.745 244.721C416.925 244.217 418.728 245.314 419.155 248.011C419.377 249.41 419.142 250.531 418.452 251.376C417.759 252.209 416.658 252.745 415.149 252.984L410.1 253.783C409.878 253.819 409.749 253.725 409.713 253.502L407.718 240.9C407.682 240.678 407.776 240.549 407.999 240.513L416.369 239.188C416.592 239.152 416.721 239.246 416.756 239.469L417.065 241.417C417.1 241.64 417.006 241.769 416.784 241.804L411.067 242.71L411.443 245.085ZM412.334 250.709L414.71 250.333C415.811 250.158 416.277 249.539 416.109 248.475C416.026 247.955 415.831 247.6 415.521 247.408C415.222 247.201 414.788 247.143 414.219 247.233L411.843 247.61L412.334 250.709ZM425.517 251.342L422.955 251.747C422.844 251.765 422.759 251.747 422.699 251.693C422.65 251.624 422.642 251.531 422.674 251.411L423.739 247.324L418.295 239.263C418.157 239.031 418.218 238.895 418.478 238.853L421.039 238.448C421.225 238.418 421.368 238.484 421.47 238.646L424.675 243.865L425.924 237.94C425.971 237.755 426.081 237.649 426.254 237.622L428.816 237.216C429.075 237.175 429.182 237.285 429.134 237.546L425.865 251.02C425.818 251.205 425.702 251.312 425.517 251.342ZM430.89 236.888L435.808 236.109C437.268 235.877 438.493 236.121 439.481 236.84C440.468 237.546 441.076 238.616 441.303 240.052C441.532 241.499 441.288 242.718 440.569 243.707C439.849 244.683 438.758 245.287 437.298 245.518L435.034 245.877L435.593 249.403C435.628 249.626 435.54 249.754 435.33 249.787L432.991 250.158C432.781 250.191 432.658 250.096 432.623 249.874L430.627 237.272C430.592 237.049 430.679 236.921 430.89 236.888ZM434.596 243.112L436.452 242.818C437.85 242.596 438.446 241.836 438.241 240.537C438.035 239.238 437.233 238.699 435.835 238.92L433.979 239.214L434.596 243.112ZM447.147 247.916L444.827 248.283C444.605 248.318 444.476 248.225 444.44 248.002L442.444 235.4C442.409 235.177 442.503 235.048 442.726 235.013L450.149 233.837C450.372 233.802 450.501 233.896 450.536 234.118L450.871 236.234C450.905 236.445 450.81 236.567 450.587 236.603L445.818 237.358L447.428 247.529C447.464 247.751 447.37 247.88 447.147 247.916ZM462.987 244.285C461.917 245.38 460.585 246.054 458.988 246.307C457.318 246.571 455.927 246.354 454.814 245.655C453.712 244.942 453.035 243.793 452.784 242.21L452.17 238.331C451.919 236.747 452.208 235.452 453.038 234.445C453.881 233.437 455.118 232.803 456.752 232.544C458.274 232.303 459.66 232.489 460.912 233.103C461.115 233.185 461.168 233.322 461.072 233.515L460.185 235.482C460.089 235.675 459.939 235.73 459.736 235.648C458.972 235.313 458.145 235.215 457.254 235.356C456.487 235.478 455.925 235.776 455.569 236.251C455.224 236.712 455.105 237.282 455.213 237.963L455.789 241.601C455.902 242.318 456.201 242.842 456.684 243.171C457.166 243.488 457.79 243.586 458.557 243.464C459.51 243.313 460.329 242.917 461.014 242.276C461.178 242.11 461.33 242.112 461.471 242.28L462.941 243.873C463.092 244.027 463.107 244.164 462.987 244.285ZM467.61 244.675L465.29 245.042C465.067 245.078 464.938 244.984 464.903 244.761L462.907 232.159C462.872 231.936 462.966 231.807 463.188 231.772L465.508 231.405C465.731 231.369 465.86 231.463 465.895 231.686L466.636 236.363L469.438 230.991C469.516 230.84 469.641 230.75 469.814 230.723L472.747 230.258C472.883 230.237 472.975 230.26 473.024 230.328C473.085 230.395 473.081 230.491 473.012 230.616L469.454 236.735L475.51 243.024C475.613 243.109 475.646 243.199 475.61 243.294C475.585 243.374 475.504 243.424 475.368 243.446L472.51 243.899C472.349 243.924 472.207 243.871 472.085 243.738L467.941 239.314L467.271 240.372L467.891 244.288C467.926 244.511 467.833 244.64 467.61 244.675ZM487.033 241.598L484.732 241.963C484.522 241.996 484.399 241.902 484.363 241.679L483.902 238.765C483.661 237.243 483.481 235.464 483.361 233.428L483.303 233.419C482.877 235.135 482.387 236.69 481.835 238.084L480.057 242.475C479.994 242.637 479.875 242.732 479.702 242.76L477.234 243.151C477.023 243.184 476.901 243.089 476.865 242.866L474.869 230.264C474.834 230.042 474.922 229.914 475.132 229.88L477.433 229.516C477.656 229.481 477.785 229.574 477.82 229.797L478.347 233.119C478.594 234.678 478.787 236.341 478.927 238.107L478.986 238.117C479.209 237.282 479.661 235.854 480.343 233.83L482.127 229.001C482.178 228.841 482.29 228.747 482.463 228.719L484.932 228.328C485.154 228.293 485.283 228.387 485.319 228.609L487.314 241.211C487.35 241.434 487.256 241.563 487.033 241.598ZM496.208 223.137C496.195 222.974 496.085 222.877 495.877 222.847L494.302 222.754C494.107 222.721 493.995 222.815 493.966 223.035C493.877 223.595 493.517 223.924 492.886 224.024C492.267 224.122 491.829 223.919 491.572 223.414C491.477 223.214 491.341 223.159 491.165 223.25L489.696 223.826C489.485 223.935 489.418 224.073 489.495 224.238C489.751 224.971 490.205 225.514 490.857 225.868C491.507 226.209 492.296 226.306 493.224 226.159C494.165 226.01 494.89 225.667 495.401 225.129C495.923 224.577 496.192 223.913 496.208 223.137ZM497.927 239.873C497.716 239.906 497.594 239.812 497.558 239.589L497.097 236.675C496.856 235.153 496.675 233.374 496.556 231.339L496.497 231.329C496.072 233.045 495.582 234.6 495.029 235.994L493.251 240.385C493.188 240.547 493.07 240.642 492.897 240.67L490.429 241.061C490.218 241.094 490.095 240.999 490.06 240.777L488.064 228.175C488.029 227.952 488.116 227.824 488.327 227.791L490.628 227.426C490.851 227.391 490.98 227.484 491.015 227.707L491.541 231.029C491.788 232.588 491.982 234.251 492.122 236.017L492.181 236.027C492.404 235.192 492.856 233.764 493.537 231.741L495.322 226.911C495.373 226.751 495.485 226.657 495.658 226.629L498.126 226.238C498.349 226.203 498.478 226.297 498.513 226.52L500.509 239.122C500.545 239.344 500.451 239.473 500.228 239.509L497.927 239.873ZM314.269 296.298L311.233 296.779C310.937 296.826 310.765 296.701 310.718 296.405L308.063 279.642C308.016 279.346 308.141 279.174 308.437 279.127L311.943 278.572C312.173 278.536 312.355 278.617 312.487 278.815L315.39 282.759C316.143 283.787 317.14 285.29 318.382 287.27L318.481 287.255C318.858 285.592 319.334 283.855 319.907 282.043L321.474 277.392C321.539 277.162 321.686 277.029 321.917 276.993L325.422 276.437C325.702 276.393 325.865 276.519 325.912 276.815L328.567 293.578C328.614 293.874 328.498 294.045 328.218 294.089L325.157 294.574C324.86 294.621 324.689 294.496 324.642 294.2L324.126 290.941C323.748 288.555 323.413 285.908 323.121 283.002L323.019 282.993C322.644 284.571 322.158 286.343 321.558 288.311L320.736 290.947C320.671 291.176 320.523 291.309 320.293 291.346L317.923 291.721C317.676 291.76 317.494 291.679 317.378 291.478L315.757 289.23C314.578 287.544 313.568 286.008 312.724 284.623L312.629 284.664C313.25 287.518 313.749 290.138 314.127 292.525L314.643 295.783C314.69 296.08 314.566 296.251 314.269 296.298ZM335.131 285.63L335.701 289.234L343.034 288.073C343.33 288.026 343.5 288.142 343.544 288.422L343.975 291.138C344.021 291.434 343.897 291.606 343.601 291.653L332.738 293.373C332.442 293.42 332.27 293.295 332.223 292.999L329.568 276.236C329.521 275.94 329.646 275.768 329.942 275.721L340.41 274.064C340.706 274.017 340.878 274.141 340.925 274.438L341.355 277.153C341.399 277.433 341.273 277.596 340.977 277.643L334.04 278.742L334.575 282.124L340.698 281.154C340.994 281.108 341.164 281.224 341.209 281.504L341.631 284.17C341.675 284.45 341.549 284.613 341.253 284.66L335.131 285.63ZM343.022 273.65L356.007 271.593C356.287 271.549 356.45 271.675 356.497 271.971L356.943 274.785C356.987 275.065 356.87 275.227 356.59 275.272L352.072 275.987L354.215 289.516C354.262 289.812 354.145 289.982 353.866 290.027L350.755 290.519C350.475 290.564 350.312 290.438 350.265 290.141L348.122 276.613L343.604 277.328C343.308 277.375 343.138 277.259 343.093 276.979L342.648 274.165C342.601 273.868 342.725 273.697 343.022 273.65ZM358.993 271.12L365.535 270.084C367.477 269.776 369.106 270.101 370.421 271.056C371.734 271.996 372.542 273.42 372.844 275.329C373.149 277.255 372.824 278.875 371.868 280.191C370.91 281.49 369.46 282.293 367.518 282.601L364.506 283.078L365.249 287.768C365.295 288.065 365.179 288.235 364.899 288.279L361.789 288.772C361.509 288.816 361.345 288.69 361.299 288.394L358.644 271.631C358.597 271.335 358.713 271.165 358.993 271.12ZM363.923 279.399L366.392 279.008C368.252 278.714 369.045 277.702 368.771 275.974C368.497 274.246 367.43 273.529 365.571 273.824L363.102 274.215L363.923 279.399ZM389.849 277.444C390.199 279.649 389.837 281.47 388.766 282.905C387.694 284.34 386.022 285.237 383.751 285.597C381.496 285.954 379.638 285.616 378.175 284.582C376.712 283.549 375.806 281.929 375.457 279.724L374.78 275.453C374.433 273.264 374.796 271.452 375.868 270.017C376.94 268.581 378.603 267.685 380.858 267.328C383.129 266.969 384.996 267.305 386.459 268.339C387.919 269.356 388.824 270.968 389.173 273.173L389.849 277.444ZM379.494 279.008C379.845 281.23 381.067 282.176 383.157 281.844C385.247 281.513 386.116 280.237 385.764 278.015L385.111 273.892C384.762 271.687 383.542 270.75 381.452 271.081C379.362 271.412 378.491 272.68 378.841 274.885L379.494 279.008ZM397.543 283.109L394.433 283.602C394.136 283.648 393.965 283.524 393.918 283.228L391.263 266.465C391.216 266.168 391.341 265.997 391.637 265.95L404.277 263.948C404.573 263.901 404.745 264.026 404.792 264.322L407.447 281.085C407.494 281.381 407.369 281.553 407.073 281.6L403.987 282.088C403.69 282.135 403.519 282.011 403.472 281.714L401.329 268.186L395.75 269.069L397.893 282.598C397.939 282.894 397.823 283.065 397.543 283.109ZM423.939 272.045C424.289 274.25 423.927 276.07 422.856 277.505C421.784 278.941 420.112 279.838 417.841 280.198C415.586 280.555 413.727 280.217 412.265 279.183C410.802 278.149 409.896 276.53 409.547 274.324L408.87 270.053C408.523 267.864 408.886 266.052 409.958 264.617C411.029 263.182 412.693 262.286 414.948 261.929C417.219 261.569 419.086 261.906 420.549 262.94C422.009 263.957 422.914 265.568 423.263 267.774L423.939 272.045ZM413.584 273.609C413.935 275.831 415.156 276.776 417.247 276.445C419.337 276.114 420.206 274.838 419.854 272.616L419.201 268.493C418.852 266.288 417.632 265.35 415.542 265.681C413.452 266.012 412.581 267.281 412.931 269.486L413.584 273.609ZM432 272.312C431.823 274.28 431.32 275.743 430.494 276.701C429.667 277.658 428.434 278.292 426.796 278.602C426.5 278.649 426.33 278.533 426.285 278.253L425.836 275.414C425.794 275.15 425.91 274.98 426.185 274.903C426.816 274.735 427.271 274.41 427.549 273.928C427.841 273.426 428.011 272.64 428.061 271.569C428.194 269.641 427.944 266.037 427.31 260.755C427.28 260.457 427.413 260.284 427.709 260.237L438.448 258.536C438.728 258.492 438.891 258.617 438.938 258.914L441.593 275.677C441.64 275.973 441.523 276.143 441.244 276.187L438.133 276.68C437.853 276.724 437.69 276.598 437.643 276.302L435.504 262.798L431.628 263.412C432.053 267.158 432.177 270.124 432 272.312ZM458.771 273.411L455.709 273.896C455.43 273.941 455.266 273.815 455.219 273.518L454.606 269.642C454.285 267.618 454.045 265.252 453.886 262.544L453.808 262.531C453.242 264.814 452.591 266.882 451.855 268.737L449.491 274.577C449.407 274.793 449.25 274.919 449.019 274.956L445.736 275.476C445.456 275.52 445.293 275.394 445.246 275.098L442.591 258.335C442.544 258.039 442.66 257.869 442.94 257.824L446.001 257.339C446.297 257.293 446.469 257.417 446.516 257.713L447.216 262.133C447.544 264.206 447.802 266.418 447.988 268.767L448.066 268.78C448.363 267.67 448.965 265.77 449.871 263.079L452.245 256.654C452.312 256.441 452.461 256.316 452.692 256.28L455.975 255.76C456.271 255.713 456.443 255.838 456.49 256.134L459.145 272.897C459.192 273.193 459.067 273.364 458.771 273.411ZM458.985 255.283L471.971 253.226C472.251 253.182 472.414 253.308 472.461 253.604L472.907 256.419C472.951 256.698 472.833 256.86 472.554 256.905L468.036 257.62L470.178 271.149C470.225 271.445 470.109 271.616 469.829 271.66L466.719 272.153C466.439 272.197 466.275 272.071 466.228 271.775L464.086 258.246L459.568 258.961C459.272 259.008 459.101 258.892 459.057 258.612L458.611 255.798C458.564 255.502 458.689 255.33 458.985 255.283ZM480.169 262.658L480.74 266.262L488.072 265.101C488.369 265.054 488.539 265.17 488.583 265.45L489.013 268.166C489.06 268.462 488.936 268.634 488.639 268.681L477.777 270.401C477.481 270.448 477.309 270.323 477.262 270.027L474.607 253.264C474.56 252.968 474.685 252.796 474.981 252.75L485.449 251.092C485.745 251.045 485.917 251.169 485.963 251.466L486.394 254.181C486.438 254.461 486.312 254.624 486.016 254.671L479.079 255.77L479.614 259.152L485.737 258.183C486.033 258.136 486.203 258.252 486.248 258.532L486.67 261.198C486.714 261.478 486.588 261.641 486.292 261.688L480.169 262.658ZM499.771 255.909L498.747 249.441C498.7 249.145 498.824 248.973 499.121 248.926L502.207 248.437C502.503 248.391 502.674 248.515 502.721 248.811L505.376 265.574C505.423 265.87 505.298 266.042 505.002 266.089L501.916 266.578C501.62 266.625 501.448 266.5 501.402 266.204L500.354 259.588L494.799 260.467L495.847 267.084C495.894 267.38 495.769 267.551 495.473 267.598L492.387 268.087C492.091 268.134 491.919 268.009 491.872 267.713L489.217 250.95C489.17 250.654 489.295 250.482 489.591 250.436L492.677 249.947C492.973 249.9 493.145 250.024 493.192 250.321L494.216 256.789L499.771 255.909Z"
                fill="url(#paint0_linear_2091_49085)" />
        </g>
    </g>
    <defs>
        <linearGradient id="paint0_linear_2091_49085" x1="271.809" y1="182.129" x2="492.549" y2="260.186"
            gradientUnits="userSpaceOnUse">
            <stop stop-color="white" stop-opacity="0" />
            <stop offset="1" stop-color="white" />
        </linearGradient>
        <clipPath id="clip0_2091_49085">
            <rect width="390" height="350" fill="white" />
        </clipPath>
    </defs>
</svg>