<svg width="1920" height="1222" viewBox="0 0 1920 1222" fill="none" xmlns="http://www.w3.org/2000/svg">
    <path
        d="M1335.32 196.172L1336.58 204.163L1352.84 201.589C1353.5 201.485 1353.88 201.743 1353.97 202.363L1354.93 208.384C1355.03 209.041 1354.76 209.422 1354.1 209.526L1330.01 213.34C1329.36 213.444 1328.98 213.168 1328.87 212.511L1322.99 175.344C1322.88 174.688 1323.16 174.307 1323.82 174.203L1347.02 170.527C1347.68 170.423 1348.06 170.7 1348.17 171.356L1349.12 177.377C1349.22 177.998 1348.94 178.36 1348.28 178.464L1332.9 180.9L1334.09 188.399L1347.66 186.249C1348.32 186.145 1348.7 186.403 1348.79 187.024L1349.73 192.935C1349.83 193.556 1349.55 193.918 1348.89 194.022L1335.32 196.172ZM1369.25 207.126L1362.41 208.21C1361.75 208.314 1361.37 208.037 1361.27 207.38L1355.38 170.214C1355.28 169.557 1355.55 169.176 1356.21 169.072L1363.05 167.989C1363.71 167.885 1364.09 168.161 1364.19 168.818L1366.38 182.612L1374.64 166.77C1374.87 166.323 1375.24 166.058 1375.75 165.977L1384.4 164.608C1384.8 164.544 1385.07 164.613 1385.22 164.815C1385.4 165.011 1385.39 165.293 1385.18 165.662L1374.69 183.708L1392.55 202.257C1392.85 202.509 1392.95 202.774 1392.84 203.052C1392.77 203.288 1392.53 203.438 1392.13 203.502L1383.7 204.837C1383.23 204.912 1382.81 204.754 1382.45 204.362L1370.22 191.317L1368.25 194.435L1370.08 205.985C1370.18 206.641 1369.91 207.022 1369.25 207.126ZM1401.03 202.093L1393.69 203.255C1392.92 203.376 1392.61 203.052 1392.75 202.281L1399.55 162.994C1399.68 162.448 1399.99 162.138 1400.47 162.063L1408.79 160.745C1409.3 160.664 1409.68 160.865 1409.95 161.347L1428.55 196.611C1428.96 197.295 1428.76 197.7 1427.96 197.828L1420.68 198.981C1420.09 199.073 1419.67 198.86 1419.4 198.342L1416.31 191.984L1403.01 194.091L1401.99 201.098C1401.93 201.669 1401.61 202 1401.03 202.093ZM1406.03 171C1405.94 171.613 1405.66 173.81 1405.17 177.59C1404.71 181.328 1404.34 184.174 1404.05 186.127L1412.86 184.731C1412.7 184.384 1410.49 179.795 1406.25 170.966L1406.03 171ZM1421.29 158.765L1450.08 154.204C1450.7 154.106 1451.06 154.385 1451.17 155.042L1452.16 161.282C1452.25 161.903 1451.99 162.262 1451.37 162.36L1441.36 163.947L1446.11 193.943C1446.21 194.6 1445.95 194.977 1445.33 195.075L1438.44 196.168C1437.82 196.266 1437.45 195.987 1437.35 195.33L1432.6 165.334L1422.58 166.92C1421.92 167.024 1421.55 166.766 1421.45 166.146L1420.46 159.906C1420.36 159.249 1420.63 158.869 1421.29 158.765ZM1468.26 175.116L1469.53 183.108L1485.78 180.533C1486.44 180.429 1486.82 180.687 1486.91 181.307L1487.87 187.328C1487.97 187.985 1487.7 188.366 1487.04 188.47L1462.95 192.284C1462.3 192.388 1461.92 192.112 1461.81 191.455L1455.93 154.289C1455.82 153.632 1456.1 153.251 1456.76 153.147L1479.96 149.471C1480.62 149.367 1481 149.644 1481.11 150.301L1482.06 156.322C1482.16 156.942 1481.88 157.304 1481.22 157.408L1465.84 159.844L1467.03 167.343L1480.6 165.193C1481.26 165.089 1481.64 165.348 1481.74 165.968L1482.67 171.879C1482.77 172.5 1482.49 172.862 1481.83 172.966L1468.26 175.116ZM1489.09 148.025L1503.6 145.728C1507.91 145.046 1511.52 145.764 1514.43 147.884C1517.35 149.966 1519.14 153.124 1519.81 157.357C1520.48 161.627 1519.76 165.22 1517.64 168.136C1515.52 171.017 1512.3 172.798 1508 173.48L1501.32 174.537L1502.96 184.937C1503.07 185.594 1502.81 185.972 1502.19 186.07L1495.29 187.162C1494.67 187.261 1494.31 186.981 1494.21 186.325L1488.32 149.158C1488.22 148.501 1488.47 148.124 1489.09 148.025ZM1500.03 166.382L1505.5 165.515C1509.62 164.861 1511.38 162.619 1510.77 158.788C1510.17 154.956 1507.8 153.367 1503.68 154.02L1498.21 154.887L1500.03 166.382ZM1559.05 177.065L1552.26 178.14C1551.64 178.238 1551.28 177.959 1551.17 177.302L1549.81 168.708C1549.1 164.22 1548.57 158.974 1548.22 152.969L1548.04 152.941C1546.79 158.003 1545.34 162.589 1543.71 166.7L1538.47 179.65C1538.28 180.129 1537.94 180.408 1537.43 180.489L1530.15 181.642C1529.53 181.741 1529.16 181.461 1529.06 180.805L1523.17 143.638C1523.07 142.981 1523.33 142.604 1523.95 142.505L1530.73 141.43C1531.39 141.326 1531.77 141.603 1531.88 142.259L1533.43 152.057C1534.16 156.655 1534.73 161.559 1535.14 166.768L1535.31 166.796C1535.97 164.336 1537.3 160.122 1539.31 154.155L1544.58 139.911C1544.73 139.438 1545.06 139.162 1545.57 139.081L1552.85 137.928C1553.5 137.824 1553.89 138.1 1553.99 138.757L1559.88 175.924C1559.98 176.58 1559.7 176.961 1559.05 177.065ZM1585.49 148.469L1583.22 134.128C1583.11 133.471 1583.39 133.091 1584.04 132.987L1590.89 131.903C1591.54 131.799 1591.92 132.075 1592.03 132.732L1597.91 169.899C1598.02 170.556 1597.74 170.936 1597.09 171.04L1590.24 172.124C1589.59 172.228 1589.21 171.951 1589.1 171.295L1586.78 156.625L1574.46 158.576L1576.79 173.245C1576.89 173.902 1576.61 174.283 1575.96 174.387L1569.12 175.47C1568.46 175.574 1568.08 175.298 1567.97 174.641L1562.09 137.474C1561.98 136.818 1562.26 136.437 1562.92 136.333L1569.76 135.249C1570.42 135.145 1570.8 135.422 1570.9 136.079L1573.17 150.42L1585.49 148.469ZM1614.02 168.359L1607.17 169.442C1606.52 169.546 1606.14 169.27 1606.03 168.613L1600.15 131.446C1600.04 130.79 1600.32 130.409 1600.98 130.305L1622.87 126.837C1623.53 126.733 1623.91 127.01 1624.01 127.667L1625 133.907C1625.1 134.527 1624.82 134.889 1624.16 134.993L1610.09 137.221L1614.85 167.217C1614.95 167.874 1614.67 168.254 1614.02 168.359ZM1639.68 139.269L1646.47 138.194C1655.85 136.708 1661.16 139.943 1662.42 147.898C1663.08 152.022 1662.39 155.33 1660.35 157.822C1658.31 160.278 1655.06 161.858 1650.61 162.563L1635.72 164.921C1635.06 165.025 1634.68 164.749 1634.58 164.092L1628.69 126.925C1628.59 126.269 1628.86 125.888 1629.52 125.784L1654.21 121.874C1654.86 121.77 1655.24 122.047 1655.35 122.703L1656.26 128.451C1656.36 129.108 1656.09 129.488 1655.43 129.592L1638.57 132.262L1639.68 139.269ZM1642.31 155.854L1649.31 154.744C1652.56 154.23 1653.94 152.404 1653.44 149.265C1653.2 147.733 1652.62 146.683 1651.71 146.117C1650.82 145.509 1649.54 145.337 1647.87 145.603L1640.86 146.713L1642.31 155.854ZM1681.19 157.72L1673.63 158.916C1673.3 158.968 1673.05 158.915 1672.88 158.755C1672.73 158.554 1672.71 158.277 1672.8 157.926L1675.94 145.87L1659.89 122.097C1659.48 121.413 1659.66 121.01 1660.43 120.889L1667.98 119.693C1668.53 119.606 1668.95 119.801 1669.25 120.277L1678.7 135.669L1682.39 118.196C1682.53 117.651 1682.85 117.337 1683.36 117.257L1690.92 116.06C1691.68 115.939 1691.99 116.263 1691.85 117.034L1682.21 156.772C1682.08 157.317 1681.73 157.633 1681.19 157.72ZM1697.03 115.091L1711.54 112.794C1715.84 112.112 1719.45 112.83 1722.37 114.95C1725.28 117.032 1727.07 120.19 1727.74 124.423C1728.42 128.693 1727.7 132.286 1725.58 135.202C1723.45 138.083 1720.24 139.864 1715.93 140.546L1709.25 141.603L1710.9 152.003C1711.01 152.66 1710.75 153.038 1710.13 153.136L1703.23 154.228C1702.61 154.327 1702.25 154.047 1702.14 153.391L1696.26 116.224C1696.15 115.567 1696.41 115.19 1697.03 115.091ZM1707.96 133.448L1713.44 132.581C1717.56 131.927 1719.32 129.685 1718.71 125.853C1718.1 122.022 1715.74 120.433 1711.62 121.086L1706.14 121.953L1707.96 133.448ZM1744.98 147.616L1738.14 148.7C1737.48 148.804 1737.1 148.527 1737 147.87L1731.11 110.704C1731.01 110.047 1731.28 109.667 1731.94 109.563L1753.83 106.095C1754.49 105.991 1754.87 106.267 1754.98 106.924L1755.96 113.164C1756.06 113.784 1755.78 114.147 1755.13 114.251L1741.06 116.479L1745.81 146.475C1745.91 147.132 1745.64 147.512 1744.98 147.616ZM1791.69 136.907C1788.54 140.137 1784.61 142.125 1779.9 142.87C1774.98 143.651 1770.87 143.01 1767.59 140.949C1764.34 138.845 1762.34 135.458 1761.6 130.787L1759.79 119.347C1759.05 114.676 1759.91 110.856 1762.35 107.887C1764.84 104.913 1768.49 103.044 1773.31 102.281C1777.79 101.57 1781.88 102.12 1785.57 103.929C1786.17 104.171 1786.33 104.576 1786.05 105.145L1783.43 110.946C1783.15 111.514 1782.71 111.678 1782.11 111.436C1779.85 110.446 1777.41 110.159 1774.79 110.575C1772.52 110.934 1770.87 111.813 1769.82 113.214C1768.8 114.572 1768.45 116.255 1768.77 118.262L1770.47 128.991C1770.8 131.107 1771.68 132.651 1773.11 133.622C1774.53 134.557 1776.37 134.845 1778.63 134.487C1781.44 134.042 1783.86 132.874 1785.88 130.983C1786.36 130.495 1786.81 130.498 1787.22 130.994L1791.56 135.694C1792 136.147 1792.05 136.551 1791.69 136.907ZM1805.33 138.058L1798.49 139.141C1797.83 139.245 1797.45 138.969 1797.35 138.312L1791.46 101.145C1791.36 100.489 1791.63 100.108 1792.29 100.004L1799.13 98.9204C1799.79 98.8164 1800.17 99.0928 1800.27 99.7496L1802.46 113.543L1810.72 97.7019C1810.95 97.2543 1811.32 96.99 1811.83 96.9091L1820.48 95.5393C1820.88 95.4757 1821.15 95.5448 1821.3 95.7464C1821.48 95.9422 1821.47 96.2246 1821.26 96.5934L1810.77 114.64L1828.63 133.189C1828.93 133.44 1829.03 133.705 1828.92 133.984C1828.85 134.22 1828.61 134.37 1828.21 134.434L1819.78 135.769C1819.31 135.844 1818.89 135.686 1818.53 135.294L1806.3 122.248L1804.33 125.367L1806.16 136.916C1806.26 137.573 1805.99 137.953 1805.33 138.058ZM1862.61 128.985L1855.83 130.06C1855.21 130.158 1854.84 129.879 1854.74 129.222L1853.38 120.628C1852.67 116.14 1852.14 110.893 1851.78 104.889L1851.61 104.86C1850.36 109.922 1848.91 114.509 1847.28 118.62L1842.04 131.57C1841.85 132.049 1841.5 132.328 1840.99 132.409L1833.71 133.562C1833.09 133.66 1832.73 133.381 1832.63 132.724L1826.74 95.5577C1826.64 94.9008 1826.89 94.5233 1827.51 94.425L1834.3 93.35C1834.96 93.246 1835.34 93.5224 1835.44 94.1792L1836.99 103.977C1837.72 108.575 1838.29 113.478 1838.71 118.687L1838.88 118.716C1839.54 116.255 1840.87 112.042 1842.88 106.075L1848.14 91.8308C1848.29 91.3582 1848.62 91.0815 1849.14 91.0006L1856.42 89.8475C1857.07 89.7435 1857.45 90.0199 1857.56 90.6767L1863.44 127.843C1863.55 128.5 1863.27 128.881 1862.61 128.985ZM1889.67 74.5363C1889.63 74.0561 1889.31 73.771 1888.7 73.681L1884.05 73.4067C1883.47 73.3109 1883.14 73.5877 1883.06 74.2369C1882.8 75.887 1881.74 76.8594 1879.88 77.1541C1878.05 77.4431 1876.76 76.8435 1876 75.3553C1875.72 74.7638 1875.32 74.6027 1874.8 74.8718L1870.47 76.568C1869.85 76.891 1869.65 77.2964 1869.88 77.7841C1870.63 79.9465 1871.97 81.5487 1873.89 82.5908C1875.81 83.5963 1878.14 83.8824 1880.87 83.4489C1883.65 83.0097 1885.79 81.9974 1887.29 80.412C1888.83 78.7844 1889.62 76.8258 1889.67 74.5363ZM1894.74 123.896C1894.12 123.994 1893.76 123.715 1893.65 123.058L1892.29 114.465C1891.58 109.976 1891.05 104.73 1890.7 98.7257L1890.53 98.697C1889.27 103.759 1887.83 108.345 1886.2 112.456L1880.95 125.407C1880.77 125.885 1880.42 126.165 1879.91 126.246L1872.63 127.399C1872.01 127.497 1871.64 127.218 1871.54 126.561L1865.65 89.3942C1865.55 88.7373 1865.81 88.3598 1866.43 88.2615L1873.22 87.1865C1873.87 87.0825 1874.25 87.3589 1874.36 88.0157L1875.91 97.8137C1876.64 102.412 1877.21 107.315 1877.62 112.524L1877.79 112.553C1878.45 110.092 1879.79 105.878 1881.8 99.9112L1887.06 85.6673C1887.21 85.1947 1887.54 84.918 1888.05 84.8371L1895.33 83.684C1895.99 83.58 1896.37 83.8564 1896.47 84.5132L1902.36 121.68C1902.46 122.337 1902.19 122.717 1901.53 122.821L1894.74 123.896ZM1353.3 291.661L1344.35 293.08C1343.47 293.218 1342.97 292.85 1342.83 291.977L1335 242.539C1334.86 241.665 1335.23 241.159 1336.1 241.021L1346.44 239.383C1347.12 239.275 1347.66 239.514 1348.05 240.099L1356.61 251.73C1358.83 254.762 1361.77 259.197 1365.43 265.036L1365.72 264.989C1366.84 260.086 1368.24 254.963 1369.93 249.62L1374.55 235.901C1374.74 235.224 1375.18 234.832 1375.86 234.724L1386.2 233.087C1387.02 232.956 1387.5 233.327 1387.64 234.201L1395.47 283.639C1395.61 284.513 1395.27 285.015 1394.44 285.146L1385.41 286.576C1384.54 286.714 1384.03 286.346 1383.89 285.473L1382.37 275.862C1381.26 268.823 1380.27 261.019 1379.41 252.447L1379.11 252.421C1378 257.074 1376.57 262.302 1374.8 268.105L1372.37 275.878C1372.18 276.555 1371.75 276.947 1371.07 277.055L1364.08 278.162C1363.35 278.277 1362.81 278.039 1362.47 277.446L1357.69 270.815C1354.21 265.842 1351.23 261.313 1348.75 257.229L1348.47 257.348C1350.3 265.766 1351.77 273.494 1352.88 280.532L1354.41 290.143C1354.54 291.017 1354.18 291.523 1353.3 291.661ZM1414.83 260.197L1416.51 270.828L1438.14 267.403C1439.01 267.264 1439.51 267.608 1439.64 268.433L1440.91 276.442C1441.05 277.316 1440.68 277.822 1439.81 277.96L1407.77 283.034C1406.9 283.173 1406.39 282.805 1406.25 281.931L1398.42 232.493C1398.29 231.62 1398.65 231.114 1399.53 230.975L1430.4 226.086C1431.27 225.947 1431.78 226.315 1431.92 227.189L1433.18 235.198C1433.32 236.023 1432.94 236.505 1432.07 236.643L1411.61 239.884L1413.19 249.858L1431.25 246.999C1432.12 246.86 1432.62 247.204 1432.75 248.029L1434 255.892C1434.13 256.717 1433.76 257.199 1432.88 257.338L1414.83 260.197ZM1438.1 224.866L1476.4 218.8C1477.22 218.669 1477.71 219.041 1477.84 219.914L1479.16 228.215C1479.29 229.04 1478.94 229.518 1478.12 229.649L1464.79 231.759L1471.11 271.659C1471.25 272.532 1470.91 273.034 1470.08 273.165L1460.91 274.618C1460.08 274.749 1459.6 274.377 1459.46 273.504L1453.14 233.604L1439.82 235.714C1438.95 235.853 1438.44 235.509 1438.31 234.684L1437 226.384C1436.86 225.51 1437.23 225.004 1438.1 224.866ZM1485.2 217.405L1504.5 214.349C1510.23 213.442 1515.03 214.398 1518.91 217.217C1522.78 219.987 1525.16 224.187 1526.06 229.818C1526.96 235.497 1526 240.277 1523.18 244.156C1520.35 247.987 1516.07 250.357 1510.35 251.264L1501.46 252.671L1503.65 266.505C1503.79 267.378 1503.45 267.88 1502.62 268.011L1493.45 269.464C1492.62 269.595 1492.14 269.223 1492 268.35L1484.17 218.912C1484.04 218.038 1484.38 217.536 1485.2 217.405ZM1499.74 241.822L1507.03 240.669C1512.51 239.8 1514.85 236.817 1514.04 231.721C1513.23 226.624 1510.09 224.51 1504.6 225.379L1497.32 226.532L1499.74 241.822ZM1576.21 236.055C1577.24 242.56 1576.17 247.928 1573.01 252.161C1569.85 256.393 1564.92 259.04 1558.22 260.101C1551.57 261.154 1546.09 260.156 1541.78 257.108C1537.46 254.059 1534.79 249.283 1533.76 242.779L1531.76 230.183C1530.74 223.727 1531.81 218.383 1534.97 214.15C1538.13 209.918 1543.04 207.275 1549.69 206.222C1556.39 205.161 1561.89 206.154 1566.21 209.203C1570.51 212.203 1573.18 216.955 1574.21 223.459L1576.21 236.055ZM1545.67 240.669C1546.7 247.222 1550.31 250.01 1556.47 249.034C1562.63 248.057 1565.2 244.293 1564.16 237.74L1562.23 225.581C1561.2 219.076 1557.61 216.312 1551.44 217.289C1545.28 218.265 1542.71 222.005 1543.74 228.51L1545.67 240.669ZM1598.9 252.763L1589.73 254.216C1588.85 254.354 1588.35 253.986 1588.21 253.113L1580.38 203.675C1580.24 202.801 1580.61 202.295 1581.48 202.157L1618.76 196.252C1619.63 196.114 1620.14 196.482 1620.28 197.355L1628.11 246.793C1628.24 247.667 1627.88 248.173 1627 248.311L1617.9 249.753C1617.03 249.891 1616.52 249.523 1616.38 248.65L1610.06 208.75L1593.61 211.356L1599.93 251.256C1600.07 252.13 1599.72 252.632 1598.9 252.763ZM1676.75 220.132C1677.78 226.636 1676.71 232.004 1673.55 236.237C1670.39 240.469 1665.46 243.116 1658.76 244.177C1652.11 245.23 1646.63 244.232 1642.32 241.184C1638 238.135 1635.33 233.359 1634.3 226.855L1632.3 214.259C1631.28 207.803 1632.35 202.459 1635.51 198.226C1638.67 193.994 1643.58 191.351 1650.23 190.298C1656.93 189.237 1662.43 190.23 1666.75 193.279C1671.05 196.279 1673.72 201.031 1674.75 207.535L1676.75 220.132ZM1646.21 224.745C1647.24 231.298 1650.85 234.086 1657.01 233.11C1663.17 232.133 1665.74 228.369 1664.7 221.816L1662.77 209.657C1661.74 203.152 1658.15 200.388 1651.98 201.365C1645.82 202.341 1643.25 206.081 1644.28 212.586L1646.21 224.745ZM1700.52 220.919C1700 226.724 1698.52 231.039 1696.08 233.863C1693.64 236.687 1690 238.557 1685.17 239.471C1684.3 239.61 1683.8 239.266 1683.67 238.441L1682.34 230.068C1682.22 229.291 1682.56 228.789 1683.37 228.561C1685.23 228.067 1686.57 227.109 1687.39 225.685C1688.25 224.205 1688.76 221.887 1688.9 218.729C1689.3 213.044 1688.56 202.413 1686.69 186.837C1686.6 185.955 1686.99 185.445 1687.86 185.307L1719.54 180.291C1720.36 180.16 1720.84 180.531 1720.98 181.405L1728.81 230.843C1728.95 231.717 1728.61 232.219 1727.78 232.349L1718.61 233.802C1717.78 233.933 1717.3 233.562 1717.16 232.688L1710.86 192.861L1699.42 194.672C1700.68 205.718 1701.04 214.468 1700.52 220.919ZM1779.47 224.162L1770.45 225.592C1769.62 225.723 1769.14 225.351 1769 224.478L1767.19 213.047C1766.24 207.076 1765.54 200.098 1765.07 192.111L1764.84 192.073C1763.17 198.806 1761.25 204.907 1759.08 210.375L1752.11 227.601C1751.86 228.238 1751.39 228.61 1750.71 228.717L1741.03 230.251C1740.21 230.382 1739.72 230.01 1739.59 229.137L1731.76 179.699C1731.62 178.825 1731.96 178.323 1732.79 178.192L1741.81 176.762C1742.69 176.624 1743.19 176.991 1743.33 177.865L1745.4 190.898C1746.37 197.014 1747.12 203.537 1747.67 210.465L1747.9 210.503C1748.78 207.23 1750.55 201.625 1753.23 193.688L1760.23 174.741C1760.43 174.113 1760.87 173.745 1761.55 173.637L1771.23 172.103C1772.1 171.965 1772.61 172.333 1772.75 173.206L1780.58 222.644C1780.72 223.518 1780.35 224.024 1779.47 224.162ZM1780.11 170.697L1818.41 164.631C1819.23 164.501 1819.71 164.872 1819.85 165.746L1821.17 174.046C1821.3 174.871 1820.95 175.349 1820.12 175.48L1806.8 177.59L1813.12 217.49C1813.26 218.364 1812.91 218.866 1812.09 218.997L1802.91 220.45C1802.09 220.58 1801.61 220.209 1801.47 219.335L1795.15 179.435L1781.83 181.546C1780.95 181.684 1780.45 181.341 1780.32 180.516L1779 172.215C1778.87 171.342 1779.23 170.836 1780.11 170.697ZM1842.58 192.447L1844.27 203.078L1865.89 199.653C1866.77 199.514 1867.27 199.858 1867.4 200.683L1868.67 208.692C1868.81 209.566 1868.44 210.072 1867.57 210.21L1835.53 215.284C1834.66 215.422 1834.15 215.055 1834.01 214.181L1826.18 164.743C1826.04 163.87 1826.41 163.364 1827.28 163.225L1858.15 158.336C1859.03 158.197 1859.53 158.565 1859.67 159.439L1860.94 167.448C1861.07 168.273 1860.7 168.755 1859.83 168.893L1839.37 172.134L1840.95 182.108L1859 179.249C1859.88 179.11 1860.38 179.454 1860.51 180.279L1861.76 188.142C1861.89 188.967 1861.52 189.449 1860.64 189.588L1842.58 192.447ZM1900.39 172.544L1897.37 153.467C1897.24 152.594 1897.6 152.088 1898.48 151.949L1907.58 150.508C1908.45 150.369 1908.96 150.737 1909.1 151.611L1916.93 201.049C1917.06 201.922 1916.7 202.428 1915.82 202.567L1906.72 204.008C1905.85 204.147 1905.34 203.779 1905.2 202.905L1902.11 183.392L1885.73 185.987L1888.82 205.5C1888.96 206.374 1888.59 206.88 1887.72 207.018L1878.62 208.46C1877.74 208.598 1877.24 208.23 1877.1 207.357L1869.27 157.919C1869.13 157.045 1869.5 156.539 1870.37 156.401L1879.47 154.959C1880.35 154.821 1880.85 155.188 1880.99 156.062L1884.01 175.138L1900.39 172.544ZM1357.53 336.424L1358.8 344.415L1375.05 341.84C1375.71 341.736 1376.09 341.995 1376.19 342.615L1377.14 348.636C1377.25 349.293 1376.97 349.673 1376.31 349.777L1352.23 353.592C1351.57 353.696 1351.19 353.419 1351.09 352.763L1345.2 315.596C1345.1 314.939 1345.37 314.559 1346.03 314.455L1369.24 310.779C1369.89 310.675 1370.27 310.951 1370.38 311.608L1371.33 317.629C1371.43 318.25 1371.15 318.612 1370.49 318.716L1355.11 321.152L1356.3 328.651L1369.88 326.501C1370.53 326.397 1370.91 326.655 1371.01 327.275L1371.94 333.187C1372.04 333.807 1371.76 334.17 1371.11 334.274L1357.53 336.424ZM1391.46 347.378L1384.62 348.461C1383.96 348.565 1383.58 348.289 1383.48 347.632L1377.59 310.465C1377.49 309.809 1377.77 309.428 1378.42 309.324L1385.26 308.24C1385.92 308.136 1386.3 308.413 1386.41 309.07L1388.59 322.863L1396.85 307.022C1397.08 306.574 1397.45 306.31 1397.96 306.229L1406.61 304.859C1407.01 304.796 1407.29 304.865 1407.43 305.066C1407.61 305.262 1407.6 305.545 1407.4 305.913L1396.9 323.96L1414.76 342.509C1415.07 342.76 1415.16 343.025 1415.06 343.304C1414.98 343.54 1414.74 343.69 1414.34 343.754L1405.91 345.089C1405.44 345.164 1405.02 345.006 1404.66 344.614L1392.44 331.568L1390.46 334.687L1392.29 346.236C1392.4 346.893 1392.12 347.274 1391.46 347.378ZM1423.24 342.345L1415.9 343.506C1415.14 343.628 1414.83 343.303 1414.97 342.533L1421.76 303.246C1421.9 302.7 1422.2 302.39 1422.68 302.315L1431 300.997C1431.51 300.916 1431.9 301.116 1432.16 301.598L1450.76 336.863C1451.17 337.547 1450.97 337.952 1450.17 338.079L1442.89 339.232C1442.31 339.325 1441.88 339.112 1441.61 338.593L1438.53 332.236L1425.23 334.343L1424.2 341.35C1424.15 341.921 1423.82 342.252 1423.24 342.345ZM1428.25 311.252C1428.16 311.865 1427.87 314.061 1427.38 317.842C1426.93 321.58 1426.56 324.425 1426.27 326.379L1435.08 324.983C1434.91 324.636 1432.71 320.047 1428.47 311.217L1428.25 311.252ZM1443.5 299.016L1472.3 294.456C1472.92 294.358 1473.28 294.637 1473.38 295.294L1474.37 301.534C1474.47 302.154 1474.21 302.514 1473.59 302.612L1463.57 304.199L1468.32 334.195C1468.43 334.851 1468.17 335.229 1467.55 335.327L1460.65 336.42C1460.03 336.518 1459.67 336.238 1459.56 335.582L1454.81 305.586L1444.8 307.172C1444.14 307.276 1443.76 307.018 1443.66 306.398L1442.67 300.158C1442.57 299.501 1442.85 299.12 1443.5 299.016ZM1490.47 315.368L1491.74 323.359L1508 320.785C1508.65 320.681 1509.03 320.939 1509.13 321.559L1510.08 327.58C1510.19 328.237 1509.91 328.617 1509.25 328.722L1485.17 332.536C1484.51 332.64 1484.13 332.364 1484.03 331.707L1478.14 294.54C1478.04 293.883 1478.31 293.503 1478.97 293.399L1502.18 289.723C1502.84 289.619 1503.22 289.896 1503.32 290.552L1504.27 296.573C1504.37 297.194 1504.09 297.556 1503.44 297.66L1488.05 300.096L1489.24 307.595L1502.82 305.445C1503.47 305.341 1503.85 305.599 1503.95 306.22L1504.89 312.131C1504.98 312.752 1504.7 313.114 1504.05 313.218L1490.47 315.368ZM1511.31 288.277L1525.81 285.98C1530.12 285.298 1533.73 286.016 1536.65 288.135C1539.56 290.218 1541.35 293.376 1542.02 297.609C1542.7 301.878 1541.97 305.471 1539.86 308.388C1537.73 311.268 1534.52 313.049 1530.21 313.731L1523.53 314.789L1525.18 325.189C1525.28 325.846 1525.02 326.224 1524.4 326.322L1517.51 327.414C1516.89 327.512 1516.52 327.233 1516.42 326.576L1510.53 289.41C1510.43 288.753 1510.69 288.375 1511.31 288.277ZM1522.24 306.633L1527.71 305.766C1531.84 305.113 1533.6 302.871 1532.99 299.039C1532.38 295.208 1530.02 293.618 1525.89 294.271L1520.42 295.138L1522.24 306.633ZM1581.26 317.317L1574.47 318.392C1573.85 318.49 1573.49 318.211 1573.39 317.554L1572.03 308.96C1571.31 304.472 1570.78 299.225 1570.43 293.221L1570.26 293.192C1569 298.254 1567.56 302.841 1565.93 306.952L1560.68 319.902C1560.5 320.381 1560.15 320.66 1559.64 320.741L1552.36 321.894C1551.74 321.992 1551.38 321.713 1551.27 321.056L1545.39 283.89C1545.28 283.233 1545.54 282.855 1546.16 282.757L1552.95 281.682C1553.6 281.578 1553.99 281.854 1554.09 282.511L1555.64 292.309C1556.37 296.907 1556.94 301.811 1557.35 307.019L1557.53 307.048C1558.18 304.587 1559.52 300.374 1561.53 294.407L1566.79 280.163C1566.94 279.69 1567.27 279.413 1567.78 279.333L1575.06 278.18C1575.72 278.075 1576.1 278.352 1576.2 279.009L1582.09 316.175C1582.19 316.832 1581.92 317.213 1581.26 317.317ZM1607.7 288.721L1605.43 274.38C1605.33 273.723 1605.6 273.342 1606.26 273.238L1613.1 272.155C1613.76 272.051 1614.14 272.327 1614.24 272.984L1620.13 310.151C1620.23 310.807 1619.96 311.188 1619.3 311.292L1612.46 312.376C1611.8 312.48 1611.42 312.203 1611.32 311.546L1608.99 296.877L1596.68 298.827L1599 313.497C1599.1 314.154 1598.83 314.534 1598.17 314.638L1591.33 315.722C1590.67 315.826 1590.29 315.55 1590.19 314.893L1584.3 277.726C1584.2 277.069 1584.47 276.689 1585.13 276.585L1591.97 275.501C1592.63 275.397 1593.01 275.674 1593.11 276.33L1595.38 290.672L1607.7 288.721ZM1636.23 308.61L1629.39 309.694C1628.73 309.798 1628.35 309.522 1628.25 308.865L1622.36 271.698C1622.26 271.041 1622.53 270.661 1623.19 270.557L1645.08 267.089C1645.74 266.985 1646.12 267.261 1646.23 267.918L1647.21 274.158C1647.31 274.779 1647.03 275.141 1646.38 275.245L1632.31 277.473L1637.06 307.469C1637.16 308.126 1636.89 308.506 1636.23 308.61ZM1661.89 279.52L1668.68 278.445C1678.06 276.96 1683.38 280.195 1684.64 288.15C1685.29 292.274 1684.6 295.581 1682.56 298.074C1680.52 300.529 1677.27 302.11 1672.82 302.815L1657.93 305.173C1657.28 305.277 1656.9 305.001 1656.79 304.344L1650.9 267.177C1650.8 266.52 1651.08 266.14 1651.73 266.036L1676.42 262.126C1677.08 262.022 1677.46 262.298 1677.56 262.955L1678.47 268.703C1678.58 269.359 1678.3 269.74 1677.64 269.844L1660.78 272.514L1661.89 279.52ZM1664.52 296.106L1671.53 294.996C1674.77 294.482 1676.15 292.655 1675.65 289.517C1675.41 287.984 1674.83 286.935 1673.92 286.369C1673.04 285.76 1671.76 285.589 1670.08 285.855L1663.07 286.965L1664.52 296.106ZM1703.4 297.972L1695.85 299.168C1695.52 299.22 1695.27 299.167 1695.09 299.007C1694.95 298.806 1694.92 298.529 1695.01 298.177L1698.16 286.121L1682.1 262.348C1681.69 261.665 1681.87 261.262 1682.64 261.141L1690.19 259.944C1690.74 259.858 1691.16 260.052 1691.46 260.529L1700.92 275.921L1704.6 258.448C1704.74 257.902 1705.06 257.589 1705.57 257.508L1713.13 256.312C1713.9 256.191 1714.21 256.515 1714.07 257.285L1704.43 297.023C1704.29 297.569 1703.95 297.885 1703.4 297.972ZM1719.25 255.343L1733.75 253.046C1738.06 252.364 1741.67 253.082 1744.59 255.201C1747.5 257.284 1749.29 260.442 1749.96 264.675C1750.63 268.944 1749.91 272.537 1747.79 275.454C1745.67 278.334 1742.45 280.115 1738.15 280.797L1731.47 281.855L1733.12 292.255C1733.22 292.912 1732.96 293.29 1732.34 293.388L1725.44 294.48C1724.82 294.578 1724.46 294.299 1724.36 293.642L1718.47 256.476C1718.37 255.819 1718.63 255.441 1719.25 255.343ZM1730.18 273.699L1735.65 272.832C1739.77 272.179 1741.53 269.937 1740.93 266.105C1740.32 262.274 1737.95 260.684 1733.83 261.337L1728.36 262.204L1730.18 273.699ZM1767.19 287.868L1760.35 288.951C1759.69 289.055 1759.31 288.779 1759.21 288.122L1753.32 250.956C1753.22 250.299 1753.5 249.918 1754.15 249.814L1776.05 246.347C1776.7 246.243 1777.08 246.519 1777.19 247.176L1778.18 253.416C1778.28 254.036 1778 254.398 1777.34 254.502L1763.27 256.73L1768.02 286.726C1768.13 287.383 1767.85 287.764 1767.19 287.868ZM1813.91 277.158C1810.75 280.389 1806.82 282.377 1802.12 283.122C1797.19 283.902 1793.09 283.262 1789.8 281.201C1786.55 279.097 1784.56 275.71 1783.82 271.039L1782.01 259.599C1781.27 254.928 1782.12 251.108 1784.57 248.139C1787.05 245.165 1790.7 243.296 1795.52 242.533C1800.01 241.822 1804.1 242.371 1807.79 244.181C1808.39 244.423 1808.54 244.828 1808.26 245.397L1805.64 251.198C1805.36 251.766 1804.92 251.93 1804.32 251.688C1802.07 250.698 1799.63 250.411 1797 250.827C1794.74 251.185 1793.08 252.065 1792.03 253.466C1791.01 254.824 1790.66 256.507 1790.98 258.514L1792.68 269.242C1793.01 271.359 1793.9 272.903 1795.32 273.874C1796.74 274.809 1798.58 275.097 1800.84 274.739C1803.65 274.294 1806.07 273.126 1808.09 271.235C1808.57 270.747 1809.02 270.75 1809.44 271.245L1813.77 275.945C1814.22 276.398 1814.26 276.803 1813.91 277.158ZM1827.54 278.309L1820.7 279.393C1820.04 279.497 1819.66 279.221 1819.56 278.564L1813.67 241.397C1813.57 240.74 1813.85 240.36 1814.5 240.256L1821.34 239.172C1822 239.068 1822.38 239.345 1822.49 240.001L1824.67 253.795L1832.93 237.954C1833.16 237.506 1833.53 237.242 1834.04 237.161L1842.69 235.791C1843.09 235.727 1843.37 235.796 1843.51 235.998C1843.69 236.194 1843.68 236.476 1843.48 236.845L1832.98 254.892L1850.84 273.441C1851.15 273.692 1851.24 273.957 1851.14 274.236C1851.06 274.472 1850.82 274.622 1850.42 274.685L1841.99 276.021C1841.52 276.096 1841.1 275.937 1840.74 275.546L1828.52 262.5L1826.54 265.618L1828.37 277.168C1828.48 277.825 1828.2 278.205 1827.54 278.309ZM1884.83 269.236L1878.04 270.311C1877.42 270.41 1877.06 270.13 1876.95 269.473L1875.59 260.88C1874.88 256.391 1874.35 251.145 1874 245.141L1873.82 245.112C1872.57 250.174 1871.13 254.76 1869.49 258.872L1864.25 271.822C1864.07 272.3 1863.72 272.58 1863.21 272.661L1855.93 273.814C1855.31 273.912 1854.94 273.633 1854.84 272.976L1848.95 235.809C1848.85 235.153 1849.11 234.775 1849.73 234.677L1856.51 233.602C1857.17 233.498 1857.55 233.774 1857.66 234.431L1859.21 244.229C1859.94 248.827 1860.51 253.73 1860.92 258.939L1861.09 258.968C1861.75 256.507 1863.09 252.293 1865.1 246.326L1870.36 232.083C1870.51 231.61 1870.84 231.333 1871.35 231.252L1878.63 230.099C1879.29 229.995 1879.67 230.272 1879.77 230.928L1885.66 268.095C1885.76 268.752 1885.48 269.132 1884.83 269.236ZM1911.89 214.788C1911.85 214.308 1911.52 214.023 1910.91 213.933L1906.26 213.658C1905.69 213.563 1905.36 213.839 1905.27 214.489C1905.01 216.139 1903.95 217.111 1902.09 217.406C1900.26 217.695 1898.97 217.095 1898.21 215.607C1897.93 215.016 1897.53 214.854 1897.01 215.124L1892.68 216.82C1892.06 217.143 1891.86 217.548 1892.09 218.036C1892.84 220.198 1894.18 221.8 1896.1 222.843C1898.02 223.848 1900.35 224.134 1903.09 223.701C1905.86 223.261 1908 222.249 1909.51 220.664C1911.04 219.036 1911.84 217.078 1911.89 214.788ZM1916.95 264.148C1916.33 264.246 1915.97 263.967 1915.87 263.31L1914.51 254.716C1913.8 250.228 1913.26 244.982 1912.91 238.977L1912.74 238.949C1911.48 244.01 1910.04 248.597 1908.41 252.708L1903.17 265.658C1902.98 266.137 1902.63 266.416 1902.12 266.497L1894.84 267.65C1894.22 267.749 1893.86 267.469 1893.75 266.812L1887.87 229.646C1887.76 228.989 1888.02 228.612 1888.64 228.513L1895.43 227.438C1896.09 227.334 1896.47 227.611 1896.57 228.267L1898.12 238.065C1898.85 242.663 1899.42 247.567 1899.84 252.776L1900.01 252.804C1900.67 250.344 1902 246.13 1904.01 240.163L1909.27 225.919C1909.42 225.446 1909.75 225.17 1910.26 225.089L1917.54 223.936C1918.2 223.832 1918.58 224.108 1918.68 224.765L1924.57 261.932C1924.68 262.588 1924.4 262.969 1923.74 263.073L1916.95 264.148ZM1375.52 431.913L1366.56 433.331C1365.69 433.47 1365.18 433.102 1365.04 432.228L1357.21 382.79C1357.07 381.917 1357.44 381.411 1358.32 381.272L1368.66 379.635C1369.33 379.527 1369.87 379.766 1370.26 380.351L1378.82 391.982C1381.04 395.013 1383.98 399.449 1387.65 405.287L1387.94 405.241C1389.05 400.338 1390.45 395.215 1392.14 389.871L1396.76 376.153C1396.96 375.476 1397.39 375.084 1398.07 374.976L1408.41 373.338C1409.23 373.208 1409.72 373.579 1409.85 374.453L1417.68 423.891C1417.82 424.764 1417.48 425.267 1416.65 425.397L1407.63 426.827C1406.75 426.966 1406.25 426.598 1406.11 425.724L1404.59 416.113C1403.47 409.075 1402.48 401.27 1401.62 392.699L1401.32 392.672C1400.22 397.325 1398.78 402.553 1397.01 408.356L1394.59 416.13C1394.4 416.807 1393.96 417.199 1393.28 417.307L1386.29 418.414C1385.56 418.529 1385.03 418.291 1384.69 417.698L1379.9 411.066C1376.43 406.094 1373.45 401.565 1370.96 397.481L1370.68 397.6C1372.51 406.018 1373.98 413.746 1375.1 420.784L1376.62 430.395C1376.76 431.268 1376.39 431.774 1375.52 431.913ZM1437.04 400.449L1438.73 411.079L1460.35 407.654C1461.22 407.516 1461.73 407.859 1461.86 408.685L1463.12 416.694C1463.26 417.567 1462.9 418.073 1462.02 418.212L1429.99 423.286C1429.11 423.424 1428.61 423.057 1428.47 422.183L1420.64 372.745C1420.5 371.871 1420.87 371.365 1421.74 371.227L1452.61 366.337C1453.49 366.199 1453.99 366.567 1454.13 367.44L1455.4 375.449C1455.53 376.275 1455.16 376.756 1454.28 376.895L1433.82 380.135L1435.4 390.11L1453.46 387.25C1454.33 387.112 1454.84 387.455 1454.97 388.281L1456.21 396.144C1456.34 396.969 1455.97 397.451 1455.1 397.589L1437.04 400.449ZM1460.31 365.117L1498.61 359.052C1499.44 358.921 1499.92 359.292 1500.06 360.166L1501.37 368.466C1501.5 369.292 1501.16 369.77 1500.33 369.9L1487.01 372.011L1493.33 411.91C1493.46 412.784 1493.12 413.286 1492.3 413.417L1483.12 414.87C1482.3 415.001 1481.81 414.629 1481.68 413.755L1475.36 373.856L1462.03 375.966C1461.16 376.104 1460.66 375.761 1460.53 374.936L1459.21 366.636C1459.07 365.762 1459.44 365.256 1460.31 365.117ZM1507.42 357.657L1526.71 354.601C1532.44 353.694 1537.24 354.65 1541.12 357.468C1545 360.239 1547.38 364.439 1548.27 370.07C1549.17 375.749 1548.21 380.528 1545.39 384.408C1542.56 388.239 1538.29 390.608 1532.56 391.516L1523.68 392.922L1525.87 406.756C1526.01 407.63 1525.66 408.132 1524.84 408.263L1515.66 409.716C1514.84 409.847 1514.36 409.475 1514.22 408.601L1506.39 359.164C1506.25 358.29 1506.59 357.788 1507.42 357.657ZM1521.96 382.074L1529.24 380.921C1534.72 380.052 1537.06 377.069 1536.26 371.972C1535.45 366.876 1532.3 364.762 1526.82 365.631L1519.54 366.784L1521.96 382.074ZM1598.42 376.307C1599.45 382.812 1598.39 388.18 1595.23 392.412C1592.06 396.645 1587.13 399.292 1580.44 400.352C1573.79 401.406 1568.3 400.408 1563.99 397.36C1559.68 394.311 1557 389.535 1555.97 383.03L1553.98 370.434C1552.96 363.978 1554.03 358.634 1557.19 354.402C1560.35 350.169 1565.25 347.527 1571.9 346.473C1578.6 345.412 1584.11 346.406 1588.42 349.455C1592.73 352.455 1595.4 357.207 1596.43 363.711L1598.42 376.307ZM1567.88 380.921C1568.92 387.474 1572.52 390.262 1578.68 389.285C1584.85 388.309 1587.41 384.544 1586.37 377.992L1584.45 365.832C1583.42 359.328 1579.82 356.564 1573.66 357.54C1567.49 358.517 1564.92 362.257 1565.95 368.761L1567.88 380.921ZM1621.11 393.014L1611.94 394.467C1611.07 394.606 1610.56 394.238 1610.42 393.364L1602.59 343.927C1602.45 343.053 1602.82 342.547 1603.69 342.408L1640.97 336.504C1641.85 336.366 1642.35 336.733 1642.49 337.607L1650.32 387.045C1650.46 387.919 1650.09 388.425 1649.22 388.563L1640.12 390.004C1639.24 390.143 1638.74 389.775 1638.6 388.901L1632.28 349.002L1615.82 351.608L1622.14 391.508C1622.28 392.381 1621.94 392.884 1621.11 393.014ZM1698.96 360.383C1699.99 366.888 1698.93 372.256 1695.77 376.488C1692.6 380.721 1687.67 383.368 1680.98 384.429C1674.33 385.482 1668.84 384.484 1664.53 381.436C1660.22 378.387 1657.54 373.611 1656.51 367.106L1654.52 354.51C1653.5 348.055 1654.57 342.71 1657.73 338.478C1660.89 334.245 1665.79 331.603 1672.44 330.549C1679.14 329.488 1684.65 330.482 1688.96 333.531C1693.27 336.531 1695.94 341.283 1696.97 347.787L1698.96 360.383ZM1668.42 364.997C1669.46 371.55 1673.06 374.338 1679.22 373.361C1685.39 372.385 1687.95 368.62 1686.91 362.068L1684.99 349.908C1683.96 343.404 1680.36 340.64 1674.2 341.616C1668.03 342.593 1665.46 346.333 1666.49 352.837L1668.42 364.997ZM1722.73 361.171C1722.21 366.976 1720.73 371.29 1718.29 374.115C1715.85 376.939 1712.22 378.809 1707.39 379.723C1706.51 379.861 1706.01 379.518 1705.88 378.693L1704.55 370.32C1704.43 369.543 1704.77 369.041 1705.58 368.813C1707.45 368.319 1708.79 367.36 1709.61 365.937C1710.47 364.457 1710.97 362.138 1711.12 358.98C1711.51 353.295 1710.77 342.665 1708.9 327.088C1708.81 326.207 1709.2 325.697 1710.08 325.559L1741.75 320.542C1742.58 320.412 1743.06 320.783 1743.2 321.657L1751.03 371.095C1751.16 371.968 1750.82 372.471 1750 372.601L1740.82 374.054C1740 374.185 1739.52 373.813 1739.38 372.94L1733.07 333.113L1721.64 334.923C1722.89 345.97 1723.26 354.719 1722.73 361.171ZM1801.69 364.414L1792.66 365.844C1791.83 365.975 1791.35 365.603 1791.21 364.729L1789.4 353.298C1788.46 347.328 1787.75 340.349 1787.28 332.363L1787.05 332.325C1785.38 339.058 1783.46 345.159 1781.29 350.627L1774.32 367.853C1774.07 368.49 1773.61 368.861 1772.93 368.969L1763.24 370.503C1762.42 370.634 1761.94 370.262 1761.8 369.388L1753.97 319.951C1753.83 319.077 1754.17 318.575 1755 318.444L1764.03 317.014C1764.9 316.876 1765.41 317.243 1765.55 318.117L1767.61 331.15C1768.58 337.266 1769.34 343.788 1769.89 350.717L1770.12 350.755C1770.99 347.482 1772.77 341.877 1775.44 333.94L1782.44 314.993C1782.64 314.365 1783.08 313.996 1783.76 313.889L1793.44 312.355C1794.32 312.217 1794.82 312.584 1794.96 313.458L1802.79 362.896C1802.93 363.77 1802.56 364.276 1801.69 364.414ZM1802.32 310.949L1840.62 304.883C1841.44 304.752 1841.93 305.124 1842.06 305.998L1843.38 314.298C1843.51 315.123 1843.16 315.601 1842.34 315.732L1829.01 317.842L1835.33 357.742C1835.47 358.616 1835.13 359.118 1834.3 359.248L1825.13 360.701C1824.3 360.832 1823.82 360.461 1823.68 359.587L1817.36 319.687L1804.04 321.798C1803.17 321.936 1802.66 321.593 1802.53 320.767L1801.22 312.467C1801.08 311.593 1801.45 311.087 1802.32 310.949ZM1864.8 332.699L1866.48 343.329L1888.11 339.904C1888.98 339.766 1889.48 340.109 1889.61 340.935L1890.88 348.944C1891.02 349.817 1890.65 350.323 1889.78 350.462L1857.74 355.536C1856.87 355.674 1856.36 355.307 1856.22 354.433L1848.39 304.995C1848.26 304.121 1848.62 303.615 1849.5 303.477L1880.37 298.587C1881.24 298.449 1881.75 298.817 1881.89 299.69L1883.16 307.699C1883.29 308.525 1882.91 309.006 1882.04 309.145L1861.58 312.385L1863.16 322.36L1881.22 319.5C1882.09 319.362 1882.59 319.705 1882.72 320.53L1883.97 328.394C1884.1 329.219 1883.73 329.701 1882.86 329.839L1864.8 332.699ZM1922.61 312.795L1919.59 293.719C1919.45 292.845 1919.82 292.339 1920.69 292.201L1929.79 290.76C1930.67 290.621 1931.17 290.989 1931.31 291.863L1939.14 341.3C1939.28 342.174 1938.91 342.68 1938.04 342.818L1928.94 344.26C1928.06 344.398 1927.56 344.031 1927.42 343.157L1924.33 323.644L1907.94 326.239L1911.04 345.752C1911.17 346.625 1910.81 347.131 1909.93 347.27L1900.83 348.711C1899.96 348.85 1899.45 348.482 1899.31 347.608L1891.48 298.171C1891.34 297.297 1891.71 296.791 1892.59 296.652L1901.69 295.211C1902.56 295.072 1903.07 295.44 1903.21 296.314L1906.23 315.39L1922.61 312.795ZM1379.75 476.675L1381.01 484.667L1397.27 482.092C1397.93 481.988 1398.3 482.246 1398.4 482.867L1399.35 488.888C1399.46 489.545 1399.18 489.925 1398.53 490.029L1374.44 493.844C1373.78 493.948 1373.4 493.671 1373.3 493.014L1367.41 455.848C1367.31 455.191 1367.59 454.811 1368.24 454.707L1391.45 451.031C1392.11 450.927 1392.49 451.203 1392.59 451.86L1393.55 457.881C1393.64 458.501 1393.37 458.863 1392.71 458.968L1377.33 461.404L1378.51 468.903L1392.09 466.753C1392.75 466.649 1393.12 466.907 1393.22 467.527L1394.16 473.439C1394.26 474.059 1393.98 474.421 1393.32 474.525L1379.75 476.675ZM1413.68 487.629L1406.83 488.713C1406.18 488.817 1405.8 488.541 1405.69 487.884L1399.81 450.717C1399.7 450.06 1399.98 449.68 1400.64 449.576L1407.48 448.492C1408.13 448.388 1408.52 448.665 1408.62 449.321L1410.8 463.115L1419.07 447.274C1419.3 446.826 1419.67 446.562 1420.18 446.481L1428.83 445.111C1429.23 445.048 1429.5 445.117 1429.64 445.318C1429.82 445.514 1429.81 445.796 1429.61 446.165L1419.11 464.212L1436.98 482.761C1437.28 483.012 1437.38 483.277 1437.27 483.556C1437.2 483.792 1436.96 483.942 1436.56 484.005L1428.13 485.341C1427.65 485.416 1427.24 485.257 1426.87 484.866L1414.65 471.82L1412.68 474.938L1414.51 486.488C1414.61 487.145 1414.33 487.525 1413.68 487.629ZM1445.45 482.596L1438.12 483.758C1437.35 483.879 1437.04 483.555 1437.18 482.785L1443.97 443.497C1444.11 442.952 1444.42 442.641 1444.89 442.566L1453.21 441.249C1453.72 441.168 1454.11 441.368 1454.37 441.85L1472.98 477.115C1473.38 477.798 1473.19 478.204 1472.38 478.331L1465.1 479.484C1464.52 479.577 1464.09 479.364 1463.82 478.845L1460.74 472.488L1447.44 474.595L1446.42 481.602C1446.36 482.172 1446.04 482.504 1445.45 482.596ZM1450.46 451.504C1450.37 452.117 1450.08 454.313 1449.6 458.093C1449.14 461.831 1448.77 464.677 1448.48 466.631L1457.29 465.235C1457.13 464.887 1454.92 460.299 1450.68 451.469L1450.46 451.504ZM1465.72 439.268L1494.51 434.708C1495.13 434.61 1495.49 434.889 1495.6 435.546L1496.58 441.786C1496.68 442.406 1496.42 442.765 1495.8 442.864L1485.78 444.45L1490.53 474.446C1490.64 475.103 1490.38 475.481 1489.76 475.579L1482.86 476.671C1482.24 476.77 1481.88 476.49 1481.78 475.833L1477.03 445.837L1467.01 447.424C1466.35 447.528 1465.97 447.27 1465.88 446.649L1464.89 440.409C1464.78 439.753 1465.06 439.372 1465.72 439.268ZM1512.69 455.62L1513.95 463.611L1530.21 461.036C1530.87 460.932 1531.24 461.19 1531.34 461.811L1532.3 467.832C1532.4 468.489 1532.12 468.869 1531.47 468.973L1507.38 472.788C1506.73 472.892 1506.34 472.615 1506.24 471.959L1500.35 434.792C1500.25 434.135 1500.53 433.755 1501.18 433.651L1524.39 429.975C1525.05 429.871 1525.43 430.147 1525.53 430.804L1526.49 436.825C1526.59 437.446 1526.31 437.808 1525.65 437.912L1510.27 440.348L1511.46 447.847L1525.03 445.697C1525.69 445.593 1526.06 445.851 1526.16 446.471L1527.1 452.383C1527.2 453.003 1526.92 453.366 1526.26 453.47L1512.69 455.62ZM1533.52 428.529L1548.03 426.231C1552.33 425.549 1555.94 426.268 1558.86 428.387C1561.77 430.47 1563.56 433.628 1564.23 437.861C1564.91 442.13 1564.19 445.723 1562.07 448.64C1559.94 451.52 1556.73 453.301 1552.42 453.983L1545.74 455.041L1547.39 465.441C1547.5 466.098 1547.24 466.475 1546.62 466.574L1539.72 467.666C1539.1 467.764 1538.74 467.485 1538.63 466.828L1532.75 429.661C1532.64 429.005 1532.9 428.627 1533.52 428.529ZM1544.45 446.885L1549.93 446.018C1554.05 445.365 1555.81 443.123 1555.2 439.291C1554.6 435.459 1552.23 433.87 1548.11 434.523L1542.63 435.39L1544.45 446.885ZM1603.47 457.568L1596.69 458.643C1596.07 458.742 1595.7 458.462 1595.6 457.806L1594.24 449.212C1593.53 444.723 1593 439.477 1592.64 433.473L1592.47 433.444C1591.22 438.506 1589.77 443.092 1588.14 447.204L1582.9 460.154C1582.71 460.632 1582.36 460.912 1581.85 460.993L1574.57 462.146C1573.95 462.244 1573.59 461.965 1573.49 461.308L1567.6 424.141C1567.5 423.485 1567.75 423.107 1568.37 423.009L1575.16 421.934C1575.82 421.83 1576.2 422.106 1576.3 422.763L1577.85 432.561C1578.58 437.159 1579.15 442.062 1579.57 447.271L1579.74 447.3C1580.4 444.839 1581.73 440.625 1583.74 434.658L1589 420.415C1589.15 419.942 1589.48 419.665 1590 419.584L1597.28 418.431C1597.93 418.327 1598.31 418.604 1598.42 419.26L1604.3 456.427C1604.41 457.084 1604.13 457.464 1603.47 457.568ZM1629.91 428.973L1627.64 414.632C1627.54 413.975 1627.82 413.594 1628.47 413.49L1635.31 412.406C1635.97 412.302 1636.35 412.579 1636.46 413.236L1642.34 450.402C1642.45 451.059 1642.17 451.44 1641.51 451.544L1634.67 452.627C1634.01 452.731 1633.63 452.455 1633.53 451.798L1631.21 437.128L1618.89 439.079L1621.21 453.749C1621.32 454.406 1621.04 454.786 1620.38 454.89L1613.54 455.974C1612.89 456.078 1612.51 455.801 1612.4 455.145L1606.51 417.978C1606.41 417.321 1606.69 416.941 1607.34 416.837L1614.19 415.753C1614.84 415.649 1615.22 415.925 1615.33 416.582L1617.6 430.923L1629.91 428.973ZM1658.44 448.862L1651.6 449.946C1650.95 450.05 1650.56 449.773 1650.46 449.116L1644.57 411.95C1644.47 411.293 1644.75 410.913 1645.4 410.809L1667.3 407.341C1667.95 407.237 1668.34 407.513 1668.44 408.17L1669.43 414.41C1669.53 415.03 1669.25 415.393 1668.59 415.497L1654.52 417.725L1659.27 447.721C1659.38 448.378 1659.1 448.758 1658.44 448.862ZM1684.11 419.772L1690.89 418.697C1700.27 417.212 1705.59 420.447 1706.85 428.402C1707.51 432.525 1706.81 435.833 1704.78 438.325C1702.73 440.781 1699.49 442.361 1695.04 443.067L1680.15 445.425C1679.49 445.529 1679.11 445.252 1679.01 444.595L1673.12 407.429C1673.01 406.772 1673.29 406.392 1673.95 406.288L1698.63 402.378C1699.29 402.274 1699.67 402.55 1699.78 403.207L1700.69 408.954C1700.79 409.611 1700.51 409.992 1699.86 410.096L1683 412.766L1684.11 419.772ZM1686.73 436.358L1693.74 435.248C1696.99 434.733 1698.36 432.907 1697.87 429.769C1697.62 428.236 1697.05 427.187 1696.13 426.621C1695.25 426.012 1693.97 425.841 1692.29 426.107L1685.29 427.216L1686.73 436.358ZM1725.61 438.224L1718.06 439.42C1717.73 439.472 1717.48 439.418 1717.3 439.259C1717.16 439.057 1717.13 438.781 1717.23 438.429L1720.37 426.373L1704.32 402.6C1703.91 401.916 1704.09 401.514 1704.85 401.393L1712.41 400.196C1712.95 400.109 1713.38 400.304 1713.68 400.78L1723.13 416.173L1726.82 398.7C1726.95 398.154 1727.28 397.841 1727.79 397.76L1735.34 396.564C1736.11 396.442 1736.42 396.767 1736.28 397.537L1726.64 437.275C1726.5 437.821 1726.16 438.137 1725.61 438.224ZM1741.46 395.595L1755.96 393.297C1760.27 392.615 1763.88 393.334 1766.8 395.453C1769.71 397.536 1771.5 400.693 1772.17 404.926C1772.85 409.196 1772.13 412.789 1770.01 415.706C1767.88 418.586 1764.67 420.367 1760.36 421.049L1753.68 422.107L1755.33 432.507C1755.43 433.164 1755.18 433.541 1754.55 433.64L1747.66 434.732C1747.04 434.83 1746.68 434.551 1746.57 433.894L1740.68 396.727C1740.58 396.071 1740.84 395.693 1741.46 395.595ZM1752.39 413.951L1757.86 413.084C1761.99 412.431 1763.75 410.189 1763.14 406.357C1762.53 402.525 1760.17 400.936 1756.04 401.589L1750.57 402.456L1752.39 413.951ZM1789.41 428.119L1782.56 429.203C1781.91 429.307 1781.53 429.031 1781.42 428.374L1775.54 391.207C1775.43 390.551 1775.71 390.17 1776.37 390.066L1798.26 386.598C1798.92 386.494 1799.3 386.771 1799.4 387.427L1800.39 393.668C1800.49 394.288 1800.21 394.65 1799.55 394.754L1785.49 396.982L1790.24 426.978C1790.34 427.635 1790.06 428.015 1789.41 428.119ZM1836.12 417.41C1832.97 420.64 1829.04 422.628 1824.33 423.374C1819.4 424.154 1815.3 423.514 1812.02 421.452C1808.77 419.349 1806.77 415.961 1806.03 411.29L1804.22 399.85C1803.48 395.18 1804.33 391.36 1806.78 388.391C1809.27 385.416 1812.92 383.548 1817.73 382.785C1822.22 382.074 1826.31 382.623 1830 384.433C1830.6 384.674 1830.76 385.08 1830.47 385.648L1827.86 391.449C1827.57 392.018 1827.13 392.181 1826.53 391.94C1824.28 390.95 1821.84 390.663 1819.21 391.079C1816.95 391.437 1815.3 392.317 1814.25 393.717C1813.23 395.076 1812.88 396.759 1813.19 398.766L1814.89 409.494C1815.23 411.611 1816.11 413.155 1817.53 414.126C1818.95 415.061 1820.8 415.349 1823.06 414.99C1825.87 414.545 1828.28 413.377 1830.3 411.486C1830.79 410.998 1831.24 411.002 1831.65 411.497L1835.99 416.197C1836.43 416.65 1836.48 417.055 1836.12 417.41ZM1849.76 418.561L1842.91 419.645C1842.26 419.749 1841.88 419.472 1841.77 418.815L1835.89 381.649C1835.78 380.992 1836.06 380.612 1836.72 380.508L1843.56 379.424C1844.22 379.32 1844.6 379.596 1844.7 380.253L1846.88 394.047L1855.15 378.205C1855.38 377.758 1855.75 377.493 1856.26 377.413L1864.91 376.043C1865.31 375.979 1865.58 376.048 1865.72 376.25C1865.9 376.446 1865.89 376.728 1865.69 377.097L1855.19 395.144L1873.06 413.692C1873.36 413.944 1873.46 414.209 1873.35 414.487C1873.28 414.724 1873.04 414.874 1872.64 414.937L1864.21 416.272C1863.73 416.347 1863.32 416.189 1862.95 415.797L1850.73 402.752L1848.76 405.87L1850.59 417.42C1850.69 418.077 1850.41 418.457 1849.76 418.561ZM1907.04 409.488L1900.25 410.563C1899.63 410.661 1899.27 410.382 1899.17 409.725L1897.81 401.131C1897.1 396.643 1896.56 391.397 1896.21 385.393L1896.04 385.364C1894.78 390.426 1893.34 395.012 1891.71 399.123L1886.47 412.074C1886.28 412.552 1885.93 412.832 1885.42 412.913L1878.14 414.066C1877.52 414.164 1877.16 413.885 1877.05 413.228L1871.17 376.061C1871.06 375.404 1871.32 375.027 1871.94 374.928L1878.73 373.853C1879.39 373.749 1879.77 374.026 1879.87 374.683L1881.42 384.481C1882.15 389.079 1882.72 393.982 1883.13 399.191L1883.31 399.22C1883.96 396.759 1885.3 392.545 1887.31 386.578L1892.57 372.334C1892.72 371.862 1893.05 371.585 1893.56 371.504L1900.84 370.351C1901.5 370.247 1901.88 370.523 1901.98 371.18L1907.87 408.347C1907.97 409.004 1907.7 409.384 1907.04 409.488ZM1934.1 355.04C1934.06 354.56 1933.74 354.275 1933.12 354.185L1928.48 353.91C1927.9 353.814 1927.57 354.091 1927.49 354.74C1927.23 356.39 1926.16 357.363 1924.3 357.658C1922.48 357.947 1921.19 357.347 1920.43 355.859C1920.15 355.267 1919.75 355.106 1919.23 355.375L1914.9 357.071C1914.27 357.394 1914.08 357.8 1914.3 358.288C1915.06 360.45 1916.4 362.052 1918.32 363.094C1920.24 364.1 1922.56 364.386 1925.3 363.952C1928.07 363.513 1930.21 362.501 1931.72 360.915C1933.26 359.288 1934.05 357.329 1934.1 355.04ZM1939.17 404.4C1938.55 404.498 1938.19 404.219 1938.08 403.562L1936.72 394.968C1936.01 390.48 1935.48 385.233 1935.13 379.229L1934.95 379.2C1933.7 384.262 1932.25 388.849 1930.62 392.96L1925.38 405.91C1925.19 406.389 1924.85 406.668 1924.33 406.749L1917.05 407.902C1916.43 408 1916.07 407.721 1915.97 407.064L1910.08 369.898C1909.98 369.241 1910.24 368.863 1910.86 368.765L1917.64 367.69C1918.3 367.586 1918.68 367.862 1918.78 368.519L1920.34 378.317C1921.06 382.915 1921.64 387.818 1922.05 393.027L1922.22 393.056C1922.88 390.595 1924.21 386.381 1926.22 380.415L1931.49 366.171C1931.64 365.698 1931.97 365.421 1932.48 365.341L1939.76 364.187C1940.41 364.083 1940.79 364.36 1940.9 365.017L1946.79 402.183C1946.89 402.84 1946.61 403.221 1945.96 403.325L1939.17 404.4ZM1397.73 572.165L1388.78 573.583C1387.9 573.721 1387.4 573.354 1387.26 572.48L1379.43 523.042C1379.29 522.169 1379.66 521.662 1380.53 521.524L1390.87 519.887C1391.55 519.779 1392.08 520.018 1392.47 520.602L1401.03 532.233C1403.26 535.265 1406.2 539.7 1409.86 545.539L1410.15 545.493C1411.26 540.59 1412.67 535.466 1414.36 530.123L1418.98 516.405C1419.17 515.728 1419.6 515.335 1420.28 515.228L1430.62 513.59C1431.45 513.459 1431.93 513.831 1432.07 514.705L1439.9 564.142C1440.04 565.016 1439.69 565.518 1438.87 565.649L1429.84 567.079C1428.97 567.217 1428.46 566.85 1428.32 565.976L1426.8 556.365C1425.68 549.327 1424.7 541.522 1423.84 532.951L1423.53 532.924C1422.43 537.577 1420.99 542.805 1419.23 548.608L1416.8 556.381C1416.61 557.059 1416.17 557.451 1415.49 557.559L1408.5 558.666C1407.78 558.781 1407.24 558.542 1406.9 557.95L1402.12 551.318C1398.64 546.345 1395.66 541.817 1393.17 537.733L1392.89 537.852C1394.72 546.269 1396.2 553.997 1397.31 561.036L1398.83 570.646C1398.97 571.52 1398.6 572.026 1397.73 572.165ZM1459.26 540.701L1460.94 551.331L1482.56 547.906C1483.44 547.768 1483.94 548.111 1484.07 548.936L1485.34 556.945C1485.48 557.819 1485.11 558.325 1484.24 558.464L1452.2 563.538C1451.33 563.676 1450.82 563.308 1450.68 562.435L1442.85 512.997C1442.71 512.123 1443.08 511.617 1443.95 511.479L1474.83 506.589C1475.7 506.451 1476.21 506.818 1476.34 507.692L1477.61 515.701C1477.74 516.526 1477.37 517.008 1476.5 517.147L1456.04 520.387L1457.62 530.362L1475.67 527.502C1476.55 527.364 1477.05 527.707 1477.18 528.532L1478.43 536.396C1478.56 537.221 1478.19 537.703 1477.31 537.841L1459.26 540.701ZM1482.53 505.369L1520.83 499.303C1521.65 499.173 1522.13 499.544 1522.27 500.418L1523.59 508.718C1523.72 509.543 1523.37 510.021 1522.54 510.152L1509.22 512.262L1515.54 552.162C1515.68 553.036 1515.33 553.538 1514.51 553.669L1505.34 555.122C1504.51 555.252 1504.03 554.881 1503.89 554.007L1497.57 514.107L1484.25 516.218C1483.37 516.356 1482.87 516.013 1482.74 515.188L1481.43 506.887C1481.29 506.014 1481.65 505.508 1482.53 505.369ZM1529.63 497.909L1548.93 494.853C1554.65 493.946 1559.46 494.901 1563.34 497.72C1567.21 500.49 1569.59 504.691 1570.48 510.321C1571.38 516.001 1570.42 520.78 1567.6 524.66C1564.78 528.491 1560.5 530.86 1554.77 531.767L1545.89 533.174L1548.08 547.008C1548.22 547.882 1547.88 548.384 1547.05 548.515L1537.88 549.968C1537.05 550.098 1536.57 549.727 1536.43 548.853L1528.6 499.415C1528.46 498.542 1528.81 498.039 1529.63 497.909ZM1544.17 522.326L1551.45 521.172C1556.94 520.304 1559.28 517.321 1558.47 512.224C1557.66 507.128 1554.52 505.014 1549.03 505.882L1541.75 507.035L1544.17 522.326ZM1620.64 516.559C1621.67 523.063 1620.6 528.432 1617.44 532.664C1614.28 536.897 1609.35 539.543 1602.65 540.604C1596 541.657 1590.52 540.66 1586.2 537.611C1581.89 534.563 1579.22 529.786 1578.19 523.282L1576.19 510.686C1575.17 504.23 1576.24 498.886 1579.4 494.654C1582.56 490.421 1587.47 487.778 1594.12 486.725C1600.81 485.664 1606.32 486.658 1610.64 489.706C1614.94 492.706 1617.61 497.459 1618.64 503.963L1620.64 516.559ZM1590.09 521.172C1591.13 527.725 1594.73 530.514 1600.9 529.537C1607.06 528.561 1609.62 524.796 1608.59 518.243L1606.66 506.084C1605.63 499.58 1602.03 496.816 1595.87 497.792C1589.7 498.769 1587.14 502.509 1588.17 509.013L1590.09 521.172ZM1643.33 533.266L1634.15 534.719C1633.28 534.857 1632.77 534.49 1632.63 533.616L1624.8 484.178C1624.67 483.305 1625.03 482.799 1625.91 482.66L1663.19 476.756C1664.06 476.617 1664.57 476.985 1664.7 477.859L1672.53 527.297C1672.67 528.17 1672.3 528.676 1671.43 528.815L1662.33 530.256C1661.46 530.395 1660.95 530.027 1660.81 529.153L1654.49 489.254L1638.04 491.86L1644.36 531.759C1644.5 532.633 1644.15 533.135 1643.33 533.266ZM1721.18 500.635C1722.21 507.139 1721.14 512.508 1717.98 516.74C1714.82 520.973 1709.89 523.619 1703.19 524.68C1696.54 525.734 1691.06 524.736 1686.74 521.687C1682.43 518.639 1679.76 513.862 1678.73 507.358L1676.73 494.762C1675.71 488.306 1676.78 482.962 1679.94 478.73C1683.1 474.497 1688.01 471.854 1694.66 470.801C1701.35 469.74 1706.86 470.734 1711.18 473.782C1715.48 476.782 1718.15 481.535 1719.18 488.039L1721.18 500.635ZM1690.63 505.248C1691.67 511.801 1695.27 514.59 1701.44 513.613C1707.6 512.637 1710.16 508.872 1709.13 502.319L1707.2 490.16C1706.17 483.656 1702.57 480.892 1696.41 481.868C1690.24 482.845 1687.68 486.585 1688.71 493.089L1690.63 505.248ZM1744.95 501.422C1744.42 507.228 1742.94 511.542 1740.51 514.367C1738.07 517.191 1734.43 519.06 1729.6 519.975C1728.73 520.113 1728.23 519.77 1728.09 518.945L1726.77 510.571C1726.65 509.795 1726.99 509.293 1727.8 509.065C1729.66 508.571 1731 507.612 1731.82 506.189C1732.68 504.709 1733.18 502.39 1733.33 499.232C1733.72 493.547 1732.99 482.917 1731.12 467.34C1731.03 466.459 1731.42 465.949 1732.29 465.81L1763.96 460.794C1764.79 460.663 1765.27 461.035 1765.41 461.909L1773.24 511.346C1773.38 512.22 1773.04 512.722 1772.21 512.853L1763.04 514.306C1762.21 514.437 1761.73 514.065 1761.59 513.191L1755.28 473.365L1743.85 475.175C1745.1 486.222 1745.47 494.971 1744.95 501.422ZM1823.9 504.666L1814.87 506.096C1814.05 506.226 1813.57 505.855 1813.43 504.981L1811.62 493.55C1810.67 487.58 1809.96 480.601 1809.5 472.615L1809.27 472.577C1807.6 479.31 1805.68 485.41 1803.51 490.879L1796.53 508.105C1796.29 508.741 1795.82 509.113 1795.14 509.221L1785.46 510.755C1784.63 510.885 1784.15 510.514 1784.01 509.64L1776.18 460.202C1776.04 459.329 1776.39 458.826 1777.21 458.696L1786.24 457.266C1787.12 457.127 1787.62 457.495 1787.76 458.369L1789.82 471.402C1790.79 477.518 1791.55 484.04 1792.1 490.969L1792.33 491.007C1793.21 487.734 1794.98 482.129 1797.65 474.192L1804.66 455.245C1804.85 454.616 1805.29 454.248 1805.97 454.141L1815.66 452.607C1816.53 452.468 1817.04 452.836 1817.17 453.71L1825 503.148C1825.14 504.021 1824.78 504.527 1823.9 504.666ZM1824.53 451.201L1862.83 445.135C1863.66 445.004 1864.14 445.376 1864.28 446.249L1865.59 454.55C1865.72 455.375 1865.38 455.853 1864.55 455.983L1851.23 458.094L1857.55 497.994C1857.68 498.867 1857.34 499.369 1856.52 499.5L1847.34 500.953C1846.52 501.084 1846.04 500.712 1845.9 499.839L1839.58 459.939L1826.25 462.049C1825.38 462.188 1824.88 461.844 1824.75 461.019L1823.43 452.719C1823.29 451.845 1823.66 451.339 1824.53 451.201ZM1887.01 472.951L1888.7 483.581L1910.32 480.156C1911.19 480.018 1911.7 480.361 1911.83 481.186L1913.1 489.195C1913.23 490.069 1912.87 490.575 1911.99 490.714L1879.96 495.788C1879.08 495.926 1878.58 495.558 1878.44 494.685L1870.61 445.247C1870.47 444.373 1870.84 443.867 1871.71 443.729L1902.58 438.839C1903.46 438.701 1903.96 439.068 1904.1 439.942L1905.37 447.951C1905.5 448.776 1905.13 449.258 1904.25 449.397L1883.79 452.637L1885.37 462.612L1903.43 459.752C1904.31 459.614 1904.81 459.957 1904.94 460.782L1906.18 468.646C1906.31 469.471 1905.94 469.953 1905.07 470.091L1887.01 472.951ZM1944.82 453.047L1941.8 433.971C1941.66 433.097 1942.03 432.591 1942.9 432.453L1952.01 431.011C1952.88 430.873 1953.38 431.241 1953.52 432.114L1961.35 481.552C1961.49 482.426 1961.12 482.932 1960.25 483.07L1951.15 484.512C1950.28 484.65 1949.77 484.282 1949.63 483.409L1946.54 463.896L1930.16 466.49L1933.25 486.003C1933.39 486.877 1933.02 487.383 1932.15 487.522L1923.04 488.963C1922.17 489.101 1921.67 488.734 1921.53 487.86L1913.7 438.422C1913.56 437.549 1913.93 437.042 1914.8 436.904L1923.9 435.463C1924.77 435.324 1925.28 435.692 1925.42 436.566L1928.44 455.642L1944.82 453.047ZM1401.96 616.927L1403.23 624.919L1419.48 622.344C1420.14 622.24 1420.52 622.498 1420.62 623.118L1421.57 629.139C1421.67 629.796 1421.4 630.177 1420.74 630.281L1396.66 634.095C1396 634.199 1395.62 633.923 1395.51 633.266L1389.63 596.1C1389.52 595.443 1389.8 595.062 1390.46 594.958L1413.66 591.282C1414.32 591.178 1414.7 591.455 1414.81 592.112L1415.76 598.133C1415.86 598.753 1415.58 599.115 1414.92 599.219L1399.54 601.655L1400.73 609.154L1414.3 607.004C1414.96 606.9 1415.34 607.158 1415.44 607.779L1416.37 613.69C1416.47 614.311 1416.19 614.673 1415.53 614.777L1401.96 616.927ZM1435.89 627.881L1429.05 628.965C1428.39 629.069 1428.01 628.792 1427.91 628.136L1422.02 590.969C1421.92 590.312 1422.19 589.932 1422.85 589.828L1429.69 588.744C1430.35 588.64 1430.73 588.916 1430.83 589.573L1433.02 603.367L1441.28 587.525C1441.51 587.078 1441.88 586.814 1442.39 586.733L1451.04 585.363C1451.44 585.299 1451.71 585.368 1451.86 585.57C1452.04 585.766 1452.03 586.048 1451.82 586.417L1441.33 604.464L1459.19 623.012C1459.49 623.264 1459.59 623.529 1459.48 623.807C1459.41 624.044 1459.17 624.194 1458.77 624.257L1450.34 625.592C1449.87 625.667 1449.45 625.509 1449.09 625.118L1436.87 612.072L1434.89 615.19L1436.72 626.74C1436.82 627.397 1436.55 627.777 1435.89 627.881ZM1467.67 622.848L1460.33 624.01C1459.57 624.131 1459.25 623.807 1459.39 623.036L1466.19 583.749C1466.33 583.204 1466.63 582.893 1467.11 582.818L1475.43 581.5C1475.94 581.419 1476.32 581.62 1476.59 582.102L1495.19 617.367C1495.6 618.05 1495.4 618.456 1494.6 618.583L1487.32 619.736C1486.73 619.828 1486.31 619.615 1486.04 619.097L1482.96 612.74L1469.65 614.846L1468.63 621.854C1468.57 622.424 1468.25 622.756 1467.67 622.848ZM1472.67 591.756C1472.58 592.368 1472.3 594.565 1471.81 598.345C1471.35 602.083 1470.98 604.929 1470.69 606.882L1479.51 605.487C1479.34 605.139 1477.13 600.55 1472.89 591.721L1472.67 591.756ZM1487.93 579.52L1516.72 574.96C1517.34 574.861 1517.71 575.141 1517.81 575.798L1518.8 582.038C1518.9 582.658 1518.63 583.017 1518.01 583.115L1508 584.702L1512.75 614.698C1512.85 615.355 1512.59 615.732 1511.97 615.831L1505.08 616.923C1504.46 617.021 1504.09 616.742 1503.99 616.085L1499.24 586.089L1489.22 587.676C1488.57 587.78 1488.19 587.522 1488.09 586.901L1487.1 580.661C1487 580.004 1487.27 579.624 1487.93 579.52ZM1534.9 595.871L1536.17 603.863L1552.42 601.288C1553.08 601.184 1553.46 601.442 1553.56 602.063L1554.51 608.084C1554.61 608.741 1554.34 609.121 1553.68 609.225L1529.6 613.04C1528.94 613.144 1528.56 612.867 1528.45 612.21L1522.57 575.044C1522.46 574.387 1522.74 574.007 1523.4 573.902L1546.61 570.227C1547.26 570.123 1547.64 570.399 1547.75 571.056L1548.7 577.077C1548.8 577.697 1548.52 578.059 1547.86 578.164L1532.48 580.6L1533.67 588.099L1547.24 585.949C1547.9 585.845 1548.28 586.103 1548.38 586.723L1549.31 592.635C1549.41 593.255 1549.13 593.617 1548.48 593.721L1534.9 595.871ZM1555.74 568.781L1570.24 566.483C1574.55 565.801 1578.16 566.52 1581.08 568.639C1583.99 570.721 1585.78 573.879 1586.45 578.112C1587.12 582.382 1586.4 585.975 1584.28 588.892C1582.16 591.772 1578.94 593.553 1574.64 594.235L1567.96 595.293L1569.61 605.693C1569.71 606.349 1569.45 606.727 1568.83 606.825L1561.93 607.918C1561.31 608.016 1560.95 607.737 1560.85 607.08L1554.96 569.913C1554.86 569.256 1555.12 568.879 1555.74 568.781ZM1566.67 587.137L1572.14 586.27C1576.26 585.617 1578.02 583.374 1577.42 579.543C1576.81 575.711 1574.44 574.122 1570.32 574.775L1564.85 575.642L1566.67 587.137ZM1625.69 597.82L1618.9 598.895C1618.28 598.993 1617.92 598.714 1617.81 598.057L1616.45 589.464C1615.74 584.975 1615.21 579.729 1614.86 573.725L1614.68 573.696C1613.43 578.758 1611.99 583.344 1610.36 587.455L1605.11 600.406C1604.93 600.884 1604.58 601.164 1604.07 601.245L1596.79 602.398C1596.17 602.496 1595.8 602.217 1595.7 601.56L1589.81 564.393C1589.71 563.736 1589.97 563.359 1590.59 563.261L1597.38 562.185C1598.03 562.081 1598.41 562.358 1598.52 563.015L1600.07 572.813C1600.8 577.411 1601.37 582.314 1601.78 587.523L1601.95 587.552C1602.61 585.091 1603.95 580.877 1605.96 574.91L1611.22 560.666C1611.37 560.194 1611.7 559.917 1612.21 559.836L1619.49 558.683C1620.15 558.579 1620.53 558.855 1620.63 559.512L1626.52 596.679C1626.62 597.336 1626.34 597.716 1625.69 597.82ZM1652.13 569.224L1649.86 554.883C1649.75 554.226 1650.03 553.846 1650.69 553.742L1657.53 552.658C1658.18 552.554 1658.57 552.831 1658.67 553.487L1664.56 590.654C1664.66 591.311 1664.38 591.691 1663.73 591.795L1656.88 592.879C1656.23 592.983 1655.85 592.707 1655.74 592.05L1653.42 577.38L1641.1 579.331L1643.43 594C1643.53 594.657 1643.26 595.038 1642.6 595.142L1635.76 596.225C1635.1 596.329 1634.72 596.053 1634.61 595.396L1628.73 558.23C1628.62 557.573 1628.9 557.192 1629.56 557.088L1636.4 556.005C1637.06 555.901 1637.44 556.177 1637.54 556.834L1639.81 571.175L1652.13 569.224ZM1680.66 589.114L1673.82 590.197C1673.16 590.301 1672.78 590.025 1672.67 589.368L1666.79 552.202C1666.68 551.545 1666.96 551.164 1667.62 551.06L1689.51 547.593C1690.17 547.488 1690.55 547.765 1690.65 548.422L1691.64 554.662C1691.74 555.282 1691.46 555.644 1690.8 555.748L1676.74 557.976L1681.49 587.972C1681.59 588.629 1681.31 589.01 1680.66 589.114ZM1706.32 560.024L1713.11 558.949C1722.49 557.463 1727.81 560.698 1729.07 568.653C1729.72 572.777 1729.03 576.085 1726.99 578.577C1724.95 581.033 1721.7 582.613 1717.25 583.318L1702.36 585.676C1701.7 585.78 1701.32 585.504 1701.22 584.847L1695.33 547.681C1695.23 547.024 1695.5 546.643 1696.16 546.539L1720.85 542.629C1721.5 542.525 1721.89 542.802 1721.99 543.459L1722.9 549.206C1723 549.863 1722.73 550.243 1722.07 550.347L1705.21 553.018L1706.32 560.024ZM1708.95 576.609L1715.95 575.5C1719.2 574.985 1720.58 573.159 1720.08 570.021C1719.84 568.488 1719.26 567.439 1718.35 566.872C1717.47 566.264 1716.19 566.093 1714.51 566.358L1707.5 567.468L1708.95 576.609ZM1747.83 578.475L1740.27 579.672C1739.94 579.724 1739.69 579.67 1739.52 579.511C1739.37 579.309 1739.35 579.033 1739.44 578.681L1742.58 566.625L1726.53 542.852C1726.12 542.168 1726.3 541.766 1727.07 541.644L1734.62 540.448C1735.17 540.361 1735.59 540.556 1735.89 541.032L1745.34 556.424L1749.03 538.951C1749.17 538.406 1749.49 538.093 1750 538.012L1757.56 536.815C1758.32 536.694 1758.64 537.018 1758.5 537.789L1748.85 577.527C1748.72 578.072 1748.37 578.389 1747.83 578.475ZM1763.67 535.847L1778.18 533.549C1782.48 532.867 1786.1 533.586 1789.01 535.705C1791.92 537.787 1793.71 540.945 1794.38 545.178C1795.06 549.448 1794.34 553.041 1792.22 555.958C1790.1 558.838 1786.88 560.619 1782.57 561.301L1775.9 562.359L1777.54 572.759C1777.65 573.415 1777.39 573.793 1776.77 573.891L1769.87 574.984C1769.25 575.082 1768.89 574.803 1768.79 574.146L1762.9 536.979C1762.79 536.322 1763.05 535.945 1763.67 535.847ZM1774.6 554.203L1780.08 553.336C1784.2 552.683 1785.96 550.44 1785.35 546.609C1784.75 542.777 1782.38 541.188 1778.26 541.841L1772.78 542.708L1774.6 554.203ZM1811.62 568.371L1804.78 569.455C1804.12 569.559 1803.74 569.283 1803.64 568.626L1797.75 531.459C1797.65 530.802 1797.92 530.422 1798.58 530.318L1820.47 526.85C1821.13 526.746 1821.51 527.022 1821.62 527.679L1822.6 533.919C1822.7 534.54 1822.42 534.902 1821.77 535.006L1807.7 537.234L1812.45 567.23C1812.55 567.887 1812.28 568.267 1811.62 568.371ZM1858.34 557.662C1855.18 560.892 1851.25 562.88 1846.54 563.626C1841.62 564.406 1837.51 563.765 1834.23 561.704C1830.98 559.6 1828.99 556.213 1828.25 551.542L1826.43 540.102C1825.69 535.431 1826.55 531.611 1829 528.643C1831.48 525.668 1835.13 523.799 1839.95 523.037C1844.43 522.326 1848.52 522.875 1852.22 524.684C1852.81 524.926 1852.97 525.331 1852.69 525.9L1850.07 531.701C1849.79 532.27 1849.35 532.433 1848.75 532.191C1846.5 531.201 1844.06 530.914 1841.43 531.331C1839.17 531.689 1837.51 532.568 1836.46 533.969C1835.44 535.328 1835.09 537.01 1835.41 539.017L1837.11 549.746C1837.44 551.862 1838.32 553.406 1839.75 554.378C1841.17 555.312 1843.01 555.6 1845.27 555.242C1848.08 554.797 1850.5 553.629 1852.52 551.738C1853 551.25 1853.45 551.254 1853.86 551.749L1858.2 556.449C1858.65 556.902 1858.69 557.306 1858.34 557.662ZM1871.97 558.813L1865.13 559.896C1864.47 560 1864.09 559.724 1863.99 559.067L1858.1 521.901C1858 521.244 1858.27 520.863 1858.93 520.759L1865.77 519.676C1866.43 519.572 1866.81 519.848 1866.91 520.505L1869.1 534.299L1877.36 518.457C1877.59 518.01 1877.96 517.745 1878.47 517.664L1887.12 516.295C1887.52 516.231 1887.79 516.3 1887.94 516.502C1888.12 516.697 1888.11 516.98 1887.9 517.349L1877.41 535.395L1895.27 553.944C1895.57 554.196 1895.67 554.461 1895.57 554.739C1895.49 554.975 1895.25 555.125 1894.85 555.189L1886.42 556.524C1885.95 556.599 1885.53 556.441 1885.17 556.049L1872.95 543.004L1870.97 546.122L1872.8 557.671C1872.9 558.328 1872.63 558.709 1871.97 558.813ZM1929.25 549.74L1922.47 550.815C1921.85 550.913 1921.48 550.634 1921.38 549.977L1920.02 541.383C1919.31 536.895 1918.78 531.648 1918.42 525.644L1918.25 525.616C1917 530.677 1915.55 535.264 1913.92 539.375L1908.68 552.325C1908.49 552.804 1908.14 553.083 1907.63 553.164L1900.35 554.317C1899.73 554.416 1899.37 554.136 1899.27 553.479L1893.38 516.313C1893.28 515.656 1893.53 515.278 1894.15 515.18L1900.94 514.105C1901.6 514.001 1901.98 514.278 1902.08 514.934L1903.64 524.732C1904.36 529.33 1904.93 534.234 1905.35 539.443L1905.52 539.471C1906.18 537.011 1907.51 532.797 1909.52 526.83L1914.79 512.586C1914.94 512.113 1915.27 511.837 1915.78 511.756L1923.06 510.603C1923.71 510.499 1924.09 510.775 1924.2 511.432L1930.08 548.599C1930.19 549.255 1929.91 549.636 1929.25 549.74ZM1956.31 495.291C1956.28 494.811 1955.95 494.526 1955.34 494.436L1950.69 494.162C1950.12 494.066 1949.79 494.343 1949.7 494.992C1949.44 496.642 1948.38 497.615 1946.52 497.909C1944.69 498.198 1943.4 497.599 1942.64 496.11C1942.36 495.519 1941.96 495.358 1941.44 495.627L1937.11 497.323C1936.49 497.646 1936.29 498.052 1936.52 498.539C1937.27 500.702 1938.61 502.304 1940.53 503.346C1942.45 504.352 1944.78 504.638 1947.51 504.204C1950.29 503.765 1952.43 502.753 1953.93 501.167C1955.47 499.54 1956.26 497.581 1956.31 495.291ZM1961.38 544.651C1960.76 544.75 1960.4 544.47 1960.3 543.813L1958.93 535.22C1958.22 530.731 1957.69 525.485 1957.34 519.481L1957.17 519.452C1955.91 524.514 1954.47 529.1 1952.84 533.212L1947.59 546.162C1947.41 546.64 1947.06 546.92 1946.55 547.001L1939.27 548.154C1938.65 548.252 1938.29 547.973 1938.18 547.316L1932.3 510.149C1932.19 509.493 1932.45 509.115 1933.07 509.017L1939.86 507.942C1940.51 507.838 1940.89 508.114 1941 508.771L1942.55 518.569C1943.28 523.167 1943.85 528.07 1944.26 533.279L1944.44 533.308C1945.09 530.847 1946.43 526.633 1948.44 520.666L1953.7 506.423C1953.85 505.95 1954.18 505.673 1954.69 505.592L1961.97 504.439C1962.63 504.335 1963.01 504.612 1963.11 505.268L1969 542.435C1969.1 543.092 1968.83 543.472 1968.17 543.576L1961.38 544.651ZM1419.94 712.416L1410.99 713.835C1410.12 713.973 1409.61 713.605 1409.47 712.732L1401.64 663.294C1401.5 662.42 1401.87 661.914 1402.74 661.776L1413.08 660.138C1413.76 660.031 1414.3 660.269 1414.69 660.854L1423.25 672.485C1425.47 675.517 1428.41 679.952 1432.07 685.791L1432.36 685.745C1433.48 680.841 1434.88 675.718 1436.57 670.375L1441.19 656.657C1441.38 655.979 1441.82 655.587 1442.5 655.479L1452.84 653.842C1453.66 653.711 1454.14 654.083 1454.28 654.956L1462.11 704.394C1462.25 705.268 1461.91 705.77 1461.08 705.901L1452.05 707.331C1451.18 707.469 1450.67 707.101 1450.54 706.228L1449.01 696.617C1447.9 689.579 1446.91 681.774 1446.05 673.202L1445.75 673.176C1444.64 677.829 1443.21 683.057 1441.44 688.86L1439.01 696.633C1438.82 697.31 1438.39 697.703 1437.71 697.81L1430.72 698.917C1429.99 699.033 1429.46 698.794 1429.11 698.201L1424.33 691.57C1420.86 686.597 1417.87 682.069 1415.39 677.985L1415.11 678.104C1416.94 686.521 1418.41 694.249 1419.53 701.287L1421.05 710.898C1421.19 711.772 1420.82 712.278 1419.94 712.416ZM1481.47 680.953L1483.15 691.583L1504.78 688.158C1505.65 688.02 1506.15 688.363 1506.28 689.188L1507.55 697.197C1507.69 698.071 1507.32 698.577 1506.45 698.715L1474.41 703.789C1473.54 703.928 1473.03 703.56 1472.89 702.686L1465.06 653.249C1464.93 652.375 1465.29 651.869 1466.17 651.73L1497.04 646.841C1497.91 646.703 1498.42 647.07 1498.56 647.944L1499.83 655.953C1499.96 656.778 1499.58 657.26 1498.71 657.398L1478.25 660.639L1479.83 670.614L1497.89 667.754C1498.76 667.615 1499.26 667.959 1499.39 668.784L1500.64 676.647C1500.77 677.473 1500.4 677.954 1499.53 678.093L1481.47 680.953ZM1504.74 645.621L1543.04 639.555C1543.87 639.424 1544.35 639.796 1544.49 640.67L1545.8 648.97C1545.93 649.795 1545.58 650.273 1544.76 650.404L1531.43 652.514L1537.75 692.414C1537.89 693.287 1537.55 693.79 1536.72 693.92L1527.55 695.373C1526.72 695.504 1526.24 695.133 1526.1 694.259L1519.78 654.359L1506.46 656.47C1505.59 656.608 1505.08 656.264 1504.95 655.439L1503.64 647.139C1503.5 646.265 1503.87 645.759 1504.74 645.621ZM1551.85 638.16L1571.14 635.104C1576.87 634.197 1581.67 635.153 1585.55 637.972C1589.42 640.742 1591.8 644.943 1592.7 650.573C1593.6 656.252 1592.64 661.032 1589.82 664.911C1586.99 668.743 1582.71 671.112 1576.99 672.019L1568.1 673.426L1570.29 687.26C1570.43 688.133 1570.09 688.636 1569.26 688.766L1560.09 690.219C1559.27 690.35 1558.78 689.979 1558.65 689.105L1550.82 639.667C1550.68 638.793 1551.02 638.291 1551.85 638.16ZM1566.39 662.577L1573.67 661.424C1579.15 660.555 1581.49 657.573 1580.68 652.476C1579.88 647.379 1576.73 645.265 1571.24 646.134L1563.96 647.287L1566.39 662.577ZM1642.85 656.811C1643.88 663.315 1642.81 668.683 1639.65 672.916C1636.49 677.148 1631.56 679.795 1624.86 680.856C1618.21 681.909 1612.73 680.912 1608.42 677.863C1604.1 674.815 1601.43 670.038 1600.4 663.534L1598.41 650.938C1597.38 644.482 1598.45 639.138 1601.61 634.905C1604.77 630.673 1609.68 628.03 1616.33 626.977C1623.03 625.916 1628.53 626.91 1632.85 629.958C1637.16 632.958 1639.82 637.71 1640.85 644.215L1642.85 656.811ZM1612.31 661.424C1613.34 667.977 1616.95 670.765 1623.11 669.789C1629.28 668.813 1631.84 665.048 1630.8 658.495L1628.87 646.336C1627.84 639.831 1624.25 637.068 1618.08 638.044C1611.92 639.02 1609.35 642.761 1610.38 649.265L1612.31 661.424ZM1665.54 673.518L1656.37 674.971C1655.49 675.109 1654.99 674.742 1654.85 673.868L1647.02 624.43C1646.88 623.556 1647.25 623.05 1648.12 622.912L1685.4 617.008C1686.27 616.869 1686.78 617.237 1686.92 618.111L1694.75 667.548C1694.89 668.422 1694.52 668.928 1693.64 669.066L1684.54 670.508C1683.67 670.646 1683.16 670.279 1683.03 669.405L1676.71 629.505L1660.25 632.111L1666.57 672.011C1666.71 672.885 1666.37 673.387 1665.54 673.518ZM1743.39 640.887C1744.42 647.391 1743.35 652.759 1740.19 656.992C1737.03 661.224 1732.1 663.871 1725.4 664.932C1718.75 665.985 1713.27 664.988 1708.96 661.939C1704.64 658.891 1701.97 654.114 1700.94 647.61L1698.95 635.014C1697.92 628.558 1698.99 623.214 1702.15 618.981C1705.31 614.749 1710.22 612.106 1716.87 611.053C1723.57 609.992 1729.07 610.986 1733.39 614.034C1737.7 617.034 1740.36 621.786 1741.39 628.291L1743.39 640.887ZM1712.85 645.5C1713.88 652.053 1717.49 654.841 1723.65 653.865C1729.82 652.889 1732.38 649.124 1731.34 642.571L1729.41 630.412C1728.38 623.908 1724.79 621.144 1718.62 622.12C1712.46 623.096 1709.89 626.837 1710.92 633.341L1712.85 645.5ZM1767.16 641.674C1766.64 647.479 1765.16 651.794 1762.72 654.618C1760.28 657.443 1756.65 659.312 1751.81 660.226C1750.94 660.365 1750.44 660.021 1750.31 659.196L1748.98 650.823C1748.86 650.046 1749.2 649.544 1750.01 649.317C1751.87 648.823 1753.22 647.864 1754.03 646.44C1754.9 644.961 1755.4 642.642 1755.55 639.484C1755.94 633.799 1755.2 623.168 1753.33 607.592C1753.24 606.71 1753.63 606.201 1754.51 606.062L1786.18 601.046C1787 600.915 1787.49 601.287 1787.62 602.16L1795.45 651.598C1795.59 652.472 1795.25 652.974 1794.42 653.105L1785.25 654.558C1784.42 654.688 1783.94 654.317 1783.8 653.443L1777.5 613.616L1766.07 615.427C1767.32 626.474 1767.68 635.223 1767.16 641.674ZM1846.12 644.917L1837.09 646.347C1836.26 646.478 1835.78 646.107 1835.64 645.233L1833.83 633.802C1832.89 627.831 1832.18 620.853 1831.71 612.867L1831.48 612.828C1829.81 619.561 1827.89 625.662 1825.72 631.131L1818.75 648.357C1818.5 648.993 1818.04 649.365 1817.36 649.473L1807.67 651.006C1806.85 651.137 1806.37 650.766 1806.23 649.892L1798.4 600.454C1798.26 599.58 1798.6 599.078 1799.43 598.947L1808.46 597.517C1809.33 597.379 1809.83 597.747 1809.97 598.62L1812.04 611.653C1813.01 617.769 1813.77 624.292 1814.32 631.22L1814.55 631.259C1815.42 627.985 1817.19 622.38 1819.87 614.443L1826.87 595.497C1827.07 594.868 1827.51 594.5 1828.19 594.392L1837.87 592.859C1838.74 592.72 1839.25 593.088 1839.39 593.962L1847.22 643.399C1847.36 644.273 1846.99 644.779 1846.12 644.917ZM1846.75 591.452L1885.05 585.387C1885.87 585.256 1886.35 585.627 1886.49 586.501L1887.81 594.801C1887.94 595.627 1887.59 596.105 1886.76 596.235L1873.44 598.346L1879.76 638.245C1879.9 639.119 1879.55 639.621 1878.73 639.752L1869.56 641.205C1868.73 641.336 1868.25 640.964 1868.11 640.09L1861.79 600.191L1848.47 602.301C1847.59 602.439 1847.09 602.096 1846.96 601.271L1845.65 592.971C1845.51 592.097 1845.87 591.591 1846.75 591.452ZM1909.23 613.203L1910.91 623.833L1932.53 620.408C1933.41 620.269 1933.91 620.613 1934.04 621.438L1935.31 629.447C1935.45 630.321 1935.08 630.827 1934.21 630.965L1902.17 636.039C1901.3 636.178 1900.79 635.81 1900.65 634.936L1892.82 585.499C1892.68 584.625 1893.05 584.119 1893.92 583.98L1924.8 579.091C1925.67 578.952 1926.18 579.32 1926.31 580.194L1927.58 588.203C1927.71 589.028 1927.34 589.51 1926.47 589.648L1906.01 592.889L1907.59 602.864L1925.65 600.004C1926.52 599.865 1927.02 600.209 1927.15 601.034L1928.4 608.897C1928.53 609.723 1928.16 610.204 1927.28 610.343L1909.23 613.203ZM1967.04 593.299L1964.01 574.223C1963.88 573.349 1964.24 572.843 1965.12 572.705L1974.22 571.263C1975.09 571.125 1975.6 571.492 1975.74 572.366L1983.57 621.804C1983.71 622.678 1983.34 623.184 1982.46 623.322L1973.36 624.763C1972.49 624.902 1971.98 624.534 1971.84 623.66L1968.75 604.147L1952.37 606.742L1955.46 626.255C1955.6 627.129 1955.23 627.635 1954.36 627.773L1945.26 629.215C1944.38 629.353 1943.88 628.985 1943.74 628.112L1935.91 578.674C1935.77 577.8 1936.14 577.294 1937.01 577.156L1946.11 575.714C1946.99 575.576 1947.49 575.944 1947.63 576.817L1950.65 595.893L1967.04 593.299ZM1424.17 757.179L1425.44 765.17L1441.7 762.596C1442.35 762.492 1442.73 762.75 1442.83 763.37L1443.78 769.391C1443.89 770.048 1443.61 770.428 1442.95 770.532L1418.87 774.347C1418.21 774.451 1417.83 774.175 1417.73 773.518L1411.84 736.351C1411.74 735.694 1412.01 735.314 1412.67 735.21L1435.88 731.534C1436.54 731.43 1436.92 731.706 1437.02 732.363L1437.97 738.384C1438.07 739.005 1437.79 739.367 1437.14 739.471L1421.75 741.907L1422.94 749.406L1436.52 747.256C1437.17 747.152 1437.55 747.41 1437.65 748.031L1438.59 753.942C1438.68 754.563 1438.41 754.925 1437.75 755.029L1424.17 757.179ZM1458.1 768.133L1451.26 769.216C1450.61 769.321 1450.22 769.044 1450.12 768.387L1444.23 731.221C1444.13 730.564 1444.41 730.183 1445.06 730.079L1451.91 728.996C1452.56 728.892 1452.94 729.168 1453.05 729.825L1455.23 743.619L1463.5 727.777C1463.72 727.33 1464.09 727.065 1464.6 726.984L1473.25 725.615C1473.65 725.551 1473.93 725.62 1474.07 725.822C1474.25 726.017 1474.24 726.3 1474.04 726.669L1463.54 744.715L1481.4 763.264C1481.71 763.516 1481.8 763.781 1481.7 764.059C1481.62 764.295 1481.39 764.445 1480.98 764.509L1472.55 765.844C1472.08 765.919 1471.66 765.761 1471.3 765.369L1459.08 752.324L1457.1 755.442L1458.93 766.991C1459.04 767.648 1458.76 768.029 1458.1 768.133ZM1489.88 763.1L1482.55 764.262C1481.78 764.383 1481.47 764.059 1481.61 763.288L1488.4 724.001C1488.54 723.455 1488.85 723.145 1489.32 723.07L1497.64 721.752C1498.15 721.671 1498.54 721.872 1498.8 722.354L1517.4 757.618C1517.81 758.302 1517.61 758.707 1516.81 758.834L1509.53 759.988C1508.95 760.08 1508.52 759.867 1508.25 759.349L1505.17 752.991L1491.87 755.098L1490.85 762.105C1490.79 762.676 1490.46 763.007 1489.88 763.1ZM1494.89 732.007C1494.8 732.62 1494.51 734.817 1494.02 738.597C1493.57 742.335 1493.2 745.181 1492.91 747.134L1501.72 745.738C1501.55 745.391 1499.35 740.802 1495.11 731.973L1494.89 732.007ZM1510.14 719.772L1538.94 715.211C1539.56 715.113 1539.92 715.392 1540.02 716.049L1541.01 722.289C1541.11 722.91 1540.85 723.269 1540.23 723.367L1530.21 724.954L1534.96 754.95C1535.07 755.607 1534.81 755.984 1534.19 756.082L1527.29 757.175C1526.67 757.273 1526.31 756.994 1526.2 756.337L1521.45 726.341L1511.44 727.927C1510.78 728.031 1510.4 727.773 1510.3 727.153L1509.32 720.913C1509.21 720.256 1509.49 719.876 1510.14 719.772ZM1557.11 736.123L1558.38 744.115L1574.64 741.54C1575.29 741.436 1575.67 741.694 1575.77 742.314L1576.72 748.335C1576.83 748.992 1576.55 749.373 1575.89 749.477L1551.81 753.291C1551.15 753.395 1550.77 753.119 1550.67 752.462L1544.78 715.296C1544.68 714.639 1544.95 714.258 1545.61 714.154L1568.82 710.478C1569.48 710.374 1569.86 710.651 1569.96 711.308L1570.91 717.329C1571.01 717.949 1570.73 718.311 1570.08 718.415L1554.7 720.851L1555.88 728.35L1569.46 726.2C1570.11 726.096 1570.49 726.354 1570.59 726.975L1571.53 732.886C1571.63 733.507 1571.35 733.869 1570.69 733.973L1557.11 736.123ZM1577.95 709.032L1592.45 706.735C1596.76 706.053 1600.37 706.771 1603.29 708.891C1606.2 710.973 1607.99 714.131 1608.66 718.364C1609.34 722.633 1608.62 726.227 1606.5 729.143C1604.37 732.024 1601.16 733.805 1596.85 734.487L1590.17 735.544L1591.82 745.944C1591.92 746.601 1591.67 746.979 1591.05 747.077L1584.15 748.169C1583.53 748.268 1583.17 747.988 1583.06 747.332L1577.17 710.165C1577.07 709.508 1577.33 709.131 1577.95 709.032ZM1588.88 727.388L1594.35 726.522C1598.48 725.868 1600.24 723.626 1599.63 719.794C1599.02 715.963 1596.66 714.374 1592.53 715.027L1587.06 715.894L1588.88 727.388ZM1647.9 738.072L1641.11 739.147C1640.49 739.245 1640.13 738.966 1640.03 738.309L1638.67 729.715C1637.96 725.227 1637.42 719.981 1637.07 713.976L1636.9 713.948C1635.64 719.009 1634.2 723.596 1632.57 727.707L1627.33 740.657C1627.14 741.136 1626.79 741.415 1626.28 741.496L1619 742.649C1618.38 742.748 1618.02 742.468 1617.91 741.811L1612.03 704.645C1611.92 703.988 1612.18 703.611 1612.8 703.512L1619.59 702.437C1620.25 702.333 1620.63 702.61 1620.73 703.266L1622.28 713.064C1623.01 717.662 1623.58 722.566 1623.99 727.775L1624.17 727.803C1624.83 725.343 1626.16 721.129 1628.17 715.162L1633.43 700.918C1633.58 700.445 1633.91 700.169 1634.42 700.088L1641.7 698.935C1642.36 698.831 1642.74 699.107 1642.84 699.764L1648.73 736.931C1648.83 737.587 1648.56 737.968 1647.9 738.072ZM1674.34 709.476L1672.07 695.135C1671.97 694.478 1672.24 694.098 1672.9 693.994L1679.74 692.91C1680.4 692.806 1680.78 693.082 1680.88 693.739L1686.77 730.906C1686.87 731.563 1686.6 731.943 1685.94 732.047L1679.1 733.131C1678.44 733.235 1678.06 732.958 1677.96 732.302L1675.63 717.632L1663.32 719.583L1665.64 734.252C1665.75 734.909 1665.47 735.289 1664.81 735.394L1657.97 736.477C1657.31 736.581 1656.93 736.305 1656.83 735.648L1650.94 698.481C1650.84 697.825 1651.11 697.444 1651.77 697.34L1658.61 696.256C1659.27 696.152 1659.65 696.429 1659.75 697.086L1662.03 711.427L1674.34 709.476ZM1702.87 729.365L1696.03 730.449C1695.37 730.553 1694.99 730.277 1694.89 729.62L1689 692.453C1688.9 691.797 1689.17 691.416 1689.83 691.312L1711.73 687.844C1712.38 687.74 1712.76 688.017 1712.87 688.673L1713.86 694.914C1713.95 695.534 1713.67 695.896 1713.02 696L1698.95 698.228L1703.7 728.224C1703.8 728.881 1703.53 729.261 1702.87 729.365ZM1728.53 700.276L1735.32 699.201C1744.7 697.715 1750.02 700.95 1751.28 708.905C1751.93 713.029 1751.24 716.337 1749.2 718.829C1747.16 721.285 1743.91 722.865 1739.46 723.57L1724.57 725.928C1723.92 726.032 1723.54 725.756 1723.43 725.099L1717.55 687.932C1717.44 687.276 1717.72 686.895 1718.38 686.791L1743.06 682.881C1743.72 682.777 1744.1 683.053 1744.2 683.71L1745.11 689.458C1745.22 690.115 1744.94 690.495 1744.28 690.599L1727.43 693.269L1728.53 700.276ZM1731.16 716.861L1738.17 715.751C1741.42 715.237 1742.79 713.411 1742.29 710.272C1742.05 708.74 1741.47 707.69 1740.56 707.124C1739.68 706.516 1738.4 706.344 1736.72 706.61L1729.71 707.72L1731.16 716.861ZM1770.04 718.727L1762.49 719.923C1762.16 719.975 1761.91 719.922 1761.73 719.762C1761.59 719.561 1761.56 719.284 1761.66 718.933L1764.8 706.877L1748.74 683.103C1748.34 682.42 1748.51 682.017 1749.28 681.896L1756.83 680.7C1757.38 680.613 1757.81 680.808 1758.11 681.284L1767.56 696.676L1771.24 679.203C1771.38 678.658 1771.71 678.344 1772.22 678.263L1779.77 677.067C1780.54 676.946 1780.85 677.27 1780.71 678.04L1771.07 717.779C1770.93 718.324 1770.59 718.64 1770.04 718.727ZM1785.89 676.098L1800.39 673.801C1804.7 673.119 1808.31 673.837 1811.23 675.957C1814.14 678.039 1815.93 681.197 1816.6 685.43C1817.27 689.699 1816.55 693.293 1814.43 696.209C1812.31 699.09 1809.09 700.871 1804.79 701.553L1798.11 702.61L1799.76 713.01C1799.86 713.667 1799.6 714.045 1798.98 714.143L1792.09 715.235C1791.47 715.334 1791.1 715.054 1791 714.397L1785.11 677.231C1785.01 676.574 1785.27 676.197 1785.89 676.098ZM1796.82 694.454L1802.29 693.588C1806.42 692.934 1808.17 690.692 1807.57 686.86C1806.96 683.029 1804.59 681.44 1800.47 682.093L1795 682.96L1796.82 694.454ZM1833.83 708.623L1826.99 709.707C1826.34 709.811 1825.96 709.534 1825.85 708.877L1819.96 671.711C1819.86 671.054 1820.14 670.674 1820.79 670.57L1842.69 667.102C1843.35 666.998 1843.73 667.274 1843.83 667.931L1844.82 674.171C1844.92 674.791 1844.64 675.154 1843.98 675.258L1829.91 677.486L1834.66 707.482C1834.77 708.138 1834.49 708.519 1833.83 708.623ZM1880.55 697.914C1877.4 701.144 1873.46 703.132 1868.76 703.877C1863.83 704.658 1859.73 704.017 1856.45 701.956C1853.19 699.852 1851.2 696.465 1850.46 691.794L1848.65 680.354C1847.91 675.683 1848.76 671.863 1851.21 668.894C1853.69 665.92 1857.34 664.051 1862.16 663.288C1866.65 662.577 1870.74 663.127 1874.43 664.936C1875.03 665.178 1875.19 665.583 1874.9 666.152L1872.29 671.953C1872 672.521 1871.56 672.685 1870.96 672.443C1868.71 671.453 1866.27 671.166 1863.64 671.582C1861.38 671.941 1859.72 672.82 1858.67 674.221C1857.65 675.579 1857.3 677.262 1857.62 679.269L1859.32 689.998C1859.66 692.114 1860.54 693.658 1861.96 694.629C1863.38 695.564 1865.22 695.852 1867.49 695.494C1870.3 695.049 1872.71 693.881 1874.73 691.99C1875.21 691.502 1875.66 691.505 1876.08 692.001L1880.41 696.701C1880.86 697.154 1880.9 697.558 1880.55 697.914ZM1894.18 699.064L1887.34 700.148C1886.69 700.252 1886.3 699.976 1886.2 699.319L1880.31 662.152C1880.21 661.496 1880.49 661.115 1881.14 661.011L1887.99 659.927C1888.64 659.823 1889.02 660.1 1889.13 660.757L1891.31 674.55L1899.58 658.709C1899.8 658.261 1900.17 657.997 1900.68 657.916L1909.33 656.546C1909.73 656.483 1910.01 656.552 1910.15 656.753C1910.33 656.949 1910.32 657.232 1910.12 657.6L1899.62 675.647L1917.48 694.196C1917.79 694.447 1917.88 694.712 1917.78 694.991C1917.7 695.227 1917.47 695.377 1917.06 695.441L1908.64 696.776C1908.16 696.851 1907.74 696.693 1907.38 696.301L1895.16 683.255L1893.18 686.374L1895.01 697.923C1895.12 698.58 1894.84 698.96 1894.18 699.064ZM1951.47 689.992L1944.68 691.067C1944.06 691.165 1943.7 690.886 1943.59 690.229L1942.23 681.635C1941.52 677.147 1940.99 671.9 1940.64 665.896L1940.47 665.867C1939.21 670.929 1937.77 675.516 1936.14 679.627L1930.89 692.577C1930.71 693.055 1930.36 693.335 1929.85 693.416L1922.57 694.569C1921.95 694.667 1921.58 694.388 1921.48 693.731L1915.59 656.565C1915.49 655.908 1915.75 655.53 1916.37 655.432L1923.16 654.357C1923.81 654.253 1924.19 654.529 1924.3 655.186L1925.85 664.984C1926.58 669.582 1927.15 674.485 1927.56 679.694L1927.73 679.723C1928.39 677.262 1929.73 673.048 1931.74 667.082L1937 652.838C1937.15 652.365 1937.48 652.088 1937.99 652.008L1945.27 650.854C1945.93 650.75 1946.31 651.027 1946.41 651.684L1952.3 688.85C1952.4 689.507 1952.13 689.888 1951.47 689.992ZM1978.53 635.543C1978.49 635.063 1978.16 634.778 1977.55 634.688L1972.91 634.414C1972.33 634.318 1972 634.595 1971.92 635.244C1971.65 636.894 1970.59 637.866 1968.73 638.161C1966.91 638.45 1965.61 637.85 1964.85 636.362C1964.57 635.771 1964.17 635.61 1963.66 635.879L1959.32 637.575C1958.7 637.898 1958.5 638.303 1958.73 638.791C1959.48 640.953 1960.82 642.556 1962.75 643.598C1964.66 644.603 1966.99 644.889 1969.73 644.456C1972.5 644.017 1974.64 643.004 1976.15 641.419C1977.69 639.791 1978.48 637.833 1978.53 635.543ZM1983.6 684.903C1982.98 685.001 1982.61 684.722 1982.51 684.065L1981.15 675.471C1980.44 670.983 1979.91 665.737 1979.55 659.733L1979.38 659.704C1978.12 664.766 1976.68 669.352 1975.05 673.463L1969.81 686.414C1969.62 686.892 1969.27 687.172 1968.76 687.253L1961.48 688.406C1960.86 688.504 1960.5 688.225 1960.4 687.568L1954.51 650.401C1954.4 649.744 1954.66 649.367 1955.28 649.268L1962.07 648.193C1962.73 648.089 1963.11 648.366 1963.21 649.023L1964.76 658.821C1965.49 663.419 1966.06 668.322 1966.48 673.531L1966.65 673.56C1967.31 671.099 1968.64 666.885 1970.65 660.918L1975.91 646.674C1976.06 646.202 1976.39 645.925 1976.9 645.844L1984.18 644.691C1984.84 644.587 1985.22 644.863 1985.33 645.52L1991.21 682.687C1991.32 683.344 1991.04 683.724 1990.38 683.828L1983.6 684.903ZM1442.16 852.668L1433.2 854.087C1432.33 854.225 1431.82 853.857 1431.68 852.984L1423.85 803.546C1423.72 802.672 1424.08 802.166 1424.96 802.028L1435.3 800.39C1435.98 800.282 1436.51 800.521 1436.9 801.106L1445.46 812.737C1447.68 815.769 1450.63 820.204 1454.29 826.043L1454.58 825.996C1455.69 821.093 1457.09 815.97 1458.79 810.627L1463.41 796.908C1463.6 796.231 1464.03 795.839 1464.71 795.731L1475.05 794.094C1475.88 793.963 1476.36 794.334 1476.5 795.208L1484.33 844.646C1484.46 845.52 1484.12 846.022 1483.3 846.153L1474.27 847.582C1473.39 847.721 1472.89 847.353 1472.75 846.479L1471.23 836.869C1470.11 829.83 1469.12 822.026 1468.26 813.454L1467.96 813.428C1466.86 818.081 1465.42 823.309 1463.65 829.112L1461.23 836.885C1461.04 837.562 1460.6 837.954 1459.92 838.062L1452.93 839.169C1452.2 839.284 1451.67 839.046 1451.33 838.453L1446.54 831.822C1443.07 826.849 1440.09 822.32 1437.6 818.236L1437.32 818.355C1439.15 826.773 1440.62 834.501 1441.74 841.539L1443.26 851.15C1443.4 852.024 1443.03 852.53 1442.16 852.668ZM1503.68 821.204L1505.37 831.835L1526.99 828.41C1527.86 828.271 1528.37 828.615 1528.5 829.44L1529.77 837.449C1529.9 838.323 1529.54 838.829 1528.66 838.967L1496.63 844.041C1495.75 844.179 1495.25 843.812 1495.11 842.938L1487.28 793.5C1487.14 792.627 1487.51 792.121 1488.38 791.982L1519.25 787.093C1520.13 786.954 1520.63 787.322 1520.77 788.196L1522.04 796.205C1522.17 797.03 1521.8 797.512 1520.92 797.65L1500.47 800.891L1502.05 810.865L1520.1 808.006C1520.98 807.867 1521.48 808.211 1521.61 809.036L1522.85 816.899C1522.98 817.724 1522.61 818.206 1521.74 818.345L1503.68 821.204ZM1526.96 785.873L1565.25 779.807C1566.08 779.676 1566.56 780.048 1566.7 780.921L1568.01 789.222C1568.14 790.047 1567.8 790.525 1566.97 790.655L1553.65 792.766L1559.97 832.666C1560.11 833.539 1559.76 834.041 1558.94 834.172L1549.76 835.625C1548.94 835.756 1548.46 835.384 1548.32 834.511L1542 794.611L1528.67 796.721C1527.8 796.86 1527.3 796.516 1527.17 795.691L1525.85 787.391C1525.71 786.517 1526.08 786.011 1526.96 785.873ZM1574.06 778.412L1593.35 775.356C1599.08 774.449 1603.88 775.405 1607.76 778.224C1611.64 780.994 1614.02 785.194 1614.91 790.825C1615.81 796.504 1614.85 801.283 1612.03 805.163C1609.21 808.994 1604.93 811.364 1599.2 812.271L1590.32 813.678L1592.51 827.511C1592.65 828.385 1592.3 828.887 1591.48 829.018L1582.3 830.471C1581.48 830.602 1581 830.23 1580.86 829.357L1573.03 779.919C1572.89 779.045 1573.23 778.543 1574.06 778.412ZM1588.6 802.829L1595.88 801.676C1601.37 800.807 1603.7 797.824 1602.9 792.728C1602.09 787.631 1598.94 785.517 1593.46 786.386L1586.18 787.539L1588.6 802.829ZM1665.06 797.062C1666.09 803.567 1665.03 808.935 1661.87 813.168C1658.71 817.4 1653.78 820.047 1647.08 821.108C1640.43 822.161 1634.95 821.163 1630.63 818.115C1626.32 815.066 1623.64 810.29 1622.61 803.786L1620.62 791.189C1619.6 784.734 1620.67 779.39 1623.83 775.157C1626.99 770.925 1631.89 768.282 1638.54 767.229C1645.24 766.168 1650.75 767.161 1655.06 770.21C1659.37 773.21 1662.04 777.962 1663.07 784.466L1665.06 797.062ZM1634.52 801.676C1635.56 808.229 1639.16 811.017 1645.32 810.041C1651.49 809.064 1654.05 805.3 1653.01 798.747L1651.09 786.588C1650.06 780.083 1646.46 777.319 1640.3 778.296C1634.13 779.272 1631.56 783.012 1632.59 789.517L1634.52 801.676ZM1687.75 813.77L1678.58 815.223C1677.71 815.361 1677.2 814.993 1677.06 814.12L1669.23 764.682C1669.09 763.808 1669.46 763.302 1670.33 763.164L1707.61 757.259C1708.49 757.121 1708.99 757.489 1709.13 758.362L1716.96 807.8C1717.1 808.674 1716.73 809.18 1715.86 809.318L1706.76 810.76C1705.88 810.898 1705.38 810.53 1705.24 809.657L1698.92 769.757L1682.46 772.363L1688.78 812.263C1688.92 813.137 1688.58 813.639 1687.75 813.77ZM1765.6 781.138C1766.63 787.643 1765.57 793.011 1762.41 797.244C1759.25 801.476 1754.32 804.123 1747.62 805.184C1740.97 806.237 1735.49 805.239 1731.17 802.191C1726.86 799.142 1724.18 794.366 1723.15 787.862L1721.16 775.266C1720.14 768.81 1721.21 763.466 1724.37 759.233C1727.53 755.001 1732.43 752.358 1739.08 751.305C1745.78 750.244 1751.29 751.237 1755.6 754.286C1759.91 757.286 1762.58 762.038 1763.61 768.542L1765.6 781.138ZM1735.06 785.752C1736.1 792.305 1739.7 795.093 1745.86 794.117C1752.03 793.14 1754.59 789.376 1753.55 782.823L1751.63 770.664C1750.6 764.159 1747 761.395 1740.84 762.372C1734.67 763.348 1732.1 767.088 1733.13 773.593L1735.06 785.752ZM1789.38 781.926C1788.85 787.731 1787.37 792.046 1784.93 794.87C1782.49 797.694 1778.86 799.564 1774.03 800.478C1773.15 800.617 1772.65 800.273 1772.52 799.448L1771.2 791.075C1771.07 790.298 1771.42 789.796 1772.23 789.568C1774.09 789.074 1775.43 788.116 1776.25 786.692C1777.11 785.212 1777.61 782.894 1777.76 779.736C1778.15 774.051 1777.41 763.42 1775.54 747.844C1775.45 746.962 1775.85 746.452 1776.72 746.314L1808.39 741.297C1809.22 741.167 1809.7 741.538 1809.84 742.412L1817.67 791.85C1817.81 792.724 1817.46 793.226 1816.64 793.356L1807.46 794.809C1806.64 794.94 1806.16 794.569 1806.02 793.695L1799.71 753.868L1788.28 755.679C1789.53 766.725 1789.9 775.475 1789.38 781.926ZM1868.33 785.169L1859.3 786.599C1858.48 786.73 1857.99 786.358 1857.86 785.485L1856.05 774.054C1855.1 768.083 1854.39 761.105 1853.92 753.118L1853.69 753.08C1852.02 759.813 1850.1 765.914 1847.93 771.382L1840.96 788.608C1840.71 789.245 1840.25 789.617 1839.57 789.724L1829.89 791.258C1829.06 791.389 1828.58 791.017 1828.44 790.144L1820.61 740.706C1820.47 739.832 1820.82 739.33 1821.64 739.199L1830.67 737.769C1831.54 737.631 1832.05 737.998 1832.19 738.872L1834.25 751.905C1835.22 758.021 1835.98 764.543 1836.53 771.472L1836.76 771.51C1837.63 768.237 1839.41 762.632 1842.08 754.695L1849.08 735.748C1849.28 735.12 1849.72 734.752 1850.4 734.644L1860.08 733.11C1860.96 732.972 1861.46 733.34 1861.6 734.213L1869.43 783.651C1869.57 784.525 1869.2 785.031 1868.33 785.169ZM1868.96 731.704L1907.26 725.638C1908.09 725.508 1908.57 725.879 1908.71 726.753L1910.02 735.053C1910.15 735.878 1909.8 736.356 1908.98 736.487L1895.65 738.597L1901.97 778.497C1902.11 779.371 1901.77 779.873 1900.94 780.004L1891.77 781.457C1890.94 781.587 1890.46 781.216 1890.32 780.342L1884 740.442L1870.68 742.553C1869.81 742.691 1869.3 742.348 1869.17 741.523L1867.86 733.222C1867.72 732.349 1868.09 731.842 1868.96 731.704ZM1931.44 753.454L1933.12 764.085L1954.75 760.66C1955.62 760.521 1956.12 760.865 1956.25 761.69L1957.52 769.699C1957.66 770.573 1957.29 771.079 1956.42 771.217L1924.38 776.291C1923.51 776.429 1923 776.062 1922.87 775.188L1915.04 725.75C1914.9 724.877 1915.26 724.371 1916.14 724.232L1947.01 719.343C1947.88 719.204 1948.39 719.572 1948.53 720.446L1949.8 728.455C1949.93 729.28 1949.56 729.762 1948.68 729.9L1928.22 733.14L1929.8 743.115L1947.86 740.255C1948.73 740.117 1949.23 740.46 1949.37 741.286L1950.61 749.149C1950.74 749.974 1950.37 750.456 1949.5 750.594L1931.44 753.454ZM1989.25 733.551L1986.23 714.474C1986.09 713.601 1986.46 713.095 1987.33 712.956L1996.43 711.515C1997.31 711.376 1997.81 711.744 1997.95 712.618L2005.78 762.056C2005.92 762.929 2005.55 763.435 2004.68 763.574L1995.58 765.015C1994.7 765.154 1994.2 764.786 1994.06 763.912L1990.97 744.399L1974.59 746.994L1977.68 766.507C1977.81 767.381 1977.45 767.887 1976.57 768.025L1967.47 769.467C1966.6 769.605 1966.09 769.237 1965.95 768.364L1958.12 718.926C1957.99 718.052 1958.35 717.546 1959.23 717.408L1968.33 715.966C1969.2 715.828 1969.71 716.195 1969.85 717.069L1972.87 736.145L1989.25 733.551Z"
        fill="url(#paint0_linear_286_3148)" />
    <defs>
        <linearGradient id="paint0_linear_286_3148" x1="1317" y1="516.5" x2="1969.26" y2="745.861"
            gradientUnits="userSpaceOnUse">
            <stop stop-color="white" stop-opacity="0" />
            <stop offset="1" stop-color="white" />
        </linearGradient>
    </defs>
</svg>