<svg width="115" height="67" viewBox="0 0 115 67" fill="none" xmlns="http://www.w3.org/2000/svg">
<path d="M79.2616 6.87324C79.3189 6.26855 78.8857 5.72543 78.29 5.64569L69.9641 4.53125C69.348 4.44878 68.7812 4.88174 68.6987 5.49785L66.7421 20.1156C66.1477 24.5562 62.5318 27.7461 58.6869 27.2315L52.5578 26.4111C48.7042 25.8953 46.0632 21.8676 46.6575 17.4272L48.6113 2.80909C48.6937 2.19299 48.255 1.62544 47.6447 1.54375L39.321 0.429608C38.7194 0.349086 38.1645 0.759948 38.0607 1.35841L33.2979 29.2942L33.292 29.3378L32.7961 32.2474L32.4923 34.0083L31.9964 36.9179L28.1553 59.4487C28.1011 59.7432 28.1714 60.0573 28.3606 60.3015C28.5411 60.5446 28.8146 60.7114 29.1168 60.7518L72.2677 66.5277C72.5641 66.5673 72.8718 66.4784 73.1157 66.2921C73.3537 66.105 73.5042 65.8205 73.5381 65.5233L79.2616 6.87324ZM68.1066 40.3966C68.1745 39.7786 68.7283 39.3321 69.3463 39.3999C69.9376 39.4465 70.4109 40.0217 70.3459 40.6401L69.2551 50.6678C69.1872 51.2858 68.6334 51.7323 68.0154 51.6645L67.9863 51.6606C67.3818 51.5797 66.9523 51.0311 67.0158 50.4243L68.1066 40.3966ZM67.0887 59.6043L67.0596 59.6004C66.4551 59.5195 66.0256 58.971 66.0891 58.3642L66.283 56.5619C66.3509 55.9439 66.9047 55.4974 67.5232 55.5623C68.1523 55.614 68.5877 56.1841 68.5227 56.8025L68.3288 58.6048C68.2638 59.2232 67.7067 59.6722 67.0887 59.6043Z" fill="white"/>
<path d="M102.17 13.8338C102.049 13.5884 101.755 13.4824 101.508 13.5925L98.0517 15.1313C97.796 15.2452 97.6809 15.545 97.7948 15.8008L100.496 21.8684C101.317 23.7116 100.684 25.7888 99.0878 26.4994L96.5437 27.6321C94.9442 28.3444 92.9803 27.4235 92.1596 25.5804L89.4568 19.5133C89.3429 19.2576 89.0406 19.1436 88.7873 19.2564L85.3323 20.7947C85.0826 20.9059 84.9668 21.1945 85.0683 21.4485L89.8389 33.2859L89.8469 33.304L90.3438 34.5369L90.6432 35.2839L91.1401 36.5168L94.9877 46.0639C95.0365 46.1896 95.1376 46.2934 95.2679 46.3424C95.3945 46.393 95.5387 46.3924 95.6642 46.3365L113.575 38.3614C113.698 38.3066 113.795 38.1999 113.845 38.0708C113.892 37.9429 113.883 37.7982 113.825 37.6763L102.17 13.8338ZM105.809 29.3234C105.689 29.0704 105.796 28.7684 106.049 28.6485C106.287 28.5267 106.604 28.6355 106.725 28.888L108.675 32.991C108.795 33.244 108.688 33.546 108.435 33.6659L108.423 33.6713C108.172 33.783 107.878 33.6741 107.759 33.4264L105.809 29.3234ZM109.954 36.9295L109.942 36.9349C109.691 37.0466 109.397 36.9377 109.278 36.69L108.927 35.9531C108.807 35.7 108.914 35.398 109.167 35.2769C109.42 35.1481 109.722 35.2639 109.843 35.5164L110.194 36.2533C110.315 36.5058 110.207 36.8096 109.954 36.9295Z" fill="white"/>
<path d="M24.3453 37.1311C24.431 36.9182 24.3326 36.6749 24.1254 36.582L21.2299 35.2827C21.0157 35.1866 20.7638 35.2824 20.6677 35.4967L18.3866 40.5802C17.6936 42.1246 16.0409 42.8908 14.7038 42.2909L12.5723 41.3344C11.2321 40.733 10.7089 38.9903 11.4018 37.446L13.6819 32.362C13.778 32.1477 13.6802 31.895 13.468 31.7998L10.5733 30.5009C10.364 30.407 10.1189 30.4961 10.0169 30.7017L5.28682 40.3067L5.28001 40.3219L4.7874 41.3223L4.48796 41.9274L3.99535 42.9278L0.180513 50.6745C0.129201 50.7753 0.120897 50.8966 0.163143 51.0054C0.202352 51.1129 0.283466 51.2027 0.388569 51.2499L15.3951 57.9836C15.4981 58.0298 15.6192 58.0307 15.7275 57.9895C15.8338 57.9473 15.919 57.8605 15.9632 57.7565L24.3453 37.1311ZM16.699 48.0721C16.7901 47.8556 17.0387 47.7535 17.2553 47.8445C17.4644 47.925 17.5739 48.1842 17.4839 48.4012L16.0101 51.9156C15.919 52.1321 15.6704 52.2342 15.4539 52.1432L15.4438 52.1386C15.2336 52.0443 15.137 51.7994 15.2253 51.5865L16.699 48.0721ZM14.2642 54.919L14.254 54.9145C14.0438 54.8202 13.9473 54.5753 14.0356 54.3624L14.2997 53.7305C14.3907 53.514 14.6393 53.4118 14.8563 53.5019C15.0786 53.5883 15.175 53.8416 15.0849 54.0586L14.8208 54.6904C14.7308 54.9074 14.4807 55.0101 14.2642 54.919Z" fill="white"/>
</svg>
