<svg xmlns="http://www.w3.org/2000/svg" width="1146" height="1213" viewBox="0 0 1146 1213" fill="none">
    <g filter="url(#filter0_dddddd_1_849)">
        <path
            d="M458.648 657.361L458.31 657.73L458.648 657.361ZM595.583 653.202C595.859 653.213 596.091 652.997 596.101 652.721L596.272 648.225C596.283 647.949 596.068 647.717 595.792 647.706C595.516 647.696 595.283 647.911 595.273 648.187L595.121 652.184L591.124 652.032C590.848 652.021 590.616 652.236 590.605 652.512C590.595 652.788 590.81 653.021 591.086 653.031L595.583 653.202ZM497.958 549.851C496.219 551.144 494.515 552.46 492.847 553.798L493.473 554.578C495.131 553.248 496.826 551.939 498.555 550.653L497.958 549.851ZM483.091 562.243C479.886 565.238 476.858 568.306 474.019 571.427L474.759 572.1C477.579 569 480.588 565.95 483.773 562.974L483.091 562.243ZM465.764 581.345C463.088 584.876 460.66 588.444 458.498 592.018L459.354 592.535C461.497 588.993 463.905 585.454 466.561 581.948L465.764 581.345ZM452.498 603.468C450.677 607.587 449.239 611.674 448.214 615.684L449.182 615.932C450.192 611.981 451.611 607.946 453.413 603.872L452.498 603.468ZM446.373 628.499C446.271 632.992 446.798 637.308 448.005 641.368L448.964 641.083C447.789 637.134 447.273 632.922 447.373 628.522L446.373 628.499ZM453.899 652.933C455.194 654.618 456.663 656.22 458.31 657.73L458.986 656.993C457.38 655.521 455.951 653.961 454.692 652.323L453.899 652.933ZM458.31 657.73C460.15 659.416 461.993 660.683 463.849 661.576L464.283 660.675C462.528 659.83 460.764 658.623 458.986 656.993L458.31 657.73ZM477 662.33C480.852 661.155 484.755 658.949 488.754 656.2L488.187 655.376C484.222 658.102 480.418 660.242 476.708 661.374L477 662.33ZM499.279 648.232C502.628 645.572 506.077 642.811 509.664 640.162L509.07 639.357C505.466 642.019 502.001 644.793 498.657 647.449L499.279 648.232ZM520.587 632.935C524.389 630.765 528.342 628.916 532.474 627.593L532.169 626.641C527.957 627.989 523.939 629.87 520.091 632.067L520.587 632.935ZM545.246 625.413C549.344 625.337 553.62 625.861 558.093 627.146L558.369 626.185C553.801 624.873 549.426 624.335 545.227 624.414L545.246 625.413ZM570.092 632.252C573.565 634.201 577.151 636.615 580.858 639.554L581.479 638.771C577.735 635.802 574.105 633.358 570.582 631.38L570.092 632.252ZM590.609 648.256C592.131 649.763 593.673 651.357 595.235 653.042L595.968 652.363C594.398 650.668 592.846 649.063 591.312 647.545L590.609 648.256Z"
            fill="white" />
    </g>
    <defs>
        <filter id="filter0_dddddd_1_849" x="-103.334" y="0.156555" width="1249.3" height="1211.87"
            filterUnits="userSpaceOnUse" color-interpolation-filters="sRGB">
            <feFlood flood-opacity="0" result="BackgroundImageFix" />
            <feColorMatrix in="SourceAlpha" type="matrix" values="0 0 0 0 0 0 0 0 0 0 0 0 0 0 0 0 0 0 127 0"
                result="hardAlpha" />
            <feOffset />
            <feGaussianBlur stdDeviation="6.54398" />
            <feColorMatrix type="matrix" values="0 0 0 0 1 0 0 0 0 1 0 0 0 0 1 0 0 0 1 0" />
            <feBlend mode="normal" in2="BackgroundImageFix" result="effect1_dropShadow_1_849" />
            <feColorMatrix in="SourceAlpha" type="matrix" values="0 0 0 0 0 0 0 0 0 0 0 0 0 0 0 0 0 0 127 0"
                result="hardAlpha" />
            <feOffset />
            <feGaussianBlur stdDeviation="13.088" />
            <feColorMatrix type="matrix" values="0 0 0 0 1 0 0 0 0 1 0 0 0 0 1 0 0 0 1 0" />
            <feBlend mode="normal" in2="effect1_dropShadow_1_849" result="effect2_dropShadow_1_849" />
            <feColorMatrix in="SourceAlpha" type="matrix" values="0 0 0 0 0 0 0 0 0 0 0 0 0 0 0 0 0 0 127 0"
                result="hardAlpha" />
            <feOffset />
            <feGaussianBlur stdDeviation="45.8078" />
            <feColorMatrix type="matrix" values="0 0 0 0 1 0 0 0 0 1 0 0 0 0 1 0 0 0 1 0" />
            <feBlend mode="normal" in2="effect2_dropShadow_1_849" result="effect3_dropShadow_1_849" />
            <feColorMatrix in="SourceAlpha" type="matrix" values="0 0 0 0 0 0 0 0 0 0 0 0 0 0 0 0 0 0 127 0"
                result="hardAlpha" />
            <feOffset />
            <feGaussianBlur stdDeviation="91.6157" />
            <feColorMatrix type="matrix" values="0 0 0 0 1 0 0 0 0 1 0 0 0 0 1 0 0 0 1 0" />
            <feBlend mode="normal" in2="effect3_dropShadow_1_849" result="effect4_dropShadow_1_849" />
            <feColorMatrix in="SourceAlpha" type="matrix" values="0 0 0 0 0 0 0 0 0 0 0 0 0 0 0 0 0 0 127 0"
                result="hardAlpha" />
            <feOffset />
            <feGaussianBlur stdDeviation="157.055" />
            <feColorMatrix type="matrix" values="0 0 0 0 1 0 0 0 0 1 0 0 0 0 1 0 0 0 1 0" />
            <feBlend mode="normal" in2="effect4_dropShadow_1_849" result="effect5_dropShadow_1_849" />
            <feColorMatrix in="SourceAlpha" type="matrix" values="0 0 0 0 0 0 0 0 0 0 0 0 0 0 0 0 0 0 127 0"
                result="hardAlpha" />
            <feOffset />
            <feGaussianBlur stdDeviation="274.847" />
            <feColorMatrix type="matrix" values="0 0 0 0 1 0 0 0 0 1 0 0 0 0 1 0 0 0 1 0" />
            <feBlend mode="normal" in2="effect5_dropShadow_1_849" result="effect6_dropShadow_1_849" />
            <feBlend mode="normal" in="SourceGraphic" in2="effect6_dropShadow_1_849" result="shape" />
        </filter>
    </defs>
</svg>