<svg width="366" height="80" viewBox="0 0 366 80" fill="none" xmlns="http://www.w3.org/2000/svg"
    preserveAspectRatio="none">
    <path
        d="M1.31166 38.9427L15.2609 8.08521C16.0109 6.42617 17.6034 5.30593 19.4183 5.16074L53.3016 2.45007C53.7495 2.41424 54.2002 2.43895 54.6415 2.52353L113.353 13.7766C113.767 13.8559 114.189 13.8826 114.61 13.8561L208.12 7.95018C208.687 7.91437 209.256 7.97545 209.802 8.1308L253.663 20.5997C254.523 20.8441 255.433 20.8536 256.297 20.6272L331.433 0.954826C333.773 0.341969 336.217 1.49312 337.235 3.68816L364.939 63.4238C366.257 66.2662 364.666 69.6068 361.629 70.3749L325.604 79.4845C324.548 79.7515 323.434 79.6664 322.43 79.2419L299.45 69.5195C298.492 69.114 297.431 69.0177 296.415 69.244L275.513 73.8999C275.157 73.9794 274.792 74.0195 274.426 74.0195H30.7247C29.2948 74.0195 27.9334 73.4074 26.9845 72.3378L2.12758 44.3206C0.81901 42.8456 0.499458 40.7394 1.31166 38.9427Z"
        fill="#FF5129" />
</svg>