<svg xmlns="http://www.w3.org/2000/svg" width="126" height="59" viewBox="0 0 126 59" fill="none">
    <g clip-path="url(#clip0_1_876)">
        <mask id="mask0_1_876" style="mask-type:luminance" maskUnits="userSpaceOnUse" x="0" y="0" width="126"
            height="59">
            <path d="M125.548 0.875H0.178101V58.0385H125.548V0.875Z" fill="white" />
        </mask>
        <g mask="url(#mask0_1_876)">
            <path fill-rule="evenodd" clip-rule="evenodd"
                d="M55.4979 0.875244L83.099 9.19884V16.3767L55.4979 24.7003V19.8432L64.2272 17.2189V8.36158L55.4979 5.73721V0.875244ZM68.3588 15.7647L68.2115 16.0535L78.9477 12.8171L68.2557 9.60033L68.4078 9.88921C68.904 10.7909 69.1601 11.8046 69.1515 12.8333C69.143 13.862 68.87 14.8714 68.3588 15.7647ZM42.5635 6.2611H32.843L32.8381 23.3538H27.9999V2.32453H42.9953C47.8874 2.32453 50.4683 4.87547 50.4683 9.70805C50.4683 11.647 49.6784 14.237 47.4409 15.1576L47.0336 15.3289L47.4654 15.4171C48.4251 15.6019 49.2891 16.1177 49.9064 16.874C50.5235 17.6304 50.8544 18.5791 50.8413 19.5543V23.4175H45.9983V20.235C45.9983 18.8836 45.5615 17.0867 41.7931 17.0867H36.479V13.1158H42.5635C44.5409 13.1158 45.6302 11.9065 45.6302 9.68846C45.6302 7.47047 44.5262 6.2611 42.5635 6.2611ZM120.705 19.4271V2.29026L125.568 2.26088V23.3538H116.995L105.244 6.21704H104.326V23.3538H99.4829V2.29026H107.849L119.787 19.4271H120.705ZM88.4131 2.29026H93.2512V23.3538H88.4131V2.29026ZM57.7747 27.2953H66.0869V27.266C72.9418 27.266 73.6826 32.4804 73.6729 34.7229V41.23C73.6729 41.2494 73.6729 41.2693 73.6727 41.2897L68.7963 41.503C68.8253 41.2343 68.8397 40.9459 68.8397 40.6375L68.8592 35.1831C68.8592 32.4511 67.8926 31.2318 65.7188 31.2318H58.0298C55.8758 31.2318 54.8944 32.4609 54.8944 35.2126V40.6669C54.8944 41.2061 54.941 41.6853 55.0349 42.1052L50.094 42.3213C50.037 41.8825 50.0219 41.505 50.0219 41.23V34.7522C50.0219 32.5098 50.7775 27.2953 57.7747 27.2953ZM39.4378 42.7876V31.2221H47.6175V27.2562H26.4542V31.2221H34.5947V42.9995L39.4378 42.7876ZM82.5689 48.3491H83.0204V31.2123H92.7556C94.7183 31.2123 95.8175 32.4266 95.8175 34.6397C95.8175 36.8528 94.733 38.0671 92.7556 38.0671H86.6711V42.0379H91.9852C95.7536 42.0379 96.1904 43.8347 96.1904 45.1861V48.3687H101.029V44.5056C101.047 43.5275 100.72 42.5741 100.103 41.8136C99.4862 41.053 98.6201 40.5342 97.6576 40.3487L97.2209 40.2605L97.633 40.0891C99.8656 39.1687 100.661 36.5785 100.661 34.6397C100.661 29.8071 98.0747 27.2562 93.1874 27.2562H78.1823V41.281C78.418 41.3339 78.6505 41.4025 78.8782 41.4867C79.5572 41.7378 80.1807 42.1221 80.7131 42.6176C81.2456 43.1133 81.6766 43.7105 81.9813 44.3751C82.2861 45.0398 82.4588 45.7588 82.4895 46.4913L82.5689 48.3491ZM22.4111 17.2091C22.4318 18.7566 21.8474 20.2512 20.782 21.3757V21.3856C19.5405 22.6733 17.6808 23.3538 15.3893 23.3538H0.178101V2.25108H14.354C15.5611 2.25108 21.5768 2.50569 21.5768 7.48026C21.5768 10.7607 19.6142 11.8477 19.0106 12.1023L18.6818 12.2443L19.0204 12.3569C20.0235 12.7095 20.8905 13.3676 21.4988 14.2381C22.1072 15.1087 22.4263 16.1479 22.4111 17.2091ZM14.1283 6.01629H5.02116V10.9321H14.1283C14.4655 10.9419 14.8014 10.8844 15.1161 10.7632C15.4308 10.6419 15.718 10.4592 15.9612 10.2257C16.2042 9.99228 16.3982 9.7128 16.5317 9.40365C16.6651 9.09448 16.7356 8.76187 16.7387 8.42524C16.7387 6.99554 15.6887 6.01629 14.1283 6.01629ZM5.02116 14.4378V19.6034H14.2362C15.7721 19.6034 17.5679 18.9325 17.5679 16.9741C17.5679 15.8039 16.6896 14.4378 14.2362 14.4378H5.02116ZM125.548 48.3491H105.072V27.2562H125.548V31.0066H109.915V36.0058H124.473V39.433H109.915V44.5938H125.548V48.3491ZM7.62179 35.7119H16.0076C17.9311 35.7119 23.7899 35.7119 23.7899 41.9007C23.7899 47.2132 19.5602 48.3296 16.0076 48.3296H7.96036C6.23864 48.3592 4.53785 47.9496 3.01916 47.1397C1.15947 46.0626 0.217355 44.344 0.178101 42.033H5.02116C5.06167 42.6837 5.35716 43.2924 5.84377 43.7277C6.3304 44.1629 6.96907 44.3895 7.62179 44.3587H16.3462C16.6809 44.3794 17.0164 44.3314 17.3318 44.2177C17.6473 44.104 17.936 43.927 18.1802 43.6975C18.4244 43.4681 18.6189 43.1912 18.7515 42.8838C18.8842 42.5765 18.9524 42.2452 18.9517 41.9106C18.9517 40.2214 17.6416 39.4625 16.3462 39.4625H7.96036C1.52748 39.4625 0.178101 36.2065 0.178101 33.4743C0.178101 31.1291 1.13494 29.4105 3.01426 28.3676C4.54877 27.6039 6.24589 27.2225 7.96036 27.2562H16.0076C16.7976 27.2562 23.6868 27.4275 23.7899 33.3372H18.9468C18.883 32.0152 17.9261 31.2318 16.3462 31.2318H7.62179C6.36563 31.2318 5.02116 31.8195 5.02116 33.4743C5.02116 35.5504 7.00844 35.7119 7.62179 35.7119Z"
                fill="white" />
            <path fill-rule="evenodd" clip-rule="evenodd"
                d="M30.9828 58.3906L76.4839 56.4321V56.4371C77.8312 56.3786 79.1002 55.7888 80.012 54.7972C80.9238 53.8058 81.4038 52.4935 81.3466 51.149L81.1798 47.3056C81.1514 46.6396 80.9917 45.9859 80.71 45.3815C80.4283 44.7772 80.0299 44.2343 79.5378 43.7836C79.0457 43.333 78.4693 42.9836 77.8417 42.7553C77.2142 42.5271 76.5477 42.4245 75.8803 42.4535L30.3792 44.4119C29.7118 44.4402 29.0567 44.5995 28.4509 44.8806C27.8453 45.1617 27.3013 45.5592 26.8497 46.0503C26.3981 46.5414 26.0478 47.1165 25.8191 47.7427C25.5903 48.3689 25.4875 49.034 25.5165 49.6999L25.6785 53.5433C25.7074 54.2093 25.8677 54.863 26.15 55.4671C26.4324 56.0711 26.8312 56.6138 27.3238 57.0639C27.8164 57.5141 28.3931 57.863 29.021 58.0906C29.6487 58.3182 30.3154 58.4202 30.9828 58.3906ZM72.5117 50.7708L73.5225 46.7852L75.2693 46.7166L73.4048 52.9496C72.9926 54.3352 72.4037 55.0648 71.1966 55.1137C70.8436 55.127 70.4908 55.0841 70.1515 54.9864L70.0976 53.6693C70.3427 53.7316 70.5953 53.7595 70.8482 53.7526C71.4027 53.7232 71.6186 53.4049 71.8296 52.8467L69.1554 46.9713L70.8777 46.8978L72.5117 50.7708ZM34.0812 50.3203C34.1107 48.7877 35.3178 48.2541 36.6966 48.1952C38.1344 48.1218 39.2874 48.6115 39.3708 50.1391L39.5475 54.2128L37.938 54.2814L37.884 53.1356H37.8301C37.7167 53.5367 37.4762 53.8905 37.1444 54.1438C36.8127 54.3971 36.4077 54.5363 35.99 54.5408C34.9007 54.5849 34.0763 54.1296 34.0273 53.0132C33.9782 51.8969 34.8614 51.3485 35.8526 51.0547C36.0151 51.0066 36.1762 50.963 36.3319 50.9209C37.1265 50.7063 37.7811 50.5294 37.7565 49.9726C37.727 49.5026 37.4375 49.2284 36.7457 49.2725C36.0539 49.3165 35.6907 49.6054 35.6907 50.2517L34.0812 50.3203ZM36.2076 53.4963C36.3112 53.523 36.4195 53.5268 36.5249 53.5078C37.6142 53.4441 37.8497 52.171 37.8104 51.2799C37.4384 51.5432 37.0157 51.7266 36.569 51.8185C36.0539 51.9851 35.6514 52.269 35.6514 52.7978C35.6539 52.9046 35.6797 53.0096 35.7267 53.1055C35.7738 53.2015 35.8412 53.2861 35.9243 53.3535C36.0073 53.421 36.1039 53.4698 36.2076 53.4963ZM31.1729 53.0378C31.3173 52.9281 31.4909 52.8633 31.672 52.8517V52.8369C31.7958 52.8297 31.9198 52.8473 32.0366 52.8886C32.1536 52.93 32.2609 52.9944 32.3524 53.078C32.444 53.1616 32.5177 53.2626 32.5693 53.375C32.6211 53.4876 32.6497 53.6093 32.6534 53.733C32.6607 53.9139 32.6144 54.093 32.5202 54.2478C32.4261 54.4027 32.2881 54.5263 32.1239 54.6033C31.9596 54.6804 31.7763 54.7073 31.5967 54.6808C31.4172 54.6543 31.2494 54.5756 31.1145 54.4544C30.9796 54.3332 30.8835 54.1751 30.8382 53.9996C30.793 53.8243 30.8006 53.6395 30.8601 53.4684C30.9197 53.2973 31.0284 53.1475 31.1729 53.0378ZM48.3111 50.8735C48.2228 49.1256 49.2041 47.6714 51.1669 47.5882V47.5734C53.1345 47.4902 54.1012 48.8613 54.1797 50.6336V50.9813L49.95 51.1624C50.0579 52.078 50.4653 52.7488 51.4466 52.7047C51.7173 52.6974 51.9766 52.5953 52.1794 52.4162C52.3821 52.2372 52.5153 51.9927 52.5555 51.7255L54.1649 51.6569C54.0585 52.2965 53.7236 52.876 53.222 53.2884C52.7205 53.7006 52.0862 53.9177 51.4367 53.8994C49.4249 53.9876 48.3995 52.6215 48.3111 50.8735ZM51.2209 48.7633C50.4407 48.7975 50.0579 49.3411 49.95 50.0804L52.4918 49.9726C52.3592 49.2529 52.001 48.729 51.2209 48.7633ZM57.8774 47.5855C58.1928 47.3693 58.5621 47.2448 58.9442 47.2259V47.2405C60.6126 47.1671 61.1229 48.2393 61.1818 49.5956L61.3388 53.2678L59.7293 53.3364L59.5871 50.0069C59.5429 48.9738 59.2337 48.5282 58.4879 48.5625C57.6243 48.5968 57.1876 49.1354 57.2366 50.3399L57.3692 53.4392L55.7597 53.5078L55.5045 47.5393L57.0551 47.4707L57.0992 48.4499H57.1581C57.313 48.1009 57.5621 47.8016 57.8774 47.5855ZM45.2394 48.7927L45.2051 47.9897L46.7409 47.9505L46.9715 53.2287C47.0501 54.9521 46.1766 56.1957 44.1059 56.2839C41.3483 56.3866 41.2011 54.3253 41.2011 54.3253L42.8105 54.2569C42.8105 54.2569 42.9038 55.1137 44.0569 55.0648C45.0775 55.0207 45.4112 54.4331 45.3671 53.4V53.1112H45.3081C45.1094 53.387 44.8468 53.6108 44.5426 53.7635C44.2383 53.916 43.9018 53.9929 43.5613 53.9876C41.8242 54.0562 40.9165 52.6019 40.8429 51.0499C40.7693 49.4977 41.5691 47.97 43.2963 47.8966C43.6607 47.869 44.026 47.9372 44.3558 48.0945C44.6856 48.2516 44.9682 48.4924 45.1757 48.7927H45.2394ZM42.4523 50.9813C42.4965 51.941 42.9872 52.7978 43.9685 52.7537L43.9587 52.7685C44.9402 52.7292 45.3719 51.8235 45.3278 50.8588C45.2836 49.8943 44.788 49.0375 43.8116 49.0815C42.8351 49.1256 42.4082 50.0216 42.4523 50.9813ZM64.2387 50.1587C64.2927 51.2358 64.6853 52.0927 65.7108 52.0487L65.701 52.0633C66.0065 52.047 66.2941 51.9147 66.5049 51.6935C66.7158 51.4722 66.8336 51.1788 66.8345 50.8735L68.444 50.8049C68.3997 51.4851 68.0915 52.1212 67.5849 52.5783C67.0782 53.0355 66.413 53.2775 65.7305 53.2531C63.7726 53.3364 62.698 51.9703 62.6048 50.2272C62.5115 48.4842 63.4929 47.0252 65.4557 46.9418C66.1421 46.8525 66.8361 47.0369 67.3873 47.4548C67.9385 47.8727 68.3022 48.4907 68.3997 49.1745L66.7904 49.2431C66.7651 48.9332 66.6199 48.6451 66.3853 48.4403C66.1507 48.2355 65.8455 48.1301 65.5341 48.1463C64.5086 48.2002 64.1848 49.0815 64.2387 50.1587Z"
                fill="white" />
        </g>
    </g>
    <defs>
        <clipPath id="clip0_1_876">
            <rect width="125.37" height="57.1635" fill="white" transform="translate(0.178101 0.875)" />
        </clipPath>
    </defs>
</svg>