<svg width="167" height="57" viewBox="0 0 167 57" fill="none" xmlns="http://www.w3.org/2000/svg">
    <path
        d="M21.6188 6.06813C22.7746 6.06813 23.7885 6.34189 24.6605 6.88941C25.5324 7.41666 26.2016 8.15683 26.668 9.10992C27.1547 10.063 27.398 11.1479 27.398 12.3646V22.8588H24.8126V13.1555C24.8126 12.1821 24.6605 11.3406 24.3563 10.6308C24.0724 9.92106 23.6466 9.38368 23.0788 9.01867C22.5313 8.63337 21.8722 8.44073 21.1017 8.44073C19.9053 8.44073 18.8711 8.95783 17.9991 9.99204C17.1475 11.006 16.7216 12.2632 16.7216 13.7639V22.8588H14.197V13.1555C14.197 11.6752 13.8624 10.5193 13.1933 9.68786C12.5444 8.85644 11.6319 8.44073 10.4557 8.44073C9.86767 8.44073 9.29988 8.58268 8.75238 8.86658C8.22515 9.1302 7.75875 9.49521 7.35319 9.96162C6.96791 10.428 6.6536 10.9958 6.41027 11.665C6.18721 12.3139 6.07568 13.0135 6.07568 13.7639V22.8588H3.49023V6.43315H5.34567L5.77151 8.68407C6.07568 8.2785 6.42041 7.91348 6.80569 7.58903C7.21125 7.26457 7.63709 6.99081 8.0832 6.76774C8.52932 6.54468 9.00585 6.37231 9.5128 6.25064C10.0198 6.12897 10.5267 6.06813 11.0337 6.06813C12.1895 6.06813 13.2034 6.35203 14.0754 6.91983C14.9473 7.46735 15.6063 8.2278 16.0525 9.20117C16.458 8.55226 16.9548 7.9946 17.5429 7.52819C18.131 7.06178 18.7697 6.70691 19.4592 6.46357C20.1689 6.19994 20.8888 6.06813 21.6188 6.06813Z"
        fill="white" />
    <path
        d="M46.5362 14.7068C46.5362 14.9299 46.516 15.2442 46.4754 15.6498H32.4532C32.6559 17.1707 33.2846 18.3975 34.339 19.3303C35.3935 20.2429 36.6913 20.6991 38.2324 20.6991C39.368 20.6991 40.3717 20.4558 41.2437 19.9691C42.1359 19.4621 42.8456 18.7524 43.3729 17.8398H46.08C45.3905 19.5432 44.3564 20.8715 42.9774 21.8246C41.5985 22.7574 40.0169 23.2238 38.2324 23.2238C35.8599 23.2238 33.8726 22.4025 32.2707 20.76C30.6687 19.1174 29.8677 17.0794 29.8677 14.646C29.8677 12.1923 30.6687 10.1543 32.2707 8.53198C33.8726 6.88941 35.8599 6.06813 38.2324 6.06813C40.686 6.06813 42.6834 6.89955 44.2245 8.5624C45.7657 10.2252 46.5362 12.2734 46.5362 14.7068ZM38.2324 8.53198C37.259 8.53198 36.3668 8.72463 35.5557 9.10992C34.7649 9.49521 34.1058 10.0529 33.5786 10.7829C33.0514 11.4927 32.6965 12.3139 32.514 13.2467H43.9204C43.7379 12.2937 43.383 11.4622 42.8558 10.7525C42.3286 10.0225 41.6695 9.47493 40.8787 9.10992C40.0878 8.72463 39.2057 8.53198 38.2324 8.53198Z"
        fill="white" />
    <path
        d="M62.4089 0.5625H64.9944V22.8588H63.0173L62.6523 20.5166C61.03 22.3214 58.9312 23.2238 56.3559 23.2238C53.882 23.2238 51.8441 22.4127 50.2421 20.7904C48.6604 19.1478 47.8696 17.0997 47.8696 14.646C47.8696 12.172 48.6604 10.1238 50.2421 8.50156C51.8441 6.87928 53.882 6.06813 56.3559 6.06813C58.7893 6.06813 60.807 6.87928 62.4089 8.50156V0.5625ZM52.2192 18.9957C53.3548 20.1516 54.7844 20.7295 56.508 20.7295C58.2519 20.7295 59.7018 20.1516 60.8577 18.9957C62.0135 17.8196 62.5914 16.3696 62.5914 14.646C62.5914 12.902 62.0135 11.4521 60.8577 10.2962C59.7221 9.14034 58.2823 8.5624 56.5384 8.5624C55.6868 8.5624 54.8858 8.72463 54.1355 9.04908C53.3852 9.35326 52.7465 9.76897 52.2192 10.2962C51.692 10.8235 51.2763 11.4724 50.9721 12.243C50.668 12.9933 50.5159 13.7943 50.5159 14.646C50.5159 16.3899 51.0837 17.8398 52.2192 18.9957Z"
        fill="white" />
    <path d="M68.8994 3.57387V0.623337H71.6977V3.57387H68.8994ZM69.021 22.8588V6.43315H71.6065V22.8588H69.021Z"
        fill="white" />
    <path
        d="M117.873 20.4558H119.668V22.8588H117.539C116.383 22.8588 115.369 22.6357 114.497 22.1896C113.645 21.7232 112.986 21.054 112.52 20.182C112.074 19.31 111.851 18.286 111.851 17.1098V8.77532H108.961V8.31906L114.041 2.96551H114.436V6.43315H119.576V8.77532H114.436V17.0186C114.436 17.7689 114.568 18.3975 114.831 18.9045C115.095 19.4114 115.48 19.7967 115.987 20.0603C116.515 20.324 117.143 20.4558 117.873 20.4558ZM101.144 13.1555C101.712 13.2366 102.127 13.3076 102.391 13.3684C102.675 13.409 103.07 13.5002 103.577 13.6422C104.104 13.7639 104.51 13.8957 104.794 14.0376C105.078 14.1796 105.402 14.3823 105.767 14.646C106.152 14.8893 106.436 15.1732 106.619 15.4977C106.801 15.8018 106.964 16.1871 107.106 16.6535C107.247 17.0997 107.318 17.5965 107.318 18.144C107.318 19.6852 106.72 20.9222 105.524 21.855C104.348 22.7675 102.786 23.2238 100.84 23.2238C99.5418 23.2238 98.4063 23.0109 97.4329 22.585C96.4596 22.1389 95.6992 21.5103 95.1516 20.6991C94.6041 19.8677 94.3101 18.9045 94.2695 17.8094H96.7942C96.855 18.7828 97.2606 19.5331 98.0108 20.0603C98.7611 20.5673 99.7243 20.8208 100.9 20.8208C102.056 20.8208 102.989 20.5977 103.699 20.1516C104.409 19.6852 104.763 19.0566 104.763 18.2657C104.763 17.9007 104.682 17.5762 104.52 17.2923C104.358 17.0084 104.165 16.7854 103.942 16.6231C103.719 16.4406 103.385 16.2784 102.938 16.1364C102.513 15.9945 102.137 15.8931 101.813 15.8323C101.509 15.7714 101.073 15.6903 100.505 15.5889C100.14 15.5281 99.8561 15.4774 99.6534 15.4368C99.4506 15.3963 99.1768 15.3456 98.8321 15.2847C98.4874 15.2036 98.2035 15.1327 97.9804 15.0718C97.7776 14.9907 97.5242 14.8995 97.22 14.7981C96.9158 14.6764 96.6725 14.5547 96.49 14.433C96.3075 14.2911 96.0946 14.139 95.8512 13.9768C95.6282 13.7943 95.4457 13.6016 95.3037 13.3988C95.1821 13.1961 95.0502 12.973 94.9083 12.7296C94.7866 12.466 94.6954 12.172 94.6346 11.8475C94.594 11.5231 94.5737 11.1885 94.5737 10.8437C94.5737 9.42424 95.1415 8.2785 96.2771 7.40652C97.4126 6.51426 98.9031 6.06813 100.748 6.06813C102.614 6.06813 104.104 6.53454 105.22 7.46735C106.335 8.37989 106.913 9.60674 106.953 11.1479H104.52C104.459 10.2557 104.094 9.57633 103.425 9.10992C102.776 8.62323 101.874 8.37989 100.718 8.37989C99.6027 8.37989 98.7104 8.60295 98.0413 9.04908C97.3924 9.47493 97.0679 10.0427 97.0679 10.7525C97.0679 11.0769 97.149 11.371 97.3112 11.6346C97.4735 11.8779 97.656 12.0807 97.8588 12.243C98.0615 12.3849 98.3758 12.5269 98.8017 12.6688C99.2275 12.7905 99.5824 12.8817 99.8663 12.9426C100.17 12.9831 100.596 13.0541 101.144 13.1555Z"
        fill="white" />
    <path
        d="M129.705 23.2238C128.083 23.2238 126.603 22.8588 125.264 22.1288C123.926 21.3785 122.882 20.3544 122.131 19.0566C121.381 17.7385 121.006 16.2683 121.006 14.646C121.006 12.172 121.827 10.1238 123.47 8.50156C125.132 6.87928 127.211 6.06813 129.705 6.06813C131.348 6.06813 132.828 6.44329 134.146 7.19359C135.484 7.92362 136.529 8.94769 137.279 10.2658C138.05 11.5636 138.435 13.0237 138.435 14.646C138.435 17.0997 137.603 19.1478 135.941 20.7904C134.278 22.4127 132.199 23.2238 129.705 23.2238ZM125.355 19.0261C126.511 20.1617 127.961 20.7295 129.705 20.7295C131.469 20.7295 132.919 20.1617 134.055 19.0261C135.211 17.8703 135.789 16.4102 135.789 14.646C135.789 12.8817 135.211 11.4318 134.055 10.2962C132.919 9.14034 131.469 8.5624 129.705 8.5624C127.961 8.5624 126.511 9.14034 125.355 10.2962C124.22 11.4318 123.652 12.8817 123.652 14.646C123.652 16.4102 124.22 17.8703 125.355 19.0261Z"
        fill="white" />
    <path
        d="M148.63 6.34189H150.09V8.80574H148.417C146.937 8.80574 145.781 9.26201 144.95 10.1745C144.138 11.0668 143.733 12.3241 143.733 13.9464V22.8588H141.147V6.43315H142.972L143.398 8.92741C144.595 7.20373 146.339 6.34189 148.63 6.34189Z"
        fill="white" />
    <path
        d="M166.519 14.7068C166.519 14.9299 166.499 15.2442 166.459 15.6498H152.436C152.639 17.1707 153.268 18.3975 154.322 19.3303C155.377 20.2429 156.674 20.6991 158.216 20.6991C159.351 20.6991 160.355 20.4558 161.227 19.9691C162.119 19.4621 162.829 18.7524 163.356 17.8398H166.063C165.374 19.5432 164.34 20.8715 162.961 21.8246C161.582 22.7574 160 23.2238 158.216 23.2238C155.843 23.2238 153.856 22.4025 152.254 20.76C150.652 19.1174 149.851 17.0794 149.851 14.646C149.851 12.1923 150.652 10.1543 152.254 8.53198C153.856 6.88941 155.843 6.06813 158.216 6.06813C160.669 6.06813 162.667 6.89955 164.208 8.5624C165.749 10.2252 166.519 12.2734 166.519 14.7068ZM158.216 8.53198C157.242 8.53198 156.35 8.72463 155.539 9.10992C154.748 9.49521 154.089 10.0529 153.562 10.7829C153.035 11.4927 152.68 12.3139 152.497 13.2467H163.904C163.721 12.2937 163.366 11.4622 162.839 10.7525C162.312 10.0225 161.653 9.47493 160.862 9.10992C160.071 8.72463 159.189 8.53198 158.216 8.53198Z"
        fill="white" />
    <mask id="mask0_1_914" style="mask-type:alpha" maskUnits="userSpaceOnUse" x="73" y="5" width="19" height="19">
        <rect x="73.5223" y="5.92188" width="18.2732" height="17.3823" fill="#D9D9D9" />
    </mask>
    <g mask="url(#mask0_1_914)">
        <path
            d="M89.5795 13.4179H91.6479V29.8435H89.4883L89.2145 27.3493C88.444 28.2618 87.501 28.9715 86.3858 29.4785C85.2907 29.9652 84.0842 30.2085 82.7661 30.2085C80.353 30.2085 78.3354 29.3974 76.7131 27.7751C75.0909 26.1325 74.2798 24.0844 74.2798 21.6307C74.2798 19.177 75.0909 17.139 76.7131 15.5167C78.3354 13.8741 80.353 13.0529 82.7661 13.0529C84.1045 13.0529 85.3212 13.3063 86.4162 13.8133C87.5315 14.3203 88.4744 15.03 89.245 15.9426L89.5795 13.4179ZM78.6294 25.9804C79.7853 27.1363 81.2351 27.7143 82.979 27.7143C84.723 27.7143 86.1627 27.1363 87.2983 25.9804C88.4338 24.8246 89.0016 23.3747 89.0016 21.6307C89.0016 19.8867 88.4338 18.4368 87.2983 17.2809C86.1627 16.1251 84.723 15.5471 82.979 15.5471C81.2351 15.5471 79.7853 16.1352 78.6294 17.3114C77.4938 18.4672 76.9261 19.907 76.9261 21.6307C76.9261 23.3544 77.4938 24.8043 78.6294 25.9804Z"
            fill="white" />
        <path
            d="M89.5795 -5.74729H91.6479V10.6784H89.4883L89.2145 8.18409C88.444 9.09663 87.501 9.80638 86.3858 10.3133C85.2907 10.8 84.0842 11.0434 82.7661 11.0434C80.353 11.0434 78.3354 10.2322 76.7131 8.60994C75.0909 6.96738 74.2798 4.91924 74.2798 2.46553C74.2798 0.0118246 75.0909 -2.02617 76.7131 -3.64846C78.3354 -5.29102 80.353 -6.1123 82.7661 -6.1123C84.1045 -6.1123 85.3212 -5.85882 86.4162 -5.35186C87.5315 -4.84489 88.4744 -4.13514 89.245 -3.22261L89.5795 -5.74729ZM78.6294 6.81529C79.7853 7.97116 81.2351 8.5491 82.979 8.5491C84.723 8.5491 86.1627 7.97116 87.2983 6.81529C88.4338 5.65941 89.0016 4.20949 89.0016 2.46553C89.0016 0.721575 88.4338 -0.728342 87.2983 -1.88422C86.1627 -3.0401 84.723 -3.61804 82.979 -3.61804C81.2351 -3.61804 79.7853 -3.02996 78.6294 -1.8538C77.4938 -0.697926 76.9261 0.741853 76.9261 2.46553C76.9261 4.18921 77.4938 5.63913 78.6294 6.81529Z"
            fill="white" />
    </g>
    <path
        d="M17.4829 33.7813H19.5513V50.2067H17.3917L17.1179 47.7124C16.3473 48.625 15.4044 49.3347 14.2891 49.8417C13.1941 50.3283 11.9875 50.5717 10.6694 50.5717C8.2563 50.5717 6.23861 49.7605 4.61634 48.1383C2.99408 46.4957 2.18295 44.4476 2.18295 41.994C2.18295 39.5403 2.99408 37.5023 4.61634 35.8801C6.23861 34.2375 8.2563 33.4162 10.6694 33.4162C12.0078 33.4162 13.2245 33.6697 14.3195 34.1767C15.4348 34.6836 16.3778 35.3934 17.1483 36.3059L17.4829 33.7813ZM6.53264 46.3437C7.6885 47.4995 9.1384 48.0774 10.8823 48.0774C12.6263 48.0774 14.066 47.4995 15.2016 46.3437C16.3372 45.1878 16.905 43.7379 16.905 41.994C16.905 40.25 16.3372 38.8001 15.2016 37.6443C14.066 36.4884 12.6263 35.9105 10.8823 35.9105C9.1384 35.9105 7.6885 36.4985 6.53264 37.6747C5.39706 38.8305 4.82927 40.2703 4.82927 41.994C4.82927 43.7176 5.39706 45.1675 6.53264 46.3437ZM37.1088 33.7813H38.8426V47.8949C38.8426 50.5514 38.1227 52.6401 36.683 54.1609C35.2432 55.6818 33.2762 56.4422 30.782 56.4422C28.7744 56.4422 27.0812 55.9454 25.7023 54.9518C24.3436 53.9581 23.4412 52.5894 22.9951 50.8454H25.5806C25.9456 51.8593 26.5945 52.6502 27.5273 53.218C28.4804 53.7858 29.5653 54.0697 30.782 54.0697C32.4448 54.0697 33.773 53.5424 34.7667 52.488C35.7806 51.4538 36.2875 50.0343 36.2875 48.2295V47.2258C34.7261 48.8683 32.7388 49.6896 30.3257 49.6896C28.0343 49.6896 26.1078 48.9089 24.5464 47.3474C23.0053 45.786 22.2347 43.8596 22.2347 41.5681C22.2347 40.0675 22.5896 38.6987 23.2993 37.4618C24.009 36.2045 24.9824 35.221 26.2194 34.5113C27.4563 33.7813 28.8251 33.4162 30.3257 33.4162C31.6033 33.4162 32.7895 33.6799 33.8846 34.2071C34.9999 34.7141 35.9327 35.4238 36.683 36.3363L37.1088 33.7813ZM30.5995 47.1953C31.6742 47.1953 32.6476 46.952 33.5196 46.4653C34.3915 45.9786 35.0708 45.3095 35.5575 44.4578C36.0442 43.6061 36.2875 42.6429 36.2875 41.5681C36.2875 39.9256 35.7502 38.5771 34.6754 37.5226C33.6007 36.4478 32.242 35.9105 30.5995 35.9105C28.9569 35.9105 27.5882 36.4478 26.4931 37.5226C25.4184 38.5973 24.881 39.9459 24.881 41.5681C24.881 43.1701 25.4184 44.5085 26.4931 45.5832C27.5882 46.658 28.9569 47.1953 30.5995 47.1953ZM58.1829 42.0548C58.1829 42.2779 58.1626 42.5922 58.122 42.9977H44.0996C44.3024 44.5186 44.931 45.7454 45.9855 46.6782C47.0399 47.5908 48.3378 48.047 49.8789 48.047C51.0145 48.047 52.0183 47.8037 52.8902 47.317C53.7825 46.8101 54.4922 46.1003 55.0194 45.1878H57.7266C57.0371 46.8912 56.0029 48.2194 54.624 49.1725C53.2451 50.1053 51.6634 50.5717 49.8789 50.5717C47.5063 50.5717 45.5191 49.7504 43.9171 48.1079C42.3151 46.4653 41.5141 44.4274 41.5141 41.994C41.5141 39.5403 42.3151 37.5023 43.9171 35.8801C45.5191 34.2375 47.5063 33.4162 49.8789 33.4162C52.3326 33.4162 54.33 34.2477 55.8711 35.9105C57.4123 37.5733 58.1829 39.6214 58.1829 42.0548ZM49.8789 35.8801C48.9055 35.8801 48.0133 36.0727 47.2022 36.458C46.4113 36.8433 45.7523 37.4009 45.225 38.1309C44.6978 38.8407 44.3429 39.662 44.1604 40.5948H55.567C55.3845 39.6417 55.0296 38.8103 54.5024 38.1005C53.9751 37.3705 53.3161 36.823 52.5252 36.458C51.7344 36.0727 50.8523 35.8801 49.8789 35.8801ZM69.0369 33.4162C70.9633 33.4162 72.4943 34.0651 73.6299 35.363C74.7858 36.6608 75.3637 38.3337 75.3637 40.3818V50.2067H72.7782V40.9902C72.7782 39.8749 72.6059 38.9319 72.2611 38.1614C71.9367 37.3908 71.4399 36.8027 70.7707 36.3972C70.1218 35.9916 69.3208 35.7888 68.3677 35.7888C66.9685 35.7888 65.7924 36.316 64.8393 37.3705C63.8862 38.4047 63.4097 39.6924 63.4097 41.2335V50.2067H60.8242V33.7813H62.6492L63.1663 36.3667C63.5719 35.7381 64.0687 35.2109 64.6568 34.785C65.2449 34.3389 65.914 34.0043 66.6643 33.7813C67.4146 33.5379 68.2055 33.4162 69.0369 33.4162ZM86.3627 50.5717C84.7607 50.5717 83.3007 50.2067 81.9826 49.4766C80.6848 48.7264 79.6607 47.6922 78.9104 46.3741C78.1804 45.056 77.8154 43.5959 77.8154 41.994C77.8154 39.5403 78.6265 37.5023 80.2488 35.8801C81.8913 34.2375 83.9293 33.4162 86.3627 33.4162C88.3094 33.4162 89.9925 33.9536 91.412 35.0284C92.8518 36.1031 93.8251 37.5327 94.3321 39.3172H91.777C91.2903 38.2628 90.5603 37.4313 89.587 36.823C88.6339 36.2146 87.5591 35.9105 86.3627 35.9105C84.6796 35.9105 83.2703 36.4985 82.1347 37.6747C81.0194 38.8305 80.4617 40.2703 80.4617 41.994C80.4617 43.1295 80.7152 44.1637 81.2222 45.0965C81.7291 46.0091 82.4287 46.7391 83.321 47.2866C84.2335 47.8138 85.2474 48.0774 86.3627 48.0774C87.5591 48.0774 88.6237 47.7733 89.5565 47.1649C90.5096 46.5363 91.2396 45.6745 91.7466 44.5794H94.3625C93.8555 46.4045 92.872 47.8645 91.412 48.9596C89.9722 50.0343 88.2891 50.5717 86.3627 50.5717ZM108.486 33.7813H111.254L103.437 50.8758C102.829 52.2142 102.23 53.2484 101.642 53.9784C101.054 54.7084 100.395 55.2357 99.6651 55.5601C98.9351 55.9049 98.0428 56.0772 96.9884 56.0772H95.4371V53.7351H96.7755C97.8705 53.7351 98.6917 53.512 99.2393 53.0659C99.7868 52.6198 100.395 51.7073 101.064 50.3283L101.642 49.0812L94.3421 33.7813H97.1709L103.011 46.222L108.486 33.7813Z"
        fill="white" />
</svg>