<svg xmlns="http://www.w3.org/2000/svg" width="98" height="52" viewBox="0 0 98 52" fill="none">
    <g clip-path="url(#clip0_1_902)">
        <path
            d="M13.6325 22.9328C13.6325 22.184 13.3852 21.5893 12.8906 21.1488C12.396 20.7083 11.6806 20.4881 10.7489 20.4881H9.00899V25.4965H10.3205C11.3097 25.4965 12.109 25.2939 12.7184 24.893C13.3278 24.4878 13.6325 23.8358 13.6325 22.9372V22.9328ZM25.0743 24.9062C24.6371 25.3776 24.381 26.0119 24.3015 26.8224L28.7528 26.7651C28.7528 26.4391 28.713 26.122 28.638 25.8137C28.5629 25.5053 28.4437 25.2322 28.2803 24.9943C28.1169 24.7521 27.9093 24.5626 27.6532 24.4173C27.3971 24.2719 27.088 24.2014 26.7259 24.2014C26.059 24.2014 25.507 24.4349 25.0699 24.9062H25.0743ZM44.4074 31.1965V25.263C44.2352 25.034 43.9702 24.8137 43.6081 24.6023C43.246 24.3909 42.8486 24.2851 42.4114 24.2851C41.9742 24.2851 41.5635 24.3556 41.1837 24.501C40.804 24.6463 40.4639 24.8798 40.1725 25.2058C39.8766 25.5317 39.6426 25.9502 39.4748 26.4568C39.3025 26.9677 39.2186 27.5932 39.2186 28.3421C39.2186 29.7825 39.5013 30.8441 40.0621 31.5224C40.6229 32.2052 41.3515 32.5444 42.2436 32.5444C42.7956 32.5444 43.2548 32.399 43.6258 32.1127C43.9967 31.8264 44.2573 31.518 44.4118 31.1921L44.4074 31.1965ZM71.7599 31.3374V29.3816L70.8193 29.4081C70.285 29.4301 69.839 29.4874 69.4769 29.5799C69.1147 29.6768 68.8233 29.7957 68.6069 29.9411C68.3861 30.0864 68.2315 30.2582 68.1344 30.4609C68.0372 30.6591 67.9931 30.8705 67.9931 31.0775C67.9931 31.6722 68.1697 32.0819 68.523 32.3021C68.8763 32.5224 69.2781 32.6325 69.733 32.6325C70.1878 32.6325 70.6029 32.4959 70.9739 32.2316C71.3448 31.9629 71.6053 31.6678 71.7599 31.3374ZM86.0632 35.945H82.4686C82.239 36.0595 82.0403 36.2313 81.8681 36.4648C81.6958 36.6938 81.6119 36.9846 81.6119 37.3281C81.6119 37.8083 81.8371 38.2223 82.2832 38.5659C82.7292 38.9139 83.555 39.0857 84.7517 39.0857C85.8733 39.0857 86.708 38.8963 87.2467 38.5263C87.7899 38.1519 88.0592 37.7158 88.0592 37.218C88.0592 36.7775 87.9091 36.456 87.6044 36.2533C87.2997 36.0507 86.7874 35.9494 86.0632 35.9494V35.945ZM85.9484 27.7562C86.2929 27.3994 86.4607 26.8885 86.4607 26.2145C86.4607 25.5405 86.284 25.0296 85.9352 24.6728C85.5819 24.316 85.1403 24.1398 84.6104 24.1398C84.0584 24.1398 83.6124 24.316 83.2679 24.6728C82.9279 25.0296 82.7557 25.5405 82.7557 26.2145C82.7557 26.8885 82.9323 27.3994 83.2856 27.7562C83.6344 28.113 84.0805 28.2892 84.6148 28.2892C85.1668 28.2892 85.6128 28.113 85.9572 27.7562H85.9484ZM92.7402 24.1442H91.4286L89.83 23.8843C90.0376 24.175 90.2142 24.5362 90.36 24.9767C90.5013 25.4172 90.5763 25.8577 90.5763 26.3026C90.5763 27.0338 90.4439 27.6946 90.1745 28.2892C89.9095 28.8839 89.5165 29.4037 89.0043 29.8442C88.492 30.2847 87.8649 30.6282 87.1186 30.8661C86.3768 31.1084 85.5421 31.2273 84.6104 31.2273C84.3984 31.2273 84.1997 31.2185 84.0098 31.2009C83.8199 31.1789 83.63 31.1524 83.4401 31.1128C83.3077 31.1877 83.184 31.2934 83.0692 31.4299C82.9544 31.5665 82.897 31.7383 82.897 31.9497C82.897 32.2008 82.9853 32.399 83.1664 32.5532C83.3474 32.7074 83.7139 32.7823 84.2659 32.7823H87.1496C87.8914 32.7823 88.5759 32.8615 89.203 33.0113C89.83 33.1655 90.3688 33.4122 90.8148 33.7601C91.2608 34.1037 91.6097 34.553 91.857 35.0992C92.1043 35.6455 92.2279 36.3018 92.2279 37.0727C92.2279 37.8215 92.0469 38.5131 91.6848 39.1474C91.3226 39.7817 90.8148 40.3279 90.1568 40.7904C89.4989 41.2485 88.704 41.6097 87.759 41.8696C86.8184 42.1295 85.7762 42.2573 84.6325 42.2573C82.4995 42.2573 80.8259 41.8828 79.6115 41.134C78.3927 40.3852 77.7833 39.3192 77.7833 37.9404C77.7833 37.3237 77.9864 36.7819 78.3971 36.3106C78.8034 35.8393 79.3819 35.4693 80.1237 35.205C79.8941 35.0508 79.638 34.7865 79.3554 34.4121C79.0683 34.0377 78.927 33.5707 78.927 33.0157C78.927 32.3638 79.1213 31.8 79.5143 31.3286C79.9029 30.8573 80.3931 30.4785 80.9849 30.1922C80.7376 30.0556 80.477 29.8706 80.1988 29.6283C79.9206 29.3905 79.6645 29.1085 79.4304 28.7782C79.192 28.4522 78.9977 28.0822 78.8431 27.6681C78.6886 27.2541 78.6135 26.7915 78.6135 26.2718C78.6135 25.5229 78.7636 24.8358 79.0683 24.2103C79.373 23.5848 79.797 23.0518 80.3401 22.598C80.8833 22.1487 81.5192 21.8008 82.2522 21.5629C82.9853 21.3206 83.789 21.2017 84.6634 21.2017C84.9857 21.2017 85.3567 21.2325 85.7762 21.2898C86.1957 21.347 86.5755 21.4219 86.9155 21.5188H92.7358V24.1398L92.7402 24.1442ZM75.9816 35.3459H72.7579L72.387 33.9628H72.2722C71.8924 34.4649 71.3625 34.8702 70.6912 35.1873C70.0156 35.5045 69.2207 35.6631 68.3066 35.6631C67.525 35.6631 66.8449 35.5485 66.2664 35.3195C65.6835 35.0904 65.2066 34.7821 64.8268 34.3989C64.4471 34.0156 64.1556 33.5575 63.9569 33.0333C63.7582 32.5047 63.6566 31.9453 63.6566 31.3462C63.6566 30.5401 63.8332 29.8486 64.1865 29.2759C64.5398 28.6989 65.0123 28.2276 65.6129 27.8663C66.2134 27.5007 66.9156 27.232 67.7237 27.0602C68.5318 26.8885 69.3929 26.8004 70.307 26.8004H71.7334V26.0515C71.7334 25.5317 71.5524 25.1353 71.1902 24.8578C70.8281 24.5803 70.3159 24.4393 69.6491 24.4393C69.0794 24.4393 68.5142 24.5274 67.9666 24.6992C67.4146 24.871 66.8052 25.1485 66.1384 25.5317L64.712 22.739C65.4936 22.2809 66.3724 21.9109 67.3528 21.6334C68.3331 21.3559 69.3355 21.2149 70.3645 21.2149C72.0558 21.2149 73.4159 21.629 74.4448 22.4527C75.4737 23.2764 75.986 24.5935 75.986 26.3995V35.3547L75.9816 35.3459ZM64.4912 20.6026H59.5807V35.3459H55.2442V20.6026H50.4484V17.2064H64.4912V20.6026ZM48.6335 35.3459H45.7234L45.295 33.8482H45.1537C44.8843 34.2711 44.4251 34.6808 43.7671 35.0728C43.1091 35.4649 42.248 35.6631 41.1837 35.6631C40.2873 35.6631 39.4615 35.4957 38.702 35.1609C37.9424 34.8261 37.2844 34.346 36.7324 33.7205C36.1804 33.095 35.7477 32.3374 35.4341 31.4432C35.1206 30.5534 34.9616 29.549 34.9616 28.4346C34.9616 27.3422 35.103 26.3466 35.39 25.4569C35.6726 24.5626 36.0877 23.805 36.6309 23.1795C37.174 22.5584 37.8453 22.0739 38.6446 21.7259C39.4438 21.3823 40.3447 21.2061 41.356 21.2061C41.983 21.2061 42.5792 21.2986 43.14 21.4792C43.7008 21.6598 44.1248 21.8889 44.4074 22.1576V14.7573H48.6335V35.3459ZM33.0672 29.6724H24.222C24.222 29.6724 24.3059 31.2185 25.3348 31.8881C26.059 32.3594 27.0085 32.5488 28.1345 32.5488C30.1924 32.5488 31.2743 31.985 31.6717 31.7691L32.4445 34.7072C31.9323 34.9583 31.2787 35.1785 30.4883 35.368C29.6978 35.5618 28.7351 35.6543 27.5914 35.6543C26.5625 35.6543 25.5865 35.5133 24.668 35.2358C23.7451 34.9583 22.937 34.531 22.2392 33.954C21.5459 33.3769 20.9939 32.6501 20.5832 31.7647C20.1726 30.8837 19.9694 29.8265 19.9694 28.5976C19.9694 27.5051 20.1372 26.5008 20.4684 25.589C20.7996 24.6772 21.2721 23.8931 21.8815 23.2412C22.4909 22.5892 23.2196 22.0871 24.063 21.7303C24.9109 21.3735 25.8471 21.1973 26.8716 21.1973C28.7572 21.1973 30.2586 21.7743 31.3803 22.924C32.5019 24.0781 33.0628 25.7167 33.0628 27.8487V29.6636L33.0672 29.6724ZM14.6923 28.0293L19.0023 35.3415H14.0079L10.8107 28.8046H9.0134V35.3415H4.67692V17.202H11.8131C12.842 17.202 13.7473 17.3518 14.5378 17.6469C15.3282 17.9464 15.9818 18.3517 16.5073 18.8715C17.0284 19.3869 17.4258 19.9947 17.6908 20.6863C17.9557 21.3779 18.0882 22.1179 18.0882 22.902C18.0882 23.6508 17.9778 24.3072 17.7614 24.8754C17.5451 25.4392 17.2624 25.937 16.9224 26.3599C16.578 26.7827 16.207 27.1263 15.8096 27.395C15.4077 27.6637 15.0368 27.8752 14.6968 28.0293H14.6923ZM97.1031 51.2786V0.71875L0.318359 9.71362V42.2969L97.1031 51.2786Z"
            fill="white" />
    </g>
    <defs>
        <clipPath id="clip0_1_902">
            <rect width="96.7882" height="50.6677" fill="white" transform="translate(0.307617 0.71875)" />
        </clipPath>
    </defs>
</svg>