<svg width="100" height="100" viewBox="0 0 100 100" fill="none" xmlns="http://www.w3.org/2000/svg">
<path fill-rule="evenodd" clip-rule="evenodd" d="M44.7778 22.0117L22.5502 44.2119C13.3719 53.3901 13.3719 68.2714 22.5502 77.4495C31.7284 86.6282 46.6091 86.6282 55.7878 77.4495L77.988 55.2214C86.6208 46.0077 86.447 31.5412 77.4527 22.5469C72.8654 17.9601 66.853 15.6669 60.8419 15.6665C55.0668 15.666 49.2925 17.7816 44.7777 22.0116L44.7778 22.0117ZM46.026 73.758H45.1995V73.6791C45.1995 73.4468 45.3459 73.3145 45.6144 73.3145C45.8863 73.3145 46.026 73.4468 46.026 73.6791V73.758ZM45.6144 72.9635C45.074 72.9635 44.7842 73.2391 44.7842 73.7365V74.1586C44.7842 74.599 45.0202 74.9244 45.607 74.9244C46.0117 74.9244 46.2514 74.7925 46.38 74.5812C46.4307 74.5023 46.4197 74.4416 46.3375 74.4023L46.2121 74.3344C46.1263 74.2878 46.0866 74.2983 46.0296 74.3772C45.9543 74.4949 45.8183 74.5665 45.607 74.5665C45.3459 74.5665 45.1995 74.4416 45.1995 74.2089V74.0764H46.2801C46.4051 74.0764 46.4412 74.0157 46.4412 73.9227V73.7045C46.4412 73.2925 46.1833 72.9634 45.6143 72.9634L45.6144 72.9635ZM42.325 73.0173H41.262C41.1799 73.0173 41.1544 73.0425 41.1544 73.1241V74.7602C41.1544 74.8423 41.1799 74.871 41.262 74.871H41.4588C41.5413 74.871 41.5701 74.8423 41.5701 74.7602V73.4002H42.325C42.4075 73.4002 42.4358 73.3715 42.4358 73.289V73.1242C42.4358 73.0426 42.4075 73.0173 42.325 73.0173V73.0173ZM39.0528 73.0173H38.8954C38.806 73.0173 38.7809 73.0384 38.7416 73.11L38.2296 74.0369L37.7107 73.1062C37.6715 73.0347 37.6428 73.0173 37.5533 73.0173H37.41C37.3101 73.0173 37.2881 73.0456 37.2881 73.1351V74.7601C37.2881 74.8496 37.3101 74.871 37.3995 74.871H37.5606C37.6428 74.871 37.6679 74.8459 37.6679 74.7601V73.737L38.0397 74.4128C38.0795 74.4845 38.1077 74.4987 38.1757 74.4987H38.2761C38.3514 74.4987 38.3729 74.4808 38.4121 74.4165L38.7845 73.7456V74.7601C38.7845 74.8496 38.806 74.8709 38.8953 74.8709H39.0634C39.1459 74.8709 39.1746 74.8458 39.1746 74.7601V73.1351C39.1746 73.0456 39.1532 73.0172 39.0528 73.0172L39.0528 73.0173ZM39.8766 74.4306H39.7156C39.6192 74.4306 39.5832 74.4594 39.569 74.5597L39.4796 75.2251C39.4722 75.29 39.4865 75.3076 39.5543 75.3076H39.6334C39.7156 75.3076 39.7406 75.2757 39.7694 75.1964L39.9875 74.5597C40.02 74.4735 39.9875 74.4306 39.8767 74.4306L39.8766 74.4306ZM49.319 73.0173H49.1615C49.0722 73.0173 49.0471 73.0384 49.0077 73.11L48.4962 74.0369L47.9769 73.1062C47.9377 73.0347 47.9088 73.0173 47.8194 73.0173H47.6766C47.5762 73.0173 47.5548 73.0456 47.5548 73.1351V74.7601C47.5548 74.8496 47.5762 74.871 47.6656 74.871H47.8266C47.9088 74.871 47.9339 74.8459 47.9339 74.7601V73.737L48.3063 74.4128C48.3456 74.4845 48.3743 74.4987 48.4423 74.4987H48.5428C48.6175 74.4987 48.639 74.4808 48.6788 74.4165L49.0506 73.7456V74.7601C49.0506 74.8496 49.0721 74.8709 49.1615 74.8709H49.3299C49.4124 74.8709 49.4408 74.8458 49.4408 74.7601V73.1351C49.4408 73.0456 49.4193 73.0172 49.3189 73.0172L49.319 73.0173ZM51.8928 73.0173H51.6998C51.6171 73.0173 51.5885 73.0425 51.5885 73.1241V74.7602C51.5885 74.8423 51.6172 74.871 51.6998 74.871H51.8928C51.975 74.871 52.0037 74.8423 52.0037 74.7602V73.1241C52.0037 73.0425 51.9749 73.0173 51.8928 73.0173ZM50.6903 74.4987H50.2678V73.9228H50.6903C50.8728 73.9228 50.9838 74.0336 50.9838 74.2052C50.9838 74.3772 50.8728 74.4987 50.6903 74.4987ZM50.7405 73.5467H50.2678V73.1241C50.2678 73.0424 50.2395 73.0172 50.1568 73.0172H49.9602C49.8775 73.0172 49.8529 73.0424 49.8529 73.1241V74.7601C49.8529 74.8423 49.8775 74.871 49.9602 74.871H50.7405C51.159 74.871 51.4168 74.6205 51.4168 74.2052C51.4168 73.7935 51.159 73.5467 50.7405 73.5467ZM43.8495 74.4845H43.1226C43.2083 74.3306 43.2695 74.0979 43.2695 73.6759V73.4002H43.8495V74.4845ZM44.4291 74.4845H44.2644V73.1241C44.2644 73.0424 44.2356 73.0172 44.1534 73.0172H42.9761C42.8935 73.0172 42.8684 73.0424 42.8684 73.1241V73.6471C42.8684 74.2302 42.7576 74.3987 42.6471 74.4845H42.5682C42.4855 74.4845 42.4604 74.5133 42.4604 74.5991V75.2575C42.4604 75.3397 42.4855 75.3686 42.5682 75.3686H42.7502C42.8329 75.3686 42.8612 75.3397 42.8612 75.2575V74.871H44.1358V75.2575C44.1358 75.3397 44.1678 75.3686 44.2503 75.3686H44.4292C44.5113 75.3686 44.54 75.3397 44.54 75.2575V74.5991C44.54 74.5133 44.5113 74.4845 44.4292 74.4845H44.4291ZM29.8331 74.2089C29.8331 74.4237 29.6862 74.5488 29.4215 74.5488C29.1604 74.5488 29.0135 74.4237 29.0135 74.2089V73.679C29.0135 73.4608 29.1604 73.3391 29.4215 73.3391C29.6861 73.3391 29.8331 73.4609 29.8331 73.679V74.2089ZM29.4215 72.9634C28.8916 72.9634 28.5986 73.2355 28.5986 73.679V74.2088C28.5986 74.6528 28.8916 74.9243 29.4215 74.9243C29.9581 74.9243 30.2483 74.6528 30.2483 74.2088V73.679C30.2483 73.2354 29.958 72.9634 29.4215 72.9634ZM27.6576 74.4844H26.9311C27.0169 74.3306 27.0779 74.0979 27.0779 73.6758V73.4001H27.6576V74.4844ZM28.2377 74.4844H28.0729V73.124C28.0729 73.0424 28.0445 73.0171 27.962 73.0171H26.7846C26.7024 73.0171 26.677 73.0424 26.677 73.124V73.647C26.677 74.2302 26.5659 74.3986 26.4551 74.4844H26.3766C26.2941 74.4844 26.2693 74.5132 26.2693 74.599V75.2575C26.2693 75.3396 26.2941 75.3685 26.3766 75.3685H26.5587C26.6412 75.3685 26.6701 75.3396 26.6701 75.2575V74.871H27.9441V75.2575C27.9441 75.3396 27.9761 75.3685 28.0588 75.3685H28.2377C28.3198 75.3685 28.3485 75.3396 28.3485 75.2575V74.599C28.3485 74.5132 28.3198 74.4844 28.2377 74.4844ZM34.9926 73.0172H33.6431C33.561 73.0172 33.5323 73.0424 33.5323 73.1241V73.2889C33.5323 73.3714 33.561 73.4001 33.6431 73.4001H34.1124V74.7601C34.1124 74.8422 34.1406 74.8709 34.2232 74.8709H34.4162C34.4983 74.8709 34.527 74.8422 34.527 74.7601V73.4001H34.9926C35.0748 73.4001 35.1035 73.3714 35.1035 73.2889V73.1241C35.1035 73.0424 35.0747 73.0172 34.9926 73.0172ZM36.4844 74.5023C36.4844 74.5346 36.4734 74.5415 36.4447 74.5525C36.3804 74.5666 36.2694 74.5812 36.0869 74.5812C35.8076 74.5812 35.7506 74.4882 35.7506 74.3412C35.7506 74.1947 35.8222 74.1089 36.0943 74.1089C36.1983 74.1089 36.3222 74.1167 36.4097 74.1223C36.4396 74.1242 36.4652 74.1258 36.4844 74.1267V74.5023ZM36.1334 72.9635C35.7612 72.9635 35.5142 73.1031 35.3924 73.3353C35.3494 73.418 35.3745 73.4608 35.4535 73.4965L35.5968 73.5575C35.679 73.5895 35.7004 73.579 35.7506 73.5037C35.8258 73.3893 35.9473 73.3322 36.1262 73.3322C36.3945 73.3322 36.4844 73.4607 36.4844 73.6862V73.7866C36.4694 73.7858 36.4495 73.7842 36.426 73.7824L36.4258 73.7824C36.3533 73.7767 36.2461 73.7684 36.1408 73.7684C35.568 73.7684 35.3281 73.9153 35.3281 74.3448C35.3281 74.7171 35.4927 74.9243 36.1262 74.9243C36.4202 74.9243 36.6382 74.8888 36.7706 74.8317C36.8706 74.7887 36.8993 74.7528 36.8993 74.6276V73.7004C36.8993 73.2781 36.7204 72.9633 36.1335 72.9633L36.1334 72.9635ZM32.3758 73.0173H32.2183C32.1284 73.0173 32.1039 73.0384 32.0641 73.11L31.5525 74.0369L31.0336 73.1062C30.9944 73.0347 30.9657 73.0173 30.8762 73.0173H30.7329C30.6325 73.0173 30.6111 73.0456 30.6111 73.1351V74.7601C30.6111 74.8496 30.6325 74.871 30.7224 74.871H30.8835C30.9657 74.871 30.9908 74.8459 30.9908 74.7601V73.737L31.3626 74.4128C31.4018 74.4845 31.4306 74.4987 31.4986 74.4987H31.599C31.6739 74.4987 31.6958 74.4808 31.735 74.4165L32.1074 73.7456V74.7601C32.1074 74.8496 32.1283 74.8709 32.2182 74.8709H32.3863C32.4688 74.8709 32.4975 74.8458 32.4975 74.7601V73.1351C32.4975 73.0456 32.4757 73.0172 32.3757 73.0172L32.3758 73.0173ZM51.8602 64.3193C52.7885 64.3189 53.6172 63.9465 54.2269 63.3391C54.8344 62.7295 55.2067 61.9006 55.2072 60.9725C55.2067 60.0438 54.8344 59.2155 54.2269 58.6053C53.6172 57.998 52.7885 57.626 51.8602 57.6256C50.9321 57.626 50.1033 57.998 49.4936 58.6053C48.8857 59.215 48.5139 60.0438 48.5129 60.9725C48.5138 61.9006 48.8857 62.7295 49.4936 63.3391C50.1033 63.9465 50.9321 64.3189 51.8602 64.3193ZM55.2231 56.1834C55.3144 55.5815 55.8328 55.1197 56.4603 55.1197C57.1521 55.1197 57.713 55.6806 57.713 56.3724V67.1405C57.7134 68.0144 57.3552 68.8171 56.782 69.3885C56.2102 69.9621 55.4079 70.3204 54.534 70.3199H49.4082C48.716 70.3199 48.155 69.7591 48.155 69.0668C48.155 68.3749 48.716 67.814 49.4082 67.814H54.534C54.7238 67.8136 54.884 67.7406 55.01 67.6169C55.1337 67.4909 55.2066 67.3304 55.2071 67.1405V65.7723C54.2588 66.4345 53.1015 66.8256 51.8602 66.8251C50.2474 66.8256 48.7766 66.168 47.7215 65.1111C46.6641 64.0555 46.0064 62.5846 46.0074 60.9724C46.0065 59.3597 46.6641 57.8888 47.7215 56.8337C48.7766 55.7764 50.2475 55.1188 51.8602 55.1197C53.1084 55.1188 54.2716 55.5144 55.2231 56.1834ZM39.2064 57.6255C38.2782 57.6259 37.4494 57.9983 36.8398 58.6058C36.2319 59.2155 35.8601 60.0442 35.8591 60.9728C35.86 61.9011 36.2319 62.7295 36.8398 63.3391C37.4494 63.9465 38.2781 64.3189 39.2064 64.3193C40.1346 64.3189 40.9634 63.9465 41.573 63.3391C42.181 62.7294 42.5528 61.9011 42.5534 60.9728C42.5528 60.0442 42.1809 59.2155 41.573 58.6058C40.9634 57.9983 40.1346 57.6259 39.2064 57.6255ZM43.806 53.7726H36.5327C36.3429 53.7735 36.1822 53.846 36.0567 53.9701C35.9326 54.0961 35.8601 54.2562 35.8592 54.4461C35.8601 54.6364 35.9326 54.7965 36.0567 54.9225C36.1822 55.0462 36.3428 55.1192 36.5327 55.1197H39.206H39.2065C40.8189 55.1192 42.2896 55.7768 43.3451 56.8342C44.4025 57.8893 45.0597 59.3601 45.0593 60.9728C45.0596 62.5847 44.4021 64.0555 43.3451 65.1111C42.2896 66.1684 40.8189 66.826 39.2065 66.8251C37.5941 66.826 36.1233 66.1685 35.0678 65.1111C34.0104 64.056 33.3532 62.5847 33.3537 60.9728C33.3532 59.4979 33.9041 58.142 34.8071 57.1139C34.6183 56.9916 34.4421 56.8519 34.2847 56.6945C33.711 56.1233 33.3532 55.3205 33.3537 54.4461C33.3532 53.5722 33.711 52.7695 34.2847 52.1981C34.8561 51.6249 35.6587 51.2662 36.5327 51.2671H43.806C44.4983 51.2671 45.0592 51.828 45.0592 52.5198C45.0592 53.2116 44.4983 53.7726 43.806 53.7726ZM26.5527 64.3193C27.4808 64.3189 28.3097 63.9465 28.9193 63.3391C29.5272 62.7295 29.8991 61.9006 29.8995 60.9725C29.8991 60.0438 29.5272 59.215 28.9193 58.6053C28.3097 57.998 27.4808 57.626 26.5527 57.6256C25.6245 57.626 24.7957 57.998 24.1861 58.6053C23.5782 59.2155 23.2063 60.0438 23.2053 60.9725C23.2063 61.9006 23.5782 62.7295 24.1861 63.3391C24.7957 63.9465 25.6244 64.3189 26.5527 64.3193ZM22.414 56.8337C23.4695 55.7764 24.9403 55.1188 26.5527 55.1197H26.5528C28.165 55.1188 29.6358 55.7763 30.6914 56.8337C31.7487 57.8888 32.4059 59.3597 32.4054 60.9724V65.5725C32.4054 66.2643 31.8446 66.8251 31.1523 66.8251C30.5249 66.8251 30.0068 66.3632 29.9156 65.7613C28.9641 66.4299 27.8013 66.8256 26.5527 66.8251C24.9403 66.826 23.4695 66.1685 22.414 65.1111C21.3566 64.0555 20.6994 62.5846 20.7 60.9724C20.6994 59.3597 21.3566 57.8888 22.414 56.8337Z" fill="white"/>
</svg>
