<svg width="100" height="100" viewBox="0 0 100 100" fill="none" xmlns="http://www.w3.org/2000/svg">
<g clip-path="url(#clip0_157_6901)">
<path d="M96.0534 44.562L92.7069 48.3784V44.562H90.2852V54.1975H92.7069V50.1414L96.289 54.1975H99.4174L95.0115 49.1482L99.097 44.562H96.0534Z" fill="white"/>
<path d="M86.0147 48.1565H82.6668V44.562H80.2451V54.1975H82.6668V50.3975H86.0147V54.1975H88.4364V44.562H86.0147V48.1565Z" fill="white"/>
<path d="M15.7163 49.7825C15.6585 51.5783 15.4296 51.9386 14.4375 51.9386V54.2016H14.8077C17.2833 54.2016 17.8783 52.9002 17.9698 50.0085L18.0708 46.8044H20.3915V54.2016H22.8146V44.562H15.8846L15.7163 49.7825Z" fill="white"/>
<path d="M28.6474 52.0756H27.0832V49.6277H28.6474C29.4888 49.6277 29.9936 50.0044 29.9936 50.8085C29.9936 51.6824 29.5049 52.0756 28.6474 52.0756ZM28.8332 47.4894H27.0832V44.562H24.6602V54.2016H28.8655C31.512 54.2016 32.4544 52.4523 32.4544 50.8085C32.4544 48.6866 31.1365 47.4894 28.8332 47.4894Z" fill="white"/>
<path d="M40.3357 52.0898V46.6488C41.6818 46.8365 42.5218 47.8638 42.5218 49.3693C42.5218 50.8748 41.6818 51.9021 40.3357 52.0898ZM37.9126 52.0898C36.5665 51.9021 35.7265 50.8748 35.7265 49.3693C35.7265 47.8638 36.5678 46.8365 37.9126 46.6488V52.0898ZM40.3357 44.3379V40.7612H37.9126V44.3365C35.1463 44.5776 33.2725 46.5803 33.2725 49.3693C33.2725 52.1583 35.1396 54.1788 37.914 54.4172V58.0459H40.337V54.4172C43.1115 54.1994 44.9732 52.1761 44.9732 49.3693C44.9732 46.5625 43.1115 44.5598 40.3357 44.3365V44.3379Z" fill="white"/>
<path d="M51.6387 50.6009C51.6387 51.7146 50.8646 52.3474 49.855 52.3474C48.9814 52.3474 48.2921 52.0214 48.2921 51.0639C48.2921 50.1064 49.0487 49.968 49.7042 49.968H51.6387V50.6009ZM54.0617 51.2351V48.0009C54.0617 45.6379 52.581 44.1489 50.0919 44.1489C47.5194 44.1489 46.1571 45.7242 46.0387 47.3667H48.4954C48.5775 47.0078 48.9477 46.3914 50.0892 46.3914C51.0315 46.3914 51.6373 46.8366 51.6373 48.0009H49.2331C47.0793 48.0009 45.8018 49.1475 45.8018 51.0639C45.8018 53.0666 47.2004 54.4351 49.2169 54.4351C50.6977 54.4351 51.5148 53.7241 51.8742 53.1858C52.1933 53.8364 52.9 54.1953 53.8248 54.1953H54.6661V51.9707C54.2286 51.9707 54.0604 51.7652 54.0604 51.2351H54.0617Z" fill="white"/>
<path d="M64.3186 51.7652H61.7287V48.2734H64.3186C65.6648 48.2734 66.4213 48.9077 66.4213 50.02C66.4213 51.1665 65.6634 51.7652 64.3186 51.7652ZM64.4358 45.9296H61.7287V43.2078H68.0017V40.7612H59.1885V54.1994H64.4385C67.3488 54.1994 69.0154 52.7281 69.0154 50.0241C69.0113 47.4693 67.3461 45.9296 64.4358 45.9296Z" fill="white"/>
<path d="M75.8561 50.6009C75.8561 51.7146 75.0834 52.3474 74.0738 52.3474C73.1988 52.3474 72.5095 52.0214 72.5095 51.0639C72.5095 50.1064 73.2661 49.968 73.923 49.968H75.8561V50.6009ZM78.2791 51.2351V48.0009C78.2791 45.6379 76.7984 44.1489 74.3107 44.1489C71.7382 44.1489 70.3759 45.7242 70.2574 47.3667H72.7128C72.7976 47.0078 73.1665 46.3914 74.3107 46.3914C75.253 46.3914 75.8574 46.8366 75.8574 48.0009H73.4518C71.298 48.0009 70.0205 49.1475 70.0205 51.0639C70.0205 53.0666 71.4192 54.4351 73.4343 54.4351C74.9151 54.4351 75.7336 53.7241 76.0916 53.1858C76.412 53.8364 77.1174 54.1953 78.0435 54.1953H78.8836V51.9707C78.4461 51.9707 78.2778 51.7652 78.2778 51.2351H78.2791Z" fill="white"/>
<path d="M14.2869 58.3022H1.33691V61.0406H14.2869V58.3022Z" fill="white"/>
<path d="M5.96258 49.1133L7.77854 43.6202H7.84584L9.56084 49.1133H5.96258ZM10.1653 42.6065C9.79641 41.486 9.37103 40.6011 7.91315 40.6011C6.45527 40.6011 6.00162 41.4819 5.61258 42.6065L1.60645 54.2008H4.26374L5.18855 51.4461H10.3039L11.1587 54.2008H13.9856L10.1653 42.6065Z" fill="white"/>
</g>
<defs>
<clipPath id="clip0_157_6901">
<rect width="100" height="100" fill="white"/>
</clipPath>
</defs>
</svg>
