<svg width="100" height="100" viewBox="0 0 100 100" fill="none" xmlns="http://www.w3.org/2000/svg">
<path fill-rule="evenodd" clip-rule="evenodd" d="M35.6043 44.0161H38.3812C38.3812 44.7973 38.3812 45.5807 38.3812 46.3619H40.5109V48.6869H38.3812C38.3812 50.0504 38.3812 51.414 38.3812 52.7775C38.3713 52.8903 38.3887 53.0038 38.4318 53.1081C38.4749 53.2125 38.5425 53.3045 38.6287 53.3761C38.8635 53.4919 39.1296 53.5245 39.3847 53.4686C39.7713 53.4192 40.1429 53.286 40.4746 53.078C40.4746 53.8484 40.4746 54.6187 40.4746 55.3891C39.8833 55.7525 39.208 55.9502 38.5174 55.9622C37.9326 56.0063 37.346 55.9056 36.8077 55.6687C36.4348 55.4872 36.1308 55.186 35.9426 54.8113C35.7092 54.304 35.5935 53.749 35.6043 53.1889V48.6869H34.469C34.469 47.9165 34.469 47.1423 34.469 46.3642H35.6043C35.6043 45.583 35.6043 44.8019 35.6043 44.0184V44.0161ZM9.8474 46.6392C10.5193 46.3366 11.247 46.1837 11.9817 46.1909C12.5991 46.1887 13.2127 46.2895 13.7981 46.489C14.5457 46.7624 15.208 47.2339 15.7167 47.8549C15.1377 48.4858 14.5588 49.1144 13.9843 49.7477C13.6461 49.3449 13.22 49.0283 12.7401 48.8232C12.4775 48.7184 12.1966 48.6692 11.9146 48.6789C11.6327 48.6885 11.3557 48.7566 11.1005 48.8791C10.8454 49.0016 10.6176 49.1758 10.431 49.3912C10.2444 49.6065 10.103 49.8584 10.0154 50.1313C9.87065 50.5554 9.82403 51.0078 9.87919 51.4533C9.93952 52.0318 10.2071 52.5674 10.6307 52.9578C10.8645 53.1608 11.1382 53.3106 11.4334 53.3971C11.7287 53.4836 12.0387 53.5048 12.3427 53.4593C13.0239 53.3807 13.6165 52.9439 14.0888 52.4563C14.3862 52.7267 14.6541 53.0294 14.9379 53.316C15.2217 53.6026 15.4897 53.8822 15.7621 54.1758C15.4303 54.5744 15.0487 54.9272 14.6269 55.225C14.1108 55.5674 13.5299 55.7958 12.9217 55.8952C11.9891 56.0669 11.0287 55.9872 10.1358 55.6641C9.17913 55.2985 8.36594 54.625 7.81982 53.7459C7.31212 52.9058 7.05745 51.9327 7.08732 50.9469C7.11718 49.9611 7.43026 49.0058 7.98784 48.1992C8.46682 47.5243 9.11107 46.9889 9.85648 46.6462L9.8474 46.6392ZM19.0771 46.3457C18.3941 46.5454 17.7701 46.9138 17.2607 47.4181C16.5298 48.1361 16.0336 49.0656 15.8393 50.0805C15.5915 51.3501 15.8165 52.6681 16.4705 53.7782C17.0301 54.7347 17.9133 55.4505 18.9545 55.7912C19.6368 56.0128 20.3681 56.0249 21.057 55.8259C21.7011 55.6224 22.2705 55.2272 22.6918 54.6911C22.6918 55.0494 22.6918 55.4076 22.6918 55.7658H25.48V46.3619H22.7054C22.7054 46.7224 22.7054 47.083 22.7054 47.4435C22.2919 46.9274 21.7396 46.5451 21.116 46.3434C20.4543 46.1447 19.7502 46.1447 19.0885 46.3434L19.0771 46.3457ZM20.3554 48.703C20.7999 48.6406 21.2525 48.7214 21.6496 48.9342C21.9056 49.0803 22.1309 49.2763 22.3124 49.5111C22.4939 49.7458 22.6283 50.0147 22.7077 50.3023C22.8643 50.8448 22.8643 51.4216 22.7077 51.964C22.5608 52.4843 22.2247 52.9281 21.7677 53.2051C21.5174 53.3519 21.2402 53.445 20.9532 53.4786C20.6662 53.5122 20.3755 53.4856 20.0989 53.4005C19.8224 53.3155 19.5659 53.1736 19.3453 52.9838C19.1246 52.794 18.9445 52.5602 18.816 52.2968C18.5673 51.7862 18.4762 51.211 18.5549 50.6467C18.6163 50.065 18.8951 49.5296 19.3337 49.1514C19.6267 48.9094 19.9808 48.7564 20.3554 48.71V48.703ZM29.4966 46.2556C30.1405 46.1552 30.7974 46.1827 31.4311 46.3365C32.2568 46.5152 33.0395 46.8593 33.7334 47.3487L32.5777 49.4911C31.9024 49.0418 31.1305 48.7651 30.3276 48.6846C30.0297 48.6398 29.7254 48.6915 29.458 48.8325C29.4132 48.8665 29.3762 48.91 29.3493 48.9599C29.3225 49.0098 29.3064 49.065 29.3024 49.1217C29.2983 49.1785 29.3062 49.2355 29.3256 49.2888C29.345 49.3422 29.3754 49.3907 29.4148 49.431C29.632 49.6141 29.884 49.7495 30.155 49.8286C30.8566 50.0735 31.5809 50.2538 32.2598 50.5635C32.7386 50.7635 33.1704 51.0643 33.5268 51.4463C33.8502 51.8117 34.0458 52.2757 34.0831 52.766C34.1418 53.3261 33.9964 53.8887 33.6744 54.3468C33.1601 55.0724 32.4093 55.5884 31.556 55.8028C30.7627 56.0061 29.9347 56.0251 29.1333 55.8582C28.5124 55.7375 27.9121 55.5258 27.3509 55.2296C26.9516 55.0162 26.5717 54.7672 26.2157 54.4854C26.4155 54.1342 26.6539 53.806 26.8673 53.4616C27.0807 53.1173 27.2805 52.8191 27.4917 52.5002C27.5099 52.454 27.5598 52.4632 27.5893 52.5002C28.1425 52.9004 28.7627 53.1949 29.4194 53.3692C29.875 53.4893 30.3491 53.5192 30.8158 53.457C30.9689 53.4384 31.1129 53.3732 31.229 53.2698C31.2813 53.2019 31.3097 53.1181 31.3097 53.0318C31.3097 52.9455 31.2813 52.8616 31.229 52.7937C31.0894 52.6254 30.9072 52.4991 30.7022 52.4286C30.2004 52.2229 29.6691 52.1027 29.1537 51.9317C28.5303 51.7576 27.9433 51.4694 27.4213 51.0812C27.0333 50.7747 26.751 50.3506 26.6153 49.8702C26.4459 49.2679 26.4893 48.6244 26.7379 48.0513C26.9791 47.5613 27.3544 47.1527 27.8187 46.875C28.3338 46.5609 28.9034 46.3506 29.4966 46.2556ZM45.547 46.2117C46.8733 46.102 48.1903 46.5157 49.2252 47.3672C50.1051 48.1099 50.6855 49.1564 50.8555 50.307C51.0529 51.5823 50.746 52.8853 50.0018 53.9308C49.2821 54.9169 48.2317 55.5995 47.0501 55.849C46.3612 56.0055 45.6488 56.022 44.9536 55.8975C44.2585 55.7729 43.5944 55.5099 42.9994 55.1233C42.0851 54.5154 41.4093 53.6002 41.0899 52.5372C40.7209 51.3306 40.8288 50.0252 41.3906 48.8983C41.9524 47.7715 42.9238 46.9121 44.0984 46.5029C44.5632 46.3373 45.0485 46.2385 45.5402 46.2094L45.547 46.2117ZM45.5606 48.7054C45.3041 48.7385 45.0552 48.8167 44.8249 48.9365C44.3711 49.177 44.0202 49.5793 43.8395 50.0666C43.6549 50.5751 43.6156 51.1264 43.726 51.6566C43.787 51.9727 43.9123 52.2722 44.0937 52.5361C44.2751 52.8 44.5087 53.0223 44.7795 53.1889C45.071 53.3582 45.395 53.4614 45.7293 53.4913C46.0636 53.5212 46.4003 53.4772 46.7163 53.3622C47.1585 53.2037 47.5336 52.8953 47.7789 52.4886C48.0892 51.9442 48.2047 51.3073 48.1059 50.686C48.0624 50.3668 47.9549 50.0601 47.7901 49.785C47.6252 49.5099 47.4066 49.2722 47.1477 49.0867C46.6815 48.7666 46.1151 48.634 45.5583 48.7146L45.5606 48.7054ZM55.8506 46.4289C56.3274 46.2347 56.8419 46.1555 57.3537 46.1978C57.3537 47.1477 57.3537 48.0998 57.3537 49.052C56.7383 49.0001 56.1218 49.1387 55.585 49.4495C55.1472 49.7528 54.8262 50.2012 54.6768 50.7183C54.5361 51.1773 54.4702 51.6567 54.4815 52.1374V55.775H51.6933C51.6933 52.6366 51.6933 49.4988 51.6933 46.3619H54.4747V47.774C54.771 47.1798 55.2559 46.705 55.8506 46.4266V46.4289ZM60.9662 46.3457C61.684 46.1276 62.4514 46.1478 63.1572 46.4035C63.7158 46.6192 64.2096 46.9792 64.5899 47.4481C64.5899 47.0853 64.5899 46.7247 64.5899 46.3642H67.36V55.775H64.5899C64.5899 55.4168 64.5899 55.0609 64.5899 54.7027C64.1822 55.2169 63.6387 55.6018 63.0233 55.812C62.3054 56.0367 61.5367 56.0295 60.8231 55.7912C59.7772 55.4415 58.894 54.7128 58.3414 53.7436C57.6721 52.5833 57.4688 51.2048 57.7738 49.8956C58.0191 48.8328 58.5968 47.8799 59.4199 47.18C59.8741 46.7981 60.4003 46.515 60.9662 46.348V46.3457ZM62.2422 48.7054C61.9734 48.7382 61.7139 48.8265 61.4797 48.9648C61.2455 49.103 61.0414 49.2884 60.8799 49.5096C60.5019 50.0693 60.3439 50.753 60.4371 51.4255C60.4977 52.0366 60.7862 52.6007 61.2432 53.0017C61.4665 53.1893 61.7258 53.3274 62.0046 53.407C62.2834 53.4866 62.5755 53.506 62.862 53.4639C63.142 53.4321 63.4121 53.34 63.6544 53.1937C63.8967 53.0475 64.1057 52.8505 64.2675 52.6158C64.621 52.0708 64.7701 51.4145 64.6875 50.7669C64.6582 50.4382 64.5624 50.1192 64.4061 49.8301C64.2498 49.5409 64.0364 49.2878 63.7793 49.0867C63.3381 48.758 62.7881 48.6178 62.2467 48.6961L62.2422 48.7054ZM72.5822 46.4474C73.2461 46.1743 73.9773 46.1194 74.6734 46.2902C75.3013 46.4306 75.8602 46.7924 76.2514 47.3118C76.2984 47.3864 76.3508 47.4575 76.408 47.5244C76.4875 47.492 76.5352 47.4065 76.601 47.351C77.0401 46.8994 77.5799 46.5624 78.1745 46.3688C78.6815 46.2159 79.2125 46.1634 79.7389 46.214C80.3202 46.2494 80.8795 46.4531 81.351 46.801C81.7447 47.1161 82.0449 47.5361 82.2183 48.0143C82.4073 48.5533 82.4996 49.1224 82.4908 49.6945C82.4908 51.7221 82.4908 53.7505 82.4908 55.7797H79.7207V50.7761C79.7207 50.2284 79.7207 49.6206 79.3938 49.1583C79.2955 49.0267 79.1711 48.9175 79.0288 48.8379C78.8864 48.7583 78.7292 48.71 78.5673 48.6961C78.2085 48.641 77.842 48.7137 77.5297 48.9018C77.0642 49.2046 76.9076 49.8008 76.8962 50.3324C76.8962 52.1466 76.8962 53.9585 76.8962 55.7704C75.9698 55.7704 75.0457 55.7704 74.1216 55.7704V50.9171C74.1216 50.4086 74.1466 49.8748 73.9263 49.4056C73.8571 49.2509 73.7563 49.113 73.6307 49.001C73.505 48.889 73.3573 48.8056 73.1975 48.7562C72.9115 48.6751 72.6101 48.6687 72.3211 48.7377C72.1617 48.7738 72.0112 48.8426 71.8788 48.9399C71.7464 49.0373 71.635 49.1612 71.5514 49.3039C71.362 49.6648 71.274 50.0718 71.2971 50.4803C71.2971 52.2491 71.2971 54.0163 71.2971 55.782H68.5338C68.5338 52.6435 68.5338 49.5058 68.5338 46.3688C69.4557 46.3688 70.3775 46.3688 71.2993 46.3688C71.2993 46.7247 71.2993 47.0806 71.2993 47.4366C71.6483 47.0164 72.0851 46.6809 72.5776 46.4543L72.5822 46.4474ZM86.5028 46.348C87.2964 46.1041 88.1493 46.1548 88.9096 46.4913C89.3857 46.7111 89.8048 47.0411 90.1334 47.455V46.3619H92.9148V55.775H90.1447C90.1447 55.4191 90.1447 55.0609 90.1447 54.705C89.7756 55.1639 89.2995 55.5215 88.7597 55.745C87.9608 56.0476 87.0824 56.0525 86.2803 55.7589C85.4522 55.4629 84.7291 54.9231 84.2028 54.2081C83.5678 53.3408 83.213 52.2943 83.1874 51.213C83.1618 50.1317 83.4666 49.0689 84.0597 48.1715C84.6402 47.2947 85.5011 46.6495 86.496 46.3457L86.5028 46.348ZM87.7789 48.7054C87.3005 48.7656 86.8595 48.9995 86.5369 49.364C86.2153 49.7412 86.0184 50.2117 85.9738 50.7091C85.8843 51.3555 86.0297 52.0129 86.3825 52.558C86.5565 52.819 86.785 53.0377 87.0517 53.1983C87.3183 53.3589 87.6166 53.4576 87.9251 53.4872C88.2337 53.5168 88.5448 53.4766 88.8363 53.3695C89.1277 53.2624 89.3924 53.091 89.6112 52.8677C89.8624 52.5761 90.0471 52.2316 90.1519 51.8587C90.2567 51.4859 90.2791 51.0941 90.2174 50.7114C90.1823 50.3854 90.0811 50.0704 89.92 49.7863C89.759 49.5022 89.5417 49.2553 89.282 49.0613C88.843 48.7537 88.3063 48.6258 87.7789 48.703V48.7054Z" fill="white"/>
</svg>
