<svg width="100" height="100" viewBox="0 0 100 100" fill="none" xmlns="http://www.w3.org/2000/svg">
<path d="M33.562 51.8022H39.0198V53.5855H36.4235V66.1156H33.562V51.8022Z" fill="white" fill-opacity="0.9"/>
<path d="M42.2568 60.7422L42.7472 53.5855H42.9114L43.4018 60.7422H42.2568ZM39.0879 66.1156H41.8895L42.1547 62.3143H43.5039L43.7702 66.1156H46.5707L45.0784 51.8022H40.5802L39.0879 66.1156Z" fill="white" fill-opacity="0.9"/>
<path d="M50.6693 61.1059V63.8043C50.6693 64.168 50.9509 64.2736 51.1151 64.2736C51.385 64.2736 51.5727 64.0507 51.5727 63.8043V60.4724C51.5727 60.0265 51.4906 59.5338 50.4229 59.5338H49.2614V57.9617H50.4699C51.2794 57.9617 51.5727 57.774 51.5727 56.894V54.0548C51.5727 53.8085 51.385 53.5855 51.1151 53.5855C50.9509 53.5855 50.6693 53.6794 50.6693 54.0548V56.3896H47.8066V54.3599C47.8066 53.3626 47.924 51.8022 49.9302 51.8022H52.3001C54.3063 51.8022 54.4354 53.3626 54.4354 54.3599V56.6477C54.4354 58.208 53.3443 58.6304 52.4878 58.5952V58.736C54.4119 58.6891 54.4354 60.1673 54.4354 60.6718V63.558C54.4354 64.5669 54.3063 66.1156 52.3001 66.1156H49.9302C47.924 66.1156 47.8066 64.5669 47.8066 63.558V61.1059H50.6693Z" fill="white" fill-opacity="0.9"/>
<path d="M56.3115 51.8022H62.9402V66.1156H60.0776V53.5855H59.1742V66.1156H56.3115V51.8022Z" fill="white" fill-opacity="0.9"/>
<path d="M67.681 59.6746V53.5855H68.0565C68.3615 53.5855 68.5844 53.8437 68.5844 54.3012V58.9589C68.5844 59.4165 68.3615 59.6746 68.0565 59.6746H67.681ZM64.8184 66.1156H67.681V61.2467H69.3235C71.318 61.2467 71.4471 59.698 71.4471 58.6891V54.3599C71.4471 53.3626 71.318 51.8022 69.3235 51.8022H64.8184V66.1156Z" fill="white" fill-opacity="0.9"/>
<path d="M77.0893 63.8043C77.0893 64.0507 76.9016 64.2736 76.6317 64.2736C76.4675 64.2736 76.1859 64.168 76.1859 63.8043V54.0548C76.1859 53.6794 76.4675 53.5855 76.6317 53.5855C76.9016 53.5855 77.0893 53.8085 77.0893 54.0548V63.8043ZM73.3232 63.558C73.3232 64.5669 73.4523 66.1156 75.4468 66.1156H77.8284C79.8229 66.1156 79.952 64.5669 79.952 63.558V54.3599C79.952 53.3626 79.8229 51.8022 77.8284 51.8022H75.4468C73.4523 51.8022 73.3232 53.3626 73.3232 54.3599V63.558Z" fill="white" fill-opacity="0.9"/>
<path d="M89.2678 51.8022H92.9987V66.1156H90.136V57.1404H90.0304L88.5522 66.1156H86.2644L84.7978 57.1404H84.6923V66.1156H81.8296V51.8022H85.5487L87.4141 61.8685L89.2678 51.8022Z" fill="white" fill-opacity="0.9"/>
<path d="M29.8535 32.2337C28.9771 28.3972 26.7809 25.2765 26.4782 24.772C25.9995 25.4876 24.2479 28.2447 23.3574 31.2951C22.3848 34.7092 22.2417 37.7361 22.5772 40.7043C22.9104 43.6843 24.1693 46.7465 24.1693 46.7465C24.838 48.342 25.8399 50.0667 26.4923 50.9114C27.4484 49.6678 29.6459 45.9604 30.3311 41.1267C30.7124 38.4283 30.7288 36.0701 29.8535 32.2337ZM26.4782 49.9494C26.0476 49.1398 25.3789 47.6029 25.3155 45.2095C25.2991 42.91 26.2224 40.9273 26.4923 40.5166C26.7328 40.9273 27.5282 42.6519 27.6232 45.0101C27.6878 47.3096 26.9228 49.1281 26.4782 49.9494ZM29.599 38.7451C29.5661 40.2116 29.3913 41.7603 29.1684 42.6871C29.2482 41.0915 29.0569 38.8507 28.6909 37.0908C28.3248 35.3427 27.2889 32.4097 26.4618 31.0605C25.698 32.351 24.7571 34.8852 24.2643 37.0791C23.7692 39.273 23.7551 41.9362 23.7551 42.734C23.6237 42.0653 23.2952 39.6602 23.3879 37.2551C23.4653 35.2723 23.9299 33.2192 24.1845 32.2806C25.156 29.1481 26.2553 27.1419 26.4618 26.8251C26.6682 27.1419 28.0526 29.6174 28.7707 32.2102C29.4852 34.803 29.6295 37.2903 29.599 38.7451Z" fill="white" fill-opacity="0.9"/>
<path d="M27.9646 51.8021H21.3019V56.272C21.3078 56.272 21.3124 56.2603 21.3183 56.2603C22.8881 54.6882 25.434 54.6882 27.0049 56.2603C28.5747 57.8207 28.5747 60.3666 27.0049 61.9387C26.9979 61.9505 26.9909 61.9505 26.9838 61.9622C26.9756 61.9622 26.9674 61.9739 26.9604 61.9857C25.3941 63.5343 23.348 64.3086 21.3019 64.3086C19.2464 64.3086 17.1909 63.5343 15.6235 61.9622C12.8594 59.2051 12.532 54.9228 14.6392 51.8021C14.9231 51.3797 15.2504 50.9808 15.6235 50.6054C17.1909 49.0333 19.2464 48.2589 21.3019 48.2589V37.5122C13.4038 37.5122 7.00146 43.9063 7.00146 51.8021C7.00146 59.6979 13.4038 66.1037 21.3019 66.1037C25.4199 66.1037 29.1296 64.3556 31.7389 61.575V51.8021H27.9646Z" fill="white" fill-opacity="0.9"/>
</svg>
