<svg width="100" height="100" viewBox="0 0 100 100" fill="none" xmlns="http://www.w3.org/2000/svg">
<path d="M33.2383 49.0254C34.6102 52.2552 36.9003 55.0085 39.8229 56.9417C42.7455 58.8749 46.1712 59.9025 49.6725 59.8961C48.2929 56.6719 46.0009 53.9238 43.0801 51.9917C40.1592 50.0596 36.7375 49.0283 33.2383 49.0254Z" fill="white"/>
<path d="M49.6726 24.1768C47.0307 24.1804 44.4492 24.9692 42.2544 26.4435C40.0595 27.9177 38.3499 30.0112 37.3414 32.4594C36.3329 34.9076 36.0709 37.6006 36.5886 40.1981C37.1062 42.7955 38.3802 45.1808 40.2496 47.0525C42.119 48.9242 44.4998 50.1982 47.0911 50.7136C49.6825 51.229 52.3681 50.9627 54.8085 49.9482C57.2489 48.9337 59.3346 47.2166 60.8019 45.014C62.2693 42.8114 63.0525 40.222 63.0525 37.5732C63.0528 35.8123 62.7068 34.0687 62.0343 32.442C61.3617 30.8153 60.3759 29.3376 59.1332 28.0933C57.8904 26.849 56.4152 25.8626 54.7918 25.1906C53.1685 24.5185 51.4289 24.174 49.6726 24.1768ZM49.6726 44.2715C48.3494 44.2715 47.056 43.8781 45.9558 43.1411C44.8557 42.404 43.9982 41.3565 43.4919 40.1308C42.9855 38.9052 42.853 37.5565 43.1112 36.2554C43.3693 34.9543 44.0065 33.7591 44.9421 32.8211C45.8777 31.883 47.0697 31.2442 48.3674 30.9854C49.6652 30.7266 51.0103 30.8594 52.2327 31.3671C53.4551 31.8748 54.5 32.7345 55.2351 33.8375C55.9702 34.9405 56.3625 36.2374 56.3625 37.564C56.3625 38.4448 56.1895 39.317 55.8533 40.1308C55.5171 40.9446 55.0243 41.684 54.4031 42.3069C53.7819 42.9297 53.0444 43.4238 52.2327 43.7609C51.4211 44.098 50.5511 44.2715 49.6726 44.2715Z" fill="white"/>
<path d="M49.6733 59.8913C52.2435 59.898 54.7607 59.1591 56.9215 57.7638C59.0823 56.3685 60.7944 54.3762 61.8513 52.0273C59.2839 52.033 56.7719 52.7768 54.6134 54.1707C52.4549 55.5646 50.7404 57.5499 49.6733 59.8913Z" fill="white"/>
<path d="M38.655 73.9381C37.1601 73.9381 35.6929 73.3368 35.4 71.4818C39.5524 72.7493 43.2987 71.3893 43.2987 68.4241C43.2987 66.6177 41.88 65.0103 38.4543 65.0103C35.7391 65.0103 32.5464 66.6293 32.5464 70.7556C32.5464 74.8818 35.8637 76.5032 38.6088 76.5032C40.5674 76.5032 42.0023 75.8833 43.0357 74.7407L41.3079 72.9644C40.5675 73.5955 39.6267 73.9408 38.655 73.9381ZM38.4866 67.529C39.4278 67.529 40.2606 67.8991 40.2606 68.7479C40.2606 69.8928 38.362 70.5243 35.4623 69.6916C35.8337 68.1304 37.0771 67.529 38.4866 67.529ZM21.9024 65.304L21.8263 69.3817C21.8102 71.0354 21.7479 71.8542 21.501 72.7794C21.2542 73.7045 20.8689 73.9358 20.2069 73.9358C20.0132 73.9444 19.8195 73.9186 19.6348 73.8595V76.1724C19.9645 76.3184 20.3247 76.3819 20.6844 76.3575C22.6591 76.2973 23.6164 75.3698 24.0778 73.7022C24.4169 72.5134 24.4792 71.5859 24.5392 70.212L24.5992 68.0032H28.0895V76.1724H30.8969V65.3017L21.9024 65.304ZM79.3806 73.9844C78.7785 73.9844 78.4855 73.6444 78.4855 72.9806V65.304H75.6919V66.4605C74.8591 65.4867 73.7172 65.0079 72.2685 65.0079C71.5657 65.0028 70.8697 65.1469 70.2264 65.4308C69.5831 65.7146 69.007 66.1317 68.536 66.6547C67.5143 67.7558 66.9607 69.2127 66.9927 70.7162C66.9598 72.2296 67.513 73.6969 68.536 74.8101C69.0032 75.337 69.5773 75.7577 70.2198 76.0441C70.8623 76.3305 71.5584 76.476 72.2616 76.4708C73.7887 76.4708 74.9606 75.9458 75.7934 74.8795L75.8396 74.8194C76.1325 75.8371 76.8569 76.4708 78.3241 76.4708C78.9343 76.4867 79.5404 76.3658 80.098 76.1169V73.804C79.8781 73.9311 79.6275 73.9951 79.3737 73.989L79.3806 73.9844ZM74.9376 72.9505C74.6569 73.2316 74.3217 73.452 73.9527 73.598C73.5836 73.744 73.1887 73.8126 72.7922 73.7994C72.3958 73.814 72.0008 73.7462 71.6319 73.6001C71.2631 73.454 70.9284 73.2328 70.6491 72.9505C70.3658 72.6558 70.1447 72.3069 69.9989 71.9246C69.853 71.5423 69.7854 71.1345 69.8001 70.7255C69.7825 70.321 69.8488 69.9172 69.995 69.5398C70.1411 69.1624 70.3638 68.8195 70.6491 68.5328C71.0705 68.0966 71.6139 67.7986 72.2076 67.678C72.8012 67.5574 73.4174 67.6199 73.975 67.8572C74.5326 68.0945 75.0054 68.4956 75.3312 69.0076C75.657 69.5196 75.8206 70.1185 75.8003 70.7255C75.8157 71.1358 75.747 71.5449 75.5986 71.9275C75.4502 72.3102 75.2253 72.6584 74.9376 72.9505ZM56.7801 65.304V68.0078H60.2658V76.1771H63.0756V68.0078H66.5151V65.304H56.7801ZM52.6623 65.304V69.3054H47.7718V65.304H44.9643V76.1747H47.7718V71.9467H52.6531V76.1771H55.4606V65.3063L52.6623 65.304Z" fill="white"/>
</svg>
