<svg width="100" height="100" viewBox="0 0 100 100" fill="none" xmlns="http://www.w3.org/2000/svg">
<path d="M15.2549 74.7741H82.1945L48.901 41.5547L15.2549 74.7741Z" fill="white"/>
<path d="M55.8683 39.4055L58.3521 41.903L59.9612 40.3119L57.4629 37.7952L58.7096 36.5657L61.8747 39.7526L63.421 38.2194L58.3666 33.1377L50.7173 40.7073L55.7572 45.7746L57.3325 44.2172L54.1964 41.0592L55.8683 39.4055Z" fill="white"/>
<path d="M69.2778 47.0327C69.5589 46.4509 69.6527 45.7966 69.5462 45.1595C69.4398 44.5225 69.1385 43.9339 68.6835 43.4745L64.9676 39.7861L57.4053 47.4136L59.2801 49.2939L61.9185 46.6663L64.0785 48.8359C65.1174 49.8628 67.9683 49.4916 69.2778 47.0327ZM65.3445 43.2624C65.8177 43.6868 66.2617 44.1426 66.6733 44.6268C66.8524 44.849 66.9418 45.1299 66.9239 45.4145C66.9061 45.6991 66.7822 45.9667 66.5767 46.1648C66.4679 46.3147 66.3269 46.4384 66.1641 46.527C66.0013 46.6157 65.8207 46.6669 65.6355 46.6771C65.4504 46.6872 65.2653 46.656 65.0937 46.5858C64.9221 46.5155 64.7684 46.4079 64.6438 46.2709C64.2441 45.8991 63.8696 45.5013 63.5228 45.08L65.3445 43.2624Z" fill="white"/>
<path d="M75.5788 59.2248L78.0625 61.7223L79.6716 60.1313L77.1734 57.6193L78.4201 56.385L81.5851 59.5672L83.1314 58.0388L78.077 52.957L70.4277 60.5266L75.4676 65.5939L77.0429 64.0366L73.9069 60.8786L75.5788 59.2248Z" fill="white"/>
<path d="M89.4664 64.4184L86.6348 67.2196L83.7259 64.2352L86.5285 61.4629L84.702 59.6211L77.0479 67.1955L78.8792 69.0324L82.1264 65.8166L85.0354 68.801L81.8172 71.988L83.6437 73.8249L91.293 66.2553L89.4664 64.4184Z" fill="white"/>
<path d="M73.0327 47.8555L62.7886 52.8263L64.905 54.9477L71.4429 51.2546L67.5241 57.5754L69.5197 59.5714L74.8786 49.7069L73.0327 47.8555Z" fill="white"/>
<path d="M54.2213 28.962L48.6788 31.5704L51.5008 26.2283L49.1234 23.832L41.4741 31.4064L43.1364 33.0795L47.2485 29.1259L44.6102 34.5596L45.6926 35.6493L51.1432 33.0746L47.1084 37.0716L48.8625 38.8362L56.5117 31.2666L54.2213 28.962Z" fill="white"/>
<path d="M26.0101 53.0793L24.2271 51.2327C24.68 50.7409 25.1642 50.2787 25.6767 49.8489C25.9014 49.6638 26.1872 49.5686 26.4783 49.582C26.7695 49.5954 27.0452 49.7163 27.252 49.9213C27.4067 50.0359 27.5331 50.1844 27.6214 50.3553C27.7097 50.5263 27.7576 50.7151 27.7613 50.9074C27.7651 51.0997 27.7246 51.2903 27.643 51.4645C27.5614 51.6387 27.4408 51.792 27.2906 51.9125C26.8947 52.3285 26.4735 52.7197 26.0294 53.0841L26.0101 53.0793ZM42.1688 39.7963L40.9946 40.939L39.4966 38.1571L42.1688 39.7963ZM41.9948 42.8001L43.9567 40.8956L45.8557 42.072L47.9867 39.9988L38.0325 34.6953L36.0561 36.6239L40.8013 46.985L43.0724 44.7865L42.0093 42.8001H41.9948ZM21.6998 65.5474L27.0587 60.3451L25.609 58.8408L22.2265 62.1435L20.5981 60.4801L23.3186 57.8332L21.782 56.2614L19.0615 58.9083L17.665 57.4619L20.946 54.2653L19.4964 52.7659L14.1231 57.9826L21.7143 65.5474H21.6998ZM28.1749 59.2796L30.1754 57.351L26.0923 53.1612L27.5806 54.6848L29.8951 52.438C30.9872 51.3677 30.7069 48.4556 28.2281 47.1345C27.6181 46.8572 26.9376 46.7732 26.2783 46.8939C25.619 47.0146 25.0127 47.3342 24.5411 47.8095L20.6126 51.6666L28.1894 59.2892L28.1749 59.2796ZM11.0208 60.9574L20.9799 66.2609L18.8489 68.3341L12.4898 64.4481L16.0511 71.0775L13.7945 73.2809L9.04932 62.8763L11.0208 60.9478V60.9574ZM36.3895 51.2327L38.361 49.3041L34.1088 38.4222L31.8473 40.6256L33.7802 44.7527L29.0592 43.3642L26.8267 45.5338L34.8964 47.5347L36.3895 51.2327Z" fill="white"/>
</svg>
