<svg width="100" height="100" viewBox="0 0 100 100" fill="none" xmlns="http://www.w3.org/2000/svg">
<g clip-path="url(#clip0_157_6901)">
<path fill-rule="evenodd" clip-rule="evenodd" d="M50.8236 31.1186C49.0569 33.3065 44.0135 40.3814 43.4214 41.2993C42.316 43.0506 42.2173 43.904 42.1877 44.4696C42.1342 44.9061 42.1846 45.3492 42.3348 45.7624C42.4849 46.1755 42.7305 46.5469 43.0513 46.846C44.5613 48.1955 46.6734 47.9772 48.5486 47.9772H63.9994C64.2504 48.0015 64.5027 47.9486 64.723 47.8254C64.9434 47.7023 65.1213 47.5147 65.2331 47.2876C66.3761 45.5744 67.0016 43.5653 67.0343 41.5027C67.0343 37.5336 64.488 32.5722 58.0382 30.3446L57.298 31.4113C62.4154 33.8523 64.5275 37.0474 64.5275 41.5126C64.5586 42.8248 64.1882 44.115 63.4665 45.2088H48.4401C47.537 45.2088 47.4087 44.1818 47.7344 43.6063C49.0223 41.301 50.4598 39.0834 52.0375 36.968C53.5574 34.9289 55.0527 33.0237 56.6219 31.0144C57.0463 30.4587 56.765 29.9229 55.9212 29.7492C54.0115 29.3304 52.0626 29.1192 50.108 29.1191C37.771 29.1191 33.2705 36.2337 33.2705 41.5225C33.2705 47.2479 37.8154 53.8862 50.1426 53.8862C56.9822 53.8862 61.458 51.6734 64.0488 48.8256H61.4383C59.1732 50.9292 55.2797 52.4226 50.1426 52.4226C39.7005 52.4226 35.8317 46.5285 35.8317 41.4481C35.9452 36.8936 40.0608 30.6373 50.3992 30.419C50.7939 30.419 51.095 30.7713 50.8236 31.1086V31.1186Z" fill="white" fill-opacity="0.9"/>
<path fill-rule="evenodd" clip-rule="evenodd" d="M87.8994 63.7841C88.19 63.8114 88.461 63.9434 88.6624 64.1559C88.8638 64.3684 88.9819 64.6469 88.9949 64.9401C88.9899 65.1052 88.9521 65.2676 88.8838 65.4178C88.8155 65.5681 88.718 65.703 88.5971 65.8149C88.4762 65.9267 88.3344 66.0131 88.1798 66.0691C88.0252 66.1251 87.8611 66.1494 87.697 66.1408H74.4373V57.4088H70.5338V66.1408H63.3685C61.4292 66.1408 61.0245 64.955 61.0245 63.8635V57.3542H54.555C53.9135 57.7908 53.2966 58.2671 52.6354 58.669L48.7764 61.0455L43.7922 57.384H36.0495V59.5769H38.8574V58.3763L45.4602 63.164L40.9498 66.0118H36.0495V68.1749H41.7196C42.3266 67.7631 42.899 67.3265 43.5307 66.9445L47.4785 64.5333L52.4824 68.1253H58.187L50.6516 62.4297L54.5204 59.8944C55.3446 59.3487 56.2131 58.9022 57.0569 58.406V64.1215C57.0569 66.5426 57.6787 68.2196 62.5247 68.2196L89.898 68.1551C92.01 68.1848 93.3523 66.7163 93.3523 64.9401C93.3113 64.0557 92.9261 63.223 92.2799 62.6216C91.6336 62.0201 90.7782 61.6982 89.898 61.7252H80.0284C80.0841 61.1526 80.3362 60.6172 80.7413 60.2109C81.1464 59.8045 81.6794 59.5523 82.249 59.4975H92.2568L92.2025 57.3939H81.5927C79.9904 57.4126 78.4575 58.0544 77.3157 59.1848C76.1739 60.3152 75.5119 61.8462 75.4686 63.4567C75.4686 63.6849 75.6068 63.8288 75.8585 63.8288L87.8994 63.7841ZM36.0495 63.7494V61.5168H37.979V63.7494H36.0495ZM36.0495 57.384H28.7214C27.0662 57.3167 25.4375 57.817 24.1024 58.8029C22.0791 60.4154 21.4277 62.1171 21.4475 62.8762H24.0925C23.0081 63.6522 22.1879 64.7453 21.7436 66.0068H13.0435C11.4841 66.0068 10.4725 64.8955 10.4725 63.8139V57.3096H6.63818V64.0669C6.63818 66.498 8.93286 68.1749 12.6191 68.1749H36.0495V65.987H26.7475C26.8172 65.407 27.0825 64.8686 27.4991 64.4615C27.9158 64.0543 28.4586 63.803 29.0372 63.7494H36.0495V61.5168H26.6389C26.5106 60.8619 27.7245 59.5769 28.6572 59.5769H36.0594V57.384H36.0495Z" fill="white" fill-opacity="0.9"/>
</g>
<defs>
<clipPath id="clip0_157_6901">
<rect width="100" height="100" fill="white"/>
</clipPath>
</defs>
</svg>
