<svg width="100" height="100" viewBox="0 0 100 100" fill="none" xmlns="http://www.w3.org/2000/svg">
<g clip-path="url(#clip0_157_6901)">
<path d="M31.4807 72.9997C37.4527 72.9997 42.2939 68.1787 42.2939 62.2318C42.2939 56.2848 37.4527 51.4639 31.4807 51.4639C25.5087 51.4639 20.6675 56.2848 20.6675 62.2318C20.6675 68.1787 25.5087 72.9997 31.4807 72.9997Z" fill="white"/>
<path d="M41.8193 27.4272C41.7607 27.3265 41.6822 27.2387 41.5884 27.1693C41.4947 27.0998 41.3877 27.0501 41.274 27.0232C41.1604 26.9963 41.0424 26.9927 40.9273 27.0128C40.8122 27.0328 40.7024 27.0759 40.6046 27.1396C38.696 28.3667 37.2278 30.1656 36.4118 32.277C36.3701 32.3866 36.3306 32.4956 36.2934 32.6042C35.8307 33.9927 35.6712 35.4637 35.8258 36.9185C35.9803 38.3734 36.4452 39.7786 37.1895 41.0399C43.2306 51.4557 49.2717 61.8715 55.3129 72.2873C55.3696 72.3849 55.4451 72.4704 55.535 72.5389C55.625 72.6073 55.7276 72.6574 55.8371 72.6863C55.9465 72.7152 56.0606 72.7222 56.1728 72.707C56.285 72.6919 56.3931 72.6548 56.4908 72.598C57.8359 71.8309 58.9783 70.756 59.8233 69.462C61.1296 67.4352 61.4002 65.2686 61.2824 63.4527C61.148 61.5654 60.5785 59.7343 59.6181 58.1017C53.6851 47.8769 47.7522 37.652 41.8193 27.4272Z" fill="white"/>
<path d="M59.8456 27.4272C59.7871 27.3265 59.7085 27.2387 59.6148 27.1693C59.5211 27.0998 59.4141 27.0501 59.3004 27.0232C59.1867 26.9963 59.0688 26.9927 58.9537 27.0128C58.8386 27.0328 58.7288 27.0759 58.631 27.1396C56.7223 28.3667 55.2542 30.1656 54.4382 32.277C54.3964 32.3866 54.357 32.4956 54.3197 32.6042C53.857 33.9927 53.6976 35.4637 53.8521 36.9185C54.0067 38.3734 54.4716 39.7786 55.2158 41.0399C61.257 51.4557 67.2981 61.8715 73.3393 72.2873C73.396 72.3849 73.4714 72.4704 73.5614 72.5389C73.6513 72.6073 73.754 72.6574 73.8634 72.6863C73.9729 72.7152 74.087 72.7222 74.1992 72.707C74.3114 72.6919 74.4194 72.6548 74.5172 72.598C75.8623 71.8309 77.0046 70.756 77.8497 69.462C79.156 67.4352 79.4266 65.2686 79.3088 63.4527C79.1744 61.5654 78.6048 59.7343 77.6445 58.1017C71.7115 47.8769 65.7786 37.652 59.8456 27.4272Z" fill="white"/>
</g>
<defs>
<clipPath id="clip0_157_6901">
<rect width="58.6667" height="46" fill="white" transform="translate(20.6665 27)"/>
</clipPath>
</defs>
</svg>
