<svg width="100" height="100" viewBox="0 0 100 100" fill="none" xmlns="http://www.w3.org/2000/svg">
<path d="M60.8173 50.0001C60.4251 50.0001 60.0417 49.8833 59.7155 49.6643C59.3894 49.4454 59.1352 49.1343 58.9851 48.7703C58.835 48.4063 58.7957 48.0057 58.8722 47.6193C58.9487 47.2328 59.1376 46.8778 59.415 46.5992C59.6923 46.3206 60.0457 46.1309 60.4304 46.054C60.8151 45.9771 61.2139 46.0166 61.5763 46.1674C61.9387 46.3182 62.2484 46.5735 62.4663 46.9011C62.6842 47.2287 62.8006 47.6139 62.8006 48.0079C62.8006 48.5363 62.5916 49.043 62.2197 49.4166C61.8478 49.7902 61.3433 50.0001 60.8173 50.0001ZM56.1653 50.0001C55.773 50.0001 55.3896 49.8833 55.0635 49.6643C54.7373 49.4454 54.4831 49.1343 54.333 48.7703C54.1829 48.4063 54.1436 48.0057 54.2202 47.6193C54.2967 47.2328 54.4856 46.8778 54.7629 46.5992C55.0403 46.3206 55.3937 46.1309 55.7784 46.054C56.1631 45.9771 56.5618 46.0166 56.9242 46.1674C57.2866 46.3182 57.5963 46.5735 57.8143 46.9011C58.0322 47.2287 58.1485 47.6139 58.1485 48.0079C58.1485 48.2695 58.0972 48.5286 57.9975 48.7703C57.8979 49.012 57.7518 49.2316 57.5676 49.4166C57.3835 49.6016 57.1648 49.7483 56.9242 49.8484C56.6836 49.9486 56.4257 50.0001 56.1653 50.0001ZM51.5086 50.0001C51.1166 49.9992 50.7336 49.8816 50.408 49.6621C50.0825 49.4426 49.829 49.1312 49.6796 48.7671C49.5302 48.403 49.4916 48.0026 49.5687 47.6164C49.6457 47.2303 49.8349 46.8758 50.1125 46.5976C50.39 46.3195 50.7434 46.1302 51.128 46.0537C51.5126 45.9772 51.9111 46.0169 52.2732 46.1678C52.6353 46.3187 52.9448 46.5741 53.1625 46.9016C53.3802 47.2291 53.4964 47.6141 53.4964 48.0079C53.4964 48.2699 53.445 48.5294 53.345 48.7714C53.2451 49.0134 53.0986 49.2332 52.9139 49.4182C52.7293 49.6033 52.5101 49.7499 52.269 49.8498C52.0278 49.9496 51.7694 50.0007 51.5086 50.0001ZM51.8399 25.4653V41.9204C51.8363 42.2625 51.6984 42.5893 51.4563 42.8299C51.2143 43.0705 50.8875 43.2054 50.5469 43.2054H48.5821C48.5353 43.2066 48.4908 43.2262 48.4582 43.2598C48.4255 43.2935 48.4072 43.3387 48.4072 43.3857V57.1784C48.8674 57.22 49.3781 57.2477 49.8751 57.2477C53.9196 57.2527 57.8135 55.7072 60.7624 52.9267C63.7113 50.1461 65.4928 46.3401 65.7435 42.2851C65.9942 38.2302 64.6951 34.232 62.1114 31.1063C59.5276 27.9806 55.8539 25.9631 51.8399 25.4653Z" fill="white"/>
<path d="M46.8288 38.4991C46.4356 38.4991 46.0513 38.382 45.7244 38.1626C45.3975 37.9432 45.1427 37.6313 44.9922 37.2664C44.8418 36.9016 44.8024 36.5001 44.8791 36.1127C44.9558 35.7254 45.1451 35.3696 45.4231 35.0903C45.7012 34.8111 46.0554 34.6209 46.441 34.5439C46.8266 34.4668 47.2262 34.5063 47.5895 34.6575C47.9527 34.8086 48.2631 35.0645 48.4816 35.3929C48.7 35.7213 48.8166 36.1074 48.8166 36.5023C48.8166 37.0319 48.6072 37.5398 48.2344 37.9142C47.8616 38.2887 47.356 38.4991 46.8288 38.4991ZM49.8749 25.3442C45.9576 25.3444 42.1786 26.7991 39.2643 29.4286C36.3501 32.0582 34.5062 35.677 34.0872 39.5894C33.6682 43.5018 34.7037 47.4317 36.9945 50.6237C39.2853 53.8157 42.6698 56.0445 46.4975 56.8817V42.5528C46.5042 42.2217 46.6366 41.9058 46.8675 41.6696C47.0985 41.4333 47.4105 41.2946 47.7398 41.2817H49.7461C49.7909 41.2817 49.834 41.2645 49.8666 41.2335C49.8991 41.2026 49.9186 41.1602 49.9209 41.1153V25.3489H49.8703L49.8749 25.3442Z" fill="white"/>
<path d="M82.7393 66.6313V69.6404H78.7176V66.6313H76.7344V74.5769H78.7176V71.3645H82.7393V74.5769H84.7225V66.6313H82.7393Z" fill="white"/>
<path d="M46.7146 71.3081L47.934 68.4239C47.9455 68.3901 47.9672 68.3609 47.9961 68.3402C48.025 68.3194 48.0596 68.3083 48.095 68.3083C48.1307 68.3076 48.1656 68.3184 48.1946 68.3393C48.2237 68.3601 48.2452 68.3897 48.2561 68.4239L49.4801 71.3081H46.7146ZM49.724 67.5133C49.585 67.1953 49.357 66.9247 49.0679 66.7343C48.7787 66.544 48.4408 66.442 48.095 66.4409C47.7495 66.4426 47.4117 66.5448 47.1227 66.7351C46.8336 66.9254 46.6056 67.1956 46.4661 67.5133L43.2451 74.576H45.3526L46.0612 72.8982H50.1703L50.8789 74.576H52.9864L49.724 67.5133Z" fill="white"/>
<path d="M26.1322 65.1929C25.2119 65.1929 24.6137 65.6874 24.1719 66.6858L21.5859 72.6485L18.9999 66.6858C18.5628 65.6874 17.9692 65.1929 17.0397 65.1929C16.1102 65.1929 15.2773 65.8169 15.2773 67.1712V74.5667H17.256V67.3746L19.8558 73.3049C20.2055 74.1322 20.7761 74.6546 21.5859 74.6546C22.4004 74.6546 22.9664 74.1322 23.3161 73.3049L25.9159 67.3746V74.576H27.9129V67.1804C27.9129 65.8169 26.9926 65.1929 26.1322 65.1929Z" fill="white"/>
<path d="M31.3727 72.8986C31.3276 72.8986 31.2843 72.8806 31.2523 72.8485C31.2204 72.8165 31.2025 72.773 31.2025 72.7276V71.3086H36.1444V69.6908H31.2025V68.489C31.2025 68.4437 31.2204 68.4002 31.2523 68.3681C31.2843 68.336 31.3276 68.318 31.3727 68.318H36.2595V66.6401H30.3972C30.0855 66.6426 29.7873 66.768 29.5669 66.9894C29.3465 67.2108 29.2216 67.5103 29.2192 67.8234V73.4024C29.2216 73.7155 29.3465 74.0151 29.5669 74.2365C29.7873 74.4579 30.0855 74.5833 30.3972 74.5857H36.2595V72.9079L31.3727 72.8986Z" fill="white"/>
<path d="M39.6229 74.5765V68.489C39.6229 68.4437 39.6408 68.4002 39.6727 68.3681C39.7047 68.336 39.748 68.318 39.7931 68.318H44.6799V66.6401H38.8176C38.5059 66.6426 38.2077 66.768 37.9873 66.9894C37.7669 67.2108 37.6421 67.5103 37.6396 67.8234V74.5857L39.6229 74.5765Z" fill="white"/>
<path d="M71.1993 73.0081H70.5643C68.9123 73.0081 68.2635 72.2593 68.2635 70.5953C68.2635 68.9822 68.8249 68.1918 70.5643 68.1918H71.1993C72.8834 68.1918 73.5 68.9822 73.5 70.5953C73.5 72.2593 72.8512 73.0081 71.1993 73.0081ZM75.4234 70.5861C75.4234 67.8127 74.2316 66.5093 71.2315 66.5093H70.5367C67.5319 66.5093 66.3447 67.8081 66.3447 70.5861C66.3447 73.3271 67.5595 74.649 70.5551 74.649H71.2131C74.2086 74.649 75.4234 73.3271 75.4234 70.5861Z" fill="white"/>
<path d="M62.8839 70.5867C62.5894 71.3771 62.1062 71.8809 60.7626 71.8809H59.8423V67.0553H61.0433C62.1891 67.0553 62.9667 67.7718 62.9667 69.4635C62.9931 69.8417 62.9541 70.2217 62.8517 70.5867H62.8839ZM57.8775 71.8809H56.9572C55.6136 71.8809 55.1166 71.3771 54.8359 70.5867C54.7335 70.2217 54.6946 69.8417 54.7209 69.4635C54.7209 67.7718 55.5032 67.0553 56.6443 67.0553H57.8637V71.8809H57.8775ZM60.8316 65.3774H56.902C53.9709 65.3774 52.8021 66.8658 52.8021 69.4635C52.7984 69.8394 52.8245 70.215 52.8803 70.5867C53.1932 72.4356 54.2608 73.5542 57.0216 73.5542H57.8821V74.5757H59.8607V73.5726H60.7258C63.4867 73.5726 64.545 72.4448 64.8671 70.6052C64.9268 70.2339 64.9545 69.8581 64.9499 69.482C64.9131 66.8658 63.7398 65.3774 60.8132 65.3774H60.8316Z" fill="white"/>
</svg>
