<svg width="100" height="100" viewBox="0 0 100 100" fill="none" xmlns="http://www.w3.org/2000/svg">
<mask id="mask0_157_6901" style="mask-type:luminance" maskUnits="userSpaceOnUse" x="24" y="24" width="52" height="52">
<path d="M75.2274 24.7725H24.7725V75.2273H75.2274V24.7725Z" fill="white"/>
</mask>
<g mask="url(#mask0_157_6901)">
<path fill-rule="evenodd" clip-rule="evenodd" d="M24.769 24.7725H75.2239V75.2273H24.769V24.7725ZM36.4101 36.3545L40.1182 28.6533H44.1705V40.294H41.3286V31.964L37.7035 39.0006H35.1166L31.4915 31.964V40.294H28.6555V28.6533H32.7019L36.4101 36.3545ZM58.385 28.6533V30.9732H63.4519L63.44 40.294H66.276L66.2879 30.9732H71.3607V28.6533H58.385ZM67.9628 68.595C68.2654 68.3102 68.4493 67.9246 68.5205 67.4618L71.3624 67.4559C71.2853 68.417 70.959 69.2358 70.3894 69.8884C69.8673 70.4877 69.1494 70.9267 68.2535 71.1937C67.3873 71.4548 66.3075 71.5912 64.9488 71.5912C63.5842 71.5912 62.4035 71.3954 61.4364 71.0098C60.4515 70.6182 59.6861 69.9656 59.164 69.0697C58.6597 68.2094 58.3987 67.0643 58.3809 65.6581V65.5276L58.5351 65.5217L58.3809 65.5158V65.3852C58.3987 63.9791 58.6597 62.834 59.164 61.9737C59.6921 61.0778 60.4515 60.4252 61.4364 60.0336C62.4094 59.6479 63.5901 59.4521 64.9488 59.4521C66.2422 59.4521 67.3813 59.5886 68.2535 59.8497C69.1494 60.1167 69.8673 60.5557 70.3894 61.1549C70.959 61.8076 71.2853 62.6263 71.3624 63.5875H68.5205C68.4493 63.1247 68.2594 62.745 67.9628 62.4543C67.678 62.1814 67.2983 61.9856 66.8236 61.8788C66.3549 61.772 65.6963 61.7067 64.9428 61.7067C64.1893 61.7067 63.5248 61.8076 62.9612 61.9974C62.4154 62.1873 61.9822 62.5077 61.6796 62.9645C61.3711 63.4214 61.2169 64.0799 61.2169 64.9284V66.1209C61.2169 66.9634 61.3711 67.6279 61.6796 68.0848C61.9822 68.5416 62.4154 68.8679 62.9612 69.0519C63.5248 69.2477 64.2131 69.3426 64.9428 69.3426C65.6726 69.3426 66.3549 69.2773 66.8236 69.1705C67.2983 69.0578 67.678 68.8679 67.9628 68.595Z" fill="white" fill-opacity="0.9"/>
</g>
</svg>
