<svg width="100" height="100" viewBox="0 0 100 100" fill="none" xmlns="http://www.w3.org/2000/svg">
<g clip-path="url(#clip0_157_6901)">
<path d="M76.4593 57.7161C83.0349 54.2847 84.6088 49.9524 82.5891 48.7333C79.6086 47.083 71.4041 50.0371 72.3494 58.1499C71.9428 58.3885 71.127 58.8274 71.127 58.8274L71.6631 60.4623C71.6631 60.4623 72.8129 59.7821 73.1082 59.5794C74.0715 60.3494 74.5713 60.7728 76.0526 60.8113C79.22 60.8832 81.9416 57.3978 81.9416 57.3978L81.147 56.166C81.1644 56.1557 77.6816 59.4793 76.4593 57.7161ZM77.3321 52.7422C78.2747 51.0919 79.7949 49.8061 80.5533 50.3194C81.3123 50.8327 79.7949 53.4403 76.257 56.2224C76.1098 55.9735 76.3868 54.4079 77.3321 52.7422ZM16.9061 60.801C16.26 60.793 15.6424 60.5362 15.1839 60.085C13.6094 58.4501 15.0907 52.927 15.4041 51.7336C15.4117 51.708 15.4132 51.681 15.4085 51.6547C15.4038 51.6284 15.3929 51.6036 15.3769 51.5821C15.3607 51.5608 15.3399 51.5433 15.3158 51.5313C15.2917 51.5193 15.2652 51.513 15.2383 51.5128C15.205 51.5129 15.1722 51.5214 15.1432 51.5376C15.1142 51.5537 15.0898 51.5771 15.0725 51.6053C14.4044 52.945 10.7943 60.801 7.60898 60.801H7.42252C4.3304 60.5059 4.73958 56.284 5.70036 53.7149H10.683C10.2764 54.816 10.1469 55.5114 10.1469 55.881C10.165 56.1377 10.3877 56.284 10.5897 56.1762C11.1077 55.899 11.9597 54.798 12.7004 53.5327C14.034 51.2023 15.7744 47.7144 18.768 38.8882H24.2195C22.6086 43.8056 21.2931 48.2483 20.5809 53.3299C20.5713 53.3912 20.5813 53.4539 20.6096 53.5092C20.638 53.5644 20.6831 53.6094 20.7387 53.6378C20.7943 53.6662 20.8575 53.6766 20.9193 53.6674C20.9812 53.6582 21.0386 53.6299 21.0833 53.5866C22.6371 52.1365 28.3345 39.9507 28.6738 38.8882H34.1562C34.1562 38.8882 28.767 53.661 29.2124 56.1377C29.2199 56.2291 29.2561 56.3158 29.3159 56.3858C29.3757 56.4557 29.4561 56.5053 29.5457 56.5276C29.6354 56.55 29.7299 56.544 29.816 56.5104C29.902 56.4769 29.9754 56.4174 30.0256 56.3405C30.3416 55.9555 30.787 55.3858 31.1004 55.0367L31.8772 55.8067C30.3234 57.7135 27.7855 61.145 25.2683 60.742C24.8663 60.6592 24.4973 60.4621 24.2065 60.1749C21.5779 57.9189 25.2424 50.3579 25.8924 48.5768C26.04 48.1918 26.1695 47.8248 26.2627 47.6041C26.2722 47.5772 26.275 47.5485 26.2711 47.5204C26.2671 47.4922 26.2565 47.4654 26.2401 47.4421C26.2237 47.4188 26.2019 47.3997 26.1766 47.3864C26.1513 47.373 26.1231 47.3658 26.0944 47.3654C26.061 47.3651 26.0282 47.3735 25.9992 47.3898C25.9701 47.406 25.9458 47.4294 25.9286 47.4578C25.7991 47.7324 25.4651 48.4485 25.3356 48.6871C23.7197 52.0082 19.98 60.801 16.9061 60.801ZM68.3871 42.6687C66.9272 42.6432 65.509 43.1522 64.4041 44.0982L64.443 45.5483C64.443 45.5483 66.1833 43.8056 67.9986 44.5576C69.1821 45.035 70.0704 46.4106 69.4048 48.8155C69.3686 48.9617 69.2935 49.2389 69.2572 49.3852C68.7393 48.2842 66.8126 47.4398 64.127 49.4571C62.164 50.9251 61.6642 52.4855 61.2783 53.7534C60.7215 55.6064 60.7604 57.6032 61.1851 58.7992C61.3628 59.2655 61.6377 59.6895 61.9921 60.0433C62.3464 60.3971 62.7721 60.6728 63.2413 60.8524C67.6853 62.5232 71.1866 55.7194 72.2588 50.8148C72.9424 47.7144 73.4604 42.7585 68.3871 42.6687ZM65.9968 57.5699C65.497 57.9009 64.645 58.0472 64.5155 56.5227C64.3497 54.3386 65.9605 51.7695 66.4422 51.1638C67.2761 50.1552 68.4052 50.1012 68.3871 51.6771C68.3689 53.5147 67.2372 56.7614 65.9968 57.5699ZM52.5898 41.4008C49.9613 40.5025 40.6771 43.4206 37.6083 53.6046C37.2379 53.7149 35.4433 54.1564 35.4433 54.1564L34.6664 56.248L37.414 55.4037C37.414 55.4037 37.1163 60.6342 41.7467 60.7934C45.3956 60.6625 47.3016 55.3421 46.1362 51.7259C45.9135 51.8362 42.9871 53.2299 42.9871 53.2299C42.9871 53.2299 43.5983 56.7742 42.3035 57.5929C42.2541 57.6274 42.1981 57.6515 42.1389 57.6637C42.0798 57.676 42.0187 57.6761 41.9595 57.6641C41.9004 57.6521 41.8443 57.6281 41.7947 57.5939C41.7452 57.5596 41.7033 57.5155 41.6716 57.4646C41.3013 56.9513 41.0604 55.5936 41.4695 53.7945C48.1536 50.3451 52.7271 44.2984 53.0068 42.1964C53.0405 42.0365 53.0175 41.8699 52.9415 41.7249C52.8655 41.5799 52.7412 41.4654 52.5898 41.4008ZM44.2743 50.4118C43.5819 50.9437 42.8456 51.4168 42.073 51.826C42.073 51.826 42.4226 51.0175 42.6841 50.5581C43.4041 49.3673 46.8484 44.7603 49.7385 43.916C49.7624 43.9073 49.7883 43.9051 49.8133 43.9099C49.8384 43.9147 49.8616 43.9262 49.8805 43.9431C49.8995 43.96 49.9134 43.9817 49.9207 44.0059C49.9281 44.0301 49.9287 44.0558 49.9224 44.0803C49.9224 45.0914 46.258 48.9258 44.2743 50.4118ZM58.0541 57.9369C58.0452 57.9635 58.0445 57.9921 58.0524 58.0192C58.0602 58.0461 58.0761 58.0701 58.0981 58.0879C58.12 58.1057 58.1468 58.1165 58.175 58.1189C58.2033 58.1212 58.2315 58.115 58.2561 58.1011C58.6138 57.8678 58.9596 57.6168 59.292 57.3491L59.6623 58.4681C59.4396 58.7068 57.6605 60.103 56.5547 60.6162C55.3531 61.168 54.2601 60.434 54.0919 59.5512C53.9261 58.5246 54.4441 57.1849 54.4441 57.1849C54.4441 57.1849 52.538 59.351 50.5932 60.3955C50.2083 60.636 49.768 60.7755 49.3138 60.801C48.0008 60.7626 47.5916 59.5178 47.7418 58.8351C47.9076 58.0292 49.6868 52.6139 49.9069 51.7336C49.9094 51.7098 49.9063 51.6857 49.8977 51.6633C49.8891 51.641 49.8752 51.621 49.8573 51.6049C49.8393 51.5889 49.8178 51.5773 49.7945 51.5711C49.7711 51.5649 49.7466 51.5643 49.723 51.5693C49.1844 51.7156 47.7781 52.6319 47.7781 52.6319V51.1279C47.7781 51.1279 51.8518 48.374 52.8695 48.0814C53.8148 47.8248 54.6305 48.356 54.3896 49.4212C54.2783 50.1552 51.629 56.5227 51.629 57.3312C51.6261 57.3529 51.6287 57.375 51.6365 57.3955C51.6444 57.4161 51.6571 57.4344 51.6737 57.4489C51.6904 57.4633 51.7104 57.4735 51.732 57.4785C51.7535 57.4835 51.776 57.4831 51.7974 57.4774C52.5561 57.2567 53.9442 56.0838 55.0009 54.413C56.0005 52.8526 56.666 50.8892 57.4999 48.4485H61.0375C61.0349 48.4664 58.3494 56.5971 58.0541 57.9369ZM94.9965 50.3014C95.0719 51.441 93.9786 57.4415 89.5344 59.8463C88.2193 60.5624 87.3312 60.837 86.533 60.801C84.6451 60.7446 83.757 59.2226 83.5526 58.7274C81.3877 53.4044 87.7191 48.4612 87.7191 48.4612H91.3861C91.3861 48.4612 85.7928 52.886 86.5721 56.8127C87.1833 59.197 89.4207 58.0421 90.664 55.3446C90.9047 54.8108 92.404 51.269 91.4614 51.2151C90.6277 51.1587 89.5163 52.9039 89.5163 52.9039L88.7398 51.7285C89.3509 50.9585 91.0547 48.9387 92.9635 48.297C93.274 48.2098 94.9784 47.8607 94.9965 50.3014ZM33.5294 57.9009C33.8188 57.9009 34.1017 57.986 34.3424 58.1453C34.583 58.3046 34.7705 58.5311 34.8813 58.796C34.9921 59.061 35.021 59.3526 34.9646 59.6339C34.9081 59.9152 34.7687 60.1735 34.5641 60.3763C34.3595 60.5792 34.0987 60.7172 33.8149 60.7732C33.5311 60.8292 33.2369 60.8004 32.9696 60.6907C32.7022 60.5809 32.4737 60.3951 32.3129 60.1566C32.1521 59.9181 32.0663 59.6378 32.0663 59.351C32.0649 59.1602 32.1018 58.971 32.1748 58.7944C32.2479 58.6179 32.3556 58.4575 32.4918 58.3226C32.6279 58.1876 32.7898 58.0809 32.9679 58.0085C33.1461 57.9361 33.337 57.8995 33.5294 57.9009Z" fill="white"/>
</g>
<defs>
<clipPath id="clip0_157_6901">
<rect width="90" height="33.3333" fill="white" transform="translate(5 33.3335)"/>
</clipPath>
</defs>
</svg>
