<svg width="100" height="100" viewBox="0 0 100 100" fill="none" xmlns="http://www.w3.org/2000/svg">
<path fill-rule="evenodd" clip-rule="evenodd" d="M77.4371 54.6956L77.951 44.685L73.4533 42.4314L73.5712 40.1777H93.3722L93.2638 42.3098L88.0071 44.685L87.4885 54.8218L92.3727 57.3233L92.2313 60.0772H71.8174L71.9447 57.5757L77.4371 54.6956Z" fill="white"/>
<path fill-rule="evenodd" clip-rule="evenodd" d="M56.0006 54.9623H53.0022L53.186 51.2732H56.1845C57.7733 51.2125 58.4804 52.6198 58.0703 53.5269C58.0703 53.5269 57.9194 54.9015 55.9912 54.9623H56.0006ZM56.3683 47.7992H53.3888L53.5726 44.3299H56.6889C57.8817 44.3019 58.7397 45.1715 58.4805 46.2797C58.4805 46.2797 58.4003 47.7992 56.3542 47.7992H56.3683ZM64.9441 40.1452C64.9441 40.1452 68.7675 39.7385 69.503 44.545C69.5307 45.6189 69.2565 46.6793 68.7112 47.6074C68.1658 48.5356 67.3707 49.2949 66.415 49.8004C70.1159 50.8618 69.4417 55.3036 69.4417 55.3036C68.3244 60.3486 63.1195 60.0587 63.1195 60.0587H37.9062L38.0618 57.5573L42.7764 54.6818L43.2478 44.5357L38.802 42.4176L38.9576 40.1686H64.9441V40.1452Z" fill="white"/>
<path fill-rule="evenodd" clip-rule="evenodd" d="M23.3663 42.8853H23.9556C24.276 42.8902 24.5919 42.9599 24.8843 43.09C25.1766 43.2201 25.439 43.408 25.6557 43.6421C25.8723 43.8762 26.0386 44.1516 26.1443 44.4516C26.25 44.7516 26.2929 45.0698 26.2704 45.3867L25.799 54.4481C25.767 55.1117 25.4827 55.7387 25.0033 56.2028C24.524 56.667 23.8851 56.9338 23.2154 56.9496H22.645C22.3246 56.9446 22.0086 56.875 21.7163 56.7449C21.424 56.6147 21.1615 56.4269 20.9449 56.1928C20.7282 55.9587 20.562 55.6832 20.4563 55.3832C20.3506 55.0833 20.3077 54.7651 20.3301 54.4481L20.8016 45.3867C20.8333 44.7262 21.1149 44.1019 21.5903 43.6382C22.0657 43.1746 22.6999 42.9057 23.3663 42.8853ZM18.4019 40.1641H29.2453C33.9598 40.1641 37.6042 44.0822 37.3543 48.9215L37.2364 51.3014C36.9913 56.136 32.9603 60.0589 28.2317 60.0589H17.3883C12.6737 60.0589 9.03412 56.136 9.27927 51.3014L9.40185 48.9215C9.65172 44.0822 13.6826 40.1641 18.4066 40.1641H18.4019Z" fill="white"/>
<path d="M88.9131 52.7541C88.9098 52.2725 89.0978 51.8089 89.4364 51.4636C89.599 51.294 89.7946 51.1589 90.0114 51.0666C90.2282 50.9744 90.4616 50.9268 90.6976 50.9268C90.9335 50.9268 91.167 50.9744 91.3838 51.0666C91.6006 51.1589 91.7962 51.294 91.9587 51.4636C92.293 51.8115 92.4796 52.2736 92.4796 52.7541C92.4796 53.2347 92.293 53.6968 91.9587 54.0446C91.7962 54.2142 91.6006 54.3493 91.3838 54.4416C91.167 54.5339 90.9335 54.5815 90.6976 54.5815C90.4616 54.5815 90.2282 54.5339 90.0114 54.4416C89.7946 54.3493 89.599 54.2142 89.4364 54.0446C89.0978 53.6993 88.9098 53.2358 88.9131 52.7541ZM90.6999 52.9739H90.3039V53.6659H89.9739V51.8283H90.9168C91.0299 51.8289 91.1407 51.8596 91.2377 51.9172C91.3347 51.9748 91.4144 52.0571 91.4684 52.1556C91.5074 52.2309 91.5283 52.3141 91.5297 52.3988C91.5323 52.4874 91.5094 52.575 91.4637 52.6512C91.3904 52.782 91.2686 52.8793 91.1242 52.9224L91.5957 53.6986H91.162L90.7235 52.9739H90.6999ZM90.3039 52.6325C90.5019 52.6325 90.6669 52.6325 90.8885 52.6325H90.9215C90.9677 52.6282 91.0123 52.6137 91.0523 52.5903C91.0922 52.5669 91.1264 52.535 91.1525 52.497C91.1668 52.4711 91.1749 52.4423 91.1761 52.4128C91.1756 52.3817 91.1675 52.3512 91.1525 52.324C91.1256 52.2775 91.0862 52.2394 91.0388 52.2138C90.9914 52.1882 90.9377 52.1762 90.8838 52.179H90.3039V52.6466V52.6325ZM89.6816 51.6974C89.4123 51.9789 89.2622 52.3521 89.2622 52.7401C89.2622 53.1281 89.4123 53.5013 89.6816 53.7827C89.8135 53.9178 89.9714 54.0252 90.1459 54.0985C90.3204 54.1718 90.508 54.2096 90.6976 54.2096C90.8871 54.2096 91.0747 54.1718 91.2493 54.0985C91.4238 54.0252 91.5817 53.9178 91.7136 53.7827C91.9861 53.5029 92.1384 53.1291 92.1384 52.7401C92.1384 52.3511 91.9861 51.9772 91.7136 51.6974C91.5817 51.5624 91.4238 51.455 91.2493 51.3817C91.0747 51.3084 90.8871 51.2706 90.6976 51.2706C90.508 51.2706 90.3204 51.3084 90.1459 51.3817C89.9714 51.455 89.8135 51.5624 89.6816 51.6974Z" fill="white"/>
</svg>
