<svg width="100" height="100" viewBox="0 0 100 100" fill="none" xmlns="http://www.w3.org/2000/svg">
<g clip-path="url(#clip0_157_6901)">
<path d="M89.9288 59.3033C90.5729 59.3033 91.217 59.3033 91.864 59.3033V62.3784H92.5194C93.2401 61.3496 93.9382 60.3151 94.6844 59.2948C95.4477 59.2948 96.2138 59.2948 96.9799 59.2948C96.0587 60.5437 95.1356 61.7927 94.2106 63.0416C95.1583 64.3255 96.1202 65.5924 97.0707 66.8848C96.316 66.8678 95.5527 66.9188 94.8007 66.8622C94.0819 65.8759 93.3678 64.8867 92.6585 63.8947H91.8526V66.8848H89.9175V59.3033H89.9288ZM73.6361 59.3033C75.8436 59.3033 78.054 59.2891 80.2644 59.3033C80.2446 59.9268 80.2644 60.5532 80.2644 61.1767H77.9207C77.9207 63.0785 77.9207 64.9802 77.9207 66.882H75.9884C75.9884 64.9812 75.9884 63.0804 75.9884 61.1795C75.2081 61.1795 74.4249 61.1795 73.6446 61.1795V59.2948L73.6361 59.3033ZM39.4758 59.3033H41.4082C41.4082 60.3264 41.4082 61.3553 41.4082 62.3812H42.0608C42.7777 61.3553 43.4965 60.3283 44.2172 59.3004H46.5241C45.6019 60.5532 44.6741 61.8002 43.7547 63.053C44.7119 64.3321 45.6653 65.6113 46.6149 66.8905C45.863 66.8735 45.094 66.9273 44.3449 66.865C43.6271 65.8815 42.9262 64.881 42.2026 63.9004H41.4025V66.8905H39.4702C39.4702 64.3586 39.4702 61.8295 39.4702 59.3033H39.4758ZM84.2312 61.0888C83.8823 61.1894 83.5686 61.3858 83.326 61.6557C82.9633 62.0919 82.7812 62.6501 82.8171 63.216C82.853 63.7819 83.1041 64.3127 83.519 64.6996C83.9023 65.0156 84.3869 65.1826 84.8838 65.1701C85.3806 65.1576 85.8562 64.9664 86.2231 64.6316C86.4351 64.4166 86.6007 64.1604 86.7096 63.8789C86.8185 63.5974 86.8684 63.2965 86.8561 62.9949C86.8439 62.6934 86.7698 62.3975 86.6385 62.1257C86.5071 61.8539 86.3213 61.6119 86.0926 61.4148C85.8306 61.2165 85.5257 61.0825 85.2024 61.0234C84.8791 60.9643 84.5465 60.9819 84.2312 61.0747V61.0888ZM84.0553 59.1616C84.7469 59.0246 85.4625 59.0739 86.1287 59.3045C86.7949 59.5352 87.3877 59.9387 87.8461 60.4738C88.3745 61.115 88.6972 61.9004 88.7721 62.7275C88.847 63.5546 88.6706 64.3851 88.2661 65.1106C87.9534 65.6581 87.514 66.123 86.9848 66.4663C86.4555 66.8097 85.8517 67.0215 85.2238 67.0842C84.5958 67.1469 83.962 67.0586 83.3751 66.8267C82.7883 66.5948 82.2656 66.226 81.8506 65.7511C81.334 65.1337 81.0081 64.3796 80.9124 63.5807C80.8167 62.7817 80.9553 61.9722 81.3114 61.2504C81.5772 60.7149 81.963 60.2478 82.4389 59.8856C82.9148 59.5233 83.4679 59.2755 84.0553 59.1616ZM66.4914 60.3406C66.9287 59.8703 67.4746 59.5141 68.0815 59.3032C68.6884 59.0922 69.3378 59.0329 69.9729 59.1304C70.5557 59.2078 71.1118 59.422 71.5956 59.7555C72.0795 60.0891 72.4773 60.5324 72.7565 61.0492C72.2032 61.3751 71.6527 61.7067 71.0966 62.0326C70.5972 60.9726 69.0905 60.7119 68.1882 61.4063C67.9421 61.6084 67.7432 61.8618 67.6057 62.1488C67.4681 62.4359 67.3952 62.7495 67.3919 63.0677C67.3887 63.3859 67.4552 63.701 67.5869 63.9907C67.7186 64.2805 67.9122 64.5379 68.1541 64.745C69.0564 65.4621 70.5972 65.2268 71.1193 64.1555C71.6726 64.4842 72.2344 64.8017 72.7905 65.1304C72.4616 65.7015 71.9943 66.1809 71.4315 66.5244C70.8687 66.868 70.2285 67.0648 69.5697 67.0967C68.9108 67.1285 68.2546 66.9945 67.6612 66.7069C67.0677 66.4193 66.5562 65.9874 66.1736 65.4507C65.6606 64.6827 65.4138 63.7679 65.4712 62.8464C65.5286 61.9249 65.887 61.0477 66.4914 60.3491V60.3406ZM59.7893 61.0803C59.5457 61.2159 59.3346 61.4027 59.1704 61.6278C59.0063 61.8529 58.8931 62.111 58.8387 62.3841H62.6267C62.5304 61.9005 62.2573 61.4701 61.8606 61.1767C61.5496 60.9815 61.1932 60.87 60.8263 60.8531C60.4593 60.8362 60.0942 60.9145 59.7666 61.0803H59.7893ZM58.9806 59.4932C60.3341 58.8356 62.1018 58.966 63.2368 59.9863C63.7642 60.4775 64.1573 61.0951 64.3788 61.7806C64.6003 62.4661 64.6428 63.1967 64.5023 63.9032H58.8586C58.9266 64.1729 59.0556 64.4235 59.2356 64.6357C59.4157 64.848 59.6419 65.0162 59.8971 65.1276C60.8051 65.4989 62.0025 65.377 62.6409 64.5608C63.1592 64.865 63.6775 65.1692 64.1958 65.4734C63.748 66.1383 63.0926 66.6366 62.3316 66.8905C60.8533 67.3553 59.0742 67.0861 57.9591 65.9637C56.9121 64.9264 56.617 63.2995 56.9972 61.9079C57.1349 61.3864 57.3837 60.9007 57.7264 60.484C58.0692 60.0673 58.498 59.7293 58.9834 59.4932H58.9806ZM51.4131 61.0095C51.1014 61.0745 50.8097 61.2124 50.5618 61.4119C50.3245 61.6246 50.1347 61.8848 50.0047 62.1756C49.8748 62.4664 49.8077 62.7813 49.8077 63.0997C49.8077 63.4182 49.8748 63.7331 50.0047 64.0239C50.1347 64.3147 50.3245 64.5749 50.5618 64.7875C50.987 65.1168 51.521 65.2738 52.057 65.227C52.593 65.1803 53.0916 64.9332 53.4532 64.5353C54.1881 63.651 54.1058 62.1573 53.2035 61.4176C52.9529 61.2224 52.6622 61.0849 52.3522 61.0148C52.0422 60.9447 51.7206 60.9439 51.4102 61.0123L51.4131 61.0095ZM49.8127 60.1932C50.7037 59.0029 52.4856 58.8045 53.7625 59.4535C54.3935 59.7946 54.9214 60.2984 55.2912 60.9125C55.661 61.5267 55.8592 62.2286 55.865 62.9453C55.9069 63.683 55.7467 64.4181 55.4018 65.0718C55.0568 65.7254 54.5401 66.2728 53.9072 66.6553C52.6161 67.4035 50.7377 67.2391 49.8014 66.0034C49.8014 67.31 49.8014 68.6165 49.8014 69.9231H47.8719C47.8719 66.3803 47.8719 62.8394 47.8719 59.3004H49.8042C49.8042 59.5839 49.8042 59.8928 49.8042 60.1904L49.8127 60.1932ZM33.3725 61.0718C33.1241 61.2056 32.9086 61.3926 32.7413 61.6195C32.574 61.8464 32.4591 62.1075 32.4049 62.3841C33.6761 62.3841 34.9586 62.3841 36.2128 62.3841C36.1259 61.9495 35.8974 61.5558 35.563 61.2646C35.2512 61.0335 34.8814 60.8934 34.4946 60.8598C34.1079 60.8263 33.7194 60.9007 33.3725 61.0747V61.0718ZM32.263 59.6547C33.6108 58.8526 35.4722 58.8952 36.7008 59.9098C37.2613 60.3933 37.6835 61.0165 37.9242 61.7161C38.165 62.4156 38.2157 63.1664 38.0713 63.8919C36.1986 63.9372 34.3117 63.8919 32.4333 63.9117C32.5017 64.1798 32.6302 64.4288 32.8092 64.6399C32.9881 64.851 33.2127 65.0188 33.4661 65.1304C34.3769 65.5102 35.58 65.3855 36.2184 64.5636C36.7386 64.8678 37.2569 65.172 37.7734 65.4762C37.3301 66.1299 36.6856 66.6214 35.9375 66.8763C34.4819 67.344 32.7312 67.0974 31.599 66.0261C30.6059 65.0908 30.2484 63.6198 30.4868 62.3019C30.5733 61.7574 30.7769 61.238 31.0835 60.7796C31.3901 60.3212 31.7925 59.9345 32.263 59.6462V59.6547ZM25.1693 60.9868C24.8316 61.0187 24.5078 61.1375 24.2298 61.3318C23.9518 61.526 23.729 61.789 23.5832 62.095C23.4038 62.4881 23.3354 62.9227 23.3854 63.3518C23.4354 63.7809 23.6019 64.1882 23.8669 64.5296C24.2274 64.9292 24.726 65.1776 25.2624 65.2249C25.7988 65.2722 26.3333 65.1149 26.7583 64.7847C26.9926 64.5755 27.1808 64.3199 27.311 64.0343C27.4413 63.7487 27.5107 63.4391 27.515 63.1253C27.5192 62.8114 27.4582 62.5001 27.3358 62.2111C27.2134 61.922 27.0322 61.6615 26.8037 61.446C26.5774 61.2582 26.3145 61.1195 26.0317 61.0385C25.7489 60.9575 25.4524 60.936 25.1608 60.9755L25.1693 60.9868ZM23.3789 60.2046C24.267 59.0199 26.0319 58.813 27.3088 59.4507C27.9434 59.7897 28.475 60.2931 28.8479 60.9079C29.2209 61.5227 29.4213 62.2264 29.4284 62.9453C29.4993 64.4191 28.7616 65.958 27.4422 66.6808C26.1227 67.4035 24.2869 67.2476 23.359 66.0091C23.359 67.3156 23.359 68.6222 23.359 69.9316C22.7149 69.9316 22.0708 69.9316 21.4267 69.9316C21.4267 66.3907 21.4267 62.8517 21.4267 59.3146H23.359C23.359 59.598 23.359 59.9098 23.359 60.2074L23.3789 60.2046ZM15.3318 61.086C15.0845 61.2171 14.8688 61.4007 14.7002 61.624C14.5315 61.8473 14.414 62.1048 14.3558 62.3784H18.1665C18.0729 61.9323 17.8284 61.532 17.4741 61.2447C17.1621 61.0269 16.7968 60.8976 16.4171 60.8706C16.0373 60.8437 15.6574 60.9201 15.3177 61.0917L15.3318 61.086ZM14.0295 59.7823C15.4198 58.8271 17.4685 58.8498 18.7567 59.9835C19.8633 60.9301 20.2917 62.4975 20.042 63.9061C18.1608 63.9061 16.2796 63.9061 14.4012 63.9061C14.4633 64.1529 14.5768 64.384 14.7342 64.5842C14.8916 64.7844 15.0894 64.9493 15.3148 65.0681C16.2427 65.5244 17.5139 65.4054 18.1949 64.5721C18.7028 64.8867 19.2249 65.1758 19.7384 65.4847C19.2954 66.1375 18.6522 66.6288 17.9054 66.8848C16.4867 67.3411 14.7842 67.1172 13.6492 66.0998C13.2127 65.6878 12.8739 65.1837 12.6574 64.6242C12.4409 64.0647 12.3522 63.464 12.3979 62.8659C12.4141 62.2595 12.5706 61.665 12.8551 61.1291C13.1396 60.5931 13.5445 60.1302 14.038 59.7766L14.0295 59.7823ZM61.9088 56.4832C62.1167 56.4356 62.3342 56.4537 62.5313 56.5351C62.7284 56.6166 62.8952 56.7572 63.0086 56.9376C63.122 57.118 63.1763 57.3292 63.1641 57.5419C63.152 57.7545 63.0738 57.9581 62.9405 58.1244C62.8072 58.2907 62.6255 58.4114 62.4204 58.4699C62.2153 58.5283 61.9971 58.5215 61.7961 58.4504C61.595 58.3794 61.4211 58.2476 61.2984 58.0734C61.1758 57.8991 61.1104 57.6911 61.1115 57.478C61.1156 57.2475 61.1961 57.0249 61.3404 56.8449C61.4847 56.6649 61.6846 56.5377 61.9088 56.4832ZM59.0458 56.4832C59.307 56.4219 59.5817 56.4666 59.8099 56.6074C60.0381 56.7482 60.2011 56.9736 60.2631 57.2343C60.2946 57.3631 60.3004 57.4968 60.2801 57.6278C60.2599 57.7588 60.214 57.8846 60.1451 57.9979C60.0762 58.1112 59.9856 58.2098 59.8786 58.2881C59.7715 58.3665 59.65 58.423 59.5211 58.4544C59.3922 58.4859 59.2583 58.4917 59.1272 58.4714C58.996 58.4512 58.8701 58.4054 58.7567 58.3366C58.6433 58.2677 58.5445 58.1773 58.4661 58.0703C58.3877 57.9634 58.3311 57.8421 58.2996 57.7133C58.2421 57.4518 58.2876 57.1782 58.4265 56.9492C58.5654 56.7202 58.7872 56.5534 59.0458 56.4832ZM3.30667 56.4521C5.91146 56.4521 8.51625 56.4521 11.121 56.4521C11.121 59.9363 11.121 63.4176 11.121 66.8962C10.4315 66.8962 9.74204 66.8962 9.05254 66.8962V58.4105H5.36383C5.36383 61.2447 5.36383 64.0723 5.36383 66.8933H3.29248C3.29248 63.4129 3.29248 59.9315 3.29248 56.4492L3.30667 56.4521Z" fill="white"/>
<path d="M47.4094 26.5457C47.9132 26.1617 48.4914 25.8865 49.1073 25.7375C49.7233 25.5886 50.3635 25.5692 50.9873 25.6806C51.6111 25.792 52.2049 26.0318 52.7311 26.3847C53.2572 26.7376 53.7041 27.1958 54.0434 27.7304C54.4647 28.3951 54.7154 29.1533 54.7733 29.9379C54.8312 30.7224 54.6946 31.5092 54.3754 32.2284C54.0806 32.8583 53.6651 33.4245 53.1525 33.8949C52.1593 34.8982 51.1662 35.9072 50.1816 36.9077C49.0835 35.8052 47.9968 34.6941 46.9072 33.586C46.444 33.1072 46.0869 32.5363 45.8592 31.9105C45.6315 31.2847 45.5384 30.6181 45.5857 29.9539C45.6331 29.2898 45.82 28.6431 46.1342 28.0558C46.4484 27.4686 46.8829 26.9541 47.4094 26.5457Z" fill="white"/>
<path d="M46.9358 42.8681L50.179 39.5747C51.3396 40.7566 52.5199 41.9214 53.6606 43.126C54.3828 43.9856 54.7786 45.0719 54.7786 46.194C54.7786 47.3162 54.3828 48.4025 53.6606 49.2621C52.9739 50.0669 52.0293 50.6092 50.9874 50.7968C49.9455 50.9844 48.8707 50.8056 47.9459 50.2909C47.283 49.914 46.7219 49.3817 46.3111 48.7397C45.9003 48.0978 45.6521 47.3656 45.588 46.6064C45.5297 45.9231 45.62 45.2353 45.8526 44.59C46.0852 43.9448 46.4547 43.3574 46.9358 42.8681Z" fill="white"/>
<path d="M38.531 35.6185C38.9034 35.0522 39.3972 34.5758 39.9767 34.2237C40.5562 33.8715 41.2068 33.6525 41.8815 33.5826C42.5561 33.5126 43.2379 33.5933 43.8775 33.819C44.517 34.0446 45.0983 34.4095 45.5793 34.8873C46.6774 35.9983 47.7698 37.1178 48.8707 38.2288C47.6989 39.4135 46.5497 40.6124 45.358 41.7773C44.5076 42.5156 43.4149 42.9156 42.2883 42.901C41.1616 42.8863 40.0798 42.4581 39.2489 41.6979C38.4343 40.9297 37.9161 39.8998 37.7848 38.7884C37.6536 37.6771 37.9177 36.555 38.531 35.6185Z" fill="white"/>
<path d="M54.7984 34.886C55.2727 34.4158 55.8446 34.0553 56.4736 33.8301C57.1027 33.6048 57.7736 33.5202 58.4389 33.5822C59.197 33.6583 59.9244 33.9208 60.5561 34.3461C61.1879 34.7714 61.7044 35.3464 62.0595 36.0197C63.1605 38.0036 62.5532 40.75 60.6748 42.0537C59.8195 42.6672 58.7788 42.9678 57.7276 42.9048C56.6765 42.8418 55.6792 42.4192 54.9034 41.708C53.7514 40.5743 52.6335 39.3924 51.4814 38.2474C52.5881 37.1194 53.6947 36.0197 54.7984 34.886Z" fill="white"/>
</g>
<defs>
<clipPath id="clip0_157_6901">
<rect width="100" height="100" fill="white"/>
</clipPath>
</defs>
</svg>
