<svg width="100" height="100" viewBox="0 0 100 100" fill="none" xmlns="http://www.w3.org/2000/svg">
<path d="M65.6621 75.2607V82.5492H68.8768V79.8809H72.4039V78.2871H68.8768V76.8605H75.877V82.5492H79.0917V76.8605H82V75.2607H65.6621Z" fill="white"/>
<path d="M58.7757 80.9673V79.7019H62.9638V78.1081H58.7757V76.8605H64.1536V75.2607H55.561V82.5492H64.2197V80.9673H58.7757Z" fill="white"/>
<path d="M24.898 75.2607H15.999V76.8605H18.8472V82.5492H22.0559V76.8605H24.898V75.2607Z" fill="white"/>
<path d="M31.2434 75.2607H27.8003L23.7925 82.5492H25.8775L26.5385 81.2956H31.0391L31.694 82.5492H35.2512L31.2434 75.2607ZM27.3316 79.8093L28.8158 76.9918L30.2399 79.8093H27.3316Z" fill="white"/>
<path d="M51.6193 75.2607V78.902L46.4818 75.2607H43.9941V82.5492H46.1934V78.5379L51.463 82.5492H53.8185V75.2607H51.6193Z" fill="white"/>
<path d="M42.9012 75.2607H34.1885V76.8605H37.0306V82.5492H40.2453V76.8605H42.9012V75.2607Z" fill="white"/>
<path d="M57.4119 29.8049C60.7107 38.12 55.3329 43.4565 49.9731 48.799C44.9918 54.2668 40.5994 59.9436 49.4323 70.1629C46.1335 61.8477 51.5113 56.5292 56.8651 51.1569C61.8524 45.689 66.2448 40.0123 57.4119 29.793" fill="white"/>
<path d="M49.4318 19.168C52.7366 27.4891 47.3527 32.8196 41.9989 38.1621C37.0116 43.6359 32.6192 49.3066 41.4581 59.514C38.1834 51.2108 43.5312 45.8743 48.891 40.5319C53.8783 35.064 58.2707 29.3873 49.4318 19.168Z" fill="white"/>
</svg>
