<svg width="100" height="100" viewBox="0 0 100 100" fill="none" xmlns="http://www.w3.org/2000/svg">
<g clip-path="url(#clip0_157_6901)">
<path fill-rule="evenodd" clip-rule="evenodd" d="M7.39591 67.0531H3.62891V64.73H13.9138V67.0531H10.1422V73.4326H7.39591V67.0531Z" fill="white"/>
<path fill-rule="evenodd" clip-rule="evenodd" d="M24.459 64.73V73.4326H21.8043V68.3702L17.2317 73.4326H14.8882V64.73H17.5429V69.7924L22.1155 64.73H24.459Z" fill="white"/>
<path fill-rule="evenodd" clip-rule="evenodd" d="M29.0312 73.4326H26.3765V64.73H29.0312V67.9129H33.2971V64.73H35.9519V73.4326H33.2971V70.1994H29.0312V73.4326Z" fill="white"/>
<path fill-rule="evenodd" clip-rule="evenodd" d="M40.5254 71.3335H42.8139C43.1673 71.3662 43.5236 71.321 43.8575 71.2009C44.0594 71.1178 44.2318 70.9763 44.3525 70.7946C44.4732 70.6129 44.5368 70.3992 44.535 70.1811C44.5381 69.9685 44.4719 69.7608 44.3464 69.5892C44.2209 69.4175 44.0429 69.2914 43.8392 69.2299C43.506 69.1363 43.1594 69.0992 42.8139 69.1201H40.5254V71.3335ZM37.8706 73.4325V64.7437H40.5254V67.0851H43.2717C43.9275 67.0511 44.5842 67.1316 45.2124 67.3229C45.8154 67.5263 46.336 67.9199 46.6959 68.4444C47.0558 68.969 47.2355 69.596 47.208 70.2314C47.23 70.9197 47.0147 71.5946 46.598 72.1432C46.1814 72.6919 45.5888 73.0808 44.9194 73.245C44.3762 73.3895 43.8154 73.4572 43.2534 73.4463L37.8706 73.4325Z" fill="white"/>
<path fill-rule="evenodd" clip-rule="evenodd" d="M51.062 73.4326H48.4072V64.73H51.062V68.0043H51.7943L54.9983 64.73H58.3305L54.0829 68.9006L58.4953 73.4326H54.9617L51.7943 70.1445H51.062V73.4326Z" fill="white"/>
<path fill-rule="evenodd" clip-rule="evenodd" d="M66.9354 69.1014C66.9354 67.6746 65.782 66.6319 64.0244 66.6319C62.2667 66.6319 61.1133 67.6746 61.1133 69.1014C61.1133 70.5282 62.2484 71.5846 64.0244 71.5846C65.8003 71.5846 66.9354 70.5282 66.9354 69.1014ZM69.7184 69.1014C69.7184 71.6943 67.5763 73.7065 64.0244 73.7065C60.4725 73.7065 58.335 71.6943 58.335 69.1014C58.335 66.5084 60.4771 64.4917 64.0473 64.4917C67.6174 64.4917 69.7184 66.513 69.7184 69.1014Z" fill="white"/>
<path fill-rule="evenodd" clip-rule="evenodd" d="M81.1053 69.0847C81.1053 67.9139 80.3181 67.0725 78.4689 66.9993V71.0877C80.2998 71.0145 81.1053 70.2645 81.1053 69.0984V69.0847ZM75.8141 66.9993C73.9833 67.0725 73.1777 67.9139 73.1777 69.0847C73.1777 70.2554 73.9833 71.0008 75.8141 71.074V66.9993ZM83.815 69.0847C83.815 71.5679 81.8194 72.8666 78.4689 72.9398V73.8315H75.8141V72.9535C72.482 72.8803 70.4863 71.5816 70.4863 69.0984C70.4863 66.6152 72.482 65.2021 75.8141 65.1289V64.228H78.4735V65.1061C81.8194 65.1884 83.815 66.5969 83.815 69.0847Z" fill="white"/>
<path fill-rule="evenodd" clip-rule="evenodd" d="M95.2033 69.0847C95.2033 67.9139 94.416 67.0725 92.5669 66.9993V71.0877C94.3977 71.0145 95.2033 70.2645 95.2033 69.0984V69.0847ZM89.9167 66.9993C88.0858 67.0725 87.2802 67.9139 87.2802 69.0847C87.2802 70.2554 88.0858 71.0008 89.9167 71.0877V67.013V66.9993ZM97.9176 69.0847C97.9176 71.5679 95.9219 72.8666 92.5714 72.9398V73.8315H89.9167V72.9535C86.5845 72.8803 84.5889 71.5816 84.5889 69.0984C84.5889 66.6152 86.5845 65.2021 89.9167 65.1289V64.228H92.5714V65.1061C95.9174 65.1884 97.913 66.5969 97.913 69.0847H97.9176Z" fill="white"/>
<path fill-rule="evenodd" clip-rule="evenodd" d="M40.9412 47.6995L40.5201 48.4083C40.355 47.9609 40.1561 47.5268 39.9251 47.1095C39.5864 47.8046 39.0555 47.8184 38.552 47.8229C38.6664 46.1629 36.5792 44.4937 37.4946 42.6004C37.5416 42.5104 37.5703 42.4119 37.5791 42.3108C37.5879 42.2096 37.5767 42.1077 37.5461 42.0109C37.5155 41.9141 37.4661 41.8242 37.4007 41.7464C37.3354 41.6687 37.2553 41.6046 37.1651 41.5578C35.7645 40.849 36.4144 43.794 35.0138 43.8809C35.2079 43.5405 35.3469 43.1717 35.4258 42.7879C35.1282 42.8657 34.4142 43.3184 34.0938 42.7376C34.4212 42.559 34.7 42.3032 34.9058 41.9923C35.1116 41.6815 35.2383 41.3251 35.2747 40.9541C35.3441 40.4079 35.4794 39.872 35.6775 39.3581C35.9751 38.839 36.3231 38.3503 36.7165 37.8993C36.5746 37.8993 35.0001 38.2514 34.6476 38.0868C37.3711 36.4176 36.7577 34.2911 40.9092 32.3979C39.8198 31.593 38.7076 30.9482 39.504 29.4025C40.6437 30.7744 42.8042 30.3171 43.9713 29.6631C42.8179 29.4345 41.3303 28.4193 40.9779 27.2897C41.4356 27.2211 41.9757 27.6921 42.3007 27.9116C42.4563 27.4955 42.5158 26.997 43.0239 26.9056C42.351 28.3461 43.683 29.0961 44.9508 29.1052C45.1477 29.1052 45.9715 29.0229 45.9715 29.0229C45.8434 28.7531 45.3079 28.0123 45.6969 27.715C46.023 27.9936 46.3637 28.2547 46.7176 28.497C49.1893 30.4086 45.5413 32.1829 44.0491 32.9878C41.7056 34.25 42.3327 35.7545 43.3122 36.1387C43.3122 36.3079 43.2024 36.3856 43.0422 36.4359C42.3556 36.6646 41.7148 36.1798 41.1701 35.8643C41.2021 36.8109 41.1381 37.7164 42.1817 38.2331L41.463 38.4984C42.081 38.9557 42.2686 39.2164 43.0147 39.3124C42.6444 39.4522 42.2525 39.5264 41.8567 39.5319C41.9287 39.8322 42.051 40.1183 42.2183 40.3779C40.6941 40.5608 40.0853 39.692 39.6139 39.7285C38.6115 39.8017 38.671 41.6904 41.1472 41.695L40.8909 42.1157C41.1746 42.2776 41.4844 42.389 41.8063 42.445C41.6459 42.5893 41.4931 42.7419 41.3486 42.9023L41.7423 43.2407C40.7353 43.4236 40.4469 42.3489 39.7924 42.8657C38.7946 43.6614 40.9962 45.3306 43.1108 45.0791C42.8363 45.3493 42.5393 45.5956 42.2229 45.8153C43.9439 47.4388 43.0925 48.9708 43.802 50.0912C43.131 50.0533 42.4901 49.8001 41.9747 49.3692C41.4593 48.9383 41.0969 48.3527 40.9412 47.6995ZM42.8728 45.8702C43.3305 45.4906 43.747 45.3032 43.7287 44.3885C43.0101 44.7544 40.9824 44.7315 40.1265 43.5654C39.8839 43.2315 40.1265 43.0669 40.3737 43.3276C40.955 43.9861 42.0352 43.6843 42.4288 43.4968C42.3553 43.2524 42.2233 43.0295 42.0443 42.8474C42.1908 42.7056 42.6073 42.4907 42.6943 42.1157C42.3394 42.0093 41.9742 41.9404 41.6049 41.9099C41.7179 41.8111 41.7985 41.6806 41.836 41.5354C41.8736 41.3902 41.8664 41.237 41.8155 41.0959C40.9321 41.3703 39.8427 40.9999 39.5956 40.6752C39.3484 40.3505 39.5956 40.0532 39.8061 40.2636C40.2638 40.7209 42.4105 41.256 43.2161 40.4511C42.9314 40.3693 42.6859 40.1874 42.5249 39.9389C43.271 39.8612 43.8661 39.4221 43.8981 38.8734C43.4019 38.9079 42.9042 38.8297 42.4426 38.6447C42.6081 38.6099 42.7608 38.5299 42.8836 38.4137C43.0064 38.2974 43.0945 38.1495 43.1383 37.9862C41.7651 37.9039 41.6644 36.8886 41.6599 36.724C42.5478 37.2362 44.1086 37.0075 43.7059 35.7454C42.9689 35.7088 42.2229 34.5152 44.2551 33.4131C46.086 32.4162 48.2006 31.3415 48.0175 29.5671C47.894 28.433 46.0265 27.6601 45.7885 27.0839C45.0103 27.4543 44.873 27.8888 45.2026 28.6068C45.2026 28.6068 43.4633 28.7805 43.3259 27.6921C43.3253 27.4488 43.3797 27.2085 43.4851 26.9891C43.5906 26.7698 43.7442 26.577 43.9347 26.4254C43.7379 26.4254 42.4288 26.0733 42.0352 27.1388C41.2983 26.6403 40.662 26.6586 40.1769 27.1845C40.9641 27.6418 41.4539 29.2607 42.7584 29.7317C41.8429 30.2348 40.3279 30.0244 39.4537 28.4787C38.6527 29.7455 38.1949 30.9802 39.9572 32.3018C36.7211 33.7698 36.7531 36.5822 33.9336 37.9222C34.2174 38.6859 34.8216 38.6859 35.586 38.567C34.3684 40.1493 35.4075 41.8002 33.4805 42.477C33.659 43.1218 34.0206 43.634 34.7346 43.4465C34.5332 43.762 34.3959 43.7529 34.0847 44.1004C35.1374 44.7635 36.3732 44.2834 36.6662 42.1569C36.7165 41.7773 37.2429 42.0151 37.0598 42.3855C35.8606 44.8641 38.8907 46.73 37.8196 48.5501C38.7671 48.5089 39.4857 48.4357 39.8839 48.0927C40.0804 48.4372 40.1726 48.8311 40.1494 49.2269C40.3455 49.2088 40.5288 49.1216 40.6663 48.9808C40.8039 48.84 40.8867 48.6549 40.9001 48.4586C41.2433 49.4555 42.4654 50.5211 44.429 50.5211C43.39 49.0668 44.3558 47.5623 42.8865 45.8702H42.8728Z" fill="white"/>
<path fill-rule="evenodd" clip-rule="evenodd" d="M38.2361 41.7676C38.5931 42.1426 39.0279 42.1792 39.8518 42.1289C38.9364 42.0191 38.4421 41.7996 38.1262 41.2143C38.078 40.8853 38.0474 40.5541 38.0347 40.2219C38.0607 39.053 38.3852 37.9101 38.9776 36.9018C39.0069 37.4373 39.2207 37.9463 39.5828 38.3422C39.9448 38.7381 40.4329 38.9967 40.9641 39.074C39.7282 38.5344 39.0005 37.318 39.3941 36.1427C39.655 35.7311 39.9434 35.3058 40.2683 34.8759C40.4331 34.6656 40.5888 34.4644 40.7261 34.2814C40.5613 34.8805 41.2891 35.4979 41.7742 35.6031C41.5088 35.347 40.9458 34.5101 42.232 33.1153C41.853 33.2951 41.494 33.5143 41.1609 33.7692C43.5319 31.2083 45.4817 31.1351 46.3789 29.8501C45.0789 30.7373 41.6461 31.222 40.099 30.7967C40.9549 31.3638 43.0055 31.3135 43.509 31.2037C41.8566 32.8501 38.1949 34.5284 37.5816 36.0238C38.1621 35.3323 38.9448 34.8397 39.8198 34.6153C39.2215 35.4381 38.7078 36.319 38.2864 37.2448C37.3161 39.353 35.9979 39.3804 35.9292 41.1228C36.3869 39.7509 37.2749 39.4307 37.8974 38.5436C37.7754 39.1701 37.7217 39.8079 37.7372 40.446C37.7599 41.1722 37.915 41.8882 38.1949 42.5587C38.1308 43.4185 38.1949 44.8865 39.1973 45.8605C38.6462 45.0471 38.3806 44.0741 38.4421 43.0938C39.2156 44.5846 41.4172 46.6425 42.4837 48.0236C41.3989 46.2447 38.7945 44.1685 38.2361 41.7676Z" fill="white"/>
<path fill-rule="evenodd" clip-rule="evenodd" d="M62.6274 34.6165C63.5024 34.841 64.2851 35.3335 64.8656 36.025C64.234 34.5296 60.5768 32.8513 58.9153 31.2233C59.4188 31.333 61.4694 31.3833 62.3207 30.8163C60.7782 31.2324 57.3453 30.7568 56.0454 29.8696C56.9608 31.1547 58.8924 31.2416 61.2634 33.7888C60.9219 33.5306 60.5536 33.3098 60.1649 33.1302C61.4694 34.525 60.9064 35.3619 60.6226 35.618C61.1078 35.5128 61.8355 34.8955 61.6707 34.2964C61.8264 34.4793 61.982 34.6805 62.1285 34.8909C62.4534 35.3208 62.7418 35.7461 62.9981 36.1576C63.3963 37.3329 62.6686 38.5494 61.4327 39.089C61.9695 39.0114 62.462 38.7484 62.8249 38.3458C63.1878 37.9431 63.3981 37.4262 63.4192 36.8848C64.009 37.8942 64.3333 39.0364 64.3621 40.2048C64.3494 40.537 64.3189 40.8683 64.2706 41.1972C63.9548 41.7963 63.4467 42.0158 62.5496 42.1118C63.3689 42.1621 63.7991 42.1118 64.1607 41.7505C63.5977 44.1514 60.9887 46.2276 59.9223 48.0065C60.9887 46.6346 63.1904 44.5676 63.9639 43.0767C64.0254 44.0571 63.7598 45.0301 63.2087 45.8435C64.1973 44.8694 64.2752 43.4014 64.2111 42.5417C64.4763 41.8727 64.6204 41.162 64.6368 40.4426C64.6652 39.8008 64.6192 39.1578 64.4994 38.5265C65.1219 39.4137 66.0236 39.7521 66.4676 41.1057C66.3806 39.3634 65.0945 39.3359 64.1058 37.2277C63.7027 36.3096 63.2074 35.4347 62.6274 34.6165Z" fill="white"/>
<path fill-rule="evenodd" clip-rule="evenodd" d="M67.0304 42.7872C67.1054 43.1728 67.243 43.5436 67.4378 43.8848C66.0372 43.7933 66.6872 40.8482 65.2865 41.5571C65.1959 41.6034 65.1154 41.6673 65.0497 41.745C64.984 41.8226 64.9343 41.9126 64.9037 42.0096C64.873 42.1066 64.8619 42.2087 64.8711 42.31C64.8802 42.4113 64.9094 42.5098 64.957 42.5997C65.8724 44.493 63.7852 46.1622 63.9042 47.8222C63.387 47.8222 62.8515 47.8222 62.5311 47.1088C62.2982 47.5251 62.0992 47.9594 61.9361 48.4076L61.515 47.6987C61.3517 48.3443 60.986 48.9208 60.4712 49.3437C59.9565 49.7667 59.3197 50.0139 58.6542 50.0493C59.3591 48.9289 58.5123 47.3969 60.2333 45.7735C59.9169 45.5537 59.6199 45.3074 59.3454 45.0372C61.46 45.2887 63.6616 43.6195 62.6592 42.8238C62.0093 42.3071 61.7438 43.3817 60.714 43.1988L61.1076 42.8604C60.9703 42.7232 60.8055 42.5449 60.6499 42.4031C60.9718 42.3472 61.2816 42.2358 61.5653 42.0738L61.309 41.6531C63.7852 41.6531 63.8447 39.7598 62.8423 39.6867C62.3846 39.6501 61.7575 40.519 60.2333 40.3406C60.4028 40.0799 60.5266 39.7922 60.5995 39.49C60.2078 39.4894 59.8192 39.4213 59.4507 39.2888C60.1967 39.1928 60.3661 38.9413 61.0023 38.4748L60.2883 38.2096C61.3273 37.6928 61.2632 36.7827 61.2953 35.8407C60.7506 36.1562 60.1052 36.641 59.4232 36.4123C59.263 36.362 59.1577 36.2843 59.1531 36.1151C60.1326 35.7309 60.7551 34.2264 58.4162 32.9642C56.9241 32.1593 53.2761 30.385 55.7477 28.4734C56.1017 28.2311 56.4424 27.9701 56.7684 27.6914C57.1529 27.9887 56.6265 28.7295 56.4892 28.9993C56.4892 28.9993 57.3131 29.0816 57.5099 29.0816C58.7824 29.0816 60.1189 28.3225 59.4415 26.882C59.9496 26.9872 60.0091 27.4719 60.1647 27.8881C60.4897 27.6686 61.0527 27.1975 61.4875 27.2661C61.1351 28.3957 59.6566 29.4109 58.494 29.6396C59.6612 30.2752 61.8216 30.7463 62.9568 29.3789C63.7578 30.9246 62.6455 31.5694 61.5561 32.3743C65.7076 34.2675 65.0943 36.3895 67.8177 38.0632C67.4653 38.2278 65.8861 37.894 65.7443 37.8757C66.1418 38.3245 66.4915 38.8134 66.7878 39.3345C66.9838 39.8491 67.119 40.3847 67.1906 40.9306C67.2271 41.3015 67.3537 41.6579 67.5596 41.9687C67.7654 42.2796 68.0441 42.5355 68.3715 42.7141C68.0511 43.2948 67.3371 42.8421 67.0442 42.7644L67.0304 42.7872ZM66.8702 38.5663C67.6346 38.6852 68.2434 38.6852 68.5226 37.9215C65.7076 36.5815 65.7305 33.7691 62.499 32.3011C64.275 30.9795 63.7944 29.7447 62.9568 28.4963C62.0825 30.042 60.5766 30.2524 59.6521 29.7493C60.9565 29.292 61.4463 27.6731 62.2336 27.2021C61.7392 26.6762 61.1076 26.6579 60.3752 27.1564C59.977 26.0908 58.6725 26.443 58.4757 26.443C58.6656 26.5949 58.8186 26.7877 58.9232 27.0071C59.0279 27.2265 59.0814 27.4667 59.0799 27.7097C58.9472 28.7798 57.2078 28.6243 57.2078 28.6243C57.5557 27.9064 57.4001 27.4719 56.622 27.1015C56.384 27.6777 54.5165 28.4506 54.3975 29.5847C54.2098 31.3591 56.3107 32.4337 58.1553 33.4307C60.1876 34.5328 59.4415 35.7172 58.7046 35.7629C58.2972 37.0251 59.8626 37.2538 60.7506 36.7416C60.7506 36.9062 60.6361 37.9215 59.2721 38.0038C59.3159 38.167 59.4041 38.315 59.5269 38.4313C59.6497 38.5475 59.8023 38.6275 59.9679 38.6623C59.5062 38.8473 59.0086 38.9255 58.5123 38.8909C58.5627 39.4397 59.1577 39.8787 59.8855 39.9565C59.7274 40.1932 59.4907 40.3665 59.2172 40.4458C60.0228 41.2507 62.1878 40.7202 62.6272 40.2583C62.8286 40.0479 63.0849 40.3498 62.8378 40.6699C62.5906 40.99 61.5012 41.365 60.6178 41.0906C60.5676 41.2314 60.5604 41.384 60.597 41.5289C60.6337 41.6738 60.7126 41.8046 60.8238 41.9046C60.456 41.9352 60.0924 42.0041 59.739 42.1104C59.8214 42.4854 60.2425 42.7003 60.389 42.8421C60.21 43.0242 60.078 43.2471 60.0045 43.4915C60.4027 43.679 61.4783 43.9808 62.0551 43.3223C62.2931 43.0616 62.5494 43.2263 62.3068 43.5601C61.4554 44.7262 59.4232 44.7445 58.7046 44.3832C58.6817 45.2979 59.0799 45.4854 59.5559 45.8649C58.0867 47.557 59.057 49.0661 58.018 50.5386C59.977 50.5386 61.222 49.4731 61.547 48.4762C61.5593 48.6721 61.6412 48.8572 61.778 48.998C61.9148 49.1389 62.0975 49.2263 62.2931 49.2445C62.2744 48.8491 62.3664 48.4564 62.5585 48.1103C62.9568 48.4304 63.68 48.5036 64.6229 48.5676C63.5518 46.7384 66.5865 44.8817 65.3872 42.4031C65.2042 42.0327 65.7305 41.7949 65.7809 42.1744C66.0601 44.3009 67.3096 44.7811 68.3624 44.118C68.0466 43.7704 67.9047 43.7796 67.7124 43.4641C68.4219 43.6515 68.7835 43.1394 68.9666 42.4946C67.0304 41.8177 68.0786 40.1486 66.8611 38.5663H66.8702Z" fill="white"/>
<path fill-rule="evenodd" clip-rule="evenodd" d="M47.2722 46.305L47.849 45.8476C47.8859 45.8089 47.9308 45.7786 47.9806 45.7589C48.0304 45.7392 48.0838 45.7304 48.1373 45.7333L48.9521 45.8431C48.9903 45.9792 49.0489 46.1087 49.126 46.2272L48.2609 46.0443C48.2126 46.033 48.1623 46.0338 48.1144 46.0466C48.0665 46.0593 48.0225 46.0837 47.9863 46.1175L47.5743 46.4284C47.5384 46.4615 47.515 46.5061 47.5083 46.5545C47.5017 46.6029 47.512 46.6521 47.5377 46.6937L47.6064 46.8354L47.318 47.0549L47.2082 46.8446C47.0983 46.6251 47.0892 46.4239 47.2722 46.2867V46.305ZM48.595 44.773C48.6912 44.7044 49.3137 44.9376 49.3503 44.4254C49.4189 44.805 48.9566 45.619 49.2358 46.0763L49.6066 46.6799L48.3891 46.7028C48.3389 46.7014 48.2894 46.715 48.2469 46.7419C48.2045 46.7688 48.1711 46.8077 48.1511 46.8537L47.8307 47.5168C47.7946 47.5887 47.7781 47.6689 47.7829 47.7492C47.7878 47.8295 47.8137 47.9071 47.8581 47.9741L48.0732 48.2165C48.1799 48.1228 48.2603 48.0031 48.3067 47.869L48.2151 47.7683C48.1795 47.7411 48.1558 47.7011 48.149 47.6568C48.1422 47.6125 48.1527 47.5672 48.1785 47.5305L48.3753 47.1235C48.3836 47.0901 48.3992 47.059 48.4209 47.0323C48.4427 47.0056 48.4701 46.9841 48.5011 46.9692C48.5322 46.9543 48.5661 46.9465 48.6006 46.9463C48.635 46.9461 48.6691 46.9536 48.7003 46.9681L49.6844 47.183C49.7531 47.183 49.8721 47.2333 49.9407 47.1144C49.9988 47.0256 50.0844 46.9583 50.1845 46.9227C50.2845 46.8872 50.3934 46.8855 50.4946 46.9178C51.0347 47.0001 52.2842 47.1281 52.7282 46.6114C53.25 47.3019 54.2707 47.3019 54.2066 47.6632L53.9915 48.8567H54.3165L54.5133 47.6403C54.5133 47.4985 54.6232 47.3019 54.4675 47.183C54.4035 47.1327 54.376 47.1098 54.2341 46.8674C54.051 46.5428 54.0602 46.0534 53.8771 45.6373C53.9326 45.5539 54.0107 45.4882 54.1023 45.4477C54.194 45.4071 54.2953 45.3936 54.3943 45.4086C54.7513 45.4909 54.852 46.1129 55.3647 46.6205C55.3248 46.3842 55.2556 46.1537 55.1587 45.9345C55.3627 46.0891 55.5209 46.2962 55.6164 46.5336C55.6255 46.6281 55.6573 46.7191 55.7091 46.7987C55.7609 46.8783 55.8312 46.9442 55.9139 46.9909C56.0329 47.0367 56.1794 46.9909 56.3213 46.8034C56.3213 46.8034 55.9872 46.3461 55.74 46.0123C55.5918 45.7697 55.3851 45.5682 55.1388 45.426C54.8926 45.2838 54.6146 45.2055 54.3302 45.1983C54.129 45.2274 53.9367 45.3008 53.7672 45.4132C53.0715 45.0199 52.5268 45.4132 52.3071 45.4132L50.9935 45.3355C50.8061 45.2956 50.6417 45.184 50.5358 45.0245C50.5473 44.6618 50.4301 44.3067 50.2047 44.0221C49.9794 43.7375 49.6605 43.5418 49.3045 43.4696C49.3045 43.4696 49.332 43.273 49.2496 43.1998L48.9749 43.5474L48.2151 43.2684L48.8102 43.7577L48.1648 44.5077C48.139 44.5358 48.1229 44.5713 48.1187 44.6092C48.1146 44.647 48.1227 44.6852 48.1419 44.7181L48.206 44.8004C48.2975 44.9147 48.3525 44.8873 48.4532 44.8233L48.6042 44.7455L48.595 44.773ZM53.6711 47.5809L53.1447 48.875H52.8152L53.3416 47.622C53.3965 47.462 53.2912 47.3842 53.1631 47.2059C53.3455 47.3135 53.537 47.4053 53.7352 47.4802C53.7102 47.5113 53.6887 47.5451 53.6711 47.5809ZM47.2631 47.4345L47.8581 46.9315L47.7666 46.7531C47.7025 46.6251 47.7345 46.6159 47.8032 46.5656L48.1144 46.3324C48.1481 46.3073 48.1876 46.2912 48.2293 46.2856C48.2709 46.28 48.3133 46.2851 48.3525 46.3004L49.2679 46.5199H48.2792C48.1946 46.5181 48.1118 46.544 48.0433 46.5935C47.9747 46.643 47.9242 46.7135 47.8993 46.7943L47.8352 46.9315L47.5789 47.4528C47.5187 47.563 47.4955 47.6896 47.5129 47.8139C47.5302 47.9383 47.587 48.0538 47.675 48.1433L47.8535 48.3583L47.4874 49.0945H47.8078L48.0595 48.5824C48.2685 48.3876 48.4258 48.144 48.5172 47.8735C48.4074 47.7866 48.3296 47.7272 48.3891 47.6037L48.5035 47.3613C48.5401 47.279 48.5538 47.2424 48.6637 47.2653L49.6478 47.4802C49.7237 47.5237 49.8134 47.5365 49.8984 47.5161C49.9835 47.4957 50.0576 47.4436 50.1055 47.3705C50.2428 47.1601 50.2611 47.1876 50.5632 47.215L51.0667 47.2699C51.6332 47.3417 52.2077 47.2295 52.7053 46.9498C52.8172 47.1378 52.9394 47.3195 53.0715 47.494C53.1035 47.5534 53.0486 47.6403 53.0074 47.7501L52.4444 49.0945H53.3004L53.7901 47.8644C53.8269 47.7687 53.883 47.6815 53.9549 47.6083L53.6711 49.0945H54.5179L54.7422 47.622C54.7879 47.2973 54.7422 47.1921 54.6049 47.0595C54.2524 46.7623 54.2616 46.1449 54.1471 45.7608C54.2099 45.7217 54.2843 45.7055 54.3577 45.715C54.5408 45.715 54.6781 46.2043 54.8978 46.5062C55.3281 47.1098 55.9185 47.7821 56.5959 46.84C56.5321 46.7329 56.4586 46.6319 56.3762 46.5382L56.1886 46.3187C56.0787 46.1952 55.5569 45.6007 55.3372 45.3812C55.1341 45.1819 54.8703 45.0562 54.5875 45.0239C54.3047 44.9915 54.0192 45.0545 53.7764 45.2028C53.0898 44.8416 52.3666 45.2028 52.1973 45.2028L51.0164 45.1297C50.9769 45.1299 50.938 45.1199 50.9035 45.1007C50.869 45.0814 50.8401 45.0536 50.8195 45.0199L51.0392 44.9467C50.8333 44.0916 50.3161 43.3736 49.4144 43.2501C49.4144 43.2501 49.364 42.9803 49.2267 42.93L48.9566 43.2456C48.8784 43.2593 48.8018 43.2807 48.7278 43.3096L47.5743 42.8843L48.4394 43.7577C48.4394 43.7577 47.9817 44.3888 47.8673 44.5214C47.8458 44.5427 47.8288 44.568 47.8172 44.5959C47.8056 44.6237 47.7996 44.6536 47.7996 44.6838C47.7996 44.714 47.8056 44.7439 47.8172 44.7717C47.8288 44.7996 47.8458 44.8249 47.8673 44.8461L48.0366 45.0656C48.1236 45.18 48.2197 45.1754 48.357 45.1022L48.5493 45.0062C48.6271 44.9376 48.9063 45.0748 49.007 44.965C48.9393 45.1854 48.8948 45.4122 48.8743 45.6419L48.1007 45.5504C48.0399 45.5354 47.9765 45.5347 47.9154 45.5481C47.8543 45.5616 47.7971 45.589 47.7483 45.6281L47.0846 46.1403C46.9765 46.2245 46.9023 46.3447 46.8754 46.479C46.8485 46.6133 46.8708 46.7528 46.9381 46.872L47.2631 47.4345Z" fill="white"/>
<path fill-rule="evenodd" clip-rule="evenodd" d="M49.7792 30.6746C50.0594 30.8504 50.3533 31.0033 50.658 31.1319V30.7615L49.4268 30.3042C49.4268 30.3042 49.4268 30.4368 49.7792 30.6746Z" fill="white"/>
<path fill-rule="evenodd" clip-rule="evenodd" d="M50.6584 30.2258V29.86L49.2578 29.3569C49.4181 29.5132 49.5928 29.6541 49.7796 29.7777C50.0596 29.9511 50.3536 30.101 50.6584 30.2258Z" fill="white"/>
<path fill-rule="evenodd" clip-rule="evenodd" d="M50.6587 29.3882V29.0132L49.1299 28.4507C49.1299 28.4507 49.4274 28.6931 49.7798 28.9354C50.0613 29.1077 50.355 29.259 50.6587 29.3882Z" fill="white"/>
<path fill-rule="evenodd" clip-rule="evenodd" d="M54.9517 34.4511H56.5033C56.446 34.3001 56.3393 34.1728 56.2006 34.0898C56.0619 34.0068 55.8993 33.973 55.7389 33.9938C55.5783 33.9904 55.4199 34.0312 55.281 34.1119C55.1421 34.1926 55.0282 34.3099 54.9517 34.4511Z" fill="white"/>
<path fill-rule="evenodd" clip-rule="evenodd" d="M53.3 28.4507L51.7896 29.0132V29.3882C52.0936 29.2611 52.3861 29.1081 52.6638 28.9309C53.0208 28.6931 53.3 28.4507 53.3 28.4507Z" fill="white"/>
<path fill-rule="evenodd" clip-rule="evenodd" d="M53.0208 30.2856L51.7896 30.743V31.1134C52.0931 30.9854 52.3856 30.8324 52.6638 30.6561C53.0208 30.4366 53.0208 30.2856 53.0208 30.2856Z" fill="white"/>
<path fill-rule="evenodd" clip-rule="evenodd" d="M53.1856 29.3569L51.8125 29.86V30.2258C52.117 30.0997 52.4095 29.9466 52.6867 29.7685C52.8663 29.6482 53.0334 29.5103 53.1856 29.3569Z" fill="white"/>
<path fill-rule="evenodd" clip-rule="evenodd" d="M46.6897 33.9943C46.5295 33.9744 46.3672 34.0085 46.2286 34.0914C46.0901 34.1743 45.9833 34.3011 45.9253 34.4516H47.4907C47.4131 34.3084 47.297 34.1896 47.1555 34.1088C47.0139 34.028 46.8526 33.9884 46.6897 33.9943Z" fill="white"/>
<path fill-rule="evenodd" clip-rule="evenodd" d="M51.222 28.2698L48.7228 27.2775C48.9334 26.7698 49.9175 26.3628 51.2311 26.3628C52.5448 26.3628 53.5197 26.7881 53.744 27.2775L51.2311 28.2698H51.222ZM53.094 31.3658L53.6982 27.8811L51.4096 28.6631V32.2576L53.1032 31.3429L53.094 31.3658ZM55.076 32.8658C54.4397 32.9755 53.895 33.753 53.4465 34.4526L53.3961 34.5304H52.9384V34.6127C52.8835 35.1523 52.3754 35.8886 51.2403 35.8886C50.8129 35.9043 50.3935 35.77 50.0548 35.509C49.8415 35.3424 49.6822 35.1165 49.5971 34.8597C49.5706 34.7794 49.5522 34.6966 49.5422 34.6127V34.5304H49.0844L49.0341 34.4526C48.5764 33.753 48.0363 32.9755 47.4046 32.8658L49.1348 31.8643L51.254 33.0167L53.3732 31.8643L55.108 32.8658H55.076ZM57.4195 35.509H53.149C52.9143 35.8233 52.5976 36.0669 52.2335 36.2133H52.2793C52.5089 36.4309 52.8142 36.5506 53.1307 36.5471C53.0543 36.7225 53.0251 36.9147 53.0459 37.1048C53.0668 37.295 53.137 37.4763 53.2497 37.631C53.1818 37.7323 53.135 37.8462 53.1118 37.9659C53.0886 38.0856 53.0897 38.2087 53.1148 38.328C53.14 38.4473 53.1888 38.5604 53.2583 38.6606C53.3278 38.7608 53.4167 38.846 53.5197 38.9114C53.2954 39.5608 53.7532 39.9267 54.3619 39.9038C53.7532 40.3016 53.7852 41.1477 54.5587 41.1202L54.3253 41.3032C54.1239 41.3032 54.069 41.3032 53.9225 41.1751C53.9225 41.4907 54.2246 41.6324 54.513 41.6964C54.4455 41.9622 54.4193 42.2367 54.4352 42.5105H54.9798C54.8288 42.3001 54.6732 41.541 54.9203 41.262C54.9883 41.6938 55.1162 42.1139 55.3002 42.5105H56.1241C56.008 42.3327 55.9305 42.1326 55.8966 41.9231C55.8627 41.7135 55.8732 41.4992 55.9273 41.294C56.0319 41.7281 56.2133 42.1401 56.4628 42.5105H57.1036V37.0227C57.1143 36.503 57.2214 35.9897 57.4195 35.509ZM57.0899 46.4159C57.1135 46.9224 56.9937 47.4253 56.7444 47.8669C56.4951 48.3085 56.1262 48.671 55.6801 48.9128L55.996 48.2726H55.6939L55.2865 49.0911C54.8312 49.2599 54.3486 49.3436 53.863 49.3381C52.2564 49.3381 51.8307 49.4067 51.2403 49.9966C50.6407 49.4067 50.2196 49.3381 48.613 49.3381C48.1294 49.342 47.6489 49.2599 47.1941 49.0957L47.5969 48.2726H47.2948L46.9378 48.9951L46.6906 48.8625L46.9835 48.2726H46.6814L46.4617 48.7299C46.1097 48.4642 45.8269 48.1177 45.6372 47.7197C45.4476 47.3216 45.3568 46.8838 45.3724 46.4433V42.8168H57.0762V46.4159H57.0899ZM49.1073 39.8398L49.6017 39.9038C49.6377 40.2455 49.564 40.5899 49.3911 40.887L48.9334 40.7452C49.0441 40.452 49.109 40.1435 49.1256 39.8306L49.1073 39.8398ZM48.3979 39.4785C48.592 39.4649 48.7871 39.4741 48.9792 39.5059C49.0753 39.5471 49.0112 39.7026 48.8876 39.6843C48.7174 39.6335 48.5532 39.5645 48.3979 39.4785ZM48.3658 37.7041L47.963 39.1904L48.1004 36.7941L48.7228 36.2362L49.0432 36.9404L48.2651 39.259L48.4757 37.695C48.4757 37.5898 48.407 37.5761 48.3887 37.695L48.3658 37.7041ZM48.0546 40.1782C47.8395 40.2651 47.6243 40.1462 47.693 40.009C47.7891 40.1004 48.0637 40.0547 48.0637 40.0547V40.1782H48.0546ZM47.6564 40.3748C47.7525 40.4708 48.05 40.4343 48.05 40.4343V40.4937C47.9173 40.6675 47.5602 40.5897 47.6426 40.3748H47.6564ZM47.1987 39.419C47.1728 39.406 47.1521 39.3846 47.1399 39.3583C47.1278 39.332 47.125 39.3023 47.1319 39.2742C47.1388 39.2461 47.155 39.2211 47.178 39.2034C47.2009 39.1857 47.2292 39.1763 47.2582 39.1767C47.4001 39.1767 47.5831 39.3367 47.7662 39.419C47.5782 39.4492 47.3866 39.4492 47.1987 39.419ZM47.6564 40.7315C47.7559 40.7711 47.8608 40.7958 47.9676 40.8047C47.9655 40.8295 47.9582 40.8536 47.9462 40.8754C47.9341 40.8972 47.9177 40.9163 47.8979 40.9313C47.878 40.9464 47.8552 40.9572 47.831 40.9629C47.8068 40.9687 47.7816 40.9693 47.7571 40.9647C47.7342 40.9573 47.7132 40.9451 47.6954 40.9289C47.6776 40.9127 47.6635 40.8929 47.654 40.8709C47.6444 40.8488 47.6397 40.825 47.6401 40.8009C47.6406 40.7769 47.6461 40.7532 47.6564 40.7315ZM47.9768 39.8169C48.0401 39.7838 48.1128 39.7735 48.1828 39.7876C48.2528 39.8018 48.3158 39.8396 48.3613 39.8946C48.3103 39.9614 48.2776 40.0403 48.2663 40.1236C48.255 40.2068 48.2656 40.2915 48.297 40.3695C48.3284 40.4474 48.3795 40.5158 48.4453 40.5681C48.5111 40.6203 48.5894 40.6546 48.6725 40.6675C48.7427 40.4624 48.7933 40.2511 48.8235 40.0364C48.6588 39.9038 48.5626 39.6843 48.4391 39.6111C48.3239 39.5368 48.1908 39.4951 48.0538 39.4902C47.9168 39.4854 47.7811 39.5177 47.6609 39.5837C47.654 39.6238 47.6584 39.665 47.6735 39.7028C47.6887 39.7406 47.7141 39.7734 47.7468 39.7976C47.7796 39.8218 47.8185 39.8364 47.8591 39.8398C47.8997 39.8432 47.9404 39.8353 47.9768 39.8169ZM49.9678 39.9449L50.4622 40.0044C50.4976 40.3922 50.418 40.7819 50.2333 41.1248L49.7298 40.9785C49.9241 40.6708 50.008 40.3064 49.9678 39.9449ZM50.8146 40.0501L51.222 40.1004C51.2928 40.5328 51.2188 40.9765 51.0114 41.3626L50.5537 41.2254C50.7629 40.8744 50.8543 40.4658 50.8146 40.0593V40.0501ZM51.5424 40.1416C51.6498 40.1538 51.7586 40.1381 51.8582 40.0959C51.9983 40.3122 52.0832 40.5595 52.1056 40.8162C52.1279 41.0729 52.087 41.3311 51.9864 41.5684C51.8406 41.568 51.6957 41.5464 51.5561 41.5044L51.4463 41.4724C51.635 41.0538 51.6659 40.5811 51.5332 40.1416H51.5424ZM52.1603 39.9038L52.4487 39.6203C52.647 39.7858 52.8016 39.9975 52.899 40.2367C52.9964 40.4759 53.0335 40.7353 53.0071 40.9922L52.6912 41.2803C52.6332 41.3397 52.5669 41.3906 52.4944 41.4312C52.5639 41.1691 52.5698 40.8942 52.5117 40.6294C52.4536 40.3646 52.3331 40.1174 52.1603 39.9084V39.9038ZM53.8493 40.0638C53.7837 40.1504 53.7341 40.248 53.7028 40.3519L53.3549 40.6721C53.3685 40.4135 53.3223 40.1552 53.2199 39.9173C53.1175 39.6794 52.9617 39.4682 52.7645 39.3001L53.1398 38.9389L53.213 39.012C53.1858 39.1222 53.1806 39.2368 53.1979 39.349C53.2152 39.4612 53.2545 39.5689 53.3137 39.6658C53.3728 39.7628 53.4506 39.847 53.5425 39.9138C53.6345 39.9805 53.7387 40.0284 53.8493 40.0547V40.0638ZM52.9338 37.5898C52.8439 37.7656 52.8013 37.9617 52.8101 38.1589C52.8189 38.3562 52.8789 38.5477 52.9842 38.7148L52.8423 38.852C52.2152 38.7742 51.9681 37.8413 51.9681 37.8413C51.9612 37.925 51.9612 38.0091 51.9681 38.0928C51.7827 38.0273 51.6248 37.9016 51.5194 37.7358C51.414 37.57 51.3673 37.3737 51.3868 37.1782C51.5293 37.2567 51.684 37.3108 51.8445 37.3383L51.8857 37.0639C51.7029 37.04 51.5309 36.9638 51.3904 36.8445C51.2499 36.7253 51.1469 36.568 51.0938 36.3916H51.0389C51.1166 36.3965 51.1946 36.3965 51.2723 36.3916C51.522 36.3905 51.7701 36.3535 52.0093 36.2819C52.1089 36.4105 52.2338 36.5174 52.3762 36.596C52.5187 36.6747 52.6757 36.7234 52.8377 36.7392C52.7875 37.0153 52.826 37.3002 52.9476 37.5532L52.9338 37.5898ZM49.3408 35.509H45.0611C45.2554 35.9833 45.3654 36.4878 45.3861 36.9999V42.4876H54.0827C54.0793 42.2705 54.0915 42.0535 54.1193 41.8382C53.9256 41.7399 53.7732 41.576 53.6894 41.3758C53.6055 41.1755 53.5957 40.9521 53.6616 40.7452L52.7874 41.5089C52.6347 41.666 52.4402 41.7761 52.2269 41.8264C52.0136 41.8766 51.7904 41.8648 51.5836 41.7925L48.2651 40.7635C48.2011 40.9556 48.0042 41.2849 47.6976 41.2208C47.6311 41.1999 47.5702 41.1641 47.5197 41.1161C47.4692 41.0681 47.4303 41.0092 47.406 40.9439C47.3817 40.8787 47.3727 40.8087 47.3796 40.7394C47.3865 40.6701 47.4091 40.6032 47.4458 40.544C47.4223 40.5223 47.4044 40.4952 47.3934 40.4652C47.3825 40.4351 47.3789 40.4028 47.3829 40.3711C47.3869 40.3393 47.3985 40.309 47.4166 40.2826C47.4347 40.2562 47.4588 40.2345 47.487 40.2193C47.4614 40.2045 47.4401 40.1831 47.4253 40.1574C47.4105 40.1317 47.4027 40.1026 47.4027 40.073C47.4027 40.0434 47.4105 40.0142 47.4253 39.9886C47.4401 39.9629 47.4614 39.9415 47.487 39.9266C47.4473 39.9006 47.4167 39.8628 47.3995 39.8185C47.3823 39.7743 47.3793 39.7257 47.3909 39.6797H47.1849C46.6677 39.6797 46.8233 38.6919 47.3726 38.9251L47.7845 39.1309L47.8578 36.6569L48.8327 35.8246L49.3499 36.9175L48.5031 39.2727C49.1851 39.1584 49.4186 39.4328 49.3362 39.6706L51.4875 39.9175C51.604 39.9288 51.7216 39.9108 51.8294 39.8653C51.9373 39.8198 52.0322 39.7481 52.1054 39.6568L52.5677 39.0761C52.4133 39.0256 52.2752 38.9351 52.1674 38.8138C52.0596 38.6924 51.9861 38.5446 51.9543 38.3855C51.8043 38.3521 51.6625 38.2893 51.5371 38.2005C51.4116 38.1118 51.3051 37.9991 51.2238 37.8688C51.1424 37.7386 51.0878 37.5935 51.0631 37.4419C51.0385 37.2904 51.0442 37.1354 51.0801 36.9861C50.8801 36.8169 50.7404 36.5874 50.6819 36.3322C50.1367 36.2316 49.6477 35.9336 49.3087 35.4953L49.3408 35.509ZM48.7778 27.8811L49.382 31.3658L51.0755 32.2804V28.6631L48.7869 27.8811H48.7778ZM54.3619 27.4512C54.3619 26.5732 52.8835 25.7866 51.254 25.7866C49.6245 25.7866 48.1461 26.5732 48.1461 27.4512L48.1782 27.6662L48.8281 31.4024L45.7477 33.195C45.535 33.3377 45.3546 33.5233 45.2182 33.7399C45.0818 33.9565 44.9924 34.1993 44.9558 34.4526H45.5188C45.5577 34.1407 45.7134 33.855 45.9546 33.6531C46.1958 33.4512 46.5045 33.348 46.8187 33.3642C47.5328 33.4008 47.9539 33.8216 48.3704 34.4526L48.4803 34.6127L48.6359 34.8597H44.1045C44.4832 35.5136 44.7056 36.246 44.7544 36.9999V46.4159C44.7544 48.8396 46.6128 49.992 48.6313 49.992C50.1875 49.992 50.3981 49.9189 51.2586 50.7786C52.1145 49.9189 52.3205 49.992 53.8813 49.992C55.8998 49.992 57.7627 48.8396 57.7627 46.4159V36.9999C57.8079 36.2459 58.0289 35.513 58.4081 34.8597H53.8767L54.0324 34.6127L54.1376 34.4526C54.5542 33.8353 54.9798 33.4008 55.6893 33.3642C55.9986 33.356 56.3 33.4628 56.5351 33.6639C56.7701 33.865 56.9222 34.146 56.9617 34.4526H57.5247C57.4881 34.1993 57.3988 33.9565 57.2624 33.7399C57.126 33.5233 56.9456 33.3377 56.7329 33.195L53.6525 31.4024L54.3024 27.6662L54.3619 27.4512Z" fill="white"/>
<path fill-rule="evenodd" clip-rule="evenodd" d="M56.8106 39.075V38.8006C55.9638 38.8006 55.7716 37.7808 55.7716 37.7808C55.7266 37.937 55.7198 38.1018 55.7518 38.2612C55.7837 38.4206 55.8536 38.57 55.9554 38.6969C56.0572 38.8237 56.1881 38.9243 56.3369 38.9901C56.4857 39.0558 56.6482 39.085 56.8106 39.075Z" fill="white"/>
<path fill-rule="evenodd" clip-rule="evenodd" d="M55.744 40.744L55.6571 40.4833C54.9385 40.6662 54.5677 39.5229 54.5677 39.5229C54.5186 39.6881 54.5142 39.8633 54.555 40.0307C54.5958 40.1981 54.6803 40.3517 54.7999 40.4758C54.9195 40.6 55.0698 40.6902 55.2357 40.7373C55.4016 40.7844 55.577 40.7867 55.744 40.744Z" fill="white"/>
<path fill-rule="evenodd" clip-rule="evenodd" d="M56.2428 39.6839C55.3826 39.821 55.0302 38.8198 55.0302 38.8198C55.0033 38.9503 55.0036 39.0849 55.0311 39.2152C55.0585 39.3456 55.1126 39.4689 55.1899 39.5774C55.2672 39.6859 55.366 39.7774 55.4803 39.8461C55.5945 39.9147 55.7217 39.9591 55.8539 39.9765C55.8218 40.1189 55.8317 40.2675 55.8825 40.4044C55.9332 40.5412 56.0226 40.6605 56.1398 40.7476C56.257 40.8347 56.397 40.8859 56.5428 40.8951C56.6886 40.9043 56.834 40.8711 56.9612 40.7994L56.8789 40.5525C56.7645 40.5963 56.6389 40.6012 56.5214 40.5666C56.4039 40.532 56.3011 40.4597 56.2288 40.3609C56.1564 40.2622 56.1186 40.1424 56.1212 40.02C56.1237 39.8977 56.1665 39.7796 56.2428 39.6839Z" fill="white"/>
<path fill-rule="evenodd" clip-rule="evenodd" d="M55.7252 36.8289V36.5499C54.59 36.3167 54.6861 35.5347 54.6861 35.5347C54.6411 35.6909 54.6343 35.8557 54.6663 36.0151C54.6983 36.1745 54.7681 36.324 54.87 36.4508C54.9718 36.5776 55.1026 36.6782 55.2515 36.744C55.4003 36.8097 55.5627 36.8389 55.7252 36.8289Z" fill="white"/>
<path fill-rule="evenodd" clip-rule="evenodd" d="M48.5257 48.271L48.1187 49.0935H48.4251L48.8321 48.271H48.5257Z" fill="white"/>
<path fill-rule="evenodd" clip-rule="evenodd" d="M49.1385 48.271L48.7314 49.0935H49.0379L49.4449 48.271H49.1385Z" fill="white"/>
<path fill-rule="evenodd" clip-rule="evenodd" d="M51.6009 48.271L51.1938 49.0935H51.5003L51.9073 48.271H51.6009Z" fill="white"/>
<path fill-rule="evenodd" clip-rule="evenodd" d="M52.2197 48.271L51.8081 49.0935H52.1191L52.5216 48.271H52.2197Z" fill="white"/>
<path fill-rule="evenodd" clip-rule="evenodd" d="M50.9837 48.271L50.5767 49.0935H50.8831L51.2901 48.271H50.9837Z" fill="white"/>
<path fill-rule="evenodd" clip-rule="evenodd" d="M54.5815 49.0935H54.888L55.295 48.271H54.9886L54.5815 49.0935Z" fill="white"/>
<path fill-rule="evenodd" clip-rule="evenodd" d="M49.7526 48.271L49.3501 49.0935H49.6565L50.059 48.271H49.7526Z" fill="white"/>
<path fill-rule="evenodd" clip-rule="evenodd" d="M50.3704 48.271L49.9634 49.0935H50.2698L50.6768 48.271H50.3704Z" fill="white"/>
<path fill-rule="evenodd" clip-rule="evenodd" d="M48.9744 43.8394C48.9474 43.8468 48.9236 43.8629 48.9066 43.8851C48.8896 43.9074 48.8804 43.9346 48.8804 43.9626C48.8804 43.9906 48.8896 44.0179 48.9066 44.0401C48.9236 44.0624 48.9474 44.0785 48.9744 44.0859C49.0071 44.0859 49.0385 44.0729 49.0617 44.0498C49.0848 44.0267 49.0978 43.9953 49.0978 43.9626C49.0978 43.9299 49.0848 43.8986 49.0617 43.8755C49.0385 43.8523 49.0071 43.8394 48.9744 43.8394Z" fill="white"/>
<path fill-rule="evenodd" clip-rule="evenodd" d="M48.8507 24.7786L49.3359 23.7543L50.2513 24.2116L51.2446 23.2329L52.2332 24.2116L53.1487 23.7543L53.6064 24.7786L54.2014 24.6872C54.0476 24.97 53.9219 25.2671 53.8261 25.5744C53.0348 25.1334 52.1438 24.902 51.2377 24.902C50.3316 24.902 49.4406 25.1334 48.6493 25.5744C48.554 25.2662 48.4267 24.9689 48.2694 24.6872L48.8644 24.7786H48.8507ZM51.2263 25.2359C52.2388 25.2091 53.2324 25.5143 54.0549 26.1048C54.1826 25.439 54.4308 24.8021 54.7873 24.2253L53.7712 24.3396L53.2402 23.2101L52.2149 23.7405L51.2263 22.7573L50.233 23.7405L49.2077 23.2101L48.6768 24.3396L47.6606 24.2253C48.0171 24.8021 48.2653 25.439 48.393 26.1048C49.2158 25.5104 50.2111 25.2019 51.2263 25.2268V25.2359Z" fill="white"/>
<path fill-rule="evenodd" clip-rule="evenodd" d="M52.261 23.2063C52.2965 23.2095 52.3322 23.2055 52.3662 23.1948C52.4001 23.1841 52.4316 23.1668 52.4588 23.1438C52.486 23.1209 52.5084 23.0928 52.5247 23.0612C52.541 23.0296 52.5509 22.995 52.5537 22.9596C52.5181 22.7697 52.45 22.5873 52.3525 22.4204C52.3525 22.4204 52.0278 22.7677 52.0186 22.9185C52.0155 22.9533 52.0193 22.9884 52.0298 23.0218C52.0403 23.0551 52.0573 23.0861 52.0799 23.1128C52.1024 23.1396 52.13 23.1616 52.1611 23.1777C52.1922 23.1937 52.2262 23.2035 52.261 23.2063Z" fill="white"/>
<path fill-rule="evenodd" clip-rule="evenodd" d="M53.9266 23.8089C53.9576 23.8261 53.9918 23.8369 54.0271 23.8404C54.0624 23.844 54.098 23.8403 54.1318 23.8296C54.1657 23.8189 54.1969 23.8014 54.2238 23.7782C54.2506 23.755 54.2724 23.7266 54.2879 23.6947C54.3314 23.5075 54.3407 23.314 54.3153 23.1235C54.3153 23.1235 53.8854 23.3154 53.8122 23.448C53.78 23.5111 53.7739 23.5843 53.7953 23.6519C53.8167 23.7194 53.8638 23.7758 53.9266 23.8089Z" fill="white"/>
<path fill-rule="evenodd" clip-rule="evenodd" d="M50.1822 23.2063C50.2174 23.204 50.2519 23.1947 50.2835 23.1789C50.3152 23.1631 50.3433 23.1412 50.3663 23.1143C50.3893 23.0875 50.4067 23.0564 50.4175 23.0227C50.4283 22.9891 50.4323 22.9536 50.4291 22.9185C50.4291 22.7677 50.0953 22.4204 50.0953 22.4204C49.9978 22.5873 49.9297 22.7697 49.894 22.9596C49.8999 23.0303 49.9334 23.0959 49.9874 23.1421C50.0413 23.1883 50.1113 23.2114 50.1822 23.2063Z" fill="white"/>
<path fill-rule="evenodd" clip-rule="evenodd" d="M48.5213 23.8089C48.5524 23.7926 48.58 23.7703 48.6024 23.7432C48.6247 23.7162 48.6415 23.6849 48.6517 23.6514C48.662 23.6178 48.6654 23.5825 48.6618 23.5476C48.6583 23.5127 48.6478 23.4788 48.6311 23.448C48.5625 23.3154 48.1326 23.1235 48.1326 23.1235C48.1072 23.314 48.1165 23.5075 48.16 23.6947C48.1755 23.7266 48.1973 23.755 48.2241 23.7782C48.2509 23.8014 48.2822 23.8189 48.3161 23.8296C48.3499 23.8403 48.3855 23.844 48.4208 23.8404C48.4561 23.8369 48.4903 23.8261 48.5213 23.8089Z" fill="white"/>
<path fill-rule="evenodd" clip-rule="evenodd" d="M66.9439 33.1571C67.0629 33.4391 67.1078 33.7468 67.0741 34.051C67.0405 34.3552 66.9295 34.6457 66.7516 34.8949C66.2795 33.8674 65.5724 32.9652 64.6873 32.2608C64.5408 32.1693 64.7651 32.0001 65.1725 31.9498C66.3992 31.7166 67.841 32.2379 68.523 32.4071C68.2618 32.6223 67.9438 32.7573 67.6075 32.7959C68.0344 33.1267 68.4106 33.518 68.7244 33.9574C68.2392 34.0763 67.9691 33.7699 66.9301 33.148L66.9439 33.1571ZM68.4955 32.9559C68.8413 32.8052 69.1152 32.5266 69.2599 32.1785C68.3445 32.0459 65.9598 31.0444 63.987 31.863C64.7239 31.1633 65.3876 31.0718 65.4517 30.0657C65.5311 30.1404 65.6267 30.1957 65.731 30.2275C65.8353 30.2592 65.9455 30.2666 66.0531 30.2489C66.1607 30.2312 66.2627 30.1889 66.3513 30.1255C66.4399 30.062 66.5127 29.9789 66.5639 29.8828C66.3626 29.2837 65.8499 29.7685 65.7767 29.6038C65.7034 29.4392 66.4266 29.677 66.5868 28.895C66.0055 28.6938 65.8316 29.1694 65.7263 29.0596C65.621 28.9499 66.0971 28.7578 65.7538 28.145C65.145 28.5017 65.4608 28.8996 65.3327 28.9407C65.2045 28.9819 65.3006 28.5154 64.6324 28.5383C64.5683 29.2563 65.264 29.2791 65.145 29.3935C65.026 29.5078 64.8292 28.9819 64.3211 29.2609C64.3138 29.3815 64.3357 29.5021 64.3851 29.6124C64.4344 29.7228 64.5097 29.8195 64.6045 29.8945C64.6994 29.9695 64.811 30.0205 64.9298 30.0432C65.0486 30.0658 65.1711 30.0594 65.2869 30.0246C65.2091 31.1267 64.1976 30.9392 63.4561 32.1648C65.0535 32.9788 65.7721 34.4056 66.7562 35.3934C67.1049 35.0177 67.4006 34.5961 67.635 34.1404C68.7015 34.9635 69.4659 34.1404 69.4659 34.1404C69.0677 33.7516 69.0539 33.4681 68.4955 32.9559Z" fill="white"/>
<path fill-rule="evenodd" clip-rule="evenodd" d="M54.3708 53.1567L53.8307 51.396C54.7047 51.2264 55.5634 50.9863 56.3985 50.6781V51.7756L57.3506 52.1552C56.3937 52.5887 55.3954 52.9242 54.3708 53.1567ZM51.2263 54.1673C52.2449 54.1585 53.2589 54.0296 54.2473 53.7832L53.6751 51.954C52.0526 52.2283 50.3955 52.2283 48.773 51.954L48.2008 53.7832C49.1906 54.0304 50.2062 54.1594 51.2263 54.1673ZM45.0929 52.1369L46.0496 51.7573V50.6598C46.8844 50.9687 47.7432 51.2089 48.6174 51.3778L48.0772 53.1384C47.0517 52.9043 46.052 52.5688 45.0929 52.1369ZM56.6915 51.5287V50.1567C55.4039 50.728 54.0274 51.073 52.6224 51.1765L52.5446 51.6338C52.691 51.6338 52.8741 51.6704 53.1213 51.6842C51.8642 51.861 50.5885 51.861 49.3314 51.6842C49.574 51.6842 49.7571 51.6521 49.9035 51.6338L49.8257 51.1765C48.4193 51.073 47.0412 50.728 45.7521 50.1567V51.5287L44.3423 52.1049C45.4993 52.6984 46.7201 53.1587 47.9811 53.4768L47.8072 54.0347C50.0355 54.6628 52.3943 54.6628 54.6226 54.0347L54.4532 53.4722C55.722 53.1554 56.9505 52.6951 58.115 52.1003L56.6915 51.5287Z" fill="white"/>
<path fill-rule="evenodd" clip-rule="evenodd" d="M33.7092 33.9663C34.0217 33.5258 34.3981 33.1343 34.8261 32.8047C34.4901 32.7647 34.1726 32.6299 33.9106 32.416C34.5972 32.2377 36.039 31.7163 37.2703 31.9587C37.6731 32.009 37.8973 32.1782 37.728 32.2697C36.8425 32.9749 36.1341 33.8768 35.6591 34.9038C35.4828 34.6539 35.3731 34.3632 35.3402 34.0592C35.3074 33.7552 35.3526 33.4478 35.4714 33.166C34.4324 33.788 34.1624 34.0806 33.6772 33.9755L33.7092 33.9663ZM34.8261 34.1218C35.0605 34.5775 35.3562 34.9991 35.7049 35.3748C36.6844 34.387 37.4076 32.9602 39.005 32.1462C38.2498 30.9023 37.2336 31.1081 37.1741 30.006C37.29 30.0409 37.4125 30.0472 37.5313 30.0246C37.6501 30.002 37.7617 29.951 37.8565 29.876C37.9514 29.801 38.0267 29.7042 38.076 29.5939C38.1253 29.4835 38.1473 29.3629 38.1399 29.2423C37.6319 28.9679 37.4534 29.5167 37.316 29.3749C37.1787 29.2332 37.8973 29.2377 37.8287 28.5198C37.1604 28.5198 37.284 28.9771 37.1238 28.9222C36.9636 28.8673 37.316 28.4649 36.7073 28.1265C36.364 28.7576 36.8309 28.9542 36.7347 29.0411C36.6386 29.128 36.4555 28.6752 35.8742 28.8765C36.0344 29.6585 36.7897 29.3566 36.6798 29.5853C36.57 29.8139 36.0985 29.2652 35.8971 29.8642C35.9484 29.9604 36.0212 30.0434 36.1098 30.1069C36.1984 30.1704 36.3004 30.2126 36.408 30.2303C36.5156 30.248 36.6258 30.2407 36.7301 30.2089C36.8344 30.1772 36.93 30.1218 37.0094 30.0472C37.0734 31.0578 37.7326 31.1401 38.4741 31.8444C36.5013 31.0258 34.1029 32.0273 33.1966 32.1599C33.3434 32.5071 33.6189 32.7841 33.9656 32.9328C33.4071 33.4496 33.3934 33.7331 33.0501 34.1035C33.0135 34.1218 33.7596 34.9587 34.8261 34.1218Z" fill="white"/>
<path fill-rule="evenodd" clip-rule="evenodd" d="M50.3613 33.3726V33.9623C50.4411 33.8883 50.536 33.8324 50.6395 33.7985C50.743 33.7645 50.8526 33.7534 50.9608 33.7657V34.6207C50.9574 34.831 50.9008 35.0371 50.796 35.2196H51.6517C51.5493 35.0361 51.4928 34.8306 51.487 34.6207V33.7657C51.5952 33.7531 51.7049 33.7641 51.8084 33.798C51.9119 33.832 52.0068 33.888 52.0864 33.9623V33.3726H50.3613Z" fill="white"/>
</g>
<defs>
<clipPath id="clip0_157_6901">
<rect width="100" height="100" fill="white"/>
</clipPath>
</defs>
</svg>
