<svg width="100" height="100" viewBox="0 0 100 100" fill="none" xmlns="http://www.w3.org/2000/svg">
<path d="M53.8429 44.9481V46.6269C53.2371 47.029 52.8394 46.8925 51.7913 46.8925H46.978C46.1306 46.804 46.3498 46.3539 46.3498 45.1326C46.3498 43.5646 46.3498 41.9965 46.3498 40.4321C46.3498 39.3031 46.4762 39.2736 47.5987 39.281C48.5019 39.281 51.6872 39.2257 52.293 39.3216C54.1886 39.6057 53.8467 38.0192 53.8467 44.9555L53.8429 44.9481ZM63.135 54.2679C63.135 54.8103 63.0383 54.9394 63.0383 55.4818C63.0383 56.0241 63.135 56.1717 63.1387 56.7178C63.1424 57.2638 63.0569 57.4889 63.0421 57.9575C63.0272 58.426 63.0421 58.9721 63.0421 59.4665C63.0421 60.3225 62.9789 60.6619 63.2279 61.3113C63.4167 61.8178 63.7819 62.2405 64.2575 62.503C64.7051 62.709 65.1913 62.8196 65.6847 62.8277H84.5661C85.224 62.8277 85.6477 62.7981 85.7369 62.776C86.1856 62.6595 86.5885 62.4113 86.8929 62.0639C87.4467 61.4478 87.4875 61.1563 87.4838 60.1712C87.4838 58.6954 87.4838 57.2528 87.4838 55.7917V43.9852C87.4838 43.31 87.5433 42.6606 87.573 42.0482V40.9081C87.576 40.459 87.4527 40.0181 87.217 39.6348C86.9812 39.2515 86.6424 38.9412 86.2387 38.7386C85.696 38.4582 84.8932 38.58 84.0904 38.5726L65.9821 38.4804C64.919 38.4804 64.1237 38.5505 63.5513 39.4323C63.3892 39.6621 63.2545 39.9097 63.1498 40.1702C63.0123 40.7568 63.1275 43.8265 63.1275 44.6677V54.2605L63.135 54.2679ZM63.9378 59.4665V54.172C63.9378 53.091 63.7594 47.5751 64.0568 47.0918C64.2686 46.7486 64.8819 46.8851 65.6327 46.8851H71.1484C71.5201 47.446 71.416 47.505 71.416 48.3905V59.2008C71.416 60.0273 71.6651 61.6544 71.0183 61.9053C70.7284 62.016 68.3571 61.9459 67.8479 61.9459C64.9228 61.9459 63.9229 62.2521 63.9229 59.4665H63.9378ZM53.5753 54.5409L53.8429 54.6922V57.9685C53.8429 58.8835 53.8429 59.8133 53.8429 60.7136C53.8429 62.2484 53.6274 61.9532 52.1481 61.9532C50.7357 61.9532 47.5318 62.1156 46.439 61.8647C46.2602 61.3132 46.2206 60.7266 46.3238 60.1564C46.3699 59.5167 46.3786 58.8749 46.3498 58.2342V54.7107C46.7475 54.3638 46.9297 54.5077 47.9555 54.5077C49.249 54.5077 52.7353 54.4303 53.5753 54.5336V54.5409ZM62.2281 57.7914V44.6825C62.2281 43.8782 62.3284 40.624 62.1909 40.1111C62.0093 39.5773 61.6502 39.1206 61.1725 38.8161C60.615 38.4472 60.0091 38.4804 59.1059 38.4804H40.2803C39.273 38.4804 38.3475 38.8493 38.0502 39.709C37.9944 39.875 37.9907 39.9968 37.9275 40.2071C37.5298 41.5574 37.7975 43.8966 37.7975 45.3946V58.4039C37.7975 59.8539 37.5856 61.16 38.3104 61.968C39.195 62.9531 40.061 62.7428 41.8116 62.7428C44.7182 62.7428 47.3534 62.8313 50.2859 62.8313H58.9201C59.5442 62.8387 60.1672 62.7793 60.7785 62.6542C62.6369 61.9163 62.2058 59.8539 62.2058 57.7841L62.2281 57.7914ZM79.0875 59.0311V48.4864C79.0875 47.5825 78.9649 47.4681 79.3552 46.8925H85.421C86.287 46.8925 86.6624 46.7929 86.6736 47.6821C86.7144 50.3718 86.6736 53.102 86.6736 55.7991V59.1197C86.6736 62.4107 85.7072 61.9532 82.7486 61.9532H79.3626C78.9203 61.3002 79.095 60.2819 79.095 59.0311H79.0875ZM20.8376 57.6549C20.8376 62.5878 21.581 61.8573 17.1803 61.8573C15.0803 61.8573 13.3297 62.1783 13.3408 59.8207C13.3408 59.1603 13.3408 58.4961 13.3408 57.832C13.3408 56.9023 13.1996 47.4349 13.4598 47.0106C13.6753 46.6638 14.3592 46.804 15.1249 46.804C16.0541 46.804 20.3024 46.7228 20.6035 46.8519C20.9752 47.018 20.8339 47.6489 20.8339 48.4864V57.6549H20.8376ZM12.5417 57.832C12.5417 58.9832 12.2481 60.7837 12.8948 61.6802C13.8389 62.9789 14.8313 62.6579 16.2882 62.6579H23.8743C24.3686 62.6579 24.4429 62.7465 24.9373 62.7539C27.8401 62.7871 30.7727 62.7539 33.6829 62.7539C34.9095 62.7539 36.0208 62.8055 36.6898 61.3998C37.1098 60.5143 36.8943 58.4482 36.8943 57.2232V50.4345C36.8943 48.1101 36.9835 46.0845 36.9835 43.7638C36.9835 42.9558 36.8125 42.4835 36.9463 41.6312C37.0223 40.9775 36.9538 40.3153 36.7456 39.6905C36.5055 39.2152 36.1133 38.8324 35.6305 38.6021C35.2468 38.4546 34.8377 38.3831 34.4263 38.3918H14.5451C14.2242 38.4125 13.9143 38.5155 13.6456 38.6907C12.0399 39.65 12.5305 41.7678 12.5305 44.3836V51.1429C12.5305 52.1317 12.6198 53.6555 12.5305 54.5815C12.3967 55.7659 12.5305 56.6292 12.5305 57.832H12.5417ZM36.0914 57.2122C36.0914 58.6659 36.5746 61.5326 34.7348 61.8389H28.7879C28.6808 61.7202 28.6008 61.58 28.5533 61.4278C28.5059 61.2756 28.4921 61.115 28.5128 60.9571V57.3708V47.9514C28.5128 47.1766 28.4608 47.2799 28.7842 46.804H35.4744C36.2996 46.8667 36.0989 47.5419 36.0989 48.4015C36.0914 51.336 36.089 54.2728 36.0914 57.2122Z" fill="white"/>
</svg>
