<svg width="100" height="100" viewBox="0 0 100 100" fill="none" xmlns="http://www.w3.org/2000/svg">
<g clip-path="url(#clip0_157_6901)">
<path d="M16.3725 55.5689C16.6937 56.4088 17.1384 57.127 17.7066 57.7234C18.2748 58.3198 18.9479 58.7763 19.7261 59.0928C20.5043 59.4093 21.3503 59.5675 22.2644 59.5675C23.1538 59.5675 23.9875 59.4031 24.7657 59.0744C25.5439 58.7457 26.2232 58.2832 26.8037 57.6868C27.3842 57.0904 27.8351 56.3783 28.1563 55.5506C28.4774 54.7229 28.638 53.7979 28.638 52.7753V37H32.5288V62.5618H28.675V60.1882C27.8104 61.0889 26.7913 61.7827 25.6179 62.2697C24.4444 62.7565 23.1785 63 21.8198 63C20.4363 63 19.1455 62.7626 17.9474 62.2879C16.7493 61.8132 15.7117 61.1377 14.8348 60.2612C13.9578 59.3848 13.2661 58.332 12.7597 57.1026C12.2532 55.8732 12 54.5038 12 52.9944V37H15.8908V52.7753C15.8908 53.7979 16.0514 54.7289 16.3725 55.5689Z" fill="white" fill-opacity="0.9"/>
<path d="M39.2362 37V46.3118C40.1008 45.4597 41.1014 44.7842 42.2378 44.2851C43.3741 43.786 44.6093 43.5365 45.9433 43.5365C47.3267 43.5365 48.6236 43.7921 49.8341 44.3033C51.0446 44.8145 52.0944 45.5084 52.9838 46.3848C53.8732 47.2613 54.5772 48.2959 55.096 49.4887C55.6148 50.6817 55.8741 51.9476 55.8741 53.2866C55.8741 54.6254 55.6148 55.8853 55.096 57.066C54.5772 58.2467 53.8732 59.2753 52.9838 60.1516C52.0944 61.028 51.0446 61.7219 49.8341 62.2331C48.6236 62.7443 47.3267 62.9999 45.9433 62.9999C44.6092 62.9999 43.368 62.7504 42.2192 62.2513C41.0705 61.7523 40.0638 61.0767 39.1992 60.2246V62.5617H35.4937V37H39.2362ZM39.6623 55.8062C39.9958 56.5853 40.4591 57.2669 41.052 57.8512C41.6449 58.4355 42.3366 58.898 43.1271 59.2389C43.9176 59.5797 44.7699 59.7501 45.6839 59.7501C46.5733 59.7501 47.4132 59.5797 48.2037 59.2389C48.9942 58.898 49.6796 58.4355 50.2603 57.8512C50.8408 57.267 51.304 56.5853 51.6498 55.8062C51.9957 55.0272 52.1686 54.1873 52.1686 53.2866C52.1686 52.3858 51.9957 51.5398 51.6498 50.7486C51.304 49.9574 50.8408 49.2697 50.2603 48.6854C49.6797 48.1012 48.9942 47.6447 48.2037 47.3161C47.4131 46.9874 46.5732 46.823 45.6839 46.823C44.7946 46.823 43.9547 46.9874 43.1642 47.3161C42.3737 47.6448 41.682 48.1012 41.089 48.6854C40.4962 49.2697 40.0268 49.9574 39.681 50.7486C39.3351 51.5398 39.1622 52.3858 39.1622 53.2866C39.1621 54.1873 39.3289 55.0272 39.6623 55.8062Z" fill="white" fill-opacity="0.9"/>
<path d="M57.9846 49.5244C58.4786 48.3559 59.1581 47.3273 60.0226 46.4388C60.8872 45.5502 61.9125 44.8503 63.0983 44.3391C64.2841 43.8278 65.5687 43.5723 66.9521 43.5723C68.3108 43.5723 69.5707 43.8157 70.7318 44.3025C71.8928 44.7895 72.8933 45.465 73.7332 46.3293C74.5732 47.1935 75.2279 48.216 75.6971 49.3967C76.1665 50.5774 76.4012 51.8616 76.4012 53.2493V54.4543H61.0232C61.1468 55.209 61.3938 55.9089 61.7643 56.554C62.135 57.1991 62.5981 57.759 63.1539 58.2337C63.7097 58.7085 64.3397 59.0798 65.0437 59.3475C65.7478 59.6153 66.495 59.7493 67.2856 59.7493C69.5337 59.7493 71.3494 58.8363 72.7328 57.0104L75.4379 58.9823C74.4991 60.2239 73.3381 61.1977 71.9547 61.9037C70.5712 62.6096 69.0149 62.9626 67.2857 62.9626C65.8775 62.9626 64.5621 62.7191 63.3393 62.2323C62.1164 61.7454 61.0542 61.0637 60.1525 60.1873C59.2508 59.3108 58.5406 58.2823 58.0219 57.1016C57.5031 55.921 57.2437 54.6367 57.2437 53.2491C57.2435 51.9346 57.4906 50.693 57.9846 49.5244ZM63.1909 48.0819C62.141 48.9462 61.4432 50.0965 61.0973 51.5328H72.6216C72.3005 50.0965 71.6149 48.9462 70.565 48.0819C69.5151 47.2178 68.2861 46.7857 66.878 46.7857C65.4699 46.7857 64.2409 47.2178 63.1909 48.0819Z" fill="white" fill-opacity="0.9"/>
<path d="M83.405 48.5037C82.6145 49.3557 82.2192 50.5121 82.2192 51.9728V62.5628H78.4766V43.9391H82.1821V46.2397C82.6515 45.485 83.2629 44.8886 84.0164 44.4504C84.7698 44.0121 85.6653 43.793 86.7029 43.793H87.9998V47.2256H86.4435C85.2084 47.2257 84.1955 47.6516 83.405 48.5037Z" fill="white" fill-opacity="0.9"/>
</g>
<defs>
<clipPath id="clip0_157_6901">
<rect width="76" height="26" fill="white" transform="translate(12 37)"/>
</clipPath>
</defs>
</svg>
