<svg width="100" height="100" viewBox="0 0 100 100" fill="none" xmlns="http://www.w3.org/2000/svg">
<path d="M89.11 59.0887C90.7974 59.0887 91.9921 58.7892 92.8821 58.1403V55.2037C91.969 55.827 90.8682 56.2206 89.3209 56.2206C86.7204 56.2206 85.6413 54.2311 85.6413 51.0863C85.6413 47.7789 86.9545 46.0946 89.344 46.0946C90.7497 46.0946 92.1323 46.5795 92.859 47.043V43.9838C92.086 43.5673 90.7497 43.2707 88.9222 43.2707C84.2587 43.2707 81.8431 46.578 81.8431 51.2046C81.8662 56.2719 84.2327 59.093 89.1071 59.093L89.11 59.0887ZM66.3097 57.7481V54.8101C65.1843 55.5731 63.2629 56.2363 61.5061 56.2363C58.8349 56.2363 57.8265 54.9884 57.6632 52.4426H66.4759V50.5457C66.4759 45.2488 64.1095 43.2593 60.4775 43.2593C56.0249 43.2593 53.9171 46.6137 53.9171 51.2175C53.9171 56.5144 56.5638 59.0816 61.2042 59.0816C63.5244 59.0816 65.2349 58.4583 66.3126 57.7409L66.3097 57.7481ZM32.8707 43.5445V49.5588H27.9963V43.5445H24.3369V58.7892H27.992V52.4269H32.8664V58.7892H36.5215V43.5445H32.8707ZM52.9997 55.9168H51.3831V43.5445H40.7444V44.8395C40.7444 48.5633 40.5103 53.3753 39.2216 55.9197H38.05V62.2591H41.4234V58.7892H49.6018V62.2591H52.9766V55.9168H52.9997ZM77.9555 58.7863L72.5667 51.2902V58.7863H68.9102V43.5445H72.5667V50.5757L77.7214 43.5445H81.4025L76.2464 50.5757L82.1046 58.7892L77.9555 58.7863ZM60.3807 46.0931C62.1851 46.0931 62.7471 47.5735 62.7471 49.4932V49.7842H57.6632C57.7571 47.3596 58.6471 46.0832 60.3807 46.0832V46.0931ZM47.7266 55.9168H42.5719C43.5832 53.6278 43.8606 49.4633 43.8606 46.8262V46.3613H47.7266V55.9168Z" fill="white"/>
<path d="M21.294 58.789H17.5681V40.5821H15.9053C12.8584 40.5821 11.2649 42.0825 11.2649 44.3301C11.2649 46.8745 12.3658 48.0554 14.6397 49.5586L16.5178 50.808L11.1291 58.7947H7.11719L11.9685 51.6637C9.17877 49.6969 7.60983 47.7773 7.60983 44.5384C7.60983 40.4908 10.4674 37.7368 15.8807 37.7368H21.2709V58.789H21.294Z" fill="white"/>
</svg>
