<svg width="390" height="1514" viewBox="0 0 390 1514" fill="none" xmlns="http://www.w3.org/2000/svg">
    <g filter="url(#filter0_f_2023_8655)">
        <path
            d="M137.834 1077.92C143.543 1047.73 0.0179901 991.026 -24.4464 1008.16C-53.3948 1028.97 -48.5031 1043.25 -55.4347 1077.92C-62.3663 1112.6 -45.2412 1115.05 -24.4464 1137.08C-3.65168 1159.11 55.8785 1171.75 88.09 1168.49C120.301 1165.23 132.126 1108.11 137.834 1077.92Z"
            fill="#5857FF" />
    </g>
    <g filter="url(#filter1_f_2023_8655)">
        <path
            d="M509.259 778.248C399.229 817.102 367.231 686.373 327.002 603.04C321.6 575.059 309.617 503.878 304.905 443.009C299.015 366.922 365.303 333.083 462.238 419.397C559.173 505.712 547.531 481.467 652.265 374.998C756.998 268.529 812.219 232.982 891.949 234.737C971.679 236.492 977.477 291.192 1014.36 332.146C1051.24 373.1 1048.8 587.172 980.775 671.563C912.754 755.954 888.297 639.69 774.07 610.611C659.842 581.532 619.29 739.394 509.259 778.248Z"
            fill="#FF5129" />
    </g>
    <g filter="url(#filter2_f_2023_8655)">
        <path
            d="M156.833 878.665C59.1442 804.967 161.295 735.141 215.24 674.961C237.92 661.158 296.603 627.436 349.904 602.973C416.53 572.394 484.972 613.239 460.224 719.24C435.475 825.24 451.206 807.78 608.068 854.255C764.929 900.729 828.707 932.248 872 995.842C915.293 1059.44 868.276 1082.65 851.403 1125.75C834.531 1168.85 636.364 1239.86 520.476 1214.87C404.587 1189.88 497.69 1130.94 460.084 1030.78C422.478 930.615 254.522 952.363 156.833 878.665Z"
            fill="#5857FF" />
    </g>
    <defs>
        <filter id="filter0_f_2023_8655" x="-207" y="855" width="495" height="464" filterUnits="userSpaceOnUse"
            color-interpolation-filters="sRGB">
            <feFlood flood-opacity="0" result="BackgroundImageFix" />
            <feBlend mode="normal" in="SourceGraphic" in2="BackgroundImageFix" result="shape" />
            <feGaussianBlur stdDeviation="75" result="effect1_foregroundBlur_2023_8655" />
        </filter>
        <filter id="filter1_f_2023_8655" x="81.1957" y="11.3302" width="1180.23" height="997.308"
            filterUnits="userSpaceOnUse" color-interpolation-filters="sRGB">
            <feFlood flood-opacity="0" result="BackgroundImageFix" />
            <feBlend mode="normal" in="SourceGraphic" in2="BackgroundImageFix" result="shape" />
            <feGaussianBlur stdDeviation="111.673" result="effect1_foregroundBlur_2023_8655" />
        </filter>
        <filter id="filter2_f_2023_8655" x="-177.429" y="299.49" width="1360.86" height="1214.17"
            filterUnits="userSpaceOnUse" color-interpolation-filters="sRGB">
            <feFlood flood-opacity="0" result="BackgroundImageFix" />
            <feBlend mode="normal" in="SourceGraphic" in2="BackgroundImageFix" result="shape" />
            <feGaussianBlur stdDeviation="146.801" result="effect1_foregroundBlur_2023_8655" />
        </filter>
    </defs>
</svg>