<svg width="506" height="130" viewBox="0 0 506 130" fill="none" xmlns="http://www.w3.org/2000/svg">
    <g filter="url(#filter0_d_499_4949)">
        <path
            d="M4.70904 120.388C4.37112 120.825 4.45129 121.453 4.88813 121.791C5.32496 122.129 5.95303 122.049 6.29096 121.612L4.70904 120.388ZM305.5 111.5L304.778 112.192L305.5 111.5ZM496.071 112.403C496.57 112.64 497.167 112.427 497.404 111.928L501.26 103.797C501.497 103.298 501.284 102.701 500.785 102.465C500.286 102.228 499.69 102.441 499.453 102.94L496.025 110.168L488.797 106.74C488.298 106.503 487.701 106.716 487.465 107.215C487.228 107.714 487.441 108.31 487.94 108.547L496.071 112.403ZM8.83594 118.375C9.18079 117.944 9.11062 117.315 8.67923 116.97C8.24784 116.625 7.61857 116.695 7.27373 117.127L8.83594 118.375ZM12.4765 110.828C12.1179 111.248 12.1678 111.879 12.5879 112.237C13.0079 112.596 13.6391 112.546 13.9977 112.126L12.4765 110.828ZM19.3753 106.034C19.7476 105.626 19.7188 104.993 19.311 104.621C18.9031 104.249 18.2706 104.277 17.8982 104.685L19.3753 106.034ZM23.4941 98.7615C23.108 99.1564 23.1152 99.7896 23.51 100.176C23.9049 100.562 24.5381 100.555 24.9242 100.16L23.4941 98.7615ZM30.7202 94.4376C31.12 94.0567 31.1354 93.4237 30.7544 93.0238C30.3735 92.6239 29.7405 92.6086 29.3406 92.9895L30.7202 94.4376ZM35.3258 87.4891C34.9124 87.8554 34.8743 88.4874 35.2406 88.9007C35.6069 89.314 36.2389 89.3522 36.6523 88.9859L35.3258 87.4891ZM42.8562 83.6903C43.2829 83.3397 43.3445 82.7096 42.9939 82.2828C42.6433 81.8561 42.0131 81.7945 41.5864 82.1451L42.8562 83.6903ZM47.9916 77.0806C47.552 77.4149 47.4666 78.0422 47.8009 78.4819C48.1352 78.9215 48.7626 79.0069 49.2022 78.6726L47.9916 77.0806ZM55.7493 73.8895C56.2015 73.5723 56.3109 72.9487 55.9938 72.4965C55.6766 72.0444 55.053 71.935 54.6008 72.2521L55.7493 73.8895ZM61.4024 67.6761C60.9382 67.9754 60.8046 68.5943 61.1039 69.0584C61.4032 69.5226 62.0221 69.6563 62.4862 69.357L61.4024 67.6761ZM69.357 65.1145C69.8325 64.8336 69.9903 64.2204 69.7094 63.7449C69.4285 63.2694 68.8153 63.1116 68.3398 63.3925L69.357 65.1145ZM75.4918 59.3565C75.0055 59.6183 74.8236 60.2248 75.0855 60.711C75.3473 61.1973 75.9538 61.3792 76.44 61.1174L75.4918 59.3565ZM83.6505 57.4168C84.1467 57.1744 84.3525 56.5756 84.1101 56.0794C83.8677 55.5831 83.2689 55.3774 82.7726 55.6198L83.6505 57.4168ZM90.1776 52.1816C89.6722 52.4043 89.443 52.9945 89.6656 53.4999C89.8883 54.0053 90.4785 54.2345 90.984 54.0119L90.1776 52.1816ZM98.4867 50.8815C99.0005 50.6789 99.2527 50.0981 99.0501 49.5843C98.8476 49.0706 98.2668 48.8183 97.753 49.0209L98.4867 50.8815ZM105.421 46.1687C104.9 46.3511 104.625 46.9216 104.808 47.4429C104.99 47.9641 105.561 48.2388 106.082 48.0564L105.421 46.1687ZM113.77 45.5308C114.298 45.3685 114.595 44.809 114.432 44.2811C114.27 43.7532 113.711 43.4568 113.183 43.6191L113.77 45.5308ZM121.067 41.3591C120.534 41.5012 120.216 42.049 120.358 42.5827C120.5 43.1164 121.048 43.4339 121.582 43.2918L121.067 41.3591ZM129.455 41.3531C129.994 41.231 130.332 40.6954 130.21 40.1568C130.087 39.6182 129.552 39.2805 129.013 39.4025L129.455 41.3531ZM137.011 37.7439C136.468 37.8462 136.111 38.3691 136.213 38.9118C136.316 39.4546 136.839 39.8116 137.381 39.7094L137.011 37.7439ZM145.392 38.349C145.938 38.2663 146.314 37.7566 146.231 37.2105C146.148 36.6644 145.639 36.2888 145.093 36.3715L145.392 38.349ZM153.207 35.2886C152.658 35.3521 152.265 35.8483 152.328 36.3969C152.392 36.9455 152.888 37.3388 153.437 37.2754L153.207 35.2886ZM161.502 36.4828C162.052 36.4382 162.462 35.9558 162.418 35.4053C162.373 34.8548 161.89 34.4447 161.34 34.4894L161.502 36.4828ZM169.504 33.9658C168.952 33.9919 168.526 34.4603 168.552 35.012C168.578 35.5637 169.047 35.9897 169.598 35.9635L169.504 33.9658ZM177.72 35.7127C178.272 35.7047 178.713 35.2505 178.705 34.6983C178.697 34.1461 178.243 33.7049 177.691 33.7129L177.72 35.7127ZM185.87 33.7256C185.318 33.7159 184.862 34.1557 184.853 34.7079C184.843 35.2601 185.283 35.7156 185.835 35.7253L185.87 33.7256ZM193.933 35.9943C194.485 36.0212 194.954 35.5959 194.981 35.0443C195.008 34.4926 194.583 34.0236 194.031 33.9967L193.933 35.9943ZM202.199 34.522C201.649 34.4781 201.167 34.8888 201.123 35.4394C201.079 35.9899 201.49 36.4718 202.04 36.5157L202.199 34.522ZM210.133 37.2844C210.682 37.3449 211.176 36.949 211.237 36.4C211.297 35.851 210.901 35.357 210.352 35.2965L210.133 37.2844ZM218.468 36.3136C217.921 36.2368 217.415 36.6179 217.339 37.1648C217.262 37.7117 217.643 38.2174 218.19 38.2942L218.468 36.3136ZM226.202 39.5398C226.746 39.6326 227.263 39.2665 227.356 38.7221C227.449 38.1777 227.083 37.6611 226.538 37.5682L226.202 39.5398ZM234.561 39.057C234.019 38.9483 233.492 39.2992 233.384 39.8407C233.275 40.3821 233.626 40.9092 234.167 41.0179L234.561 39.057ZM242.122 42.7356C242.66 42.8601 243.197 42.5248 243.322 41.9867C243.446 41.4487 243.111 40.9116 242.573 40.7871L242.122 42.7356ZM250.524 42.75C249.99 42.6098 249.444 42.9291 249.303 43.4633C249.163 43.9975 249.482 44.5442 250.017 44.6845L250.524 42.75ZM257.844 46.8649C258.373 47.0211 258.929 46.7182 259.086 46.1885C259.242 45.6588 258.939 45.1027 258.409 44.9465L257.844 46.8649ZM266.221 47.38C265.696 47.2076 265.131 47.4932 264.959 48.0179C264.786 48.5426 265.072 49.1077 265.596 49.2801L266.221 47.38ZM273.267 51.9367C273.786 52.1259 274.36 51.8586 274.549 51.3397C274.738 50.8209 274.471 50.2469 273.952 50.0577L273.267 51.9367ZM281.593 52.9915C281.081 52.7846 280.498 53.032 280.292 53.5441C280.085 54.0562 280.332 54.639 280.844 54.8459L281.593 52.9915ZM288.311 58.0248C288.815 58.2509 289.407 58.0256 289.633 57.5217C289.859 57.0178 289.634 56.4261 289.13 56.2L288.311 58.0248ZM296.534 59.7101C296.04 59.4625 295.439 59.662 295.192 60.1557C294.944 60.6493 295.144 61.2503 295.637 61.4978L296.534 59.7101ZM302.76 65.297C303.24 65.5701 303.851 65.4023 304.124 64.9222C304.397 64.4422 304.229 63.8316 303.749 63.5586L302.76 65.297ZM310.761 67.8621C310.302 67.5557 309.681 67.68 309.375 68.1395C309.068 68.5991 309.193 69.2199 309.652 69.5263L310.761 67.8621ZM316.007 74.2037C316.436 74.5516 317.066 74.486 317.414 74.057C317.762 73.6281 317.696 72.9984 317.267 72.6505L316.007 74.2037ZM323.233 77.9922C322.841 77.6034 322.208 77.6061 321.819 77.9984C321.43 78.3906 321.433 79.0238 321.825 79.4126L323.233 77.9922ZM327.043 85.1894C327.389 85.62 328.018 85.6886 328.449 85.3427C328.88 84.9968 328.948 84.3674 328.602 83.9368L327.043 85.1894ZM333.22 90.5022C332.934 90.0301 332.319 89.8797 331.846 90.1664C331.374 90.453 331.224 91.0681 331.511 91.5401L333.22 90.5022ZM335.006 98.4277C335.215 98.939 335.799 99.1841 336.31 98.9752C336.821 98.7664 337.066 98.1826 336.858 97.6713L335.006 98.4277ZM339.179 105.438C339.079 104.895 338.557 104.536 338.014 104.636C337.471 104.737 337.112 105.258 337.212 105.801L339.179 105.438ZM337.541 113.36C337.474 113.909 337.864 114.407 338.413 114.474C338.961 114.541 339.459 114.151 339.526 113.602L337.541 113.36ZM336.528 121.389C336.87 120.956 336.797 120.327 336.364 119.984C335.931 119.642 335.302 119.715 334.959 120.148L336.528 121.389ZM328.888 123.462C328.339 123.521 327.942 124.015 328.002 124.564C328.061 125.113 328.555 125.51 329.104 125.45L328.888 123.462ZM320.935 124.108C321.448 124.311 322.029 124.059 322.232 123.545C322.435 123.032 322.184 122.451 321.67 122.248L320.935 124.108ZM314.971 118.51C314.52 118.19 313.896 118.297 313.577 118.748C313.258 119.199 313.365 119.823 313.815 120.142L314.971 118.51ZM307.63 115.025C308.032 115.404 308.665 115.385 309.044 114.983C309.422 114.581 309.404 113.949 309.002 113.57L307.63 115.025ZM303.5 107.81C303.14 107.391 302.509 107.343 302.09 107.703C301.671 108.063 301.623 108.694 301.983 109.113L303.5 107.81ZM297.083 102.695C297.391 103.154 298.012 103.276 298.471 102.968C298.929 102.66 299.051 102.038 298.743 101.58L297.083 102.695ZM294.822 94.8057C294.58 94.3096 293.981 94.1041 293.485 94.3467C292.988 94.5893 292.783 95.1882 293.026 95.6844L294.822 94.8057ZM290.015 88.131C290.179 88.6584 290.739 88.9532 291.267 88.7894C291.794 88.6255 292.089 88.0652 291.925 87.5377L290.015 88.131ZM290.226 79.9054C290.151 79.3581 289.647 78.975 289.1 79.0497C288.553 79.1243 288.17 79.6284 288.244 80.1756L290.226 79.9054ZM287.83 72.0327C287.811 72.5847 288.244 73.0472 288.796 73.0658C289.348 73.0843 289.81 72.6519 289.829 72.0999L287.83 72.0327ZM290.736 64.3333C290.844 63.7918 290.493 63.2649 289.951 63.1566C289.41 63.0483 288.883 63.3994 288.775 63.941L290.736 64.3333ZM290.982 56.1101C290.793 56.6289 291.06 57.203 291.579 57.3922C292.097 57.5815 292.671 57.3143 292.861 56.7954L290.982 56.1101ZM296.061 49.6291C296.32 49.1413 296.135 48.5359 295.647 48.277C295.159 48.0181 294.554 48.2037 294.295 48.6916L296.061 49.6291ZM298.543 41.7785C298.226 42.2305 298.335 42.8542 298.787 43.1715C299.239 43.4888 299.863 43.3795 300.18 42.9275L298.543 41.7785ZM305.067 36.7443C305.433 36.3305 305.394 35.6986 304.98 35.3328C304.567 34.967 303.935 35.006 303.569 35.4198L305.067 36.7443ZM309.238 29.6374C308.832 30.0118 308.807 30.6445 309.181 31.0505C309.556 31.4564 310.188 31.482 310.594 31.1075L309.238 29.6374ZM316.654 26.0308C317.093 25.6962 317.178 25.0687 316.843 24.6294C316.509 24.19 315.881 24.1051 315.442 24.4397L316.654 26.0308ZM322.09 19.8296C321.623 20.1242 321.483 20.7417 321.777 21.2089C322.072 21.6761 322.69 21.816 323.157 21.5214L322.09 19.8296ZM330.024 17.5878C330.514 17.3335 330.705 16.7299 330.451 16.2396C330.197 15.7494 329.593 15.5581 329.103 15.8123L330.024 17.5878ZM336.408 12.3939C335.899 12.6076 335.659 13.1937 335.873 13.7029C336.086 14.2122 336.673 14.4518 337.182 14.2381L336.408 12.3939ZM344.59 11.4703C345.115 11.2976 345.4 10.7324 345.227 10.2078C345.055 9.68319 344.489 9.3979 343.965 9.57058L344.59 11.4703ZM351.723 7.35029C351.187 7.48134 350.858 8.02251 350.989 8.55902C351.12 9.09553 351.661 9.42422 352.198 9.29317L351.723 7.35029ZM359.957 7.71613C360.502 7.62732 360.872 7.11344 360.783 6.56834C360.694 6.02324 360.18 5.65335 359.635 5.74215L359.957 7.71613ZM367.653 4.75552C367.103 4.80149 366.694 5.28491 366.74 5.83528C366.786 6.38565 367.27 6.79455 367.82 6.74858L367.653 4.75552ZM375.74 6.39891C376.292 6.39623 376.738 5.94634 376.735 5.39406C376.732 4.84178 376.283 4.39625 375.73 4.39893L375.74 6.39891ZM383.781 4.67557C383.23 4.63496 382.751 5.04854 382.71 5.59933C382.67 6.15012 383.083 6.62955 383.634 6.67015L383.781 4.67557ZM391.487 7.56062C392.033 7.64436 392.544 7.2697 392.628 6.7238C392.711 6.1779 392.337 5.66748 391.791 5.58374L391.487 7.56062ZM399.715 7.12014C399.178 6.99384 398.639 7.3273 398.513 7.86495C398.387 8.4026 398.72 8.94084 399.258 9.06714L399.715 7.12014ZM406.909 11.1834C407.435 11.3512 407.997 11.0608 408.165 10.5346C408.333 10.0084 408.043 9.44584 407.516 9.27798L406.909 11.1834ZM415.087 12.0175C414.575 11.8099 413.992 12.0565 413.785 12.5683C413.577 13.0801 413.824 13.6632 414.335 13.8708L415.087 12.0175ZM421.535 17.1106C422.03 17.3558 422.63 17.1535 422.875 16.6586C423.12 16.1637 422.918 15.5638 422.423 15.3186L421.535 17.1106ZM429.528 19.1695C429.052 18.8889 428.439 19.0471 428.159 19.5229C427.878 19.9986 428.036 20.6117 428.512 20.8922L429.528 19.1695ZM435.202 25.1621C435.657 25.4753 436.279 25.3603 436.592 24.9054C436.906 24.4505 436.791 23.8278 436.336 23.5147L435.202 25.1621ZM442.779 28.2754C442.346 27.9327 441.717 28.0061 441.375 28.4393C441.032 28.8725 441.105 29.5014 441.539 29.844L442.779 28.2754ZM447.624 34.983C448.034 35.3525 448.666 35.3193 449.036 34.9088C449.405 34.4983 449.372 33.866 448.962 33.4965L447.624 34.983ZM454.767 39.0469C454.379 38.6536 453.746 38.6492 453.353 39.0369C452.959 39.4247 452.955 40.0578 453.343 40.4511L454.767 39.0469ZM458.735 46.2396C459.1 46.6539 459.732 46.6939 460.147 46.3288C460.561 45.9636 460.601 45.3317 460.236 44.9174L458.735 46.2396ZM465.433 51.1453C465.091 50.7121 464.462 50.6387 464.029 50.9813C463.596 51.324 463.522 51.9529 463.865 52.386L465.433 51.1453ZM468.586 58.6661C468.907 59.1154 469.532 59.2193 469.981 58.8982C470.43 58.577 470.534 57.9524 470.213 57.5031L468.586 58.6661ZM474.801 64.2525C474.501 63.7887 473.882 63.6558 473.418 63.9557C472.954 64.2556 472.822 64.8747 473.121 65.3385L474.801 64.2525ZM477.225 71.9909C477.505 72.4669 478.118 72.6257 478.594 72.3456C479.07 72.0654 479.229 71.4525 478.949 70.9765L477.225 71.9909ZM482.947 78.1015C482.687 77.6146 482.081 77.4311 481.594 77.6917C481.107 77.9523 480.923 78.5583 481.184 79.0452L482.947 78.1015ZM484.741 85.997C484.984 86.4931 485.582 86.6986 486.079 86.4559C486.575 86.2133 486.78 85.6144 486.538 85.1182L484.741 85.997ZM489.982 92.4905C489.757 91.9861 489.166 91.7597 488.662 91.9848C488.157 92.2099 487.931 92.8012 488.156 93.3055L489.982 92.4905ZM491.24 100.528C491.449 101.039 492.033 101.284 492.544 101.075C493.055 100.867 493.3 100.283 493.091 99.7716L491.24 100.528ZM496.026 107.283C495.833 106.766 495.257 106.503 494.739 106.696C494.222 106.89 493.959 107.466 494.152 107.983L496.026 107.283ZM6.29096 121.612C7.13519 120.521 7.98356 119.442 8.83594 118.375L7.27373 117.127C6.41469 118.201 5.55976 119.288 4.70904 120.388L6.29096 121.612ZM13.9977 112.126C15.7745 110.044 17.5673 108.014 19.3753 106.034L17.8982 104.685C16.0752 106.682 14.2677 108.729 12.4765 110.828L13.9977 112.126ZM24.9242 100.16C26.841 98.1993 28.7734 96.2923 30.7202 94.4376L29.3406 92.9895C27.3766 94.8606 25.4275 96.7842 23.4941 98.7615L24.9242 100.16ZM36.6523 88.9859C38.706 87.1658 40.7744 85.401 42.8562 83.6903L41.5864 82.1451C39.4854 83.8716 37.3981 85.6525 35.3258 87.4891L36.6523 88.9859ZM49.2022 78.6726C51.3719 77.0228 53.5547 75.4289 55.7493 73.8895L54.6008 72.2521C52.3852 73.8062 50.1817 75.4152 47.9916 77.0806L49.2022 78.6726ZM62.4862 69.357C64.7657 67.8872 67.0564 66.4736 69.357 65.1145L68.3398 63.3925C66.0168 64.7648 63.7039 66.1922 61.4024 67.6761L62.4862 69.357ZM76.44 61.1174C78.8348 59.8279 81.2388 58.5949 83.6505 57.4168L82.7726 55.6198C80.3374 56.8093 77.91 58.0543 75.4918 59.3565L76.44 61.1174ZM90.984 54.0119C93.4788 52.9127 95.9802 51.8698 98.4867 50.8815L97.753 49.0209C95.2223 50.0188 92.6967 51.0717 90.1776 52.1816L90.984 54.0119ZM106.082 48.0564C108.642 47.1605 111.205 46.3193 113.77 45.5308L113.183 43.6191C110.593 44.415 108.006 45.2642 105.421 46.1687L106.082 48.0564ZM121.582 43.2918C124.207 42.5931 126.832 41.9475 129.455 41.3531L129.013 39.4025C126.366 40.0024 123.717 40.6539 121.067 41.3591L121.582 43.2918ZM137.381 39.7094C140.056 39.2054 142.727 38.7526 145.392 38.349L145.093 36.3715C142.404 36.7787 139.709 37.2355 137.011 37.7439L137.381 39.7094ZM153.437 37.2754C156.133 36.9634 158.822 36.7 161.502 36.4828L161.34 34.4894C158.638 34.7084 155.926 34.974 153.207 35.2886L153.437 37.2754ZM169.598 35.9635C172.318 35.8347 175.026 35.7519 177.72 35.7127L177.691 33.7129C174.976 33.7524 172.246 33.8359 169.504 33.9658L169.598 35.9635ZM185.835 35.7253C188.553 35.7728 191.253 35.8634 193.933 35.9943L194.031 33.9967C191.33 33.8647 188.609 33.7735 185.87 33.7256L185.835 35.7253ZM202.04 36.5157C204.762 36.7326 207.46 36.9898 210.133 37.2844L210.352 35.2965C207.66 34.9997 204.941 34.7406 202.199 34.522L202.04 36.5157ZM218.19 38.2942C220.892 38.6736 223.563 39.0898 226.202 39.5398L226.538 37.5682C223.88 37.1151 221.189 36.6958 218.468 36.3136L218.19 38.2942ZM234.167 41.0179C236.859 41.5581 239.512 42.1319 242.122 42.7356L242.573 40.7871C239.944 40.179 237.272 39.6011 234.561 39.057L234.167 41.0179ZM250.017 44.6845C252.678 45.3833 255.288 46.1116 257.844 46.8649L258.409 44.9465C255.835 44.1876 253.205 43.454 250.524 42.75L250.017 44.6845ZM265.596 49.2801C268.223 50.1433 270.782 51.0306 273.267 51.9367L273.952 50.0577C271.447 49.1442 268.868 48.2499 266.221 47.38L265.596 49.2801ZM280.844 54.8459C283.433 55.8917 285.924 56.9538 288.311 58.0248L289.13 56.2C286.719 55.1184 284.205 54.0465 281.593 52.9915L280.844 54.8459ZM295.637 61.4978C298.168 62.767 300.546 64.0374 302.76 65.297L303.749 63.5586C301.502 62.2806 299.094 60.9939 296.534 59.7101L295.637 61.4978ZM309.652 69.5263C310.808 70.297 311.894 71.0574 312.906 71.8045L314.094 70.1954C313.054 69.4278 311.942 68.649 310.761 67.8621L309.652 69.5263ZM312.906 71.8045C313.978 72.5958 315.012 73.3961 316.007 74.2037L317.267 72.6505C316.248 71.8235 315.19 71.0046 314.094 70.1954L312.906 71.8045ZM321.825 79.4126C323.754 81.3243 325.49 83.2565 327.043 85.1894L328.602 83.9368C327.001 81.9438 325.214 79.9557 323.233 77.9922L321.825 79.4126ZM331.511 91.5401C332.932 93.8806 334.091 96.1886 335.006 98.4277L336.858 97.6713C335.901 95.3302 334.693 92.9284 333.22 90.5022L331.511 91.5401ZM337.212 105.801C337.723 108.565 337.815 111.113 337.541 113.36L339.526 113.602C339.828 111.125 339.721 108.371 339.179 105.438L337.212 105.801ZM334.959 120.148C333.486 122.01 331.446 123.184 328.888 123.462L329.104 125.45C332.196 125.114 334.723 123.67 336.528 121.389L334.959 120.148ZM321.67 122.248C319.61 121.434 317.37 120.208 314.971 118.51L313.815 120.142C316.32 121.915 318.7 123.225 320.935 124.108L321.67 122.248ZM309.002 113.57C308.091 112.711 307.164 111.792 306.222 110.808L304.778 112.192C305.742 113.198 306.693 114.142 307.63 115.025L309.002 113.57ZM306.222 110.808C305.27 109.814 304.363 108.815 303.5 107.81L301.983 109.113C302.87 110.146 303.801 111.172 304.778 112.192L306.222 110.808ZM298.743 101.58C297.236 99.3354 295.932 97.0747 294.822 94.8057L293.026 95.6844C294.177 98.0379 295.526 100.377 297.083 102.695L298.743 101.58ZM291.925 87.5377C291.134 84.992 290.572 82.4444 290.226 79.9054L288.244 80.1756C288.606 82.8247 289.192 85.4803 290.015 88.131L291.925 87.5377ZM289.829 72.0999C289.916 69.4885 290.223 66.8958 290.736 64.3333L288.775 63.941C288.241 66.6075 287.921 69.3091 287.83 72.0327L289.829 72.0999ZM292.861 56.7954C293.748 54.3631 294.819 51.9705 296.061 49.6291L294.295 48.6916C293.011 51.1109 291.902 53.5876 290.982 56.1101L292.861 56.7954ZM300.18 42.9275C301.669 40.8063 303.302 38.7419 305.067 36.7443L303.569 35.4198C301.756 37.4712 300.076 39.594 298.543 41.7785L300.18 42.9275ZM310.594 31.1075C312.507 29.3431 314.53 27.648 316.654 26.0308L315.442 24.4397C313.27 26.094 311.199 27.8294 309.238 29.6374L310.594 31.1075ZM323.157 21.5214C325.366 20.1287 327.657 18.815 330.024 17.5878L329.103 15.8123C326.687 17.0652 324.347 18.4067 322.09 19.8296L323.157 21.5214ZM337.182 14.2381C339.592 13.2264 342.064 12.3016 344.59 11.4703L343.965 9.57058C341.389 10.4184 338.867 11.3617 336.408 12.3939L337.182 14.2381ZM352.198 9.29317C354.743 8.67146 357.331 8.14379 359.957 7.71613L359.635 5.74215C356.958 6.17825 354.319 6.71631 351.723 7.35029L352.198 9.29317ZM367.82 6.74858C370.434 6.53023 373.076 6.41186 375.74 6.39891L375.73 4.39893C373.014 4.41214 370.319 4.53286 367.653 4.75552L367.82 6.74858ZM383.634 6.67015C386.239 6.86222 388.859 7.15741 391.487 7.56062L391.791 5.58374C389.11 5.17251 386.438 4.87146 383.781 4.67557L383.634 6.67015ZM399.258 9.06714C401.807 9.66589 404.359 10.3698 406.909 11.1834L407.516 9.27798C404.917 8.44853 402.314 7.73074 399.715 7.12014L399.258 9.06714ZM414.335 13.8708C416.743 14.8472 419.144 15.9259 421.535 17.1106L422.423 15.3186C419.987 14.1117 417.541 13.0126 415.087 12.0175L414.335 13.8708ZM428.512 20.8922C430.756 22.2156 432.987 23.6378 435.202 25.1621L436.336 23.5147C434.083 21.9641 431.813 20.5168 429.528 19.1695L428.512 20.8922ZM441.539 29.844C443.586 31.4632 445.615 33.1753 447.624 34.983L448.962 33.4965C446.922 31.6606 444.86 29.9211 442.779 28.2754L441.539 29.844ZM453.343 40.4511C455.161 42.2957 456.96 44.2245 458.735 46.2396L460.236 44.9174C458.436 42.8746 456.612 40.9185 454.767 39.0469L453.343 40.4511ZM463.865 52.386C465.461 54.4034 467.035 56.4962 468.586 58.6661L470.213 57.5031C468.643 55.3073 467.05 53.1885 465.433 51.1453L463.865 52.386ZM473.121 65.3385C474.511 67.4881 475.88 69.7051 477.225 71.9909L478.949 70.9765C477.59 68.667 476.206 66.4261 474.801 64.2525L473.121 65.3385ZM481.184 79.0452C482.391 81.3014 483.578 83.6183 484.741 85.997L486.538 85.1182C485.364 82.7181 484.167 80.3795 482.947 78.1015L481.184 79.0452ZM488.156 93.3055C489.205 95.6572 490.234 98.0643 491.24 100.528L493.091 99.7716C492.077 97.2887 491.041 94.8619 489.982 92.4905L488.156 93.3055ZM494.152 107.983C494.626 109.253 495.095 110.537 495.558 111.836L497.442 111.164C496.976 109.857 496.504 108.563 496.026 107.283L494.152 107.983Z"
            fill="white" />
    </g>
    <defs>
        <filter id="filter0_d_499_4949" x="0.499939" y="0.398926" width="504.857" height="129.057"
            filterUnits="userSpaceOnUse" color-interpolation-filters="sRGB">
            <feFlood flood-opacity="0" result="BackgroundImageFix" />
            <feColorMatrix in="SourceAlpha" type="matrix" values="0 0 0 0 0 0 0 0 0 0 0 0 0 0 0 0 0 0 127 0"
                result="hardAlpha" />
            <feOffset />
            <feGaussianBlur stdDeviation="2" />
            <feComposite in2="hardAlpha" operator="out" />
            <feColorMatrix type="matrix" values="0 0 0 0 1 0 0 0 0 1 0 0 0 0 1 0 0 0 1 0" />
            <feBlend mode="normal" in2="BackgroundImageFix" result="effect1_dropShadow_499_4949" />
            <feBlend mode="normal" in="SourceGraphic" in2="effect1_dropShadow_499_4949" result="shape" />
        </filter>
    </defs>
</svg>