<svg width="72" height="83" fill="none" xmlns="http://www.w3.org/2000/svg" viewBox="0 0 72 83">
    <path
        d="M41.486 10.422a22.915 22.915 0 0 0-26.74 18.253 22.682 22.682 0 0 0-.176 7.386.514.514 0 0 0 .006.163c.017.144.043.287.08.427.015.11.03.22.06.352.058.261.123.578.22.92a21.596 21.596 0 0 0 1.16 3.73l-.003.018c1.688 5.014 5.188 13.918 12.276 29.825.026.08.06.159.1.234.038.088.082.174.13.257.06.076.124.148.192.216l.014.02c.061.066.128.127.2.181.098.076.207.14.322.187.26.12.545.174.831.156.125-.002.249-.02.369-.055a.738.738 0 0 0 .272-.11c.088-.04.174-.083.257-.131.076-.06.148-.124.216-.192l.02-.014c.058-.051.11-.107.157-.168 12.397-12.231 18.9-19.248 22.3-23.302.017.003.017.003.02-.014a23.015 23.015 0 0 0 2.423-3.055c.217-.3.39-.554.54-.777.075-.111.13-.208.183-.306.086-.117.163-.24.231-.368a.515.515 0 0 0 .064-.15 22.682 22.682 0 0 0 2.529-6.942 22.916 22.916 0 0 0-18.253-26.74Z"
        stroke="#fff" stroke-width="3.72" />
    <path
        d="M36.572 43.854c.088.018.177.03.267.037.395.023.789-.061 1.137-.243s.637-.454.835-.787L45.3 31.814c.196-.335.29-.718.271-1.105a2.022 2.022 0 0 0-.379-1.079 2.063 2.063 0 0 0-.922-.696 2.091 2.091 0 0 0-1.157-.097L30.508 31.2c-.384.067-.74.237-1.03.491a2.036 2.036 0 0 0-.672 1.823c.047.293.16.573.331.819.134.2.306.373.506.509l3.539 2.483c.358.253.617.618.735 1.034l1.045 4.03c.098.367.302.701.587.961.286.26.641.435 1.023.504Z"
        stroke="#fff" stroke-width="3.1" />
</svg>