<svg xmlns="http://www.w3.org/2000/svg" width="60" height="62" viewBox="0 0 60 62" fill="none">
    <path
        d="M59.9021 41.4849V3.38082C59.9021 1.72183 58.8001 0.376953 57.4407 0.376953L49.3305 0.376953C47.9711 0.376953 46.8691 1.72183 46.8691 3.38082V41.4849C46.8691 43.1439 47.9711 44.4888 49.3305 44.4888H57.4407C58.8001 44.4888 59.9021 43.1439 59.9021 41.4849Z"
        fill="#FF5129" />
    <path fill-rule="evenodd" clip-rule="evenodd"
        d="M0.0271277 31.7711H0.0269775V41.9572C0.0269775 43.2616 1.34346 44.3288 2.9525 44.3288L24.1946 44.3284V59.1957C24.1946 60.4861 25.2241 61.5322 26.4941 61.5322H34.0711C35.3412 61.5322 36.3707 60.4861 36.3707 59.1957V44.3281L56.3816 44.3277C57.9907 44.3277 59.3072 43.2605 59.3072 41.9561V31.77L12.2033 31.7709V2.93286C12.2033 1.64783 11.1685 0.596436 9.90371 0.596436H2.32668C1.06193 0.596436 0.0271277 1.64783 0.0271277 2.93286L0.0271277 31.7711Z"
        fill="#FF5129" />
    <path
        d="M2.9514 0.376953H56.3856C57.9946 0.376953 59.3111 1.44418 59.3111 2.74857V10.5631C59.3111 11.8675 57.9946 12.9347 56.3856 12.9347L0.0258789 12.9347V2.74857C0.0258789 1.44418 1.34236 0.376953 2.9514 0.376953Z"
        fill="#FF5129" />
</svg>