<svg xmlns="http://www.w3.org/2000/svg" width="38" height="62" viewBox="0 0 38 62" fill="none">
    <path
        d="M0.778931 10.3396L30.4519 10.3396V0.569653L2.79956 0.569653C1.68822 0.569653 0.778931 1.39996 0.778931 2.41477L0.778931 10.3396Z"
        fill="#FF5129" />
    <path
        d="M26.1109 0.570801L26.1109 43.1637H35.7078C36.9368 43.1637 37.9423 42.4032 37.9423 41.4738V2.26066C37.9423 1.33124 36.9368 0.570801 35.7078 0.570801L26.1109 0.570801Z"
        fill="#FF5129" />
    <path
        d="M14.9988 38.3032C14.5644 38.3032 14.2123 38.6553 14.2123 39.0896L14.2123 60.9385C14.2123 61.3728 14.5644 61.7249 14.9988 61.7249H23.0035C24.1293 61.7249 25.0504 61.3067 25.0504 60.7956V39.2325C25.0504 38.7214 24.1293 38.3032 23.0035 38.3032H14.9988Z"
        fill="#FF5129" />
    <path fill-rule="evenodd" clip-rule="evenodd"
        d="M0.0847054 34.6617V2.18318C0.0847054 1.29624 1.0902 0.570557 2.31914 0.570557H11.9161V33.6988H36.9126C37.4816 33.6988 37.9429 34.16 37.9429 34.729V42.1336C37.9429 42.7026 37.4816 43.1638 36.9126 43.1638H1.1128C0.543804 43.1638 0.0825386 42.7026 0.0825386 42.1336V34.729C0.0825386 34.7064 0.0832672 34.6839 0.0847054 34.6617Z"
        fill="#FF5129" />
</svg>