<svg xmlns="http://www.w3.org/2000/svg" width="45" height="62" viewBox="0 0 45 62" fill="none">
    <path
        d="M44.3809 54.9094V4.54034C44.3809 2.34735 43.4188 0.56958 42.2321 0.56958L35.1519 0.56958C33.9652 0.56958 33.0032 2.34735 33.0032 4.54034V54.9094C33.0032 57.1024 33.9652 58.8802 35.1519 58.8802H42.2321C43.4188 58.8802 44.3809 57.1024 44.3809 54.9094Z"
        fill="#FF5129" />
    <path fill-rule="evenodd" clip-rule="evenodd"
        d="M11.6702 50.347V4.2498C11.6702 2.22568 10.7033 0.56958 9.52148 0.56958H2.44132C1.2595 0.56958 0.292563 2.22568 0.292563 4.2498V50.347H0.292236V59.5759C0.292236 60.7577 1.1647 61.7247 2.23104 61.7247H42.4419C43.5083 61.7247 44.3807 60.7577 44.3807 59.5759V50.347H11.6702Z"
        fill="#FF5129" />
    <path
        d="M2.1685 0.56958H41.0823C42.1142 0.56958 42.9585 1.53652 42.9585 2.71834V9.7985C42.9585 10.9803 42.1142 11.9473 41.0823 11.9473H0.292236V2.71834C0.292236 1.53652 1.13656 0.56958 2.1685 0.56958Z"
        fill="#FF5129" />
</svg>