<svg xmlns="http://www.w3.org/2000/svg" width="89" height="33" viewBox="0 0 89 33" fill="none">
    <path d="M11.5551 12.8389H9.68808C9.68808 12.8389 8.4538 14.3013 8.03892 14.7785C7.75887 15.1 7.16766 15.7431 6.87724 16.0542C6.7424 16.1891 6.33789 16.6039 6.33789 16.6039C6.33789 16.6039 6.7424 17.0085 6.87724 17.1537C7.17803 17.4648 7.75887 18.1079 8.03892 18.4294C8.46417 18.9066 9.68808 20.369 9.68808 20.369H11.5447L8.36045 16.6039L11.5551 12.8389Z" fill="black" fill-opacity="0.6"/>
    <path d="M81.0588 16.5105C80.1564 16.3446 79.7312 16.1579 79.7312 15.7948C79.7312 15.5044 80.0735 15.1103 80.9032 15.1103C81.7538 15.1103 82.1271 15.4941 82.1894 15.8675H83.5792C83.4755 14.6539 82.5628 13.959 81.0381 13.959C79.42 13.959 78.4554 14.7369 78.3932 15.7326C78.331 16.6765 78.9844 17.1743 79.4615 17.3818C79.6793 17.4751 79.8971 17.5581 80.1253 17.6203C80.4365 17.7137 81.6811 17.973 81.8886 18.0352C82.3138 18.1701 82.5731 18.2945 82.5731 18.6057C82.5731 18.7716 82.5005 18.9065 82.3657 19.0206C82.1479 19.1969 81.8678 19.2902 81.3492 19.2902C81.0796 19.2902 80.6647 19.1969 80.395 19.0413C80.1357 18.8857 79.9179 18.6472 79.8453 18.3775H78.3828C78.4969 19.2073 79.2748 20.4623 81.287 20.4623C83.1125 20.4623 83.9526 19.5496 83.9526 18.5746C83.9215 17.164 82.7287 16.8217 81.0588 16.5105Z" fill="black" fill-opacity="0.6"/>
    <path d="M6.33796 12.8389H4.88586V20.3586H6.33796V12.8389Z" fill="black" fill-opacity="0.6"/>
    <path d="M45.8141 14.0835V12.8389H40.8043V20.3586H45.8141V19.114H42.3498V17.2678H45.2954V15.9298H42.3498V14.0835H45.8141Z" fill="black" fill-opacity="0.6"/>
    <path d="M75.0637 16.5105C74.1613 16.3446 73.7361 16.1579 73.7361 15.7948C73.7361 15.5044 74.0783 15.1103 74.9081 15.1103C75.7586 15.1103 76.132 15.4941 76.1943 15.8675H77.5841C77.4804 14.6539 76.5677 13.959 75.043 13.959C73.4249 13.959 72.4603 14.7369 72.3981 15.7326C72.3358 16.6765 72.9893 17.1743 73.4664 17.3818C73.6842 17.4751 73.902 17.5581 74.1302 17.6203C74.4414 17.7137 75.686 17.973 75.8935 18.0352C76.3187 18.1701 76.578 18.2945 76.578 18.6057C76.578 18.7716 76.5054 18.9065 76.3706 19.0206C76.1528 19.1969 75.8727 19.2902 75.3541 19.2902C75.0844 19.2902 74.6696 19.1969 74.3999 19.0413C74.1406 18.8857 73.9228 18.6472 73.8502 18.3775H72.3877C72.5018 19.2073 73.2797 20.4623 75.2919 20.4623C77.1174 20.4623 77.9575 19.5496 77.9575 18.5746C77.9264 17.164 76.7336 16.8217 75.0637 16.5105Z" fill="black" fill-opacity="0.6"/>
    <path d="M33.5752 20.3582V14.0727H35.0688V14.9751C35.3696 14.3631 36.0749 13.9482 36.9565 13.9482C38.4501 13.9482 39.311 14.9128 39.311 16.4687V18.4497C39.311 18.9372 39.3939 19.1136 39.7362 19.1136C39.8088 19.1136 39.8814 19.1032 39.954 19.0928V20.3478C39.7777 20.3997 39.5703 20.4204 39.3006 20.4204C38.3152 20.4204 37.8278 19.8707 37.8278 18.7713V16.5931C37.8278 15.7115 37.3403 15.1722 36.5001 15.1722C35.66 15.1722 35.0688 15.7841 35.0688 16.6657V20.3582H33.5752Z" fill="black" fill-opacity="0.6"/>
    <path d="M71.7342 17.1535C71.7342 14.965 70.3547 13.9692 68.6537 13.9692C66.6726 13.9692 65.6354 15.3591 65.6354 17.2779C65.6354 19.2383 67.0149 20.4622 68.7574 20.4622C70.3754 20.4622 71.3815 19.4665 71.6719 18.3774H70.1991C69.9087 18.9686 69.3175 19.2901 68.7885 19.2901C67.7305 19.2901 67.0149 18.4085 67.0149 17.6098H71.7238L71.7342 17.1535ZM67.0045 16.6349C67.0564 15.9503 67.7202 15.2035 68.7055 15.2035C69.6598 15.2035 70.3028 15.9088 70.3132 16.6349H67.0045Z" fill="black" fill-opacity="0.6"/>
    <path d="M53.2716 14.0732H51.4461L49.7969 16.324L48.1478 14.0732H46.3223L48.8842 17.3301L46.4882 20.3587H48.3137L49.7969 18.3258L51.2801 20.3587H53.1056L50.7097 17.3301L53.2716 14.0732Z" fill="black" fill-opacity="0.6"/>
    <path d="M32.4759 19.1138C32.1336 19.1138 32.0506 18.9375 32.0506 18.45V17.4958V14.073H30.4948V14.8924C29.9658 14.3426 29.302 13.9692 28.5034 13.9692C26.8023 13.9692 25.4229 15.4213 25.4229 17.2157C25.4229 19.0101 26.8023 20.4518 28.5034 20.4622C28.9183 20.4622 29.3331 20.3792 29.7169 20.2132C30.0799 20.0577 30.4015 19.8191 30.6608 19.5287C30.8475 20.1303 31.3038 20.4207 32.0403 20.4207C32.2996 20.4207 32.5174 20.3999 32.6937 20.3481V19.0931C32.6211 19.1034 32.5485 19.1138 32.4759 19.1138ZM30.111 18.5226C29.8103 18.9064 29.385 19.1553 28.9183 19.2175C28.5449 19.2694 28.1715 19.1864 27.8292 18.9997C27.4765 18.8026 27.1965 18.4811 27.0202 18.0766C26.8438 17.6721 26.8023 17.2157 26.8853 16.7801C26.9683 16.3445 27.1861 15.9607 27.4973 15.6806C27.7981 15.411 28.1611 15.245 28.5345 15.2035C28.8975 15.1724 29.2605 15.2554 29.5717 15.4317C29.8725 15.608 30.1214 15.8673 30.2977 16.1889C30.4637 16.5 30.557 16.8527 30.557 17.2053C30.5467 17.6928 30.3911 18.1596 30.111 18.5226Z" fill="black" fill-opacity="0.6"/>
    <path d="M64.6601 13.959C63.7681 13.959 63.0732 14.3739 62.7724 14.9858V14.0834H61.2788V20.3689H62.7724V16.7491C62.7724 15.8882 63.3636 15.2866 64.2037 15.2866C64.5045 15.2866 64.7638 15.3592 64.9713 15.4837L65.7181 14.2494C65.4691 14.0627 65.0854 13.959 64.6601 13.959Z" fill="black" fill-opacity="0.6"/>
    <path d="M57.4619 13.9692C56.6633 13.9692 55.9891 14.353 55.4705 14.8924V14.073H53.925V22.8996H55.4394V19.6635C55.6779 19.8917 55.9476 20.0784 56.2484 20.2132C56.6322 20.3792 57.0367 20.4726 57.4619 20.4622C59.163 20.4518 60.5425 19.0101 60.5425 17.2157C60.5425 15.4213 59.163 13.9692 57.4619 13.9692ZM58.9555 18.0766C58.7792 18.4707 58.4992 18.7923 58.1465 18.9997C57.8146 19.1968 57.4308 19.2694 57.0574 19.2175C56.5907 19.1553 56.1654 18.9064 55.8646 18.5226C55.5742 18.1596 55.4186 17.6928 55.4186 17.2157C55.4186 16.8631 55.5016 16.5 55.6779 16.1992C55.8439 15.8777 56.0928 15.6184 56.404 15.4421C56.7151 15.2554 57.0782 15.1724 57.4412 15.2139C57.825 15.245 58.188 15.411 58.4784 15.691C58.7896 15.9711 58.997 16.3652 59.0904 16.7905C59.1733 17.2157 59.1318 17.6721 58.9555 18.0766Z" fill="black" fill-opacity="0.6"/>
    <path d="M18.4424 19.1138C18.1002 19.1138 18.0172 18.9375 18.0172 18.45V17.4958V14.073H16.4614V14.8924C15.9324 14.3426 15.2686 13.9692 14.4699 13.9692C12.7689 13.9692 11.3894 15.4213 11.3894 17.2157C11.3894 19.0101 12.7689 20.4518 14.4699 20.4622C14.8848 20.4622 15.2997 20.3792 15.6835 20.2132C16.0465 20.0577 16.368 19.8191 16.6273 19.5287C16.814 20.1303 17.2704 20.4207 18.0068 20.4207C18.2661 20.4207 18.4839 20.3999 18.6603 20.3481V19.0931C18.5876 19.1034 18.515 19.1138 18.4424 19.1138ZM16.0672 18.5226C15.7664 18.9064 15.3412 19.1553 14.8744 19.2175C14.501 19.2694 14.1276 19.1864 13.7854 18.9997C13.4327 18.8026 13.1527 18.4811 12.9763 18.0766C12.8 17.6721 12.7585 17.2157 12.8415 16.7801C12.9245 16.3445 13.1423 15.9607 13.4535 15.6806C13.7542 15.411 14.1173 15.245 14.4907 15.2035C14.8537 15.1724 15.2167 15.2554 15.5279 15.4317C15.8287 15.608 16.0776 15.8673 16.2539 16.1889C16.4199 16.5 16.5132 16.8527 16.5132 17.2053C16.5132 17.6928 16.3576 18.1596 16.0672 18.5226Z" fill="black" fill-opacity="0.6"/>
    <path d="M24.8939 15.3179V14.0732H19.5107V15.3075H23.0269L19.5107 19.1245V20.3587H24.8939V19.1245H21.3777L24.8939 15.3179Z" fill="black" fill-opacity="0.6"/>
</svg>