<svg xmlns="http://www.w3.org/2000/svg" width="89" height="33" viewBox="0 0 89 33" fill="none">
    <path d="M25.9662 20.2235V12.8354H31.9642V20.2235H30.4993V14.2476H27.431V20.2235H25.9662Z" fill="black" fill-opacity="0.6"/>
    <path d="M36.25 15.9663H35.4187C34.7258 15.9663 34.3794 16.2132 34.3794 16.6972C34.3794 17.1711 34.7159 17.4083 35.3891 17.4083C35.6858 17.4083 35.9729 17.3884 36.2501 17.339V15.9663H36.25ZM37.6062 14.8403V20.2233H36.25V18.3553C35.9874 18.4031 35.7093 18.4662 35.3727 18.476L34.2506 20.2233H32.7264L34.0668 18.2861C33.364 17.9895 32.9935 17.4775 32.9935 16.6776C32.9935 15.581 33.7953 14.8405 35.379 14.8405H37.6062V14.8403Z" fill="black" fill-opacity="0.6"/>
    <path d="M46.7713 15.2946C47.1869 15.6995 47.3948 16.2528 47.3948 16.9734V20.2232H45.9992V17.2304C45.9992 16.4108 45.5638 15.9762 44.9203 15.9762C44.2175 15.9762 43.7325 16.4798 43.7325 17.27V20.2233H42.3369V17.2404C42.3369 16.4402 41.9116 15.9762 41.2484 15.9762C40.5654 15.9762 40.0706 16.4798 40.0706 17.28V20.2233H38.675V14.8404H40.0407V15.6107C40.3475 15.0477 40.981 14.6824 41.6838 14.6921C42.3566 14.6921 42.9804 15.018 43.2672 15.6403C43.6632 15.0478 44.3956 14.6921 45.1974 14.6921C45.8408 14.6921 46.3654 14.8897 46.7711 15.2947L46.7713 15.2946Z" fill="black" fill-opacity="0.6"/>
    <path d="M58.3224 18.6332C58.5993 18.3369 58.7379 17.9713 58.7379 17.5367C58.7379 17.1023 58.5993 16.7367 58.3224 16.4404C58.0453 16.1441 57.6889 15.9959 57.2435 15.9959C56.8079 15.9959 56.4517 16.1442 56.1746 16.4404C55.8973 16.7366 55.7587 17.1023 55.7587 17.5367C55.7587 17.9712 55.8973 18.3369 56.1746 18.6332C56.4517 18.9294 56.8079 19.0775 57.2435 19.0775C57.6888 19.0775 58.0452 18.9294 58.3224 18.6332ZM59.3912 15.5219C59.8961 16.0652 60.1434 16.7368 60.1434 17.527C60.1434 18.3172 59.8862 18.9888 59.3812 19.5321C58.8763 20.0751 58.2431 20.3517 57.4808 20.3517C56.8179 20.3517 56.2063 20.0626 55.7884 19.5508V22.436H54.3928V14.8407H55.7787V15.5463C56.2215 14.9952 56.8079 14.7021 57.491 14.7021C58.253 14.7021 58.8866 14.9788 59.3912 15.522V15.5219Z" fill="black" fill-opacity="0.6"/>
    <path d="M63.5386 19.0674C63.9643 19.0674 64.3107 18.9191 64.5978 18.6229C64.8849 18.3169 65.0334 17.9513 65.0334 17.5266C65.0334 17.102 64.8849 16.7364 64.5978 16.44C64.3107 16.1438 63.9643 15.9956 63.5386 15.9956C63.113 15.9956 62.7566 16.1438 62.4695 16.44C62.1826 16.7364 62.0441 17.102 62.0441 17.5266C62.0441 17.9513 62.1826 18.3168 62.4695 18.6229C62.7566 18.9191 63.113 19.0674 63.5386 19.0674ZM61.4602 15.5215C62.0045 14.9683 62.6972 14.6919 63.5386 14.6919C64.3799 14.6919 65.0727 14.9683 65.617 15.5215C66.1615 16.0648 66.4289 16.7364 66.4289 17.5266C66.4289 18.3267 66.1615 18.9981 65.617 19.5414C65.0727 20.0846 64.3799 20.3615 63.5386 20.3615C62.6972 20.3615 62.0045 20.0846 61.4602 19.5414C60.9157 18.9981 60.6486 18.3267 60.6486 17.5266C60.6486 16.7364 60.9157 16.0648 61.4602 15.5215Z" fill="black" fill-opacity="0.6"/>
    <path d="M70.358 14.8403H71.7536V20.2233H70.358V18.4115C69.9492 18.6444 69.5066 18.7615 69.1602 18.7615C68.517 18.7615 68.0418 18.6431 67.6161 18.3563C67.1904 18.0506 66.9532 17.4773 66.9532 16.6478V14.8403H68.3388V16.5491C68.3388 17.1813 68.6653 17.4973 69.3187 17.4973C69.6849 17.4973 69.9972 17.4462 70.358 17.3023V14.8403Z" fill="black" fill-opacity="0.6"/>
    <path d="M76.3659 20.2234L74.2182 17.7377V20.2234H72.8226V14.8325H74.2182V16.9682L76.1777 14.8404H77.9397L75.5346 17.3335L78.0782 20.2234H76.3659Z" fill="black" fill-opacity="0.6"/>
    <path d="M81.7557 16.4306C81.4686 16.1243 81.1122 15.9763 80.6766 15.9763C80.2312 15.9763 79.8752 16.1243 79.588 16.4306C79.3109 16.7369 79.1724 17.1022 79.1724 17.5271C79.1724 17.9614 79.3109 18.3271 79.598 18.6333C79.8852 18.9393 80.2413 19.0876 80.6767 19.0876C81.1123 19.0876 81.4687 18.9393 81.7558 18.6333C82.0427 18.327 82.1912 17.9614 82.1912 17.5271C82.1912 17.1022 82.0427 16.7369 81.7558 16.4306H81.7557ZM82.1714 14.8405H83.4974V20.2231H82.1714V19.5122C81.7076 20.0734 81.1322 20.3518 80.4491 20.3518C79.677 20.3518 79.0338 20.0851 78.529 19.5419C78.0241 18.9986 77.7769 18.317 77.7769 17.5071C77.7769 16.6972 78.034 16.0257 78.5389 15.5021C79.0439 14.9688 79.6871 14.7021 80.4491 14.7021C81.122 14.7021 81.7159 15.0074 82.1714 15.5463V14.8405Z" fill="black" fill-opacity="0.6"/>
    <path d="M51.2551 13.4876C51.2551 13.0234 51.6215 12.6777 52.0964 12.6777C52.5614 12.6777 52.9178 13.0431 52.9178 13.4876C52.9178 13.9716 52.5614 14.3271 52.0964 14.3271C51.6215 14.3271 51.2551 13.9715 51.2551 13.4876ZM49.533 16.9839H52.2746C52.1461 16.2826 51.6411 15.8581 50.9286 15.8581C50.2258 15.8581 49.7013 16.2827 49.533 16.9839ZM49.9388 12.6778C50.404 12.6778 50.7701 13.0432 50.7701 13.4877C50.7701 13.9717 50.4137 14.3272 49.9388 14.3272C49.4638 14.3272 49.1073 13.9716 49.1073 13.4877C49.1073 13.0432 49.4735 12.6778 49.9388 12.6778ZM53.5809 18.0211H49.533C49.7309 18.7817 50.2555 19.167 51.1065 19.167C51.6907 19.167 52.3407 18.9487 52.8339 18.558L53.3955 19.4406C52.7142 20.0766 51.9381 20.3422 51.0471 20.3422C50.0969 20.3422 49.3745 20.0656 48.8698 19.5223C48.3649 18.9792 48.1174 18.3077 48.1174 17.5274C48.1174 16.7076 48.3746 16.036 48.8994 15.5027C49.4241 14.9692 50.0969 14.7025 50.9285 14.7025C51.7103 14.7025 52.3635 14.9494 52.8684 15.4334C53.3733 15.9174 53.6305 16.5693 53.6305 17.4088C53.6305 17.5964 53.6108 17.8038 53.5809 18.0211V18.0211Z" fill="black" fill-opacity="0.6"/>
    <path d="M17.8062 9.413C17.4966 10.3747 16.9567 10.9791 16.1223 11.3045C15.2538 11.643 14.1965 11.6517 13.1741 11.6599C12.6247 11.6645 12.0981 11.6689 11.6159 11.7264C12.4836 9.63105 14.041 9.42421 15.7015 9.42421C15.9326 9.42421 16.1645 9.42904 16.3886 9.43344C16.6123 9.43812 16.824 9.44217 17.035 9.44217C17.3373 9.44217 17.5859 9.43294 17.8063 9.41307L17.8062 9.413ZM18.5335 9.95274C20.3594 11.416 21.5298 13.6635 21.5298 16.1852C21.5298 20.5954 17.9548 24.1704 13.5446 24.1704C9.13458 24.1704 5.55957 20.5954 5.55957 16.1852C5.55957 11.7753 9.13451 8.2002 13.5446 8.2002C14.3721 8.2002 15.1699 8.32619 15.9205 8.55965C15.8476 8.55894 15.775 8.55795 15.7014 8.55795C13.8608 8.55795 11.7895 8.83577 10.7416 11.5891C10.6831 11.7428 10.6718 11.7996 10.62 11.9693C10.5862 12.0787 10.2963 13.2132 10.1995 13.6481L9.59072 16.0911L9.61882 16.1031L11.2537 16.8C12.5969 14.3447 15.5448 15.4639 15.2574 17.5647C14.9751 19.6295 12.4739 20.625 11.2399 18.6345C11.1816 18.5407 11.1263 18.4379 11.0942 18.3319L9.25014 18.8051C9.31154 19.0073 9.47203 19.3839 9.56388 19.5723C10.4326 21.354 12.3693 22.0064 14.1177 21.5702C15.7222 21.1701 17.2392 19.7787 17.4836 17.6514C17.8469 14.4923 14.4506 12.4167 11.8829 14.5099L12.3883 12.5397C14.4698 12.4673 17.4217 12.8413 18.5335 9.95274Z" fill="black" fill-opacity="0.6"/>
</svg>