<svg xmlns="http://www.w3.org/2000/svg" width="89" height="33" viewBox="0 0 89 33" fill="none">
    <path fill-rule="evenodd" clip-rule="evenodd" d="M24.4099 14.7266H25.6464L25.6399 16.3704H25.8642L27.2144 14.7266H28.6917L26.8394 16.8378L28.7821 19.0867H27.2547L25.8671 17.4163H25.6435L25.65 19.0867H24.4132V14.7266H24.4099Z" fill="black" fill-opacity="0.6"/>
    <path fill-rule="evenodd" clip-rule="evenodd" d="M29.5003 19.0833L30.3534 17.6126L28.6349 14.7235H30.0421L31.0352 16.4784L31.9646 14.7235H33.348L30.8847 19.0833H29.5003ZM23.2762 16.7857C23.6336 16.6028 23.8777 16.24 23.8777 15.8184C23.8777 15.2169 23.3766 14.7267 22.7611 14.7267H20.0869V19.0869H22.8618C23.5339 19.0869 24.0753 18.5542 24.0753 17.9004C24.0753 17.3905 23.7441 16.9559 23.2798 16.7857H23.2762ZM21.2874 15.6976H22.2636C22.4803 15.6976 22.6545 15.8675 22.6545 16.0799C22.6545 16.2923 22.4803 16.4622 22.2636 16.4622H21.2874V15.6976ZM22.4238 18.1128H21.2874V17.3083H22.4238C22.6509 17.3083 22.8352 17.4882 22.8352 17.7104C22.8352 17.9326 22.6509 18.1128 22.4238 18.1128ZM37.5768 14.7267H38.814V16.3576H40.5185V14.7267H41.7556V19.0869H40.5185V17.4298H38.814V19.0869H37.5768V14.7267ZM48.3707 16.4001H53.1446V17.4103H48.3707V16.4001ZM57.5502 19.0833V16.5992L55.6514 19.0833H54.5751V14.7235H55.8122V17.1157L57.6474 14.7235H58.787V19.0833H57.5502ZM62.3942 15.7856H61.0638V14.7267H64.968V15.7856H63.6307V19.0869H62.3942V15.7856ZM44.5598 14.5796C43.2463 14.5796 42.18 15.6222 42.18 16.9068C42.18 18.1911 43.2459 19.2337 44.5598 19.2337C45.8733 19.2337 46.9402 18.1911 46.9402 16.9068C46.9402 15.6222 45.8733 14.5796 44.5598 14.5796ZM44.5598 18.0245C43.9281 18.0245 43.4166 17.5243 43.4166 16.9068C43.4166 16.2887 43.9281 15.7888 44.5598 15.7888C45.1915 15.7888 45.7031 16.289 45.7031 16.9068C45.7031 17.5243 45.1915 18.0245 44.5598 18.0245ZM72.9505 17.7695C72.6467 17.825 72.3321 17.8643 72.0582 17.8643C70.8915 17.8643 70.2796 17.2794 70.2796 16.2497V14.7228H71.5168V16.086C71.5168 16.5664 71.7475 16.7659 72.2418 16.7659C72.4894 16.7659 72.7266 16.7399 72.9509 16.684V14.7235H74.1874V19.0833H72.9509L72.9505 17.7695ZM74.6251 14.7267H75.8623L75.8558 16.3706H76.0794L77.4303 14.7267H78.9076L77.0552 16.838L78.9979 19.0869H77.4699L76.0829 17.4164H75.8587L75.8652 19.0869H74.6287V14.7267H74.6251ZM67.5489 14.5796C66.235 14.5796 65.1685 15.6222 65.1685 16.9068C65.1685 18.1911 66.235 19.2337 67.5489 19.2337C68.8627 19.2337 69.9283 18.1911 69.9283 16.9068C69.9283 15.6222 68.8624 14.5796 67.5489 14.5796ZM67.5489 18.0245C66.9168 18.0245 66.4056 17.5243 66.4056 16.9068C66.4056 16.2887 66.9168 15.7888 67.5489 15.7888C68.1809 15.7888 68.6918 16.289 68.6918 16.9068C68.6918 17.5243 68.1806 18.0245 67.5489 18.0245ZM36.1697 17.5538C36.0623 17.7001 35.9218 17.819 35.7598 17.9008C35.5977 17.9826 35.4186 18.025 35.237 18.0245C34.605 18.0245 34.0935 17.5243 34.0935 16.9068C34.0935 16.2887 34.605 15.7888 35.2367 15.7888C35.6212 15.7888 35.9624 15.9753 36.1697 16.2598L37.1456 15.5209C36.922 15.2271 36.6332 14.9892 36.3019 14.8258C35.9707 14.6625 35.6061 14.5782 35.2367 14.5796C33.9232 14.5796 32.857 15.6222 32.857 16.9068C32.857 18.1911 33.9229 19.2337 35.2367 19.2337C35.606 19.2347 35.9705 19.1502 36.3017 18.9869C36.6328 18.8236 36.9217 18.5859 37.1456 18.2924L36.1697 17.5538Z" fill="black" fill-opacity="0.6"/>
    <path fill-rule="evenodd" clip-rule="evenodd" d="M82.0497 14.7266H80.8333L78.954 19.0867H80.2477L80.5658 18.302H82.2901L82.6083 19.0867H83.9316L82.0461 14.7266H82.0497ZM80.9265 17.3607L81.4312 16.1287L81.9294 17.3607H80.9301H80.9265Z" fill="black" fill-opacity="0.6"/>
    <path fill-rule="evenodd" clip-rule="evenodd" d="M12.0539 12.0886C11.1654 12.6908 10.8837 13.8685 11.4342 14.7998L14.9341 20.7242C14.9816 20.8047 15.0901 20.8268 15.1681 20.7735C16.0569 20.171 16.3386 18.9936 15.7878 18.0618L12.2882 12.138C12.2765 12.1189 12.261 12.1024 12.2427 12.0895C12.2244 12.0765 12.2037 12.0675 12.1817 12.0628C12.1598 12.0582 12.1372 12.058 12.1152 12.0624C12.0932 12.0668 12.0724 12.0756 12.0539 12.0883M8.5543 12.0886C7.66583 12.6908 7.38441 13.8685 7.93491 14.7998L11.4348 20.7242C11.4823 20.8047 11.5908 20.8268 11.6688 20.7735C12.5576 20.171 12.839 18.9936 12.2882 18.0618L8.78893 12.138C8.77722 12.1189 8.76172 12.1023 8.74339 12.0893C8.72506 12.0764 8.70428 12.0673 8.68232 12.0627C8.66036 12.058 8.63768 12.0579 8.61567 12.0623C8.59366 12.0667 8.57277 12.0756 8.5543 12.0883" fill="black" fill-opacity="0.6"/>
    <path fill-rule="evenodd" clip-rule="evenodd" d="M8.88972 18.7572C8.88972 17.6275 7.95185 16.7119 6.79496 16.7119C5.63806 16.7119 4.7002 17.6279 4.7002 18.7572C4.7002 19.8865 5.63806 20.8028 6.79496 20.8028C7.95185 20.8028 8.88972 19.8869 8.88972 18.7572Z" fill="black" fill-opacity="0.6"/>
</svg>