<svg xmlns="http://www.w3.org/2000/svg" width="89" height="33" viewBox="0 0 89 33" fill="none">
    <path d="M13.8693 9.35303V16.3789C13.8693 16.7001 13.6284 16.941 13.3072 16.941H12.4641C12.4239 16.941 12.3838 16.9812 12.3838 17.0213V22.9231C12.5845 22.9231 12.7853 22.9632 13.0262 22.9632C16.8001 22.9632 19.8513 19.912 19.8513 16.1381C19.8513 12.6452 17.2417 9.75451 13.8693 9.35303ZM13.7087 19.8718C13.2269 19.8718 12.8656 19.4703 12.8656 19.0287C12.8656 18.5469 13.267 18.1856 13.7087 18.1856C14.1905 18.1856 14.5518 18.5871 14.5518 19.0287C14.5919 19.4703 14.1905 19.8718 13.7087 19.8718ZM15.7161 19.8718C15.2343 19.8718 14.873 19.4703 14.873 19.0287C14.873 18.5469 15.2745 18.1856 15.7161 18.1856C16.1979 18.1856 16.5592 18.5871 16.5592 19.0287C16.5592 19.4703 16.1979 19.8718 15.7161 19.8718ZM17.7235 19.8718C17.2417 19.8718 16.8804 19.4703 16.8804 19.0287C16.8804 18.5469 17.2819 18.1856 17.7235 18.1856C18.2053 18.1856 18.5666 18.5871 18.5666 19.0287C18.5666 19.4703 18.2053 19.8718 17.7235 19.8718Z" fill="black" fill-opacity="0.6"/>
    <path d="M13.0263 9.31299C9.25243 9.31299 6.20117 12.3642 6.20117 16.1382C6.20117 19.4303 8.48961 22.1604 11.581 22.8027V16.6601C11.581 16.3791 11.8219 16.1382 12.1029 16.098H12.946C12.9862 16.098 13.0263 16.0579 13.0263 16.0177V9.31299ZM11.7015 14.9337C11.2197 14.9337 10.8583 14.5322 10.8583 14.0906C10.8583 13.6088 11.2598 13.2475 11.7015 13.2475C12.1832 13.2475 12.5446 13.649 12.5446 14.0906C12.5446 14.5322 12.1832 14.9337 11.7015 14.9337ZM77.9056 15.6162V13.0468H76.1793V19.8719H77.9056V17.1017H81.3584V19.8719H83.0446V13.0468H81.3584V15.6162H77.9056ZM52.9335 13.8096C52.6525 13.2074 52.0904 12.8862 51.5284 12.8862C50.9663 12.8862 50.4042 13.2074 50.1232 13.8096L47.353 19.8719H49.1596L49.7618 18.4266H53.2949L53.8971 19.8719H55.7038L52.9335 13.8096ZM50.3239 17.0616L51.3678 14.5724C51.4079 14.4921 51.4481 14.4921 51.4882 14.4921C51.5284 14.4921 51.6087 14.4921 51.6087 14.5724L52.6525 17.0616H50.3239ZM32.6186 11.8022C31.8156 11.8022 31.2937 12.2438 30.9324 13.0869L28.7242 18.2259L26.5161 13.0869C26.1548 12.2438 25.6328 11.8022 24.8299 11.8022C24.0671 11.8022 23.3043 12.3241 23.3043 13.4884V19.8318H24.9905V13.6891L27.2388 18.7879C27.5198 19.5106 28.0417 19.9522 28.7242 19.9522C29.4469 19.9522 29.9287 19.5106 30.2097 18.7879L32.458 13.6891V19.8719H34.1442V13.5285C34.1442 12.3642 33.3814 11.8022 32.6186 11.8022ZM37.1553 18.4266C37.075 18.4266 36.9947 18.3463 36.9947 18.266V17.0616H41.2505V15.6564H36.9947V14.6125C36.9947 14.5322 37.075 14.4519 37.1553 14.4519H41.3709V13.0066H36.3122C35.71 13.0066 35.3085 13.4884 35.3085 14.0103V18.7879C35.3085 19.3099 35.7502 19.7916 36.3122 19.7916H41.3709V18.3463H37.1553V18.4266ZM44.2214 19.8719V14.6527C44.2214 14.5724 44.3017 14.4921 44.382 14.4921H48.5975V13.0468H43.5389C42.9367 13.0468 42.5352 13.5285 42.5352 14.0505V19.8318H44.2214V19.8719ZM75.0551 16.4593C75.0551 14.0906 74.0113 12.9665 71.4418 12.9665H70.8396C68.2701 12.9665 67.2263 14.0906 67.2263 16.4593C67.2263 18.7879 68.2701 19.9522 70.8396 19.9522H71.4017C74.0113 19.9121 75.0551 18.7879 75.0551 16.4593ZM71.4017 18.5069H70.8396C69.4344 18.5069 68.8723 17.8645 68.8723 16.4593C68.8723 15.0943 69.3541 14.4118 70.8396 14.4118H71.4017C72.847 14.4118 73.3689 15.0943 73.3689 16.4593C73.3689 17.8645 72.847 18.5069 71.4017 18.5069ZM62.4888 11.9628H59.1163C56.587 11.9628 55.5833 13.2475 55.5833 15.4556C55.5833 15.817 55.6235 16.1382 55.6636 16.4192C55.9446 17.985 56.8681 18.9485 59.2368 18.9485H59.9996V19.8318H61.6858V18.9485H62.4085C64.7772 18.9485 65.7006 17.985 65.9817 16.4192C66.0218 16.1382 66.062 15.817 66.062 15.4556C66.0218 13.2475 64.978 11.9628 62.4888 11.9628ZM59.9193 17.5433H59.1565C57.9922 17.5433 57.5907 17.1017 57.3498 16.4192C57.2695 16.1783 57.2695 15.817 57.2695 15.4556C57.2695 14.0103 57.9521 13.4081 58.9156 13.4081H59.9595V17.5433H59.9193ZM64.2553 16.4593C64.0144 17.1419 63.5728 17.5835 62.4486 17.5835H61.6858V13.4081H62.7297C63.6932 13.4081 64.3757 14.0103 64.3757 15.4556C64.3356 15.8571 64.3356 16.1783 64.2553 16.4593Z" fill="black" fill-opacity="0.6"/>
</svg>