<svg xmlns="http://www.w3.org/2000/svg" width="89" height="33" viewBox="0 0 89 33" fill="none">
    <path fill-rule="evenodd" clip-rule="evenodd" d="M21.5544 21.8565L23.9542 14.6568V21.8565H27.536V10.3959H22.6999L20.3725 16.1262L18.0451 10.3959H13.2091V21.8589H16.7908V14.6592L19.2076 21.8589M60.0493 17.4023C61.1659 17.3129 62.28 16.5516 62.28 15.3021V12.472C62.1495 11.1814 61.1804 10.483 60.0324 10.3911H50.8171V21.8565H54.3988V17.3999H55.8247L58.1521 21.8565H62.2704L59.4983 17.3999H60.0469L60.0493 17.4023ZM59.056 14.4296C59.056 14.6785 58.9932 14.896 58.5485 14.896H54.3988V12.646H58.5533C59.0584 12.646 59.056 12.9771 59.056 13.1825V14.4296ZM38.2811 12.6532V10.3959H28.9691V21.8589H38.4068L38.4092 19.6016H32.5605V17.1485H38.2835V14.896H32.5629V12.6532H38.2835H38.2811ZM42.7594 12.6532H39.3566V10.3959H49.744V12.6532H46.3412V21.8589H42.7594V12.6532ZM73.5641 10.3959H65.9512C64.808 10.4878 63.8413 11.0678 63.7132 12.3656V19.7804C63.8413 21.0782 64.808 21.7646 65.9512 21.8565H73.5641C74.7073 21.7646 75.674 21.0758 75.8021 19.7804V12.3656C75.674 11.0678 74.7073 10.4878 73.5641 10.3959ZM72.2204 19.0892C72.2034 19.2173 72.1551 19.5581 71.7128 19.6016H67.8339C67.3916 19.5581 67.3118 19.2173 67.2949 19.0892V13.1004C67.3118 12.9723 67.3722 12.6968 67.8145 12.6532H71.7152C72.1575 12.6968 72.2034 12.9723 72.2204 13.1004V19.0892Z" fill="white" fill-opacity="0.35"/>
    <path fill-rule="evenodd" clip-rule="evenodd" d="M21.5544 21.8565L23.9542 14.6568V21.8565H27.536V10.3959H22.6999L20.3725 16.1262L18.0451 10.3959H13.2091V21.8589H16.7908V14.6592L19.2076 21.8589M60.0493 17.4023C61.1659 17.3129 62.28 16.5516 62.28 15.3021V12.472C62.1495 11.1814 61.1804 10.483 60.0324 10.3911H50.8171V21.8565H54.3988V17.3999H55.8247L58.1521 21.8565H62.2704L59.4983 17.3999H60.0469L60.0493 17.4023ZM59.056 14.4296C59.056 14.6785 58.9932 14.896 58.5485 14.896H54.3988V12.646H58.5533C59.0584 12.646 59.056 12.9771 59.056 13.1825V14.4296ZM38.2811 12.6532V10.3959H28.9691V21.8589H38.4068L38.4092 19.6016H32.5605V17.1485H38.2835V14.896H32.5629V12.6532H38.2835H38.2811ZM42.7594 12.6532H39.3566V10.3959H49.744V12.6532H46.3412V21.8589H42.7594V12.6532ZM73.5641 10.3959H65.9512C64.808 10.4878 63.8413 11.0678 63.7132 12.3656V19.7804C63.8413 21.0782 64.808 21.7646 65.9512 21.8565H73.5641C74.7073 21.7646 75.674 21.0758 75.8021 19.7804V12.3656C75.674 11.0678 74.7073 10.4878 73.5641 10.3959ZM72.2204 19.0892C72.2034 19.2173 72.1551 19.5581 71.7128 19.6016H67.8339C67.3916 19.5581 67.3118 19.2173 67.2949 19.0892V13.1004C67.3118 12.9723 67.3722 12.6968 67.8145 12.6532H71.7152C72.1575 12.6968 72.2034 12.9723 72.2204 13.1004V19.0892Z" fill="#626262"/>
</svg>