<svg xmlns="http://www.w3.org/2000/svg" width="90" height="33" viewBox="0 0 90 33" fill="none">
    <path d="M60.2271 20.693C63.9895 18.7133 64.8934 16.2045 63.7332 15.5021C62.0231 14.5434 57.3331 16.2579 57.8651 20.9464C57.6325 21.0857 57.1701 21.3361 57.1701 21.3361L57.4828 22.2844C57.4828 22.2844 58.1363 21.8932 58.3141 21.7717C58.8653 22.2163 59.1499 22.4623 60.0034 22.4786C61.8157 22.5156 63.379 20.5063 63.379 20.5063L62.9182 19.7994C62.9182 19.7994 60.9266 21.711 60.2271 20.693ZM60.728 17.8197C61.2659 16.8654 62.1432 16.1201 62.567 16.4179C62.9937 16.7143 62.1298 18.2242 60.1027 19.8305C60.0212 19.6898 60.1856 18.7785 60.728 17.8212V17.8197ZM25.1404 22.0622C24.235 21.1183 25.09 17.9279 25.2663 17.2403C25.2826 17.1766 25.2337 17.1144 25.1685 17.1144C25.13 17.1144 25.0944 17.1351 25.0781 17.1707C24.6973 17.9397 22.6301 22.4801 20.8001 22.4801C20.766 22.4801 20.7304 22.48 20.6963 22.4771C18.9285 22.3111 19.1597 19.8691 19.7094 18.3887H22.5605C22.3278 19.0289 22.2478 19.4305 22.2552 19.6409C22.2612 19.792 22.3871 19.8706 22.5101 19.8054C22.805 19.6512 23.2925 19.0126 23.7148 18.2776C24.4869 16.9365 25.4782 14.9168 27.1882 9.81934H30.3179C29.3902 12.66 28.636 15.228 28.224 18.165C28.2033 18.3117 28.3722 18.4347 28.5056 18.3087C29.3991 17.4685 32.6532 10.4298 32.8577 9.81934H35.9918C35.9918 9.81934 32.8844 18.4258 33.1452 19.8572C33.1808 20.0513 33.3823 20.1032 33.5453 19.9165C33.7365 19.6987 34.0328 19.3134 34.2062 19.1104L34.6908 19.5935C33.8002 20.693 32.3524 22.6845 30.9062 22.4445C30.6824 22.4074 30.4646 22.28 30.3031 22.114C28.7975 20.8056 30.8973 16.4386 31.2662 15.4117C31.3477 15.185 31.4278 14.9776 31.4781 14.8472C31.5048 14.7805 31.4559 14.7094 31.3848 14.7094C31.3448 14.7094 31.3092 14.7316 31.2914 14.7671C31.2188 14.9213 31.0232 15.3377 30.958 15.4769C30.026 17.3974 27.8877 22.4771 26.1317 22.4771C25.8561 22.4771 25.4441 22.3734 25.1418 22.0607L25.1404 22.0622ZM55.429 11.9754C54.039 11.9932 53.3292 12.7178 53.3292 12.7178L53.3663 13.5698C53.3663 13.5698 54.2524 12.6867 55.2586 13.0601C55.9432 13.3135 56.6233 14.1848 56.158 16.1141C55.7402 15.0413 54.119 14.8042 52.815 16.206C51.7748 17.3248 50.3685 21.059 52.4446 22.2074C55.0244 23.6359 57.2887 19.4512 57.8103 16.5972C58.1393 14.7983 58.3349 11.9369 55.429 11.9739V11.9754ZM54.3472 20.6263C54.0687 20.8249 53.5782 20.9256 53.4833 20.0513C53.3485 18.7933 54.2183 17.2774 54.488 16.9247C54.9489 16.3231 55.5935 16.2771 55.6053 17.1899C55.6201 18.2391 55.0407 20.1328 54.3458 20.6278L54.3472 20.6263ZM46.5602 11.2686C45.0562 10.744 39.7305 12.4333 37.9863 18.3206C37.773 18.3798 36.7475 18.6436 36.7475 18.6436L36.3015 19.8498L37.8856 19.3653C37.8856 19.3653 37.7122 22.3911 40.3721 22.4786C42.463 22.4015 43.5832 19.346 42.9312 17.3826C42.7993 17.4478 41.0923 18.1709 41.0923 18.1709C41.0923 18.1709 41.4331 20.1565 40.6892 20.6159C40.5736 20.687 40.4225 20.6781 40.3262 20.5433C40.1098 20.2425 39.972 19.4631 40.2135 18.4258C44.0426 16.4357 46.6565 12.9312 46.8151 11.7264C46.8566 11.4167 46.6106 11.2863 46.5573 11.2686H46.5602ZM41.7991 16.4816C41.0893 17.0255 40.5381 17.2951 40.5381 17.2951C40.5381 17.2951 40.7351 16.8328 40.8922 16.5676C41.3012 15.8785 43.2824 13.2201 44.9347 12.7267C44.9984 12.7074 45.0458 12.7533 45.0443 12.82C45.0295 13.3994 42.9312 15.6162 41.7976 16.4831L41.7991 16.4816ZM49.798 20.9241C50.0499 20.7671 50.3937 20.4944 50.3937 20.4944L50.6056 21.1434C50.4797 21.2768 49.4557 22.0888 48.82 22.3852C48.1339 22.7053 47.5012 22.283 47.4152 21.7673C47.316 21.176 47.6212 20.4025 47.6212 20.4025C47.6212 20.4025 46.5261 21.6487 45.4118 22.2563C45.1021 22.4252 44.8665 22.4934 44.6768 22.4875C43.9255 22.4697 43.6914 21.7421 43.7729 21.3539C43.8707 20.8901 44.8872 17.7619 45.0147 17.2477C45.028 17.1973 44.9761 17.1366 44.908 17.1559C44.5998 17.2403 43.7922 17.7664 43.7922 17.7664V16.898C43.7922 16.898 46.0119 15.391 46.5987 15.225C47.1411 15.0709 47.6034 15.3806 47.4671 15.9971C47.4049 16.4238 46.0831 20.0395 46.0001 20.4766C45.9838 20.564 46.0742 20.57 46.0994 20.5626C46.5306 20.4307 47.3248 19.7579 47.9339 18.7962C48.5014 17.8982 48.8911 16.7587 49.3624 15.354H51.3865C51.3865 15.354 49.8558 20.0484 49.6824 20.8263C49.6632 20.9108 49.7506 20.9508 49.7936 20.9227L49.798 20.9241ZM66.0004 22.4845C64.9171 22.4771 64.4148 21.5776 64.2903 21.2872C63.0545 18.2154 66.679 15.3614 66.679 15.3614H68.7788C68.7788 15.3614 65.581 17.919 66.0241 20.1862C66.3219 21.2872 67.2762 20.9982 67.8986 20.1314C68.6558 19.0778 69.3374 17.0003 68.8232 16.944C68.3461 16.8921 67.7119 17.9234 67.7119 17.9234L67.7089 17.9205L67.2644 17.2433C67.6096 16.7958 68.5921 15.6281 69.6842 15.2636C69.8502 15.2117 70.8415 14.9524 70.8415 16.4149C70.8415 17.9797 69.0974 22.5052 66.0004 22.4845ZM36.4897 21.6399C36.4897 22.1037 36.1133 22.4786 35.651 22.4786C35.1886 22.4786 34.8123 22.1037 34.8123 21.6399C34.8123 21.176 35.1901 20.7997 35.651 20.7997C36.1118 20.7997 36.4897 21.1746 36.4897 21.6399Z" fill="black" fill-opacity="0.6"/>
</svg>