<svg xmlns="http://www.w3.org/2000/svg" width="90" height="33" viewBox="0 0 90 33" fill="none">
    <path d="M15.3933 9.22345C17.2681 8.90394 19.2477 9.2349 20.9089 10.1656C22.828 11.2244 24.3111 13.0553 24.9314 15.1653C25.3774 16.6855 25.4392 18.358 24.8897 19.8605C24.2568 21.6421 22.833 23.1181 21.082 23.8167C19.2187 24.5787 17.0154 24.4342 15.2707 23.4299C13.1989 22.2773 11.8534 19.9645 11.8598 17.5883C10.6824 17.5858 9.50493 17.5883 8.32751 17.587C8.33512 15.7523 8.939 13.9239 10.0545 12.4682C11.3405 10.7615 13.2886 9.5709 15.3933 9.22345ZM17.8505 14.4919C16.2082 14.8445 15.0509 16.6526 15.4779 18.2959C15.8342 20.0166 17.7734 21.1894 19.4511 20.6429C21.0644 20.2181 22.1344 18.3732 21.6429 16.7604C21.2425 15.1513 19.4536 14.0647 17.8505 14.4919ZM29.492 18.8006C30.5721 17.298 32.8802 17.0114 34.3482 18.093C35.0102 18.5711 35.4372 19.3128 35.6355 20.0977C35.0152 20.099 34.395 20.1015 33.7759 20.0951C33.6041 19.7718 33.3918 19.451 33.0659 19.2659C32.3458 18.8677 31.3149 19.0909 30.8968 19.8263C30.5317 20.4641 30.5342 21.3087 30.9056 21.9439C31.3251 22.6603 32.3344 22.8771 33.0469 22.4929C33.378 22.3103 33.594 21.9883 33.7645 21.6599C34.3886 21.6472 35.0127 21.6535 35.6368 21.6548C35.4334 22.4409 35.0064 23.1865 34.3394 23.6645C33.071 24.5825 31.1747 24.5242 29.9897 23.4832C28.6418 22.3648 28.4194 20.1814 29.492 18.8006ZM38.195 17.776C39.2234 17.1839 40.656 17.369 41.4279 18.2997C41.4241 18.0601 41.4253 17.8216 41.4253 17.5833C42.0254 17.582 42.6267 17.5808 43.2268 17.5833C43.2281 19.7756 43.2306 21.9667 43.2268 24.1578C42.6267 24.1578 42.0267 24.1578 41.4266 24.159C41.4253 23.9194 41.4241 23.6785 41.4279 23.4401C40.7355 24.2808 39.4937 24.5191 38.5058 24.1109C37.2727 23.6177 36.4933 22.3167 36.4478 21.0106C36.3973 19.7275 37.0454 18.3923 38.195 17.776ZM39.3257 19.1911C38.0598 19.6362 37.9032 21.5939 38.9429 22.3598C39.6213 22.8479 40.6862 22.7389 41.1966 22.0555C41.6881 21.386 41.6906 20.3868 41.2068 19.7122C40.7898 19.1365 39.9775 18.9578 39.3257 19.1911ZM55.8613 17.506C57.7626 17.0672 59.8168 18.552 59.9797 20.506C60.2362 22.3648 58.6988 24.1882 56.8454 24.2972C55.0162 24.5103 53.202 23.009 53.0997 21.1577C52.9177 19.4624 54.2051 17.8103 55.8613 17.506ZM56.1317 19.1721C55.3699 19.3432 54.8734 20.1243 54.905 20.8851C54.8608 21.8006 55.6402 22.6843 56.5814 22.6171C57.5857 22.6375 58.3146 21.5939 58.158 20.6429C58.1113 19.6577 57.0842 18.8893 56.1317 19.1721ZM69.4003 17.7659C70.4287 17.1839 71.8461 17.3766 72.618 18.2984C72.6117 18.0601 72.6117 17.8216 72.6117 17.5833C73.2118 17.582 73.8132 17.582 74.4145 17.5833C74.4157 19.7743 74.4157 21.9667 74.4132 24.1578C73.8119 24.159 73.2118 24.159 72.6117 24.1578C72.613 23.9181 72.613 23.6785 72.6192 23.4401C71.9245 24.2757 70.6914 24.5191 69.7035 24.1147C68.5438 23.6557 67.7795 22.479 67.6519 21.2579C67.5028 19.8923 68.1661 18.4176 69.4003 17.7659ZM70.5285 19.186C69.2399 19.6222 69.082 21.6218 70.1545 22.3763C70.8354 22.8479 71.8866 22.7288 72.3881 22.0465C72.8871 21.3568 72.8782 20.3221 72.3477 19.6526C71.9207 19.1251 71.1538 18.9704 70.5285 19.186ZM44.6026 17.5833C45.1079 17.5808 45.6132 17.5858 46.1198 17.5782C46.8538 18.4823 47.5613 19.4079 48.2877 20.3183C49.0065 19.4105 49.7304 18.5076 50.4404 17.5934C50.9558 17.5757 51.4738 17.5744 51.9905 17.596C51.9791 19.7845 51.9879 21.973 51.9854 24.1628C51.384 24.1654 50.7828 24.1641 50.1814 24.1628C50.1802 22.8961 50.1839 21.6294 50.1802 20.3614C49.5497 21.1514 48.9269 21.9452 48.3029 22.7389C47.6648 21.9502 47.0433 21.1489 46.4066 20.3601C46.4041 21.6282 46.4091 22.8961 46.4041 24.1641C45.804 24.1641 45.2027 24.1641 44.6026 24.1641C44.6026 21.9705 44.6013 19.7769 44.6026 17.5833ZM61.1672 17.5833C61.7711 17.5883 62.375 17.5642 62.9776 17.5998C62.9625 18.4861 62.9713 19.3737 62.9725 20.26C63.7166 19.3712 64.4506 18.4734 65.1934 17.5833C65.906 17.582 66.6185 17.5808 67.3323 17.5846C66.424 18.6636 65.5144 19.7414 64.601 20.8166C65.6546 21.9388 66.7246 23.0445 67.7807 24.1628C67.0101 24.1654 66.2395 24.1641 65.4689 24.1641C64.6351 23.2804 63.8076 22.3902 62.9725 21.5077C62.9675 22.3927 62.9713 23.2778 62.9701 24.1628C62.3687 24.1654 61.7673 24.1641 61.1672 24.1628C61.1672 21.9692 61.166 19.7769 61.1672 17.5833ZM75.535 17.5833C77.3871 17.582 79.2403 17.582 81.0924 17.5833C81.0937 18.1082 81.0937 18.6332 81.0937 19.1594C80.4431 19.1619 79.7937 19.1556 79.1443 19.1632C79.1468 20.8294 79.1443 22.4967 79.1469 24.1628C78.5468 24.1654 77.9467 24.1641 77.3479 24.1628C77.3504 22.498 77.3428 20.8331 77.3529 19.1682C76.7465 19.1517 76.1401 19.1645 75.5338 19.1594C75.5312 18.6332 75.5312 18.1082 75.535 17.5833Z" fill="black" fill-opacity="0.6"/>
</svg>