<svg width="55" height="55" viewBox="0 0 55 55" fill="none" xmlns="http://www.w3.org/2000/svg">
<path d="M27.4305 0.269653C42.2822 0.269879 54.3221 12.3096 54.3221 27.1613C54.322 42.0129 42.2821 54.0526 27.4305 54.0529C12.5788 54.0529 0.539045 42.013 0.53894 27.1613C0.53894 12.3094 12.5787 0.269653 27.4305 0.269653ZM38.4266 16.4581C37.4152 16.4759 35.8633 17.016 28.3954 20.1222C25.7798 21.2101 20.552 23.4616 12.7128 26.8771C11.4401 27.3832 10.7728 27.8783 10.7118 28.3624C10.5952 29.2921 11.934 29.5816 13.618 30.129C14.9909 30.5753 16.8375 31.0974 17.7977 31.1183C18.6687 31.1371 19.6415 30.7781 20.7147 30.0411C28.0391 25.097 31.8201 22.5979 32.0575 22.5441C32.2249 22.5061 32.4569 22.4582 32.6141 22.5978C32.7713 22.7375 32.7558 23.0023 32.7391 23.0734C32.606 23.6409 25.73 29.8958 25.33 30.3107C23.8169 31.8822 22.0952 32.8443 24.7499 34.5939C27.0473 36.1078 28.385 37.0736 30.7518 38.6251C32.2643 39.6166 33.45 40.7923 35.0116 40.6486C35.7302 40.5824 36.4725 39.9068 36.8495 37.8917C37.7404 33.1292 39.4917 22.8099 39.8964 18.5577C39.9318 18.1852 39.8873 17.7084 39.8514 17.4991C39.8156 17.2898 39.7407 16.9914 39.4686 16.7706C39.1466 16.5093 38.6492 16.4543 38.4266 16.4581Z" fill="#08122C"/>
</svg>
