<svg xmlns="http://www.w3.org/2000/svg" width="503" height="127" viewBox="0 0 503 127" fill="none">
    <g filter="url(#filter0_d_457_5636)">
        <path
            d="M498.463 13.7703C498.612 13.2385 498.302 12.6865 497.77 12.5372L489.105 10.1049C488.573 9.95565 488.021 10.2657 487.872 10.7974C487.723 11.3292 488.033 11.8812 488.565 12.0305L496.267 14.1925L494.105 21.8948C493.956 22.4266 494.266 22.9786 494.797 23.1279C495.329 23.2771 495.881 22.9671 496.03 22.4354L498.463 13.7703ZM8.67838 4.7342C8.30334 6.09444 7.95637 7.44537 7.63728 8.78686L9.58299 9.24968C9.8965 7.93164 10.2376 6.60364 10.6064 5.2658L8.67838 4.7342ZM6.05563 16.7217C5.61141 19.5 5.29208 22.2343 5.09577 24.9234L7.09047 25.069C7.28247 22.4388 7.59503 19.7613 8.03054 17.0374L6.05563 16.7217ZM4.87906 33.1062C4.93849 35.8741 5.13574 38.5887 5.46843 41.2485L7.45296 41.0002C7.129 38.4102 6.93659 35.7642 6.8786 33.0633L4.87906 33.1062ZM6.93298 49.3243C7.57769 52.012 8.37061 54.6359 9.30869 57.1942L11.1864 56.5056C10.2752 54.0205 9.50459 51.4708 8.87781 48.8578L6.93298 49.3243ZM12.5782 64.7152C13.8101 67.149 15.1849 69.514 16.6992 71.8083L18.3684 70.7066C16.8957 68.4753 15.5595 66.1765 14.3626 63.8119L12.5782 64.7152ZM21.6029 78.4127C23.3247 80.4869 25.1725 82.4934 27.1431 84.431L28.5453 83.0048C26.6213 81.1131 24.8193 79.1561 23.1418 77.1353L21.6029 78.4127ZM33.2249 89.8758C35.3054 91.5754 37.4925 93.2124 39.7834 94.7856L40.9156 93.137C38.6687 91.594 36.5262 89.9902 34.4902 88.327L33.2249 89.8758ZM46.7306 99.1767C49.0235 100.511 51.4024 101.79 53.8655 103.013L54.7552 101.222C52.33 100.018 49.9899 98.7592 47.7364 97.448L46.7306 99.1767ZM61.2954 106.426C63.7617 107.473 66.3007 108.47 68.9108 109.415L69.5923 107.535C67.0146 106.601 64.5089 105.617 62.0767 104.585L61.2954 106.426ZM76.586 111.988C79.1642 112.785 81.8039 113.536 84.5039 114.242L85.0097 112.307C82.3373 111.609 79.7259 110.865 77.1767 110.077L76.586 111.988ZM92.3341 116.123C94.9605 116.701 97.6385 117.237 100.367 117.733L100.725 115.766C98.0194 115.274 95.3654 114.742 92.7635 114.17L92.3341 116.123ZM108.345 119.045C111.002 119.437 113.703 119.792 116.448 120.11L116.678 118.124C113.954 117.808 111.273 117.455 108.637 117.066L108.345 119.045ZM124.495 120.926C127.176 121.159 129.894 121.359 132.65 121.524L132.77 119.528C130.032 119.363 127.331 119.165 124.669 118.933L124.495 120.926ZM140.713 121.907C143.414 122.002 146.149 122.065 148.916 122.096L148.939 120.096C146.187 120.065 143.468 120.002 140.783 119.908L140.713 121.907ZM156.954 122.098C159.663 122.07 162.401 122.012 165.168 121.924L165.105 119.925C162.351 120.012 159.627 120.07 156.933 120.099L156.954 122.098ZM173.195 121.589C175.883 121.451 178.596 121.285 181.335 121.092L181.194 119.097C178.468 119.289 175.767 119.454 173.093 119.592L173.195 121.589ZM189.426 120.447C192.086 120.211 194.769 119.95 197.474 119.664L197.263 117.675C194.569 117.96 191.898 118.22 189.249 118.455L189.426 120.447ZM205.641 118.729C208.27 118.406 210.918 118.059 213.587 117.689L213.312 115.708C210.654 116.077 208.015 116.422 205.397 116.744L205.641 118.729ZM221.65 116.506C224.307 116.096 226.983 115.663 229.676 115.206L229.342 113.234C226.658 113.689 223.992 114.121 221.345 114.53L221.65 116.506ZM237.617 113.803C240.282 113.313 242.963 112.8 245.661 112.265L245.272 110.303C242.583 110.837 239.911 111.347 237.256 111.836L237.617 113.803ZM253.563 110.644C256.184 110.088 258.82 109.512 261.47 108.914L261.03 106.963C258.388 107.559 255.761 108.134 253.148 108.687L253.563 110.644ZM269.466 107.059C272.052 106.441 274.652 105.804 277.265 105.148L276.777 103.208C274.172 103.863 271.58 104.498 269.002 105.113L269.466 107.059ZM285.116 103.124C287.746 102.43 290.389 101.716 293.044 100.982L292.511 99.0546C289.863 99.7866 287.228 100.499 284.605 101.191L285.116 103.124ZM300.759 98.8037C303.341 98.0594 305.933 97.2965 308.538 96.5148L307.962 94.5993C305.365 95.3789 302.78 96.1397 300.205 96.882L300.759 98.8037ZM316.383 94.1133C318.923 93.3208 321.474 92.5107 324.034 91.6828L323.419 89.7798C320.865 90.6056 318.321 91.4137 315.788 92.204L316.383 94.1133ZM331.727 89.1522C334.301 88.2908 336.885 87.4117 339.479 86.5146L338.825 84.6245C336.238 85.5194 333.66 86.3963 331.092 87.2555L331.727 89.1522ZM347.083 83.8431C349.607 82.9427 352.14 82.0256 354.681 81.0914L353.991 79.2142C351.456 80.1462 348.929 81.0612 346.411 81.9594L347.083 83.8431ZM362.33 78.2383C364.847 77.2862 367.371 76.3177 369.904 75.3326L369.179 73.4687C366.652 74.4515 364.133 75.4178 361.623 76.3677L362.33 78.2383ZM377.399 72.3782C379.905 71.3773 382.419 70.3603 384.94 69.3271L384.182 67.4765C381.666 68.5074 379.158 69.5221 376.657 70.5208L377.399 72.3782ZM392.496 66.1914C394.952 65.1597 397.414 64.1126 399.884 63.0502L399.093 61.213C396.629 62.2732 394.172 63.318 391.721 64.3476L392.496 66.1914ZM407.311 59.8169C409.794 58.7238 412.283 57.6152 414.778 56.4912L413.956 54.6677C411.466 55.7894 408.982 56.8957 406.505 57.9866L407.311 59.8169ZM422.138 53.1394C424.569 52.0202 427.006 50.8863 429.448 49.7377L428.597 47.9278C426.16 49.0741 423.727 50.2057 421.301 51.3227L422.138 53.1394ZM436.794 46.2478C439.245 45.0708 441.703 43.8791 444.165 42.6725L443.285 40.8765C440.827 42.0807 438.375 43.2701 435.928 44.4448L436.794 46.2478ZM451.357 39.1148C453.759 37.9149 456.166 36.7008 458.578 35.4727L457.671 33.6904C455.263 34.9162 452.861 36.128 450.463 37.3256L451.357 39.1148ZM465.829 31.7459C468.229 30.501 470.633 29.2422 473.041 27.9695L472.107 26.2012C469.703 27.4716 467.303 28.7281 464.908 29.9706L465.829 31.7459ZM480.138 24.186C482.508 22.9114 484.882 21.6232 487.26 20.3215L486.3 18.5671C483.926 19.8665 481.556 21.1523 479.19 22.4246L480.138 24.186ZM494.407 16.3755C495.6 15.7111 496.794 15.0432 497.99 14.3719L497.01 12.6281C495.817 13.2982 494.625 13.9649 493.434 14.6282L494.407 16.3755Z"
            fill="white" />
    </g>
    <defs>
        <filter id="filter0_d_457_5636" x="0.878906" y="0.734253" width="501.622" height="125.364"
            filterUnits="userSpaceOnUse" color-interpolation-filters="sRGB">
            <feFlood flood-opacity="0" result="BackgroundImageFix" />
            <feColorMatrix in="SourceAlpha" type="matrix" values="0 0 0 0 0 0 0 0 0 0 0 0 0 0 0 0 0 0 127 0"
                result="hardAlpha" />
            <feOffset />
            <feGaussianBlur stdDeviation="2" />
            <feComposite in2="hardAlpha" operator="out" />
            <feColorMatrix type="matrix" values="0 0 0 0 1 0 0 0 0 1 0 0 0 0 1 0 0 0 1 0" />
            <feBlend mode="normal" in2="BackgroundImageFix" result="effect1_dropShadow_457_5636" />
            <feBlend mode="normal" in="SourceGraphic" in2="effect1_dropShadow_457_5636" result="shape" />
        </filter>
    </defs>
</svg>