<svg xmlns="http://www.w3.org/2000/svg" width="92" height="87" viewBox="0 0 92 87" fill="none">
    <path
        d="M46.4758 85.9994C46.2 85.9861 45.9872 85.7516 46.0006 85.4758L46.2183 80.9811C46.2316 80.7053 46.4661 80.4925 46.7419 80.5059C47.0177 80.5192 47.2305 80.7536 47.2171 81.0295L47.0236 85.0248L51.0189 85.2183C51.2947 85.2316 51.5075 85.4661 51.4941 85.7419C51.4808 86.0177 51.2464 86.2305 50.9705 86.2171L46.4758 85.9994ZM0.971954 1.50079C1.80616 1.45392 2.63578 1.40888 3.46076 1.36569L3.51304 2.36432C2.68935 2.40744 1.861 2.45242 1.02805 2.49921L0.971954 1.50079ZM8.35465 1.12903C10.0223 1.05527 11.6696 0.989699 13.2963 0.932573L13.3314 1.93196C11.7079 1.98897 10.0636 2.05442 8.39884 2.12805L8.35465 1.12903ZM18.1939 0.78478C19.8591 0.743074 21.5009 0.711001 23.1186 0.68887L23.1323 1.68878C21.5185 1.71085 19.8805 1.74285 18.2189 1.78447L18.1939 0.78478ZM28.0557 0.652453C29.7177 0.651119 31.3522 0.661318 32.9585 0.683421L32.9447 1.68333C31.3435 1.66129 29.7139 1.65112 28.0565 1.65245L28.0557 0.652453ZM37.8739 0.791299C39.5564 0.842675 41.2047 0.908586 42.818 0.98951L42.7679 1.98825C41.1615 1.90768 39.5197 1.84202 37.8434 1.79083L37.8739 0.791299ZM47.7374 1.29125C49.4129 1.41386 51.046 1.55483 52.6358 1.71481L52.5357 2.70979C50.9555 2.55078 49.3315 2.41057 47.6644 2.28859L47.7374 1.29125ZM57.5163 2.28469C59.1937 2.5096 60.8153 2.75922 62.3797 3.03446L62.2064 4.01934C60.6565 3.74664 59.0484 3.49907 57.3834 3.27582L57.5163 2.28469ZM67.2211 4.01139C68.8993 4.39768 70.4979 4.82025 72.0143 5.28064L71.7238 6.23752C70.2314 5.78442 68.655 5.36761 66.9968 4.98591L67.2211 4.01139ZM76.7112 6.937C78.3334 7.6008 79.8313 8.3238 81.1995 9.10915L80.7016 9.97642C79.3767 9.21586 77.9192 8.51179 76.3325 7.86251L76.7112 6.937ZM85.2714 11.9617C86.6037 13.1135 87.7279 14.3677 88.6315 15.7301L87.7981 16.2828C86.9499 15.0039 85.8883 13.8169 84.6174 12.7182L85.2714 11.9617ZM90.7148 20.3174C91.1408 21.8853 91.337 23.5541 91.2986 25.3263L90.2988 25.3046C90.3354 23.6207 90.1487 22.048 89.7498 20.5796L90.7148 20.3174ZM90.642 30.274C90.288 31.7881 89.7909 33.3658 89.1485 35.0089L88.2172 34.6448C88.8444 33.0406 89.3264 31.5086 89.6682 30.0463L90.642 30.274ZM87.0997 39.526C86.3858 40.9199 85.5789 42.3567 84.6776 43.8375L83.8234 43.3176C84.7132 41.8557 85.508 40.4402 86.2097 39.0701L87.0997 39.526ZM81.9886 47.9791C81.0905 49.2846 80.1251 50.6219 79.0915 51.9915L78.2933 51.3891C79.3188 50.0303 80.2755 48.7049 81.1647 47.4123L81.9886 47.9791ZM76.0168 55.9131C75.0246 57.1347 73.9818 58.3804 72.8879 59.6505L72.1302 58.9979C73.2182 57.7346 74.2548 56.4963 75.2406 55.2826L76.0168 55.9131ZM69.6358 63.3318C68.5484 64.5335 67.4178 65.756 66.2436 66.9994L65.5166 66.3129C66.6861 65.0743 67.8119 63.857 68.8943 62.6608L69.6358 63.3318ZM62.8818 70.495C61.7535 71.6479 60.5895 72.818 59.3895 74.0055L58.6861 73.2947C59.8825 72.1108 61.0427 70.9445 62.1671 69.7956L62.8818 70.495ZM55.8797 77.4294C54.7202 78.5452 53.5302 79.6757 52.3096 80.821L51.6253 80.0918C52.843 78.9492 54.0299 77.8216 55.1863 76.7088L55.8797 77.4294ZM48.7034 84.1664C48.0881 84.7308 47.4657 85.2988 46.836 85.8702L46.164 85.1298C46.7923 84.5595 47.4134 83.9927 48.0274 83.4295L48.7034 84.1664Z"
        fill="white" />
</svg>