<svg width="263" height="224" viewBox="0 0 263 224" fill="none" xmlns="http://www.w3.org/2000/svg">

    <path
        d="M181.927 107.352C183.266 108.354 184.951 108.557 186.522 108.939C194.25 110.82 201.662 113.653 209.124 116.331C210.681 116.888 212.203 117.646 213.594 118.539C216.105 120.155 216.21 122.656 213.921 124.617C213.112 125.309 212.181 125.897 211.227 126.381C192.619 135.832 174.134 145.529 155.367 154.674C153.873 155.401 152.334 156.05 150.788 156.666C149.469 157.191 148.259 156.958 147.364 155.795C143.378 150.634 138.307 146.623 133.317 142.53C132.476 141.838 131.675 141.124 131.085 140.217C129.613 137.954 130.09 135.815 132.451 134.505C133.644 133.845 134.95 133.375 136.228 132.886C140.257 131.345 144.301 129.85 148.208 128.013C149.892 127.221 151.566 126.393 153.034 125.224C154.506 124.051 154.586 123.708 153.178 122.532C151.152 120.838 149.041 119.238 146.894 117.7C143.467 115.244 140.171 112.628 137.006 109.85C136.274 109.207 135.57 108.507 134.968 107.742C132.709 104.864 133.095 102.089 136.084 99.8888C137.025 99.1967 138.059 98.6066 139.11 98.0908C141.044 97.1399 142.994 96.2097 144.984 95.3903C162.952 87.9868 180.284 79.2857 197.235 69.8121C216.227 59.1981 235.59 49.2805 254.728 38.9402C255.33 38.6162 255.951 38.3121 256.593 38.0793C257.931 37.5938 259.162 37.8253 260 39.0082C260.85 40.2126 260.592 41.5048 259.667 42.525C258.487 43.8264 257.198 45.0425 255.871 46.1973C247.889 53.1408 239.659 59.7893 231.438 66.4461C217.663 77.604 203.478 88.2515 189.897 99.6542C187.571 101.606 185.316 103.637 183.042 105.65C182.548 106.086 181.902 106.447 181.926 107.349L181.927 107.352ZM136.496 138.577C141.152 142.261 145.475 146.043 149.419 150.238C150.189 151.055 151.043 151.26 152.045 150.649C152.377 150.445 152.755 150.317 153.106 150.144C171.341 141.251 189.314 131.845 207.395 122.649C207.722 122.482 208.154 122.388 208.272 121.745C207.594 120.979 206.515 120.742 205.56 120.399C198.459 117.862 191.364 115.311 184.032 113.487C182.231 113.039 180.432 112.502 178.726 111.783C175.441 110.399 174.794 107.91 176.818 104.931C177.706 103.624 178.88 102.576 180.031 101.511C185.001 96.9233 190.292 92.7127 195.546 88.4637C209.254 77.3772 223.322 66.738 236.882 55.4643C237.616 54.8528 238.564 54.4162 239.173 52.9317C233.095 56.1715 227.458 59.1194 221.873 62.1644C196.152 76.1925 170.646 90.6493 143.397 101.643C142.401 102.044 141.436 102.547 140.505 103.081C138.672 104.13 138.602 104.397 140.117 105.794C142.493 107.986 145.038 109.977 147.616 111.931C150.893 114.413 154.438 116.563 157.374 119.466C160.251 122.312 160.202 125.349 157.346 128.21C155.805 129.754 153.914 130.803 151.992 131.786C147.972 133.845 143.746 135.424 139.54 137.046C138.571 137.421 137.483 137.616 136.499 138.577L136.496 138.577Z"
        fill="#3A49C6" />

    <path
        d="M36.0243 97.5511C36.808 97.3695 37.4053 96.8131 38.0329 96.3545C41.1216 94.0976 44.4623 92.2519 47.7615 90.34C48.4493 89.9408 49.2002 89.6162 49.96 89.3821C51.3328 88.9606 52.2843 89.6976 52.2953 91.1474C52.2988 91.6594 52.2258 92.184 52.108 92.6849C49.8091 102.456 47.6388 112.258 45.178 121.993C44.9818 122.768 44.7427 123.535 44.4896 124.295C44.2735 124.942 43.8122 125.315 43.1075 125.283C39.9738 125.147 36.9264 125.766 33.8741 126.33C33.3587 126.425 32.848 126.498 32.3314 126.434C31.0432 126.273 30.4047 125.434 30.6556 124.159C30.7833 123.516 31.0159 122.89 31.2326 122.269C31.916 120.31 32.6213 118.36 33.1579 116.354C33.3891 115.489 33.6041 114.617 33.6296 113.715C33.6555 112.81 33.554 112.674 32.6848 112.827C31.4338 113.046 30.1909 113.326 28.9595 113.637C26.9936 114.135 25.0097 114.535 23.0066 114.837C22.5434 114.906 22.0677 114.948 21.5998 114.932C19.8413 114.869 18.9413 113.867 19.0594 112.086C19.097 111.525 19.201 110.962 19.3374 110.415C19.5878 109.41 19.8509 108.404 20.1672 107.418C23.0199 98.5178 25.1985 89.4481 26.9751 80.2786C28.9656 70.0054 31.327 59.8119 33.4636 49.5697C33.5311 49.2481 33.6121 48.9254 33.7257 48.6172C33.9623 47.9748 34.4294 47.594 35.1239 47.6532C35.8303 47.7144 36.2252 48.2101 36.3134 48.8665C36.4256 49.704 36.4728 50.5549 36.4857 51.4008C36.5613 56.4889 36.4519 61.5763 36.3485 66.6629C36.1763 75.1874 35.6892 83.7044 35.6672 92.2335C35.6632 93.6937 35.71 95.153 35.7445 96.6129C35.7516 96.9301 35.6839 97.2792 36.0228 97.5504L36.0243 97.5511ZM33.4075 123.936C36.206 123.367 38.9372 122.952 41.7025 122.803C42.2413 122.774 42.5819 122.524 42.6679 121.966C42.696 121.781 42.7664 121.602 42.8117 121.419C45.2 111.958 47.3184 102.434 49.547 92.9355C49.5874 92.7636 49.6869 92.5753 49.487 92.3327C48.9952 92.344 48.5735 92.6672 48.1511 92.912C45.0157 94.7349 41.8769 96.5515 38.9319 98.6803C38.2089 99.2034 37.4532 99.6983 36.6596 100.102C35.132 100.88 34.0164 100.346 33.5493 98.6774C33.3442 97.9458 33.3234 97.189 33.2891 96.4358C33.1446 93.1859 33.2383 89.935 33.3064 86.6858C33.4842 78.2079 33.9379 69.7367 34.0007 61.2553C34.0036 60.796 34.1375 60.3118 33.7807 59.6275C33.0858 62.8667 32.4208 65.8529 31.8073 68.8505C28.9842 82.6561 26.3853 96.5158 21.9728 109.942C21.8113 110.432 21.697 110.943 21.6043 111.451C21.4213 112.45 21.4979 112.558 22.4812 112.435C24.0239 112.242 25.5453 111.924 27.0631 111.583C28.992 111.148 30.8821 110.512 32.8595 110.334C34.7984 110.159 35.8992 111.119 36.0647 113.056C36.1545 114.102 35.9532 115.122 35.7185 116.134C35.228 118.25 34.4976 120.293 33.7892 122.342C33.6261 122.814 33.3601 123.275 33.4082 123.934L33.4075 123.936Z"
        fill="#3A49C6" />

    <path
        d="M75.1515 201.164C74.8435 201.406 74.6953 201.776 74.5136 202.108C73.6191 203.743 72.5283 205.249 71.4694 206.776C71.2488 207.094 70.9849 207.393 70.6983 207.654C70.1803 208.124 69.6079 207.996 69.3027 207.359C69.1951 207.134 69.1186 206.888 69.0668 206.642C68.0561 201.857 66.9822 197.084 66.0505 192.282C65.9764 191.899 65.923 191.511 65.8773 191.124C65.8384 190.794 65.9647 190.534 66.282 190.402C67.6922 189.812 68.9077 188.908 70.1369 188.027C70.3446 187.878 70.5547 187.74 70.7959 187.662C71.3974 187.466 71.8527 187.703 72.0061 188.317C72.083 188.627 72.1101 188.952 72.1433 189.27C72.2478 190.276 72.3409 191.282 72.5198 192.278C72.5971 192.707 72.6829 193.136 72.8585 193.539C73.0346 193.944 73.1075 193.983 73.4592 193.735C73.9656 193.38 74.4557 192.999 74.9342 192.606C75.6979 191.979 76.4901 191.392 77.3109 190.844C77.5007 190.717 77.7019 190.6 77.9116 190.51C78.7 190.174 79.3047 190.429 79.6217 191.239C79.7212 191.494 79.7921 191.764 79.8451 192.033C79.9431 192.529 80.0353 193.027 80.1001 193.527C80.6862 198.043 81.6046 202.494 82.7209 206.906C83.9716 211.849 85.0422 216.834 86.2221 221.793C86.2589 221.949 86.2901 222.108 86.3039 222.268C86.3326 222.6 86.2055 222.865 85.887 222.983C85.5627 223.102 85.2859 222.965 85.111 222.694C84.888 222.348 84.6909 221.982 84.51 221.612C83.4224 219.384 82.4165 217.118 81.4083 214.853C79.718 211.058 78.1682 207.201 76.4107 203.435C76.11 202.79 75.787 202.156 75.4692 201.52C75.4004 201.381 75.3579 201.213 75.1523 201.164L75.1515 201.164ZM70.8388 188.986C69.7225 189.817 68.6041 190.566 67.4153 191.204C67.1838 191.329 67.0855 191.51 67.1632 191.774C67.1891 191.861 67.1951 191.954 67.213 192.044C68.12 196.712 69.159 201.351 70.1442 206.001C70.162 206.085 70.1572 206.189 70.2956 206.255C70.5101 206.148 70.6291 205.918 70.7647 205.722C71.7697 204.269 72.7776 202.817 73.6353 201.268C73.8458 200.888 74.0765 200.513 74.3428 200.171C74.8552 199.511 75.4579 199.515 76.0096 200.154C76.2516 200.435 76.4176 200.764 76.5888 201.089C77.3259 202.492 77.9581 203.945 78.6013 205.392C80.2794 209.168 81.8345 212.998 83.564 216.751C83.6579 216.954 83.6992 217.196 83.9983 217.424C83.6337 215.851 83.3082 214.396 82.9577 212.947C81.3423 206.274 79.6168 199.623 78.781 192.788C78.7506 192.539 78.6952 192.29 78.6308 192.046C78.5045 191.568 78.4483 191.536 78.0403 191.794C77.3999 192.199 76.7948 192.654 76.1962 193.119C75.4357 193.711 74.7338 194.383 73.8988 194.871C73.0799 195.35 72.3955 195.154 71.9211 194.334C71.6649 193.892 71.5423 193.4 71.4362 192.906C71.214 191.871 71.1128 190.818 71.0007 189.768C70.9748 189.526 70.9967 189.268 70.8388 188.987L70.8388 188.986Z"
        fill="#3A49C6" />

</svg>