<svg width="390" height="817" viewBox="0 0 390 817" fill="none" xmlns="http://www.w3.org/2000/svg">
    <g clip-path="url(#clip0_2026_25099)">
        <g clip-path="url(#clip1_2026_25099)">
            <rect width="390" height="8879" transform="translate(0 -3069)" fill="#000616" />
            <g filter="url(#filter0_f_2026_25099)">
                <path
                    d="M-177.429 805.506C-277.786 865.849 -337.443 743.587 -395.062 669.635C-406.402 643.175 -433.511 575.512 -451.225 516.54C-473.368 442.824 -415.145 396.201 -300.87 461.702C-186.594 527.203 -203.296 505.674 -122.678 379.836C-42.06 253.998 4.86347 207.917 84.0006 193.634C163.138 179.35 180.601 232.031 225.823 264.939C271.046 297.846 314.555 509.067 265.466 605.8C216.378 702.533 167.275 592.995 48.1966 587.309C-70.8815 581.623 -77.0723 745.163 -177.429 805.506Z"
                    fill="#5857FF" />
            </g>
            <g style="mix-blend-mode:overlay">
                <path
                    d="M346.281 405.404C347.135 406.042 348.209 406.171 349.209 406.415C354.133 407.613 358.856 409.418 363.611 411.125C364.603 411.48 365.573 411.963 366.459 412.532C368.059 413.562 368.126 415.155 366.668 416.405C366.152 416.846 365.559 417.22 364.951 417.529C353.094 423.551 341.316 429.729 329.358 435.556C328.406 436.02 327.425 436.433 326.44 436.826C325.6 437.16 324.828 437.011 324.259 436.271C321.719 432.982 318.487 430.426 315.308 427.818C314.772 427.377 314.262 426.923 313.886 426.344C312.948 424.903 313.251 423.54 314.756 422.705C315.516 422.284 316.349 421.985 317.163 421.673C319.73 420.692 322.307 419.739 324.796 418.569C325.87 418.063 326.936 417.536 327.871 416.791C328.809 416.044 328.86 415.825 327.963 415.076C326.672 413.996 325.327 412.977 323.959 411.997C321.775 410.432 319.675 408.765 317.658 406.995C317.192 406.586 316.743 406.14 316.36 405.652C314.92 403.818 315.167 402.05 317.071 400.648C317.67 400.207 318.33 399.831 318.999 399.502C320.231 398.896 321.474 398.304 322.742 397.782C334.191 393.064 345.234 387.52 356.036 381.483C368.137 374.72 380.475 368.401 392.669 361.812C393.053 361.606 393.448 361.412 393.858 361.264C394.71 360.954 395.495 361.102 396.028 361.856C396.57 362.623 396.406 363.446 395.816 364.097C395.064 364.926 394.243 365.701 393.398 366.436C388.311 370.861 383.067 375.097 377.829 379.339C369.052 386.448 360.013 393.233 351.36 400.498C349.878 401.742 348.441 403.036 346.992 404.319C346.677 404.597 346.266 404.827 346.281 405.402L346.281 405.404ZM317.334 425.3C320.3 427.647 323.055 430.057 325.568 432.73C326.058 433.25 326.603 433.381 327.241 432.991C327.452 432.862 327.694 432.78 327.917 432.67C339.536 427.003 350.988 421.01 362.509 415.15C362.718 415.044 362.993 414.984 363.068 414.574C362.636 414.086 361.949 413.935 361.34 413.717C356.816 412.1 352.294 410.475 347.623 409.312C346.475 409.027 345.329 408.685 344.242 408.227C342.149 407.345 341.736 405.759 343.026 403.86C343.592 403.028 344.34 402.36 345.073 401.682C348.24 398.758 351.611 396.075 354.959 393.368C363.694 386.304 372.658 379.525 381.298 372.341C381.765 371.952 382.37 371.673 382.758 370.728C378.885 372.792 375.293 374.67 371.734 376.61C355.345 385.549 339.093 394.761 321.731 401.766C321.096 402.021 320.481 402.342 319.888 402.682C318.72 403.351 318.676 403.521 319.641 404.411C321.155 405.807 322.776 407.076 324.419 408.321C326.507 409.902 328.766 411.273 330.636 413.122C332.47 414.936 332.438 416.871 330.619 418.694C329.637 419.678 328.432 420.346 327.207 420.972C324.646 422.284 321.953 423.291 319.273 424.324C318.656 424.563 317.962 424.687 317.336 425.299L317.334 425.3Z"
                    fill="white" />
            </g>
            <g style="mix-blend-mode:overlay">
                <path
                    d="M42.855 428.954C43.3982 428.361 43.5754 427.564 43.8328 426.83C45.1003 423.221 46.8083 419.808 48.4447 416.364C48.7854 415.645 49.2205 414.953 49.7141 414.329C50.6068 413.204 51.8085 413.273 52.6385 414.462C52.9314 414.882 53.1684 415.355 53.3549 415.835C56.994 425.19 60.7567 434.498 64.2418 443.915C64.5191 444.665 64.7563 445.432 64.9778 446.201C65.1664 446.857 64.9971 447.426 64.3984 447.798C61.7386 449.461 59.578 451.698 57.3817 453.891C57.0106 454.261 56.6311 454.611 56.1687 454.85C55.0158 455.447 54.0146 455.117 53.4996 453.925C53.2407 453.322 53.0779 452.675 52.9045 452.04C52.3585 450.038 51.8352 448.032 51.1415 446.075C50.8421 445.231 50.5255 444.39 50.0356 443.632C49.5445 442.872 49.3841 442.818 48.754 443.435C47.8469 444.324 46.981 445.259 46.1427 446.213C44.8045 447.737 43.3958 449.19 41.9158 450.573C41.5735 450.893 41.205 451.197 40.8103 451.448C39.3255 452.393 38.0158 452.076 37.1044 450.541C36.8179 450.058 36.5847 449.535 36.3877 449.007C36.0245 448.036 35.672 447.059 35.3743 446.067C32.6847 437.116 29.3437 428.407 25.6149 419.844C21.4373 410.249 17.6106 400.511 13.5709 390.86C13.4445 390.556 13.3284 390.244 13.2475 389.926C13.0787 389.263 13.248 388.684 13.854 388.34C14.4708 387.99 15.077 388.175 15.5214 388.666C16.0882 389.293 16.609 389.967 17.0986 390.657C20.0426 394.808 22.8337 399.063 25.6291 403.313C30.315 410.437 34.737 417.732 39.5492 424.774C40.3728 425.98 41.2379 427.156 42.0932 428.339C42.2786 428.597 42.4206 428.923 42.8534 428.955L42.855 428.954ZM55.6411 452.182C57.6256 450.129 59.6411 448.239 61.8362 446.551C62.2636 446.221 62.4026 445.822 62.1574 445.314C62.0759 445.145 62.0325 444.958 61.9665 444.782C58.5766 435.632 54.9288 426.582 51.3862 417.492C51.3221 417.327 51.2974 417.116 50.9953 417.029C50.5964 417.317 50.4319 417.822 50.2223 418.263C48.6706 421.541 47.1125 424.816 45.8909 428.238C45.5913 429.079 45.2488 429.915 44.8233 430.697C44.0051 432.203 42.7831 432.395 41.4531 431.284C40.8698 430.797 40.424 430.185 39.9692 429.584C38.0095 426.987 36.2456 424.255 34.4616 421.539C29.8068 414.451 25.3832 407.212 20.6317 400.186C20.3739 399.806 20.21 399.331 19.5284 398.969C20.7902 402.033 21.9333 404.87 23.1253 407.688C28.6172 420.665 34.3246 433.56 38.2916 447.124C38.4361 447.62 38.6313 448.106 38.8426 448.577C39.2575 449.504 39.3821 449.55 40.1224 448.891C41.2845 447.858 42.3585 446.735 43.4161 445.594C44.7596 444.143 45.9574 442.549 47.4859 441.282C48.9848 440.039 50.436 440.208 51.6696 441.71C52.3357 442.521 52.7477 443.476 53.127 444.443C53.9214 446.465 54.4765 448.562 55.0531 450.652C55.1861 451.134 55.2277 451.664 55.6409 452.18L55.6411 452.182Z"
                    fill="white" />
            </g>
            <g style="mix-blend-mode:overlay">
                <path
                    d="M338.534 505.196C338.277 505.711 338.312 506.295 338.279 506.85C338.117 509.583 337.612 512.267 337.164 514.959C337.071 515.521 336.907 516.083 336.69 516.609C336.297 517.559 335.457 517.748 334.652 517.093C334.368 516.862 334.112 516.582 333.889 516.289C329.545 510.567 325.125 504.902 320.875 499.107C320.537 498.646 320.223 498.164 319.919 497.679C319.66 497.264 319.665 496.84 320.003 496.466C321.507 494.798 322.554 492.835 323.634 490.893C323.816 490.566 324.009 490.251 324.28 489.995C324.956 489.358 325.71 489.387 326.298 490.107C326.595 490.47 326.834 490.884 327.079 491.287C327.848 492.557 328.603 493.835 329.465 495.045C329.837 495.567 330.22 496.083 330.706 496.508C331.194 496.935 331.315 496.94 331.627 496.391C332.076 495.601 332.488 494.788 332.878 493.966C333.499 492.655 334.182 491.378 334.929 490.135C335.101 489.848 335.295 489.566 335.517 489.315C336.353 488.373 337.317 488.334 338.246 489.211C338.538 489.487 338.802 489.801 339.041 490.125C339.482 490.722 339.916 491.325 340.316 491.949C343.928 497.58 347.939 502.916 352.189 508.075C356.951 513.856 361.499 519.804 366.177 525.651C366.324 525.835 366.465 526.027 366.583 526.23C366.83 526.653 366.827 527.085 366.478 527.441C366.122 527.803 365.669 527.795 365.266 527.544C364.753 527.225 364.262 526.863 363.789 526.484C360.947 524.207 358.19 521.828 355.43 519.453C350.805 515.473 346.327 511.322 341.631 507.423C340.827 506.755 340.001 506.116 339.179 505.469C339.001 505.329 338.839 505.132 338.535 505.196L338.534 505.196ZM325.167 491.727C324.206 493.53 323.19 495.227 322.012 496.82C321.783 497.131 321.765 497.433 322.034 497.735C322.123 497.835 322.19 497.955 322.27 498.063C326.402 503.693 330.692 509.203 334.918 514.762C334.994 514.862 335.053 515.003 335.278 515.003C335.496 514.727 335.509 514.347 335.567 514.002C335.99 511.441 336.418 508.881 336.586 506.286C336.627 505.649 336.698 505.006 336.837 504.384C337.104 503.187 337.907 502.814 339.041 503.317C339.538 503.537 339.965 503.871 340.396 504.195C342.255 505.597 344.006 507.13 345.768 508.648C350.365 512.61 354.833 516.722 359.484 520.622C359.736 520.833 359.943 521.127 360.483 521.242C359.012 519.383 357.667 517.655 356.293 515.95C349.962 508.1 343.498 500.349 338.101 491.795C337.904 491.483 337.674 491.187 337.436 490.904C336.968 490.348 336.874 490.341 336.494 490.94C335.897 491.879 335.379 492.863 334.876 493.856C334.236 495.119 333.726 496.452 332.923 497.624C332.136 498.774 331.104 498.943 329.96 498.152C329.342 497.725 328.871 497.149 328.42 496.558C327.475 495.323 326.681 493.989 325.873 492.664C325.687 492.359 325.554 492.002 325.168 491.728L325.167 491.727Z"
                    fill="white" />
            </g>
        </g>
    </g>
    <defs>
        <filter id="filter0_f_2026_25099" x="-705.867" y="-58.7693" width="1243" height="1130.48"
            filterUnits="userSpaceOnUse" color-interpolation-filters="sRGB">
            <feFlood flood-opacity="0" result="BackgroundImageFix" />
            <feBlend mode="normal" in="SourceGraphic" in2="BackgroundImageFix" result="shape" />
            <feGaussianBlur stdDeviation="125" result="effect1_foregroundBlur_2026_25099" />
        </filter>
        <clipPath id="clip0_2026_25099">
            <rect width="390" height="817" fill="white" />
        </clipPath>
        <clipPath id="clip1_2026_25099">
            <rect width="390" height="8879" fill="white" transform="translate(0 -3069)" />
        </clipPath>
    </defs>
</svg>