<svg width="1170" height="270" viewBox="0 0 1170 270" fill="none" xmlns="http://www.w3.org/2000/svg">
    <g clip-path="url(#clip0_2040_32460)">
        <path
            d="M1030.12 86.2798C1034.79 82.8451 1039.31 80.6079 1044.32 79.4372C1052.9 77.4343 1060.32 79.6278 1064.08 85.253C1067.77 90.7552 1067.03 98.8326 1061.66 105.699C1051.23 119.036 1038 129.09 1023.17 137.003C1016.33 140.655 1010.91 138.667 1007.67 131.511C999.542 113.554 991.288 95.6396 984.843 76.9728C983.648 73.509 982.721 69.9658 982.274 66.3198C981.628 61.0838 981.835 55.9422 986.521 52.4976C991.393 48.9142 996.508 50.0999 1001.49 52.5969C1012.44 58.0786 1020.32 66.5734 1025.87 77.351C1027.25 80.0407 1028.48 82.8069 1030.12 86.2798ZM999.765 63.5847C998.711 62.9766 997.709 62.2398 996.596 61.7847C993.46 60.5067 992.416 61.2205 992.701 64.5684C993.062 68.8496 994.479 72.8921 995.929 76.9072C1001.73 92.9604 1008.91 108.436 1015.75 124.047C1017.54 128.131 1017.86 128.257 1021.5 126.077C1032.34 119.58 1042.31 111.951 1050.81 102.534C1052.42 100.748 1053.78 98.6365 1054.82 96.4649C1056.92 92.0911 1055.12 89.3033 1050.24 89.2829C1046.05 89.2655 1042.27 90.7963 1038.84 93.0855C1035.8 95.1142 1032.99 97.4659 1030.66 100.326C1029.11 102.229 1027.2 103.213 1024.78 102.418C1022.36 101.621 1021.58 99.6554 1021.29 97.2403C1019.51 82.591 1011.51 71.8616 999.762 63.5891L999.765 63.5847Z"
            fill="#5071CC" />
        <path
            d="M1069.85 148.97C1070.69 147.526 1070.88 147.16 1071.1 146.819C1078.29 135.769 1088.51 135.511 1096.11 146.241C1100.22 152.044 1102.29 158.613 1102.43 165.676C1102.5 168.916 1103.61 170.445 1106.88 170.868C1110.51 171.338 1113.97 172.556 1117.18 174.445C1127.4 180.451 1129.44 193.322 1121.51 202.164C1117.42 206.725 1112.16 209.362 1106.28 210.584C1093 213.354 1079.61 213.361 1066.29 210.952C1057.91 209.432 1055.49 205.508 1056.88 197.036C1059.35 181.977 1062.49 167.082 1068.19 152.848C1068.87 151.151 1069.63 149.49 1069.85 148.97ZM1079.22 154.066C1078.8 154.913 1078.38 155.621 1078.08 156.37C1072.75 169.626 1069.88 183.52 1067.39 197.515C1066.85 200.512 1068.76 200.937 1070.87 201.182C1081.61 202.435 1092.33 202.629 1102.99 200.574C1104.96 200.195 1106.91 199.486 1108.74 198.644C1113.39 196.498 1116.17 192.584 1115.64 188.879C1114.98 184.276 1111.45 182.765 1107.54 181.793C1106.36 181.499 1105.17 181.251 1103.98 180.975C1101.01 180.274 1097.96 180.271 1094.94 179.978C1090.93 179.592 1088.96 176.658 1090.55 173.137C1093.66 166.251 1091.55 160.087 1088.52 153.991C1087.55 152.03 1086.38 149.576 1084.05 149.384C1081.09 149.142 1080.57 152.319 1079.22 154.066Z"
            fill="#5071CC" />
        <path
            d="M964.943 111.948C966.656 113.938 968.982 113.689 971.784 112.972C979.165 111.083 985.099 115.462 985.927 123.027C986.15 125.064 986.065 127.098 985.351 129.032C982.046 138.02 975.764 144.482 967.563 149.017C963.207 151.423 959.198 150.249 956.461 146.019C952.268 139.537 948.687 132.705 946.687 125.172C945.278 119.859 944.599 114.446 949.767 110.776C954.705 107.271 959.793 108.664 964.943 111.948ZM956.335 119.986C957.577 126.491 960.299 131.779 963.287 136.974C964.091 138.369 965.078 138.371 966.226 137.436C968.893 135.26 971.358 132.856 973.256 129.984C974.432 128.2 976.536 125.956 974.827 124.05C973.237 122.284 971.194 124.586 969.459 125.381C965.072 127.384 963.658 127.076 960.927 123.071C960.017 121.738 959.411 120.182 956.341 119.985L956.335 119.986Z"
            fill="#5071CC" />
        <path
            d="M1090.5 247.566C1087.76 250.68 1084.51 254.304 1080.46 256.99C1078.25 258.452 1075.76 258.345 1073.94 256.058C1072.2 253.872 1072.2 251.377 1074.05 249.399C1077.07 246.152 1080.27 243.042 1083.65 240.173C1085.66 238.475 1088.18 238.354 1090.27 240.339C1092.35 242.303 1092.28 244.599 1090.5 247.566Z"
            fill="#5071CC" />
        <path
            d="M1015.27 162.198C1013.41 160.998 1011.38 159.978 1009.72 158.543C1007.93 156.998 1007.17 154.868 1008.31 152.53C1009.57 149.94 1011.88 149.112 1014.42 149.925C1018.67 151.288 1022.52 153.588 1025.89 156.526C1027.91 158.281 1028.49 160.726 1027.02 163.112C1025.54 165.507 1023.1 165.992 1020.62 165.032C1018.75 164.314 1017.1 163.07 1015.35 162.062L1015.27 162.202L1015.27 162.198Z"
            fill="#5071CC" />
        <path
            d="M1017.73 177.511C1019.5 175.306 1021.54 172.788 1024.26 171.005C1026.53 169.514 1028.91 169.536 1030.86 171.57C1032.82 173.615 1032.73 176.107 1031.12 178.19C1029.28 180.564 1027.15 182.77 1024.89 184.755C1022.48 186.883 1019.75 186.801 1017.8 184.988C1015.87 183.203 1015.78 180.714 1017.73 177.511Z"
            fill="#5071CC" />
        <path
            d="M1035.54 156.681C1037.03 155.179 1039.04 152.927 1041.3 150.96C1043.32 149.201 1045.77 148.96 1047.9 150.765C1050.01 152.559 1050.28 155.088 1048.87 157.334C1047.07 160.225 1044.75 162.799 1041.88 164.711C1039.6 166.229 1037.21 166.065 1035.29 164.072C1033.32 162.038 1033.62 159.71 1035.54 156.678L1035.54 156.681Z"
            fill="#5071CC" />
        <path
            d="M1041.99 188.88C1039.53 186.766 1037.37 184.114 1036.51 180.656C1035.86 178.045 1036.51 175.763 1039.18 174.595C1041.75 173.469 1043.91 174.198 1045.55 176.462C1046.85 178.257 1048.19 180.024 1049.47 181.84C1051.03 184.053 1051.32 186.334 1049.44 188.5C1047.75 190.44 1044.69 190.604 1041.99 188.88Z"
            fill="#5071CC" />
        <path
            d="M1085.91 233.094C1083.65 231.541 1081.49 230.369 1080.12 228.242C1078.79 226.154 1078.56 224.011 1080.16 222.05C1081.76 220.098 1084.08 219.576 1086.21 220.746C1088.84 222.196 1091.3 224.033 1093.63 225.946C1095.75 227.683 1096.29 230.057 1094.75 232.455C1093.22 234.831 1090.9 235.244 1088.34 234.298C1087.4 233.953 1086.53 233.403 1085.91 233.094Z"
            fill="#5071CC" />
        <path
            d="M1107.28 252.002C1105.89 254.563 1102.38 255.481 1100.02 253.536C1096.77 250.869 1095.2 247.088 1094.75 243.03C1094.45 240.285 1097.12 238.005 1099.75 238.131C1104.18 238.352 1109.44 248.028 1107.28 252.002Z"
            fill="#5071CC" />
        <path
            d="M1118.43 230.526C1117.14 232.764 1110.52 235.974 1107.87 235.627C1105.92 235.369 1104.44 234.386 1103.69 232.554C1102.93 230.706 1103.27 228.873 1104.64 227.488C1107.29 224.816 1110.6 223.194 1114.34 223.137C1118.22 223.077 1120.36 227.194 1118.43 230.526Z"
            fill="#5071CC" />
    </g>
    <g>
        <path
            d="M207.94 89.8656C216.649 89.8423 225.394 89.82 234.922 89.7912C232.483 87.349 230.177 86.0176 228.044 84.4821C226.945 83.6898 225.734 83.0292 224.911 81.907C224.005 80.6704 223.991 79.3522 224.81 78.1022C225.631 76.848 226.862 76.2621 228.331 76.7451C229.346 77.0796 230.353 77.567 231.223 78.1857C236.2 81.7393 241.197 85.263 246.058 88.9705C250.059 92.0247 250.051 96.7563 246.137 99.9436C242.877 102.602 239.514 105.136 236.165 107.685C235.306 108.339 234.381 108.955 233.392 109.371C231.485 110.17 229.672 109.618 228.709 108.119C227.728 106.591 228.078 104.926 229.866 103.529C231.683 102.106 233.641 100.866 235.464 99.4553C236.265 98.834 237.408 98.4402 237.595 96.8862C235.955 96.8628 234.386 96.8202 232.821 96.826C224.406 96.8477 215.99 96.9465 207.576 96.8695C205.495 96.8487 204.479 97.5558 203.689 99.4888C196.56 116.884 187.39 133.246 178.044 149.511C175.944 153.162 173.727 156.753 170.955 159.95C166.533 165.051 163.472 165.885 157.333 163.372C135.832 154.57 114.35 145.717 92.8808 136.837C87.6049 134.653 82.4667 132.16 77.5841 129.18C70.5602 124.895 64.3229 119.713 59.4103 113.05C56.3042 108.837 53.9925 104.24 53.2647 99.0112C52.993 97.0681 52.3026 96.2188 50.2346 96.1419C44.2565 95.9172 44.2758 95.8454 40.6713 100.776C35.6961 107.579 30.5427 114.239 25.0922 120.668C24.2182 121.698 23.29 122.721 22.2269 123.542C21.0422 124.459 19.6447 124.399 18.4321 123.511C17.054 122.502 16.6825 121.024 17.3367 119.527C17.812 118.436 18.6769 117.503 19.4272 116.548C23.8862 110.894 28.3759 105.263 32.8141 99.5967C33.5475 98.6569 34.5017 97.8088 34.7347 96.2318C32.2233 95.6777 29.702 96.0027 27.1965 95.9939C25.9084 95.9885 25.2748 96.8033 24.5577 97.6335C22.781 99.6907 20.9951 101.74 19.175 103.753C18.5419 104.452 17.8749 105.181 17.0812 105.66C15.5403 106.595 13.9294 106.589 12.6093 105.221C11.2691 103.831 11.3366 102.224 12.488 100.79C13.9305 98.9911 15.553 97.3398 17.058 95.5903C19.2375 93.0605 19.2313 93.0376 16.8279 90.8454C14.8223 89.0128 12.7893 87.2086 10.7709 85.3935C9.96269 84.667 9.08651 84.0008 8.6492 82.9575C8.01325 81.4346 8.13527 80.0451 9.40844 78.8696C10.5805 77.7877 11.9232 77.8136 13.1811 78.5178C14.2326 79.1055 15.1723 79.93 16.0885 80.7328C18.337 82.7001 20.6634 84.6045 22.7341 86.7456C25.135 89.2295 27.8109 89.403 30.903 88.4868C30.341 87.1089 29.1609 86.5907 28.2579 85.7984C23.5654 81.6707 18.8407 77.5798 14.1733 73.4279C13.1659 72.5338 12.2108 71.5206 11.47 70.4045C10.5394 68.999 10.8023 67.5332 11.9554 66.3022C13.0247 65.1638 14.33 65.1156 15.7038 65.6765C16.8725 66.1522 17.6705 67.1023 18.5602 67.9367C25.7044 74.6328 33.2848 80.7983 40.9607 86.8752C44.2625 89.4893 47.7279 89.1813 51.3472 89.1336C52.9117 89.1105 52.7951 87.799 52.9806 86.7642C53.6562 82.9791 55.0726 79.4724 56.8647 76.0858C61.9604 66.4361 70.1441 60.513 80.1058 56.7114C88.8335 53.3807 97.812 52.8575 106.982 54.2147C114.01 55.2555 120.738 57.3619 127.392 59.7578C130.535 60.8894 130.515 60.8388 131.571 57.7267C132.662 54.5138 133.714 51.2802 134.977 48.13C140.665 33.9425 151.052 24.2178 164.347 17.2057C169.977 14.2352 175.785 12.3459 182.221 12.3814C188.678 12.4182 194.098 14.6434 198.741 19.1104C207.368 27.4146 211.707 37.681 213.048 49.41C214.446 61.667 212.333 73.4976 208.867 85.1752C208.518 86.345 208.169 87.5149 207.858 88.6956C207.794 88.9406 207.891 89.2265 207.949 89.8736L207.94 89.8656ZM205.216 44.7388C203.216 36.724 200.255 31.6414 196.468 26.889C190.734 19.6993 183.498 17.8414 175.005 20.3976C166.803 22.8652 159.807 27.5304 153.492 33.2191C145.423 40.4858 141.194 49.9558 138.121 60.1121C137.504 62.1424 137.385 63.517 139.42 64.9211C141.248 66.1841 141.386 68.1245 140.46 69.5891C139.48 71.1384 137.728 71.4184 135.388 70.4293C133.392 69.5864 131.405 68.7023 129.37 67.9504C121.213 64.9333 113.037 62.0266 104.331 60.9097C93.0759 59.466 82.7114 61.7383 73.2727 68.0152C66.5358 72.4953 62.3186 78.842 60.213 86.5932C59.5686 88.9641 59.8551 89.2484 62.2091 89.2802C64.2435 89.3101 66.2881 89.3127 68.3118 89.1455C69.9106 89.0152 71.7934 89.6571 73.041 88.6216C74.257 87.6121 73.3961 85.7989 73.5368 84.3483C73.7968 81.6422 75.0073 80.2065 77.0903 80.1953C79.11 80.1835 80.4064 81.6592 80.5312 84.3884C80.7218 88.5934 80.805 92.8027 80.9184 97.0074C80.9324 97.5436 80.9097 98.1001 80.7936 98.622C80.4195 100.261 79.3804 101.237 77.693 101.378C76.1459 101.505 74.6861 100.714 74.5758 99.3345C74.2769 95.6808 71.9238 95.9397 69.4053 96.0921C67.3735 96.2159 65.3352 96.1976 63.3001 96.2696C59.875 96.388 59.7624 96.5304 60.5839 99.8056C62.0597 105.693 65.676 110.252 69.8515 114.413C76.3004 120.844 84.0277 125.385 92.3373 128.894C110.236 136.449 128.198 143.847 146.141 151.292C150.784 153.218 155.507 154.96 160.098 156.998C162.391 158.017 163.992 157.528 165.38 155.656C166.756 153.804 168.259 152.024 169.443 150.055C179.945 132.569 189.829 114.754 197.623 95.8623C201.467 86.5376 204.35 76.9267 205.783 66.9122C206.951 58.7497 206.594 50.6661 205.221 44.7445L205.216 44.7388Z"
            fill="#5071CC" />
        <path
            d="M199.563 46.8376C200.062 49.365 200.536 51.7622 200.375 54.2243C200.1 58.4174 199.924 62.6155 199.494 66.794C199.269 68.9893 197.806 70.2157 196.114 70.1957C194.201 70.1721 192.697 68.7344 192.711 66.3922C192.732 62.8736 192.962 59.3482 193.289 55.8426C193.924 49.0287 191.473 43.3503 187.063 38.3792C183.386 34.232 178.498 33.1716 173.449 35.38C171.962 36.0309 170.517 36.7896 169.264 37.858C168.648 38.3842 168.016 38.9181 167.317 39.316C165.381 40.4131 163.593 40.2156 162.518 38.8734C161.423 37.5085 161.503 35.6359 163.006 34.0869C171.058 25.7872 184.788 24.7479 191.964 33.2342C195.439 37.3478 198.139 41.785 199.567 46.84L199.563 46.8376Z"
            fill="#5071CC" />
        <path
            d="M196.859 74.9809C197.328 76.8746 196.075 78.9386 194.201 79.3636C192.409 79.7667 190.601 78.5789 190.252 76.7653C189.914 74.9942 191.034 73.183 192.786 72.6681C194.632 72.1244 196.397 73.1273 196.856 74.985L196.859 74.9809Z"
            fill="#5071CC" />
    </g>
    <defs>
        <clipPath id="clip0_2040_32460">
            <rect width="207.976" height="144.81" fill="#5071CC" transform="translate(989.278 40.4336) rotate(30)" />
        </clipPath>
    </defs>
</svg>