<svg xmlns="http://www.w3.org/2000/svg" width="100" height="100" viewBox="0 0 100 100" fill="none">
    <path
        d="M88.496 44.1022C87.743 44.3117 87.0941 45.0382 86.2328 46.1871V46.1875C85.8024 46.7618 85.3349 47.4484 84.8307 48.2429C84.5786 48.6401 84.3174 49.0641 84.0472 49.5144C84.0167 49.5651 83.9966 49.6212 83.9879 49.6796C83.9793 49.738 83.9823 49.7976 83.9967 49.8549C84.0111 49.9121 84.0367 49.966 84.072 50.0134C84.1073 50.0608 84.1516 50.1008 84.2025 50.1311C84.305 50.1923 84.4277 50.2103 84.5436 50.1813C84.6595 50.1522 84.759 50.0784 84.8204 49.9762C85.0872 49.5315 85.3448 49.1136 85.5923 48.7236C86.0873 47.9435 86.5431 47.2746 86.9545 46.7255C87.7776 45.6276 88.4895 45.0372 88.7381 44.968C88.8633 44.9332 88.8201 44.922 88.8891 45.0052C88.9581 45.0883 89.0729 45.3481 89.1339 45.7788C89.2559 46.64 89.2042 48.1395 88.93 50.2664C88.3904 54.451 87.0008 61.1303 84.6179 70.6447L83.3039 70.3027C83.1883 70.2726 83.0654 70.2895 82.9623 70.3497C82.8592 70.4099 82.7843 70.5085 82.7541 70.6238C82.7392 70.6809 82.7356 70.7404 82.7438 70.7989C82.7519 70.8574 82.7714 70.9137 82.8014 70.9646C82.8313 71.0155 82.871 71.06 82.9182 71.0957C82.9653 71.1313 83.0191 71.1573 83.0764 71.1722L85.2737 71.7444L85.3844 71.3042C87.8447 61.5196 89.266 54.7082 89.824 50.3809C90.1029 48.2172 90.1721 46.6832 90.0262 45.653C89.9532 45.138 89.8369 44.7376 89.5832 44.4319C89.3294 44.1262 88.8715 43.9977 88.496 44.1022Z"
        fill="white" stroke="white" stroke-width="1.14057" />
    <path
        d="M84.4913 72.4639C84.4572 72.4643 84.4233 72.4685 84.3902 72.4765C84.3327 72.4904 84.2785 72.5155 84.2307 72.5503C84.1829 72.5851 84.1425 72.629 84.1117 72.6794C84.0809 72.7298 84.0604 72.7857 84.0513 72.844C84.0422 72.9023 84.0447 72.9619 84.0586 73.0192L86.7385 84.0413C86.7524 84.0987 86.7775 84.1528 86.8124 84.2005C86.8473 84.2482 86.8912 84.2886 86.9418 84.3193C86.9923 84.3501 87.0484 84.3706 87.1069 84.3797C87.1654 84.3888 87.2251 84.3863 87.2826 84.3724C87.3401 84.3585 87.3943 84.3334 87.4421 84.2986C87.4898 84.2638 87.5303 84.2199 87.5611 84.1695C87.5919 84.1192 87.6124 84.0632 87.6215 84.0049C87.6306 83.9466 87.6281 83.887 87.6142 83.8297L84.9343 72.8072C84.9102 72.7085 84.8534 72.6208 84.7729 72.5584C84.6924 72.496 84.5932 72.4627 84.4913 72.4639Z"
        fill="white" stroke="white" stroke-width="1.14057" />
    <path
        d="M80.5281 73.1944C80.5096 73.1946 80.4912 73.1959 80.4729 73.1983C80.4142 73.2061 80.3577 73.2253 80.3065 73.2548C80.2553 73.2844 80.2104 73.3237 80.1744 73.3706C80.1384 73.4174 80.1121 73.4709 80.0968 73.5279C80.0815 73.5849 80.0777 73.6444 80.0855 73.7029L82.1208 88.9937C82.1366 89.1118 82.1987 89.2189 82.2936 89.2913C82.3884 89.3637 82.5082 89.3955 82.6266 89.3799C82.6853 89.3721 82.7419 89.3529 82.7931 89.3234C82.8443 89.2938 82.8892 89.2545 82.9251 89.2076C82.9611 89.1608 82.9875 89.1073 83.0028 89.0503C83.018 88.9933 83.0219 88.9338 83.0141 88.8753L80.9787 73.5845C80.9643 73.4758 80.9105 73.3762 80.8275 73.3043C80.7445 73.2325 80.638 73.1934 80.5281 73.1944Z"
        fill="white" stroke="white" stroke-width="1.14057" />
    <path
        d="M66.0452 73.8877C65.9457 73.8893 65.8496 73.9236 65.7717 73.9853C65.6939 74.0471 65.6387 74.1328 65.6148 74.2291L62.5019 86.752C62.4733 86.8676 62.4918 86.9899 62.5535 87.0919C62.6152 87.1939 62.7149 87.2673 62.8309 87.296C62.9468 87.3247 63.0694 87.3063 63.1718 87.2448C63.2741 87.1834 63.3478 87.0839 63.3766 86.9683L66.4895 74.4454C66.5037 74.3881 66.5065 74.3286 66.4977 74.2702C66.4889 74.2119 66.4686 74.1558 66.4381 74.1052C66.4075 74.0547 66.3673 74.0106 66.3197 73.9756C66.2721 73.9406 66.218 73.9152 66.1606 73.901C66.1229 73.8916 66.0841 73.8872 66.0452 73.8877Z"
        fill="white" stroke="white" stroke-width="1.14057" />
    <path d="M16.5379 72.626L13.6467 88.2379Z" fill="white" />
    <path d="M16.5379 72.626L13.6467 88.2379" stroke="white" stroke-width="1.14057" />
    <path
        d="M16.5276 72.1769C16.4242 72.1794 16.3249 72.2173 16.2462 72.2842C16.1676 72.3512 16.1144 72.443 16.0956 72.5445L13.2045 88.1564C13.1828 88.2736 13.2087 88.3946 13.2764 88.4928C13.3442 88.5909 13.4482 88.6582 13.5657 88.6799C13.6832 88.7015 13.8045 88.6757 13.9029 88.6082C14.0013 88.5406 14.0688 88.4368 14.0905 88.3196L16.9815 72.7077C17.0032 72.5905 16.9774 72.4695 16.9096 72.3713C16.8419 72.2732 16.7379 72.2058 16.6204 72.1842C16.5898 72.1786 16.5587 72.1761 16.5276 72.1769Z"
        fill="white" stroke="white" stroke-width="1.14057" />
    <path
        d="M63.7054 50.6719C63.6455 50.6727 63.5863 50.6854 63.5314 50.7093C63.4765 50.7331 63.4269 50.7677 63.3855 50.8109C60.351 53.9853 56.3299 54.5358 51.3174 55.6562C50.4382 55.8527 49.7241 56.1171 49.2092 56.4361C48.9517 56.5956 48.7408 56.7674 48.5869 56.9831C48.4331 57.1988 48.3401 57.4936 48.414 57.7776C48.4879 58.0616 48.6946 58.273 48.9438 58.4268C49.193 58.5806 49.5016 58.6936 49.8883 58.7854C50.6617 58.969 51.7525 59.0612 53.2513 59.0322H53.2526H53.254C57.0918 58.9354 61.0775 58.5702 65.4863 55.8781C65.5882 55.8159 65.6611 55.7159 65.689 55.6C65.717 55.4842 65.6977 55.3621 65.6353 55.2604C65.6044 55.2101 65.5639 55.1663 65.5161 55.1316C65.4682 55.0969 65.4139 55.0719 65.3564 55.0581C65.2989 55.0443 65.2392 55.0419 65.1807 55.0512C65.1223 55.0604 65.0662 55.081 65.0158 55.1118C60.7816 57.6972 57.0308 58.0377 53.234 58.1336C51.7819 58.1616 50.7469 58.0656 50.0968 57.9113C49.7718 57.8341 49.5446 57.7406 49.4181 57.6625C49.2915 57.5844 49.2826 57.5387 49.286 57.5517C49.2894 57.5647 49.271 57.5748 49.3213 57.5043C49.3716 57.4337 49.4941 57.3178 49.6848 57.1997C50.066 56.9636 50.7055 56.7141 51.5146 56.5333C56.4858 55.4222 60.7657 54.854 64.0377 51.4312C64.1201 51.345 64.1647 51.2296 64.1619 51.1105C64.159 50.9913 64.1088 50.8782 64.0224 50.796C63.937 50.7149 63.8233 50.6703 63.7054 50.6719Z"
        fill="white" stroke="white" stroke-width="1.14057" />
    <path
        d="M82.2214 46.3596C82.1085 46.3628 82.001 46.4083 81.9201 46.4869C81.8777 46.5281 81.8439 46.5772 81.8205 46.6315C81.7972 46.6857 81.7847 46.744 81.784 46.803C81.7832 46.862 81.7941 46.9206 81.816 46.9755C81.838 47.0303 81.8705 47.0803 81.9118 47.1225C83.9816 49.2409 85.7566 53.1809 86.2609 57.52C86.7651 61.8591 86.0188 66.5826 83.1869 70.3603C83.1154 70.4558 83.0848 70.5757 83.1019 70.6936C83.119 70.8116 83.1823 70.9179 83.278 70.9893C83.3737 71.0607 83.4939 71.0912 83.6122 71.0741C83.7304 71.0571 83.837 70.9939 83.9086 70.8984C86.9104 66.894 87.6804 61.9304 87.1558 57.4165C86.6313 52.9026 84.8324 48.8239 82.557 46.4952C82.5135 46.4507 82.4612 46.4156 82.4035 46.3923C82.3457 46.3689 82.2837 46.3578 82.2214 46.3596ZM65.2436 54.9481C65.1703 54.9478 65.098 54.9653 65.033 54.9992C64.9272 55.0543 64.8476 55.1492 64.8118 55.2628C64.776 55.3764 64.7869 55.4996 64.8421 55.6052C65.301 56.4828 65.5862 57.4851 65.6842 58.5155C65.7332 59.0308 65.7355 59.553 65.6905 60.07C65.6679 60.3285 65.6335 60.5856 65.5871 60.8396C65.587 60.8404 65.5869 60.8412 65.5868 60.842C65.5759 60.9031 65.5635 60.9654 65.5502 61.0291C65.5258 61.1457 65.5488 61.2673 65.6142 61.367C65.6796 61.4667 65.7821 61.5365 65.8991 61.5608C66.016 61.5852 66.1379 61.5622 66.2379 61.497C66.3378 61.4317 66.4077 61.3295 66.4322 61.2128C66.4466 61.1438 66.4609 61.0732 66.4737 61.0009V60.9999C66.5253 60.7179 66.5635 60.4334 66.5885 60.148C66.5885 60.1479 66.5885 60.1478 66.5885 60.1477C66.6382 59.576 66.6353 58.9999 66.5812 58.4306C66.4728 57.2919 66.1588 56.1803 65.641 55.1899C65.6031 55.1173 65.546 55.0565 65.476 55.0138C65.406 54.9712 65.3256 54.9485 65.2436 54.9481ZM64.5827 63.7924C64.515 63.7934 64.4483 63.8097 64.3878 63.8399C64.3272 63.8702 64.2742 63.9137 64.2329 63.9672C64.1554 64.0673 64.0755 64.165 63.9924 64.2598C63.9923 64.2598 63.9922 64.2598 63.9921 64.2598C63.3264 65.0207 62.4695 65.627 61.397 65.9987C59.5658 66.6213 58.4648 67.224 57.8092 67.6882C57.4812 67.9205 57.2647 68.1181 57.1254 68.2661C56.9862 68.4141 56.9059 68.5438 56.9059 68.5438C56.8764 68.595 56.8573 68.6514 56.8497 68.71C56.8421 68.7685 56.8462 68.828 56.8616 68.885C56.877 68.942 56.9036 68.9954 56.9397 69.0421C56.9759 69.0889 57.0209 69.1281 57.0722 69.1575C57.1758 69.2168 57.2987 69.2327 57.414 69.2017C57.5293 69.1707 57.6276 69.0952 57.6871 68.9919C57.6871 68.9919 57.6878 68.9815 57.7823 68.8812C57.8767 68.7808 58.0469 68.622 58.3307 68.421C58.8982 68.0192 59.9211 67.4499 61.6903 66.8486C61.6911 66.8483 61.6919 66.848 61.6927 66.8476C62.9128 66.4248 63.9083 65.7226 64.6709 64.8509C64.7666 64.7417 64.8582 64.6303 64.9462 64.5166C65.0192 64.4222 65.0516 64.3028 65.0364 64.1846C65.0211 64.0664 64.9593 63.9591 64.8648 63.8863C64.7841 63.824 64.6847 63.7909 64.5827 63.7924ZM80.0827 73.1336C80.0016 73.1326 79.9217 73.1535 79.8515 73.194C76.86 74.923 74.9573 76.924 73.6074 78.9164C72.8946 79.9683 72.5834 81.103 72.1641 81.7868C71.9544 82.1288 71.7427 82.3459 71.4614 82.4632C71.18 82.5806 70.7868 82.615 70.1633 82.4559C69.5544 82.3007 69.024 82.1946 68.6235 82.0618C68.223 81.9291 67.9754 81.7827 67.8223 81.5709C67.6692 81.3591 67.5692 81.0306 67.6058 80.4221C67.6424 79.8136 67.8231 78.9511 68.1882 77.7726C68.46 76.8948 69.5941 75.6862 70.6436 74.5339C70.7238 74.4456 70.7657 74.3292 70.76 74.2102C70.7542 74.0912 70.7013 73.9794 70.613 73.8993C70.5692 73.8595 70.518 73.8288 70.4623 73.8088C70.4066 73.7888 70.3475 73.78 70.2884 73.7828C70.2293 73.7856 70.1713 73.8 70.1178 73.8252C70.0642 73.8503 70.0162 73.8858 69.9764 73.9294C68.9451 75.0619 67.721 76.2367 67.3275 77.5075C66.951 78.7229 66.7505 79.6381 66.7065 80.3684C66.6626 81.0986 66.7829 81.6699 67.0913 82.0967C67.3998 82.5234 67.8548 82.7542 68.3391 82.9147C68.8235 83.0753 69.36 83.1788 69.9402 83.3267C70.6858 83.5169 71.3032 83.5037 71.8092 83.2926C72.3153 83.0814 72.6675 82.6888 72.933 82.2559C73.4639 81.39 73.7481 80.3139 74.3541 79.4196C75.6415 77.5194 77.4283 75.6332 80.3032 73.9716C80.4065 73.9118 80.4819 73.8136 80.5126 73.6984C80.5433 73.5833 80.527 73.4607 80.4671 73.3575C80.428 73.2902 80.3719 73.2342 80.3046 73.1949C80.2372 73.1556 80.1607 73.1345 80.0827 73.1336ZM60.4964 73.8959C60.4325 73.8972 60.3697 73.912 60.312 73.9393C60.2543 73.9667 60.2031 74.0059 60.1618 74.0545C59.5391 74.7867 58.8392 76.0082 58.4694 77.0202C58.2552 77.6063 58.0584 78.2408 57.6895 78.6118C57.3206 78.9829 56.7875 79.2088 55.5467 78.8799C54.5232 78.6086 54.1118 78.2539 53.9347 77.6213C53.7577 76.9886 53.8825 75.9551 54.3042 74.4801C54.3204 74.4234 54.3253 74.364 54.3185 74.3053C54.3116 74.2467 54.2933 74.19 54.2645 74.1384C54.2358 74.0869 54.1971 74.0414 54.1507 74.0048C54.1043 73.9681 54.0512 73.941 53.9943 73.9248C53.8794 73.8921 53.7562 73.9063 53.6518 73.9642C53.5474 74.0222 53.4703 74.1191 53.4375 74.2336C53.0006 75.7619 52.8012 76.9144 53.0667 77.8631C53.3322 78.8119 54.1302 79.4343 55.3152 79.7483C56.7427 80.1267 57.7362 79.8411 58.329 79.2448C58.9219 78.6484 59.1219 77.8594 59.3161 77.328C59.6369 76.4504 60.34 75.2346 60.8493 74.6357C60.9265 74.5448 60.9644 74.427 60.9546 74.3083C60.9448 74.1895 60.8881 74.0795 60.797 74.0024C60.7132 73.9315 60.6063 73.8937 60.4964 73.8959Z"
        fill="white" stroke="white" stroke-width="1.14057" />
    <path
        d="M80.6394 55.4543C80.5638 55.4568 80.4901 55.4783 80.425 55.5168C80.3599 55.5552 80.3055 55.6094 80.267 55.6743C79.8539 56.368 78.6347 57.8006 76.9904 59.1959C75.3462 60.5912 73.2636 61.9751 71.0942 62.706C68.8459 63.4634 66.2676 63.8428 64.2402 63.7543C63.2187 63.7097 62.4998 63.5791 62.0941 63.4282C61.8913 63.3527 61.7717 63.2708 61.7296 63.2285C61.6875 63.1862 61.7134 63.2177 61.712 63.2318C61.7092 63.2599 61.8227 63.0312 62.2431 62.8019C62.6636 62.5725 63.3179 62.3323 64.1571 62.1347C69.0399 60.985 71.5461 59.3621 73.0571 58.0634C73.1019 58.0249 73.1387 57.9779 73.1653 57.9251C73.1919 57.8724 73.2078 57.815 73.2122 57.7561C73.2166 57.6973 73.2092 57.6381 73.1907 57.582C73.1721 57.526 73.1426 57.4741 73.104 57.4295C73.026 57.3392 72.9153 57.2836 72.7961 57.2747C72.677 57.2659 72.5593 57.3046 72.4688 57.3824C71.0472 58.6042 68.7167 60.1375 63.9499 61.26C63.0557 61.4705 62.3396 61.7245 61.8108 62.013C61.2819 62.3015 60.8672 62.6141 60.8151 63.1439C60.789 63.4087 60.9102 63.6809 61.0901 63.8617C61.27 64.0426 61.4992 64.1661 61.7795 64.2704C62.3401 64.479 63.1246 64.6053 64.201 64.6523C66.3719 64.7471 69.0247 64.3515 71.3826 63.5572C73.7113 62.7727 75.8687 61.3278 77.5741 59.8806C79.2795 58.4334 80.5193 57.0101 81.0415 56.1331C81.1025 56.0306 81.1202 55.9082 81.0907 55.7927C81.0612 55.6773 80.9869 55.5782 80.8842 55.5174C80.8103 55.4735 80.7254 55.4516 80.6394 55.4543Z"
        fill="white" stroke="white" stroke-width="1.14057" />
    <path
        d="M39.2721 68.0784C32.1267 68.0987 25.4273 68.2617 20.2676 68.576C16.8277 68.7854 14.0784 69.0595 12.3047 69.4132C11.4179 69.5901 10.7869 69.764 10.3532 70.0475C10.1364 70.1893 9.91874 70.4012 9.90057 70.7223C9.8824 71.0433 10.0816 71.2867 10.295 71.4527C10.6875 71.7581 11.2568 71.9573 12.046 72.1643C12.8352 72.3713 13.8361 72.5635 15.0259 72.7448C17.4053 73.1074 20.5372 73.4246 24.1666 73.6946C31.4256 74.2346 40.6708 74.5845 49.7878 74.7077C58.9048 74.8309 67.8907 74.7277 74.634 74.36C78.0057 74.1762 80.8146 73.927 82.8153 73.6024C83.8157 73.44 84.6118 73.2616 85.1986 73.048C85.4919 72.9413 85.7338 72.8282 85.9345 72.6795C86.1353 72.5307 86.3214 72.3195 86.3509 72.029C86.3824 71.7193 86.206 71.4453 86.0031 71.2706C85.8001 71.096 85.5485 70.9664 85.2385 70.8417C84.6184 70.5922 83.7571 70.3766 82.6627 70.1729C80.4739 69.7655 77.3651 69.4191 73.6403 69.1296C66.1906 68.5507 56.2874 68.2036 46.5256 68.1052C44.0851 68.0806 41.6539 68.0716 39.2721 68.0784ZM39.2741 68.9774C41.6522 68.9705 44.08 68.9793 46.5166 69.0039C56.2631 69.1021 66.1543 69.4496 73.5701 70.026C77.278 70.3141 80.3698 70.6606 82.4974 71.0566C83.5612 71.2547 84.387 71.4683 84.9016 71.6753C85.1589 71.7788 85.3365 71.8843 85.4144 71.9513C85.4147 71.9516 85.4144 71.9514 85.4147 71.9517C85.4052 71.9612 85.4243 71.9377 85.3974 71.9576C85.3093 72.0229 85.1339 72.1149 84.8896 72.2038C84.401 72.3816 83.6409 72.5579 82.6707 72.7153C80.7301 73.0301 77.9393 73.2794 74.5848 73.4624C67.8759 73.8282 58.9022 73.9317 49.8001 73.8087C40.6979 73.6857 31.4646 73.3362 24.2335 72.7982C20.618 72.5293 17.5021 72.2131 15.1619 71.8565C13.9918 71.6781 13.0153 71.4893 12.2751 71.2952C11.5788 71.1125 11.1093 70.9101 10.9086 70.7737C11.1375 70.6424 11.684 70.4537 12.4813 70.2947C14.1659 69.9587 16.9019 69.6816 20.3228 69.4733C25.454 69.1608 32.14 68.9978 39.2741 68.9774Z"
        fill="white" stroke="white" stroke-width="1.14057" />
    <path
        d="M18.5626 40.0703C18.4957 40.0705 18.4296 40.0855 18.3692 40.1143C18.3088 40.1431 18.2557 40.185 18.2135 40.2369C18.1714 40.2887 18.1414 40.3493 18.1256 40.4142C18.1099 40.4791 18.1089 40.5467 18.1226 40.6121L22.6436 62.0217C22.6638 62.1173 22.7147 62.2036 22.7885 62.2678C22.8623 62.332 22.955 62.3704 23.0527 62.3773L47.8677 64.1302C47.9378 64.1351 48.0082 64.1236 48.0731 64.0966C48.138 64.0696 48.1956 64.0278 48.2414 63.9746C48.2872 63.9213 48.3199 63.8582 48.3368 63.7901C48.3538 63.722 48.3545 63.6509 48.3389 63.5825L43.356 41.6345C43.3343 41.5388 43.2818 41.4529 43.2066 41.3897C43.1313 41.3266 43.0375 41.2898 42.9393 41.2848L18.5859 40.0707C18.5782 40.0704 18.5704 40.0703 18.5626 40.0703ZM19.1247 40.9975L42.5528 42.1656L47.3263 63.1907L23.4555 61.5045L19.1247 40.9975Z"
        fill="white" stroke="white" stroke-width="1.14057" />
    <path
        d="M31.7637 68.3125C31.7327 68.3129 31.7019 68.3174 31.6722 68.3261L25.5036 70.1483C25.4273 70.1708 25.3613 70.2195 25.3174 70.2858C25.2735 70.3521 25.2545 70.4317 25.2638 70.5106C25.273 70.5895 25.3098 70.6627 25.3679 70.7171C25.4259 70.7715 25.5013 70.8038 25.5808 70.8081L48.9088 72.1059C48.9442 72.1079 48.9797 72.1043 49.0139 72.0953L56.5171 70.1211C56.5951 70.1005 56.663 70.0528 56.7088 69.9865C56.7545 69.9203 56.775 69.8399 56.7665 69.7599C56.758 69.6799 56.7212 69.6056 56.6626 69.5504C56.604 69.4951 56.5275 69.4626 56.4469 69.4587L31.784 68.3129C31.7772 68.3126 31.7704 68.3124 31.7637 68.3125ZM31.8096 68.9886L54.215 70.0299L48.8932 71.4298L27.5623 70.2432L31.8096 68.9886Z"
        fill="white" stroke="white" stroke-width="1.14057" />
    <path
        d="M33.2539 59.0118C33.2042 59.0111 33.1548 59.0186 33.1076 59.034C33.0513 59.0523 32.9992 59.0815 32.9543 59.1199C32.9093 59.1583 32.8724 59.2052 32.8456 59.2579C32.8188 59.3105 32.8027 59.3679 32.7982 59.4268C32.7937 59.4856 32.8008 59.5448 32.8192 59.6009C33.9242 62.9731 34.8984 66.3753 33.5233 70.5557C33.5048 70.6118 33.4976 70.6709 33.5021 70.7298C33.5065 70.7887 33.5226 70.8461 33.5493 70.8988C33.576 70.9515 33.6129 70.9984 33.6578 71.0368C33.7026 71.0753 33.7547 71.1046 33.8109 71.123C33.9245 71.1601 34.0481 71.1507 34.1547 71.0969C34.2613 71.0431 34.3421 70.9492 34.3793 70.836C35.8397 66.3966 34.7879 62.7161 33.6756 59.3216C33.6464 59.2326 33.5901 59.1548 33.5145 59.0993C33.4389 59.0437 33.3478 59.0131 33.2539 59.0118Z"
        fill="white" stroke="white" stroke-width="1.14057" />
    <path
        d="M56.0133 29.8471C56.0133 30.2859 56.3877 30.6416 56.8495 30.6416C57.3114 30.6416 57.6858 30.2859 57.6858 29.8471C57.6858 29.4084 57.3114 29.0527 56.8495 29.0527C56.3877 29.0527 56.0133 29.4084 56.0133 29.8471Z"
        fill="white" stroke="white" stroke-width="1.14057" />
    <path
        d="M72.3207 29.8462C72.3207 30.2849 72.6951 30.6406 73.1569 30.6406C73.6188 30.6406 73.9932 30.2849 73.9932 29.8462C73.9932 29.4074 73.6188 29.0518 73.1569 29.0518C72.6951 29.0518 72.3207 29.4074 72.3207 29.8462Z"
        fill="white" stroke="white" stroke-width="1.14057" />
    <path
        d="M68.6656 10.6162C80.1467 10.6162 89.4661 19.9117 89.4661 31.3637C89.4661 42.8157 80.1467 52.1115 68.6656 52.1115C57.1845 52.1115 47.8654 42.8157 47.8654 31.3637C47.8654 19.9117 57.1845 10.6162 68.6656 10.6162ZM68.6656 11.7395C57.7932 11.7395 48.9915 20.5189 48.9915 31.3637C48.9915 42.2085 57.7932 50.9883 68.6656 50.9883C79.538 50.9883 88.34 42.2085 88.34 31.3637C88.34 20.5189 79.538 11.7395 68.6656 11.7395Z"
        fill="white" stroke="white" stroke-width="1.14057" />
</svg>