<svg xmlns="http://www.w3.org/2000/svg" width="100" height="100" viewBox="0 0 100 100" fill="none">
    <path
        d="M15.0798 65.6362C14.9528 67.604 14.7605 74.9392 18.5792 78.2843C19.8601 79.4004 21.5119 79.9945 23.2118 79.9498H23.5518C23.2084 80.5336 22.9199 81.1484 22.6898 81.7836L21.8485 84.0536C21.742 84.3352 21.7832 84.6511 21.9549 84.8984C22.1266 85.1456 22.4082 85.2898 22.707 85.2898H44.6854C44.9876 85.2898 45.2692 85.1456 45.4409 84.8984C45.6126 84.6511 45.6538 84.3352 45.5473 84.0536L44.7128 81.7836C43.7272 79.1257 41.8178 76.914 39.3281 75.5542C44.7953 74.1874 48.6382 69.2835 48.6619 63.6516V52.0927C48.6619 52.0927 47.4805 41.4332 33.4318 41.8279C20.5366 42.1954 15.4816 51.6461 15.1177 58.164C13.9913 59.0741 13.332 60.4408 13.3216 61.8901C13.3147 63.3392 13.9535 64.7129 15.0696 65.6367L15.0798 65.6362ZM18.3766 64.9769H18.222C16.5324 64.9769 15.1622 63.6101 15.1622 61.9205C15.1622 60.2309 16.5324 58.8606 18.222 58.8606H18.2942V63.5963C18.2976 64.0565 18.3251 64.5202 18.3766 64.9769ZM19.8052 76.9102C17.0579 74.4823 16.8278 69.0701 16.893 66.598C17.3292 66.7354 17.7825 66.804 18.2392 66.8109H18.7509C19.946 71.2066 23.4659 74.5892 27.9097 75.6093C26.8279 76.2171 25.8492 76.9932 25.0147 77.9102C22.8169 78.3772 21.0964 78.0538 19.8052 76.9102ZM42.9748 82.4048L43.3594 83.4488H39.6952V80.6088C39.6952 80.1039 39.2865 79.6953 38.7782 79.6953C38.2734 79.6953 37.8647 80.1039 37.8647 80.6088V83.4488H29.2176V80.6088C29.2176 80.1039 28.809 79.6953 28.3041 79.6953C27.7959 79.6953 27.3872 80.1039 27.3872 80.6088V83.4488H24.0183L24.3824 82.3877C25.8109 78.4968 29.5163 75.9075 33.6616 75.9075C37.8066 75.9075 41.5086 78.4968 42.9374 82.3877L42.9748 82.4048ZM46.8107 63.6133C46.7901 69.4067 42.0819 74.0909 36.2883 74.0803H30.6118C24.8219 74.0769 20.1307 69.3824 20.1237 63.5958V57.1293C20.1306 54.8559 21.9713 53.0118 24.2446 53.0083H46.7927L46.8107 63.6133ZM33.4865 43.6579C43.4216 43.366 45.9597 48.8606 46.5909 51.1752L24.2451 51.1786C20.9998 51.182 18.359 53.7851 18.3041 57.0303H18.2216C17.8267 57.0337 17.4387 57.0852 17.0575 57.1848C17.7718 51.9753 21.81 43.9981 33.4865 43.6579ZM32.3773 63.7232C32.1747 63.5756 32.0408 63.3489 32.0064 63.0982C31.9755 62.8475 32.0476 62.5934 32.209 62.3977C32.3705 62.2053 32.604 62.0852 32.8581 62.068C33.1088 62.0508 33.356 62.1401 33.5415 62.3118C34.9186 63.4107 36.8726 63.4107 38.2497 62.3118C38.6377 62.0989 39.1288 62.195 39.407 62.5453C39.6851 62.8922 39.6714 63.3901 39.3761 63.7232C37.3294 65.3613 34.424 65.3613 32.3773 63.7232ZM84.9232 58.1462C84.566 51.6248 79.5111 42.1741 66.6091 41.8101C52.5877 41.4152 51.4334 51.8823 51.4264 51.9922V63.5959C51.4504 69.2278 55.2932 74.1315 60.7567 75.4985C58.2704 76.8585 56.3576 79.07 55.372 81.728L54.5375 83.9979H54.5409C54.4345 84.2795 54.4757 84.5954 54.6474 84.8427C54.8191 85.09 55.1007 85.2342 55.3994 85.2342H77.3778C77.68 85.2342 77.9616 85.09 78.1333 84.8427C78.305 84.5954 78.3462 84.2795 78.2398 83.9979L77.3984 81.728C76.4197 79.1318 74.5481 76.9683 72.1236 75.629C76.5639 74.609 80.0839 71.2265 81.2789 66.8271H81.794C83.8545 66.834 85.6986 65.5393 86.3923 63.599C87.0895 61.6553 86.4851 59.4883 84.8882 58.1834L84.9232 58.1462ZM66.6091 43.6405C78.2848 43.9804 82.3236 51.9544 83.0383 57.1677C82.6606 57.0681 82.2691 57.0166 81.8776 57.0097H81.7952C81.7402 53.7679 79.096 51.1649 75.8507 51.158H53.4504C54.0754 48.8606 56.6029 43.366 66.5653 43.658L66.6091 43.6405ZM75.6685 82.3874L76.0532 83.4314H72.6637V80.5914C72.6637 80.0865 72.255 79.6744 71.7467 79.6744C71.2419 79.6744 70.8332 80.0865 70.8332 80.5914V83.4314H62.1689V80.5914C62.1689 80.0865 61.7602 79.6744 61.252 79.6744C60.7471 79.6744 60.3385 80.0865 60.3385 80.5914V83.4314H56.6742L57.0588 82.3874C58.4874 78.4966 62.1894 75.9072 66.3346 75.9072C70.4795 75.9072 74.185 78.4966 75.6139 82.3874H75.6685ZM79.944 63.5959C79.9406 66.3776 78.8348 69.0459 76.8636 71.0136C74.8924 72.978 72.2242 74.0837 69.4391 74.0803H63.7625C57.9692 74.0803 53.2674 69.3893 53.2577 63.5958V53.0083H75.8058C78.0791 53.0118 79.9199 54.8559 79.9267 57.1293L79.944 63.5959ZM81.85 64.9799H81.6955L81.692 64.9764C81.7435 64.5197 81.771 64.0561 81.7744 63.5959V58.8603H81.85C83.5396 58.8603 84.9064 60.2305 84.9064 61.9201C84.9064 63.6097 83.5396 64.9765 81.85 64.9765V64.9799ZM67.8384 62.4523V62.4489C68.1371 62.8473 68.065 63.4139 67.6735 63.723C65.6268 65.361 62.7215 65.361 60.6748 63.723C60.3005 63.4001 60.2455 62.8404 60.5546 62.4523C60.8637 62.0677 61.4269 61.9956 61.8218 62.2944C63.1989 63.3933 65.1495 63.3933 66.5266 62.2944C66.7189 62.1433 66.9627 62.0746 67.2065 62.1021C67.4469 62.133 67.6701 62.2566 67.8178 62.4489L67.8384 62.4523ZM30.8875 36.6621L33.8271 40.8277C33.9954 41.0681 34.2735 41.2123 34.5689 41.2123H34.6135C34.926 41.1986 35.2076 41.0268 35.3656 40.7556L37.6355 36.8097C44.2393 35.7108 48.972 31.1778 48.972 25.9129C48.972 19.7658 42.5158 14.7109 34.5691 14.7109C26.6191 14.7109 20.1627 19.766 20.1627 25.8751C20.1627 30.985 24.5483 35.3803 30.8875 36.6621ZM34.5517 16.5141C41.4852 16.5141 47.1242 20.7002 47.1242 25.8443C47.1242 30.3052 42.8384 34.1583 36.9218 35.0031C36.6402 35.0409 36.3964 35.2092 36.2522 35.453L34.4595 38.5678L32.169 35.3328C32.0282 35.1405 31.8187 35.01 31.5817 34.9688C25.9326 33.942 21.9939 30.216 21.9939 25.9129C21.9939 20.7274 27.6362 16.5413 34.5699 16.5413L34.5517 16.5141ZM27.3503 27.0364C27.3503 26.5316 27.7624 26.1229 28.2673 26.1229H34.7612C35.266 26.1229 35.6747 26.5316 35.6747 27.0364C35.6747 27.5447 35.266 27.9534 34.7612 27.9534H28.2673C27.7625 27.9534 27.3503 27.5447 27.3503 27.0364ZM37.5359 27.0364C37.5359 26.5316 37.9446 26.1229 38.4494 26.1229H40.867C41.3753 26.1229 41.784 26.5316 41.784 27.0364C41.784 27.5447 41.3753 27.9534 40.867 27.9534H38.4494C37.9446 27.9534 37.5359 27.5447 37.5359 27.0364ZM62.7082 36.6621L65.641 40.8277C65.8127 41.0715 66.0943 41.2157 66.3896 41.2123C66.7021 41.1986 66.9871 41.0268 67.1417 40.7556L69.422 36.8097C76.0155 35.7108 80.7584 31.1778 80.7584 25.9129C80.7962 19.7658 74.3297 14.7109 66.3898 14.7109C58.4499 14.7109 51.9764 19.766 51.9764 25.8751C51.9764 30.985 56.3723 35.3803 62.7082 36.6621ZM66.3725 16.5141C73.3059 16.5141 78.945 20.7002 78.945 25.8443C78.945 30.3052 74.6489 34.1583 68.7356 35.0031C68.4574 35.0444 68.217 35.2092 68.0762 35.453L66.2459 38.5403L63.9828 35.3328C63.8455 35.1405 63.6394 35.01 63.4059 34.9688C57.7567 33.942 53.8075 30.216 53.8075 25.9129C53.8075 20.7274 59.4498 16.5413 66.3897 16.5413L66.3725 16.5141ZM59.1849 27.0364C59.1849 26.5316 59.5935 26.1229 60.0984 26.1229H66.582C67.0902 26.1229 67.4989 26.5316 67.4989 27.0364C67.4989 27.5447 67.0903 27.9534 66.582 27.9534H60.0984C59.5936 27.9534 59.1849 27.5447 59.1849 27.0364ZM69.36 27.0364H69.3565C69.3565 26.5316 69.7686 26.1229 70.2735 26.1229H72.6911C73.1959 26.1229 73.608 26.5316 73.608 27.0364C73.608 27.5447 73.1959 27.9534 72.6911 27.9534H70.2632C69.7584 27.9534 69.3497 27.5447 69.3497 27.0364H69.36ZM25.5369 59.5749C25.5369 58.1807 26.6702 57.0474 28.0644 57.0474C29.462 57.0474 30.5919 58.1807 30.5919 59.5749C30.5919 60.0798 30.1832 60.4919 29.6784 60.4919C29.1701 60.4919 28.7614 60.0798 28.7614 59.5749C28.7614 59.1903 28.4489 58.8778 28.0643 58.8778C27.6797 58.8778 27.3706 59.1903 27.3706 59.5749C27.3706 60.0798 26.9585 60.4919 26.4537 60.4919C25.9488 60.4919 25.5369 60.0798 25.5369 59.5749ZM39.2733 59.5749C39.2733 58.1807 40.4066 57.0474 41.8009 57.0474C43.1985 57.0474 44.3284 58.1807 44.3284 59.5749C44.3284 60.0798 43.9197 60.4919 43.4149 60.4919C42.9066 60.4919 42.4979 60.0798 42.4979 59.5749C42.4979 59.1903 42.1854 58.8778 41.8008 58.8778C41.4162 58.8778 41.1071 59.1903 41.1071 59.5749C41.1071 60.0798 40.695 60.4919 40.1902 60.4919C39.6853 60.4919 39.2733 60.0798 39.2733 59.5749ZM59.8986 60.4919C59.3904 60.4919 58.9817 60.0798 58.9817 59.5749C58.9817 59.1903 58.6692 58.8778 58.2846 58.8778C57.8999 58.8778 57.5909 59.1903 57.5909 59.5749C57.5909 60.0798 57.1788 60.4919 56.6739 60.4919C56.1691 60.4919 55.757 60.0798 55.757 59.5749C55.757 58.1807 56.8903 57.0474 58.2845 57.0474C59.6822 57.0474 60.812 58.1807 60.812 59.5749C60.812 59.8188 60.7159 60.0523 60.5442 60.224C60.3725 60.3957 60.139 60.4919 59.8986 60.4919ZM74.5486 59.5749C74.5486 60.0798 74.1399 60.4919 73.6351 60.4919C73.1268 60.4919 72.7182 60.0798 72.7182 59.5749C72.7182 59.1903 72.4057 58.8778 72.021 58.8778C71.6364 58.8778 71.3273 59.1903 71.3273 59.5749C71.3273 60.0798 70.9152 60.4919 70.4104 60.4919C69.9056 60.4919 69.4935 60.0798 69.4935 59.5749C69.4935 58.1807 70.6268 57.0474 72.021 57.0474C73.4186 57.0474 74.5486 58.1807 74.5486 59.5749Z"
        fill="white" />
</svg>