<svg xmlns="http://www.w3.org/2000/svg" width="100" height="100" viewBox="0 0 100 100" fill="none">
    <path
        d="M76.695 83.1117C76.4443 82.7517 76.0103 82.3755 75.3995 82.0026C74.7759 81.6297 73.9786 81.2665 72.9563 80.9193C72.1077 80.6332 71.0983 80.3471 69.9377 80.0963C69.6388 78.3379 67.6682 78.0904 67.2181 77.6403C66.7456 77.1902 61.0203 66.4794 59.6508 65.8589C58.9532 65.5342 58.0564 65.6596 57.0823 66.0711C57.0566 66.0196 57.0309 65.9714 57.0084 65.9103C56.9087 65.7239 56.748 65.486 56.4972 65.2256C56.2465 64.9652 55.9604 64.6888 55.7 64.303C55.6389 64.2033 55.5618 64.1037 55.5007 63.9912C55.4268 63.8658 55.3496 63.7308 55.2499 63.5926C55.0764 63.3193 54.8642 63.0075 54.5781 62.6957C54.5041 62.6218 54.427 62.535 54.3402 62.4578C54.3016 62.4192 54.2534 62.3839 54.202 62.3453C54.1634 62.3067 54.0895 62.2585 54.0509 62.2328C53.8516 62.0946 53.678 61.982 53.4883 61.8727C53.1026 61.6477 52.7039 61.4098 52.2539 61.1623C52.1799 61.1237 52.1157 61.0884 52.0417 61.0498C52.6139 60.0533 53.2247 59.2046 53.8484 58.5295C54.2213 58.1309 54.6102 57.8062 54.996 57.5683C55.1696 57.4686 55.3335 57.3818 55.5071 57.3175C55.5585 57.3304 55.6067 57.3433 55.6582 57.3175C55.8575 57.2436 56.0182 57.2179 56.2079 57.2436C56.3943 57.2693 56.5808 57.3047 56.7704 57.3433C57.1208 57.4172 57.4327 57.4815 57.6802 57.5297C58.1785 57.6294 58.4517 57.6551 58.4646 57.6165C58.4517 57.6551 58.4775 57.6904 58.5385 57.7419C58.5996 57.7933 58.7121 57.8544 58.8986 57.9026C59.0722 57.954 59.3358 58.0023 59.6605 58.0151C59.998 58.0151 60.4223 57.9765 60.9077 57.8287C61.8914 57.5297 63.1644 56.7678 64.3506 55.2859C64.7235 54.8134 65.0996 54.2636 65.4468 53.64C65.7715 53.0678 66.0704 52.4184 66.3308 51.6951C66.6555 50.7597 66.9159 49.6988 66.9287 48.4901C66.9416 47.8922 66.8773 47.2557 66.7166 46.6063C66.5558 45.9569 66.2665 45.298 65.8197 44.7096C65.5947 44.4107 65.3343 44.1374 65.0353 43.8995C64.7492 43.6488 64.386 43.4366 64.1256 43.263C63.5534 42.8773 62.965 42.4915 62.3543 42.08C61.1327 41.2314 59.8469 40.283 58.5128 39.2511C57.1787 38.216 55.7707 37.0684 54.3466 35.7986C52.9257 34.5256 51.4662 33.1176 50.1065 31.4974C49.4346 30.6873 48.7852 29.8129 48.2484 28.8774C48.1745 28.7649 48.1102 28.6395 48.0491 28.5174C47.988 28.392 47.9237 28.2795 47.8627 28.1573C47.8112 28.0319 47.7501 27.9066 47.7019 27.7844C47.6408 27.6462 47.5765 27.5112 47.5155 27.3601C47.2647 26.7975 46.9915 26.251 46.6797 25.7142C46.2811 25.0037 45.831 24.319 45.3456 23.644C44.8473 22.9817 44.3105 22.3356 43.6868 21.7377C43.5358 21.5866 43.375 21.4516 43.2143 21.3005C43.0536 21.1622 42.8767 21.0272 42.7032 20.889L42.4171 20.6897C42.3656 20.6511 42.3174 20.6286 42.2788 20.59L42.1277 20.5032C42.0281 20.4422 41.9284 20.3907 41.8288 20.3296L41.5169 20.1786C41.4655 20.1528 41.4173 20.1271 41.3562 20.1046L41.1955 20.0435L40.8708 19.931L40.5333 19.8442L40.3725 19.7928L40.2118 19.7542L39.8743 19.6931C39.7617 19.6803 39.6492 19.6674 39.5367 19.6546C39.3117 19.616 39.0867 19.616 38.8648 19.616C37.9551 19.6031 37.0678 19.7542 36.2224 20.0018C35.3738 20.2525 34.5508 20.5997 33.7922 21.024C33.0206 21.4484 32.2974 21.9338 31.6094 22.4706C30.9247 23.0075 30.2754 23.5925 29.6646 24.2162C29.0538 24.8398 28.4816 25.4892 27.9448 26.1739C27.4079 26.8586 26.8968 27.5594 26.4242 28.2827C25.9516 29.006 25.5144 29.7551 25.0901 30.5008L24.7911 31.073L24.64 31.3591C24.5886 31.4588 24.5404 31.5456 24.489 31.6581C24.2896 32.0696 24.1289 32.4682 23.965 32.8797C23.6531 33.6898 23.3928 34.5128 23.1549 35.3357C22.917 36.1587 22.7305 36.9945 22.5698 37.8432C22.4091 38.679 22.2966 39.5277 22.2098 40.3859C22.1358 41.2346 22.0972 42.0929 22.1101 42.9416C22.123 43.7903 22.1969 44.6486 22.3351 45.4844C22.3737 45.6965 22.3962 45.9087 22.4477 46.108C22.4991 46.3202 22.5473 46.5195 22.5859 46.7317C22.6984 47.1431 22.8109 47.5546 22.9588 47.9533C23.2449 48.7505 23.621 49.5253 24.0807 50.2356C24.5436 50.9461 25.0772 51.6083 25.7009 52.1677L25.926 52.3798L26.1767 52.5792C26.3374 52.7045 26.5014 52.8396 26.6621 52.9649C27.0222 53.2253 27.424 53.4375 27.8451 53.5757C28.2695 53.7268 28.7195 53.7879 29.1406 53.8007C29.5778 53.8136 29.9892 53.775 30.3879 53.7139C31.198 53.5886 31.9341 53.3635 32.6574 53.1642C33.3807 52.9649 34.0783 52.7785 34.7759 52.6788C35.4477 52.5792 36.1614 52.592 36.8589 52.6402C37.5565 52.6917 38.2541 52.7785 38.942 52.891C40.3147 53.116 41.6488 53.4278 42.896 53.8264C43.2079 53.9261 43.5068 54.0386 43.7929 54.1511C43.944 54.2122 44.079 54.2765 44.2044 54.3376C44.3426 54.3986 44.4648 54.4758 44.5419 54.5369L44.6801 54.6751C44.7316 54.7265 44.7798 54.7876 44.8184 54.8358C44.9052 54.9484 44.9791 55.0609 45.0434 55.1734C45.1688 55.4113 45.2556 55.6588 45.2427 55.871C45.2299 56.1442 45.1913 56.4432 45.1431 56.7454C45.0916 57.0443 45.0305 57.3304 44.9823 57.6294C44.9084 58.0151 44.8216 58.3912 44.7316 58.7641C44.6448 58.8156 44.558 58.8638 44.4712 58.9152C44.3105 59.0277 44.1465 59.1531 44.0083 59.2881C43.9343 59.3621 43.8701 59.4392 43.809 59.5003C43.7479 59.5742 43.6836 59.661 43.6225 59.7382C43.4972 59.9118 43.3975 60.0982 43.3107 60.2879C43.285 60.2879 43.2721 60.275 43.2496 60.275H43.2239C43.1853 60.275 43.1628 60.2622 43.1242 60.2622C43.0632 60.2622 42.986 60.2622 42.9378 60.275C42.8864 60.2879 42.8382 60.2879 42.7867 60.3007C42.6871 60.3265 42.5874 60.3522 42.5006 60.3875C42.327 60.4486 42.1631 60.5386 42.0281 60.6254C41.7419 60.799 41.4912 61.0112 41.2565 61.2619C41.0058 61.5352 40.8322 61.847 40.7068 62.1106L40.5332 62.5092C40.4722 62.6603 40.4079 62.821 40.3725 63.0589C40.3596 63.1714 40.3468 63.2968 40.3725 63.4446C40.3854 63.5314 40.4111 63.6311 40.4593 63.7179C40.4207 63.7308 40.3982 63.7436 40.3596 63.7565C40.1732 63.8304 40.0092 63.9172 39.8614 64.0072C39.5624 64.2065 39.2988 64.4187 39.0513 64.7048C38.8005 65.0038 38.6527 65.3284 38.5144 65.6017L38.4276 65.8138C38.3891 65.8878 38.3666 65.9746 38.328 66.0646C38.2669 66.251 38.2026 66.476 38.2412 66.7879C38.254 66.8618 38.2798 66.939 38.3023 67.0129C38.164 67.0515 38.029 67.0868 37.9165 67.1511C37.7043 67.2508 37.505 67.3633 37.3314 67.4887C37.1578 67.614 36.9939 67.7619 36.8332 67.9259C36.6724 68.0995 36.5342 68.2988 36.4217 68.4884C36.3092 68.6749 36.2352 68.8613 36.1613 69.0381C36.0874 69.1989 35.9877 69.411 35.9363 69.7004C35.9105 69.8514 35.8977 70.025 35.9363 70.2115C35.962 70.3111 35.9973 70.4108 36.0488 70.4976C36.1002 70.5844 36.1613 70.6583 36.2224 70.7355C36.2224 70.7483 36.2095 70.7612 36.2095 70.7741C36.1838 70.8608 36.1709 70.9348 36.1484 71.0248C36.0874 71.3495 36.097 71.6484 36.1227 71.9346C36.1742 72.4971 36.2963 73.0083 36.4603 73.5066C36.4988 73.6319 36.5471 73.7573 36.5856 73.8666L36.6596 74.0531C36.6853 74.1142 36.711 74.1784 36.7464 74.2524L36.7721 74.291L36.7849 74.3167L36.7978 74.3295C36.8107 74.3424 36.8235 74.3681 36.8364 74.381C36.8621 74.4195 36.8975 74.4549 36.9232 74.4806C36.7496 75.0432 36.6371 75.6026 36.9617 76.0655C37.8233 77.2742 43.8829 80.2799 44.992 79.2062C45.5417 78.6822 46.551 76.5766 47.6119 74.0691C47.6633 74.1817 47.7244 74.2813 47.7984 74.381C47.9366 74.5546 48.0973 74.7057 48.2966 74.8053C48.3481 74.831 48.4091 74.8567 48.4702 74.8792C48.3706 75.1654 48.3095 75.429 48.2966 75.6508C48.4477 76.2873 48.9331 77.4478 49.5697 78.9169C49.1582 78.9426 48.7467 78.978 48.3224 79.0037C46.7022 79.1291 45.0434 79.3155 43.3718 79.5759C41.7003 79.8363 40.0061 80.1738 38.3088 80.6721C37.4602 80.9228 36.6243 81.2218 35.7885 81.6333C35.377 81.8455 34.9655 82.0833 34.5669 82.3952C34.5155 82.4337 34.4672 82.4691 34.4158 82.5205L34.2647 82.6588C34.1651 82.7456 34.0783 82.8581 33.9915 82.9577C33.94 83.0092 33.9047 83.0702 33.8661 83.1313C33.8275 83.1924 33.7793 83.2567 33.7407 83.3178C33.6668 83.456 33.6025 83.591 33.5671 83.7678C33.5157 83.9189 33.5061 84.1054 33.4932 84.2661C33.4932 84.4397 33.5189 84.6165 33.5671 84.7644C33.6668 85.089 33.8275 85.3366 34.0172 85.5487C34.3772 85.9731 34.7887 86.2592 35.2002 86.497C36.0232 86.9696 36.8718 87.2943 37.7205 87.5707C39.4178 88.1076 41.1376 88.4547 42.8318 88.7313C44.5291 89.0045 46.2232 89.1813 47.882 89.3163C51.2124 89.5767 54.427 89.6153 57.4324 89.5285C63.4534 89.342 68.6418 88.6059 72.2068 87.5225C73.991 86.9857 75.3604 86.3492 76.1609 85.6516C76.5595 85.3012 76.7845 84.9412 76.8456 84.668C76.9067 84.3947 76.8713 84.2565 76.8456 84.2565C76.8199 84.2565 76.807 84.3947 76.7074 84.6165C76.6077 84.8416 76.3698 85.1405 75.9841 85.4266C75.1997 86.0117 73.8399 86.5486 72.0686 86.9986C71.6829 87.0983 71.2585 87.198 70.8342 87.2848C71.7825 86.3107 73.3031 85.1149 72.4929 83.7808C71.4835 82.7843 69.5387 83.9801 68.9407 84.1183C68.3428 84.2566 67.1823 84.0572 67.1823 83.4207C67.1823 82.9096 69.1015 82.3856 69.7251 81.2123C70.847 81.4244 71.8082 81.6366 72.6311 81.8745C74.6274 82.4242 75.7494 83.0221 76.2605 83.4947C76.3859 83.6072 76.4855 83.7197 76.5466 83.8065C76.6077 83.9062 76.6591 83.9801 76.6977 84.0444C76.7363 84.1055 76.7588 84.1569 76.7845 84.1955C76.8102 84.2341 76.8359 84.2469 76.8584 84.2469C76.8841 84.2469 76.9099 84.2341 76.9195 84.1955C76.9452 84.1569 76.9581 84.0959 76.971 84.0091C76.9838 83.9223 76.9581 83.7969 76.9195 83.649C76.8938 83.4593 76.8172 83.2853 76.695 83.1117ZM58.7028 69.17C59.14 68.7972 59.2879 68.7586 59.365 68.8197C59.4389 68.8807 59.4036 69.0447 59.066 69.5044C58.7156 69.9544 58.0438 70.726 56.7354 71.8993C56.0732 72.4844 55.3403 73.0823 54.5784 73.6321C53.8165 74.1818 53.045 74.6929 52.3475 75.1044C50.9523 75.9402 49.8529 76.4127 49.8175 76.3388C49.7661 76.252 50.7787 75.6284 52.0871 74.7058C52.7493 74.2429 53.4726 73.7093 54.2055 73.1338C54.9288 72.5616 55.6521 71.9604 56.3015 71.3882C57.5552 70.2438 58.2655 69.5461 58.7028 69.17ZM45.0985 53.91C44.9249 53.7589 44.7739 53.6721 44.6131 53.5982C44.4524 53.5114 44.3013 53.4375 44.1406 53.3732C43.8287 53.2349 43.5041 53.1224 43.1794 53.0131C41.8839 52.5759 40.524 52.2416 39.116 51.978C38.4056 51.8526 37.6951 51.7401 36.9461 51.6791C36.5733 51.6405 36.1971 51.6276 35.8242 51.6276C35.4385 51.6276 35.0527 51.6405 34.6509 51.6887C33.8793 51.7884 33.1303 51.9748 32.3941 52.1741C31.658 52.3606 30.9347 52.5727 30.2243 52.6724C29.5138 52.7849 28.8163 52.772 28.1797 52.5599C27.8679 52.4474 27.5689 52.2866 27.2957 52.0873C27.1575 51.9748 27.0096 51.8494 26.8585 51.7369L26.6463 51.5633L26.447 51.364C25.8973 50.8657 25.4248 50.2678 25.0261 49.6313C24.6146 48.9948 24.29 48.2972 24.0424 47.5611C23.9042 47.201 23.8046 46.8249 23.7049 46.452L23.5795 45.8798C23.5281 45.6933 23.5185 45.494 23.4799 45.2947C23.3545 44.5103 23.2934 43.7227 23.2934 42.9126C23.2806 42.1154 23.3192 41.3053 23.406 40.4952C23.4927 39.6851 23.6181 38.875 23.766 38.0778C23.9267 37.2677 24.1164 36.4705 24.3382 35.6828C24.5632 34.8856 24.8236 34.098 25.1226 33.3393C25.2737 32.9536 25.4344 32.5774 25.608 32.2302C25.6466 32.1434 25.6948 32.0566 25.7462 31.957L25.8973 31.6837L26.1963 31.134C26.6077 30.4107 27.0321 29.7003 27.4918 29.0156C27.9418 28.318 28.44 27.6558 28.9512 27.0096C29.4752 26.3731 30.0121 25.7495 30.5843 25.1644C31.1565 24.5922 31.7672 24.0425 32.4037 23.5442C33.0402 23.0459 33.7121 22.6087 34.4097 22.2229C35.1073 21.85 35.8306 21.5382 36.5795 21.3131C37.3286 21.101 38.0872 20.9756 38.8363 20.9885C39.0227 21.0013 39.2091 21.0013 39.386 21.027C39.4728 21.0399 39.5724 21.0399 39.6592 21.0656L39.9325 21.1171L40.0707 21.1428L40.1961 21.1813L40.4564 21.2553L40.7072 21.3421L40.8326 21.3935C40.8711 21.4064 40.9065 21.4321 40.9579 21.4546L41.1958 21.5671L41.4337 21.7053L41.5462 21.7664C41.5848 21.7921 41.6201 21.8179 41.6587 21.8404L41.8709 21.9914C42.022 22.1168 42.1698 22.2293 42.3081 22.3515C42.4463 22.4768 42.5942 22.6022 42.7324 22.7372C43.8157 23.8109 44.7287 25.0808 45.4745 26.4019C45.7606 26.9131 46.0242 27.4242 46.246 27.9353C46.2974 28.0607 46.3585 28.1957 46.4067 28.3211C46.4678 28.4593 46.5321 28.6072 46.5932 28.7454C46.6543 28.8965 46.7314 29.0187 46.8054 29.1569C46.8793 29.2951 46.9436 29.4302 47.0175 29.5555C47.6154 30.6035 48.313 31.5261 49.0235 32.3748C50.4572 34.0721 51.9552 35.5059 53.4115 36.8014C54.8709 38.0969 56.3046 39.2446 57.6645 40.2797C59.0114 41.302 60.2941 42.2246 61.5189 43.0604C61.5317 43.1986 61.5574 43.3111 61.5799 43.3979L61.6667 43.6969C61.6925 43.7837 61.7053 43.8576 61.7278 43.9701C61.8146 44.3687 61.8789 44.7545 61.9143 45.1531C62.0139 45.9375 62.0139 46.7251 61.9143 47.4837C61.6539 47.3583 61.2424 47.1976 60.6542 46.9212C60.5674 46.8826 60.4806 46.8472 60.3938 46.7958C60.307 46.7443 60.2073 46.709 60.1077 46.6575C59.9084 46.5579 59.6833 46.4454 59.4454 46.32C58.9729 46.0693 58.436 45.7574 57.8381 45.3717C57.2273 44.986 56.5523 44.5231 55.7936 43.9766C55.6939 43.9026 55.6071 43.8383 55.5075 43.7644C55.4078 43.6905 55.321 43.6133 55.2214 43.5394C55.0221 43.3883 54.8227 43.2404 54.6234 43.0765C54.4241 42.9157 54.212 42.7518 53.9998 42.5653C53.7876 42.3917 53.5755 42.2053 53.3504 42.0156C51.6049 40.4822 49.8593 38.6113 48.252 36.6664C46.6447 34.7215 45.1852 32.7124 43.9251 30.9058C42.7292 29.1859 41.7294 27.6654 40.9579 26.5531C40.8197 26.267 40.6847 26.0162 40.5593 25.7912C40.3728 25.4794 40.2089 25.2286 40.061 25.0422C39.9871 24.9425 39.9228 24.8686 39.8617 24.7914L39.6881 24.6178C39.4759 24.4314 39.3634 24.4057 39.2766 24.4571C39.2027 24.5085 39.1641 24.6307 39.2252 24.8943C39.2381 24.9554 39.2638 25.0325 39.2863 25.1193C39.312 25.2061 39.3377 25.3058 39.3859 25.4054C39.4599 25.6176 39.5595 25.878 39.6849 26.2027C39.9228 26.852 40.2346 27.7361 40.5078 28.9962C40.7329 30.0924 40.9193 31.4779 40.8325 33.1978C40.7714 33.1592 40.7072 33.1238 40.6332 33.0981C40.4468 33.0113 40.2346 32.9117 39.9839 32.8377C39.746 32.7509 39.4727 32.6866 39.1866 32.6256C38.6144 32.5002 37.9394 32.4134 37.1421 32.4005C36.3577 32.4005 35.4447 32.4745 34.4611 32.7734C33.9628 32.9245 33.4516 33.1335 32.9405 33.4357C32.4294 33.7475 31.9182 34.159 31.5067 34.7087C31.1949 35.133 30.9699 35.6185 30.8349 36.1296C30.6838 36.6664 30.6838 37.2258 30.7738 37.7498C30.8477 38.2867 31.0245 38.7849 31.2367 39.2575C31.4489 39.73 31.6996 40.1929 31.9857 40.6172C32.5579 41.4788 33.2458 42.2503 33.9917 42.9254C34.6153 43.4751 35.2872 43.9733 36.0234 44.3463C35.7116 44.6967 35.3997 45.031 35.0879 45.3428C33.6928 46.7283 32.3073 47.7506 31.2978 48.4353C30.2884 49.12 29.6519 49.4962 29.6905 49.5829C29.7291 49.6568 30.4395 49.4575 31.5614 48.8982C32.6833 48.3356 34.2038 47.413 35.7372 46.0564C37.2835 44.7095 38.8297 42.9029 39.9903 40.8069C40.7521 39.4471 41.3372 37.9652 41.7101 36.48C41.8483 36.0557 41.948 35.6827 42.009 35.3838C42.0701 35.0977 42.1087 34.8727 42.1215 34.7216C42.1473 34.548 42.1344 34.4708 42.1087 34.4837C42.1473 34.4708 42.1601 34.4451 42.1344 34.3712C42.1215 34.3583 42.1215 34.3326 42.1087 34.3101V34.2973C42.1215 34.2362 42.1215 34.159 42.1344 34.0979C42.3209 32.2013 42.1601 30.6326 41.8837 29.3724C42.2566 30.0217 42.668 30.7065 43.1052 31.4298C44.2658 33.3136 45.6738 35.4192 47.2586 37.4508C48.8435 39.4824 50.6115 41.4273 52.4343 43.0379C53.344 43.8352 54.2184 44.4974 55.0028 45.0567C55.7871 45.6064 56.5104 46.0662 57.1727 46.4422C57.8349 46.8151 58.4199 47.1045 58.9439 47.3263C59.2043 47.4259 59.455 47.5384 59.6801 47.6124C59.7926 47.6509 59.9051 47.6863 60.0047 47.7249C60.1172 47.7506 60.2169 47.786 60.3166 47.8117C61.027 47.9981 61.4996 48.0496 61.8114 48.0367C61.551 49.345 61.0141 50.557 60.3519 51.6147C59.9662 52.2255 59.5547 52.788 59.1175 53.2992C58.8925 53.5499 58.6803 53.7974 58.4553 54.0225C58.2303 54.2475 57.9924 54.4597 57.7706 54.659C57.3077 55.0704 56.8608 55.4433 56.4493 55.8195C56.0378 56.1924 55.6778 56.5685 55.3756 56.9286L55.3628 56.9415C55.3628 56.9543 55.3499 56.9543 55.3499 56.9672C55.1634 57.0283 54.9513 57.1183 54.7648 57.2179C54.3276 57.4558 53.9033 57.7901 53.4918 58.192C52.7942 58.8767 52.1449 59.7382 51.5083 60.7476C50.7979 60.3619 50.0135 59.9504 49.152 59.5004C48.8658 59.3493 48.5669 59.2014 48.2679 59.0375C48.1168 58.9635 47.9561 58.8767 47.805 58.7996L47.6925 58.7385C47.6539 58.7128 47.6186 58.6999 47.5543 58.6774C47.4546 58.626 47.3421 58.5906 47.2425 58.5392C46.8053 58.3881 46.3198 58.3142 45.8473 58.3785C45.7476 58.3913 45.648 58.4042 45.5355 58.4299C45.5869 58.2049 45.648 57.9798 45.6962 57.7452C45.7573 57.4462 45.8344 57.1473 45.8827 56.8354C45.9437 56.5236 45.9952 56.2118 46.008 55.8517C46.008 55.7649 46.008 55.6653 45.9952 55.5528C45.9823 55.4531 45.9566 55.3663 45.9341 55.2667C45.8826 55.0802 45.8087 54.9066 45.7219 54.7427C45.6351 54.5819 45.5355 54.4308 45.423 54.2798C45.3715 54.2058 45.3104 54.1415 45.2494 54.0676C45.2461 54.0451 45.1982 53.9968 45.0985 53.91ZM41.5688 63.2226C41.556 63.2097 41.5431 63.2097 41.5688 63.2226ZM39.4632 66.5658C39.4503 66.5401 39.4375 66.5401 39.4632 66.5658ZM41.6685 73.5834C41.6685 73.5577 41.6556 73.5448 41.6428 73.5448C41.5688 73.5062 41.392 73.7313 41.0062 73.8438C40.8198 73.9049 40.5691 73.9177 40.2829 73.8952C40.1319 73.8824 39.984 73.8566 39.8104 73.8341C39.6239 73.7956 39.4375 73.7731 39.2382 73.7473C38.8396 73.6959 38.4024 73.6605 37.9652 73.6091C37.8912 73.5962 37.8141 73.5962 37.7401 73.5834L37.7144 73.4837C37.6887 73.3712 37.6533 73.2716 37.6276 73.1591C37.528 72.7219 37.454 72.2622 37.4412 71.8378C37.4412 71.6256 37.454 71.4263 37.4926 71.2656C37.5055 71.2142 37.5183 71.1788 37.5312 71.1402L37.6308 71.0791C37.6437 71.0663 37.6823 71.0534 37.7562 71.0534C38.0166 71.1049 38.2673 71.1531 38.5181 71.2045C38.981 71.3042 39.3667 71.4167 39.6786 71.5549C39.9904 71.6803 40.2508 71.8282 40.4501 71.9792L40.5241 72.0307C40.5851 72.0821 40.6623 72.1046 40.7362 72.1175C40.9355 72.3039 41.0609 72.4775 41.1606 72.6415C41.2859 72.8408 41.3341 72.9919 41.3856 73.114C41.4724 73.3519 41.5367 73.4741 41.6588 73.5384C41.6717 73.5384 41.6845 73.5512 41.6974 73.5512C41.6813 73.5737 41.6685 73.5737 41.6685 73.5834ZM42.1314 71.1402C42.006 71.2013 41.8453 71.2527 41.6588 71.2784H41.6074C41.5463 71.2045 41.4692 71.1177 41.3952 71.0405C41.3213 70.9666 41.2345 70.9152 41.122 70.8895C40.8616 70.6773 40.5594 70.478 40.1994 70.3173C39.7879 70.1179 39.3025 69.9797 38.7914 69.8672C38.5053 69.8158 38.2192 69.7547 37.917 69.7065C37.8784 69.6936 37.8302 69.6936 37.7916 69.6936C37.6534 69.6936 37.4927 69.7065 37.3287 69.7547C37.303 69.7676 37.2773 69.7676 37.2548 69.7804C37.2805 69.7193 37.3158 69.655 37.3544 69.5811C37.4284 69.4204 37.5055 69.2821 37.5795 69.1568C37.6534 69.0314 37.7305 68.9317 37.8173 68.8578C37.917 68.7582 38.0295 68.6714 38.142 68.5974C38.2545 68.5235 38.3799 68.4463 38.4796 68.411C38.5535 68.3724 38.6306 68.3595 38.6789 68.3499C38.8042 68.3756 38.9296 68.4013 39.0518 68.4238C39.6015 68.5235 40.0483 68.636 40.4244 68.7742C40.7974 68.9125 41.0867 69.0732 41.3213 69.2371C41.7842 69.5747 42.006 69.909 42.1443 70.1598C42.2825 70.4105 42.3179 70.5712 42.3693 70.6966C42.4207 70.822 42.4818 70.8959 42.5686 70.9345C42.5043 70.8798 42.3789 71.0277 42.1314 71.1402ZM44.0634 67.9127C43.8127 67.9641 43.5009 67.9384 43.1151 67.8741C42.7294 67.813 42.2922 67.7133 41.8421 67.588C41.392 67.4626 40.9195 67.289 40.447 67.0768C40.2091 66.9772 39.9744 66.8518 39.7365 66.7264L39.5629 66.6268C39.5372 66.6139 39.5115 66.6011 39.5018 66.5882C39.5147 66.5625 39.5147 66.5271 39.5404 66.4886C39.5533 66.45 39.579 66.3889 39.6144 66.3375L39.7012 66.151C39.8265 65.9003 39.9519 65.701 40.0741 65.566C40.2123 65.4149 40.3987 65.267 40.5852 65.1545C40.7363 65.0677 40.8841 65.0034 40.9709 64.9938C41.1092 65.0195 41.257 65.0548 41.3953 65.0806C42.4914 65.267 43.1665 65.5531 43.6262 65.8907C44.0891 66.2282 44.2981 66.5625 44.4363 66.8133C44.5617 67.064 44.6099 67.2247 44.6613 67.3373C44.7128 67.4626 44.7739 67.5366 44.8606 67.5751C44.7867 67.5237 44.5746 67.8226 44.0634 67.9127ZM44.7482 64.4955C44.3881 64.4087 43.9863 64.3091 43.5748 64.1708C43.1633 64.0326 42.7262 63.859 42.2889 63.634C42.0768 63.5215 41.8646 63.409 41.6396 63.2836C41.6267 63.2707 41.6138 63.2707 41.601 63.2579V63.245C41.6138 63.2064 41.6396 63.1196 41.6878 63.02L41.8614 62.6728C41.9739 62.4606 42.0993 62.287 42.2214 62.1617C42.3725 62.0106 42.5461 61.8756 42.7197 61.7888C42.8065 61.7373 42.8933 61.702 42.9704 61.6763C42.9962 61.6634 43.0219 61.6634 43.0444 61.6505V61.7502V61.7759C43.0444 61.8627 43.0572 61.9366 43.0701 62.0138C43.0701 62.0395 43.0829 62.0652 43.0829 62.0877C43.0958 62.1392 43.1087 62.1874 43.1087 62.226C43.1826 62.5764 43.308 62.8978 43.4944 63.2C43.7066 63.5504 44.0056 63.8622 44.3431 64.1098C44.3816 64.1355 44.4299 64.1709 44.4684 64.1966L44.5938 64.2705L44.806 64.3959L45.031 64.5341C44.9603 64.5309 44.8607 64.5212 44.7482 64.4955ZM49.2133 73.4484C49.088 73.5867 48.9626 73.7345 48.8404 73.8856C48.7794 73.847 48.7279 73.7988 48.6797 73.7249C48.6283 73.6638 48.6058 73.5995 48.5801 73.5256C48.5929 73.4999 48.6058 73.4741 48.6186 73.4388C48.6572 73.3263 48.6797 73.2009 48.7054 73.0884C48.7183 73.0273 48.744 72.9759 48.7665 72.9148C48.8179 72.7766 48.8533 72.664 48.8662 72.5644C48.9272 72.4133 48.9915 72.2783 49.0526 72.1272C49.2133 71.8893 49.4126 71.6546 49.5894 71.3557C49.7888 71.0438 49.9495 70.7063 50.062 70.3592C50.2999 69.6487 50.361 68.8868 50.2485 68.141C50.1231 67.392 49.8113 66.6687 49.313 66.058C49.0623 65.7462 48.7762 65.4954 48.4901 65.2736C48.2039 65.0486 47.9403 64.8621 47.6543 64.6628C47.3681 64.4764 47.0917 64.2771 46.8056 64.0906C46.5195 63.917 46.2334 63.7306 45.957 63.5538L45.5327 63.2934L45.3205 63.1552L45.2337 63.1037L45.1598 63.0523C44.9605 62.9141 44.7997 62.7276 44.6872 62.5283C44.5618 62.329 44.4879 62.104 44.4493 61.8789V61.8404C44.4493 61.8146 44.4365 61.7793 44.4365 61.7536C44.4236 61.5928 44.4236 61.416 44.4622 61.2424V61.2167V61.2039V61.1653C44.5136 60.9403 44.6133 60.7281 44.7354 60.5416C44.774 60.4902 44.7965 60.4548 44.8351 60.4034C44.8865 60.352 44.909 60.3166 44.9605 60.278C45.0344 60.2041 45.1212 60.127 45.2208 60.0659C45.4587 59.9051 45.7448 59.8055 46.0181 59.7798C46.2913 59.7541 46.5678 59.7798 46.8153 59.8666C46.8764 59.8923 46.9407 59.918 46.9889 59.9405C47.0146 59.9534 47.05 59.9791 47.1014 59.9919L47.2139 60.053C47.3747 60.127 47.5258 60.2137 47.6768 60.2909C47.9758 60.442 48.2748 60.5899 48.5609 60.741C49.7085 61.3132 50.7179 61.8243 51.6148 62.2744C52.052 62.4994 52.4634 62.7116 52.8364 62.9109C53.0228 63.0105 53.2093 63.1102 53.3475 63.197C53.3861 63.2227 53.3989 63.2227 53.4343 63.2581C53.4729 63.2838 53.4954 63.3095 53.5339 63.332C53.595 63.3834 53.6593 63.4316 53.7204 63.4927C53.9583 63.7178 54.1576 63.9556 54.344 64.2032C54.4437 64.3285 54.5305 64.441 54.6173 64.5536C54.7169 64.6789 54.8037 64.8043 54.9034 64.904C55.1027 65.129 55.302 65.3026 55.4756 65.4408C55.662 65.5919 55.826 65.6915 55.9481 65.7912C56.2214 65.9776 56.4111 66.1287 56.5589 66.2413C56.5718 66.2541 56.5846 66.2541 56.5975 66.267C53.9133 67.6107 50.7211 70.941 49.2133 73.4484ZM48.0143 88.1362C46.3812 87.9851 44.7225 87.7761 43.0637 87.4997C41.405 87.2135 39.7333 86.8632 38.1517 86.3263C37.3673 86.0659 36.5797 85.7541 35.9078 85.3522C35.5703 85.1529 35.2713 84.9151 35.072 84.6804C34.9724 84.555 34.9113 84.4425 34.8856 84.3428C34.8727 84.2914 34.8599 84.2432 34.8599 84.2046C34.8727 84.1532 34.8599 84.1178 34.8856 84.0664C34.9242 83.8799 35.1588 83.6163 35.4353 83.3945C35.7214 83.1695 36.0589 82.9702 36.419 82.7966C37.1423 82.4462 37.9266 82.1729 38.7271 81.935C40.3216 81.4721 41.9803 81.1507 43.6134 80.8999C45.2464 80.6492 46.8795 80.4756 48.4643 80.3502C49.0494 80.2988 49.6248 80.2634 50.1841 80.2377C51.3575 82.8577 53.3152 85.7734 55.0221 88.5059C52.7526 88.4738 50.4092 88.3612 48.0143 88.1362ZM61.1717 70.2303C61.0109 70.5679 60.7602 71.0404 60.4098 71.5387C60.0722 72.0498 59.6383 72.5866 59.1497 73.1107C58.6643 73.6218 58.1274 74.1072 57.6034 74.5058C57.0794 74.9045 56.6422 75.1906 56.2822 75.3899C56.1086 75.4895 55.9446 75.5763 55.8096 75.6406C55.6714 75.7017 55.5492 75.7531 55.4496 75.7917C55.0381 75.9299 54.9127 75.9042 54.8774 75.8174C54.8388 75.7306 54.8902 75.6052 55.2278 75.3673C55.5653 75.107 56.189 74.7437 57.1983 73.9722C57.6966 73.5864 58.2206 73.1364 58.7189 72.6639C59.2043 72.1913 59.6544 71.7026 60.0402 71.2429C60.4259 70.7929 60.7249 70.3814 60.9628 70.0953C61.1878 69.7964 61.3357 69.6324 61.3742 69.6581C61.3935 69.6678 61.3195 69.8799 61.1717 70.2303Z"
        fill="white" />
    <path
        d="M89.1867 14.9549C89.0999 14.7042 88.9263 14.4181 88.5888 14.2059C88.5502 14.1802 88.502 14.1545 88.4506 14.132C88.3991 14.1063 88.3509 14.0934 88.2995 14.0709C88.248 14.0581 88.1998 14.0452 88.1387 14.0323C88.1002 14.0195 88.0519 14.0195 88.0134 14.0066C87.8398 13.968 87.663 13.9327 87.4637 13.8941C86.6922 13.743 85.7181 13.5694 84.5319 13.3573C82.1369 12.9458 78.8323 12.396 74.2837 11.7628C72.0013 11.4381 69.4198 11.0909 66.4528 10.7791C65.7166 10.7052 64.9451 10.628 64.1575 10.5669C63.3731 10.5059 62.5502 10.4416 61.6886 10.4287H61.0264C60.8014 10.4416 60.5635 10.4544 60.2774 10.5026C60.2034 10.5155 60.1263 10.5412 60.0266 10.5637L59.9527 10.5894C59.927 10.6023 59.8916 10.6152 59.8659 10.6409C59.8273 10.6537 59.7919 10.6923 59.7534 10.702C59.7148 10.7277 59.6666 10.7759 59.6151 10.8145C59.5894 10.8402 59.5637 10.8755 59.5412 10.9141C59.5155 10.9527 59.5026 10.9752 59.5026 10.9752L59.4866 11.0395L59.4351 11.152C59.4223 11.1906 59.3965 11.2388 59.3837 11.2645L59.3612 11.3642L59.3001 11.5506C59.2744 11.6117 59.2615 11.6631 59.2487 11.7242C59.2229 11.8367 59.1876 11.9621 59.1619 12.0618C58.9626 12.9586 58.8243 13.8588 58.6893 14.7814C58.2907 17.6231 57.9917 20.5677 57.741 23.5738C57.6157 25.0815 57.516 26.5924 57.4549 28.1386C57.4421 28.5244 57.4292 28.9102 57.4292 29.2992C57.4292 29.6849 57.4292 30.0836 57.4678 30.5079L57.4935 30.6815L57.4903 30.7683V30.8069L57.5031 30.868C57.5289 30.9419 57.5417 31.0287 57.5642 31.1059C57.5899 31.1573 57.6157 31.2055 57.6382 31.2569C57.651 31.2827 57.6639 31.2955 57.6767 31.3084L57.7153 31.3598C57.7667 31.4209 57.8021 31.4466 57.8535 31.4852C58.0046 31.6105 58.1139 31.6588 58.2264 31.7231C58.3389 31.7745 58.4386 31.8227 58.5383 31.8613C58.7119 31.9224 58.8758 31.9867 59.0365 32.0349C59.0365 32.0477 59.0237 32.0606 59.0237 32.0863C58.9369 32.3114 58.8501 32.5364 58.7504 32.7582C58.5511 33.2211 58.3389 33.6936 58.1782 34.2176C58.0914 34.478 58.0175 34.7545 57.9661 35.0277L57.8921 35.4135C57.8793 35.4874 57.8664 35.5871 57.8664 35.6996C57.8664 35.8121 57.8664 35.96 57.9403 36.1368C57.9789 36.2236 58.04 36.3232 58.1139 36.41C58.1525 36.4486 58.2007 36.484 58.2393 36.5225L58.2779 36.5483L58.2907 36.5611L58.3164 36.574C58.3904 36.6125 58.4675 36.6608 58.5415 36.6993C58.6154 36.7379 58.7022 36.7733 58.7794 36.799C58.8662 36.8247 58.9401 36.8504 59.0301 36.8729C59.3805 36.9469 59.7148 36.934 60.0266 36.8729C60.6503 36.7476 61.1486 36.4743 61.6115 36.1753C62.0615 35.8764 62.473 35.5517 62.8587 35.2141C63.5563 34.6033 64.18 33.954 64.8165 33.3561C69.9535 34.3173 74.9429 35.063 79.5432 35.7253C80.7166 35.886 81.861 36.05 82.9861 36.1882C83.2722 36.2268 83.5358 36.2621 83.8477 36.2878C83.9087 36.2878 83.973 36.3007 84.0341 36.3007H84.1113C84.0727 36.3007 84.1498 36.3264 84.362 36.1882C84.4134 36.1367 84.4231 36.1142 84.4488 36.0885L84.4745 36.05L84.5002 35.9985C84.5388 35.8989 84.5613 35.8378 84.587 35.7606C84.6385 35.6224 84.6738 35.4874 84.7124 35.3492C84.8635 34.8123 84.9985 34.2883 85.1239 33.7643C85.6479 31.6941 86.1076 29.7492 86.5319 27.965C87.3677 24.4 88.0267 21.4811 88.4639 19.4491C88.6632 18.398 88.8272 17.6007 88.9268 17.051C89.0265 16.5012 89.0651 16.2152 89.0393 16.2152C89.0008 16.2023 88.9011 16.4756 88.7532 17.0124C88.5925 17.5364 88.3675 18.3207 88.091 19.3205C87.5413 21.3265 86.7698 24.2197 85.8343 27.7624C85.3618 29.5336 84.8603 31.4657 84.2881 33.5102C84.1498 34.0214 84.002 34.5453 83.838 35.0565C83.8123 35.1433 83.7769 35.2429 83.7512 35.3297C83.5519 35.304 83.3269 35.2686 83.1147 35.2429C82.0056 35.0822 80.858 34.9054 79.6846 34.7189C75.0073 33.9699 69.9343 33.1341 64.7332 32.099C64.5596 32.0604 64.3603 32.1118 64.2092 32.2501C63.4602 32.9348 62.7883 33.6356 62.0522 34.256C61.6921 34.5678 61.316 34.8539 60.9303 35.1046C60.5445 35.3425 60.1459 35.5418 59.7826 35.6158C59.5962 35.6543 59.4322 35.6543 59.2844 35.6158C59.2458 35.6029 59.2104 35.5901 59.1719 35.5901C59.159 35.5901 59.1461 35.5772 59.1333 35.5772L59.1944 35.2782C59.2329 35.0661 59.294 34.8539 59.368 34.6289C59.519 34.1917 59.7055 33.7545 59.9177 33.2948C60.0173 33.0569 60.1298 32.8222 60.2166 32.5715C60.2681 32.4461 60.3163 32.3207 60.3549 32.1986L60.4159 32.0121L60.477 31.7871C60.5767 31.4496 60.3774 31.1024 60.0527 31.0027L60.027 30.9899C59.6766 30.8902 59.3165 30.7777 59.0047 30.6523C58.9308 30.6138 58.8536 30.5913 58.7925 30.5527C58.7797 30.5527 58.7797 30.5398 58.7668 30.5398V30.5141L58.754 30.4016C58.7282 30.064 58.7282 29.6912 58.7282 29.3183C58.7282 28.9454 58.7411 28.5692 58.7668 28.1963C58.8279 26.6887 58.9404 25.1906 59.0658 23.6958C59.3262 20.7158 59.6283 17.784 60.027 14.9807C60.1652 14.0709 60.3002 13.1837 60.477 12.3736C60.5028 12.2739 60.5285 12.1743 60.551 12.0746C60.5638 12.0232 60.5767 11.9749 60.5896 11.9364L60.6281 11.8239C60.7535 11.7981 60.9142 11.7981 61.0653 11.7853C61.2646 11.7724 61.4511 11.7724 61.6504 11.7724C62.4476 11.7853 63.2449 11.8335 64.0196 11.8978C64.7911 11.9589 65.553 12.0232 66.2763 12.0971C69.2081 12.3961 71.7991 12.7207 74.0687 12.994C78.6206 13.5662 81.9382 14.0034 84.3424 14.3023C85.5383 14.4534 86.5251 14.5627 87.3096 14.6398C87.5089 14.6655 87.6953 14.6784 87.8593 14.6913C87.8979 14.6913 87.9461 14.7041 87.9847 14.7041C88.0104 14.7041 88.0361 14.717 88.0715 14.717C88.0972 14.7298 88.1229 14.7298 88.1454 14.7427C88.1711 14.7556 88.1968 14.7684 88.2193 14.7684C88.4186 14.8552 88.5569 15.0063 88.6437 15.167C88.8301 15.4917 88.8558 15.7778 88.8815 15.9386C88.9073 16.1121 88.933 16.1893 88.9812 16.1989C89.0198 16.2118 89.0937 16.1475 89.1548 15.9611C89.1677 15.9096 89.1934 15.8614 89.2062 15.7875C89.2191 15.7264 89.2319 15.6492 89.2319 15.5624C89.2866 15.4178 89.2735 15.2057 89.1867 14.9549Z"
        fill="white" />
    <path
        d="M68.0158 25.2549C68.1283 25.3288 68.2408 25.3546 68.3276 25.3674C68.4144 25.3803 68.4883 25.3803 68.5655 25.3803H68.6652H68.7391C68.8387 25.3803 68.9384 25.3674 69.0381 25.3674C69.2374 25.3546 69.4238 25.3417 69.6103 25.3288C69.9832 25.3031 70.3464 25.2774 70.684 25.2678C71.3687 25.2163 71.9698 25.181 72.4681 25.1295C73.4646 25.0299 74.0626 24.9045 74.053 24.8177C74.053 24.9174 74.1269 24.9913 74.3777 25.0427C74.503 25.0556 74.6766 25.0556 74.9016 24.9913C74.9274 24.9784 74.9627 24.9784 74.9884 24.9656C75.0142 24.9527 75.0495 24.9399 75.0752 24.927C75.1363 24.9013 75.2006 24.8756 75.2617 24.8402C75.3871 24.7663 75.5221 24.6795 75.6603 24.5412C75.9207 24.2905 76.1843 23.9047 76.284 23.3807C76.3225 23.1203 76.345 22.8182 76.284 22.5063C76.2229 22.1945 76.0975 21.857 75.8725 21.5709C75.8468 21.5323 75.821 21.4969 75.7857 21.4584L75.7246 21.3716C75.6732 21.3201 75.6378 21.2591 75.5864 21.2108C75.4867 21.0983 75.3999 20.9858 75.2874 20.8604C75.0881 20.6226 74.8631 20.375 74.6252 20.1114C74.1526 19.5874 73.6157 19.0152 73.0179 18.3787C72.7189 18.0669 72.4071 17.7422 72.0953 17.4046L71.9827 17.2793L71.8477 17.1443C71.7095 17.006 71.5488 16.8935 71.3623 16.8067C71.1759 16.7199 70.9766 16.6814 70.7772 16.6685C70.5779 16.6556 70.3786 16.6942 70.1922 16.7553C69.8193 16.8807 69.4817 17.1539 69.2953 17.5043L69.2342 17.6425C69.2085 17.6811 69.2085 17.7036 69.1957 17.7293L69.1217 17.8901C69.0703 18.0026 69.0349 18.1151 68.9835 18.2276C68.8099 18.6777 68.646 19.1374 68.5109 19.6003C68.2248 20.5229 68.0127 21.4584 67.8744 22.3681C67.8005 22.831 67.7491 23.2779 67.7137 23.7151C67.688 23.9401 67.6751 24.1523 67.6623 24.3644C67.6623 24.4159 67.6494 24.4769 67.6494 24.5637C67.6494 24.6505 67.6623 24.7759 67.7234 24.9141C67.778 25.0684 67.8904 25.1938 68.0158 25.2549Z"
        fill="white" />
    <path
        d="M81.8543 30.9796C81.581 30.941 81.2563 30.8928 80.8577 30.8414C80.472 30.79 80.0091 30.7417 79.498 30.6903C78.45 30.5778 77.1288 30.4299 75.4443 30.2177C73.9977 30.0442 72.4386 29.8191 70.9052 29.5812C70.9791 28.7069 70.9309 27.9097 70.6802 27.8485C70.4198 27.7874 70.0083 28.5332 69.6965 29.3819C68.0634 29.1087 66.4786 28.8097 65.0577 28.5333C61.9653 27.9225 59.7214 27.3857 59.6829 27.5239C59.6443 27.6492 61.8271 28.4465 64.8938 29.2437C66.2665 29.6037 67.8128 29.967 69.4201 30.2788C69.4072 30.3302 69.3943 30.3784 69.3815 30.4299C69.1211 31.5904 69.3815 31.8379 69.7415 31.9247C70.1144 32.0115 70.452 31.899 70.7156 30.7417C70.7284 30.6806 70.7413 30.6034 70.7541 30.5424C72.3004 30.8285 73.8595 31.0664 75.3061 31.24C77.0034 31.4521 78.3471 31.5775 79.408 31.6257C79.932 31.6643 80.3917 31.6771 80.7935 31.6868C81.1921 31.6997 81.5168 31.6997 81.803 31.6997C82.9249 31.6739 83.1885 31.5486 83.1981 31.4135C83.2142 31.2785 82.9537 31.1275 81.8543 30.9796Z"
        fill="white" />
    <path
        d="M18.2015 28.3212C22.6281 28.6459 26.4821 25.3027 26.8038 20.8761C27.1285 16.4495 23.7852 12.5955 19.3587 12.2737C14.9321 11.9491 11.0781 15.2923 10.7563 19.7189C10.4349 24.1455 13.762 28.0093 18.2015 28.3212ZM23.0267 22.7245C23.0267 23.3224 22.8274 23.8207 22.4159 24.2322C22.0045 24.6436 21.4933 24.8429 20.8569 24.8429C20.2943 24.8429 19.8217 24.6822 19.4489 24.3575C19.0374 24.0071 18.8381 23.5732 18.8381 23.0234C18.8381 22.4512 19.0117 21.9626 19.3621 21.5769C19.735 21.1654 20.2236 20.9532 20.8472 20.9532C21.397 20.9532 21.8824 21.1043 22.3067 21.4033C22.7792 21.7376 23.0267 22.1748 23.0267 22.7245ZM19.2013 17.0635C19.5614 16.2019 19.9375 15.7776 20.3232 15.7776C20.5097 15.7776 20.6736 15.8387 20.8215 15.9641C20.9597 16.0894 21.0337 16.2502 21.0337 16.427C21.0337 16.5524 20.9822 16.6777 20.8955 16.8127C20.7572 17.0249 20.6222 17.3014 20.4583 17.6485C20.2332 18.1468 20.1079 18.4329 20.0725 18.5101C19.8218 19.0084 19.4489 19.7574 18.9763 20.7668C18.9635 20.8054 18.5391 21.6412 17.7162 23.2871C17.5908 23.5603 17.4044 23.9718 17.144 24.5087C16.9929 24.7691 16.7936 24.9073 16.5204 24.9073C16.3468 24.9073 16.1828 24.8462 16.035 24.7209C15.8839 24.5955 15.8228 24.4476 15.8228 24.2579C15.8228 24.0586 16.1089 23.3964 16.6714 22.2745L17.6937 20.2557C18.0409 19.5452 18.552 18.4844 19.2013 17.0635ZM15.0609 16.067C15.4723 15.7294 15.8838 15.5558 16.3081 15.5558C16.9189 15.5558 17.4043 15.7552 17.7676 16.1409C18.1051 16.5138 18.2787 16.9767 18.2787 17.5489C18.2787 18.06 18.0665 18.4587 17.6293 18.7705C17.2436 19.0566 16.7935 19.1948 16.2824 19.1948C15.6973 19.1948 15.2215 18.9955 14.8872 18.5969C14.5754 18.2369 14.4147 17.774 14.4147 17.2242C14.4115 16.8127 14.6237 16.427 15.0609 16.067Z"
        fill="white" />
</svg>