<svg xmlns="http://www.w3.org/2000/svg" width="99" height="88" viewBox="0 0 99 88" fill="none">
    <path
        d="M16.5878 71.1976L16.1981 70.8844L16.5878 71.1976ZM4.25742 57.3998L3.98862 56.9782L4.25742 57.3998ZM97.9633 82.7194C98.2062 82.8509 98.2965 83.1543 98.165 83.3972L96.0229 87.3546C95.8914 87.5975 95.588 87.6878 95.3452 87.5563C95.1023 87.4249 95.012 87.1214 95.1435 86.8786L97.0476 83.3609L93.5299 81.4567C93.287 81.3253 93.1967 81.0219 93.3282 80.779C93.4596 80.5362 93.763 80.4459 94.0059 80.5773L97.9633 82.7194ZM37.6168 1.06699C37.3734 1.91934 37.1381 2.76513 36.9104 3.60445L35.9453 3.34264C36.1741 2.49916 36.4106 1.64909 36.6553 0.792379L37.6168 1.06699ZM35.597 8.70272C35.1722 10.4404 34.777 12.1492 34.406 13.8298L33.4295 13.6142C33.802 11.9269 34.1989 10.2108 34.6256 8.46525L35.597 8.70272ZM33.3212 18.9814C32.968 20.7369 32.6366 22.4602 32.3203 24.1525L31.3373 23.9687C31.6543 22.273 31.9865 20.5451 32.3408 18.7842L33.3212 18.9814ZM31.3735 29.3364C31.0566 31.1005 30.7487 32.8311 30.4418 34.5255L29.4578 34.3473C29.7646 32.6537 30.0719 30.9261 30.3892 29.1596L31.3735 29.3364ZM29.4735 39.718C29.1312 41.4828 28.7789 43.2089 28.4055 44.8973L27.4291 44.6813C27.8001 43.0036 28.1506 41.2863 28.4917 39.5276L29.4735 39.718ZM27.1602 50.0413C26.6977 51.7773 26.1971 53.4717 25.6443 55.1259L24.6959 54.8089C25.2412 53.1772 25.736 51.5029 26.1939 49.7839L27.1602 50.0413ZM23.7619 60.0944C23.0606 61.7296 22.2873 63.3231 21.4263 64.8763L20.5517 64.3915C21.3952 62.8699 22.1538 61.307 22.8429 59.7002L23.7619 60.0944ZM18.5881 69.3833C18.0763 70.1017 17.54 70.8108 16.9776 71.5108L16.1981 70.8844C16.7483 70.1996 17.2729 69.5059 17.7736 68.8031L18.5881 69.3833ZM16.9776 71.5108C16.3093 72.3424 15.6556 73.0755 15.0169 73.7163L14.3086 73.0104C14.9192 72.3977 15.5494 71.6917 16.1981 70.8844L16.9776 71.5108ZM10.1212 77.0397C7.80864 77.8116 5.81691 77.262 4.26441 75.9226L4.91763 75.1654C6.21999 76.289 7.84696 76.7446 9.8046 76.0911L10.1212 77.0397ZM1.18851 70.8255C0.609758 68.9799 0.338851 66.9396 0.406879 64.9843L1.40627 65.019C1.3421 66.8637 1.59852 68.7909 2.1427 70.5263L1.18851 70.8255ZM1.88586 59.2308C2.42321 58.3124 3.11913 57.5326 3.98862 56.9782L4.52622 57.8214C3.81368 58.2757 3.22131 58.9285 2.74897 59.7358L1.88586 59.2308ZM3.98862 56.9782C4.78792 56.4686 5.75369 56.4235 6.80392 56.6641L6.58063 57.6388C5.67468 57.4313 5.01557 57.5094 4.52622 57.8214L3.98862 56.9782ZM11.5345 58.8662C12.8148 59.6466 14.2253 60.5933 15.7601 61.6553L15.1911 62.4777C13.6608 61.4188 12.2692 60.4851 11.0141 59.7201L11.5345 58.8662ZM19.9058 64.5588C21.2198 65.4806 22.6053 66.4466 24.0626 67.4376L23.5002 68.2645C22.0371 67.2695 20.6469 66.3002 19.3315 65.3774L19.9058 64.5588ZM28.2691 70.2229C29.6429 71.1052 31.0697 71.9923 32.5489 72.8717L32.0379 73.7312C30.5475 72.8453 29.1109 71.952 27.7287 71.0643L28.2691 70.2229ZM36.9337 75.3602C38.3827 76.1426 39.8755 76.908 41.4116 77.6465L40.9783 78.5478C39.427 77.802 37.9203 77.0294 36.4586 76.2402L36.9337 75.3602ZM45.9984 79.7086C47.5261 80.3474 49.0919 80.9537 50.6957 81.5193L50.3631 82.4624C48.7405 81.8901 47.1569 81.2769 45.6127 80.6312L45.9984 79.7086ZM55.4748 83.0445C57.0644 83.4983 58.6878 83.9084 60.3446 84.2676L60.1327 85.2449C58.454 84.8809 56.8098 84.4656 55.2003 84.006L55.4748 83.0445ZM65.2882 85.1673C66.9227 85.4078 68.5872 85.5964 70.2816 85.727L70.2047 86.7241C68.4868 86.5917 66.7994 86.4005 65.1426 86.1566L65.2882 85.1673ZM75.289 85.9378C76.9337 85.9497 78.6046 85.9052 80.3016 85.7995L80.3638 86.7976C78.6435 86.9047 76.9494 86.9498 75.2818 86.9378L75.289 85.9378ZM85.2954 85.3167C86.9236 85.1034 88.5744 84.8327 90.2477 84.5004L90.4425 85.4813C88.7477 85.8178 87.0752 86.0921 85.4253 86.3082L85.2954 85.3167ZM95.139 83.3671C95.9486 83.1527 96.7631 82.9238 97.5827 82.6799L97.8679 83.6384C97.0387 83.8852 96.2143 84.1168 95.3949 84.3338L95.139 83.3671Z"
        fill="white" />
</svg>