<svg xmlns="http://www.w3.org/2000/svg" width="129" height="46" viewBox="0 0 129 46" fill="none">
    <path d="M111.158 16.8633L107.734 20.7006V16.8633H105.256V26.5502H107.734V22.4732L111.399 26.5502H114.6L110.092 21.4746L114.274 16.8633H111.158Z" fill="white"/>
    <path d="M100.887 20.4761H97.4631V16.8633H94.9839V26.5502H97.4631V22.7308H100.887V26.5502H103.365V16.8633H100.887V20.4761Z" fill="white"/>
    <mask id="mask0_130_1242" style="mask-type:luminance" maskUnits="userSpaceOnUse" x="14" y="12" width="101" height="22">
        <path d="M114.6 12.8789H14.2463V33.0433H114.6V12.8789Z" fill="white"/>
    </mask>
    <g mask="url(#mask0_130_1242)">
        <path d="M28.9594 22.11C28.9001 23.9171 28.6674 24.2779 27.6509 24.2779V26.5492H28.0296C30.5626 26.5492 31.1714 25.2407 31.265 22.3331L31.3683 19.1156H33.7429V26.5492H36.2207V16.8623H29.1315L28.9594 22.11Z" fill="white"/>
        <path d="M42.3802 19.8047H40.591V16.8613H38.1132V26.5496H42.4146C45.117 26.5496 46.0797 24.7949 46.0797 23.142C46.0797 21.0085 44.7368 19.8033 42.3802 19.8033M42.1915 24.4147H40.591V21.9548H42.1915C43.0523 21.9548 43.5675 22.3335 43.5675 23.142C43.5675 24.0194 43.0689 24.4147 42.1915 24.4147Z" fill="white"/>
        <path d="M54.1497 16.6382V13.042H51.6718V16.6382C48.8331 16.8793 46.9227 18.893 46.9227 21.6972C46.9227 24.5015 48.8331 26.5331 51.6718 26.7742V30.4227H54.1497V26.7742C56.9884 26.551 58.8988 24.5194 58.8988 21.6972C58.8988 18.8751 56.9884 16.8614 54.1497 16.6382ZM51.6718 24.434C50.2959 24.2453 49.435 23.2123 49.435 21.6986C49.435 20.1849 50.2959 19.1519 51.6718 18.9632V24.4354V24.434ZM54.1497 24.434V18.9618C55.5256 19.1519 56.3865 20.1835 56.3865 21.6972C56.3865 23.211 55.5256 24.244 54.1497 24.4327" fill="white"/>
        <path d="M68.1917 23.5719V20.32C68.1917 17.9454 66.678 16.4482 64.1313 16.4482C61.5846 16.4482 60.1053 18.0322 59.9841 19.6836H62.4964C62.5818 19.3228 62.9606 18.703 64.1313 18.703C65.0955 18.703 65.7139 19.1506 65.7139 20.32H63.2526C61.0502 20.32 59.7417 21.4728 59.7417 23.3997C59.7417 25.3266 61.1728 26.7894 63.2347 26.7894C64.747 26.7894 65.5872 26.0745 65.9535 25.5332C66.28 26.1875 67.0031 26.5483 67.9493 26.5483H68.8102V24.3115C68.3625 24.3115 68.1904 24.1049 68.1904 23.5719M65.7125 22.9356C65.7125 24.054 64.9205 24.6903 63.8889 24.6903C62.9936 24.6903 62.2884 24.3639 62.2884 23.3997C62.2884 22.4356 63.0625 22.2992 63.7333 22.2992H65.7125V22.9356Z" fill="white"/>
        <path d="M78.8095 18.2377H76.0397V15.5023H82.4581V13.041H73.442V26.5487H78.8109C81.7874 26.5487 83.4911 25.0694 83.4911 22.3505C83.4911 19.7873 81.7874 18.2377 78.8109 18.2377M78.6911 24.1053H76.0411V20.5944H78.6911C80.0671 20.5944 80.8425 21.2307 80.8425 22.3491C80.8425 23.4675 80.0684 24.1039 78.6911 24.1039" fill="white"/>
        <path d="M92.9716 23.5729V20.3209C92.9716 17.9464 91.4579 16.4492 88.9112 16.4492C86.3645 16.4492 84.8852 18.0332 84.764 19.6846H87.2763C87.3617 19.3237 87.7405 18.7039 88.9112 18.7039C89.8754 18.7039 90.4938 19.1516 90.4938 20.3209H88.0325C85.8301 20.3209 84.5216 21.4738 84.5216 23.4007C84.5216 25.3276 85.9527 26.7903 88.0146 26.7903C89.5269 26.7903 90.3671 26.0755 90.7334 25.5342C91.0599 26.1884 91.783 26.5493 92.7292 26.5493H93.5901V24.3125C93.1424 24.3125 92.9703 24.1059 92.9703 23.5729M90.4924 22.9365C90.4924 24.0549 89.7004 24.6913 88.6688 24.6913C87.7735 24.6913 87.0683 24.3648 87.0683 23.4007C87.0683 22.4366 87.8424 22.3002 88.5132 22.3002H90.4924V22.9365Z" fill="white"/>
        <path d="M27.4965 30.29H14.2465V33.0434H27.4965V30.29Z" fill="white"/>
        <path d="M23.2805 14.8953C22.9018 13.7687 22.4665 12.8789 20.9748 12.8789C19.4832 12.8789 19.019 13.7645 18.6223 14.8953L14.522 26.5491H17.2409L18.1871 23.7792H23.4183L24.2956 26.5491H27.1867L23.2805 14.8953ZM18.9791 21.4391L20.8371 15.916H20.906L22.6607 21.4391H18.9777H18.9791Z" fill="white"/>
    </g>
</svg>