<svg xmlns="http://www.w3.org/2000/svg" width="130" height="46" viewBox="0 0 130 46" fill="none">
    <path fill-rule="evenodd" clip-rule="evenodd" d="M112.802 22.6138H105.096C105.217 21.6447 105.903 20.6757 107.113 20.6757C108.122 20.6757 116.19 20.6757 116.19 20.6757V18.8184H106.71C102.918 18.8184 101.385 21.6851 101.385 24.4711C101.385 24.4711 111.591 24.4711 111.954 24.4711C112.317 24.4711 113.164 24.5519 113.164 25.3997C113.164 26.288 112.438 26.3688 111.147 26.4091H100.134V18.8184H96.8666V26.4091H90.6943C88.7983 26.4091 88.5965 24.9959 88.5965 24.2692C88.5965 23.4617 88.5965 18.8184 88.5965 18.8184H82.7067L77.8657 22.0485L73.5491 18.8184H60.882C57.0899 18.8184 54.8307 21.4429 54.5081 23.7443H57.1303C56.0815 24.4307 55.315 25.3997 54.9116 26.3688L47.5695 26.4091C45.6734 26.4091 45.4717 24.9959 45.4717 24.2692C45.4717 23.4617 45.4717 18.8184 45.4717 18.8184H42.2444V23.9867C42.2444 27.5398 44.7052 28.2262 45.9154 28.2262C47.6905 28.2262 71.8953 28.2262 71.8953 28.2262L76.7363 24.9961L81.1336 28.2262H86.2569L79.4393 23.2195L85.0468 19.4644V24.4308C85.0468 27.6206 88.1934 28.2262 89.0406 28.2262H112.761C113.931 28.2262 117.159 28.1051 117.159 25.521C117.159 22.9369 114.779 22.6139 112.802 22.6139L112.802 22.6138ZM71.3708 26.4091H59.1474C59.2281 25.4401 60.3174 24.4711 61.5275 24.4711H68.7486V22.6138H58.8649C58.9859 21.6447 60.0349 20.6757 61.245 20.6757C62.2938 20.6757 69.4746 20.6757 69.4746 20.6757H69.5149V19.5855L75.203 23.8251L71.3705 26.4091H71.3708Z" fill="white"/>
    <path fill-rule="evenodd" clip-rule="evenodd" d="M25.1714 32.2329C29.4555 32.2329 33.2139 30.7443 35.5984 28.4509H33.4565C31.4761 30.1407 28.526 31.1869 25.212 31.1869C19.0285 31.1869 14.2192 27.5256 14.2192 23.0194C14.2192 17.7891 19.0285 14.8118 25.212 14.8118C25.6162 14.8118 25.9395 14.9726 25.6969 15.3349C24.4035 16.8638 20.7664 21.8125 20.0792 22.8987C18.7859 25.0311 18.7859 27.6061 22.019 27.8072H35.5983C36.2853 27.8072 36.447 27.4853 36.6895 27.1232C37.6189 25.9162 38.0635 24.508 38.0635 23.0194C38.0635 19.1168 35.3153 16.1797 31.2739 14.7715L30.6677 15.6968C34.0221 16.944 36.2449 19.4385 36.2449 23.0193C36.2449 23.6227 36.164 24.2263 35.9619 24.7895C35.8407 25.3126 35.5174 25.7552 34.9516 25.7552H24.1609C22.7464 25.7552 23.3122 24.3068 23.7972 23.6228C24.5651 22.2951 28.647 16.7429 29.6169 15.7371C29.8593 15.3347 30.5464 14.5703 29.6169 14.2887C28.2023 13.9266 26.7071 13.7656 25.1713 13.7656C18.0583 13.7656 12.2791 17.4269 12.2791 23.0194C12.2791 28.6521 18.0583 32.2329 25.1713 32.2329H25.1714Z" fill="white"/>
</svg>