<svg xmlns="http://www.w3.org/2000/svg" width="130" height="46" viewBox="0 0 130 46" fill="none">
    <mask id="mask0_130_1272" style="mask-type:luminance" maskUnits="userSpaceOnUse" x="11" y="12" width="108" height="21">
        <path d="M118.375 12.9658H11.8772V33.0002H118.375V12.9658Z" fill="white"/>
    </mask>
    <g mask="url(#mask0_130_1272)">
        <path d="M68.7349 29.6402V16.3262H77.0062V19.4185H72.1838V29.6402H68.7349Z" fill="white"/>
        <path d="M87.4124 29.6402V24.4258H82.2887V29.6402H78.8397V16.3262H82.2887V21.2949H87.4124V16.3262H90.8614V29.6402H87.4124Z" fill="white"/>
        <path d="M110.877 29.6402V19.4185H106.848V16.3262H118.376V19.4185H114.327V29.6402H110.877Z" fill="white"/>
        <path d="M101.773 29.6376V22.0515L96.2832 29.6376H93.3992V16.3271H96.8481V23.8342L102.246 16.3271H105.224V29.6376H101.773Z" fill="white"/>
        <path d="M48.9146 29.6392V21.7267L45.4711 25.9068L42.0276 21.7267V29.6392H38.5786V16.3252H41.9824L45.4711 20.9032L48.9598 16.3252H52.3635V29.6392H48.9146Z" fill="white"/>
        <path d="M58.9115 24.9576H62.1168L60.5141 20.7831L58.9115 24.9576ZM63.9144 29.6384L63.1925 27.773H57.8305L57.1085 29.6384H53.6416L58.9458 16.3262H62.1349L67.4409 29.6384H63.9144Z" fill="white"/>
        <path d="M11.8733 19.0313C11.8766 17.4234 12.5068 15.8823 13.6257 14.7455C14.7447 13.6086 16.2613 12.9687 17.8435 12.9658H31.6267V16.049H17.8471C17.0697 16.0524 16.325 16.3676 15.7751 16.9261C15.2252 17.4846 14.9145 18.2412 14.9107 19.0313L14.8927 24.2073C14.8298 24.8704 14.5525 25.4937 14.1042 25.9799C13.6559 26.466 13.0618 26.7875 12.4147 26.8943L11.8733 26.9787V19.0313Z" fill="white"/>
        <path d="M11.874 33.0002V29.9169H25.6571C26.4348 29.9131 27.1794 29.5974 27.7293 29.0387C28.2791 28.4798 28.5897 27.723 28.5935 26.9328V22.021C28.5973 21.3084 28.8503 20.6203 29.3072 20.0797C29.7641 19.5391 30.3951 19.1812 31.0877 19.0698L31.6291 18.9873V26.9328C31.6258 28.541 30.9957 30.0822 29.8768 31.2194C28.7579 32.3565 27.2413 32.9967 25.6589 33.0002H11.874Z" fill="white"/>
        <path d="M23.5508 26.9893V23.0037L21.7532 25.1845L19.9574 23.0037V26.9893H17.5769V19.1465H19.8311L21.7532 21.6684L23.6753 19.1465H25.9295V26.9893H23.5508Z" fill="white"/>
    </g>
</svg>