<svg xmlns="http://www.w3.org/2000/svg" width="129" height="46" viewBox="0 0 129 46" fill="none">
    <path fill-rule="evenodd" clip-rule="evenodd" d="M74.8465 6.66016H54.1072V28.5907C54.1387 31.7083 63.6944 29.6354 64.4768 31.8744C65.2863 29.6114 74.8442 31.6038 74.8465 28.5907V6.66016ZM58.5506 17.9986C58.4927 17.9948 58.4378 17.9873 58.3807 17.9761L58.3567 17.9663C58.2702 18.1023 58.1845 18.2406 58.1049 18.3789L58.1161 18.3984C58.1958 18.5262 58.2943 18.6269 58.4198 18.7096C58.5122 18.766 58.6032 18.8028 58.7129 18.8201C58.9181 18.8449 59.1037 18.7802 59.2698 18.6607C59.1939 18.6119 59.1225 18.551 59.0654 18.4804C59.0481 18.4578 59.0316 18.4353 59.0143 18.4135C58.9173 18.2834 58.8557 18.1279 58.8324 17.9678C58.7392 17.9896 58.6483 18.0001 58.5513 17.9978L58.5506 17.9986ZM61.263 24.1646L61.2225 24.1631V24.1624L61.263 24.1639V24.1646ZM62.8316 26.0857L62.8436 26.0917C62.7106 25.9354 62.5836 25.773 62.4626 25.6039C62.5836 25.7723 62.7106 25.9346 62.8436 26.0917L62.8316 26.0849V26.0857ZM61.9252 24.1902L61.8613 24.1932L61.9252 24.1894C62.0214 24.2262 62.1168 24.2646 62.2123 24.3052C62.1168 24.2653 62.0206 24.227 61.9252 24.1902ZM61.8485 24.1939C61.8906 24.2826 61.9417 24.3728 61.9996 24.4622C61.941 24.3728 61.8906 24.2834 61.8478 24.1939H61.8485ZM62.7271 25.2251C62.8917 25.3454 63.0699 25.4483 63.2562 25.5257C63.0699 25.4483 62.8917 25.3454 62.7271 25.2244V25.2251ZM62.3761 24.6426C62.3664 24.6291 62.3566 24.6163 62.3476 24.6035L62.9924 24.7035L62.9932 24.7043L62.3476 24.6043C62.3566 24.6171 62.3656 24.6306 62.3754 24.6434L62.3761 24.6426ZM63.5749 24.8583C63.4299 24.6299 63.2856 24.4014 63.1413 24.1744H63.142C63.2856 24.4014 63.4306 24.6306 63.5757 24.8583H63.5749ZM63.0969 24.1789C62.9549 24.1924 62.8143 24.2052 62.6715 24.2187L62.6708 24.218L63.0962 24.1781L63.0969 24.1789ZM62.9797 24.448C63.163 24.5848 63.3457 24.7208 63.5283 24.8568C63.5358 24.8568 63.5434 24.8576 63.5509 24.8576C63.5434 24.8568 63.5351 24.8568 63.5283 24.8568C63.3457 24.7215 63.163 24.5848 62.9797 24.448ZM60.9414 24.914V24.9132C60.991 25.0327 61.0488 25.1515 61.1142 25.2672C61.0488 25.1515 60.991 25.0335 60.9414 24.914ZM68.6429 13.8077C68.4986 13.8506 68.3482 13.8934 68.2039 13.919C67.9386 13.9686 67.6996 14.0002 67.4366 14.0686C67.3126 14.1001 67.1885 14.1369 67.066 14.1903C66.815 14.3015 66.5677 14.4872 66.3671 14.6939C66.3002 14.7623 66.2258 14.8479 66.1897 14.9111C66.2385 14.9043 66.4227 14.8269 66.4595 14.8013C66.6767 14.6578 66.8586 14.4737 67.1029 14.3654C67.2126 14.3158 67.3509 14.2722 67.4606 14.2399C67.6914 14.1708 67.9183 14.14 68.1521 14.1001C68.3355 14.0686 68.5369 14.0295 68.7218 13.9551C68.7729 13.9333 68.827 13.9145 68.8774 13.8882C68.9533 13.8498 68.9969 13.7792 69.0645 13.7236C69.0284 13.7243 68.948 13.7221 68.8751 13.7363C68.7797 13.7559 68.688 13.7935 68.6414 13.807L68.6429 13.8077ZM68.119 11.9634C67.8755 12.1392 67.629 12.3391 67.3712 12.5113C67.1855 12.6353 67.0037 12.7721 66.8278 12.9464C66.6602 13.111 66.4821 13.3906 66.3385 13.671C66.2679 13.8085 66.1942 14.0024 66.1536 14.17C66.2243 14.0994 66.319 14.0189 66.3798 13.9333C66.5016 13.7672 66.582 13.5808 66.697 13.4079C66.7722 13.2922 66.8774 13.1839 66.9691 13.0937C67.1352 12.9337 67.2983 12.7991 67.4569 12.6698C67.7071 12.4699 67.9687 12.3309 68.2167 12.0881C68.3287 11.9784 68.4384 11.819 68.5407 11.6717C68.4046 11.7604 68.2611 11.8626 68.1198 11.9634H68.119ZM68.6556 9.99946C68.5767 10.0806 68.5113 10.1678 68.4242 10.2565C68.0897 10.6037 67.7071 10.9825 67.4651 11.1967C67.0525 11.559 66.7263 12.1783 66.3738 12.9021C66.0469 13.5582 65.5839 14.1054 65.1322 14.5368L65.1502 14.5924C65.514 14.3436 65.6966 14.3271 65.7598 14.4782C65.8109 14.6135 65.5501 14.9073 65.2502 15.2065L65.2532 15.2658C65.5531 15.0742 65.7981 15.0336 65.8207 15.1869C65.8643 15.5018 65.5373 15.7837 65.2735 16.0227L65.2577 16.1099C65.4622 15.9821 65.6764 15.9423 65.759 16.0715C65.8492 16.2737 65.6809 16.5811 65.1818 16.9013L65.172 16.9682C65.4351 16.8757 65.5787 16.8682 65.608 16.9426C65.7327 17.1486 65.3622 17.5213 64.8707 17.7085L64.8579 17.7746C64.9556 17.7664 65.2284 17.816 65.2352 17.9512C65.1923 18.0723 65.0142 18.1617 64.8105 18.2399C64.6512 18.3015 64.4783 18.3616 64.3423 18.3887L64.3212 18.4353C64.4317 18.5037 64.5385 18.6592 64.4385 18.7539C64.2709 18.9095 63.844 18.9276 63.4892 18.9028L63.5178 18.9839C63.6298 19.2628 63.6937 19.3725 63.7591 19.6408C63.7726 19.3627 63.7718 19.256 63.7297 19.0899C64.2709 19.0922 64.6076 18.9877 64.812 18.7855C64.8676 18.7291 64.8752 18.6172 64.8579 18.5758C64.927 18.5578 65.0894 18.5518 65.2607 18.6096C65.408 18.6585 65.5471 18.7637 65.6786 18.8351C65.762 18.8802 65.8387 18.9238 65.9251 18.9524C66.0371 18.9922 66.1559 19.0072 66.2806 19.0042C66.2468 18.9651 66.198 18.9396 66.1416 18.902C66.0995 18.8719 66.0319 18.8389 65.9838 18.8096C65.9109 18.7652 65.8109 18.7254 65.75 18.6803C65.6132 18.5848 65.4554 18.4946 65.2953 18.4443C65.0901 18.3804 65.0037 18.3879 64.8774 18.3999C65.3697 18.2586 65.6057 18.0753 65.6448 17.9377C65.6982 17.7596 65.5786 17.6965 65.2239 17.7265C65.7207 17.5191 65.9665 17.4184 66.0815 17.1786C66.1837 17.1756 66.4294 17.1869 66.585 17.2387C66.7414 17.2891 66.9014 17.4079 67.048 17.492C67.2066 17.5845 67.3599 17.695 67.5208 17.7581C67.6478 17.8084 67.7785 17.8242 67.9221 17.837C67.8033 17.7536 67.6929 17.6777 67.5598 17.6033C67.423 17.5259 67.2742 17.4409 67.1209 17.344C66.9383 17.2245 66.7511 17.0952 66.585 17.0426C66.4264 16.99 66.2581 16.9689 66.1205 16.9592C66.113 16.8148 65.9033 16.8073 65.7598 16.8449C65.9665 16.6848 66.2446 16.3556 66.2513 16.1324C66.3783 16.0392 66.6361 15.9242 66.8872 15.9069C67.0736 15.8949 67.2667 15.9385 67.4494 15.958C67.7417 15.9889 68.0266 15.9956 68.3731 15.9242C68.0123 15.8295 67.5846 15.8002 67.2239 15.7468C67.0706 15.725 66.9262 15.713 66.7977 15.7228C66.5783 15.7393 66.3934 15.8002 66.1837 15.9122C66.1108 15.8551 66.0273 15.837 65.9109 15.8633C66.1318 15.6762 66.2491 15.459 66.2686 15.247C66.2686 15.1133 66.1859 15.0163 65.9665 15.0569C66.2205 14.772 66.3445 14.5 66.1807 14.3564C66.1468 14.3263 66.0815 14.3263 65.9785 14.3699C66.0567 14.2324 66.0709 14.0693 65.9319 13.9829C66.2047 13.6394 66.4234 13.2816 66.5775 12.9697C66.9428 12.2339 67.2164 11.6642 67.5155 11.3756C67.6861 11.211 68.0123 10.954 68.2874 10.6654C68.4369 10.512 68.6098 10.3234 68.7353 10.1565C68.8473 10.01 68.9525 9.88597 68.9961 9.72287C68.8526 9.77624 68.7646 9.88597 68.6556 10.0017V9.99946ZM64.691 19.5649C64.6144 19.4725 64.5339 19.3823 64.4392 19.3101C64.322 19.2259 64.3152 19.2056 64.2408 19.1861C64.1078 19.1485 63.989 19.1485 63.8477 19.1583C64.0236 19.2417 64.1303 19.2861 64.2912 19.4056C64.4558 19.5266 64.5798 19.7212 64.7263 19.8776C64.788 19.9407 64.8541 20.0106 64.921 20.0602C64.9894 20.1113 65.0638 20.1399 65.1487 20.1624C65.1119 20.1068 65.0871 20.0459 65.0413 19.9896C64.9233 19.8475 64.809 19.7092 64.6918 19.5657L64.691 19.5649ZM66.8263 11.299C65.608 12.0423 64.1296 12.8871 63.251 13.9363C62.8504 14.4135 62.5618 14.8765 62.4911 15.444C62.4445 15.834 62.5738 16.1271 62.8211 16.3173C63.127 16.551 63.5689 16.8442 63.4847 17.5123C63.39 18.1301 62.779 18.3195 62.1131 18.6292C61.0586 19.1801 61.587 20.0782 62.1672 20.5578C62.1837 20.5097 62.186 19.737 62.6685 19.8152C63.163 19.8949 63.6185 20.7404 64.0116 20.572C63.8154 20.3684 63.7433 20.1632 63.7763 19.9099C63.8064 19.6934 64.1243 19.7348 64.6655 20.2609C65.0916 20.6216 65.5418 20.7652 65.7974 20.5142C66.1018 20.212 64.694 19.7866 65.2352 19.2928C65.4058 19.1064 65.8733 19.253 66.1995 19.3672C66.4039 19.4356 66.5873 19.4785 66.7406 19.501C67.1277 19.5574 67.3441 19.4882 67.411 19.1478C67.2524 19.1305 67.0893 19.0884 66.9646 19.0132C66.7248 18.8727 66.594 18.6194 66.6872 18.4308C66.8082 18.1113 67.3584 18.1835 67.6981 18.1918C68.4873 18.212 68.8849 17.9745 68.8548 17.5401C68.4873 17.607 68.0874 17.489 67.9664 17.0967C67.9003 16.8532 68.1153 16.7051 68.6384 16.5488C69.4816 16.2955 69.674 15.5695 69.4621 15.0742C68.9149 15.2718 68.2543 15.6484 68.1739 15.2147C68.0837 14.7142 68.7556 14.5105 69.3847 14.1069C69.8153 13.8288 69.9131 12.9472 69.3621 12.7405C69.0435 13.1922 68.5106 13.6732 68.2009 13.3839C67.9867 13.1817 68.7218 12.518 69.199 12.0686C69.5839 11.7056 69.5741 10.9743 69.1727 10.9269C68.9149 11.2238 68.7511 11.3606 68.476 11.2629C68.2596 11.0652 68.4422 10.6796 69.0562 10.1768C69.514 9.78225 69.8943 9.43351 69.7988 8.81871C69.7575 8.54288 69.5328 8.51582 69.4012 8.64961C68.6572 9.6898 67.7673 10.7277 66.827 11.2997L66.8263 11.299ZM59.2578 9.9724C59.3833 10.1603 59.5171 10.3753 59.5953 10.5707C59.6223 10.4241 59.6885 10.3437 59.7884 10.2978C59.805 10.2122 59.723 10.0273 59.5517 10.0881C59.5344 9.91979 59.4036 9.92204 59.2586 9.9724H59.2578ZM59.6794 10.8412C59.7343 10.9622 59.7824 11.0938 59.8177 11.2253H60.2033C60.1394 11.0502 59.8162 11.0765 59.6787 10.8412H59.6794ZM60.4408 11.2253H60.6941H61.9034H62.1567C62.171 11.0517 61.5141 11.1344 61.5028 10.6233C61.4953 10.3873 61.6223 10.2738 61.705 10.2385C61.8064 10.1949 61.9139 10.1806 62.0424 10.2625C62.0454 10.2279 62.083 10.0896 61.9906 10.0626C62.0003 9.93632 61.932 9.84613 61.8508 9.81983C61.8297 9.69732 61.7538 9.64621 61.6343 9.64321C61.62 9.53047 61.5043 9.45681 61.3878 9.4756C61.3878 9.41848 61.3374 9.35234 61.2976 9.32303C61.2593 9.35234 61.1969 9.40119 61.1969 9.45982C61.1105 9.44854 60.9782 9.51093 60.9489 9.62066C60.8173 9.61615 60.7279 9.72663 60.7294 9.82885C60.6272 9.88071 60.5859 9.98367 60.6167 10.1032C60.555 10.1227 60.5498 10.2422 60.555 10.2775C60.6836 10.1956 60.791 10.1956 60.891 10.2392C60.9737 10.2745 61.1007 10.3888 61.0939 10.624C61.0797 11.1359 60.4243 11.0532 60.4408 11.226V11.2253ZM62.3919 11.2253H62.7752C62.8121 11.0938 62.8609 10.9615 62.9173 10.8412C62.7782 11.0765 62.4543 11.0502 62.3919 11.2253ZM62.8075 10.2971C62.9075 10.3429 62.9729 10.4234 63.0007 10.5699C63.0789 10.3753 63.2119 10.1595 63.3374 9.97165C63.1939 9.92129 63.0616 9.91904 63.0443 10.0874C62.8729 10.0265 62.7903 10.2114 62.8075 10.2971ZM58.7347 9.6402C58.7866 9.69431 58.8384 9.75143 58.8873 9.81156C58.9376 9.87094 58.9872 9.93332 59.0353 9.99871C59.2758 10.3332 59.4818 10.7435 59.6321 11.2253H59.5675V11.4372H63.0315V11.2253H62.9977C63.027 11.1321 63.0571 11.0419 63.0901 10.957C63.124 10.8675 63.1608 10.7811 63.1961 10.6977C63.387 10.27 63.6283 9.91753 63.8958 9.63945C63.8958 9.63945 63.9229 9.61239 63.947 9.58533C63.9101 9.59059 63.8733 9.59586 63.8733 9.59586C63.8154 9.60112 63.7485 9.61239 63.6862 9.63193C63.6298 9.64922 63.5764 9.67327 63.5328 9.70784C63.5231 9.70258 63.5133 9.69957 63.5035 9.69582C63.4892 9.69056 63.4742 9.6868 63.4599 9.68529C63.3893 9.67853 63.3216 9.70484 63.2765 9.76872C63.2134 9.75294 63.148 9.74617 63.0954 9.76571C63.0458 9.78676 63.0037 9.82584 62.9759 9.89499C62.9526 9.89198 62.9301 9.89348 62.9083 9.89574C62.8406 9.90701 62.7873 9.93482 62.7504 9.97466C62.7128 10.0137 62.6926 10.0663 62.6873 10.1182C62.6843 10.1325 62.6843 10.1468 62.6843 10.1595C62.6347 10.1828 62.5956 10.2107 62.5633 10.24C62.5069 10.2933 62.4738 10.3542 62.4611 10.4151C62.446 10.476 62.4536 10.5346 62.4753 10.5849C62.4844 10.6082 62.4994 10.6315 62.5152 10.6488C62.5152 10.6488 62.534 10.6684 62.5528 10.6894C62.558 10.6624 62.5603 10.6368 62.5603 10.6368C62.5731 10.5639 62.6151 10.5226 62.6602 10.5075C62.6775 10.503 62.6971 10.5008 62.7128 10.5053C62.7286 10.5075 62.7437 10.515 62.7579 10.5271C62.7888 10.5564 62.8068 10.615 62.7842 10.7007C62.7519 10.8074 62.682 10.8721 62.5843 10.9104C62.4844 10.951 62.3566 10.9637 62.2115 10.9615C62.0627 10.9472 61.9485 10.9194 61.8711 10.869C61.7967 10.8179 61.7516 10.7473 61.7395 10.6451C61.7253 10.5481 61.7568 10.4722 61.8042 10.4339C61.8252 10.4196 61.8463 10.4068 61.8718 10.4038C61.8944 10.3993 61.9207 10.4016 61.9447 10.4113C62.0109 10.4354 62.0717 10.5068 62.1003 10.6376C62.1003 10.6376 62.1026 10.6571 62.1071 10.6766C62.1244 10.6669 62.1401 10.6548 62.1401 10.6548C62.1544 10.6451 62.1695 10.633 62.1822 10.6218C62.2581 10.5549 62.2867 10.4647 62.2965 10.376C62.304 10.2858 62.292 10.1986 62.2446 10.1265C62.2386 10.1167 62.2326 10.1092 62.2243 10.1009C62.2318 10.0851 62.2348 10.0671 62.2386 10.0498C62.2416 10.0295 62.2431 10.0077 62.2431 9.98818C62.2401 9.88522 62.1837 9.79202 62.0672 9.73039C62.0575 9.64997 62.0297 9.5936 61.9846 9.55301C61.938 9.51093 61.8726 9.48913 61.7937 9.48462C61.7734 9.41848 61.7358 9.37489 61.6907 9.34858C61.6501 9.32378 61.602 9.31702 61.5509 9.31702C61.5291 9.25313 61.4998 9.20127 61.4622 9.15843C61.4239 9.10958 61.378 9.06974 61.3299 9.03367C61.3239 9.02916 61.3172 9.0239 61.3119 9.01939C61.3059 9.0239 61.2999 9.02991 61.2946 9.03367C61.2458 9.06974 61.2014 9.10958 61.1631 9.15843C61.127 9.20052 61.0962 9.25238 61.0751 9.31702C61.0248 9.31702 60.9759 9.32378 60.9346 9.34858C60.891 9.37339 60.8519 9.41848 60.8324 9.48462C60.755 9.48913 60.6866 9.51168 60.6415 9.55301C60.5964 9.5936 60.5693 9.65147 60.5565 9.73039C60.537 9.74166 60.5205 9.75219 60.5032 9.76421C60.4836 9.77849 60.4671 9.79427 60.4528 9.81006C60.3807 9.89273 60.3649 9.99495 60.4002 10.1009C60.3942 10.1092 60.3874 10.1167 60.3837 10.1265C60.3333 10.1986 60.3138 10.2888 60.3228 10.3768C60.3303 10.4669 60.3679 10.5549 60.4423 10.6218C60.4566 10.633 60.4716 10.6451 60.4874 10.6548C60.4874 10.6548 60.5032 10.6669 60.519 10.6766C60.5227 10.6571 60.5272 10.6376 60.5272 10.6376C60.5543 10.5075 60.6159 10.4361 60.6806 10.4113C60.7054 10.4016 60.7317 10.3986 60.7572 10.4038C60.7813 10.4068 60.8031 10.4188 60.8226 10.4339C60.8715 10.473 60.9008 10.5466 60.8872 10.6451C60.8745 10.7473 60.8301 10.8179 60.755 10.869C60.6776 10.9186 60.5648 10.9465 60.4152 10.9615C60.2717 10.9645 60.1424 10.9517 60.0425 10.9104C59.9455 10.8728 59.8756 10.8082 59.8418 10.7007C59.8207 10.6158 59.838 10.5564 59.8711 10.5271C59.8824 10.515 59.8974 10.5075 59.9147 10.5053C59.9312 10.5008 59.9485 10.5023 59.965 10.5075C60.0116 10.5218 60.0522 10.5639 60.065 10.6368C60.065 10.6368 60.0695 10.6624 60.0755 10.6894C60.0921 10.6684 60.1116 10.6488 60.1116 10.6488C60.1281 10.6315 60.1417 10.609 60.1522 10.5849C60.1732 10.5346 60.174 10.476 60.1612 10.4151C60.1484 10.3557 60.1206 10.2933 60.0643 10.24C60.0312 10.2107 59.9921 10.1828 59.941 10.1595C59.9425 10.1468 59.9425 10.1325 59.941 10.1182C59.9357 10.0656 59.9147 10.0137 59.8779 9.97466C59.8395 9.93482 59.7869 9.90626 59.717 9.89574C59.696 9.89348 59.6742 9.89198 59.6509 9.89499C59.6216 9.82584 59.5817 9.78601 59.5314 9.76571C59.4795 9.74617 59.4149 9.75219 59.3495 9.76872C59.3427 9.75895 59.33 9.75143 59.3224 9.74467C59.3119 9.7334 59.2999 9.72287 59.2879 9.71461C59.233 9.67853 59.1661 9.67402 59.0947 9.70784C59.0519 9.67402 58.9978 9.64922 58.9399 9.63193C58.879 9.61239 58.8121 9.60112 58.755 9.59586C58.755 9.59586 58.7152 9.59135 58.6776 9.58533L58.7324 9.6402H58.7347ZM61.1728 9.98969C61.1706 10.0476 61.2608 10.0934 61.2969 10.1994C61.3239 10.0896 61.4224 10.0408 61.4209 9.98969C61.4201 9.89273 61.3397 9.94083 61.2991 9.77699C61.2585 9.93933 61.1759 9.8995 61.1728 9.98969ZM61.2946 10.6669C61.3149 10.4391 61.3818 10.2588 61.5238 10.146C61.5967 10.0896 61.6869 10.0513 61.8027 10.0318C61.7967 9.98818 61.7816 9.95737 61.6967 9.96188C61.7012 9.8559 61.6546 9.77323 61.502 9.83411C61.4878 9.6402 61.3923 9.61239 61.3066 9.6635C61.2014 9.5951 61.0894 9.60262 61.0789 9.81081C60.9248 9.74843 60.873 9.83862 60.8985 9.9506C60.7978 9.94609 60.767 10.007 60.779 10.0438C60.8158 10.0423 60.8512 10.0438 60.891 10.0506C61.109 10.0889 61.266 10.3159 61.2954 10.6669H61.2946ZM59.5667 11.7582C59.5667 11.8175 59.6163 11.8649 59.6742 11.8649H61.735C61.8042 11.7484 61.8906 11.6868 62.0101 11.6522H59.6734C59.6156 11.6522 59.566 11.6995 59.566 11.7582H59.5667ZM61.2969 10.7841C61.2533 10.9111 61.1706 10.9885 61.0639 11.0374H61.5306C61.4096 11.0036 61.3247 10.9254 61.2969 10.7841ZM69.3464 28.4487C69.196 28.2104 68.8563 28.3149 68.8105 28.5855C68.7301 29.0575 68.942 29.2551 69.3584 29.2551C69.0314 28.8748 69.5576 28.7854 69.3456 28.4487H69.3464ZM67.4463 28.8485C67.6335 28.6989 67.2757 28.2638 66.9571 28.4637C66.6985 29.0266 67.057 29.2649 67.4666 29.2942C67.3201 29.1454 67.2547 28.9951 67.4471 28.8485H67.4463ZM65.9943 27.1093C66.1048 26.7952 66.2716 26.6636 66.5407 26.8929C66.7579 26.7809 66.7865 26.5614 66.6647 26.3615C66.1258 26.3224 65.9101 26.5735 65.9943 27.1093ZM66.8346 22.9643C66.942 22.9621 67.0518 22.935 67.1592 22.8501C66.9247 22.7283 66.815 22.6622 66.6181 22.5044C66.6181 22.5044 66.5279 22.56 66.4355 22.6088C66.5745 22.7178 66.7008 22.8155 66.7008 22.8155C66.5136 22.8057 66.4137 22.8057 66.219 22.7419L66.1844 22.7644C66.5407 23.2928 67.0367 23.6656 67.5929 23.9677C67.3757 23.9256 67.2321 23.9068 67.0037 23.7993C66.6121 23.622 66.1168 23.295 65.6741 23.0154L65.6275 23.032C66.0273 23.6964 66.3415 24.0068 66.7819 24.4081C66.9548 24.5667 67.1329 24.7591 67.3644 24.9613C67.1329 24.8395 66.918 24.7373 66.6917 24.5983C66.122 24.2398 65.5501 23.7963 64.9872 23.3507L64.9308 23.3724C65.3449 23.8835 65.7733 24.4855 65.971 25.177C65.5448 24.6148 65.0383 23.9279 64.3806 23.6302L64.3167 23.6596C64.346 23.6836 64.458 23.7888 64.5663 23.9204C64.7549 24.1443 64.8692 24.339 64.9345 24.5464C64.9623 24.6366 64.9887 24.7704 64.9962 24.8606C64.9917 24.8749 64.9556 24.8704 64.9413 24.8734C64.909 24.7734 64.8474 24.6825 64.7842 24.5885C64.6752 24.4247 64.5648 24.2713 64.3979 24.1353C64.11 23.9016 63.8643 23.752 63.4937 23.7745C62.7181 23.8234 61.9094 24.0068 61.1676 23.9234L61.0338 23.9091C60.985 23.9234 60.9353 23.9391 60.888 23.9482C60.7302 23.9797 60.5829 23.9918 60.4611 23.997C60.4919 24.481 60.5002 24.9636 60.3844 25.434C60.3897 25.5776 60.416 25.7016 60.4829 25.7873C60.5212 25.8166 60.5678 25.8459 60.6024 25.8775C60.3604 26.4111 60.186 27.0688 59.6223 27.3513C59.5817 27.3709 59.5419 27.3927 59.4983 27.4002C59.3465 27.4145 59.209 27.2439 59.112 27.1469C59.1849 26.9372 59.2743 26.5577 59.0406 26.3991C58.9399 26.8162 58.5881 27.0545 58.1778 26.8696C58.162 27.1499 58.3612 27.2935 58.5506 27.4295C58.7129 27.5438 58.876 27.6219 58.9173 27.7437C59.0068 27.7384 59.1127 27.7722 59.2473 27.7534C59.3638 27.7369 59.5043 27.6851 59.6479 27.6317C59.7448 27.5956 59.8448 27.5377 59.9463 27.4979C59.8546 27.6648 59.7501 27.7317 59.6306 27.8053C59.4532 27.9165 59.224 27.9631 58.9827 27.9857C58.8617 27.8978 58.6084 27.8662 58.4536 27.8436C58.4145 27.7001 58.3213 27.4536 58.1379 27.4904C58.2409 27.8271 58.0553 27.9902 57.7539 28.0894C57.7712 28.5404 58.0801 28.5569 58.383 28.5088C58.519 28.487 58.637 28.4336 58.7572 28.4336L59.254 28.1458C59.4585 28.1601 59.5629 28.1631 59.6832 28.1871C59.8335 28.0751 59.9485 27.997 60.1552 27.9165C60.0582 28.1022 59.8936 28.2457 59.7118 28.384C59.4615 28.348 59.3675 28.2893 59.1413 28.4133C59.4855 28.4427 59.5284 28.6569 59.4517 28.9545C59.6622 28.9958 59.8523 28.8545 60.0064 28.6554C60.1364 28.5434 60.2762 28.4344 60.437 28.3555C60.5874 28.2826 60.7572 28.2337 60.9534 28.2653C61.0917 28.3607 61.251 28.4607 61.4201 28.4051C61.3194 28.0977 61.2525 27.7234 61.6802 27.6347C61.5802 27.4746 61.3818 27.4791 61.2322 27.5671C61.148 27.6152 61.0887 27.6986 61.0436 27.7715C60.997 27.5716 60.8632 27.5648 60.8452 27.5716C60.8249 27.549 60.8196 27.4942 60.8196 27.4273C60.8128 27.3498 60.8579 27.2476 60.8857 27.1792C61.0293 26.8433 61.236 26.5464 61.4299 26.242C61.4329 26.239 61.4712 26.1834 61.4712 26.1789C61.6967 26.5614 62.0432 26.6095 62.4175 26.578C62.3107 26.481 62.2687 26.2833 62.2619 26.0428C62.525 26.2991 62.8143 26.3743 63.136 26.2691C62.9263 26.0842 62.8827 25.7189 62.7978 25.422C63.0781 25.7219 63.3352 25.8377 63.5749 25.7775C63.3524 25.4558 63.2104 25.1394 63.148 24.8027C63.39 25.0335 63.6486 25.0996 63.8718 25.1124C63.6689 24.6952 63.5306 24.3014 63.632 23.9677C64.0439 24.0556 64.7226 24.5479 64.8015 25.1545C64.8917 25.0763 64.9819 25.0402 65.0706 25.0417C65.0834 25.1905 65.2262 25.395 65.381 25.6069C65.4028 25.4852 65.5584 25.1026 65.6636 25.3927C65.6876 25.5603 65.8582 25.8993 66.0582 25.8602C66.0506 25.7482 66.0822 25.6332 66.1581 25.5212C66.207 25.5844 66.2701 25.6084 66.3408 25.5911C66.2679 25.4506 66.2776 25.3581 66.3648 25.304C66.8278 25.6866 67.3516 26.021 67.7725 26.4464C67.892 26.5689 68.0469 26.7388 68.0717 26.9207C68.0769 26.9545 68.0769 26.9913 68.0694 27.0237C68.0085 27.2965 67.514 27.1161 67.3186 27.053C67.3118 26.6464 67.187 26.4028 66.8999 26.3878C67.0097 26.6967 66.8691 26.9823 66.5692 27.0996C66.6564 27.5768 67.066 27.5332 67.417 27.6159C67.4929 27.6324 67.5704 27.6497 67.6357 27.6768C67.7011 27.6497 67.7695 27.6204 67.8402 27.5648C67.9296 27.4964 67.9988 27.4085 68.0762 27.316C68.1694 27.2085 68.2663 27.0996 68.3197 27.0237C68.3174 27.1108 68.3032 27.2183 68.2596 27.3138C68.2032 27.44 68.1025 27.555 68.0055 27.6618C67.9033 27.7737 67.7763 27.8572 67.6388 27.8594C67.3915 27.8647 66.9315 27.9353 66.8999 28.2615C67.3216 28.0541 67.7988 28.4614 67.6651 28.9162C68.0303 28.9748 68.1401 28.7621 68.1115 28.3908C68.2039 28.1879 68.3618 28.0203 68.5925 27.9932C68.8142 27.7279 68.9217 27.4528 68.712 27.1341C68.7924 27.171 68.8849 27.207 68.9285 27.2807C68.9826 27.3777 68.9976 27.4603 68.9878 27.5746C68.9751 27.7091 68.9217 27.8842 68.827 27.9962C68.7473 28.0887 68.7225 28.1736 68.7203 28.2953C69.1043 27.9053 69.6139 28.2029 69.6064 28.702C69.8289 28.6268 69.8973 28.4389 69.9529 28.242C69.907 27.8962 69.6169 27.446 69.9845 27.2243C70.0716 27.171 70.1596 27.1822 70.2377 27.1093C69.904 27.083 69.517 26.6058 69.8236 26.3427C69.5365 26.3187 69.4463 26.4818 69.3945 26.7493C69.3734 26.8493 69.4651 26.9538 69.5613 27.0417C69.6335 27.1093 69.7041 27.1807 69.7635 27.2123C69.6515 27.2168 69.5515 27.2025 69.4613 27.1612C69.3373 27.1026 69.2351 26.9771 69.181 26.7982C68.5625 26.6426 67.8424 25.3491 67.7102 24.7576C67.9394 24.8471 68.2047 24.8613 68.4437 24.8305C68.1709 24.6524 67.9394 24.4329 67.7252 24.1947C67.9446 24.1564 68.1513 24.0977 68.3317 23.9978C67.8033 23.8174 67.3043 23.4882 66.8361 22.9673L66.8346 22.9643ZM57.9373 27.7557C57.9651 27.6708 57.9636 27.5873 57.9395 27.5257C57.6479 27.3731 57.224 27.3754 57.1939 27.9496C57.4036 27.6828 57.59 27.767 57.6945 27.9008C57.7922 27.8699 57.8726 27.8233 57.9373 27.7549V27.7557ZM61.8027 28.7268C62.2409 28.3081 62.1281 28.03 61.7613 27.8233C61.4795 27.8647 61.5283 28.0736 61.596 28.2931C61.8079 28.2961 61.9139 28.4006 61.8027 28.7268ZM59.0699 29.452C58.9361 29.1063 58.9985 28.9244 59.2563 28.8996C59.3337 28.599 59.227 28.5554 58.9294 28.5607C58.6175 28.8673 58.5701 29.1672 59.0692 29.4513L59.0699 29.452ZM58.2296 26.6712C58.2296 26.6712 58.3484 26.7125 58.3642 26.7223C58.6949 26.7786 58.8226 26.5254 58.8647 26.2548C58.2815 25.8625 57.7854 25.8602 57.4818 26.6636C57.6674 26.5051 58.0064 26.3668 58.2296 26.6704V26.6712ZM70.1415 26.3299C69.7838 26.4179 69.9303 26.8275 70.1994 26.9154C70.4023 26.9786 70.4219 26.5051 70.7699 26.9462C70.7789 26.4299 70.5699 26.2225 70.1415 26.3292V26.3299ZM60.0447 13.7191L60.0034 13.7183H59.9996H59.9959H59.9921H59.9883H59.9846H59.9808H59.9771H59.9733H59.9696H59.9658H59.962H59.9583H59.9545H59.9508H59.947H59.9433H59.9395H59.9357H59.932H59.9282H59.9245H59.9207H59.9169H59.9132H59.9049H59.9012C59.8636 13.7168 59.826 13.7146 59.7884 13.7138L59.6787 13.704L59.6719 13.7033L59.6652 13.7025L59.6584 13.7018L59.6516 13.701L59.6449 13.7003L59.6381 13.6995L59.6313 13.6988L59.6246 13.698L59.6178 13.6973L59.5975 13.695L59.5908 13.6943C59.5464 13.6898 59.5036 13.6852 59.463 13.68L59.451 13.6785L59.4449 13.6777L59.4389 13.677L59.4329 13.6762L59.4269 13.6755L59.4209 13.6747L59.4149 13.674L59.4089 13.6732L59.3751 13.668C59.3638 13.6665 59.3518 13.6642 59.3382 13.6627L59.3112 13.6597L59.3044 13.6589L59.2976 13.6582L59.2901 13.6574L59.2826 13.6567L59.2751 13.6559L59.2676 13.6552L59.2601 13.6544L59.2525 13.6537H59.245H59.2375H59.23H59.2225H59.215H59.2067H59.1984H59.1902H59.1819H59.1736H59.1654H59.1571H59.1488H59.1406H59.1323H59.124H59.1158H59.0917H59.0759H59.0684H59.0526C58.9985 13.6552 58.9504 13.6589 58.9151 13.6642C58.7084 13.6988 58.4777 13.7206 58.2672 13.7303C58.2274 13.7318 58.1868 13.7333 58.1462 13.7341H58.1364H58.1267H58.1169H58.1071H58.0974H58.0876H58.0778H58.068H58.0583H58.0485C57.9049 13.7311 57.7584 13.7168 57.6073 13.6875L57.6103 13.6845L57.6186 13.6747L57.6216 13.6717L57.6246 13.6687L57.6532 13.6356L57.6554 13.6326L57.6577 13.6296L57.6689 13.6161L57.6712 13.6131L57.6735 13.6101L57.6765 13.6071L57.6795 13.6041L57.6825 13.6011L57.6855 13.5981L57.6885 13.595L57.6915 13.592L57.6945 13.589L57.6975 13.586C57.7276 13.55 57.7584 13.5146 57.7892 13.4793H57.7885L57.7892 13.4786C57.6667 13.5154 57.5487 13.5334 57.4345 13.5342H57.4194H57.4044L57.3894 13.5334L57.3743 13.5327C57.2052 13.5244 57.0444 13.4778 56.8926 13.3959L56.879 13.3884L56.8655 13.3808L56.852 13.3726L56.8384 13.3643L56.8249 13.356L56.8339 13.3741L56.843 13.3914L56.8527 13.4087L56.8625 13.4259L56.8723 13.4432L56.882 13.4598L56.8918 13.4763L56.9016 13.4928L56.9113 13.5094L56.9219 13.5252L56.9324 13.5409L56.9429 13.5567L56.9534 13.5718L56.964 13.5868L56.9745 13.6018L56.985 13.6168L56.9963 13.6311L57.0076 13.6454C57.1804 13.8679 57.3909 14.0265 57.6276 14.1445V14.1437C57.6269 14.1279 57.6246 14.1114 57.6224 14.0941L57.6216 14.0858L57.6208 14.0821L57.6201 14.0783L57.6193 14.0746L57.6186 14.0708L57.6178 14.067L57.6171 14.0633L57.6163 14.0595L57.6156 14.0558L57.6148 14.052L57.6141 14.0483L57.6133 14.0445C57.6066 14.0017 57.5998 13.9581 57.5953 13.9175V13.9137V13.91V13.9062V13.9024V13.8987V13.8949V13.8912L57.6036 13.8927L57.6118 13.8942L57.6201 13.8957L57.6284 13.8972L57.6366 13.8979L57.6449 13.8987L57.6532 13.8994L57.6614 13.9002L57.6697 13.9009L57.678 13.9017L57.6862 13.9024L57.6945 13.9032L57.7028 13.904L57.711 13.9047L57.7201 13.9055L57.7291 13.9062L57.7381 13.907L57.7471 13.9077L57.7561 13.9085L57.7652 13.9092L57.7742 13.91L57.7832 13.9107L57.7922 13.9115L57.8012 13.9122L57.8102 13.913L57.8193 13.9137L57.8283 13.9145L57.8373 13.9152L57.8463 13.916L57.8553 13.9167L57.8644 13.9175L57.8734 13.9182H57.8824H57.8914H57.9004H57.9095H57.9185H57.9275H57.9365H57.9455H57.9546H57.9636H57.9726H57.9816H57.9906H57.9996H58.0087H58.0177H58.0267H58.0357H58.0447H58.0538C58.0898 13.9182 58.1267 13.9182 58.1627 13.9167H58.1748H58.1868L58.1988 13.916C58.395 13.9092 58.5866 13.8882 58.7587 13.8611L58.7693 13.8596L58.779 13.8581L58.7888 13.8566L58.7986 13.8551H58.7993L58.8091 13.8536H58.8099C58.8339 13.8498 58.8572 13.8461 58.8798 13.8416C58.9564 13.8348 59.0398 13.8341 59.1255 13.8393L59.1353 13.8401L59.1548 13.8416L59.1646 13.8423L59.1744 13.8431L59.1841 13.8438L59.2135 13.8461L59.2232 13.8468L59.233 13.8476L59.2428 13.8483L59.2623 13.8506L59.2819 13.8528L59.3014 13.8551L59.3112 13.8566L59.3209 13.8581L59.3307 13.8596L59.3405 13.8611L59.3502 13.8626L59.36 13.8641L59.3698 13.8656L59.3796 13.8671L59.3893 13.8686L59.3991 13.8701L59.4089 13.8716L59.4186 13.8731L59.4277 13.8746L59.4367 13.8761L59.4457 13.8776L59.4547 13.8792L59.4637 13.8807L59.4728 13.8822L59.4818 13.8837L59.4848 13.8844L59.4878 13.8852L59.4908 13.8859L59.4938 13.8867L59.4968 13.8874C59.5336 13.8942 59.5675 13.9024 59.602 13.91L59.608 13.9115L59.611 13.9122L59.6141 13.913L59.6171 13.9137L59.6201 13.9145L59.6231 13.9152L59.6261 13.916L59.6321 13.9175L59.6877 13.9295C59.6877 13.9295 59.6366 14.0167 59.5862 14.1054C59.5509 14.0858 59.5141 14.0686 59.478 14.0498C59.4495 14.0761 59.4216 14.1009 59.3923 14.1279C59.363 14.0949 59.3337 14.0716 59.3021 14.04C59.2728 14.0693 59.2405 14.0956 59.209 14.1249C59.1736 14.0896 59.1368 14.0543 59.1022 14.0212C59.0661 14.0603 59.0323 14.0994 58.9985 14.1384C58.9557 14.1009 58.9151 14.0693 58.873 14.0332C58.8362 14.0791 58.8001 14.1257 58.7625 14.173C58.7182 14.1377 58.6731 14.1039 58.628 14.0686C58.5911 14.1174 58.5536 14.1648 58.5175 14.2136C58.4769 14.173 58.4348 14.1332 58.3935 14.0934C58.3506 14.1527 58.307 14.2136 58.307 14.2136C58.2063 14.2234 58.1116 14.1941 58.0049 14.2038C58.038 14.5037 58.2612 14.6616 58.6858 14.5939C59.0692 14.5315 59.4314 14.415 59.8606 14.4586C60.0996 14.4804 60.1823 14.6901 60.1868 14.9028C60.1808 14.9246 60.1755 14.9457 60.1687 14.9659C60.1823 14.9644 60.1943 14.9644 60.2063 14.9629C60.292 14.9419 60.3378 14.887 60.3844 14.8179C60.4002 14.8096 60.4168 14.7998 60.4348 14.7923H60.4618L60.5099 14.8216C60.6527 15.0757 60.9241 15.1065 61.0315 14.7953C61.0383 14.778 61.0406 14.7608 61.0458 14.7442C61.0654 14.7299 61.0857 14.7149 61.106 14.7006C61.124 14.7074 61.1435 14.7134 61.1608 14.7202C61.1886 14.7495 61.2127 14.7765 61.2465 14.7983C61.3517 14.8758 61.475 14.9577 61.6035 14.8983C61.735 14.8397 61.7914 14.7142 61.8305 14.5834C61.8523 14.5691 61.8748 14.5548 61.8966 14.5405C61.9147 14.5436 61.9342 14.5458 61.9522 14.5473C62.0124 14.5886 62.0793 14.6285 62.1537 14.6255C62.328 14.621 62.3649 14.5127 62.416 14.3842C62.4378 14.3278 62.4551 14.2692 62.4648 14.2068C62.4648 14.2068 62.5129 14.1362 62.5573 14.0663C62.5821 14.1354 62.6039 14.2061 62.6039 14.2061C62.6016 14.3962 62.555 14.5917 62.3994 14.7164C62.3897 14.884 62.3168 15.0772 62.1582 15.1546C62.2025 15.1982 62.2499 15.2403 62.3123 15.2568C62.3791 14.9066 62.558 14.5608 62.7594 14.2632C62.8068 14.1948 62.8617 14.1339 62.9113 14.067C63.1833 13.7033 63.5013 13.3786 63.7688 13.1358C64.6677 12.3609 65.6786 11.7529 66.6865 11.1359C66.8691 11.0216 67.0495 10.8953 67.2201 10.7661C67.1765 10.5722 67.3712 10.2355 67.8139 9.79578C68.2235 9.37038 68.5617 8.99684 68.479 8.43991C68.4399 8.18888 68.2408 8.19339 68.1228 8.33394C67.4584 9.39744 66.5955 10.4234 65.753 11.0795C64.7226 11.8829 63.3938 12.6481 62.6768 13.8634C62.6873 13.4876 62.655 13.0562 62.5746 12.7623C62.8729 12.4714 62.9985 12.0979 62.9729 11.5808C62.7504 11.68 62.5212 11.6943 62.3431 11.7251C62.1544 11.7544 61.9635 11.9017 61.8681 12.0881L59.6877 12.0829C59.5757 12.4143 59.2871 12.5526 58.7437 12.5368C58.5994 12.5368 58.4514 12.5263 58.3078 12.5165C58.2161 12.512 58.156 12.4812 58.1575 12.4316C58.1695 12.0866 57.6126 12.0145 57.5096 12.4556C57.4382 12.754 57.6006 13.0892 57.9711 13.1216C57.9974 13.2163 58.0778 13.2839 58.1958 13.332C58.1958 13.332 58.2101 13.3613 58.2274 13.3876C58.2665 13.4432 58.3101 13.4733 58.3514 13.5297C58.3987 13.471 58.4416 13.4342 58.4897 13.3763C58.5303 13.4274 58.5709 13.4786 58.6107 13.5297C58.6543 13.4748 58.7046 13.4026 58.7482 13.3493C58.8016 13.3951 58.8347 13.459 58.888 13.5049C58.9399 13.4635 58.9895 13.3981 59.0406 13.356C59.0842 13.3989 59.1375 13.468 59.1819 13.5124C59.233 13.4688 59.2788 13.4162 59.3292 13.3726C59.36 13.4192 59.3999 13.4755 59.4322 13.5214C59.4773 13.4831 59.5224 13.4447 59.566 13.4079C59.5893 13.4598 59.611 13.5124 59.6351 13.5665C59.6757 13.5244 59.7178 13.4823 59.7591 13.4395C59.7832 13.4861 59.8095 13.5319 59.8335 13.5763C59.8688 13.5447 59.9064 13.5101 59.9417 13.4763C59.9786 13.5597 60.0147 13.6439 60.05 13.7273L60.0447 13.7191ZM60.0778 18.4969C60.1236 18.4616 60.1642 18.4263 60.2018 18.3849C59.9372 18.3098 59.7343 18.1271 59.6126 17.8836C59.5269 17.9204 59.4442 17.9482 59.3533 17.958C59.2375 17.9708 59.118 17.9595 59.0083 17.9204C59.0293 18.0918 59.1045 18.2541 59.2225 18.3834C59.2999 18.4661 59.3931 18.5458 59.4998 18.5908C59.6171 18.6352 59.7531 18.6269 59.8749 18.5976C59.9478 18.5766 60.0154 18.5397 60.077 18.4977L60.0778 18.4969ZM61.1014 18.8795C60.9902 18.8892 60.8805 18.8795 60.773 18.8471C60.6467 18.8088 60.5363 18.7427 60.44 18.6555C60.395 18.6134 60.3574 18.5713 60.3183 18.5262C60.2236 18.6262 60.1146 18.7088 59.9846 18.7554C59.8245 18.8148 59.6464 18.8163 59.4833 18.7652C59.5103 18.8314 59.5389 18.8922 59.5757 18.9554C59.7832 19.274 60.1124 19.4447 60.4897 19.3973C60.6776 19.3717 60.8444 19.277 60.9654 19.1357C61.0278 19.0553 61.0706 18.9749 61.1022 18.8795H61.1014ZM61.3254 18.182C61.251 18.1572 61.1819 18.1249 61.121 18.0723C61.0804 18.1369 61.0346 18.188 60.9774 18.2369C60.9256 18.2789 60.8722 18.3128 60.8113 18.3413L60.7888 18.3511C60.6813 18.3947 60.5746 18.4172 60.4603 18.4187C60.5573 18.5443 60.6941 18.6314 60.8467 18.6735C60.9256 18.6953 61.0082 18.7081 61.0902 18.7058C61.1871 18.7021 61.2788 18.6705 61.366 18.6239C61.4367 18.5848 61.496 18.5367 61.5486 18.4751C61.5862 18.4293 61.6193 18.3804 61.6388 18.3248C61.6516 18.297 61.6599 18.2677 61.6644 18.2391C61.5486 18.2361 61.4352 18.2181 61.3262 18.1812L61.3254 18.182ZM62.301 15.8085C62.2987 15.801 62.2987 15.7942 62.2957 15.7844C62.2799 15.7942 62.2619 15.7972 62.2446 15.804C62.2228 15.928 62.1725 16.0377 62.074 16.1226C62.189 16.1692 62.2987 16.1858 62.413 16.1347C62.3746 16.0618 62.3423 15.9843 62.3228 15.9017C62.313 15.8686 62.3085 15.8438 62.301 15.8085ZM61.3683 16.6863C61.2082 16.6788 61.0631 16.6029 60.9496 16.4932C60.9151 16.5338 60.8797 16.5721 60.8376 16.6044C60.767 16.6608 60.6881 16.6999 60.6009 16.7171C60.676 16.8269 60.7783 16.9095 60.912 16.9321C61.1007 16.9577 61.2796 16.8509 61.3675 16.6856L61.3683 16.6863ZM58.5994 17.5935C58.5994 17.5935 58.5866 17.6093 58.5866 17.6123C58.5445 17.6724 58.504 17.7333 58.4634 17.7934C58.4762 17.7987 58.4927 17.8032 58.5077 17.8084C58.5987 17.8227 58.6889 17.8152 58.7783 17.7912C58.7099 17.734 58.649 17.6671 58.6002 17.5935H58.5994ZM58.9331 17.1095C59.0045 17.1253 59.0759 17.1215 59.1436 17.0997C59.0947 17.0629 59.0564 17.0215 59.018 16.9727C58.9887 17.0178 58.9632 17.0644 58.9331 17.1095ZM58.7437 17.4935C58.8069 17.5694 58.876 17.6333 58.9609 17.6814C59.1278 17.7784 59.3254 17.8024 59.5118 17.722C59.3563 17.6145 59.2518 17.4499 59.2082 17.2688C59.0834 17.3056 58.9369 17.3162 58.8144 17.2718C58.7745 17.3252 58.7392 17.383 58.7009 17.4379C58.7152 17.4544 58.7287 17.4755 58.7437 17.4935ZM59.3901 16.4902C59.3856 16.4759 59.3803 16.4586 59.3728 16.4466C59.2931 16.5691 59.2127 16.6916 59.1293 16.8126C59.1466 16.8306 59.1586 16.8509 59.1729 16.8705C59.2082 16.9065 59.242 16.9374 59.2871 16.9629C59.4412 17.0478 59.6208 17.0433 59.7651 16.9374C59.5832 16.8487 59.4517 16.6796 59.3901 16.4909V16.4902ZM60.0966 15.828C60.0109 15.9084 59.9154 15.9633 59.7967 15.9761C59.8749 16.1099 59.9914 16.197 60.1514 16.176C60.2356 16.1595 60.3018 16.1189 60.3641 16.0618C60.2506 16.0144 60.1657 15.9302 60.0966 15.828ZM59.6028 16.5368C59.6727 16.7014 59.8125 16.8096 59.9921 16.8336C60.1311 16.8457 60.2612 16.8028 60.3649 16.7081C60.2086 16.6683 60.0921 16.5578 60.0086 16.4255C59.8876 16.5074 59.7388 16.5435 59.5923 16.5074C59.5968 16.5165 59.5998 16.527 59.6028 16.5368ZM60.6092 16.076C60.7332 16.2113 60.9293 16.2857 61.1022 16.1993C61.1826 16.1542 61.2367 16.0896 61.2781 16.0039C61.1413 16.0039 61.0143 15.9468 60.9075 15.8618C60.8271 15.9603 60.7332 16.0422 60.6092 16.076ZM61.2533 15.8355C61.4194 15.8438 61.5314 15.7499 61.5975 15.604C61.4998 15.5973 61.4141 15.5627 61.3344 15.5071C61.2638 15.6176 61.1834 15.7115 61.0564 15.7619C61.1142 15.8017 61.1864 15.8288 61.2533 15.8363V15.8355ZM60.7647 15.7747C60.6467 15.7363 60.5528 15.6649 60.4739 15.568C60.4047 15.6386 60.3205 15.6965 60.2206 15.7145C60.28 15.8115 60.3596 15.8957 60.4761 15.9212C60.5986 15.9332 60.6933 15.8648 60.7647 15.7747ZM59.6531 17.598C59.7997 17.6769 59.953 17.6912 60.1109 17.6371C60.1792 17.6123 60.2401 17.5785 60.2965 17.5334C60.077 17.4762 59.9042 17.3192 59.8185 17.1095C59.6787 17.1876 59.5284 17.2237 59.369 17.1952C59.4014 17.3665 59.5043 17.5086 59.6524 17.598H59.6531ZM59.6389 16.0324C59.59 16.1129 59.5457 16.197 59.4976 16.276C59.584 16.3406 59.6907 16.3737 59.7997 16.3421C59.832 16.3323 59.8673 16.318 59.8967 16.2978C59.7824 16.2406 59.6937 16.1474 59.6389 16.0324ZM59.965 16.9945C60.0162 17.1734 60.1372 17.2959 60.316 17.3575C60.5671 17.4304 60.8128 17.3334 60.9466 17.111C60.752 17.1012 60.5934 16.987 60.4821 16.8366C60.3386 16.9674 60.1552 17.0275 59.965 16.9952V16.9945ZM60.9617 17.9723C60.885 17.9625 60.8083 17.943 60.7384 17.9107C60.6144 17.8528 60.513 17.7618 60.4303 17.6544C60.2537 17.8009 60.0304 17.8859 59.8004 17.8415C59.8794 17.9956 60.0041 18.1166 60.1657 18.1827C60.1792 18.1888 60.1943 18.1925 60.2078 18.197C60.3273 18.2361 60.4393 18.2436 60.5641 18.2263L60.5904 18.2218C60.6858 18.2008 60.7625 18.1685 60.8414 18.1113L60.8624 18.094C60.9045 18.0572 60.9301 18.0196 60.9609 17.9723H60.9617ZM61.5148 17.5446C61.5276 17.5228 61.5419 17.5026 61.5531 17.4785C61.369 17.4477 61.2052 17.3575 61.0797 17.2207C60.9662 17.4041 60.7873 17.5236 60.5723 17.5522C60.7264 17.7634 60.9654 17.8348 61.2179 17.7588C61.342 17.7153 61.4359 17.6491 61.5148 17.5446ZM60.543 16.551C60.6152 16.5428 60.67 16.5195 60.7294 16.4751C60.7595 16.4511 60.7873 16.424 60.8113 16.3925C60.6813 16.3609 60.5678 16.2827 60.4769 16.185C60.3897 16.2684 60.2815 16.3301 60.159 16.3429C60.2439 16.4721 60.3844 16.5593 60.543 16.551ZM61.6854 16.7074C61.7486 16.7698 61.8177 16.8216 61.8951 16.8705C61.9327 16.6713 61.9808 16.4744 62.0274 16.2782C62.0109 16.2737 61.9921 16.2662 61.9748 16.2594C61.9319 16.4406 61.7982 16.5743 61.6291 16.6435C61.6463 16.666 61.6659 16.6856 61.6854 16.7074ZM61.5366 16.4879C61.6576 16.4473 61.7561 16.3737 61.8019 16.2376C61.6614 16.2482 61.5291 16.1873 61.4209 16.1008C61.3532 16.2384 61.2375 16.3474 61.0872 16.3872C61.1759 16.4646 61.2886 16.5157 61.4051 16.5105C61.4494 16.5082 61.496 16.5007 61.5366 16.4872V16.4879ZM61.5171 16.7773C61.4494 16.9126 61.3239 17.0208 61.1841 17.0741C61.3435 17.2455 61.59 17.3575 61.8237 17.2914C61.8357 17.2132 61.8448 17.1328 61.8605 17.0539C61.729 16.9847 61.6118 16.8915 61.5171 16.7773ZM61.2878 17.9317C61.2781 17.9347 61.2675 17.9392 61.2585 17.9415C61.2946 17.97 61.3382 17.9896 61.3818 18.0076C61.5238 18.0542 61.6779 18.0685 61.8282 18.0467C61.8027 17.9377 61.7944 17.8257 61.7944 17.716C61.7531 17.6799 61.7185 17.6378 61.6862 17.5965C61.5997 17.7581 61.4569 17.8686 61.2878 17.9325V17.9317ZM62.0665 15.8295C61.9447 15.825 61.8275 15.7747 61.7305 15.7063C61.6779 15.8107 61.6065 15.8949 61.5013 15.952C61.6426 16.0715 61.8087 16.1129 61.9695 15.9866C62.0101 15.9423 62.0492 15.8904 62.0665 15.8295ZM61.5719 15.2891C61.5336 15.3275 61.5066 15.3553 61.4569 15.3808C61.6764 15.5146 61.8448 15.3966 61.9289 15.1907C61.8403 15.1862 61.7674 15.1584 61.6907 15.1163C61.6576 15.1794 61.6215 15.2358 61.5719 15.2891ZM61.1075 15.2448C61.2878 15.3147 61.4261 15.2478 61.5246 15.0772C61.3848 15.0817 61.251 15.011 61.1465 14.9246C61.106 15.0163 61.0421 15.087 60.9504 15.1335C60.997 15.1824 61.0466 15.2162 61.1082 15.2448H61.1075ZM61.7794 14.975C61.9793 15.087 62.1679 15.0186 62.21 14.7818C62.1131 14.8036 62.0327 14.7743 61.947 14.7284C61.9079 14.8231 61.8598 14.9058 61.7794 14.975ZM62.2769 15.6138C62.2724 15.5454 62.2747 15.4785 62.2807 15.4109C62.2003 15.3913 62.1311 15.35 62.0665 15.2944C62.0146 15.4094 61.9312 15.5063 61.8155 15.562C61.9207 15.6424 62.0537 15.692 62.174 15.6484C62.2003 15.6386 62.2469 15.6243 62.2769 15.6146V15.6138ZM60.6122 15.447C60.7422 15.6243 60.9248 15.6995 61.1022 15.5372C61.136 15.5063 61.1586 15.4763 61.1826 15.4372C61.0533 15.4237 60.9406 15.359 60.8504 15.2703C60.788 15.359 60.7204 15.4176 60.6114 15.447H60.6122ZM59.7726 15.7995C59.8628 15.7949 59.941 15.7499 60.0041 15.6875C59.9575 15.6702 59.9139 15.6424 59.8771 15.6116C59.8433 15.6747 59.8087 15.7371 59.7726 15.7987V15.7995ZM60.2815 15.1914C60.3521 15.2703 60.4468 15.3139 60.5543 15.2914C60.5851 15.2809 60.6152 15.2711 60.6407 15.25C60.6708 15.2275 60.6956 15.2042 60.7181 15.1734C60.6024 15.1523 60.5069 15.0892 60.434 15.0013C60.3784 15.0637 60.3078 15.1057 60.2198 15.1155C60.2371 15.1456 60.2574 15.1666 60.2807 15.1914H60.2815ZM59.9538 15.462C60.0011 15.5176 60.077 15.5462 60.1514 15.5522C60.2424 15.5522 60.3093 15.5108 60.3641 15.4417C60.2957 15.4169 60.2401 15.3846 60.1853 15.338C60.1402 15.2914 60.1063 15.2515 60.0733 15.1982C60.0372 15.2891 59.9966 15.3726 59.9538 15.4627V15.462ZM58.991 20.0091C59.0053 20.0361 59.0203 20.0647 59.0376 20.094C59.3502 20.6231 60.0522 20.8614 60.6182 20.6419C60.782 20.5788 60.9181 20.4811 61.0293 20.3451C61.0631 20.3007 61.0917 20.2601 61.1172 20.2105C60.9985 20.2007 60.8872 20.1744 60.779 20.1278C60.555 20.0309 60.3739 19.8618 60.2409 19.6551C60.1146 19.8017 59.965 19.9182 59.7884 19.9941C59.5344 20.1038 59.248 20.1083 58.991 20.0083V20.0091ZM61.3901 19.0178C61.3427 18.9982 61.2999 18.9772 61.2585 18.9486C61.1683 19.2034 60.9977 19.3838 60.7527 19.495C60.6377 19.5416 60.5265 19.5657 60.401 19.5732C60.5768 19.8415 60.8685 20.0414 61.1946 20.0414C61.2675 20.0414 61.3344 20.0316 61.4043 20.0174C61.3946 19.9978 61.3818 19.9783 61.3728 19.958C61.263 19.6491 61.2412 19.3274 61.3893 19.0178H61.3901ZM57.8614 18.8148C57.8366 18.8659 57.8155 18.9185 57.7915 18.9712C57.9508 18.9486 58.1034 18.8862 58.2326 18.7938C58.1424 18.7216 58.0688 18.639 58.0042 18.5458C57.9546 18.6337 57.9064 18.7246 57.8614 18.8148ZM57.4397 20.5232C57.5246 20.4668 57.6013 20.4037 57.6667 20.3285C57.5893 20.2992 57.5194 20.2609 57.4495 20.2173C57.4435 20.3195 57.4375 20.421 57.4397 20.5239V20.5232ZM57.4675 20.0234C57.6907 20.1992 57.9688 20.2549 58.2432 20.1842C58.4446 20.1354 58.6114 20.0256 58.7618 19.8873C58.4679 19.6776 58.3018 19.3657 58.2402 19.0125C58.0778 19.0989 57.8952 19.1493 57.7103 19.153C57.596 19.4371 57.5111 19.7212 57.4668 20.0226L57.4675 20.0234ZM59.3262 18.8223C59.2338 18.8832 59.1375 18.9313 59.0331 18.9614C58.867 19.008 58.6919 19.0057 58.5288 18.9516C58.4844 18.9373 58.4408 18.9178 58.3995 18.8982C58.4393 19.256 58.5904 19.5799 58.9128 19.7731C59.1879 19.9354 59.5449 19.943 59.826 19.7874C59.938 19.7235 60.0327 19.6438 60.1146 19.5461C59.8636 19.483 59.6509 19.3462 59.4953 19.1388C59.4194 19.0395 59.3698 18.9366 59.3262 18.8223ZM57.8508 20.3744C57.9335 20.7246 58.1214 21.0418 58.4318 21.2312C58.5859 21.3289 58.761 21.3845 58.9414 21.392C59.3465 21.4063 59.6825 21.1801 59.9335 20.8824C59.5637 20.8193 59.2315 20.6367 58.997 20.339C58.9331 20.2594 58.873 20.1466 58.8249 20.0549C58.6949 20.1617 58.5618 20.2744 58.4017 20.3278C58.2221 20.3886 58.0372 20.4037 57.8516 20.3744H57.8508ZM61.6073 20.3451C61.59 20.3398 61.5742 20.3375 61.5584 20.333C61.466 20.3135 61.3788 20.2812 61.2931 20.2398C61.2209 20.3886 61.127 20.5179 60.997 20.6246C60.7745 20.8103 60.5017 20.8952 60.2146 20.902C60.3814 21.0463 60.5678 21.1432 60.7888 21.1658C61.1638 21.2049 61.5291 20.9756 61.6524 20.6201C61.6749 20.5547 61.6914 20.4961 61.6967 20.4277C61.6749 20.4007 61.6524 20.3766 61.6291 20.3503L61.6073 20.3451ZM71.332 18.8689C71.3584 18.8915 71.3974 18.9028 71.4523 18.9471C71.671 19.159 71.804 19.3815 71.8168 19.6927C71.8078 19.7971 71.7785 19.8768 71.7319 19.9723C71.895 20.0234 72.0355 20.0264 72.1558 19.97C72.1505 19.9557 72.1558 19.9527 72.1483 19.9384C72.0265 19.6341 71.8875 19.359 71.6853 19.0967C71.6161 19.0275 71.4981 18.8562 71.3907 18.7818C71.3591 18.8404 71.332 18.8667 71.332 18.8689ZM69.8364 14.5826C69.8071 14.5759 69.7778 14.5691 69.7492 14.5744C69.762 14.6781 69.7763 14.7728 69.792 14.8727C69.8364 14.7983 69.9093 14.739 69.9897 14.7051C69.9491 14.651 69.8995 14.6089 69.8364 14.5834V14.5826ZM70.0701 15.0794C70.1333 15.0043 70.1896 14.9795 70.2776 14.9472C70.231 14.878 70.1829 14.8427 70.0972 14.8464C70.0138 14.8585 69.9657 14.9051 69.9266 14.978C69.9852 15.0065 70.0295 15.0313 70.0701 15.0794ZM70.606 14.5684C70.5068 14.5105 70.3993 14.521 70.3024 14.5796C70.258 14.6074 70.2189 14.645 70.1926 14.6924C70.2701 14.7119 70.349 14.7563 70.3993 14.8186C70.4632 14.739 70.5406 14.6984 70.6353 14.6713C70.6263 14.6368 70.6165 14.6022 70.606 14.5684ZM70.7669 15.0614L70.6819 14.8299C70.609 14.8479 70.5729 14.8773 70.5241 14.9351C70.6203 14.9472 70.697 14.9907 70.7669 15.0606V15.0614ZM70.4286 15.0915C70.3144 15.1012 70.2415 15.1373 70.1686 15.2275C70.249 15.2515 70.3272 15.3072 70.3805 15.3718C70.4595 15.2801 70.5744 15.2328 70.694 15.2222C70.6263 15.1298 70.5361 15.093 70.4286 15.0915ZM69.898 15.2425C69.9198 15.2298 69.9386 15.2222 69.9642 15.2155C69.9348 15.1786 69.9033 15.1426 69.8597 15.1223C69.8672 15.1666 69.8717 15.208 69.877 15.2515C69.883 15.247 69.8913 15.2448 69.8988 15.2425H69.898ZM69.9386 16.0843C70.0198 16.0219 70.1025 15.9911 70.2024 15.9843C70.1273 15.8844 70.01 15.8566 69.8928 15.8949C69.886 15.9896 69.8732 16.0828 69.8567 16.1752C69.88 16.1414 69.9078 16.1121 69.9386 16.0843ZM69.9514 15.4131C69.9296 15.4274 69.9153 15.4447 69.8995 15.4642C69.9025 15.5093 69.9025 15.5567 69.9025 15.6033C69.9897 15.5146 70.0882 15.4627 70.2092 15.45C70.1784 15.4109 70.143 15.3989 70.11 15.3876C70.0559 15.3695 70.0055 15.3771 69.9514 15.4131ZM70.8841 17.4199C70.8909 17.3988 70.9059 17.3537 70.9134 17.3327C70.8894 17.3455 70.8428 17.3755 70.821 17.3876C70.83 17.3921 70.8743 17.4154 70.8841 17.4199ZM70.7578 17.5537C70.6504 17.5236 70.5384 17.5491 70.4392 17.5927C70.3813 17.6213 70.3249 17.6514 70.2708 17.6882C70.249 17.7017 70.222 17.7205 70.2024 17.737C70.349 17.7927 70.497 17.8829 70.6353 17.9558C70.6601 17.9174 70.6894 17.8746 70.7112 17.8332C70.7526 17.7521 70.7947 17.6664 70.8285 17.5815C70.8112 17.5687 70.7789 17.5619 70.7586 17.5544L70.7578 17.5537ZM70.1859 17.5394C70.2513 17.4943 70.3287 17.4522 70.4046 17.4229C70.4602 17.3996 70.5481 17.3628 70.612 17.3628C70.585 17.3079 70.5564 17.2688 70.5166 17.223L70.5008 17.2012C70.4534 17.1561 70.4106 17.1253 70.3497 17.1012C70.3347 17.0959 70.3129 17.0914 70.2956 17.0869C70.2062 17.0772 70.128 17.0914 70.0446 17.1305C70.004 17.1523 69.9649 17.1771 69.9251 17.2087C69.9469 17.2207 69.9664 17.2305 69.9845 17.2455C70.028 17.2771 70.0604 17.3109 70.0919 17.3545L70.1085 17.3778C70.1378 17.4296 70.1693 17.48 70.1866 17.5394H70.1859ZM70.022 17.6611C69.995 17.5537 69.9446 17.4342 69.8537 17.365C69.7477 17.3004 69.6305 17.3132 69.5207 17.362C69.4794 17.3838 69.4283 17.4199 69.3907 17.4469C69.6049 17.5101 69.8078 17.5709 70.022 17.6611ZM69.8371 16.3601C69.8274 16.3556 69.8229 16.3526 69.8153 16.3489C69.8018 16.4067 69.7988 16.4609 69.7665 16.5135C69.8424 16.4962 69.9131 16.5037 69.9905 16.518C69.9544 16.4496 69.9033 16.3962 69.8371 16.3594V16.3601ZM70.3633 16.8246C70.4948 16.7547 70.6556 16.7329 70.7992 16.772C70.6729 16.5518 70.4219 16.4736 70.2077 16.6187C70.2731 16.6705 70.3287 16.7457 70.3633 16.8246ZM70.936 17.0298C70.8653 16.9697 70.7856 16.9276 70.6902 16.9201C70.6271 16.9163 70.5737 16.9238 70.5128 16.9434C70.4985 16.9494 70.4858 16.9546 70.4707 16.9614L70.4948 16.9757C70.5729 17.023 70.6286 17.0802 70.6849 17.1508C70.7045 17.1786 70.7233 17.2072 70.7383 17.238C70.8014 17.1997 70.8743 17.1531 70.948 17.132C70.9525 17.1042 70.9698 17.0944 70.975 17.0651C70.9675 17.0576 70.9435 17.0358 70.936 17.0283V17.0298ZM69.3794 17.12C69.3328 17.1809 69.2968 17.2448 69.2532 17.3049L69.2291 17.3447C69.2532 17.3319 69.275 17.3229 69.275 17.3229C69.3313 17.2696 69.3945 17.2275 69.4651 17.1989C69.5147 17.1786 69.5606 17.1651 69.6139 17.1561C69.6432 17.1523 69.6733 17.1501 69.7019 17.1501C69.6891 17.132 69.6387 17.0704 69.5876 17.0298C69.5485 16.9967 69.5147 16.9825 69.4854 16.9772C69.4463 17.0298 69.4193 17.0674 69.3802 17.1207L69.3794 17.12ZM69.6162 16.784C69.6057 16.7983 69.5966 16.8133 69.5869 16.8276C69.6958 16.869 69.7808 16.9561 69.8424 17.0569C69.9206 16.9907 70.0085 16.9501 70.1055 16.9238C70.1445 16.9163 70.1821 16.9118 70.2197 16.9111C70.1273 16.6826 69.8672 16.6014 69.6598 16.7307C69.6477 16.7502 69.6305 16.7645 69.6162 16.784ZM70.1633 15.6303C70.1107 15.6491 70.0686 15.6732 70.025 15.713C70.1528 15.7266 70.2663 15.7882 70.343 15.8927C70.4106 15.8318 70.503 15.7957 70.5932 15.7829C70.503 15.6559 70.376 15.5995 70.2197 15.6198C70.2032 15.6221 70.1836 15.6258 70.1633 15.6303ZM70.7 15.9408C70.5955 15.934 70.5008 15.9693 70.4271 16.0407C70.5098 16.0896 70.5737 16.1677 70.612 16.2549C70.7142 16.182 70.8187 16.1504 70.9427 16.155C70.9021 16.0407 70.8217 15.9618 70.6992 15.9408H70.7ZM70.1468 16.4518C70.2415 16.3887 70.3655 16.3624 70.4782 16.3722C70.4534 16.303 70.4189 16.2451 70.361 16.1985C70.237 16.1084 70.0912 16.158 69.9957 16.2594C70.0596 16.309 70.1107 16.3789 70.1468 16.4511V16.4518ZM70.5947 15.4184C70.5609 15.4387 70.5361 15.4635 70.5046 15.4928C70.6 15.5334 70.6752 15.5995 70.727 15.6875C70.7849 15.6326 70.8533 15.5928 70.9284 15.5732C70.9142 15.5214 70.8991 15.4665 70.8849 15.4139C70.7917 15.3635 70.6879 15.3741 70.5947 15.4192V15.4184ZM70.9427 15.7499C70.9044 15.7656 70.8743 15.7919 70.8428 15.8182C70.9089 15.8468 70.9525 15.8746 71.0021 15.9287C70.9923 15.8648 70.9803 15.804 70.9675 15.7423C70.9578 15.7446 70.9502 15.7476 70.9435 15.7499H70.9427ZM71.0111 16.8111C71.0307 16.6495 71.0186 16.5007 71.0186 16.3383C70.8901 16.288 70.7676 16.3421 70.6646 16.4225C70.8307 16.4954 70.96 16.6397 71.0111 16.8111ZM62.3709 16.3383C62.304 16.3511 62.2371 16.3436 62.1687 16.3301C62.3528 16.5368 62.5723 16.7201 62.7234 16.9539C62.7722 17.0306 62.8008 17.1095 62.8128 17.1997L62.8158 17.2312C62.8128 17.3192 62.7888 17.4018 62.7579 17.4845C62.682 17.6521 62.567 17.7814 62.4235 17.8911C62.2657 18.0084 62.1469 18.0978 61.9733 18.1842C61.9259 18.2053 61.8966 18.2158 61.8463 18.2263C61.8425 18.2586 61.8373 18.2872 61.8297 18.3173C61.7704 18.5315 61.5915 18.7201 61.36 18.8096C61.3961 18.8381 61.4412 18.8622 61.4938 18.8772C61.6336 18.6705 61.8252 18.521 62.0883 18.3924C62.6302 18.1294 63.399 17.9497 63.2623 17.2162C63.1969 16.8697 62.8827 16.6938 62.6332 16.4616C62.5753 16.4007 62.5347 16.3579 62.4926 16.2932C62.4618 16.315 62.4092 16.3286 62.3724 16.3383H62.3709ZM61.7463 22.3097C62.1687 22.0609 62.4137 21.6814 62.4333 21.2184C62.1341 21.4394 61.7343 21.4912 61.3111 21.3619C61.1593 21.8783 60.776 22.2293 60.2454 22.336C60.7264 22.5938 61.2758 22.5848 61.7456 22.3097H61.7463ZM60.0635 21.0335C59.696 21.4694 59.2691 21.6648 58.8106 21.5867C59.0789 22.0369 59.5532 22.2639 60.0951 22.1955C60.6137 22.1293 60.9955 21.8031 61.1157 21.3402C60.7535 21.4379 60.3889 21.3334 60.0643 21.0335H60.0635ZM69.6049 17.7175C69.6928 17.8768 69.7221 18.0527 69.7267 18.3188C69.9093 18.2128 70.1265 18.0948 70.2257 17.973C70.0085 17.8716 69.8214 17.7889 69.6041 17.7168L69.6049 17.7175ZM66.9232 22.1391C66.8503 21.9196 66.6294 21.7054 66.337 21.5837C66.2949 21.7881 66.1762 21.9707 65.9807 22.1293C66.0071 22.1391 66.0341 22.1489 66.0341 22.1489C66.1927 22.2045 66.3776 22.2706 66.4843 22.3698C66.6406 22.312 66.7865 22.2338 66.9232 22.1391ZM65.5088 22.8741C65.7756 22.7652 66.0634 22.6111 66.2588 22.5014C66.1717 22.3916 65.9815 22.3037 65.7816 22.2451C65.762 22.4818 65.6673 22.696 65.5088 22.8734V22.8741ZM61.8575 22.4773C61.3269 22.7945 60.6558 22.8012 60.1161 22.5044C60.0658 22.6502 59.9868 22.7915 59.8967 22.9207C59.7681 23.1034 59.5968 23.2672 59.3999 23.3912C59.7065 23.5686 59.9914 23.6919 60.3499 23.8317C60.5355 23.8219 60.8414 23.7708 60.8805 23.7588C60.9947 23.7242 61.1075 23.6971 61.2187 23.634C61.6463 23.3935 62.0297 22.9568 62.0552 22.336C61.9943 22.3871 61.9267 22.433 61.8575 22.4773ZM64.5437 22.1534C64.7481 22.3465 64.9105 22.787 64.9413 23.0665C65.3231 22.908 65.5591 22.6374 65.6087 22.2954C65.6598 21.9519 65.5088 21.5912 65.2359 21.3672C65.1427 21.7062 64.9097 21.9707 64.5437 22.1541V22.1534ZM65.2697 20.7975C65.2833 20.9117 65.293 21.0162 65.2825 21.1312C65.4208 21.0944 65.5644 20.9531 65.638 20.8065C65.5478 20.8238 65.4531 20.8238 65.3607 20.8163C65.3269 20.814 65.3043 20.8065 65.2697 20.7975ZM61.3149 23.7828C61.4382 23.776 61.5614 23.7708 61.6817 23.7595C61.6742 23.6926 61.6614 23.628 61.6321 23.5618C61.5351 23.652 61.4261 23.7249 61.3149 23.7828ZM69.6786 21.7618C69.7853 21.8234 69.9025 21.8234 70.0175 21.7498C69.8477 21.6919 69.7034 21.5574 69.6282 21.3792C69.5891 21.4063 69.6109 21.3995 69.5613 21.4138C69.5493 21.501 69.511 21.6596 69.6786 21.7618ZM67.2599 21.8663C67.4433 21.7227 67.6793 21.5649 67.9228 21.3913C67.8056 21.2748 67.6425 21.1868 67.4576 21.1477C67.4599 21.162 67.4599 21.1748 67.4599 21.1898C67.4599 21.4228 67.3697 21.6506 67.2036 21.8445C67.2209 21.852 67.2427 21.8587 67.2599 21.8663ZM68.0709 21.2673C68.1047 21.2432 68.1401 21.2184 68.1739 21.1943C68.3069 21.1042 68.4437 21.0117 68.573 20.9313C68.5098 20.663 68.1912 20.4367 67.8131 20.3804C67.8131 20.5998 67.7395 20.814 67.6034 20.9816C67.7891 21.0237 67.9522 21.1252 68.0709 21.2665V21.2673ZM69.3283 19.0095C69.4471 18.8885 69.5207 18.7081 69.547 18.4736C69.5816 18.1346 69.5162 17.8212 69.3847 17.6724C69.3088 17.6236 69.1382 17.5755 69.0653 17.5627C69.0608 17.8009 68.963 17.9836 68.8052 18.1444C68.8022 18.2586 68.7616 18.4278 68.691 18.5473C68.9826 18.5878 69.2096 18.7487 69.3291 19.0087L69.3283 19.0095ZM66.5632 20.2714C66.6925 20.0452 66.7023 19.7769 66.6166 19.6536C66.4069 19.607 66.2025 19.5431 65.986 19.4755C66.0123 19.5536 66.0296 19.6386 66.0296 19.7363C66.0296 19.8295 66.0153 19.9234 65.983 20.0166C66.219 20.0286 66.4212 20.1188 66.5625 20.2721L66.5632 20.2714ZM65.9447 20.6585C66.2025 20.8704 66.349 21.1139 66.3565 21.3792C66.4347 21.3108 66.4956 21.25 66.5347 21.1658C66.6106 21.0049 66.6226 20.8291 66.5903 20.6908C66.5294 20.4646 66.3295 20.2105 65.9725 20.1865C66.077 20.3248 66.113 20.4743 65.9672 20.6329C65.9552 20.6449 65.9574 20.6472 65.9454 20.6592L65.9447 20.6585ZM67.4185 20.9215C67.5967 20.7246 67.6718 20.4758 67.623 20.2308C67.5696 19.967 67.3787 19.7603 67.1187 19.6844C67.033 19.7062 66.9413 19.7039 66.8361 19.6919C66.8481 19.7475 66.8556 19.8084 66.8556 19.8761C66.8556 20.0271 66.8218 20.1947 66.7511 20.327C67.0848 20.4097 67.3261 20.6269 67.4185 20.9208V20.9215ZM67.7936 20.2038C68.0145 19.9865 68.1025 19.6972 68.0198 19.4221C67.9642 19.232 67.8297 19.1057 67.653 19.0132C67.6237 19.2665 67.5132 19.4695 67.3283 19.5905C67.5666 19.7145 67.7395 19.9339 67.7936 20.2045V20.2038ZM68.2302 19.6295C68.2302 19.8483 68.1468 20.07 67.9958 20.2526C68.3099 20.3157 68.5827 20.5187 68.6947 20.7667C68.8699 20.5863 68.9285 20.3157 68.8435 20.0429C68.7488 19.7483 68.5098 19.5514 68.2197 19.5168C68.225 19.5536 68.2302 19.5897 68.2302 19.6288V19.6295ZM68.9991 19.949C69.2186 19.7363 69.2937 19.4123 69.1795 19.1147C69.075 18.8396 68.8435 18.6961 68.5249 18.7111C68.5294 18.7479 68.5294 18.7818 68.5294 18.8193C68.5294 19.0125 68.4715 19.2011 68.3633 19.3612C68.6947 19.4454 68.9074 19.6731 68.9991 19.949ZM68.1664 19.3349C68.4219 19.0132 68.3858 18.6036 68.1882 18.3579C67.9837 18.3774 67.7958 18.3744 67.5839 18.3721V18.3992C67.5794 18.5315 67.5425 18.657 67.4809 18.766C67.8124 18.8494 68.0611 19.0463 68.1656 19.3342L68.1664 19.3349ZM68.3776 18.3368C68.4212 18.4097 68.461 18.4744 68.482 18.5563C68.5527 18.4698 68.6015 18.3601 68.6158 18.2534C68.5407 18.2925 68.467 18.3188 68.3776 18.3376V18.3368ZM69.4959 20.5081C69.6906 20.3811 69.8199 20.1301 69.8078 19.8437C69.7951 19.5484 69.6417 19.3236 69.3817 19.2102C69.3982 19.2816 69.4057 19.3537 69.4057 19.4266C69.4057 19.6649 69.3321 19.8701 69.1788 20.0354C69.4012 20.1669 69.4741 20.3451 69.4959 20.5081ZM69.0232 22.318C68.7428 22.6735 68.8841 22.9846 68.9525 23.1041C69.081 23.3086 69.296 23.4303 69.4907 23.413C69.3952 23.1522 69.4072 22.8584 69.5147 22.6073C69.302 22.6028 69.1412 22.5051 69.0224 22.318H69.0232ZM68.5993 21.1726C68.585 21.1921 68.5722 21.2139 68.5625 21.2357C68.5189 21.3432 68.5046 21.4529 68.5797 21.5799C68.6136 21.4311 68.6872 21.3214 68.7984 21.2387C68.7864 21.1974 68.7894 21.171 68.7894 21.129C68.7894 21.1019 68.7939 21.0779 68.7984 21.0515C68.7331 21.0921 68.6692 21.129 68.5993 21.1726ZM69.3298 20.6028C69.3125 20.4225 69.2299 20.2661 69.054 20.1737C69.0615 20.2225 69.0472 20.2782 69.0472 20.3225C69.0472 20.4833 69.0036 20.6292 68.93 20.7487C69.0833 20.6705 69.2201 20.6171 69.3298 20.6028ZM69.3899 21.9565C69.3899 21.9234 69.393 21.8881 69.3975 21.852C69.2877 21.8024 69.1983 21.7543 69.1464 21.6686C69.0938 21.7347 69.0833 21.7858 69.0765 21.8542C69.0638 21.9617 69.0886 22.0752 69.1449 22.1737C69.2186 22.312 69.3494 22.4487 69.5493 22.4397C69.435 22.2977 69.3899 22.1519 69.3899 21.9572V21.9565ZM64.3528 20.3225L64.3957 20.3097C64.2957 20.2301 64.198 20.1496 64.1025 20.0767C64.0589 20.0489 64.0176 20.0196 63.971 19.9986C63.9688 20.2353 64.0883 20.3616 64.2393 20.5224C64.2897 20.4563 64.3325 20.3856 64.3521 20.3225H64.3528ZM65.399 21.2748C65.62 21.501 65.7545 21.7813 65.7786 22.0639C66.0153 21.9204 66.1536 21.7235 66.1732 21.501C66.1927 21.2522 66.0634 20.9974 65.8319 20.8238C65.7741 20.9606 65.6012 21.1898 65.399 21.2748ZM64.4565 22.0128C64.9428 21.7881 65.1826 21.3522 65.1074 20.8065L65.0901 20.7434C64.8639 20.6705 64.7091 20.5562 64.5046 20.3969C64.4317 20.5638 64.2529 20.7945 64.1003 20.8674C64.3453 21.15 64.4761 21.4739 64.4761 21.7979C64.4761 21.8693 64.4693 21.9392 64.4565 22.0128ZM66.9631 21.8227C67.2186 21.5934 67.3261 21.2642 67.2382 20.9749C67.1683 20.7314 66.9706 20.5555 66.7 20.4879C66.7045 20.4946 66.7075 20.5074 66.7128 20.5142C66.7534 20.6239 66.7759 20.7359 66.7759 20.8501C66.7759 21.0763 66.6925 21.3003 66.5347 21.4709C66.7105 21.5514 66.8609 21.6754 66.9638 21.8219L66.9631 21.8227ZM67.399 18.3691C67.1773 18.3616 66.8293 18.3564 66.8293 18.5563C66.8699 18.7855 67.0262 18.8877 67.2118 18.9373C67.3261 18.9659 67.4088 18.9674 67.523 18.9727C67.387 18.9118 67.3163 18.9215 67.187 18.8629L67.2209 18.8141C67.3276 18.6803 67.3907 18.5307 67.399 18.3902V18.3684V18.3691ZM69.6109 23.6415C69.4846 23.7295 69.4012 23.8317 69.3599 23.9459C69.5327 23.9482 69.7109 23.9361 69.8882 23.9068C69.7838 23.8339 69.6868 23.7482 69.6109 23.6415ZM68.8435 23.2492C68.6196 23.3416 68.4971 23.5122 68.4708 23.77C68.697 23.8602 68.9277 23.9166 69.1848 23.9361C69.2336 23.77 69.3306 23.6588 69.4283 23.5784C69.2036 23.5686 68.9916 23.4484 68.8435 23.2492ZM67.6237 23.1785C67.7477 22.8869 67.9454 22.681 68.125 22.6081C67.9477 22.5044 67.8409 22.3503 67.8109 22.1188C67.5997 22.1068 67.3411 22.233 67.1758 22.3916C67.2802 22.6983 67.4313 22.9621 67.6237 23.1785ZM68.6782 23.1274C68.5031 23.0718 68.3513 22.9403 68.2618 22.7471C68.0176 22.811 67.8327 23.059 67.7605 23.2883L67.7485 23.3101C67.9146 23.4702 68.089 23.5994 68.2941 23.6994C68.364 23.398 68.5234 23.2176 68.6782 23.1274ZM67.7094 21.9467C67.6756 21.9174 67.6703 21.8828 67.6485 21.8415C67.5441 21.9196 67.4486 21.9955 67.3614 22.0609C67.4907 22 67.6019 21.9617 67.7094 21.9474V21.9467ZM69.1344 21.2815C69.0683 21.2184 69.0638 21.1913 69.0269 21.138C69.0172 21.2041 69.0292 21.3304 69.0856 21.3868C69.0976 21.3477 69.1224 21.3063 69.1344 21.2823V21.2815ZM70.7586 19.265C70.9337 19.4416 71.0141 19.6791 71.0141 19.9159C71.0141 20.0354 70.9871 20.1647 70.936 20.2834C71.2779 20.3203 71.5012 20.103 71.5966 19.8452C71.6823 19.5867 71.6064 19.2537 71.2238 18.9929C71.0795 19.1418 70.9435 19.2139 70.7586 19.2658V19.265ZM71.6695 20.106C71.5199 20.3248 71.2885 20.4563 71.0262 20.4615C71.0329 20.5104 71.0382 20.5615 71.0382 20.6081C71.0382 20.8832 70.9284 21.0809 70.7819 21.2071C71.1381 21.4191 71.4824 21.3026 71.6733 21.1004C71.8679 20.8982 71.9807 20.5352 71.6695 20.1068V20.106ZM71.6297 21.3725C71.3937 21.5115 71.0697 21.5581 70.733 21.3898C70.597 21.6866 70.3926 21.7595 70.2603 21.7723C70.4211 22.0887 70.7699 22.1594 71.0502 22.0963C71.3523 22.0083 71.6319 21.7723 71.6297 21.3725ZM69.9664 20.7983C69.91 20.8321 69.8499 20.8539 69.7838 20.8682C69.8041 20.917 69.8176 20.9531 69.8176 21.0095C69.8176 21.0215 69.8131 21.0313 69.8108 21.041C69.9085 21.0042 69.9612 20.929 69.9664 20.7975V20.7983ZM69.6087 20.6637C69.6425 20.6855 69.6523 20.6735 69.6771 20.7028C69.8176 20.6833 69.9687 20.5713 70.0175 20.4518C70.0468 20.3375 70.0243 20.2496 69.9679 20.1083C69.9176 20.3375 69.7808 20.5367 69.6079 20.663L69.6087 20.6637ZM67.88 21.6693C67.8454 21.6942 67.8139 21.7159 67.7823 21.74C67.7951 21.7716 67.8094 21.7964 67.8266 21.8174C67.8387 21.7671 67.8575 21.7152 67.88 21.6686V21.6693ZM69.399 21.4213C69.3456 21.4213 69.3163 21.4213 69.2727 21.392C69.2509 21.5311 69.2629 21.5822 69.3869 21.6656C69.3531 21.5604 69.3599 21.5145 69.399 21.4213ZM68.3565 21.4334C68.101 21.5453 67.9694 21.7693 67.9747 22.0203C67.9792 22.2127 68.0619 22.3473 68.1889 22.4442C68.1859 22.4172 68.1859 22.3931 68.1859 22.3661C68.1859 22.1301 68.2806 21.9234 68.4805 21.758C68.3948 21.6438 68.3655 21.5461 68.3565 21.4341V21.4334ZM68.579 21.9136C68.3422 22.1278 68.3249 22.3736 68.3881 22.5833C68.4475 22.7704 68.5715 22.8884 68.7098 22.9636C68.6887 22.8877 68.6887 22.8539 68.6887 22.7779C68.6887 22.6096 68.7293 22.4269 68.8345 22.2714C68.7075 22.1722 68.6203 22.0519 68.579 21.9136ZM68.7293 21.8031C68.7466 21.9249 68.7969 22.0226 68.9217 22.1075C68.8954 22.0346 68.9052 22.0053 68.9052 21.9279C68.9052 21.7934 68.9458 21.6648 69.0217 21.5596C68.9555 21.5063 68.9172 21.4499 68.8954 21.3935C68.7519 21.4912 68.7098 21.6506 68.7293 21.8024V21.8031ZM70.5248 19.3191C70.476 19.592 70.3167 19.8452 70.0859 19.9738C70.1663 20.1158 70.2002 20.2421 70.2002 20.3661C70.2002 20.442 70.1866 20.5149 70.1543 20.5803C70.1438 20.5998 70.134 20.6194 70.1227 20.6367C70.4294 20.663 70.6609 20.4608 70.7608 20.2301C70.8706 19.9813 70.8646 19.6062 70.5248 19.3191ZM70.8307 20.4683C70.6684 20.6908 70.4144 20.8148 70.134 20.802C70.1205 20.9418 70.0784 21.0583 69.9935 21.1312C70.1663 21.25 70.3903 21.2334 70.5572 21.1477C70.7421 21.0433 70.9097 20.8043 70.8315 20.4683H70.8307ZM70.5609 21.3402C70.3813 21.4108 70.1881 21.404 70.0175 21.3356C69.9491 21.3063 69.8792 21.2725 69.8229 21.2191C69.8063 21.2049 69.8018 21.1921 69.7793 21.1853C69.7665 21.2161 69.7695 21.2064 69.75 21.2342L69.7793 21.2778C69.8379 21.4702 70.0468 21.6092 70.2392 21.6017C70.3858 21.5964 70.4903 21.5115 70.5609 21.3409V21.3402ZM70.4399 23.3552C70.3369 23.4769 70.2227 23.7031 70.1716 23.8467C70.4151 23.7858 70.6368 23.6979 70.8608 23.5716C70.7075 23.5348 70.5587 23.4649 70.4399 23.3552ZM70.839 22.2879C70.5639 22.2781 70.2843 22.1737 70.1137 21.8858C69.9386 21.9985 69.7485 22.0031 69.5846 21.9008C69.5748 21.8956 69.5726 21.8881 69.5628 21.8813C69.5222 22.215 69.7267 22.4608 69.9717 22.5585C70.2453 22.6682 70.603 22.6118 70.839 22.2879ZM70.3227 23.2229C70.2295 23.0989 70.1663 22.9501 70.1528 22.7749C70.0746 22.7659 69.9987 22.7479 69.9281 22.7216C69.8454 22.69 69.7695 22.6434 69.7019 22.5946C69.5846 22.8726 69.5651 23.1357 69.6485 23.3567C69.7086 23.525 69.8281 23.6663 69.9912 23.7663C70.0694 23.5596 70.2084 23.3304 70.3227 23.2229ZM70.939 22.4457C70.7684 22.6629 70.5617 22.7629 70.3377 22.7772C70.352 22.9643 70.4377 23.0883 70.5256 23.171C70.6834 23.3176 70.9059 23.4025 71.1163 23.3957C71.2216 23.3176 71.3238 23.2364 71.4162 23.1462C71.2697 23.0267 71.0825 22.8155 70.939 22.445V22.4457ZM71.1284 22.2706C71.1051 22.2781 71.09 22.2826 71.0675 22.2879C71.2216 22.6923 71.414 22.8967 71.5575 23.0139C71.7274 22.8283 71.8597 22.6464 71.9747 22.43C71.8086 22.3563 71.6094 22.2278 71.4673 22.106C71.3696 22.1759 71.2576 22.2398 71.1284 22.2714V22.2706ZM72.0348 20.666C72.0348 20.8772 71.9859 21.0433 71.8379 21.2041C71.8251 21.2161 71.8108 21.2304 71.7958 21.2432C71.9709 21.3499 72.1197 21.3868 72.2971 21.3236L72.3211 21.3093C72.3745 20.8975 72.3407 20.5254 72.2242 20.1451C72.131 20.1857 72.0265 20.194 71.9123 20.1842C71.9957 20.3375 72.034 20.5127 72.034 20.666H72.0348ZM71.7988 21.4965C71.7883 21.6911 71.7206 21.8257 71.5989 21.9617C71.7056 22.0512 71.8957 22.1782 72.0536 22.2586C72.1656 22.0203 72.2385 21.7934 72.2873 21.5401C72.1242 21.5769 71.9611 21.5649 71.798 21.4965H71.7988ZM65.4584 19.7581C65.5486 19.8407 65.6824 19.9332 65.7989 20.0354C65.9139 19.7551 65.8455 19.5266 65.7432 19.4251C65.7117 19.4168 65.6824 19.4086 65.6501 19.3988C65.3239 19.3492 65.2389 19.5191 65.4576 19.7581H65.4584ZM70.3933 18.0527C70.3167 18.1549 70.1791 18.2301 70.0378 18.3549C70.3392 18.4834 70.5196 18.7389 70.5436 19.0696C70.5466 19.0907 70.5466 19.114 70.5466 19.1365C70.8413 19.1072 71.1194 18.908 71.2659 18.6517C70.9931 18.3676 70.6955 18.2038 70.3933 18.0527ZM57.448 20.7419C57.4961 21.2357 57.6712 21.6942 57.9576 22.1083C58.2063 22.0279 58.4686 21.855 58.5919 21.5356C58.174 21.392 57.8335 21.0358 57.6968 20.5788C57.6111 20.6487 57.5337 20.6983 57.448 20.7419ZM64.7767 23.1477C64.7714 22.8779 64.5941 22.4367 64.3919 22.2466C64.2333 22.6442 63.8733 22.941 63.4066 23.0553C63.5058 23.1718 63.5907 23.3281 63.6441 23.4596C64.0417 23.3694 64.419 23.2672 64.7767 23.1477ZM63.4614 23.501C63.4013 23.3522 63.2953 23.1845 63.1788 23.0748C63.1721 23.0846 63.163 23.0974 63.1548 23.1071C62.8481 23.5115 62.3506 23.7031 61.844 23.628C61.8515 23.6716 61.8538 23.7084 61.8568 23.7452C62.4438 23.7347 62.9661 23.631 63.4614 23.501ZM59.9808 22.3864C59.4382 22.4104 58.9512 22.1639 58.6994 21.7332C58.5551 22.0068 58.3003 22.1744 58.0695 22.2646C58.3694 22.6494 58.7633 22.9982 59.2398 23.2973C59.4179 23.1921 59.7967 22.9222 59.9808 22.3864ZM63.021 22.9854C63.2938 22.6179 63.3374 22.1376 63.1428 21.758C62.9594 22.0406 62.643 22.2112 62.2439 22.2526C62.2401 22.7193 62.071 23.1289 61.7959 23.4333C62.2972 23.5333 62.7324 23.3702 63.021 22.9854ZM63.3021 21.6385C63.3938 21.8385 63.4419 22.0504 63.4419 22.2593C63.4419 22.4803 63.3893 22.6998 63.2878 22.8974C63.7485 22.8238 64.0973 22.554 64.2356 22.1519C64.2777 22.0324 64.2979 21.9061 64.2979 21.7843C64.2979 21.507 64.195 21.2364 64.0026 21.0275C63.8831 21.3199 63.6373 21.5341 63.3021 21.6385ZM62.7008 20.0061C62.5558 19.9896 62.5265 19.9918 62.4633 20.1256C62.4047 20.3766 62.3814 20.6171 62.2687 20.8539C62.1236 20.817 61.9785 20.7178 61.8448 20.5938C61.7831 20.8494 61.6336 21.0681 61.4186 21.2071C61.7899 21.3101 62.1251 21.2507 62.3701 21.044C62.6377 20.817 62.7722 20.4352 62.7113 20.0677C62.7113 20.0437 62.7046 20.0189 62.7001 20.0068L62.7008 20.0061ZM62.6242 21.0388C62.6407 21.4228 62.534 21.7768 62.3243 22.0594C62.8293 21.9745 63.0225 21.6987 63.0962 21.4754C63.2104 21.1214 63.0864 20.7103 62.8865 20.454C62.8459 20.6788 62.7572 20.8779 62.6234 21.0388H62.6242ZM63.8936 20.7855C63.8515 21.0343 63.6358 21.3402 63.2743 21.4499C63.2998 21.3574 63.3126 21.2575 63.3126 21.1605C63.3126 20.8238 63.1713 20.4781 62.9135 20.2203V20.1399C63.2329 20.3932 63.4915 20.8381 63.8936 20.7847V20.7855ZM70.0108 14.285C69.9281 14.2978 69.8619 14.3301 69.8138 14.4008C69.9183 14.4173 70.0138 14.4774 70.0822 14.5578C70.1258 14.4917 70.1911 14.4466 70.2618 14.412C70.2009 14.3173 70.1258 14.2722 70.0108 14.285ZM70.488 13.4665C70.5226 13.4808 70.5549 13.5034 70.5835 13.5274C70.5932 13.4808 70.6045 13.4387 70.6173 13.3936C70.5684 13.4079 70.5248 13.4327 70.488 13.4665ZM70.4858 13.916C70.4985 13.9205 70.5324 13.9348 70.5436 13.9385C70.5466 13.9265 70.5466 13.8912 70.5489 13.8776C70.5271 13.8852 70.4978 13.9009 70.4858 13.916ZM70.4933 14.3609C70.5166 14.3617 70.5519 14.3707 70.576 14.3752C70.5714 14.3534 70.5684 14.3158 70.5639 14.2925C70.5466 14.3106 70.5098 14.3429 70.4933 14.3609ZM70.2227 14.1046C70.2084 14.1159 70.1934 14.1257 70.1791 14.1415C70.2565 14.1708 70.3001 14.1918 70.355 14.2549C70.4008 14.1993 70.4519 14.1512 70.5106 14.1076C70.4061 14.0483 70.3257 14.04 70.2235 14.1046H70.2227ZM70.0423 13.807C69.9664 13.816 69.8965 13.8483 69.865 13.919C69.9281 13.9445 69.9792 13.9708 70.0378 14.0197C70.0867 13.9671 70.1566 13.922 70.228 13.8979C70.1791 13.8288 70.128 13.8047 70.0431 13.807H70.0423ZM70.6879 12.9261C70.6316 12.9404 70.585 12.9645 70.5542 13.0133C70.603 13.0449 70.6466 13.0817 70.6804 13.1306C70.6977 13.0554 70.7075 12.999 70.7172 12.9224C70.7075 12.9239 70.6977 12.9246 70.6879 12.9261ZM70.3858 13.3373C70.4399 13.2884 70.4903 13.2613 70.5542 13.2411C70.5076 13.1712 70.4512 13.1321 70.3693 13.1351C70.3031 13.1403 70.255 13.1689 70.2159 13.2223C70.2813 13.2441 70.3324 13.2839 70.3858 13.3365V13.3373ZM69.9108 14.1339C69.868 14.1031 69.8071 14.064 69.7522 14.0565C69.7409 14.1242 69.7327 14.185 69.7312 14.2549C69.7778 14.1933 69.8379 14.1625 69.9108 14.1347V14.1339ZM70.4083 13.7544C70.4489 13.7273 70.4767 13.7213 70.5203 13.7003C70.4595 13.6229 70.3798 13.5875 70.2843 13.6153C70.2505 13.6259 70.2205 13.6447 70.1941 13.6695C70.255 13.6905 70.3084 13.7251 70.3572 13.795C70.3715 13.7807 70.3888 13.7672 70.4083 13.7544ZM70.0792 13.5454C70.1303 13.4906 70.1956 13.4688 70.2663 13.4507C70.2077 13.3899 70.1303 13.3575 70.0438 13.3515C70.0205 13.3959 70.0078 13.4222 69.986 13.4643C70.0205 13.4928 70.0438 13.5124 70.0792 13.5447V13.5454ZM69.9499 13.6604C69.9356 13.6416 69.9251 13.6259 69.9093 13.6123C69.889 13.6416 69.8717 13.6755 69.865 13.7025C69.889 13.6867 69.9228 13.671 69.9499 13.6604ZM70.3339 12.9742C70.3129 12.9487 70.2873 12.9284 70.258 12.9111C70.2415 12.9509 70.2197 12.9772 70.2024 13.0156C70.2438 12.9915 70.2851 12.9818 70.3332 12.9735L70.3339 12.9742ZM70.5481 12.8029C70.5797 12.7841 70.6023 12.7773 70.6353 12.7676C70.5632 12.6894 70.4392 12.6578 70.3362 12.6939C70.3287 12.721 70.3287 12.7247 70.3189 12.7503C70.37 12.7818 70.4264 12.8194 70.4595 12.8645C70.4865 12.8329 70.5113 12.8254 70.5474 12.8029H70.5481ZM70.4459 12.5143C70.4286 12.491 70.4189 12.4729 70.3948 12.4534C70.3903 12.4744 70.3835 12.494 70.3813 12.5143C70.4001 12.5128 70.4241 12.5128 70.4467 12.5143H70.4459ZM70.6767 12.5872C70.694 12.5999 70.7082 12.609 70.7233 12.621C70.7233 12.5594 70.7188 12.4992 70.7135 12.4384C70.6729 12.4639 70.6376 12.509 70.6203 12.5579C70.6428 12.5676 70.6571 12.5751 70.6767 12.5872ZM70.5632 11.7446C70.5429 11.6815 70.5218 11.6109 70.5023 11.5477C70.5023 11.6011 70.4948 11.6447 70.4925 11.6988C70.4782 11.8882 70.4685 12.0768 70.4362 12.2602C70.4752 12.2903 70.5091 12.3279 70.5481 12.364C70.5827 12.3189 70.6331 12.2783 70.6879 12.2572C70.6579 12.0874 70.6068 11.9107 70.5639 11.7454L70.5632 11.7446ZM69.7402 18.4526C69.7252 18.6938 69.6545 18.92 69.514 19.0734C69.7928 19.2034 69.9664 19.468 69.986 19.7971V19.8235C70.237 19.6874 70.3903 19.4071 70.3633 19.0952C70.3339 18.7592 70.1032 18.5134 69.7402 18.4526Z" fill="white"/>
    <path fill-rule="evenodd" clip-rule="evenodd" d="M54.108 26.3321V28.5898C54.1395 31.7074 63.6952 29.6346 64.4776 31.8728C65.2871 29.6105 74.845 31.6022 74.8473 28.5898V26.4734C72.6511 26.2186 70.455 26.036 68.2581 25.9285C68.5332 26.3494 68.8706 26.7161 69.1818 26.7943C69.2359 26.9724 69.3381 27.0987 69.4621 27.1573C69.5523 27.1987 69.6523 27.2137 69.7643 27.2084C69.7049 27.1769 69.6343 27.1055 69.5621 27.0378C69.4666 26.9499 69.3742 26.8454 69.3952 26.7455C69.4471 26.4779 69.5373 26.3148 69.8244 26.3388C69.5178 26.6019 69.9048 27.0792 70.2385 27.1055C70.1604 27.1791 70.0724 27.1671 69.9852 27.2205C69.6177 27.4422 69.9071 27.8924 69.9537 28.2381C69.8981 28.435 69.8297 28.6229 69.6072 28.6981C69.6147 28.199 69.1059 27.9014 68.7211 28.2915C68.7233 28.1697 68.7481 28.0848 68.8278 27.9923C68.9233 27.8804 68.9766 27.7052 68.9886 27.5707C68.9984 27.4565 68.9841 27.3738 68.9293 27.2768C68.8857 27.2032 68.7932 27.1671 68.7128 27.1303C68.9225 27.4489 68.815 27.7248 68.5933 27.9893C68.3626 28.0164 68.204 28.184 68.1123 28.3869C68.1416 28.759 68.0311 28.9709 67.6658 28.9123C67.7996 28.4576 67.3224 28.0502 66.9007 28.2576C66.9323 27.9307 67.3923 27.8601 67.6395 27.8555C67.7778 27.8533 67.9049 27.7699 68.0063 27.6579C68.1033 27.5512 68.204 27.4369 68.2604 27.3099C68.3039 27.2152 68.319 27.1077 68.3205 27.0198C68.2671 27.0957 68.1702 27.2047 68.077 27.3121C67.9995 27.4053 67.9304 27.4925 67.841 27.5609C67.7703 27.6165 67.7012 27.6459 67.6365 27.6729C67.5704 27.6459 67.493 27.6286 67.4178 27.612C67.0668 27.5294 66.6572 27.573 66.57 27.0957C66.8699 26.9784 67.0105 26.6936 66.9007 26.3839C67.1886 26.399 67.3126 26.6425 67.3194 27.0491C67.514 27.1122 68.0086 27.2926 68.0702 27.0198C68.077 26.9882 68.077 26.9514 68.0725 26.9168C68.0477 26.7342 67.8921 26.5643 67.7733 26.4426C67.5711 26.2381 67.3457 26.0555 67.1149 25.8774C66.7624 25.8646 66.4107 25.8533 66.059 25.8443L66.0597 25.8556C66.0229 25.8631 65.9868 25.8571 65.953 25.842C64.9361 25.8172 63.9192 25.809 62.9015 25.818C62.9519 25.9946 63.0173 26.1592 63.1368 26.2644C62.8151 26.3697 62.5257 26.2945 62.2627 26.0382C62.2695 26.2787 62.3115 26.4764 62.4183 26.5733C62.044 26.6049 61.6975 26.5568 61.472 26.1742C61.472 26.1795 61.4337 26.2351 61.4307 26.2374C61.2368 26.5418 61.0301 26.8387 60.8865 27.1746C60.8587 27.243 60.8136 27.3452 60.8204 27.4226C60.8204 27.4895 60.8257 27.5444 60.8459 27.5669C60.864 27.5602 60.9978 27.5669 61.0444 27.7669C61.0895 27.694 61.1488 27.6105 61.233 27.5624C61.3833 27.4752 61.5817 27.47 61.681 27.6301C61.2541 27.718 61.3202 28.093 61.4209 28.4004C61.2518 28.4568 61.0917 28.3569 60.9542 28.2607C60.7588 28.2291 60.5889 28.2779 60.4378 28.3508C60.277 28.429 60.1372 28.5387 60.0072 28.6507C59.8539 28.8506 59.6637 28.9919 59.4525 28.9499C59.5292 28.6522 59.4863 28.438 59.1421 28.4087C59.3683 28.2847 59.463 28.3433 59.7126 28.3794C59.8944 28.2411 60.059 28.0976 60.156 27.9119C59.9493 27.9923 59.8343 28.0705 59.684 28.1825C59.563 28.1584 59.4593 28.1554 59.2548 28.1412L58.758 28.429C58.637 28.429 58.5198 28.4824 58.3837 28.5042C58.0809 28.553 57.772 28.5357 57.7547 28.0848C58.0568 27.9856 58.2417 27.8225 58.1387 27.4858C58.3229 27.4489 58.4153 27.6955 58.4544 27.839C58.6092 27.8616 58.8625 27.8924 58.9835 27.9811C59.2248 27.9585 59.454 27.9119 59.6314 27.8007C59.7509 27.727 59.8554 27.6601 59.947 27.4933C59.8456 27.5331 59.7456 27.591 59.6487 27.6271C59.5044 27.6804 59.3646 27.7323 59.2481 27.7488C59.1135 27.7684 59.0083 27.7345 58.9181 27.7391C58.8768 27.6173 58.7137 27.5391 58.5513 27.4249C58.3619 27.2888 58.1628 27.1453 58.1786 26.865C58.5889 27.0498 58.9414 26.8116 59.0414 26.3945C59.2751 26.553 59.1857 26.9326 59.1128 27.1423C59.2097 27.2392 59.3473 27.4099 59.4991 27.3956C59.5427 27.3888 59.5833 27.3663 59.6231 27.3467C60.1868 27.0641 60.3612 26.4065 60.6032 25.8729L60.5942 25.8646C58.4311 25.939 56.2688 26.0916 54.1057 26.3276L54.108 26.3321ZM62.6257 25.8225C62.6964 25.9142 62.7693 26.0036 62.8437 26.0908L62.8316 26.0848L62.8437 26.0916C62.7693 26.0036 62.6964 25.9142 62.6257 25.8225ZM69.3479 28.4493C69.1976 28.211 68.8579 28.3155 68.812 28.5861C68.7316 29.0581 68.9435 29.2558 69.3599 29.2558C69.033 28.8755 69.5591 28.786 69.3471 28.4493H69.3479ZM67.4479 28.8491C67.635 28.6996 67.2773 28.2644 66.9586 28.4643C66.7001 29.0273 67.0586 29.2655 67.4682 29.2948C67.3216 29.146 67.2562 28.9957 67.4486 28.8491H67.4479ZM65.9958 27.11C66.1063 26.7958 66.2732 26.6643 66.5422 26.8935C66.7594 26.7815 66.788 26.5621 66.6662 26.3621C66.1273 26.3231 65.9116 26.5741 65.9958 27.11ZM57.9388 27.7556C57.9666 27.6707 57.9651 27.5872 57.9411 27.5256C57.6494 27.373 57.2256 27.3753 57.1955 27.9495C57.4052 27.6827 57.5916 27.7669 57.696 27.9006C57.7938 27.8698 57.8742 27.8232 57.9388 27.7548V27.7556ZM61.8042 28.7266C62.2424 28.308 62.1297 28.0299 61.7629 27.8232C61.481 27.8646 61.5299 28.0735 61.5975 28.293C61.8095 28.296 61.9155 28.4004 61.8042 28.7266ZM59.0714 29.4519C58.9377 29.1062 59 28.9243 59.2578 28.8995C59.3353 28.5989 59.2285 28.5553 58.9309 28.5605C58.619 28.8672 58.5716 29.1671 59.0707 29.4512L59.0714 29.4519ZM58.2312 26.671C58.2312 26.671 58.3499 26.7124 58.3657 26.7222C58.6964 26.7785 58.8242 26.5252 58.8663 26.2547C58.283 25.8623 57.787 25.8601 57.4833 26.6635C57.669 26.5049 58.008 26.3667 58.2312 26.6703V26.671ZM70.1431 26.3298C69.7853 26.4178 69.9319 26.8274 70.2009 26.9153C70.4039 26.9784 70.4234 26.5049 70.7714 26.9461C70.7804 26.4298 70.5715 26.2223 70.1431 26.3291V26.3298Z" fill="white" fill-opacity="0.5"/>
    <path fill-rule="evenodd" clip-rule="evenodd" d="M74.8473 6.65934H54.108V28.5899C54.1396 31.7075 63.6953 29.6346 64.4777 31.8736C65.2872 29.6106 74.8451 31.603 74.8473 28.5899V6.65934ZM53.6533 6.20312V28.6124C53.827 30.2441 55.3504 30.5651 56.704 30.7988C58.8265 31.0934 61.0279 30.9506 63.1106 31.4452C64.0125 31.6586 64.0546 32.0495 64.4747 32.8867C64.8309 32.1795 64.8738 31.7834 65.5893 31.5128C66.2522 31.2663 67.0136 31.1881 67.7103 31.1258C69.23 30.986 70.7527 30.9551 72.2671 30.7477C73.3021 30.5703 74.2356 30.3922 74.9759 29.5865C75.1878 29.2333 75.2607 29.0236 75.3021 28.6124V6.20313H53.6526L53.6533 6.20312Z" fill="white" fill-opacity="0.5"/>
    <path fill-rule="evenodd" clip-rule="evenodd" d="M80.122 36.1895C80.2754 36.3082 80.3122 36.4082 80.3295 36.4736C80.3528 36.5833 80.349 36.7344 80.349 36.8749L80.346 37.8738C80.346 37.9226 80.349 38.0707 80.3663 38.1466C80.4287 38.4382 80.7045 38.8283 81.1938 38.8283C81.6245 38.8283 81.8514 38.5457 81.9274 38.4119C82.0732 38.823 82.4677 38.8283 82.5752 38.8283C82.6872 38.8283 82.8232 38.8185 83.0179 38.7215L83.2862 38.2247C83.2321 38.2458 83.1449 38.2781 83.0525 38.2781C82.8946 38.2781 82.8571 38.1932 82.842 38.1248C82.8255 38.0414 82.821 37.8783 82.821 37.8369L82.8255 36.0835C82.7015 36.1519 82.5775 36.1879 82.4061 36.1879H81.6538C81.8071 36.3067 81.8484 36.4067 81.8612 36.472C81.8883 36.5818 81.8838 36.7328 81.8838 36.8734L81.8815 37.634C81.8838 37.755 81.8785 37.9264 81.8372 38.0256C81.7981 38.1233 81.6966 38.1864 81.5425 38.1864C81.3599 38.1864 81.3216 38.0812 81.3058 38.0158C81.2893 37.9399 81.2923 37.8723 81.2893 37.6964L81.2923 36.082C81.1675 36.1504 81.0435 36.1864 80.8736 36.1864H80.1228L80.122 36.1895ZM76.8121 36.1895C76.9661 36.3082 77.0045 36.4082 77.0187 36.4736C77.0315 36.5367 77.0458 36.6472 77.0435 36.8749L77.0375 37.9324C77.0405 38.1984 77.0511 38.5367 76.8556 38.7509H78.1754C78.1341 38.7095 78.0559 38.6193 78.0221 38.463C77.9913 38.327 77.9883 38.0496 77.9883 37.9324V37.619H78.6587L78.6625 37.8956C78.6655 38.097 78.6677 38.203 78.694 38.327C78.7211 38.4435 78.8331 38.8283 79.3321 38.8283C79.402 38.8283 79.5651 38.8238 79.768 38.7215L80.0341 38.2338C79.9853 38.2556 79.8906 38.2826 79.8199 38.2826C79.6711 38.2826 79.6403 38.1458 79.6343 38.1195C79.6267 38.088 79.6102 37.9459 79.6102 37.8948L79.6004 36.0835C79.4764 36.1519 79.3517 36.1879 79.1818 36.1879H78.431C78.585 36.3067 78.6234 36.4067 78.6384 36.472C78.6625 36.5863 78.6587 36.7283 78.6587 36.8734L78.661 37.1244H77.9838L77.9815 36.0827C77.8568 36.1511 77.7327 36.1872 77.5839 36.1872H76.8121V36.1895ZM75.2412 38.2961C75.2194 38.3007 75.1991 38.3082 75.1631 38.3082C74.9218 38.3082 74.6858 38.1714 74.6099 37.8377C74.4836 37.265 74.6685 36.5953 75.0578 36.5953C75.1631 36.5953 75.2781 36.6472 75.3382 36.6802L75.3359 37.891C75.3359 38.1293 75.3284 38.1887 75.3502 38.2834C75.4645 38.8065 75.8868 38.829 76.0469 38.829C76.1905 38.829 76.334 38.8072 76.4806 38.7223L76.7512 38.23C76.6805 38.2571 76.5948 38.2796 76.5144 38.2796C76.3754 38.2796 76.3175 38.2037 76.298 38.1158C76.2777 38.0331 76.2829 37.9549 76.2859 37.8918L76.2784 36.0677C76.1123 36.1624 75.9575 36.1789 75.8139 36.1789C75.6584 36.1789 75.5366 36.1579 75.4314 36.1429C75.2781 36.1211 75.1804 36.1158 75.0413 36.1158C74.5783 36.1158 74.2236 36.194 73.926 36.5374C73.5825 36.9275 73.5389 37.4529 73.6336 37.8798C73.7839 38.5615 74.298 38.829 74.7685 38.829C74.9045 38.829 75.0022 38.802 75.0781 38.7824L75.2412 38.2954V38.2961ZM71.4803 37.7092C71.6381 37.6317 71.7381 37.6197 71.8508 37.6197C72.165 37.6197 72.2672 37.8219 72.2913 37.9234C72.3619 38.242 72.0989 38.3766 71.8523 38.3766C71.6554 38.3766 71.5727 38.2668 71.5555 38.1894C71.5434 38.1428 71.5675 38.0774 71.6284 38.0384C71.5705 37.9918 71.4653 37.9241 71.2886 37.9241C70.9963 37.9241 70.864 38.1045 70.9174 38.3412C70.967 38.5622 71.1849 38.8305 71.8313 38.8305C72.9181 38.8305 73.3412 38.3337 73.2337 37.8565C73.1338 37.4085 72.7024 37.3198 72.4807 37.3251L72.4777 37.3108C73.0286 37.2033 73.0924 36.8892 73.0413 36.6554C72.985 36.4089 72.7753 36.1173 72.0259 36.1173C71.7479 36.1173 71.4825 36.1398 71.0639 36.224L71.0669 36.9065C71.2683 36.7088 71.5509 36.5961 71.8358 36.5961C71.9237 36.5961 72.15 36.6066 72.1988 36.8208C72.2296 36.9696 72.1552 37.1522 71.7336 37.1522C71.702 37.1522 71.6487 37.1522 71.4698 37.1395L71.4795 37.7099L71.4803 37.7092ZM69.3465 38.2961C69.327 38.3007 69.3052 38.3082 69.2684 38.3082C69.0294 38.3082 68.7911 38.1714 68.7152 37.8377C68.5889 37.265 68.7746 36.5953 69.1639 36.5953C69.2706 36.5953 69.3849 36.6472 69.4435 36.6802L69.4412 37.891C69.4412 38.1293 69.4337 38.1887 69.4555 38.2834C69.572 38.8065 69.9914 38.829 70.1522 38.829C70.2958 38.829 70.4416 38.8072 70.5852 38.7223L70.8565 38.23C70.7881 38.2571 70.6994 38.2796 70.6205 38.2796C70.4837 38.2796 70.4258 38.2037 70.404 38.1158C70.3867 38.0331 70.3897 37.9549 70.3912 37.8918L70.3837 36.0677C70.2184 36.1624 70.0628 36.1789 69.9192 36.1789C69.7659 36.1789 69.6434 36.1579 69.5397 36.1429C69.3856 36.1211 69.2887 36.1158 69.1489 36.1158C68.6844 36.1158 68.3311 36.194 68.0313 36.5374C67.6878 36.9275 67.6472 37.4529 67.7412 37.8798C67.8922 38.5615 68.4033 38.829 68.8738 38.829C69.0121 38.829 69.1075 38.802 69.1827 38.7824L69.3465 38.2954V38.2961ZM66.2365 35.0222C66.2658 35.047 66.3334 35.1102 66.3462 35.1568C66.3657 35.247 66.2515 35.3762 66.1418 35.5145L65.2925 36.6058L65.294 35.843C65.294 35.51 65.288 35.2417 65.554 35.0222H64.0073C64.1185 35.1154 64.2019 35.2297 64.2357 35.3762C64.2703 35.5371 64.2666 35.7099 64.2703 35.843L64.2778 37.9331C64.2778 38.1669 64.2921 38.5231 64.0118 38.7516H65.5585C65.4218 38.6201 65.3616 38.5419 65.3316 38.4029C65.294 38.2353 65.2977 38.0669 65.2955 37.9331L65.291 37.1049L65.8532 37.8865C66.1914 38.3495 66.2695 38.4983 66.4402 38.6246C66.6326 38.7666 66.8738 38.829 67.2902 38.829C67.4879 38.829 67.5751 38.8147 67.8847 38.7463C67.6457 38.6321 67.4458 38.454 66.9971 37.8692L66.035 36.6148L67.3789 35.0215H66.235L66.2365 35.0222ZM61.3264 36.5961L61.3023 37.8971C61.2978 38.1579 61.3264 38.2894 61.3346 38.3285C61.3609 38.4397 61.4729 38.8298 61.9742 38.8298C62.2035 38.8298 62.3372 38.7666 62.4079 38.7231L62.674 38.2353C62.595 38.2894 62.5011 38.2961 62.462 38.2961C62.3936 38.2961 62.3057 38.2571 62.2749 38.121C62.2688 38.094 62.2508 37.9376 62.2516 37.8963L62.2425 36.085C62.1471 36.1383 62.0607 36.1474 61.8885 36.1474C61.7435 36.1474 61.6751 36.1429 61.5969 36.1383C61.4947 36.1316 61.3158 36.1158 61.0979 36.1158C60.565 36.1158 60.2403 36.194 60.0396 36.318C59.7157 36.5156 59.6578 36.8351 59.7157 37.0861C59.7864 37.4025 60.0351 37.6408 60.2922 37.6671C60.0915 38.0331 59.7202 38.5742 59.4481 38.7516C59.6714 38.8027 59.9021 38.829 60.1516 38.829C60.3981 38.829 60.5237 38.7982 60.6544 38.6682C60.9055 38.4269 61.1422 37.8647 61.2482 37.4889C60.9325 37.5062 60.7416 37.389 60.6815 37.1116C60.577 36.6472 60.9325 36.5946 61.1828 36.5946H61.3264V36.5961ZM56.4471 36.1902C56.6004 36.309 56.6387 36.4089 56.6537 36.4743C56.6778 36.584 56.674 36.7351 56.674 36.8757L56.6718 37.8745C56.6718 37.9234 56.674 38.0714 56.6906 38.1473C56.7552 38.439 57.0288 38.829 57.5203 38.829C57.9502 38.829 58.1757 38.5464 58.2524 38.4126C58.3982 38.8238 58.7935 38.829 58.8995 38.829C59.0115 38.829 59.1498 38.8193 59.3452 38.7223L59.612 38.2255C59.5579 38.2465 59.4692 38.2789 59.3812 38.2789C59.2204 38.2789 59.1828 38.1939 59.1685 38.1255C59.152 38.0421 59.1475 37.879 59.1475 37.8377L59.152 36.0842C59.028 36.1526 58.9032 36.1887 58.7319 36.1887H57.9803C58.1351 36.3074 58.1734 36.4074 58.1877 36.4728C58.2125 36.5825 58.2088 36.7336 58.2088 36.8741L58.2058 37.6348C58.2073 37.7558 58.2028 37.9271 58.1607 38.0263C58.1231 38.124 58.0201 38.1872 57.8668 38.1872C57.6857 38.1872 57.6458 38.0819 57.6316 38.0166C57.6143 37.9406 57.6158 37.873 57.6128 37.6971L57.6158 36.0827C57.4925 36.1511 57.3677 36.1872 57.1971 36.1872H56.4463L56.4471 36.1902ZM54.7079 38.7426C54.8574 38.8155 54.9882 38.8298 55.1483 38.8298C55.452 38.8298 55.8338 38.7276 56.0254 38.2263C56.1269 37.9594 56.178 37.5213 56.078 37.0688C56.0277 36.8516 55.8443 36.1165 55.0709 36.1165C54.9266 36.1165 54.5944 36.1316 54.4155 36.5014L54.4133 36.085C54.2908 36.1534 54.1645 36.1895 54.0157 36.1895H53.243C53.3979 36.3082 53.4369 36.4082 53.4505 36.4736C53.4693 36.557 53.4783 36.693 53.4768 36.8749L53.473 39.0846C53.473 39.3499 53.4835 39.6858 53.2874 39.9023H54.6109C54.5681 39.8617 54.4907 39.7708 54.4546 39.6152C54.4238 39.4784 54.4208 39.2011 54.4215 39.0846L54.4133 37.5649C54.4118 36.9636 54.4531 36.7389 54.7139 36.7389C54.8146 36.7389 55.0281 36.781 55.1085 37.1507C55.1716 37.4258 55.1663 37.767 55.1333 37.9474C55.0777 38.23 54.9349 38.3082 54.7913 38.3082C54.647 38.3082 54.55 38.2473 54.5177 38.2255L54.7071 38.7418L54.7079 38.7426ZM51.0657 37.746C51.2213 37.6633 51.316 37.6558 51.434 37.6558H51.9293C51.9338 38.1571 51.7015 38.3766 51.434 38.3766C51.2378 38.3766 51.1551 38.2668 51.1363 38.1894C51.1296 38.1526 51.1326 38.0774 51.2107 38.0384C51.0822 37.9437 50.9657 37.9241 50.8695 37.9241C50.5772 37.9241 50.4464 38.1045 50.4982 38.3412C50.5463 38.5532 50.7688 38.8305 51.4144 38.8305C52.4636 38.8305 53.095 38.1533 52.8703 37.1402C52.8139 36.8899 52.5997 36.1173 51.4903 36.1173C51.4212 36.1173 51.1191 36.1226 50.6192 36.224L50.6223 36.9065C50.8733 36.6675 51.1822 36.5961 51.3483 36.5961C51.7106 36.5961 51.821 36.8524 51.8564 37.0132C51.8684 37.0643 51.8812 37.1229 51.8872 37.1785H51.3167C51.2897 37.1785 51.2265 37.1785 51.0537 37.1665L51.0657 37.746ZM48.0526 38.835L48.9094 36.3728L49.0815 37.9339C49.1161 38.2533 49.1281 38.5479 48.9079 38.7524H50.4426C50.2532 38.6013 50.1833 38.4502 50.1375 38.248C50.1217 38.1721 50.0976 38.0113 50.0886 37.9339L49.8504 35.84C49.8083 35.4552 49.8083 35.2425 50.0368 35.023H48.7087C48.6546 35.2575 48.5584 35.5882 48.4923 35.7716L47.9556 37.3101L47.3205 35.749C47.201 35.4544 47.1281 35.2958 47.1056 35.1891C47.0958 35.1478 47.0898 35.0718 47.0845 35.0222H45.891C46.0023 35.1154 46.0932 35.2101 46.1218 35.3439C46.1443 35.4439 46.1278 35.637 46.1022 35.9504L45.9346 38.1353C45.906 38.4645 45.8843 38.6058 45.6603 38.7516H46.7704C46.5983 38.6246 46.5562 38.5081 46.5411 38.4397C46.5103 38.3014 46.5254 38.1037 46.5329 37.9752L46.6381 36.3676L47.2461 37.8602C47.5024 38.4765 47.5843 38.481 47.9165 38.7328L48.0518 38.835H48.0526Z" fill="white"/>
</svg>