<svg xmlns="http://www.w3.org/2000/svg" width="130" height="46" viewBox="0 0 130 46" fill="none">
    <path d="M29.552 26.5671C29.3276 26.5671 29.1981 26.698 29.1981 26.9322V28.7927H26.2478V26.9322C26.2478 26.698 26.1182 26.5671 25.8937 26.5671C25.6719 26.5671 25.5397 26.698 25.5397 26.9322V31.4176C25.5397 31.6521 25.6719 31.7819 25.8937 31.7819C26.1182 31.7819 26.2478 31.6521 26.2478 31.4176V29.4312H29.1981V31.4176C29.1981 31.6521 29.3276 31.7819 29.552 31.7819C29.7738 31.7819 29.9042 31.6521 29.9042 31.4176V26.9322C29.9042 26.698 29.7738 26.5671 29.552 26.5671ZM33.1929 29.1143L35.2445 27.1316C35.3415 27.0381 35.3826 26.963 35.3826 26.8552C35.3826 26.6999 35.2713 26.5671 35.0804 26.5671C34.9804 26.5671 34.901 26.6007 34.8126 26.6859L32.8076 28.6231C32.6951 28.7317 32.581 28.7927 32.4218 28.7927H32.0092V26.9322C32.0092 26.698 31.8797 26.5671 31.6551 26.5671C31.4333 26.5671 31.3011 26.698 31.3011 26.9322V31.4176C31.3011 31.6521 31.4333 31.7819 31.6551 31.7819C31.8797 31.7819 32.0092 31.6521 32.0092 31.4176V29.4312H32.3736C32.5322 29.4312 32.6462 29.4926 32.7587 29.6008L34.8874 31.6578C34.9816 31.7476 35.0642 31.7819 35.1697 31.7819C35.3702 31.7819 35.4872 31.6439 35.4872 31.4798C35.4872 31.3675 35.443 31.2878 35.3415 31.1895L33.1929 29.1143V29.1143ZM37.6237 20.392C37.3054 20.5542 36.8696 20.6703 36.4516 20.6703C35.7626 20.6703 35.3317 20.383 35.3317 19.8815C35.3317 19.4289 35.7001 19.0786 36.4465 19.0786C36.8401 19.0786 37.1882 19.1344 37.6237 19.2596V20.392ZM36.5466 16.2276C35.9479 16.2276 35.4066 16.3749 35.0611 16.5111C34.7695 16.6261 34.6459 16.7894 34.6478 17.0069C34.6505 17.2638 34.851 17.4519 35.1014 17.4519C35.2212 17.4519 35.3547 17.4067 35.4969 17.3527C35.7222 17.2656 36.0938 17.171 36.464 17.171C37.2879 17.171 37.6237 17.4715 37.6237 18.0862V18.5002C37.1499 18.3769 36.7621 18.3233 36.3189 18.3233C34.9692 18.3233 34.3101 19.0666 34.3101 19.8815C34.3101 20.8249 35.0487 21.5342 36.3565 21.5342C37.3736 21.5342 38.1468 21.2077 38.4577 21.0021C38.6055 20.9029 38.6582 20.8084 38.6582 20.6145V18.1084C38.6582 16.818 37.8897 16.2276 36.5466 16.2276V16.2276ZM49.4596 19.57C49.2168 19.5745 49.0815 19.7144 48.9896 19.8694C48.8031 20.2567 48.4099 20.5304 47.8717 20.5304C47.1125 20.5304 46.6646 20.0869 46.6022 19.4338C46.5697 19.0831 46.5697 18.6793 46.6022 18.3278C46.6646 17.6725 47.1176 17.2294 47.8717 17.2294C48.4099 17.2294 48.7985 17.4983 48.9896 17.8949C49.0845 18.045 49.2168 18.1879 49.4596 18.1906C49.7705 18.1925 49.9806 18.0062 49.9806 17.7113C49.9806 17.5587 49.9209 17.4067 49.8251 17.2396C49.5122 16.6781 48.8341 16.2276 47.8574 16.2276C46.539 16.2276 45.6522 17.031 45.5421 18.1804C45.5045 18.5632 45.5037 19.1963 45.5421 19.5794C45.6573 20.7288 46.539 21.5342 47.8574 21.5342C48.834 21.5342 49.5122 21.0863 49.8279 20.521C49.9228 20.3532 49.9806 20.2012 49.9806 20.0481C49.9806 19.7582 49.7705 19.5625 49.4596 19.57ZM25.4006 20.5987L23.5537 18.8148L25.3067 17.1212C25.4428 16.9897 25.5118 16.86 25.5118 16.7095C25.5118 16.4595 25.3249 16.2739 25.0569 16.2739C24.9014 16.2739 24.7855 16.3286 24.6351 16.4742L22.8542 18.1944C22.7573 18.2891 22.6525 18.3419 22.5145 18.3419H22.1508V16.8208C22.1508 16.475 21.9426 16.274 21.6145 16.274C21.2892 16.274 21.081 16.475 21.081 16.8208V20.9393C21.081 21.2848 21.2892 21.4887 21.6145 21.4887C21.9426 21.4887 22.1508 21.2848 22.1508 20.9393V19.2948H22.4553C22.5932 19.2948 22.698 19.3483 22.7949 19.4423L24.6951 21.2783C24.8526 21.4303 24.9747 21.4887 25.1376 21.4887C25.4198 21.4887 25.6164 21.2941 25.6164 21.0309C25.6164 20.8734 25.5435 20.7372 25.4005 20.5988L25.4006 20.5987ZM43.4353 19.4339C43.3728 20.0901 42.9498 20.5349 42.1754 20.5349C41.7745 20.5349 41.2716 20.4162 41.023 20.2476V17.5149C41.2716 17.3437 41.7745 17.2249 42.1754 17.2249C42.9498 17.2249 43.3739 17.6706 43.4353 18.3279C43.4658 18.6579 43.4689 19.076 43.4353 19.4339ZM42.21 16.2276C41.2736 16.2276 40.5252 16.5473 40.2239 16.7189C39.9784 16.86 39.9513 16.9708 39.9513 17.3679V22.6455C39.9513 22.9883 40.1588 23.1923 40.4849 23.1923C40.8129 23.1923 41.023 22.9883 41.023 22.6455V21.268C41.3438 21.4181 41.8349 21.5343 42.303 21.5343C43.5407 21.5343 44.3899 20.7378 44.5023 19.5886C44.5395 19.2021 44.5395 18.5633 44.5023 18.1734C44.3918 17.0222 43.5406 16.2277 42.21 16.2277V16.2276ZM23.5479 30.8338C23.1556 31.0374 22.6231 31.186 22.1287 31.186C21.2463 31.186 20.7472 30.8232 20.7472 30.1977C20.7472 29.6363 21.1858 29.2154 22.1287 29.2154C22.5972 29.2154 22.9922 29.2821 23.5479 29.4398V30.8338ZM22.2815 26.5219C21.6646 26.5219 21.0628 26.6841 20.7367 26.8266C20.5181 26.9186 20.4181 27.0166 20.4231 27.1864C20.4289 27.3617 20.5689 27.4997 20.7414 27.4997C20.826 27.4997 20.9275 27.4673 21.0275 27.4228C21.2769 27.3199 21.7488 27.1837 22.2105 27.1837C23.1249 27.1837 23.5479 27.5431 23.5479 28.344V28.8214C22.9752 28.6611 22.5615 28.6046 22.0676 28.6046C20.7291 28.6046 20.0489 29.349 20.0489 30.1907C20.0489 31.1785 20.8182 31.8283 22.0369 31.8283C23.0435 31.8283 23.8135 31.4862 24.0985 31.2861C24.2137 31.2072 24.2462 31.1431 24.2462 30.9911V28.3263C24.2462 27.0956 23.5076 26.522 22.2816 26.522L22.2815 26.5219ZM17.1196 31.0635H15.1184V28.3217H17.1196C18.1673 28.3217 18.598 28.8176 18.598 29.674C18.598 30.551 18.1672 31.0635 17.1196 31.0635ZM17.2099 27.6637H15.1184V25.5487H18.605C18.838 25.5487 18.9982 25.4235 18.9982 25.2074C18.9982 25.0016 18.838 24.8737 18.605 24.8737H15.0288C14.6279 24.8737 14.3994 25.0887 14.3994 25.4809V31.1284C14.3994 31.5206 14.6278 31.7366 15.0288 31.7366H17.2099C18.5503 31.7366 19.3266 30.984 19.3266 29.6695C19.3266 28.3897 18.5503 27.6638 17.2099 27.6638L17.2099 27.6637ZM29.5099 18.1907H31.2636C32.0926 18.1907 32.4628 18.5994 32.4628 19.3031C32.4628 20.0195 32.0926 20.446 31.2636 20.446H29.5099V18.1907ZM29.245 21.4422H31.3788C32.7661 21.4422 33.5886 20.6636 33.5886 19.2816C33.5886 17.9776 32.7661 17.2491 31.3788 17.2491H29.5099V15.5816H32.6509C32.9945 15.5816 33.2171 15.386 33.2171 15.0737C33.2171 14.7761 32.9945 14.5804 32.6509 14.5804H29.245C28.7061 14.5804 28.4102 14.8632 28.4102 15.3859V20.6367C28.4102 21.1598 28.7061 21.4422 29.245 21.4422V21.4422ZM15.9366 18.3445L16.9171 15.6447C16.9547 15.55 16.9873 15.5169 17.0602 15.5169C17.1323 15.5169 17.1649 15.55 17.2002 15.6447L18.1855 18.3445H15.9366ZM20.261 20.9901C20.261 20.8936 20.2436 20.8008 20.1882 20.6565L18.2095 15.4419C17.9718 14.8049 17.6232 14.5342 17.0699 14.5342C16.5189 14.5342 16.1681 14.8049 15.93 15.4419L13.9393 20.6584C13.8789 20.8205 13.8665 20.9178 13.8665 20.9928C13.8665 21.2636 14.089 21.4887 14.3995 21.4887C14.6532 21.4887 14.8431 21.3654 14.9486 21.0652L15.5923 19.2922H18.5321L19.1815 21.0698C19.2843 21.3653 19.4743 21.4887 19.7244 21.4887C20.0386 21.4887 20.2611 21.2636 20.2611 20.9901H20.261Z" fill="white"/>
    <path d="M116.255 22.351C115.384 20.1878 113.232 19.0094 110.902 19.4215L106.116 20.2665C105.321 20.4063 104.793 21.1519 104.935 21.9323C105.078 22.7116 105.837 23.2299 106.632 23.0901L111.418 22.2448C112.557 22.043 113.26 22.7123 113.539 23.4044C113.818 24.0974 113.769 25.058 112.799 25.6749L105.773 30.1453C105.12 30.5601 104.326 30.5891 103.645 30.2259C102.963 29.8627 102.555 29.1904 102.555 28.4287V13.9417C102.555 13.1494 101.902 12.5069 101.096 12.5069C100.288 12.5069 99.6357 13.1494 99.6357 13.9417V28.4287C99.6357 30.258 100.612 31.8719 102.25 32.7459C103.01 33.1516 103.829 33.3536 104.645 33.3536C105.586 33.3536 106.524 33.0859 107.361 32.5526L114.387 28.0823C116.376 26.8175 117.126 24.5142 116.255 22.351ZM91.5428 19.4215L86.7562 20.2665C85.9625 20.4063 85.4347 21.1519 85.5773 21.9323C85.7199 22.7116 86.4799 23.2299 87.2724 23.0901L92.059 22.2448C93.1989 22.043 93.9014 22.7123 94.1807 23.4044C94.4589 24.0974 94.411 25.058 93.4396 25.6749L86.4138 30.1453C85.7616 30.5601 84.9671 30.5891 84.2854 30.2259C83.6046 29.8627 83.1973 29.1904 83.1973 28.4287V17.4241C83.1973 15.5944 82.2201 13.9802 80.5832 13.1062C78.9463 12.233 77.036 12.3052 75.4717 13.2995L57.8031 24.5417C55.8142 25.8064 55.0634 28.1094 55.9348 30.2736C56.8046 32.4361 58.9562 33.6137 61.2882 33.2024L76.7176 30.4784C77.5113 30.3375 78.0399 29.5922 77.8965 28.813C77.7539 28.0334 76.9939 27.5143 76.2014 27.6552L60.7719 30.3791C59.6313 30.5808 58.9291 29.9112 58.6509 29.2195C58.3719 28.5265 58.4198 27.5659 59.3913 26.9482L77.06 15.7072C77.7111 15.2931 78.5063 15.2629 79.1884 15.6262C79.87 15.9907 80.2765 16.6629 80.2765 17.4242V28.4287C80.2765 30.2581 81.2533 31.872 82.8906 32.7459C83.6506 33.1516 84.471 33.3537 85.2867 33.3537C86.2276 33.3537 87.1643 33.0859 88.0021 32.5527L95.0289 28.0824C97.0167 26.8176 97.7671 24.5143 96.8973 22.3511C96.0259 20.1867 93.8721 19.0113 91.5428 19.4216L91.5428 19.4215Z" fill="white"/>
</svg>