<svg xmlns="http://www.w3.org/2000/svg" width="129" height="46" viewBox="0 0 129 46" fill="none">
    <path d="M110.917 33.9073C112.925 33.9073 114.347 33.5465 115.407 32.7692V29.244C114.319 29.9934 113.008 30.4653 111.168 30.4653C108.072 30.4653 106.789 28.0781 106.789 24.3031C106.789 20.3337 108.35 18.3074 111.195 18.3074C112.869 18.3074 114.515 18.8903 115.379 19.4454V15.7814C114.459 15.2818 112.869 14.9209 110.693 14.9209C105.143 14.9209 102.27 18.8903 102.27 24.4419C102.298 30.5208 105.115 33.9073 110.917 33.9073ZM83.7779 32.2973V28.7721C82.4391 29.6881 80.152 30.4931 78.0602 30.4931C74.8805 30.4931 73.6812 28.9942 73.4859 25.9408H83.9732V23.6646C83.9732 17.3081 81.1561 14.9209 76.8329 14.9209C71.5335 14.9209 69.0233 18.9458 69.0233 24.4696C69.0233 30.8262 72.175 33.9073 77.6976 33.9073C80.4588 33.9073 82.4949 33.1578 83.7779 32.2973ZM43.9765 15.254V22.471H38.1751V15.254H33.824V33.5465H38.1751V25.913H43.9765V33.5465H48.3276V15.254H43.9765ZM67.9355 30.1045H66.011V15.254H53.3481V16.8084C53.3481 21.2775 53.0692 27.0511 51.5352 30.1045H50.1406V37.7101H54.157V33.5465H63.8912V37.7101H67.9076V30.1045H67.9355ZM97.6401 33.5465H102.577L95.604 23.6924L101.74 15.254H97.3612L91.225 23.6924V15.254H86.8739V33.5465H91.225V24.5529L97.6401 33.5465ZM76.7214 18.3074C78.869 18.3074 79.5384 20.0839 79.5384 22.3878V22.7486H73.4859C73.5975 19.834 74.6574 18.3074 76.7214 18.3074ZM61.6599 30.1045H55.5237C56.723 27.3564 57.0577 22.36 57.0577 19.1956V18.6405H61.6599V30.1045Z" fill="white"/>
    <path d="M30.1982 33.5478H25.7634V11.7023H23.7831C20.1572 11.7023 18.2606 13.5066 18.2606 16.1991C18.2606 19.2525 19.5715 20.6681 22.277 22.4724L24.5083 23.9713L18.0932 33.5478H13.3237L19.0973 24.9983C15.7782 22.6389 13.9095 20.335 13.9095 16.4489C13.9095 11.5913 17.3122 8.28809 23.7552 8.28809H30.1703V33.5478H30.1982Z" fill="white"/>
</svg>