<svg width="62" height="28" viewBox="0 0 62 28" fill="none" xmlns="http://www.w3.org/2000/svg">
<mask id="mask0_92_3228" style="mask-type:luminance" maskUnits="userSpaceOnUse" x="0" y="0" width="62" height="28">
<path d="M61.7482 0H0.632812V28H61.7482V0Z" fill="white"/>
</mask>
<g mask="url(#mask0_92_3228)">
<path d="M41.0559 4.07692L27.5944 0V2.38462L31.8636 3.65385V8L27.5944 9.26923V11.6538L41.0559 7.57692V4.07692ZM33.7867 7.42308L33.8636 7.26923C34.0944 6.84615 34.2482 6.34615 34.2482 5.84615C34.2482 5.34615 34.1328 4.84615 33.902 4.38461L33.8251 4.23077L39.0559 5.80769L33.7867 7.42308ZM16.5559 2.61538H21.2867C22.2482 2.61538 22.7867 3.19231 22.7867 4.30769C22.7867 5.42308 22.2482 6 21.2867 6H18.3251V7.96154H20.902C22.7482 7.96154 22.9405 8.84615 22.9405 9.5V11.0769H25.2867V9.19231C25.2867 8.73077 25.1328 8.23077 24.8251 7.88461C24.5174 7.5 24.0944 7.26923 23.6328 7.15385L23.4405 7.11538L23.6328 7.03846C24.7097 6.57692 25.0944 5.30769 25.0944 4.38461C25.0944 2 23.8251 0.769231 21.4405 0.769231H14.1328V11.0769H16.479L16.5559 2.61538ZM59.402 0.692308V9.07692H58.9405L53.1328 0.692308H49.0559V11H51.402V2.61538H51.8636L57.5944 11H61.7867V0.653846L59.402 0.692308ZM46.0174 0.692308H43.6713V11H46.0174V0.692308ZM32.7867 12.9231H28.7097C25.2867 12.9231 24.9405 15.4615 24.9405 16.5769V19.7692C24.9405 20.5769 25.2097 23.2692 28.7097 23.2692H32.7482C36.1713 23.2692 36.4405 20.5769 36.4405 19.7692V16.5769C36.479 15.4615 36.0944 12.9231 32.7867 12.9231ZM34.1328 19.4615C34.1328 20.6923 33.6713 21.3077 32.6328 21.3077H28.7867C27.7867 21.3077 27.2867 20.7308 27.2867 19.5V16.8462C27.2867 15.5 27.7482 14.8846 28.8251 14.8846H32.5944C33.6713 14.8846 34.1328 15.5 34.1328 16.8077V19.4615ZM10.6713 10.0385C11.2097 9.5 11.479 8.76923 11.479 8C11.479 7.46154 11.3251 6.96154 11.0174 6.53846C10.7097 6.11538 10.2867 5.80769 9.82512 5.61538L9.67127 5.57692L9.82512 5.5C10.1328 5.38461 11.0944 4.84615 11.0944 3.23077C11.0944 0.807692 8.17127 0.653846 7.55589 0.653846H0.632812V11H8.05589C9.17127 11 10.0944 10.6923 10.6713 10.0385ZM3.01743 2.5H7.44051C8.20974 2.5 8.70974 2.96154 8.70974 3.69231C8.70974 3.84615 8.67127 4.03846 8.59435 4.15385C8.51743 4.30769 8.44051 4.46154 8.32512 4.53846C8.20974 4.65385 8.05589 4.73077 7.90204 4.80769C7.7482 4.88461 7.59435 4.88461 7.40204 4.88461H3.01743C3.01743 4.92308 3.01743 2.5 3.01743 2.5ZM3.01743 9.19231V6.65385H7.51743C8.70974 6.65385 9.13281 7.30769 9.13281 7.88461C9.13281 8.84615 8.2482 9.15385 7.51743 9.15385C7.47897 9.19231 3.01743 9.19231 3.01743 9.19231ZM51.7867 23.2692H61.7867V21.4231H54.1713V18.8846H61.2867V17.1923H54.1713V14.7308H61.7867V12.8846H51.7867V23.2692ZM8.36358 17.0769H4.28666C3.97897 17.0769 3.01743 17 3.01743 15.9615C3.01743 15.1538 3.67127 14.8462 4.28666 14.8462H8.55589C9.32512 14.8462 9.78666 15.2308 9.82512 15.8846H12.1713C12.1328 13 8.7482 12.8846 8.36358 12.8846H4.4405C3.59435 12.8846 2.78666 13.0385 2.01743 13.4231C1.09435 13.9615 0.632812 14.8077 0.632812 15.9615C0.632812 17.3077 1.28666 18.8846 4.4405 18.8846H8.51743C9.13281 18.8846 9.78666 19.2692 9.78666 20.0769C9.78666 20.2308 9.7482 20.3846 9.67127 20.5385C9.59435 20.6923 9.51743 20.8077 9.40204 20.9231C9.28666 21.0385 9.13281 21.1154 8.97897 21.1923C8.82512 21.2308 8.67127 21.2692 8.51743 21.2692H4.2482C3.9405 21.2692 3.63281 21.1923 3.36358 20.9615C3.13281 20.7308 2.97897 20.4615 2.97897 20.1154H0.632812C0.671274 21.2308 1.09435 22.0769 2.01743 22.6154C2.7482 23 3.59435 23.2308 4.4405 23.1923H8.36358C10.0944 23.1923 12.1713 22.6538 12.1713 20.0385C12.1328 17.0769 9.28666 17.0769 8.36358 17.0769ZM13.4405 14.8846H17.402V23.2692H19.7482V14.8846H23.7482V12.9231H13.4405V14.8846ZM48.1713 19.3462L47.9405 19.3077L48.1328 19.2308C49.2097 18.7692 49.5944 17.5 49.5944 16.5769C49.5944 14.1923 48.3251 12.9615 45.9405 12.9615H38.6328V23.3077H40.979V14.8846H45.7097C46.6713 14.8846 47.2097 15.4615 47.2097 16.5769C47.2097 17.6923 46.6713 18.2692 45.7097 18.2692H42.7482V20.2308H45.3251C47.1713 20.2308 47.3636 21.1154 47.3636 21.7692V23.3462H49.7097V21.4615C49.7097 21 49.5559 20.5 49.2482 20.1538C49.0559 19.6923 48.6328 19.4231 48.1713 19.3462Z" fill="white"/>
<path d="M37.5174 27.0384L15.3251 28C15.0174 28 14.6713 27.9615 14.3636 27.8461C14.0559 27.7307 13.7867 27.5769 13.5174 27.3461C13.2867 27.1153 13.0944 26.8461 12.9405 26.5769C12.7867 26.2692 12.7097 25.9615 12.7097 25.6153L12.6328 23.7307C12.6328 23.423 12.6713 23.0769 12.7867 22.7692C12.902 22.4615 13.0559 22.1923 13.2867 21.923C13.5174 21.6923 13.7867 21.5 14.0559 21.3461C14.3636 21.1923 14.6713 21.1153 14.979 21.1153L37.1713 20.1538C37.479 20.1538 37.8251 20.1923 38.1328 20.3077C38.4405 20.423 38.7097 20.5769 38.979 20.8077C39.2097 21.0384 39.402 21.3077 39.5559 21.5769C39.7097 21.8846 39.7867 22.1923 39.7867 22.5384L39.8636 24.423C39.902 25.0769 39.6713 25.7307 39.2097 26.1923C38.7482 26.6538 38.1713 27.0384 37.5174 27.0384Z" fill="#00FF29"/>
<path d="M36.0943 22.1921L35.5944 24.1537L34.7867 22.2691L33.9405 22.3075L35.2482 25.1921C35.1328 25.4614 35.0559 25.6152 34.7867 25.6537C34.6713 25.6537 34.5559 25.6537 34.4405 25.6152L34.479 26.2691C34.6328 26.3075 34.8251 26.346 34.979 26.346C35.5559 26.3075 35.8636 25.9614 36.0559 25.2691L36.979 22.2306L36.0943 22.1921ZM18.1328 22.8844C17.479 22.9229 16.8636 23.1921 16.8636 23.9229L17.6328 23.8844C17.6328 23.5768 17.8251 23.4229 18.1328 23.4229C18.479 23.3844 18.5944 23.5383 18.6328 23.7691C18.6328 24.0768 18.1713 24.1537 17.7097 24.3075C17.2097 24.4614 16.7867 24.7306 16.8251 25.2691C16.8636 25.8075 17.2482 26.0383 17.7867 25.9998C17.979 25.9998 18.1713 25.9229 18.3636 25.8075C18.5174 25.6921 18.6328 25.4998 18.7097 25.3075L18.7482 25.8844L19.5174 25.846L19.4405 23.846C19.402 23.0768 18.8251 22.846 18.1328 22.8844ZM18.0559 25.4614C18.0174 25.4614 17.9405 25.4614 17.902 25.4614C17.8636 25.4614 17.7867 25.4229 17.7482 25.3844C17.7097 25.346 17.6713 25.3075 17.6713 25.2691C17.6328 25.2306 17.6328 25.1537 17.6328 25.1152C17.6328 24.846 17.8251 24.7306 18.0944 24.6537C18.3251 24.6152 18.5174 24.4998 18.7097 24.3844C18.6713 24.8075 18.5559 25.4229 18.0559 25.4614ZM15.6713 25.1537C15.5944 25.1537 15.479 25.1921 15.4405 25.2306C15.3636 25.2691 15.3251 25.346 15.2867 25.4229C15.2482 25.4998 15.2482 25.6152 15.2867 25.6921C15.3251 25.7691 15.3636 25.846 15.4405 25.9229C15.5174 25.9998 15.5944 26.0383 15.6713 26.0383C15.7482 26.0383 15.8636 26.0383 15.9405 25.9998C16.0174 25.9614 16.0944 25.8844 16.1328 25.8075C16.1713 25.7306 16.2097 25.6537 16.2097 25.5383C16.2097 25.4614 16.2097 25.4229 16.1713 25.346C16.1328 25.3075 16.0944 25.2306 16.0559 25.1921C16.0174 25.1537 15.9405 25.1152 15.902 25.1152C15.7867 25.1537 15.7482 25.1537 15.6713 25.1537ZM25.1713 22.5768C24.2097 22.6152 23.7482 23.346 23.7867 24.1921C23.8251 25.0383 24.3251 25.7306 25.3251 25.6921C25.6328 25.6921 25.9405 25.5768 26.2097 25.3844C26.4405 25.1921 26.6328 24.8844 26.6713 24.5768L25.902 24.6152C25.8636 24.7306 25.8251 24.846 25.7097 24.9614C25.5943 25.0383 25.479 25.1152 25.3636 25.1152C24.902 25.1537 24.6713 24.8075 24.6328 24.346L26.7097 24.2691C26.7097 24.2691 26.7097 24.1537 26.7097 24.1152C26.5944 23.1921 26.1328 22.5383 25.1713 22.5768ZM24.5944 23.8075C24.6328 23.4614 24.8251 23.1921 25.2097 23.1537C25.5944 23.1537 25.7482 23.3844 25.8251 23.7306L24.5944 23.8075ZM28.979 22.3844C28.7867 22.3844 28.5944 22.4614 28.4405 22.5768C28.2867 22.6921 28.1713 22.846 28.0944 22.9998H28.0559L28.0174 22.5383L27.2482 22.5768L27.3636 25.4998L28.1328 25.4614L28.0559 23.9614C28.0174 23.3844 28.2482 23.1152 28.6713 23.0768C29.0174 23.0768 29.1713 23.2691 29.2097 23.7691L29.2867 25.3844L30.0559 25.346L29.979 23.5383C30.0174 22.8844 29.7867 22.3844 28.979 22.3844ZM22.2867 22.7691V23.1537H22.2482C22.1328 22.9998 22.0174 22.8844 21.8636 22.8075C21.7097 22.7306 21.5174 22.6921 21.3636 22.6921C20.5174 22.7306 20.1328 23.4614 20.1713 24.2306C20.2097 24.9998 20.6328 25.6921 21.479 25.6537C21.6328 25.6537 21.8251 25.6152 21.9405 25.5383C22.0944 25.4614 22.2097 25.346 22.3251 25.2306H22.3636V25.3844C22.402 25.8844 22.2097 26.1921 21.7097 26.1921C21.1328 26.2306 21.0944 25.8075 21.0944 25.8075L20.3251 25.846C20.3251 25.846 20.402 26.846 21.7482 26.8075C22.7482 26.7691 23.1713 26.1537 23.1328 25.3075L23.0174 22.7306L22.2867 22.7691ZM21.6713 25.1152C21.2097 25.1537 20.9405 24.7306 20.9405 24.2306C20.902 23.7691 21.1328 23.3075 21.5944 23.3075C22.0559 23.2691 22.3251 23.6921 22.3251 24.1921C22.3636 24.6537 22.1328 25.1152 21.6713 25.1152ZM32.2867 24.7691C31.7867 24.8075 31.5944 24.3844 31.5559 23.846C31.5174 23.3075 31.6713 22.8844 32.1713 22.846C32.3251 22.846 32.479 22.8844 32.5944 22.9998C32.7097 23.1152 32.7867 23.2306 32.7867 23.3844L33.5559 23.346C33.5174 22.9998 33.3251 22.6921 33.0559 22.4998C32.7867 22.3075 32.4405 22.1921 32.1328 22.2306C31.1713 22.2691 30.7097 22.9998 30.7482 23.846C30.7867 24.6921 31.3251 25.3844 32.2867 25.346C32.6328 25.346 32.9405 25.2306 33.1713 24.9998C33.402 24.7691 33.5559 24.4614 33.5943 24.1152L32.8251 24.1537C32.8251 24.3075 32.7482 24.4614 32.6713 24.5383C32.5559 24.6921 32.402 24.7691 32.2867 24.7691Z" fill="#1C1C1B"/>
</g>
</svg>
