<svg width="72" height="28" viewBox="0 0 72 28" fill="none" xmlns="http://www.w3.org/2000/svg">
<path d="M70.7182 16.1863C70.0662 14.8055 69.0306 13.6164 67.6881 12.8109C66.3456 11.9671 64.8114 11.5068 63.2004 11.5068H45.2114C44.7895 11.5068 44.3676 11.4301 43.984 11.2767C43.4087 11.0465 42.8717 10.663 42.5265 10.1644C42.373 9.93422 42.2196 9.70408 42.1429 9.43559C42.0662 9.1671 41.9895 8.8986 41.9895 8.63011V7.70956C41.9895 7.326 42.0662 6.9808 42.2196 6.63559C42.4881 6.0986 42.8717 5.63833 43.4087 5.33148C43.9456 4.98628 44.5593 4.83285 45.2114 4.83285H51.5785V0.0383301H45.2114C44.1374 0.0383301 43.1018 0.230111 42.1046 0.652029C40.6854 1.22737 39.4196 2.18628 38.4991 3.41367C38.0388 4.02737 37.6552 4.71778 37.4251 5.44655C37.1566 6.21367 37.0415 7.01915 37.0415 7.82463V8.66847C37.0415 9.74244 37.2717 10.7781 37.732 11.7753C38.384 13.1561 39.4196 14.3452 40.7621 15.1507C42.1046 15.9945 43.6388 16.4548 45.2498 16.4548H63.2388C63.6607 16.4548 64.0826 16.5315 64.4662 16.6849C65.0415 16.915 65.5785 17.2986 65.9237 17.7972C66.0772 18.0274 66.2306 18.2575 66.3073 18.526C66.384 18.7945 66.4607 19.063 66.4607 19.3315V20.1753C66.4607 20.5589 66.384 20.9041 66.2306 21.2493C65.9621 21.7863 65.5402 22.2465 65.0415 22.5534C64.5429 22.8602 63.9292 23.052 63.3155 23.052H34.2799C34.3566 22.8986 34.4333 22.7452 34.4717 22.5918C34.7402 21.8246 34.8936 20.9808 34.8936 20.1753V19.3698C34.8936 18.2959 34.6635 17.1835 34.1648 16.2246C33.7429 15.4192 33.2059 14.6904 32.5539 14.0767C32.8224 13.8082 33.0909 13.5013 33.321 13.1945C33.8196 12.5808 34.2032 11.8904 34.4717 11.1616C34.7785 10.3945 34.8936 9.55066 34.8936 8.74518V7.82463C34.8936 6.75066 34.6635 5.67669 34.1648 4.67943C33.4744 3.2986 32.3621 2.14792 31.0196 1.34244C30.3676 0.920522 29.6388 0.613673 28.8717 0.421892C28.1046 0.191755 27.2991 0.0766862 26.4936 0.0766862H0.373047V28H63.2388C64.3128 28 65.3484 27.8082 66.3456 27.3863C67.8032 26.8109 69.0306 25.852 69.9511 24.6246C70.4114 24.0109 70.795 23.3205 71.0251 22.5918C71.2936 21.8246 71.4087 21.0192 71.4087 20.2137V19.3315C71.4087 18.2192 71.1785 17.1835 70.7182 16.1863ZM5.35935 4.90956H26.5319C26.9539 4.90956 27.4141 4.98627 27.7977 5.1397C28.4114 5.36984 28.9867 5.79175 29.4087 6.29038C29.6004 6.52052 29.7155 6.75066 29.8306 7.01915C29.9073 7.24929 29.9456 7.47943 29.9456 7.74792V8.63011C29.9456 8.97532 29.8689 9.32052 29.7155 9.62737C29.4087 10.2027 28.9484 10.7013 28.4114 11.0082C28.1046 11.2 27.7977 11.315 27.4909 11.4301C27.184 11.5068 26.8772 11.5835 26.5319 11.5835H5.35935V4.90956ZM5.35935 16.4164H26.5319C26.9539 16.4164 27.4141 16.4931 27.7977 16.6849C28.4114 16.915 28.9867 17.337 29.4087 17.8356C29.6004 18.0657 29.7155 18.2959 29.8306 18.5644C29.9073 18.7945 29.9456 19.0246 29.9456 19.2931V20.1753C29.9456 20.5205 29.8689 20.8657 29.7155 21.1726C29.4087 21.7479 28.9484 22.2082 28.4114 22.515C28.1046 22.7068 27.7977 22.8219 27.4909 22.937C27.184 23.0137 26.8772 23.0904 26.5319 23.0904H5.35935C5.35935 23.052 5.35935 16.4164 5.35935 16.4164Z" fill="white"/>
<path d="M57.8689 3.87397H54.5703V0H53.5347V4.87123H57.8689V3.87397Z" fill="white"/>
<path d="M70.1813 4.44931C70.4498 4.18082 70.5649 3.83562 70.5649 3.45205V3.37534C70.5649 3.03014 70.4498 2.72329 70.2197 2.45479C70.4498 2.1863 70.5649 1.87945 70.5649 1.53425V1.41918C70.5649 1.03562 70.4498 0.690411 70.1813 0.421918C70.0663 0.268493 69.9128 0.191781 69.7211 0.115068C69.5676 0.0383562 69.4142 0 69.2224 0H65.2334V4.87123H69.2224C69.4142 4.87123 69.606 4.83288 69.7594 4.75616C69.9128 4.67945 70.0663 4.56438 70.1813 4.44931ZM66.2307 0.99726H69.1841C69.2224 0.99726 69.2608 0.99726 69.2991 1.03562C69.3375 1.03562 69.3759 1.07397 69.4142 1.11233C69.4909 1.18904 69.5293 1.30411 69.5293 1.41918V1.53425C69.5293 1.64931 69.4909 1.76438 69.4142 1.8411C69.3759 1.87945 69.3375 1.91781 69.2991 1.91781C69.2608 1.91781 69.2224 1.95616 69.1841 1.95616H66.2307V0.99726ZM66.2307 2.95342H69.1841C69.2224 2.95342 69.2608 2.95342 69.2991 2.99178C69.3375 2.99178 69.3759 3.03014 69.4142 3.06849C69.4909 3.14521 69.5293 3.26027 69.5293 3.37534V3.45205C69.5293 3.56712 69.4909 3.68219 69.4142 3.7589C69.3759 3.79726 69.3375 3.83562 69.2991 3.83562C69.2608 3.83562 69.2224 3.87397 69.1841 3.87397H66.2307V2.95342Z" fill="white"/>
<path d="M59.9403 3.64384H63.0088L63.5458 4.90959H64.6581L62.5486 0H60.4006L58.291 4.90959H59.4033L59.9403 3.64384ZM61.0527 0.99726H61.8581L62.5869 2.60822H60.4006C60.4006 2.64658 61.0527 0.99726 61.0527 0.99726Z" fill="white"/>
</svg>
