<svg width="84" height="28" viewBox="0 0 84 28" fill="none" xmlns="http://www.w3.org/2000/svg">
<path d="M10.4078 2.76238C10.9877 2.76238 11.4964 2.89973 11.9339 3.17444C12.3714 3.43898 12.7071 3.81035 12.9411 4.28855C13.1853 4.76675 13.3074 5.31109 13.3074 5.92156V11.1869H12.0102V6.31836C12.0102 5.82999 11.9339 5.40774 11.7813 5.05164C11.6388 4.69553 11.4252 4.42591 11.1403 4.24276C10.8656 4.04945 10.5349 3.95279 10.1483 3.95279C9.54803 3.95279 9.02915 4.21224 8.59166 4.73114C8.16434 5.23986 7.95068 5.87068 7.95068 6.6236V11.1869H6.684V6.31836C6.684 5.57562 6.51612 4.99568 6.18037 4.57852C5.8548 4.16137 5.39696 3.95279 4.80685 3.95279C4.5118 3.95279 4.22692 4.02401 3.95222 4.16646C3.68769 4.29872 3.45368 4.48186 3.2502 4.71588C3.05689 4.94989 2.89919 5.23478 2.7771 5.57054C2.66518 5.89612 2.60922 6.24714 2.60922 6.6236V11.1869H1.31201V2.94552H2.24295L2.45661 4.07489C2.60922 3.8714 2.78219 3.68825 2.9755 3.52546C3.17898 3.36267 3.39264 3.22532 3.61647 3.1134C3.8403 3.00148 4.0794 2.91499 4.33375 2.85395C4.58811 2.7929 4.84246 2.76238 5.09682 2.76238C5.67675 2.76238 6.18546 2.90482 6.62295 3.1897C7.06044 3.46442 7.3911 3.84596 7.61494 4.33433C7.81842 4.00875 8.06769 3.72895 8.36274 3.49494C8.65779 3.26093 8.97828 3.08287 9.3242 2.96078C9.6803 2.82851 10.0415 2.76238 10.4078 2.76238Z" fill="white"/>
<path d="M22.9098 7.09671C22.9098 7.20863 22.8996 7.36633 22.8792 7.56982H15.8438C15.9455 8.33291 16.2609 8.94847 16.79 9.4165C17.319 9.87435 17.9702 10.1033 18.7434 10.1033C19.3132 10.1033 19.8168 9.98118 20.2543 9.73699C20.702 9.48263 21.058 9.12652 21.3226 8.66867H22.6808C22.3349 9.52333 21.816 10.1898 21.1242 10.668C20.4323 11.136 19.6387 11.37 18.7434 11.37C17.553 11.37 16.556 10.9579 15.7522 10.1338C14.9484 9.30966 14.5466 8.28713 14.5466 7.06619C14.5466 5.83507 14.9484 4.81254 15.7522 3.99858C16.556 3.17444 17.553 2.76238 18.7434 2.76238C19.9745 2.76238 20.9767 3.17953 21.7499 4.01384C22.5231 4.84815 22.9098 5.87577 22.9098 7.09671ZM18.7434 3.99858C18.2551 3.99858 17.8074 4.09523 17.4004 4.28855C17.0036 4.48186 16.673 4.76166 16.4084 5.12795C16.1439 5.48405 15.9659 5.89612 15.8743 6.36415H21.5973C21.5057 5.88595 21.3277 5.46879 21.0631 5.11268C20.7986 4.7464 20.4679 4.47169 20.0711 4.28855C19.6744 4.09523 19.2318 3.99858 18.7434 3.99858Z" fill="white"/>
<path d="M30.8737 0H32.1709V11.1869H31.1789L30.9957 10.0117C30.1818 10.9172 29.1288 11.37 27.8367 11.37C26.5954 11.37 25.5729 10.963 24.7691 10.1491C23.9755 9.32493 23.5787 8.2973 23.5787 7.06619C23.5787 5.8249 23.9755 4.79727 24.7691 3.98331C25.5729 3.16936 26.5954 2.76238 27.8367 2.76238C29.0576 2.76238 30.0699 3.16936 30.8737 3.98331V0ZM25.7611 9.24862C26.3309 9.82856 27.0482 10.1185 27.913 10.1185C28.7879 10.1185 29.5154 9.82856 30.0953 9.24862C30.6753 8.6585 30.9652 7.93102 30.9652 7.06619C30.9652 6.19118 30.6753 5.4637 30.0953 4.88376C29.5256 4.30381 28.8032 4.01384 27.9282 4.01384C27.5009 4.01384 27.099 4.09523 26.7226 4.25803C26.3461 4.41064 26.0256 4.61922 25.7611 4.88376C25.4966 5.14829 25.288 5.47388 25.1354 5.86051C24.9828 6.23697 24.9065 6.63886 24.9065 7.06619C24.9065 7.94119 25.1914 8.66867 25.7611 9.24862Z" fill="white"/>
<path d="M34.1302 1.51091V0.030524H35.5342V1.51091H34.1302ZM34.1912 11.1869V2.94552H35.4884V11.1869H34.1912Z" fill="white"/>
<path d="M58.7021 9.98118H59.6025V11.1869H58.5342C57.9543 11.1869 57.4456 11.0749 57.0081 10.8511C56.5807 10.6171 56.2501 10.2813 56.0161 9.84382C55.7922 9.40632 55.6803 8.89251 55.6803 8.30239V4.12067H54.2305V3.89174L56.7791 1.20568H56.9775V2.94552H59.5567V4.12067H56.9775V8.2566C56.9775 8.63306 57.0437 8.94847 57.1759 9.20283C57.3082 9.45719 57.5015 9.65051 57.7559 9.78278C58.0204 9.91505 58.3358 9.98118 58.7021 9.98118ZM50.3083 6.31836C50.5932 6.35906 50.8018 6.39467 50.9341 6.42519C51.0765 6.44554 51.2749 6.49133 51.5293 6.56255C51.7938 6.6236 51.9973 6.68973 52.1397 6.76095C52.2821 6.83217 52.4449 6.93392 52.6281 7.06619C52.8214 7.18828 52.9638 7.33072 53.0554 7.49352C53.1469 7.64613 53.2283 7.83945 53.2996 8.07346C53.3708 8.2973 53.4064 8.54658 53.4064 8.82129C53.4064 9.59455 53.1063 10.2152 52.506 10.6832C51.9159 11.1411 51.1325 11.37 50.1557 11.37C49.5046 11.37 48.9348 11.2632 48.4465 11.0495C47.9581 10.8257 47.5766 10.5103 47.3019 10.1033C47.0272 9.68612 46.8796 9.20283 46.8593 8.65341H48.126C48.1565 9.14178 48.36 9.51824 48.7364 9.78278C49.1129 10.0371 49.5962 10.1643 50.1863 10.1643C50.7662 10.1643 51.2342 10.0524 51.5903 9.82856C51.9464 9.59455 52.1244 9.27914 52.1244 8.88233C52.1244 8.69919 52.0837 8.5364 52.0024 8.39396C51.921 8.25152 51.8243 8.1396 51.7124 8.0582C51.6005 7.96663 51.4326 7.88523 51.2088 7.81401C50.9951 7.74279 50.8069 7.69192 50.6441 7.6614C50.4915 7.63087 50.2727 7.59017 49.9879 7.5393C49.8047 7.50878 49.6623 7.48334 49.5605 7.46299C49.4588 7.44264 49.3214 7.41721 49.1485 7.38668C48.9755 7.34599 48.8331 7.31038 48.7212 7.27985C48.6194 7.23915 48.4923 7.19337 48.3396 7.1425C48.187 7.08145 48.0649 7.0204 47.9734 6.95935C47.8818 6.88813 47.775 6.81182 47.6529 6.73043C47.541 6.63886 47.4494 6.5422 47.3782 6.44046C47.3171 6.33871 47.251 6.22679 47.1798 6.1047C47.1187 5.97243 47.0729 5.8249 47.0424 5.66211C47.0221 5.49931 47.0119 5.33144 47.0119 5.15847C47.0119 4.44625 47.2968 3.8714 47.8665 3.43389C48.4363 2.98621 49.1841 2.76238 50.1099 2.76238C51.046 2.76238 51.7938 2.99639 52.3534 3.46442C52.9129 3.92227 53.2029 4.53782 53.2233 5.31109H52.0024C51.9718 4.86341 51.7887 4.52256 51.4529 4.28855C51.1274 4.04436 50.6746 3.92227 50.0947 3.92227C49.5351 3.92227 49.0874 4.03419 48.7517 4.25803C48.4261 4.47169 48.2633 4.75658 48.2633 5.11268C48.2633 5.27548 48.304 5.42301 48.3854 5.55527C48.4668 5.67737 48.5584 5.77911 48.6601 5.86051C48.7619 5.93173 48.9196 6.00295 49.1332 6.07417C49.3469 6.13522 49.5249 6.18101 49.6674 6.21153C49.82 6.23188 50.0336 6.26749 50.3083 6.31836Z" fill="white"/>
<path d="M64.6386 11.37C63.8247 11.37 63.082 11.1869 62.4105 10.8206C61.739 10.4441 61.215 9.93031 60.8385 9.27914C60.4621 8.6178 60.2739 7.88015 60.2739 7.06619C60.2739 5.8249 60.6859 4.79727 61.51 3.98331C62.3443 3.16936 63.3872 2.76238 64.6386 2.76238C65.4627 2.76238 66.2054 2.9506 66.8668 3.32706C67.5383 3.69334 68.0622 4.20715 68.4387 4.8685C68.8253 5.51966 69.0186 6.25223 69.0186 7.06619C69.0186 8.2973 68.6015 9.32493 67.7672 10.1491C66.9329 10.963 65.89 11.37 64.6386 11.37ZM62.4562 9.26388C63.0362 9.83365 63.7636 10.1185 64.6386 10.1185C65.5238 10.1185 66.2512 9.83365 66.821 9.26388C67.4009 8.68393 67.6909 7.95137 67.6909 7.06619C67.6909 6.18101 67.4009 5.45353 66.821 4.88376C66.2512 4.30381 65.5238 4.01384 64.6386 4.01384C63.7636 4.01384 63.0362 4.30381 62.4562 4.88376C61.8865 5.45353 61.6016 6.18101 61.6016 7.06619C61.6016 7.95137 61.8865 8.68393 62.4562 9.26388Z" fill="white"/>
<path d="M74.1339 2.89973H74.8664V4.13593H74.0271C73.2843 4.13593 72.7044 4.36486 72.2873 4.82271C71.8803 5.27039 71.6768 5.90121 71.6768 6.71517V11.1869H70.3796V2.94552H71.2953L71.5089 4.19698C72.1092 3.33215 72.9842 2.89973 74.1339 2.89973Z" fill="white"/>
<path d="M83.1097 7.09671C83.1097 7.20863 83.0995 7.36633 83.0792 7.56982H76.0437C76.1454 8.33291 76.4608 8.94847 76.9899 9.4165C77.519 9.87435 78.1701 10.1033 78.9434 10.1033C79.5131 10.1033 80.0167 9.98118 80.4542 9.73699C80.9019 9.48263 81.258 9.12652 81.5225 8.66867H82.8808C82.5348 9.52333 82.016 10.1898 81.3241 10.668C80.6323 11.136 79.8387 11.37 78.9434 11.37C77.753 11.37 76.7559 10.9579 75.9521 10.1338C75.1484 9.30966 74.7465 8.28713 74.7465 7.06619C74.7465 5.83507 75.1484 4.81254 75.9521 3.99858C76.7559 3.17444 77.753 2.76238 78.9434 2.76238C80.1744 2.76238 81.1766 3.17953 81.9498 4.01384C82.7231 4.84815 83.1097 5.87577 83.1097 7.09671ZM78.9434 3.99858C78.455 3.99858 78.0073 4.09523 77.6003 4.28855C77.2036 4.48186 76.8729 4.76166 76.6084 5.12795C76.3438 5.48405 76.1658 5.89612 76.0742 6.36415H81.7972C81.7056 5.88595 81.5276 5.46879 81.2631 5.11268C80.9985 4.7464 80.6679 4.47169 80.2711 4.28855C79.8743 4.09523 79.4317 3.99858 78.9434 3.99858Z" fill="white"/>
<mask id="mask0_92_3291" style="mask-type:alpha" maskUnits="userSpaceOnUse" x="36" y="2" width="10" height="10">
<rect x="36.4497" y="2.68896" width="9.16834" height="8.72135" fill="#D9D9D9"/>
</mask>
<g mask="url(#mask0_92_3291)">
<path d="M44.506 6.44974H45.5438V14.6911H44.4602L44.3229 13.4396C43.9363 13.8975 43.4632 14.2536 42.9036 14.5079C42.3542 14.7521 41.7488 14.8742 41.0875 14.8742C39.8768 14.8742 38.8644 14.4672 38.0505 13.6533C37.2366 12.8292 36.8296 11.8015 36.8296 10.5704C36.8296 9.3393 37.2366 8.31676 38.0505 7.5028C38.8644 6.67867 39.8768 6.2666 41.0875 6.2666C41.759 6.2666 42.3694 6.39378 42.9189 6.64815C43.4784 6.90251 43.9515 7.25862 44.3382 7.71647L44.506 6.44974ZM39.012 12.7528C39.5919 13.3328 40.3193 13.6228 41.1943 13.6228C42.0693 13.6228 42.7917 13.3328 43.3614 12.7528C43.9312 12.1729 44.2161 11.4454 44.2161 10.5704C44.2161 9.69541 43.9312 8.96793 43.3614 8.38798C42.7917 7.80804 42.0693 7.51806 41.1943 7.51806C40.3193 7.51806 39.5919 7.81313 39.012 8.40325C38.4422 8.98319 38.1573 9.70558 38.1573 10.5704C38.1573 11.4352 38.4422 12.1627 39.012 12.7528Z" fill="#F95410"/>
<path d="M44.506 -3.16598H45.5438V5.07536H44.4602L44.3229 3.8239C43.9363 4.28175 43.4632 4.63786 42.9036 4.89222C42.3542 5.13641 41.7488 5.2585 41.0875 5.2585C39.8768 5.2585 38.8644 4.85152 38.0505 4.03756C37.2366 3.21343 36.8296 2.18581 36.8296 0.954691C36.8296 -0.276423 37.2366 -1.29896 38.0505 -2.11292C38.8644 -2.93705 39.8768 -3.34912 41.0875 -3.34912C41.759 -3.34912 42.3694 -3.22194 42.9189 -2.96758C43.4784 -2.71321 43.9515 -2.35711 44.3382 -1.89925L44.506 -3.16598ZM39.012 3.13712C39.5919 3.71707 40.3193 4.00704 41.1943 4.00704C42.0693 4.00704 42.7917 3.71707 43.3614 3.13712C43.9312 2.55717 44.2161 1.8297 44.2161 0.954691C44.2161 0.0796847 43.9312 -0.647791 43.3614 -1.22774C42.7917 -1.80768 42.0693 -2.09766 41.1943 -2.09766C40.3193 -2.09766 39.5919 -1.8026 39.012 -1.21248C38.4422 -0.63253 38.1573 0.0898592 38.1573 0.954691C38.1573 1.81952 38.4422 2.547 39.012 3.13712Z" fill="#F95410"/>
</g>
<path d="M8.3328 16.6286H9.37058V24.8699H8.28701L8.14966 23.6184C7.76303 24.0763 7.28992 24.4324 6.73033 24.6867C6.18092 24.9309 5.57555 25.053 4.91421 25.053C3.70346 25.053 2.69112 24.646 1.87717 23.8321C1.06322 23.008 0.656246 21.9804 0.656246 20.7493C0.656246 19.5182 1.06322 18.4956 1.87717 17.6817C2.69112 16.8576 3.70346 16.4455 4.91421 16.4455C5.58572 16.4455 6.19618 16.5727 6.7456 16.827C7.30519 17.0814 7.77829 17.4375 8.16492 17.8954L8.3328 16.6286ZM2.83864 22.9317C3.41858 23.5116 4.14605 23.8016 5.02104 23.8016C5.89604 23.8016 6.61842 23.5116 7.18818 22.9317C7.75794 22.3517 8.04283 21.6243 8.04283 20.7493C8.04283 19.8743 7.75794 19.1468 7.18818 18.5669C6.61842 17.9869 5.89604 17.697 5.02104 17.697C4.14605 17.697 3.41858 17.992 2.83864 18.5821C2.26888 19.1621 1.984 19.8844 1.984 20.7493C1.984 21.6141 2.26888 22.3415 2.83864 22.9317ZM18.1798 16.6286H19.0497V23.71C19.0497 25.0428 18.6885 26.0908 17.9662 26.8539C17.2438 27.6169 16.2569 27.9985 15.0054 27.9985C13.9982 27.9985 13.1486 27.7492 12.4567 27.2507C11.7751 26.7521 11.3223 26.0654 11.0985 25.1904H12.3957C12.5788 25.6991 12.9044 26.0959 13.3724 26.3808C13.8506 26.6656 14.395 26.8081 15.0054 26.8081C15.8397 26.8081 16.5061 26.5436 17.0047 26.0145C17.5134 25.4956 17.7678 24.7834 17.7678 23.8779V23.3742C16.9843 24.1984 15.9872 24.6104 14.7765 24.6104C13.6268 24.6104 12.6602 24.2187 11.8768 23.4353C11.1036 22.6519 10.7169 21.6853 10.7169 20.5356C10.7169 19.7827 10.895 19.0959 11.2511 18.4753C11.6072 17.8445 12.0956 17.351 12.7162 16.9949C13.3368 16.6286 14.0236 16.4455 14.7765 16.4455C15.4175 16.4455 16.0127 16.5778 16.5621 16.8423C17.1217 17.0967 17.5897 17.4528 17.9662 17.9106L18.1798 16.6286ZM14.9139 23.359C15.4531 23.359 15.9415 23.2369 16.379 22.9927C16.8165 22.7485 17.1573 22.4128 17.4015 21.9854C17.6457 21.5581 17.7678 21.0748 17.7678 20.5356C17.7678 19.7115 17.4981 19.0349 16.9589 18.5058C16.4197 17.9666 15.738 17.697 14.9139 17.697C14.0897 17.697 13.403 17.9666 12.8535 18.5058C12.3143 19.0451 12.0447 19.7217 12.0447 20.5356C12.0447 21.3394 12.3143 22.0109 12.8535 22.5501C13.403 23.0894 14.0897 23.359 14.9139 23.359ZM28.7534 20.7798C28.7534 20.8917 28.7433 21.0494 28.7229 21.2529H21.6874C21.7891 22.016 22.1045 22.6315 22.6336 23.0995C23.1626 23.5574 23.8138 23.7863 24.587 23.7863C25.1568 23.7863 25.6604 23.6642 26.0979 23.42C26.5456 23.1657 26.9017 22.8096 27.1662 22.3517H28.5245C28.1786 23.2064 27.6597 23.8728 26.9678 24.351C26.276 24.819 25.4824 25.053 24.587 25.053C23.3966 25.053 22.3996 24.641 21.5958 23.8168C20.792 22.9927 20.3901 21.9702 20.3901 20.7493C20.3901 19.5182 20.792 18.4956 21.5958 17.6817C22.3996 16.8576 23.3966 16.4455 24.587 16.4455C25.8181 16.4455 26.8203 16.8627 27.5936 17.697C28.3668 18.5313 28.7534 19.5589 28.7534 20.7798ZM24.587 17.6817C24.0987 17.6817 23.651 17.7783 23.244 17.9717C22.8472 18.165 22.5166 18.4448 22.252 18.811C21.9875 19.1671 21.8094 19.5792 21.7179 20.0472H27.4409C27.3494 19.569 27.1713 19.1519 26.9068 18.7958C26.6423 18.4295 26.3116 18.1548 25.9148 17.9717C25.518 17.7783 25.0754 17.6817 24.587 17.6817ZM34.1993 16.4455C35.1659 16.4455 35.934 16.7711 36.5038 17.4222C37.0837 18.0734 37.3737 18.9128 37.3737 19.9404V24.8699H36.0765V20.2456C36.0765 19.686 35.99 19.2129 35.817 18.8263C35.6542 18.4397 35.405 18.1446 35.0692 17.9411C34.7436 17.7377 34.3417 17.6359 33.8635 17.6359C33.1615 17.6359 32.5714 17.9004 32.0932 18.4295C31.615 18.9484 31.3759 19.5945 31.3759 20.3677V24.8699H30.0787V16.6286H30.9944L31.2538 17.9259C31.4573 17.6105 31.7066 17.3459 32.0016 17.1323C32.2967 16.9084 32.6325 16.7406 33.0089 16.6286C33.3854 16.5066 33.7822 16.4455 34.1993 16.4455ZM42.8923 25.053C42.0885 25.053 41.356 24.8699 40.6946 24.5036C40.0435 24.1271 39.5297 23.6083 39.1532 22.9469C38.7869 22.2856 38.6038 21.553 38.6038 20.7493C38.6038 19.5182 39.0108 18.4956 39.8247 17.6817C40.6488 16.8576 41.6714 16.4455 42.8923 16.4455C43.869 16.4455 44.7135 16.7151 45.4257 17.2544C46.1481 17.7936 46.6365 18.5109 46.8908 19.4062H45.6088C45.3647 18.8772 44.9984 18.46 44.51 18.1548C44.0318 17.8496 43.4926 17.697 42.8923 17.697C42.0478 17.697 41.3407 17.992 40.7709 18.5821C40.2113 19.1621 39.9316 19.8844 39.9316 20.7493C39.9316 21.319 40.0587 21.8379 40.3131 22.3059C40.5675 22.7638 40.9185 23.1301 41.3661 23.4048C41.824 23.6693 42.3327 23.8016 42.8923 23.8016C43.4926 23.8016 44.0267 23.649 44.4948 23.3437C44.9729 23.0283 45.3392 22.5959 45.5936 22.0465H46.9061C46.6517 22.9622 46.1583 23.6947 45.4257 24.2442C44.7033 24.7834 43.8589 25.053 42.8923 25.053ZM53.9924 16.6286H55.3812L51.459 25.2056C51.1538 25.8771 50.8536 26.396 50.5586 26.7623C50.2635 27.1286 49.9329 27.3931 49.5666 27.5559C49.2003 27.7289 48.7526 27.8153 48.2236 27.8153H47.4452V26.6402H48.1167C48.6662 26.6402 49.0782 26.5283 49.3529 26.3045C49.6276 26.0806 49.9329 25.6228 50.2686 24.9309L50.5586 24.3052L46.8958 16.6286H48.3151L51.2454 22.8706L53.9924 16.6286Z" fill="#F95410"/>
</svg>
