<svg width="111" height="17" viewBox="0 0 111 17" fill="none" xmlns="http://www.w3.org/2000/svg">
<path d="M28.1265 7.98639L22.4908 10.6738V5.35115L28.1265 7.98639ZM30.7617 7.28192C30.6313 7.0471 30.4225 6.86446 30.1877 6.76009L22.4386 3.13339C22.2298 3.02902 21.995 3.00293 21.7863 3.00293C21.5776 3.00293 21.3427 3.0812 21.134 3.21166C20.9514 3.34212 20.7948 3.49867 20.6644 3.7074C20.56 3.91613 20.5078 4.12486 20.5078 4.35968V11.6653C20.5078 11.9001 20.56 12.1088 20.6644 12.3176C20.7687 12.5263 20.9253 12.6828 21.134 12.8133C21.3166 12.9438 21.5515 12.9959 21.7863 13.022C22.0211 13.0481 22.2298 12.9959 22.4386 12.8916L30.1877 9.21268C30.3704 9.13441 30.5008 9.00395 30.6313 8.87349C30.7617 8.71694 30.84 8.5604 30.8922 8.37776C30.9444 8.19512 30.9705 8.01248 30.9444 7.80375C30.9444 7.62111 30.8661 7.43847 30.7617 7.28192Z" fill="#FF6900"/>
<path d="M2.19168 9.65628C2.40041 9.83892 2.63523 9.99547 2.89614 10.0998C3.13097 10.2303 3.39188 10.3347 3.6528 10.4129C3.91371 10.4912 4.17462 10.5434 4.43554 10.5956C4.69645 10.6217 4.95736 10.6478 5.19219 10.6478C5.66183 10.6478 6.10539 10.5956 6.54894 10.439C6.91422 10.3086 7.25341 10.1259 7.54041 9.86502C7.80133 9.63019 8.01006 9.34319 8.16661 9.03009C8.32315 8.6909 8.37534 8.35172 8.37534 7.98644C8.37534 7.64725 8.29706 7.30806 8.16661 6.99496C8.03615 6.68187 7.82742 6.39486 7.5665 6.16004C7.2795 5.92522 6.9664 5.71648 6.60112 5.58603C6.18366 5.45557 5.7662 5.3773 5.34874 5.3773C5.06173 5.3773 4.74863 5.40339 4.46163 5.45557C4.17462 5.50775 3.88762 5.58603 3.60061 5.69039C3.3397 5.79476 3.07878 5.92522 2.81787 6.08176C2.58305 6.21222 2.37432 6.39486 2.19168 6.5775V9.65628ZM2.19168 14.8485L0 15.9965V5.3512C0 5.3512 2.19168 3.44653 5.63574 3.44653C6.34021 3.44653 7.01858 3.5509 7.69696 3.78572C8.29706 3.99445 8.84498 4.30755 9.28854 4.69892C9.73209 5.09029 10.0974 5.58603 10.3322 6.13395C10.5931 6.73405 10.7236 7.36024 10.6975 8.01253C10.6714 8.66481 10.567 9.29101 10.3061 9.86502C10.0452 10.4129 9.67991 10.9087 9.21026 11.3C8.71453 11.7175 8.16661 12.0306 7.5665 12.2132C6.88813 12.422 6.20975 12.5524 5.50528 12.5263C5.19219 12.5263 4.87909 12.5002 4.56599 12.4742C4.27899 12.4481 3.96589 12.3698 3.67889 12.3176C3.41797 12.2393 3.13097 12.1611 2.87005 12.0567C2.63523 11.9784 2.4265 11.8741 2.19168 11.7436V14.8485Z" fill="#FF6900"/>
<path d="M12.4194 4.82936C12.4194 4.82936 14.5328 3.02905 18.7596 3.02905V5.03809C16.3071 5.03809 14.6111 6.05565 14.6111 6.05565V12.3959H12.4194V4.82936Z" fill="#FF6900"/>
<path d="M92.4678 4.82936C92.4678 4.82936 94.5812 3.02905 98.808 3.02905V5.03809C96.3815 5.03809 94.6855 6.05565 94.6855 6.05565V12.3959H92.4939L92.4678 4.82936Z" fill="#FF6900"/>
<path d="M34.6233 8.06475C34.6233 8.40393 34.7015 8.74312 34.832 9.05622C34.9624 9.36932 35.1712 9.65632 35.4321 9.89114C35.7191 10.126 36.0322 10.3347 36.3975 10.4391C36.8149 10.5695 37.2324 10.6478 37.6499 10.6478C37.9369 10.6478 38.25 10.6217 38.537 10.5695C38.824 10.5173 39.111 10.4391 39.398 10.3347C39.6589 10.2303 39.9198 10.0999 40.1807 9.94333C40.4156 9.81287 40.6243 9.63023 40.8069 9.44759V6.3949C40.5982 6.21226 40.3634 6.05571 40.1025 5.95134C39.8676 5.82089 39.6067 5.71652 39.3458 5.63825C39.0849 5.55997 38.824 5.50779 38.5631 5.45561C38.3021 5.42951 38.0412 5.40342 37.8064 5.40342C37.3629 5.40342 36.8932 5.45561 36.4497 5.61215C36.0844 5.74261 35.7452 5.92525 35.4582 6.18616C35.1973 6.42099 34.9885 6.70799 34.832 7.02109C34.6754 7.33419 34.6233 7.69947 34.6233 8.06475ZM32.3011 8.06475C32.3011 7.41246 32.4316 6.76018 32.6925 6.16007C32.9534 5.61215 33.3187 5.11642 33.7883 4.72505C34.2841 4.30758 34.832 3.99449 35.4321 3.81185C36.1105 3.60312 36.7888 3.47266 37.4933 3.49875C37.8064 3.49875 38.1195 3.52484 38.4326 3.55093C38.7196 3.57703 39.0327 3.6553 39.3197 3.70748C39.5806 3.78576 39.8676 3.86403 40.1285 3.9684C40.3634 4.04667 40.5721 4.15104 40.8069 4.28149V1.35926L42.9986 0.0546875V10.6739C42.9986 10.6739 41.1983 12.5786 37.3629 12.5786C36.6584 12.5786 35.98 12.4742 35.3016 12.2394C34.7015 12.0306 34.1536 11.7175 33.7101 11.3262C33.2665 10.9348 32.9012 10.4391 32.6664 9.89114C32.4055 9.31713 32.275 8.69094 32.3011 8.06475Z" fill="#FF6900"/>
<path d="M45.347 3.62924H47.5387V12.422H45.347V3.62924ZM46.4428 2.42904C46.2341 2.42904 46.0515 2.40294 45.8427 2.35076C45.6862 2.29858 45.5296 2.22031 45.3992 2.08985C45.2687 1.98548 45.1905 1.85503 45.1122 1.72457C45.0339 1.59411 45.0078 1.43756 45.0078 1.28101C45.0078 1.12447 45.0339 0.967918 45.1122 0.81137C45.1905 0.680913 45.2687 0.550456 45.3992 0.44609C45.5296 0.341725 45.6862 0.26345 45.8427 0.185176C46.0254 0.132993 46.2341 0.0808105 46.4428 0.0808105C46.6516 0.0808105 46.8603 0.106902 47.0429 0.185176C47.1995 0.237359 47.356 0.315633 47.4865 0.44609C47.617 0.550456 47.6952 0.680913 47.7735 0.81137C47.8518 0.941827 47.8779 1.09837 47.8779 1.28101C47.8779 1.43756 47.8518 1.59411 47.7735 1.72457C47.6952 1.85503 47.617 1.98548 47.4865 2.08985C47.356 2.19421 47.1995 2.29858 47.0429 2.35076C46.8603 2.40294 46.6516 2.42904 46.4428 2.42904Z" fill="#FF6900"/>
<path d="M51.5828 7.93436C51.5828 8.27354 51.6611 8.61273 51.7915 8.92583C51.922 9.23893 52.1307 9.52593 52.3916 9.73466C52.6786 9.96948 52.9917 10.1521 53.357 10.2826C53.7745 10.413 54.1919 10.4913 54.6094 10.4913C54.9225 10.4913 55.2095 10.4652 55.5226 10.413C55.8096 10.3609 56.0966 10.2826 56.3836 10.1782C56.6445 10.0739 56.9054 9.94339 57.1664 9.78685C57.4012 9.65639 57.6099 9.47375 57.7926 9.29111V6.39496C57.5838 6.21232 57.3229 6.05578 57.0881 5.95141C56.8533 5.82095 56.5923 5.71659 56.3314 5.63831C56.0705 5.56004 55.8096 5.50786 55.5487 5.45567C55.2878 5.42958 55.0269 5.40349 54.792 5.40349C54.3224 5.40349 53.8788 5.48176 53.4353 5.61222C53.07 5.71659 52.7308 5.92532 52.4438 6.16014C52.1829 6.36887 51.9742 6.65588 51.8176 6.96897C51.6611 7.25598 51.5828 7.59517 51.5828 7.93436ZM52.0264 14.1441C52.0264 14.1441 52.6004 14.2746 52.8613 14.3007C53.1222 14.3528 53.3831 14.3789 53.644 14.3789C53.9049 14.405 54.1137 14.405 54.2963 14.405C54.8181 14.405 55.34 14.3528 55.8357 14.1963C56.2271 14.0658 56.5923 13.8832 56.9315 13.6223C57.2185 13.3875 57.4273 13.1265 57.5838 12.7874C57.7404 12.4743 57.7926 12.1351 57.7926 11.7959V11.4045C57.5838 11.535 57.349 11.6654 57.1403 11.7698C56.8794 11.9002 56.5923 12.0046 56.3053 12.0829C55.9922 12.1873 55.6791 12.2394 55.34 12.2916C55.0008 12.3438 54.6355 12.3699 54.2963 12.3699C53.6179 12.3699 52.9396 12.2655 52.3134 12.0568C51.7393 11.8481 51.1914 11.5611 50.7218 11.1436C50.2782 10.7522 49.9129 10.2826 49.6781 9.73466C49.4172 9.16065 49.2868 8.53446 49.3128 7.90827C49.3128 7.25598 49.4433 6.62979 49.7042 6.05578C49.9651 5.50786 50.3304 5.01212 50.8001 4.64684C51.2958 4.22938 51.8437 3.94237 52.4438 3.73364C53.1222 3.52491 53.8006 3.39445 54.505 3.42054C57.9752 3.42054 60.0103 5.35131 60.0103 5.35131V11.3523C60.0364 12.0829 59.906 12.7874 59.645 13.4657C59.4102 14.0658 59.0449 14.5877 58.5753 15.0312C58.0796 15.4748 57.4795 15.7879 56.8272 15.9705C56.0444 16.2053 55.2356 16.3097 54.4268 16.2836C54.1137 16.2836 53.7745 16.2575 53.4353 16.2314C53.0961 16.2053 52.7308 16.1531 52.3916 16.101C52.0524 16.0488 51.6872 15.9966 51.348 15.9183C51.0088 15.84 50.6696 15.7618 50.3565 15.6574L52.0264 14.1441Z" fill="#FF6900"/>
<path d="M62.2279 3.62924H64.4195V12.422H62.2279V3.62924ZM63.3237 2.42904C63.115 2.42904 62.9323 2.40294 62.7236 2.35076C62.567 2.29858 62.4105 2.22031 62.28 2.08985C62.1496 1.98548 62.0713 1.85503 61.993 1.72457C61.9148 1.59411 61.8887 1.43756 61.8887 1.28101C61.8887 1.12447 61.9148 0.967918 61.993 0.81137C62.0713 0.680913 62.1496 0.550456 62.28 0.44609C62.4105 0.341725 62.567 0.26345 62.7236 0.185176C62.9062 0.132993 63.115 0.0808105 63.3237 0.0808105C63.5324 0.0808105 63.7412 0.106902 63.9238 0.185176C64.0803 0.237359 64.2369 0.315633 64.3674 0.44609C64.4978 0.550456 64.5761 0.680913 64.6544 0.81137C64.7326 0.967918 64.7587 1.12447 64.7587 1.28101C64.7587 1.43756 64.7326 1.59411 64.6544 1.72457C64.5761 1.85503 64.4978 1.98548 64.3674 2.08985C64.2369 2.19421 64.0803 2.29858 63.9238 2.35076C63.7412 2.40294 63.5324 2.42904 63.3237 2.42904Z" fill="#FF6900"/>
<path d="M69.7682 5.273H72.1947V3.62925H69.7682V0.889648H67.5504V3.62925H65.437V5.273H67.5504V12.422H69.7682V5.273Z" fill="#FF6900"/>
<path d="M74.9086 9.57811C74.9086 9.73465 74.9346 9.86511 75.0129 9.99557C75.0912 10.1521 75.2217 10.2565 75.3782 10.3348C75.5608 10.4391 75.7957 10.5435 76.0044 10.5696C76.3175 10.6479 76.6306 10.6739 76.9437 10.6479C78.9005 10.6479 80.3877 10.0217 80.5704 9.86511V9.03019C80.2312 8.95191 79.892 8.84755 79.5789 8.79536C79.2397 8.74318 78.9266 8.691 78.6396 8.63882C78.3526 8.61273 78.0656 8.58663 77.7786 8.56054C77.5177 8.53445 77.2829 8.53445 77.0741 8.53445C76.735 8.53445 76.3958 8.56054 76.0566 8.61272C75.8218 8.66491 75.613 8.71709 75.4043 8.82146C75.2477 8.89973 75.1434 9.0041 75.039 9.13455C74.9607 9.2911 74.9086 9.42156 74.9086 9.57811ZM72.5864 9.63029C72.5864 9.23892 72.6647 8.82146 72.8734 8.48227C73.0822 8.11699 73.3431 7.80389 73.7084 7.59516C74.1258 7.30815 74.5955 7.12552 75.0912 7.02115C75.7174 6.8646 76.3697 6.81242 76.9959 6.81242C77.5699 6.81242 78.1439 6.8646 78.6918 6.94288C79.318 7.02115 79.9442 7.15161 80.5443 7.30815C80.5182 7.04724 80.4399 6.76024 80.2834 6.52541C80.1268 6.29059 79.9181 6.08186 79.6833 5.92531C79.3963 5.74267 79.0832 5.61221 78.7701 5.53394C78.3787 5.42957 77.9613 5.37739 77.5438 5.40348C77.2829 5.40348 77.022 5.42957 76.735 5.45567C76.448 5.48176 76.1349 5.53394 75.8218 5.58612C75.5087 5.63831 75.1956 5.71658 74.8825 5.82095C74.5955 5.89922 74.3085 6.00358 74.0215 6.13404L73.3431 4.33374C73.6823 4.20328 74.0215 4.09891 74.4128 3.99455C74.8042 3.89018 75.1695 3.81191 75.5869 3.73363C75.9783 3.65536 76.3697 3.60318 76.7871 3.57709C77.1785 3.5249 77.5699 3.5249 77.9352 3.5249C79.5789 3.5249 80.8052 3.94236 81.588 4.77729C82.3707 5.61221 82.7882 6.89069 82.7882 8.63882V10.9349C82.7882 10.9349 80.9096 12.6308 76.7871 12.6308C76.187 12.6308 75.5608 12.5525 74.9868 12.396C74.5172 12.2655 74.0736 12.0568 73.6823 11.7698C73.3431 11.535 73.0822 11.1958 72.8995 10.8305C72.6908 10.4391 72.5864 10.0478 72.5864 9.63029Z" fill="#FF6900"/>
<path d="M86.6758 0.0546875H84.458V12.422H86.6758V0.0546875Z" fill="#FF6900"/>
<path d="M100.295 3.60327H102.487V7.88226C102.487 8.24754 102.539 8.63891 102.617 9.00419C102.696 9.31729 102.852 9.63038 103.087 9.86521C103.322 10.1261 103.609 10.3088 103.948 10.4131C104.392 10.5436 104.835 10.6219 105.279 10.6219C107.001 10.6219 107.992 10.0478 107.992 10.0478V3.60327H110.184V11.2741C110.184 11.2741 107.914 12.5526 105.227 12.5526C104.418 12.5526 103.296 12.4483 102.722 12.2656C102.2 12.1091 101.704 11.8221 101.313 11.4307C100.948 11.0393 100.661 10.5697 100.504 10.0739C100.321 9.47384 100.243 8.84764 100.243 8.22145L100.295 3.60327Z" fill="#FF6900"/>
<path d="M91.0327 11.1174C91.0327 11.4044 90.9544 11.6914 90.7978 11.9262C90.6413 12.1611 90.4065 12.3437 90.1455 12.4481C89.8846 12.5524 89.5976 12.5785 89.3106 12.5263C89.0236 12.4742 88.7627 12.3437 88.5801 12.135C88.3713 11.9262 88.2409 11.6653 88.1887 11.4044C88.1365 11.1435 88.1626 10.8304 88.267 10.5695C88.3713 10.3086 88.554 10.0737 88.7888 9.9172C89.0236 9.76065 89.3106 9.68237 89.5976 9.68237C89.7803 9.68237 89.9629 9.70846 90.1455 9.78674C90.3282 9.86501 90.4847 9.96938 90.6152 10.0998C90.7456 10.2303 90.85 10.3868 90.9283 10.5695C91.0066 10.7521 91.0327 10.9348 91.0327 11.1174Z" fill="#FF6900"/>
</svg>
