<svg width="58" height="30" viewBox="0 0 58 30" fill="none" xmlns="http://www.w3.org/2000/svg">
<path d="M1.79883 7.76343H55.7602V27.0353L1.79883 22.7955V7.76343Z" fill="white"/>
<path d="M57.5588 29.8619V0.0546875L0 5.34804V24.5429L57.5588 29.8619ZM8.55673 16.1403L11.1263 20.4572H8.1456L6.2441 16.6028H5.16487V20.4572H2.59528V9.76773H6.83511C7.45181 9.76773 7.99142 9.84482 8.45395 10.0247C8.91647 10.2046 9.30191 10.4358 9.63596 10.7442C9.94431 11.0525 10.1756 11.4123 10.3297 11.8234C10.4839 12.2345 10.561 12.6714 10.561 13.1339C10.561 13.5707 10.4839 13.9562 10.3554 14.2902C10.227 14.6243 10.0471 14.9069 9.86722 15.1639C9.66165 15.4208 9.43039 15.6264 9.19913 15.7806C8.96786 15.9347 8.7623 16.0632 8.55673 16.1403ZM19.4775 17.1168H14.2098C14.2098 17.1168 14.2612 18.0418 14.8779 18.4272C15.3147 18.7099 15.8801 18.8127 16.5482 18.8127C17.7816 18.8127 18.424 18.4786 18.6552 18.3502L19.1177 20.0718C18.8094 20.226 18.424 20.3544 17.9614 20.4572C17.4989 20.56 16.9079 20.6371 16.2398 20.6371C15.6231 20.6371 15.0578 20.56 14.4925 20.3801C13.9529 20.226 13.4646 19.969 13.0535 19.635C12.6424 19.3009 12.3083 18.8641 12.0771 18.3502C11.8458 17.8362 11.7173 17.2195 11.7173 16.4744C11.7173 15.832 11.8201 15.241 12.0257 14.7013C12.2312 14.1617 12.5139 13.6992 12.8736 13.3138C13.2334 12.9283 13.6702 12.62 14.1841 12.4144C14.698 12.2088 15.2377 12.1061 15.8544 12.1061C16.985 12.1061 17.8586 12.4401 18.5267 13.1339C19.1948 13.802 19.5289 14.7784 19.5289 16.0375C19.4775 16.0375 19.4775 17.1168 19.4775 17.1168ZM28.728 20.4572H27.0064L26.7494 19.5836H26.6723C26.5182 19.8405 26.2355 20.0718 25.8501 20.303C25.4646 20.5343 24.9507 20.6628 24.3083 20.6628C23.7687 20.6628 23.2805 20.56 22.8436 20.3544C22.3811 20.1489 21.9957 19.8662 21.6616 19.5065C21.3276 19.1467 21.0706 18.6842 20.8908 18.1703C20.7109 17.6564 20.6081 17.0654 20.6081 16.3973C20.6081 15.7549 20.6852 15.1639 20.8651 14.65C21.0449 14.136 21.2762 13.6735 21.6102 13.3138C21.9443 12.954 22.3297 12.6714 22.7923 12.4658C23.2805 12.2602 23.7944 12.1574 24.4111 12.1574C24.7965 12.1574 25.1306 12.2088 25.4646 12.3116C25.7987 12.4144 26.0556 12.5429 26.2098 12.7228V8.35446H28.728V20.4572ZM38.1584 11.772H35.2291V20.4572H32.6595V11.772H29.8072V9.76773H38.1584V11.772ZM44.9935 20.4572H43.0663L42.835 19.635H42.758C42.5267 19.9176 42.2183 20.1746 41.8072 20.3544C41.3961 20.5343 40.9335 20.6371 40.3939 20.6371C39.9314 20.6371 39.5203 20.56 39.1862 20.4315C38.8522 20.303 38.5438 20.1232 38.3383 19.8919C38.107 19.6606 37.9528 19.4037 37.8243 19.0953C37.6959 18.787 37.6445 18.4529 37.6445 18.0932C37.6445 17.6307 37.7473 17.2195 37.9528 16.8598C38.1584 16.5258 38.441 16.2431 38.8008 16.0375C39.1605 15.832 39.5717 15.6521 40.0599 15.575C40.5481 15.4722 41.062 15.4208 41.6016 15.4208H42.4496V14.984C42.4496 14.6756 42.3468 14.4444 42.1156 14.2902C41.91 14.136 41.6016 14.0333 41.1905 14.0333C40.8565 14.0333 40.5224 14.0846 40.1884 14.1874C39.8543 14.2902 39.4946 14.4444 39.1091 14.6756L38.2612 13.0311C38.7237 12.7485 39.2376 12.5429 39.8286 12.3887C40.4196 12.2345 41.0106 12.1318 41.6273 12.1318C42.6295 12.1318 43.4517 12.363 44.0427 12.8512C44.6595 13.3395 44.9678 14.1103 44.9678 15.1639L44.9935 20.4572ZM54.9635 13.8534H54.1926L53.2419 13.6992C53.3704 13.8791 53.4731 14.0846 53.5502 14.3416C53.6273 14.5986 53.6787 14.8555 53.6787 15.1125C53.6787 15.5493 53.6016 15.9347 53.4474 16.2945C53.2933 16.6542 53.062 16.9626 52.7537 17.2195C52.4453 17.4765 52.0856 17.6821 51.623 17.8105C51.1605 17.939 50.6723 18.0418 50.107 18.0418C49.9785 18.0418 49.8757 18.0418 49.7472 18.0161C49.6445 18.0161 49.516 17.9904 49.4132 17.9647C49.3361 18.0161 49.259 18.0675 49.1819 18.1446C49.1048 18.2217 49.0791 18.3245 49.0791 18.4529C49.0791 18.6071 49.1305 18.7099 49.2333 18.8127C49.3361 18.9155 49.5674 18.9412 49.8757 18.9412H51.5973C52.0342 18.9412 52.4453 18.9926 52.8307 19.0696C53.1905 19.1724 53.5245 19.3009 53.7815 19.5065C54.0385 19.712 54.244 19.969 54.3982 20.303C54.5524 20.6371 54.6295 21.0225 54.6295 21.4594C54.6295 21.8962 54.5267 22.3073 54.2954 22.6928C54.0898 23.0782 53.7815 23.3866 53.3961 23.6692C53.0106 23.9519 52.5224 24.1574 51.9828 24.3116C51.4175 24.4658 50.8008 24.5429 50.1327 24.5429C48.8736 24.5429 47.8714 24.3116 47.152 23.8748C46.4325 23.4379 46.0727 22.7955 46.0727 21.999C46.0727 21.6392 46.2012 21.3052 46.4325 21.0482C46.6637 20.7656 47.0235 20.56 47.4603 20.4058C47.3318 20.303 47.1776 20.1489 46.9978 19.9433C46.8179 19.712 46.7408 19.4551 46.7408 19.121C46.7408 18.7356 46.8693 18.4016 47.1006 18.1189C47.3318 17.8362 47.6145 17.6307 47.9742 17.4508C47.82 17.3737 47.6659 17.2709 47.5117 17.1168C47.3575 16.9883 47.2033 16.8084 47.0492 16.6285C46.9207 16.4487 46.7922 16.2174 46.6894 15.9861C46.5866 15.7549 46.5609 15.4722 46.5609 15.1639C46.5609 14.727 46.6637 14.3159 46.8436 13.9562C47.0235 13.5964 47.2804 13.2624 47.5888 13.0054C47.9228 12.7485 48.2826 12.5429 48.7194 12.3887C49.1562 12.2345 49.6445 12.1831 50.1584 12.1831C50.3382 12.1831 50.5695 12.2088 50.8265 12.2345C51.0834 12.2602 51.3147 12.3116 51.4946 12.363H54.9635V13.8534ZM50.9292 15.9861C51.1348 15.7806 51.2376 15.4722 51.2376 15.0868C51.2376 14.7013 51.1348 14.393 50.9292 14.1874C50.7237 13.9819 50.4667 13.8791 50.1327 13.8791C49.7986 13.8791 49.5417 13.9819 49.3361 14.1874C49.1305 14.393 49.0278 14.7013 49.0278 15.0868C49.0278 15.4722 49.1305 15.7806 49.3361 15.9861C49.5417 16.1917 49.7986 16.2945 50.1327 16.2945C50.441 16.2945 50.7237 16.1917 50.9292 15.9861ZM50.9806 20.817H48.8479C48.7194 20.8941 48.5909 20.9968 48.4881 21.1253C48.3854 21.2538 48.334 21.4337 48.334 21.6392C48.334 21.9219 48.4624 22.1532 48.7451 22.3587C49.0021 22.5643 49.4903 22.6671 50.2098 22.6671C50.8779 22.6671 51.3661 22.5643 51.7001 22.333C52.0342 22.1018 52.1883 21.8448 52.1883 21.5621C52.1883 21.3052 52.0856 21.1253 51.9057 20.9968C51.7258 20.8684 51.4175 20.817 50.9806 20.817ZM42.4753 18.0932V16.9369L41.91 16.9626C41.6016 16.9626 41.319 17.014 41.1134 17.0654C40.9079 17.1168 40.728 17.1938 40.5995 17.2709C40.471 17.348 40.3682 17.4508 40.3168 17.5793C40.2655 17.7078 40.2398 17.8105 40.2398 17.939C40.2398 18.2988 40.3425 18.53 40.5481 18.6585C40.7537 18.787 40.9849 18.8641 41.2676 18.8641C41.5503 18.8641 41.7815 18.787 42.0128 18.6328C42.244 18.4786 42.3982 18.2988 42.4753 18.0932ZM26.2098 18.0161V14.5215C26.107 14.393 25.9528 14.2645 25.7473 14.136C25.5417 14.0076 25.2848 13.9562 25.0278 13.9562C24.7708 13.9562 24.5139 14.0076 24.3083 14.0846C24.077 14.1617 23.8715 14.3159 23.7173 14.4958C23.5374 14.7013 23.409 14.9326 23.3062 15.241C23.2034 15.5493 23.152 15.909 23.152 16.3459C23.152 17.1938 23.3062 17.8105 23.6402 18.2217C23.9743 18.6328 24.4111 18.8127 24.9507 18.8127C25.2848 18.8127 25.5417 18.7356 25.773 18.5557C25.9785 18.4016 26.1327 18.196 26.2098 18.0161ZM14.7237 14.3159C14.4668 14.5986 14.3126 14.9583 14.2612 15.4465L16.9079 15.4208C16.9079 15.241 16.8822 15.0354 16.8308 14.8555C16.7794 14.6756 16.7023 14.5215 16.6252 14.3673C16.5225 14.2388 16.394 14.1103 16.2398 14.0333C16.0856 13.9562 15.9058 13.9048 15.7002 13.9048C15.3147 13.9048 14.9807 14.0332 14.7237 14.3159ZM7.91433 13.1339C7.91433 12.6971 7.76016 12.3373 7.4775 12.0804C7.19485 11.8234 6.75802 11.6949 6.19271 11.6949H5.16487V14.65H5.93575C6.52676 14.65 6.98928 14.5215 7.34902 14.2902C7.73446 14.0589 7.91433 13.6735 7.91433 13.1339Z" fill="#C42732"/>
</svg>
