<svg width="46" height="28" viewBox="0 0 46 28" fill="none" xmlns="http://www.w3.org/2000/svg">
<path d="M40.4304 0H5.4848C2.79363 0 0.597168 2.19647 0.597168 4.88763V18.2841C0.597168 20.9753 2.79363 23.1717 5.4848 23.1717H9.06643V26.9117C9.06643 27.5053 9.54134 28 10.1548 28H35.7604C36.3541 28 36.8488 27.5251 36.8488 26.9117V23.1717H40.4304C43.1216 23.1717 45.318 20.9753 45.318 18.2841V4.88763C45.318 2.19647 43.1216 0 40.4304 0Z" fill="#FF9400"/>
<path d="M40.4305 2.45361H5.48496C4.13938 2.45361 3.03125 3.56174 3.03125 4.90732V18.3038C3.03125 19.6494 4.13938 20.7575 5.48496 20.7575H40.4305C41.7761 20.7575 42.8843 19.6494 42.8843 18.3038V4.88754C42.8843 3.54195 41.7761 2.45361 40.4305 2.45361Z" fill="white"/>
<path d="M39.995 5.02588H37.759C37.6007 5.02588 37.4424 5.12482 37.383 5.26333L34.2763 11.734L31.1696 5.26333C31.0904 5.12482 30.9519 5.02588 30.7936 5.02588H28.5576C28.3597 5.02588 28.2607 5.12482 28.2607 5.34249V17.8485C28.2607 18.0662 28.3597 18.1651 28.5576 18.1651H30.754C30.9321 18.1651 31.0706 18.0266 31.0706 17.8485V10.5863L33.1682 14.999C33.2473 15.1375 33.3858 15.2365 33.5441 15.2365H35.0084C35.1667 15.2365 35.3251 15.1375 35.3844 14.999L37.5017 10.5863V17.8485C37.5017 18.0266 37.6402 18.1651 37.8183 18.1651H40.0148C40.2127 18.1651 40.3116 18.0662 40.3116 17.8485V5.34249C40.3116 5.12482 40.2127 5.02588 39.995 5.02588Z" fill="#5229A1"/>
<path d="M26.0051 5.02588H23.6702C23.5119 5.02588 23.3733 5.10503 23.2942 5.24355L19.1981 13.0796V5.34249C19.1981 5.16439 19.0596 5.02588 18.8815 5.02588H16.685C16.4871 5.02588 16.3882 5.12482 16.3882 5.34249V17.8485C16.3882 18.0662 16.4871 18.1651 16.685 18.1651H19.0398C19.1981 18.1651 19.3366 18.0859 19.4157 17.9474L23.5119 10.1312V17.8683C23.5119 18.086 23.6108 18.1849 23.8087 18.1849H26.0051C26.1832 18.1849 26.3218 18.0464 26.3218 17.8683V5.34249C26.3218 5.16439 26.1832 5.02588 26.0051 5.02588Z" fill="#5229A1"/>
<path d="M10.6101 5.02588H5.92035C5.72248 5.02588 5.62354 5.12482 5.62354 5.34249V17.8485C5.62354 18.0662 5.72248 18.1651 5.92035 18.1651H8.13661C8.33449 18.1651 8.43343 18.0662 8.43343 17.8485V13.97H10.5903C11.9755 13.97 13.0836 13.5743 13.8949 12.763C14.7062 11.9517 15.102 10.8633 15.102 9.49796C15.102 8.13259 14.6864 7.04425 13.8949 6.23295C13.0836 5.42164 11.9953 5.02588 10.6101 5.02588ZM10.2143 11.3382H8.45322V7.63789H10.2143C11.5401 7.63789 12.2129 8.25132 12.2129 9.49796C12.2129 10.7446 11.5401 11.3382 10.2143 11.3382Z" fill="#5229A1"/>
<path d="M35.3053 23.4683C35.3053 23.2111 35.2855 23.0132 35.2261 22.8549C35.1668 22.657 35.0282 22.4987 34.8699 22.4195C34.6918 22.3404 34.4544 22.281 34.1576 22.281H32.9505C32.9307 22.281 32.9109 22.3008 32.9109 22.3206V26.4365C32.9109 26.4563 32.9307 26.4761 32.9505 26.4761H34.0982C34.3554 26.4761 34.5731 26.4365 34.7908 26.3376C35.0084 26.2386 35.1272 26.0803 35.2261 25.8429C35.2855 25.7043 35.3053 25.5065 35.3251 25.2492C35.3053 25.0315 35.3053 23.7255 35.3053 23.4683ZM34.5335 25.3679C34.5335 25.5262 34.494 25.645 34.4148 25.7439C34.3357 25.8231 34.2169 25.8626 34.019 25.8626H33.6827V22.8944H34.019C34.2169 22.8944 34.3554 22.934 34.4148 23.033C34.494 23.1121 34.5137 23.2308 34.5137 23.3891V25.3679H34.5335ZM16.0516 22.3008H15.3392C15.3194 22.3008 15.2996 22.3206 15.2996 22.3404V26.4563C15.2996 26.4761 15.3194 26.4959 15.3392 26.4959H17.4565C17.4763 26.4959 17.4961 26.4761 17.4961 26.4563V25.922C17.4961 25.9022 17.4763 25.8824 17.4565 25.8824H16.0911V22.3404C16.0911 22.3008 16.0713 22.3008 16.0516 22.3008ZM13.7759 26.4761H14.4883C14.5081 26.4761 14.5279 26.4563 14.5279 26.4365V22.3206C14.5279 22.3008 14.5081 22.281 14.4883 22.281H13.7759C13.7562 22.281 13.7364 22.3008 13.7364 22.3206V26.4365C13.7562 26.4761 13.7562 26.4761 13.7759 26.4761ZM12.4501 24.2994V24.2796C12.648 24.2005 12.7865 24.1015 12.8657 23.963C12.9448 23.8245 12.9844 23.6464 12.9844 23.4683C12.9844 23.0923 12.8855 22.8153 12.6876 22.6174C12.4897 22.4195 12.1731 22.3206 11.718 22.3206H10.6494C10.6297 22.3206 10.6099 22.3404 10.6099 22.3602V26.4761C10.6099 26.4959 10.6297 26.5156 10.6494 26.5156H11.6586C12.1138 26.5156 12.4699 26.4167 12.6876 26.2188C12.9053 26.0209 13.024 25.7043 13.024 25.2492C13.024 25.0315 12.9844 24.8337 12.9053 24.6754C12.8261 24.5171 12.6678 24.3588 12.4501 24.2994ZM11.4014 22.8944H11.6586C11.8763 22.8944 12.0148 22.934 12.1138 23.0132C12.2127 23.0923 12.2523 23.2308 12.2523 23.4287C12.2523 23.6068 12.2127 23.7453 12.1138 23.8245C12.0148 23.9234 11.8763 23.963 11.6784 23.963H11.4212L11.4014 22.8944ZM12.2721 25.4273C12.2523 25.5065 12.2325 25.5856 12.1929 25.6648C12.1533 25.7241 12.094 25.7835 12.0148 25.8231C11.9357 25.8626 11.8367 25.8824 11.718 25.8824H11.4014V24.5764H11.6982C11.9159 24.5764 12.0742 24.616 12.1533 24.7149C12.2325 24.8139 12.2918 24.9524 12.2918 25.1503C12.2918 25.2492 12.2721 25.3482 12.2721 25.4273ZM27.4494 22.3206L26.46 26.4365C26.46 26.4563 26.4798 26.4761 26.4996 26.4761H27.212C27.2318 26.4761 27.2516 26.4563 27.2516 26.4563L27.4297 25.6054H28.3597L28.5576 26.4563C28.5576 26.4761 28.5774 26.4761 28.5971 26.4761H29.3095C29.3293 26.4761 29.3491 26.4563 29.3491 26.4365L28.3399 22.3206C28.3399 22.3008 28.3201 22.3008 28.3003 22.3008H27.489C27.4494 22.281 27.4494 22.3008 27.4494 22.3206ZM27.5286 24.992L27.865 23.2506H27.9046L28.241 24.992H27.5286ZM18.6438 22.3008H17.9314C17.9116 22.3008 17.8918 22.3206 17.8918 22.3404V26.4563C17.8918 26.4761 17.9116 26.4959 17.9314 26.4959H20.0487C20.0685 26.4959 20.0883 26.4761 20.0883 26.4563V25.922C20.0883 25.9022 20.0685 25.8824 20.0487 25.8824H18.6834V22.3404C18.6834 22.3008 18.6834 22.3008 18.6438 22.3008ZM22.3441 24.2994V24.2796C22.542 24.2005 22.6805 24.1015 22.7597 23.963C22.8388 23.8245 22.8784 23.6464 22.8784 23.4683C22.8784 23.0923 22.7795 22.8153 22.5816 22.6174C22.3837 22.4195 22.0671 22.3206 21.612 22.3206H20.5434C20.5236 22.3206 20.5039 22.3404 20.5039 22.3602V26.4761C20.5039 26.4959 20.5236 26.5156 20.5434 26.5156H21.5526C22.0077 26.5156 22.3639 26.4167 22.5816 26.2188C22.7993 26.0209 22.918 25.7043 22.918 25.2492C22.918 25.0315 22.8784 24.8337 22.7993 24.6754C22.7003 24.4775 22.5618 24.3588 22.3441 24.2994ZM21.2954 22.8944H21.5328C21.7505 22.8944 21.889 22.934 21.988 23.0132C22.0869 23.0923 22.1265 23.2308 22.1265 23.4287C22.1265 23.6068 22.0869 23.7453 21.988 23.8245C21.889 23.9234 21.7505 23.963 21.5526 23.963H21.2954V22.8944ZM22.1463 25.4273C22.1265 25.5065 22.1067 25.5856 22.0671 25.6648C22.0275 25.7241 21.9682 25.7835 21.889 25.8231C21.8099 25.8626 21.7109 25.8824 21.5922 25.8824H21.2756V24.5764H21.5724C21.7901 24.5764 21.9484 24.616 22.0275 24.7149C22.1067 24.8139 22.166 24.9524 22.166 25.1503C22.166 25.2492 22.166 25.3482 22.1463 25.4273ZM25.7477 22.5581C25.6487 22.4591 25.53 22.38 25.3717 22.3404C25.2134 22.281 25.0155 22.2612 24.7978 22.2612C24.5802 22.2612 24.4021 22.281 24.2438 22.3404C24.0855 22.3997 23.9668 22.4789 23.8678 22.5778C23.7689 22.6768 23.7095 22.7955 23.6501 22.934C23.6106 23.0725 23.5908 23.2111 23.5908 23.3891V25.4867C23.5908 25.8231 23.6897 26.0803 23.8876 26.2584C24.0855 26.4365 24.3823 26.5354 24.8176 26.5354C25.253 26.5354 25.5498 26.4365 25.7477 26.2584C25.9456 26.0803 26.0445 25.8033 26.0445 25.4273V23.3496C26.0445 23.1715 26.0247 23.0132 25.9851 22.8944C25.9258 22.7559 25.8466 22.6372 25.7477 22.5581ZM25.2332 25.4471C25.2332 25.5856 25.1936 25.6846 25.1342 25.7835C25.0749 25.8824 24.9562 25.922 24.7978 25.922C24.6395 25.922 24.5208 25.8824 24.4615 25.7835C24.4021 25.7043 24.3625 25.6054 24.3625 25.4867V23.3891C24.3625 23.3298 24.3625 23.2704 24.3823 23.2111C24.4021 23.1517 24.4219 23.0923 24.4417 23.0527C24.4812 22.9934 24.5208 22.9538 24.5802 22.934C24.6395 22.8944 24.7187 22.8747 24.7978 22.8747C24.9562 22.8747 25.0749 22.9142 25.1342 23.0132C25.1936 23.1121 25.2332 23.2111 25.2332 23.3298V25.4471ZM32.1194 24.1807C32.1986 24.0026 32.2579 23.7651 32.2579 23.5079C32.2579 23.0725 32.1392 22.7757 31.9017 22.5778C31.6643 22.38 31.3477 22.3008 30.9321 22.3008H29.824C29.8042 22.3008 29.7844 22.3206 29.7844 22.3404V26.4563C29.7844 26.4761 29.8042 26.4959 29.824 26.4959H30.5364C30.5562 26.4959 30.5759 26.4761 30.5759 26.4563V24.7545H30.9519L31.5851 26.4563C31.5851 26.4761 31.6049 26.4761 31.6247 26.4761H32.3371C32.3569 26.4761 32.3766 26.4563 32.3766 26.4167L31.6445 24.5962C31.8622 24.4973 32.0205 24.3588 32.1194 24.1807ZM31.3477 23.9828C31.2487 24.0817 31.0904 24.1213 30.8925 24.1213H30.5759V22.8944H30.8728C31.0904 22.8944 31.2487 22.9538 31.3477 23.0527C31.4466 23.1517 31.4862 23.31 31.4862 23.5079C31.4862 23.7255 31.4466 23.8838 31.3477 23.9828Z" fill="white"/>
</svg>
