<svg width="74" height="28" viewBox="0 0 74 28" fill="none" xmlns="http://www.w3.org/2000/svg">
<path d="M0 9.86017V13.9024L10.8515 12.7029V8.32779L0 9.86017ZM3.46288 14.1483V28H7.43571V13.7403L3.46288 14.1483ZM12.317 8.12087V28H16.5032V7.52941L12.317 8.12087ZM17.2831 7.41917V11.9922L23.3281 11.3239V6.56567L17.2831 7.41917ZM17.2831 15.3958V20.0522L21.2512 19.8347V15.0526L17.2831 15.3958ZM17.2831 23.4085V28H23.3281V23.2252L17.2831 23.4085ZM38.961 4.35076V28H44.4488V3.57564L38.961 4.35076ZM45.4737 3.43073V8.87059L53.4712 7.98695V2.30099L45.4737 3.43073ZM45.4737 12.9617V18.5024L50.7155 18.2147V12.5107L45.4737 12.9617ZM45.4737 22.5522V28H53.4712V22.3095L45.4737 22.5522ZM24.9275 6.33938V28H29.6961V5.66567L24.9275 6.33938ZM30.5862 23.0052V27.9998H37.5081V22.7953L30.5862 23.0052ZM71.4011 2.03357C69.6667 0.386862 67.1236 -0.288572 64.3421 0.112985V6.14646C65.4685 6.08359 66.3812 6.50366 66.7879 7.34941C67.43 8.68284 66.7675 10.6835 65.2047 12.5371C62.7926 15.3976 56.3782 21.2523 56.3782 21.2523L65.5863 20.9481C71.2126 15.4245 73.2331 12.0716 73.5956 7.88704C73.7861 5.67321 72.9865 3.54011 71.4011 2.03357ZM73.92 28V21.6868L55.2433 22.2522M55.2433 22.2522L55.2452 27.9998H73.92M63.2684 0.248416C57.8427 1.40959 55.1784 5.42086 55.4858 11.9661L61.2709 11.4502C61.0073 7.75247 62.1329 6.87529 63.2712 6.39299L63.2684 0.248416Z" fill="white"/>
</svg>
