<svg width="172" height="100" viewBox="0 0 172 100" fill="none" xmlns="http://www.w3.org/2000/svg">
    <path
        d="M22.5015 74L22.6378 73.5189L22.6378 73.5189L22.5015 74ZM59 45.5L59.2587 45.9279L59.2587 45.9279L59 45.5ZM135.286 99.4519C135.536 99.5701 135.834 99.4636 135.952 99.214L137.878 95.1472C137.996 94.8976 137.89 94.5995 137.64 94.4813C137.391 94.3631 137.093 94.4696 136.974 94.7191L135.262 98.3341L131.647 96.6218C131.398 96.5036 131.1 96.6101 130.981 96.8596C130.863 97.1092 130.97 97.4073 131.219 97.5255L135.286 99.4519ZM5.16891 0.841886C4.92209 1.58233 4.67198 2.40487 4.42273 3.3003L5.3861 3.56846C5.63153 2.68677 5.87681 1.88046 6.11759 1.15811L5.16891 0.841886ZM3.20541 8.33089C2.87229 9.90892 2.55429 11.6055 2.26345 13.3954L3.2505 13.5558C3.53891 11.7809 3.85405 10.0997 4.18385 8.53744L3.20541 8.33089ZM1.54525 18.5009C1.34673 20.1646 1.17623 21.8805 1.04138 23.6328L2.03843 23.7095C2.17217 21.9717 2.34129 20.2697 2.53821 18.6193L1.54525 18.5009ZM0.757794 28.7826C0.702097 30.4867 0.684627 32.2098 0.711832 33.9384L1.71171 33.9227C1.68477 32.2112 1.70206 30.5043 1.75726 28.8153L0.757794 28.7826ZM0.931532 39.0943C1.05373 40.8189 1.22691 42.5363 1.45759 44.2331L2.44847 44.0984C2.22091 42.4245 2.04983 40.7285 1.92903 39.0236L0.931532 39.0943ZM2.34531 49.3264C2.7142 51.0358 3.1528 52.7091 3.66862 54.3308L4.62158 54.0277C4.1163 52.4391 3.68565 50.7968 3.32281 49.1154L2.34531 49.3264ZM5.52311 59.1756C6.25466 60.78 7.08406 62.3083 8.02077 63.741L8.85776 63.1938C7.95126 61.8073 7.14569 60.3238 6.43299 58.7608L5.52311 59.1756ZM11.2585 67.834C12.4632 69.0889 13.7919 70.2202 15.2545 71.2064L15.8136 70.3773C14.4125 69.4325 13.1378 68.3477 11.9799 67.1415L11.2585 67.834ZM19.8838 73.6421C20.6809 73.9578 21.5077 74.2381 22.3652 74.4811L22.6378 73.5189C21.8123 73.285 21.0174 73.0155 20.2521 72.7123L19.8838 73.6421ZM22.3652 74.4811C23.2535 74.7328 24.0846 74.9471 24.8634 75.1252L25.0864 74.1504C24.3266 73.9766 23.5122 73.7667 22.6378 73.5189L22.3652 74.4811ZM29.9834 75.8041C32.18 75.7967 33.7626 75.2468 35.0208 74.215L34.3866 73.4418C33.3403 74.2999 31.9946 74.7973 29.98 74.8041L29.9834 75.8041ZM38.0528 69.9464C38.3917 69.2732 38.7342 68.5502 39.0962 67.7918C39.459 67.0314 39.8432 66.2316 40.2697 65.3948L39.3788 64.9407C38.9459 65.79 38.557 66.5998 38.1937 67.3611C37.8294 68.1244 37.4926 68.8354 37.1596 69.4967L38.0528 69.9464ZM42.7603 61.0587C43.6022 59.7694 44.5836 58.4263 45.755 57.0435L44.992 56.3971C43.7918 57.8138 42.7858 59.1905 41.923 60.512L42.7603 61.0587ZM49.1954 53.4304C50.3319 52.3621 51.5974 51.2779 53.0127 50.1838L52.4011 49.3926C50.961 50.5059 49.671 51.6109 48.5105 52.7017L49.1954 53.4304ZM57.1159 47.2737C57.8021 46.8257 58.5159 46.377 59.2587 45.9279L58.7413 45.0721C57.9889 45.5271 57.2653 45.982 56.5692 46.4364L57.1159 47.2737ZM59.2587 45.9279C59.9337 45.5197 60.6442 45.1218 61.3884 44.7343L60.9265 43.8473C60.165 44.2439 59.4358 44.6522 58.7413 45.0721L59.2587 45.9279ZM65.891 42.6762C67.3606 42.0839 68.9152 41.524 70.5443 40.9977L70.2368 40.0461C68.5876 40.579 67.0107 41.1468 65.5172 41.7487L65.891 42.6762ZM75.3155 39.606C76.8818 39.1942 78.4987 38.8099 80.1587 38.4538L79.949 37.476C78.275 37.8351 76.6432 38.2229 75.0612 38.6388L75.3155 39.606ZM85.0482 37.5074C86.6597 37.2276 88.302 36.9727 89.9688 36.7432L89.8325 35.7525C88.1544 35.9835 86.5006 36.2402 84.8771 36.5221L85.0482 37.5074ZM94.9098 36.145C96.5471 35.9732 98.2014 35.8253 99.8673 35.7017L99.7933 34.7044C98.1174 34.8288 96.453 34.9776 94.8054 35.1505L94.9098 36.145ZM104.837 35.4067C106.492 35.3329 108.152 35.283 109.814 35.2575L109.798 34.2576C108.127 34.2833 106.457 34.3335 104.792 34.4077L104.837 35.4067ZM114.792 35.2542C116.457 35.2778 118.117 35.3263 119.769 35.4002L119.813 34.4012C118.152 34.3268 116.481 34.278 114.807 34.2543L114.792 35.2542ZM124.737 35.7023C126.407 35.8311 128.06 35.9871 129.693 36.1707L129.805 35.177C128.16 34.992 126.495 34.835 124.814 34.7052L124.737 35.7023ZM134.628 36.8205C136.293 37.0734 137.93 37.3572 139.53 37.6725L139.723 36.6914C138.108 36.3731 136.457 36.0868 134.778 35.8319L134.628 36.8205ZM144.384 38.7551C146.029 39.168 147.624 39.6183 149.161 40.1066L149.463 39.1536C147.906 38.6585 146.291 38.2027 144.627 37.7852L144.384 38.7551ZM153.816 41.7786C155.4 42.4207 156.897 43.1115 158.298 43.8517L158.765 42.9676C157.332 42.21 155.803 41.5052 154.191 40.8519L153.816 41.7786ZM162.498 46.4378C163.884 47.4376 165.114 48.5055 166.173 49.6419L166.905 48.9601C165.796 47.7699 164.515 46.6597 163.084 45.6269L162.498 46.4378ZM168.992 53.5802C169.734 55.0095 170.244 56.5277 170.499 58.1387L171.486 57.9829C171.215 56.2618 170.669 54.6409 169.879 53.1193L168.992 53.5802ZM170.512 62.9579C170.402 63.7423 170.238 64.5464 170.017 65.3707L170.983 65.6293C171.214 64.7677 171.386 63.9238 171.502 63.0973L170.512 62.9579ZM170.017 65.3707C169.798 66.1897 169.561 66.9607 169.308 67.6862L170.252 68.0158C170.514 67.2654 170.758 66.4706 170.983 65.6293L170.017 65.3707ZM167.329 71.9803C166.433 73.4617 165.433 74.6344 164.358 75.5553L165.008 76.315C166.172 75.3189 167.239 74.0623 168.185 72.4979L167.329 71.9803ZM160.35 77.8344C158.886 78.3335 157.337 78.5702 155.742 78.6227L155.775 79.6222C157.447 79.5671 159.096 79.3184 160.672 78.7809L160.35 77.8344ZM150.998 78.3271C149.409 78.105 147.823 77.7852 146.274 77.4442L146.059 78.4208C147.618 78.764 149.233 79.0901 150.86 79.3175L150.998 78.3271ZM141.542 76.3856C139.772 76.0159 138.108 75.7392 136.65 75.7267L136.641 76.7267C137.995 76.7383 139.579 76.9971 141.337 77.3645L141.542 76.3856ZM131.933 77.6618C131.139 78.7869 130.783 80.4144 130.869 82.6396L131.868 82.6011C131.786 80.4763 132.137 79.1063 132.75 78.2383L131.933 77.6618ZM131.539 87.493C131.836 88.8925 132.233 90.4497 132.738 92.1799L133.698 91.8997C133.198 90.1884 132.808 88.656 132.518 87.2857L131.539 87.493ZM134.203 96.7987C134.462 97.5616 134.737 98.3512 135.029 99.1682L135.971 98.8318C135.681 98.0195 135.407 97.235 135.15 96.4774L134.203 96.7987ZM22.5015 74L22.6378 73.5189L22.6378 73.5189L22.5015 74ZM59 45.5L59.2587 45.9279L59.2587 45.9279L59 45.5ZM135.286 99.4519C135.536 99.5701 135.834 99.4636 135.952 99.214L137.878 95.1472C137.996 94.8976 137.89 94.5995 137.64 94.4813C137.391 94.3631 137.093 94.4696 136.974 94.7191L135.262 98.3341L131.647 96.6218C131.398 96.5036 131.1 96.6101 130.981 96.8596C130.863 97.1092 130.97 97.4073 131.219 97.5255L135.286 99.4519ZM5.16891 0.841886C4.92209 1.58233 4.67198 2.40487 4.42273 3.3003L5.3861 3.56846C5.63153 2.68677 5.87681 1.88046 6.11759 1.15811L5.16891 0.841886ZM3.20541 8.33089C2.87229 9.90892 2.55429 11.6055 2.26345 13.3954L3.2505 13.5558C3.53891 11.7809 3.85405 10.0997 4.18385 8.53744L3.20541 8.33089ZM1.54525 18.5009C1.34673 20.1646 1.17623 21.8805 1.04138 23.6328L2.03843 23.7095C2.17217 21.9717 2.34129 20.2697 2.53821 18.6193L1.54525 18.5009ZM0.757794 28.7826C0.702097 30.4867 0.684627 32.2098 0.711832 33.9384L1.71171 33.9227C1.68477 32.2112 1.70206 30.5043 1.75726 28.8153L0.757794 28.7826ZM0.931532 39.0943C1.05373 40.8189 1.22691 42.5363 1.45759 44.2331L2.44847 44.0984C2.22091 42.4245 2.04983 40.7285 1.92903 39.0236L0.931532 39.0943ZM2.34531 49.3264C2.7142 51.0358 3.1528 52.7091 3.66862 54.3308L4.62158 54.0277C4.1163 52.4391 3.68565 50.7968 3.32281 49.1154L2.34531 49.3264ZM5.52311 59.1756C6.25466 60.78 7.08406 62.3083 8.02077 63.741L8.85776 63.1938C7.95126 61.8073 7.14569 60.3238 6.43299 58.7608L5.52311 59.1756ZM11.2585 67.834C12.4632 69.0889 13.7919 70.2202 15.2545 71.2064L15.8136 70.3773C14.4125 69.4325 13.1378 68.3477 11.9799 67.1415L11.2585 67.834ZM19.8838 73.6421C20.6809 73.9578 21.5077 74.2381 22.3652 74.4811L22.6378 73.5189C21.8123 73.285 21.0174 73.0155 20.2521 72.7123L19.8838 73.6421ZM22.3652 74.4811C23.2535 74.7328 24.0846 74.9471 24.8634 75.1252L25.0864 74.1504C24.3266 73.9766 23.5122 73.7667 22.6378 73.5189L22.3652 74.4811ZM29.9834 75.8041C32.18 75.7967 33.7626 75.2468 35.0208 74.215L34.3866 73.4418C33.3403 74.2999 31.9946 74.7973 29.98 74.8041L29.9834 75.8041ZM38.0528 69.9464C38.3917 69.2732 38.7342 68.5502 39.0962 67.7918C39.459 67.0314 39.8432 66.2316 40.2697 65.3948L39.3788 64.9407C38.9459 65.79 38.557 66.5998 38.1937 67.3611C37.8294 68.1244 37.4926 68.8354 37.1596 69.4967L38.0528 69.9464ZM42.7603 61.0587C43.6022 59.7694 44.5836 58.4263 45.755 57.0435L44.992 56.3971C43.7918 57.8138 42.7858 59.1905 41.923 60.512L42.7603 61.0587ZM49.1954 53.4304C50.3319 52.3621 51.5974 51.2779 53.0127 50.1838L52.4011 49.3926C50.961 50.5059 49.671 51.6109 48.5105 52.7017L49.1954 53.4304ZM57.1159 47.2737C57.8021 46.8257 58.5159 46.377 59.2587 45.9279L58.7413 45.0721C57.9889 45.5271 57.2653 45.982 56.5692 46.4364L57.1159 47.2737ZM59.2587 45.9279C59.9337 45.5197 60.6442 45.1218 61.3884 44.7343L60.9265 43.8473C60.165 44.2439 59.4358 44.6522 58.7413 45.0721L59.2587 45.9279ZM65.891 42.6762C67.3606 42.0839 68.9152 41.524 70.5443 40.9977L70.2368 40.0461C68.5876 40.579 67.0107 41.1468 65.5172 41.7487L65.891 42.6762ZM75.3155 39.606C76.8818 39.1942 78.4987 38.8099 80.1587 38.4538L79.949 37.476C78.275 37.8351 76.6432 38.2229 75.0612 38.6388L75.3155 39.606ZM85.0482 37.5074C86.6597 37.2276 88.302 36.9727 89.9688 36.7432L89.8325 35.7525C88.1544 35.9835 86.5006 36.2402 84.8771 36.5221L85.0482 37.5074ZM94.9098 36.145C96.5471 35.9732 98.2014 35.8253 99.8673 35.7017L99.7933 34.7044C98.1174 34.8288 96.453 34.9776 94.8054 35.1505L94.9098 36.145ZM104.837 35.4067C106.492 35.3329 108.152 35.283 109.814 35.2575L109.798 34.2576C108.127 34.2833 106.457 34.3335 104.792 34.4077L104.837 35.4067ZM114.792 35.2542C116.457 35.2778 118.117 35.3263 119.769 35.4002L119.813 34.4012C118.152 34.3268 116.481 34.278 114.807 34.2543L114.792 35.2542ZM124.737 35.7023C126.407 35.8311 128.06 35.9871 129.693 36.1707L129.805 35.177C128.16 34.992 126.495 34.835 124.814 34.7052L124.737 35.7023ZM134.628 36.8205C136.293 37.0734 137.93 37.3572 139.53 37.6725L139.723 36.6914C138.108 36.3731 136.457 36.0868 134.778 35.8319L134.628 36.8205ZM144.384 38.7551C146.029 39.168 147.624 39.6183 149.161 40.1066L149.463 39.1536C147.906 38.6585 146.291 38.2027 144.627 37.7852L144.384 38.7551ZM153.816 41.7786C155.4 42.4207 156.897 43.1115 158.298 43.8517L158.765 42.9676C157.332 42.21 155.803 41.5052 154.191 40.8519L153.816 41.7786ZM162.498 46.4378C163.884 47.4376 165.114 48.5055 166.173 49.6419L166.905 48.9601C165.796 47.7699 164.515 46.6597 163.084 45.6269L162.498 46.4378ZM168.992 53.5802C169.734 55.0095 170.244 56.5277 170.499 58.1387L171.486 57.9829C171.215 56.2618 170.669 54.6409 169.879 53.1193L168.992 53.5802ZM170.512 62.9579C170.402 63.7423 170.238 64.5464 170.017 65.3707L170.983 65.6293C171.214 64.7677 171.386 63.9238 171.502 63.0973L170.512 62.9579ZM170.017 65.3707C169.798 66.1897 169.561 66.9607 169.308 67.6862L170.252 68.0158C170.514 67.2654 170.758 66.4706 170.983 65.6293L170.017 65.3707ZM167.329 71.9803C166.433 73.4617 165.433 74.6344 164.358 75.5553L165.008 76.315C166.172 75.3189 167.239 74.0623 168.185 72.4979L167.329 71.9803ZM160.35 77.8344C158.886 78.3335 157.337 78.5702 155.742 78.6227L155.775 79.6222C157.447 79.5671 159.096 79.3184 160.672 78.7809L160.35 77.8344ZM150.998 78.3271C149.409 78.105 147.823 77.7852 146.274 77.4442L146.059 78.4208C147.618 78.764 149.233 79.0901 150.86 79.3175L150.998 78.3271ZM141.542 76.3856C139.772 76.0159 138.108 75.7392 136.65 75.7267L136.641 76.7267C137.995 76.7383 139.579 76.9971 141.337 77.3645L141.542 76.3856ZM131.933 77.6618C131.139 78.7869 130.783 80.4144 130.869 82.6396L131.868 82.6011C131.786 80.4763 132.137 79.1063 132.75 78.2383L131.933 77.6618ZM131.539 87.493C131.836 88.8925 132.233 90.4497 132.738 92.1799L133.698 91.8997C133.198 90.1884 132.808 88.656 132.518 87.2857L131.539 87.493ZM134.203 96.7987C134.462 97.5616 134.737 98.3512 135.029 99.1682L135.971 98.8318C135.681 98.0195 135.407 97.235 135.15 96.4774L134.203 96.7987Z"
        fill="white" />
</svg>