<svg width="107" height="105" viewBox="0 0 107 105" fill="none" xmlns="http://www.w3.org/2000/svg">
    <path
        d="M103.731 0.701725C103.566 0.17458 103.005 -0.119213 102.478 0.04552C101.951 0.210253 101.657 0.77113 101.822 1.29827L103.731 0.701725ZM6.7745 37.5L5.93298 36.9598L5.93298 36.9598L6.7745 37.5ZM98.274 83.5418C98.2971 82.99 97.8685 82.524 97.3167 82.5009L88.3246 82.1245C87.7728 82.1014 87.3067 82.53 87.2836 83.0818C87.2605 83.6336 87.6891 84.0996 88.2409 84.1227L96.2339 84.4573L95.8994 92.4503C95.8763 93.0021 96.3049 93.4682 96.8567 93.4913C97.4085 93.5143 97.8745 93.0857 97.8976 92.5339L98.274 83.5418ZM94.7485 84.4235C94.3329 84.7872 94.2908 85.4189 94.6545 85.8346C95.0183 86.2502 95.65 86.2922 96.0656 85.9285L94.7485 84.4235ZM92.2656 89.0883C92.6993 88.7463 92.7736 88.1175 92.4317 87.6839C92.0897 87.2502 91.4609 87.1759 91.0272 87.5178L92.2656 89.0883ZM87.1105 90.4343C86.6583 90.7514 86.5488 91.375 86.8659 91.8272C87.183 92.2794 87.8066 92.3889 88.2588 92.0718L87.1105 90.4343ZM84.0816 94.8177C84.5522 94.5287 84.6995 93.9129 84.4105 93.4422C84.1215 92.9716 83.5057 92.8243 83.0351 93.1133L84.0816 94.8177ZM78.8163 95.5187C78.3277 95.7761 78.1402 96.3809 78.3977 96.8695C78.6551 97.3581 79.2599 97.5455 79.7485 97.2881L78.8163 95.5187ZM75.2585 99.4564C75.7641 99.2342 75.9939 98.6442 75.7717 98.1385C75.5495 97.6329 74.9595 97.4032 74.4539 97.6253L75.2585 99.4564ZM69.9541 99.4043C69.4331 99.5874 69.1592 100.158 69.3424 100.679C69.5256 101.2 70.0964 101.474 70.6174 101.291L69.9541 99.4043ZM65.8397 102.758C66.3738 102.618 66.6929 102.071 66.5525 101.537C66.412 101.003 65.8652 100.684 65.331 100.824L65.8397 102.758ZM60.6069 101.855C60.0628 101.949 59.6981 102.467 59.7924 103.011C59.8868 103.555 60.4044 103.92 60.9485 103.825L60.6069 101.855ZM55.9761 104.461C56.5265 104.416 56.9359 103.933 56.8905 103.383C56.8451 102.832 56.3621 102.423 55.8117 102.468L55.9761 104.461ZM50.9818 102.644C50.4296 102.638 49.9773 103.081 49.9717 103.633C49.9662 104.186 50.4093 104.638 50.9616 104.643L50.9818 102.644ZM45.9493 104.356C46.4986 104.414 46.9906 104.015 47.0482 103.466C47.1058 102.917 46.7073 102.425 46.158 102.367L45.9493 104.356ZM41.3836 101.634C40.8423 101.525 40.3145 101.874 40.2047 102.416C40.095 102.957 40.4447 103.485 40.986 103.595L41.3836 101.634ZM36.1186 102.362C36.6468 102.523 37.2057 102.225 37.3667 101.697C37.5278 101.169 37.2302 100.61 36.7019 100.449L36.1186 102.362ZM32.1553 98.8212C31.6448 98.6104 31.0602 98.8534 30.8494 99.3639C30.6387 99.8744 30.8816 100.459 31.3921 100.67L32.1553 98.8212ZM26.8492 98.5362C27.3374 98.7944 27.9425 98.608 28.2007 98.1198C28.4589 97.6316 28.2725 97.0265 27.7843 96.7683L26.8492 98.5362ZM23.6271 94.3111C23.1654 94.008 22.5454 94.1365 22.2423 94.5981C21.9392 95.0598 22.0677 95.6798 22.5293 95.9829L23.6271 94.3111ZM18.47 93.0345C18.901 93.3798 19.5303 93.3102 19.8756 92.8792C20.2209 92.4481 20.1513 91.8188 19.7203 91.4735L18.47 93.0345ZM16.0995 88.281C15.7031 87.8965 15.07 87.9062 14.6855 88.3027C14.301 88.6992 14.3107 89.3322 14.7072 89.7167L16.0995 88.281ZM11.2739 86.0523C11.6317 86.4731 12.2628 86.5241 12.6835 86.1664C13.1043 85.8086 13.1553 85.1775 12.7975 84.7568L11.2739 86.0523ZM9.8537 80.9299C9.53902 80.476 8.91599 80.3632 8.46212 80.6779C8.00826 80.9926 7.89544 81.6156 8.21012 82.0695L9.8537 80.9299ZM5.55862 77.7989C5.8255 78.2825 6.43383 78.4581 6.91735 78.1912C7.40087 77.9243 7.57649 77.316 7.3096 76.8325L5.55862 77.7989ZM5.20838 72.499C4.99448 71.9898 4.40831 71.7505 3.89913 71.9644C3.38994 72.1783 3.15057 72.7644 3.36447 73.2736L5.20838 72.499ZM1.67683 68.532C1.83217 69.062 2.38774 69.3657 2.91773 69.2103C3.44772 69.055 3.75143 68.4994 3.59609 67.9694L1.67683 68.532ZM2.51957 63.286C2.42857 62.7412 1.9132 62.3734 1.36847 62.4644C0.823731 62.5554 0.455903 63.0708 0.5469 63.6155L2.51957 63.286ZM0.0291072 58.5932C0.0505346 59.145 0.515283 59.575 1.06715 59.5536C1.61902 59.5322 2.04903 59.0674 2.0276 58.5156L0.0291072 58.5932ZM2.15816 53.729C2.21017 53.1792 1.80661 52.6913 1.25678 52.6393C0.706948 52.5873 0.21906 52.9909 0.167049 53.5407L2.15816 53.729ZM0.987894 48.5452C0.86098 49.0827 1.19383 49.6213 1.73133 49.7482C2.26884 49.8751 2.80746 49.5423 2.93437 49.0048L0.987894 48.5452ZM4.35081 44.443C4.55056 43.9281 4.29508 43.3487 3.78019 43.149C3.26529 42.9492 2.68596 43.2047 2.48621 43.7196L4.35081 44.443ZM4.62812 39.1462C4.36088 39.6296 4.53605 40.238 5.01937 40.5052C5.50269 40.7725 6.11114 40.5973 6.37838 40.114L4.62812 39.1462ZM9.0663 35.9715C9.40187 35.5328 9.31831 34.9052 8.87966 34.5696C8.44102 34.2341 7.81339 34.3176 7.47782 34.7563L9.0663 35.9715ZM11.0522 30.833C10.646 31.2072 10.62 31.8399 10.9942 32.2461C11.3684 32.6522 12.0011 32.6782 12.4073 32.304L11.0522 30.833ZM16.3421 29.2733C16.8072 28.9755 16.9428 28.357 16.645 27.8919C16.3473 27.4268 15.7288 27.2912 15.2637 27.589L16.3421 29.2733ZM19.9518 25.1019C19.4452 25.3218 19.2127 25.9108 19.4326 26.4174C19.6525 26.924 20.2414 27.1565 20.7481 26.9366L19.9518 25.1019ZM25.4757 25.2669C26.0073 25.1174 26.3172 24.5652 26.1676 24.0335C26.0181 23.5019 25.466 23.1921 24.9343 23.3416L25.4757 25.2669ZM30.0766 22.2054C29.5318 22.296 29.1637 22.8112 29.2544 23.356C29.345 23.9008 29.8602 24.2689 30.405 24.1782L30.0766 22.2054ZM35.442 23.5699C35.9925 23.5263 36.4035 23.0446 36.3599 22.4941C36.3162 21.9435 35.8345 21.5326 35.284 21.5762L35.442 23.5699ZM40.4956 21.3445C39.9434 21.3515 39.5013 21.8048 39.5083 22.357C39.5153 22.9093 39.9686 23.3513 40.5208 23.3444L40.4956 21.3445ZM45.6244 23.4163C46.1763 23.4375 46.6409 23.0073 46.6621 22.4554C46.6833 21.9036 46.2531 21.439 45.7012 21.4178L45.6244 23.4163ZM50.8885 21.7218C50.3379 21.6794 49.8572 22.0915 49.8148 22.6422C49.7725 23.1928 50.1846 23.6735 50.7352 23.7159L50.8885 21.7218ZM55.8453 24.1837C56.3946 24.2411 56.8864 23.8424 56.9438 23.2931C57.0013 22.7438 56.6025 22.252 56.0532 22.1946L55.8453 24.1837ZM61.1954 22.782C60.6472 22.7149 60.1484 23.1049 60.0813 23.6531C60.0143 24.2013 60.4043 24.7001 60.9525 24.7672L61.1954 22.782ZM66.0583 25.4165C66.6059 25.4879 67.1078 25.1018 67.1792 24.5542C67.2505 24.0065 66.8645 23.5047 66.3168 23.4333L66.0583 25.4165ZM71.425 24.0974C70.8772 24.0274 70.3764 24.4148 70.3064 24.9626C70.2364 25.5104 70.6238 26.0113 71.1716 26.0812L71.425 24.0974ZM76.3187 26.7048C76.8675 26.7663 77.3623 26.3712 77.4239 25.8224C77.4854 25.2736 77.0903 24.7787 76.5415 24.7172L76.3187 26.7048ZM81.6481 25.2138C81.0975 25.1704 80.616 25.5816 80.5726 26.1321C80.5292 26.6827 80.9403 27.1642 81.4909 27.2076L81.6481 25.2138ZM86.68 27.4751C87.2322 27.4854 87.6882 27.046 87.6984 26.4938C87.7087 25.9416 87.2693 25.4857 86.7171 25.4755L86.68 27.4751ZM91.7831 25.3187C91.2332 25.3695 90.8285 25.8565 90.8793 26.4065C90.9301 26.9564 91.4171 27.3611 91.967 27.3103L91.7831 25.3187ZM97.2207 26.3181C97.7475 26.1525 98.0404 25.5912 97.8748 25.0643C97.7092 24.5374 97.1478 24.2446 96.621 24.4102L97.2207 26.3181ZM100.773 22.2032C100.356 22.5653 100.311 23.1969 100.673 23.6139C101.035 24.0309 101.667 24.0754 102.084 23.7133L100.773 22.2032ZM105.199 19.0837C105.384 18.5634 105.113 17.9915 104.592 17.8064C104.072 17.6213 103.5 17.893 103.315 18.4134L105.199 19.0837ZM104.07 13.6444C104.064 14.1966 104.507 14.6489 105.06 14.6545C105.612 14.6601 106.064 14.2169 106.07 13.6647L104.07 13.6444ZM105.626 8.42527C105.537 7.88029 105.022 7.51104 104.477 7.60054C103.932 7.69004 103.563 8.20439 103.653 8.74938L105.626 8.42527ZM102.563 3.83144C102.708 4.36443 103.257 4.6792 103.79 4.53451C104.323 4.38981 104.638 3.84043 104.493 3.30744L102.563 3.83144ZM96.598 82.7639C95.9817 83.3307 95.3652 83.8838 94.7485 84.4235L96.0656 85.9285C96.6948 85.3779 97.3236 84.8138 97.9518 84.2361L96.598 82.7639ZM91.0272 87.5178C89.7208 88.548 88.4149 89.5196 87.1105 90.4343L88.2588 92.0718C89.5944 91.1351 90.9304 90.1412 92.2656 89.0883L91.0272 87.5178ZM83.0351 93.1133C81.6251 93.979 80.2184 94.78 78.8163 95.5187L79.7485 97.2881C81.19 96.5287 82.6349 95.7059 84.0816 94.8177L83.0351 93.1133ZM74.4539 97.6253C72.9462 98.2879 71.4457 98.8799 69.9541 99.4043L70.6174 101.291C72.1574 100.75 73.7051 100.139 75.2585 99.4564L74.4539 97.6253ZM65.331 100.824C63.7432 101.242 62.1677 101.584 60.6069 101.855L60.9485 103.825C62.5659 103.545 64.1971 103.19 65.8397 102.758L65.331 100.824ZM55.8117 102.468C54.1818 102.603 52.571 102.66 50.9818 102.644L50.9616 104.643C52.6123 104.66 54.2848 104.601 55.9761 104.461L55.8117 102.468ZM46.158 102.367C44.5387 102.197 42.9462 101.951 41.3836 101.634L40.986 103.595C42.6106 103.924 44.2662 104.18 45.9493 104.356L46.158 102.367ZM36.7019 100.449C35.1497 99.9755 33.633 99.4312 32.1553 98.8212L31.3921 100.67C32.9281 101.304 34.5049 101.87 36.1186 102.362L36.7019 100.449ZM27.7843 96.7683C26.3524 96.0108 24.9653 95.1899 23.6271 94.3111L22.5293 95.9829C23.9198 96.896 25.3611 97.7491 26.8492 98.5362L27.7843 96.7683ZM19.7203 91.4735C18.4568 90.4614 17.2485 89.3952 16.0995 88.281L14.7072 89.7167C15.9014 90.8749 17.1571 91.9829 18.47 93.0345L19.7203 91.4735ZM12.7975 84.7568C11.748 83.5224 10.7652 82.2445 9.8537 80.9299L8.21012 82.0695C9.15937 83.4385 10.1822 84.7684 11.2739 86.0523L12.7975 84.7568ZM7.3096 76.8325C6.52819 75.4168 5.82625 73.9699 5.20838 72.499L3.36447 73.2736C4.01041 74.8113 4.7435 76.3222 5.55862 77.7989L7.3096 76.8325ZM3.59609 67.9694C3.14281 66.4229 2.78238 64.8592 2.51957 63.286L0.5469 63.6155C0.82319 65.2694 1.2017 66.9109 1.67683 68.532L3.59609 67.9694ZM2.0276 58.5156C1.96564 56.9196 2.00752 55.3216 2.15816 53.729L0.167049 53.5407C0.00785816 55.2236 -0.0362244 56.9105 0.0291072 58.5932L2.0276 58.5156ZM2.93437 49.0048C3.29671 47.4702 3.76723 45.9473 4.35081 44.443L2.48621 43.7196C1.86904 45.3105 1.37125 46.9216 0.987894 48.5452L2.93437 49.0048ZM6.37838 40.114C6.76383 39.4169 7.17619 38.7254 7.61602 38.0402L5.93298 36.9598C5.46963 37.6815 5.03484 38.4106 4.62812 39.1462L6.37838 40.114ZM7.61602 38.0402C8.08008 37.3174 8.56386 36.6283 9.0663 35.9715L7.47782 34.7563C6.94158 35.4572 6.4263 36.1913 5.93298 36.9598L7.61602 38.0402ZM12.4073 32.304C13.6428 31.1658 14.9574 30.1599 16.3421 29.2733L15.2637 27.589C13.784 28.5363 12.3763 29.6131 11.0522 30.833L12.4073 32.304ZM20.7481 26.9366C22.2644 26.2785 23.8433 25.7259 25.4757 25.2669L24.9343 23.3416C23.2228 23.8228 21.5582 24.4048 19.9518 25.1019L20.7481 26.9366ZM30.405 24.1782C32.0476 23.9049 33.7293 23.7056 35.442 23.5699L35.284 21.5762C33.5208 21.7159 31.7818 21.9216 30.0766 22.2054L30.405 24.1782ZM40.5208 23.3444C42.205 23.3232 43.9086 23.3503 45.6244 23.4163L45.7012 21.4178C43.9559 21.3507 42.2181 21.3228 40.4956 21.3445L40.5208 23.3444ZM50.7352 23.7159C52.4372 23.8467 54.1428 24.0057 55.8453 24.1837L56.0532 22.1946C54.3361 22.0151 52.6119 21.8543 50.8885 21.7218L50.7352 23.7159ZM60.9525 24.7672C62.6683 24.9771 64.3722 25.1968 66.0583 25.4165L66.3168 23.4333C64.6294 23.2134 62.9192 22.9929 61.1954 22.782L60.9525 24.7672ZM71.1716 26.0812C72.9198 26.3045 74.639 26.5165 76.3187 26.7048L76.5415 24.7172C74.8762 24.5305 73.1681 24.32 71.425 24.0974L71.1716 26.0812ZM81.4909 27.2076C83.2846 27.3491 85.0193 27.4443 86.68 27.4751L86.7171 25.4755C85.1058 25.4456 83.4123 25.3529 81.6481 25.2138L81.4909 27.2076ZM91.967 27.3103C93.8598 27.1355 95.6238 26.8201 97.2207 26.3181L96.621 24.4102C95.193 24.859 93.5749 25.1533 91.7831 25.3187L91.967 27.3103ZM102.084 23.7133C103.47 22.5097 104.525 20.9801 105.199 19.0837L103.315 18.4134C102.753 19.9945 101.891 21.232 100.773 22.2032L102.084 23.7133ZM106.07 13.6647C106.086 12.079 105.94 10.3367 105.626 8.42527L103.653 8.74938C103.951 10.5688 104.085 12.1942 104.07 13.6444L106.07 13.6647ZM104.493 3.30744C104.265 2.46642 104.011 1.59812 103.731 0.701725L101.822 1.29827C102.095 2.17224 102.342 3.01632 102.563 3.83144L104.493 3.30744ZM103.731 0.701725C103.566 0.17458 103.005 -0.119213 102.478 0.04552C101.951 0.210253 101.657 0.77113 101.822 1.29827L103.731 0.701725ZM6.7745 37.5L5.93298 36.9598L5.93298 36.9598L6.7745 37.5ZM98.274 83.5418C98.2971 82.99 97.8685 82.524 97.3167 82.5009L88.3246 82.1245C87.7728 82.1014 87.3067 82.53 87.2836 83.0818C87.2605 83.6336 87.6891 84.0996 88.2409 84.1227L96.2339 84.4573L95.8994 92.4503C95.8763 93.0021 96.3049 93.4682 96.8567 93.4913C97.4085 93.5143 97.8745 93.0857 97.8976 92.5339L98.274 83.5418ZM94.7485 84.4235C94.3329 84.7872 94.2908 85.4189 94.6545 85.8346C95.0183 86.2502 95.65 86.2922 96.0656 85.9285L94.7485 84.4235ZM92.2656 89.0883C92.6993 88.7463 92.7736 88.1175 92.4317 87.6839C92.0897 87.2502 91.4609 87.1759 91.0272 87.5178L92.2656 89.0883ZM87.1105 90.4343C86.6583 90.7514 86.5488 91.375 86.8659 91.8272C87.183 92.2794 87.8066 92.3889 88.2588 92.0718L87.1105 90.4343ZM84.0816 94.8177C84.5522 94.5287 84.6995 93.9129 84.4105 93.4422C84.1215 92.9716 83.5057 92.8243 83.0351 93.1133L84.0816 94.8177ZM78.8163 95.5187C78.3277 95.7761 78.1402 96.3809 78.3977 96.8695C78.6551 97.3581 79.2599 97.5455 79.7485 97.2881L78.8163 95.5187ZM75.2585 99.4564C75.7641 99.2342 75.9939 98.6442 75.7717 98.1385C75.5495 97.6329 74.9595 97.4032 74.4539 97.6253L75.2585 99.4564ZM69.9541 99.4043C69.4331 99.5874 69.1592 100.158 69.3424 100.679C69.5256 101.2 70.0964 101.474 70.6174 101.291L69.9541 99.4043ZM65.8397 102.758C66.3738 102.618 66.6929 102.071 66.5525 101.537C66.412 101.003 65.8652 100.684 65.331 100.824L65.8397 102.758ZM60.6069 101.855C60.0628 101.949 59.6981 102.467 59.7924 103.011C59.8868 103.555 60.4044 103.92 60.9485 103.825L60.6069 101.855ZM55.9761 104.461C56.5265 104.416 56.9359 103.933 56.8905 103.383C56.8451 102.832 56.3621 102.423 55.8117 102.468L55.9761 104.461ZM50.9818 102.644C50.4296 102.638 49.9773 103.081 49.9717 103.633C49.9662 104.186 50.4093 104.638 50.9616 104.643L50.9818 102.644ZM45.9493 104.356C46.4986 104.414 46.9906 104.015 47.0482 103.466C47.1058 102.917 46.7073 102.425 46.158 102.367L45.9493 104.356ZM41.3836 101.634C40.8423 101.525 40.3145 101.874 40.2047 102.416C40.095 102.957 40.4447 103.485 40.986 103.595L41.3836 101.634ZM36.1186 102.362C36.6468 102.523 37.2057 102.225 37.3667 101.697C37.5278 101.169 37.2302 100.61 36.7019 100.449L36.1186 102.362ZM32.1553 98.8212C31.6448 98.6104 31.0602 98.8534 30.8494 99.3639C30.6387 99.8744 30.8816 100.459 31.3921 100.67L32.1553 98.8212ZM26.8492 98.5362C27.3374 98.7944 27.9425 98.608 28.2007 98.1198C28.4589 97.6316 28.2725 97.0265 27.7843 96.7683L26.8492 98.5362ZM23.6271 94.3111C23.1654 94.008 22.5454 94.1365 22.2423 94.5981C21.9392 95.0598 22.0677 95.6798 22.5293 95.9829L23.6271 94.3111ZM18.47 93.0345C18.901 93.3798 19.5303 93.3102 19.8756 92.8792C20.2209 92.4481 20.1513 91.8188 19.7203 91.4735L18.47 93.0345ZM16.0995 88.281C15.7031 87.8965 15.07 87.9062 14.6855 88.3027C14.301 88.6992 14.3107 89.3322 14.7072 89.7167L16.0995 88.281ZM11.2739 86.0523C11.6317 86.4731 12.2628 86.5241 12.6835 86.1664C13.1043 85.8086 13.1553 85.1775 12.7975 84.7568L11.2739 86.0523ZM9.8537 80.9299C9.53902 80.476 8.91599 80.3632 8.46212 80.6779C8.00826 80.9926 7.89544 81.6156 8.21012 82.0695L9.8537 80.9299ZM5.55862 77.7989C5.8255 78.2825 6.43383 78.4581 6.91735 78.1912C7.40087 77.9243 7.57649 77.316 7.3096 76.8325L5.55862 77.7989ZM5.20838 72.499C4.99448 71.9898 4.40831 71.7505 3.89913 71.9644C3.38994 72.1783 3.15057 72.7644 3.36447 73.2736L5.20838 72.499ZM1.67683 68.532C1.83217 69.062 2.38774 69.3657 2.91773 69.2103C3.44772 69.055 3.75143 68.4994 3.59609 67.9694L1.67683 68.532ZM2.51957 63.286C2.42857 62.7412 1.9132 62.3734 1.36847 62.4644C0.823731 62.5554 0.455903 63.0708 0.5469 63.6155L2.51957 63.286ZM0.0291072 58.5932C0.0505346 59.145 0.515283 59.575 1.06715 59.5536C1.61902 59.5322 2.04903 59.0674 2.0276 58.5156L0.0291072 58.5932ZM2.15816 53.729C2.21017 53.1792 1.80661 52.6913 1.25678 52.6393C0.706948 52.5873 0.21906 52.9909 0.167049 53.5407L2.15816 53.729ZM0.987894 48.5452C0.86098 49.0827 1.19383 49.6213 1.73133 49.7482C2.26884 49.8751 2.80746 49.5423 2.93437 49.0048L0.987894 48.5452ZM4.35081 44.443C4.55056 43.9281 4.29508 43.3487 3.78019 43.149C3.26529 42.9492 2.68596 43.2047 2.48621 43.7196L4.35081 44.443ZM4.62812 39.1462C4.36088 39.6296 4.53605 40.238 5.01937 40.5052C5.50269 40.7725 6.11114 40.5973 6.37838 40.114L4.62812 39.1462ZM9.0663 35.9715C9.40187 35.5328 9.31831 34.9052 8.87966 34.5696C8.44102 34.2341 7.81339 34.3176 7.47782 34.7563L9.0663 35.9715ZM11.0522 30.833C10.646 31.2072 10.62 31.8399 10.9942 32.2461C11.3684 32.6522 12.0011 32.6782 12.4073 32.304L11.0522 30.833ZM16.3421 29.2733C16.8072 28.9755 16.9428 28.357 16.645 27.8919C16.3473 27.4268 15.7288 27.2912 15.2637 27.589L16.3421 29.2733ZM19.9518 25.1019C19.4452 25.3218 19.2127 25.9108 19.4326 26.4174C19.6525 26.924 20.2414 27.1565 20.7481 26.9366L19.9518 25.1019ZM25.4757 25.2669C26.0073 25.1174 26.3172 24.5652 26.1676 24.0335C26.0181 23.5019 25.466 23.1921 24.9343 23.3416L25.4757 25.2669ZM30.0766 22.2054C29.5318 22.296 29.1637 22.8112 29.2544 23.356C29.345 23.9008 29.8602 24.2689 30.405 24.1782L30.0766 22.2054ZM35.442 23.5699C35.9925 23.5263 36.4035 23.0446 36.3599 22.4941C36.3162 21.9435 35.8345 21.5326 35.284 21.5762L35.442 23.5699ZM40.4956 21.3445C39.9434 21.3515 39.5013 21.8048 39.5083 22.357C39.5153 22.9093 39.9686 23.3513 40.5208 23.3444L40.4956 21.3445ZM45.6244 23.4163C46.1763 23.4375 46.6409 23.0073 46.6621 22.4554C46.6833 21.9036 46.2531 21.439 45.7012 21.4178L45.6244 23.4163ZM50.8885 21.7218C50.3379 21.6794 49.8572 22.0915 49.8148 22.6422C49.7725 23.1928 50.1846 23.6735 50.7352 23.7159L50.8885 21.7218ZM55.8453 24.1837C56.3946 24.2411 56.8864 23.8424 56.9438 23.2931C57.0013 22.7438 56.6025 22.252 56.0532 22.1946L55.8453 24.1837ZM61.1954 22.782C60.6472 22.7149 60.1484 23.1049 60.0813 23.6531C60.0143 24.2013 60.4043 24.7001 60.9525 24.7672L61.1954 22.782ZM66.0583 25.4165C66.6059 25.4879 67.1078 25.1018 67.1792 24.5542C67.2505 24.0065 66.8645 23.5047 66.3168 23.4333L66.0583 25.4165ZM71.425 24.0974C70.8772 24.0274 70.3764 24.4148 70.3064 24.9626C70.2364 25.5104 70.6238 26.0113 71.1716 26.0812L71.425 24.0974ZM76.3187 26.7048C76.8675 26.7663 77.3623 26.3712 77.4239 25.8224C77.4854 25.2736 77.0903 24.7787 76.5415 24.7172L76.3187 26.7048ZM81.6481 25.2138C81.0975 25.1704 80.616 25.5816 80.5726 26.1321C80.5292 26.6827 80.9403 27.1642 81.4909 27.2076L81.6481 25.2138ZM86.68 27.4751C87.2322 27.4854 87.6882 27.046 87.6984 26.4938C87.7087 25.9416 87.2693 25.4857 86.7171 25.4755L86.68 27.4751ZM91.7831 25.3187C91.2332 25.3695 90.8285 25.8565 90.8793 26.4065C90.9301 26.9564 91.4171 27.3611 91.967 27.3103L91.7831 25.3187ZM97.2207 26.3181C97.7475 26.1525 98.0404 25.5912 97.8748 25.0643C97.7092 24.5374 97.1478 24.2446 96.621 24.4102L97.2207 26.3181ZM100.773 22.2032C100.356 22.5653 100.311 23.1969 100.673 23.6139C101.035 24.0309 101.667 24.0754 102.084 23.7133L100.773 22.2032ZM105.199 19.0837C105.384 18.5634 105.113 17.9915 104.592 17.8064C104.072 17.6213 103.5 17.893 103.315 18.4134L105.199 19.0837ZM104.07 13.6444C104.064 14.1966 104.507 14.6489 105.06 14.6545C105.612 14.6601 106.064 14.2169 106.07 13.6647L104.07 13.6444ZM105.626 8.42527C105.537 7.88029 105.022 7.51104 104.477 7.60054C103.932 7.69004 103.563 8.20439 103.653 8.74938L105.626 8.42527ZM102.563 3.83144C102.708 4.36443 103.257 4.6792 103.79 4.53451C104.323 4.38981 104.638 3.84043 104.493 3.30744L102.563 3.83144ZM96.598 82.7639C95.9817 83.3307 95.3652 83.8838 94.7485 84.4235L96.0656 85.9285C96.6948 85.3779 97.3236 84.8138 97.9518 84.2361L96.598 82.7639ZM91.0272 87.5178C89.7208 88.548 88.4149 89.5196 87.1105 90.4343L88.2588 92.0718C89.5944 91.1351 90.9304 90.1412 92.2656 89.0883L91.0272 87.5178ZM83.0351 93.1133C81.6251 93.979 80.2184 94.78 78.8163 95.5187L79.7485 97.2881C81.19 96.5287 82.6349 95.7059 84.0816 94.8177L83.0351 93.1133ZM74.4539 97.6253C72.9462 98.2879 71.4457 98.8799 69.9541 99.4043L70.6174 101.291C72.1574 100.75 73.7051 100.139 75.2585 99.4564L74.4539 97.6253ZM65.331 100.824C63.7432 101.242 62.1677 101.584 60.6069 101.855L60.9485 103.825C62.5659 103.545 64.1971 103.19 65.8397 102.758L65.331 100.824ZM55.8117 102.468C54.1818 102.603 52.571 102.66 50.9818 102.644L50.9616 104.643C52.6123 104.66 54.2848 104.601 55.9761 104.461L55.8117 102.468ZM46.158 102.367C44.5387 102.197 42.9462 101.951 41.3836 101.634L40.986 103.595C42.6106 103.924 44.2662 104.18 45.9493 104.356L46.158 102.367ZM36.7019 100.449C35.1497 99.9755 33.633 99.4312 32.1553 98.8212L31.3921 100.67C32.9281 101.304 34.5049 101.87 36.1186 102.362L36.7019 100.449ZM27.7843 96.7683C26.3524 96.0108 24.9653 95.1899 23.6271 94.3111L22.5293 95.9829C23.9198 96.896 25.3611 97.7491 26.8492 98.5362L27.7843 96.7683ZM19.7203 91.4735C18.4568 90.4614 17.2485 89.3952 16.0995 88.281L14.7072 89.7167C15.9014 90.8749 17.1571 91.9829 18.47 93.0345L19.7203 91.4735ZM12.7975 84.7568C11.748 83.5224 10.7652 82.2445 9.8537 80.9299L8.21012 82.0695C9.15937 83.4385 10.1822 84.7684 11.2739 86.0523L12.7975 84.7568ZM7.3096 76.8325C6.52819 75.4168 5.82625 73.9699 5.20838 72.499L3.36447 73.2736C4.01041 74.8113 4.7435 76.3222 5.55862 77.7989L7.3096 76.8325ZM3.59609 67.9694C3.14281 66.4229 2.78238 64.8592 2.51957 63.286L0.5469 63.6155C0.82319 65.2694 1.2017 66.9109 1.67683 68.532L3.59609 67.9694ZM2.0276 58.5156C1.96564 56.9196 2.00752 55.3216 2.15816 53.729L0.167049 53.5407C0.00785816 55.2236 -0.0362244 56.9105 0.0291072 58.5932L2.0276 58.5156ZM2.93437 49.0048C3.29671 47.4702 3.76723 45.9473 4.35081 44.443L2.48621 43.7196C1.86904 45.3105 1.37125 46.9216 0.987894 48.5452L2.93437 49.0048ZM6.37838 40.114C6.76383 39.4169 7.17619 38.7254 7.61602 38.0402L5.93298 36.9598C5.46963 37.6815 5.03484 38.4106 4.62812 39.1462L6.37838 40.114ZM7.61602 38.0402C8.08008 37.3174 8.56386 36.6283 9.0663 35.9715L7.47782 34.7563C6.94158 35.4572 6.4263 36.1913 5.93298 36.9598L7.61602 38.0402ZM12.4073 32.304C13.6428 31.1658 14.9574 30.1599 16.3421 29.2733L15.2637 27.589C13.784 28.5363 12.3763 29.6131 11.0522 30.833L12.4073 32.304ZM20.7481 26.9366C22.2644 26.2785 23.8433 25.7259 25.4757 25.2669L24.9343 23.3416C23.2228 23.8228 21.5582 24.4048 19.9518 25.1019L20.7481 26.9366ZM30.405 24.1782C32.0476 23.9049 33.7293 23.7056 35.442 23.5699L35.284 21.5762C33.5208 21.7159 31.7818 21.9216 30.0766 22.2054L30.405 24.1782ZM40.5208 23.3444C42.205 23.3232 43.9086 23.3503 45.6244 23.4163L45.7012 21.4178C43.9559 21.3507 42.2181 21.3228 40.4956 21.3445L40.5208 23.3444ZM50.7352 23.7159C52.4372 23.8467 54.1428 24.0057 55.8453 24.1837L56.0532 22.1946C54.3361 22.0151 52.6119 21.8543 50.8885 21.7218L50.7352 23.7159ZM60.9525 24.7672C62.6683 24.9771 64.3722 25.1968 66.0583 25.4165L66.3168 23.4333C64.6294 23.2134 62.9192 22.9929 61.1954 22.782L60.9525 24.7672ZM71.1716 26.0812C72.9198 26.3045 74.639 26.5165 76.3187 26.7048L76.5415 24.7172C74.8762 24.5305 73.1681 24.32 71.425 24.0974L71.1716 26.0812ZM81.4909 27.2076C83.2846 27.3491 85.0193 27.4443 86.68 27.4751L86.7171 25.4755C85.1058 25.4456 83.4123 25.3529 81.6481 25.2138L81.4909 27.2076ZM91.967 27.3103C93.8598 27.1355 95.6238 26.8201 97.2207 26.3181L96.621 24.4102C95.193 24.859 93.5749 25.1533 91.7831 25.3187L91.967 27.3103ZM102.084 23.7133C103.47 22.5097 104.525 20.9801 105.199 19.0837L103.315 18.4134C102.753 19.9945 101.891 21.232 100.773 22.2032L102.084 23.7133ZM106.07 13.6647C106.086 12.079 105.94 10.3367 105.626 8.42527L103.653 8.74938C103.951 10.5688 104.085 12.1942 104.07 13.6444L106.07 13.6647ZM104.493 3.30744C104.265 2.46642 104.011 1.59812 103.731 0.701725L101.822 1.29827C102.095 2.17224 102.342 3.01632 102.563 3.83144L104.493 3.30744Z"
        fill="white" />
</svg>