<svg width="57" height="51" viewBox="0 0 57 51" fill="none" xmlns="http://www.w3.org/2000/svg">
<path d="M4.80016 19.6749L4.7971 19.678C3.76778 19.6854 2.94471 20.5234 2.95205 21.5496L2.95207 21.5527C2.95944 22.5821 3.79748 23.4082 4.8268 23.4008C5.85612 23.3935 6.68534 22.5554 6.67798 21.5261L6.67795 21.523C6.67062 20.4968 5.82948 19.6676 4.80016 19.6749ZM34.5238 14.2415C35.5531 14.2342 36.3912 15.0603 36.3986 16.0896L36.4838 28.016L43.2811 34.7076C44.0136 35.4297 44.0221 36.61 43.3 37.3425C42.9389 37.7087 42.4626 37.894 41.9879 37.8974C41.5103 37.9008 41.0313 37.7224 40.665 37.3644L33.3866 30.1955C33.002 29.8592 32.7674 29.3647 32.7634 28.8131L32.6726 16.116C32.6653 15.0867 33.4914 14.2486 34.5176 14.2413L34.5238 14.2415ZM7.87769 41.0419L7.87772 41.045L7.87464 41.045C6.84839 41.0523 6.02225 41.8904 6.02961 42.9197C6.03697 43.949 6.87503 44.7782 7.90436 44.7709C8.93368 44.7635 9.76287 43.9224 9.75551 42.893C9.74815 41.8637 8.90702 41.0345 7.87769 41.0419ZM28.6483 0.34394L28.6484 0.347022L28.6422 0.347066C27.616 0.354405 26.7929 1.19242 26.8002 2.21867C26.8076 3.24799 27.6456 4.07413 28.675 4.06677L32.5857 4.0388L32.6067 6.97577L32.6036 6.9758C24.6449 7.70457 17.9316 12.6806 14.7266 19.6042L11.0285 19.6306L11.0254 19.6337C9.99609 19.6411 9.17303 20.4791 9.18037 21.5053C9.18773 22.5347 10.0258 23.3639 11.0551 23.3565L19.5393 23.2959C21.2713 23.2835 22.6511 24.8793 22.6638 26.6544C22.6772 28.5312 21.1687 30.0614 19.2919 30.0748L1.97242 30.1956L1.96936 30.1987L1.96628 30.1987C0.940031 30.2061 0.113892 31.0441 0.121231 32.0704C0.128592 33.0997 0.969732 33.9289 1.99906 33.9215L24.1941 33.7505C26.1756 33.7363 27.7959 35.3335 27.81 37.3151C27.821 39.2782 26.2545 40.8858 24.2978 40.9276L14.9694 40.9943C13.9401 41.0017 13.114 41.8397 13.1213 42.869C13.1287 43.8984 13.9667 44.7245 14.996 44.7171L19.5324 44.6847C23.5012 48.4563 28.8771 50.757 34.7846 50.7148C46.8869 50.6282 56.6287 40.7453 56.5421 28.6407C56.4601 17.1672 47.5725 7.81511 36.3391 6.94946L36.333 6.94951L36.312 4.01561L40.2228 3.98765C41.2521 3.98028 42.0782 3.13917 42.0708 2.10984C42.0635 1.08052 41.2254 0.254381 40.1961 0.261742L28.6483 0.34394Z" fill="white"/>
</svg>
