<svg width="351" height="88" viewBox="0 0 351 88" fill="none" xmlns="http://www.w3.org/2000/svg"
    preserveAspectRatio="none">
    <path
        d="M0.76257 34.1349L22.3518 2.28204C23.1007 1.17698 24.361 0.529551 25.6955 0.564278L337.076 8.66712C338.615 8.70718 339.988 9.64534 340.585 11.0647L349.731 32.8269C350.449 34.534 349.873 36.5103 348.35 37.5643L328.645 51.2062C326.899 52.4153 326.434 54.7963 327.599 56.573L337.336 71.431C338.896 73.8109 337.477 77.0071 334.666 77.447L267.481 87.959C267.27 87.992 267.057 88.0077 266.843 88.0059L84.5009 86.5113C84.2767 86.5095 84.053 86.4884 83.8324 86.4483L14.9198 73.9187C13.5265 73.6654 12.3785 72.6796 11.9174 71.3406L0.301486 37.6073C-0.0998588 36.4418 0.070967 35.1553 0.76257 34.1349Z"
        fill="#3322B8" />
</svg>