<svg width="62" height="62" viewBox="0 0 62 62" fill="none" xmlns="http://www.w3.org/2000/svg">
<path fill-rule="evenodd" clip-rule="evenodd" d="M37.3164 52.9932L39.8613 51.3127L37.5012 49.9479L37.3164 52.9932Z" fill="white"/>
<path fill-rule="evenodd" clip-rule="evenodd" d="M38.0272 47.6453L41.5955 49.7096L58.0163 21.3065L54.448 19.2451L38.0272 47.6453Z" fill="white"/>
<path fill-rule="evenodd" clip-rule="evenodd" d="M59.1429 19.3559L55.5746 17.2945L57.8701 13.3207C58.0195 13.0616 58.2676 12.8758 58.555 12.797C58.8452 12.7183 59.1522 12.7608 59.4113 12.9102L61.0279 13.8437C61.287 13.9931 61.4728 14.2411 61.5516 14.5285C61.6303 14.8188 61.5878 15.1258 61.4384 15.3849L59.1429 19.3559Z" fill="white"/>
<path fill-rule="evenodd" clip-rule="evenodd" d="M45.4107 30.3719L52.1787 18.6646L52.187 3.778C52.1881 1.91019 50.676 0.396447 48.8082 0.395398L3.73226 0.370064C1.86446 0.369014 0.350712 1.88106 0.349662 3.74886L0.319262 57.84C0.318212 59.7078 1.83026 61.2216 3.69806 61.2226L48.774 61.248C50.6418 61.249 52.1556 59.737 52.1566 57.8692L52.169 35.9226L43.2468 51.353C42.9873 51.8065 42.6209 52.1922 42.1812 52.4821C40.803 53.3941 36.6771 56.1133 36.6771 56.1133C36.3192 56.3469 35.8628 56.3608 35.491 56.1465C35.1221 55.935 34.9054 55.5292 34.931 55.1038C34.931 55.1038 35.2296 50.171 35.3319 48.5201C35.3632 47.9961 35.5156 47.4863 35.7779 47.0328L43.197 34.1986L8.22095 34.179C7.59834 34.1786 7.09434 33.6741 7.09469 33.0514L7.09722 28.5439C7.09757 27.9212 7.60214 27.4172 8.22475 27.4176C8.84736 27.4179 9.35137 27.9225 9.35102 28.5451L9.34912 31.9258L16.1105 31.9296L16.1162 21.7879C16.1166 21.1653 16.6211 20.6613 17.2437 20.6616C17.8664 20.662 18.3704 21.1665 18.37 21.7891L18.3643 31.9309L25.1257 31.9347L25.1301 24.046C25.1305 23.4234 25.6351 22.9194 26.2577 22.9198C26.8803 22.9201 27.3843 23.4247 27.3839 24.0473L27.3795 31.9359L34.1409 31.9397L34.1453 24.0511C34.1457 23.4285 34.6503 22.9245 35.2729 22.9248C35.8955 22.9252 36.3995 23.4297 36.3991 24.0524L36.3947 31.941L43.1561 31.9448L43.1643 17.2955C43.1647 16.6729 43.6693 16.1689 44.2919 16.1692C44.9145 16.1696 45.4185 16.6741 45.4181 17.2968L45.4107 30.3719ZM8.20982 54.4641L30.7478 54.4768C31.3704 54.4771 31.875 53.9731 31.8753 53.3505C31.8757 52.7279 31.3717 52.2233 30.7491 52.223L8.21108 52.2103C7.58847 52.21 7.0839 52.714 7.08355 53.3366C7.0832 53.9592 7.58721 54.4638 8.20982 54.4641ZM8.21362 47.7027L12.7212 47.7053C13.3438 47.7056 13.8484 47.2016 13.8487 46.579C13.8491 45.9564 13.3451 45.4518 12.7225 45.4515L8.21488 45.4489C7.59227 45.4486 7.0877 45.9526 7.08735 46.5752C7.087 47.1978 7.59101 47.7024 8.21362 47.7027ZM17.2288 47.7078L30.7516 47.7154C31.3742 47.7157 31.8788 47.2117 31.8791 46.5891C31.8795 45.9665 31.3755 45.4619 30.7529 45.4616L17.2301 45.454C16.6075 45.4536 16.1029 45.9577 16.1025 46.5803C16.1022 47.2029 16.6062 47.7074 17.2288 47.7078ZM8.21742 40.9413L12.725 40.9439C13.3476 40.9442 13.8522 40.4402 13.8525 39.8176C13.8529 39.195 13.3489 38.6904 12.7263 38.6901L8.21868 38.6875C7.59607 38.6872 7.0915 39.1912 7.09115 39.8138C7.0908 40.4364 7.59481 40.941 8.21742 40.9413ZM17.2326 40.9464L35.263 40.9565C35.8856 40.9569 36.3902 40.4529 36.3905 39.8303C36.3909 39.2077 35.8869 38.7031 35.2643 38.7027L17.2339 38.6926C16.6113 38.6922 16.1067 39.1963 16.1063 39.8189C16.106 40.4415 16.61 40.9461 17.2326 40.9464ZM41.576 7.15309L30.7683 17.9487L22.5547 9.7258C22.1155 9.28605 21.3998 9.28565 20.9602 9.7249L7.42977 23.2401C6.99003 23.6793 6.98963 24.3949 7.42888 24.8346C7.86812 25.2743 8.58373 25.2748 9.02341 24.8355L21.7564 12.1168L29.97 20.3397C30.4093 20.7794 31.1249 20.7798 31.5646 20.3406L43.1697 8.74852L43.1674 12.7885C43.1671 13.4111 43.6711 13.9157 44.2937 13.916C44.9163 13.9164 45.4209 13.4124 45.4212 12.7898L45.425 6.02835C45.4254 5.40574 44.9214 4.90117 44.2987 4.90082L37.5374 4.89702C36.9147 4.89667 36.4102 5.40068 36.4098 6.02329C36.4095 6.6459 36.9135 7.15047 37.5361 7.15082L41.576 7.15309Z" fill="white"/>
</svg>
