<svg width="373" height="113" viewBox="0 0 373 113" fill="none" xmlns="http://www.w3.org/2000/svg"
    preserveAspectRatio="none">
    <path
        d="M1.22091 39.6877L22.4889 2.91179C23.4182 1.30487 25.1612 0.345047 27.0161 0.41887L323.493 12.219C324.781 12.2702 325.999 12.8167 326.894 13.7443L371.332 59.8281C374.394 63.0033 372.143 68.2988 367.733 68.2988H286.855C282.671 68.2988 280.338 73.1316 282.94 76.4082L295.99 92.8416C298.76 96.3305 295.929 101.428 291.503 100.918L178.766 87.9445C177.935 87.8489 177.094 87.9632 176.319 88.277L117.035 112.273C115.455 112.912 113.659 112.703 112.269 111.718L80.241 89.032C79.1288 88.2443 77.7433 87.9446 76.405 88.2025L27.8796 97.5514C25.6054 97.9895 23.3279 96.8085 22.3757 94.6972L12.5 72.7988L0.912022 44.0606C0.336417 42.6331 0.450355 41.0201 1.22091 39.6877Z"
        fill="#3322B8" />
</svg>