<svg width="28" height="81" viewBox="0 0 28 81" fill="none" xmlns="http://www.w3.org/2000/svg">
<path d="M10.7314 80.6375H5.46283C5.39186 80.5691 5.31309 80.5093 5.22813 80.4594C1.89378 78.9379 0.29135 75.8787 1.18159 72.3097C3.56905 62.4685 6.03744 52.6435 8.46537 42.8104C8.79937 41.4499 9.04003 40.0681 9.18565 38.6748C9.23317 38.5019 9.23147 38.3192 9.18074 38.1472C9.13001 37.9752 9.03227 37.8207 8.89852 37.7013C8.76477 37.5818 8.60033 37.5021 8.42371 37.4711C8.24709 37.44 8.06531 37.4589 7.89885 37.5256C7.34042 37.6517 6.7976 37.8389 6.28023 38.084C5.08246 38.5858 3.91705 39.1766 2.71118 39.6379C2.27712 39.9089 1.75675 40.0061 1.25411 39.9101C0.751463 39.8141 0.303583 39.5319 0 39.1199V37.2019C0.815652 36.0605 1.73988 35.0007 2.75974 34.0375C6.36926 31.1968 10.0435 28.4856 13.7906 25.7744C14.5907 25.2484 15.4488 24.8166 16.348 24.4876C17.522 23.977 18.825 23.8413 20.0789 24.0992C24.7648 25.0461 27.1928 28.8012 26.0516 33.4224C23.737 42.8967 21.4116 52.371 19.0754 61.8453C18.7082 63.3889 18.4379 64.9539 18.2661 66.5312C18.2197 66.7046 18.2254 66.8879 18.2824 67.0581C18.3395 67.2283 18.4454 67.378 18.5869 67.4884C18.7284 67.5989 18.8993 67.6653 19.0783 67.6793C19.2573 67.6932 19.4364 67.6542 19.5934 67.5671C20.4755 67.3001 21.3091 66.8711 22.167 66.5231C23.2029 66.0699 24.2793 65.6572 25.3233 65.2606C25.6277 65.1487 25.96 65.137 26.2716 65.2273C26.5831 65.3176 26.8577 65.505 27.0552 65.7624C27.2725 66.017 27.4056 66.3327 27.436 66.6661C27.4664 66.9994 27.3928 67.334 27.2251 67.6238C26.9625 68.1754 26.6277 68.6898 26.2297 69.1534C25.3605 70.1239 24.4219 71.0301 23.4214 71.8646C19.4234 75.0856 15.3283 78.25 10.7314 80.6375Z" fill="white"/>
<path d="M17.5465 19.9252C15.5758 19.9236 13.6498 19.3375 12.0121 18.2411C10.3745 17.1447 9.09886 15.5872 8.34653 13.7657C7.59421 11.9442 7.39902 9.94051 7.78565 8.00805C8.17229 6.07559 9.12338 4.30122 10.5186 2.90938C11.9138 1.51755 13.6905 0.570783 15.6239 0.18886C17.5573 -0.193063 19.5606 0.0070116 21.3802 0.763776C23.1999 1.52054 24.7542 2.79999 25.8466 4.44028C26.939 6.08057 27.5204 8.00801 27.5172 9.97876C27.5183 11.2873 27.2609 12.5831 26.7599 13.792C26.259 15.0008 25.5242 16.0988 24.5978 17.0229C23.6714 17.9471 22.5716 18.6792 21.3616 19.1772C20.1515 19.6752 18.855 19.9294 17.5465 19.9252Z" fill="white"/>
</svg>
