<svg width="83" height="53" viewBox="0 0 83 53" fill="none" xmlns="http://www.w3.org/2000/svg">
<path d="M73.9207 0H9.08187C4.08709 0 0 4.08813 0 9.08417V33.961C0 38.957 4.08709 43.0452 9.08187 43.0452H11.167V50.0058C11.167 51.1155 12.0646 52.0133 13.174 52.0133H69.826C70.9354 52.0133 71.833 51.1155 71.833 50.0058V43.0452H73.9181C78.9129 43.0452 83 38.957 83 33.961V9.08417C83 4.08813 78.9129 0 73.9207 0Z" fill="#FF9400"/>
<path d="M73.9207 4.54199H9.07939C6.58326 4.54199 4.53845 6.5848 4.53845 9.08408V33.9609C4.53845 36.4577 6.58074 38.503 9.07939 38.503H73.9182C76.4143 38.503 78.4591 36.4602 78.4591 33.9609V9.08156C78.4591 6.5848 76.4168 4.54199 73.9207 4.54199Z" fill="white"/>
<path d="M73.1215 9.32642H68.9663C68.6637 9.32642 68.3864 9.50043 68.2553 9.77281L62.4839 21.8027L56.7126 9.77281C56.5815 9.50043 56.3066 9.32642 56.0016 9.32642H51.8464C51.4758 9.32642 51.2892 9.52313 51.2892 9.91656V33.1289C51.2892 33.5223 51.4758 33.719 51.8464 33.719H55.9083C56.2335 33.719 56.4983 33.4542 56.4983 33.1289V19.6363L60.4089 27.8403C60.54 28.1152 60.8173 28.2892 61.1199 28.2892H63.848C64.1505 28.2892 64.4279 28.1152 64.559 27.8403L68.4696 19.6363V33.1264C68.4696 33.4517 68.7343 33.7165 69.0596 33.7165H73.1215C73.4921 33.7165 73.6787 33.5198 73.6787 33.1264V9.91656C73.6787 9.52313 73.4921 9.32642 73.1215 9.32642Z" fill="#5229A1"/>
<path d="M47.1415 9.32642H42.7998C42.5073 9.32642 42.2375 9.49035 42.1013 9.74759L34.4995 24.2742V9.91656C34.4995 9.59122 34.2348 9.32642 33.9095 9.32642H29.8476C29.477 9.32642 29.2904 9.52313 29.2904 9.91656V33.1289C29.2904 33.5223 29.4745 33.719 29.8476 33.719H34.2222C34.5146 33.719 34.7844 33.5551 34.9206 33.2978L42.5224 18.7738V33.1289C42.5224 33.5223 42.709 33.719 43.0796 33.719H47.1415C47.4668 33.719 47.7315 33.4542 47.7315 33.1289V9.91656C47.7315 9.5887 47.4668 9.32642 47.1415 9.32642Z" fill="#5229A1"/>
<path d="M18.5596 9.32642H9.87863C9.50799 9.32642 9.32141 9.52313 9.32141 9.91656V33.1289C9.32141 33.5223 9.50547 33.719 9.87863 33.719H14.0061C14.3767 33.719 14.5633 33.5223 14.5633 33.1289V25.9362H18.5596C21.1364 25.9362 23.1762 25.1897 24.6839 23.6916C26.1917 22.1961 26.9431 20.1709 26.9431 17.6162C26.9431 15.0841 26.1892 13.069 24.6839 11.5735C23.1762 10.0729 21.1339 9.32642 18.5596 9.32642ZM17.8385 21.0536H14.5633V14.1737H17.8385C20.3044 14.1737 21.5398 15.3212 21.5398 17.6136C21.5398 19.9061 20.3044 21.0536 17.8385 21.0536Z" fill="#5229A1"/>
<path d="M31.1739 42.4273C31.0479 42.0465 30.826 41.7766 30.5033 41.6177C30.1805 41.4589 29.7443 41.3782 29.1896 41.3782H26.9381C26.9003 41.3782 26.8725 41.4084 26.8725 41.4437V49.0853C26.8725 49.1232 26.9028 49.1509 26.9381 49.1509H29.0686C29.5426 49.1509 29.9637 49.0702 30.3343 48.9063C30.705 48.7423 30.9747 48.4422 31.1462 48.0009C31.2521 47.7335 31.3101 47.3679 31.3202 46.9063C31.3277 46.4448 31.3303 44.0414 31.3277 43.5622C31.3227 43.0805 31.2723 42.7022 31.1739 42.4273ZM29.883 47.103C29.883 47.4032 29.8149 47.6301 29.6813 47.7865C29.5477 47.9429 29.3006 48.021 28.9425 48.021H28.3248V42.503H28.9425C29.3107 42.503 29.5577 42.5837 29.6889 42.7451C29.8174 42.9065 29.883 43.1284 29.883 43.4134V47.103ZM68.3763 41.9355C67.9779 41.5623 67.3476 41.3782 66.4878 41.3782H64.4859C64.4481 41.3782 64.4203 41.4084 64.4203 41.4437V49.0853C64.4203 49.1232 64.4506 49.1509 64.4859 49.1509H65.8045C65.8424 49.1509 65.8701 49.1206 65.8701 49.0853V46.1699H66.4626C66.9467 46.1699 67.3476 46.1094 67.6653 45.9909C67.983 45.8723 68.2402 45.7059 68.4368 45.494C68.6335 45.2822 68.7722 45.0275 68.8528 44.7299C68.9335 44.4323 68.9739 44.1019 68.9739 43.7362C68.9739 42.9065 68.7747 42.3088 68.3763 41.9355ZM67.3148 44.6996C67.1409 44.914 66.8282 45.0199 66.3819 45.0199H65.8701V42.508H66.4072C66.8559 42.508 67.161 42.619 67.3274 42.8384C67.4938 43.0578 67.577 43.3604 67.577 43.7412C67.577 44.1649 67.4888 44.4852 67.3148 44.6996ZM32.8128 49.1509H34.1315C34.1693 49.1509 34.197 49.1206 34.197 49.0853V41.4437C34.197 41.4059 34.1668 41.3782 34.1315 41.3782H32.8128C32.775 41.3782 32.7472 41.4084 32.7472 41.4437V49.0853C32.7447 49.1206 32.775 49.1509 32.8128 49.1509ZM21.8324 49.1509H25.8514C25.8892 49.1509 25.9169 49.1206 25.9169 49.0853V48.0891C25.9169 48.0513 25.8867 48.0236 25.8514 48.0236H23.2191V45.779H25.5034C25.5413 45.779 25.569 45.7487 25.569 45.7134V44.6946C25.569 44.6567 25.5387 44.629 25.5034 44.629H23.2191V42.508H25.8539C25.8917 42.508 25.9195 42.4777 25.9195 42.4424V41.4462C25.9195 41.4084 25.8892 41.3807 25.8539 41.3807H21.8324C21.7945 41.3807 21.7668 41.4109 21.7668 41.4462V49.0878C21.7668 49.1206 21.7971 49.1509 21.8324 49.1509ZM18.005 43.5445L17.2536 45.2746H17.188L16.4543 43.5874L15.4584 41.4135C15.4483 41.3908 15.4231 41.3756 15.3979 41.3756H14.0944C14.0565 41.3756 14.0288 41.4059 14.0288 41.4412V49.0828C14.0288 49.1206 14.0591 49.1484 14.0944 49.1484H15.413C15.4508 49.1484 15.4786 49.1181 15.4786 49.0828V44.6492H15.5467L16.1215 46.011L16.772 47.4133C16.7821 47.4359 16.8073 47.4511 16.8325 47.4511H17.6192C17.6444 47.4511 17.6671 47.4359 17.6797 47.4133L18.3176 46.0564L18.9076 44.6719H18.9606V49.0853C18.9606 49.1232 18.9908 49.1509 19.0261 49.1509H20.3448C20.3826 49.1509 20.4103 49.1206 20.4103 49.0853V41.4437C20.4103 41.4059 20.3801 41.3782 20.3448 41.3782H19.0564C19.0311 41.3782 19.0059 41.3933 18.9959 41.416L18.005 43.5445ZM43.5764 45.9354H44.3555V47.4662C44.3555 47.6604 44.2773 47.8117 44.1235 47.9252C43.9697 48.0362 43.7655 48.0917 43.5083 48.0917C43.2537 48.0917 43.0747 48.0362 42.9738 47.9227C42.873 47.8117 42.8099 47.6881 42.7822 47.5545C42.7544 47.4788 42.7418 47.4006 42.7418 47.3199V43.3705C42.7418 43.2747 42.7519 43.1713 42.7746 43.0628C42.7973 42.9544 42.8377 42.8535 42.8931 42.7602C42.9511 42.6669 43.0318 42.5912 43.1377 42.5307C43.2436 42.4702 43.3797 42.4424 43.5487 42.4424C43.8311 42.4424 44.0353 42.5307 44.1639 42.7098C44.2799 42.8712 44.3429 43.078 44.353 43.3251C44.3555 43.3655 44.3908 43.3957 44.4286 43.3882L45.7221 43.1763C45.7548 43.1713 45.7801 43.1435 45.7775 43.1108C45.7624 42.6946 45.5859 42.0767 45.2405 41.7993C44.8623 41.4967 44.3227 41.3126 43.5613 41.3126C43.1503 41.3126 42.7998 41.3681 42.5124 41.479C42.225 41.59 41.9905 41.7438 41.8064 41.938C41.6224 42.1322 41.4913 42.3567 41.4106 42.6139C41.3299 42.8712 41.2895 43.1435 41.2895 43.4361V47.3124C41.2895 47.9378 41.4736 48.412 41.8417 48.7373C42.2098 49.0601 42.7771 49.224 43.5487 49.224C44.2193 49.224 44.764 49.0677 45.1825 48.7549C45.5985 48.4422 45.8078 47.9807 45.8078 47.3704V44.9568C45.8078 44.919 45.7775 44.8913 45.7422 44.8913H43.5764C43.5386 44.8913 43.5109 44.9215 43.5109 44.9568V45.8748C43.5083 45.9051 43.5386 45.9354 43.5764 45.9354ZM51.3623 44.8787C51.5287 44.5407 51.6119 44.1246 51.6119 43.6328C51.6119 42.8359 51.3976 42.2608 50.9665 41.9078C50.5353 41.5547 49.9403 41.3782 49.1788 41.3782H47.1088C47.071 41.3782 47.0433 41.4084 47.0433 41.4437V49.0853C47.0433 49.1232 47.0735 49.1509 47.1088 49.1509H48.4275C48.4653 49.1509 48.493 49.1206 48.493 49.0853V45.9354H49.1788L50.3714 49.108C50.3815 49.1332 50.4067 49.1509 50.4345 49.1509H51.7682C51.8162 49.1509 51.8464 49.103 51.8288 49.0601L50.4798 45.6781C50.9034 45.4839 51.1984 45.2191 51.3623 44.8787ZM49.9201 44.5105C49.7411 44.692 49.4637 44.7828 49.0881 44.7828H48.4955V42.5055H49.0603C49.4637 42.5055 49.7512 42.6038 49.9277 42.8006C50.1016 42.9973 50.1899 43.2747 50.1899 43.6328C50.1874 44.0363 50.0991 44.3289 49.9201 44.5105ZM61.6242 47.2291C61.6242 47.4687 61.5611 47.6705 61.4351 47.8369C61.309 48.0034 61.0997 48.0891 60.8022 48.0891C60.5072 48.0891 60.2979 48.0084 60.1769 47.8496C60.0559 47.6907 59.9954 47.5091 59.9954 47.3073V41.4538C59.9954 41.416 59.9651 41.3882 59.9298 41.3882H58.6112C58.5733 41.3882 58.5456 41.4185 58.5456 41.4538V47.2846C58.5456 47.9101 58.7271 48.3893 59.0877 48.7196C59.4508 49.05 60.0231 49.2165 60.8098 49.2165C61.5964 49.2165 62.1688 49.0424 62.5318 48.6969C62.8949 48.3514 63.0739 47.8395 63.0739 47.1611V41.4538C63.0739 41.416 63.0437 41.3882 63.0084 41.3882H61.6897C61.6519 41.3882 61.6242 41.4185 61.6242 41.4538V47.2291ZM56.7807 41.8573C56.6067 41.6783 56.3747 41.5421 56.0848 41.4488C55.7948 41.3555 55.4343 41.3101 55.0056 41.3101C54.6048 41.3101 54.2568 41.3605 53.9669 41.4614C53.6769 41.5623 53.4424 41.7035 53.2634 41.8851C53.0844 42.0667 52.9533 42.2861 52.8675 42.5383C52.7818 42.7905 52.7415 43.0704 52.7415 43.3756V47.2846C52.7415 47.9101 52.9205 48.3893 53.2785 48.7196C53.6366 49.05 54.2064 49.2165 54.993 49.2165C55.7797 49.2165 56.3546 49.0424 56.7227 48.6969C57.0883 48.3514 57.2723 47.8395 57.2723 47.1611V43.363C57.2723 43.0427 57.2345 42.7552 57.1589 42.503C57.0807 42.2533 56.9546 42.0364 56.7807 41.8573ZM55.8175 47.2291C55.8175 47.4687 55.7545 47.6705 55.6284 47.8369C55.5023 48.0034 55.2931 48.0891 54.9956 48.0891C54.7006 48.0891 54.4913 48.0084 54.3703 47.8496C54.2492 47.6907 54.1887 47.5091 54.1887 47.3073V43.3983C54.1887 43.3024 54.1988 43.1965 54.2215 43.0805C54.2442 42.9645 54.2845 42.8611 54.3425 42.7678C54.4005 42.6744 54.4837 42.5963 54.5921 42.5332C54.7006 42.4702 54.8392 42.4374 55.0082 42.4374C55.3208 42.4374 55.5351 42.5231 55.6461 42.6946C55.757 42.8661 55.815 43.0603 55.815 43.2747V47.2291H55.8175ZM36.9528 41.4286L35.1047 49.0702C35.0946 49.1131 35.1274 49.1534 35.1703 49.1534H36.5116C36.5419 49.1534 36.5696 49.1307 36.5772 49.1005L36.915 47.5343H38.6346L38.985 49.103C38.9926 49.1332 39.0178 49.1559 39.0506 49.1559H40.392C40.4348 49.1559 40.4676 49.1156 40.4575 49.0727L38.5942 41.4311C38.5867 41.4008 38.5615 41.3807 38.5287 41.3807H37.0209C36.9856 41.3782 36.9604 41.3983 36.9528 41.4286ZM37.1268 46.4045L37.7319 43.1763H37.8L38.4051 46.4045H37.1268Z" fill="white"/>
</svg>
