<svg xmlns="http://www.w3.org/2000/svg" width="39" height="25" viewBox="0 0 39 25" fill="none">
    <path
        d="M10.1983 24.7628H1.33973C0.147235 24.7628 -0.221871 24.195 0.232413 23.0593L10.7093 1.76473C11.1068 1.02652 11.7031 0.65741 12.4981 0.65741H19.5679C20.7604 0.65741 21.1295 1.22526 20.6752 2.36097L11.9018 23.6555C11.6179 24.3937 11.05 24.7628 10.1983 24.7628ZM27.6598 24.7628H18.7161C17.5236 24.7628 17.1545 24.195 17.6088 23.0593L28.0857 1.76473C28.4264 1.02652 28.9942 0.65741 29.7892 0.65741H36.9442C38.1367 0.65741 38.5058 1.22526 38.0515 2.36097L29.3634 23.6555C28.9659 24.3937 28.398 24.7628 27.6598 24.7628Z"
        fill="#FF5129" />
</svg>