<svg width="290" height="333" viewBox="0 0 290 333" fill="none" xmlns="http://www.w3.org/2000/svg">
    <g filter="url(#filter0_dd_2064_49071)">
        <path
            d="M68.0008 164.363C67.6744 164.108 67.2031 164.166 66.948 164.493C66.693 164.819 66.7509 165.29 67.0773 165.545L68.0008 164.363ZM150.539 182.454L149.897 182.842L150.539 182.454ZM264.462 126.836C264.12 126.602 263.653 126.69 263.42 127.032L259.613 132.606C259.379 132.948 259.467 133.415 259.809 133.648C260.151 133.882 260.617 133.794 260.851 133.452L264.235 128.497L269.19 131.882C269.532 132.115 269.999 132.027 270.232 131.685C270.466 131.343 270.378 130.877 270.036 130.643L264.462 126.836ZM68.7337 166.809C69.0659 167.056 69.5358 166.988 69.7832 166.656C70.0306 166.323 69.9619 165.853 69.6297 165.606L68.7337 166.809ZM72.9199 167.94C72.5765 167.708 72.1103 167.799 71.8787 168.142C71.6471 168.485 71.7378 168.952 72.0812 169.183L72.9199 167.94ZM75.5555 171.406C75.9098 171.62 76.371 171.507 76.5856 171.153C76.8002 170.799 76.6869 170.337 76.3326 170.123L75.5555 171.406ZM79.8519 172.136C79.4872 171.939 79.0323 172.075 78.8359 172.44C78.6394 172.805 78.7757 173.26 79.1404 173.456L79.8519 172.136ZM82.8181 175.317C83.1924 175.495 83.6396 175.335 83.817 174.961C83.9944 174.586 83.8348 174.139 83.4605 173.962L82.8181 175.317ZM87.1542 175.595C86.771 175.437 86.3328 175.62 86.1755 176.003C86.0181 176.387 86.2011 176.825 86.5843 176.982L87.1542 175.595ZM90.4323 178.444C90.8233 178.58 91.2511 178.374 91.3877 177.983C91.5242 177.592 91.318 177.164 90.9269 177.027L90.4323 178.444ZM94.7814 178.257C94.3835 178.142 93.9677 178.371 93.8526 178.769C93.7375 179.167 93.9668 179.583 94.3647 179.698L94.7814 178.257ZM98.3618 180.736C98.7654 180.829 99.168 180.577 99.261 180.174C99.3541 179.77 99.1023 179.367 98.6987 179.274L98.3618 180.736ZM102.663 180.074C102.255 180.003 101.867 180.277 101.796 180.685C101.726 181.093 101.999 181.481 102.407 181.552L102.663 180.074ZM106.49 182.143C106.902 182.191 107.274 181.897 107.322 181.486C107.37 181.074 107.076 180.702 106.664 180.654L106.49 182.143ZM110.691 181.013C110.277 180.987 109.922 181.302 109.896 181.715C109.871 182.129 110.185 182.484 110.598 182.51L110.691 181.013ZM114.72 182.652C115.134 182.654 115.472 182.321 115.475 181.907C115.478 181.493 115.145 181.155 114.731 181.152L114.72 182.652ZM118.773 181.071C118.359 181.091 118.039 181.442 118.059 181.856C118.078 182.269 118.429 182.589 118.843 182.57L118.773 181.071ZM122.955 182.266C123.367 182.225 123.668 181.857 123.626 181.445C123.585 181.033 123.217 180.733 122.805 180.774L122.955 182.266ZM126.817 180.262C126.407 180.326 126.127 180.709 126.19 181.118C126.253 181.527 126.636 181.808 127.046 181.745L126.817 180.262ZM131.103 181.007C131.508 180.922 131.768 180.525 131.683 180.119C131.599 179.714 131.201 179.454 130.796 179.539L131.103 181.007ZM134.732 178.606C134.331 178.712 134.093 179.123 134.199 179.523C134.305 179.924 134.716 180.162 135.116 180.056L134.732 178.606ZM139.074 178.894C139.468 178.767 139.685 178.344 139.558 177.95C139.43 177.556 139.008 177.34 138.613 177.467L139.074 178.894ZM142.429 176.122C142.042 176.27 141.849 176.704 141.997 177.09C142.145 177.477 142.579 177.671 142.966 177.523L142.429 176.122ZM146.778 175.941C147.156 175.772 147.325 175.328 147.156 174.95C146.987 174.572 146.543 174.403 146.165 174.572L146.778 175.941ZM149.807 172.816C149.439 173.006 149.296 173.459 149.486 173.827C149.677 174.195 150.13 174.338 150.497 174.148L149.807 172.816ZM154.106 172.139C154.461 171.927 154.577 171.467 154.365 171.111C154.153 170.755 153.692 170.639 153.337 170.852L154.106 172.139ZM156.73 168.675C156.388 168.91 156.303 169.377 156.538 169.718C156.773 170.059 157.24 170.145 157.581 169.91L156.73 168.675ZM160.897 167.446C161.221 167.187 161.273 166.715 161.014 166.392C160.755 166.069 160.283 166.017 159.959 166.276L160.897 167.446ZM163.003 163.627C162.702 163.912 162.69 164.386 162.975 164.687C163.26 164.987 163.735 165 164.035 164.715L163.003 163.627ZM166.906 161.713C167.176 161.399 167.141 160.926 166.827 160.655C166.513 160.385 166.04 160.42 165.769 160.734L166.906 161.713ZM168.185 157.556C167.957 157.902 168.052 158.367 168.398 158.595C168.744 158.823 169.209 158.727 169.437 158.381L168.185 157.556ZM171.448 154.696C171.612 154.316 171.436 153.875 171.056 153.711C170.675 153.547 170.234 153.723 170.07 154.103L171.448 154.696ZM171.166 150.379C171.105 150.789 171.388 151.171 171.798 151.232C172.207 151.293 172.589 151.01 172.65 150.6L171.166 150.379ZM172.55 146.259C172.468 145.853 172.073 145.59 171.667 145.672C171.261 145.754 170.998 146.15 171.08 146.556L172.55 146.259ZM169.604 143.088C169.844 143.425 170.312 143.505 170.65 143.266C170.988 143.026 171.067 142.558 170.828 142.22L169.604 143.088ZM167.604 139.253C167.25 139.038 166.789 139.151 166.574 139.506C166.359 139.86 166.473 140.321 166.827 140.536L167.604 139.253ZM163.246 139.133C163.65 139.222 164.051 138.966 164.14 138.562C164.229 138.157 163.974 137.757 163.569 137.668L163.246 139.133ZM159.288 137.315C158.874 137.334 158.554 137.685 158.572 138.098C158.591 138.512 158.942 138.832 159.356 138.813L159.288 137.315ZM155.484 139.451C155.882 139.338 156.113 138.922 155.999 138.524C155.885 138.126 155.47 137.895 155.072 138.009L155.484 139.451ZM151.125 139.64C150.763 139.841 150.631 140.297 150.832 140.66C151.033 141.022 151.489 141.153 151.851 140.953L151.125 139.64ZM148.659 143.237C148.965 142.959 148.988 142.484 148.709 142.178C148.431 141.871 147.957 141.849 147.65 142.127L148.659 143.237ZM144.847 145.353C144.614 145.695 144.702 146.162 145.044 146.395C145.387 146.628 145.853 146.54 146.086 146.198L144.847 145.353ZM144.258 149.673C144.409 149.287 144.219 148.852 143.833 148.701C143.448 148.55 143.013 148.74 142.861 149.125L144.258 149.673ZM141.723 153.218C141.651 153.626 141.924 154.015 142.332 154.087C142.739 154.158 143.128 153.886 143.2 153.478L141.723 153.218ZM142.854 157.449C142.857 157.034 142.523 156.697 142.108 156.695C141.694 156.692 141.357 157.026 141.354 157.44L142.854 157.449ZM141.627 161.624C141.681 162.035 142.058 162.324 142.469 162.27C142.879 162.216 143.168 161.839 143.114 161.428L141.627 161.624ZM143.865 165.371C143.766 164.969 143.36 164.723 142.958 164.823C142.556 164.922 142.31 165.328 142.409 165.73L143.865 165.371ZM143.595 169.734C143.73 170.126 144.157 170.334 144.549 170.199C144.94 170.064 145.149 169.637 145.014 169.246L143.595 169.734ZM146.479 173.023C146.315 172.643 145.874 172.467 145.493 172.63C145.113 172.794 144.937 173.235 145.1 173.615L146.479 173.023ZM146.858 177.372C147.045 177.742 147.496 177.89 147.866 177.704C148.235 177.517 148.384 177.066 148.197 176.696L146.858 177.372ZM150.123 180.269C149.918 179.91 149.459 179.785 149.1 179.991C148.74 180.197 148.616 180.655 148.822 181.014L150.123 180.269ZM150.978 184.541C151.209 184.886 151.674 184.978 152.019 184.748C152.363 184.517 152.455 184.052 152.225 183.707L150.978 184.541ZM154.514 186.812C154.253 186.49 153.781 186.441 153.459 186.701C153.138 186.962 153.088 187.435 153.349 187.756L154.514 186.812ZM156.005 190.743C156.294 191.04 156.769 191.046 157.066 190.757C157.363 190.468 157.369 189.993 157.08 189.696L156.005 190.743ZM159.9 192.343C159.585 192.073 159.112 192.109 158.842 192.423C158.572 192.738 158.608 193.211 158.923 193.481L159.9 192.343ZM162.064 195.95C162.4 196.192 162.868 196.115 163.11 195.779C163.352 195.442 163.276 194.974 162.939 194.732L162.064 195.95ZM166.171 196.858C165.816 196.645 165.355 196.76 165.142 197.115C164.929 197.47 165.043 197.931 165.398 198.144L166.171 196.858ZM168.898 200.064C169.268 200.249 169.719 200.098 169.904 199.728C170.089 199.357 169.938 198.907 169.568 198.722L168.898 200.064ZM173.102 200.324C172.718 200.167 172.28 200.35 172.123 200.733C171.966 201.116 172.15 201.555 172.533 201.712L173.102 200.324ZM176.271 203.091C176.664 203.221 177.088 203.007 177.218 202.614C177.348 202.221 177.134 201.797 176.741 201.667L176.271 203.091ZM180.463 202.759C180.062 202.656 179.653 202.897 179.55 203.298C179.446 203.699 179.687 204.108 180.089 204.212L180.463 202.759ZM183.971 205.083C184.378 205.161 184.771 204.895 184.849 204.488C184.927 204.081 184.661 203.688 184.254 203.61L183.971 205.083ZM188.095 204.227C187.685 204.174 187.308 204.463 187.255 204.874C187.201 205.285 187.491 205.661 187.902 205.714L188.095 204.227ZM191.863 206.113C192.276 206.143 192.635 205.832 192.665 205.419C192.694 205.006 192.383 204.647 191.97 204.617L191.863 206.113ZM195.853 204.787C195.439 204.78 195.098 205.111 195.091 205.525C195.084 205.939 195.415 206.28 195.829 206.287L195.853 204.787ZM199.801 206.243C200.215 206.227 200.538 205.879 200.522 205.465C200.507 205.051 200.158 204.728 199.744 204.744L199.801 206.243ZM203.632 204.493C203.219 204.531 202.915 204.896 202.953 205.308C202.99 205.721 203.355 206.025 203.768 205.987L203.632 204.493ZM207.716 205.524C208.126 205.465 208.411 205.085 208.352 204.675C208.293 204.265 207.913 203.98 207.503 204.039L207.716 205.524ZM211.339 203.387C210.933 203.467 210.668 203.861 210.748 204.267C210.828 204.674 211.222 204.938 211.629 204.859L211.339 203.387ZM215.505 203.993C215.907 203.892 216.151 203.485 216.05 203.083C215.949 202.681 215.542 202.437 215.14 202.538L215.505 203.993ZM218.894 201.494C218.498 201.615 218.275 202.035 218.396 202.431C218.517 202.827 218.936 203.05 219.332 202.929L218.894 201.494ZM223.1 201.668C223.489 201.527 223.69 201.097 223.548 200.707C223.407 200.318 222.977 200.117 222.587 200.259L223.1 201.668ZM226.21 198.833C225.829 198.994 225.651 199.435 225.813 199.816C225.974 200.197 226.415 200.375 226.796 200.213L226.21 198.833ZM230.411 198.563C230.783 198.381 230.937 197.932 230.755 197.56C230.573 197.188 230.123 197.034 229.751 197.216L230.411 198.563ZM233.199 195.41C232.838 195.613 232.709 196.07 232.911 196.431C233.113 196.793 233.57 196.922 233.931 196.719L233.199 195.41ZM237.345 194.682C237.694 194.46 237.798 193.996 237.575 193.647C237.353 193.297 236.89 193.194 236.54 193.416L237.345 194.682ZM239.761 191.236C239.424 191.478 239.348 191.947 239.59 192.283C239.833 192.619 240.301 192.695 240.637 192.453L239.761 191.236ZM243.794 190.033C244.115 189.771 244.163 189.299 243.901 188.978C243.639 188.657 243.167 188.609 242.846 188.871L243.794 190.033ZM245.782 186.323C245.477 186.604 245.458 187.079 245.739 187.383C246.02 187.687 246.495 187.706 246.799 187.425L245.782 186.323ZM249.637 184.634C249.923 184.335 249.912 183.86 249.612 183.574C249.312 183.288 248.838 183.299 248.552 183.599L249.637 184.634ZM251.139 180.706C250.873 181.023 250.915 181.496 251.233 181.762C251.55 182.028 252.023 181.986 252.289 181.669L251.139 180.706ZM254.743 178.533C254.987 178.198 254.914 177.729 254.579 177.485C254.245 177.241 253.776 177.314 253.531 177.648L254.743 178.533ZM255.717 174.433C255.496 174.783 255.6 175.247 255.951 175.468C256.301 175.689 256.764 175.584 256.985 175.234L255.717 174.433ZM258.993 171.801C259.189 171.437 259.053 170.982 258.689 170.785C258.324 170.588 257.869 170.724 257.673 171.089L258.993 171.801ZM259.397 167.617C259.225 167.994 259.392 168.439 259.769 168.61C260.146 168.782 260.591 168.615 260.762 168.238L259.397 167.617ZM262.289 164.552C262.434 164.164 262.238 163.732 261.85 163.586C261.462 163.441 261.03 163.637 260.884 164.025L262.289 164.552ZM262.123 160.348C262.004 160.745 262.229 161.163 262.626 161.282C263.023 161.401 263.441 161.176 263.56 160.779L262.123 160.348ZM264.576 156.942C264.668 156.539 264.417 156.136 264.013 156.043C263.609 155.95 263.207 156.202 263.114 156.606L264.576 156.942ZM263.865 152.784C263.798 153.192 264.075 153.578 264.484 153.645C264.893 153.712 265.278 153.435 265.345 153.026L263.865 152.784ZM265.866 149.087C265.907 148.675 265.607 148.307 265.195 148.265C264.783 148.223 264.415 148.523 264.373 148.936L265.866 149.087ZM264.65 145.071C264.632 145.485 264.953 145.834 265.367 145.852C265.781 145.869 266.131 145.548 266.148 145.134L264.65 145.071ZM266.204 141.126C266.199 140.712 265.858 140.381 265.444 140.387C265.03 140.392 264.699 140.733 264.704 141.147L266.204 141.126ZM264.549 137.295C264.576 137.709 264.934 138.021 265.347 137.994C265.76 137.966 266.073 137.609 266.045 137.196L264.549 137.295ZM265.681 133.228C265.633 132.816 265.26 132.522 264.849 132.57C264.437 132.618 264.143 132.991 264.191 133.402L265.681 133.228ZM263.648 129.554C263.715 129.963 264.101 130.24 264.51 130.172C264.919 130.105 265.196 129.719 265.128 129.31L263.648 129.554ZM67.0773 165.545C67.6283 165.976 68.1804 166.397 68.7337 166.809L69.6297 165.606C69.0857 165.201 68.5427 164.787 68.0008 164.363L67.0773 165.545ZM72.0812 169.183C73.2357 169.962 74.3941 170.702 75.5555 171.406L76.3326 170.123C75.1921 169.432 74.0542 168.705 72.9199 167.94L72.0812 169.183ZM79.1404 173.456C80.3643 174.116 81.5905 174.736 82.8181 175.317L83.4605 173.962C82.2563 173.391 81.0531 172.783 79.8519 172.136L79.1404 173.456ZM86.5843 176.982C87.8671 177.509 89.1501 177.996 90.4323 178.444L90.9269 177.027C89.67 176.588 88.4121 176.111 87.1542 175.595L86.5843 176.982ZM94.3647 179.698C95.6998 180.084 97.0326 180.43 98.3618 180.736L98.6987 179.274C97.3961 178.974 96.09 178.636 94.7814 178.257L94.3647 179.698ZM102.407 181.552C103.774 181.788 105.136 181.985 106.49 182.143L106.664 180.654C105.337 180.498 104.003 180.306 102.663 180.074L102.407 181.552ZM110.598 182.51C111.982 182.595 113.356 182.642 114.72 182.652L114.731 181.152C113.394 181.142 112.047 181.096 110.691 181.013L110.598 182.51ZM118.843 182.57C120.227 182.505 121.599 182.403 122.955 182.266L122.805 180.774C121.475 180.908 120.13 181.008 118.773 181.071L118.843 182.57ZM127.046 181.745C128.416 181.533 129.77 181.286 131.103 181.007L130.796 179.539C129.488 179.812 128.161 180.054 126.817 180.262L127.046 181.745ZM135.116 180.056C136.459 179.7 137.78 179.312 139.074 178.894L138.613 177.467C137.344 177.876 136.049 178.257 134.732 178.606L135.116 180.056ZM142.966 177.523C144.268 177.024 145.539 176.495 146.778 175.941L146.165 174.572C144.952 175.115 143.706 175.633 142.429 176.122L142.966 177.523ZM150.497 174.148C151.742 173.503 152.945 172.832 154.106 172.139L153.337 170.852C152.203 171.529 151.025 172.185 149.807 172.816L150.497 174.148ZM157.581 169.91C158.743 169.109 159.85 168.286 160.897 167.446L159.959 166.276C158.941 167.092 157.863 167.894 156.73 168.675L157.581 169.91ZM164.035 164.715C165.075 163.727 166.034 162.724 166.906 161.713L165.769 160.734C164.933 161.705 164.009 162.671 163.003 163.627L164.035 164.715ZM169.437 158.381C170.246 157.153 170.921 155.92 171.448 154.696L170.07 154.103C169.582 155.237 168.951 156.392 168.185 157.556L169.437 158.381ZM172.65 150.6C172.759 149.87 172.806 149.148 172.789 148.436L171.289 148.473C171.304 149.093 171.263 149.729 171.166 150.379L172.65 150.6ZM172.789 148.436C172.77 147.676 172.689 146.95 172.55 146.259L171.08 146.556C171.201 147.157 171.273 147.796 171.289 148.473L172.789 148.436ZM170.828 142.22C169.968 141.006 168.866 140.017 167.604 139.253L166.827 140.536C167.928 141.202 168.872 142.055 169.604 143.088L170.828 142.22ZM163.569 137.668C162.2 137.366 160.755 137.248 159.288 137.315L159.356 138.813C160.7 138.752 162.013 138.861 163.246 139.133L163.569 137.668ZM155.072 138.009C153.724 138.395 152.394 138.937 151.125 139.64L151.851 140.953C153.019 140.306 154.243 139.806 155.484 139.451L155.072 138.009ZM147.65 142.127C146.62 143.064 145.674 144.139 144.847 145.353L146.086 146.198C146.846 145.083 147.714 144.097 148.659 143.237L147.65 142.127ZM142.861 149.125C142.366 150.389 141.98 151.753 141.723 153.218L143.2 153.478C143.44 152.109 143.8 150.841 144.258 149.673L142.861 149.125ZM141.354 157.44C141.347 158.77 141.435 160.164 141.627 161.624L143.114 161.428C142.93 160.033 142.847 158.706 142.854 157.449L141.354 157.44ZM142.409 165.73C142.727 167.021 143.121 168.355 143.595 169.734L145.014 169.246C144.553 167.907 144.172 166.616 143.865 165.371L142.409 165.73ZM145.1 173.615C145.625 174.836 146.21 176.088 146.858 177.372L148.197 176.696C147.562 175.439 146.99 174.214 146.479 173.023L145.1 173.615ZM148.822 181.014C149.167 181.617 149.525 182.227 149.897 182.842L151.181 182.066C150.815 181.461 150.462 180.862 150.123 180.269L148.822 181.014ZM149.897 182.842C150.246 183.42 150.607 183.986 150.978 184.541L152.225 183.707C151.866 183.171 151.518 182.624 151.181 182.066L149.897 182.842ZM153.349 187.756C154.193 188.797 155.079 189.792 156.005 190.743L157.08 189.696C156.185 188.778 155.329 187.816 154.514 186.812L153.349 187.756ZM158.923 193.481C159.934 194.349 160.982 195.172 162.064 195.95L162.939 194.732C161.892 193.978 160.877 193.182 159.9 192.343L158.923 193.481ZM165.398 198.144C166.536 198.828 167.703 199.467 168.898 200.064L169.568 198.722C168.407 198.142 167.274 197.521 166.171 196.858L165.398 198.144ZM172.533 201.712C173.757 202.213 175.004 202.673 176.271 203.091L176.741 201.667C175.506 201.259 174.292 200.812 173.102 200.324L172.533 201.712ZM180.089 204.212C181.367 204.542 182.662 204.832 183.971 205.083L184.254 203.61C182.975 203.365 181.711 203.081 180.463 202.759L180.089 204.212ZM187.902 205.714C189.212 205.885 190.533 206.018 191.863 206.113L191.97 204.617C190.669 204.524 189.377 204.394 188.095 204.227L187.902 205.714ZM195.829 206.287C197.148 206.308 198.473 206.293 199.801 206.243L199.744 204.744C198.443 204.793 197.145 204.808 195.853 204.787L195.829 206.287ZM203.768 205.987C205.084 205.867 206.401 205.713 207.716 205.524L207.503 204.039C206.213 204.224 204.922 204.376 203.632 204.493L203.768 205.987ZM211.629 204.859C212.926 204.604 214.218 204.315 215.505 203.993L215.14 202.538C213.879 202.854 212.611 203.137 211.339 203.387L211.629 204.859ZM219.332 202.929C220.598 202.542 221.854 202.121 223.1 201.668L222.587 200.259C221.366 200.703 220.134 201.115 218.894 201.494L219.332 202.929ZM226.796 200.213C228.015 199.696 229.221 199.146 230.411 198.563L229.751 197.216C228.586 197.787 227.404 198.325 226.21 198.833L226.796 200.213ZM233.931 196.719C235.088 196.073 236.226 195.393 237.345 194.682L236.54 193.416C235.446 194.112 234.331 194.777 233.199 195.41L233.931 196.719ZM240.637 192.453C241.713 191.678 242.766 190.871 243.794 190.033L242.846 188.871C241.841 189.69 240.812 190.478 239.761 191.236L240.637 192.453ZM246.799 187.425C247.773 186.526 248.72 185.596 249.637 184.634L248.552 183.599C247.656 184.537 246.732 185.445 245.782 186.323L246.799 187.425ZM252.289 181.669C253.139 180.654 253.957 179.608 254.743 178.533L253.531 177.648C252.766 178.697 251.968 179.716 251.139 180.706L252.289 181.669ZM256.985 175.234C257.689 174.119 258.359 172.974 258.993 171.801L257.673 171.089C257.056 172.231 256.403 173.346 255.717 174.433L256.985 175.234ZM260.762 168.238C261.309 167.036 261.818 165.808 262.289 164.552L260.884 164.025C260.426 165.249 259.929 166.446 259.397 167.617L260.762 168.238ZM263.56 160.779C263.937 159.525 264.276 158.246 264.576 156.942L263.114 156.606C262.821 157.878 262.491 159.125 262.123 160.348L263.56 160.779ZM265.345 153.026C265.556 151.735 265.73 150.422 265.866 149.087L264.373 148.936C264.241 150.24 264.071 151.523 263.865 152.784L265.345 153.026ZM266.148 145.134C266.204 143.818 266.223 142.482 266.204 141.126L264.704 141.147C264.723 142.475 264.704 143.783 264.65 145.071L266.148 145.134ZM266.045 137.196C265.959 135.89 265.837 134.568 265.681 133.228L264.191 133.402C264.345 134.717 264.464 136.015 264.549 137.295L266.045 137.196ZM265.128 129.31C265.019 128.65 264.902 127.985 264.776 127.316L263.302 127.594C263.426 128.251 263.541 128.905 263.648 129.554L265.128 129.31Z"
            fill="white" />
    </g>
    <defs>
        <filter id="filter0_dd_2064_49071" x="45.081" y="104.997" width="246.99" height="123.008"
            filterUnits="userSpaceOnUse" color-interpolation-filters="sRGB">
            <feFlood flood-opacity="0" result="BackgroundImageFix" />
            <feColorMatrix in="SourceAlpha" type="matrix" values="0 0 0 0 0 0 0 0 0 0 0 0 0 0 0 0 0 0 127 0"
                result="hardAlpha" />
            <feOffset />
            <feGaussianBlur stdDeviation="10.854" />
            <feComposite in2="hardAlpha" operator="out" />
            <feColorMatrix type="matrix" values="0 0 0 0 1 0 0 0 0 1 0 0 0 0 1 0 0 0 1 0" />
            <feBlend mode="normal" in2="BackgroundImageFix" result="effect1_dropShadow_2064_49071" />
            <feColorMatrix in="SourceAlpha" type="matrix" values="0 0 0 0 0 0 0 0 0 0 0 0 0 0 0 0 0 0 127 0"
                result="hardAlpha" />
            <feOffset />
            <feGaussianBlur stdDeviation="1.80901" />
            <feComposite in2="hardAlpha" operator="out" />
            <feColorMatrix type="matrix" values="0 0 0 0 1 0 0 0 0 1 0 0 0 0 1 0 0 0 1 0" />
            <feBlend mode="normal" in2="effect1_dropShadow_2064_49071" result="effect2_dropShadow_2064_49071" />
            <feBlend mode="normal" in="SourceGraphic" in2="effect2_dropShadow_2064_49071" result="shape" />
        </filter>
    </defs>
</svg>