<svg width="140" height="140" viewBox="0 0 140 140" fill="none" xmlns="http://www.w3.org/2000/svg">
    <g clip-path="url(#clip0_2071_49076)">
        <g filter="url(#filter0_dd_2071_49076)">
            <path
                d="M14.7355 84.3426C14.4652 84.2861 14.2003 84.4595 14.1439 84.7298C14.0874 85.0001 14.2608 85.265 14.5311 85.3215L14.7355 84.3426ZM76.6333 67.332L77.0908 67.1302L76.6333 67.332ZM59.8431 99.7671L60.1866 99.4037L60.1866 99.4037L59.8431 99.7671ZM113.235 28.8426C112.965 28.7862 112.7 28.9596 112.644 29.2299L111.725 33.6352C111.669 33.9055 111.842 34.1703 112.112 34.2267C112.383 34.2831 112.648 34.1097 112.704 33.8393L113.521 29.9236L117.436 30.7402C117.707 30.7966 117.972 30.6232 118.028 30.3528C118.084 30.0825 117.911 29.8177 117.641 29.7613L113.235 28.8426ZM16.432 85.7097C16.7028 85.7637 16.9662 85.588 17.0202 85.3172C17.0743 85.0464 16.8985 84.7831 16.6277 84.729L16.432 85.7097ZM20.3843 85.4434C20.1126 85.3943 19.8525 85.5748 19.8034 85.8466C19.7544 86.1183 19.9349 86.3784 20.2066 86.4275L20.3843 85.4434ZM23.9946 87.0732C24.2673 87.1169 24.5237 86.9313 24.5674 86.6586C24.6111 86.386 24.4255 86.1295 24.1528 86.0858L23.9946 87.0732ZM27.9335 86.6509C27.66 86.613 27.4076 86.8041 27.3697 87.0776C27.3318 87.3511 27.5229 87.6036 27.7964 87.6414L27.9335 86.6509ZM31.6121 88.1252C31.8865 88.1568 32.1344 87.9599 32.1659 87.6856C32.1974 87.4112 32.0006 87.1633 31.7262 87.1318L31.6121 88.1252ZM35.5297 87.5205C35.2547 87.496 35.0118 87.6991 34.9873 87.9741C34.9627 88.2492 35.1658 88.492 35.4409 88.5166L35.5297 87.5205ZM39.2807 88.8056C39.5563 88.8224 39.7934 88.6125 39.8101 88.3369C39.8269 88.0613 39.6171 87.8242 39.3415 87.8074L39.2807 88.8056ZM43.1571 87.9807C42.8811 87.9726 42.6507 88.1898 42.6426 88.4659C42.6345 88.7419 42.8517 88.9722 43.1277 88.9803L43.1571 87.9807ZM46.9758 89.0262C47.252 89.0245 47.4744 88.7992 47.4727 88.5231C47.4709 88.2469 47.2457 88.0245 46.9695 88.0262L46.9758 89.0262ZM50.7686 87.9265C50.4928 87.9395 50.2798 88.1737 50.2928 88.4495C50.3058 88.7254 50.54 88.9384 50.8158 88.9254L50.7686 87.9265ZM54.6806 88.6513C54.9555 88.6249 55.1569 88.3807 55.1306 88.1058C55.1042 87.8309 54.8599 87.6295 54.585 87.6559L54.6806 88.6513ZM58.3548 87.1867C58.0819 87.229 57.895 87.4846 57.9373 87.7574C57.9797 88.0303 58.2352 88.2172 58.5081 88.1749L58.3548 87.1867ZM62.3157 87.4479C62.5848 87.3859 62.7527 87.1176 62.6908 86.8485C62.6288 86.5794 62.3605 86.4114 62.0914 86.4734L62.3157 87.4479ZM65.7329 85.4628C65.4707 85.5495 65.3285 85.8324 65.4152 86.0945C65.5019 86.3567 65.7847 86.4989 66.0469 86.4122L65.7329 85.4628ZM69.6629 84.9713C69.912 84.8523 70.0175 84.5538 69.8985 84.3046C69.7795 84.0554 69.481 83.9499 69.2318 84.069L69.6629 84.9713ZM72.4636 82.1758C72.2398 82.3375 72.1894 82.6501 72.3511 82.8739C72.5128 83.0977 72.8254 83.1481 73.0492 82.9864L72.4636 82.1758ZM75.9441 80.2968C76.1185 80.0827 76.0864 79.7678 75.8723 79.5933C75.6582 79.4189 75.3432 79.4511 75.1688 79.6652L75.9441 80.2968ZM76.9588 76.4974C76.8685 76.7584 77.0069 77.0431 77.2679 77.1334C77.5288 77.2237 77.8136 77.0853 77.9039 76.8244L76.9588 76.4974ZM78.4932 72.8787C78.4852 72.6027 78.255 72.3854 77.979 72.3933C77.7029 72.4013 77.4856 72.6315 77.4936 72.9075L78.4932 72.8787ZM76.8421 69.2811C76.9263 69.5441 77.2077 69.6891 77.4707 69.605C77.7337 69.5208 77.8787 69.2394 77.7946 68.9764L76.8421 69.2811ZM75.9968 65.2378C75.8312 65.0167 75.5179 64.9717 75.2968 65.1372C75.0758 65.3027 75.0308 65.6161 75.1963 65.8371L75.9968 65.2378ZM72.181 63.5672C72.4403 63.6621 72.7275 63.5287 72.8223 63.2694C72.9172 63.0101 72.7839 62.7229 72.5246 62.6281L72.181 63.5672ZM68.2257 62.2075C67.9516 62.2412 67.7567 62.4907 67.7904 62.7647C67.8241 63.0388 68.0735 63.2337 68.3476 63.2001L68.2257 62.2075ZM64.5424 64.3034C64.7945 64.1907 64.9075 63.8949 64.7947 63.6428C64.682 63.3907 64.3863 63.2778 64.1342 63.3905L64.5424 64.3034ZM60.4863 65.5363C60.2639 65.7 60.2164 66.013 60.3801 66.2354C60.5438 66.4578 60.8568 66.5053 61.0792 66.3416L60.4863 65.5363ZM58.0706 69.0174C58.2597 68.8161 58.2498 68.4997 58.0486 68.3106C57.8473 68.1215 57.5309 68.1314 57.3418 68.3326L58.0706 69.0174ZM54.7401 71.6427C54.5894 71.874 54.6547 72.1838 54.8861 72.3346C55.1174 72.4853 55.4272 72.42 55.5779 72.1886L54.7401 71.6427ZM53.6976 75.7513C53.8029 75.4961 53.6813 75.2038 53.4261 75.0984C53.1708 74.9931 52.8785 75.1147 52.7732 75.37L53.6976 75.7513ZM51.5607 79.4126C51.5089 79.6839 51.6869 79.9457 51.9581 79.9975C52.2293 80.0493 52.4912 79.8714 52.543 79.6001L51.5607 79.4126ZM52.2179 83.5947C52.2102 83.3186 51.9803 83.1011 51.7042 83.1087C51.4282 83.1164 51.2106 83.3464 51.2183 83.6224L52.2179 83.5947ZM51.7943 87.8069C51.8612 88.0748 52.1326 88.2378 52.4005 88.171C52.6684 88.1042 52.8314 87.8328 52.7646 87.5648L51.7943 87.8069ZM54.1305 91.3492C54.0118 91.0998 53.7135 90.9939 53.4642 91.1125C53.2148 91.2311 53.1088 91.5294 53.2274 91.7788L54.1305 91.3492ZM55.354 95.3951C55.5132 95.6208 55.8251 95.6748 56.0508 95.5157C56.2765 95.3566 56.3305 95.0446 56.1714 94.8189L55.354 95.3951ZM58.7359 97.9495C58.547 97.7482 58.2305 97.7381 58.0292 97.9271C57.8278 98.116 57.8177 98.4324 58.0067 98.6338L58.7359 97.9495ZM60.9998 101.489C61.2084 101.67 61.5242 101.647 61.7051 101.439C61.886 101.23 61.8635 100.914 61.6548 100.733L60.9998 101.489ZM64.7117 103.154C64.4876 102.993 64.1751 103.044 64.0137 103.268C63.8523 103.492 63.9031 103.804 64.1272 103.966L64.7117 103.154ZM67.4757 106.142C67.7144 106.281 68.0205 106.2 68.1594 105.961C68.2984 105.723 68.2175 105.417 67.9789 105.278L67.4757 106.142ZM71.4404 107.062C71.1887 106.949 70.8926 107.061 70.779 107.313C70.6655 107.564 70.7775 107.86 71.0292 107.974L71.4404 107.062ZM74.7597 109.42C75.0222 109.506 75.3044 109.363 75.39 109.1C75.4757 108.837 75.3322 108.555 75.0697 108.47L74.7597 109.42ZM78.8304 109.467C78.5599 109.412 78.2955 109.586 78.2398 109.856C78.1842 110.127 78.3583 110.391 78.6287 110.447L78.8304 109.467ZM82.5898 111.03C82.8648 111.054 83.1077 110.851 83.1322 110.576C83.1568 110.301 82.9537 110.058 82.6786 110.034L82.5898 111.03ZM86.5662 110.157C86.2902 110.164 86.0721 110.394 86.079 110.67C86.086 110.946 86.3154 111.164 86.5915 111.157L86.5662 110.157ZM90.5815 110.83C90.855 110.792 91.0459 110.539 91.0079 110.266C90.9699 109.992 90.7173 109.801 90.4438 109.839L90.5815 110.83ZM94.2636 109.09C93.996 109.158 93.8341 109.43 93.9021 109.698C93.97 109.966 94.2421 110.128 94.5097 110.06L94.2636 109.09ZM98.3303 108.867C98.5892 108.77 98.7209 108.482 98.6246 108.224C98.5283 107.965 98.2404 107.833 97.9816 107.929L98.3303 108.867ZM101.558 106.38C101.311 106.503 101.21 106.803 101.332 107.05C101.455 107.298 101.755 107.399 102.003 107.276L101.558 106.38ZM105.489 105.319C105.723 105.171 105.793 104.863 105.646 104.629C105.499 104.395 105.19 104.325 104.956 104.472L105.489 105.319ZM108.149 102.234C107.931 102.404 107.891 102.718 108.06 102.936C108.23 103.154 108.544 103.193 108.762 103.024L108.149 102.234ZM111.796 100.423C111.997 100.234 112.006 99.9174 111.816 99.7165C111.627 99.5157 111.311 99.5065 111.11 99.6961L111.796 100.423ZM113.818 96.8879C113.636 97.0954 113.656 97.4113 113.864 97.5935C114.071 97.7757 114.387 97.7552 114.569 97.5476L113.818 96.8879ZM117.063 94.4278C117.226 94.2044 117.176 93.8917 116.953 93.7293C116.73 93.567 116.417 93.6164 116.255 93.8398L117.063 94.4278ZM118.404 90.5819C118.263 90.819 118.34 91.126 118.577 91.2676C118.814 91.4091 119.121 91.3317 119.263 91.0946L118.404 90.5819ZM121.155 87.579C121.276 87.3303 121.171 87.0314 120.923 86.9114C120.674 86.7914 120.375 86.8957 120.255 87.1443L121.155 87.579ZM121.797 83.5569C121.699 83.8151 121.829 84.1038 122.087 84.2018C122.346 84.2998 122.634 84.17 122.732 83.9118L121.797 83.5569ZM123.988 80.1234C124.064 79.8578 123.91 79.5812 123.644 79.5055C123.379 79.4298 123.102 79.5837 123.026 79.8493L123.988 80.1234ZM123.94 76.0499C123.886 76.3208 124.063 76.5838 124.334 76.6372C124.605 76.6906 124.868 76.5143 124.921 76.2434L123.94 76.0499ZM125.534 72.2999C125.565 72.0255 125.368 71.7776 125.094 71.7462C124.82 71.7148 124.572 71.9117 124.54 72.1861L125.534 72.2999ZM124.833 68.2827C124.823 68.5587 125.039 68.7905 125.314 68.8004C125.59 68.8104 125.822 68.5948 125.832 68.3188L124.833 68.2827ZM125.825 64.3249C125.815 64.049 125.582 63.834 125.306 63.8448C125.03 63.8555 124.815 64.0879 124.826 64.3639L125.825 64.3249ZM124.534 60.4719C124.564 60.7464 124.812 60.9442 125.086 60.9138C125.36 60.8834 125.558 60.6362 125.528 60.3618L124.534 60.4719ZM124.955 56.4295C124.906 56.1578 124.646 55.9772 124.374 56.0262C124.102 56.0752 123.922 56.3353 123.971 56.607L124.955 56.4295ZM123.151 52.781C123.218 53.0491 123.489 53.2125 123.757 53.146C124.025 53.0796 124.188 52.8084 124.122 52.5404L123.151 52.781ZM123.043 48.702C122.96 48.4385 122.68 48.292 122.416 48.3747C122.153 48.4574 122.006 48.7381 122.089 49.0015L123.043 48.702ZM120.801 45.2811C120.898 45.5393 121.187 45.6694 121.445 45.5716C121.704 45.4739 121.834 45.1852 121.736 44.927L120.801 45.2811ZM120.237 41.2711C120.125 41.0185 119.83 40.9041 119.578 41.0156C119.325 41.1271 119.211 41.4223 119.322 41.6749L120.237 41.2711ZM117.648 38.1302C117.772 38.3769 118.073 38.4762 118.319 38.3521C118.566 38.2279 118.665 37.9273 118.541 37.6806L117.648 38.1302ZM116.656 34.1498C116.52 33.9094 116.215 33.8245 115.975 33.9603C115.734 34.0961 115.649 34.4011 115.785 34.6416L116.656 34.1498ZM113.793 31.2912C113.939 31.5254 114.248 31.5967 114.482 31.4504C114.716 31.3041 114.787 30.9957 114.641 30.7615L113.793 31.2912ZM14.5311 85.3215C15.169 85.4547 15.8026 85.5841 16.432 85.7097L16.6277 84.729C16.0013 84.604 15.3705 84.4752 14.7355 84.3426L14.5311 85.3215ZM20.2066 86.4275C21.4883 86.6588 22.751 86.874 23.9946 87.0732L24.1528 86.0858C22.9158 85.8877 21.6596 85.6736 20.3843 85.4434L20.2066 86.4275ZM27.7964 87.6414C29.0908 87.8206 30.3628 87.9817 31.6121 88.1252L31.7262 87.1318C30.4848 86.9892 29.2204 86.829 27.9335 86.6509L27.7964 87.6414ZM35.4409 88.5166C36.7481 88.6332 38.0281 88.7293 39.2807 88.8056L39.3415 87.8074C38.0986 87.7318 36.8279 87.6363 35.5297 87.5205L35.4409 88.5166ZM43.1277 88.9803C44.4445 89.019 45.7273 89.034 46.9758 89.0262L46.9695 88.0262C45.7334 88.034 44.4624 88.0191 43.1571 87.9807L43.1277 88.9803ZM50.8158 88.9254C52.1491 88.8623 53.4376 88.7707 54.6806 88.6513L54.585 87.6559C53.359 87.7736 52.0866 87.8642 50.7686 87.9265L50.8158 88.9254ZM58.5081 88.1749C59.84 87.9684 61.1097 87.7256 62.3157 87.4479L62.0914 86.4734C60.9105 86.7452 59.6647 86.9836 58.3548 87.1867L58.5081 88.1749ZM66.0469 86.4122C67.3491 85.9814 68.5554 85.5004 69.6629 84.9713L69.2318 84.069C68.1662 84.5781 66.9994 85.0438 65.7329 85.4628L66.0469 86.4122ZM73.0492 82.9864C74.185 82.166 75.1529 81.268 75.9441 80.2968L75.1688 79.6652C74.4392 80.5607 73.5375 81.4001 72.4636 82.1758L73.0492 82.9864ZM77.9039 76.8244C78.3352 75.5777 78.5329 74.2585 78.4932 72.8787L77.4936 72.9075C77.53 74.1716 77.3489 75.3698 76.9588 76.4974L77.9039 76.8244ZM77.7946 68.9764C77.6003 68.3689 77.3657 67.7533 77.0908 67.1302L76.1758 67.5339C76.4374 68.1267 76.6592 68.7093 76.8421 69.2811L77.7946 68.9764ZM77.0908 67.1302C76.7786 66.4226 76.412 65.7924 75.9968 65.2378L75.1963 65.8371C75.5627 66.3265 75.8919 66.8902 76.1758 67.5339L77.0908 67.1302ZM72.5246 62.6281C71.1959 62.142 69.7329 62.0224 68.2257 62.2075L68.3476 63.2001C69.727 63.0307 71.0267 63.1449 72.181 63.5672L72.5246 62.6281ZM64.1342 63.3905C62.8953 63.9445 61.6657 64.668 60.4863 65.5363L61.0792 66.3416C62.2057 65.5123 63.3738 64.826 64.5424 64.3034L64.1342 63.3905ZM57.3418 68.3326C56.3953 69.3401 55.5179 70.4489 54.7401 71.6427L55.5779 72.1886C56.3228 71.0455 57.1634 69.9829 58.0706 69.0174L57.3418 68.3326ZM52.7732 75.37C52.2416 76.6584 51.8283 78.0108 51.5607 79.4126L52.543 79.6001C52.7972 78.2683 53.1904 76.9806 53.6976 75.7513L52.7732 75.37ZM51.2183 83.6224C51.2563 84.993 51.4414 86.3919 51.7943 87.8069L52.7646 87.5648C52.4294 86.2208 52.2539 84.8938 52.2179 83.5947L51.2183 83.6224ZM53.2274 91.7788C53.8009 92.9844 54.5059 94.1921 55.354 95.3951L56.1714 94.8189C55.3546 93.6604 54.6786 92.5015 54.1305 91.3492L53.2274 91.7788ZM58.0067 98.6338C58.4768 99.1348 58.9742 99.6339 59.4997 100.131L60.1866 99.4037C59.6752 98.9205 59.192 98.4355 58.7359 97.9495L58.0067 98.6338ZM59.4997 100.131C59.9956 100.599 60.4957 101.052 60.9998 101.489L61.6548 100.733C61.1617 100.306 60.6721 99.8626 60.1866 99.4037L59.4997 100.131ZM64.1272 103.966C65.2296 104.76 66.3468 105.485 67.4757 106.142L67.9789 105.278C66.8783 104.637 65.7882 103.93 64.7117 103.154L64.1272 103.966ZM71.0292 107.974C72.2643 108.531 73.509 109.013 74.7597 109.42L75.0697 108.47C73.8537 108.073 72.6427 107.605 71.4404 107.062L71.0292 107.974ZM78.6287 110.447C79.9487 110.719 81.2705 110.912 82.5898 111.03L82.6786 110.034C81.3971 109.919 80.1129 109.732 78.8304 109.467L78.6287 110.447ZM86.5915 111.157C87.9307 111.123 89.2622 111.013 90.5815 110.83L90.4438 109.839C89.1614 110.018 87.8674 110.125 86.5662 110.157L86.5915 111.157ZM94.5097 110.06C95.8021 109.732 97.0772 109.333 98.3303 108.867L97.9816 107.929C96.7616 108.383 95.5207 108.771 94.2636 109.09L94.5097 110.06ZM102.003 107.276C103.192 106.686 104.356 106.032 105.489 105.319L104.956 104.472C103.851 105.168 102.717 105.805 101.558 106.38L102.003 107.276ZM108.762 103.024C109.808 102.211 110.821 101.343 111.796 100.423L111.11 99.6961C110.158 100.594 109.169 101.441 108.149 102.234L108.762 103.024ZM114.569 97.5476C115.442 96.554 116.274 95.5132 117.063 94.4278L116.255 93.8398C115.484 94.9005 114.67 95.9173 113.818 96.8879L114.569 97.5476ZM119.263 91.0946C119.939 89.9615 120.572 88.7889 121.155 87.579L120.255 87.1443C119.684 88.3276 119.066 89.4742 118.404 90.5819L119.263 91.0946ZM122.732 83.9118C123.2 82.6807 123.619 81.4173 123.988 80.1234L123.026 79.8493C122.665 81.1159 122.255 82.3524 121.797 83.5569L122.732 83.9118ZM124.921 76.2434C125.175 74.9541 125.38 73.6391 125.534 72.2999L124.54 72.1861C124.39 73.4986 124.189 74.7871 123.94 76.0499L124.921 76.2434ZM125.832 68.3188C125.88 67.0071 125.878 65.6754 125.825 64.3249L124.826 64.3639C124.878 65.6895 124.879 66.9962 124.833 68.2827L125.832 68.3188ZM125.528 60.3618C125.384 59.0657 125.194 57.7545 124.955 56.4295L123.971 56.607C124.206 57.9099 124.393 59.1986 124.534 60.4719L125.528 60.3618ZM124.122 52.5404C123.807 51.2718 123.448 49.9919 123.043 48.702L122.089 49.0015C122.488 50.2723 122.842 51.5324 123.151 52.781L124.122 52.5404ZM121.736 44.927C121.277 43.716 120.778 42.4971 120.237 41.2711L119.322 41.6749C119.856 42.8847 120.348 44.0871 120.801 45.2811L121.736 44.927ZM118.541 37.6806C117.952 36.5092 117.323 35.332 116.656 34.1498L115.785 34.6416C116.445 35.8101 117.066 36.9732 117.648 38.1302L118.541 37.6806ZM114.641 30.7615C114.287 30.1947 113.924 29.6268 113.552 29.0581L112.715 29.606C113.084 30.1687 113.443 30.7305 113.793 31.2912L114.641 30.7615Z"
                fill="white" />
        </g>
    </g>
    <defs>
        <filter id="filter0_dd_2071_49076" x="-7.57477" y="7.12396" width="155.149" height="125.742"
            filterUnits="userSpaceOnUse" color-interpolation-filters="sRGB">
            <feFlood flood-opacity="0" result="BackgroundImageFix" />
            <feColorMatrix in="SourceAlpha" type="matrix" values="0 0 0 0 0 0 0 0 0 0 0 0 0 0 0 0 0 0 127 0"
                result="hardAlpha" />
            <feOffset />
            <feGaussianBlur stdDeviation="10.854" />
            <feComposite in2="hardAlpha" operator="out" />
            <feColorMatrix type="matrix" values="0 0 0 0 1 0 0 0 0 1 0 0 0 0 1 0 0 0 1 0" />
            <feBlend mode="normal" in2="BackgroundImageFix" result="effect1_dropShadow_2071_49076" />
            <feColorMatrix in="SourceAlpha" type="matrix" values="0 0 0 0 0 0 0 0 0 0 0 0 0 0 0 0 0 0 127 0"
                result="hardAlpha" />
            <feOffset />
            <feGaussianBlur stdDeviation="1.80901" />
            <feComposite in2="hardAlpha" operator="out" />
            <feColorMatrix type="matrix" values="0 0 0 0 1 0 0 0 0 1 0 0 0 0 1 0 0 0 1 0" />
            <feBlend mode="normal" in2="effect1_dropShadow_2071_49076" result="effect2_dropShadow_2071_49076" />
            <feBlend mode="normal" in="SourceGraphic" in2="effect2_dropShadow_2071_49076" result="shape" />
        </filter>
        <clipPath id="clip0_2071_49076">
            <rect width="140" height="140" fill="white" />
        </clipPath>
    </defs>
</svg>