<svg width="390" height="1268" viewBox="0 0 390 1268" fill="none" xmlns="http://www.w3.org/2000/svg">
    <g filter="url(#filter0_f_376_51389)">
        <path
            d="M379.333 922.144C367.152 1042.26 230.692 1014.53 134.957 1015.41C106.387 1008.12 34.4859 987.936 -24.5578 965.491C-98.3625 937.436 -100.786 860.47 22.7572 807.833C146.3 755.197 118.474 755.395 65.0407 610.408C11.6074 465.422 2.70296 398.06 39.5202 324.219C76.3374 250.379 130.086 269.085 184.685 252.634C239.284 236.184 438.544 332.92 487.513 433.809C536.481 534.697 416.885 506.292 339.277 600.363C261.67 694.435 391.514 802.031 379.333 922.144Z"
            fill="#5857FF" />
    </g>
    <defs>
        <filter id="filter0_f_376_51389" x="-325.874" y="0.796875" width="1074.81" height="1266.79"
            filterUnits="userSpaceOnUse" color-interpolation-filters="sRGB">
            <feFlood flood-opacity="0" result="BackgroundImageFix" />
            <feBlend mode="normal" in="SourceGraphic" in2="BackgroundImageFix" result="shape" />
            <feGaussianBlur stdDeviation="125" result="effect1_foregroundBlur_376_51389" />
        </filter>
    </defs>
</svg>