<svg width="318" height="93" viewBox="0 0 318 93" fill="none" xmlns="http://www.w3.org/2000/svg">
    <path
        d="M14.3461 86.0314L0.307302 14.5213C-0.292845 11.4643 2.01843 8.6087 5.13338 8.55869L216.666 5.16252C216.992 5.15729 217.316 5.12034 217.634 5.05217L236.623 0.983067C237.621 0.76926 238.66 0.865852 239.601 1.25987L258.689 9.2501C259.327 9.51691 260.012 9.64872 260.703 9.6372L312.423 8.7752C315.919 8.71694 318.394 12.1723 317.213 15.463L297.344 70.8432C296.631 72.8296 294.748 74.1547 292.637 74.1547H245.983C242.331 74.1547 239.911 77.9432 241.447 81.257L243.465 85.6118C245.195 89.3445 241.928 93.4525 237.901 92.6075L207.715 86.2721C207.343 86.1941 206.964 86.1587 206.584 86.1666L19.3566 90.0671C16.9278 90.1177 14.8141 88.4152 14.3461 86.0314Z"
        fill="#3322B8" />
</svg>