<svg width="263" height="68" viewBox="0 0 263 68" fill="none" xmlns="http://www.w3.org/2000/svg"
    preserveAspectRatio="none">
    <path
        d="M158.463 0.314387L112.784 6.63171H24.2522C22.1664 6.63171 20.2997 7.92657 19.569 9.88027L0.41872 61.0865C-0.83308 64.4337 1.72897 67.9755 5.29979 67.8341L149.284 62.1317L257.575 67.733C261.195 67.9202 263.805 64.3136 262.495 60.9335L245.021 15.8256C244.275 13.9005 242.423 12.6317 240.359 12.6317H230.77C229.8 12.6317 228.851 12.3496 228.039 11.8198L219.428 6.20387C218.371 5.5147 217.093 5.25047 215.85 5.46418L187.185 10.3909C186.269 10.5483 185.327 10.4474 184.466 10.0994L161.02 0.631037C160.21 0.303872 159.329 0.194696 158.463 0.314387Z"
        fill="#522AA1" />
</svg>