<svg width="1920" height="670" viewBox="0 0 1920 670" fill="none" xmlns="http://www.w3.org/2000/svg">
    <g style="mix-blend-mode:overlay">
        <path
            d="M38.0868 246.548C37.5707 250.66 36.4112 253.689 34.6082 255.635C32.8052 257.582 30.176 258.82 26.7204 259.35C26.0961 259.427 25.7477 259.17 25.6753 258.581L24.9407 252.598C24.8726 252.043 25.1291 251.694 25.7102 251.553C27.0458 251.248 28.0224 250.6 28.6401 249.609C29.2881 248.578 29.7034 246.943 29.886 244.703C30.3066 240.673 30.0457 233.1 29.1034 221.985C29.0614 221.356 29.3526 221.004 29.9769 220.927L52.608 218.148C53.1976 218.076 53.5308 218.352 53.6074 218.976L57.9448 254.302C58.0215 254.926 57.765 255.274 57.1754 255.347L50.6202 256.152C50.0305 256.224 49.6974 255.948 49.6207 255.324L46.1265 226.866L37.9585 227.869C38.5742 235.75 38.6169 241.976 38.0868 246.548ZM94.1114 250.811L87.6602 251.604C87.0706 251.676 86.7375 251.4 86.6608 250.776L85.6579 242.608C85.1341 238.342 84.8047 233.365 84.6698 227.678L84.5073 227.645C83.1533 232.388 81.6378 236.676 79.9607 240.508L74.5772 252.576C74.3855 253.022 74.0469 253.275 73.5613 253.335L66.642 254.184C66.0523 254.257 65.7192 253.981 65.6425 253.356L61.3051 218.031C61.2285 217.407 61.485 217.058 62.0746 216.986L68.5257 216.194C69.1501 216.117 69.5005 216.391 69.5772 217.015L70.7206 226.328C71.2572 230.698 71.635 235.352 71.8539 240.289L72.0164 240.322C72.7192 238.018 74.1191 234.079 76.2161 228.505L81.6608 215.215C81.8178 214.773 82.1391 214.522 82.6246 214.463L89.544 213.613C90.1683 213.537 90.5188 213.81 90.5955 214.435L94.9329 249.76C95.0095 250.384 94.7357 250.735 94.1114 250.811ZM107.808 256.153L101.357 256.946C100.767 257.018 100.436 256.759 100.364 256.17L98.786 243.319C98.7136 242.73 98.9722 242.399 99.5619 242.326L100.915 242.16C101.991 241.465 102.785 240.188 103.296 238.33C103.803 236.437 104.091 233.479 104.16 229.457C104.23 225.435 104.045 219.913 103.605 212.89C103.559 212.227 103.83 211.859 104.42 211.787L126.479 209.078C127.103 209.002 127.454 209.275 127.53 209.9L131.031 238.41L133.58 238.097C134.17 238.024 134.503 238.3 134.58 238.925L136.157 251.775C136.23 252.364 135.971 252.695 135.382 252.768L128.982 253.554C128.358 253.63 128.01 253.374 127.937 252.784L127.196 246.749L107.843 249.125L108.584 255.16C108.656 255.75 108.398 256.081 107.808 256.153ZM112.395 218.676C113.202 230.407 112.722 237.824 110.955 240.927L122.661 239.49L119.991 217.744L112.395 218.676ZM156.288 243.177L142.293 244.895C141.669 244.972 141.319 244.698 141.242 244.074L136.905 208.749C136.828 208.124 137.102 207.774 137.726 207.697L144.281 206.892C144.871 206.82 145.204 207.096 145.281 207.72L146.667 219.01L152.806 218.256C157.003 217.741 160.414 218.431 163.041 220.326C165.703 222.218 167.27 225.088 167.742 228.938C168.228 232.892 167.464 236.137 165.452 238.672C163.436 241.173 160.381 242.675 156.288 243.177ZM181.052 240.136L174.497 240.941C173.908 241.014 173.574 240.738 173.498 240.113L169.16 204.788C169.084 204.164 169.34 203.816 169.93 203.743L176.485 202.938C177.109 202.862 177.46 203.135 177.537 203.76L181.874 239.085C181.951 239.709 181.677 240.06 181.052 240.136ZM147.619 226.762L148.781 236.23L154.816 235.489C158.111 235.085 159.559 233.252 159.158 229.992C158.783 226.94 156.949 225.616 153.654 226.021L147.619 226.762ZM208.541 225.618C208.025 229.73 206.866 232.76 205.063 234.706C203.26 236.653 200.63 237.891 197.175 238.421C196.551 238.498 196.202 238.241 196.13 237.651L195.395 231.669C195.327 231.114 195.584 230.765 196.165 230.623C197.5 230.319 198.477 229.671 199.095 228.679C199.743 227.649 200.158 226.014 200.341 223.774C200.761 219.744 200.5 212.171 199.558 201.056C199.516 200.427 199.807 200.075 200.431 199.998L223.062 197.219C223.652 197.147 223.985 197.423 224.062 198.047L228.399 233.372C228.476 233.997 228.219 234.345 227.63 234.417L221.075 235.222C220.485 235.295 220.152 235.019 220.075 234.394L216.581 205.937L208.413 206.939C209.029 214.821 209.071 221.047 208.541 225.618ZM264.566 229.882L258.115 230.674C257.525 230.747 257.192 230.471 257.115 229.847L256.112 221.679C255.589 217.412 255.259 212.436 255.124 206.749L254.962 206.716C253.608 211.459 252.092 215.747 250.415 219.579L245.032 231.647C244.84 232.093 244.501 232.346 244.016 232.406L237.096 233.255C236.507 233.328 236.174 233.052 236.097 232.427L231.76 197.102C231.683 196.478 231.939 196.129 232.529 196.057L238.98 195.265C239.605 195.188 239.955 195.462 240.032 196.086L241.175 205.399C241.712 209.769 242.089 214.423 242.308 219.36L242.471 219.393C243.174 217.088 244.574 213.149 246.671 207.576L252.115 194.286C252.272 193.844 252.594 193.593 253.079 193.534L259.999 192.684C260.623 192.607 260.973 192.881 261.05 193.506L265.387 228.831C265.464 229.455 265.19 229.806 264.566 229.882ZM278.263 235.224L271.811 236.016C271.222 236.089 270.891 235.83 270.818 235.241L269.241 222.39C269.168 221.801 269.427 221.47 270.016 221.397L271.369 221.231C272.445 220.536 273.239 219.259 273.75 217.4C274.257 215.507 274.546 212.55 274.615 208.528C274.684 204.506 274.499 198.984 274.059 191.961C274.013 191.298 274.285 190.93 274.875 190.858L296.933 188.149C297.558 188.072 297.908 188.346 297.985 188.971L301.485 217.48L304.035 217.167C304.624 217.095 304.957 217.371 305.034 217.995L306.612 230.846C306.684 231.435 306.426 231.766 305.836 231.839L299.437 232.624C298.813 232.701 298.464 232.445 298.392 231.855L297.651 225.82L278.297 228.196L279.038 234.231C279.111 234.821 278.852 235.152 278.263 235.224ZM282.85 197.747C283.656 209.477 283.176 216.894 281.41 219.998L293.116 218.561L290.446 196.814L282.85 197.747ZM326.743 222.248L312.748 223.966C312.124 224.043 311.773 223.769 311.697 223.145L307.359 187.82C307.282 187.195 307.556 186.845 308.181 186.768L314.736 185.963C315.325 185.891 315.659 186.167 315.735 186.791L317.121 198.081L323.26 197.327C327.457 196.812 330.869 197.502 333.496 199.397C336.157 201.288 337.724 204.159 338.197 208.009C338.682 211.963 337.919 215.207 335.907 217.743C333.89 220.244 330.835 221.745 326.743 222.248ZM351.507 219.207L344.952 220.012C344.362 220.085 344.029 219.809 343.952 219.184L339.615 183.859C339.538 183.235 339.795 182.886 340.384 182.814L346.94 182.009C347.564 181.932 347.914 182.206 347.991 182.831L352.328 218.156C352.405 218.78 352.131 219.131 351.507 219.207ZM318.073 205.832L319.236 215.301L325.271 214.56C328.566 214.155 330.013 212.323 329.613 209.063C329.238 206.011 327.403 204.687 324.108 205.091L318.073 205.832ZM378.996 204.689C378.48 208.801 377.32 211.831 375.517 213.777C373.714 215.724 371.085 216.962 367.629 217.492C367.005 217.568 366.657 217.312 366.584 216.722L365.85 210.739C365.782 210.184 366.038 209.836 366.619 209.694C367.955 209.389 368.931 208.741 369.549 207.75C370.197 206.72 370.612 205.085 370.795 202.844C371.216 198.814 370.955 191.242 370.012 180.127C369.97 179.498 370.262 179.145 370.886 179.069L393.517 176.29C394.107 176.218 394.44 176.494 394.516 177.118L398.854 212.443C398.93 213.068 398.674 213.416 398.084 213.488L391.529 214.293C390.94 214.366 390.606 214.09 390.53 213.465L387.036 185.007L378.868 186.01C379.483 193.891 379.526 200.118 378.996 204.689ZM435.02 208.953L428.569 209.745C427.98 209.818 427.646 209.542 427.57 208.917L426.567 200.749C426.043 196.483 425.714 191.507 425.579 185.82L425.416 185.787C424.062 190.53 422.547 194.818 420.87 198.65L415.486 210.718C415.295 211.164 414.956 211.417 414.47 211.476L407.551 212.326C406.961 212.398 406.628 212.122 406.552 211.498L402.214 176.173C402.137 175.548 402.394 175.2 402.984 175.128L409.435 174.336C410.059 174.259 410.41 174.533 410.486 175.157L411.63 184.47C412.166 188.84 412.544 193.493 412.763 198.431L412.925 198.464C413.628 196.159 415.028 192.22 417.125 186.647L422.57 173.357C422.727 172.915 423.048 172.664 423.534 172.605L430.453 171.755C431.077 171.678 431.428 171.952 431.504 172.576L435.842 207.902C435.919 208.526 435.645 208.876 435.02 208.953ZM448.717 214.295L442.266 215.087C441.676 215.16 441.345 214.901 441.273 214.311L439.695 201.461C439.623 200.871 439.881 200.54 440.471 200.468L441.824 200.302C442.9 199.606 443.694 198.33 444.205 196.471C444.712 194.578 445 191.621 445.069 187.599C445.139 183.577 444.954 178.054 444.514 171.032C444.468 170.369 444.739 170.001 445.329 169.928L467.388 167.22C468.012 167.143 468.363 167.417 468.439 168.041L471.94 196.551L474.489 196.238C475.079 196.166 475.412 196.442 475.489 197.066L477.066 209.916C477.139 210.506 476.88 210.837 476.291 210.909L469.891 211.695C469.267 211.772 468.919 211.515 468.846 210.926L468.105 204.891L448.752 207.267L449.493 213.302C449.565 213.892 449.307 214.223 448.717 214.295ZM453.304 176.818C454.111 188.548 453.631 195.965 451.864 199.069L463.57 197.632L460.9 175.885L453.304 176.818ZM497.197 201.319L483.202 203.037C482.578 203.114 482.228 202.84 482.151 202.216L477.814 166.89C477.737 166.266 478.011 165.916 478.635 165.839L485.19 165.034C485.78 164.962 486.113 165.238 486.19 165.862L487.576 177.151L493.715 176.398C497.912 175.882 501.323 176.572 503.95 178.468C506.612 180.359 508.179 183.23 508.651 187.08C509.137 191.034 508.373 194.278 506.361 196.814C504.345 199.315 501.29 200.816 497.197 201.319ZM521.961 198.278L515.406 199.083C514.817 199.155 514.483 198.879 514.407 198.255L510.069 162.93C509.993 162.306 510.249 161.957 510.839 161.885L517.394 161.08C518.018 161.003 518.369 161.277 518.446 161.901L522.783 197.227C522.86 197.851 522.586 198.201 521.961 198.278ZM488.528 184.903L489.69 194.372L495.725 193.631C499.02 193.226 500.468 191.394 500.067 188.134C499.692 185.081 497.858 183.758 494.563 184.162L488.528 184.903ZM45.1552 304.115C44.6392 308.227 43.4796 311.257 41.6767 313.203C39.8737 315.15 37.2444 316.388 33.7888 316.918C33.1645 316.994 32.8161 316.738 32.7437 316.148L32.0091 310.165C31.941 309.61 32.1975 309.262 32.7786 309.12C34.1142 308.816 35.0908 308.168 35.7085 307.176C36.3565 306.146 36.7719 304.511 36.9545 302.27C37.375 298.24 37.1141 290.668 36.1718 279.553C36.1299 278.924 36.421 278.572 37.0453 278.495L59.6764 275.716C60.266 275.644 60.5992 275.92 60.6758 276.544L65.0132 311.869C65.0899 312.494 64.8334 312.842 64.2438 312.914L57.6886 313.719C57.0989 313.792 56.7658 313.516 56.6892 312.891L53.195 284.433L45.027 285.436C45.6426 293.317 45.6853 299.544 45.1552 304.115ZM101.18 308.379L94.7287 309.171C94.139 309.244 93.8059 308.968 93.7292 308.343L92.7263 300.175C92.2025 295.909 91.8732 290.933 91.7382 285.246L91.5757 285.213C90.2217 289.956 88.7062 294.244 87.0292 298.076L81.6456 310.144C81.454 310.59 81.1153 310.843 80.6298 310.902L73.7104 311.752C73.1208 311.824 72.7876 311.548 72.711 310.924L68.3736 275.599C68.2969 274.975 68.5534 274.626 69.143 274.554L75.5942 273.762C76.2185 273.685 76.569 273.959 76.6456 274.583L77.789 283.896C78.3256 288.266 78.7034 292.92 78.9223 297.857L79.0848 297.89C79.7877 295.585 81.1876 291.646 83.2845 286.073L88.7292 272.783C88.8862 272.341 89.2075 272.09 89.6931 272.031L96.6125 271.181C97.2368 271.104 97.5872 271.378 97.6639 272.002L102.001 307.328C102.078 307.952 101.804 308.302 101.18 308.379ZM114.876 313.721L108.425 314.513C107.836 314.586 107.505 314.327 107.432 313.737L105.854 300.887C105.782 300.297 106.041 299.966 106.63 299.894L107.983 299.728C109.059 299.033 109.853 297.756 110.364 295.897C110.871 294.004 111.159 291.047 111.229 287.025C111.298 283.003 111.113 277.48 110.673 270.458C110.627 269.795 110.899 269.427 111.488 269.354L133.547 266.646C134.172 266.569 134.522 266.843 134.599 267.467L138.099 295.977L140.649 295.664C141.238 295.592 141.571 295.868 141.648 296.492L143.226 309.342C143.298 309.932 143.04 310.263 142.45 310.336L136.051 311.121C135.427 311.198 135.078 310.941 135.006 310.352L134.265 304.317L114.911 306.693L115.652 312.728C115.725 313.318 115.466 313.649 114.876 313.721ZM119.464 276.244C120.27 287.974 119.79 295.391 118.024 298.495L129.73 297.058L127.059 275.311L119.464 276.244ZM163.357 300.745L149.362 302.463C148.738 302.54 148.387 302.266 148.31 301.642L143.973 266.316C143.896 265.692 144.17 265.342 144.795 265.265L151.35 264.46C151.939 264.388 152.273 264.664 152.349 265.288L153.735 276.577L159.874 275.824C164.071 275.308 167.483 275.998 170.11 277.894C172.771 279.785 174.338 282.656 174.811 286.506C175.296 290.46 174.533 293.704 172.521 296.24C170.504 298.741 167.449 300.242 163.357 300.745ZM188.121 297.704L181.566 298.509C180.976 298.581 180.643 298.305 180.566 297.681L176.229 262.356C176.152 261.732 176.409 261.383 176.998 261.311L183.554 260.506C184.178 260.429 184.528 260.703 184.605 261.327L188.942 296.653C189.019 297.277 188.745 297.627 188.121 297.704ZM154.687 284.329L155.85 293.798L161.885 293.057C165.18 292.652 166.627 290.82 166.227 287.56C165.852 284.507 164.017 283.184 160.722 283.588L154.687 284.329ZM215.61 283.186C215.094 287.298 213.934 290.327 212.131 292.274C210.328 294.22 207.699 295.459 204.243 295.989C203.619 296.065 203.271 295.809 203.198 295.219L202.464 289.236C202.396 288.681 202.652 288.333 203.233 288.191C204.569 287.886 205.545 287.238 206.163 286.247C206.811 285.217 207.226 283.582 207.409 281.341C207.83 277.311 207.569 269.739 206.626 258.624C206.584 257.995 206.876 257.642 207.5 257.566L230.131 254.787C230.721 254.715 231.054 254.991 231.13 255.615L235.468 290.94C235.544 291.564 235.288 291.913 234.698 291.985L228.143 292.79C227.553 292.862 227.22 292.586 227.144 291.962L223.649 263.504L215.481 264.507C216.097 272.388 216.14 278.615 215.61 283.186ZM271.634 287.45L265.183 288.242C264.594 288.314 264.26 288.039 264.184 287.414L263.181 279.246C262.657 274.98 262.328 270.004 262.193 264.317L262.03 264.284C260.676 269.027 259.161 273.315 257.484 277.147L252.1 289.215C251.908 289.661 251.57 289.914 251.084 289.973L244.165 290.823C243.575 290.895 243.242 290.619 243.165 289.995L238.828 254.67C238.751 254.045 239.008 253.697 239.598 253.625L246.049 252.832C246.673 252.756 247.023 253.03 247.1 253.654L248.244 262.967C248.78 267.337 249.158 271.99 249.377 276.928L249.539 276.96C250.242 274.656 251.642 270.717 253.739 265.143L259.184 251.853C259.341 251.412 259.662 251.161 260.148 251.101L267.067 250.252C267.691 250.175 268.042 250.449 268.118 251.073L272.456 286.399C272.532 287.023 272.259 287.373 271.634 287.45ZM285.331 292.792L278.88 293.584C278.29 293.656 277.959 293.398 277.887 292.808L276.309 279.958C276.237 279.368 276.495 279.037 277.085 278.965L278.437 278.799C279.514 278.103 280.308 276.826 280.819 274.968C281.326 273.075 281.614 270.118 281.683 266.096C281.753 262.073 281.568 256.551 281.128 249.529C281.082 248.865 281.353 248.498 281.943 248.425L304.002 245.717C304.626 245.64 304.977 245.914 305.053 246.538L308.554 275.048L311.103 274.735C311.693 274.663 312.026 274.939 312.102 275.563L313.68 288.413C313.753 289.003 313.494 289.334 312.904 289.406L306.505 290.192C305.881 290.269 305.533 290.012 305.46 289.423L304.719 283.388L285.366 285.764L286.107 291.799C286.179 292.389 285.921 292.72 285.331 292.792ZM289.918 255.315C290.725 267.045 290.245 274.462 288.478 277.566L300.184 276.129L297.514 254.382L289.918 255.315ZM333.811 279.816L319.816 281.534C319.192 281.611 318.842 281.337 318.765 280.712L314.428 245.387C314.351 244.763 314.625 244.412 315.249 244.336L321.804 243.531C322.394 243.458 322.727 243.734 322.804 244.359L324.19 255.648L330.329 254.894C334.526 254.379 337.937 255.069 340.564 256.965C343.226 258.856 344.793 261.727 345.265 265.576C345.751 269.53 344.987 272.775 342.975 275.311C340.959 277.811 337.904 279.313 333.811 279.816ZM358.575 276.775L352.02 277.58C351.431 277.652 351.097 277.376 351.021 276.752L346.683 241.427C346.607 240.802 346.863 240.454 347.453 240.382L354.008 239.577C354.632 239.5 354.983 239.774 355.059 240.398L359.397 275.724C359.473 276.348 359.2 276.698 358.575 276.775ZM325.142 263.4L326.304 272.869L332.339 272.128C335.634 271.723 337.081 269.891 336.681 266.63C336.306 263.578 334.472 262.254 331.177 262.659L325.142 263.4ZM386.064 262.257C385.548 266.369 384.389 269.398 382.586 271.345C380.783 273.291 378.153 274.53 374.698 275.059C374.074 275.136 373.725 274.88 373.653 274.29L372.918 268.307C372.85 267.752 373.106 267.404 373.688 267.262C375.023 266.957 376 266.309 376.617 265.318C377.266 264.288 377.681 262.653 377.863 260.412C378.284 256.382 378.023 248.81 377.081 237.694C377.039 237.066 377.33 236.713 377.954 236.637L400.585 233.858C401.175 233.785 401.508 234.061 401.585 234.686L405.922 270.011C405.999 270.635 405.742 270.984 405.153 271.056L398.598 271.861C398.008 271.933 397.675 271.657 397.598 271.033L394.104 242.575L385.936 243.578C386.552 251.459 386.594 257.685 386.064 262.257ZM442.089 266.521L435.638 267.313C435.048 267.385 434.715 267.109 434.638 266.485L433.635 258.317C433.112 254.051 432.782 249.074 432.647 243.388L432.485 243.355C431.131 248.098 429.615 252.385 427.938 256.218L422.555 268.286C422.363 268.732 422.024 268.984 421.539 269.044L414.619 269.894C414.03 269.966 413.697 269.69 413.62 269.066L409.283 233.74C409.206 233.116 409.462 232.768 410.052 232.695L416.503 231.903C417.127 231.827 417.478 232.1 417.555 232.725L418.698 242.037C419.235 246.407 419.612 251.061 419.831 255.998L419.994 256.031C420.697 253.727 422.097 249.788 424.194 244.214L429.638 230.924C429.795 230.482 430.116 230.232 430.602 230.172L437.521 229.323C438.146 229.246 438.496 229.52 438.573 230.144L442.91 265.469C442.987 266.094 442.713 266.444 442.089 266.521ZM455.785 271.863L449.334 272.655C448.745 272.727 448.414 272.469 448.341 271.879L446.763 259.029C446.691 258.439 446.95 258.108 447.539 258.036L448.892 257.87C449.968 257.174 450.762 255.897 451.273 254.039C451.78 252.146 452.068 249.188 452.138 245.166C452.207 241.144 452.022 235.622 451.582 228.6C451.536 227.936 451.808 227.568 452.397 227.496L474.456 224.788C475.081 224.711 475.431 224.985 475.508 225.609L479.008 254.119L481.558 253.806C482.147 253.734 482.48 254.01 482.557 254.634L484.135 267.484C484.207 268.074 483.949 268.405 483.359 268.477L476.96 269.263C476.336 269.34 475.987 269.083 475.915 268.493L475.174 262.458L455.82 264.835L456.561 270.87C456.634 271.459 456.375 271.79 455.785 271.863ZM460.373 234.385C461.179 246.116 460.699 253.533 458.933 256.637L470.639 255.199L467.968 233.453L460.373 234.385ZM504.266 258.886L490.271 260.605C489.647 260.681 489.296 260.408 489.219 259.783L484.882 224.458C484.805 223.834 485.079 223.483 485.704 223.407L492.259 222.602C492.848 222.529 493.181 222.805 493.258 223.43L494.644 234.719L500.783 233.965C504.98 233.45 508.392 234.14 511.019 236.036C513.68 237.927 515.247 240.797 515.72 244.647C516.205 248.601 515.442 251.846 513.43 254.381C511.413 256.882 508.358 258.384 504.266 258.886ZM529.03 255.846L522.475 256.651C521.885 256.723 521.552 256.447 521.475 255.823L517.138 220.498C517.061 219.873 517.318 219.525 517.907 219.452L524.462 218.648C525.087 218.571 525.437 218.845 525.514 219.469L529.851 254.794C529.928 255.419 529.654 255.769 529.03 255.846ZM495.596 242.471L496.759 251.94L502.794 251.199C506.089 250.794 507.536 248.962 507.136 245.701C506.761 242.649 504.926 241.325 501.631 241.73L495.596 242.471ZM52.2237 361.683C51.7076 365.795 50.5481 368.824 48.7451 370.771C46.9421 372.717 44.3128 373.956 40.8572 374.485C40.2329 374.562 39.8846 374.306 39.8122 373.716L39.0776 367.733C39.0094 367.178 39.2659 366.83 39.847 366.688C41.1826 366.383 42.1593 365.735 42.7769 364.744C43.425 363.714 43.8403 362.079 44.0229 359.838C44.4434 355.808 44.1826 348.236 43.2403 337.12C43.1983 336.492 43.4895 336.139 44.1138 336.063L66.7448 333.284C67.3345 333.211 67.6676 333.487 67.7443 334.112L72.0817 369.437C72.1583 370.061 71.9018 370.41 71.3122 370.482L64.757 371.287C64.1674 371.359 63.8342 371.083 63.7576 370.459L60.2634 342.001L52.0954 343.004C52.711 350.885 52.7538 357.111 52.2237 361.683ZM108.248 365.947L101.797 366.739C101.207 366.811 100.874 366.535 100.798 365.911L99.7948 357.743C99.271 353.477 98.9416 348.5 98.8066 342.814L98.6442 342.781C97.2902 347.524 95.7746 351.811 94.0976 355.644L88.7141 367.712C88.5224 368.158 88.1838 368.41 87.6982 368.47L80.7788 369.32C80.1892 369.392 79.856 369.116 79.7794 368.492L75.442 333.167C75.3653 332.542 75.6218 332.194 76.2114 332.121L82.6626 331.329C83.2869 331.253 83.6374 331.527 83.714 332.151L84.8575 341.463C85.3941 345.834 85.7718 350.487 85.9908 355.424L86.1532 355.457C86.8561 353.153 88.256 349.214 90.3529 343.64L95.7976 330.35C95.9546 329.909 96.2759 329.658 96.7615 329.598L103.681 328.749C104.305 328.672 104.656 328.946 104.732 329.57L109.07 364.895C109.146 365.52 108.873 365.87 108.248 365.947ZM121.945 371.289L115.494 372.081C114.904 372.153 114.573 371.895 114.501 371.305L112.923 358.455C112.85 357.865 113.109 357.534 113.699 357.462L115.051 357.296C116.128 356.6 116.922 355.323 117.433 353.465C117.94 351.572 118.228 348.614 118.297 344.592C118.367 340.57 118.182 335.048 117.742 328.026C117.696 327.362 117.967 326.994 118.557 326.922L140.616 324.214C141.24 324.137 141.59 324.411 141.667 325.035L145.168 353.545L147.717 353.232C148.307 353.16 148.64 353.436 148.716 354.06L150.294 366.91C150.367 367.5 150.108 367.831 149.518 367.903L143.119 368.689C142.495 368.766 142.147 368.509 142.074 367.919L141.333 361.885L121.98 364.261L122.721 370.296C122.793 370.885 122.534 371.216 121.945 371.289ZM126.532 333.812C127.339 345.542 126.859 352.959 125.092 356.063L136.798 354.626L134.128 332.879L126.532 333.812ZM170.425 358.312L156.43 360.031C155.806 360.107 155.456 359.834 155.379 359.209L151.041 323.884C150.965 323.26 151.239 322.909 151.863 322.833L158.418 322.028C159.008 321.955 159.341 322.231 159.418 322.856L160.804 334.145L166.943 333.391C171.139 332.876 174.551 333.566 177.178 335.462C179.839 337.353 181.407 340.223 181.879 344.073C182.365 348.027 181.601 351.272 179.589 353.807C177.572 356.308 174.518 357.81 170.425 358.312ZM195.189 355.272L188.634 356.077C188.044 356.149 187.711 355.873 187.635 355.249L183.297 319.924C183.221 319.299 183.477 318.951 184.067 318.878L190.622 318.074C191.246 317.997 191.597 318.271 191.673 318.895L196.011 354.22C196.087 354.845 195.814 355.195 195.189 355.272ZM161.756 341.897L162.918 351.366L168.953 350.625C172.248 350.22 173.695 348.388 173.295 345.127C172.92 342.075 171.085 340.751 167.791 341.156L161.756 341.897ZM222.678 340.754C222.162 344.866 221.003 347.895 219.2 349.842C217.397 351.788 214.767 353.026 211.312 353.556C210.687 353.633 210.339 353.376 210.267 352.787L209.532 346.804C209.464 346.249 209.72 345.901 210.302 345.759C211.637 345.454 212.614 344.806 213.231 343.815C213.879 342.785 214.295 341.149 214.477 338.909C214.898 334.879 214.637 327.306 213.695 316.191C213.653 315.563 213.944 315.21 214.568 315.133L237.199 312.355C237.789 312.282 238.122 312.558 238.199 313.182L242.536 348.508C242.613 349.132 242.356 349.48 241.767 349.553L235.211 350.358C234.622 350.43 234.289 350.154 234.212 349.53L230.718 321.072L222.55 322.075C223.166 329.956 223.208 336.182 222.678 340.754ZM278.703 345.018L272.252 345.81C271.662 345.882 271.329 345.606 271.252 344.982L270.249 336.814C269.725 332.548 269.396 327.571 269.261 321.884L269.099 321.852C267.745 326.595 266.229 330.882 264.552 334.714L259.169 346.782C258.977 347.228 258.638 347.481 258.153 347.541L251.233 348.39C250.644 348.463 250.311 348.187 250.234 347.563L245.896 312.237C245.82 311.613 246.076 311.265 246.666 311.192L253.117 310.4C253.741 310.324 254.092 310.597 254.169 311.222L255.312 320.534C255.849 324.904 256.226 329.558 256.445 334.495L256.608 334.528C257.311 332.224 258.71 328.285 260.807 322.711L266.252 309.421C266.409 308.979 266.73 308.729 267.216 308.669L274.135 307.819C274.76 307.743 275.11 308.017 275.187 308.641L279.524 343.966C279.601 344.591 279.327 344.941 278.703 345.018ZM292.399 350.36L285.948 351.152C285.359 351.224 285.028 350.966 284.955 350.376L283.377 337.526C283.305 336.936 283.564 336.605 284.153 336.533L285.506 336.366C286.582 335.671 287.376 334.394 287.887 332.536C288.394 330.643 288.682 327.685 288.752 323.663C288.821 319.641 288.636 314.119 288.196 307.096C288.15 306.433 288.422 306.065 289.011 305.993L311.07 303.284C311.695 303.208 312.045 303.482 312.122 304.106L315.622 332.616L318.171 332.303C318.761 332.23 319.094 332.506 319.171 333.131L320.749 345.981C320.821 346.571 320.562 346.902 319.973 346.974L313.574 347.76C312.949 347.836 312.601 347.58 312.529 346.99L311.788 340.955L292.434 343.332L293.175 349.367C293.248 349.956 292.989 350.287 292.399 350.36ZM296.987 312.882C297.793 324.613 297.313 332.03 295.547 335.134L307.253 333.696L304.582 311.95L296.987 312.882ZM340.88 337.383L326.885 339.102C326.261 339.178 325.91 338.904 325.833 338.28L321.496 302.955C321.419 302.331 321.693 301.98 322.317 301.903L328.873 301.099C329.462 301.026 329.795 301.302 329.872 301.926L331.258 313.216L337.397 312.462C341.594 311.947 345.006 312.637 347.633 314.532C350.294 316.424 351.861 319.294 352.334 323.144C352.819 327.098 352.056 330.343 350.044 332.878C348.027 335.379 344.972 336.881 340.88 337.383ZM365.644 334.343L359.089 335.148C358.499 335.22 358.166 334.944 358.089 334.32L353.752 298.994C353.675 298.37 353.932 298.022 354.521 297.949L361.076 297.144C361.701 297.068 362.051 297.342 362.128 297.966L366.465 333.291C366.542 333.915 366.268 334.266 365.644 334.343ZM332.21 320.968L333.373 330.436L339.408 329.695C342.703 329.291 344.15 327.458 343.75 324.198C343.375 321.146 341.54 319.822 338.245 320.227L332.21 320.968ZM393.133 319.825C392.617 323.937 391.457 326.966 389.654 328.912C387.851 330.859 385.222 332.097 381.766 332.627C381.142 332.704 380.794 332.447 380.721 331.858L379.987 325.875C379.918 325.32 380.175 324.971 380.756 324.83C382.092 324.525 383.068 323.877 383.686 322.886C384.334 321.855 384.749 320.22 384.932 317.98C385.352 313.95 385.092 306.377 384.149 295.262C384.107 294.633 384.398 294.281 385.023 294.204L407.654 291.425C408.243 291.353 408.577 291.629 408.653 292.253L412.991 327.579C413.067 328.203 412.811 328.551 412.221 328.624L405.666 329.429C405.076 329.501 404.743 329.225 404.667 328.601L401.172 300.143L393.004 301.146C393.62 309.027 393.663 315.253 393.133 319.825ZM449.157 324.088L442.706 324.881C442.116 324.953 441.783 324.677 441.707 324.053L440.704 315.885C440.18 311.619 439.851 306.642 439.716 300.955L439.553 300.922C438.199 305.665 436.684 309.953 435.007 313.785L429.623 325.853C429.431 326.299 429.093 326.552 428.607 326.612L421.688 327.461C421.098 327.534 420.765 327.258 420.688 326.633L416.351 291.308C416.274 290.684 416.531 290.335 417.12 290.263L423.572 289.471C424.196 289.394 424.546 289.668 424.623 290.292L425.766 299.605C426.303 303.975 426.681 308.629 426.9 313.566L427.062 313.599C427.765 311.295 429.165 307.356 431.262 301.782L436.707 288.492C436.864 288.05 437.185 287.799 437.67 287.74L444.59 286.89C445.214 286.814 445.565 287.087 445.641 287.712L449.979 323.037C450.055 323.661 449.782 324.012 449.157 324.088ZM462.854 329.43L456.403 330.223C455.813 330.295 455.482 330.036 455.41 329.447L453.832 316.596C453.759 316.007 454.018 315.676 454.608 315.603L455.96 315.437C457.037 314.742 457.831 313.465 458.342 311.607C458.849 309.714 459.137 306.756 459.206 302.734C459.276 298.712 459.091 293.19 458.651 286.167C458.605 285.504 458.876 285.136 459.466 285.064L481.525 282.355C482.149 282.279 482.499 282.552 482.576 283.177L486.077 311.687L488.626 311.374C489.216 311.301 489.549 311.577 489.625 312.202L491.203 325.052C491.276 325.641 491.017 325.972 490.427 326.045L484.028 326.831C483.404 326.907 483.056 326.651 482.983 326.061L482.242 320.026L462.889 322.402L463.63 328.437C463.702 329.027 463.443 329.358 462.854 329.43ZM467.441 291.953C468.248 303.683 467.768 311.101 466.001 314.204L477.707 312.767L475.037 291.021L467.441 291.953ZM511.334 316.454L497.339 318.172C496.715 318.249 496.365 317.975 496.288 317.351L491.95 282.026C491.874 281.401 492.148 281.051 492.772 280.974L499.327 280.169C499.917 280.097 500.25 280.373 500.327 280.997L501.713 292.287L507.852 291.533C512.048 291.018 515.46 291.708 518.087 293.603C520.748 295.494 522.316 298.365 522.788 302.215C523.274 306.169 522.51 309.414 520.498 311.949C518.481 314.45 515.427 315.952 511.334 316.454ZM536.098 313.413L529.543 314.218C528.953 314.291 528.62 314.015 528.544 313.39L524.206 278.065C524.13 277.441 524.386 277.093 524.976 277.02L531.531 276.215C532.155 276.139 532.506 276.412 532.582 277.037L536.92 312.362C536.996 312.986 536.723 313.337 536.098 313.413ZM502.665 300.039L503.827 309.507L509.862 308.766C513.157 308.362 514.604 306.529 514.204 303.269C513.829 300.217 511.994 298.893 508.7 299.298L502.665 300.039ZM59.2921 419.251C58.776 423.363 57.6165 426.392 55.8135 428.339C54.0105 430.285 51.3812 431.523 47.9256 432.053C47.3013 432.13 46.953 431.873 46.8806 431.284L46.146 425.301C46.0778 424.746 46.3343 424.397 46.9154 424.256C48.2511 423.951 49.2277 423.303 49.8453 422.312C50.4934 421.282 50.9087 419.646 51.0913 417.406C51.5118 413.376 51.251 405.803 50.3087 394.688C50.2667 394.059 50.5579 393.707 51.1822 393.63L73.8133 390.851C74.4029 390.779 74.736 391.055 74.8127 391.679L79.1501 427.005C79.2267 427.629 78.9702 427.977 78.3806 428.05L71.8254 428.855C71.2358 428.927 70.9027 428.651 70.826 428.027L67.3318 399.569L59.1638 400.572C59.7794 408.453 59.8222 414.679 59.2921 419.251ZM115.317 423.515L108.866 424.307C108.276 424.379 107.943 424.103 107.866 423.479L106.863 415.311C106.339 411.045 106.01 406.068 105.875 400.381L105.713 400.348C104.359 405.092 102.843 409.379 101.166 413.211L95.7825 425.279C95.5908 425.725 95.2522 425.978 94.7666 426.038L87.8472 426.887C87.2576 426.96 86.9245 426.684 86.8478 426.059L82.5104 390.734C82.4338 390.11 82.6902 389.762 83.2799 389.689L89.731 388.897C90.3553 388.82 90.7058 389.094 90.7825 389.718L91.9259 399.031C92.4625 403.401 92.8402 408.055 93.0592 412.992L93.2217 413.025C93.9245 410.721 95.3244 406.782 97.4214 401.208L102.866 387.918C103.023 387.476 103.344 387.226 103.83 387.166L110.749 386.316C111.374 386.24 111.724 386.513 111.801 387.138L116.138 422.463C116.215 423.087 115.941 423.438 115.317 423.515ZM129.013 428.856L122.562 429.649C121.973 429.721 121.642 429.462 121.569 428.873L119.991 416.022C119.919 415.433 120.178 415.102 120.767 415.029L122.12 414.863C123.196 414.168 123.99 412.891 124.501 411.033C125.008 409.14 125.296 406.182 125.366 402.16C125.435 398.138 125.25 392.616 124.81 385.593C124.764 384.93 125.036 384.562 125.625 384.49L147.684 381.781C148.308 381.705 148.659 381.978 148.736 382.603L152.236 411.113L154.785 410.8C155.375 410.727 155.708 411.003 155.785 411.628L157.363 424.478C157.435 425.067 157.176 425.398 156.587 425.471L150.188 426.257C149.563 426.333 149.215 426.077 149.143 425.487L148.402 419.452L129.048 421.828L129.789 427.863C129.862 428.453 129.603 428.784 129.013 428.856ZM133.601 391.379C134.407 403.11 133.927 410.527 132.161 413.63L143.866 412.193L141.196 390.447L133.601 391.379ZM177.494 415.88L163.499 417.598C162.874 417.675 162.524 417.401 162.447 416.777L158.11 381.452C158.033 380.827 158.307 380.477 158.931 380.4L165.487 379.595C166.076 379.523 166.409 379.799 166.486 380.423L167.872 391.713L174.011 390.959C178.208 390.444 181.62 391.134 184.246 393.029C186.908 394.921 188.475 397.791 188.948 401.641C189.433 405.595 188.67 408.84 186.657 411.375C184.641 413.876 181.586 415.378 177.494 415.88ZM202.258 412.839L195.703 413.644C195.113 413.717 194.78 413.441 194.703 412.817L190.366 377.491C190.289 376.867 190.546 376.519 191.135 376.446L197.69 375.641C198.315 375.565 198.665 375.838 198.742 376.463L203.079 411.788C203.156 412.412 202.882 412.763 202.258 412.839ZM168.824 399.465L169.987 408.933L176.022 408.192C179.316 407.788 180.764 405.955 180.363 402.695C179.989 399.643 178.154 398.319 174.859 398.724L168.824 399.465ZM229.747 398.321C229.231 402.434 228.071 405.463 226.268 407.409C224.465 409.356 221.836 410.594 218.38 411.124C217.756 411.201 217.407 410.944 217.335 410.354L216.6 404.372C216.532 403.817 216.789 403.468 217.37 403.327C218.706 403.022 219.682 402.374 220.3 401.382C220.948 400.352 221.363 398.717 221.546 396.477C221.966 392.447 221.705 384.874 220.763 373.759C220.721 373.13 221.012 372.778 221.637 372.701L244.268 369.922C244.857 369.85 245.191 370.126 245.267 370.75L249.605 406.075C249.681 406.7 249.425 407.048 248.835 407.12L242.28 407.925C241.69 407.998 241.357 407.722 241.281 407.098L237.786 378.64L229.618 379.642C230.234 387.524 230.277 393.75 229.747 398.321ZM285.771 402.585L279.32 403.377C278.73 403.45 278.397 403.174 278.321 402.55L277.318 394.382C276.794 390.115 276.464 385.139 276.33 379.452L276.167 379.419C274.813 384.162 273.298 388.45 271.621 392.282L266.237 404.35C266.045 404.796 265.707 405.049 265.221 405.109L258.302 405.958C257.712 406.031 257.379 405.755 257.302 405.13L252.965 369.805C252.888 369.181 253.145 368.832 253.734 368.76L260.186 367.968C260.81 367.891 261.16 368.165 261.237 368.789L262.38 378.102C262.917 382.472 263.295 387.126 263.514 392.063L263.676 392.096C264.379 389.791 265.779 385.853 267.876 380.279L273.321 366.989C273.478 366.547 273.799 366.296 274.284 366.237L281.204 365.387C281.828 365.31 282.179 365.584 282.255 366.209L286.593 401.534C286.669 402.158 286.395 402.509 285.771 402.585ZM299.468 407.927L293.017 408.719C292.427 408.792 292.096 408.533 292.024 407.944L290.446 395.093C290.373 394.504 290.632 394.173 291.222 394.1L292.574 393.934C293.651 393.239 294.445 391.962 294.956 390.104C295.463 388.211 295.751 385.253 295.82 381.231C295.89 377.209 295.705 371.687 295.265 364.664C295.219 364.001 295.49 363.633 296.08 363.561L318.139 360.852C318.763 360.775 319.113 361.049 319.19 361.674L322.691 390.184L325.24 389.871C325.83 389.798 326.163 390.074 326.239 390.698L327.817 403.549C327.89 404.138 327.631 404.469 327.041 404.542L320.642 405.327C320.018 405.404 319.67 405.148 319.597 404.558L318.856 398.523L299.503 400.899L300.244 406.934C300.316 407.524 300.057 407.855 299.468 407.927ZM304.055 370.45C304.862 382.18 304.382 389.597 302.615 392.701L314.321 391.264L311.651 369.517L304.055 370.45ZM347.948 394.951L333.953 396.669C333.329 396.746 332.978 396.472 332.902 395.848L328.564 360.523C328.488 359.898 328.762 359.548 329.386 359.471L335.941 358.666C336.531 358.594 336.864 358.87 336.94 359.494L338.327 370.784L344.466 370.03C348.662 369.515 352.074 370.205 354.701 372.1C357.362 373.991 358.929 376.862 359.402 380.712C359.888 384.666 359.124 387.91 357.112 390.446C355.095 392.947 352.041 394.448 347.948 394.951ZM372.712 391.91L366.157 392.715C365.567 392.788 365.234 392.512 365.158 391.887L360.82 356.562C360.744 355.938 361 355.589 361.59 355.517L368.145 354.712C368.769 354.635 369.12 354.909 369.196 355.534L373.534 390.859C373.61 391.483 373.337 391.834 372.712 391.91ZM339.278 378.535L340.441 388.004L346.476 387.263C349.771 386.858 351.218 385.026 350.818 381.766C350.443 378.714 348.608 377.39 345.313 377.794L339.278 378.535ZM400.201 377.392C399.685 381.504 398.525 384.534 396.723 386.48C394.92 388.427 392.29 389.665 388.835 390.195C388.21 390.271 387.862 390.015 387.79 389.425L387.055 383.442C386.987 382.887 387.243 382.539 387.824 382.397C389.16 382.093 390.137 381.445 390.754 380.453C391.402 379.423 391.818 377.788 392 375.547C392.421 371.517 392.16 363.945 391.218 352.83C391.176 352.201 391.467 351.849 392.091 351.772L414.722 348.993C415.312 348.921 415.645 349.197 415.722 349.821L420.059 385.146C420.136 385.771 419.879 386.119 419.29 386.191L412.734 386.996C412.145 387.069 411.812 386.793 411.735 386.168L408.241 357.71L400.073 358.713C400.688 366.594 400.731 372.821 400.201 377.392ZM456.226 381.656L449.774 382.448C449.185 382.521 448.852 382.245 448.775 381.62L447.772 373.452C447.248 369.186 446.919 364.21 446.784 358.523L446.622 358.49C445.268 363.233 443.752 367.521 442.075 371.353L436.691 383.421C436.5 383.867 436.161 384.12 435.676 384.179L428.756 385.029C428.167 385.101 427.833 384.825 427.757 384.201L423.419 348.876C423.343 348.252 423.599 347.903 424.189 347.831L430.64 347.039C431.264 346.962 431.615 347.236 431.691 347.86L432.835 357.173C433.371 361.543 433.749 366.197 433.968 371.134L434.131 371.167C434.833 368.862 436.233 364.923 438.33 359.35L443.775 346.06C443.932 345.618 444.253 345.367 444.739 345.308L451.658 344.458C452.283 344.381 452.633 344.655 452.71 345.279L457.047 380.605C457.124 381.229 456.85 381.579 456.226 381.656ZM469.922 386.998L463.471 387.79C462.882 387.863 462.551 387.604 462.478 387.014L460.9 374.164C460.828 373.574 461.087 373.243 461.676 373.171L463.029 373.005C464.105 372.31 464.899 371.033 465.41 369.174C465.917 367.281 466.205 364.324 466.275 360.302C466.344 356.28 466.159 350.757 465.719 343.735C465.673 343.072 465.945 342.704 466.534 342.631L488.593 339.923C489.217 339.846 489.568 340.12 489.645 340.744L493.145 369.254L495.694 368.941C496.284 368.869 496.617 369.145 496.694 369.769L498.272 382.619C498.344 383.209 498.085 383.54 497.496 383.613L491.097 384.398C490.472 384.475 490.124 384.218 490.052 383.629L489.311 377.594L469.957 379.97L470.698 386.005C470.771 386.595 470.512 386.926 469.922 386.998ZM474.51 349.521C475.316 361.251 474.836 368.668 473.07 371.772L484.775 370.335L482.105 348.588L474.51 349.521ZM518.403 374.022L504.408 375.74C503.783 375.817 503.433 375.543 503.356 374.919L499.019 339.593C498.942 338.969 499.216 338.619 499.84 338.542L506.396 337.737C506.985 337.665 507.318 337.941 507.395 338.565L508.781 349.854L514.92 349.101C519.117 348.585 522.529 349.275 525.155 351.171C527.817 353.062 529.384 355.933 529.857 359.783C530.342 363.737 529.579 366.981 527.566 369.517C525.55 372.018 522.495 373.519 518.403 374.022ZM543.167 370.981L536.611 371.786C536.022 371.858 535.689 371.582 535.612 370.958L531.275 335.633C531.198 335.009 531.455 334.66 532.044 334.588L538.599 333.783C539.224 333.706 539.574 333.98 539.651 334.604L543.988 369.93C544.065 370.554 543.791 370.904 543.167 370.981ZM509.733 357.606L510.896 367.075L516.931 366.334C520.225 365.929 521.673 364.097 521.272 360.837C520.898 357.784 519.063 356.461 515.768 356.865L509.733 357.606ZM66.3605 476.818C65.8444 480.93 64.6849 483.96 62.8819 485.906C61.0789 487.853 58.4497 489.091 54.9941 489.621C54.3698 489.697 54.0214 489.441 53.949 488.851L53.2144 482.868C53.1463 482.313 53.4027 481.965 53.9839 481.823C55.3195 481.519 56.2961 480.871 56.9137 479.879C57.5618 478.849 57.9771 477.214 58.1597 474.973C58.5803 470.943 58.3194 463.371 57.3771 452.256C57.3351 451.627 57.6263 451.275 58.2506 451.198L80.8817 448.419C81.4713 448.347 81.8044 448.623 81.8811 449.247L86.2185 484.572C86.2952 485.197 86.0387 485.545 85.449 485.617L78.8938 486.422C78.3042 486.495 77.9711 486.219 77.8944 485.594L74.4002 457.136L66.2322 458.139C66.8478 466.02 66.8906 472.247 66.3605 476.818ZM122.385 481.082L115.934 481.874C115.344 481.947 115.011 481.671 114.935 481.046L113.932 472.878C113.408 468.612 113.078 463.636 112.943 457.949L112.781 457.916C111.427 462.659 109.911 466.947 108.234 470.779L102.851 482.847C102.659 483.293 102.321 483.546 101.835 483.605L94.9156 484.455C94.326 484.527 93.9929 484.251 93.9162 483.627L89.5788 448.302C89.5022 447.678 89.7587 447.329 90.3483 447.257L96.7994 446.465C97.4237 446.388 97.7742 446.662 97.8509 447.286L98.9943 456.599C99.5309 460.969 99.9087 465.623 100.128 470.56L100.29 470.593C100.993 468.288 102.393 464.349 104.49 458.776L109.934 445.486C110.091 445.044 110.413 444.793 110.898 444.734L117.818 443.884C118.442 443.807 118.793 444.081 118.869 444.705L123.207 480.031C123.283 480.655 123.009 481.006 122.385 481.082ZM136.082 486.424L129.631 487.216C129.041 487.289 128.71 487.03 128.638 486.44L127.06 473.59C126.987 473.001 127.246 472.669 127.836 472.597L129.188 472.431C130.265 471.736 131.058 470.459 131.57 468.6C132.077 466.707 132.365 463.75 132.434 459.728C132.504 455.706 132.318 450.183 131.879 443.161C131.832 442.498 132.104 442.13 132.694 442.057L154.753 439.349C155.377 439.272 155.727 439.546 155.804 440.17L159.305 468.68L161.854 468.367C162.443 468.295 162.777 468.571 162.853 469.195L164.431 482.046C164.503 482.635 164.245 482.966 163.655 483.039L157.256 483.824C156.632 483.901 156.283 483.644 156.211 483.055L155.47 477.02L136.117 479.396L136.858 485.431C136.93 486.021 136.671 486.352 136.082 486.424ZM140.669 448.947C141.476 460.677 140.996 468.094 139.229 471.198L150.935 469.761L148.265 448.014L140.669 448.947ZM184.562 473.448L170.567 475.166C169.943 475.243 169.592 474.969 169.516 474.345L165.178 439.019C165.102 438.395 165.375 438.045 166 437.968L172.555 437.163C173.145 437.091 173.478 437.367 173.554 437.991L174.941 449.28L181.08 448.527C185.276 448.011 188.688 448.701 191.315 450.597C193.976 452.488 195.543 455.359 196.016 459.209C196.502 463.163 195.738 466.407 193.726 468.943C191.709 471.444 188.655 472.945 184.562 473.448ZM209.326 470.407L202.771 471.212C202.181 471.284 201.848 471.008 201.772 470.384L197.434 435.059C197.357 434.435 197.614 434.086 198.204 434.014L204.759 433.209C205.383 433.132 205.734 433.406 205.81 434.03L210.148 469.356C210.224 469.98 209.95 470.331 209.326 470.407ZM175.892 457.032L177.055 466.501L183.09 465.76C186.385 465.355 187.832 463.523 187.432 460.263C187.057 457.21 185.222 455.887 181.927 456.291L175.892 457.032ZM236.815 455.889C236.299 460.001 235.139 463.031 233.336 464.977C231.533 466.924 228.904 468.162 225.449 468.692C224.824 468.768 224.476 468.512 224.404 467.922L223.669 461.939C223.601 461.384 223.857 461.036 224.438 460.894C225.774 460.589 226.751 459.941 227.368 458.95C228.016 457.92 228.432 456.285 228.614 454.044C229.035 450.014 228.774 442.442 227.832 431.327C227.79 430.698 228.081 430.345 228.705 430.269L251.336 427.49C251.926 427.418 252.259 427.694 252.336 428.318L256.673 463.643C256.75 464.267 256.493 464.616 255.904 464.688L249.348 465.493C248.759 465.565 248.426 465.289 248.349 464.665L244.855 436.207L236.687 437.21C237.302 445.091 237.345 451.318 236.815 455.889ZM292.84 460.153L286.388 460.945C285.799 461.017 285.466 460.742 285.389 460.117L284.386 451.949C283.862 447.683 283.533 442.707 283.398 437.02L283.235 436.987C281.882 441.73 280.366 446.018 278.689 449.85L273.305 461.918C273.114 462.364 272.775 462.617 272.29 462.676L265.37 463.526C264.781 463.598 264.447 463.322 264.371 462.698L260.033 427.373C259.957 426.748 260.213 426.4 260.803 426.328L267.254 425.536C267.878 425.459 268.229 425.733 268.305 426.357L269.449 435.67C269.985 440.04 270.363 444.693 270.582 449.631L270.745 449.663C271.447 447.359 272.847 443.42 274.944 437.847L280.389 424.556C280.546 424.115 280.867 423.864 281.353 423.804L288.272 422.955C288.897 422.878 289.247 423.152 289.324 423.776L293.661 459.102C293.738 459.726 293.464 460.076 292.84 460.153ZM306.536 465.495L300.085 466.287C299.495 466.359 299.164 466.101 299.092 465.511L297.514 452.661C297.442 452.071 297.7 451.74 298.29 451.668L299.643 451.502C300.719 450.806 301.513 449.529 302.024 447.671C302.531 445.778 302.819 442.821 302.889 438.799C302.958 434.777 302.773 429.254 302.333 422.232C302.287 421.568 302.559 421.201 303.148 421.128L325.207 418.42C325.831 418.343 326.182 418.617 326.258 419.241L329.759 447.751L332.308 447.438C332.898 447.366 333.231 447.642 333.308 448.266L334.886 461.116C334.958 461.706 334.699 462.037 334.11 462.109L327.711 462.895C327.086 462.972 326.738 462.715 326.666 462.126L325.925 456.091L306.571 458.467L307.312 464.502C307.384 465.092 307.126 465.423 306.536 465.495ZM311.123 428.018C311.93 439.748 311.45 447.165 309.684 450.269L321.389 448.832L318.719 427.085L311.123 428.018ZM355.017 452.519L341.022 454.237C340.397 454.314 340.047 454.04 339.97 453.416L335.633 418.09C335.556 417.466 335.83 417.115 336.454 417.039L343.009 416.234C343.599 416.162 343.932 416.437 344.009 417.062L345.395 428.351L351.534 427.598C355.731 427.082 359.143 427.772 361.769 429.668C364.431 431.559 365.998 434.43 366.471 438.279C366.956 442.233 366.193 445.478 364.18 448.014C362.164 450.514 359.109 452.016 355.017 452.519ZM379.781 449.478L373.225 450.283C372.636 450.355 372.303 450.079 372.226 449.455L367.889 414.13C367.812 413.505 368.068 413.157 368.658 413.085L375.213 412.28C375.838 412.203 376.188 412.477 376.265 413.101L380.602 448.427C380.679 449.051 380.405 449.401 379.781 449.478ZM346.347 436.103L347.509 445.572L353.544 444.831C356.839 444.426 358.287 442.594 357.886 439.333C357.512 436.281 355.677 434.958 352.382 435.362L346.347 436.103ZM407.27 434.96C406.753 439.072 405.594 442.101 403.791 444.048C401.988 445.994 399.359 447.233 395.903 447.762C395.279 447.839 394.93 447.583 394.858 446.993L394.123 441.01C394.055 440.455 394.312 440.107 394.893 439.965C396.228 439.66 397.205 439.012 397.823 438.021C398.471 436.991 398.886 435.356 399.069 433.115C399.489 429.085 399.228 421.513 398.286 410.397C398.244 409.769 398.535 409.416 399.16 409.34L421.791 406.561C422.38 406.488 422.713 406.764 422.79 407.389L427.128 442.714C427.204 443.338 426.948 443.687 426.358 443.759L419.803 444.564C419.213 444.636 418.88 444.36 418.803 443.736L415.309 415.278L407.141 416.281C407.757 424.162 407.8 430.388 407.27 434.96ZM463.294 439.224L456.843 440.016C456.253 440.088 455.92 439.812 455.844 439.188L454.841 431.02C454.317 426.754 453.987 421.777 453.852 416.091L453.69 416.058C452.336 420.801 450.82 425.088 449.143 428.921L443.76 440.989C443.568 441.435 443.23 441.687 442.744 441.747L435.825 442.597C435.235 442.669 434.902 442.393 434.825 441.769L430.488 406.443C430.411 405.819 430.668 405.471 431.257 405.398L437.708 404.606C438.333 404.53 438.683 404.804 438.76 405.428L439.903 414.74C440.44 419.111 440.818 423.764 441.037 428.701L441.199 428.734C441.902 426.43 443.302 422.491 445.399 416.917L450.843 403.627C451 403.186 451.322 402.935 451.807 402.875L458.727 402.026C459.351 401.949 459.701 402.223 459.778 402.847L464.116 438.172C464.192 438.797 463.918 439.147 463.294 439.224ZM476.991 444.566L470.54 445.358C469.95 445.43 469.619 445.172 469.547 444.582L467.969 431.732C467.896 431.142 468.155 430.811 468.745 430.739L470.097 430.573C471.174 429.877 471.967 428.6 472.479 426.742C472.986 424.849 473.274 421.891 473.343 417.869C473.413 413.847 473.227 408.325 472.788 401.303C472.741 400.639 473.013 400.271 473.603 400.199L495.662 397.491C496.286 397.414 496.636 397.688 496.713 398.312L500.214 426.822L502.763 426.509C503.352 426.437 503.686 426.713 503.762 427.337L505.34 440.187C505.412 440.777 505.154 441.108 504.564 441.18L498.165 441.966C497.541 442.043 497.192 441.786 497.12 441.196L496.379 435.162L477.026 437.538L477.767 443.573C477.839 444.162 477.58 444.493 476.991 444.566ZM481.578 407.088C482.385 418.819 481.905 426.236 480.138 429.34L491.844 427.902L489.174 406.156L481.578 407.088ZM525.471 431.589L511.476 433.308C510.852 433.384 510.501 433.111 510.425 432.486L506.087 397.161C506.011 396.537 506.284 396.186 506.909 396.11L513.464 395.305C514.054 395.232 514.387 395.508 514.463 396.133L515.85 407.422L521.989 406.668C526.185 406.153 529.597 406.843 532.224 408.739C534.885 410.63 536.452 413.5 536.925 417.35C537.411 421.304 536.647 424.549 534.635 427.084C532.618 429.585 529.564 431.087 525.471 431.589ZM550.235 428.549L543.68 429.354C543.09 429.426 542.757 429.15 542.68 428.526L538.343 393.201C538.266 392.576 538.523 392.228 539.113 392.155L545.668 391.351C546.292 391.274 546.643 391.548 546.719 392.172L551.057 427.497C551.133 428.122 550.859 428.472 550.235 428.549ZM516.801 415.174L517.964 424.643L523.999 423.902C527.294 423.497 528.741 421.665 528.341 418.404C527.966 415.352 526.131 414.028 522.836 414.433L516.801 415.174ZM73.4289 534.386C72.9128 538.498 71.7533 541.527 69.9503 543.474C68.1474 545.42 65.5181 546.659 62.0625 547.188C61.4382 547.265 61.0898 547.009 61.0174 546.419L60.2828 540.436C60.2147 539.881 60.4712 539.533 61.0523 539.391C62.3879 539.086 63.3645 538.438 63.9822 537.447C64.6302 536.417 65.0455 534.782 65.2281 532.541C65.6487 528.511 65.3878 520.939 64.4455 509.823C64.4036 509.195 64.6947 508.842 65.319 508.766L87.9501 505.987C88.5397 505.914 88.8729 506.19 88.9495 506.815L93.2869 542.14C93.3636 542.764 93.1071 543.113 92.5175 543.185L85.9623 543.99C85.3726 544.062 85.0395 543.786 84.9628 543.162L81.4686 514.704L73.3007 515.707C73.9163 523.588 73.959 529.814 73.4289 534.386ZM129.454 538.65L123.002 539.442C122.413 539.514 122.08 539.238 122.003 538.614L121 530.446C120.476 526.18 120.147 521.204 120.012 515.517L119.849 515.484C118.495 520.227 116.98 524.515 115.303 528.347L109.919 540.415C109.728 540.861 109.389 541.113 108.903 541.173L101.984 542.023C101.394 542.095 101.061 541.819 100.985 541.195L96.6472 505.87C96.5706 505.245 96.8271 504.897 97.4167 504.824L103.868 504.032C104.492 503.956 104.843 504.23 104.919 504.854L106.063 514.166C106.599 518.537 106.977 523.19 107.196 528.127L107.358 528.16C108.061 525.856 109.461 521.917 111.558 516.343L117.003 503.053C117.16 502.612 117.481 502.361 117.967 502.301L124.886 501.452C125.51 501.375 125.861 501.649 125.938 502.273L130.275 537.598C130.352 538.223 130.078 538.573 129.454 538.65ZM143.15 543.992L136.699 544.784C136.109 544.856 135.778 544.598 135.706 544.008L134.128 531.158C134.056 530.568 134.314 530.237 134.904 530.165L136.257 529.999C137.333 529.303 138.127 528.026 138.638 526.168C139.145 524.275 139.433 521.318 139.503 517.295C139.572 513.273 139.387 507.751 138.947 500.729C138.901 500.065 139.173 499.698 139.762 499.625L161.821 496.917C162.445 496.84 162.796 497.114 162.872 497.738L166.373 526.248L168.922 525.935C169.512 525.863 169.845 526.139 169.922 526.763L171.499 539.613C171.572 540.203 171.313 540.534 170.724 540.606L164.325 541.392C163.7 541.469 163.352 541.212 163.279 540.622L162.538 534.588L143.185 536.964L143.926 542.999C143.998 543.588 143.74 543.919 143.15 543.992ZM147.737 506.515C148.544 518.245 148.064 525.662 146.298 528.766L158.003 527.329L155.333 505.582L147.737 506.515ZM191.63 531.015L177.636 532.734C177.011 532.81 176.661 532.537 176.584 531.912L172.247 496.587C172.17 495.963 172.444 495.612 173.068 495.536L179.623 494.731C180.213 494.658 180.546 494.934 180.623 495.559L182.009 506.848L188.148 506.094C192.345 505.579 195.757 506.269 198.383 508.165C201.045 510.056 202.612 512.926 203.085 516.776C203.57 520.73 202.807 523.975 200.794 526.51C198.778 529.011 195.723 530.513 191.63 531.015ZM216.395 527.975L209.839 528.78C209.25 528.852 208.917 528.576 208.84 527.952L204.503 492.627C204.426 492.002 204.682 491.654 205.272 491.582L211.827 490.777C212.451 490.7 212.802 490.974 212.879 491.598L217.216 526.923C217.293 527.548 217.019 527.898 216.395 527.975ZM182.961 514.6L184.123 524.069L190.158 523.328C193.453 522.923 194.901 521.091 194.5 517.83C194.126 514.778 192.291 513.454 188.996 513.859L182.961 514.6ZM243.883 513.457C243.367 517.569 242.208 520.598 240.405 522.545C238.602 524.491 235.973 525.729 232.517 526.259C231.893 526.336 231.544 526.079 231.472 525.49L230.737 519.507C230.669 518.952 230.926 518.604 231.507 518.462C232.842 518.157 233.819 517.509 234.437 516.518C235.085 515.488 235.5 513.852 235.683 511.612C236.103 507.582 235.842 500.009 234.9 488.894C234.858 488.266 235.149 487.913 235.774 487.836L258.405 485.058C258.994 484.985 259.327 485.261 259.404 485.886L263.741 521.211C263.818 521.835 263.562 522.183 262.972 522.256L256.417 523.061C255.827 523.133 255.494 522.857 255.417 522.233L251.923 493.775L243.755 494.778C244.371 502.659 244.414 508.885 243.883 513.457ZM299.908 517.721L293.457 518.513C292.867 518.585 292.534 518.309 292.457 517.685L291.455 509.517C290.931 505.251 290.601 500.274 290.466 494.587L290.304 494.555C288.95 499.298 287.434 503.585 285.757 507.418L280.374 519.485C280.182 519.931 279.844 520.184 279.358 520.244L272.439 521.093C271.849 521.166 271.516 520.89 271.439 520.266L267.102 484.94C267.025 484.316 267.282 483.968 267.871 483.895L274.322 483.103C274.947 483.027 275.297 483.3 275.374 483.925L276.517 493.237C277.054 497.607 277.432 502.261 277.651 507.198L277.813 507.231C278.516 504.927 279.916 500.988 282.013 495.414L287.457 482.124C287.614 481.682 287.936 481.432 288.421 481.372L295.341 480.522C295.965 480.446 296.315 480.72 296.392 481.344L300.729 516.669C300.806 517.294 300.532 517.644 299.908 517.721ZM313.605 523.063L307.153 523.855C306.564 523.927 306.233 523.669 306.16 523.079L304.583 510.229C304.51 509.639 304.769 509.308 305.358 509.236L306.711 509.07C307.788 508.374 308.581 507.097 309.093 505.239C309.599 503.346 309.888 500.388 309.957 496.366C310.027 492.344 309.841 486.822 309.402 479.799C309.355 479.136 309.627 478.768 310.217 478.696L332.275 475.987C332.9 475.911 333.25 476.185 333.327 476.809L336.827 505.319L339.377 505.006C339.966 504.933 340.3 505.209 340.376 505.834L341.954 518.684C342.026 519.274 341.768 519.605 341.178 519.677L334.779 520.463C334.155 520.539 333.806 520.283 333.734 519.693L332.993 513.658L313.639 516.035L314.38 522.07C314.453 522.659 314.194 522.99 313.605 523.063ZM318.192 485.585C318.999 497.316 318.519 504.733 316.752 507.837L328.458 506.399L325.788 484.653L318.192 485.585ZM362.085 510.086L348.09 511.805C347.466 511.881 347.115 511.607 347.039 510.983L342.701 475.658C342.625 475.034 342.898 474.683 343.523 474.606L350.078 473.802C350.668 473.729 351.001 474.005 351.077 474.629L352.464 485.919L358.603 485.165C362.799 484.65 366.211 485.34 368.838 487.235C371.499 489.127 373.066 491.997 373.539 495.847C374.025 499.801 373.261 503.046 371.249 505.581C369.232 508.082 366.178 509.584 362.085 510.086ZM386.849 507.046L380.294 507.851C379.704 507.923 379.371 507.647 379.294 507.023L374.957 471.697C374.88 471.073 375.137 470.725 375.726 470.652L382.282 469.847C382.906 469.771 383.256 470.045 383.333 470.669L387.671 505.994C387.747 506.619 387.473 506.969 386.849 507.046ZM353.415 493.671L354.578 503.139L360.613 502.398C363.908 501.994 365.355 500.161 364.955 496.901C364.58 493.849 362.745 492.525 359.45 492.93L353.415 493.671ZM414.338 492.528C413.822 496.64 412.662 499.669 410.859 501.616C409.056 503.562 406.427 504.8 402.971 505.33C402.347 505.407 401.999 505.15 401.926 504.561L401.192 498.578C401.124 498.023 401.38 497.674 401.961 497.533C403.297 497.228 404.274 496.58 404.891 495.589C405.539 494.559 405.955 492.923 406.137 490.683C406.558 486.653 406.297 479.08 405.355 467.965C405.313 467.336 405.604 466.984 406.228 466.907L428.859 464.128C429.449 464.056 429.782 464.332 429.859 464.956L434.196 500.282C434.273 500.906 434.016 501.254 433.426 501.327L426.871 502.132C426.282 502.204 425.949 501.928 425.872 501.304L422.378 472.846L414.21 473.849C414.825 481.73 414.868 487.956 414.338 492.528ZM470.362 496.791L463.911 497.584C463.322 497.656 462.989 497.38 462.912 496.756L461.909 488.588C461.385 484.322 461.056 479.345 460.921 473.658L460.758 473.625C459.404 478.369 457.889 482.656 456.212 486.488L450.828 498.556C450.637 499.002 450.298 499.255 449.812 499.315L442.893 500.164C442.303 500.237 441.97 499.961 441.894 499.336L437.556 464.011C437.48 463.387 437.736 463.039 438.326 462.966L444.777 462.174C445.401 462.097 445.752 462.371 445.828 462.995L446.972 472.308C447.508 476.678 447.886 481.332 448.105 486.269L448.267 486.302C448.97 483.998 450.37 480.059 452.467 474.485L457.912 461.195C458.069 460.753 458.39 460.503 458.876 460.443L465.795 459.593C466.419 459.517 466.77 459.79 466.847 460.415L471.184 495.74C471.261 496.364 470.987 496.715 470.362 496.791ZM484.059 502.133L477.608 502.926C477.018 502.998 476.687 502.739 476.615 502.15L475.037 489.299C474.965 488.71 475.223 488.379 475.813 488.306L477.166 488.14C478.242 487.445 479.036 486.168 479.547 484.31C480.054 482.417 480.342 479.459 480.412 475.437C480.481 471.415 480.296 465.893 479.856 458.87C479.81 458.207 480.082 457.839 480.671 457.767L502.73 455.058C503.354 454.982 503.705 455.255 503.781 455.88L507.282 484.39L509.831 484.077C510.421 484.004 510.754 484.28 510.831 484.905L512.408 497.755C512.481 498.344 512.222 498.675 511.633 498.748L505.233 499.534C504.609 499.61 504.261 499.354 504.188 498.764L503.447 492.729L484.094 495.105L484.835 501.14C484.907 501.73 484.649 502.061 484.059 502.133ZM488.646 464.656C489.453 476.387 488.973 483.804 487.207 486.907L498.912 485.47L496.242 463.724L488.646 464.656ZM532.539 489.157L518.545 490.875C517.92 490.952 517.57 490.678 517.493 490.054L513.156 454.729C513.079 454.104 513.353 453.754 513.977 453.677L520.532 452.872C521.122 452.8 521.455 453.076 521.532 453.7L522.918 464.99L529.057 464.236C533.254 463.721 536.665 464.411 539.292 466.306C541.954 468.198 543.521 471.068 543.994 474.918C544.479 478.872 543.716 482.117 541.703 484.652C539.687 487.153 536.632 488.655 532.539 489.157ZM557.304 486.116L550.748 486.921C550.159 486.994 549.826 486.718 549.749 486.093L545.412 450.768C545.335 450.144 545.591 449.796 546.181 449.723L552.736 448.918C553.36 448.842 553.711 449.115 553.788 449.74L558.125 485.065C558.202 485.689 557.928 486.04 557.304 486.116ZM523.87 472.742L525.032 482.21L531.067 481.469C534.362 481.065 535.81 479.232 535.409 475.972C535.035 472.92 533.2 471.596 529.905 472.001L523.87 472.742ZM80.4974 591.954C79.9813 596.066 78.8217 599.095 77.0188 601.042C75.2158 602.988 72.5865 604.226 69.1309 604.756C68.5066 604.833 68.1583 604.576 68.0859 603.987L67.3512 598.004C67.2831 597.449 67.5396 597.1 68.1207 596.959C69.4563 596.654 70.433 596.006 71.0506 595.015C71.6986 593.985 72.114 592.349 72.2966 590.109C72.7171 586.079 72.4562 578.506 71.5139 567.391C71.472 566.763 71.7631 566.41 72.3874 566.333L95.0185 563.555C95.6081 563.482 95.9413 563.758 96.0179 564.382L100.355 599.708C100.432 600.332 100.176 600.68 99.5859 600.753L93.0307 601.558C92.4411 601.63 92.1079 601.354 92.0313 600.73L88.5371 572.272L80.3691 573.275C80.9847 581.156 81.0274 587.382 80.4974 591.954ZM136.522 596.218L130.071 597.01C129.481 597.082 129.148 596.806 129.071 596.182L128.068 588.014C127.545 583.748 127.215 578.771 127.08 573.084L126.918 573.051C125.564 577.795 124.048 582.082 122.371 585.914L116.988 597.982C116.796 598.428 116.457 598.681 115.972 598.741L109.052 599.59C108.463 599.663 108.13 599.387 108.053 598.762L103.716 563.437C103.639 562.813 103.895 562.465 104.485 562.392L110.936 561.6C111.561 561.523 111.911 561.797 111.988 562.422L113.131 571.734C113.668 576.104 114.046 580.758 114.264 585.695L114.427 585.728C115.13 583.424 116.53 579.485 118.627 573.911L124.071 560.621C124.228 560.179 124.55 559.929 125.035 559.869L131.955 559.019C132.579 558.943 132.929 559.216 133.006 559.841L137.343 595.166C137.42 595.79 137.146 596.141 136.522 596.218ZM150.219 601.56L143.767 602.352C143.178 602.424 142.847 602.165 142.774 601.576L141.197 588.725C141.124 588.136 141.383 587.805 141.972 587.732L143.325 587.566C144.401 586.871 145.195 585.594 145.706 583.736C146.213 581.843 146.502 578.885 146.571 574.863C146.64 570.841 146.455 565.319 146.016 558.296C145.969 557.633 146.241 557.265 146.831 557.193L168.889 554.484C169.514 554.408 169.864 554.681 169.941 555.306L173.441 583.816L175.991 583.503C176.58 583.43 176.913 583.706 176.99 584.331L178.568 597.181C178.64 597.77 178.382 598.102 177.792 598.174L171.393 598.96C170.769 599.036 170.42 598.78 170.348 598.19L169.607 592.155L150.253 594.532L150.994 600.566C151.067 601.156 150.808 601.487 150.219 601.56ZM154.806 564.082C155.612 575.813 155.132 583.23 153.366 586.333L165.072 584.896L162.402 563.15L154.806 564.082ZM198.699 588.583L184.704 590.302C184.08 590.378 183.729 590.104 183.653 589.48L179.315 554.155C179.239 553.53 179.512 553.18 180.137 553.103L186.692 552.298C187.281 552.226 187.615 552.502 187.691 553.126L189.077 564.416L195.216 563.662C199.413 563.147 202.825 563.837 205.452 565.732C208.113 567.624 209.68 570.494 210.153 574.344C210.638 578.298 209.875 581.543 207.863 584.078C205.846 586.579 202.792 588.081 198.699 588.583ZM223.463 585.543L216.908 586.347C216.318 586.42 215.985 586.144 215.908 585.52L211.571 550.194C211.494 549.57 211.751 549.222 212.34 549.149L218.896 548.344C219.52 548.268 219.87 548.541 219.947 549.166L224.284 584.491C224.361 585.115 224.087 585.466 223.463 585.543ZM190.029 572.168L191.192 581.636L197.227 580.895C200.522 580.491 201.969 578.658 201.569 575.398C201.194 572.346 199.359 571.022 196.064 571.427L190.029 572.168ZM250.952 571.024C250.436 575.137 249.276 578.166 247.473 580.112C245.67 582.059 243.041 583.297 239.585 583.827C238.961 583.904 238.613 583.647 238.54 583.058L237.806 577.075C237.738 576.52 237.994 576.171 238.575 576.03C239.911 575.725 240.887 575.077 241.505 574.086C242.153 573.055 242.568 571.42 242.751 569.18C243.172 565.15 242.911 557.577 241.968 546.462C241.926 545.833 242.218 545.481 242.842 545.404L265.473 542.625C266.063 542.553 266.396 542.829 266.472 543.453L270.81 578.778C270.886 579.403 270.63 579.751 270.04 579.824L263.485 580.628C262.896 580.701 262.562 580.425 262.486 579.801L258.992 551.343L250.824 552.346C251.439 560.227 251.482 566.453 250.952 571.024ZM306.976 575.288L300.525 576.08C299.936 576.153 299.603 575.877 299.526 575.253L298.523 567.085C297.999 562.819 297.67 557.842 297.535 552.155L297.372 552.122C296.018 556.865 294.503 561.153 292.826 564.985L287.442 577.053C287.251 577.499 286.912 577.752 286.426 577.812L279.507 578.661C278.917 578.734 278.584 578.458 278.508 577.833L274.17 542.508C274.094 541.884 274.35 541.535 274.94 541.463L281.391 540.671C282.015 540.594 282.366 540.868 282.442 541.492L283.586 550.805C284.122 555.175 284.5 559.829 284.719 564.766L284.881 564.799C285.584 562.495 286.984 558.556 289.081 552.982L294.526 539.692C294.683 539.25 295.004 538.999 295.49 538.94L302.409 538.09C303.033 538.013 303.384 538.287 303.461 538.912L307.798 574.237C307.875 574.861 307.601 575.212 306.976 575.288ZM320.673 580.63L314.222 581.422C313.632 581.495 313.301 581.236 313.229 580.647L311.651 567.796C311.579 567.207 311.837 566.876 312.427 566.803L313.78 566.637C314.856 565.942 315.65 564.665 316.161 562.807C316.668 560.914 316.956 557.956 317.025 553.934C317.095 549.912 316.91 544.39 316.47 537.367C316.424 536.704 316.695 536.336 317.285 536.264L339.344 533.555C339.968 533.478 340.319 533.752 340.395 534.377L343.896 562.887L346.445 562.574C347.035 562.501 347.368 562.777 347.445 563.401L349.022 576.252C349.095 576.841 348.836 577.172 348.247 577.245L341.847 578.03C341.223 578.107 340.875 577.851 340.802 577.261L340.061 571.226L320.708 573.602L321.449 579.637C321.521 580.227 321.263 580.558 320.673 580.63ZM325.26 543.153C326.067 554.883 325.587 562.3 323.82 565.404L335.526 563.967L332.856 542.22L325.26 543.153ZM369.153 567.654L355.158 569.372C354.534 569.449 354.184 569.175 354.107 568.551L349.77 533.226C349.693 532.601 349.967 532.251 350.591 532.174L357.146 531.369C357.736 531.297 358.069 531.573 358.146 532.197L359.532 543.487L365.671 542.733C369.868 542.218 373.279 542.908 375.906 544.803C378.568 546.694 380.135 549.565 380.607 553.415C381.093 557.369 380.33 560.613 378.317 563.149C376.301 565.65 373.246 567.151 369.153 567.654ZM393.917 564.613L387.362 565.418C386.773 565.491 386.439 565.215 386.363 564.59L382.025 529.265C381.949 528.641 382.205 528.292 382.795 528.22L389.35 527.415C389.974 527.338 390.325 527.612 390.402 528.237L394.739 563.562C394.816 564.186 394.542 564.537 393.917 564.613ZM360.484 551.238L361.646 560.707L367.681 559.966C370.976 559.562 372.424 557.729 372.023 554.469C371.648 551.417 369.814 550.093 366.519 550.497L360.484 551.238ZM421.406 550.095C420.89 554.207 419.731 557.237 417.928 559.183C416.125 561.13 413.496 562.368 410.04 562.898C409.416 562.974 409.067 562.718 408.995 562.128L408.26 556.145C408.192 555.59 408.449 555.242 409.03 555.1C410.365 554.796 411.342 554.148 411.96 553.156C412.608 552.126 413.023 550.491 413.206 548.25C413.626 544.22 413.365 536.648 412.423 525.533C412.381 524.904 412.672 524.552 413.296 524.475L435.928 521.696C436.517 521.624 436.85 521.9 436.927 522.524L441.264 557.849C441.341 558.474 441.085 558.822 440.495 558.894L433.94 559.699C433.35 559.772 433.017 559.496 432.94 558.871L429.446 530.413L421.278 531.416C421.894 539.297 421.936 545.524 421.406 550.095ZM477.431 554.359L470.98 555.151C470.39 555.224 470.057 554.948 469.98 554.323L468.977 546.155C468.454 541.889 468.124 536.913 467.989 531.226L467.827 531.193C466.473 535.936 464.957 540.224 463.28 544.056L457.897 556.124C457.705 556.57 457.366 556.823 456.881 556.882L449.961 557.732C449.372 557.804 449.039 557.528 448.962 556.904L444.625 521.579C444.548 520.955 444.804 520.606 445.394 520.534L451.845 519.742C452.47 519.665 452.82 519.939 452.897 520.563L454.04 529.876C454.577 534.246 454.954 538.9 455.173 543.837L455.336 543.87C456.039 541.565 457.439 537.626 459.536 532.053L464.98 518.763C465.137 518.321 465.459 518.07 465.944 518.011L472.864 517.161C473.488 517.084 473.838 517.358 473.915 517.982L478.252 553.308C478.329 553.932 478.055 554.283 477.431 554.359ZM491.128 559.701L484.676 560.493C484.087 560.566 483.756 560.307 483.683 559.717L482.106 546.867C482.033 546.277 482.292 545.946 482.881 545.874L484.234 545.708C485.31 545.013 486.104 543.736 486.615 541.877C487.122 539.984 487.411 537.027 487.48 533.005C487.549 528.983 487.364 523.46 486.925 516.438C486.878 515.775 487.15 515.407 487.74 515.334L509.798 512.626C510.423 512.549 510.773 512.823 510.85 513.447L514.35 541.957L516.9 541.644C517.489 541.572 517.822 541.848 517.899 542.472L519.477 555.323C519.549 555.912 519.291 556.243 518.701 556.316L512.302 557.101C511.678 557.178 511.329 556.921 511.257 556.332L510.516 550.297L491.162 552.673L491.903 558.708C491.976 559.298 491.717 559.629 491.128 559.701ZM495.715 522.224C496.521 533.954 496.041 541.371 494.275 544.475L505.981 543.038L503.311 521.291L495.715 522.224ZM539.608 546.725L525.613 548.443C524.989 548.52 524.638 548.246 524.562 547.622L520.224 512.296C520.148 511.672 520.421 511.322 521.046 511.245L527.601 510.44C528.19 510.368 528.524 510.644 528.6 511.268L529.986 522.557L536.125 521.804C540.322 521.288 543.734 521.978 546.361 523.874C549.022 525.765 550.589 528.636 551.062 532.486C551.547 536.44 550.784 539.684 548.772 542.22C546.755 544.721 543.701 546.222 539.608 546.725ZM564.372 543.684L557.817 544.489C557.227 544.561 556.894 544.285 556.817 543.661L552.48 508.336C552.403 507.712 552.66 507.363 553.249 507.291L559.805 506.486C560.429 506.409 560.779 506.683 560.856 507.307L565.193 542.633C565.27 543.257 564.996 543.608 564.372 543.684ZM530.938 530.309L532.101 539.778L538.136 539.037C541.431 538.632 542.878 536.8 542.478 533.54C542.103 530.487 540.268 529.164 536.973 529.568L530.938 530.309ZM87.5658 649.521C87.0497 653.633 85.8902 656.663 84.0872 658.609C82.2842 660.556 79.6549 661.794 76.1993 662.324C75.575 662.4 75.2267 662.144 75.1543 661.554L74.4197 655.571C74.3515 655.017 74.608 654.668 75.1891 654.526C76.5247 654.222 77.5014 653.574 78.119 652.582C78.7671 651.552 79.1824 649.917 79.365 647.676C79.7855 643.647 79.5247 636.074 78.5824 624.959C78.5404 624.33 78.8316 623.978 79.4559 623.901L102.087 621.122C102.677 621.05 103.01 621.326 103.086 621.95L107.424 657.275C107.5 657.9 107.244 658.248 106.654 658.32L100.099 659.125C99.5095 659.198 99.1763 658.922 99.0997 658.297L95.6055 629.839L87.4375 630.842C88.0531 638.723 88.0959 644.95 87.5658 649.521ZM143.59 653.785L137.139 654.577C136.55 654.65 136.216 654.374 136.14 653.749L135.137 645.581C134.613 641.315 134.284 636.339 134.149 630.652L133.986 630.619C132.632 635.362 131.117 639.65 129.44 643.482L124.056 655.55C123.864 655.996 123.526 656.249 123.04 656.308L116.121 657.158C115.531 657.23 115.198 656.954 115.121 656.33L110.784 621.005C110.707 620.381 110.964 620.032 111.554 619.96L118.005 619.168C118.629 619.091 118.979 619.365 119.056 619.989L120.2 629.302C120.736 633.672 121.114 638.326 121.333 643.263L121.495 643.296C122.198 640.991 123.598 637.052 125.695 631.479L131.14 618.189C131.297 617.747 131.618 617.496 132.104 617.437L139.023 616.587C139.647 616.51 139.998 616.784 140.074 617.408L144.412 652.734C144.488 653.358 144.215 653.709 143.59 653.785ZM157.287 659.127L150.836 659.919C150.246 659.992 149.915 659.733 149.843 659.143L148.265 646.293C148.193 645.704 148.451 645.373 149.041 645.3L150.393 645.134C151.47 644.439 152.264 643.162 152.775 641.303C153.282 639.41 153.57 636.453 153.639 632.431C153.709 628.409 153.524 622.886 153.084 615.864C153.038 615.201 153.309 614.833 153.899 614.76L175.958 612.052C176.582 611.975 176.933 612.249 177.009 612.873L180.51 641.383L183.059 641.07C183.649 640.998 183.982 641.274 184.058 641.898L185.636 654.749C185.709 655.338 185.45 655.669 184.86 655.742L178.461 656.527C177.837 656.604 177.489 656.347 177.416 655.758L176.675 649.723L157.322 652.099L158.063 658.134C158.135 658.724 157.877 659.055 157.287 659.127ZM161.874 621.65C162.681 633.38 162.201 640.797 160.434 643.901L172.14 642.464L169.47 620.717L161.874 621.65ZM205.767 646.151L191.772 647.869C191.148 647.946 190.798 647.672 190.721 647.048L186.384 611.722C186.307 611.098 186.581 610.748 187.205 610.671L193.76 609.866C194.35 609.794 194.683 610.07 194.76 610.694L196.146 621.984L202.285 621.23C206.482 620.714 209.893 621.405 212.52 623.3C215.182 625.191 216.749 628.062 217.221 631.912C217.707 635.866 216.943 639.11 214.931 641.646C212.915 644.147 209.86 645.648 205.767 646.151ZM230.531 643.11L223.976 643.915C223.387 643.987 223.053 643.712 222.977 643.087L218.639 607.762C218.563 607.138 218.819 606.789 219.409 606.717L225.964 605.912C226.588 605.835 226.939 606.109 227.015 606.733L231.353 642.059C231.43 642.683 231.156 643.034 230.531 643.11ZM197.098 629.735L198.26 639.204L204.295 638.463C207.59 638.058 209.037 636.226 208.637 632.966C208.262 629.914 206.428 628.59 203.133 628.994L197.098 629.735ZM258.02 628.592C257.504 632.704 256.345 635.734 254.542 637.68C252.739 639.627 250.109 640.865 246.654 641.395C246.03 641.471 245.681 641.215 245.609 640.625L244.874 634.642C244.806 634.087 245.063 633.739 245.644 633.597C246.979 633.292 247.956 632.644 248.574 631.653C249.222 630.623 249.637 628.988 249.819 626.747C250.24 622.717 249.979 615.145 249.037 604.03C248.995 603.401 249.286 603.048 249.91 602.972L272.541 600.193C273.131 600.121 273.464 600.397 273.541 601.021L277.878 636.346C277.955 636.97 277.698 637.319 277.109 637.391L270.554 638.196C269.964 638.268 269.631 637.993 269.554 637.368L266.06 608.91L257.892 609.913C258.508 617.794 258.55 624.021 258.02 628.592ZM314.045 632.856L307.594 633.648C307.004 633.721 306.671 633.445 306.594 632.82L305.591 624.652C305.068 620.386 304.738 615.41 304.603 609.723L304.441 609.69C303.087 614.433 301.571 618.721 299.894 622.553L294.511 634.621C294.319 635.067 293.98 635.32 293.495 635.379L286.575 636.229C285.986 636.301 285.653 636.025 285.576 635.401L281.239 600.076C281.162 599.451 281.418 599.103 282.008 599.031L288.459 598.239C289.084 598.162 289.434 598.436 289.511 599.06L290.654 608.373C291.191 612.743 291.568 617.396 291.787 622.334L291.95 622.367C292.653 620.062 294.053 616.123 296.15 610.55L301.594 597.259C301.751 596.818 302.073 596.567 302.558 596.507L309.477 595.658C310.102 595.581 310.452 595.855 310.529 596.479L314.866 631.805C314.943 632.429 314.669 632.779 314.045 632.856ZM327.741 638.198L321.29 638.99C320.701 639.062 320.37 638.804 320.297 638.214L318.719 625.364C318.647 624.774 318.906 624.443 319.495 624.371L320.848 624.205C321.924 623.509 322.718 622.233 323.229 620.374C323.736 618.481 324.024 615.524 324.094 611.502C324.163 607.48 323.978 601.957 323.538 594.935C323.492 594.271 323.764 593.904 324.354 593.831L346.412 591.123C347.037 591.046 347.387 591.32 347.464 591.944L350.964 620.454L353.514 620.141C354.103 620.069 354.436 620.345 354.513 620.969L356.091 633.819C356.163 634.409 355.905 634.74 355.315 634.812L348.916 635.598C348.292 635.675 347.943 635.418 347.871 634.829L347.13 628.794L327.776 631.17L328.517 637.205C328.59 637.795 328.331 638.126 327.741 638.198ZM332.329 600.721C333.135 612.451 332.655 619.868 330.889 622.972L342.595 621.535L339.924 599.788L332.329 600.721ZM376.222 625.222L362.227 626.94C361.603 627.017 361.252 626.743 361.175 626.119L356.838 590.793C356.761 590.169 357.035 589.818 357.66 589.742L364.215 588.937C364.804 588.865 365.138 589.14 365.214 589.765L366.6 601.054L372.739 600.301C376.936 599.785 380.348 600.475 382.975 602.371C385.636 604.262 387.203 607.133 387.676 610.982C388.161 614.936 387.398 618.181 385.386 620.717C383.369 623.217 380.314 624.719 376.222 625.222ZM400.986 622.181L394.431 622.986C393.841 623.058 393.508 622.782 393.431 622.158L389.094 586.833C389.017 586.208 389.274 585.86 389.863 585.788L396.419 584.983C397.043 584.906 397.393 585.18 397.47 585.804L401.807 621.13C401.884 621.754 401.61 622.104 400.986 622.181ZM367.552 608.806L368.715 618.275L374.75 617.534C378.045 617.129 379.492 615.297 379.092 612.037C378.717 608.984 376.882 607.661 373.587 608.065L367.552 608.806ZM428.475 607.663C427.959 611.775 426.799 614.804 424.996 616.751C423.193 618.697 420.564 619.936 417.108 620.465C416.484 620.542 416.136 620.286 416.063 619.696L415.329 613.713C415.261 613.158 415.517 612.81 416.098 612.668C417.434 612.363 418.41 611.715 419.028 610.724C419.676 609.694 420.091 608.059 420.274 605.818C420.695 601.788 420.434 594.216 419.491 583.1C419.449 582.472 419.741 582.119 420.365 582.043L442.996 579.264C443.586 579.191 443.919 579.467 443.995 580.092L448.333 615.417C448.409 616.041 448.153 616.39 447.563 616.462L441.008 617.267C440.418 617.339 440.085 617.063 440.009 616.439L436.514 587.981L428.347 588.984C428.962 596.865 429.005 603.091 428.475 607.663ZM484.499 611.927L478.048 612.719C477.459 612.791 477.125 612.515 477.049 611.891L476.046 603.723C475.522 599.457 475.193 594.481 475.058 588.794L474.895 588.761C473.541 593.504 472.026 597.792 470.349 601.624L464.965 613.692C464.773 614.138 464.435 614.39 463.949 614.45L457.03 615.3C456.44 615.372 456.107 615.096 456.03 614.472L451.693 579.147C451.616 578.522 451.873 578.174 452.463 578.101L458.914 577.309C459.538 577.233 459.888 577.507 459.965 578.131L461.109 587.443C461.645 591.814 462.023 596.467 462.242 601.404L462.404 601.437C463.107 599.133 464.507 595.194 466.604 589.62L472.049 576.33C472.206 575.889 472.527 575.638 473.013 575.578L479.932 574.729C480.556 574.652 480.907 574.926 480.983 575.55L485.321 610.875C485.397 611.5 485.124 611.85 484.499 611.927ZM498.196 617.269L491.745 618.061C491.155 618.133 490.824 617.875 490.752 617.285L489.174 604.435C489.102 603.845 489.36 603.514 489.95 603.442L491.302 603.276C492.379 602.58 493.173 601.303 493.684 599.445C494.191 597.552 494.479 594.595 494.548 590.572C494.618 586.55 494.433 581.028 493.993 574.006C493.947 573.342 494.218 572.974 494.808 572.902L516.867 570.194C517.491 570.117 517.842 570.391 517.918 571.015L521.419 599.525L523.968 599.212C524.558 599.14 524.891 599.416 524.967 600.04L526.545 612.89C526.618 613.48 526.359 613.811 525.769 613.883L519.37 614.669C518.746 614.746 518.398 614.489 518.325 613.899L517.584 607.865L498.231 610.241L498.972 616.276C499.044 616.865 498.786 617.196 498.196 617.269ZM502.783 579.792C503.59 591.522 503.11 598.939 501.343 602.043L513.049 600.606L510.379 578.859L502.783 579.792ZM546.676 604.292L532.681 606.011C532.057 606.087 531.707 605.814 531.63 605.189L527.293 569.864C527.216 569.24 527.49 568.889 528.114 568.813L534.669 568.008C535.259 567.935 535.592 568.211 535.669 568.836L537.055 580.125L543.194 579.371C547.391 578.856 550.802 579.546 553.429 581.442C556.091 583.333 557.658 586.203 558.13 590.053C558.616 594.007 557.852 597.252 555.84 599.787C553.824 602.288 550.769 603.79 546.676 604.292ZM571.44 601.252L564.885 602.057C564.296 602.129 563.962 601.853 563.886 601.229L559.548 565.904C559.472 565.279 559.728 564.931 560.318 564.859L566.873 564.054C567.497 563.977 567.848 564.251 567.924 564.875L572.262 600.2C572.339 600.825 572.065 601.175 571.44 601.252ZM538.007 587.877L539.169 597.346L545.204 596.605C548.499 596.2 549.946 594.368 549.546 591.107C549.171 588.055 547.337 586.731 544.042 587.136L538.007 587.877Z"
            fill="url(#paint0_linear_286_4525)" />
    </g>
    <g style="mix-blend-mode:overlay">
        <g clip-path="url(#clip0_286_4525)">
            <path
                d="M1565.61 309.733L1423.06 136.038L1444.28 0L1585.9 179.61L1775.5 51.6545L1754.28 187.693L1565.61 309.733ZM1516.07 277.773L1512.38 301.432L1400 283.883L1419.37 159.674L1516.07 277.773ZM1750.59 211.352L1731.22 335.561L1618.84 318.035L1622.53 294.376L1750.59 211.352Z"
                fill="white" />
        </g>
    </g>
    <defs>
        <linearGradient id="paint0_linear_286_4525" x1="399.5" y1="193" x2="28.0079" y2="612.195"
            gradientUnits="userSpaceOnUse">
            <stop stop-color="white" stop-opacity="0" />
            <stop offset="1" stop-color="white" />
        </linearGradient>
        <clipPath id="clip0_286_4525">
            <rect width="335.227" height="287.338" fill="white" transform="translate(1444.28) rotate(8.86391)" />
        </clipPath>
    </defs>
</svg>