<svg width="390" height="747" viewBox="0 0 390 747" fill="none" xmlns="http://www.w3.org/2000/svg">

    <g clip-path="url(#clip0_376_51386)">
        <path
            d="M282.954 190.678L195.196 83.7478L208.257 0L295.446 110.571L412.164 31.7995L399.104 115.547L282.954 190.678ZM252.454 171.002L250.183 185.567L181.002 174.764L192.927 98.2984L252.454 171.002ZM396.832 130.112L384.907 206.577L315.725 195.788L317.996 181.223L396.832 130.112Z"
            fill="white" />
    </g>


    <path
        d="M-136.24 483.041C-136.559 485.581 -137.275 487.453 -138.389 488.656C-139.503 489.859 -141.128 490.624 -143.263 490.951C-143.649 490.999 -143.864 490.84 -143.909 490.476L-144.363 486.779C-144.405 486.436 -144.247 486.221 -143.888 486.133C-143.062 485.945 -142.459 485.544 -142.077 484.932C-141.677 484.295 -141.42 483.285 -141.307 481.901C-141.047 479.41 -141.209 474.731 -141.791 467.863C-141.817 467.475 -141.637 467.257 -141.251 467.209L-127.267 465.492C-126.903 465.448 -126.697 465.618 -126.649 466.004L-123.969 487.832C-123.922 488.218 -124.08 488.433 -124.445 488.478L-128.495 488.975C-128.86 489.02 -129.065 488.849 -129.113 488.463L-131.272 470.879L-136.319 471.499C-135.939 476.368 -135.912 480.216 -136.24 483.041ZM-101.621 485.675L-105.608 486.165C-105.972 486.209 -106.178 486.039 -106.225 485.653L-106.845 480.606C-107.169 477.97 -107.372 474.895 -107.455 471.381L-107.556 471.361C-108.393 474.291 -109.329 476.941 -110.365 479.309L-113.692 486.766C-113.81 487.041 -114.02 487.198 -114.32 487.234L-118.595 487.759C-118.959 487.804 -119.165 487.634 -119.213 487.248L-121.893 465.42C-121.94 465.034 -121.782 464.819 -121.417 464.774L-117.431 464.285C-117.045 464.237 -116.829 464.406 -116.781 464.792L-116.075 470.547C-115.743 473.247 -115.51 476.123 -115.375 479.173L-115.274 479.194C-114.84 477.77 -113.975 475.336 -112.679 471.892L-109.315 463.68C-109.218 463.407 -109.019 463.252 -108.719 463.215L-104.444 462.69C-104.058 462.643 -103.841 462.812 -103.794 463.198L-101.114 485.026C-101.066 485.411 -101.236 485.628 -101.621 485.675ZM-93.158 488.976L-97.1443 489.466C-97.5086 489.51 -97.7132 489.351 -97.7579 488.986L-98.7328 481.046C-98.7776 480.681 -98.6178 480.477 -98.2534 480.432L-97.4176 480.33C-96.7525 479.9 -96.262 479.111 -95.9461 477.963C-95.6329 476.793 -95.4548 474.965 -95.4119 472.48C-95.369 469.995 -95.4834 466.582 -95.7551 462.243C-95.7837 461.833 -95.6158 461.606 -95.2515 461.561L-81.621 459.888C-81.2353 459.84 -81.0187 460.009 -80.9713 460.395L-78.8083 478.012L-77.233 477.819C-76.8687 477.774 -76.6629 477.944 -76.6155 478.33L-75.6405 486.271C-75.5958 486.635 -75.7556 486.839 -76.1199 486.884L-80.0741 487.37C-80.4598 487.417 -80.6751 487.259 -80.7198 486.894L-81.1777 483.165L-93.1365 484.633L-92.6786 488.363C-92.6339 488.727 -92.7937 488.931 -93.158 488.976ZM-90.3235 465.818C-89.8251 473.067 -90.1216 477.65 -91.2132 479.568L-83.98 478.68L-85.63 465.242L-90.3235 465.818ZM-63.2013 480.958L-71.8489 482.02C-72.2347 482.067 -72.4513 481.898 -72.4986 481.512L-75.1788 459.684C-75.2261 459.298 -75.0569 459.082 -74.6712 459.034L-70.6206 458.537C-70.2563 458.492 -70.0504 458.663 -70.0031 459.049L-69.1465 466.024L-65.3531 465.559C-62.7599 465.24 -60.6517 465.667 -59.0286 466.838C-57.384 468.007 -56.4157 469.78 -56.1236 472.159C-55.8236 474.602 -56.2954 476.607 -57.5388 478.174C-58.7849 479.719 -60.6724 480.647 -63.2013 480.958ZM-47.8992 479.079L-51.9497 479.576C-52.3141 479.621 -52.5199 479.451 -52.5673 479.065L-55.2474 457.237C-55.2948 456.851 -55.1363 456.636 -54.772 456.591L-50.7214 456.094C-50.3356 456.046 -50.1191 456.215 -50.0717 456.601L-47.3916 478.429C-47.3442 478.815 -47.5134 479.032 -47.8992 479.079ZM-68.5584 470.814L-67.84 476.665L-64.1109 476.207C-62.0749 475.957 -61.1806 474.825 -61.4279 472.811C-61.6595 470.925 -62.7933 470.107 -64.8293 470.357L-68.5584 470.814ZM-30.9134 470.108C-31.2323 472.649 -31.9487 474.521 -33.0628 475.724C-34.1769 476.926 -35.8016 477.691 -37.9369 478.019C-38.3226 478.066 -38.5379 477.908 -38.5826 477.543L-39.0365 473.847C-39.0786 473.504 -38.9202 473.288 -38.5611 473.201C-37.7358 473.012 -37.1323 472.612 -36.7507 472C-36.3502 471.363 -36.0936 470.353 -35.9808 468.968C-35.7209 466.478 -35.8821 461.799 -36.4643 454.93C-36.4903 454.542 -36.3104 454.324 -35.9246 454.277L-21.9405 452.56C-21.5762 452.515 -21.3703 452.686 -21.3229 453.071L-18.6428 474.899C-18.5954 475.285 -18.7539 475.5 -19.1183 475.545L-23.1688 476.042C-23.5332 476.087 -23.739 475.917 -23.7864 475.531L-25.9455 457.946L-30.9926 458.566C-30.6122 463.436 -30.5858 467.283 -30.9134 470.108ZM3.70509 472.743L-0.281176 473.232C-0.645513 473.277 -0.851365 473.106 -0.898731 472.721L-1.51844 467.674C-1.84211 465.037 -2.04564 461.962 -2.12903 458.448L-2.22942 458.428C-3.06607 461.359 -4.00253 464.008 -5.03882 466.376L-8.36538 473.833C-8.48382 474.109 -8.69306 474.265 -8.9931 474.302L-13.2687 474.827C-13.633 474.872 -13.8389 474.701 -13.8863 474.315L-16.5664 452.487C-16.6138 452.102 -16.4553 451.886 -16.0909 451.842L-12.1047 451.352C-11.7189 451.305 -11.5023 451.474 -11.455 451.86L-10.7484 457.614C-10.4169 460.314 -10.1834 463.19 -10.0481 466.241L-9.94776 466.261C-9.51345 464.837 -8.64843 462.403 -7.35269 458.959L-3.98833 450.747C-3.89132 450.474 -3.69279 450.319 -3.39275 450.282L0.882847 449.757C1.26862 449.71 1.48518 449.879 1.53255 450.265L4.21269 472.093C4.26006 472.479 4.09086 472.695 3.70509 472.743ZM12.1684 476.044L8.18217 476.533C7.81783 476.578 7.6133 476.418 7.56856 476.054L6.59361 468.113C6.54887 467.749 6.70867 467.544 7.07301 467.5L7.90884 467.397C8.57398 466.967 9.06447 466.178 9.38033 465.03C9.69356 463.86 9.87163 462.033 9.91455 459.548C9.95747 457.062 9.84305 453.65 9.57131 449.311C9.54274 448.901 9.71063 448.674 10.075 448.629L23.7054 446.955C24.0912 446.908 24.3078 447.077 24.3551 447.463L26.5182 465.08L28.0934 464.886C28.4578 464.841 28.6636 465.012 28.711 465.398L29.6859 473.338C29.7307 473.702 29.5709 473.907 29.2065 473.952L25.2524 474.437C24.8666 474.485 24.6514 474.326 24.6066 473.962L24.1488 470.233L12.19 471.701L12.6478 475.43C12.6926 475.794 12.5328 475.999 12.1684 476.044ZM15.003 452.886C15.5014 460.134 15.2048 464.717 14.1133 466.635L21.3464 465.747L19.6965 452.31L15.003 452.886ZM42.1252 468.025L33.4775 469.087C33.0918 469.135 32.8752 468.965 32.8278 468.58L30.1477 446.752C30.1003 446.366 30.2695 446.149 30.6553 446.102L34.7058 445.604C35.0702 445.56 35.276 445.73 35.3234 446.116L36.1799 453.092L39.9733 452.626C42.5665 452.308 44.6747 452.734 46.2978 453.906C47.9424 455.074 48.9107 456.848 49.2028 459.227C49.5028 461.67 49.0311 463.675 47.7876 465.242C46.5416 466.787 44.6541 467.715 42.1252 468.025ZM57.4273 466.147L53.3767 466.644C53.0124 466.689 52.8065 466.518 52.7592 466.132L50.079 444.304C50.0317 443.919 50.1901 443.703 50.5545 443.659L54.605 443.161C54.9908 443.114 55.2074 443.283 55.2547 443.669L57.9349 465.497C57.9823 465.883 57.8131 466.099 57.4273 466.147ZM36.7681 457.882L37.4865 463.733L41.2156 463.275C43.2516 463.025 44.1459 461.893 43.8985 459.878C43.6669 457.992 42.5332 457.174 40.4972 457.424L36.7681 457.882ZM74.4131 457.176C74.0942 459.717 73.3777 461.588 72.2636 462.791C71.1495 463.994 69.5249 464.759 67.3896 465.086C67.0038 465.134 66.7886 464.975 66.7438 464.611L66.2899 460.914C66.2478 460.571 66.4063 460.356 66.7654 460.268C67.5907 460.08 68.1942 459.68 68.5758 459.067C68.9762 458.431 69.2329 457.42 69.3457 456.036C69.6056 453.545 69.4444 448.866 68.8621 441.998C68.8362 441.61 69.0161 441.392 69.4019 441.344L83.386 439.627C83.7503 439.583 83.9561 439.753 84.0035 440.139L86.6837 461.967C86.731 462.353 86.5725 462.568 86.2082 462.613L82.1576 463.11C81.7933 463.155 81.5875 462.984 81.5401 462.598L79.381 445.014L74.3338 445.634C74.7142 450.503 74.7407 454.351 74.4131 457.176ZM109.032 459.81L105.045 460.3C104.681 460.345 104.475 460.174 104.428 459.788L103.808 454.741C103.484 452.105 103.281 449.03 103.197 445.516L103.097 445.496C102.26 448.426 101.324 451.076 100.288 453.444L96.9611 460.901C96.8426 461.176 96.6334 461.333 96.3334 461.369L92.0578 461.894C91.6934 461.939 91.4876 461.769 91.4402 461.383L88.7601 439.555C88.7127 439.169 88.8712 438.954 89.2355 438.909L93.2218 438.42C93.6076 438.372 93.8241 438.541 93.8715 438.927L94.578 444.682C94.9096 447.382 95.143 450.258 95.2783 453.308L95.3787 453.329C95.813 451.905 96.678 449.471 97.9738 446.027L101.338 437.815C101.435 437.542 101.634 437.387 101.934 437.35L106.209 436.825C106.595 436.778 106.812 436.947 106.859 437.333L109.539 459.161C109.587 459.546 109.417 459.763 109.032 459.81ZM117.495 463.111L113.509 463.601C113.144 463.645 112.94 463.486 112.895 463.121L111.92 455.181C111.875 454.817 112.035 454.612 112.399 454.567L113.235 454.465C113.9 454.035 114.391 453.246 114.707 452.098C115.02 450.928 115.198 449.1 115.241 446.615C115.284 444.13 115.17 440.717 114.898 436.378C114.869 435.968 115.037 435.741 115.401 435.696L129.032 434.023C129.418 433.975 129.634 434.145 129.682 434.53L131.845 452.147L133.42 451.954C133.784 451.909 133.99 452.079 134.037 452.465L135.012 460.406C135.057 460.77 134.897 460.974 134.533 461.019L130.579 461.505C130.193 461.552 129.978 461.394 129.933 461.029L129.475 457.3L117.516 458.769L117.974 462.498C118.019 462.862 117.859 463.066 117.495 463.111ZM120.329 439.953C120.828 447.202 120.531 451.785 119.44 453.703L126.673 452.815L125.023 439.377L120.329 439.953ZM147.452 455.093L138.804 456.155C138.418 456.202 138.202 456.033 138.154 455.647L135.474 433.819C135.427 433.433 135.596 433.217 135.982 433.169L140.032 432.672C140.397 432.627 140.603 432.798 140.65 433.184L141.506 440.16L145.3 439.694C147.893 439.375 150.001 439.802 151.624 440.973C153.269 442.142 154.237 443.915 154.529 446.294C154.829 448.738 154.358 450.742 153.114 452.309C151.868 453.855 149.981 454.782 147.452 455.093ZM162.754 453.214L158.703 453.711C158.339 453.756 158.133 453.586 158.086 453.2L155.406 431.372C155.358 430.986 155.517 430.771 155.881 430.726L159.932 430.229C160.317 430.181 160.534 430.351 160.581 430.736L163.261 452.564C163.309 452.95 163.14 453.167 162.754 453.214ZM142.095 444.95L142.813 450.8L146.542 450.342C148.578 450.092 149.472 448.96 149.225 446.946C148.993 445.06 147.86 444.242 145.824 444.492L142.095 444.95ZM-131.853 518.772C-132.171 521.313 -132.888 523.185 -134.002 524.388C-135.116 525.591 -136.741 526.356 -138.876 526.683C-139.262 526.73 -139.477 526.572 -139.522 526.208L-139.976 522.511C-140.018 522.168 -139.859 521.953 -139.5 521.865C-138.675 521.677 -138.071 521.276 -137.69 520.664C-137.289 520.027 -137.033 519.017 -136.92 517.632C-136.66 515.142 -136.821 510.463 -137.404 503.595C-137.429 503.206 -137.25 502.988 -136.864 502.941L-122.88 501.224C-122.515 501.179 -122.309 501.35 -122.262 501.735L-119.582 523.564C-119.535 523.949 -119.693 524.165 -120.057 524.209L-124.108 524.707C-124.472 524.751 -124.678 524.581 -124.726 524.195L-126.885 506.61L-131.932 507.23C-131.551 512.1 -131.525 515.947 -131.853 518.772ZM-97.2341 521.407L-101.22 521.896C-101.585 521.941 -101.791 521.771 -101.838 521.385L-102.458 516.338C-102.781 513.702 -102.985 510.627 -103.068 507.113L-103.169 507.092C-104.005 510.023 -104.942 512.672 -105.978 515.04L-109.305 522.497C-109.423 522.773 -109.632 522.929 -109.932 522.966L-114.208 523.491C-114.572 523.536 -114.778 523.365 -114.825 522.979L-117.506 501.151C-117.553 500.766 -117.394 500.55 -117.03 500.506L-113.044 500.016C-112.658 499.969 -112.442 500.138 -112.394 500.524L-111.688 506.278C-111.356 508.979 -111.123 511.854 -110.987 514.905L-110.887 514.925C-110.453 513.501 -109.588 511.067 -108.292 507.623L-104.927 499.411C-104.83 499.138 -104.632 498.983 -104.332 498.947L-100.056 498.422C-99.6706 498.374 -99.454 498.543 -99.4066 498.929L-96.7265 520.757C-96.6791 521.143 -96.8483 521.36 -97.2341 521.407ZM-88.7707 524.708L-92.757 525.197C-93.1213 525.242 -93.3259 525.082 -93.3706 524.718L-94.3456 516.777C-94.3903 516.413 -94.2305 516.209 -93.8662 516.164L-93.0303 516.061C-92.3652 515.631 -91.8747 514.842 -91.5588 513.694C-91.2456 512.524 -91.0675 510.697 -91.0246 508.212C-90.9817 505.726 -91.0961 502.314 -91.3679 497.975C-91.3964 497.565 -91.2285 497.338 -90.8642 497.293L-77.2337 495.619C-76.848 495.572 -76.6314 495.741 -76.584 496.127L-74.421 513.744L-72.8457 513.55C-72.4814 513.505 -72.2756 513.676 -72.2282 514.062L-71.2532 522.002C-71.2085 522.367 -71.3683 522.571 -71.7326 522.616L-75.6868 523.101C-76.0725 523.149 -76.2878 522.99 -76.3325 522.626L-76.7904 518.897L-88.7492 520.365L-88.2913 524.094C-88.2466 524.459 -88.4064 524.663 -88.7707 524.708ZM-85.9362 501.55C-85.4378 508.798 -85.7343 513.382 -86.8259 515.299L-79.5927 514.411L-81.2427 500.974L-85.9362 501.55ZM-58.814 516.69L-67.4616 517.751C-67.8474 517.799 -68.064 517.629 -68.1113 517.244L-70.7915 495.416C-70.8388 495.03 -70.6696 494.813 -70.2839 494.766L-66.2333 494.269C-65.869 494.224 -65.6631 494.394 -65.6158 494.78L-64.7592 501.756L-60.9658 501.29C-58.3726 500.972 -56.2644 501.398 -54.6413 502.57C-52.9968 503.738 -52.0284 505.512 -51.7363 507.891C-51.4363 510.334 -51.9081 512.339 -53.1515 513.906C-54.3976 515.451 -56.2851 516.379 -58.814 516.69ZM-43.5119 514.811L-47.5624 515.308C-47.9268 515.353 -48.1326 515.182 -48.18 514.796L-50.8601 492.968C-50.9075 492.583 -50.749 492.367 -50.3847 492.323L-46.3341 491.825C-45.9483 491.778 -45.7318 491.947 -45.6844 492.333L-43.0043 514.161C-42.9569 514.547 -43.1261 514.763 -43.5119 514.811ZM-64.1711 506.546L-63.4527 512.397L-59.7236 511.939C-57.6876 511.689 -56.7933 510.557 -57.0406 508.542C-57.2722 506.656 -58.406 505.838 -60.442 506.088L-64.1711 506.546ZM-26.5261 505.84C-26.845 508.381 -27.5615 510.253 -28.6755 511.455C-29.7896 512.658 -31.4143 513.423 -33.5496 513.751C-33.9353 513.798 -34.1506 513.639 -34.1953 513.275L-34.6492 509.578C-34.6913 509.235 -34.5329 509.02 -34.1738 508.932C-33.3485 508.744 -32.745 508.344 -32.3634 507.731C-31.9629 507.095 -31.7063 506.084 -31.5935 504.7C-31.3336 502.21 -31.4948 497.53 -32.077 490.662C-32.103 490.274 -31.9231 490.056 -31.5373 490.008L-17.5532 488.291C-17.1889 488.247 -16.983 488.417 -16.9357 488.803L-14.2555 510.631C-14.2081 511.017 -14.3666 511.232 -14.731 511.277L-18.7815 511.774C-19.1459 511.819 -19.3517 511.648 -19.3991 511.263L-21.5582 493.678L-26.6053 494.298C-26.2249 499.168 -26.1985 503.015 -26.5261 505.84ZM8.09239 508.474L4.10612 508.964C3.74178 509.009 3.53593 508.838 3.48857 508.452L2.86886 503.405C2.54519 500.769 2.34165 497.694 2.25826 494.18L2.15787 494.16C1.32123 497.091 0.384763 499.74 -0.65152 502.108L-3.97808 509.565C-4.09652 509.841 -4.30577 509.997 -4.60581 510.034L-8.8814 510.559C-9.24574 510.603 -9.45159 510.433 -9.49896 510.047L-12.1791 488.219C-12.2265 487.833 -12.068 487.618 -11.7036 487.573L-7.71738 487.084C-7.33161 487.036 -7.11504 487.206 -7.06768 487.591L-6.36113 493.346C-6.02956 496.046 -5.79614 498.922 -5.66085 501.973L-5.56046 501.993C-5.12616 500.569 -4.26114 498.135 -2.96539 494.691L0.398968 486.479C0.49598 486.206 0.694507 486.051 0.994549 486.014L5.27014 485.489C5.65591 485.442 5.87248 485.611 5.91985 485.997L8.59999 507.825C8.64736 508.211 8.47816 508.427 8.09239 508.474ZM16.5557 511.775L12.5695 512.265C12.2051 512.31 12.0006 512.15 11.9559 511.785L10.9809 503.845C10.9362 503.481 11.096 503.276 11.4603 503.231L12.2961 503.129C12.9613 502.699 13.4518 501.91 13.7676 500.762C14.0809 499.592 14.2589 497.765 14.3018 495.279C14.3448 492.794 14.2303 489.382 13.9586 485.042C13.93 484.632 14.0979 484.405 14.4623 484.36L28.0927 482.687C28.4785 482.639 28.6951 482.809 28.7424 483.194L30.9055 500.811L32.4807 500.618C32.845 500.573 33.0509 500.744 33.0983 501.129L34.0732 509.07C34.118 509.434 33.9582 509.639 33.5938 509.683L29.6397 510.169C29.2539 510.216 29.0387 510.058 28.9939 509.693L28.5361 505.964L16.5773 507.433L17.0351 511.162C17.0799 511.526 16.9201 511.731 16.5557 511.775ZM19.3903 488.618C19.8887 495.866 19.5921 500.449 18.5006 502.367L25.7337 501.479L24.0838 488.041L19.3903 488.618ZM46.5125 503.757L37.8648 504.819C37.4791 504.866 37.2625 504.697 37.2151 504.311L34.535 482.483C34.4876 482.097 34.6568 481.881 35.0426 481.834L39.0931 481.336C39.4575 481.291 39.6633 481.462 39.7107 481.848L40.5672 488.824L44.3606 488.358C46.9538 488.04 49.062 488.466 50.6851 489.637C52.3297 490.806 53.298 492.58 53.5901 494.958C53.8901 497.402 53.4184 499.407 52.1749 500.973C50.9289 502.519 49.0414 503.447 46.5125 503.757ZM61.8146 501.878L57.764 502.376C57.3997 502.42 57.1938 502.25 57.1465 501.864L54.4663 480.036C54.419 479.65 54.5774 479.435 54.9418 479.39L58.9923 478.893C59.3781 478.845 59.5947 479.015 59.642 479.4L62.3222 501.228C62.3696 501.614 62.2004 501.831 61.8146 501.878ZM41.1554 493.614L41.8738 499.464L45.6029 499.007C47.6388 498.757 48.5332 497.624 48.2858 495.61C48.0542 493.724 46.9205 492.906 44.8845 493.156L41.1554 493.614ZM78.8004 492.907C78.4815 495.448 77.765 497.32 76.6509 498.523C75.5368 499.726 73.9122 500.491 71.7769 500.818C71.3911 500.865 71.1759 500.707 71.1311 500.343L70.6772 496.646C70.6351 496.303 70.7936 496.088 71.1527 496C71.978 495.812 72.5815 495.411 72.9631 494.799C73.3635 494.162 73.6202 493.152 73.733 491.767C73.9929 489.277 73.8317 484.598 73.2494 477.73C73.2235 477.341 73.4034 477.123 73.7892 477.076L87.7733 475.359C88.1376 475.314 88.3434 475.485 88.3908 475.871L91.071 497.699C91.1183 498.084 90.9598 498.3 90.5955 498.344L86.5449 498.842C86.1806 498.886 85.9747 498.716 85.9274 498.33L83.7683 480.746L78.7211 481.365C79.1015 486.235 79.128 490.082 78.8004 492.907ZM113.419 495.542L109.433 496.031C109.068 496.076 108.862 495.906 108.815 495.52L108.195 490.473C107.872 487.837 107.668 484.762 107.585 481.248L107.484 481.227C106.648 484.158 105.711 486.808 104.675 489.176L101.348 496.632C101.23 496.908 101.021 497.064 100.721 497.101L96.4451 497.626C96.0807 497.671 95.8749 497.5 95.8275 497.115L93.1474 475.287C93.1 474.901 93.2585 474.685 93.6228 474.641L97.6091 474.151C97.9949 474.104 98.2114 474.273 98.2588 474.659L98.9653 480.413C99.2969 483.114 99.5303 485.989 99.6656 489.04L99.766 489.06C100.2 487.636 101.065 485.203 102.361 481.758L105.725 473.546C105.822 473.273 106.021 473.118 106.321 473.082L110.597 472.557C110.982 472.509 111.199 472.678 111.246 473.064L113.926 494.892C113.974 495.278 113.805 495.495 113.419 495.542ZM121.882 498.843L117.896 499.332C117.532 499.377 117.327 499.217 117.282 498.853L116.307 490.913C116.263 490.548 116.422 490.344 116.787 490.299L117.623 490.196C118.288 489.767 118.778 488.978 119.094 487.829C119.407 486.66 119.585 484.832 119.628 482.347C119.671 479.861 119.557 476.449 119.285 472.11C119.257 471.7 119.424 471.473 119.789 471.428L133.419 469.754C133.805 469.707 134.022 469.876 134.069 470.262L136.232 487.879L137.807 487.685C138.172 487.641 138.377 487.811 138.425 488.197L139.4 496.137C139.444 496.502 139.285 496.706 138.92 496.751L134.966 497.236C134.58 497.284 134.365 497.125 134.32 496.761L133.863 493.032L121.904 494.5L122.362 498.229C122.406 498.594 122.247 498.798 121.882 498.843ZM124.717 475.685C125.215 482.933 124.919 487.517 123.827 489.434L131.06 488.546L129.41 475.109L124.717 475.685ZM151.839 490.825L143.191 491.886C142.806 491.934 142.589 491.765 142.542 491.379L139.861 469.551C139.814 469.165 139.983 468.948 140.369 468.901L144.42 468.404C144.784 468.359 144.99 468.529 145.037 468.915L145.894 475.891L149.687 475.425C152.28 475.107 154.388 475.533 156.012 476.705C157.656 477.873 158.625 479.647 158.917 482.026C159.217 484.469 158.745 486.474 157.501 488.041C156.255 489.586 154.368 490.514 151.839 490.825ZM167.141 488.946L163.091 489.443C162.726 489.488 162.52 489.317 162.473 488.932L159.793 467.103C159.745 466.718 159.904 466.502 160.268 466.458L164.319 465.96C164.705 465.913 164.921 466.082 164.969 466.468L167.649 488.296C167.696 488.682 167.527 488.898 167.141 488.946ZM146.482 480.681L147.2 486.532L150.929 486.074C152.965 485.824 153.86 484.692 153.612 482.677C153.381 480.791 152.247 479.973 150.211 480.223L146.482 480.681ZM-127.465 554.504C-127.784 557.045 -128.501 558.917 -129.615 560.119C-130.729 561.322 -132.353 562.087 -134.489 562.415C-134.874 562.462 -135.09 562.304 -135.134 561.939L-135.588 558.242C-135.631 557.899 -135.472 557.684 -135.113 557.597C-134.288 557.408 -133.684 557.008 -133.303 556.395C-132.902 555.759 -132.645 554.748 -132.533 553.364C-132.273 550.874 -132.434 546.195 -133.016 539.326C-133.042 538.938 -132.862 538.72 -132.476 538.673L-118.492 536.956C-118.128 536.911 -117.922 537.081 -117.875 537.467L-115.195 559.295C-115.147 559.681 -115.306 559.896 -115.67 559.941L-119.721 560.438C-120.085 560.483 -120.291 560.312 -120.338 559.927L-122.497 542.342L-127.544 542.962C-127.164 547.832 -127.138 551.679 -127.465 554.504ZM-92.8468 557.139L-96.833 557.628C-97.1974 557.673 -97.4032 557.502 -97.4506 557.116L-98.0703 552.069C-98.394 549.433 -98.5975 546.358 -98.6809 542.844L-98.7813 542.824C-99.6179 545.755 -100.554 548.404 -101.591 550.772L-104.917 558.229C-105.036 558.505 -105.245 558.661 -105.545 558.698L-109.821 559.223C-110.185 559.267 -110.391 559.097 -110.438 558.711L-113.118 536.883C-113.166 536.497 -113.007 536.282 -112.643 536.237L-108.657 535.748C-108.271 535.701 -108.054 535.87 -108.007 536.255L-107.3 542.01C-106.969 544.71 -106.735 547.586 -106.6 550.637L-106.5 550.657C-106.065 549.233 -105.2 546.799 -103.905 543.355L-100.54 535.143C-100.443 534.87 -100.245 534.715 -99.9446 534.678L-95.669 534.153C-95.2833 534.106 -95.0667 534.275 -95.0193 534.661L-92.3392 556.489C-92.2918 556.875 -92.461 557.091 -92.8468 557.139ZM-84.3834 560.439L-88.3697 560.929C-88.734 560.974 -88.9386 560.814 -88.9833 560.45L-89.9583 552.509C-90.003 552.145 -89.8432 551.94 -89.4789 551.896L-88.643 551.793C-87.9779 551.363 -87.4874 550.574 -87.1715 549.426C-86.8583 548.256 -86.6802 546.429 -86.6373 543.943C-86.5944 541.458 -86.7088 538.046 -86.9806 533.706C-87.0091 533.297 -86.8412 533.069 -86.4769 533.025L-72.8464 531.351C-72.4607 531.304 -72.2441 531.473 -72.1967 531.859L-70.0337 549.475L-68.4584 549.282C-68.0941 549.237 -67.8883 549.408 -67.8409 549.793L-66.8659 557.734C-66.8212 558.098 -66.981 558.303 -67.3453 558.347L-71.2995 558.833C-71.6852 558.88 -71.9005 558.722 -71.9452 558.357L-72.4031 554.628L-84.3619 556.097L-83.904 559.826C-83.8593 560.19 -84.0191 560.395 -84.3834 560.439ZM-81.5489 537.282C-81.0505 544.53 -81.347 549.113 -82.4386 551.031L-75.2054 550.143L-76.8554 536.705L-81.5489 537.282ZM-54.4267 552.421L-63.0743 553.483C-63.4601 553.53 -63.6767 553.361 -63.724 552.975L-66.4042 531.147C-66.4515 530.762 -66.2823 530.545 -65.8966 530.498L-61.846 530C-61.4817 529.956 -61.2758 530.126 -61.2285 530.512L-60.3719 537.488L-56.5785 537.022C-53.9853 536.704 -51.8771 537.13 -50.254 538.301C-48.6095 539.47 -47.6411 541.244 -47.349 543.623C-47.0491 546.066 -47.5208 548.071 -48.7642 549.637C-50.0103 551.183 -51.8978 552.111 -54.4267 552.421ZM-39.1246 550.542L-43.1751 551.04C-43.5395 551.084 -43.7453 550.914 -43.7927 550.528L-46.4728 528.7C-46.5202 528.314 -46.3617 528.099 -45.9974 528.054L-41.9468 527.557C-41.561 527.51 -41.3445 527.679 -41.2971 528.065L-38.617 549.893C-38.5696 550.278 -38.7388 550.495 -39.1246 550.542ZM-59.7838 542.278L-59.0654 548.129L-55.3363 547.671C-53.3003 547.421 -52.406 546.288 -52.6533 544.274C-52.8849 542.388 -54.0187 541.57 -56.0547 541.82L-59.7838 542.278ZM-22.1388 541.571C-22.4577 544.112 -23.1742 545.984 -24.2882 547.187C-25.4023 548.39 -27.027 549.155 -29.1623 549.482C-29.548 549.53 -29.7633 549.371 -29.808 549.007L-30.2619 545.31C-30.3041 544.967 -30.1456 544.752 -29.7865 544.664C-28.9612 544.476 -28.3577 544.075 -27.9761 543.463C-27.5756 542.826 -27.319 541.816 -27.2062 540.431C-26.9463 537.941 -27.1075 533.262 -27.6898 526.394C-27.7157 526.005 -27.5358 525.788 -27.15 525.74L-13.1659 524.023C-12.8016 523.978 -12.5957 524.149 -12.5484 524.535L-9.86821 546.363C-9.82084 546.748 -9.97933 546.964 -10.3437 547.008L-14.3942 547.506C-14.7586 547.551 -14.9644 547.38 -15.0118 546.994L-17.1709 529.41L-22.218 530.029C-21.8376 534.899 -21.8112 538.747 -22.1388 541.571ZM12.4797 544.206L8.49342 544.696C8.12908 544.74 7.92323 544.57 7.87586 544.184L7.25615 539.137C6.93248 536.501 6.72895 533.426 6.64556 529.912L6.54517 529.891C5.70852 532.822 4.77206 535.472 3.73578 537.84L0.409216 545.297C0.290773 545.572 0.0815306 545.728 -0.218511 545.765L-4.49411 546.29C-4.85844 546.335 -5.06429 546.164 -5.11166 545.779L-7.79181 523.951C-7.83917 523.565 -7.68069 523.35 -7.31635 523.305L-3.33008 522.815C-2.94431 522.768 -2.72775 522.937 -2.68038 523.323L-1.97383 529.077C-1.64227 531.778 -1.40884 534.653 -1.27355 537.704L-1.17316 537.724C-0.738861 536.301 0.12616 533.867 1.4219 530.423L4.78626 522.21C4.88328 521.937 5.0818 521.783 5.38185 521.746L9.65744 521.221C10.0432 521.173 10.2598 521.343 10.3071 521.728L12.9873 543.556C13.0347 543.942 12.8655 544.159 12.4797 544.206ZM20.943 547.507L16.9568 547.996C16.5924 548.041 16.3879 547.881 16.3432 547.517L15.3682 539.577C15.3235 539.212 15.4833 539.008 15.8476 538.963L16.6834 538.86C17.3486 538.431 17.8391 537.642 18.1549 536.493C18.4682 535.324 18.6462 533.496 18.6891 531.011C18.7321 528.526 18.6176 525.113 18.3459 520.774C18.3173 520.364 18.4852 520.137 18.8496 520.092L32.48 518.419C32.8658 518.371 33.0824 518.54 33.1297 518.926L35.2928 536.543L36.868 536.349C37.2323 536.305 37.4382 536.475 37.4856 536.861L38.4605 544.801C38.5053 545.166 38.3455 545.37 37.9811 545.415L34.027 545.9C33.6412 545.948 33.426 545.789 33.3812 545.425L32.9234 541.696L20.9646 543.164L21.4224 546.893C21.4672 547.258 21.3074 547.462 20.943 547.507ZM23.7776 524.349C24.276 531.598 23.9794 536.181 22.8879 538.099L30.121 537.21L28.4711 523.773L23.7776 524.349ZM50.8998 539.489L42.2521 540.551C41.8664 540.598 41.6498 540.429 41.6024 540.043L38.9223 518.215C38.8749 517.829 39.0441 517.613 39.4299 517.565L43.4804 517.068C43.8448 517.023 44.0506 517.194 44.098 517.579L44.9545 524.555L48.7479 524.09C51.3411 523.771 53.4493 524.198 55.0724 525.369C56.717 526.537 57.6853 528.311 57.9774 530.69C58.2774 533.133 57.8057 535.138 56.5622 536.705C55.3162 538.25 53.4287 539.178 50.8998 539.489ZM66.2019 537.61L62.1513 538.107C61.787 538.152 61.5811 537.981 61.5338 537.596L58.8536 515.768C58.8063 515.382 58.9647 515.167 59.3291 515.122L63.3796 514.625C63.7654 514.577 63.982 514.746 64.0293 515.132L66.7095 536.96C66.7569 537.346 66.5877 537.562 66.2019 537.61ZM45.5427 529.345L46.2611 535.196L49.9901 534.738C52.0261 534.488 52.9205 533.356 52.6731 531.341C52.4415 529.455 51.3078 528.637 49.2718 528.887L45.5427 529.345ZM83.1877 528.639C82.8688 531.18 82.1523 533.052 81.0382 534.254C79.9241 535.457 78.2995 536.222 76.1642 536.55C75.7784 536.597 75.5632 536.439 75.5184 536.074L75.0645 532.377C75.0224 532.034 75.1809 531.819 75.54 531.732C76.3653 531.543 76.9687 531.143 77.3504 530.53C77.7508 529.894 78.0075 528.883 78.1203 527.499C78.3802 525.009 78.219 520.33 77.6367 513.461C77.6108 513.073 77.7907 512.855 78.1765 512.808L92.1606 511.091C92.5249 511.046 92.7307 511.216 92.7781 511.602L95.4583 533.43C95.5056 533.816 95.3471 534.031 94.9828 534.076L90.9322 534.573C90.5679 534.618 90.362 534.448 90.3147 534.062L88.1556 516.477L83.1084 517.097C83.4888 521.967 83.5152 525.814 83.1877 528.639ZM117.806 531.274L113.82 531.763C113.456 531.808 113.25 531.637 113.202 531.252L112.583 526.204C112.259 523.568 112.055 520.493 111.972 516.979L111.872 516.959C111.035 519.89 110.099 522.539 109.062 524.907L105.736 532.364C105.617 532.64 105.408 532.796 105.108 532.833L100.832 533.358C100.468 533.402 100.262 533.232 100.215 532.846L97.5347 511.018C97.4873 510.632 97.6458 510.417 98.0101 510.372L101.996 509.883C102.382 509.836 102.599 510.005 102.646 510.391L103.353 516.145C103.684 518.845 103.918 521.721 104.053 524.772L104.153 524.792C104.588 523.368 105.453 520.934 106.748 517.49L110.113 509.278C110.21 509.005 110.408 508.85 110.708 508.813L114.984 508.288C115.37 508.241 115.586 508.41 115.634 508.796L118.314 530.624C118.361 531.01 118.192 531.226 117.806 531.274ZM126.269 534.575L122.283 535.064C121.919 535.109 121.714 534.949 121.67 534.585L120.695 526.644C120.65 526.28 120.81 526.075 121.174 526.031L122.01 525.928C122.675 525.498 123.166 524.709 123.481 523.561C123.795 522.391 123.973 520.564 124.016 518.078C124.059 515.593 123.944 512.181 123.672 507.841C123.644 507.432 123.812 507.204 124.176 507.16L137.806 505.486C138.192 505.439 138.409 505.608 138.456 505.994L140.619 523.61L142.194 523.417C142.559 523.372 142.765 523.543 142.812 523.929L143.787 531.869C143.832 532.233 143.672 532.438 143.308 532.483L139.353 532.968C138.968 533.015 138.752 532.857 138.708 532.493L138.25 528.763L126.291 530.232L126.749 533.961C126.794 534.325 126.634 534.53 126.269 534.575ZM129.104 511.417C129.602 518.665 129.306 523.248 128.214 525.166L135.447 524.278L133.798 510.84L129.104 511.417ZM156.226 526.556L147.579 527.618C147.193 527.665 146.976 527.496 146.929 527.11L144.249 505.282C144.201 504.897 144.371 504.68 144.756 504.633L148.807 504.135C149.171 504.091 149.377 504.261 149.424 504.647L150.281 511.623L154.074 511.157C156.668 510.839 158.776 511.265 160.399 512.436C162.043 513.605 163.012 515.379 163.304 517.758C163.604 520.201 163.132 522.206 161.889 523.773C160.643 525.318 158.755 526.246 156.226 526.556ZM171.528 524.677L167.478 525.175C167.113 525.219 166.908 525.049 166.86 524.663L164.18 502.835C164.133 502.449 164.291 502.234 164.656 502.189L168.706 501.692C169.092 501.645 169.308 501.814 169.356 502.2L172.036 524.028C172.083 524.413 171.914 524.63 171.528 524.677ZM150.869 516.413L151.588 522.264L155.317 521.806C157.353 521.556 158.247 520.424 158 518.409C157.768 516.523 156.634 515.705 154.598 515.955L150.869 516.413ZM-123.078 590.235C-123.397 592.776 -124.113 594.648 -125.227 595.851C-126.341 597.054 -127.966 597.819 -130.101 598.146C-130.487 598.194 -130.702 598.035 -130.747 597.671L-131.201 593.974C-131.243 593.631 -131.085 593.416 -130.726 593.328C-129.9 593.14 -129.297 592.739 -128.915 592.127C-128.515 591.49 -128.258 590.48 -128.145 589.096C-127.885 586.605 -128.047 581.926 -128.629 575.058C-128.655 574.67 -128.475 574.452 -128.089 574.404L-114.105 572.687C-113.741 572.643 -113.535 572.813 -113.488 573.199L-110.807 595.027C-110.76 595.413 -110.918 595.628 -111.283 595.673L-115.333 596.17C-115.698 596.215 -115.904 596.044 -115.951 595.658L-118.11 578.074L-123.157 578.694C-122.777 583.563 -122.75 587.411 -123.078 590.235ZM-88.4595 592.87L-92.4458 593.36C-92.8101 593.404 -93.0159 593.234 -93.0633 592.848L-93.683 587.801C-94.0067 585.165 -94.2102 582.09 -94.2936 578.576L-94.394 578.556C-95.2306 581.486 -96.1671 584.136 -97.2034 586.504L-100.53 593.961C-100.648 594.236 -100.858 594.393 -101.158 594.429L-105.433 594.954C-105.798 594.999 -106.003 594.829 -106.051 594.443L-108.731 572.615C-108.778 572.229 -108.62 572.014 -108.256 571.969L-104.269 571.48C-103.883 571.432 -103.667 571.601 -103.62 571.987L-102.913 577.742C-102.581 580.442 -102.348 583.317 -102.213 586.368L-102.112 586.389C-101.678 584.965 -100.813 582.531 -99.5173 579.087L-96.1529 570.875C-96.0559 570.602 -95.8574 570.447 -95.5573 570.41L-91.2817 569.885C-90.896 569.838 -90.6794 570.007 -90.632 570.392L-87.9519 592.221C-87.9045 592.606 -88.0737 592.823 -88.4595 592.87ZM-79.9961 596.171L-83.9824 596.661C-84.3467 596.705 -84.5513 596.546 -84.596 596.181L-85.571 588.241C-85.6157 587.876 -85.4559 587.672 -85.0916 587.627L-84.2557 587.525C-83.5906 587.095 -83.1001 586.306 -82.7842 585.158C-82.471 583.988 -82.2929 582.16 -82.25 579.675C-82.2071 577.19 -82.3215 573.777 -82.5933 569.438C-82.6218 569.028 -82.4539 568.801 -82.0896 568.756L-68.4591 567.083C-68.0734 567.035 -67.8568 567.204 -67.8094 567.59L-65.6464 585.207L-64.0711 585.014C-63.7068 584.969 -63.501 585.139 -63.4536 585.525L-62.4786 593.465C-62.4339 593.83 -62.5937 594.034 -62.958 594.079L-66.9122 594.565C-67.2979 594.612 -67.5132 594.453 -67.5579 594.089L-68.0158 590.36L-79.9746 591.828L-79.5167 595.558C-79.472 595.922 -79.6318 596.126 -79.9961 596.171ZM-77.1616 573.013C-76.6632 580.262 -76.9597 584.845 -78.0513 586.763L-70.8181 585.875L-72.4681 572.437L-77.1616 573.013ZM-50.0394 588.153L-58.687 589.215C-59.0728 589.262 -59.2894 589.093 -59.3367 588.707L-62.0169 566.879C-62.0643 566.493 -61.8951 566.277 -61.5093 566.229L-57.4587 565.732C-57.0944 565.687 -56.8885 565.858 -56.8412 566.243L-55.9846 573.219L-52.1912 572.754C-49.598 572.435 -47.4898 572.862 -45.8667 574.033C-44.2222 575.202 -43.2538 576.975 -42.9617 579.354C-42.6618 581.797 -43.1335 583.802 -44.3769 585.369C-45.623 586.914 -47.5105 587.842 -50.0394 588.153ZM-34.7373 586.274L-38.7878 586.771C-39.1522 586.816 -39.358 586.646 -39.4054 586.26L-42.0855 564.432C-42.1329 564.046 -41.9744 563.831 -41.6101 563.786L-37.5595 563.289C-37.1738 563.241 -36.9572 563.41 -36.9098 563.796L-34.2297 585.624C-34.1823 586.01 -34.3515 586.227 -34.7373 586.274ZM-55.3965 578.009L-54.6781 583.86L-50.949 583.402C-48.913 583.152 -48.0187 582.02 -48.2661 580.006C-48.4976 578.12 -49.6314 577.302 -51.6674 577.552L-55.3965 578.009ZM-17.7515 577.303C-18.0704 579.844 -18.7869 581.716 -19.9009 582.919C-21.015 584.121 -22.6397 584.886 -24.775 585.214C-25.1607 585.261 -25.376 585.103 -25.4207 584.738L-25.8747 581.042C-25.9168 580.699 -25.7583 580.483 -25.3992 580.396C-24.5739 580.207 -23.9704 579.807 -23.5888 579.195C-23.1883 578.558 -22.9317 577.547 -22.8189 576.163C-22.559 573.673 -22.7202 568.994 -23.3025 562.125C-23.3284 561.737 -23.1485 561.519 -22.7627 561.472L-8.77862 559.755C-8.41428 559.71 -8.20843 559.881 -8.16106 560.266L-5.48091 582.094C-5.43355 582.48 -5.59203 582.695 -5.95637 582.74L-10.0069 583.237C-10.3713 583.282 -10.5771 583.112 -10.6245 582.726L-12.7836 565.141L-17.8307 565.761C-17.4503 570.631 -17.4239 574.478 -17.7515 577.303ZM16.867 579.938L12.8807 580.427C12.5164 580.472 12.3105 580.301 12.2632 579.916L11.6434 574.869C11.3198 572.232 11.1162 569.157 11.0329 565.643L10.9325 565.623C10.0958 568.554 9.15936 571.203 8.12307 573.571L4.79651 581.028C4.67807 581.304 4.46883 581.46 4.16879 581.497L-0.10681 582.022C-0.471146 582.067 -0.676998 581.896 -0.724364 581.51L-3.40451 559.682C-3.45188 559.297 -3.29339 559.081 -2.92906 559.037L1.05721 558.547C1.44298 558.5 1.65955 558.669 1.70692 559.055L2.41346 564.809C2.74503 567.509 2.97846 570.385 3.11374 573.436L3.21413 573.456C3.64844 572.032 4.51346 569.598 5.8092 566.154L9.17356 557.942C9.27057 557.669 9.4691 557.514 9.76914 557.477L14.0447 556.952C14.4305 556.905 14.6471 557.074 14.6944 557.46L17.3746 579.288C17.422 579.674 17.2527 579.89 16.867 579.938ZM25.3303 583.239L21.3441 583.728C20.9797 583.773 20.7752 583.613 20.7305 583.249L19.7555 575.308C19.7108 574.944 19.8706 574.739 20.2349 574.695L21.0707 574.592C21.7359 574.162 22.2264 573.373 22.5422 572.225C22.8554 571.055 23.0335 569.228 23.0764 566.743C23.1194 564.257 23.0049 560.845 22.7332 556.506C22.7046 556.096 22.8725 555.869 23.2369 555.824L36.8673 554.15C37.2531 554.103 37.4697 554.272 37.517 554.658L39.6801 572.275L41.2553 572.081C41.6196 572.036 41.8255 572.207 41.8729 572.593L42.8478 580.533C42.8926 580.897 42.7328 581.102 42.3684 581.147L38.4143 581.632C38.0285 581.68 37.8133 581.521 37.7685 581.157L37.3107 577.428L25.3519 578.896L25.8097 582.625C25.8545 582.989 25.6947 583.194 25.3303 583.239ZM28.1649 560.081C28.6633 567.329 28.3667 571.912 27.2752 573.83L34.5083 572.942L32.8584 559.505L28.1649 560.081ZM55.2871 575.22L46.6394 576.282C46.2536 576.33 46.0371 576.16 45.9897 575.775L43.3096 553.947C43.2622 553.561 43.4314 553.344 43.8172 553.297L47.8677 552.799C48.2321 552.755 48.4379 552.925 48.4853 553.311L49.3418 560.287L53.1352 559.821C55.7284 559.503 57.8366 559.929 59.4597 561.1C61.1043 562.269 62.0726 564.043 62.3647 566.422C62.6647 568.865 62.193 570.87 60.9495 572.437C59.7035 573.982 57.816 574.91 55.2871 575.22ZM70.5892 573.342L66.5386 573.839C66.1743 573.884 65.9684 573.713 65.9211 573.327L63.2409 551.499C63.1935 551.114 63.352 550.898 63.7164 550.854L67.7669 550.356C68.1527 550.309 68.3693 550.478 68.4166 550.864L71.0968 572.692C71.1441 573.078 70.9749 573.294 70.5892 573.342ZM49.93 565.077L50.6484 570.928L54.3774 570.47C56.4134 570.22 57.3078 569.088 57.0604 567.073C56.8288 565.187 55.6951 564.369 53.6591 564.619L49.93 565.077ZM87.575 564.371C87.2561 566.912 86.5396 568.783 85.4255 569.986C84.3114 571.189 82.6868 571.954 80.5515 572.281C80.1657 572.329 79.9505 572.17 79.9057 571.806L79.4518 568.109C79.4097 567.766 79.5682 567.551 79.9273 567.463C80.7526 567.275 81.356 566.875 81.7377 566.262C82.1381 565.626 82.3948 564.615 82.5076 563.231C82.7675 560.74 82.6063 556.061 82.024 549.193C81.9981 548.805 82.178 548.587 82.5638 548.539L96.5478 546.822C96.9122 546.778 97.118 546.948 97.1654 547.334L99.8455 569.162C99.8929 569.548 99.7344 569.763 99.3701 569.808L95.3195 570.305C94.9552 570.35 94.7493 570.179 94.702 569.793L92.5429 552.209L87.4957 552.829C87.8761 557.698 87.9025 561.546 87.575 564.371ZM122.193 567.005L118.207 567.495C117.843 567.539 117.637 567.369 117.59 566.983L116.97 561.936C116.646 559.3 116.443 556.225 116.359 552.711L116.259 552.691C115.422 555.621 114.486 558.271 113.45 560.639L110.123 568.096C110.005 568.371 109.795 568.528 109.495 568.564L105.22 569.089C104.855 569.134 104.649 568.964 104.602 568.578L101.922 546.75C101.875 546.364 102.033 546.149 102.397 546.104L106.384 545.615C106.769 545.567 106.986 545.736 107.033 546.122L107.74 551.877C108.071 554.577 108.305 557.453 108.44 560.503L108.541 560.524C108.975 559.1 109.84 556.666 111.136 553.222L114.5 545.01C114.597 544.737 114.796 544.582 115.096 544.545L119.371 544.02C119.757 543.973 119.974 544.142 120.021 544.528L122.701 566.356C122.748 566.741 122.579 566.958 122.193 567.005ZM130.657 570.306L126.671 570.796C126.306 570.84 126.102 570.681 126.057 570.316L125.082 562.376C125.037 562.012 125.197 561.807 125.561 561.762L126.397 561.66C127.062 561.23 127.553 560.441 127.869 559.293C128.182 558.123 128.36 556.295 128.403 553.81C128.446 551.325 128.331 547.912 128.06 543.573C128.031 543.163 128.199 542.936 128.563 542.891L142.194 541.218C142.58 541.17 142.796 541.34 142.843 541.725L145.007 559.342L146.582 559.149C146.946 559.104 147.152 559.274 147.199 559.66L148.174 567.601C148.219 567.965 148.059 568.169 147.695 568.214L143.741 568.7C143.355 568.747 143.14 568.589 143.095 568.224L142.637 564.495L130.678 565.963L131.136 569.693C131.181 570.057 131.021 570.261 130.657 570.306ZM133.491 547.148C133.99 554.397 133.693 558.98 132.602 560.898L139.835 560.01L138.185 546.572L133.491 547.148ZM160.614 562.288L151.966 563.35C151.58 563.397 151.364 563.228 151.316 562.842L148.636 541.014C148.589 540.628 148.758 540.412 149.144 540.364L153.194 539.867C153.559 539.822 153.764 539.993 153.812 540.379L154.668 547.355L158.462 546.889C161.055 546.57 163.163 546.997 164.786 548.168C166.431 549.337 167.399 551.11 167.691 553.489C167.991 555.933 167.519 557.937 166.276 559.504C165.03 561.049 163.142 561.977 160.614 562.288ZM175.916 560.409L171.865 560.906C171.501 560.951 171.295 560.781 171.248 560.395L168.567 538.567C168.52 538.181 168.679 537.966 169.043 537.921L173.093 537.424C173.479 537.376 173.696 537.546 173.743 537.931L176.423 559.759C176.471 560.145 176.301 560.362 175.916 560.409ZM155.256 552.144L155.975 557.995L159.704 557.537C161.74 557.287 162.634 556.155 162.387 554.141C162.155 552.255 161.022 551.437 158.986 551.687L155.256 552.144ZM-118.691 625.967C-119.01 628.508 -119.726 630.38 -120.84 631.583C-121.954 632.785 -123.579 633.551 -125.714 633.878C-126.1 633.925 -126.315 633.767 -126.36 633.403L-126.814 629.706C-126.856 629.363 -126.697 629.147 -126.338 629.06C-125.513 628.872 -124.91 628.471 -124.528 627.859C-124.127 627.222 -123.871 626.212 -123.758 624.827C-123.498 622.337 -123.659 617.658 -124.242 610.79C-124.268 610.401 -124.088 610.183 -123.702 610.136L-109.718 608.419C-109.353 608.374 -109.148 608.545 -109.1 608.93L-106.42 630.758C-106.373 631.144 -106.531 631.36 -106.896 631.404L-110.946 631.902C-111.31 631.946 -111.516 631.776 -111.564 631.39L-113.723 613.805L-118.77 614.425C-118.39 619.295 -118.363 623.142 -118.691 625.967ZM-84.0722 628.602L-88.0585 629.091C-88.4228 629.136 -88.6286 628.966 -88.676 628.58L-89.2957 623.533C-89.6194 620.897 -89.8229 617.822 -89.9063 614.308L-90.0067 614.287C-90.8433 617.218 -91.7798 619.867 -92.8161 622.235L-96.1427 629.692C-96.2611 629.968 -96.4703 630.124 -96.7704 630.161L-101.046 630.686C-101.41 630.731 -101.616 630.56 -101.664 630.174L-104.344 608.346C-104.391 607.961 -104.233 607.745 -103.868 607.701L-99.882 607.211C-99.4962 607.164 -99.2796 607.333 -99.2323 607.719L-98.5257 613.473C-98.1941 616.174 -97.9607 619.049 -97.8254 622.1L-97.725 622.12C-97.2907 620.696 -96.4257 618.262 -95.13 614.818L-91.7656 606.606C-91.6686 606.333 -91.4701 606.178 -91.17 606.142L-86.8944 605.617C-86.5087 605.569 -86.2921 605.738 -86.2447 606.124L-83.5646 627.952C-83.5172 628.338 -83.6864 628.555 -84.0722 628.602ZM-75.6088 631.903L-79.5951 632.392C-79.9594 632.437 -80.164 632.277 -80.2087 631.913L-81.1837 623.972C-81.2284 623.608 -81.0686 623.404 -80.7043 623.359L-79.8684 623.256C-79.2033 622.826 -78.7128 622.037 -78.3969 620.889C-78.0837 619.719 -77.9056 617.892 -77.8627 615.407C-77.8198 612.921 -77.9342 609.509 -78.206 605.17C-78.2345 604.76 -78.0666 604.533 -77.7023 604.488L-64.0718 602.814C-63.6861 602.767 -63.4695 602.936 -63.4221 603.322L-61.2591 620.939L-59.6839 620.745C-59.3195 620.7 -59.1137 620.871 -59.0663 621.257L-58.0913 629.197C-58.0466 629.561 -58.2064 629.766 -58.5707 629.811L-62.5249 630.296C-62.9106 630.344 -63.1259 630.185 -63.1706 629.821L-63.6285 626.092L-75.5873 627.56L-75.1294 631.289C-75.0847 631.654 -75.2445 631.858 -75.6088 631.903ZM-72.7743 608.745C-72.2759 615.993 -72.5725 620.576 -73.664 622.494L-66.4308 621.606L-68.0808 608.169L-72.7743 608.745ZM-45.6521 623.884L-54.2997 624.946C-54.6855 624.994 -54.9021 624.824 -54.9494 624.439L-57.6296 602.611C-57.677 602.225 -57.5078 602.008 -57.122 601.961L-53.0714 601.464C-52.7071 601.419 -52.5012 601.589 -52.4539 601.975L-51.5973 608.951L-47.8039 608.485C-45.2107 608.167 -43.1025 608.593 -41.4794 609.765C-39.8349 610.933 -38.8665 612.707 -38.5744 615.086C-38.2745 617.529 -38.7462 619.534 -39.9896 621.101C-41.2357 622.646 -43.1232 623.574 -45.6521 623.884ZM-30.35 622.006L-34.4005 622.503C-34.7649 622.548 -34.9707 622.377 -35.0181 621.991L-37.6982 600.163C-37.7456 599.778 -37.5871 599.562 -37.2228 599.518L-33.1722 599.02C-32.7865 598.973 -32.5699 599.142 -32.5225 599.528L-29.8424 621.356C-29.795 621.742 -29.9642 621.958 -30.35 622.006ZM-51.0092 613.741L-50.2908 619.592L-46.5617 619.134C-44.5257 618.884 -43.6314 617.752 -43.8788 615.737C-44.1103 613.851 -45.2441 613.033 -47.2801 613.283L-51.0092 613.741ZM-13.3642 613.035C-13.6831 615.576 -14.3996 617.447 -15.5136 618.65C-16.6277 619.853 -18.2524 620.618 -20.3877 620.946C-20.7734 620.993 -20.9887 620.834 -21.0334 620.47L-21.4874 616.773C-21.5295 616.43 -21.371 616.215 -21.0119 616.127C-20.1866 615.939 -19.5831 615.539 -19.2015 614.926C-18.801 614.29 -18.5444 613.279 -18.4316 611.895C-18.1717 609.405 -18.3329 604.725 -18.9152 597.857C-18.9411 597.469 -18.7612 597.251 -18.3754 597.203L-4.39132 595.486C-4.02698 595.442 -3.82113 595.612 -3.77376 595.998L-1.09362 617.826C-1.04625 618.212 -1.20474 618.427 -1.56907 618.472L-5.61964 618.969C-5.98397 619.014 -6.18983 618.843 -6.23719 618.458L-8.39631 600.873L-13.4434 601.493C-13.063 606.363 -13.0366 610.21 -13.3642 613.035ZM21.2543 615.669L17.268 616.159C16.9037 616.204 16.6978 616.033 16.6505 615.647L16.0307 610.6C15.7071 607.964 15.5035 604.889 15.4202 601.375L15.3198 601.355C14.4831 604.286 13.5467 606.935 12.5104 609.303L9.18381 616.76C9.06537 617.036 8.85612 617.192 8.55608 617.229L4.28049 617.754C3.91615 617.798 3.7103 617.628 3.66293 617.242L0.982786 595.414C0.93542 595.028 1.0939 594.813 1.45824 594.768L5.44451 594.279C5.83028 594.231 6.04685 594.401 6.09421 594.786L6.80076 600.541C7.13232 603.241 7.36575 606.117 7.50104 609.167L7.60143 609.188C8.03573 607.764 8.90075 605.33 10.1965 601.886L13.5609 593.674C13.6579 593.401 13.8564 593.246 14.1564 593.209L18.432 592.684C18.8178 592.637 19.0344 592.806 19.0817 593.192L21.7619 615.02C21.8092 615.405 21.64 615.622 21.2543 615.669ZM29.7176 618.97L25.7314 619.46C25.367 619.505 25.1625 619.345 25.1177 618.98L24.1428 611.04C24.0981 610.676 24.2579 610.471 24.6222 610.426L25.458 610.324C26.1232 609.894 26.6137 609.105 26.9295 607.957C27.2427 606.787 27.4208 604.96 27.4637 602.474C27.5067 599.989 27.3922 596.577 27.1205 592.237C27.0919 591.827 27.2598 591.6 27.6241 591.555L41.2546 589.882C41.6404 589.834 41.857 590.004 41.9043 590.389L44.0674 608.006L45.6426 607.813C46.0069 607.768 46.2128 607.939 46.2602 608.324L47.2351 616.265C47.2798 616.629 47.12 616.834 46.7557 616.878L42.8016 617.364C42.4158 617.411 42.2006 617.253 42.1558 616.888L41.698 613.159L29.7392 614.628L30.197 618.357C30.2418 618.721 30.082 618.926 29.7176 618.97ZM32.5522 595.813C33.0506 603.061 32.754 607.644 31.6625 609.562L38.8956 608.674L37.2457 595.236L32.5522 595.813ZM59.6743 610.952L51.0267 612.014C50.6409 612.061 50.4244 611.892 50.377 611.506L47.6969 589.678C47.6495 589.292 47.8187 589.076 48.2045 589.028L52.255 588.531C52.6194 588.486 52.8252 588.657 52.8726 589.043L53.7291 596.019L57.5225 595.553C60.1157 595.234 62.2239 595.661 63.847 596.832C65.4916 598.001 66.4599 599.775 66.752 602.153C67.052 604.597 66.5803 606.602 65.3368 608.168C64.0908 609.714 62.2033 610.642 59.6743 610.952ZM74.9765 609.073L70.9259 609.571C70.5616 609.615 70.3557 609.445 70.3084 609.059L67.6282 587.231C67.5808 586.845 67.7393 586.63 68.1037 586.585L72.1542 586.088C72.54 586.04 72.7566 586.21 72.8039 586.595L75.4841 608.423C75.5314 608.809 75.3622 609.026 74.9765 609.073ZM54.3173 600.809L55.0357 606.659L58.7647 606.202C60.8007 605.952 61.6951 604.819 61.4477 602.805C61.2161 600.919 60.0823 600.101 58.0464 600.351L54.3173 600.809ZM91.9623 600.102C91.6434 602.643 90.9269 604.515 89.8128 605.718C88.6987 606.921 87.074 607.686 84.9388 608.013C84.553 608.06 84.3378 607.902 84.293 607.538L83.8391 603.841C83.797 603.498 83.9555 603.283 84.3146 603.195C85.1399 603.007 85.7433 602.606 86.125 601.994C86.5254 601.357 86.7821 600.347 86.8949 598.962C87.1548 596.472 86.9936 591.793 86.4113 584.925C86.3854 584.536 86.5653 584.318 86.9511 584.271L100.935 582.554C101.299 582.509 101.505 582.68 101.553 583.066L104.233 604.894C104.28 605.279 104.122 605.495 103.757 605.539L99.7068 606.037C99.3425 606.081 99.1366 605.911 99.0893 605.525L96.9302 587.941L91.883 588.56C92.2634 593.43 92.2898 597.277 91.9623 600.102ZM126.581 602.737L122.594 603.226C122.23 603.271 122.024 603.101 121.977 602.715L121.357 597.668C121.034 595.032 120.83 591.957 120.747 588.443L120.646 588.422C119.81 591.353 118.873 594.003 117.837 596.37L114.51 603.827C114.392 604.103 114.183 604.259 113.883 604.296L109.607 604.821C109.243 604.866 109.037 604.695 108.989 604.31L106.309 582.481C106.262 582.096 106.42 581.88 106.785 581.836L110.771 581.346C111.157 581.299 111.373 581.468 111.421 581.854L112.127 587.608C112.459 590.309 112.692 593.184 112.828 596.235L112.928 596.255C113.362 594.831 114.227 592.397 115.523 588.953L118.887 580.741C118.984 580.468 119.183 580.313 119.483 580.277L123.758 579.752C124.144 579.704 124.361 579.873 124.408 580.259L127.088 602.087C127.136 602.473 126.967 602.69 126.581 602.737ZM135.044 606.038L131.058 606.527C130.693 606.572 130.489 606.412 130.444 606.048L129.469 598.108C129.425 597.743 129.584 597.539 129.949 597.494L130.784 597.391C131.45 596.962 131.94 596.173 132.256 595.024C132.569 593.855 132.747 592.027 132.79 589.542C132.833 587.056 132.719 583.644 132.447 579.305C132.418 578.895 132.586 578.668 132.951 578.623L146.581 576.949C146.967 576.902 147.183 577.071 147.231 577.457L149.394 595.074L150.969 594.88C151.333 594.836 151.539 595.006 151.587 595.392L152.562 603.332C152.606 603.697 152.447 603.901 152.082 603.946L148.128 604.431C147.742 604.479 147.527 604.32 147.482 603.956L147.024 600.227L135.066 601.695L135.523 605.424C135.568 605.789 135.408 605.993 135.044 606.038ZM137.879 582.88C138.377 590.128 138.08 594.712 136.989 596.629L144.222 595.741L142.572 582.304L137.879 582.88ZM165.001 598.02L156.353 599.081C155.967 599.129 155.751 598.96 155.703 598.574L153.023 576.746C152.976 576.36 153.145 576.143 153.531 576.096L157.582 575.599C157.946 575.554 158.152 575.724 158.199 576.11L159.056 583.086L162.849 582.62C165.442 582.302 167.55 582.728 169.174 583.9C170.818 585.068 171.786 586.842 172.078 589.221C172.378 591.664 171.907 593.669 170.663 595.236C169.417 596.781 167.53 597.709 165.001 598.02ZM180.303 596.141L176.252 596.638C175.888 596.683 175.682 596.512 175.635 596.127L172.955 574.298C172.907 573.913 173.066 573.697 173.43 573.653L177.481 573.155C177.866 573.108 178.083 573.277 178.13 573.663L180.811 595.491C180.858 595.877 180.689 596.093 180.303 596.141ZM159.644 587.876L160.362 593.727L164.091 593.269C166.127 593.019 167.022 591.887 166.774 589.872C166.543 587.986 165.409 587.168 163.373 587.418L159.644 587.876ZM-114.303 661.699C-114.622 664.24 -115.339 666.112 -116.453 667.314C-117.567 668.517 -119.192 669.282 -121.327 669.61C-121.713 669.657 -121.928 669.499 -121.973 669.134L-122.427 665.437C-122.469 665.094 -122.31 664.879 -121.951 664.792C-121.126 664.603 -120.522 664.203 -120.141 663.59C-119.74 662.954 -119.484 661.943 -119.371 660.559C-119.111 658.069 -119.272 653.389 -119.854 646.521C-119.88 646.133 -119.7 645.915 -119.315 645.868L-105.33 644.151C-104.966 644.106 -104.76 644.276 -104.713 644.662L-102.033 666.49C-101.985 666.876 -102.144 667.091 -102.508 667.136L-106.559 667.633C-106.923 667.678 -107.129 667.507 -107.176 667.122L-109.335 649.537L-114.383 650.157C-114.002 655.027 -113.976 658.874 -114.303 661.699ZM-79.6849 664.334L-83.6712 664.823C-84.0355 664.868 -84.2413 664.697 -84.2887 664.311L-84.9084 659.264C-85.2321 656.628 -85.4356 653.553 -85.519 650.039L-85.6194 650.019C-86.4561 652.95 -87.3925 655.599 -88.4288 657.967L-91.7554 665.424C-91.8738 665.7 -92.083 665.856 -92.3831 665.893L-96.6587 666.418C-97.023 666.462 -97.2289 666.292 -97.2762 665.906L-99.9564 644.078C-100.004 643.692 -99.8453 643.477 -99.4809 643.432L-95.4947 642.943C-95.1089 642.896 -94.8923 643.065 -94.845 643.45L-94.1384 649.205C-93.8068 651.905 -93.5734 654.781 -93.4381 657.832L-93.3377 657.852C-92.9034 656.428 -92.0384 653.994 -90.7427 650.55L-87.3783 642.338C-87.2813 642.065 -87.0828 641.91 -86.7827 641.873L-82.5071 641.348C-82.1214 641.301 -81.9048 641.47 -81.8574 641.856L-79.1773 663.684C-79.1299 664.07 -79.2991 664.286 -79.6849 664.334ZM-71.2215 667.634L-75.2078 668.124C-75.5721 668.169 -75.7767 668.009 -75.8214 667.644L-76.7964 659.704C-76.8411 659.34 -76.6813 659.135 -76.317 659.09L-75.4811 658.988C-74.816 658.558 -74.3255 657.769 -74.0096 656.621C-73.6964 655.451 -73.5183 653.624 -73.4754 651.138C-73.4325 648.653 -73.5469 645.241 -73.8187 640.901C-73.8472 640.492 -73.6793 640.264 -73.315 640.22L-59.6845 638.546C-59.2988 638.499 -59.0822 638.668 -59.0348 639.054L-56.8718 656.67L-55.2966 656.477C-54.9322 656.432 -54.7264 656.603 -54.679 656.988L-53.704 664.929C-53.6593 665.293 -53.8191 665.498 -54.1834 665.542L-58.1376 666.028C-58.5233 666.075 -58.7386 665.917 -58.7833 665.552L-59.2412 661.823L-71.2 663.292L-70.7421 667.021C-70.6974 667.385 -70.8572 667.59 -71.2215 667.634ZM-68.387 644.477C-67.8886 651.725 -68.1852 656.308 -69.2767 658.226L-62.0435 657.338L-63.6935 643.9L-68.387 644.477ZM-41.2648 659.616L-49.9124 660.678C-50.2982 660.725 -50.5148 660.556 -50.5621 660.17L-53.2423 638.342C-53.2897 637.957 -53.1205 637.74 -52.7347 637.693L-48.6841 637.195C-48.3198 637.151 -48.1139 637.321 -48.0666 637.707L-47.21 644.683L-43.4166 644.217C-40.8234 643.899 -38.7153 644.325 -37.0921 645.496C-35.4476 646.665 -34.4792 648.439 -34.1871 650.818C-33.8872 653.261 -34.3589 655.266 -35.6023 656.832C-36.8484 658.378 -38.7359 659.306 -41.2648 659.616ZM-25.9627 657.737L-30.0132 658.235C-30.3776 658.279 -30.5834 658.109 -30.6308 657.723L-33.3109 635.895C-33.3583 635.509 -33.1998 635.294 -32.8355 635.249L-28.7849 634.752C-28.3992 634.705 -28.1826 634.874 -28.1352 635.26L-25.4551 657.088C-25.4077 657.473 -25.5769 657.69 -25.9627 657.737ZM-46.6219 649.473L-45.9035 655.324L-42.1744 654.866C-40.1384 654.616 -39.2441 653.483 -39.4915 651.469C-39.723 649.583 -40.8568 648.765 -42.8928 649.015L-46.6219 649.473ZM-8.97688 648.766C-9.29577 651.307 -10.0123 653.179 -11.1264 654.382C-12.2404 655.585 -13.8651 656.35 -16.0004 656.677C-16.3861 656.725 -16.6014 656.566 -16.6461 656.202L-17.1001 652.505C-17.1422 652.162 -16.9837 651.947 -16.6246 651.859C-15.7993 651.671 -15.1958 651.27 -14.8142 650.658C-14.4137 650.021 -14.1571 649.011 -14.0443 647.626C-13.7844 645.136 -13.9456 640.457 -14.5279 633.589C-14.5538 633.2 -14.3739 632.982 -13.9881 632.935L-0.00402289 631.218C0.360314 631.173 0.566166 631.344 0.613532 631.73L3.29368 653.558C3.34104 653.943 3.18256 654.159 2.81822 654.203L-1.23234 654.701C-1.59668 654.746 -1.80253 654.575 -1.8499 654.189L-4.00901 636.605L-9.05614 637.224C-8.67575 642.094 -8.64933 645.942 -8.97688 648.766ZM25.6416 651.401L21.6553 651.891C21.291 651.935 21.0851 651.765 21.0378 651.379L20.418 646.332C20.0944 643.696 19.8908 640.621 19.8074 637.107L19.7071 637.086C18.8704 640.017 17.9339 642.667 16.8977 645.035L13.5711 652.492C13.4527 652.767 13.2434 652.923 12.9434 652.96L8.66778 653.485C8.30345 653.53 8.09759 653.359 8.05023 652.974L5.37008 631.146C5.32272 630.76 5.4812 630.545 5.84554 630.5L9.83181 630.01C10.2176 629.963 10.4341 630.132 10.4815 630.518L11.1881 636.272C11.5196 638.973 11.753 641.848 11.8883 644.899L11.9887 644.919C12.423 643.496 13.288 641.062 14.5838 637.618L17.9482 629.405C18.0452 629.132 18.2437 628.978 18.5437 628.941L22.8193 628.416C23.2051 628.368 23.4217 628.538 23.469 628.923L26.1492 650.751C26.1965 651.137 26.0273 651.354 25.6416 651.401ZM34.1049 654.702L30.1187 655.191C29.7543 655.236 29.5498 655.076 29.505 654.712L28.5301 646.772C28.4854 646.407 28.6452 646.203 29.0095 646.158L29.8453 646.055C30.5105 645.626 31.001 644.837 31.3168 643.688C31.63 642.519 31.8081 640.691 31.851 638.206C31.8939 635.721 31.7795 632.308 31.5078 627.969C31.4792 627.559 31.6471 627.332 32.0114 627.287L45.6419 625.613C46.0277 625.566 46.2442 625.735 46.2916 626.121L48.4547 643.738L50.0299 643.544C50.3942 643.5 50.6001 643.67 50.6475 644.056L51.6224 651.996C51.6671 652.361 51.5073 652.565 51.143 652.61L47.1889 653.095C46.8031 653.143 46.5879 652.984 46.5431 652.62L46.0853 648.891L34.1264 650.359L34.5843 654.088C34.6291 654.453 34.4693 654.657 34.1049 654.702ZM36.9395 631.544C37.4379 638.793 37.1413 643.376 36.0498 645.294L43.2829 644.405L41.633 630.968L36.9395 631.544ZM64.0616 646.684L55.414 647.745C55.0282 647.793 54.8117 647.624 54.7643 647.238L52.0842 625.41C52.0368 625.024 52.206 624.808 52.5918 624.76L56.6423 624.263C57.0067 624.218 57.2125 624.389 57.2599 624.774L58.1164 631.75L61.9098 631.285C64.503 630.966 66.6112 631.393 68.2343 632.564C69.8789 633.732 70.8472 635.506 71.1393 637.885C71.4393 640.328 70.9676 642.333 69.7241 643.9C68.4781 645.445 66.5906 646.373 64.0616 646.684ZM79.3638 644.805L75.3132 645.302C74.9489 645.347 74.743 645.176 74.6957 644.791L72.0155 622.963C71.9681 622.577 72.1266 622.362 72.491 622.317L76.5415 621.819C76.9273 621.772 77.1439 621.941 77.1912 622.327L79.8714 644.155C79.9187 644.541 79.7495 644.757 79.3638 644.805ZM58.7046 636.54L59.4229 642.391L63.152 641.933C65.188 641.683 66.0824 640.551 65.835 638.536C65.6034 636.65 64.4696 635.832 62.4336 636.082L58.7046 636.54ZM96.3496 635.834C96.0307 638.375 95.3142 640.247 94.2001 641.449C93.086 642.652 91.4613 643.417 89.3261 643.745C88.9403 643.792 88.7251 643.634 88.6803 643.269L88.2264 639.572C88.1843 639.229 88.3428 639.014 88.7019 638.927C89.5272 638.738 90.1306 638.338 90.5123 637.725C90.9127 637.089 91.1694 636.078 91.2822 634.694C91.5421 632.204 91.3809 627.525 90.7986 620.656C90.7727 620.268 90.9526 620.05 91.3384 620.003L105.322 618.286C105.687 618.241 105.893 618.411 105.94 618.797L108.62 640.625C108.668 641.011 108.509 641.226 108.145 641.271L104.094 641.768C103.73 641.813 103.524 641.643 103.477 641.257L101.317 623.672L96.2703 624.292C96.6507 629.162 96.6771 633.009 96.3496 635.834ZM130.968 638.469L126.982 638.958C126.617 639.003 126.412 638.832 126.364 638.447L125.745 633.399C125.421 630.763 125.217 627.688 125.134 624.174L125.034 624.154C124.197 627.085 123.26 629.734 122.224 632.102L118.898 639.559C118.779 639.835 118.57 639.991 118.27 640.028L113.994 640.553C113.63 640.597 113.424 640.427 113.377 640.041L110.697 618.213C110.649 617.827 110.808 617.612 111.172 617.567L115.158 617.078C115.544 617.031 115.761 617.2 115.808 617.586L116.515 623.34C116.846 626.04 117.08 628.916 117.215 631.967L117.315 631.987C117.749 630.563 118.615 628.129 119.91 624.685L123.275 616.473C123.372 616.2 123.57 616.045 123.87 616.008L128.146 615.483C128.532 615.436 128.748 615.605 128.795 615.991L131.476 637.819C131.523 638.205 131.354 638.421 130.968 638.469ZM139.431 641.77L135.445 642.259C135.081 642.304 134.876 642.144 134.832 641.78L133.857 633.839C133.812 633.475 133.972 633.27 134.336 633.226L135.172 633.123C135.837 632.693 136.327 631.904 136.643 630.756C136.957 629.586 137.135 627.759 137.177 625.273C137.22 622.788 137.106 619.376 136.834 615.036C136.806 614.627 136.974 614.399 137.338 614.355L150.968 612.681C151.354 612.634 151.571 612.803 151.618 613.189L153.781 630.805L155.356 630.612C155.721 630.567 155.927 630.738 155.974 631.123L156.949 639.064C156.994 639.428 156.834 639.633 156.469 639.677L152.515 640.163C152.13 640.21 151.914 640.052 151.87 639.688L151.412 635.958L139.453 637.427L139.911 641.156C139.956 641.52 139.796 641.725 139.431 641.77ZM142.266 618.612C142.764 625.86 142.468 630.443 141.376 632.361L148.609 631.473L146.959 618.035L142.266 618.612ZM169.388 633.751L160.74 634.813C160.355 634.86 160.138 634.691 160.091 634.305L157.411 612.477C157.363 612.092 157.532 611.875 157.918 611.828L161.969 611.33C162.333 611.286 162.539 611.456 162.586 611.842L163.443 618.818L167.236 618.352C169.83 618.034 171.938 618.46 173.561 619.631C175.205 620.8 176.174 622.574 176.466 624.953C176.766 627.396 176.294 629.401 175.051 630.968C173.805 632.513 171.917 633.441 169.388 633.751ZM184.69 631.872L180.64 632.37C180.275 632.414 180.069 632.244 180.022 631.858L177.342 610.03C177.295 609.644 177.453 609.429 177.817 609.384L181.868 608.887C182.254 608.84 182.47 609.009 182.518 609.395L185.198 631.223C185.245 631.608 185.076 631.825 184.69 631.872ZM164.031 623.608L164.749 629.459L168.479 629.001C170.515 628.751 171.409 627.618 171.161 625.604C170.93 623.718 169.796 622.9 167.76 623.15L164.031 623.608ZM-109.916 697.43C-110.235 699.971 -110.951 701.843 -112.066 703.046C-113.18 704.249 -114.804 705.014 -116.94 705.341C-117.325 705.389 -117.541 705.23 -117.585 704.866L-118.039 701.169C-118.081 700.826 -117.923 700.611 -117.564 700.523C-116.738 700.335 -116.135 699.934 -115.753 699.322C-115.353 698.685 -115.096 697.675 -114.983 696.291C-114.724 693.8 -114.885 689.121 -115.467 682.253C-115.493 681.865 -115.313 681.647 -114.927 681.599L-100.943 679.882C-100.579 679.837 -100.373 680.008 -100.326 680.394L-97.6455 702.222C-97.5981 702.608 -97.7566 702.823 -98.1209 702.868L-102.172 703.365C-102.536 703.41 -102.742 703.239 -102.789 702.853L-104.948 685.269L-109.995 685.888C-109.615 690.758 -109.588 694.606 -109.916 697.43ZM-75.2976 700.065L-79.2839 700.555C-79.6482 700.599 -79.8541 700.429 -79.9014 700.043L-80.5211 694.996C-80.8448 692.36 -81.0483 689.285 -81.1317 685.771L-81.2321 685.751C-82.0688 688.681 -83.0052 691.331 -84.0415 693.699L-87.3681 701.156C-87.4865 701.431 -87.6957 701.588 -87.9958 701.624L-92.2714 702.149C-92.6357 702.194 -92.8416 702.024 -92.8889 701.638L-95.5691 679.81C-95.6165 679.424 -95.458 679.209 -95.0936 679.164L-91.1074 678.675C-90.7216 678.627 -90.505 678.796 -90.4577 679.182L-89.7511 684.937C-89.4195 687.637 -89.1861 690.512 -89.0508 693.563L-88.9504 693.584C-88.5161 692.16 -87.6511 689.726 -86.3554 686.282L-82.991 678.07C-82.894 677.797 -82.6955 677.642 -82.3954 677.605L-78.1198 677.08C-77.7341 677.033 -77.5175 677.202 -77.4701 677.587L-74.79 699.416C-74.7426 699.801 -74.9118 700.018 -75.2976 700.065ZM-66.8342 703.366L-70.8205 703.856C-71.1848 703.9 -71.3894 703.74 -71.4341 703.376L-72.4091 695.436C-72.4538 695.071 -72.294 694.867 -71.9297 694.822L-71.0938 694.72C-70.4287 694.29 -69.9382 693.501 -69.6223 692.353C-69.3091 691.183 -69.131 689.355 -69.0881 686.87C-69.0452 684.385 -69.1596 680.972 -69.4314 676.633C-69.4599 676.223 -69.2921 675.996 -68.9277 675.951L-55.2972 674.278C-54.9115 674.23 -54.6949 674.399 -54.6475 674.785L-52.4845 692.402L-50.9093 692.209C-50.5449 692.164 -50.3391 692.334 -50.2917 692.72L-49.3167 700.66C-49.272 701.025 -49.4318 701.229 -49.7962 701.274L-53.7503 701.76C-54.136 701.807 -54.3513 701.648 -54.396 701.284L-54.8539 697.555L-66.8127 699.023L-66.3548 702.752C-66.3101 703.117 -66.4699 703.321 -66.8342 703.366ZM-63.9997 680.208C-63.5013 687.457 -63.7979 692.04 -64.8894 693.958L-57.6563 693.07L-59.3062 679.632L-63.9997 680.208ZM-36.8775 695.348L-45.5251 696.41C-45.9109 696.457 -46.1275 696.288 -46.1748 695.902L-48.855 674.074C-48.9024 673.688 -48.7332 673.472 -48.3474 673.424L-44.2968 672.927C-43.9325 672.882 -43.7266 673.053 -43.6793 673.438L-42.8227 680.414L-39.0293 679.949C-36.4361 679.63 -34.328 680.057 -32.7048 681.228C-31.0603 682.397 -30.0919 684.17 -29.7999 686.549C-29.4999 688.992 -29.9716 690.997 -31.215 692.564C-32.4611 694.109 -34.3486 695.037 -36.8775 695.348ZM-21.5754 693.469L-25.6259 693.966C-25.9903 694.011 -26.1961 693.841 -26.2435 693.455L-28.9237 671.627C-28.971 671.241 -28.8125 671.026 -28.4482 670.981L-24.3976 670.484C-24.0119 670.436 -23.7953 670.605 -23.7479 670.991L-21.0678 692.819C-21.0204 693.205 -21.1896 693.422 -21.5754 693.469ZM-42.2346 685.204L-41.5162 691.055L-37.7871 690.597C-35.7511 690.347 -34.8568 689.215 -35.1042 687.201C-35.3357 685.315 -36.4695 684.497 -38.5055 684.747L-42.2346 685.204ZM-4.58958 684.498C-4.90848 687.039 -5.62497 688.911 -6.73906 690.114C-7.85315 691.316 -9.47782 692.081 -11.6131 692.409C-11.9988 692.456 -12.2141 692.298 -12.2588 691.933L-12.7128 688.236C-12.7549 687.894 -12.5964 687.678 -12.2373 687.591C-11.412 687.402 -10.8085 687.002 -10.4269 686.389C-10.0264 685.753 -9.7698 684.742 -9.65698 683.358C-9.39711 680.868 -9.55831 676.189 -10.1406 669.32C-10.1665 668.932 -9.98658 668.714 -9.60082 668.667L4.38327 666.95C4.74761 666.905 4.95346 667.076 5.00083 667.461L7.68097 689.289C7.72834 689.675 7.56986 689.89 7.20552 689.935L3.15496 690.432C2.79062 690.477 2.58477 690.307 2.5374 689.921L0.378284 672.336L-4.66885 672.956C-4.28845 677.826 -4.26203 681.673 -4.58958 684.498ZM30.0289 687.133L26.0426 687.622C25.6783 687.667 25.4724 687.496 25.425 687.111L24.8053 682.064C24.4817 679.427 24.2781 676.352 24.1947 672.838L24.0944 672.818C23.2577 675.749 22.3212 678.398 21.285 680.766L17.9584 688.223C17.84 688.499 17.6307 688.655 17.3307 688.692L13.0551 689.217C12.6907 689.262 12.4849 689.091 12.4375 688.705L9.75738 666.877C9.71001 666.492 9.8685 666.276 10.2328 666.232L14.2191 665.742C14.6049 665.695 14.8214 665.864 14.8688 666.25L15.5754 672.004C15.9069 674.704 16.1403 677.58 16.2756 680.631L16.376 680.651C16.8103 679.227 17.6753 676.793 18.9711 673.349L22.3354 665.137C22.4325 664.864 22.631 664.709 22.931 664.672L27.2066 664.147C27.5924 664.1 27.809 664.269 27.8563 664.655L30.5365 686.483C30.5838 686.869 30.4146 687.085 30.0289 687.133ZM38.4922 690.434L34.5059 690.923C34.1416 690.968 33.9371 690.808 33.8923 690.444L32.9174 682.503C32.8726 682.139 33.0324 681.934 33.3968 681.89L34.2326 681.787C34.8978 681.357 35.3883 680.568 35.7041 679.42C36.0173 678.25 36.1954 676.423 36.2383 673.938C36.2812 671.452 36.1668 668.04 35.8951 663.701C35.8665 663.291 36.0344 663.063 36.3987 663.019L50.0292 661.345C50.415 661.298 50.6315 661.467 50.6789 661.853L52.842 679.469L54.4172 679.276C54.7815 679.231 54.9874 679.402 55.0347 679.788L56.0097 687.728C56.0544 688.092 55.8946 688.297 55.5303 688.342L51.5762 688.827C51.1904 688.874 50.9752 688.716 50.9304 688.352L50.4726 684.623L38.5137 686.091L38.9716 689.82C39.0164 690.184 38.8566 690.389 38.4922 690.434ZM41.3268 667.276C41.8252 674.524 41.5286 679.107 40.4371 681.025L47.6702 680.137L46.0203 666.7L41.3268 667.276ZM68.4489 682.415L59.8013 683.477C59.4155 683.525 59.199 683.355 59.1516 682.97L56.4715 661.142C56.4241 660.756 56.5933 660.539 56.9791 660.492L61.0296 659.994C61.394 659.95 61.5998 660.12 61.6472 660.506L62.5037 667.482L66.2971 667.016C68.8903 666.698 70.9985 667.124 72.6216 668.295C74.2662 669.464 75.2345 671.238 75.5266 673.617C75.8266 676.06 75.3549 678.065 74.1114 679.632C72.8654 681.177 70.9779 682.105 68.4489 682.415ZM83.7511 680.536L79.7005 681.034C79.3362 681.079 79.1303 680.908 79.083 680.522L76.4028 658.694C76.3554 658.308 76.5139 658.093 76.8783 658.048L80.9288 657.551C81.3146 657.504 81.5312 657.673 81.5785 658.059L84.2587 679.887C84.306 680.273 84.1368 680.489 83.7511 680.536ZM63.0919 672.272L63.8102 678.123L67.5393 677.665C69.5753 677.415 70.4697 676.283 70.2223 674.268C69.9907 672.382 68.8569 671.564 66.8209 671.814L63.0919 672.272ZM100.737 671.566C100.418 674.106 99.7015 675.978 98.5874 677.181C97.4733 678.384 95.8486 679.149 93.7134 679.476C93.3276 679.524 93.1124 679.365 93.0676 679.001L92.6137 675.304C92.5716 674.961 92.7301 674.746 93.0892 674.658C93.9145 674.47 94.5179 674.07 94.8996 673.457C95.3 672.82 95.5567 671.81 95.6695 670.426C95.9294 667.935 95.7682 663.256 95.1859 656.388C95.16 656 95.3399 655.782 95.7256 655.734L109.71 654.017C110.074 653.973 110.28 654.143 110.327 654.529L113.007 676.357C113.055 676.743 112.896 676.958 112.532 677.003L108.481 677.5C108.117 677.545 107.911 677.374 107.864 676.988L105.705 659.404L100.658 660.024C101.038 664.893 101.064 668.741 100.737 671.566ZM135.355 674.2L131.369 674.69C131.005 674.734 130.799 674.564 130.752 674.178L130.132 669.131C129.808 666.495 129.605 663.42 129.521 659.906L129.421 659.886C128.584 662.816 127.648 665.466 126.611 667.834L123.285 675.291C123.166 675.566 122.957 675.723 122.657 675.759L118.382 676.284C118.017 676.329 117.811 676.159 117.764 675.773L115.084 653.945C115.036 653.559 115.195 653.344 115.559 653.299L119.546 652.81C119.931 652.762 120.148 652.931 120.195 653.317L120.902 659.072C121.233 661.772 121.467 664.648 121.602 667.698L121.702 667.719C122.137 666.295 123.002 663.861 124.298 660.417L127.662 652.205C127.759 651.932 127.957 651.777 128.257 651.74L132.533 651.215C132.919 651.168 133.135 651.337 133.183 651.723L135.863 673.551C135.91 673.936 135.741 674.153 135.355 674.2ZM143.819 677.501L139.832 677.991C139.468 678.035 139.264 677.876 139.219 677.511L138.244 669.571C138.199 669.206 138.359 669.002 138.723 668.957L139.559 668.855C140.224 668.425 140.715 667.636 141.031 666.488C141.344 665.318 141.522 663.49 141.565 661.005C141.608 658.52 141.493 655.107 141.222 650.768C141.193 650.358 141.361 650.131 141.725 650.086L155.356 648.413C155.741 648.365 155.958 648.535 156.005 648.92L158.168 666.537L159.744 666.344C160.108 666.299 160.314 666.469 160.361 666.855L161.336 674.796C161.381 675.16 161.221 675.364 160.857 675.409L156.903 675.895C156.517 675.942 156.302 675.784 156.257 675.419L155.799 671.69L143.84 673.158L144.298 676.888C144.343 677.252 144.183 677.456 143.819 677.501ZM146.653 654.343C147.152 661.592 146.855 666.175 145.764 668.093L152.997 667.205L151.347 653.767L146.653 654.343ZM173.775 669.483L165.128 670.545C164.742 670.592 164.525 670.423 164.478 670.037L161.798 648.209C161.751 647.823 161.92 647.607 162.306 647.559L166.356 647.062C166.72 647.017 166.926 647.188 166.974 647.574L167.83 654.55L171.624 654.084C174.217 653.765 176.325 654.192 177.948 655.363C179.593 656.532 180.561 658.305 180.853 660.684C181.153 663.127 180.681 665.132 179.438 666.699C178.192 668.244 176.304 669.172 173.775 669.483ZM189.078 667.604L185.027 668.101C184.663 668.146 184.457 667.976 184.409 667.59L181.729 645.762C181.682 645.376 181.84 645.161 182.205 645.116L186.255 644.619C186.641 644.571 186.858 644.741 186.905 645.126L189.585 666.954C189.633 667.34 189.463 667.557 189.078 667.604ZM168.418 659.339L169.137 665.19L172.866 664.732C174.902 664.482 175.796 663.35 175.549 661.336C175.317 659.45 174.183 658.632 172.147 658.882L168.418 659.339ZM-105.529 733.162C-105.848 735.703 -106.564 737.575 -107.678 738.778C-108.792 739.98 -110.417 740.746 -112.552 741.073C-112.938 741.12 -113.153 740.962 -113.198 740.598L-113.652 736.901C-113.694 736.558 -113.536 736.342 -113.176 736.255C-112.351 736.067 -111.748 735.666 -111.366 735.054C-110.966 734.417 -110.709 733.407 -110.596 732.022C-110.336 729.532 -110.497 724.853 -111.08 717.985C-111.106 717.596 -110.926 717.378 -110.54 717.331L-96.5559 715.614C-96.1916 715.569 -95.9857 715.74 -95.9383 716.125L-93.2582 737.953C-93.2108 738.339 -93.3693 738.554 -93.7336 738.599L-97.7842 739.097C-98.1485 739.141 -98.3544 738.971 -98.4018 738.585L-100.561 721L-105.608 721.62C-105.228 726.49 -105.201 730.337 -105.529 733.162ZM-70.9103 735.797L-74.8966 736.286C-75.2609 736.331 -75.4668 736.161 -75.5141 735.775L-76.1338 730.728C-76.4575 728.092 -76.661 725.017 -76.7444 721.503L-76.8448 721.482C-77.6815 724.413 -78.6179 727.062 -79.6542 729.43L-82.9808 736.887C-83.0992 737.163 -83.3085 737.319 -83.6085 737.356L-87.8841 737.881C-88.2484 737.926 -88.4543 737.755 -88.5016 737.369L-91.1818 715.541C-91.2292 715.156 -91.0707 714.94 -90.7063 714.896L-86.7201 714.406C-86.3343 714.359 -86.1177 714.528 -86.0704 714.914L-85.3638 720.668C-85.0323 723.369 -84.7988 726.244 -84.6635 729.295L-84.5631 729.315C-84.1288 727.891 -83.2638 725.457 -81.9681 722.013L-78.6037 713.801C-78.5067 713.528 -78.3082 713.373 -78.0081 713.337L-73.7325 712.812C-73.3468 712.764 -73.1302 712.933 -73.0828 713.319L-70.4027 735.147C-70.3553 735.533 -70.5245 735.75 -70.9103 735.797ZM-62.4469 739.098L-66.4332 739.587C-66.7975 739.632 -67.0021 739.472 -67.0468 739.108L-68.0218 731.167C-68.0665 730.803 -67.9067 730.599 -67.5424 730.554L-66.7065 730.451C-66.0414 730.021 -65.5509 729.232 -65.235 728.084C-64.9218 726.914 -64.7437 725.087 -64.7008 722.602C-64.6579 720.116 -64.7723 716.704 -65.0441 712.365C-65.0726 711.955 -64.9048 711.728 -64.5404 711.683L-50.9099 710.009C-50.5242 709.962 -50.3076 710.131 -50.2602 710.517L-48.0972 728.134L-46.522 727.94C-46.1576 727.895 -45.9518 728.066 -45.9044 728.452L-44.9295 736.392C-44.8847 736.756 -45.0445 736.961 -45.4089 737.006L-49.363 737.491C-49.7487 737.539 -49.964 737.38 -50.0087 737.016L-50.4666 733.287L-62.4254 734.755L-61.9675 738.484C-61.9228 738.848 -62.0826 739.053 -62.4469 739.098ZM-59.6124 715.94C-59.114 723.188 -59.4106 727.771 -60.5021 729.689L-53.269 728.801L-54.9189 715.364L-59.6124 715.94ZM-32.4902 731.079L-41.1379 732.141C-41.5236 732.189 -41.7402 732.019 -41.7876 731.634L-44.4677 709.806C-44.5151 709.42 -44.3459 709.203 -43.9601 709.156L-39.9095 708.659C-39.5452 708.614 -39.3393 708.784 -39.292 709.17L-38.4354 716.146L-34.6421 715.68C-32.0488 715.362 -29.9407 715.788 -28.3175 716.96C-26.673 718.128 -25.7046 719.902 -25.4126 722.281C-25.1126 724.724 -25.5843 726.729 -26.8277 728.296C-28.0738 729.841 -29.9613 730.769 -32.4902 731.079ZM-17.1881 729.201L-21.2387 729.698C-21.603 729.743 -21.8088 729.572 -21.8562 729.186L-24.5364 707.358C-24.5837 706.973 -24.4252 706.757 -24.0609 706.713L-20.0103 706.215C-19.6246 706.168 -19.408 706.337 -19.3606 706.723L-16.6805 728.551C-16.6331 728.937 -16.8023 729.153 -17.1881 729.201ZM-37.8473 720.936L-37.1289 726.787L-33.3998 726.329C-31.3638 726.079 -30.4695 724.947 -30.7169 722.932C-30.9484 721.046 -32.0822 720.228 -34.1182 720.478L-37.8473 720.936ZM-0.202283 720.23C-0.52118 722.771 -1.23767 724.642 -2.35176 725.845C-3.46585 727.048 -5.09052 727.813 -7.22579 728.141C-7.61155 728.188 -7.82681 728.029 -7.87154 727.665L-8.32547 723.968C-8.36757 723.625 -8.20909 723.41 -7.85001 723.322C-7.02471 723.134 -6.42123 722.734 -6.03959 722.121C-5.63914 721.485 -5.38251 720.474 -5.26968 719.09C-5.00981 716.6 -5.17101 711.92 -5.75327 705.052C-5.7792 704.664 -5.59929 704.446 -5.21352 704.398L8.77057 702.681C9.13491 702.637 9.34076 702.807 9.38812 703.193L12.0683 725.021C12.1156 725.407 11.9572 725.622 11.5928 725.667L7.54225 726.164C7.17791 726.209 6.97206 726.038 6.9247 725.653L4.76558 708.068L-0.28155 708.688C0.098845 713.558 0.125267 717.405 -0.202283 720.23ZM34.4162 722.864L30.4299 723.354C30.0656 723.399 29.8597 723.228 29.8123 722.842L29.1926 717.795C28.869 715.159 28.6654 712.084 28.582 708.57L28.4817 708.55C27.645 711.481 26.7085 714.13 25.6723 716.498L22.3457 723.955C22.2273 724.23 22.018 724.387 21.718 724.424L17.4424 724.949C17.078 724.993 16.8722 724.823 16.8248 724.437L14.1447 702.609C14.0973 702.223 14.2558 702.008 14.6201 701.963L18.6064 701.474C18.9922 701.426 19.2087 701.596 19.2561 701.981L19.9626 707.736C20.2942 710.436 20.5276 713.312 20.6629 716.362L20.7633 716.383C21.1976 714.959 22.0626 712.525 23.3584 709.081L26.7227 700.869C26.8198 700.596 27.0183 700.441 27.3183 700.404L31.5939 699.879C31.9797 699.832 32.1963 700.001 32.2436 700.387L34.9238 722.215C34.9711 722.6 34.8019 722.817 34.4162 722.864ZM42.8795 726.165L38.8932 726.655C38.5289 726.699 38.3244 726.54 38.2796 726.175L37.3047 718.235C37.2599 717.871 37.4197 717.666 37.7841 717.621L38.6199 717.519C39.2851 717.089 39.7755 716.3 40.0914 715.152C40.4046 713.982 40.5827 712.154 40.6256 709.669C40.6685 707.184 40.5541 703.772 40.2824 699.432C40.2538 699.022 40.4217 698.795 40.786 698.75L54.4165 697.077C54.8023 697.029 55.0188 697.199 55.0662 697.584L57.2293 715.201L58.8045 715.008C59.1688 714.963 59.3747 715.134 59.422 715.519L60.397 723.46C60.4417 723.824 60.2819 724.029 59.9176 724.073L55.9635 724.559C55.5777 724.606 55.3625 724.448 55.3177 724.083L54.8598 720.354L42.901 721.823L43.3589 725.552C43.4037 725.916 43.2438 726.121 42.8795 726.165ZM45.7141 703.007C46.2125 710.256 45.9159 714.839 44.8243 716.757L52.0575 715.869L50.4076 702.431L45.7141 703.007ZM72.8362 718.147L64.1886 719.209C63.8028 719.256 63.5863 719.087 63.5389 718.701L60.8588 696.873C60.8114 696.487 60.9806 696.271 61.3664 696.223L65.4169 695.726C65.7813 695.681 65.9871 695.852 66.0345 696.238L66.891 703.214L70.6844 702.748C73.2776 702.429 75.3858 702.856 77.0089 704.027C78.6535 705.196 79.6218 706.97 79.9139 709.348C80.2139 711.792 79.7422 713.797 78.4987 715.363C77.2527 716.909 75.3652 717.837 72.8362 718.147ZM88.1384 716.268L84.0878 716.766C83.7235 716.81 83.5176 716.64 83.4702 716.254L80.7901 694.426C80.7427 694.04 80.9012 693.825 81.2656 693.78L85.3161 693.283C85.7019 693.235 85.9185 693.405 85.9658 693.79L88.646 715.618C88.6933 716.004 88.5241 716.221 88.1384 716.268ZM67.4791 708.004L68.1975 713.854L71.9266 713.397C73.9626 713.147 74.8569 712.014 74.6096 710C74.378 708.114 73.2442 707.296 71.2082 707.546L67.4791 708.004ZM105.124 707.297C104.805 709.838 104.089 711.71 102.975 712.913C101.861 714.116 100.236 714.881 98.1007 715.208C97.7149 715.255 97.4997 715.097 97.4549 714.733L97.001 711.036C96.9589 710.693 97.1174 710.478 97.4765 710.39C98.3018 710.202 98.9052 709.801 99.2869 709.189C99.6873 708.552 99.944 707.542 100.057 706.157C100.317 703.667 100.155 698.988 99.5732 692.12C99.5473 691.731 99.7272 691.513 100.113 691.466L114.097 689.749C114.461 689.704 114.667 689.875 114.715 690.261L117.395 712.089C117.442 712.474 117.284 712.69 116.919 712.734L112.869 713.232C112.504 713.276 112.299 713.106 112.251 712.72L110.092 695.136L105.045 695.755C105.425 700.625 105.452 704.472 105.124 707.297ZM139.743 709.932L135.756 710.421C135.392 710.466 135.186 710.296 135.139 709.91L134.519 704.863C134.195 702.227 133.992 699.152 133.909 695.638L133.808 695.617C132.971 698.548 132.035 701.198 130.999 703.565L127.672 711.022C127.554 711.298 127.344 711.454 127.044 711.491L122.769 712.016C122.405 712.061 122.199 711.89 122.151 711.505L119.471 689.676C119.424 689.291 119.582 689.075 119.947 689.031L123.933 688.541C124.319 688.494 124.535 688.663 124.583 689.049L125.289 694.803C125.621 697.504 125.854 700.379 125.989 703.43L126.09 703.45C126.524 702.026 127.389 699.592 128.685 696.148L132.049 687.936C132.146 687.663 132.345 687.508 132.645 687.472L136.92 686.947C137.306 686.899 137.523 687.068 137.57 687.454L140.25 709.282C140.298 709.668 140.128 709.885 139.743 709.932ZM148.206 713.233L144.22 713.722C143.855 713.767 143.651 713.607 143.606 713.243L142.631 705.302C142.586 704.938 142.746 704.734 143.111 704.689L143.946 704.586C144.612 704.157 145.102 703.368 145.418 702.219C145.731 701.05 145.909 699.222 145.952 696.737C145.995 694.251 145.881 690.839 145.609 686.5C145.58 686.09 145.748 685.863 146.112 685.818L159.743 684.144C160.129 684.097 160.345 684.266 160.393 684.652L162.556 702.269L164.131 702.075C164.495 702.031 164.701 702.201 164.749 702.587L165.723 710.527C165.768 710.892 165.608 711.096 165.244 711.141L161.29 711.626C160.904 711.674 160.689 711.515 160.644 711.151L160.186 707.422L148.228 708.89L148.685 712.619C148.73 712.984 148.57 713.188 148.206 713.233ZM151.041 690.075C151.539 697.323 151.242 701.907 150.151 703.824L157.384 702.936L155.734 689.499L151.041 690.075ZM178.163 705.215L169.515 706.276C169.129 706.324 168.913 706.155 168.865 705.769L166.185 683.941C166.138 683.555 166.307 683.338 166.693 683.291L170.743 682.794C171.108 682.749 171.314 682.919 171.361 683.305L172.217 690.281L176.011 689.815C178.604 689.497 180.712 689.923 182.335 691.095C183.98 692.263 184.948 694.037 185.24 696.416C185.54 698.859 185.069 700.864 183.825 702.431C182.579 703.976 180.692 704.904 178.163 705.215ZM193.465 703.336L189.414 703.833C189.05 703.878 188.844 703.707 188.797 703.321L186.117 681.493C186.069 681.108 186.228 680.892 186.592 680.848L190.643 680.35C191.028 680.303 191.245 680.472 191.292 680.858L193.972 702.686C194.02 703.072 193.851 703.288 193.465 703.336ZM172.806 695.071L173.524 700.922L177.253 700.464C179.289 700.214 180.183 699.082 179.936 697.067C179.704 695.181 178.571 694.363 176.535 694.613L172.806 695.071Z"
        fill="url(#paint0_linear_376_51386)" />

    <defs>
        <linearGradient id="paint0_linear_376_51386" x1="87.376" y1="450.277" x2="-143.202" y2="709.579"
            gradientUnits="userSpaceOnUse">
            <stop stop-color="white" stop-opacity="0" />
            <stop offset="1" stop-color="white" />
        </linearGradient>
        <clipPath id="clip0_376_51386">
            <rect width="206.372" height="176.891" fill="white" transform="translate(208.257) rotate(8.86391)" />
        </clipPath>
    </defs>
</svg>