<svg width="77" height="65" viewBox="0 0 77 65" fill="none" xmlns="http://www.w3.org/2000/svg">
<path d="M36.0209 40.4571L34.7957 39.5699L22.0684 30.3474L20.5375 35.9165C19.3566 40.2123 25.3638 45.609 33.9555 47.9707C42.5471 50.3325 50.4688 48.7647 51.6497 44.4689L53.1806 38.8998L37.5274 40.3208L36.0209 40.4571Z" fill="white"/>
<path d="M67.1915 33.5786L71.4814 33.1892L72.5505 29.3002L44.6454 9.08073L10.326 12.1954L9.257 16.0844L37.162 36.3039L62.9016 33.9679L61.7598 38.1214L59.8133 45.2025C58.4708 45.558 57.3428 46.5814 56.9481 48.0172C56.5534 49.4531 56.9997 50.9093 57.972 51.901L51.7964 59.1498C52.4543 60.5972 54.5443 61.9966 57.0955 62.6979C59.6467 63.3992 62.1582 63.2647 63.4635 62.3569L61.861 52.97C63.2035 52.6146 64.3315 51.5912 64.7262 50.1553C65.1209 48.7195 64.6745 47.2633 63.7023 46.2716L66.0497 37.7321L67.1915 33.5786Z" fill="white"/>
</svg>
