<svg width="1920" height="1347" viewBox="0 0 1920 1347" fill="none" xmlns="http://www.w3.org/2000/svg">
    <g filter="url(#filter0_f_286_3130)">
        <path
            d="M312.243 1466.17C60.7971 1395.35 170.86 1114.87 204.731 910.506C230.935 852.337 300.817 706.636 370.703 589.18C458.062 442.359 623.002 465.939 689.045 748.903C755.088 1031.87 765.058 972.487 1094.02 912.755C1422.98 853.023 1569.88 859.204 1713.5 965.249C1857.12 1071.3 1797.18 1178.86 1811.85 1301.37C1826.52 1423.88 1545.93 1812.43 1312.62 1879.12C1079.31 1945.8 1184.52 1701.52 1013.01 1500.98C841.5 1300.44 563.689 1536.99 312.243 1466.17Z"
            fill="#5857FF" />
    </g>
    <defs>
        <filter id="filter0_f_286_3130" x="-348.509" y="0.431641" width="2660.91" height="2389.89"
            filterUnits="userSpaceOnUse" color-interpolation-filters="sRGB">
            <feFlood flood-opacity="0" result="BackgroundImageFix" />
            <feBlend mode="normal" in="SourceGraphic" in2="BackgroundImageFix" result="shape" />
            <feGaussianBlur stdDeviation="250" result="effect1_foregroundBlur_286_3130" />
        </filter>
    </defs>
</svg>