<svg xmlns="http://www.w3.org/2000/svg" width="119" height="35" viewBox="0 0 119 35" fill="none">
    <g clip-path="url(#clip0_1_12830)">
        <path d="M93.5935 0.363325L106.604 0.303223C109.724 0.303548 112.717 1.54334 114.924 3.74991C117.13 5.95649 118.37 8.94917 118.37 12.0697V22.211C118.37 23.7562 118.066 25.2862 117.475 26.7137C116.883 28.1412 116.016 29.4383 114.924 30.5308C113.831 31.6233 112.534 32.4899 111.107 33.0811C109.679 33.6723 108.149 33.9765 106.604 33.9763H93.6683C92.1232 33.9764 90.5933 33.6722 89.1658 33.081C87.7383 32.4898 86.4412 31.6232 85.3486 30.5308C84.2561 29.4382 83.3895 28.1411 82.7983 26.7136C82.2072 25.2861 81.9029 23.7561 81.903 22.211V12.0697C81.903 5.57013 87.0951 0.363325 93.5935 0.363325Z" fill="white"/>
        <path d="M96.7544 19.3419V18.7703H93.3114V16.2264H100.023V19.2524C100.023 24.0152 97.7492 26.7823 93.4451 26.7823C89.0086 26.7823 86.4304 23.2866 86.4304 17.123C86.4304 11.1128 89.2441 7.43311 94.4031 7.43311C96.3533 7.43311 98.0337 7.94949 98.9524 8.62165V11.2404C97.6326 10.4225 96.1128 9.98409 94.5601 9.97334C91.176 9.97334 89.7421 12.2707 89.7421 17.123C89.7421 21.8294 90.9294 24.2372 93.5065 24.2372C95.9694 24.2494 96.7544 22.3446 96.7544 19.3419ZM113.945 19.7001C113.945 24.2727 111.479 26.7933 107.935 26.7933C104.39 26.7933 101.924 24.2727 101.924 19.7344C101.924 15.1617 104.389 12.6411 107.935 12.6411C111.481 12.6411 113.945 15.1507 113.945 19.7001ZM110.617 19.7001C110.617 16.5625 109.721 15.185 107.94 15.185C106.159 15.185 105.261 16.5625 105.261 19.7344C105.261 22.872 106.157 24.2507 107.94 24.2507C109.722 24.2507 110.617 22.8609 110.617 19.7001Z" fill="black"/>
        <path d="M9.42572 9.91598H7.95383C5.2799 9.91598 3.8718 11.2713 3.8718 13.278C3.8718 15.5521 4.8457 16.6057 6.85237 17.9611L8.49966 19.0711L3.73687 26.1853H0.192078L4.46178 19.8206C1.99637 18.0629 0.617699 16.3592 0.617699 13.4571C0.617699 9.82644 3.13585 7.37207 7.91949 7.37207H12.681V26.1865H9.41468V9.91598H9.42572ZM26.1451 12.5715V26.1865H22.9291V20.505H18.625V26.1865H15.4089V12.5715H18.625V17.9611H22.9291V12.5715H26.1451ZM40.6788 29.2909H37.6982V26.1754H30.47V29.2909H27.4895V23.6377H28.4977C29.6298 21.3636 29.8543 17.0595 29.8543 13.7319V12.5666H39.2437V23.6377H40.6788V29.2909ZM36.0276 15.1154H32.6215V15.519C32.6215 17.8715 32.3761 21.5807 31.4783 23.6426H36.0276V15.1154ZM47.9058 26.4441C43.7943 26.4441 41.4626 24.1467 41.4626 19.4072C41.4626 15.2945 43.3343 12.2931 47.2569 12.2931C50.473 12.2931 52.5569 14.0851 52.5569 18.8148V20.5173H44.7915C44.9252 22.7925 45.8218 23.9014 48.1756 23.9014C49.7444 23.9014 51.4248 23.3077 52.422 22.6245V25.2567C51.4812 25.9068 49.9676 26.4441 47.9058 26.4441ZM44.7915 18.1414H49.2844V17.8728C49.2844 16.1703 48.7938 14.848 47.1993 14.848C45.6648 14.8358 44.881 15.9777 44.7915 18.1414ZM57.9465 19.4967V26.1865H54.7194V12.5715H57.9465V18.8467L62.502 12.5715H65.7524L61.2031 18.8467L66.3682 26.1754H62.7093L57.9465 19.4967ZM66.183 19.3851C66.183 15.2381 68.3233 12.2919 72.4385 12.2919C74.033 12.2919 75.2289 12.5605 75.9011 12.9419V15.676C75.251 15.2724 74.0293 14.8358 72.7856 14.8358C70.6783 14.8358 69.5131 16.3481 69.5131 19.3066C69.5131 22.1192 70.4661 23.9124 72.7635 23.9124C74.1189 23.9124 75.094 23.5641 75.9011 22.9925V25.6149C75.1161 26.1865 74.0612 26.4551 72.5722 26.4551C68.2669 26.4441 66.1817 23.9345 66.1817 19.3851H66.183ZM122.883 7.37207H135.091V9.91598H130.623V26.1853H127.348V9.91598H122.883V7.37207ZM144.321 22.8551C144.321 23.9648 144.375 25.0748 144.482 26.1853H141.342C141.214 25.8365 141.131 25.4724 141.097 25.1022H140.962C140.339 25.7523 139.527 26.3741 137.632 26.3741C135.142 26.3741 133.462 24.8311 133.462 22.0701C133.462 19.3091 135.654 17.6851 140.576 17.6851H141.09V16.9271C141.09 15.4662 140.386 14.9241 138.843 14.9241C137.192 14.9241 135.297 15.6281 134.427 16.2733V13.5982C135.892 12.7707 137.549 12.3414 139.232 12.3532C142.643 12.3532 144.321 13.5982 144.321 16.9001V22.8551ZM141.1 19.8242H140.635C137.874 19.8242 136.764 20.3921 136.764 21.9891C136.764 23.2071 137.441 24.0191 138.794 24.0191C139.931 24.0191 140.689 23.5285 141.095 22.9373L141.1 19.8242ZM150.139 19.4992V26.1853H146.918V12.5703H150.139V18.854L154.688 12.574H157.936L153.391 18.854L158.561 26.1902H154.906L150.139 19.4992ZM158.42 19.3913C158.42 15.2491 160.558 12.2992 164.676 12.2992C166.27 12.2992 167.464 12.5691 168.141 12.9481V15.6821C167.491 15.2761 166.273 14.8431 165.028 14.8431C162.915 14.8431 161.751 16.3592 161.751 19.3091C161.751 22.1302 162.7 23.9112 165.001 23.9112C166.35 23.9112 167.331 23.5592 168.141 22.9913V25.6161C167.356 26.1852 166.301 26.4563 164.81 26.4563C160.505 26.4588 158.42 23.9382 158.42 19.3913ZM173.446 12.5691V20.9883L178.425 12.5691H181.215V26.184H178.075V17.7661L173.094 26.1853H170.306V12.5703L173.446 12.5691Z" fill="white"/>
    </g>
    <defs>
        <clipPath id="clip0_1_12830">
            <rect width="118.533" height="34.1817" fill="white" transform="translate(0.192078 0.139648)"/>
        </clipPath>
    </defs>
</svg>