<svg width="30" height="30" viewBox="0 0 30 30" fill="none" xmlns="http://www.w3.org/2000/svg">
<g filter="url(#filter0_b_1_12658)">
<path d="M6.23733 30H23.7627C24.8262 30.0005 25.8721 29.7291 26.801 29.2115C27.7299 28.6939 28.511 27.9474 29.0698 27.0429C29.6287 26.1384 29.9468 25.1061 29.9939 24.0441C30.041 22.982 29.8155 21.9256 29.3389 20.9753L20.5762 3.44513C20.0585 2.40992 19.2626 1.53928 18.2777 0.930794C17.2928 0.322304 16.1578 0 15 0C13.8422 0 12.7072 0.322304 11.7223 0.930794C10.7374 1.53928 9.94151 2.40992 9.42376 3.44513L0.661092 20.9753C0.184492 21.9256 -0.0409804 22.982 0.00611749 24.0441C0.0532153 25.1061 0.371317 26.1384 0.930172 27.0429C1.48903 27.9474 2.27006 28.6939 3.19898 29.2115C4.12791 29.7291 5.17385 30.0005 6.23733 30ZM13.8455 11.5351C13.8455 11.229 13.9671 10.9355 14.1836 10.719C14.4002 10.5026 14.6938 10.381 15 10.381C15.3062 10.381 15.5998 10.5026 15.8164 10.719C16.0329 10.9355 16.1545 11.229 16.1545 11.5351V18.4594C16.1545 18.7655 16.0329 19.059 15.8164 19.2755C15.5998 19.4919 15.3062 19.6135 15 19.6135C14.6938 19.6135 14.4002 19.4919 14.1836 19.2755C13.9671 19.059 13.8455 18.7655 13.8455 18.4594V11.5351ZM15 21.9216C15.3425 21.9216 15.6773 22.0231 15.9621 22.2133C16.2469 22.4036 16.4689 22.6739 16.5999 22.9902C16.731 23.3065 16.7653 23.6546 16.6985 23.9904C16.6317 24.3262 16.4667 24.6346 16.2245 24.8767C15.9823 25.1188 15.6738 25.2837 15.3378 25.3505C15.0019 25.4173 14.6537 25.383 14.3373 25.252C14.0209 25.121 13.7504 24.8991 13.5601 24.6144C13.3698 24.3297 13.2682 23.9951 13.2682 23.6527C13.2682 23.1936 13.4507 22.7533 13.7755 22.4286C14.1002 22.104 14.5407 21.9216 15 21.9216Z" fill="white" fill-opacity="0.5"/>
<path d="M6.23733 29.5H6.23709C5.25886 29.5005 4.29678 29.2508 3.44235 28.7747C2.58791 28.2986 1.86954 27.612 1.35553 26.7801C0.841513 25.9482 0.548944 24.9987 0.505627 24.0219C0.462309 23.0451 0.669682 22.0735 1.10804 21.1994L1.10833 21.1988L9.87095 3.66879C9.87096 3.66876 9.87098 3.66872 9.871 3.66869C10.3472 2.71659 11.0792 1.91583 11.9851 1.35616C12.891 0.796466 13.935 0.5 15 0.5C16.065 0.5 17.109 0.796466 18.0149 1.35616C18.9207 1.91583 19.6528 2.71659 20.129 3.66869C20.129 3.66872 20.129 3.66876 20.1291 3.66879L28.8917 21.1988L28.892 21.1994C29.3303 22.0735 29.5377 23.0451 29.4944 24.0219C29.4511 24.9987 29.1585 25.9482 28.6445 26.7801C28.1305 27.612 27.4121 28.2986 26.5577 28.7747C25.7032 29.2508 24.7411 29.5005 23.7629 29.5H23.7627H6.23733ZM13.8302 10.3654C13.5199 10.6756 13.3455 11.0963 13.3455 11.5351V18.4594C13.3455 18.8982 13.5199 19.3189 13.8302 19.6291C14.1405 19.9393 14.5613 20.1135 15 20.1135C15.4387 20.1135 15.8595 19.9393 16.1698 19.6291C16.4801 19.3189 16.6545 18.8982 16.6545 18.4594V11.5351C16.6545 11.0963 16.4801 10.6756 16.1698 10.3654C15.8595 10.0552 15.4387 9.88102 15 9.88102C14.5613 9.88102 14.1405 10.0552 13.8302 10.3654ZM16.2398 21.7976C15.8728 21.5524 15.4414 21.4216 15 21.4216C14.4082 21.4216 13.8405 21.6566 13.422 22.075C13.0034 22.4934 12.7682 23.0609 12.7682 23.6527C12.7682 24.094 12.8992 24.5254 13.1444 24.8923C13.3897 25.2592 13.7382 25.5451 14.146 25.714C14.5538 25.8828 15.0025 25.927 15.4354 25.8409C15.8682 25.7548 16.2659 25.5424 16.578 25.2304C16.8901 24.9184 17.1027 24.5208 17.1889 24.088C17.275 23.6552 17.2308 23.2065 17.0618 22.7988C16.8929 22.3911 16.6068 22.0427 16.2398 21.7976Z" stroke="url(#paint0_linear_1_12658)"/>
</g>
<defs>
<filter id="filter0_b_1_12658" x="-30" y="-30" width="90" height="90" filterUnits="userSpaceOnUse" color-interpolation-filters="sRGB">
<feFlood flood-opacity="0" result="BackgroundImageFix"/>
<feGaussianBlur in="BackgroundImageFix" stdDeviation="15"/>
<feComposite in2="SourceAlpha" operator="in" result="effect1_backgroundBlur_1_12658"/>
<feBlend mode="normal" in="SourceGraphic" in2="effect1_backgroundBlur_1_12658" result="shape"/>
</filter>
<linearGradient id="paint0_linear_1_12658" x1="21.8704" y1="40.828" x2="2.13439" y2="4.02328" gradientUnits="userSpaceOnUse">
<stop stop-color="#5229A1"/>
<stop offset="0.5" stop-color="#FFEDD5"/>
<stop offset="1" stop-color="#624F86"/>
</linearGradient>
</defs>
</svg>
