<svg xmlns="http://www.w3.org/2000/svg" width="348" height="180" viewBox="0 0 348 180" fill="none">
    <g filter="url(#filter0_b_581_14157)">
        <path
            d="M84.8462 8.0789L219.401 15.9649C219.799 15.9882 220.199 15.9718 220.594 15.9159L327.275 0.810656C330.47 0.35818 333.451 2.5147 334.022 5.69142L346.478 75.0933C346.807 76.9261 346.267 78.8078 345.015 80.1864L312.5 116L289.279 145.643C289.093 145.881 288.89 146.104 288.67 146.311L256.223 176.877C255.116 177.92 253.654 178.503 252.133 178.509L8.90385 179.473C5.25748 179.487 2.44136 176.273 2.93542 172.66L9.89585 121.762C9.965 121.256 9.96935 120.744 9.90879 120.237L1.04464 46.0578C0.723188 43.3677 2.2443 40.796 4.75658 39.782L82.2495 8.50472C83.0729 8.17239 83.9598 8.02695 84.8462 8.0789Z"
            fill="black" fill-opacity="0.15" />
        <path
            d="M84.8462 8.0789L219.401 15.9649C219.799 15.9882 220.199 15.9718 220.594 15.9159L327.275 0.810656C330.47 0.35818 333.451 2.5147 334.022 5.69142L346.478 75.0933C346.807 76.9261 346.267 78.8078 345.015 80.1864L312.5 116L289.279 145.643C289.093 145.881 288.89 146.104 288.67 146.311L256.223 176.877C255.116 177.92 253.654 178.503 252.133 178.509L8.90385 179.473C5.25748 179.487 2.44136 176.273 2.93542 172.66L9.89585 121.762C9.965 121.256 9.96935 120.744 9.90879 120.237L1.04464 46.0578C0.723188 43.3677 2.2443 40.796 4.75658 39.782L82.2495 8.50472C83.0729 8.17239 83.9598 8.02695 84.8462 8.0789Z"
            stroke="url(#paint0_linear_581_14157)" />
    </g>
    <defs>
        <filter id="filter0_b_581_14157" x="-99.498" y="-99.7495" width="546.571" height="379.722"
            filterUnits="userSpaceOnUse" color-interpolation-filters="sRGB">
            <feFlood flood-opacity="0" result="BackgroundImageFix" />
            <feGaussianBlur in="BackgroundImageFix" stdDeviation="50" />
            <feComposite in2="SourceAlpha" operator="in" result="effect1_backgroundBlur_581_14157" />
            <feBlend mode="normal" in="SourceGraphic" in2="effect1_backgroundBlur_581_14157" result="shape" />
        </filter>
        <linearGradient id="paint0_linear_581_14157" x1="-38.0074" y1="-138.94" x2="555.514" y2="142.477"
            gradientUnits="userSpaceOnUse">
            <stop stop-color="#CECECE" />
            <stop offset="1" stop-opacity="0" />
        </linearGradient>
    </defs>
</svg>