<svg xmlns="http://www.w3.org/2000/svg" width="547" height="284" viewBox="0 0 547 284" fill="none">
    <path
        d="M120.703 28.4135L119.954 29.0764L120.703 28.4135ZM12.5315 63.671L12.0539 64.5496L12.5315 63.671ZM546.469 50.3595C546.957 50.1003 547.142 49.4948 546.883 49.0072L542.659 41.0598C542.4 40.5721 541.795 40.3869 541.307 40.6461C540.819 40.9053 540.634 41.5107 540.893 41.9984L544.648 49.0627L537.583 52.8171C537.096 53.0763 536.91 53.6818 537.17 54.1695C537.429 54.6571 538.034 54.8424 538.522 54.5832L546.469 50.3595ZM133.311 282.967C133.265 281.586 133.228 280.21 133.2 278.84L131.2 278.882C131.229 280.26 131.266 281.643 131.312 283.033L133.311 282.967ZM133.127 270.65C133.134 267.898 133.174 265.17 133.244 262.465L131.244 262.414C131.175 265.134 131.134 267.877 131.127 270.645L133.127 270.65ZM133.545 254.253C133.676 251.497 133.836 248.765 134.021 246.056L132.026 245.92C131.839 248.642 131.679 251.388 131.547 254.158L133.545 254.253ZM134.662 237.874C134.903 235.128 135.169 232.406 135.455 229.708L133.466 229.497C133.179 232.206 132.912 234.94 132.669 237.699L134.662 237.874ZM136.387 221.557C136.722 218.82 137.075 216.108 137.443 213.42L135.461 213.149C135.092 215.846 134.738 218.567 134.402 221.314L136.387 221.557ZM138.605 205.296C139.012 202.566 139.431 199.86 139.856 197.179L137.881 196.865C137.454 199.552 137.035 202.264 136.627 205.001L138.605 205.296ZM141.176 189.063C141.628 186.335 142.084 183.632 142.539 180.953L140.567 180.618C140.112 183.299 139.656 186.005 139.203 188.736L141.176 189.063ZM143.919 172.843C144.384 170.115 144.842 167.41 145.289 164.73L143.316 164.401C142.87 167.078 142.412 169.78 141.948 172.508L143.919 172.843ZM146.615 156.605C147.051 153.868 147.468 151.155 147.862 148.465L145.883 148.175C145.491 150.856 145.074 153.561 144.64 156.291L146.615 156.605ZM148.989 140.303C149.343 137.551 149.666 134.822 149.95 132.116L147.961 131.907C147.679 134.596 147.358 137.309 147.005 140.048L148.989 140.303ZM150.695 123.89C150.903 121.118 151.063 118.368 151.166 115.638L149.168 115.562C149.065 118.265 148.907 120.991 148.701 123.741L150.695 123.89ZM151.301 107.368C151.283 104.591 151.197 101.835 151.035 99.0971L149.038 99.2151C149.198 101.915 149.283 104.637 149.301 107.382L151.301 107.368ZM150.303 90.8488C149.974 88.1007 149.558 85.3707 149.046 82.6573L147.081 83.0279C147.584 85.6952 147.993 88.3809 148.317 91.0866L150.303 90.8488ZM147.216 74.565C146.511 71.9071 145.704 69.2643 144.786 66.6351L142.897 67.2943C143.798 69.8742 144.591 72.4681 145.283 75.0778L147.216 74.565ZM141.75 58.9186C140.654 56.4214 139.449 53.9359 138.127 51.4606L136.363 52.4024C137.66 54.8327 138.843 57.2723 139.919 59.7226L141.75 58.9186ZM133.955 44.297C132.508 42.0073 130.954 39.7256 129.288 37.4507L127.674 38.6325C129.314 40.8712 130.842 43.1152 132.265 45.3656L133.955 44.297ZM124.184 30.93C123.299 29.869 122.389 28.8093 121.451 27.7507L119.954 29.0764C120.878 30.1204 121.776 31.1652 122.648 32.2109L124.184 30.93ZM121.451 27.7507C120.557 26.7401 119.656 25.7609 118.749 24.8126L117.303 26.195C118.192 27.1246 119.076 28.0848 119.954 29.0764L121.451 27.7507ZM113.097 19.3621C111.082 17.5753 109.044 15.9276 106.988 14.4128L105.802 16.023C107.808 17.5013 109.799 19.1109 111.77 20.8584L113.097 19.3621ZM100.432 10.0581C98.1208 8.68446 95.7947 7.46573 93.4603 6.39341L92.6254 8.21084C94.8954 9.25354 97.1591 10.4394 99.4097 11.7773L100.432 10.0581ZM86.1321 3.50476C83.5947 2.66481 81.0568 1.98625 78.5275 1.45807L78.1187 3.41584C80.5744 3.92866 83.0389 4.58756 85.5036 5.40344L86.1321 3.50476ZM70.7172 0.289576C68.0636 0.0467327 65.4305 -0.0398054 62.8286 0.0165851L62.8719 2.01612C65.4003 1.96132 67.958 2.04543 70.5349 2.28125L70.7172 0.289576ZM54.9694 0.621796C52.3382 0.969771 49.7524 1.45786 47.2239 2.07096L47.6952 4.01464C50.1565 3.41783 52.6725 2.94297 55.2316 2.60453L54.9694 0.621796ZM39.6644 4.32624C37.1596 5.21676 34.73 6.22692 32.3891 7.33973L33.2477 9.14602C35.528 8.06205 37.8946 7.07806 40.3343 6.21069L39.6644 4.32624ZM25.4496 11.0882C23.1597 12.4835 20.9859 13.9763 18.9446 15.5464L20.1639 17.1317C22.1471 15.6063 24.2612 14.1543 26.4903 12.7961L25.4496 11.0882ZM12.974 20.7221C11.0305 22.6265 9.27119 24.6017 7.71991 26.6201L9.30564 27.8389C10.7963 25.8994 12.4927 23.9938 14.3738 22.1506L12.974 20.7221ZM3.4233 33.3302C2.1403 35.8231 1.19006 38.3417 0.620413 40.8362L2.57022 41.2815C3.09778 38.9712 3.98463 36.6101 5.20161 34.2454L3.4233 33.3302ZM0.187183 48.9142C0.556914 51.6046 1.48098 54.1784 3.01576 56.5544L4.69574 55.4692C3.324 53.3456 2.49958 51.0506 2.16856 48.6419L0.187183 48.9142ZM8.62904 62.3887C9.67184 63.1533 10.8127 63.8748 12.0539 64.5496L13.0092 62.7925C11.8417 62.1577 10.7773 61.4839 9.81163 60.7758L8.62904 62.3887ZM12.0539 64.5496C13.2588 65.2046 14.5426 65.7402 15.9037 66.1654L16.5001 64.2564C15.254 63.8672 14.0915 63.3809 13.0092 62.7925L12.0539 64.5496ZM24.0031 67.4437C26.5245 67.5333 29.2322 67.4015 32.1258 67.0794L31.9045 65.0917C29.0852 65.4055 26.4775 65.5304 24.0742 65.4449L24.0031 67.4437ZM40.1254 65.8217C42.6251 65.3315 45.2428 64.7414 47.9792 64.0643L47.4988 62.1228C44.7874 62.7938 42.2022 63.3764 39.7405 63.859L40.1254 65.8217ZM55.7271 62.014C58.2053 61.3217 60.7695 60.5758 63.4202 59.7836L62.8475 57.8673C60.2056 58.6569 57.6533 59.3994 55.1891 60.0877L55.7271 62.014ZM71.1041 57.4392C73.6049 56.6635 76.1754 55.8564 78.8158 55.0229L78.2138 53.1157C75.575 53.9486 73.008 54.7546 70.5116 55.529L71.1041 57.4392ZM86.3721 52.6312C88.8543 51.8447 91.3932 51.0409 93.9897 50.2233L93.3889 48.3156C90.7907 49.1339 88.2504 49.9381 85.768 50.7246L86.3721 52.6312ZM101.704 47.8094C104.176 47.0417 106.697 46.2653 109.266 45.4831L108.683 43.5698C106.11 44.3533 103.586 45.1307 101.111 45.8994L101.704 47.8094ZM116.945 43.1733C119.459 42.4267 122.018 41.6773 124.62 40.9273L124.066 39.0055C121.458 39.7571 118.895 40.508 116.376 41.256L116.945 43.1733ZM132.286 38.7542C134.832 38.0448 137.418 37.3369 140.043 36.6324L139.525 34.7007C136.893 35.4069 134.301 36.1165 131.749 36.8276L132.286 38.7542ZM147.717 34.6146C150.286 33.9532 152.891 33.2967 155.532 32.6466L155.054 30.7046C152.406 31.3564 149.794 32.0147 147.219 32.6778L147.717 34.6146ZM163.234 30.7955C165.818 30.1895 168.435 29.5909 171.086 29.0011L170.652 27.0488C167.993 27.6403 165.369 28.2406 162.778 28.8483L163.234 30.7955ZM178.834 27.3239C181.427 26.7783 184.051 26.242 186.706 25.7162L186.318 23.7543C183.655 24.2816 181.023 24.8195 178.422 25.3668L178.834 27.3239ZM194.516 24.2182C197.113 23.7361 199.739 23.2649 202.393 22.8056L202.052 20.8349C199.389 21.2956 196.756 21.7683 194.151 22.2518L194.516 24.2182ZM210.279 21.4906C212.876 21.0741 215.498 20.6695 218.148 20.2778L217.855 18.2993C215.198 18.6922 212.567 19.098 209.962 19.5159L210.279 21.4906ZM226.125 19.1493C228.716 18.7992 231.332 18.462 233.973 18.1383L233.729 16.1532C231.081 16.4778 228.457 16.8162 225.857 17.1673L226.125 19.1493ZM241.968 17.2092C244.579 16.9224 247.213 16.6492 249.87 16.3905L249.676 14.3999C247.011 14.6594 244.368 14.9334 241.749 15.2212L241.968 17.2092ZM257.821 15.6662C260.473 15.4412 263.148 15.2308 265.845 15.0359L265.701 13.0411C262.995 13.2366 260.312 13.4476 257.652 13.6733L257.821 15.6662ZM273.741 14.5136C276.395 14.3544 279.07 14.2102 281.766 14.0819L281.671 12.0841C278.966 12.2129 276.283 12.3575 273.622 12.5172L273.741 14.5136ZM289.734 13.7512C292.364 13.6581 295.015 13.5801 297.685 13.5179L297.638 11.5185C294.96 11.5809 292.302 11.6591 289.663 11.7525L289.734 13.7512ZM305.755 13.3791C308.377 13.35 311.017 13.3361 313.676 13.3381L313.677 11.3381C311.01 11.3361 308.362 11.35 305.733 11.3792L305.755 13.3791ZM321.654 13.3913C324.333 13.425 327.03 13.4749 329.745 13.5414L329.794 11.542C327.071 11.4753 324.366 11.4253 321.68 11.3915L321.654 13.3913ZM337.629 13.78C340.272 13.8751 342.933 13.9862 345.611 14.1135L345.706 12.1158C343.02 11.9881 340.352 11.8767 337.701 11.7812L337.629 13.78ZM353.692 14.5447C356.299 14.6989 358.921 14.8685 361.56 15.0541L361.7 13.059C359.054 12.8729 356.424 12.7028 353.811 12.5482L353.692 14.5447ZM369.524 15.6589C372.194 15.8767 374.882 16.1109 377.585 16.3618L377.77 14.3703C375.059 14.1188 372.364 13.884 369.686 13.6656L369.524 15.6589ZM385.442 17.1338C388.069 17.4061 390.711 17.6943 393.368 17.9986L393.595 16.0116C390.931 15.7064 388.282 15.4175 385.649 15.1445L385.442 17.1338ZM401.383 18.9606C403.994 19.2881 406.619 19.6312 409.259 19.9903L409.528 18.0086C406.882 17.6485 404.25 17.3045 401.632 16.9761L401.383 18.9606ZM417.127 21.1022C419.763 21.4886 422.414 21.891 425.079 22.3096L425.389 20.3338C422.717 19.9141 420.06 19.5107 417.417 19.1233L417.127 21.1022ZM432.997 23.5947C435.582 24.0276 438.18 24.4757 440.791 24.9395L441.141 22.9703C438.523 22.5054 435.919 22.0561 433.328 21.6222L432.997 23.5947ZM448.663 26.3776C451.3 26.8727 453.95 27.3837 456.614 27.9108L457.002 25.9489C454.332 25.4205 451.676 24.9083 449.032 24.4119L448.663 26.3776ZM464.359 29.4816C466.939 30.0176 469.531 30.5688 472.136 31.1353L472.561 29.1809C469.95 28.6131 467.352 28.0607 464.765 27.5234L464.359 29.4816ZM479.987 32.8811C482.59 33.4728 485.206 34.0798 487.833 34.7024L488.294 32.7563C485.661 32.1323 483.039 31.5239 480.43 30.9309L479.987 32.8811ZM495.504 36.556C498.072 37.1886 500.651 37.8361 503.242 38.4987L503.737 36.561C501.141 35.897 498.556 35.2481 495.982 34.614L495.504 36.556ZM511.048 40.5318C513.613 41.2119 516.19 41.9068 518.777 42.6167L519.306 40.6879C516.713 39.9766 514.132 39.2802 511.561 38.5986L511.048 40.5318ZM526.392 44.7405C528.941 45.4628 531.501 46.1996 534.071 46.9511L534.632 45.0315C532.057 44.2785 529.492 43.5401 526.938 42.8162L526.392 44.7405ZM541.812 49.2499C543.108 49.6404 544.406 50.0347 545.707 50.4327L546.293 48.5202C544.989 48.1214 543.688 47.7263 542.39 47.335L541.812 49.2499Z"
        fill="white" />
</svg>