<svg width="577" height="149" viewBox="0 0 577 149" fill="none" xmlns="http://www.w3.org/2000/svg">
<mask id="path-1-outside-1_1_12731" maskUnits="userSpaceOnUse" x="-1" y="-1" width="578" height="151" fill="black">
<rect fill="white" x="-1" y="-1" width="578" height="151"/>
<path d="M55.4505 149H4.36381C1.87177 149 0.625755 147.754 0.625755 145.262V4.25432C0.625755 1.76229 1.87177 0.516272 4.36381 0.516272H55.4505C73.4485 0.516272 87.7085 5.085 98.2304 14.2225C108.891 23.3599 114.221 38.1045 114.221 58.4561V91.4755C114.221 129.825 94.6308 149 55.4505 149ZM34.0606 31.6667V117.642H55.8659C71.9256 117.642 79.9555 109.404 79.9555 92.9292V56.7947C79.9555 40.0427 71.9256 31.6667 55.8659 31.6667H34.0606ZM250.629 149H220.102C218.163 149 216.779 148.169 215.948 146.508L187.082 99.367H173.791V145.262C173.791 147.754 172.545 149 170.053 149H144.095C141.603 149 140.357 147.754 140.357 145.262V4.25432C140.357 1.76229 141.603 0.516272 144.095 0.516272H194.558C212.003 0.516272 225.57 5.01578 235.262 14.0148C244.953 22.8754 249.798 35.0586 249.798 50.5646C249.798 61.225 247.237 70.2932 242.115 77.7693C236.992 85.2454 229.585 90.7833 219.894 94.3829L253.121 144.639C253.813 145.885 253.883 146.923 253.329 147.754C252.913 148.585 252.014 149 250.629 149ZM193.52 31.2514H173.791V70.2932H193.52C201.134 70.2932 206.672 68.7703 210.134 65.7245C213.733 62.5402 215.533 57.5562 215.533 50.7723C215.533 44.1269 213.733 39.212 210.134 36.0278C206.672 32.8435 201.134 31.2514 193.52 31.2514ZM307.438 4.25432V145.262C307.438 147.754 306.192 149 303.7 149H277.741C275.249 149 274.003 147.754 274.003 145.262V4.25432C274.003 1.76229 275.249 0.516272 277.741 0.516272H303.7C306.192 0.516272 307.438 1.76229 307.438 4.25432ZM408.489 149H376.092C374.154 149 372.839 148.031 372.147 146.093L323.552 4.66966C322.583 1.90073 323.552 0.516272 326.459 0.516272H354.702C356.779 0.516272 358.094 1.55462 358.648 3.63131L380.453 70.9162C382.945 78.6692 386.753 92.1678 391.875 111.412H392.914C397.898 92.9984 401.705 79.5691 404.335 71.1239L425.933 3.63131C426.625 1.55462 428.01 0.516272 430.086 0.516272H458.122C461.168 0.516272 462.137 1.90073 461.029 4.66966L412.434 146.093C411.742 148.031 410.427 149 408.489 149ZM510.646 88.5682V118.888H572.324C574.816 118.888 576.062 120.065 576.062 122.418V145.262C576.062 147.754 574.816 149 572.324 149H480.949C478.457 149 477.211 147.754 477.211 145.262V4.25432C477.211 1.76229 478.457 0.516272 480.949 0.516272H569.001C571.493 0.516272 572.739 1.76229 572.739 4.25432V27.098C572.739 29.4516 571.493 30.6284 569.001 30.6284H510.646V59.0791H562.148C564.64 59.0791 565.886 60.2559 565.886 62.6095V85.0378C565.886 87.3914 564.64 88.5682 562.148 88.5682H510.646Z"/>
</mask>
<path d="M98.2304 14.2225L97.6361 14.9069L97.6405 14.9107L98.2304 14.2225ZM34.0606 31.6667V30.7602H33.1541V31.6667H34.0606ZM34.0606 117.642H33.1541V118.548H34.0606V117.642ZM55.4505 148.094H4.36381V149.906H55.4505V148.094ZM4.36381 148.094C3.25752 148.094 2.5943 147.818 2.20124 147.425C1.80819 147.031 1.53223 146.368 1.53223 145.262H-0.280716C-0.280716 146.648 0.0663338 147.854 0.919296 148.706C1.77226 149.559 2.97806 149.906 4.36381 149.906V148.094ZM1.53223 145.262V4.25433H-0.280716V145.262H1.53223ZM1.53223 4.25433C1.53223 3.14803 1.80819 2.48481 2.20124 2.09176C2.5943 1.6987 3.25752 1.42274 4.36381 1.42274V-0.390202C2.97806 -0.390202 1.77226 -0.043148 0.919296 0.809814C0.0663338 1.66278 -0.280716 2.86858 -0.280716 4.25433H1.53223ZM4.36381 1.42274H55.4505V-0.390202H4.36381V1.42274ZM55.4505 1.42274C73.2953 1.42274 87.3224 5.95023 97.6361 14.9069L98.8248 13.538C88.0947 4.21977 73.6018 -0.390202 55.4505 -0.390202V1.42274ZM97.6405 14.9107C108.023 23.8098 113.315 38.247 113.315 58.4561H115.127C115.127 37.962 109.759 22.91 98.8204 13.5342L97.6405 14.9107ZM113.315 58.4561V91.4755H115.127V58.4561H113.315ZM113.315 91.4755C113.315 110.506 108.455 124.613 98.8943 133.971C89.3298 143.333 74.9058 148.094 55.4505 148.094V149.906C75.1756 149.906 90.1368 145.08 100.162 135.267C110.192 125.45 115.127 110.795 115.127 91.4755H113.315ZM33.1541 31.6667V117.642H34.967V31.6667H33.1541ZM34.0606 118.548H55.8659V116.735H34.0606V118.548ZM55.8659 118.548C64.0414 118.548 70.3382 116.45 74.5822 112.096C78.822 107.747 80.862 101.301 80.862 92.9292H79.0491C79.0491 101.033 77.0741 106.943 73.284 110.831C69.4981 114.715 63.7501 116.735 55.8659 116.735V118.548ZM80.862 92.9292V56.7947H79.0491V92.9292H80.862ZM80.862 56.7947C80.862 48.2883 78.8239 41.7404 74.5875 37.3214C70.3442 32.8953 64.0454 30.7602 55.8659 30.7602V32.5732C63.746 32.5732 69.4921 34.6262 73.2788 38.576C77.0723 42.533 79.0491 48.5491 79.0491 56.7947H80.862ZM55.8659 30.7602H34.0606V32.5732H55.8659V30.7602ZM215.948 146.508L216.759 146.103L216.742 146.068L216.721 146.035L215.948 146.508ZM187.082 99.367L187.855 98.8936L187.59 98.4605H187.082V99.367ZM173.791 99.367V98.4605H172.885V99.367H173.791ZM235.262 14.0148L234.645 14.6791L234.65 14.6838L235.262 14.0148ZM242.115 77.7693L241.367 77.257L242.115 77.7693ZM219.894 94.3829L219.578 93.5332L218.508 93.9306L219.138 94.8828L219.894 94.3829ZM253.121 144.639L253.913 144.199L253.897 144.168L253.877 144.139L253.121 144.639ZM253.329 147.754L252.575 147.251L252.543 147.298L252.518 147.349L253.329 147.754ZM173.791 31.2514V30.3449H172.885V31.2514H173.791ZM173.791 70.2932H172.885V71.1997H173.791V70.2932ZM210.133 65.7245L210.732 66.405L210.734 66.4035L210.133 65.7245ZM210.133 36.0278L209.52 36.6949L209.526 36.7009L209.533 36.7067L210.133 36.0278ZM250.629 148.094H220.102V149.906H250.629V148.094ZM220.102 148.094C219.264 148.094 218.601 147.915 218.076 147.6C217.553 147.286 217.109 146.803 216.759 146.103L215.137 146.913C215.618 147.874 216.282 148.638 217.143 149.154C218.002 149.67 219.001 149.906 220.102 149.906V148.094ZM216.721 146.035L187.855 98.8936L186.309 99.8403L215.175 146.981L216.721 146.035ZM187.082 98.4605H173.791V100.273H187.082V98.4605ZM172.885 99.367V145.262H174.698V99.367H172.885ZM172.885 145.262C172.885 146.368 172.609 147.031 172.216 147.425C171.823 147.818 171.16 148.094 170.053 148.094V149.906C171.439 149.906 172.645 149.559 173.498 148.706C174.351 147.854 174.698 146.648 174.698 145.262H172.885ZM170.053 148.094H144.095V149.906H170.053V148.094ZM144.095 148.094C142.988 148.094 142.325 147.818 141.932 147.425C141.539 147.031 141.263 146.368 141.263 145.262H139.45C139.45 146.648 139.797 147.854 140.65 148.706C141.503 149.559 142.709 149.906 144.095 149.906V148.094ZM141.263 145.262V4.25433H139.45V145.262H141.263ZM141.263 4.25433C141.263 3.14803 141.539 2.48481 141.932 2.09176C142.325 1.6987 142.988 1.42274 144.095 1.42274V-0.390202C142.709 -0.390202 141.503 -0.043148 140.65 0.809814C139.797 1.66278 139.45 2.86858 139.45 4.25433H141.263ZM144.095 1.42274H194.558V-0.390202H144.095V1.42274ZM194.558 1.42274C211.849 1.42274 225.169 5.88011 234.645 14.679L235.878 13.3505C225.972 4.15145 212.156 -0.390202 194.558 -0.390202V1.42274ZM234.65 14.6838C244.119 23.3414 248.892 35.2629 248.892 50.5646H250.705C250.705 34.8544 245.786 22.4093 235.873 13.3458L234.65 14.6838ZM248.892 50.5646C248.892 61.0751 246.369 69.9569 241.367 77.257L242.862 78.2817C248.105 70.6296 250.705 61.3749 250.705 50.5646H248.892ZM241.367 77.257C236.365 84.5576 229.12 89.9892 219.578 93.5332L220.21 95.2327C230.051 91.5774 237.62 85.9333 242.862 78.2817L241.367 77.257ZM219.138 94.8828L252.365 145.139L253.877 144.139L220.65 93.883L219.138 94.8828ZM252.329 145.079C252.936 146.172 252.864 146.818 252.575 147.251L254.083 148.257C254.902 147.029 254.691 145.598 253.913 144.199L252.329 145.079ZM252.518 147.349C252.325 147.734 251.859 148.094 250.629 148.094V149.906C252.168 149.906 253.501 149.436 254.14 148.159L252.518 147.349ZM193.52 30.3449H173.791V32.1578H193.52V30.3449ZM172.885 31.2514V70.2932H174.698V31.2514H172.885ZM173.791 71.1997H193.52V69.3868H173.791V71.1997ZM193.52 71.1997C201.221 71.1997 207.027 69.6656 210.732 66.405L209.535 65.044C206.318 67.8751 201.048 69.3868 193.52 69.3868V71.1997ZM210.734 66.4035C214.598 62.9855 216.439 57.7056 216.439 50.7723H214.626C214.626 57.4068 212.868 62.0949 209.533 65.0456L210.734 66.4035ZM216.439 50.7723C216.439 43.9706 214.594 38.7635 210.734 35.3488L209.533 36.7067C212.872 39.6606 214.626 44.2832 214.626 50.7723H216.439ZM210.747 35.3607C207.041 31.9513 201.229 30.3449 193.52 30.3449V32.1578C201.04 32.1578 206.303 33.7357 209.52 36.6949L210.747 35.3607ZM306.532 4.25433V145.262H308.345V4.25433H306.532ZM306.532 145.262C306.532 146.368 306.256 147.031 305.863 147.425C305.47 147.818 304.806 148.094 303.7 148.094V149.906C305.086 149.906 306.292 149.559 307.145 148.706C307.997 147.854 308.345 146.648 308.345 145.262H306.532ZM303.7 148.094H277.741V149.906H303.7V148.094ZM277.741 148.094C276.635 148.094 275.972 147.818 275.579 147.425C275.186 147.031 274.91 146.368 274.91 145.262H273.097C273.097 146.648 273.444 147.854 274.297 148.706C275.15 149.559 276.356 149.906 277.741 149.906V148.094ZM274.91 145.262V4.25433H273.097V145.262H274.91ZM274.91 4.25433C274.91 3.14803 275.186 2.48481 275.579 2.09176C275.972 1.6987 276.635 1.42274 277.741 1.42274V-0.390202C276.356 -0.390202 275.15 -0.043148 274.297 0.809814C273.444 1.66278 273.097 2.86858 273.097 4.25433H274.91ZM277.741 1.42274H303.7V-0.390202H277.741V1.42274ZM303.7 1.42274C304.806 1.42274 305.47 1.6987 305.863 2.09176C306.256 2.48481 306.532 3.14803 306.532 4.25433H308.345C308.345 2.86858 307.997 1.66278 307.145 0.809814C306.292 -0.043148 305.086 -0.390202 303.7 -0.390202V1.42274ZM372.147 146.093L371.289 146.387L371.293 146.398L372.147 146.093ZM323.552 4.66966L324.409 4.37508L324.407 4.3702L323.552 4.66966ZM358.648 3.63131L357.772 3.86488L357.778 3.888L357.786 3.91077L358.648 3.63131ZM380.453 70.9163L381.316 70.6389L381.316 70.6368L380.453 70.9163ZM391.875 111.412L390.999 111.645L391.178 112.318H391.875V111.412ZM392.914 111.412V112.318H393.607L393.789 111.649L392.914 111.412ZM404.335 71.1239L403.472 70.8476L403.47 70.8543L404.335 71.1239ZM425.933 3.63131L425.073 3.34464L425.07 3.35504L425.933 3.63131ZM461.029 4.66966L460.188 4.333L460.179 4.35385L460.172 4.37509L461.029 4.66966ZM412.434 146.093L413.288 146.398L413.292 146.387L412.434 146.093ZM408.489 148.094H376.092V149.906H408.489V148.094ZM376.092 148.094C375.28 148.094 374.664 147.893 374.19 147.543C373.711 147.191 373.301 146.631 373 145.788L371.293 146.398C371.684 147.492 372.278 148.387 373.114 149.003C373.955 149.622 374.967 149.906 376.092 149.906V148.094ZM373.004 145.798L324.409 4.37509L322.695 4.96423L371.289 146.387L373.004 145.798ZM324.407 4.3702C323.95 3.06256 324.069 2.39603 324.295 2.07445C324.517 1.75692 325.091 1.42274 326.459 1.42274V-0.390202C324.92 -0.390202 323.556 -0.0321426 322.809 1.03479C322.065 2.09767 322.185 3.50784 322.696 4.96911L324.407 4.3702ZM326.459 1.42274H354.702V-0.390202H326.459V1.42274ZM354.702 1.42274C355.587 1.42274 356.222 1.64145 356.685 2.0065C357.15 2.374 357.531 2.96182 357.772 3.86488L359.524 3.39775C359.211 2.22411 358.658 1.25441 357.808 0.583557C356.955 -0.0897369 355.895 -0.390202 354.702 -0.390202V1.42274ZM357.786 3.91077L379.591 71.1957L381.316 70.6368L359.51 3.35186L357.786 3.91077ZM379.59 71.1936C382.075 78.9223 385.877 92.4007 390.999 111.645L392.751 111.179C387.629 91.9348 383.816 78.4162 381.316 70.6389L379.59 71.1936ZM391.875 112.318H392.914V110.505H391.875V112.318ZM393.789 111.649C398.772 93.2367 402.576 79.8214 405.201 71.3935L403.47 70.8543C400.834 79.3169 397.023 92.7601 392.039 111.175L393.789 111.649ZM405.199 71.4002L426.796 3.90758L425.07 3.35504L403.472 70.8476L405.199 71.4002ZM426.793 3.91796C427.096 3.00811 427.524 2.40264 428.034 2.02021C428.54 1.64082 429.204 1.42274 430.086 1.42274V-0.390202C428.892 -0.390202 427.825 -0.0890999 426.947 0.569855C426.072 1.22577 425.462 2.17782 425.073 3.34466L426.793 3.91796ZM430.086 1.42274H458.122V-0.390202H430.086V1.42274ZM458.122 1.42274C459.578 1.42274 460.174 1.76569 460.39 2.07445C460.599 2.3726 460.714 3.01786 460.188 4.333L461.871 5.00631C462.452 3.55253 462.636 2.12111 461.876 1.03479C461.123 -0.0409203 459.711 -0.390202 458.122 -0.390202V1.42274ZM460.172 4.37509L411.577 145.798L413.292 146.387L461.886 4.96423L460.172 4.37509ZM411.581 145.788C411.28 146.631 410.87 147.191 410.391 147.543C409.917 147.893 409.302 148.094 408.489 148.094V149.906C409.614 149.906 410.626 149.622 411.467 149.003C412.303 148.387 412.897 147.492 413.288 146.398L411.581 145.788ZM510.646 88.5682V87.6617H509.739V88.5682H510.646ZM510.646 118.888H509.739V119.794H510.646V118.888ZM510.646 30.6283V29.7219H509.739V30.6283H510.646ZM510.646 59.0791H509.739V59.9856H510.646V59.0791ZM509.739 88.5682V118.888H511.552V88.5682H509.739ZM510.646 119.794H572.324V117.981H510.646V119.794ZM572.324 119.794C573.443 119.794 574.113 120.06 574.505 120.43C574.887 120.79 575.155 121.395 575.155 122.418H576.968C576.968 121.088 576.614 119.927 575.75 119.111C574.896 118.305 573.697 117.981 572.324 117.981V119.794ZM575.155 122.418V145.262H576.968V122.418H575.155ZM575.155 145.262C575.155 146.368 574.879 147.031 574.486 147.425C574.093 147.818 573.43 148.094 572.324 148.094V149.906C573.71 149.906 574.915 149.559 575.768 148.706C576.621 147.854 576.968 146.648 576.968 145.262H575.155ZM572.324 148.094H480.949V149.906H572.324V148.094ZM480.949 148.094C479.843 148.094 479.18 147.818 478.787 147.425C478.394 147.031 478.118 146.368 478.118 145.262H476.305C476.305 146.648 476.652 147.854 477.505 148.706C478.358 149.559 479.563 149.906 480.949 149.906V148.094ZM478.118 145.262V4.25433H476.305V145.262H478.118ZM478.118 4.25433C478.118 3.14803 478.394 2.48481 478.787 2.09176C479.18 1.6987 479.843 1.42274 480.949 1.42274V-0.390202C479.563 -0.390202 478.358 -0.043148 477.505 0.809814C476.652 1.66278 476.305 2.86858 476.305 4.25433H478.118ZM480.949 1.42274H569.001V-0.390202H480.949V1.42274ZM569.001 1.42274C570.107 1.42274 570.771 1.6987 571.164 2.09176C571.557 2.48481 571.833 3.14803 571.833 4.25433H573.646C573.646 2.86858 573.299 1.66278 572.446 0.809814C571.593 -0.043148 570.387 -0.390202 569.001 -0.390202V1.42274ZM571.833 4.25433V27.098H573.646V4.25433H571.833ZM571.833 27.098C571.833 28.1214 571.564 28.7259 571.182 29.0867C570.79 29.4568 570.12 29.7219 569.001 29.7219V31.5348C570.374 31.5348 571.573 31.2116 572.427 30.4048C573.291 29.5888 573.646 28.4282 573.646 27.098H571.833ZM569.001 29.7219H510.646V31.5348H569.001V29.7219ZM509.739 30.6283V59.0791H511.552V30.6283H509.739ZM510.646 59.9856H562.148V58.1726H510.646V59.9856ZM562.148 59.9856C563.267 59.9856 563.937 60.2507 564.329 60.6207C564.711 60.9815 564.98 61.5861 564.98 62.6095H566.793C566.793 61.2793 566.438 60.1186 565.574 59.3027C564.72 58.4959 563.521 58.1726 562.148 58.1726V59.9856ZM564.98 62.6095V85.0378H566.793V62.6095H564.98ZM564.98 85.0378C564.98 86.0612 564.711 86.6657 564.329 87.0266C563.937 87.3966 563.267 87.6617 562.148 87.6617V89.4746C563.521 89.4746 564.72 89.1514 565.574 88.3446C566.438 87.5286 566.793 86.368 566.793 85.0378H564.98ZM562.148 87.6617H510.646V89.4746H562.148V87.6617Z" fill="url(#paint0_linear_1_12731)" mask="url(#path-1-outside-1_1_12731)"/>
<defs>
<linearGradient id="paint0_linear_1_12731" x1="285" y1="-53" x2="285" y2="196" gradientUnits="userSpaceOnUse">
<stop stop-color="white"/>
<stop offset="1" stop-color="white" stop-opacity="0"/>
</linearGradient>
</defs>
</svg>
