<svg xmlns="http://www.w3.org/2000/svg" width="97" height="39" viewBox="0 0 97 39" fill="none">
    <g clip-path="url(#clip0_1_936)">
        <path
            d="M95.6385 22.8936C94.7508 21.0128 93.333 19.421 91.5531 18.3063C89.751 17.1583 87.6512 16.543 85.5034 16.5336H61.1861C60.6211 16.5344 60.0615 16.4252 59.5398 16.2122C58.7476 15.9065 58.0598 15.3864 57.5564 14.7123C57.3295 14.4156 57.149 14.0874 57.0208 13.7384C56.8933 13.385 56.8296 13.0126 56.8324 12.6378V11.4107C56.8309 10.9123 56.9427 10.4197 57.1597 9.96919C57.5076 9.23745 58.0617 8.61895 58.7563 8.18681C59.484 7.73885 60.3273 7.50558 61.1861 7.51478H69.8141V0.891839H61.1861C59.7439 0.897015 58.3163 1.17478 56.9812 1.70997C55.0394 2.49464 53.3574 3.79263 52.1217 5.45972C51.4915 6.30624 50.9965 7.24229 50.6539 8.23551C50.2988 9.27119 50.1179 10.3568 50.1183 11.4496V12.6184C50.1186 14.0671 50.4365 15.4988 51.0506 16.8161C51.9356 18.696 53.35 20.2877 55.1266 21.4035C56.9327 22.5479 59.0366 23.1566 61.1861 23.1566H85.5133C86.0783 23.1558 86.6379 23.2651 87.1596 23.478C87.9518 23.7838 88.6395 24.3039 89.143 24.9779C89.3699 25.2746 89.5504 25.6029 89.6785 25.9519C89.8053 26.3053 89.869 26.6776 89.867 27.0524V28.2212C89.8673 28.7227 89.7555 29.218 89.5397 29.6724C89.1778 30.4067 88.6152 31.0278 87.9147 31.4663C87.2142 31.9049 86.4034 32.1437 85.5728 32.156H46.31C46.4092 31.9514 46.4985 31.7274 46.5878 31.5132C46.9779 30.4578 47.1791 29.344 47.1828 28.2212V27.1303C47.189 25.6463 46.8498 24.1806 46.1911 22.845C45.6283 21.7572 44.8841 20.7696 43.9894 19.923C44.3689 19.5534 44.7235 19.1597 45.0506 18.7445C45.7212 17.9026 46.2532 16.9627 46.6275 15.959C47.0181 14.9071 47.2195 13.7965 47.2225 12.6768V11.4107C47.231 9.92945 46.8916 8.46633 46.2307 7.13493C45.2755 5.25346 43.797 3.6764 41.9663 2.58654C41.0676 2.03729 40.0966 1.61129 39.0803 1.32038C38.041 1.01527 36.9618 0.861049 35.877 0.862622H0.432495V38.8471H85.5034C86.9428 38.8469 88.3681 38.5689 89.6984 38.029C91.6465 37.2508 93.3339 35.9517 94.5675 34.2793C95.1964 33.4316 95.6906 32.4958 96.0356 31.5034C96.3905 30.4678 96.5711 29.3822 96.5711 28.2894V27.0914C96.5711 25.6426 96.2531 24.2109 95.6385 22.8936ZM7.16637 7.51478H35.8374C36.4286 7.51806 37.014 7.63038 37.563 7.84592C38.4108 8.17419 39.1562 8.71482 39.725 9.414C39.9637 9.70959 40.1575 10.0377 40.3002 10.3879C40.4124 10.7011 40.4727 11.0299 40.4787 11.3619V12.5696C40.4743 13.0424 40.3626 13.5082 40.1514 13.9332C39.7531 14.7175 39.1378 15.3757 38.3762 15.8324C37.9782 16.0686 37.5518 16.2551 37.1068 16.3876C36.6883 16.5095 36.2541 16.5718 35.8175 16.5726H7.16637V7.51478ZM7.16637 23.2053H35.8374C36.4292 23.2121 37.0145 23.3277 37.563 23.5461C38.4108 23.8745 39.1562 24.415 39.725 25.1142C39.9637 25.4099 40.1575 25.7379 40.3002 26.0882C40.4133 26.4012 40.4736 26.7301 40.4787 27.0622V28.2601C40.4753 28.733 40.3635 29.1991 40.1514 29.6237C39.7426 30.3829 39.1283 31.0165 38.3762 31.4548C37.9804 31.695 37.5534 31.8817 37.1068 32.0099C36.6883 32.1318 36.2541 32.1941 35.8175 32.195H7.16637V23.2053Z"
            fill="white" />
        <path d="M78.2435 6.13189H73.7609V0.872498H72.3823V7.48569H78.2435V6.13189Z" fill="white" />
        <path
            d="M94.9053 6.90132C95.2449 6.53417 95.4291 6.05342 95.421 5.55725V5.44037C95.4219 4.98391 95.2646 4.54072 94.9744 4.18397C95.2646 3.82722 95.4219 3.38402 95.421 2.92755V2.81068C95.4291 2.3145 95.2449 1.83376 94.9053 1.46661C94.7372 1.28307 94.5324 1.13556 94.3033 1.03333C94.075 0.931096 93.8271 0.876342 93.5764 0.872498H88.181V7.51491H93.5764C93.8289 7.51103 94.0786 7.45432 94.3078 7.34853C94.5369 7.24274 94.7408 7.0903 94.9053 6.90132ZM89.5595 2.23605H93.5764C93.6348 2.23637 93.6932 2.24966 93.7462 2.27493C93.8001 2.3002 93.8468 2.33684 93.8837 2.38214C93.987 2.5016 94.0436 2.65374 94.0418 2.81068V2.92755C94.0454 3.0848 93.9888 3.23757 93.8837 3.3561C93.8468 3.40141 93.8001 3.43803 93.7462 3.4633C93.6932 3.48858 93.6348 3.50186 93.5764 3.50219H89.5595V2.23605ZM89.5595 4.86574H93.5764C93.6348 4.86606 93.6932 4.87936 93.7462 4.90463C93.8001 4.9299 93.8468 4.96653 93.8837 5.01183C93.987 5.1313 94.0436 5.28344 94.0418 5.44037V5.56699C94.0454 5.72423 93.9888 5.877 93.8837 5.99554C93.8468 6.04083 93.8001 6.07746 93.7462 6.10274C93.6932 6.12801 93.6348 6.1413 93.5764 6.14162H89.5595V4.86574Z"
            fill="white" />
        <path
            d="M81.021 5.8007H85.1763L85.9102 7.4954H87.4176L84.5416 0.882202H81.6458L78.7797 7.51488H80.2772L81.021 5.8007ZM82.5582 2.23601H83.6292L84.6209 4.4469H81.6458L82.5582 2.23601Z"
            fill="white" />
    </g>
    <defs>
        <clipPath id="clip0_1_936">
            <rect width="96.1386" height="37.676" fill="white" transform="translate(0.432251 0.874939)" />
        </clipPath>
    </defs>
</svg>