<svg xmlns="http://www.w3.org/2000/svg" width="228" height="35" viewBox="0 0 228 35" fill="none">
    <g clip-path="url(#clip0_1_873)">
        <path
            d="M58.0205 16.7938L46.3944 22.3368V11.3367L58.0205 16.7938ZM63.486 15.3159C63.1971 14.8436 62.7754 14.4682 62.2754 14.2354L46.2713 6.72325C45.8451 6.52224 45.3748 6.43312 44.9046 6.4637C44.4356 6.49362 43.9809 6.64259 43.5832 6.89759C43.1868 7.15129 42.8591 7.50191 42.633 7.91694C42.4076 8.33132 42.2884 8.79708 42.2891 9.27065V24.4087C42.2891 24.8836 42.4082 25.3506 42.6362 25.765C42.8636 26.1807 43.192 26.5313 43.591 26.785C43.99 27.0387 44.446 27.1857 44.9169 27.215C45.3878 27.2436 45.8593 27.1519 46.2856 26.9489L62.2903 19.323C62.6439 19.1539 62.9581 18.9119 63.2133 18.6133C63.4679 18.3147 63.6583 17.966 63.771 17.5894C63.8837 17.2121 63.9167 16.8159 63.8675 16.4256C63.8176 16.0347 63.6881 15.6593 63.4853 15.3224V15.3152L63.486 15.3159Z"
            fill="white" />
        <path
            d="M4.54767 20.2213C4.99849 20.5856 5.48687 20.9011 6.0057 21.1613C6.50834 21.417 7.03235 21.629 7.57191 21.7949C8.09852 21.9615 8.63743 22.085 9.18411 22.1651C9.70812 22.2412 10.2354 22.2802 10.7646 22.2809C11.7115 22.2965 12.6527 22.1527 13.5517 21.8561C14.3063 21.6069 15.0065 21.2114 15.6109 20.6923C16.1601 20.2109 16.5993 19.6157 16.8979 18.9476C17.1978 18.262 17.35 17.5204 17.3429 16.771C17.3474 16.0587 17.1972 15.3529 16.9057 14.703C16.6123 14.0512 16.1828 13.469 15.6459 12.9981C15.0648 12.4855 14.3906 12.0899 13.6606 11.8323C12.8237 11.539 11.9434 11.3959 11.058 11.4095C10.4407 11.4121 9.82471 11.4746 9.21909 11.5943C8.61411 11.7094 8.02144 11.8766 7.44561 12.0945C6.88921 12.3046 6.35353 12.5687 5.84766 12.8816C5.37482 13.1711 4.93889 13.5191 4.55155 13.9166L4.54767 20.22V20.2213ZM4.54767 30.9977L0.000610352 33.3851V11.3367C0.000610352 11.3367 4.54767 7.41212 11.6422 7.41212C13.0789 7.39651 14.5084 7.62679 15.87 8.09256C17.0877 8.50563 18.2115 9.15549 19.1792 10.0057C20.0983 10.826 20.8335 11.8343 21.3355 12.9623C21.855 14.1859 22.1205 15.5051 22.1141 16.8354C22.1076 18.1664 21.8304 19.4824 21.2986 20.7014C20.7713 21.8496 20.0038 22.8696 19.0484 23.6944C18.047 24.5485 16.8895 25.1984 15.64 25.6076C14.2617 26.0649 12.8166 26.2919 11.3637 26.2789C10.7147 26.2789 10.065 26.2379 9.42118 26.1546C8.80195 26.0772 8.1879 25.964 7.58228 25.817C7.02005 25.6798 6.46818 25.5074 5.92798 25.2992C5.45319 25.1184 4.99395 24.8992 4.55479 24.6435L4.54767 30.9977Z"
            fill="white" />
        <path
            d="M25.6151 10.2425C25.6151 10.2425 29.9996 6.48907 38.6824 6.48907V10.6706C33.6651 10.6706 30.1596 12.7984 30.1596 12.7984V25.9472H25.6151V10.2425Z"
            fill="white" />
        <path
            d="M190.779 10.2425C190.779 10.2425 195.165 6.48907 203.846 6.48907V10.6706C198.831 10.6706 195.325 12.7984 195.325 12.7984V25.9472H190.778V10.2425H190.779Z"
            fill="white" />
        <path
            d="M71.4128 16.9181C71.4089 17.6317 71.5585 18.3375 71.85 18.9874C72.1447 19.6385 72.5742 20.2201 73.1098 20.6924C73.6921 21.2004 74.3632 21.592 75.0899 21.8483C75.9268 22.1424 76.8077 22.2861 77.6938 22.2731C78.3111 22.2705 78.9258 22.2081 79.5314 22.0884C80.1364 21.9726 80.7297 21.8041 81.3055 21.5862C81.8619 21.3761 82.397 21.1133 82.9035 20.801C83.3757 20.5109 83.811 20.1629 84.1996 19.766V13.4606C83.7475 13.0964 83.2591 12.7809 82.7416 12.52C82.237 12.2669 81.713 12.0562 81.1747 11.889C80.6481 11.7238 80.1092 11.5995 79.5625 11.5189C79.0385 11.4428 78.5106 11.4044 77.9801 11.4044C77.0377 11.3914 76.101 11.5358 75.2065 11.8324C74.4506 12.0829 73.7517 12.479 73.1474 12.9981C72.5975 13.4789 72.1577 14.0741 71.8604 14.7428C71.5585 15.4278 71.4063 16.1687 71.4128 16.9175V16.9181ZM66.6332 16.9181C66.6131 15.5657 66.8916 14.225 67.448 12.9916C67.9766 11.8435 68.7428 10.8222 69.6963 9.99667C70.6996 9.14385 71.8571 8.49399 73.1066 8.08481C74.485 7.62555 75.93 7.39787 77.3829 7.41153C78.0319 7.41219 78.681 7.45382 79.3248 7.53578C79.9434 7.61514 80.5568 7.72833 81.1624 7.87535C81.7253 8.01131 82.2771 8.18434 82.8173 8.39251C83.2921 8.57335 83.7514 8.79257 84.1905 9.04887V3.05116L88.7369 0.345032V22.3304C88.7369 22.3304 85.0384 26.2659 77.0966 26.2659C75.6586 26.2816 74.2291 26.0519 72.8676 25.5875C71.6505 25.1737 70.5267 24.5232 69.559 23.673C68.6399 22.8527 67.904 21.8457 67.4027 20.7177C66.8741 19.5202 66.6099 18.2237 66.6261 16.9136L66.6332 16.9175V16.9181Z"
            fill="white" />
        <path
            d="M93.562 7.7374H98.1065V25.9472H93.562V7.7374ZM95.8336 5.25245C95.4191 5.26091 95.0058 5.19781 94.6133 5.0677C94.2739 4.95256 93.9584 4.77432 93.6838 4.54339C93.4344 4.33132 93.233 4.06787 93.0924 3.77058C92.9545 3.47915 92.8832 3.1604 92.8839 2.8371C92.8813 2.50989 92.9519 2.18659 93.0911 1.88996C93.2291 1.59397 93.4312 1.33182 93.6832 1.1243C93.9584 0.896626 94.2745 0.721638 94.6127 0.607148C95.0058 0.473143 95.4178 0.407441 95.833 0.412645C96.252 0.407441 96.6698 0.471842 97.0682 0.607148C97.4063 0.721638 97.7217 0.896626 97.9983 1.1243C98.2496 1.33247 98.4511 1.59397 98.5897 1.89061C98.729 2.18659 98.7989 2.50989 98.7963 2.8371C98.797 3.1604 98.7264 3.47915 98.5891 3.77058C98.4479 4.06722 98.2477 4.33067 97.999 4.54339C97.7237 4.77367 97.4089 4.95191 97.0688 5.0677C96.6705 5.19846 96.2533 5.26156 95.8336 5.25245Z"
            fill="white" />
        <path
            d="M106.436 16.6865C106.431 17.3962 106.582 18.0975 106.872 18.7441C107.164 19.39 107.592 19.9651 108.125 20.4289C108.703 20.9278 109.37 21.309 110.091 21.5543C110.926 21.8392 111.804 21.9778 112.686 21.9641C113.312 21.9615 113.937 21.9003 114.551 21.7793C115.159 21.6642 115.754 21.4964 116.332 21.2772C116.888 21.067 117.424 20.8029 117.93 20.49C118.403 20.2006 118.839 19.8525 119.229 19.4551V13.46C118.776 13.0963 118.286 12.7815 117.769 12.52C117.265 12.2663 116.741 12.0542 116.202 11.8864C115.676 11.7211 115.137 11.5975 114.59 11.5162C114.066 11.4401 113.538 11.4017 113.008 11.4017C112.063 11.3907 111.122 11.5357 110.222 11.8317C109.471 12.0737 108.772 12.4595 108.165 12.9662C107.62 13.4235 107.182 13.9953 106.878 14.6406C106.581 15.2833 106.428 15.9839 106.433 16.693L106.437 16.6858L106.436 16.6865ZM107.339 29.5562C107.339 29.5562 108.507 29.8073 109.065 29.8971C109.623 29.9855 110.158 30.0441 110.671 30.0818C111.184 30.1182 111.639 30.1358 112.037 30.1358C113.106 30.156 114.171 30.007 115.193 29.6954C116.006 29.4463 116.767 29.0462 117.435 28.5147C118.008 28.0535 118.468 27.4655 118.777 26.7948C119.074 26.1436 119.227 25.4359 119.223 24.7197V23.9312C118.788 24.2253 118.332 24.4835 117.855 24.7027C117.299 24.9642 116.725 25.1802 116.136 25.3513C115.483 25.5432 114.819 25.6922 114.147 25.7989C113.428 25.914 112.701 25.9706 111.973 25.9686C110.574 25.9823 109.182 25.7559 107.86 25.298C106.66 24.8842 105.551 24.2448 104.589 23.4147C103.671 22.6107 102.934 21.6193 102.43 20.505C101.903 19.3211 101.64 18.0363 101.656 16.7405C101.64 15.4134 101.922 14.1007 102.48 12.8992C103.011 11.7673 103.778 10.7636 104.731 9.95826C105.735 9.11975 106.889 8.4803 108.131 8.07503C109.509 7.62292 110.951 7.39915 112.401 7.41216C119.549 7.41216 123.779 11.4108 123.779 11.4108V23.8629C123.805 25.3637 123.551 26.8559 123.027 28.2617C122.554 29.4938 121.798 30.5964 120.821 31.4785C119.775 32.3898 118.544 33.0631 117.215 33.4495C115.615 33.9205 113.954 34.1475 112.284 34.1228C111.62 34.1228 110.927 34.0929 110.213 34.0376C109.498 33.9816 108.777 33.8971 108.055 33.7904C107.332 33.6824 106.623 33.5536 105.92 33.404C105.218 33.2544 104.547 33.0826 103.898 32.8881L107.338 29.5575L107.339 29.5562Z"
            fill="white" />
        <path
            d="M128.385 7.73739H132.931V25.9471H128.385V7.73739ZM130.656 5.25243C130.242 5.26089 129.83 5.19844 129.438 5.06769C129.098 4.95255 128.782 4.77431 128.508 4.54338C128.258 4.32936 128.057 4.06655 127.916 3.77057C127.778 3.47914 127.708 3.16039 127.709 2.83839C127.706 2.50988 127.777 2.18527 127.916 1.88864C128.055 1.59396 128.257 1.3331 128.508 1.12494C128.783 0.897262 129.099 0.722274 129.438 0.607784C129.83 0.473779 130.242 0.408077 130.656 0.413282C131.076 0.406776 131.496 0.472478 131.893 0.607784C132.228 0.722925 132.54 0.897912 132.812 1.12494C133.062 1.3331 133.264 1.59331 133.404 1.88864C133.542 2.18527 133.612 2.50988 133.609 2.83839C133.611 3.16104 133.541 3.47979 133.404 3.77057C133.263 4.06655 133.06 4.32936 132.812 4.54338C132.54 4.77366 132.229 4.9506 131.893 5.06769C131.494 5.19844 131.075 5.26154 130.656 5.25243Z"
            fill="white" />
        <path
            d="M143.916 11.1623H148.968V7.73545H143.916V2.07275H139.371V7.73545H134.995V11.1623H139.371V25.9459H143.916V11.1623Z"
            fill="white" />
        <path
            d="M154.567 20.0516C154.567 20.3521 154.645 20.6481 154.796 20.9083C154.977 21.2082 155.23 21.4573 155.532 21.6323C155.935 21.8697 156.374 22.0415 156.83 22.1429C157.458 22.2789 158.1 22.3414 158.742 22.3277C162.774 22.3277 165.854 21.0345 166.204 20.704V18.9632C165.508 18.7785 164.819 18.5931 164.139 18.4702C163.46 18.3466 162.806 18.2321 162.19 18.154C161.571 18.0766 160.985 18.0233 160.439 17.9914C159.893 17.9602 159.411 17.9458 159.003 17.9458C158.292 17.9341 157.583 17.9907 156.884 18.1156C156.409 18.1989 155.946 18.3511 155.516 18.5697C155.212 18.7193 154.957 18.9535 154.78 19.243C154.64 19.4856 154.566 19.7627 154.566 20.0437L154.568 20.0522L154.567 20.0516ZM149.775 20.1966C149.765 19.3653 149.959 18.5437 150.342 17.8066C150.749 17.0553 151.335 16.4165 152.046 15.9481C152.911 15.3802 153.87 14.973 154.88 14.7434C156.175 14.4422 157.502 14.2997 158.831 14.3186C160.011 14.3232 161.189 14.4051 162.357 14.5658C163.642 14.7414 164.916 14.9932 166.172 15.321C166.124 14.7557 165.945 14.2087 165.65 13.7247C165.335 13.2166 164.914 12.7847 164.415 12.4594C163.829 12.0795 163.186 11.7998 162.51 11.6326C161.684 11.4271 160.834 11.3282 159.983 11.3393C159.472 11.3393 158.909 11.3705 158.294 11.4316C157.68 11.4928 157.045 11.5871 156.392 11.71C155.737 11.8343 155.088 11.9878 154.449 12.1719C153.838 12.3482 153.239 12.5694 152.66 12.8348L151.277 9.08654C151.964 8.83999 152.698 8.61362 153.483 8.4061C154.267 8.19989 155.068 8.0223 155.886 7.87464C156.705 7.72372 157.525 7.60858 158.342 7.52726C159.159 7.44595 159.956 7.40367 160.731 7.40302C164.118 7.40302 166.637 8.27275 168.285 10.0116C169.933 11.7517 170.758 14.4155 170.758 18.0057V22.7538C170.758 22.7538 166.86 26.2646 158.35 26.2646C157.095 26.2847 155.841 26.1293 154.627 25.8027C153.659 25.5477 152.744 25.1138 151.933 24.5238C151.251 24.019 150.696 23.3614 150.313 22.6022C149.944 21.8561 149.756 21.0332 149.762 20.2012L149.773 20.1947L149.775 20.1966Z"
            fill="white" />
        <path d="M178.806 0.345642H174.261V25.9472H178.806V0.345642Z" fill="white" />
        <path
            d="M206.901 7.72052H211.43V16.6111C211.422 17.3884 211.516 18.1638 211.709 18.9171C211.875 19.578 212.199 20.1902 212.651 20.7002C213.142 21.2245 213.754 21.6187 214.433 21.849C215.326 22.145 216.264 22.2835 217.204 22.2575C220.749 22.2575 222.808 21.0619 222.808 21.0619V7.72117H227.354V23.5891C227.354 23.5891 222.676 26.2549 217.128 26.2549C215.473 26.2549 213.158 26.0539 211.98 25.6532C210.888 25.3077 209.894 24.708 209.076 23.9013C208.307 23.1084 207.74 22.1397 207.423 21.0781C207.058 19.8389 206.881 18.5509 206.901 17.2577V7.72052Z"
            fill="white" />
        <path
            d="M187.822 23.269C187.822 23.8597 187.647 24.4374 187.321 24.9279C186.994 25.4183 186.53 25.8008 185.986 26.0266C185.444 26.2523 184.847 26.3115 184.271 26.1957C183.694 26.0806 183.165 25.7956 182.75 25.378C182.335 24.9604 182.053 24.4283 181.937 23.8493C181.823 23.2703 181.882 22.6699 182.108 22.1248C182.333 21.5797 182.713 21.1126 183.202 20.7847C183.69 20.4569 184.265 20.2812 184.852 20.2812C185.242 20.2812 185.629 20.3587 185.989 20.5089C186.35 20.6598 186.678 20.8797 186.953 21.1575C187.228 21.434 187.448 21.7638 187.597 22.1267C187.746 22.4891 187.823 22.8774 187.822 23.269Z"
            fill="white" />
    </g>
    <defs>
        <clipPath id="clip0_1_873">
            <rect width="227.355" height="33.7784" fill="white" transform="translate(0 0.34375)" />
        </clipPath>
    </defs>
</svg>