<svg xmlns="http://www.w3.org/2000/svg" width="92" height="58" viewBox="0 0 92 58" fill="none">
    <g clip-path="url(#clip0_1_922)">
        <path
            d="M81.0807 10.9684H76.5285C76.1966 10.9684 75.8949 11.1596 75.7504 11.4606L69.4263 24.6814L63.1036 11.4606C62.9607 11.1596 62.6575 10.9684 62.3256 10.9684H57.7734C57.3669 10.9684 57.1621 11.185 57.1621 11.6168V37.1279C57.1621 37.5596 57.3653 37.7763 57.7734 37.7763H62.2224C62.5797 37.7763 62.8686 37.4863 62.8686 37.1279V22.3014L67.1525 31.318C67.2954 31.6191 67.5987 31.8119 67.9305 31.8119H70.9188C71.2522 31.8119 71.5555 31.6191 71.6968 31.318L75.9823 22.3014V37.1279C75.9823 37.4863 76.2712 37.7763 76.6285 37.7763H81.0775C81.484 37.7763 81.6872 37.5596 81.6872 37.1279V11.6168C81.6872 11.185 81.484 10.9684 81.0775 10.9684H81.0807Z"
            fill="white" />
        <path
            d="M52.6177 10.9684H47.8606C47.5399 10.9684 47.2446 11.1468 47.0969 11.432L38.7673 27.396V11.6152C38.7673 11.2567 38.4768 10.9668 38.1211 10.9668H33.6721C33.264 10.9668 33.0624 11.1835 33.0624 11.6152V37.1263C33.0624 37.558 33.2656 37.7747 33.6721 37.7747H38.4641C38.7848 37.7747 39.0801 37.5963 39.2278 37.3111L47.5574 21.3503V37.1279C47.5574 37.5596 47.7606 37.7763 48.1671 37.7763H52.6161C52.9733 37.7763 53.2623 37.4863 53.2623 37.1279V11.6168C53.2623 11.2583 52.9733 10.9684 52.6161 10.9684H52.6177Z"
            fill="white" />
        <path
            d="M21.2987 10.9684H11.7894C11.3829 10.9684 11.1797 11.185 11.1797 11.6168V37.1279C11.1797 37.5596 11.3829 37.7763 11.7894 37.7763H16.3114C16.7179 37.7763 16.9212 37.5596 16.9212 37.1279V29.2216H21.2987C24.1202 29.2216 26.3574 28.3996 28.0087 26.7555C29.6601 25.1115 30.4841 22.8844 30.4841 20.0775C30.4841 17.2928 29.6585 15.0785 28.0087 13.4344C26.3574 11.7904 24.1202 10.9684 21.2987 10.9684ZM20.5096 23.8562H16.9212V16.2971H20.5096C23.212 16.2971 24.5632 17.5572 24.5632 20.0775C24.5632 22.5977 23.212 23.8562 20.5096 23.8562Z"
            fill="white" />
        <path fill-rule="evenodd" clip-rule="evenodd"
            d="M81.9571 0.71875H10.9143C5.4428 0.71875 0.96521 5.21116 0.96521 10.7008V38.0424C0.96521 43.532 5.44121 48.0245 10.9143 48.0245H28.8247V55.6759C28.8247 56.8946 29.8091 57.8823 31.0238 57.8823H61.8493C63.0639 57.8823 64.0484 56.8946 64.0484 55.6759V48.0245H81.9571C87.4287 48.0245 91.9063 43.532 91.9063 38.0424V10.7024C91.9063 5.21275 87.4287 0.720343 81.9571 0.720343V0.71875ZM81.9568 5.70987H10.914C8.1782 5.70987 5.93941 7.95607 5.93941 10.7009V38.0409C5.93941 40.7857 8.1782 43.0319 10.914 43.0319H81.9568C84.6941 43.0319 86.9313 40.7857 86.9313 38.0409V10.7009C86.9313 7.95607 84.6925 5.70987 81.9568 5.70987ZM35.4917 50.4046L36.3158 48.5025L36.319 48.5009L37.4034 46.1607C37.4161 46.1352 37.4415 46.1193 37.4701 46.1193H38.8817C38.9214 46.1193 38.9547 46.1512 38.9547 46.1926V54.5896C38.9547 54.6294 38.9214 54.6628 38.8817 54.6628H37.4368C37.3971 54.6628 37.3653 54.631 37.3653 54.5896V49.7403H37.3066L36.6603 51.2633L35.9617 52.7559C35.949 52.7814 35.9236 52.7974 35.895 52.7974H35.0344C35.0059 52.7974 34.9804 52.7798 34.9678 52.7544L34.2548 51.2139L33.6245 49.7164H33.5498V54.5911C33.5498 54.631 33.5165 54.6644 33.4768 54.6644H32.0319C31.9922 54.6644 31.9605 54.6326 31.9605 54.5911V46.1942C31.9605 46.1527 31.9922 46.1209 32.0319 46.1209H33.4578C33.4879 46.1209 33.5133 46.1384 33.5244 46.1639L34.6153 48.5519L35.4187 50.4046H35.4917ZM44.9153 54.6644H40.5107V54.6612C40.4726 54.6612 40.4393 54.6294 40.4393 54.588V46.191C40.4393 46.1496 40.4711 46.1177 40.5107 46.1177H44.9153C44.955 46.1177 44.9883 46.1496 44.9883 46.191V47.2854C44.9883 47.3268 44.955 47.3587 44.9153 47.3587H42.0287V49.6909H44.5326C44.5723 49.6909 44.6041 49.7244 44.6041 49.7642V50.8825C44.6041 50.9223 44.5723 50.9558 44.5326 50.9558H42.0287V53.4234H44.9153C44.955 53.4234 44.9883 53.4569 44.9883 53.4967V54.5911C44.9883 54.631 44.955 54.6644 44.9153 54.6644ZM50.0121 46.3853C50.3646 46.5606 50.6091 46.8569 50.7457 47.2743H50.7473C50.8552 47.5769 50.9124 47.9927 50.9172 48.52C50.9203 49.0489 50.9188 51.6902 50.9092 52.1968C50.8997 52.7034 50.8362 53.1048 50.7187 53.3995C50.5329 53.8822 50.236 54.2136 49.8295 54.3936C49.423 54.5736 48.961 54.6644 48.4418 54.6644H46.1077C46.0664 54.6644 46.0347 54.6326 46.0347 54.5911V46.1942C46.0347 46.1527 46.0664 46.1209 46.1077 46.1209H48.5736C49.1801 46.1209 49.6596 46.2085 50.0121 46.3853ZM49.1118 53.167C49.2579 52.9949 49.3325 52.7432 49.3325 52.415V48.3591C49.3325 48.0485 49.2611 47.8032 49.1182 47.6263C48.9753 47.4495 48.7038 47.3619 48.3005 47.3619H47.6225V53.4266H48.3005C48.6942 53.4266 48.9642 53.3406 49.1118 53.167ZM57.1493 46.1225H58.8022C58.8355 46.1225 58.8641 46.1464 58.872 46.1782L60.9123 54.5768C60.925 54.623 60.8885 54.6676 60.8425 54.6676H59.3738C59.3388 54.6676 59.3103 54.6437 59.3023 54.6103L58.9181 52.8882H57.0334L56.6634 54.6103C56.6555 54.6421 56.6253 54.6676 56.5919 54.6676H55.1232C55.0772 54.6676 55.0423 54.623 55.0534 54.5768L57.0794 46.1782C57.0873 46.1464 57.1159 46.1225 57.1493 46.1225ZM57.9321 48.0979L57.2684 51.6456H58.6672L58.0051 48.0979H57.9321ZM53.9864 54.666H52.5415C52.5018 54.666 52.47 54.6342 52.47 54.5927V46.1958C52.47 46.1543 52.5018 46.1225 52.5415 46.1225H53.9864C54.0277 46.1225 54.0594 46.1543 54.0594 46.1958V54.5927C54.0594 54.6326 54.0277 54.666 53.9864 54.666Z"
            fill="white" />
    </g>
    <defs>
        <clipPath id="clip0_1_922">
            <rect width="90.9419" height="57.1635" fill="white" transform="translate(0.964844 0.71875)" />
        </clipPath>
    </defs>
</svg>