<svg xmlns="http://www.w3.org/2000/svg" width="92" height="58" viewBox="0 0 92 58" fill="none">
    <g clip-path="url(#clip0_1_862)">
        <path
            d="M81.0034 10.6241H76.4515C76.1221 10.6241 75.8167 10.8158 75.6729 11.1153L69.3482 24.2918L63.0234 11.1153C62.8797 10.8158 62.5802 10.6241 62.2448 10.6241H57.6929C57.2857 10.6241 57.082 10.8398 57.082 11.271V36.7017C57.082 37.1329 57.2857 37.3485 57.6929 37.3485H62.143C62.4964 37.3485 62.7899 37.061 62.7899 36.7017V21.92L67.0722 30.91C67.216 31.2095 67.5154 31.4011 67.8508 31.4011H70.8395C71.1689 31.4011 71.4744 31.2095 71.6181 30.91L75.9065 21.92V36.7017C75.9065 37.061 76.194 37.3485 76.5533 37.3485H81.0034C81.4107 37.3485 81.6143 37.1329 81.6143 36.7017V11.271C81.6143 10.8398 81.4107 10.6241 81.0034 10.6241Z"
            fill="white" />
        <path
            d="M52.5359 10.6241H47.7803C47.4569 10.6241 47.1634 10.8038 47.0137 11.0853L38.6826 26.999V11.271C38.6826 10.9116 38.3951 10.6241 38.0357 10.6241H33.5856C33.1784 10.6241 32.9747 10.8398 32.9747 11.271V36.7017C32.9747 37.1329 33.1784 37.3485 33.5856 37.3485H38.3771C38.7005 37.3485 38.994 37.1688 39.1437 36.8874L47.4749 20.9797V36.7077C47.4749 37.1389 47.6785 37.3545 48.0858 37.3545H52.5359C52.8952 37.3545 53.1827 37.067 53.1827 36.7077V11.277C53.1827 10.9176 52.8952 10.6301 52.5359 10.6301V10.6241Z"
            fill="white" />
        <path
            d="M21.2145 10.6241H11.7034C11.2962 10.6241 11.0925 10.8398 11.0925 11.271V36.7017C11.0925 37.1329 11.2962 37.3485 11.7034 37.3485H16.2254C16.6327 37.3485 16.8363 37.1329 16.8363 36.7017V28.8197H21.2145C24.0355 28.8197 26.2755 27.9992 27.9225 26.3641C29.5756 24.723 30.3961 22.507 30.3961 19.71C30.3961 16.9369 29.5696 14.7268 27.9225 13.0858C26.2695 11.4447 24.0355 10.6301 21.2145 10.6301V10.6241ZM20.4239 23.4713H16.8363V15.9367H20.4239C23.1251 15.9367 24.4787 17.1944 24.4787 19.704C24.4787 22.2135 23.1251 23.4713 20.4239 23.4713Z"
            fill="white" />
        <path fill-rule="evenodd" clip-rule="evenodd"
            d="M81.8687 0.40625H10.8233C5.34903 0.40625 0.875 4.88627 0.875 10.3545V37.606C0.875 43.0802 5.35502 47.5542 10.8233 47.5542H18.1183V55.1787C18.1183 56.3945 19.1005 57.3767 20.3164 57.3767H72.3756C73.5914 57.3767 74.5737 56.3945 74.5737 55.1787V47.5542H81.8687C87.3429 47.5542 91.8169 43.0742 91.8169 37.606V10.3545C91.8169 4.88028 87.3369 0.40625 81.8687 0.40625ZM81.876 5.38343H10.8246C8.08744 5.38343 5.84743 7.62344 5.84743 10.3606V37.612C5.84743 40.3491 8.08744 42.5891 10.8246 42.5891H81.876C84.6131 42.5891 86.8531 40.3491 86.8531 37.612V10.3606C86.8531 7.62344 84.6131 5.38343 81.876 5.38343ZM71.2796 46.8896C71.3875 47.1891 71.4414 47.6023 71.4473 48.1294H71.4533C71.4593 48.6564 71.4593 51.2918 71.4473 51.7949C71.4354 52.298 71.3755 52.6992 71.2557 52.9927C71.07 53.4779 70.7765 53.8073 70.3693 53.9869C69.962 54.1666 69.5008 54.2565 68.9797 54.2565H66.6439C66.602 54.2565 66.572 54.2265 66.572 54.1846V45.8115C66.572 45.7696 66.602 45.7396 66.6439 45.7396H69.1115C69.7164 45.7396 70.1956 45.8295 70.549 46.0032C70.8963 46.1769 71.1419 46.4703 71.2796 46.8896ZM69.6446 52.7591C69.7943 52.5854 69.8662 52.3399 69.8662 52.0105V47.9677C69.8662 47.6562 69.7943 47.4107 69.6506 47.237C69.5128 47.0633 69.2373 46.9734 68.836 46.9734H68.1592V53.0167H68.836C69.2253 53.0167 69.5008 52.9328 69.6446 52.7591ZM30.8577 45.7396H32.3011H32.3071C32.349 45.7396 32.379 45.7696 32.379 45.8115V53.0227H35.146C35.188 53.0227 35.2179 53.0526 35.2179 53.0945V54.1846C35.2179 54.2265 35.188 54.2565 35.146 54.2565H30.8577C30.8157 54.2565 30.7858 54.2265 30.7858 54.1846V45.8115C30.7858 45.7696 30.8157 45.7396 30.8577 45.7396ZM29.1327 54.2565H27.6893C27.6474 54.2565 27.6174 54.2265 27.6174 54.1846V45.8115C27.6174 45.7696 27.6474 45.7396 27.6893 45.7396H29.1327C29.1747 45.7396 29.2046 45.7696 29.2046 45.8115V54.1846C29.2046 54.2265 29.1747 54.2565 29.1327 54.2565ZM24.9821 49.7405V49.8004L24.9761 49.8124C25.4313 49.9322 25.7368 50.1658 25.9045 50.5072C26.0722 50.8485 26.156 51.2379 26.156 51.6811C26.156 52.5735 25.9285 53.2263 25.4733 53.6396C25.0181 54.0528 24.3173 54.2625 23.377 54.2625H21.3286C21.2867 54.2625 21.2568 54.2325 21.2568 54.1906V45.8175C21.2568 45.7756 21.2867 45.7456 21.3286 45.7456H23.4968C24.3952 45.7456 25.054 45.9433 25.4613 46.3386C25.8686 46.7339 26.0722 47.3088 26.0722 48.0575C26.0722 48.4468 25.9883 48.7882 25.8266 49.0817C25.6649 49.3752 25.3834 49.5908 24.9821 49.7405ZM23.347 46.9734H22.8499V49.1775H23.365C23.7783 49.1775 24.0777 49.0817 24.2694 48.896C24.4611 48.7104 24.5569 48.4348 24.5569 48.0755C24.5569 47.6862 24.4611 47.4047 24.2754 47.231C24.0897 47.0573 23.7783 46.9734 23.347 46.9734ZM24.4431 52.5914C24.5269 52.4597 24.5809 52.3039 24.6048 52.1243C24.6288 51.9446 24.6407 51.7589 24.6407 51.5613C24.6407 51.16 24.5569 50.8665 24.3772 50.6689C24.1975 50.4712 23.8921 50.3754 23.4489 50.3754H22.8439V53.0167H23.4788C23.7364 53.0167 23.934 52.9807 24.0897 52.9029C24.2395 52.825 24.3592 52.7232 24.4431 52.5914ZM53.4374 54.1666L55.4618 45.7935V45.7876C55.4738 45.7576 55.4978 45.7337 55.5337 45.7337H57.1868C57.2227 45.7337 57.2526 45.7576 57.2586 45.7876L59.301 54.1606C59.313 54.2086 59.277 54.2505 59.2291 54.2505H57.7617C57.7258 54.2505 57.6958 54.2265 57.6899 54.1966L57.3065 52.4776H55.4199L55.0486 54.1966C55.0426 54.2325 55.0126 54.2565 54.9767 54.2565H53.5093C53.4614 54.2565 53.4255 54.2145 53.4374 54.1666ZM56.3183 47.7041L55.6535 51.2438H57.055L56.3902 47.7041H56.3183ZM36.1462 45.7396H37.5897H37.5957C37.6376 45.7396 37.6675 45.7696 37.6675 45.8115V53.0227H40.4346C40.4765 53.0227 40.5065 53.0526 40.5065 53.0945V54.1846C40.5065 54.2265 40.4765 54.2565 40.4346 54.2565H36.1462C36.1043 54.2565 36.0744 54.2265 36.0744 54.1846V45.8115C36.0744 45.7696 36.1043 45.7396 36.1462 45.7396ZM45.0823 49.7405V49.8004L45.0703 49.8124C45.5255 49.9322 45.831 50.1658 45.9987 50.5072C46.1664 50.8485 46.2502 51.2379 46.2502 51.6811C46.2502 52.5735 46.0226 53.2263 45.5675 53.6396C45.1123 54.0528 44.4115 54.2625 43.4712 54.2625H41.4228C41.3809 54.2625 41.351 54.2325 41.351 54.1906V45.8175C41.351 45.7756 41.3809 45.7456 41.4228 45.7456H43.591C44.4954 45.7456 45.1482 45.9433 45.5555 46.3386C45.9627 46.7339 46.1664 47.3088 46.1664 48.0575C46.1664 48.4468 46.0885 48.7882 45.9268 49.0817C45.7651 49.3752 45.4836 49.5908 45.0823 49.7405ZM43.4472 46.9734H42.9501V49.1775H43.4652C43.8785 49.1775 44.1779 49.0817 44.3696 48.896C44.5612 48.7104 44.6571 48.4348 44.6571 48.0755C44.6571 47.6862 44.5613 47.4047 44.3756 47.231C44.1899 47.0573 43.8785 46.9734 43.4472 46.9734ZM44.5493 52.5914C44.6331 52.4597 44.687 52.3039 44.711 52.1243C44.7349 51.9446 44.7469 51.7589 44.7469 51.5613C44.7469 51.16 44.6631 50.8665 44.4834 50.6689C44.3037 50.4712 43.9983 50.3754 43.555 50.3754H42.9501V53.0167H43.585C43.8425 53.0167 44.0462 52.9807 44.1959 52.9029C44.3456 52.825 44.4654 52.7232 44.5493 52.5914ZM51.2693 45.8115C51.5867 45.9133 51.8383 46.0631 52.0299 46.2607H52.0359C52.2276 46.4524 52.3653 46.6919 52.4492 46.9675C52.533 47.243 52.575 47.5544 52.575 47.9078V52.0704C52.575 52.813 52.3713 53.376 51.9701 53.7534C51.5688 54.1307 50.9399 54.3223 50.0774 54.3223C49.215 54.3223 48.5861 54.1427 48.1968 53.7773C47.8075 53.412 47.6098 52.8849 47.6098 52.2021V47.9198C47.6098 47.5844 47.6577 47.2789 47.7476 47.0034C47.8374 46.7279 47.9812 46.4883 48.1788 46.2907C48.3765 46.087 48.634 45.9313 48.9514 45.8235C49.2689 45.7097 49.6522 45.6558 50.0894 45.6558C50.5566 45.6558 50.9519 45.7097 51.2693 45.8115ZM50.7722 52.813C50.9039 52.6334 50.9758 52.4118 50.9758 52.1482V47.8179C50.9758 47.5844 50.9159 47.3687 50.7902 47.1831C50.6644 46.9974 50.4308 46.9016 50.0894 46.9016C49.9037 46.9016 49.754 46.9315 49.6342 47.0034C49.5204 47.0753 49.4306 47.1591 49.3647 47.2609C49.2988 47.3628 49.2569 47.4766 49.2329 47.6023C49.209 47.7281 49.197 47.8419 49.197 47.9497V52.2321C49.197 52.4537 49.2629 52.6513 49.3946 52.825C49.5264 52.9987 49.754 53.0886 50.0774 53.0886C50.4068 53.0886 50.6344 52.9987 50.7722 52.813ZM65.2424 48.2072C65.2424 48.7463 65.1526 49.2015 64.9729 49.5728L64.9549 49.5668C64.7752 49.9382 64.4518 50.2316 63.9906 50.4413L65.47 54.1487C65.488 54.1966 65.458 54.2505 65.4041 54.2505H63.9427C63.9128 54.2505 63.8888 54.2325 63.8768 54.2026L62.5712 50.7288H61.8225V54.1786C61.8225 54.2205 61.7925 54.2505 61.7506 54.2505H60.3072C60.2653 54.2505 60.2353 54.2205 60.2353 54.1786V45.8055C60.2353 45.7636 60.2653 45.7337 60.3072 45.7337H62.5772C63.4097 45.7337 64.0625 45.9253 64.5357 46.3146C65.0088 46.7039 65.2424 47.3328 65.2424 48.2072ZM62.4813 49.471C62.8886 49.471 63.1941 49.3692 63.3917 49.1715L63.3977 49.1655C63.5893 48.9679 63.6912 48.6445 63.6912 48.2072C63.6912 47.8179 63.5953 47.5125 63.4037 47.2969C63.212 47.0813 62.8946 46.9734 62.4514 46.9734H61.8345V49.471H62.4813Z"
            fill="white" />
    </g>
    <defs>
        <clipPath id="clip0_1_862">
            <rect width="90.9419" height="57.1635" fill="white" transform="translate(0.875 0.40625)" />
        </clipPath>
    </defs>
</svg>