<svg xmlns="http://www.w3.org/2000/svg" width="92" height="58" viewBox="0 0 92 58" fill="none">
    <g clip-path="url(#clip0_1_889)">
        <path
            d="M80.5654 10.3724H76.0126C75.6824 10.3724 75.3779 10.5638 75.2348 10.8657L68.9138 24.0873L62.5927 10.8657C62.4496 10.5638 62.1488 10.3724 61.815 10.3724H57.2622C56.855 10.3724 56.6532 10.5896 56.6532 11.0203V36.5322C56.6532 36.9629 56.8586 37.18 57.2622 37.18H61.7123C62.0681 37.18 62.3579 36.8892 62.3579 36.5322V21.7058L66.6429 30.7201C66.786 31.022 67.0905 31.2134 67.4206 31.2134H70.4106C70.7444 31.2134 71.0453 31.022 71.1883 30.7201L75.4733 21.7058V36.5322C75.4733 36.8892 75.7631 37.18 76.119 37.18H80.569C80.9763 37.18 81.178 36.9629 81.178 36.5322V11.0203C81.178 10.5896 80.9763 10.3724 80.569 10.3724H80.5654Z"
            fill="white" />
        <path
            d="M52.1002 10.3724H47.342C47.0228 10.3724 46.7257 10.5491 46.5789 10.8362L38.2511 26.8V11.0203C38.2511 10.6632 37.9613 10.3724 37.6054 10.3724H33.1554C32.7482 10.3724 32.5464 10.5896 32.5464 11.0203V36.5322C32.5464 36.9629 32.7482 37.18 33.1554 37.18H37.9466C38.2658 37.18 38.563 37.0033 38.7097 36.7162L47.0375 20.7561V36.5322C47.0375 36.9629 47.2429 37.18 47.6465 37.18H52.0965C52.4524 37.18 52.7422 36.8892 52.7422 36.5322V11.0203C52.7422 10.6632 52.4524 10.3724 52.0965 10.3724H52.1002Z"
            fill="white" />
        <path
            d="M20.7848 10.3724H11.2757C10.8685 10.3724 10.6667 10.5896 10.6667 11.0203V36.5322C10.6667 36.9629 10.8685 37.18 11.2757 37.18H15.7955C16.2027 37.18 16.4045 36.9629 16.4045 36.5322V28.6257H20.7812C23.6024 28.6257 25.8402 27.8049 27.4911 26.1596C29.142 24.5142 29.9674 22.291 29.9674 19.4825C29.9674 16.6998 29.142 14.4839 27.4911 12.8386C25.8402 11.1933 23.6024 10.3724 20.7812 10.3724H20.7848ZM19.9961 23.2591H16.4082V15.6986H19.9961C22.6999 15.6986 24.0499 16.9575 24.0499 19.4788C24.0499 21.9965 22.6999 23.2591 19.9961 23.2591Z"
            fill="white" />
        <path fill-rule="evenodd" clip-rule="evenodd"
            d="M81.4382 0.125H10.395C4.92142 0.125 0.445679 4.61563 0.445679 10.1075V37.4488C0.445679 42.9406 4.92142 47.4312 10.395 47.4312H25.6089V55.0837C25.6089 56.302 26.5921 57.2885 27.81 57.2885H64.0231C65.2375 57.2885 66.2243 56.302 66.2243 55.0837V47.4312H81.4382C86.9118 47.4312 91.3875 42.9406 91.3875 37.4488V10.1075C91.3875 4.61931 86.9118 0.125 81.4382 0.125ZM81.4422 5.11612H10.3991C7.66228 5.11612 5.42441 7.36143 5.42441 10.1073V37.4487C5.42441 40.1946 7.66228 42.4399 10.3991 42.4399H81.4422C84.179 42.4399 86.4169 40.1946 86.4169 37.4487V10.1073C86.4169 7.36143 84.179 5.11612 81.4422 5.11612ZM35.6541 50.5707L35.7275 50.5596H35.7348V45.6715C35.7348 45.631 35.7678 45.5979 35.8082 45.5979H37.2243C37.2646 45.5979 37.2976 45.631 37.2976 45.6715V54.0712C37.2976 54.1117 37.2646 54.1448 37.2243 54.1448H35.9476C35.9182 54.1448 35.8926 54.1301 35.8816 54.1043L34.0876 50.3903L33.5226 49.1756H33.4639V54.0749C33.4639 54.1153 33.4309 54.1485 33.3906 54.1485H31.9451C31.9048 54.1485 31.8717 54.1153 31.8717 54.0749V45.6752C31.8717 45.6347 31.9048 45.6016 31.9451 45.6016H33.2548C33.2842 45.6016 33.3098 45.6163 33.3208 45.642L35.1405 49.3928L35.6541 50.5707ZM30.2685 54.1448H28.8231C28.7827 54.1448 28.7497 54.1117 28.7497 54.0712V45.6715C28.7497 45.631 28.7827 45.5979 28.8231 45.5979H30.2685C30.3089 45.5979 30.3419 45.631 30.3419 45.6715V54.0712C30.3419 54.1117 30.3089 54.1448 30.2685 54.1448ZM62.5782 49.4517C62.3948 49.8235 62.0756 50.1143 61.6134 50.3278L61.617 50.3351L63.0955 54.0528C63.1138 54.1006 63.0772 54.1521 63.0258 54.1521H61.562C61.529 54.1521 61.5033 54.1337 61.4923 54.1043L60.1863 50.6149H59.4342V54.0785C59.4342 54.119 59.4012 54.1521 59.3608 54.1521H57.9154C57.875 54.1521 57.842 54.119 57.842 54.0785V45.6788C57.842 45.6384 57.875 45.6052 57.9154 45.6052H60.1826C61.0154 45.6052 61.6684 45.7966 62.1417 46.1868C62.6149 46.5733 62.8497 47.2064 62.8497 48.0824C62.8497 48.6235 62.7617 49.0799 62.5782 49.4517ZM60.0799 49.345C60.4944 49.345 60.7953 49.2456 60.9934 49.0431C61.1878 48.8407 61.2869 48.5205 61.2869 48.0788C61.2869 47.6886 61.1915 47.3831 61.0007 47.1659C60.8099 46.9524 60.4908 46.842 60.0505 46.842H59.4305V49.345H60.0799ZM48.7548 45.6788C49.074 45.7819 49.3271 45.9328 49.5179 46.1279C49.7086 46.323 49.8444 46.5586 49.9288 46.8383C50.0131 47.1181 50.0535 47.4309 50.0535 47.7843V51.9584C50.0535 52.7019 49.8517 53.2651 49.4518 53.6442C49.052 54.0233 48.421 54.2147 47.5588 54.2147C46.6967 54.2147 46.0694 54.0344 45.6805 53.67C45.2879 53.3056 45.0935 52.7792 45.0935 52.0909V47.7953C45.0935 47.4604 45.1412 47.1549 45.2329 46.8751C45.3246 46.5954 45.4677 46.3598 45.6658 46.1574C45.8602 45.9549 46.1171 45.8003 46.4362 45.6899C46.7554 45.5795 47.1333 45.5243 47.5735 45.5243C48.0431 45.5243 48.4356 45.5758 48.7548 45.6788ZM48.2559 52.7019C48.3916 52.5179 48.4613 52.2933 48.4613 52.032H48.4576V47.6886C48.4576 47.4493 48.3989 47.2358 48.2742 47.0481C48.1495 46.8604 47.9184 46.7647 47.5735 46.7647C47.3901 46.7647 47.236 46.7978 47.1186 46.8678C47.0012 46.9377 46.9095 47.0224 46.8471 47.1254C46.7847 47.2285 46.7407 47.3426 46.715 47.4714C46.6894 47.5966 46.6784 47.7144 46.6784 47.8211V52.1166C46.6784 52.3375 46.7444 52.5363 46.8765 52.7129C47.0122 52.8896 47.2397 52.978 47.5625 52.978C47.889 52.978 48.1165 52.8859 48.2559 52.7019ZM42.7529 45.8629C43.1051 46.0396 43.3509 46.3377 43.4866 46.7537V46.7573C43.593 47.0592 43.6517 47.4751 43.6554 48.0015C43.6591 48.5315 43.6591 51.1707 43.6481 51.6786C43.6371 52.1866 43.5747 52.5878 43.4573 52.8823C43.2702 53.3645 42.9767 53.6957 42.5695 53.8761C42.1623 54.0528 41.7 54.1448 41.1827 54.1448H38.8495C38.8091 54.1448 38.7761 54.1117 38.7761 54.0712V45.6715C38.7761 45.631 38.8091 45.5979 38.8495 45.5979H41.3148C41.9201 45.5979 42.4007 45.6862 42.7529 45.8629ZM41.8541 52.643C42.0008 52.47 42.0742 52.2197 42.0742 51.8921V47.8358C42.0742 47.5229 42.0045 47.28 41.8614 47.1033C41.7184 46.9267 41.4469 46.8383 41.0433 46.8383H40.3646V52.9007H41.0433C41.4359 52.9007 41.7073 52.816 41.8541 52.643ZM55.0869 45.6788C55.406 45.7819 55.6592 45.9328 55.8499 46.1279C56.0407 46.323 56.1765 46.5586 56.2608 46.8383C56.3452 47.1181 56.3856 47.4309 56.3856 47.7843V51.9584C56.3856 52.7019 56.1875 53.2651 55.7839 53.6442C55.384 54.0233 54.753 54.2147 53.8909 54.2147C53.0288 54.2147 52.4051 54.0344 52.0126 53.67C51.62 53.3056 51.4256 52.7792 51.4256 52.0909V47.7953C51.4256 47.4604 51.4733 47.1549 51.565 46.8751C51.6567 46.5954 51.8034 46.3598 51.9979 46.1574C52.1923 45.9549 52.4491 45.8003 52.7683 45.6899C53.0875 45.5795 53.4653 45.5243 53.9056 45.5243C54.3752 45.5243 54.7677 45.5758 55.0869 45.6788ZM54.5879 52.7019C54.7237 52.5179 54.7934 52.2933 54.7934 52.032H54.7897V47.6886C54.7897 47.4493 54.7273 47.2358 54.6063 47.0481C54.4815 46.8604 54.2504 46.7647 53.9056 46.7647C53.7221 46.7647 53.5681 46.7978 53.4507 46.8678C53.3333 46.9377 53.2452 47.0224 53.1792 47.1254C53.1168 47.2285 53.0728 47.3426 53.0471 47.4714C53.0214 47.5966 53.0104 47.7144 53.0104 47.8211V52.1166C53.0104 52.3375 53.0765 52.5363 53.2085 52.7129C53.3443 52.8896 53.5717 52.978 53.8946 52.978C54.2211 52.978 54.4485 52.8859 54.5879 52.7019Z"
            fill="white" />
    </g>
    <defs>
        <clipPath id="clip0_1_889">
            <rect width="90.9419" height="57.1635" fill="white" transform="translate(0.449463 0.125)" />
        </clipPath>
    </defs>
</svg>