<svg width="56" height="51" viewBox="0 0 56 51" fill="none" xmlns="http://www.w3.org/2000/svg">
<path d="M53.9672 0H1.81372C0.812345 0 0 0.802126 0 1.78818V9.46713H46.1708V23.9718H55.7809V9.46713V1.78818C55.7809 0.802126 54.9686 0 53.9672 0Z" fill="#5229A1"/>
<path d="M9.61019 23.9669V9.46729H0V31.6458C0 32.6319 0.812345 33.434 1.81372 33.434H23.0828V48.4649C23.0828 49.4509 23.8952 50.2531 24.9017 50.2531H30.8844C31.8858 50.2531 32.6981 49.4509 32.6981 48.4649V33.434H53.9672C54.9686 33.434 55.7809 32.6319 55.7809 31.6458V23.9669H9.61019Z" fill="url(#paint0_linear)"/>
<path d="M32.5 16.634C33.1667 17.0189 33.1667 17.9811 32.5 18.366L25.75 22.2631C25.0833 22.648 24.25 22.1669 24.25 21.3971L24.25 13.6029C24.25 12.8331 25.0833 12.352 25.75 12.7369L32.5 16.634Z" fill="#5229A1"/>
<defs>
<linearGradient id="paint0_linear" x1="-0.00143054" y1="29.8588" x2="55.7816" y2="29.8588" gradientUnits="userSpaceOnUse">
<stop stop-color="#FF9400"/>
<stop offset="1" stop-color="#FF5129"/>
</linearGradient>
</defs>
</svg>
