<svg width="32" height="51" viewBox="0 0 32 51" fill="none" xmlns="http://www.w3.org/2000/svg">
<path d="M30.2509 40.7298V9.61035H20.6407V40.6378H11.0765V29.7759H1.46633V40.7298C0.618227 40.9801 0 41.7516 0 42.6814V48.2095C0 49.3386 0.914525 50.2531 2.04363 50.2531H29.6838C30.8129 50.2531 31.7274 49.3386 31.7274 48.2095V42.6814C31.7172 41.7567 31.0939 40.9801 30.2509 40.7298Z" fill="url(#paint0_linear)"/>
<path d="M28.2074 0H3.50506C2.37595 0 1.46143 0.914525 1.46143 2.04363V29.7757H11.0716V9.61018H30.2511V2.04363C30.2511 0.914525 29.3366 0 28.2074 0Z" fill="#5229A1"/>
<defs>
<linearGradient id="paint0_linear" x1="17.7694" y1="20.9474" x2="40.2493" y2="55.1782" gradientUnits="userSpaceOnUse">
<stop stop-color="#FF9400"/>
<stop offset="1" stop-color="#FF5129"/>
</linearGradient>
</defs>
</svg>
