<svg width="56" height="51" viewBox="0 0 56 51" fill="none" xmlns="http://www.w3.org/2000/svg">
<path d="M53.9672 0H1.81372C0.812344 0 0 0.802126 0 1.78818V9.46712H46.1708V40.7353H55.7809V1.78818C55.7809 0.802126 54.9686 0 53.9672 0Z" fill="#5229A1"/>
<path d="M9.61018 40.7682V9.13696H0V48.4472C0 49.4332 0.812344 50.2353 1.81372 50.2353H53.9621C54.9635 50.2353 55.7758 49.4332 55.7758 48.4472V40.7682H9.61018Z" fill="url(#paint0_linear)"/>
<path d="M34.5 24.634C35.1667 25.0189 35.1667 25.9811 34.5 26.366L23.25 32.8612C22.5833 33.2461 21.75 32.765 21.75 31.9952L21.75 19.0048C21.75 18.235 22.5833 17.7539 23.25 18.1388L34.5 24.634Z" fill="#5229A1"/>
<defs>
<linearGradient id="paint0_linear" x1="0" y1="38.2511" x2="55.783" y2="38.2511" gradientUnits="userSpaceOnUse">
<stop stop-color="#FF9400"/>
<stop offset="1" stop-color="#FF5129"/>
</linearGradient>
</defs>
</svg>
