<svg width="42" height="51" viewBox="0 0 42 51" fill="none" xmlns="http://www.w3.org/2000/svg">
<path d="M39.483 0H1.81372C0.812337 0 0 0.802126 0 1.78818V9.46712H31.6865V23.9667H41.2967V1.78818C41.3018 0.802126 40.4895 0 39.483 0Z" fill="#5229A1"/>
<path d="M15.8431 48.4645C15.8431 49.4506 16.6555 50.2527 17.6569 50.2527H23.6396C24.641 50.2527 25.4533 49.4506 25.4533 48.4645V33.4336H15.8431V48.4645Z" fill="#5229A1"/>
<path d="M9.61529 23.9667L9.64083 9.34448H0.0255392L0 31.6456C0 32.6317 0.812337 33.4338 1.81372 33.4338H39.483C40.4843 33.4338 41.2967 32.6317 41.2967 31.6456V23.9667H9.61529Z" fill="url(#paint0_linear)"/>
<defs>
<linearGradient id="paint0_linear" x1="0.000510908" y1="21.3894" x2="41.3013" y2="21.3894" gradientUnits="userSpaceOnUse">
<stop stop-color="#FF9400"/>
<stop offset="1" stop-color="#FF5129"/>
</linearGradient>
</defs>
</svg>
