<?xml version="1.0" encoding="utf-8"?>
<!-- Generator: Adobe Illustrator 22.0.1, SVG Export Plug-In . SVG Version: 6.00 Build 0)  -->
<svg version="1.1" id="бг" xmlns="http://www.w3.org/2000/svg" xmlns:xlink="http://www.w3.org/1999/xlink" x="0px" y="0px"
	 viewBox="0 0 20 20" style="enable-background:new 0 0 20 20;" xml:space="preserve">
<style type="text/css">
	.st0{fill:#FFFFFF;}
	.st1{fill:#F39537;}
	.st2{fill:#808080;}
	.st3{fill:#333333;}
	.st4{fill:none;stroke:#FFFFFF;stroke-width:1.276;stroke-linecap:round;stroke-linejoin:round;stroke-miterlimit:10;}
	.st5{fill:#3365E6;}
	.st6{fill:#1F3D8A;}
	.st7{fill:#999999;}
	.st8{fill:none;stroke:#000000;stroke-width:0.75;stroke-miterlimit:10;}
</style>
<g id="orange">
	<g>
		<g>
			<circle class="st6" cx="10" cy="10" r="9.8"/>
			<g>
				<path class="st0" d="M10,0.5c5.2,0,9.5,4.3,9.5,9.5s-4.3,9.5-9.5,9.5c-5.2,0-9.5-4.3-9.5-9.5S4.8,0.5,10,0.5 M10,0
					C4.5,0,0,4.5,0,10c0,5.5,4.5,10,10,10s10-4.5,10-10C20,4.5,15.5,0,10,0L10,0z"/>
			</g>
		</g>
		<g>
			<path class="st0" d="M10,16c-0.4,0-0.6-0.3-0.6-0.6V4.4c0-0.4,0.3-0.6,0.6-0.6c0.4,0,0.6,0.3,0.6,0.6v10.9
				C10.6,15.7,10.4,16,10,16z"/>
		</g>
		<path class="st0" d="M18.1,9.2h-4.2l0.7-0.6c0.3-0.2,0.3-0.6,0-0.9c-0.1-0.1-0.3-0.2-0.5-0.2c-0.2,0-0.3,0.1-0.4,0.2l-1.9,1.7
			c-0.1,0.1-0.2,0.3-0.2,0.5c0,0.2,0.1,0.3,0.2,0.5l1.9,1.7c0.1,0.1,0.3,0.2,0.4,0.2c0.2,0,0.3-0.1,0.5-0.2c0.2-0.3,0.2-0.7,0-0.9
			l-0.7-0.6h4.2c0.4,0,0.6-0.3,0.6-0.6S18.5,9.2,18.1,9.2z"/>
	</g>
</g>
</svg>
