<svg id="бг" xmlns="http://www.w3.org/2000/svg" viewBox="0 0 20 20"><defs><style>.cls-1{fill:#666;}.cls-2{fill:#fff;}</style></defs><title>02_0</title><g id="orange-2" data-name="orange"><circle class="cls-1" cx="10" cy="10" r="9.75"/><path class="cls-2" d="M10,.5A9.5,9.5,0,1,1,.5,10,9.51,9.51,0,0,1,10,.5M10,0A10,10,0,1,0,20,10,10,10,0,0,0,10,0Z"/><path class="cls-2" d="M10,16a.64.64,0,0,1-.64-.64V4.45a.64.64,0,0,1,1.28,0V15.32A.64.64,0,0,1,10,16Z"/><path class="cls-2" d="M18.12,9.25H13.88l.67-.62a.63.63,0,0,0,0-.9.61.61,0,0,0-.47-.21.62.62,0,0,0-.43.17L11.8,9.41a.64.64,0,0,0,0,.95l1.89,1.73a.66.66,0,0,0,.43.16.63.63,0,0,0,.47-.2.65.65,0,0,0,0-.91l-.67-.62h4.24a.64.64,0,1,0,0-1.27Z"/></g></svg>