<?xml version="1.0" encoding="utf-8"?>
<!-- Generator: Adobe Illustrator 22.0.1, SVG Export Plug-In . SVG Version: 6.00 Build 0)  -->
<svg version="1.1" id="Layer_1" xmlns="http://www.w3.org/2000/svg" xmlns:xlink="http://www.w3.org/1999/xlink" x="0px" y="0px"
	 viewBox="0 0 15 15" style="enable-background:new 0 0 15 15;" xml:space="preserve">
<style type="text/css">
	.st0{fill:#A5A5A5;}
	.st1{fill:#FFFFFF;}
</style>
<g id="бг">
	<g id="orange">
		<g>
			<g>
				<circle class="st0" cx="7.5" cy="7.5" r="7.5"/>
				<path class="st1" d="M7.5,0.4c3.9,0,7.1,3.2,7.1,7.1s-3.2,7.1-7.1,7.1s-7.1-3.2-7.1-7.1C0.4,3.6,3.6,0.4,7.5,0.4 M7.5,0
					C3.4,0,0,3.4,0,7.5S3.4,15,7.5,15S15,11.6,15,7.5S11.6,0,7.5,0L7.5,0z"/>
			</g>
			<g>
				<path class="st1" d="M7.5,12c-0.3,0-0.5-0.2-0.4-0.5V3.3c0-0.3,0.2-0.4,0.5-0.4C7.7,2.9,8,3.1,8,3.3v8.2C8,11.8,7.8,12,7.5,12z"
					/>
			</g>
			<path class="st1" d="M13.6,6.9h-3.1L11,6.4c0.2-0.1,0.2-0.4,0-0.7c-0.1-0.1-0.2-0.2-0.4-0.2s-0.2,0.1-0.3,0.1L8.9,7
				C8.8,7.1,8.7,7.3,8.7,7.4c0,0.2,0.1,0.2,0.1,0.4l1.4,1.3c0.1,0.1,0.2,0.1,0.3,0.1s0.2-0.1,0.4-0.1c0.1-0.2,0.1-0.5,0-0.7
				l-0.5-0.5h3.1C13.9,8,14,7.7,14,7.5S13.9,6.9,13.6,6.9z"/>
		</g>
	</g>
</g>
</svg>
