<?xml version="1.0" encoding="utf-8"?>
<!-- Generator: Adobe Illustrator 22.0.1, SVG Export Plug-In . SVG Version: 6.00 Build 0)  -->
<svg version="1.1" id="бг" xmlns="http://www.w3.org/2000/svg" xmlns:xlink="http://www.w3.org/1999/xlink" x="0px" y="0px"
	 viewBox="0 0 30 30" style="enable-background:new 0 0 30 30;" xml:space="preserve">
<style type="text/css">
	.st0{fill:#FFFFFF;}
	.st1{fill:#F39537;}
	.st2{fill:#808080;}
	.st3{fill:#333333;}
	.st4{fill:none;stroke:#FFFFFF;stroke-width:1.276;stroke-linecap:round;stroke-linejoin:round;stroke-miterlimit:10;}
	.st5{fill:#3365E6;}
	.st6{fill:#1F3D8A;}
	.st7{fill:#999999;}
	.st8{fill:none;stroke:#000000;stroke-width:0.75;stroke-miterlimit:10;}
</style>
<g id="orange">
	<g>
		<circle class="st3" cx="15" cy="15" r="14.8"/>
		<g>
			<path class="st0" d="M15,0.5C23,0.5,29.5,7,29.5,15S23,29.5,15,29.5S0.5,23,0.5,15S7,0.5,15,0.5 M15,0C6.7,0,0,6.7,0,15
				s6.7,15,15,15c8.3,0,15-6.7,15-15S23.3,0,15,0L15,0z"/>
		</g>
	</g>
	<path class="st0" d="M27.2,13.9h-4.9l1-0.9c0.4-0.4,0.4-1,0.1-1.4c-0.2-0.2-0.4-0.3-0.7-0.3c-0.2,0-0.5,0.1-0.6,0.3l-2.8,2.6
		c-0.2,0.2-0.3,0.4-0.3,0.7c0,0.3,0.1,0.5,0.3,0.7l2.8,2.6c0.2,0.2,0.4,0.3,0.6,0.3c0.3,0,0.5-0.1,0.7-0.3c0.4-0.4,0.3-1-0.1-1.4
		l-1-0.9h4.9c0.5,0,1-0.4,1-1C28.1,14.3,27.7,13.9,27.2,13.9z"/>
	<path class="st0" d="M11.8,23.9c-0.1,0-0.1,0-0.2,0c-0.5-0.1-0.9-0.6-0.8-1.1l3.2-16.3c0.1-0.5,0.6-0.8,1.1-0.8
		c0.5,0.1,0.9,0.6,0.8,1.1l-3.2,16.3C12.6,23.6,12.2,23.9,11.8,23.9z"/>
	<path class="st0" d="M18.2,23.9c-0.4,0-0.8-0.3-0.9-0.8L14.1,6.8c-0.1-0.5,0.2-1,0.8-1.1c0.5-0.1,1,0.2,1.1,0.8l3.2,16.3
		c0.1,0.5-0.2,1-0.8,1.1C18.4,23.9,18.3,23.9,18.2,23.9z"/>
</g>
</svg>
