<svg width="112" height="71" viewBox="0 0 112 71" fill="none" xmlns="http://www.w3.org/2000/svg">
<path d="M99.6252 0.125977H12.2399C5.5083 0.125977 0 5.63428 0 12.3659V45.8847C0 52.6163 5.5083 58.1246 12.2399 58.1246H34.2697V67.5033C34.2697 68.9985 35.4795 70.2082 36.9746 70.2082H74.8905C76.3857 70.2082 77.5954 68.9985 77.5954 67.5033V58.1246H99.6252C106.357 58.1246 111.865 52.6163 111.865 45.8847V12.3659C111.862 5.63428 106.353 0.125977 99.6252 0.125977Z" fill="#FF9400"/>
<path d="M99.6251 6.24585H12.2364C8.87231 6.24585 6.11646 8.9983 6.11646 12.3658V45.8846C6.11646 49.2487 8.86891 52.0045 12.2364 52.0045H99.6217C102.986 52.0045 105.742 49.2521 105.742 45.8846V12.3624C105.742 8.9983 102.989 6.24585 99.6251 6.24585Z" fill="white"/>
<path d="M98.5482 12.6921H92.9482C92.5404 12.6921 92.1666 12.9266 91.9899 13.2936L84.2117 29.5025L76.4334 13.2936C76.2567 12.9266 75.8863 12.6921 75.4752 12.6921H69.8751C69.3756 12.6921 69.1241 12.9572 69.1241 13.4873V44.7633C69.1241 45.2934 69.3756 45.5585 69.8751 45.5585H75.3494C75.7878 45.5585 76.1446 45.2017 76.1446 44.7633V26.5835L81.415 37.6375C81.5917 38.0079 81.9655 38.2424 82.3733 38.2424H86.05C86.4578 38.2424 86.8316 38.0079 87.0083 37.6375L92.2787 26.5835V44.7599C92.2787 45.1983 92.6355 45.5551 93.0739 45.5551H98.5482C99.0477 45.5551 99.2992 45.29 99.2992 44.7599V13.4873C99.2992 12.9572 99.0477 12.6921 98.5482 12.6921Z" fill="#5229A1"/>
<path d="M63.5342 12.6921H57.6827C57.2885 12.6921 56.9249 12.913 56.7414 13.2596L46.4962 32.8326V13.4873C46.4962 13.0489 46.1394 12.6921 45.701 12.6921H40.2267C39.7272 12.6921 39.4757 12.9572 39.4757 13.4873V44.7633C39.4757 45.2934 39.7238 45.5585 40.2267 45.5585H46.1224C46.5165 45.5585 46.8801 45.3376 47.0636 44.991L57.3089 25.4214V44.7633C57.3089 45.2934 57.5603 45.5585 58.0599 45.5585H63.5342C63.9725 45.5585 64.3293 45.2017 64.3293 44.7633V13.4873C64.3293 13.0455 63.9725 12.6921 63.5342 12.6921Z" fill="#5229A1"/>
<path d="M25.0135 12.6921H13.3138C12.8143 12.6921 12.5629 12.9572 12.5629 13.4873V44.7633C12.5629 45.2934 12.8109 45.5585 13.3138 45.5585H18.8765C19.376 45.5585 19.6275 45.2934 19.6275 44.7633V35.072H25.0135C28.4863 35.072 31.2354 34.0661 33.2674 32.0477C35.2995 30.0326 36.3121 27.3039 36.3121 23.8617C36.3121 20.45 35.2961 17.7349 33.2674 15.7198C31.2354 13.698 28.4829 12.6921 25.0135 12.6921ZM24.0416 28.4933H19.6275V19.2233H24.0416C27.3649 19.2233 29.03 20.7694 29.03 23.8583C29.03 26.9471 27.3649 28.4933 24.0416 28.4933Z" fill="#5229A1"/>
<path d="M43.4819 58.7056L42.4692 61.0367H42.3809L41.392 58.7633L40.0498 55.8342C40.0362 55.8036 40.0022 55.7832 39.9682 55.7832H38.2148C38.1638 55.7832 38.1265 55.824 38.1265 55.8716V66.1678C38.1265 66.2187 38.1672 66.2561 38.2148 66.2561H39.992C40.043 66.2561 40.0804 66.2153 40.0804 66.1678V60.1905H40.1721L40.9469 62.0255L41.8236 63.9148C41.8372 63.9454 41.8712 63.9658 41.9051 63.9658H42.9653C42.9993 63.9658 43.0299 63.9454 43.0469 63.9148L43.9066 62.0867L44.7018 60.2211H44.7731V66.1678C44.7731 66.2187 44.8139 66.2561 44.8615 66.2561H46.6387C46.6897 66.2561 46.727 66.2153 46.727 66.1678V55.8716C46.727 55.8206 46.6863 55.7832 46.6387 55.7832H44.9023C44.8683 55.7832 44.8343 55.8036 44.8207 55.8342L43.4819 58.7056ZM48.6436 66.2629H54.0601C54.1111 66.2629 54.1485 66.2221 54.1485 66.1746V64.8323C54.1485 64.7813 54.1077 64.744 54.0601 64.744H50.5091V61.7197H53.5878C53.6387 61.7197 53.6761 61.6789 53.6761 61.6313V60.2585C53.6761 60.2075 53.6353 60.1701 53.5878 60.1701H50.5091V57.3123H54.0601C54.1111 57.3123 54.1485 57.2716 54.1485 57.224V55.8818C54.1485 55.8308 54.1077 55.7934 54.0601 55.7934H48.6436C48.5926 55.7934 48.5552 55.8342 48.5552 55.8818V66.178C48.5552 66.2221 48.596 66.2629 48.6436 66.2629ZM61.2335 57.2036C61.0636 56.6905 60.7645 56.3269 60.3296 56.1128C59.8946 55.8987 59.3068 55.79 58.5592 55.79H55.5247C55.4737 55.79 55.4363 55.8308 55.4363 55.8784V66.1746C55.4363 66.2255 55.4771 66.2629 55.5247 66.2629H58.3961C59.0349 66.2629 59.6024 66.1542 60.1019 65.9333C60.6014 65.7124 60.965 65.3081 61.1961 64.7134C61.3388 64.3532 61.417 63.8605 61.4306 63.2386C61.4408 62.6168 61.4442 59.3784 61.4408 58.7327C61.434 58.0837 61.366 57.574 61.2335 57.2036ZM59.4937 63.5037C59.4937 63.908 59.4019 64.2139 59.2218 64.4245C59.0417 64.6352 58.7087 64.7406 58.2262 64.7406H57.3936V57.3056H58.2262C58.7223 57.3056 59.0553 57.4143 59.232 57.6318C59.4053 57.8492 59.4937 58.1483 59.4937 58.5323V63.5037ZM71.1389 55.7866H69.1068C69.0661 55.7866 69.0287 55.8138 69.0185 55.8546L66.5277 66.1508C66.5141 66.2085 66.5583 66.2629 66.616 66.2629H68.4238C68.4646 66.2629 68.502 66.2323 68.5122 66.1916L68.9675 64.0813H71.285L71.7574 66.195C71.7676 66.2357 71.8015 66.2663 71.8457 66.2663H73.6535C73.7113 66.2663 73.7554 66.2119 73.7418 66.1542L71.2307 55.858C71.2171 55.8172 71.1831 55.7866 71.1389 55.7866ZM69.253 62.559L70.0685 58.2094H70.1603L70.9758 62.559H69.253ZM63.4388 66.2629H65.216C65.267 66.2629 65.3044 66.2221 65.3044 66.1746V55.8784C65.3044 55.8274 65.2636 55.79 65.216 55.79H63.4388C63.3879 55.79 63.3505 55.8308 63.3505 55.8784V66.1746C63.3505 66.2221 63.3913 66.2629 63.4388 66.2629Z" fill="white"/>
</svg>
