<svg width="112" height="71" viewBox="0 0 112 71" fill="none" xmlns="http://www.w3.org/2000/svg">
<path d="M99.6252 0.125977H12.2399C5.5083 0.125977 0 5.63428 0 12.3659V45.8847C0 52.6163 5.5083 58.1246 12.2399 58.1246H21.2109V67.5033C21.2109 68.9985 22.4206 70.2082 23.9158 70.2082H87.946C89.4411 70.2082 90.6508 68.9985 90.6508 67.5033V58.1246H99.6218C106.353 58.1246 111.862 52.6163 111.862 45.8847V12.3659C111.862 5.63428 106.353 0.125977 99.6252 0.125977Z" fill="#FF9400"/>
<path d="M99.6252 6.24585H12.2365C8.87243 6.24585 6.11658 8.9983 6.11658 12.3658V45.8846C6.11658 49.2487 8.86903 52.0045 12.2365 52.0045H99.6218C102.986 52.0045 105.742 49.2521 105.742 45.8846V12.3624C105.742 8.9983 102.989 6.24585 99.6252 6.24585Z" fill="white"/>
<path d="M98.548 12.6921H92.9479C92.5401 12.6921 92.1663 12.9266 91.9896 13.2936L84.2114 29.5025L76.4332 13.2936C76.2565 12.9266 75.8861 12.6921 75.4749 12.6921H69.8749C69.3754 12.6921 69.1239 12.9572 69.1239 13.4873V44.7633C69.1239 45.2934 69.3754 45.5585 69.8749 45.5585H75.3492C75.7876 45.5585 76.1444 45.2017 76.1444 44.7633V26.5835L81.4148 37.6375C81.5915 38.0079 81.9653 38.2424 82.3731 38.2424H86.0498C86.4576 38.2424 86.8313 38.0079 87.008 37.6375L92.2785 26.5835V44.7599C92.2785 45.1983 92.6353 45.5551 93.0736 45.5551H98.548C99.0475 45.5551 99.2989 45.29 99.2989 44.7599V13.4873C99.2989 12.9572 99.0475 12.6921 98.548 12.6921Z" fill="#5229A1"/>
<path d="M63.5341 12.6921H57.6826C57.2884 12.6921 56.9248 12.913 56.7413 13.2596L46.496 32.8326V13.4873C46.496 13.0489 46.1392 12.6921 45.7009 12.6921H40.2266C39.727 12.6921 39.4756 12.9572 39.4756 13.4873V44.7633C39.4756 45.2934 39.7236 45.5585 40.2266 45.5585H46.1222C46.5164 45.5585 46.88 45.3376 47.0635 44.991L57.3088 25.4214V44.7633C57.3088 45.2934 57.5602 45.5585 58.0597 45.5585H63.5341C63.9724 45.5585 64.3292 45.2017 64.3292 44.7633V13.4873C64.3292 13.0455 63.9724 12.6921 63.5341 12.6921Z" fill="#5229A1"/>
<path d="M25.0133 12.6921H13.3137C12.8142 12.6921 12.5627 12.9572 12.5627 13.4873V44.7633C12.5627 45.2934 12.8108 45.5585 13.3137 45.5585H18.8764C19.3759 45.5585 19.6274 45.2934 19.6274 44.7633V35.072H25.0133C28.4862 35.072 31.2352 34.0661 33.2673 32.0477C35.2994 30.0326 36.312 27.3039 36.312 23.8617C36.312 20.45 35.296 17.7349 33.2673 15.7198C31.2352 13.698 28.4828 12.6921 25.0133 12.6921ZM24.0415 28.4933H19.6274V19.2233H24.0415C27.3648 19.2233 29.0299 20.7694 29.0299 23.8583C29.0299 26.9471 27.3648 28.4933 24.0415 28.4933Z" fill="#5229A1"/>
<path d="M86.794 58.8211C86.7872 58.1721 86.7193 57.6658 86.5867 57.292C86.4168 56.7789 86.1178 56.4153 85.6829 56.2012C85.2479 55.9837 84.66 55.8784 83.9125 55.8784H80.878C80.827 55.8784 80.7896 55.9191 80.7896 55.9667V66.2629C80.7896 66.3139 80.8304 66.3513 80.878 66.3513H83.7493C84.3882 66.3513 84.9557 66.2425 85.4552 66.0217C85.9547 65.8008 86.3183 65.393 86.5494 64.8018C86.6921 64.4416 86.7702 63.9488 86.7838 63.327C86.7974 62.7051 86.8008 59.4667 86.794 58.8211ZM84.8469 63.592C84.8469 63.9964 84.7552 64.3022 84.5751 64.5129C84.395 64.7236 84.062 64.8289 83.5794 64.8289H82.7469V57.3939H83.5794C84.0756 57.3939 84.4086 57.5027 84.5853 57.7201C84.7586 57.9376 84.8469 58.2366 84.8469 58.6206V63.592ZM38.6499 55.8784H36.8727C36.8217 55.8784 36.7843 55.9191 36.7843 55.9667V66.2629C36.7843 66.3139 36.8251 66.3513 36.8727 66.3513H42.1465C42.1975 66.3513 42.2349 66.3105 42.2349 66.2629V64.9207C42.2349 64.8697 42.1941 64.8323 42.1465 64.8323H38.7382V55.9667C38.7382 55.9157 38.6975 55.8784 38.6499 55.8784ZM32.9785 66.3513H34.7557C34.8067 66.3513 34.844 66.3105 34.844 66.2629V55.9667C34.844 55.9157 34.8033 55.8784 34.7557 55.8784H32.9785C32.9275 55.8784 32.8901 55.9191 32.8901 55.9667V66.2629C32.8901 66.3105 32.9275 66.3513 32.9785 66.3513ZM29.6484 60.8736V60.7988C30.1445 60.6187 30.4911 60.3469 30.6882 59.9867C30.8887 59.6265 30.9872 59.2051 30.9872 58.7226C30.9872 57.7983 30.7357 57.0949 30.2362 56.609C29.7333 56.123 28.928 55.8784 27.8168 55.8784H25.1527C25.1017 55.8784 25.0643 55.9191 25.0643 55.9667V66.2629C25.0643 66.3139 25.1051 66.3513 25.1527 66.3513H27.6707C28.8294 66.3513 29.6891 66.0964 30.2498 65.5833C30.8105 65.0702 31.0925 64.2682 31.0925 63.1741C31.0925 62.6338 30.9906 62.1512 30.7833 61.7299C30.5828 61.3119 30.2022 61.0231 29.6484 60.8736ZM27.0216 57.3973H27.6367C28.1668 57.3973 28.5474 57.5027 28.7784 57.7133C29.0061 57.924 29.1216 58.2706 29.1216 58.7532C29.1216 59.1949 29.0027 59.5313 28.7682 59.7624C28.5338 59.9935 28.16 60.109 27.6537 60.109H27.0182V57.3973H27.0216ZM29.1862 63.7348C29.1556 63.9556 29.0911 64.1459 28.9857 64.3056C28.8838 64.4653 28.7377 64.5945 28.5508 64.6896C28.3639 64.7848 28.1124 64.8323 27.7998 64.8323H27.0216V61.5804H27.7658C28.3095 61.5804 28.6901 61.6993 28.9076 61.9406C29.125 62.1818 29.2338 62.5488 29.2338 63.0381C29.2304 63.2828 29.2134 63.5139 29.1862 63.7348ZM67.1361 55.9463L64.6453 66.2425C64.6317 66.3003 64.6759 66.3547 64.7336 66.3547H66.5414C66.5822 66.3547 66.6196 66.3241 66.6298 66.2833L67.0851 64.1731H69.4026L69.8749 66.2867C69.8851 66.3275 69.9191 66.3581 69.9633 66.3581H71.7711C71.8288 66.3581 71.873 66.3037 71.8594 66.2459L69.3482 55.9497C69.338 55.909 69.3041 55.8818 69.2599 55.8818H67.2278C67.1837 55.8784 67.1463 55.9056 67.1361 55.9463ZM67.3705 62.6508L68.1861 58.3012H68.2778L69.0934 62.6508H67.3705ZM45.1504 55.8784H43.3732C43.3223 55.8784 43.2849 55.9191 43.2849 55.9667V66.2629C43.2849 66.3139 43.3257 66.3513 43.3732 66.3513H48.6471C48.698 66.3513 48.7354 66.3105 48.7354 66.2629V64.9207C48.7354 64.8697 48.6946 64.8323 48.6471 64.8323H45.2422V55.9667C45.2388 55.9157 45.2014 55.8784 45.1504 55.8784ZM54.3661 60.8736V60.7988C54.8622 60.6187 55.2088 60.3469 55.4059 59.9867C55.6064 59.6265 55.7049 59.2051 55.7049 58.7226C55.7049 57.7983 55.4534 57.0949 54.9539 56.609C54.4544 56.123 53.6457 55.8784 52.5379 55.8784H49.8738C49.8228 55.8784 49.7854 55.9191 49.7854 55.9667V66.2629C49.7854 66.3139 49.8262 66.3513 49.8738 66.3513H52.3918C53.5505 66.3513 54.4102 66.0964 54.9709 65.5833C55.5316 65.0702 55.8136 64.2682 55.8136 63.1741C55.8136 62.6338 55.7117 62.1512 55.5044 61.7299C55.3039 61.3119 54.9233 61.0231 54.3661 60.8736ZM51.7427 57.3973H52.3578C52.8879 57.3973 53.2685 57.5027 53.4995 57.7133C53.7272 57.924 53.8428 58.2706 53.8428 58.7532C53.8428 59.1949 53.7238 59.5313 53.4894 59.7624C53.2549 59.9935 52.8845 60.109 52.3748 60.109H51.7393V57.3973H51.7427ZM53.9073 63.7348C53.8767 63.9556 53.8122 64.1459 53.7068 64.3056C53.6049 64.4653 53.4588 64.5945 53.2719 64.6896C53.085 64.7848 52.8335 64.8323 52.5209 64.8323H51.7427V61.5804H52.4869C53.0306 61.5804 53.4112 61.6993 53.6287 61.9406C53.8462 62.1818 53.9549 62.5488 53.9549 63.0381C53.9515 63.2828 53.9345 63.5139 53.9073 63.7348ZM62.9089 56.524C62.6744 56.2827 62.3618 56.0992 61.971 55.9735C61.5802 55.8478 61.0943 55.7866 60.5166 55.7866C59.9763 55.7866 59.5074 55.8546 59.1166 55.9905C58.7258 56.1264 58.4098 56.3167 58.1685 56.5614C57.9273 56.806 57.7506 57.1017 57.635 57.4415C57.5195 57.7813 57.4651 58.1585 57.4651 58.5697V63.8367C57.4651 64.6794 57.7064 65.3251 58.1889 65.7702C58.6714 66.2154 59.4394 66.4396 60.4996 66.4396C61.5598 66.4396 62.3346 66.2052 62.8307 65.7396C63.3234 65.2741 63.5715 64.5843 63.5715 63.6702V58.5527C63.5715 58.1211 63.5205 57.7337 63.4186 57.3939C63.3132 57.0575 63.1433 56.7653 62.9089 56.524ZM61.6108 63.7619C61.6108 64.0848 61.5258 64.3566 61.3559 64.5809C61.186 64.8051 60.904 64.9207 60.503 64.9207C60.1054 64.9207 59.8234 64.8119 59.6603 64.5979C59.4972 64.3838 59.4156 64.1391 59.4156 63.8673V58.6002C59.4156 58.4711 59.4292 58.3284 59.4598 58.1721C59.4904 58.0158 59.5448 57.8764 59.6229 57.7507C59.7011 57.625 59.8132 57.5196 59.9593 57.4347C60.1054 57.3497 60.2923 57.3056 60.52 57.3056C60.9414 57.3056 61.2302 57.4211 61.3797 57.6522C61.5292 57.8832 61.6074 58.1449 61.6074 58.4337V63.7619H61.6108ZM78.8255 60.5949C79.0498 60.1396 79.1619 59.5789 79.1619 58.9163C79.1619 57.8425 78.8731 57.0677 78.292 56.592C77.7109 56.1162 76.909 55.8784 75.8828 55.8784H73.0929C73.042 55.8784 73.0046 55.9191 73.0046 55.9667V66.2629C73.0046 66.3139 73.0454 66.3513 73.0929 66.3513H74.8701C74.9211 66.3513 74.9585 66.3105 74.9585 66.2629V62.0187H75.8828L77.4901 66.2935C77.5037 66.3275 77.5376 66.3513 77.575 66.3513H79.3726C79.4372 66.3513 79.4779 66.2867 79.4542 66.2289L77.6362 61.6721C78.2071 61.4105 78.6012 61.0537 78.8255 60.5949ZM76.8784 60.0988C76.6371 60.3435 76.2634 60.4692 75.757 60.4692H74.9585V57.4007H75.7197C76.2634 57.4007 76.6541 57.5332 76.8886 57.7983C77.1231 58.0633 77.242 58.4371 77.242 58.9197C77.242 59.46 77.1197 59.8541 76.8784 60.0988Z" fill="white"/>
</svg>
