<svg width="54" height="55" viewBox="0 0 54 55" fill="none" xmlns="http://www.w3.org/2000/svg">
<mask id="mask0_3276_9906" style="mask-type:luminance" maskUnits="userSpaceOnUse" x="-1" y="0" width="55" height="55">
<path d="M53.7763 0.269897H-0.00646973V54.0527H53.7763V0.269897Z" fill="white"/>
</mask>
<g mask="url(#mask0_3276_9906)">
<path fill-rule="evenodd" clip-rule="evenodd" d="M3.77416 4.05052C-0.00646973 7.83116 -0.00646973 13.916 -0.00646973 26.0856V28.2369C-0.00646973 40.4066 -0.00646973 46.4914 3.77416 50.2721C7.5548 54.0527 13.6396 54.0527 25.8093 54.0527H27.9606C40.1302 54.0527 46.215 54.0527 49.9957 50.2721C53.7763 46.4914 53.7763 40.4066 53.7763 28.2369V26.0856C53.7763 13.916 53.7763 7.83116 49.9957 4.05052C46.215 0.269897 40.1302 0.269897 27.9606 0.269897H25.8093C13.6396 0.269897 7.5548 0.269897 3.77416 4.05052ZM9.06948 16.6289C9.36077 30.6125 16.3525 39.016 28.6105 39.016H29.3053V31.0158C33.8096 31.464 37.2156 34.7582 38.5826 39.016H44.9471C43.1991 32.6517 38.6049 29.1334 35.7365 27.7888C38.6049 26.1305 42.6387 22.0968 43.6023 16.6289H37.8205C36.5655 21.066 32.846 25.0997 29.3053 25.4806V16.6289H23.5234V32.1362C19.938 31.2399 15.4113 26.8925 15.2096 16.6289H9.06948Z" fill="#08122C"/>
</g>
</svg>
