<svg width="54" height="55" viewBox="0 0 54 55" fill="none" xmlns="http://www.w3.org/2000/svg">
<mask id="mask0_3276_9918" style="mask-type:alpha" maskUnits="userSpaceOnUse" x="0" y="0" width="54" height="55">
<path d="M26.9755 54.0527C41.8272 54.0527 53.8669 42.013 53.8669 27.1613C53.8669 12.3096 41.8272 0.269897 26.9755 0.269897C12.1238 0.269897 0.0841064 12.3096 0.0841064 27.1613C0.0841064 42.013 12.1238 54.0527 26.9755 54.0527Z" fill="#08122C"/>
</mask>
<g mask="url(#mask0_3276_9918)">
<path d="M38.0929 48.8827C37.4982 50.6527 37.6311 52.4825 38.3302 54.0536H22.1847L42.673 35.2509L38.0929 48.8827ZM53.8693 54.0536H51.5402C51.6523 53.8119 51.7532 53.5617 51.84 53.3036L53.8693 47.2635V54.0536ZM53.8693 4.203L15.423 13.5468C11.5486 14.4886 9.13018 18.4033 10.0216 22.2899C10.9132 26.1764 14.7766 28.5635 18.6515 27.6219L32.5031 24.2557L0.0860596 54.0057V0.270386H53.8693V4.203Z" fill="#08122C"/>
</g>
</svg>
