<svg width="55" height="55" viewBox="0 0 55 55" fill="none" xmlns="http://www.w3.org/2000/svg">
<path d="M54.175 13.316L54.1413 13.1212H0.903418L0.86975 13.316C0.708627 14.2226 0.629272 15.1412 0.629272 16.0598V38.2652C0.629272 46.9731 7.71395 54.0527 16.419 54.0527H38.6223C47.3279 54.0527 54.412 46.9706 54.412 38.2652V16.0598C54.4144 15.1388 54.335 14.2226 54.1739 13.316H54.175ZM17.9513 26.4244L15.4431 34.2064C15.3445 34.5142 15.0535 34.7234 14.7288 34.7234C14.4066 34.7234 14.118 34.5166 14.0218 34.2088L12.2182 28.6273L10.4218 34.2064C10.3232 34.5166 10.0322 34.7234 9.70754 34.7234C9.38287 34.7234 9.09913 34.5142 9.00055 34.2064L6.48995 26.4219C6.3625 26.0299 6.57652 25.6091 6.97091 25.4817C7.3653 25.3542 7.78613 25.5682 7.91116 25.9626L9.70757 31.5416L11.5088 25.9626C11.605 25.6524 11.896 25.4432 12.2158 25.4432C12.5404 25.4432 12.8314 25.6524 12.93 25.9602L14.7264 31.5392L16.5277 25.9602C16.6551 25.5682 17.0759 25.3518 17.4679 25.4793C17.8623 25.6091 18.0739 26.0348 17.9513 26.4244ZM31.8534 26.422L29.3428 34.2064C29.2442 34.5142 28.9533 34.7235 28.6286 34.7235C28.3063 34.7235 28.0178 34.5167 27.9216 34.2088L26.118 28.6274L24.3216 34.2064C24.223 34.5167 23.932 34.7235 23.6073 34.7235C23.2851 34.7235 22.9965 34.5167 22.9003 34.2088L20.3921 26.4225C20.2647 26.0281 20.4811 25.6097 20.8731 25.4823C21.2627 25.3548 21.6883 25.5737 21.8133 25.9632L23.6097 31.5423L25.411 25.9632C25.5071 25.653 25.7981 25.4438 26.1179 25.4438C26.4426 25.4438 26.7336 25.653 26.8322 25.9608L28.6286 31.5399L30.4298 25.9608C30.5549 25.5712 30.9733 25.3524 31.3653 25.4799C31.7597 25.6097 31.9809 26.0276 31.8534 26.422ZM45.7507 26.422L43.2401 34.2064C43.1439 34.5167 42.8529 34.7235 42.5331 34.7235C42.2084 34.7235 41.9199 34.5142 41.8188 34.2064L40.0224 28.625L38.226 34.2064C38.1274 34.5167 37.8364 34.7235 37.5118 34.7235C37.1895 34.7235 36.9009 34.5167 36.8048 34.2088L34.2942 26.4225C34.1667 26.0281 34.3831 25.6097 34.7751 25.4823C35.1647 25.3548 35.5903 25.5737 35.7154 25.9632L37.5118 31.5447L39.3082 25.9632C39.4068 25.6554 39.6978 25.4462 40.0225 25.4462C40.3447 25.4462 40.6333 25.653 40.7294 25.9632L42.5331 31.5447L44.3295 25.9656C44.4545 25.5737 44.8802 25.3572 45.2697 25.4847C45.6641 25.6097 45.8781 26.03 45.7507 26.422ZM49.0789 34.9563H48.6172C48.206 34.9563 47.8741 34.6196 47.8741 34.2084C47.8741 33.7972 48.2036 33.4606 48.6172 33.4606H49.0789C49.4901 33.4606 49.8268 33.7948 49.8268 34.2084C49.8268 34.6196 49.4901 34.9563 49.0789 34.9563ZM53.7803 11.6274H1.25715L1.35334 11.3196C3.4263 4.76452 9.52461 0.269897 16.4197 0.269897H38.623C45.5125 0.269897 51.6183 4.7668 53.6844 11.3196L53.7803 11.6274Z" fill="#08122C"/>
</svg>
