<svg width="143" height="31" viewBox="0 0 143 31" fill="none" xmlns="http://www.w3.org/2000/svg">
    <path d="M61.6834 0.57373V0.57373C62.3357 1.80414 63.3421 2.81057 64.5726 3.46291V3.46291V3.46291C63.3421 4.11525 62.3357 5.12168 61.6834 6.35209V6.35209V6.35209C61.031 5.12168 60.0246 4.11525 58.7942 3.46291V3.46291V3.46291C60.0246 2.81057 61.031 1.80414 61.6834 0.57373V0.57373Z" fill="white"/>
    <path d="M2.26545 7.99629C2.58342 7.95775 2.98328 7.9192 3.46505 7.88066C3.94682 7.83249 4.4864 7.78913 5.0838 7.75059C5.68119 7.71204 6.33158 7.68314 7.03496 7.66387C7.74798 7.63496 8.49472 7.62051 9.27519 7.62051C10.364 7.62051 11.5058 7.65423 12.7006 7.72168C13.905 7.78913 15.1142 7.90957 16.3283 8.08301C17.5423 8.24681 18.7371 8.47806 19.9126 8.77675C21.0978 9.06581 22.2155 9.44159 23.2658 9.90409C24.3257 10.357 25.2988 10.9014 26.1853 11.5373C27.0717 12.1732 27.8281 12.92 28.4544 13.7775C29.0807 14.6254 29.5336 15.5408 29.813 16.5236C30.1021 17.5064 30.2466 18.5181 30.2466 19.5587C30.2466 19.8189 30.237 20.0839 30.2177 20.3537C30.1599 21.3943 29.9672 22.353 29.6396 23.2298C29.312 24.1066 28.8832 24.8967 28.3532 25.6001C27.8329 26.2939 27.2259 26.9057 26.5322 27.4357C25.848 27.9656 25.1061 28.4088 24.3064 28.7654C23.5066 29.1219 22.6684 29.3868 21.7915 29.5603C20.9147 29.7433 20.0331 29.8349 19.1466 29.8349C17.9904 29.8349 16.8534 29.6807 15.7357 29.3724C14.618 29.0737 13.5822 28.616 12.6283 27.9993C11.684 27.3827 10.8602 26.6118 10.1568 25.6868C9.46308 24.7522 8.95722 23.6634 8.63925 22.4205L11.8767 21.5966C12.0309 22.194 12.267 22.7336 12.5849 23.2154C12.9029 23.6875 13.2739 24.1066 13.6978 24.4728C14.1218 24.8389 14.5795 25.1521 15.0709 25.4122C15.5623 25.6628 16.0537 25.8699 16.5451 26.0337C17.0461 26.1879 17.5327 26.3035 18.0048 26.3806C18.477 26.4577 18.9009 26.4962 19.2767 26.4962C20.0764 26.4962 20.8376 26.3565 21.5603 26.0771C22.283 25.7977 22.9382 25.4219 23.5259 24.9497C24.1233 24.4776 24.634 23.9236 25.0579 23.2876C25.4915 22.6421 25.8095 21.9772 26.0118 21.2931C26.2238 20.609 26.3298 19.9297 26.3298 19.2552C26.3298 19.1781 26.3202 18.9324 26.3009 18.5181C26.2913 18.0942 26.1227 17.5209 25.795 16.7982C25.4674 16.0659 24.9809 15.377 24.3353 14.7314C23.6897 14.0762 22.8514 13.4981 21.8205 12.9971C20.7991 12.496 19.5706 12.0913 18.1349 11.783C16.6992 11.4747 15.0323 11.3012 13.1342 11.2627L5.01153 29.3001H0.834595L8.98613 11.2049C8.36946 11.2049 7.73834 11.2193 7.09277 11.2482C6.4472 11.2771 5.82572 11.3157 5.22833 11.3639C4.63093 11.4024 4.07208 11.4458 3.55177 11.4939C3.0411 11.5421 2.61232 11.5855 2.26545 11.624V7.99629Z" fill="white"/>
    <path d="M35.6087 8.11191V14.2689C36.9191 12.0624 38.5186 10.3955 40.4071 9.26816C42.2956 8.14082 44.4491 7.57715 46.8676 7.57715C48.4864 7.57715 49.9606 7.7554 51.2903 8.11191C52.6296 8.45879 53.7906 8.9791 54.7735 9.67284C55.7177 10.3377 56.4452 11.1278 56.9559 12.0431C57.4762 12.9585 57.7363 13.922 57.7363 14.9338C57.7363 15.5215 57.6448 16.1045 57.4617 16.6826C57.2787 17.2607 57.004 17.8147 56.6379 18.3447C56.2814 18.865 55.8333 19.3516 55.2938 19.8044C54.7542 20.2477 54.1279 20.6331 53.4149 20.9607C52.7018 21.2883 51.9021 21.5484 51.0157 21.7412C50.1388 21.9242 49.1753 22.0158 48.125 22.0158C46.2172 22.0158 44.4732 21.7556 42.893 21.2353C43.3555 21.8905 43.8758 22.5361 44.454 23.172C45.0321 23.7983 45.6728 24.3572 46.3762 24.8486C47.0892 25.34 47.8601 25.7398 48.6887 26.0482C49.527 26.3469 50.4279 26.4962 51.3914 26.4962C51.7094 26.4962 52.0515 26.4577 52.4176 26.3806C52.7934 26.3035 53.174 26.1975 53.5594 26.0626C53.9545 25.9181 54.3447 25.7447 54.7301 25.5423C55.1251 25.34 55.5009 25.1184 55.8574 24.8775L57.7363 27.638C57.2353 27.9849 56.715 28.2932 56.1754 28.563C55.6358 28.8328 55.0914 29.064 54.5422 29.2568C54.0026 29.4398 53.463 29.5795 52.9235 29.6759C52.3935 29.7819 51.8828 29.8349 51.3914 29.8349C50.1966 29.8349 49.0789 29.6711 48.0383 29.3435C47.0073 29.0255 46.0534 28.5967 45.1766 28.0571C44.2998 27.5176 43.5001 26.9009 42.7774 26.2072C42.0548 25.5134 41.3995 24.7956 40.8118 24.0536C40.2337 23.3021 39.723 22.5553 39.2798 21.8134C38.8365 21.0715 38.4608 20.3874 38.1524 19.7611C38.1332 19.7225 38.1042 19.6551 38.0657 19.5587L41.5923 16.9283C43.3266 18.0845 45.5042 18.6627 48.125 18.6627C49.156 18.6627 50.0569 18.5567 50.8278 18.3447C51.6082 18.1327 52.2634 17.8533 52.7934 17.5064C53.3233 17.1499 53.7184 16.75 53.9785 16.3068C54.2483 15.8539 54.3832 15.3963 54.3832 14.9338C54.3832 14.4713 54.2483 14.0232 53.9785 13.5896C53.7184 13.1464 53.3378 12.7465 52.8367 12.39C52.5959 12.2262 52.2972 12.0576 51.9407 11.8842C51.5938 11.7107 51.1746 11.5517 50.6832 11.4072C50.2015 11.2627 49.6426 11.1471 49.0067 11.0603C48.3804 10.964 47.6674 10.9158 46.8676 10.9158C44.69 10.9158 42.8111 11.5277 41.2309 12.7513C39.6507 13.9654 38.3596 15.7961 37.3575 18.2435C37.0395 19.0143 36.7746 19.7804 36.5626 20.5416C36.3506 21.3027 36.1772 22.0158 36.0423 22.6806C35.917 23.3454 35.8207 23.9428 35.7532 24.4728C35.6858 24.9931 35.6376 25.4026 35.6087 25.7013V29.3146H31.9954V8.11191H35.6087Z" fill="white"/>
    <path d="M63.7199 29.3001H59.7019V8.11191H63.7199V29.3001Z" fill="white"/>
    <path d="M107.31 8.09746V29.3001H103.264V11.8697C102.907 11.9757 102.425 12.1347 101.818 12.3467C101.221 12.549 100.542 12.7995 99.7803 13.0982C99.0191 13.3969 98.2001 13.7438 97.3233 14.1388C96.4561 14.5243 95.5745 14.9579 94.6784 15.4396C93.7823 15.9118 92.891 16.4272 92.0046 16.9861C91.1278 17.5353 90.3039 18.1231 89.5331 18.7494C90.1787 19.5684 90.6749 20.3681 91.0218 21.1486C91.3686 21.9194 91.5951 22.6035 91.7011 23.2009C91.8167 23.7983 91.8745 24.3234 91.8745 24.7763C91.8745 24.9594 91.8552 25.2484 91.8167 25.6435C91.7878 26.0385 91.6914 26.4866 91.5276 26.9876C91.3734 27.479 91.1807 27.9078 90.9495 28.2739C90.7182 28.6401 90.4918 28.9243 90.2702 29.1267C89.8173 29.5506 89.297 29.859 88.7093 30.0517C88.1215 30.2444 87.5241 30.3407 86.9171 30.3407C86.2619 30.3407 85.6308 30.2347 85.0237 30.0228C84.4167 29.8204 83.906 29.5217 83.4917 29.1267C83.0196 28.6834 82.6342 28.0909 82.3355 27.3489C82.0464 26.607 81.9019 25.7736 81.9019 24.8486C81.9019 23.9236 82.0801 22.9408 82.4366 21.9001C82.8028 20.8499 83.4002 19.7996 84.2288 18.7494C83.5447 18.1905 82.8172 17.6606 82.0464 17.1595C81.2852 16.6585 80.4999 16.1864 79.6906 15.7431C78.8908 15.2903 78.0814 14.8711 77.2624 14.4857C76.4434 14.0907 75.6389 13.7342 74.8488 13.4162C74.0683 13.0886 73.3071 12.7947 72.5652 12.5346C71.8329 12.2744 71.144 12.0528 70.4984 11.8697V29.3001H66.4515V8.09746H70.1226C70.8645 8.2998 71.6836 8.55514 72.5796 8.86347C73.4757 9.16217 74.4104 9.50422 75.3835 9.88964C76.3663 10.2751 77.3684 10.7038 78.3898 11.176C79.4208 11.6385 80.4325 12.1395 81.4249 12.6791C82.4174 13.2187 83.3761 13.792 84.3011 14.399C85.2357 15.006 86.0981 15.6371 86.8882 16.2924C87.8035 15.5312 88.849 14.77 90.0245 14.0088C91.2 13.2476 92.4912 12.5153 93.8979 11.8119C95.3143 11.0989 96.8367 10.4292 98.4651 9.80292C100.103 9.16699 101.833 8.5985 103.654 8.09746H107.31ZM88.189 24.9497C88.189 24.2753 88.0733 23.6345 87.8421 23.0275C87.6108 22.4108 87.2929 21.8134 86.8882 21.2353C86.4835 21.8134 86.1655 22.4108 85.9343 23.0275C85.703 23.6345 85.5874 24.2753 85.5874 24.9497C85.5874 25.181 85.6019 25.4122 85.6308 25.6435C85.6693 25.8747 85.7319 26.0867 85.8187 26.2794C85.915 26.4721 86.0499 26.6311 86.2233 26.7564C86.3968 26.872 86.6232 26.9298 86.9026 26.9298C87.1724 26.9298 87.3892 26.8672 87.553 26.7419C87.7265 26.6167 87.8565 26.4577 87.9433 26.265C88.0396 26.0723 88.1022 25.8603 88.1311 25.629C88.1697 25.3881 88.189 25.1617 88.189 24.9497Z" fill="white"/>
    <path d="M128.036 16.5959C128.961 16.4899 129.823 16.4176 130.623 16.3791C131.433 16.3309 132.199 16.3068 132.921 16.3068C134.8 16.3068 136.366 16.4513 137.618 16.7404C138.871 17.0295 139.873 17.4197 140.625 17.9111C141.386 18.3929 141.925 18.9517 142.243 19.5877C142.561 20.2236 142.725 20.8836 142.735 21.5677C142.735 21.6063 142.735 21.64 142.735 21.6689C142.735 22.3241 142.643 22.9793 142.46 23.6345C142.277 24.2897 141.954 24.9112 141.492 25.499C141.029 26.0867 140.403 26.6311 139.613 27.1322C138.833 27.6236 137.845 28.0475 136.65 28.404C135.465 28.7605 134.053 29.04 132.415 29.2423C130.777 29.435 128.874 29.5314 126.706 29.5314C125.107 29.5314 123.575 29.4446 122.11 29.2712C120.655 29.0881 119.297 28.8617 118.035 28.5919C116.772 28.3221 115.621 28.0282 114.58 27.7103C113.549 27.3923 112.658 27.0936 111.906 26.8142C111.165 26.5348 110.577 26.2987 110.143 26.106C109.719 25.9036 109.478 25.788 109.421 25.7591L111.039 22.5072C111.049 22.5072 111.237 22.5939 111.603 22.7673C111.979 22.9311 112.504 23.1335 113.178 23.3744C113.853 23.6152 114.662 23.8802 115.606 24.1693C116.551 24.4487 117.601 24.7089 118.757 24.9497C119.913 25.1906 121.156 25.393 122.486 25.5568C123.825 25.7206 125.223 25.8025 126.677 25.8025C128.682 25.8025 130.387 25.735 131.794 25.6001C133.201 25.4556 134.367 25.2677 135.292 25.0365C136.217 24.8052 136.93 24.5402 137.431 24.2415C137.941 23.9428 138.288 23.6441 138.471 23.3454C138.654 23.0468 138.746 22.7673 138.746 22.5072C138.746 22.4301 138.727 22.2904 138.688 22.088C138.659 21.8857 138.548 21.6352 138.356 21.3365C138.192 21.0763 137.951 20.8595 137.633 20.6861C137.315 20.503 136.934 20.3633 136.491 20.2669C136.058 20.161 135.566 20.0887 135.017 20.0501C134.468 20.002 133.875 19.9779 133.239 19.9779C132.295 19.9779 131.274 20.0164 130.175 20.0935C129.086 20.161 127.959 20.238 126.793 20.3248C125.627 20.4115 124.447 20.4934 123.252 20.5705C122.057 20.6379 120.891 20.6716 119.754 20.6716C118.82 20.6716 117.914 20.6379 117.037 20.5705C116.17 20.503 115.356 20.3874 114.595 20.2236C113.834 20.0598 113.14 19.8382 112.513 19.5587C111.887 19.2793 111.348 18.9276 110.895 18.5037C110.442 18.0797 110.09 17.5739 109.84 16.9861C109.599 16.3983 109.478 15.7142 109.478 14.9338C109.478 14.3749 109.565 13.8161 109.738 13.2572C109.912 12.6984 110.215 12.1636 110.649 11.6529C111.092 11.1326 111.69 10.6508 112.441 10.2076C113.202 9.75474 114.166 9.35488 115.332 9.008C116.507 8.66113 117.909 8.3817 119.538 8.16972C121.176 7.95775 123.088 7.82767 125.276 7.77949C125.536 7.77949 125.791 7.77949 126.042 7.77949C127.371 7.77949 128.706 7.84694 130.045 7.98183C131.394 8.11673 132.704 8.30462 133.976 8.5455C135.258 8.78639 136.419 9.05618 137.459 9.35488C138.51 9.65357 139.415 9.933 140.177 10.1932C140.938 10.4533 141.535 10.6797 141.969 10.8724C142.412 11.0555 142.658 11.1615 142.706 11.1904L141.174 14.4135C141.164 14.4038 140.976 14.3171 140.61 14.1533C140.254 13.9799 139.748 13.7679 139.093 13.5174C138.447 13.2668 137.662 13.0019 136.737 12.7224C135.812 12.4334 134.781 12.1732 133.644 11.942C132.517 11.7011 131.346 11.5132 130.132 11.3783C128.918 11.2434 127.713 11.176 126.519 11.176C126.278 11.176 126.037 11.1808 125.796 11.1904C123.917 11.229 122.293 11.3157 120.925 11.4506C119.557 11.5758 118.401 11.7396 117.456 11.942C116.512 12.1443 115.756 12.3756 115.187 12.6357C114.619 12.8959 114.195 13.1753 113.915 13.474C113.636 13.7631 113.487 14.0039 113.467 14.1967C113.448 14.3894 113.438 14.5194 113.438 14.5869C113.438 14.8374 113.487 15.0927 113.583 15.3529C113.718 15.6998 113.964 15.9888 114.32 16.2201C114.677 16.4513 115.115 16.6392 115.635 16.7838C116.165 16.9283 116.772 17.0343 117.456 17.1017C118.15 17.1595 118.897 17.1884 119.697 17.1884C120.92 17.1884 122.24 17.1306 123.657 17.015C125.073 16.8994 126.533 16.7597 128.036 16.5959Z" fill="white"/>
</svg>
