<svg width="76" height="28" viewBox="0 0 76 28" fill="none" xmlns="http://www.w3.org/2000/svg">
<path fill-rule="evenodd" clip-rule="evenodd" d="M72.0088 15.4512H75.4868V23.7488H72.582V19.4663L70.9514 21.7256L69.2124 24.1462L67.4734 21.7256L65.8428 19.4663V28H62.938V15.4512H66.416L69.2124 19.3242L72.0088 15.4512Z" fill="white"/>
<path fill-rule="evenodd" clip-rule="evenodd" d="M58.3584 15.3088H61.2607V27.8576H48.7144V24.9529H58.3584V23.0356H48.7144V15.3088H51.6167V20.1308H58.3584V15.3088Z" fill="white"/>
<path fill-rule="evenodd" clip-rule="evenodd" d="M43.3108 15.4512H46.8057V28H43.9033V19.4494L37.7349 28H34.2593V15.4512H37.1616V23.9848L43.3108 15.4512Z" fill="white"/>
<path fill-rule="evenodd" clip-rule="evenodd" d="M29.562 15.4512H32.4644V28H29.562V23.1779H22.8203V28H19.918V15.4512H22.8203V20.2732H29.562V15.4512Z" fill="white"/>
<path fill-rule="evenodd" clip-rule="evenodd" d="M48.5996 0.0217285H61.1484V12.5705H58.2436V7.74851H51.5044V12.5705H48.5996V0.0217285ZM58.2436 4.84374V2.90723H51.5044V4.84374H58.2436Z" fill="white"/>
<path fill-rule="evenodd" clip-rule="evenodd" d="M34.2593 0.0217285H46.8081V7.74851H37.164V12.5705H34.2593V0.0217285ZM43.9033 4.84374V2.9265H37.164V4.84374H43.9033Z" fill="white"/>
<path fill-rule="evenodd" clip-rule="evenodd" d="M32.4644 0.0217285V7.74851H28.9695L32.4644 12.5705H28.9888L25.4915 7.74851H22.8203V12.5705H19.918V0.0217285H22.8203V4.84374H29.562V0.0217285H32.4644Z" fill="white"/>
<path fill-rule="evenodd" clip-rule="evenodd" d="M17.753 0V11.9442L13.8631 17.3467H0.40625V14.2444H11.5316L14.4677 10.1354H4.78749V7.21375H14.6507V3.07819H0.40625V0H17.753Z" fill="white"/>
<path d="M75.4871 25.1169H72.604V28H75.4871V25.1169Z" fill="#08FBBB"/>
<path d="M3.42212 7.21362H0.500488V10.1353H3.42212V7.21362Z" fill="#08FBBB"/>
</svg>
