<svg width="92" height="25" viewBox="0 0 92 25" fill="none" xmlns="http://www.w3.org/2000/svg">
<rect x="1.92334" y="1.12329" width="88.2601" height="18.3786" fill="white"/>
<path fill-rule="evenodd" clip-rule="evenodd" d="M3.18384 24.8446H2.43588L2.30765 23.9684H1.75202L1.6238 24.8446H0.939941L1.49557 21.7031H2.62821L3.18384 24.8446ZM2.24354 23.6478L2.05121 22.0237H2.00847L1.81613 23.6478H2.24354ZM6.13297 21.9595H5.32089V24.8446H4.57292V21.7245H6.13297V21.9595ZM9.18895 24.8446H7.37246V21.7245H9.18895V21.9809H8.18454V23.0494H9.18895V23.37H8.18454V24.5667H9.25306L9.18895 24.8446ZM12.5014 24.8446H11.7534V23.3486H11.3687V24.8446H10.6208V21.7245H11.3687V23.0494H11.7534V21.7245H12.5014V24.8446ZM15.7069 21.9595H15.1513V24.8446H14.4033V21.9595H13.7836V21.639H15.7283C15.7069 21.639 15.7069 21.9595 15.7069 21.9595ZM18.8911 24.3958C18.8911 24.524 18.8911 24.6522 18.827 24.7163C18.6988 24.8446 18.5065 24.9087 18.2073 24.9087H17.7158C17.5234 24.9087 17.3311 24.9087 17.267 24.8446C17.1388 24.7804 17.0105 24.6522 17.0105 24.3958V22.216C17.0105 22.0878 17.0105 21.9595 17.0747 21.8954C17.2029 21.7672 17.3952 21.7031 17.6944 21.7031H18.1859C18.4424 21.7031 18.6133 21.7672 18.7416 21.8313C18.8698 21.8954 18.8698 22.0237 18.8698 22.216V22.7716H18.1218V22.1519C18.1218 22.1519 18.1218 22.0878 18.0577 22.0878C17.9936 22.0878 17.9936 22.0237 17.9295 22.0237H17.8013C17.7371 22.0237 17.7371 22.0878 17.7371 22.0878V24.4599C17.7371 24.4599 17.7371 24.524 17.8013 24.524H17.9508C18.015 24.524 18.0791 24.524 18.0791 24.4599H18.1432V23.776H18.8911V24.3958ZM22.0112 21.9595H21.4556V24.8446H20.7076V21.9595H20.152V21.639H22.0967L22.0112 21.9595ZM25.2168 24.3958C25.2168 24.524 25.1527 24.5881 25.0886 24.6522C24.9604 24.7804 24.768 24.8446 24.4688 24.8446H23.3362V21.7245H24.4688C24.7253 21.7245 24.9176 21.7886 25.0245 21.8527C25.1527 21.9168 25.2168 22.045 25.2168 22.2374V22.9212C25.2168 22.9853 25.2168 23.1135 25.1527 23.1135C25.0886 23.2418 24.8963 23.2418 24.6612 23.2418C24.8535 23.2418 24.9817 23.2418 25.0458 23.3059C25.1741 23.37 25.1741 23.4341 25.1741 23.5623L25.2168 24.3958ZM24.4475 22.8998V22.1519C24.4475 22.0878 24.4475 22.0878 24.3834 22.0237C24.3193 22.0237 24.2551 21.9595 24.191 21.9595H24.1483V23.0281H24.2124C24.4047 23.0281 24.4475 23.0281 24.4475 22.8998ZM24.4475 24.3958V23.5196C24.4475 23.3914 24.3834 23.3273 24.191 23.3273H24.0628V24.524H24.1269C24.4047 24.524 24.4475 24.4599 24.4475 24.3958ZM28.6575 24.3317C28.6575 24.4599 28.6575 24.5881 28.5934 24.6522C28.4651 24.7804 28.2728 24.8446 28.0377 24.8446H27.5462C27.2897 24.8446 27.0547 24.7804 26.9906 24.6522C26.9265 24.5881 26.8623 24.4599 26.8623 24.3317V22.1946C26.8623 22.0664 26.9265 21.9382 26.9265 21.8741C27.0547 21.7458 27.247 21.6817 27.4821 21.6817H27.9736C28.23 21.6817 28.4651 21.7458 28.5292 21.8741C28.5934 21.9382 28.6575 22.0664 28.6575 22.1946V24.3317ZM27.8881 24.4599V22.1519C27.8881 22.0878 27.8881 22.0878 27.824 22.0878C27.7599 22.0878 27.7599 22.0237 27.6958 22.0237C27.6317 22.0237 27.5676 22.0237 27.5676 22.0878L27.5035 22.1519V24.4599C27.5035 24.524 27.5035 24.524 27.5676 24.524H27.6958C27.8454 24.524 27.8881 24.524 27.8881 24.4599ZM35.3464 24.8446H34.5985V23.3486H34.2138V24.8446H33.4658V21.7245H34.2138V23.0494H34.5985V21.7245H35.3464V24.8446ZM39.0221 24.8446H38.2742L38.146 23.9684H37.5903L37.5262 24.8446H36.7782L37.3339 21.7245H38.4665L39.0221 24.8446ZM38.0818 23.6478L37.8895 22.0237H37.8254L37.6331 23.6478H38.0818ZM42.2918 23.199C42.2918 23.3914 42.2277 23.5196 42.0354 23.6264C41.9072 23.6905 41.7789 23.6905 41.608 23.6905H41.1806V24.8232H40.4326V21.7031H41.6293C41.8217 21.7031 42.014 21.7031 42.0568 21.7672C42.2491 21.8313 42.3132 21.9595 42.3132 22.1519L42.2918 23.199ZM41.5225 23.2631V22.1305C41.5225 22.0664 41.5225 22.0023 41.4584 22.0023C41.3943 21.9382 41.3302 21.9382 41.266 21.9382H41.1378V23.37H41.3943C41.4798 23.3914 41.5225 23.3273 41.5225 23.2631ZM45.7966 21.7031L45.0486 24.3317C44.9845 24.524 44.8563 24.7163 44.7281 24.7804C44.5998 24.8446 44.4075 24.8446 44.1083 24.8446H43.6809V24.524H43.8732C44.0656 24.524 44.1938 24.524 44.2579 24.4599C44.2579 24.4599 44.322 24.3958 44.322 24.3317L44.3861 24.1393L43.5741 21.7031H44.3861L44.7708 23.4555L45.0914 21.7031H45.7966ZM50.2203 24.8446H49.4082L48.9808 23.4127V24.8446H48.2328V23.4127L47.784 24.8446H47.0361L47.6558 23.2204L47.1002 21.7245H47.8482L48.2328 23.1563V21.7245H48.9808V23.1563L49.3655 21.7245H50.1134L49.5578 23.2204L50.2203 24.8446ZM53.49 24.8446H52.742V23.3486H52.3573V24.8446H51.6094V21.7245H52.3573V23.0494H52.742V21.7245H53.49V24.8446ZM56.8665 24.3317C56.8665 24.4599 56.8665 24.5881 56.8024 24.6522C56.6742 24.7804 56.4818 24.8446 56.2468 24.8446H55.6911C55.4347 24.8446 55.1996 24.7804 55.1355 24.6522C55.0714 24.5881 55.0073 24.4599 55.0073 24.3317V22.1946C55.0073 22.0664 55.0714 21.9382 55.0714 21.8741C55.1996 21.7458 55.3919 21.6817 55.627 21.6817H56.1185C56.375 21.6817 56.6101 21.7458 56.6742 21.8741C56.7383 21.9382 56.8024 22.0664 56.8024 22.1946L56.8665 24.3317ZM56.0972 24.4599V22.1519C56.0972 22.0878 56.0972 22.0878 56.0331 22.0878C55.9689 22.0878 55.9689 22.0237 55.9048 22.0237C55.8407 22.0237 55.7766 22.0237 55.7766 22.0878L55.7125 22.1519V24.4599C55.7125 24.524 55.7125 24.524 55.7766 24.524H55.9048C56.0544 24.524 56.0972 24.524 56.0972 24.4599ZM60.1789 21.2757C60.1789 21.4039 60.1148 21.468 60.0507 21.468C59.9225 21.5321 59.7943 21.5321 59.666 21.5321H59.2386C59.0463 21.5321 58.9181 21.5321 58.854 21.468C58.7898 21.4039 58.7257 21.3398 58.7257 21.2757V21.1475H59.2814V21.2757C59.2814 21.3398 59.3455 21.4039 59.4737 21.4039C59.5378 21.4039 59.6019 21.4039 59.6019 21.3398C59.666 21.3398 59.666 21.2757 59.666 21.2757V21.1475H60.2217V21.2757H60.1789ZM60.3499 24.8446H59.6019V23.0922L59.1745 24.8446H58.4265V21.7245H59.1745V23.541L59.6019 21.7245H60.3499V24.8446ZM67.3594 23.2204C67.3594 23.4127 67.2953 23.541 67.103 23.6478C66.9747 23.7119 66.8465 23.7119 66.6756 23.7119H66.2481V24.8446H65.5002V21.7245H66.6969C66.8893 21.7245 67.0816 21.7245 67.1243 21.7886C67.3167 21.8527 67.3808 21.9809 67.3808 22.1732L67.3594 23.2204ZM66.5473 23.2631V22.1305C66.5473 22.0664 66.5473 22.0023 66.4832 22.0023C66.4191 22.0023 66.355 21.9382 66.2909 21.9382H66.1627V23.37H66.355C66.5473 23.3914 66.5473 23.3273 66.5473 23.2631ZM70.565 24.8446H68.7485V21.7245H70.565V21.9809H69.5606V23.0494H70.565V23.37H69.5606V24.5667H70.6291L70.565 24.8446ZM73.9415 24.8446H73.1936L72.702 23.3486V24.8446H71.9541V21.7245H72.702V23.0922L73.0867 21.7245H73.8347L73.3431 23.2204L73.9415 24.8446ZM77.3181 24.8446H76.5701V21.9595H76.1854V24.3317C76.1854 24.524 76.1213 24.6522 75.929 24.7804C75.8008 24.8446 75.6725 24.8446 75.5016 24.8446H75.0528V24.524C75.181 24.524 75.2451 24.524 75.3092 24.4599C75.3733 24.3958 75.4375 24.3958 75.4375 24.3317V21.7031H77.3181V24.8446ZM80.9297 24.8446H80.1817L80.0535 23.9684H79.4978L79.3696 24.8446H78.6217L79.1773 21.7245H80.3099L80.9297 24.8446ZM80.0535 23.6478L79.8611 22.0237H79.797L79.6047 23.6478H80.0535ZM85.7594 24.8446H85.0114V22.4083L84.4558 24.8446H83.7078L83.1522 22.4083V24.8446H82.4042V21.7245H83.5369L84.0925 24.2248L84.7122 21.7245H85.8449V24.8446H85.7594ZM90.2686 24.8446H89.5206V21.7245H90.2686V24.8446ZM89.1359 24.3958C89.1359 24.524 89.1359 24.5881 89.0718 24.6522C88.9436 24.7804 88.7513 24.8446 88.4521 24.8446H87.2553V21.7245H88.0033V22.9212H88.388C88.7085 22.9212 88.8795 22.9853 89.0077 23.1135C89.0718 23.1777 89.0718 23.2418 89.0718 23.37L89.1359 24.3958ZM88.388 24.3958V23.2631C88.388 23.199 88.3239 23.199 88.1956 23.199H88.0674V24.5667H88.1956C88.3239 24.524 88.388 24.4599 88.388 24.3958Z" fill="white"/>
<path fill-rule="evenodd" clip-rule="evenodd" d="M0 20.6345H91.4443V0.0546875H0V20.6345ZM35.7101 6.67954C35.9024 5.93157 36.2016 5.1836 36.8427 4.67071C37.2274 4.35015 37.7189 4.22193 38.2104 4.22193C39.1507 4.15782 39.5781 5.03401 39.1507 5.65375C38.4669 6.59406 37.5266 7.27791 36.3298 7.40613C35.8383 7.49162 35.6032 7.19243 35.7101 6.67954ZM60.2434 14.8217C59.4954 15.3132 58.6833 15.5697 57.8072 15.6979C56.6745 15.8902 55.7342 15.5697 55.0504 14.5652C54.9863 14.5011 54.9221 14.3729 54.858 14.3088C54.6016 13.9882 54.3665 13.9882 54.046 14.2447C53.4903 14.7362 52.9133 15.2491 52.2295 15.6124C51.7379 15.933 51.2251 16.168 50.6694 16.2963C50.242 16.3604 49.8573 16.2963 49.4727 16.1039C49.1521 15.9757 49.0239 15.7193 49.0239 15.356V14.5439C49.0239 14.3515 48.9598 14.3515 48.8316 14.4157C47.8913 15.1636 46.8227 15.7193 45.7756 16.3604C45.2841 16.6809 44.7071 16.916 44.0873 17.1083C43.6599 17.2366 43.3393 17.1083 43.0829 16.6809C42.7623 16.1253 42.6555 15.4842 42.5914 14.8644C42.5914 14.4798 43.0402 14.1165 43.5958 14.0524C43.9163 14.0524 44.1514 14.1165 44.4079 14.1806C44.6002 14.2447 44.6643 14.1806 44.6002 13.9882C44.5361 13.86 44.5361 13.6677 44.472 13.5608C44.2155 13.0693 44.0232 12.5564 43.8522 12.0649C43.7881 11.8085 43.6599 11.8085 43.4676 11.9367C42.6555 12.4923 41.9716 13.1975 41.2664 13.8173C40.839 14.2019 40.4543 14.6294 39.9628 15.014C39.5781 15.3346 39.2148 15.5697 38.7661 15.762C37.8899 16.0826 37.0137 15.8902 36.3939 15.1422C36.0093 14.7148 35.7742 14.2019 35.5819 13.7104C35.5177 13.6463 35.5177 13.5181 35.4536 13.454C35.2613 13.0266 35.0262 12.8983 34.5774 13.1975C33.7654 13.8173 33.0815 14.5011 32.2053 15.0781C31.4574 15.5697 30.7094 16.1467 29.8332 16.4458C29.3417 16.6382 28.8288 16.7023 28.2732 16.6382C27.8244 16.5741 27.5893 16.3176 27.5893 15.8261C27.5893 15.4414 27.7175 15.1422 27.9099 14.8217C28.2304 14.2019 28.5296 13.6249 28.6578 12.9411C28.786 12.3213 28.5296 11.6802 28.1022 11.4452C27.8457 11.3169 27.6748 11.3169 27.4824 11.4452C27.1619 11.7016 26.8627 12.0008 26.5421 12.3213C25.7301 13.0693 25.0462 13.9455 24.17 14.5652C23.5503 15.0568 22.8023 15.4414 21.9902 15.6979C20.9858 16.0184 20.1737 15.5697 19.8104 14.5652C19.7463 14.3729 19.6822 14.1378 19.6181 13.9455C19.554 13.6249 19.554 13.6249 19.2975 13.8173C18.4855 14.5652 17.6734 15.2491 16.669 15.8261C16.0492 16.1467 15.4722 16.51 14.7243 16.5741C14.1686 16.6382 13.7199 16.4458 13.3566 16.0826C13.1642 15.9543 13.1642 15.762 13.1642 15.6338C13.1642 15.1422 13.3566 14.6935 13.5489 14.2019C12.1171 15.0781 10.5998 15.6979 9.03971 16.2749C7.672 16.7664 6.28292 17.0229 4.8511 17.0229H4.72288C3.71846 17.0229 3.29105 16.4031 3.59024 15.4628C4.08176 13.6463 4.72288 11.8939 5.40673 10.1416C5.59907 9.69278 5.72729 9.32948 5.89825 8.8807C5.96237 8.75247 5.96237 8.68836 5.89825 8.56014C5.40673 8.11136 5.44947 7.55573 5.70592 7.06421C5.96237 6.57268 6.32566 6.1239 6.71033 5.6965C7.39419 4.94853 7.97119 4.13645 8.65505 3.45259C9.21068 2.89696 9.85179 2.51229 10.5998 2.25585C10.8562 2.19174 11.0913 2.19174 11.3477 2.38407C11.6683 2.5764 11.7324 2.76874 11.6042 3.13204C11.2836 4.13645 10.7921 5.01264 10.3433 5.88883C9.3389 7.76943 8.27038 9.58592 7.4583 11.5306C7.07363 12.3427 6.77444 13.2189 6.64622 14.0951C6.58211 14.4798 6.64622 14.4798 7.03089 14.5439C7.90708 14.6721 8.71916 14.4798 9.53124 14.2233C11.2836 13.7318 12.8437 12.9197 14.4678 12.0863C14.8525 11.8939 15.0876 11.4665 15.4081 11.146C16.3484 10.3339 17.3528 9.71415 18.4641 9.20125C19.2762 8.81659 20.0883 8.5174 20.9644 8.19684C21.3919 8.00451 21.7765 8.06862 22.1612 8.32506C22.4176 8.45329 22.4176 8.64562 22.2894 8.81659C22.0971 9.07303 21.8406 9.26537 21.6056 9.43633C20.3447 10.3125 19.1052 11.1887 17.8444 12.0008C17.2887 12.3855 16.7117 12.8129 16.3484 13.4326C16.2843 13.5608 16.092 13.6891 16.2202 13.8814C16.3484 14.0096 16.5408 13.8814 16.6476 13.8814C17.3315 13.6249 17.9085 13.1334 18.5282 12.7488C19.148 12.3213 19.7891 11.8726 20.4088 11.381C20.6011 11.2528 20.7935 11.1887 20.9644 11.0605C21.285 10.9323 21.5201 10.9323 21.8406 11.1887C22.0971 11.4452 22.1612 11.6802 22.0971 12.0008C21.9689 12.3213 21.9689 12.6846 21.9047 13.0052C21.8406 13.5608 22.1612 13.8814 22.7168 13.8173C23.0374 13.7532 23.2725 13.6249 23.5289 13.4967C24.5333 12.877 25.2813 11.9367 26.0292 11.1246C26.0934 11.0605 26.2216 10.9323 26.2857 10.804C26.4139 10.6758 26.4139 10.5476 26.3498 10.3553C26.1575 9.86374 26.2216 9.6714 26.6704 9.41496C27.4824 8.92344 28.2945 8.60288 29.2348 9.03029C30.1751 9.52181 30.7949 10.2911 30.9872 11.4024C31.1795 12.2786 30.7949 13.0907 30.3675 13.8386C30.3033 13.9669 30.2392 14.031 30.1751 14.1592C30.111 14.2874 29.9828 14.4157 30.0469 14.5439C30.111 14.6721 30.3033 14.608 30.4316 14.608C30.6239 14.608 30.7521 14.4798 30.859 14.4157C32.1626 13.7318 33.1029 12.7274 34.1073 11.723C34.5347 11.2742 34.9194 10.7827 35.3682 10.3553C35.6887 9.97059 36.052 9.73552 36.5649 9.92785C37.1205 10.1202 37.5693 10.4194 37.6975 11.1246C37.7616 11.6802 37.8258 12.2572 37.954 12.7488C38.0181 13.0052 38.0822 13.2403 38.2104 13.4326C38.4669 13.8814 38.7661 13.9882 39.2789 13.8173C39.8346 13.5608 40.2834 13.1334 40.7108 12.7488C41.6511 11.9367 42.5273 11.0605 43.4676 10.1843C43.9163 9.75689 44.4079 9.37222 44.8353 8.98755C45.455 8.49603 46.5235 8.66699 46.951 9.37222C47.1433 9.69278 47.0792 9.99196 46.7586 10.1843C46.4381 10.3766 46.3098 10.6117 46.2671 10.9964C46.203 11.9367 46.4594 12.8129 46.7586 13.6891C46.8227 13.9455 47.0151 13.9455 47.186 13.8814C48.2546 13.4326 49.259 12.9411 50.071 12.129C51.6952 10.569 53.6399 9.50044 55.6915 8.75247C55.9479 8.62425 56.2471 8.62425 56.5036 8.62425C56.76 8.62425 56.9523 8.75247 57.0592 9.00892C57.1874 9.26537 56.9951 9.4577 56.8669 9.56455C56.183 10.2484 55.3709 10.7613 54.4947 11.2528C53.7468 11.7016 52.9988 12.0649 52.3149 12.6846C52.0585 12.9411 51.8875 13.1762 51.6952 13.4326C51.6311 13.5608 51.567 13.6891 51.6952 13.8173C51.7593 13.9455 51.8875 13.9455 52.0799 13.9455C52.2722 13.9455 52.4645 13.8173 52.6355 13.6891C53.3194 13.3044 53.8322 12.8129 54.3879 12.3213C54.5802 12.129 54.8367 12.0008 55.0717 11.8939C55.6915 11.7016 56.1403 11.8939 56.5036 12.3855C56.6318 12.6419 56.8241 12.877 56.9523 13.1334C57.3797 14.0096 58.0209 14.3302 58.9612 14.0737C59.2817 14.0096 59.5168 13.8814 59.8374 13.8173C60.0938 13.7532 60.3289 13.6891 60.5212 14.0096C60.6067 14.2661 60.5426 14.6294 60.2434 14.8217ZM89.4568 18.8821H64.3038V1.80707H89.4568V18.8821Z" fill="#DA251E"/>
<path fill-rule="evenodd" clip-rule="evenodd" d="M70.7363 16.0185C70.7363 16.6383 70.6722 17.1512 70.4799 17.4504C70.1593 18.0701 69.5396 18.3907 68.6634 18.3907H67.1033C66.4836 18.3907 66.0348 18.2624 65.7356 18.0701C65.3082 17.7496 65.0518 17.0016 65.0518 15.9331V4.69219C65.0518 3.94423 65.1159 3.43133 65.3082 3.13215C65.6288 2.57651 66.1844 2.32007 67.0606 2.32007H68.6206C69.3686 2.32007 69.8815 2.5124 70.2448 2.8757C70.5653 3.19626 70.6722 3.816 70.6722 4.62808V7.44898H68.4283V4.30752C68.4283 4.1793 68.3642 4.05108 68.236 3.92285C68.1718 3.85874 68.0436 3.79463 67.8513 3.79463C67.7872 3.79463 67.659 3.85874 67.5307 3.92285C67.4025 4.05108 67.3384 4.1793 67.3384 4.30752V16.3177C67.3384 16.446 67.4025 16.5742 67.4666 16.7024C67.5948 16.8306 67.659 16.8306 67.8513 16.8306C68.0436 16.8306 68.1718 16.7665 68.2787 16.5742C68.3428 16.5101 68.4069 16.3818 68.4069 16.3177V12.6848H70.6508V15.9972L70.7363 16.0185ZM74.6257 18.3907H72.3818V2.36281H74.6257V18.3907ZM81.5711 3.92285H79.8188V18.3693H77.5749V3.92285H75.8225V2.36281H81.507L81.5711 3.92285ZM88.7516 2.36281L86.6146 14.1379V18.3266H84.3707V14.1379L82.255 2.36281H84.8195L85.5674 9.05177L86.3154 2.36281H88.7516Z" fill="#DA251E"/>
</svg>
