<svg width="46" height="28" viewBox="0 0 46 28" fill="none" xmlns="http://www.w3.org/2000/svg">
<path d="M40.5283 0H5.52567C2.82946 0 0.623535 2.20034 0.623535 4.88974V18.2817C0.623535 20.971 2.82946 23.1714 5.52567 23.1714H14.6779V26.9192C14.6779 27.5161 15.163 28 15.7614 28H30.0101C30.6086 28 31.0938 27.5161 31.0938 26.9192V23.1714H40.5283C43.2245 23.1714 45.4306 20.971 45.4306 18.2816V4.88974C45.4306 2.20023 43.2245 0 40.5283 0Z" fill="#FF9400"/>
<path d="M40.4869 2.44482H5.48411C4.13615 2.44482 3.0332 3.54491 3.0332 4.88959V18.2817C3.0332 19.6265 4.13609 20.7266 5.48411 20.7266H40.4869C41.8351 20.7266 42.9379 19.6265 42.9379 18.2817V4.88959C42.9379 3.54491 41.8351 2.44482 40.4869 2.44482Z" fill="white"/>
<path d="M40.0489 5.02002H37.8058C37.6422 5.02002 37.4934 5.11359 37.4224 5.26063L34.3076 11.7365L31.1921 5.26063C31.1214 5.11359 30.9723 5.02002 30.8087 5.02002H28.566C28.3656 5.02002 28.2654 5.12584 28.2654 5.33756V17.8335C28.2654 18.0451 28.3656 18.1509 28.566 18.1509H30.7584C30.934 18.1509 31.0765 18.0088 31.0765 17.8335V10.5712L33.1877 14.9875C33.2582 15.135 33.4075 15.2291 33.5711 15.2291H35.0434C35.2073 15.2291 35.3567 15.135 35.4272 14.9875L37.5383 10.5714V17.8335C37.5383 18.0088 37.6808 18.1509 37.8564 18.1509H40.0489C40.2489 18.1509 40.3492 18.0451 40.3492 17.8335V5.33752C40.3492 5.12584 40.2489 5.02002 40.0489 5.02002ZM26.0244 5.0202L23.681 5.02002C23.5227 5.02002 23.3775 5.1076 23.3041 5.24739L19.2003 13.0672V5.33774C19.2003 5.16232 19.0578 5.0202 18.8819 5.0202H16.6897C16.4891 5.0202 16.3893 5.12602 16.3893 5.33774V17.8335C16.3893 18.0452 16.4891 18.1509 16.6897 18.1509H19.0509C19.2092 18.1509 19.3543 18.0634 19.4277 17.9237L23.5317 10.1052V17.8335C23.5317 18.0452 23.6318 18.1509 23.8321 18.1509H26.0244C26.2004 18.1509 26.3428 18.009 26.3428 17.8335V5.33761C26.3428 5.16232 26.2004 5.0202 26.0244 5.0202ZM10.5941 5.0202H5.90896C5.70832 5.0202 5.6084 5.12602 5.6084 5.33761V17.8334C5.6084 18.0452 5.70832 18.1509 5.90896 18.1509H8.13668C8.33696 18.1509 8.43724 18.0452 8.43724 17.8334V13.9608H10.5941C11.9847 13.9608 13.0867 13.5583 13.9002 12.7529C14.7134 11.9478 15.1202 10.8572 15.1202 9.4816C15.1202 8.11804 14.7134 7.03361 13.9002 6.2281C13.0867 5.423 11.9847 5.0202 10.5941 5.0202ZM10.2051 11.3334H8.43729V7.62998H10.2051C11.5368 7.62998 12.2028 8.24728 12.2028 9.4816C12.2028 10.7161 11.5368 11.3334 10.2051 11.3334Z" fill="#5229A1"/>
<path fill-rule="evenodd" clip-rule="evenodd" d="M25.7607 26.397L26.7591 22.2835C26.7646 22.2609 26.7476 22.2393 26.7243 22.2393H26.0008C25.984 22.2393 25.9694 22.2512 25.9657 22.2675L25.6671 23.7187H24.9781L24.6651 22.2672C24.6615 22.251 24.6471 22.2393 24.63 22.2393H23.9066C23.8832 22.2393 23.8662 22.2609 23.8716 22.2835L24.8771 26.397C24.8809 26.4131 24.8954 26.4243 24.9118 26.4243H25.7259C25.7426 26.4243 25.7571 26.4131 25.7607 26.397ZM25.3408 25.4563L25.6671 23.7187H24.9781L25.3044 25.4563H25.3408Z" fill="white"/>
<path d="M29.5681 26.424H27.3981C27.3785 26.424 27.3623 26.4082 27.3623 26.3883V22.2749C27.3623 22.2551 27.3785 22.239 27.3981 22.239H29.5681C29.588 22.239 29.604 22.2551 29.604 22.2749V22.8106C29.604 22.8303 29.588 22.8463 29.5681 22.8463H28.1459V23.9887H29.3796C29.3993 23.9887 29.4154 24.0048 29.4154 24.0244V24.5724C29.4154 24.5921 29.3993 24.6081 29.3796 24.6081H28.1459V25.8167H29.5681C29.588 25.8167 29.604 25.8327 29.604 25.8524V26.3882C29.604 26.4081 29.588 26.424 29.5681 26.424Z" fill="white"/>
<path fill-rule="evenodd" clip-rule="evenodd" d="M21.6267 24.1239C21.7162 23.9417 21.7611 23.7181 21.7611 23.4537C21.7611 23.0247 21.6449 22.7152 21.4127 22.5246C21.1806 22.3342 20.859 22.239 20.448 22.239H19.3304C19.3106 22.239 19.2944 22.2551 19.2944 22.2749V26.3882C19.2944 26.4081 19.3106 26.424 19.3304 26.424H20.0422C20.062 26.424 20.0781 26.4081 20.0781 26.3882V24.6924H20.448L21.092 26.4008C21.0974 26.4148 21.1107 26.424 21.1257 26.424H21.846C21.8712 26.424 21.8888 26.3984 21.8792 26.375L21.1517 24.5539C21.379 24.4496 21.5372 24.3064 21.6267 24.1239ZM20.3972 24.0729C20.6004 24.0729 20.7501 24.0239 20.8469 23.9257C20.9436 23.8275 20.9921 23.6701 20.9921 23.4537C20.9921 23.2613 20.9449 23.1119 20.8506 23.0057C20.7563 22.8995 20.6004 22.8463 20.3826 22.8463H20.0781V24.0729H20.3972Z" fill="white"/>
<path fill-rule="evenodd" clip-rule="evenodd" d="M18.6083 22.8042C18.5407 22.5998 18.4203 22.4545 18.2469 22.3682C18.0732 22.2821 17.8369 22.239 17.538 22.239H16.3226C16.3029 22.239 16.2866 22.2551 16.2866 22.2749V26.3883C16.2866 26.4081 16.3029 26.424 16.3226 26.424H17.4729C17.7284 26.424 17.9561 26.3799 18.1564 26.2918C18.3565 26.2036 18.5022 26.0413 18.594 25.8047C18.6518 25.6605 18.6831 25.4639 18.6881 25.2154C18.6927 24.9669 18.6941 23.6732 18.6917 23.4146C18.6891 23.156 18.6613 22.9527 18.6083 22.8042ZM17.8029 25.69C17.8755 25.6053 17.9118 25.4827 17.9118 25.3216V23.3353C17.9118 23.1823 17.8764 23.0628 17.8066 22.9761C17.7364 22.8897 17.6021 22.8463 17.4038 22.8463H17.0703V25.8167H17.4038C17.5972 25.8167 17.7303 25.7744 17.8029 25.69Z" fill="white"/>
<path d="M23.2326 26.424H22.5207C22.5009 26.424 22.4849 26.4081 22.4849 26.3882V22.2749C22.4849 22.2551 22.5009 22.239 22.5207 22.239H23.2326C23.2523 22.239 23.2683 22.2551 23.2683 22.2749V26.3882C23.2683 26.4081 23.2523 26.424 23.2326 26.424Z" fill="white"/>
</svg>
