<svg width="46" height="28" viewBox="0 0 46 28" fill="none" xmlns="http://www.w3.org/2000/svg">
<g clip-path="url(#clip0_92_3176)">
<path d="M40.217 0H5.36023C2.67286 0 0.479492 2.19337 0.479492 4.90049V18.2978C0.479492 20.9852 2.67286 23.1983 5.36023 23.1983H12.8295V26.9527C12.8295 27.5455 13.3038 28.0395 13.9163 28.0395H31.6806C32.2734 28.0395 32.7674 27.5653 32.7674 26.9527V23.1983H40.2367C42.9241 23.1983 45.1175 21.0049 45.1175 18.2978V4.90049C45.0977 2.19337 42.9043 0 40.217 0Z" fill="#FF9400"/>
<path d="M40.2171 2.4502H5.3604C4.01672 2.4502 2.91016 3.55676 2.91016 4.90044V18.2978C2.91016 19.6414 4.01672 20.748 5.3604 20.748H40.2171C41.5608 20.748 42.6674 19.6414 42.6674 18.2978V4.88068C42.6476 3.537 41.5608 2.4502 40.2171 2.4502Z" fill="white"/>
<path d="M39.7822 5.01904H37.5493C37.3912 5.01904 37.2331 5.11784 37.1738 5.25616L34.0715 11.7375L30.9692 5.25616C30.8901 5.11784 30.7518 5.01904 30.5937 5.01904H28.3609C28.1633 5.01904 28.0645 5.11784 28.0645 5.3352V17.8433C28.0645 18.0607 28.1633 18.1595 28.3609 18.1595H30.5345C30.7123 18.1595 30.8506 18.0212 30.8506 17.8433V10.5716L32.9452 14.9979C33.0242 15.1362 33.1625 15.235 33.3206 15.235H34.7829C34.941 15.235 35.099 15.1362 35.1583 14.9979L37.2529 10.5716V17.8433C37.2529 18.0212 37.3912 18.1595 37.569 18.1595H39.7624C39.96 18.1595 40.0588 18.0607 40.0588 17.8433V5.3352C40.0786 5.11784 39.9798 5.01904 39.7822 5.01904Z" fill="#5229A1"/>
<path d="M25.8114 5.01904H23.4797C23.3217 5.01904 23.1833 5.09808 23.1043 5.25616L19.0337 13.0614V5.3352C19.0337 5.15736 18.8954 5.01904 18.7176 5.01904H16.544C16.3464 5.01904 16.2476 5.11784 16.2476 5.3352V17.8433C16.2476 18.0607 16.3464 18.1595 16.544 18.1595H18.8954C19.0535 18.1595 19.1918 18.0804 19.2708 17.9224L23.3612 10.0974V17.8236C23.3612 18.0409 23.46 18.1397 23.6576 18.1397H25.8312C26.009 18.1397 26.1473 18.0014 26.1473 17.8236V5.3352C26.1276 5.15736 25.9893 5.01904 25.8114 5.01904Z" fill="#5229A1"/>
<path d="M10.4588 5.01904H5.79542C5.59782 5.01904 5.49902 5.11784 5.49902 5.3352V17.8433C5.49902 18.0607 5.59782 18.1595 5.79542 18.1595H8.00855C8.20615 18.1595 8.30495 18.0607 8.30495 17.8433V13.9703H10.4588C11.842 13.9703 12.9486 13.5751 13.7587 12.765C14.5689 11.9548 14.9641 10.868 14.9641 9.48482C14.9641 8.12137 14.5689 7.03457 13.7587 6.22441C12.9288 5.41424 11.842 5.01904 10.4588 5.01904ZM10.0636 11.3423H8.30495V7.62737H10.0636C11.3875 7.62737 12.0594 8.23993 12.0594 9.48482C12.0594 10.7099 11.4073 11.3423 10.0636 11.3423Z" fill="#5229A1"/>
<path d="M17.7893 24.7002H17.7498L17.4929 24.1272L16.6037 22.2895C16.6037 22.2698 16.584 22.2698 16.5642 22.2698H15.9121C15.8924 22.2698 15.8726 22.2895 15.8726 22.3093V26.4194C15.8726 26.4391 15.8924 26.4589 15.9121 26.4589H16.6235C16.6432 26.4589 16.663 26.4391 16.663 26.4194V24.0284H16.6828L16.9594 24.6212L17.8486 26.4391C17.8486 26.4589 17.8684 26.4589 17.8881 26.4589H18.5204C18.5402 26.4589 18.56 26.4391 18.56 26.4194V22.3093C18.56 22.2895 18.5402 22.2698 18.5204 22.2698H17.8288C17.8091 22.2698 17.7893 22.2895 17.7893 22.3093V24.7002ZM14.4104 26.4589H15.102C15.1217 26.4589 15.1415 26.4391 15.1415 26.4194V22.3093C15.1415 22.2895 15.1217 22.2698 15.102 22.2698H14.3906C14.3708 22.2698 14.3511 22.2895 14.3511 22.3093V26.4194C14.3708 26.4589 14.3906 26.4589 14.4104 26.4589ZM30.495 24.6014C30.7124 24.5026 30.8705 24.3643 30.9693 24.1667C31.0681 23.9889 31.1076 23.7518 31.1076 23.4949C31.1076 23.0602 30.989 22.7638 30.7519 22.5662C30.5148 22.3686 30.1986 22.2895 29.7837 22.2895H28.6771C28.6574 22.2895 28.6376 22.3093 28.6376 22.329V26.4391C28.6376 26.4589 28.6574 26.4787 28.6771 26.4787H29.3885C29.4082 26.4787 29.428 26.4589 29.428 26.4391V24.7398H29.8034L30.4358 26.4589C30.4358 26.4787 30.4555 26.4787 30.4753 26.4787H31.1866C31.2064 26.4787 31.2262 26.4589 31.2262 26.4391L30.495 24.6014ZM30.1789 23.9691C30.0801 24.0679 29.9418 24.1074 29.7244 24.1074H29.4082V22.8823H29.7046C29.922 22.8823 30.0801 22.9416 30.1789 23.0404C30.2777 23.1392 30.3172 23.2973 30.3172 23.4949C30.337 23.7122 30.2777 23.8703 30.1789 23.9691ZM24.5473 22.5464C24.4485 22.4476 24.3299 22.3686 24.1718 22.329C24.0137 22.2698 23.8161 22.25 23.5988 22.25C23.3814 22.25 23.2036 22.2698 23.0455 22.329C22.8874 22.3883 22.7689 22.4674 22.6701 22.5662C22.5713 22.665 22.512 22.7835 22.4527 22.9218C22.4132 23.0602 22.3934 23.2182 22.3934 23.3763V25.4906C22.3934 25.8266 22.4922 26.0835 22.6898 26.2613C22.8874 26.4391 23.1838 26.5379 23.6185 26.5379C24.0335 26.5379 24.3497 26.4391 24.5473 26.2613C24.7449 26.0835 24.8437 25.8068 24.8437 25.4314V23.3961C24.8437 23.2182 24.8239 23.0602 24.7844 22.9416C24.7053 22.744 24.6461 22.6254 24.5473 22.5464ZM24.0335 25.4314C24.0335 25.5499 23.994 25.6685 23.9347 25.7673C23.8754 25.8661 23.7569 25.9056 23.5988 25.9056C23.4407 25.9056 23.3221 25.8661 23.2629 25.7673C23.2036 25.6882 23.1641 25.5894 23.1641 25.4709V23.3566C23.1641 23.2973 23.1641 23.238 23.1838 23.1787C23.2036 23.1194 23.2233 23.0602 23.2431 23.0009C23.2826 22.9416 23.3221 22.9021 23.3814 22.8823C23.4407 22.8428 23.5197 22.823 23.5988 22.823C23.7766 22.823 23.8754 22.8626 23.9347 22.9614C23.994 23.0602 24.0335 23.159 24.0335 23.2775V25.4314ZM21.603 22.8428C21.5437 22.6452 21.4252 22.4871 21.2473 22.4081C21.0695 22.329 20.8324 22.2698 20.536 22.2698H19.3306C19.3108 22.2698 19.2911 22.2895 19.2911 22.3093V26.4194C19.2911 26.4391 19.3108 26.4589 19.3306 26.4589H20.4767C20.7336 26.4589 20.9509 26.4194 21.1485 26.3206C21.3461 26.2415 21.4845 26.0637 21.5833 25.8266C21.6425 25.6882 21.6623 25.4906 21.6821 25.2338C21.6821 24.9769 21.6821 23.6925 21.6821 23.4356C21.6821 23.1985 21.6425 23.0009 21.603 22.8428ZM20.9114 25.3721C20.9114 25.5302 20.8719 25.6487 20.8126 25.7475C20.7336 25.8266 20.615 25.8661 20.4174 25.8661H20.0815V22.9021H20.4174C20.615 22.9021 20.7533 22.9416 20.8126 23.0404C20.8917 23.1194 20.9114 23.238 20.9114 23.3961V25.3721ZM27.6694 22.5464C27.5706 22.4476 27.452 22.3686 27.2939 22.329C27.1358 22.2698 26.9382 22.25 26.7209 22.25C26.5035 22.25 26.3257 22.2698 26.1676 22.329C26.0095 22.3883 25.891 22.4674 25.7922 22.5662C25.6933 22.665 25.6341 22.7835 25.5748 22.9218C25.5353 23.0602 25.5155 23.2182 25.5155 23.3763V25.4906C25.5155 25.8266 25.6143 26.0835 25.8119 26.2613C26.0095 26.4391 26.3059 26.5379 26.7406 26.5379C27.1556 26.5379 27.4718 26.4391 27.6694 26.2613C27.867 26.0835 27.9658 25.8068 27.9658 25.4314V23.3961C27.9658 23.2182 27.946 23.0602 27.9065 22.9416C27.8274 22.744 27.7484 22.6452 27.6694 22.5464ZM27.1358 25.4314C27.1358 25.5499 27.0963 25.6685 27.037 25.7673C26.9778 25.8661 26.8592 25.9056 26.7011 25.9056C26.543 25.9056 26.4245 25.8661 26.3652 25.7673C26.3059 25.6882 26.2664 25.5894 26.2664 25.4709V23.3566C26.2664 23.2973 26.2664 23.238 26.2862 23.1787C26.3059 23.1194 26.3257 23.0602 26.3454 23.0009C26.3849 22.9416 26.4245 22.9021 26.4838 22.8823C26.543 22.8428 26.6221 22.823 26.7011 22.823C26.879 22.823 26.9778 22.8626 27.037 22.9614C27.0963 23.0602 27.1358 23.159 27.1358 23.2775V25.4314Z" fill="white"/>
</g>
<defs>
<clipPath id="clip0_92_3176">
<rect width="44.6182" height="28" fill="white" transform="translate(0.479492)"/>
</clipPath>
</defs>
</svg>
