<svg width="46" height="28" viewBox="0 0 46 28" fill="none" xmlns="http://www.w3.org/2000/svg">
<g clip-path="url(#clip0_92_3186)">
<path d="M40.2389 0H5.3822C2.69483 0 0.501465 2.19337 0.501465 4.88073V18.2781C0.501465 20.9654 2.69483 23.1588 5.3822 23.1588H14.1754V26.9132C14.1754 27.506 14.6497 28 15.2622 28H30.3787C30.9715 28 31.4655 27.5258 31.4655 26.9132V23.1588H40.2587C42.9461 23.1588 45.1394 20.9654 45.1394 18.2781V4.90049C45.1197 2.19337 42.9263 0 40.2389 0Z" fill="#FF9400"/>
<path d="M40.2391 2.4502H5.38238C4.03869 2.4502 2.93213 3.55676 2.93213 4.90044V18.2978C2.93213 19.6414 4.03869 20.748 5.38238 20.748H40.2391C41.5828 20.748 42.6894 19.6414 42.6894 18.2978V4.88068C42.6696 3.537 41.5828 2.4502 40.2391 2.4502Z" fill="white"/>
<path d="M39.8044 5.01904H37.5715C37.4134 5.01904 37.2553 5.11784 37.196 5.25616L34.0937 11.7375L30.9914 5.25616C30.9123 5.11784 30.774 5.01904 30.6159 5.01904H28.3633C28.1657 5.01904 28.0669 5.11784 28.0669 5.3352V17.8433C28.0669 18.0607 28.1657 18.1595 28.3633 18.1595H30.5369C30.7147 18.1595 30.8531 18.0212 30.8531 17.8433V10.5716L32.9476 14.9979C33.0267 15.1362 33.165 15.235 33.3231 15.235H34.7853C34.9434 15.235 35.1015 15.1362 35.1608 14.9979L37.2553 10.5716V17.8433C37.2553 18.0212 37.3936 18.1595 37.5715 18.1595H39.7451C39.9427 18.1595 40.0415 18.0607 40.0415 17.8433V5.3352C40.1008 5.1376 40.002 5.01904 39.8044 5.01904Z" fill="#5229A1"/>
<path d="M25.8339 5.01904H23.5022C23.3441 5.01904 23.2058 5.09808 23.1268 5.2364L19.0562 13.0614V5.3352C19.0562 5.15736 18.9179 5.01904 18.74 5.01904H16.5664C16.3688 5.01904 16.27 5.11784 16.27 5.3352V17.8433C16.27 18.0607 16.3688 18.1595 16.5664 18.1595H18.9179C19.0759 18.1595 19.2143 18.0804 19.2933 17.9421L23.3836 10.1171V17.8433C23.3836 18.0607 23.4824 18.1595 23.68 18.1595H25.8536C26.0315 18.1595 26.1698 18.0212 26.1698 17.8433V5.3352C26.15 5.15736 26.0117 5.01904 25.8339 5.01904Z" fill="#5229A1"/>
<path d="M10.4803 5.01904H5.81691C5.61931 5.01904 5.52051 5.11784 5.52051 5.3352V17.8433C5.52051 18.0607 5.61931 18.1595 5.81691 18.1595H8.03003C8.22764 18.1595 8.32644 18.0607 8.32644 17.8433V13.9703H10.4803C11.8635 13.9703 12.97 13.5751 13.7802 12.765C14.5904 11.9548 14.9856 10.868 14.9856 9.48482C14.9856 8.12137 14.5706 7.03457 13.7802 6.22441C12.9503 5.41424 11.8635 5.01904 10.4803 5.01904ZM10.0851 11.3423H8.32644V7.62737H10.0851C11.409 7.62737 12.0808 8.23993 12.0808 9.48482C12.0808 10.7099 11.409 11.3423 10.0851 11.3423Z" fill="#5229A1"/>
<path d="M17.8514 23.4156L17.4562 24.3443H17.4166L17.0214 23.4353L16.4879 22.2695C16.4879 22.2497 16.4682 22.2497 16.4484 22.2497H15.7568C15.737 22.2497 15.7173 22.2695 15.7173 22.2893V26.3994C15.7173 26.4191 15.737 26.4389 15.7568 26.4389H16.4682C16.4879 26.4389 16.5077 26.4191 16.5077 26.3994V24.0084H16.5472L16.8634 24.7395L17.219 25.4904C17.219 25.5101 17.2388 25.5102 17.2586 25.5102H17.6735C17.6933 25.5102 17.6933 25.5101 17.7131 25.4904L18.049 24.7593L18.3651 24.0084H18.3849V26.3796C18.3849 26.3994 18.4047 26.4191 18.4244 26.4191H19.1358C19.1555 26.4191 19.1753 26.3994 19.1753 26.3796V22.2695C19.1753 22.2497 19.1555 22.23 19.1358 22.23H18.4442C18.4244 22.23 18.4244 22.23 18.4047 22.2497L17.8514 23.4156ZM19.9064 26.4389H22.0603C22.08 26.4389 22.0998 26.4191 22.0998 26.3994V25.8658C22.0998 25.8461 22.08 25.8263 22.0603 25.8263H20.6573V24.6209H21.8824C21.9022 24.6209 21.9219 24.6012 21.9219 24.5814V24.0281C21.9219 24.0084 21.9022 23.9886 21.8824 23.9886H20.6573V22.8425H22.08C22.0998 22.8425 22.1195 22.8228 22.1195 22.803V22.2695C22.1195 22.2497 22.0998 22.23 22.08 22.23H19.9064C19.8867 22.23 19.8669 22.2497 19.8669 22.2695V26.3796C19.8669 26.4191 19.8867 26.4191 19.9064 26.4389ZM24.9255 22.803C24.8662 22.6054 24.7476 22.4473 24.5698 22.3683C24.392 22.2893 24.1548 22.23 23.8584 22.23H22.6531C22.6333 22.23 22.6135 22.2497 22.6135 22.2695V26.3796C22.6135 26.3994 22.6333 26.4191 22.6531 26.4191H23.7991C24.056 26.4191 24.2734 26.3796 24.471 26.2808C24.6686 26.2018 24.8069 26.0239 24.9057 25.7868C24.965 25.6485 24.9848 25.4509 25.0045 25.194C25.0243 24.9371 25.0045 23.6527 25.0045 23.3958C25.0045 23.1587 24.9848 22.9611 24.9255 22.803ZM24.2339 25.3323C24.2339 25.4904 24.1943 25.609 24.1351 25.7078C24.056 25.7868 23.9375 25.8263 23.7399 25.8263H23.4039V22.8623H23.7399C23.9375 22.8623 24.0758 22.9018 24.1351 23.0006C24.2141 23.0797 24.2339 23.1982 24.2339 23.3563V25.3323ZM28.8775 22.2497H28.0673C28.0476 22.2497 28.0278 22.2695 28.0278 22.2695L27.0398 26.3796C27.0398 26.3994 27.0596 26.4191 27.0793 26.4191H27.7907C27.8104 26.4191 27.8302 26.3994 27.8302 26.3994L28.008 25.5497H28.9368L29.1344 26.3994C29.1344 26.4191 29.1541 26.4191 29.1739 26.4191H29.8852C29.905 26.4191 29.9248 26.3994 29.9248 26.3796L28.917 22.2695C28.917 22.2497 28.8972 22.2497 28.8775 22.2497ZM28.1266 24.9569L28.4428 23.218H28.4823L28.7984 24.9569H28.1266ZM25.8147 26.4389H26.526C26.5458 26.4389 26.5656 26.4191 26.5656 26.3994V22.2893C26.5656 22.2695 26.5458 22.2497 26.526 22.2497H25.8147C25.7949 22.2497 25.7752 22.2695 25.7752 22.2893V26.3994C25.7752 26.4191 25.7949 26.4389 25.8147 26.4389Z" fill="white"/>
</g>
<defs>
<clipPath id="clip0_92_3186">
<rect width="44.6182" height="28" fill="white" transform="translate(0.501465)"/>
</clipPath>
</defs>
</svg>
