<svg xmlns="http://www.w3.org/2000/svg" width="363" height="233" viewBox="0 0 363 233" fill="none">
    <path fill-rule="evenodd" clip-rule="evenodd" d="M8.28657 75.6754C8.40489 54.355 15.0371 37.2334 28.1831 24.3107C41.6625 11.2706 59.956 4.7505 83.0635 4.7505C105.743 4.7505 124.144 11.0568 138.265 23.6694C152.6 36.2819 159.768 52.6355 159.768 72.7301C159.768 86.4115 156.023 100.093 148.535 113.774C141.716 126.599 128.317 144.682 108.339 168.025C107.004 169.585 105.639 171.169 104.245 172.776H163.619V223.44H4.75464V210.613C34.9228 174.913 56.3187 149.154 68.9423 133.335C81.7798 117.302 90.5521 105.117 95.2592 96.7795C99.9663 88.4424 102.32 81.0672 102.32 74.6541C102.32 68.8822 100.608 64.2861 97.1848 60.8657C93.7615 57.2316 89.3753 55.4145 84.0263 55.4145C81.4588 55.4145 79.1053 55.7352 76.9657 56.3765C75.0401 56.8041 73.3284 57.6592 71.8307 58.9418C70.333 60.2244 69.0492 61.7208 67.9794 63.431C66.9097 64.9274 66.0538 66.8514 65.4119 69.2029C64.7701 71.3406 64.4491 73.6921 64.4491 76.2574V80.4259H8.28496V76.2574C8.28496 76.063 8.28549 75.869 8.28657 75.6754ZM114.583 168.025H168.374V228.19H0V208.876L1.12171 207.549C31.2884 171.85 52.6464 146.135 65.2246 130.373L65.2295 130.367C78.0454 114.361 86.6115 102.427 91.118 94.4455C95.6063 86.4958 97.5652 79.9436 97.5652 74.6541C97.5652 69.8811 96.1853 66.5853 93.8228 64.2248L93.7719 64.174L93.7225 64.1216C91.2664 61.5143 88.1682 60.165 84.0263 60.165C81.854 60.165 79.9679 60.4363 78.3319 60.9267L78.1661 60.9764L77.9971 61.0139C76.8334 61.2723 75.8302 61.7734 74.925 62.5486C73.8018 63.5105 72.8317 64.6374 72.0114 65.9488L71.9337 66.073L71.8484 66.1922C71.1927 67.1094 70.5383 68.4773 69.999 70.4528L69.9833 70.5106L69.9661 70.5679C69.4753 72.2024 69.2038 74.0869 69.2038 76.2574V85.1764H3.53032V76.2574C3.53032 53.6156 10.5273 35.0023 24.8485 20.9244L24.8621 20.911L24.8757 20.8978C39.4375 6.81061 59.0235 0 83.0635 0C106.662 0 126.263 6.58471 141.42 20.1154C156.832 33.6811 164.522 51.3588 164.522 72.7301C164.522 87.305 160.528 101.755 152.72 116.028C145.959 128.735 133.17 146.103 114.583 168.025ZM311.199 14.9522C306.455 23.0654 300.099 33.667 292.132 46.7568C284.844 59.003 279.159 68.5588 275.077 75.4243C273.886 77.4274 272.831 79.2015 271.913 80.7466C273.889 80.3705 275.907 80.0771 277.966 79.8664C280.588 79.5981 283.278 79.4639 286.034 79.4639C299.942 79.4639 312.351 82.4567 323.263 88.4424C334.389 94.2142 342.947 102.444 348.938 113.133C355.143 123.822 358.245 135.9 358.245 149.367C358.245 164.759 354.715 178.441 347.654 190.412C340.594 202.383 330.645 211.682 317.807 218.309C304.97 224.936 290.313 228.249 273.839 228.249C248.592 228.249 228.051 220.981 212.219 206.445C196.6 191.908 188.79 172.989 188.79 149.688C188.79 127.883 196.92 103.406 213.181 76.2574L252.336 10.2017H313.956C313.107 11.677 312.188 13.2605 311.199 14.9522ZM209.096 73.8268C209.098 73.8238 209.1 73.8209 209.101 73.818L249.626 5.4512H322.174L318.078 12.5697C313.129 21.1679 305.835 33.3854 296.207 49.2044C289.928 59.7553 284.84 68.3078 280.942 74.862C282.618 74.7628 284.316 74.7134 286.034 74.7134C300.626 74.7134 313.823 77.8559 325.503 84.2519C337.399 90.4342 346.624 99.2953 353.069 110.781C359.72 122.25 363 135.153 363 149.367C363 165.514 359.288 180.045 351.751 192.824C344.217 205.597 333.59 215.509 319.99 222.53C306.388 229.551 290.966 233 273.839 233C247.621 233 225.862 225.422 209.001 209.943L208.99 209.932L208.978 209.921C192.298 194.397 184.035 174.172 184.035 149.688C184.035 126.724 192.585 101.397 209.096 73.8268ZM273.518 174.759C281.188 174.759 287.094 172.374 291.659 167.813C296.201 163.275 298.61 157.281 298.61 149.367C298.61 141.454 296.201 135.46 291.659 130.922C287.094 126.361 281.188 123.976 273.518 123.976C266.115 123.976 260.167 126.329 255.345 130.953C250.823 135.488 248.425 141.473 248.425 149.367C248.425 154.658 249.554 159.058 251.65 162.723C253.788 166.462 256.695 169.371 260.431 171.514C264.402 173.669 268.736 174.759 273.518 174.759ZM258.113 175.661C253.62 173.096 250.089 169.569 247.522 165.08C244.954 160.591 243.67 155.353 243.67 149.367C243.67 140.389 246.452 133.121 252.015 127.563C257.792 122.005 264.959 119.226 273.518 119.226C282.29 119.226 289.458 122.005 295.021 127.563C300.583 133.121 303.365 140.389 303.365 149.367C303.365 158.346 300.583 165.614 295.021 171.172C289.458 176.73 282.29 179.509 273.518 179.509C267.955 179.509 262.82 178.227 258.113 175.661Z" fill="#F20D30"/>
</svg>