<svg width="100" height="82" viewBox="0 0 100 82" fill="none" xmlns="http://www.w3.org/2000/svg">
<path d="M13.7638 22.6158C13.7638 21.8535 13.5073 21.2478 12.9971 20.7985C12.4869 20.3493 11.7493 20.1232 10.7843 20.1232H8.98542V25.2243H10.3411C11.3615 25.2243 12.1895 25.0185 12.8192 24.6099C13.449 24.2012 13.7638 23.5346 13.7638 22.6158ZM25.5831 24.6214C25.1312 25.0997 24.8659 25.7489 24.7872 26.572L29.3878 26.5141C29.3878 26.1808 29.3469 25.859 29.2711 25.546C29.1924 25.233 29.07 24.9548 28.9038 24.7113C28.7376 24.4678 28.519 24.2707 28.2536 24.1258C27.9883 23.978 27.6676 23.9056 27.2945 23.9056C26.6064 23.9056 26.035 24.1432 25.5831 24.6214ZM45.5598 31.0268V24.9895C45.3848 24.7548 45.1079 24.5316 44.7347 24.3142C44.3615 24.0997 43.9475 23.9925 43.4956 23.9925C43.0437 23.9925 42.621 24.065 42.2274 24.2128C41.8338 24.3606 41.484 24.5983 41.1808 24.9316C40.8746 25.2649 40.6356 25.688 40.4577 26.2068C40.2799 26.7256 40.1924 27.3662 40.1924 28.1255C40.1924 29.5921 40.481 30.6703 41.0612 31.3659C41.6414 32.0586 42.3936 32.4064 43.3149 32.4064C43.8863 32.4064 44.3615 32.2615 44.7464 31.9659C45.1312 31.6731 45.4023 31.3601 45.5598 31.0268ZM73.8192 31.1717V29.1776L72.8455 29.2066C72.2945 29.2269 71.8338 29.2849 71.4606 29.3834C71.0875 29.482 70.7872 29.6037 70.5598 29.7515C70.3324 29.8993 70.172 30.0732 70.0729 30.279C69.9738 30.4848 69.9242 30.6935 69.9242 30.908C69.9242 31.5137 70.105 31.9282 70.4694 32.1543C70.8338 32.3803 71.2507 32.4905 71.723 32.4905C72.1953 32.4905 72.6239 32.3542 73.0058 32.0818C73.3907 31.8093 73.6589 31.505 73.8192 31.1717ZM88.5947 35.8641H84.8805C84.6443 35.983 84.4373 36.1569 84.2624 36.3916C84.0845 36.6264 83.9971 36.9191 83.9971 37.2727C83.9971 37.7597 84.2274 38.1799 84.691 38.5335C85.1516 38.8871 86.0029 39.061 87.242 39.061C88.4023 39.061 89.2624 38.8697 89.8222 38.49C90.3819 38.1104 90.6618 37.664 90.6618 37.1568C90.6618 36.7076 90.5044 36.38 90.1895 36.1743C89.8717 35.9656 89.3411 35.8641 88.5947 35.8641ZM88.4781 27.5256C88.8338 27.1633 89.0087 26.6416 89.0087 25.9576C89.0087 25.2736 88.828 24.7519 88.4636 24.3896C88.0991 24.0273 87.6414 23.8476 87.0933 23.8476C86.5219 23.8476 86.0612 24.0273 85.7055 24.3896C85.3528 24.7519 85.1749 25.2736 85.1749 25.9576C85.1749 26.6416 85.3557 27.1633 85.7201 27.5256C86.0816 27.8879 86.5394 28.0676 87.0904 28.0676C87.6618 28.0676 88.1225 27.885 88.4781 27.5256ZM95.4956 23.8447H94.1399L92.4869 23.5809C92.7026 23.8737 92.8863 24.2447 93.0321 24.6939C93.1808 25.1432 93.2536 25.5924 93.2536 26.0416C93.2536 26.7836 93.1166 27.4589 92.8396 28.0647C92.5656 28.6704 92.1603 29.1979 91.6297 29.6472C91.0991 30.0964 90.449 30.4442 89.6822 30.6877C88.9154 30.9311 88.0496 31.0529 87.0875 31.0529C86.8717 31.0529 86.6647 31.0442 86.4694 31.0239C86.2711 31.0036 86.0758 30.9746 85.8805 30.934C85.7434 31.0123 85.6152 31.1195 85.4985 31.2558C85.379 31.392 85.3207 31.5688 85.3207 31.7833C85.3207 32.0383 85.414 32.2412 85.6006 32.3977C85.7872 32.5542 86.1662 32.6325 86.7347 32.6325H89.7114C90.4781 32.6325 91.1866 32.7107 91.8338 32.8672C92.481 33.0238 93.0379 33.2759 93.4985 33.6295C93.9592 33.9802 94.3178 34.4352 94.5743 34.9917C94.8309 35.5482 94.9563 36.2177 94.9563 37.0003C94.9563 37.7626 94.7697 38.4668 94.3965 39.1132C94.0233 39.7566 93.4985 40.3131 92.8192 40.7826C92.1399 41.2522 91.3149 41.6173 90.3411 41.8811C89.3703 42.1448 88.2915 42.2753 87.1137 42.2753C84.9125 42.2753 83.1837 41.8956 81.9242 41.1304C80.6647 40.3682 80.0379 39.2842 80.0379 37.8785C80.0379 37.2524 80.2478 36.7018 80.6735 36.2206C81.0962 35.7424 81.691 35.3656 82.4577 35.0932C82.2216 34.9367 81.9563 34.6671 81.6618 34.2874C81.3673 33.9077 81.2187 33.4324 81.2187 32.8672C81.2187 32.2035 81.4198 31.6325 81.8251 31.1514C82.2274 30.6732 82.7347 30.2877 83.344 29.995C83.0875 29.8588 82.8192 29.6675 82.5335 29.424C82.2478 29.1805 81.9825 28.8907 81.7376 28.5603C81.4927 28.2299 81.2915 27.8531 81.1341 27.4299C80.9767 27.0097 80.898 26.5373 80.898 26.0098C80.898 25.2475 81.0554 24.549 81.3703 23.9143C81.6851 23.2795 82.1225 22.7317 82.6822 22.2738C83.242 21.813 83.9009 21.4623 84.6589 21.2188C85.414 20.9753 86.2449 20.8507 87.1516 20.8507C87.484 20.8507 87.8688 20.8797 88.3003 20.9377C88.7318 20.9956 89.1254 21.0739 89.481 21.1724H95.4956V23.8447ZM78.1808 35.2468H74.8484L74.4665 33.8411H74.3469C73.9533 34.3512 73.4082 34.7657 72.7114 35.0874C72.0117 35.4091 71.1924 35.5714 70.2478 35.5714C69.4402 35.5714 68.7405 35.4555 68.1399 35.2207C67.5394 34.9859 67.0437 34.6729 66.6501 34.2816C66.2566 33.8904 65.9563 33.4266 65.7522 32.8904C65.5452 32.3542 65.4431 31.7804 65.4431 31.1746C65.4431 30.3544 65.6239 29.6501 65.9883 29.0646C66.3528 28.4791 66.8426 28.0009 67.4636 27.627C68.0816 27.256 68.8105 26.9807 69.6443 26.8068C70.4781 26.63 71.3703 26.5431 72.312 26.5431H73.7843V25.7808C73.7843 25.2533 73.5977 24.8475 73.2245 24.5635C72.8513 24.2794 72.3207 24.1374 71.6327 24.1374C71.0408 24.1374 70.4636 24.2273 69.8921 24.4012C69.3207 24.578 68.6939 24.862 68.0029 25.2504L66.5306 22.4071C67.3353 21.9376 68.2449 21.5637 69.2566 21.2797C70.2682 20.9956 71.3061 20.8536 72.3673 20.8536C74.1166 20.8536 75.5219 21.2739 76.5831 22.1144C77.6443 22.9549 78.1749 24.2939 78.1749 26.1315V35.2468H78.1808ZM66.309 20.2391H61.2361V35.2468H56.7551V20.2391H51.8017V16.7814H66.309V20.2391ZM49.9242 35.2468H46.9155L46.4723 33.7223H46.3236C46.0466 34.1541 45.5714 34.5686 44.8921 34.9685C44.2128 35.3685 43.3236 35.5685 42.2245 35.5685C41.3003 35.5685 40.4461 35.3975 39.6589 35.0555C38.8717 34.7135 38.1953 34.2266 37.6239 33.5918C37.0525 32.9571 36.6064 32.1832 36.2828 31.2761C35.9592 30.3689 35.7959 29.3458 35.7959 28.2125C35.7959 27.0995 35.9417 26.088 36.2391 25.1779C36.5335 24.2679 36.9621 23.4969 37.5219 22.8622C38.0816 22.2274 38.7755 21.7347 39.6006 21.3811C40.4257 21.0304 41.3586 20.8536 42.4023 20.8536C43.0496 20.8536 43.6647 20.9463 44.2449 21.1318C44.8251 21.3173 45.2624 21.5463 45.5569 21.8216V14.2888H49.9213V35.2468H49.9242ZM33.8396 29.4733H24.6997C24.6997 29.4733 24.7872 31.05 25.8484 31.7311C26.5977 32.2122 27.5773 32.4064 28.7376 32.4064C30.8659 32.4064 31.9796 31.8296 32.3936 31.6152L33.1895 34.6063C32.6589 34.8613 31.9854 35.0845 31.1691 35.2787C30.3528 35.4758 29.3557 35.5714 28.1778 35.5714C27.1166 35.5714 26.1079 35.4294 25.1545 35.1482C24.2012 34.8642 23.3644 34.4295 22.6472 33.844C21.93 33.2585 21.3586 32.5165 20.9388 31.6152C20.516 30.7167 20.3061 29.6414 20.3061 28.3922C20.3061 27.2792 20.4781 26.259 20.8222 25.3286C21.1662 24.4012 21.6531 23.6041 22.2828 22.9404C22.9125 22.2767 23.6618 21.7637 24.5394 21.4014C25.414 21.0391 26.3819 20.8594 27.4431 20.8594C29.3878 20.8594 30.9417 21.4449 32.102 22.6187C33.2624 23.7925 33.8426 25.462 33.8426 27.6299V29.4733H33.8396ZM14.8542 27.8038L19.3061 35.2497H14.1458L10.8455 28.5951H8.98834V35.2497H4.50437V16.7814H11.8746C12.9359 16.7814 13.8746 16.9321 14.691 17.2365C15.5073 17.5408 16.1837 17.9553 16.7259 18.4828C17.2653 19.0103 17.6735 19.6247 17.9504 20.329C18.2245 21.0333 18.3644 21.784 18.3644 22.5839C18.3644 23.3462 18.2507 24.0157 18.0262 24.5925C17.8018 25.1692 17.5102 25.6735 17.1574 26.1025C16.8047 26.5344 16.4198 26.8851 16.0058 27.1575C15.5918 27.4328 15.207 27.6473 14.8542 27.8038ZM100 51.4717V0L0 9.15587V42.3303L100 51.4717Z" fill="#C20A26"/>
<path d="M36.8338 75.5861H35.9359V80.1162H36.8513V77.3657C36.8513 77.0613 36.9388 76.815 37.1108 76.6295C37.2857 76.4411 37.5015 76.3483 37.758 76.3483C38.0087 76.3483 38.2362 76.4498 38.4402 76.6527L39.1312 75.9658C38.8426 75.6788 38.4811 75.5368 38.0437 75.5368C37.793 75.5368 37.5569 75.589 37.3382 75.6875C37.1195 75.789 36.9504 75.9194 36.8309 76.0817V75.5861H36.8338ZM38.93 69.9749H39.8455V65.4448H38.93V69.9749ZM31.8513 77.4816C31.8571 77.2265 31.895 77.0208 31.9679 76.8643C32.1429 76.4817 32.4431 76.2933 32.8746 76.2933C33.3003 76.2933 33.6006 76.4846 33.7726 76.8643C33.8396 77.0063 33.8805 77.212 33.898 77.4816H31.8513ZM31.4636 76.1455C31.1166 76.5541 30.9417 77.1222 30.9417 77.8468C30.9417 78.6583 31.1283 79.2467 31.4985 79.6148C31.8688 79.9829 32.3673 80.1684 32.9913 80.1684C33.3761 80.1684 33.6939 80.1104 33.9475 79.9974C34.2012 79.8843 34.4519 79.7046 34.6968 79.4612L34.1137 78.9163C33.9446 79.0844 33.7813 79.2032 33.621 79.2728C33.4577 79.3452 33.2566 79.38 33.0087 79.38C32.6356 79.38 32.3499 79.2699 32.1516 79.0438C31.9504 78.8206 31.8513 78.5105 31.8513 78.1105H34.8076V77.7251C34.8076 77.0584 34.6356 76.5251 34.2945 76.1252C33.9534 75.7252 33.4811 75.5252 32.8746 75.5252C32.2828 75.5339 31.8105 75.7368 31.4636 76.1455ZM1.61807 73.7543H0.699707V78.8641C0.699707 79.2264 0.804663 79.5278 1.01458 79.7626C1.22449 79.9974 1.53644 80.1162 1.95044 80.1162H2.51603V79.3394H2.11079C1.93003 79.3394 1.80466 79.296 1.72886 79.209C1.65306 79.1221 1.61516 78.9887 1.61516 78.8119V73.7543H1.61807ZM5.50729 69.9749H6.47813V63.613H5.50729L3.67347 67.5692L1.80758 63.613H0.836733V69.9749H1.80758V65.723L3.31778 68.8242H4.0379L5.5102 65.723V69.9749H5.50729ZM6.11953 77.8468C6.11953 78.467 6.01458 78.8815 5.80466 79.0902C5.62391 79.2699 5.39942 79.3597 5.13119 79.3597C4.8688 79.3597 4.64723 79.2699 4.46647 79.0902C4.25656 78.8815 4.1516 78.467 4.1516 77.8468C4.1516 77.2265 4.25656 76.8121 4.46647 76.6063C4.6414 76.4324 4.86297 76.3483 5.13119 76.3483C5.40816 76.3483 5.63265 76.4353 5.80466 76.6063C6.01458 76.8121 6.11953 77.2265 6.11953 77.8468ZM6.91837 78.8931C6.99708 78.612 7.03498 78.2641 7.03498 77.8468C7.03498 77.4352 6.99708 77.0903 6.91837 76.8063C6.83965 76.5251 6.69971 76.2788 6.49563 76.0701C6.14869 75.7136 5.69388 75.5339 5.13119 75.5339C4.57434 75.5339 4.12245 75.7136 3.77551 76.0701C3.57143 76.2788 3.43149 76.5251 3.35277 76.8063C3.27405 77.0903 3.23615 77.4352 3.23615 77.8468C3.23615 78.2641 3.27405 78.612 3.35277 78.8931C3.43149 79.1742 3.57143 79.4206 3.77551 79.6351C4.12245 79.9916 4.57434 80.1713 5.13119 80.1713C5.69388 80.1713 6.14869 79.9916 6.49563 79.6351C6.69971 79.4177 6.83965 79.1713 6.91837 78.8931ZM8.61516 67.3403C8.62099 67.0852 8.65889 66.8794 8.73178 66.7229C8.9067 66.3403 9.207 66.152 9.63848 66.152C10.0641 66.152 10.3644 66.3432 10.5364 66.7229C10.6035 66.8649 10.6443 67.0707 10.6618 67.3403H8.61516ZM8.61516 67.9721H11.5714V67.5895C11.5714 66.9229 11.3994 66.3896 11.0583 65.9896C10.7172 65.5897 10.2449 65.3897 9.63848 65.3897C9.04373 65.3897 8.57434 65.5926 8.2274 66.0012C7.88047 66.4099 7.70554 66.9751 7.70554 67.7026C7.70554 68.5112 7.89213 69.1025 8.26239 69.4706C8.63265 69.8387 9.13119 70.0241 9.7551 70.0241C10.137 70.0241 10.4577 69.9691 10.7114 69.8531C10.965 69.7401 11.2157 69.5604 11.4606 69.3169L10.8776 68.7721C10.7085 68.9402 10.5452 69.059 10.3819 69.1286C10.2216 69.201 10.0175 69.2358 9.76968 69.2358C9.39942 69.2358 9.11079 69.1228 8.91254 68.9025C8.7172 68.6851 8.61516 68.3721 8.61516 67.9721ZM13.1079 75.5861L12.2274 78.7743L11.1749 75.5861H10.4665L9.40525 78.7743L8.52478 75.5861H7.55394L8.96501 80.1162H9.7551L10.8163 76.9541L11.8863 80.1162H12.6676L14.0875 75.5861H13.1079ZM15.3294 67.7055C15.3294 67.9315 15.3178 68.1257 15.2974 68.2851C15.277 68.4445 15.2332 68.604 15.172 68.7547C15.1079 68.9083 15.0117 69.0213 14.8805 69.0996C14.7493 69.1778 14.5831 69.2155 14.3848 69.2155C14.1866 69.2155 14.0204 69.1778 13.8863 69.0996C13.7522 69.0213 13.6531 68.9083 13.5889 68.7547C13.5277 68.604 13.484 68.4474 13.4636 68.2851C13.4431 68.1257 13.4315 67.9315 13.4315 67.7055C13.4315 67.4794 13.4431 67.2852 13.4636 67.1258C13.484 66.9664 13.5277 66.8099 13.5889 66.6621C13.6531 66.5142 13.7493 66.4012 13.8805 66.323C14.0117 66.2447 14.1808 66.207 14.3848 66.207C14.5831 66.207 14.7464 66.2447 14.8805 66.323C15.0117 66.4012 15.1108 66.5142 15.172 66.6621C15.2362 66.8099 15.277 66.9664 15.2974 67.1258C15.3178 67.2852 15.3294 67.4794 15.3294 67.7055ZM15.3469 69.9749H16.2449V63.613H15.3294V65.8998C15.0408 65.5607 14.6443 65.3897 14.1341 65.3897C13.6676 65.3897 13.2974 65.523 13.0292 65.7926C12.688 66.1375 12.516 66.7751 12.516 67.7055C12.516 68.6416 12.688 69.2793 13.0292 69.6271C13.2974 69.8937 13.6706 70.0299 14.1429 70.0299C14.6472 70.0299 15.0466 69.8502 15.3469 69.4937V69.9749ZM18.1108 76.1657C17.7085 75.7426 17.2099 75.531 16.6093 75.531C16.3382 75.531 16.0875 75.5716 15.8542 75.6556C15.621 75.7397 15.4052 75.8701 15.2128 76.044C15.0175 76.2208 14.863 76.4614 14.7493 76.7686C14.6356 77.0758 14.5773 77.4352 14.5773 77.8439C14.5773 78.2526 14.6327 78.6149 14.7493 78.9192C14.863 79.2264 15.0175 79.467 15.2128 79.6438C15.4082 79.8206 15.621 79.951 15.8542 80.0379C16.0875 80.1249 16.3382 80.1684 16.6093 80.1684C17.2012 80.1684 17.7026 79.9539 18.1108 79.5249L17.481 78.925C17.3382 79.0815 17.2012 79.1916 17.0729 79.2554C16.9446 79.3221 16.7901 79.3539 16.6093 79.3539C16.2507 79.3539 15.9679 79.2206 15.7638 78.9511C15.5831 78.725 15.4956 78.3569 15.4956 77.8439C15.4956 77.3367 15.586 76.9715 15.7638 76.7454C15.9679 76.4759 16.2478 76.3425 16.6093 76.3425C16.7901 76.3425 16.9417 76.3744 17.0729 76.4411C17.2041 76.5077 17.3382 76.6179 17.481 76.7715L18.1108 76.1657ZM17.6006 69.9749H18.516V65.4448H17.6006V69.9749ZM17.5743 64.5521H18.5452V63.5869H17.5743V64.5521ZM20.0408 76.6034C20.2157 76.4295 20.4373 76.3454 20.7055 76.3454C20.9825 76.3454 21.207 76.4324 21.379 76.6034C21.5889 76.8121 21.6939 77.2265 21.6939 77.8439C21.6939 78.4641 21.5889 78.8786 21.379 79.0873C21.1983 79.267 20.9738 79.3568 20.7055 79.3568C20.4431 79.3568 20.2216 79.267 20.0408 79.0873C19.8309 78.8786 19.7259 78.4641 19.7259 77.8439C19.7289 77.2265 19.8338 76.8121 20.0408 76.6034ZM20.7085 75.5339C20.1516 75.5339 19.6997 75.7136 19.3528 76.0701C19.1487 76.2788 19.0087 76.5251 18.93 76.8063C18.8513 77.0903 18.8134 77.4352 18.8134 77.8468C18.8134 78.2641 18.8513 78.612 18.93 78.8931C19.0087 79.1742 19.1487 79.4206 19.3528 79.6351C19.6997 79.9916 20.1516 80.1713 20.7085 80.1713C21.2711 80.1713 21.7259 79.9916 22.0758 79.6351C22.2799 79.4206 22.4198 79.1742 22.4985 78.8931C22.5773 78.612 22.6152 78.2641 22.6152 77.8468C22.6152 77.4352 22.5773 77.0903 22.4985 76.8063C22.4198 76.5251 22.2799 76.2788 22.0758 76.0701C21.7259 75.7107 21.2711 75.5339 20.7085 75.5339ZM22.344 68.3402C22.344 68.6619 22.277 68.8851 22.1458 69.0097C21.9592 69.1836 21.6851 69.2677 21.3178 69.2677C20.7434 69.2677 20.4548 69.0532 20.4548 68.6242C20.4548 68.1895 20.7347 67.9721 21.2915 67.9721H22.344V68.3402ZM22.3615 69.9749H23.2595V66.9461C23.2595 65.9085 22.6327 65.3926 21.3819 65.3926C20.9913 65.3926 20.6764 65.4419 20.4344 65.5404C20.1924 65.6389 19.965 65.8099 19.7551 66.0534L20.3499 66.6157C20.4811 66.4563 20.621 66.3403 20.7668 66.2708C20.9125 66.2012 21.1079 66.1693 21.3469 66.1693C21.6997 66.1693 21.9534 66.2389 22.1108 66.3751C22.2653 66.5113 22.344 66.7258 22.344 67.0186V67.3403H21.1487C20.6385 67.3403 20.2478 67.4591 19.9767 67.6968C19.7055 67.9344 19.5685 68.2504 19.5685 68.6445C19.5685 69.0445 19.688 69.3691 19.9271 69.6184C20.2041 69.8937 20.6093 70.0299 21.1487 70.0299C21.4257 70.0299 21.6531 69.9952 21.8367 69.9227C22.0204 69.8502 22.1953 69.7314 22.3615 69.5662V69.9749ZM25.2711 75.5339C24.7726 75.5339 24.3644 75.6556 24.0408 75.8991C23.7172 76.1426 23.5569 76.4817 23.5569 76.9164C23.5569 77.6671 24.0058 78.0845 24.9038 78.1685L25.6327 78.2323C26.0408 78.2728 26.2449 78.4525 26.2449 78.7685C26.2449 78.9771 26.1545 79.1337 25.9708 79.238C25.7872 79.3423 25.5481 79.3945 25.2478 79.3945C24.6851 79.3945 24.2478 79.238 23.9359 78.9221L23.3324 79.522C23.7755 79.9568 24.414 80.1742 25.2478 80.1742C25.8105 80.1742 26.2682 80.0495 26.6181 79.7974C26.9679 79.5481 27.1429 79.1945 27.1429 78.7337C27.1429 77.9598 26.6647 77.5309 25.7055 77.4468L25.0671 77.3946C24.8455 77.3715 24.6851 77.3193 24.586 77.2381C24.4869 77.157 24.4373 77.0381 24.4373 76.8758C24.4373 76.6961 24.5073 76.5541 24.6472 76.4527C24.7872 76.3483 24.9942 76.2962 25.2624 76.2962C25.7464 76.2962 26.1224 76.4063 26.3848 76.6266L26.9592 76.0469C26.5714 75.702 26.0087 75.5339 25.2711 75.5339ZM27.3994 67.7055C27.3994 67.9315 27.3878 68.1257 27.3673 68.2851C27.3469 68.4445 27.3032 68.604 27.242 68.7547C27.1778 68.9083 27.0816 69.0213 26.9504 69.0996C26.8192 69.1778 26.6531 69.2155 26.4548 69.2155C26.2566 69.2155 26.0904 69.1778 25.9563 69.0996C25.8222 69.0213 25.723 68.9083 25.6589 68.7547C25.5948 68.604 25.5539 68.4474 25.5335 68.2851C25.5131 68.1257 25.5015 67.9315 25.5015 67.7055C25.5015 67.4794 25.5131 67.2852 25.5335 67.1258C25.5539 66.9664 25.5977 66.8099 25.6589 66.6621C25.723 66.5142 25.8192 66.4012 25.9504 66.323C26.0816 66.2447 26.2507 66.207 26.4548 66.207C26.6531 66.207 26.8163 66.2447 26.9504 66.323C27.0816 66.4012 27.1808 66.5142 27.242 66.6621C27.3061 66.8099 27.3469 66.9664 27.3673 67.1258C27.3878 67.2852 27.3994 67.4794 27.3994 67.7055ZM27.8018 69.6271C28.1429 69.2822 28.3149 68.6416 28.3149 67.7055C28.3149 66.7751 28.1429 66.1375 27.8018 65.7926C27.5335 65.5259 27.1633 65.3897 26.6968 65.3897C26.1866 65.3897 25.7901 65.5607 25.5015 65.8998V63.613H24.586V69.9749H25.484V69.4937C25.7843 69.8502 26.1866 70.0299 26.688 70.0299C27.1633 70.027 27.5335 69.8937 27.8018 69.6271ZM30.1691 75.5861H29.2886V74.2905H28.3732V75.5861H27.8513V76.2817H28.3732V78.8554C28.3732 79.2061 28.4811 79.5046 28.6968 79.7481C28.9125 79.9916 29.2216 80.1133 29.621 80.1133H30.1691V79.3365H29.793C29.4577 79.3365 29.2886 79.1597 29.2886 78.809V76.2817H30.1691V75.5861ZM32.2478 69.9749H33.1458V65.4448H32.2303V68.204C32.2303 68.5373 32.1429 68.7894 31.965 68.9576C31.7872 69.1286 31.5627 69.2126 31.2857 69.2126C31.0087 69.2126 30.7872 69.1286 30.621 68.9576C30.4519 68.7894 30.3703 68.5373 30.3703 68.204V65.4448H29.4548V68.3402C29.4548 68.8938 29.6064 69.3198 29.9125 69.6184C30.2012 69.8937 30.5743 70.0299 31.035 70.0299C31.5248 70.0299 31.93 69.8589 32.2478 69.5198V69.9749ZM36.0845 70.8763L38.0962 65.4448H37.1166L36.0554 68.6329L34.9679 65.4448H33.9971L35.5889 69.7604L35.3382 70.4647C35.2711 70.6502 35.1953 70.7748 35.105 70.8444C35.0146 70.9139 34.8746 70.9487 34.6822 70.9487H34.449V71.7719H34.8163C35.2187 71.7719 35.5306 71.6617 35.7522 71.4414C35.8892 71.3023 36 71.1139 36.0845 70.8763ZM38.9038 64.5521H39.8746V63.5869H38.9038V64.5521ZM43.9825 69.9749H44.898V67.0794C44.898 66.5258 44.7464 66.0998 44.4402 65.8013C44.1516 65.5259 43.7784 65.3897 43.3178 65.3897C42.8251 65.3897 42.4227 65.5607 42.105 65.8998V65.4448H41.207V69.9749H42.1225V67.2156C42.1225 66.8823 42.2099 66.6302 42.3878 66.4621C42.5656 66.2911 42.7901 66.207 43.0671 66.207C43.344 66.207 43.5656 66.2911 43.7318 66.4563C43.9009 66.6244 43.9825 66.8765 43.9825 67.2156V69.9749ZM44.4723 78.4815C44.4723 78.8032 44.4053 79.0264 44.2741 79.151C44.0875 79.3249 43.8134 79.409 43.4461 79.409C42.8717 79.409 42.5831 79.1945 42.5831 78.7656C42.5831 78.3308 42.863 78.1134 43.4198 78.1134H44.4723V78.4815ZM44.4898 80.1162H45.3878V77.0874C45.3878 76.0527 44.7609 75.5339 43.5102 75.5339C43.1195 75.5339 42.8047 75.5832 42.5627 75.6817C42.3207 75.7803 42.0933 75.9513 41.8834 76.1947L42.4752 76.757C42.6064 76.5947 42.7464 76.4817 42.8921 76.4121C43.0379 76.3425 43.2332 76.3107 43.4723 76.3107C43.8251 76.3107 44.0816 76.3802 44.2362 76.5164C44.3907 76.6527 44.4694 76.8671 44.4694 77.1599V77.4816H43.2741C42.7639 77.4816 42.3732 77.6004 42.102 77.8381C41.828 78.0758 41.6939 78.3917 41.6939 78.7858C41.6939 79.1858 41.8134 79.5104 42.0525 79.7597C42.3265 80.035 42.7347 80.1713 43.2741 80.1713C43.551 80.1713 43.7784 80.1365 43.9621 80.064C44.1458 79.9916 44.3207 79.8727 44.4869 79.7075V80.1162H44.4898ZM48.8076 67.6243C48.8076 67.833 48.7959 68.0098 48.7755 68.1547C48.7551 68.2996 48.7143 68.4474 48.6531 68.5924C48.5918 68.7373 48.4985 68.8503 48.3703 68.9286C48.242 69.0068 48.0787 69.0445 47.8805 69.0445C47.6822 69.0445 47.519 69.0068 47.3848 68.9286C47.2536 68.8503 47.1574 68.7402 47.0962 68.5924C47.035 68.4474 46.9971 68.2996 46.9738 68.1489C46.9504 67.9982 46.9417 67.8243 46.9417 67.6214C46.9417 67.4185 46.9534 67.2446 46.9738 67.0939C46.9942 66.9432 47.035 66.7983 47.0962 66.6505C47.1574 66.5056 47.2507 66.3925 47.3848 66.3143C47.516 66.236 47.6822 66.1983 47.8805 66.1983C48.0787 66.1983 48.242 66.236 48.3703 66.3143C48.4985 66.3925 48.5948 66.5027 48.6531 66.6505C48.7114 66.7954 48.7522 66.9432 48.7755 67.0881C48.7959 67.2388 48.8076 67.4156 48.8076 67.6243ZM49.1983 71.3284C49.5481 70.9748 49.723 70.514 49.723 69.9488V65.4448H48.8338V65.9288C48.5335 65.5723 48.137 65.3926 47.6385 65.3926C47.172 65.3926 46.8047 65.523 46.5423 65.7868C46.3382 65.9896 46.2012 66.236 46.1341 66.5287C46.0641 66.8215 46.0321 67.1867 46.0321 67.6272C46.0321 68.0678 46.0671 68.4358 46.1341 68.7257C46.2041 69.0184 46.3382 69.2648 46.5423 69.4677C46.8105 69.7343 47.1749 69.8705 47.6297 69.8705C48.1195 69.8705 48.5131 69.6966 48.8076 69.3517V69.9314C48.8076 70.2647 48.7201 70.5401 48.5481 70.7574C48.3732 70.9748 48.105 71.082 47.7405 71.082C47.3703 71.082 47.0408 70.9487 46.7522 70.6792L46.1691 71.2588C46.4082 71.4791 46.6502 71.6327 46.8921 71.7226C47.1341 71.8124 47.4286 71.8559 47.7784 71.8559C48.3732 71.8588 48.8484 71.682 49.1983 71.3284ZM49.3032 77.7656C49.3032 77.9743 49.2915 78.1511 49.2711 78.296C49.2507 78.441 49.2099 78.5888 49.1487 78.7337C49.0875 78.8786 48.9942 78.9916 48.8659 79.0699C48.7376 79.1481 48.5743 79.1858 48.3761 79.1858C48.1778 79.1858 48.0146 79.1481 47.8805 79.0699C47.7493 78.9916 47.6531 78.8815 47.5918 78.7337C47.5306 78.5888 47.4927 78.441 47.4694 78.2931C47.449 78.1453 47.4373 77.9685 47.4373 77.7656C47.4373 77.5627 47.449 77.3859 47.4694 77.2381C47.4898 77.0903 47.5306 76.9425 47.5918 76.7947C47.6531 76.6498 47.7464 76.5367 47.8805 76.4585C48.0117 76.3802 48.1778 76.3425 48.3761 76.3425C48.5743 76.3425 48.7376 76.3802 48.8659 76.4585C48.9942 76.5367 49.0904 76.6469 49.1487 76.7947C49.207 76.9396 49.2478 77.0874 49.2711 77.2323C49.2915 77.3802 49.3032 77.557 49.3032 77.7656ZM49.6939 81.4697C50.0437 81.1161 50.2187 80.6553 50.2187 80.0901V75.5861H49.3294V76.0672C49.0292 75.7107 48.6327 75.531 48.1341 75.531C47.6676 75.531 47.3003 75.6614 47.0379 75.9252C46.8338 76.1281 46.6968 76.3744 46.6297 76.6672C46.5598 76.9599 46.5277 77.3251 46.5277 77.7656C46.5277 78.2062 46.5627 78.5714 46.6297 78.8641C46.6997 79.1568 46.8338 79.4032 47.0379 79.6061C47.3061 79.8727 47.6706 80.009 48.1254 80.009C48.6152 80.009 49.0088 79.8351 49.3032 79.4902V80.0698C49.3032 80.4031 49.2157 80.6785 49.0437 80.8958C48.8688 81.1132 48.6006 81.2205 48.2362 81.2205C47.8659 81.2205 47.5364 81.0871 47.2478 80.8176L46.6647 81.3973C46.9038 81.6175 47.1458 81.774 47.3878 81.861C47.6297 81.9508 47.9242 81.9943 48.2741 81.9943C48.8688 82.0001 49.344 81.8233 49.6939 81.4697ZM52.277 77.4816C52.2828 77.2265 52.3207 77.0208 52.3936 76.8643C52.5685 76.4817 52.8688 76.2933 53.3003 76.2933C53.726 76.2933 54.0262 76.4846 54.1983 76.8643C54.2653 77.0063 54.3061 77.212 54.3236 77.4816H52.277ZM52.277 78.1134H55.2332V77.728C55.2332 77.0613 55.0612 76.528 54.7201 76.1281C54.379 75.7281 53.9067 75.5281 53.3003 75.5281C52.7085 75.5281 52.2362 75.731 51.8892 76.1397C51.5423 76.5483 51.3674 77.1164 51.3674 77.841C51.3674 78.6525 51.5539 79.2409 51.9242 79.609C52.2945 79.9771 52.793 80.1626 53.4169 80.1626C53.8018 80.1626 54.1195 80.1046 54.3732 79.9916C54.6268 79.8785 54.8776 79.6988 55.1225 79.4554L54.5394 78.9105C54.3703 79.0786 54.207 79.1974 54.0437 79.267C53.8834 79.3394 53.6793 79.3742 53.4315 79.3742C53.0612 79.3742 52.7726 79.2641 52.5743 79.038C52.379 78.8235 52.277 78.5134 52.277 78.1134ZM59.1399 80.1162H60.0554V77.2207C60.0554 76.6672 59.9038 76.2411 59.5977 75.9426C59.309 75.6701 58.9359 75.531 58.4752 75.531C57.9854 75.531 57.5802 75.702 57.2624 76.0411V75.5861H56.3644V80.1162H57.2799V77.357C57.2799 77.0237 57.3674 76.7715 57.5452 76.6034C57.723 76.4324 57.9475 76.3483 58.2245 76.3483C58.5015 76.3483 58.723 76.4324 58.8892 76.5976C59.0583 76.7657 59.1399 77.0179 59.1399 77.357V80.1162ZM62.3382 78.954C62.1574 78.7279 62.07 78.3598 62.07 77.8468C62.07 77.3396 62.1604 76.9744 62.3382 76.7483C62.5423 76.4788 62.8222 76.3454 63.1837 76.3454C63.3644 76.3454 63.519 76.3773 63.6472 76.444C63.7755 76.5106 63.9125 76.6208 64.0554 76.7744L64.6851 76.1657C64.2828 75.7426 63.7843 75.531 63.1837 75.531C62.9155 75.531 62.6618 75.5716 62.4286 75.6556C62.1953 75.7397 61.9796 75.8701 61.7872 76.044C61.5918 76.2208 61.4373 76.4614 61.3236 76.7686C61.2099 77.0758 61.1516 77.4352 61.1516 77.8439C61.1516 78.2526 61.2099 78.6149 61.3236 78.9192C61.4373 79.2264 61.5918 79.467 61.7872 79.6438C61.9825 79.8206 62.1953 79.951 62.4286 80.0379C62.6618 80.1249 62.9155 80.1684 63.1837 80.1684C63.7755 80.1684 64.277 79.9539 64.6851 79.5249L64.0554 78.925C63.9125 79.0815 63.7755 79.1916 63.6472 79.2554C63.519 79.3221 63.3644 79.3539 63.1837 79.3539C62.8222 79.3568 62.5423 79.2235 62.3382 78.954ZM69.3586 75.5861H68.379L67.3178 78.7743L66.2303 75.5861H65.2595L66.8513 79.9017L66.6006 80.6089C66.5335 80.7944 66.4577 80.919 66.3674 80.9886C66.277 81.0582 66.137 81.09 65.9446 81.09H65.7114V81.9132H66.0787C66.4811 81.9132 66.793 81.803 67.0146 81.5828C67.1516 81.4465 67.2624 81.2581 67.3469 81.0205L69.3586 75.5861Z" fill="#C20A26"/>
</svg>
