<svg width="112" height="71" viewBox="0 0 112 71" fill="none" xmlns="http://www.w3.org/2000/svg">
<path d="M99.6252 0.125977H12.2399C5.5083 0.125977 0 5.63428 0 12.3659V45.8847C0 52.6163 5.5083 58.1246 12.2399 58.1246H30.9566V67.5033C30.9566 68.9985 32.1663 70.2082 33.6615 70.2082H78.207C79.7022 70.2082 80.9119 68.9985 80.9119 67.5033V58.1246H99.6286C106.36 58.1246 111.869 52.6163 111.869 45.8847V12.3659C111.862 5.63428 106.353 0.125977 99.6252 0.125977Z" fill="#FF9400"/>
<path d="M99.6251 6.24585H12.2364C8.87231 6.24585 6.11646 8.9983 6.11646 12.3658V45.8846C6.11646 49.2487 8.86891 52.0045 12.2364 52.0045H99.6217C102.986 52.0045 105.742 49.2521 105.742 45.8846V12.3624C105.742 8.9983 102.989 6.24585 99.6251 6.24585Z" fill="white"/>
<path d="M98.548 12.6921H92.9479C92.5401 12.6921 92.1663 12.9266 91.9896 13.2936L84.2114 29.5025L76.4332 13.2936C76.2565 12.9266 75.8861 12.6921 75.4749 12.6921H69.8749C69.3754 12.6921 69.1239 12.9572 69.1239 13.4873V44.7633C69.1239 45.2934 69.3754 45.5585 69.8749 45.5585H75.3492C75.7876 45.5585 76.1444 45.2017 76.1444 44.7633V26.5835L81.4148 37.6375C81.5915 38.0079 81.9653 38.2424 82.3731 38.2424H86.0498C86.4576 38.2424 86.8313 38.0079 87.008 37.6375L92.2785 26.5835V44.7599C92.2785 45.1983 92.6353 45.5551 93.0736 45.5551H98.548C99.0475 45.5551 99.2989 45.29 99.2989 44.7599V13.4873C99.2989 12.9572 99.0475 12.6921 98.548 12.6921Z" fill="#5229A1"/>
<path d="M63.5341 12.6921H57.6826C57.2884 12.6921 56.9248 12.913 56.7413 13.2596L46.496 32.8326V13.4873C46.496 13.0489 46.1392 12.6921 45.7009 12.6921H40.2266C39.727 12.6921 39.4756 12.9572 39.4756 13.4873V44.7633C39.4756 45.2934 39.7236 45.5585 40.2266 45.5585H46.1222C46.5164 45.5585 46.88 45.3376 47.0635 44.991L57.3088 25.4214V44.7633C57.3088 45.2934 57.5602 45.5585 58.0597 45.5585H63.5341C63.9724 45.5585 64.3292 45.2017 64.3292 44.7633V13.4873C64.3292 13.0455 63.9724 12.6921 63.5341 12.6921Z" fill="#5229A1"/>
<path d="M25.0135 12.6921H13.3138C12.8143 12.6921 12.5629 12.9572 12.5629 13.4873V44.7633C12.5629 45.2934 12.8109 45.5585 13.3138 45.5585H18.8765C19.376 45.5585 19.6275 45.2934 19.6275 44.7633V35.072H25.0135C28.4863 35.072 31.2354 34.0661 33.2674 32.0477C35.2995 30.0326 36.3121 27.3039 36.3121 23.8617C36.3121 20.45 35.2961 17.7349 33.2674 15.7198C31.2354 13.698 28.4829 12.6921 25.0135 12.6921ZM24.0416 28.4933H19.6275V19.2233H24.0416C27.3649 19.2233 29.03 20.7694 29.03 23.8583C29.03 26.9471 27.3649 28.4933 24.0416 28.4933Z" fill="#5229A1"/>
<path d="M43.3936 61.9576L43.3019 61.9711L42.6664 60.527L40.4271 55.9259C40.4135 55.8954 40.3795 55.875 40.3455 55.875H38.7382C38.6873 55.875 38.6499 55.9157 38.6499 55.9633V66.2595C38.6499 66.3105 38.6907 66.3479 38.7382 66.3479H40.5155C40.5664 66.3479 40.6038 66.3071 40.6038 66.2595V60.2551H40.6752L41.3684 61.7435L43.5737 66.2969C43.5873 66.3275 43.6213 66.3479 43.6553 66.3479H45.2218C45.2728 66.3479 45.3102 66.3071 45.3102 66.2595V55.9633C45.3102 55.9124 45.2694 55.875 45.2218 55.875H43.482C43.431 55.875 43.3936 55.9157 43.3936 55.9633V61.9576ZM34.8984 66.3513H36.6756C36.7266 66.3513 36.764 66.3105 36.764 66.2629V55.9667C36.764 55.9157 36.7232 55.8784 36.6756 55.8784H34.8984C34.8474 55.8784 34.8101 55.9191 34.8101 55.9667V66.2629C34.8101 66.3105 34.8474 66.3513 34.8984 66.3513ZM75.2303 61.6721C75.7978 61.4105 76.192 61.0537 76.4163 60.5949C76.6405 60.1396 76.7527 59.5789 76.7527 58.9163C76.7527 57.8425 76.4638 57.0677 75.8828 56.592C75.3017 56.1162 74.4997 55.8784 73.4735 55.8784H70.6837C70.6327 55.8784 70.5953 55.9191 70.5953 55.9667V66.2629C70.5953 66.3139 70.6361 66.3513 70.6837 66.3513H72.4609C72.5119 66.3513 72.5492 66.3105 72.5492 66.2629V62.0187H73.4735L75.0808 66.2935C75.0944 66.3275 75.1284 66.3513 75.1658 66.3513H76.9634C77.0279 66.3513 77.0687 66.2867 77.0449 66.2289L75.2303 61.6721ZM74.4692 60.0988C74.2279 60.3435 73.8541 60.4692 73.3478 60.4692H72.5492V57.4007H73.3104C73.8541 57.4007 74.2415 57.5332 74.4794 57.7983C74.7138 58.0633 74.8328 58.4371 74.8328 58.9197C74.8328 59.46 74.7104 59.8541 74.4692 60.0988ZM60.3569 56.524C60.1224 56.2827 59.8098 56.0992 59.419 55.9735C59.0282 55.8478 58.5423 55.7866 57.9646 55.7866C57.4243 55.7866 56.9554 55.8546 56.5646 55.9905C56.1739 56.1264 55.8578 56.3167 55.6166 56.5614C55.3753 56.806 55.1986 57.1017 55.0831 57.4415C54.9675 57.7813 54.9132 58.1585 54.9132 58.5697V63.8367C54.9132 64.6794 55.1544 65.3251 55.6369 65.7702C56.1195 66.2154 56.8874 66.4396 57.9477 66.4396C59.0079 66.4396 59.7826 66.2052 60.2787 65.7396C60.7715 65.2741 61.0195 64.5843 61.0195 63.6702V58.5527C61.0195 58.1211 60.9686 57.7337 60.8666 57.3939C60.7579 57.0575 60.5914 56.7653 60.3569 56.524ZM59.0588 63.7619C59.0588 64.0848 58.9739 64.3566 58.804 64.5809C58.6341 64.8051 58.352 64.9207 57.951 64.9207C57.5535 64.9207 57.2714 64.8119 57.1083 64.5979C56.9452 64.3838 56.8637 64.1391 56.8637 63.8673V58.6002C56.8637 58.4711 56.8773 58.3284 56.9078 58.1721C56.9384 58.0158 56.9928 57.8764 57.0709 57.7507C57.1491 57.625 57.2612 57.5196 57.4074 57.4347C57.5535 57.3497 57.7404 57.3056 57.968 57.3056C58.3894 57.3056 58.6782 57.4211 58.8278 57.6522C58.9773 57.8832 59.0554 58.1449 59.0554 58.4337V63.7619H59.0588ZM52.9389 57.292C52.769 56.7789 52.4699 56.4153 52.035 56.2012C51.6 55.9871 51.0121 55.8784 50.2646 55.8784H47.2301C47.1791 55.8784 47.1417 55.9191 47.1417 55.9667V66.2629C47.1417 66.3139 47.1825 66.3513 47.2301 66.3513H50.1015C50.7403 66.3513 51.3078 66.2425 51.8073 66.0217C52.3068 65.8008 52.6704 65.3964 52.9015 64.8018C53.0442 64.4416 53.1224 63.9488 53.136 63.327C53.1462 62.7051 53.1495 59.4667 53.1461 58.8211C53.1394 58.1721 53.0714 57.6624 52.9389 57.292ZM51.199 63.592C51.199 63.9964 51.1073 64.3022 50.9272 64.5129C50.7471 64.7236 50.4141 64.8289 49.9316 64.8289H49.099V57.3939H49.9316C50.4277 57.3939 50.7607 57.5027 50.9374 57.7201C51.1107 57.9376 51.199 58.2366 51.199 58.6206V63.592ZM68.1419 56.524C67.9075 56.2827 67.5948 56.0992 67.2041 55.9735C66.8133 55.8478 66.3273 55.7866 65.7497 55.7866C65.2094 55.7866 64.7404 55.8546 64.3497 55.9905C63.9589 56.1264 63.6429 56.3167 63.4016 56.5614C63.1603 56.806 62.9836 57.1017 62.8681 57.4415C62.7526 57.7813 62.6982 58.1585 62.6982 58.5697V63.8367C62.6982 64.6794 62.9394 65.3251 63.422 65.7702C63.9045 66.2154 64.6725 66.4396 65.7327 66.4396C66.7929 66.4396 67.5676 66.2052 68.0638 65.7396C68.5565 65.2741 68.8046 64.5843 68.8046 63.6702V58.5527C68.8046 58.1211 68.7536 57.7337 68.6516 57.3939C68.5463 57.0575 68.3764 56.7653 68.1419 56.524ZM66.8473 63.7619C66.8473 64.0848 66.7623 64.3566 66.5924 64.5809C66.4225 64.8051 66.1404 64.9207 65.7395 64.9207C65.3419 64.9207 65.0599 64.8119 64.8967 64.5979C64.7336 64.3838 64.6521 64.1391 64.6521 63.8673V58.6002C64.6521 58.4711 64.6657 58.3284 64.6963 58.1721C64.7268 58.0158 64.7812 57.8764 64.8594 57.7507C64.9375 57.625 65.0497 57.5196 65.1958 57.4347C65.3419 57.3497 65.5288 57.3056 65.7565 57.3056C66.1778 57.3056 66.4667 57.4211 66.6162 57.6522C66.7657 57.8832 66.8439 58.1449 66.8439 58.4337V63.7619H66.8473Z" fill="white"/>
</svg>
