<svg xmlns="http://www.w3.org/2000/svg" width="361" height="83" viewBox="0 0 361 83" fill="none">
    <g filter="url(#filter0_dddddd_187_1523)">
        <path fill-rule="evenodd" clip-rule="evenodd" d="M2.99953 27.4389C3.1672 19.5889 5.54736 13.5089 10.14 9.19891C14.98 4.65224 21.8 2.37891 30.6 2.37891C38.96 2.37891 45.7067 4.50557 50.84 8.75891C55.9733 13.0122 58.54 18.6222 58.54 25.5889C58.54 29.0356 58.0633 32.1156 57.11 34.8289C56.23 37.4689 54.5067 40.5856 51.94 44.1789C49.7264 47.304 46.3856 51.4407 41.9177 56.5889C41.3531 57.2394 40.7706 57.9061 40.17 58.5889H60.08V77.8389H2V72.1189C12.34 59.9456 19.6733 51.1456 24 45.7189C28.4 40.2922 31.4067 36.2589 33.02 33.6189C34.7067 30.9056 35.55 28.6689 35.55 26.9089C35.55 25.3689 35.11 24.1222 34.23 23.1689C33.35 22.2156 32.1767 21.7389 30.71 21.7389C27.19 21.7389 25.43 23.7922 25.43 27.8989V29.4389H2.99V28.3389C2.99 28.0364 2.99318 27.7364 2.99953 27.4389ZM44.5603 56.5889H62.08V79.8389H0V71.3842L0.475668 70.8242C10.8149 58.6517 18.1306 49.8723 22.4362 44.4721L22.4413 44.4657L22.4465 44.4593C26.8423 39.0379 29.7751 35.0932 31.3134 32.576L31.3174 32.5695L31.3214 32.563C32.9491 29.9446 33.55 28.1003 33.55 26.9089C33.55 25.7719 33.2373 25.0421 32.7604 24.5255C32.3103 24.0379 31.6989 23.7389 30.71 23.7389C29.3457 23.7389 28.6612 24.1224 28.2685 24.5805C27.8253 25.0976 27.43 26.0849 27.43 27.8989V31.4389H0.99V28.3389C0.99 19.6572 3.49987 12.6881 8.77065 7.74121C14.089 2.74516 21.4609 0.378906 30.6 0.378906C39.3044 0.378906 46.5403 2.59898 52.116 7.21887C57.7312 11.8714 60.54 18.0575 60.54 25.5889C60.54 29.2117 60.04 32.5168 59.0022 35.4768C58.0323 38.3786 56.187 41.6736 53.5699 45.338C51.497 48.264 48.4876 52.0184 44.5603 56.5889ZM88.5073 27.4389C88.675 19.5889 91.0552 13.5089 95.6478 9.19891C100.488 4.65224 107.308 2.37891 116.108 2.37891C124.468 2.37891 131.214 4.50557 136.348 8.75891C141.481 13.0122 144.048 18.6222 144.048 25.5889C144.048 29.0356 143.571 32.1156 142.618 34.8289C141.738 37.4689 140.014 40.5856 137.448 44.1789C135.234 47.304 131.893 51.4407 127.425 56.5889C126.861 57.2394 126.278 57.9061 125.678 58.5889H145.588V77.8389H87.5078V72.1189C97.8478 59.9456 105.181 51.1456 109.508 45.7189C113.908 40.2922 116.914 36.2589 118.528 33.6189C120.214 30.9056 121.058 28.6689 121.058 26.9089C121.058 25.3689 120.618 24.1222 119.738 23.1689C118.858 22.2156 117.684 21.7389 116.218 21.7389C112.698 21.7389 110.938 23.7922 110.938 27.8989V29.4389H88.4978V28.3389C88.4978 28.0364 88.501 27.7364 88.5073 27.4389ZM94.2785 7.74121C89.0077 12.6881 86.4978 19.6572 86.4978 28.3389V31.4389H112.938V27.8989C112.938 26.0849 113.333 25.0976 113.776 24.5805C114.169 24.1224 114.854 23.7389 116.218 23.7389C117.207 23.7389 117.818 24.0379 118.268 24.5255C118.745 25.0421 119.058 25.7719 119.058 26.9089C119.058 28.1003 118.457 29.9446 116.829 32.563L116.825 32.5695L116.821 32.576C115.283 35.0932 112.35 39.0379 107.954 44.4593L107.949 44.4657L107.944 44.4721C103.638 49.8723 96.3227 58.6517 85.9835 70.8242L85.5078 71.3842V79.8389H147.588V56.5889H130.068C133.995 52.0187 137.004 48.2646 139.077 45.3386C141.695 41.6737 143.54 38.3785 144.51 35.4764C145.548 32.5165 146.048 29.2115 146.048 25.5889C146.048 18.0575 143.239 11.8714 137.624 7.21887C132.048 2.59898 124.812 0.378906 116.108 0.378906C106.969 0.378906 99.5968 2.74516 94.2785 7.74121ZM214.294 71.2467L214.288 71.2543C207.489 78.8346 198.492 82.5889 187.499 82.5889C176.506 82.5889 167.509 78.8346 160.71 71.2543L160.703 71.2467C153.93 63.6175 150.629 53.6486 150.629 41.5389C150.629 29.4325 153.929 19.4966 160.706 11.9379C167.502 4.28393 176.5 0.488905 187.499 0.488905C198.497 0.488905 207.495 4.28393 214.292 11.9379C221.069 19.4966 224.369 29.4325 224.369 41.5389C224.369 53.6486 221.067 63.6175 214.294 71.2467ZM212.799 13.2689C206.419 6.08224 197.985 2.4889 187.499 2.4889C177.012 2.4889 168.579 6.08224 162.199 13.2689C155.819 20.3822 152.629 29.8056 152.629 41.5389C152.629 53.2722 155.819 62.7322 162.199 69.9189C168.579 77.0322 177.012 80.5889 187.499 80.5889C197.985 80.5889 206.419 77.0322 212.799 69.9189C219.179 62.7322 222.369 53.2722 222.369 41.5389C222.369 29.8056 219.179 20.3822 212.799 13.2689ZM290.456 71.2467L290.45 71.2543C283.651 78.8346 274.654 82.5889 263.661 82.5889C252.668 82.5889 243.671 78.8346 236.872 71.2543L236.865 71.2467C230.092 63.6175 226.791 53.6486 226.791 41.5389C226.791 29.4325 230.091 19.4966 236.868 11.9379C243.664 4.28393 252.662 0.488905 263.661 0.488905C274.66 0.488905 283.659 4.28452 290.455 11.9397C297.231 19.4981 300.531 29.4334 300.531 41.5389C300.531 53.6486 297.229 63.6175 290.456 71.2467ZM288.961 13.2689C282.581 6.08224 274.147 2.4889 263.661 2.4889C253.174 2.4889 244.741 6.08224 238.361 13.2689C231.981 20.3822 228.791 29.8056 228.791 41.5389C228.791 53.2722 231.981 62.7322 238.361 69.9189C244.741 77.0322 253.174 80.5889 263.661 80.5889C274.147 80.5889 282.581 77.0322 288.961 69.9189C295.341 62.7322 298.531 53.2722 298.531 41.5389C298.531 29.8056 295.341 20.3822 288.961 13.2689ZM360.633 30.8489V53.9889H343.693V72.2489H319.343V53.9889H302.403V30.8489H319.343V12.8089H343.693V30.8489H360.633ZM321.343 32.8489H304.403V51.9889H321.343V70.2489H341.693V51.9889H358.633V32.8489H341.693V14.8089H321.343V32.8489ZM181.219 54.8708C182.834 57.7907 184.897 59.0089 187.499 59.0089C190.1 59.0089 192.163 57.7907 193.779 54.8708C195.456 51.8393 196.389 47.4553 196.389 41.5389C196.389 35.6225 195.456 31.2385 193.779 28.207C192.163 25.2872 190.1 24.0689 187.499 24.0689C184.897 24.0689 182.834 25.2872 181.219 28.207C179.542 31.2385 178.609 35.6225 178.609 41.5389C178.609 47.4553 179.542 51.8393 181.219 54.8708ZM257.381 54.8708C258.996 57.7907 261.059 59.0089 263.661 59.0089C266.262 59.0089 268.325 57.7907 269.941 54.8708C271.618 51.8393 272.551 47.4553 272.551 41.5389C272.551 35.6225 271.618 31.2385 269.941 28.207C268.325 25.2872 266.262 24.0689 263.661 24.0689C261.059 24.0689 258.996 25.2872 257.381 28.207C255.704 31.2385 254.771 35.6225 254.771 41.5389C254.771 47.4553 255.704 51.8393 257.381 54.8708ZM187.499 61.0089C184.052 61.0089 181.375 59.2856 179.469 55.8389C177.562 52.3922 176.609 47.6256 176.609 41.5389C176.609 35.4522 177.562 30.6856 179.469 27.2389C181.375 23.7922 184.052 22.0689 187.499 22.0689C190.945 22.0689 193.622 23.7922 195.529 27.2389C197.435 30.6856 198.389 35.4522 198.389 41.5389C198.389 47.6256 197.435 52.3922 195.529 55.8389C193.622 59.2856 190.945 61.0089 187.499 61.0089ZM263.661 61.0089C260.214 61.0089 257.537 59.2856 255.631 55.8389C253.724 52.3922 252.771 47.6256 252.771 41.5389C252.771 35.4522 253.724 30.6856 255.631 27.2389C257.537 23.7922 260.214 22.0689 263.661 22.0689C267.107 22.0689 269.784 23.7922 271.691 27.2389C273.597 30.6856 274.551 35.4522 274.551 41.5389C274.551 47.6256 273.597 52.3922 271.691 55.8389C269.784 59.2856 267.107 61.0089 263.661 61.0089Z" fill="#F30D30"/>
    </g>
    <defs>
        <filter id="filter0_dddddd_187_1523" x="-128" y="-127.621" width="616.633" height="338.21" filterUnits="userSpaceOnUse" color-interpolation-filters="sRGB">
            <feFlood flood-opacity="0" result="BackgroundImageFix"/>
            <feColorMatrix in="SourceAlpha" type="matrix" values="0 0 0 0 0 0 0 0 0 0 0 0 0 0 0 0 0 0 127 0" result="hardAlpha"/>
            <feOffset/>
            <feGaussianBlur stdDeviation="2"/>
            <feComposite in2="hardAlpha" operator="out"/>
            <feColorMatrix type="matrix" values="0 0 0 0 0.760784 0 0 0 0 0.0392157 0 0 0 0 0.14902 0 0 0 0.5 0"/>
            <feBlend mode="normal" in2="BackgroundImageFix" result="effect1_dropShadow_187_1523"/>
            <feColorMatrix in="SourceAlpha" type="matrix" values="0 0 0 0 0 0 0 0 0 0 0 0 0 0 0 0 0 0 127 0" result="hardAlpha"/>
            <feOffset/>
            <feGaussianBlur stdDeviation="4"/>
            <feComposite in2="hardAlpha" operator="out"/>
            <feColorMatrix type="matrix" values="0 0 0 0 0.760784 0 0 0 0 0.0392157 0 0 0 0 0.14902 0 0 0 0.5 0"/>
            <feBlend mode="normal" in2="effect1_dropShadow_187_1523" result="effect2_dropShadow_187_1523"/>
            <feColorMatrix in="SourceAlpha" type="matrix" values="0 0 0 0 0 0 0 0 0 0 0 0 0 0 0 0 0 0 127 0" result="hardAlpha"/>
            <feOffset/>
            <feGaussianBlur stdDeviation="8"/>
            <feComposite in2="hardAlpha" operator="out"/>
            <feColorMatrix type="matrix" values="0 0 0 0 0.760784 0 0 0 0 0.0392157 0 0 0 0 0.14902 0 0 0 0.5 0"/>
            <feBlend mode="normal" in2="effect2_dropShadow_187_1523" result="effect3_dropShadow_187_1523"/>
            <feColorMatrix in="SourceAlpha" type="matrix" values="0 0 0 0 0 0 0 0 0 0 0 0 0 0 0 0 0 0 127 0" result="hardAlpha"/>
            <feOffset/>
            <feGaussianBlur stdDeviation="16"/>
            <feComposite in2="hardAlpha" operator="out"/>
            <feColorMatrix type="matrix" values="0 0 0 0 0.760784 0 0 0 0 0.0392157 0 0 0 0 0.14902 0 0 0 0.5 0"/>
            <feBlend mode="normal" in2="effect3_dropShadow_187_1523" result="effect4_dropShadow_187_1523"/>
            <feColorMatrix in="SourceAlpha" type="matrix" values="0 0 0 0 0 0 0 0 0 0 0 0 0 0 0 0 0 0 127 0" result="hardAlpha"/>
            <feOffset/>
            <feGaussianBlur stdDeviation="32"/>
            <feComposite in2="hardAlpha" operator="out"/>
            <feColorMatrix type="matrix" values="0 0 0 0 0.760784 0 0 0 0 0.0392157 0 0 0 0 0.14902 0 0 0 0.5 0"/>
            <feBlend mode="normal" in2="effect4_dropShadow_187_1523" result="effect5_dropShadow_187_1523"/>
            <feColorMatrix in="SourceAlpha" type="matrix" values="0 0 0 0 0 0 0 0 0 0 0 0 0 0 0 0 0 0 127 0" result="hardAlpha"/>
            <feOffset/>
            <feGaussianBlur stdDeviation="64"/>
            <feComposite in2="hardAlpha" operator="out"/>
            <feColorMatrix type="matrix" values="0 0 0 0 0.760784 0 0 0 0 0.0392157 0 0 0 0 0.14902 0 0 0 0.5 0"/>
            <feBlend mode="normal" in2="effect5_dropShadow_187_1523" result="effect6_dropShadow_187_1523"/>
            <feBlend mode="normal" in="SourceGraphic" in2="effect6_dropShadow_187_1523" result="shape"/>
        </filter>
    </defs>
</svg>