<svg xmlns="http://www.w3.org/2000/svg" width="89" height="33" viewBox="0 0 89 33" fill="none">
    <path d="M76.7158 12.2207L74.3567 14.8645V12.2207H72.6495V18.8947H74.3567V16.0858L76.8819 18.8947H79.0872L75.9813 15.3978L78.8623 12.2207H76.7158Z" fill="black" fill-opacity="0.6"/>
    <path d="M69.6395 14.7098H67.2804V12.2207H65.5723V18.8947H67.2804V16.2632H69.6395V18.8947H71.3466V12.2207H69.6395V14.7098Z" fill="black" fill-opacity="0.6"/>
    <mask id="mask0_120_608" style="mask-type:luminance" maskUnits="userSpaceOnUse" x="9" y="9" width="71" height="15">
        <path d="M79.0881 9.47656H9.94763V23.3692H79.0881V9.47656Z" fill="white"/>
    </mask>
    <g mask="url(#mask0_120_608)">
        <path d="M20.0844 15.8362C20.0436 17.0812 19.8832 17.3298 19.1829 17.3298V18.8947H19.4438C21.1889 18.8947 21.6084 17.9932 21.6729 15.9899L21.7441 13.7732H23.3801V18.8947H25.0872V12.2207H20.203L20.0844 15.8362Z" fill="black" fill-opacity="0.6"/>
        <path d="M29.3308 14.2476H28.0982V12.2197H26.391V18.8946H29.3546C31.2164 18.8946 31.8797 17.6857 31.8797 16.5469C31.8797 15.077 30.9545 14.2467 29.3308 14.2467M29.2008 17.4238H28.0982V15.7289H29.2008C29.7939 15.7289 30.1488 15.9899 30.1488 16.5469C30.1488 17.1514 29.8053 17.4238 29.2008 17.4238Z" fill="black" fill-opacity="0.6"/>
        <path d="M37.4397 12.0661V9.58838H35.7325V12.0661C33.7768 12.2322 32.4606 13.6195 32.4606 15.5516C32.4606 17.4836 33.7768 18.8833 35.7325 19.0494V21.5632H37.4397V19.0494C39.3955 18.8957 40.7117 17.496 40.7117 15.5516C40.7117 13.6072 39.3955 12.2198 37.4397 12.0661ZM35.7325 17.4371C34.7845 17.3071 34.1915 16.5954 34.1915 15.5525C34.1915 14.5096 34.7845 13.7979 35.7325 13.6679V17.4381V17.4371ZM37.4397 17.4371V13.667C38.3877 13.7979 38.9808 14.5087 38.9808 15.5516C38.9808 16.5945 38.3877 17.3062 37.4397 17.4362" fill="black" fill-opacity="0.6"/>
        <path d="M47.114 16.844V14.6035C47.114 12.9675 46.0711 11.936 44.3165 11.936C42.5619 11.936 41.5428 13.0273 41.4593 14.1651H43.1901C43.249 13.9165 43.5099 13.4895 44.3165 13.4895C44.9808 13.4895 45.4069 13.7979 45.4069 14.6035H43.7111C42.1937 14.6035 41.2922 15.3978 41.2922 16.7254C41.2922 18.053 42.2782 19.0608 43.6988 19.0608C44.7407 19.0608 45.3196 18.5682 45.572 18.1953C45.7969 18.6461 46.2951 18.8947 46.947 18.8947H47.5401V17.3536C47.2317 17.3536 47.1131 17.2112 47.1131 16.844M45.4059 16.4056C45.4059 17.1761 44.8603 17.6146 44.1495 17.6146C43.5327 17.6146 43.0468 17.3897 43.0468 16.7254C43.0468 16.0611 43.5802 15.9672 44.0423 15.9672H45.4059V16.4056Z" fill="black" fill-opacity="0.6"/>
        <path d="M54.4295 13.1688H52.5212V11.2842H56.9433V9.58838H50.7314V18.8947H54.4305C56.4811 18.8947 57.655 17.8756 57.655 16.0023C57.655 14.2363 56.4811 13.1688 54.4305 13.1688M54.3479 17.2113H52.5221V14.7924H54.3479C55.2959 14.7924 55.8302 15.2308 55.8302 16.0014C55.8302 16.7719 55.2968 17.2103 54.3479 17.2103" fill="black" fill-opacity="0.6"/>
        <path d="M64.1867 16.844V14.6035C64.1867 12.9675 63.1438 11.936 61.3892 11.936C59.6346 11.936 58.6154 13.0273 58.5319 14.1651H60.2628C60.3216 13.9165 60.5826 13.4895 61.3892 13.4895C62.0534 13.4895 62.4795 13.7979 62.4795 14.6035H60.7837C59.2664 14.6035 58.3649 15.3978 58.3649 16.7254C58.3649 18.053 59.3508 19.0608 60.7714 19.0608C61.8134 19.0608 62.3922 18.5682 62.6446 18.1953C62.8695 18.6461 63.3677 18.8947 64.0197 18.8947H64.6128V17.3536C64.3043 17.3536 64.1857 17.2112 64.1857 16.844M62.4786 16.4056C62.4786 17.1761 61.9329 17.6146 61.2222 17.6146C60.6053 17.6146 60.1195 17.3897 60.1195 16.7254C60.1195 16.0611 60.6528 15.9672 61.1149 15.9672H62.4786V16.4056Z" fill="black" fill-opacity="0.6"/>
        <path d="M19.0765 21.4722H9.94763V23.3691H19.0765V21.4722Z" fill="black" fill-opacity="0.6"/>
        <path d="M16.1716 10.8658C15.9106 10.0896 15.6107 9.47656 14.583 9.47656C13.5553 9.47656 13.2355 10.0867 12.9622 10.8658L10.1372 18.8949H12.0104L12.6624 16.9866H16.2665L16.871 18.8949H18.8628L16.1716 10.8658ZM13.208 15.3743L14.4881 11.569H14.5356L15.7446 15.3743H13.2071H13.208Z" fill="black" fill-opacity="0.6"/>
    </g>
</svg>