<svg xmlns="http://www.w3.org/2000/svg" width="89" height="33" viewBox="0 0 89 33" fill="none">
    <path fill-rule="evenodd" clip-rule="evenodd" d="M77.6934 24.4243H75.1156C74.8066 24.4365 74.4981 24.3847 74.21 24.272C73.9219 24.1593 73.6599 23.9881 73.4402 23.7692C73.221 23.5503 73.0488 23.2883 72.935 22.9997C72.8207 22.711 72.7674 22.4018 72.7779 22.0915V11.2845H74.5733V21.2145C74.5733 21.6961 74.6427 22.186 74.9491 22.3616C75.2377 22.4656 75.5451 22.503 75.85 22.471H77.4956V11.2845H79.29V24.4243H77.6934ZM77.7258 9.59563L76.8348 9.62284H75.2617L74.376 9.60025C74.3447 9.58932 74.3123 9.58411 74.2795 9.58485C73.4266 9.48934 73.5221 8.52089 73.5221 7.94629H78.5462C78.5473 8.53629 78.6058 9.50731 77.7258 9.59563ZM68.2903 24.4243H66.1227C65.8137 24.4362 65.5063 24.3841 65.2182 24.2713C64.9306 24.1586 64.6691 23.9876 64.4499 23.7689C64.2307 23.5503 64.059 23.2887 63.9452 23.0005C63.8309 22.7122 63.7772 22.4035 63.7871 22.0935V13.6281C63.7772 13.318 63.8309 13.0092 63.9447 12.7209C64.0585 12.4325 64.2307 12.1708 64.4494 11.952C64.6686 11.7333 64.9301 11.5622 65.2182 11.4494C65.5058 11.3365 65.8137 11.2844 66.1227 11.2963H68.2903C68.5988 11.2843 68.9072 11.3363 69.1948 11.449C69.4829 11.5618 69.7444 11.7329 69.9636 11.9517C70.1828 12.1704 70.3551 12.4322 70.4688 12.7206C70.5831 13.009 70.6364 13.3179 70.6265 13.6281V22.094C70.6364 22.4041 70.5826 22.7128 70.4683 23.0011C70.3545 23.2893 70.1823 23.5509 69.9631 23.7695C69.7439 23.9881 69.4824 24.159 69.1948 24.2717C68.9067 24.3844 68.5988 24.4363 68.2903 24.4243ZM68.8321 14.4913C68.8321 14.0107 68.7626 13.5202 68.4563 13.3447C68.1676 13.2411 67.8592 13.2041 67.5544 13.2363H66.8586C66.5538 13.2041 66.2459 13.2411 65.9573 13.3447C65.6504 13.5202 65.5815 14.0122 65.5815 14.4913V21.2114C65.5815 21.6925 65.6499 22.1824 65.9573 22.3585C66.2459 22.461 66.5538 22.4979 66.8586 22.4663H67.5544C67.8592 22.4979 68.1671 22.4611 68.4563 22.3585C68.7632 22.1824 68.8321 21.691 68.8321 21.2114V14.4913ZM59.5064 19.104H57.1281V24.4248H55.3329V11.2953H59.5064C59.8152 11.2833 60.1231 11.3354 60.411 11.4482C60.6989 11.561 60.9606 11.7321 61.1797 11.9508C61.3989 12.1696 61.5708 12.4313 61.6848 12.7197C61.7987 13.0081 61.8523 13.3169 61.8422 13.627V16.7717C61.8524 17.0818 61.7989 17.3907 61.685 17.6792C61.571 17.9677 61.3991 18.2295 61.1799 18.4483C60.9608 18.6671 60.6991 18.8383 60.4112 18.9511C60.1232 19.0639 59.8152 19.116 59.5064 19.104ZM60.047 14.4928C60.047 14.0107 59.9769 13.5208 59.6721 13.3462C59.384 13.2419 59.076 13.2045 58.7714 13.2368H57.1281V17.1589H58.7699C59.075 17.1911 59.3833 17.1539 59.6721 17.05C59.979 16.8754 60.047 16.385 60.047 15.9055V14.4933V14.4928ZM51.1558 24.4248H49.3596V13.2363H47.0003V11.285H53.5157V13.2363H51.1558V24.4243V24.4248ZM43.4186 24.4248H41.5998C41.2912 24.4366 40.9835 24.3845 40.6957 24.2717C40.408 24.1589 40.1465 23.9879 39.9275 23.7693C39.7085 23.5506 39.5367 23.2891 39.4227 23.0009C39.3087 22.7126 39.255 22.404 39.265 22.094V13.6306C39.2551 13.3208 39.3088 13.0122 39.4228 12.724C39.5369 12.4359 39.7087 12.1744 39.9277 11.9558C40.1467 11.7372 40.4082 11.5663 40.6959 11.4535C40.9835 11.3407 41.2912 11.2886 41.5998 11.3004H43.4186C43.7271 11.2886 44.0348 11.3407 44.3225 11.4535C44.6101 11.5663 44.8716 11.7372 45.0906 11.9558C45.3096 12.1744 45.4815 12.4359 45.5955 12.724C45.7095 13.0122 45.7632 13.3208 45.7533 13.6306V14.7259H43.9597V14.4913C43.9597 14.0102 43.8886 13.5202 43.5842 13.3447C43.296 13.2415 42.9884 13.2047 42.6841 13.2368H42.3348C42.0307 13.2047 41.7232 13.2415 41.4351 13.3447C41.1282 13.5202 41.0602 14.0122 41.0602 14.4913V21.2124C41.0602 21.6935 41.1277 22.1829 41.4351 22.359C41.7234 22.4613 42.0307 22.4979 42.3348 22.4663H42.6841C42.9883 22.4979 43.2958 22.4612 43.5842 22.359C43.8911 22.1829 43.9597 21.6915 43.9597 21.2124V20.9942H45.7533V22.0935C45.7634 22.4035 45.7096 22.7122 45.5957 23.0003C45.4817 23.2885 45.3098 23.5501 45.0908 23.7687C44.8718 23.9874 44.6104 24.1584 44.3226 24.2712C44.0349 24.384 43.7272 24.4361 43.4186 24.4243V24.4248ZM35.0051 19.0403H32.0898V24.4027H30.2834V11.2825H32.0898V17.0849H35.0051V11.2825H36.7993V24.4022H35.0051V19.0398V19.0403ZM25.4787 24.4248H23.3101C23.0015 24.4366 22.6937 24.3845 22.4061 24.2717C22.1184 24.1589 21.8569 23.9879 21.6379 23.7693C21.4188 23.5506 21.247 23.2891 21.133 23.0009C21.019 22.7126 20.9654 22.404 20.9753 22.094V13.6281C20.9652 13.3181 21.0188 13.0093 21.1327 12.721C21.2466 12.4327 21.4185 12.171 21.6375 11.9522C21.8565 11.7335 22.1181 11.5624 22.4058 11.4495C22.6936 11.3367 23.0014 11.2845 23.3101 11.2963H25.4787C25.7875 11.2843 26.0956 11.3363 26.3835 11.449C26.6715 11.5618 26.9332 11.7329 27.1524 11.9517C27.3716 12.1704 27.5436 12.4322 27.6576 12.7206C27.7716 13.009 27.8252 13.3179 27.815 13.6281V22.094C27.825 22.4041 27.7712 22.7128 27.6571 23.0011C27.543 23.2893 27.371 23.5509 27.1518 23.7695C26.9327 23.9881 26.671 24.159 26.3832 24.2717C26.0953 24.3844 25.7874 24.4363 25.4787 24.4243V24.4248ZM26.0204 14.4928C26.0204 14.0107 25.9503 13.5208 25.6444 13.3462C25.3563 13.2419 25.0483 13.2046 24.7437 13.2368H24.04C23.7354 13.2045 23.4275 13.2419 23.1393 13.3462C22.8324 13.5208 22.7634 14.0107 22.7634 14.4928V21.2114C22.7634 21.693 22.8324 22.1829 23.1393 22.358C23.4277 22.4612 23.7354 22.4984 24.04 22.4669H24.7437C25.0483 22.4983 25.356 22.4611 25.6444 22.358C25.9513 22.1829 26.0204 21.6904 26.0204 21.2114V14.4923V14.4928ZM11.5906 22.4715H11.7154V13.6178C11.7051 13.3074 11.7586 12.9981 11.8726 12.7094C11.9866 12.4206 12.1588 12.1586 12.3782 11.9396C12.5976 11.7206 12.8597 11.5494 13.148 11.4367C13.4363 11.324 13.7447 11.2722 14.0538 11.2845H18.2288V22.471H18.37C19.5018 22.471 20.0353 23.3377 20.0123 24.4222H9.94734C9.92483 23.3377 10.4588 22.471 11.5906 22.471V22.4715ZM13.505 22.4715H16.4321V13.2363H14.7811C14.4762 13.2038 14.168 13.2408 13.8794 13.3447C13.5725 13.5202 13.5035 14.0122 13.5035 14.4923V22.471L13.505 22.4715Z" fill="black" fill-opacity="0.6"/>
</svg>