<svg xmlns="http://www.w3.org/2000/svg" width="89" height="33" viewBox="0 0 89 33" fill="none">
    <path d="M9.2666 19.5581C10.4804 22.4078 13.3057 24.4069 16.5984 24.4069C15.3846 21.5559 12.5593 19.5581 9.2666 19.5581Z" fill="black" fill-opacity="0.6"/>
    <path d="M16.599 24.4065C19.0178 24.4065 21.1005 22.9683 22.0402 20.9009C19.6219 20.9009 17.5393 22.3391 16.599 24.4065Z" fill="black" fill-opacity="0.6"/>
    <path fill-rule="evenodd" clip-rule="evenodd" d="M16.5992 20.4215C19.8987 20.4215 22.5736 17.7459 22.5736 14.4441C22.5736 11.1436 19.8987 8.4668 16.5992 8.4668C13.2991 8.4668 10.6248 11.1436 10.6248 14.4441C10.6248 17.7459 13.2991 20.4215 16.5992 20.4215ZM16.5992 17.4332C18.2486 17.4332 19.5861 16.0951 19.5861 14.4442C19.5861 12.7934 18.2486 11.4559 16.5992 11.4559C14.9491 11.4559 13.6116 12.7934 13.6116 14.4442C13.6116 16.0951 14.9491 17.4332 16.5992 17.4332Z" fill="black" fill-opacity="0.6"/>
    <path d="M55.0378 14.4444H57.5368V24.1358H55.0378V20.3615H50.6743V24.1358H48.1753V14.4444H50.6743V18.016H55.0378V14.4444ZM58.7139 16.8483H61.8252V24.1358H64.3242V16.8483H67.3978V14.4444H58.7139V16.8483ZM79.5154 22.0278V24.0879C79.0894 24.3012 78.5572 24.4075 77.9356 24.4075C76.6375 24.4075 75.9839 23.8423 75.722 22.932L75.6804 22.9929C74.9245 23.9424 73.8786 24.4075 72.5226 24.4075C71.2238 24.4075 70.1195 23.9231 69.1899 22.9344C68.2795 21.9458 67.8148 20.7246 67.8148 19.2901C67.8148 17.8568 68.2795 16.6549 69.1899 15.6663C70.1195 14.6782 71.2238 14.1733 72.5226 14.1733C73.8185 14.1733 74.8312 14.5999 75.5781 15.4685V14.445H78.0773V21.3004C78.0773 21.8861 78.3437 22.1877 78.8764 22.1877C79.1254 22.1871 79.3384 22.1342 79.5154 22.0278ZM75.6804 19.2894C75.6804 18.496 75.4286 17.8369 74.9054 17.3327C74.4018 16.8097 73.7623 16.5573 72.9873 16.5573C72.2123 16.5573 71.5734 16.8091 71.0692 17.3327C70.5657 17.8369 70.3139 18.496 70.3139 19.2894C70.3139 20.0848 70.5657 20.7439 71.0692 21.2674C71.5734 21.7711 72.2123 22.0229 72.9873 22.0229C73.7623 22.0229 74.4018 21.7711 74.9054 21.2674C75.4286 20.7439 75.6804 20.0848 75.6804 19.2894ZM27.587 14.4444L27.5124 18.0857C27.495 19.56 27.4416 20.2881 27.2284 21.1219C27.0332 21.9215 26.6603 22.1473 26.0755 22.1473C25.8797 22.1473 25.7026 22.1292 25.5603 22.0757V24.1358C25.7554 24.2421 26.0755 24.295 26.5012 24.295C28.2582 24.2421 29.1103 23.4126 29.5366 21.9209C29.8381 20.8552 29.8915 20.0381 29.945 18.8132L30.0009 16.8476H33.104V24.1352H35.603V14.4438H27.587V14.4444ZM39.6229 19.9443C39.892 21.5982 41.2027 22.1398 42.5327 22.1398C43.414 22.1398 44.3375 21.7953 44.9056 21.2799L46.4469 22.8313C45.5264 23.851 44.2449 24.4075 42.4935 24.4075C40.0417 24.4075 37.084 22.9593 37.084 19.2901C37.084 15.6215 39.9324 14.1733 42.3512 14.1733C45.4108 14.1733 46.6768 15.6116 46.6768 17.2239C46.6774 19.8597 43.3288 21.0772 39.6229 19.9443ZM43.964 17.5093C43.964 16.7575 43.2207 16.4217 42.3879 16.4217C41.1157 16.4217 40.0132 16.959 39.6782 18.3419C42.2704 19.0911 43.964 18.5321 43.964 17.5093Z" fill="black" fill-opacity="0.6"/>
</svg>