<svg xmlns="http://www.w3.org/2000/svg" width="89" height="33" viewBox="0 0 89 33" fill="none">
    <path d="M40.0387 19.5673H35.3817L41.3271 11.7C41.4567 11.5273 41.4207 11.2754 41.2479 11.1458C41.1832 11.0954 41.0968 11.0666 41.0104 11.0666H32.4089C31.6531 11.0666 31.0341 11.6856 31.0341 12.4414C31.0341 13.1972 31.6531 13.8162 32.4089 13.8162H36.2742L30.3071 21.6907C30.1704 21.8635 30.2064 22.1082 30.3791 22.245C30.4511 22.3025 30.5375 22.3313 30.6238 22.3241H40.0315C40.7873 22.2881 41.3703 21.6403 41.3343 20.8774C41.2983 20.172 40.7369 19.6105 40.0315 19.5745V19.5673H40.0387ZM70.0971 11.0666C69.3414 11.0666 68.7223 11.6856 68.7223 12.4414V17.0553L61.2941 11.1602C61.1286 11.0234 60.8766 11.045 60.7399 11.2178C60.6823 11.2898 60.6535 11.3761 60.6535 11.4697V20.9493C60.6535 21.7051 61.2725 22.3241 62.0283 22.3241C62.7841 22.3241 63.4031 21.7123 63.4031 20.9493V16.3355L70.8313 22.2378C71.0041 22.3745 71.256 22.3457 71.3928 22.173C71.4504 22.101 71.4791 22.0146 71.4791 21.9283V12.4414C71.4719 11.6784 70.8601 11.0666 70.0971 11.0666ZM50.4397 19.8265C47.2942 19.8265 44.9477 18.1709 44.9477 16.6882C44.9477 15.2054 47.3014 13.5499 50.4397 13.5499C53.5852 13.5499 55.9317 15.2054 55.9317 16.6882C55.9317 18.1709 53.5924 19.8265 50.4397 19.8265ZM50.4397 10.8003C45.8906 10.8003 42.1981 13.4347 42.1981 16.6882C42.1981 19.9416 45.8906 22.5761 50.4397 22.5761C54.9887 22.5761 58.6813 19.9416 58.6813 16.6882C58.6813 13.4347 54.9887 10.8003 50.4397 10.8003ZM23.3828 19.8337C21.6481 19.8337 20.2373 18.4301 20.2373 16.6954C20.2373 14.9607 21.6409 13.5499 23.3756 13.5499C25.1103 13.5499 26.521 14.9535 26.521 16.6882V16.6954C26.521 18.4229 25.1174 19.8265 23.3828 19.8337ZM23.3828 10.8003C20.1293 10.8003 17.4949 13.4347 17.4877 16.6882C17.4877 19.9416 20.1221 22.5761 23.3756 22.5833C26.629 22.5833 29.2634 19.9488 29.2706 16.6954V16.6882C29.2634 13.4347 26.629 10.8003 23.3828 10.8003Z" fill="black" fill-opacity="0.6"/>
</svg>