<svg xmlns="http://www.w3.org/2000/svg" width="89" height="33" viewBox="0 0 89 33" fill="none">
    <path d="M27.6988 11.2666C28.1164 11.8133 28.47 12.4072 28.7524 13.0365L20.7431 19.0136L17.3959 16.8894V14.3338L20.7431 16.4581L27.6988 11.2666Z" fill="black" fill-opacity="0.6"/>
    <path d="M13.9805 16.7096C13.9805 16.5949 13.9833 16.481 13.9888 16.3677L11.9603 16.2671C11.9534 16.4139 11.9492 16.5621 11.9492 16.7116C11.9484 17.8803 12.1754 19.0375 12.6174 20.1171C13.0593 21.1967 13.7074 22.1773 14.5246 23.0026L15.9635 21.5466C15.3345 20.9124 14.8355 20.1586 14.4952 19.3285C14.1549 18.4983 13.98 17.6083 13.9805 16.7096Z" fill="black" fill-opacity="0.6"/>
    <path d="M20.7424 9.86415C20.8556 9.86415 20.9681 9.86834 21.08 9.87393L21.1815 7.81957C21.0361 7.81258 20.8897 7.80909 20.7424 7.80909C19.5875 7.80766 18.4438 8.0372 17.3768 8.48451C16.3098 8.93182 15.3407 9.5881 14.5249 10.4157L15.9638 11.8724C16.5903 11.2354 17.335 10.73 18.1551 10.3854C18.9752 10.0407 19.8544 9.86358 20.7424 9.86415Z" fill="black" fill-opacity="0.6"/>
    <path d="M20.7426 23.5544C20.6294 23.5544 20.5169 23.5544 20.4044 23.5453L20.3029 25.599C20.4488 25.6064 20.5954 25.6102 20.7426 25.6102C21.897 25.6114 23.0402 25.3817 24.1066 24.9342C25.173 24.4868 26.1416 23.8304 26.9567 23.0029L25.5206 21.5469C24.894 22.1836 24.1494 22.6886 23.3294 23.0331C22.5095 23.3777 21.6304 23.5548 20.7426 23.5544Z" fill="black" fill-opacity="0.6"/>
    <path d="M24.5548 11.0585L26.2643 9.78279C24.7018 8.50185 22.7513 7.80455 20.7407 7.80812V9.86388C22.1022 9.86217 23.4321 10.2787 24.5548 11.0585Z" fill="black" fill-opacity="0.6"/>
    <path d="M29.5334 16.7094C29.5345 16.1746 29.4883 15.6407 29.3953 15.1143L27.5028 16.5262C27.5028 16.5871 27.5028 16.6479 27.5028 16.7094C27.5033 17.6658 27.3052 18.6117 26.9216 19.4857C26.5378 20.3596 25.977 21.1422 25.2754 21.7827L26.6404 23.3101C27.5525 22.4764 28.2814 21.4581 28.7798 20.321C29.2782 19.1839 29.5349 17.9534 29.5334 16.7094Z" fill="black" fill-opacity="0.6"/>
    <path d="M20.742 23.5543C19.7972 23.5546 18.8628 23.3541 17.9994 22.9656C17.1361 22.5772 16.3629 22.0095 15.73 21.2993L14.222 22.6805C15.0454 23.6041 16.0513 24.3421 17.1745 24.8468C18.2977 25.3515 19.5131 25.6115 20.742 25.61V23.5543Z" fill="black" fill-opacity="0.6"/>
    <path d="M16.2079 11.6357L14.8436 10.1084C13.9312 10.9419 13.2021 11.9602 12.7034 13.0973C12.2048 14.2344 11.9479 15.4649 11.9492 16.709H13.9805C13.9801 15.7527 14.1782 14.8068 14.5619 13.9328C14.9456 13.0589 15.5064 12.2763 16.2079 11.6357Z" fill="black" fill-opacity="0.6"/>
    <mask id="mask0_120_630" style="mask-type:luminance" maskUnits="userSpaceOnUse" x="34" y="10" width="44" height="13">
        <path d="M77.213 10.8442H34.2578V22.6835H77.213V10.8442Z" fill="white"/>
    </mask>
    <g mask="url(#mask0_120_630)">
        <path d="M62.6849 12.8986L65.2007 11.0435H56.7809V22.1914H65.2007V20.3363H59.1834V17.4807H64.3164V15.6255H59.1834V12.8986H62.6849Z" fill="black" fill-opacity="0.6"/>
        <path d="M51.1163 15.3864H48.1931V12.8979H52.8584L55.3726 11.0371H45.792V22.1851H50.8071C53.6187 22.1851 55.2324 20.9096 55.2324 18.6851C55.2324 16.557 53.7708 15.3864 51.1163 15.3864ZM50.6989 20.3293H48.1931V17.2404H50.6989C52.2197 17.2404 52.9327 17.758 52.9327 18.7849C52.9327 19.8117 52.174 20.3293 50.6989 20.3293Z" fill="black" fill-opacity="0.6"/>
        <path d="M71.392 11.0415H66.8088V22.1895H69.211V19.0314H71.392C74.3161 19.0314 76.125 17.4913 76.125 15.0305C76.125 12.5698 74.3161 11.0415 71.392 11.0415ZM71.3413 17.1748H69.211V12.8981H71.3413C72.8794 12.8981 73.7283 13.658 73.7283 15.0373C73.7283 16.4166 72.8794 17.1748 71.3413 17.1748Z" fill="black" fill-opacity="0.6"/>
        <path d="M42.1878 19.559C41.5672 19.8954 40.8719 20.0696 40.1663 20.0654C38.0543 20.0654 36.5222 18.5562 36.5222 16.4781C36.5222 14.3999 38.0543 12.8874 40.1663 12.8874C40.9279 12.8745 41.6738 13.1056 42.2948 13.5472L43.9752 12.3085L43.8616 12.2277C42.8813 11.3651 41.5716 10.9082 40.0724 10.9082C38.4464 10.9082 36.9719 11.4558 35.9192 12.452C35.3869 12.9649 34.966 13.5822 34.6825 14.2652C34.399 14.9483 34.2592 15.6824 34.2718 16.422C34.2605 17.169 34.3997 17.9107 34.6811 18.6027C34.9624 19.2947 35.3801 19.9229 35.9093 20.4497C36.967 21.4855 38.4381 22.0562 40.0527 22.0562C41.7396 22.0562 43.2141 21.4673 44.2125 20.3953L42.7084 19.2737L42.1878 19.559Z" fill="black" fill-opacity="0.6"/>
    </g>
</svg>