<svg xmlns="http://www.w3.org/2000/svg" width="89" height="33" viewBox="0 0 89 33" fill="none">
    <path d="M14.9231 19.4895C14.8887 19.4865 14.8597 19.513 14.8574 19.5464C14.8552 19.5812 14.8811 19.6108 14.9162 19.6115C14.9497 19.6146 14.9795 19.5888 14.9825 19.5547C14.9825 19.5213 14.9581 19.4903 14.9231 19.4895Z" fill="black" fill-opacity="0.6"/>
    <path d="M19.0279 23.5907L18.6793 23.4581L18.7754 23.1003L18.8814 22.71C18.8814 22.71 18.2635 23.0427 17.3932 23.2929C17.146 23.3633 16.9591 23.3952 16.9591 23.3952V23.6605C16.9591 23.6605 16.4938 23.7408 16.0232 23.7408H16.0179H16.011H16.0019H15.9965C15.5258 23.7408 15.0606 23.6605 15.0606 23.6605V23.3952C15.0606 23.3952 14.8729 23.3633 14.6266 23.2929C13.7562 23.0427 13.1391 22.71 13.1391 22.71L13.2436 23.1003L13.342 23.4581L12.9926 23.5907L12.6051 23.7348C13.0498 23.9478 13.6654 24.2585 14.2291 24.4116L14.0964 24.7724C14.0964 24.7724 14.8111 25.0961 16.0019 25.0992V25.0999H16.0057H16.011H16.0156H16.0186V25.0992C17.2109 25.0961 17.9248 24.7724 17.9248 24.7724L17.7913 24.4116C18.3551 24.2585 18.9721 23.9478 19.4146 23.7348L19.0279 23.5907ZM13.0186 23.759L13.5922 23.5695L13.4229 23.02C13.6753 23.1625 14.2421 23.3762 14.5701 23.4755L14.2932 24.2312C13.7867 24.0926 13.3649 23.9311 13.0186 23.759ZM16.011 24.9097C15.3451 24.9097 14.5846 24.7573 14.3611 24.6785L14.7013 23.7636C14.9835 23.8454 15.5709 23.9326 15.9972 23.9296H15.998H16.011H16.0224H16.024C16.4504 23.9326 17.0362 23.8454 17.3199 23.7636L17.6594 24.6785C17.4359 24.7581 16.6761 24.9097 16.011 24.9097ZM17.7273 24.2312L17.4512 23.4755C17.7799 23.3762 18.3452 23.1625 18.5984 23.02L18.4298 23.5695L19.0027 23.759C18.6556 23.9311 18.2361 24.0926 17.7273 24.2312Z" fill="black" fill-opacity="0.6"/>
    <path d="M16.0102 9.3102C16.7196 9.3102 17.2871 9.54365 17.6006 9.79302C17.6006 9.79302 17.6937 9.23593 18.0117 8.74399L17.4404 8.80841L17.1414 8.17699L16.567 8.47107L16.0102 7.92383L15.4548 8.47107L14.8797 8.17699L14.5815 8.80841L14.0101 8.74399C14.3282 9.23593 14.4213 9.79302 14.4213 9.79302C14.7355 9.54365 15.3016 9.3102 16.0102 9.3102ZM14.5555 9.02973L14.7142 9.04641L14.7828 8.90315L14.9827 8.47867L15.3534 8.66893L15.4968 8.74169L15.6113 8.62953L16.0109 8.23537L16.4114 8.62953L16.5258 8.74169L16.6692 8.66893L17.0377 8.47867L17.2398 8.90315L17.3069 9.04641L17.4656 9.02973L17.6166 9.01153C17.5472 9.16695 17.4961 9.31398 17.4595 9.43601C17.0598 9.21469 16.5396 9.08885 16.0094 9.08885C15.4815 9.08885 14.9621 9.21469 14.5609 9.43601C14.5235 9.31398 14.4732 9.16617 14.4037 9.01153L14.5555 9.02973Z" fill="black" fill-opacity="0.6"/>
    <path d="M24.3328 16.7031C25.2505 16.7031 25.5571 15.7753 25.5701 15.7359L25.6723 15.4092L25.3283 15.4198H25.3267C25.2055 15.4198 24.1933 15.3933 23.4754 14.4867L23.4075 14.4026C22.9385 13.8098 22.4937 13.2466 21.6989 12.9897C21.7218 12.9692 21.7546 12.9434 21.7996 12.9146C22.2214 12.6387 22.467 12.3037 22.5288 11.9148C22.6188 11.3296 22.2436 10.8635 22.2267 10.8445L21.9712 10.5307L21.8118 10.9029C21.8012 10.9264 21.5326 11.5222 20.9682 11.5222H20.9262C20.8873 11.5199 20.8507 11.5183 20.8141 11.5153C20.8339 11.2493 20.7851 10.8377 20.4098 10.4519C19.959 9.9872 19.4052 9.91748 19.1153 9.91748C18.9605 9.91748 18.8575 9.93642 18.8468 9.93794L18.4608 10.0137L18.6988 10.3253C18.8858 10.5656 19.0551 11.009 18.8544 11.241C18.7904 11.3145 18.6584 11.3744 18.5318 11.4342C18.2717 11.5533 17.917 11.7185 17.917 12.14C17.917 12.4128 18.1298 12.6978 18.5158 12.9404C19.6584 13.6544 20.3633 14.3995 20.6676 15.222C21.1383 16.4871 20.5242 17.2087 19.9277 17.5885L19.66 17.7598L19.8942 17.9735C19.9254 18.0008 20.2122 18.2517 20.6356 18.2881C20.7157 18.2934 20.7927 18.2979 20.8644 18.2979C21.136 18.2979 21.3671 18.2555 21.5548 18.1987C21.5029 18.2889 21.4396 18.3806 21.3595 18.4731C21.0185 18.8657 20.599 19.0446 19.9956 19.0537L19.7713 19.0575L19.7538 19.2811C19.7515 19.3258 19.7347 19.7404 20.1298 20.0929C20.1901 20.1475 20.2633 20.1922 20.3396 20.2294C20.0719 20.4689 19.7996 20.8858 19.7469 21.6006C19.7027 22.1971 19.5593 22.4177 19.5578 22.42L19.3098 22.7959L19.7576 22.802C20.4975 22.802 21.0643 22.5989 21.4571 22.1971C21.689 21.9591 21.8217 21.6908 21.9003 21.4528C22.0292 21.5619 22.1955 21.6574 22.4121 21.7082C22.4945 21.7271 22.5845 21.7378 22.6814 21.7378C22.8904 21.7378 23.0651 21.6938 23.0849 21.6893L23.371 21.6135L23.2443 21.3481C23.2352 21.3269 22.9964 20.7948 23.2535 20.0353C23.3641 19.7071 23.4205 19.413 23.448 19.1841C23.628 19.2773 23.869 19.3546 24.181 19.3554C24.8889 19.3554 25.2009 18.8301 25.2154 18.8081L25.355 18.567L25.0964 18.4609C24.2527 18.113 24.0659 17.1784 24.0285 16.672C24.1048 16.6864 24.1917 16.7001 24.2901 16.7031H24.3328ZM25.0018 18.6846C25.0018 18.6846 24.7547 19.1113 24.1879 19.1113H24.181C23.5006 19.1075 23.226 18.6952 23.226 18.6952C23.226 18.6952 23.2657 19.2318 23.0201 19.9557C22.7249 20.8282 23.0223 21.452 23.0223 21.452C23.0223 21.452 22.8637 21.4945 22.6806 21.4945C22.6105 21.4945 22.5372 21.4876 22.4686 21.4694C21.9003 21.3353 21.7584 20.8213 21.7584 20.8213C21.7584 20.8213 21.811 22.558 19.7736 22.558H19.7576C19.7576 22.558 19.9369 22.3154 19.9902 21.6172C20.0871 20.3286 20.9651 20.152 20.9651 20.152C20.9651 20.152 20.4968 20.0937 20.2938 19.9125C19.9765 19.6267 19.9987 19.2963 19.9987 19.2963C20.7157 19.2864 21.1848 19.0438 21.5425 18.6322C21.9301 18.1865 21.9941 17.7067 21.9941 17.7067C21.9941 17.7067 21.6089 18.0539 20.8636 18.0539C20.7981 18.0539 20.7279 18.0508 20.6562 18.044C20.3038 18.016 20.0597 17.7931 20.0597 17.7931C20.8354 17.2989 21.38 16.4363 20.8972 15.1371C20.5105 14.0963 19.5814 13.3186 18.6462 12.7327C18.335 12.5394 18.1618 12.3249 18.1618 12.14C18.1618 11.7048 18.7843 11.6912 19.0398 11.3986C19.3343 11.059 19.1497 10.5079 18.8941 10.1767C18.8941 10.1767 18.9803 10.1593 19.1161 10.1593C19.3854 10.1593 19.8514 10.2267 20.2344 10.6209C20.7431 11.1439 20.5318 11.7132 20.5318 11.7132L20.6684 11.7397C20.75 11.7571 20.8309 11.7602 20.9148 11.7639C20.9331 11.7639 20.9513 11.7647 20.9697 11.7647C21.7088 11.7647 22.0391 10.9969 22.0391 10.9969C22.0391 10.9969 22.8248 11.9573 21.6684 12.7092C21.4693 12.8381 21.3816 12.9571 21.4045 13.0844L21.4228 13.1678L21.5052 13.1822C22.3435 13.4081 22.7676 13.9826 23.2855 14.6361C24.072 15.6298 25.1849 15.6616 25.3222 15.6616H25.3367C25.3367 15.6616 25.0827 16.4583 24.3344 16.4583C24.3221 16.4583 24.3115 16.4583 24.2985 16.4575C23.9545 16.4454 23.7783 16.3143 23.7783 16.3143C23.7783 16.3143 23.6433 18.1236 25.0018 18.6846Z" fill="black" fill-opacity="0.6"/>
    <path d="M22.7212 13.0901C23.0637 13.2712 23.2628 13.5138 23.4375 13.729C23.6091 13.939 23.7723 14.1414 24.0271 14.2255C24.1178 14.2566 24.214 14.271 24.3116 14.271C24.6946 14.271 25.079 14.0383 25.2247 13.7161L25.3712 13.3932L25.0164 13.372C24.9997 13.3713 24.5435 13.3303 24.0355 12.8141C23.8264 12.6026 23.574 12.4912 23.3017 12.4912C22.9691 12.4912 22.7227 12.6564 22.6953 12.6731L22.3688 12.9013L22.7212 13.0901ZM23.3024 12.7353C23.4733 12.7353 23.6724 12.7929 23.8608 12.9862C24.4519 13.5827 25.0019 13.6161 25.0019 13.6161C24.902 13.8359 24.6122 14.0292 24.3123 14.0292C24.2429 14.0292 24.1735 14.0186 24.1041 13.9951C23.6976 13.8586 23.5519 13.2522 22.8371 12.8748C22.8371 12.8748 23.0369 12.7353 23.3024 12.7353Z" fill="black" fill-opacity="0.6"/>
    <path d="M22.8816 16.3105V16.3226C22.6757 14.6717 21.4689 13.4793 20.1264 12.7539C20.002 12.688 19.8876 12.6319 19.7763 12.5781C20.1851 12.641 20.8434 12.6486 21.3515 12.2104C21.3515 12.2104 20.5742 12.7789 18.9814 12.2627C19.4223 12.547 20.2789 12.948 21.0608 13.5976C23.0159 15.3046 21.6169 16.97 21.6169 16.97C22.3194 16.2415 22.3484 15.4607 22.1417 14.8233C22.5116 15.435 22.7481 16.1778 22.7115 17.0935C22.6574 18.4056 21.9319 19.5403 21.1684 20.4522C20.8015 20.8948 20.7191 21.4384 20.7191 21.4384C20.7191 21.4384 20.8671 20.9585 21.2919 20.4651C22.1104 19.513 22.8099 18.5239 22.9014 17.0988C22.9861 17.3573 23.3347 18.0766 23.8877 18.3473C23.8893 18.348 23.1944 17.9318 22.8816 16.3105Z" fill="black" fill-opacity="0.6"/>
    <path d="M12.4624 22.4195C12.4616 22.4172 12.3198 22.1967 12.274 21.6001C12.2206 20.8853 11.949 20.4684 11.6805 20.2289C11.7584 20.1925 11.83 20.1478 11.8903 20.0924C12.2847 19.74 12.2679 19.3254 12.2656 19.2806L12.2504 19.057L12.0246 19.0532C11.4227 19.0433 11.0024 18.8644 10.6614 18.4726C10.5821 18.3801 10.518 18.2884 10.4661 18.1982C10.6538 18.255 10.8834 18.2975 11.1557 18.2975C11.229 18.2975 11.3045 18.2929 11.3846 18.2876C11.8079 18.2512 12.0948 18.0011 12.1268 17.9731L12.361 17.7593L12.0932 17.588C11.4944 17.2075 10.8826 16.4859 11.3525 15.2215C11.6569 14.3991 12.361 13.654 13.5051 12.9399C13.8911 12.6974 14.1024 12.4123 14.1024 12.1395C14.1024 11.718 13.7485 11.552 13.4884 11.4338C13.3618 11.3739 13.2298 11.314 13.1657 11.2405C12.9643 11.0093 13.1344 10.5651 13.3206 10.3248L13.5601 10.0132L13.1726 9.93745C13.1611 9.93597 13.0597 9.91699 12.9041 9.91699C12.6142 9.91699 12.0619 9.98675 11.6104 10.4514C11.2343 10.838 11.1847 11.2496 11.2038 11.5149C11.1672 11.5179 11.1306 11.5194 11.0924 11.5217H11.0513C10.4853 11.5217 10.2175 10.9259 10.2069 10.9024L10.0474 10.5302L9.78957 10.8441C9.77508 10.863 9.39825 11.3299 9.4898 11.9143C9.55084 12.3032 9.79643 12.6382 10.2183 12.9142C10.2641 12.943 10.2961 12.9687 10.319 12.9892C9.52486 13.2461 9.08096 13.8101 8.6118 14.4029L8.54394 14.487C7.82693 15.3936 6.81241 15.4201 6.69114 15.4201L6.34558 15.4095L6.45083 15.7362C6.46303 15.7756 6.76891 16.7034 7.68734 16.7034L7.73155 16.7019C7.82843 16.6989 7.9154 16.686 7.99321 16.6708C7.95504 17.1764 7.76819 18.111 6.92374 18.4597L6.66595 18.5658L6.80554 18.8069C6.81928 18.8288 7.13203 19.3541 7.84142 19.3541C8.15109 19.3534 8.39211 19.2761 8.57292 19.1828C8.60039 19.4118 8.65681 19.7059 8.76743 20.0341C9.02447 20.7936 8.78499 21.3257 8.77584 21.3469L8.64923 21.6123L8.936 21.688C8.95507 21.6925 9.1313 21.7366 9.33951 21.7366C9.43714 21.7366 9.52719 21.7259 9.60804 21.707C9.82541 21.6562 9.99323 21.5607 10.1206 21.4515C10.1984 21.6895 10.332 21.9579 10.563 22.1959C10.9567 22.5976 11.5226 22.8008 12.2626 22.8008L12.7111 22.7947L12.4624 22.4195ZM12.2458 22.5582C10.2084 22.5582 10.2602 20.8216 10.2602 20.8216C10.2602 20.8216 10.1183 21.3355 9.55005 21.4697C9.48215 21.4879 9.4097 21.4947 9.3388 21.4947C9.1557 21.4947 8.99779 21.4523 8.99779 21.4523C8.99779 21.4523 9.29379 20.8284 8.99857 19.956C8.75448 19.2321 8.79412 18.6954 8.79412 18.6954C8.79412 18.6954 8.52029 19.1078 7.83913 19.1116H7.83226C7.26551 19.1116 7.01833 18.6848 7.01833 18.6848C8.37612 18.1247 8.24264 16.3161 8.24264 16.3161C8.24264 16.3161 8.06645 16.4464 7.72164 16.4593C7.70944 16.4601 7.698 16.4601 7.6858 16.4601C6.93673 16.4601 6.68348 15.6634 6.68348 15.6634H6.69872C6.83681 15.6634 7.94821 15.6316 8.73466 14.6378C9.25258 13.9845 9.67745 13.4106 10.5143 13.184L10.5982 13.1696L10.6164 13.0862C10.6393 12.9589 10.5524 12.8399 10.3533 12.711C9.19687 11.9583 9.98257 10.9987 9.98257 10.9987C9.98257 10.9987 10.3113 11.7658 11.052 11.7658C11.0703 11.7658 11.0871 11.765 11.1062 11.765C11.1893 11.7605 11.2717 11.7574 11.3525 11.74L11.4891 11.7135C11.4891 11.7135 11.2778 11.1442 11.7873 10.6212C12.1703 10.2263 12.6364 10.1596 12.9048 10.1596C13.0414 10.1596 13.126 10.177 13.126 10.177C12.8713 10.509 12.6867 11.0593 12.9811 11.3989C13.2359 11.6908 13.8575 11.7051 13.8575 12.1402C13.8575 12.3244 13.6844 12.5397 13.3732 12.733C12.4372 13.3189 11.5081 14.0966 11.1222 15.1374C10.6401 16.4366 11.184 17.2984 11.9613 17.7934C11.9613 17.7934 11.7171 18.0163 11.364 18.0443C11.2923 18.0511 11.2229 18.0542 11.1557 18.0542C10.4112 18.0542 10.026 17.707 10.026 17.707C10.026 17.707 10.0901 18.1868 10.4753 18.6325C10.8354 19.0441 11.3045 19.2867 12.0215 19.2965C12.0215 19.2965 12.0444 19.627 11.7271 19.9128C11.5234 20.0932 11.055 20.1523 11.055 20.1523C11.055 20.1523 11.9338 20.3289 12.0299 21.6175C12.0826 22.3156 12.2602 22.5582 12.2602 22.5582H12.2458Z" fill="black" fill-opacity="0.6"/>
    <path d="M7.70801 14.2717C7.80639 14.2717 7.90252 14.2573 7.99332 14.2262C8.24957 14.1421 8.41207 13.9397 8.58368 13.7297C8.75912 13.5145 8.95667 13.2719 9.29919 13.0907L9.65157 12.9028L9.32437 12.6746C9.2969 12.6572 9.05126 12.4927 8.71945 12.4927C8.44638 12.4927 8.19316 12.6034 7.98487 12.8156C7.4769 13.331 7.02152 13.3727 7.0047 13.3735L6.65002 13.3939L6.7957 13.7176C6.94217 14.0382 7.32582 14.2717 7.70801 14.2717ZM8.1596 12.9869C8.34878 12.7936 8.54783 12.736 8.71945 12.736C8.98336 12.736 9.18328 12.8755 9.18328 12.8755C8.46927 13.2537 8.32281 13.8594 7.91472 13.9958C7.8476 14.0193 7.77741 14.0299 7.70801 14.0299C7.40821 14.0299 7.11836 13.8374 7.01919 13.6168C7.01919 13.616 7.56841 13.5827 8.1596 12.9869Z" fill="black" fill-opacity="0.6"/>
    <path d="M9.30897 17.0945C9.27079 16.1788 9.50727 15.436 9.87797 14.8243C9.67126 15.4617 9.69949 16.2425 10.4028 16.9709C10.4028 16.9709 9.00384 15.3056 10.9596 13.5986C11.7423 12.949 12.5981 12.548 13.0382 12.2637C11.4463 12.7799 10.669 12.2114 10.669 12.2114C11.177 12.6495 11.8354 12.642 12.2442 12.5783C12.1336 12.6321 12.0177 12.6882 11.8948 12.7542C10.5508 13.4796 9.34481 14.6719 9.1381 16.3228V16.31C8.82611 17.9313 8.13196 18.3475 8.13196 18.3475C8.68426 18.0768 9.03207 17.3583 9.11675 17.099C9.20905 18.5241 9.90849 19.5133 10.727 20.4653C11.1519 20.9588 11.3014 21.4386 11.3014 21.4386C11.3014 21.4386 11.2182 20.8951 10.8498 20.4524C10.0878 19.5421 9.36234 18.4066 9.30897 17.0945Z" fill="black" fill-opacity="0.6"/>
    <path d="M15.5502 13.7539V14.0814C15.6639 13.9442 15.8836 13.9723 15.8836 13.9723V14.4445C15.8836 14.4445 15.8759 14.6764 15.7928 14.7772H16.0307H16.268C16.1864 14.6772 16.178 14.4445 16.178 14.4445V13.9723C16.178 13.9723 16.3977 13.9442 16.5106 14.0814V13.7539H16.0307H15.5502Z" fill="black" fill-opacity="0.6"/>
    <path d="M15.3461 11.8119C15.4978 11.9317 15.5856 11.9514 15.5886 11.9537L15.6481 11.9809V11.6724L15.0897 11.439C15.0897 11.4397 15.0951 11.6179 15.3461 11.8119Z" fill="black" fill-opacity="0.6"/>
    <path d="M16.674 11.8119C16.9265 11.6179 16.9311 11.439 16.9311 11.439L16.3727 11.6724V11.9809L16.4314 11.9537C16.4353 11.9514 16.5222 11.9317 16.674 11.8119Z" fill="black" fill-opacity="0.6"/>
    <path d="M17.68 10.5558C17.68 10.0882 16.8875 9.66748 16.0125 9.66748H16.0118H16.0095H16.0072C15.1323 9.66748 14.3398 10.0882 14.3398 10.5558L14.3573 10.6711L14.7066 12.6639L14.3558 12.8662L13.4481 13.3931H13.4511C13.4511 13.3931 13.2467 13.4969 13.1521 13.5613C12.8065 13.8001 12.7333 14.148 12.9339 14.292C12.9835 14.0086 13.2092 13.7114 13.6319 13.7114C13.9362 13.7114 14.1681 13.8676 14.3558 14.1018C14.4038 14.1609 14.4496 14.2238 14.4923 14.292C14.5449 14.3777 14.5975 14.4527 14.6502 14.5255H12.3123C12.4839 14.8689 12.6471 15.2327 12.6471 15.6276V20.7699C12.6471 22.0146 13.6105 22.6088 14.6525 22.6088C15.458 22.6088 15.5663 22.5725 16.011 23.0121C16.4534 22.5717 16.5618 22.6088 17.368 22.6088C18.4108 22.6088 19.3726 22.0146 19.3726 20.7699V15.6276C19.3726 15.2327 19.5359 14.8689 19.7082 14.5255H17.3696C17.4214 14.4535 17.474 14.3777 17.5267 14.292C17.5702 14.2238 17.6152 14.1609 17.6625 14.1018C17.8516 13.8668 18.0827 13.7114 18.3871 13.7114C18.8097 13.7114 19.0347 14.0078 19.0851 14.292C19.2857 14.148 19.2132 13.8001 18.8654 13.5613C18.7723 13.4969 18.5679 13.3931 18.5679 13.3931H18.5709L17.6632 12.8662L17.3139 12.6639L17.6632 10.6711L17.68 10.5558ZM14.6838 10.7878L15.9119 11.2017V13.1187L15.008 12.6449L14.6838 10.7878ZM14.9378 14.8598C15.1392 15.0591 15.3367 15.1827 15.5244 15.2509C15.4999 15.3472 15.4679 15.5458 15.5587 15.7436C15.6327 15.9028 15.7669 16.0256 15.9599 16.1075C15.9813 16.3046 16.1064 16.6009 16.4534 16.7321C16.3016 16.8844 16.1536 17.0277 16.0934 17.0861L14.6861 17.0641C14.654 17.0481 14.5998 17.0125 14.5754 16.9617C14.5724 16.9549 14.5678 16.9511 14.5655 16.9435L14.7951 16.9807C14.8005 16.9814 14.805 16.9814 14.8096 16.9814C14.8539 16.9814 14.8928 16.9511 14.9004 16.9057C14.908 16.8549 14.8737 16.8086 14.8241 16.801L14.5419 16.7571L14.8554 15.6815L14.5587 15.0607L14.0827 15.5609L14.0537 16.6798L13.7341 16.6297C13.6845 16.6199 13.6372 16.6563 13.6288 16.7055C13.6212 16.7548 13.6547 16.801 13.7051 16.8101L13.8394 16.8306C13.7913 16.8579 13.76 16.8791 13.7562 16.8822L13.7287 16.9011L13.7211 16.9345C13.6433 17.2483 13.8195 17.5461 14.0095 17.6795L14.0026 17.719C13.9949 17.7675 14.0056 17.8145 14.0346 17.8539C14.0621 17.8941 14.1048 17.9183 14.1521 17.9267C14.162 17.9282 14.1727 17.9289 14.1818 17.9289C14.2642 17.9289 14.3359 17.8721 14.3565 17.7895C14.4275 17.7979 14.4923 17.7994 14.5365 17.7994H14.5739L16.4206 18.1306L16.4519 18.1101C16.5991 18.0078 17.1598 17.6015 17.3436 17.4673C17.394 17.5106 17.4504 17.5499 17.5191 17.5825C17.4595 17.7811 17.4557 18.0866 17.6914 18.3277H12.985V15.6284C12.985 15.3669 12.9079 15.1039 12.8172 14.8613H14.9378V14.8598ZM17.22 17.3294C17.0332 17.4658 16.5526 17.8145 16.3787 17.9358L14.7005 17.6364C14.7044 17.6212 14.7081 17.6068 14.712 17.5916C14.7341 17.5052 14.7562 17.387 14.7578 17.2483L16.1682 17.271L16.1948 17.2437C16.2162 17.2225 16.6632 16.7935 16.8912 16.5463C16.9454 16.6138 17.0133 16.6783 17.1018 16.7351C17.0713 16.8988 17.0843 17.1323 17.22 17.3294ZM14.4107 17.0406C14.4503 17.1232 14.5221 17.1785 14.5716 17.2096C14.5701 17.2869 14.5625 17.4074 14.5419 17.5136C14.5373 17.5371 14.5312 17.559 14.5243 17.581C14.5205 17.5947 14.5167 17.606 14.5137 17.6151C14.4397 17.6151 14.294 17.606 14.175 17.5628C14.043 17.5143 13.8462 17.274 13.892 17.0095C13.9492 16.9746 14.0811 16.9011 14.2047 16.9011C14.3001 16.9004 14.3649 16.945 14.4107 17.0406ZM14.236 16.7078L14.2642 15.6337L14.5068 15.3783L14.6594 15.6951L14.3588 16.726L14.236 16.7078ZM17.2048 22.2761C17.1132 22.2761 17.0286 22.2776 16.9523 22.2806L17.1521 21.6629C17.1834 21.5772 17.0255 21.4673 16.9607 21.371C17.0591 21.4324 17.3139 21.5666 17.4367 21.6204C17.4237 21.6401 17.2048 22.2761 17.2048 22.2761ZM17.8318 21.5742L17.7014 22.2503C17.6182 22.2617 17.5297 22.2678 17.439 22.2716L17.5763 21.6212C17.6175 21.4279 17.0949 21.368 16.8371 20.9882C16.7113 21.1293 16.474 21.1709 16.236 21.1709C16.0187 21.1709 15.8012 21.1361 15.6693 21.1103C15.6357 21.105 15.6037 21.1012 15.5724 21.1012C15.4961 21.1012 15.4267 21.1247 15.3787 21.205L15.3405 21.2687L14.6289 21.102L14.4519 21.393C14.4267 21.44 14.4252 21.4802 14.4656 21.5241L14.5137 21.5765C14.4808 21.6796 14.3329 21.8349 14.3329 21.8349L14.2268 21.7038C14.143 21.6106 14.1567 21.4408 14.2444 21.2831L14.5266 20.8094L15.1292 20.8958L15.0354 20.6835C14.9095 20.4031 15.101 20.0461 15.1216 19.8407C15.1148 19.9028 15.0575 19.9164 14.9904 19.9164C14.9294 19.9164 14.8615 19.9051 14.8165 19.9051C14.799 19.9051 14.7837 19.9066 14.7753 19.9126L14.612 20.0112L14.4831 19.8982C14.4679 19.8763 14.4625 19.8255 14.5007 19.7876L14.799 19.4556L14.4465 19.047L14.9401 19.2934L15.0904 19.1122C15.1315 19.1524 15.114 19.2577 15.114 19.2577C15.268 19.2615 15.6998 19.4988 15.7227 20.0521C15.7242 20.0688 15.7242 20.0877 15.7242 20.1059C15.7242 20.1059 15.7281 20.1128 15.7356 20.1241C15.7661 20.1658 15.85 20.2727 15.9568 20.2825L16.6388 20.3493H16.6419C16.7166 20.3493 16.8653 20.2621 17.056 20.2621C17.1598 20.2621 17.2757 20.2886 17.3993 20.3659C17.3993 20.3659 17.4611 20.3174 17.5618 20.3121C17.5694 20.3114 17.5778 20.3114 17.5854 20.3114C17.8913 20.3114 18.0179 20.5857 18.1819 20.8139C18.3055 20.9875 18.4702 21.2452 18.4702 21.2452C18.4092 21.3172 18.3528 21.3567 18.2582 21.3567C18.2323 21.3567 18.2025 21.3544 18.1705 21.3483C17.8425 21.2884 17.7952 20.6183 17.6083 20.5653C17.5984 20.5622 17.5877 20.5615 17.5786 20.5615C17.5183 20.5615 17.4916 20.6145 17.4916 20.6145C17.577 20.8427 17.5274 20.9352 17.619 21.1111C17.6876 21.2414 17.8097 21.349 17.86 21.3998C17.86 21.4014 17.8463 21.4999 17.8318 21.5742ZM14.1696 20.9344L14.2009 21.0125C14.1803 21.0807 13.9438 21.1778 13.9438 21.1778L13.8927 21.0671C13.8386 20.9489 13.85 20.7495 14.0148 20.6274L14.3977 20.3955L14.8035 20.4811C14.7959 20.6092 14.8729 20.7048 14.8729 20.7048L14.4473 20.6237L14.1925 20.7988C14.1498 20.8283 14.1467 20.8837 14.1696 20.9344ZM17.8959 22.2131L18.0126 21.6083C18.0187 21.5727 18.0263 21.531 18.0317 21.4961C18.0645 21.5098 18.0995 21.5211 18.1377 21.528C18.1811 21.5363 18.2216 21.5401 18.2582 21.5401C18.4367 21.5401 18.5404 21.4468 18.6098 21.3672L18.6999 21.2634L18.6266 21.1497C18.6198 21.1383 18.458 20.8836 18.333 20.7093C18.3086 20.6752 18.2849 20.6411 18.2612 20.604C18.1194 20.3932 17.9416 20.1287 17.5854 20.1287L17.5534 20.1294C17.4947 20.1332 17.4443 20.1446 17.4039 20.1598C17.2917 20.1075 17.1766 20.0809 17.0568 20.0809C16.9096 20.0809 16.7852 20.1211 16.7029 20.1492C16.6792 20.156 16.6578 20.1635 16.6411 20.1666L15.9751 20.1014C15.9668 20.0999 15.9393 20.084 15.9065 20.0446V20.0415L16.0507 19.9839C16.0103 19.5071 15.5495 19.2137 15.2924 19.1145C15.281 19.0667 15.2581 19.019 15.2177 18.9803L15.0743 18.8454L14.9484 18.9955L14.8867 19.072L13.9545 18.6915L14.561 19.448L14.3214 19.808C14.2337 19.9005 14.3306 19.993 14.3306 19.993L14.5777 20.162L14.834 20.0673C14.8432 20.0673 14.8508 20.0696 14.8592 20.0703C14.847 20.109 14.831 20.2606 14.8203 20.303L14.3756 20.2158L13.908 20.4781C13.6677 20.6532 13.6349 20.9435 13.7242 21.1421L13.776 21.255L13.85 21.4142L14.0132 21.3468C14.0156 21.346 14.0178 21.3453 14.0193 21.3437C13.9606 21.5302 13.9843 21.7076 14.0895 21.8244L14.1887 21.9486L14.3206 22.1147L14.4656 21.96C14.5083 21.9176 14.6464 21.7637 14.6891 21.6318L14.7204 21.531L14.6494 21.4536L14.638 21.44L14.7173 21.3097L15.2978 21.4453L15.4282 21.4749L15.4976 21.3612L15.5358 21.299C15.5427 21.2862 15.545 21.2839 15.5716 21.2839C15.5922 21.2839 15.6128 21.2862 15.635 21.2907C15.8539 21.3316 16.056 21.3521 16.2353 21.3521C16.4092 21.3521 16.5129 21.3453 16.6373 21.3043C16.6373 21.3043 16.9492 21.6561 16.9599 21.6697L16.7693 22.2548L16.7608 22.2905C16.3993 22.3193 16.223 22.3981 16.0103 22.6096C15.7013 22.3049 15.4824 22.2731 14.6517 22.2731C13.6578 22.2731 12.9842 21.694 12.9842 20.7692V18.5081H19.0347L19.0363 20.7692C19.037 21.5196 18.5938 22.0426 17.8959 22.2131ZM19.2041 14.8598C19.1118 15.1024 19.0347 15.3654 19.0347 15.6269L19.0355 17.3142C18.6808 17.2551 18.6388 16.8753 18.6373 16.8587L18.6305 16.7813L18.5542 16.7745C18.4001 16.7601 18.2979 16.6949 18.2116 16.6115C18.0378 16.4387 18.037 16.1582 18.0378 16.156C18.0355 16.1704 17.8463 16.4334 18.066 16.7207C18.1583 16.842 18.2917 16.9162 18.4649 16.9458C18.5054 17.1566 18.6632 17.4537 19.0355 17.4991V18.3254H17.9889C17.5061 18.0585 17.7105 17.5886 17.7204 17.5689L17.7616 17.4795L17.6693 17.4446C17.1468 17.2521 17.2902 16.7336 17.2978 16.7116L17.3192 16.6358L17.2483 16.6024C16.8165 16.4038 16.8753 15.8679 16.8806 15.846C16.7479 15.9529 16.6998 16.1712 16.7913 16.3849C16.7418 16.441 16.6754 16.5092 16.6029 16.5835C16.156 16.4705 16.1422 16.062 16.1422 16.0431L16.1414 15.9801L16.0827 15.9574C15.908 15.893 15.7883 15.7967 15.7296 15.6671C15.6632 15.5238 15.6868 15.3737 15.7051 15.3017C15.7562 15.3131 15.8073 15.3214 15.8562 15.3252C15.9065 15.3305 15.9584 15.3335 16.0103 15.3335H16.0133H16.0171C16.069 15.3335 16.1201 15.3305 16.1704 15.3252C16.4489 15.2979 16.7608 15.1789 17.0858 14.8591H19.2041V14.8598ZM17.5732 13.1543L17.9867 13.3931H17.9928L18.0965 13.453C17.863 13.5174 17.6846 13.6334 17.5351 13.7857C17.5297 13.7903 17.5244 13.7963 17.5191 13.8016C17.4847 13.838 17.4504 13.8774 17.4184 13.9176C17.4123 13.9252 17.4062 13.9335 17.3993 13.9419C17.3673 13.9828 17.3375 14.0245 17.3085 14.0684C17.3039 14.076 17.2986 14.0836 17.2933 14.0904C17.2589 14.1412 17.2261 14.1958 17.1933 14.2519C16.8989 14.7559 16.429 15.0569 16.011 15.0577C15.5938 15.0569 15.1239 14.7559 14.8295 14.2519C14.7974 14.1973 14.7654 14.1442 14.7311 14.0927C14.7242 14.0829 14.7181 14.073 14.712 14.0647C14.683 14.023 14.654 13.982 14.6242 13.9434C14.6167 13.9328 14.6098 13.9244 14.6021 13.9153C14.5701 13.8767 14.5373 13.838 14.5045 13.8024C14.4976 13.7971 14.493 13.7903 14.4862 13.7842C14.3359 13.6318 14.1582 13.5166 13.924 13.453L14.0293 13.3931H14.0339L14.4473 13.1543L14.8722 12.9125L16.0072 13.5265L16.0095 13.5242L16.0125 13.5265L17.1476 12.9125L17.5732 13.1543ZM17.0133 12.6456L16.1086 13.1194V11.2017L17.336 10.7878L17.0133 12.6456ZM16.0103 10.991L14.6647 10.4626C14.7791 10.1935 15.3069 9.9646 16.0103 9.96386C16.7143 9.9646 17.2422 10.1935 17.3558 10.4626L16.0103 10.991Z" fill="black" fill-opacity="0.6"/>
    <path d="M33.4853 18.9366V15.3451H35.6053V14.0381H29.8218V15.3451H31.9417V18.9366H33.4853ZM37.7152 16.8887V14.0381H36.2231V18.9366H37.5403L40.113 16.086V18.9366H41.6052V14.0381H40.2879L37.7152 16.8887ZM46.6253 17.1151V18.9366H48.1175V14.0381H46.6253V15.8287H44.2275V14.0381H42.7353V18.9366H44.2275V17.1151H46.6253ZM52.2731 18.9366C52.6127 18.9366 52.9214 18.9058 53.2096 18.8234C53.9814 18.6073 54.4857 17.9795 54.4857 17.1254C54.4857 16.3124 54.0534 15.7464 53.3639 15.4891C53.0346 15.3657 52.6436 15.3553 52.2731 15.3553H50.7397V14.0381H49.2476V18.9366H52.2731ZM52.0159 16.508C52.2216 16.508 52.4171 16.508 52.5921 16.5697C52.8391 16.652 52.9832 16.8578 52.9832 17.1048C52.9832 17.3621 52.8391 17.5782 52.6024 17.6811C52.4378 17.7531 52.2731 17.7531 52.0159 17.7531H50.7397V16.508H52.0159ZM57.1611 17.0842L58.9415 18.9366H60.9276L58.4475 16.3845L60.835 14.0381H58.9621L57.1611 15.8802H56.7495V14.0381H55.2573V18.9366H56.7495V17.0842H57.1611ZM63.9981 13.9043C61.9913 13.9043 60.7873 15.0363 60.7873 16.4976C60.7873 17.959 61.9913 19.091 63.9981 19.091C65.9945 19.091 67.1985 17.959 67.1985 16.4976C67.1985 15.0363 65.9945 13.9043 63.9981 13.9043ZM63.9981 17.8972C62.9998 17.8972 62.3618 17.3004 62.3618 16.4976C62.3618 15.695 62.9998 15.1083 63.9981 15.1083C64.986 15.1083 65.6343 15.695 65.6343 16.4976C65.6343 17.3004 64.986 17.8972 63.9981 17.8972ZM72.168 13.7603H70.6759V14.2542C68.8029 14.2954 67.6812 15.0878 67.6812 16.4873C67.6812 17.8869 68.8029 18.6176 70.6759 18.6588V19.1527H72.168V18.6588C74.0513 18.6176 75.1729 17.8869 75.1729 16.4873C75.1729 15.0878 74.0513 14.2954 72.168 14.2542V13.7603ZM70.6759 17.6091C69.6468 17.5679 69.1939 17.146 69.1939 16.4873C69.1939 15.8287 69.6468 15.3553 70.6759 15.3142V17.6091ZM72.168 15.3142C73.2074 15.3553 73.6499 15.8287 73.6499 16.4873C73.6499 17.146 73.2074 17.5679 72.168 17.6091V15.3142ZM80.1375 13.7603H78.6453V14.2542C76.7724 14.2954 75.6506 15.0878 75.6506 16.4873C75.6506 17.8869 76.7724 18.6176 78.6453 18.6588V19.1527H80.1375V18.6588C82.0205 18.6176 83.1425 17.8869 83.1425 16.4873C83.1425 15.0878 82.0205 14.2954 80.1375 14.2542V13.7603ZM78.6453 17.6091C77.6162 17.5679 77.1634 17.146 77.1634 16.4873C77.1634 15.8287 77.6162 15.3553 78.6453 15.3142V17.6091ZM80.1375 15.3142C81.177 15.3553 81.6194 15.8287 81.6194 16.4873C81.6194 17.146 81.177 17.5679 80.1375 17.6091V15.3142Z" fill="black" fill-opacity="0.6"/>
</svg>