<svg xmlns="http://www.w3.org/2000/svg" width="89" height="33" viewBox="0 0 89 33" fill="none">
    <path d="M76.577 24.227C77.9606 24.227 78.9406 23.9784 79.6709 23.4429V21.0142C78.9214 21.5305 78.0183 21.8556 76.75 21.8556C74.6169 21.8556 73.733 20.2109 73.733 17.61C73.733 14.8752 74.8091 13.4792 76.7692 13.4792C77.9222 13.4792 79.0559 13.8808 79.6517 14.2633V11.7389C79.0175 11.3946 77.9222 11.146 76.4233 11.146C72.5992 11.146 70.6199 13.8808 70.6199 17.7056C70.6391 21.8939 72.58 24.227 76.577 24.227ZM57.8794 23.1178V20.689C56.957 21.3201 55.3812 21.8747 53.94 21.8747C51.7493 21.8747 50.923 20.842 50.7885 18.7384H58.0139V17.1702C58.0139 12.7907 56.073 11.146 53.0945 11.146C49.4433 11.146 47.7139 13.919 47.7139 17.7248C47.7139 22.1042 49.8853 24.227 53.6902 24.227C55.5926 24.227 56.9954 23.7107 57.8794 23.1178ZM30.4574 11.3755V16.3478H26.4604V11.3755H23.4626V23.9784H26.4604V18.7192H30.4574V23.9784H33.4552V11.3755H30.4574ZM46.9644 21.607H45.6385V11.3755H36.9142V12.4465C36.9142 15.5255 36.722 19.5033 35.6651 21.607H34.7043V26.8471H37.4715V23.9784H44.178V26.8471H46.9452V21.607H46.9644ZM67.43 23.9784H70.8313L66.0272 17.1893L70.2548 11.3755H67.2378L63.0102 17.1893V11.3755H60.0124V23.9784H63.0102V17.7821L67.43 23.9784ZM53.0176 13.4792C54.4973 13.4792 54.9585 14.7031 54.9585 16.2904V16.5391H50.7885C50.8654 14.531 51.5956 13.4792 53.0176 13.4792ZM42.6407 21.607H38.4131C39.2394 19.7137 39.47 16.2713 39.47 14.0911V13.7087H42.6407V21.607Z" fill="black" fill-opacity="0.6"/>
    <path d="M20.9646 23.9783H17.9092V8.92749H16.5448C14.0467 8.92749 12.7399 10.1706 12.7399 12.0256C12.7399 14.1293 13.6431 15.1047 15.5071 16.3477L17.0444 17.3804L12.6246 23.9783H9.33862L13.3164 18.088C11.0297 16.4625 9.74217 14.8752 9.74217 12.1978C9.74217 8.85099 12.0866 6.5752 16.5256 6.5752H20.9454V23.9783H20.9646Z" fill="black" fill-opacity="0.6"/>
</svg>