<svg xmlns="http://www.w3.org/2000/svg" width="1073" height="488" viewBox="0 0 1073 488" fill="none">
    <g filter="url(#filter0_dddddd_187_1546)">
        <path fill-rule="evenodd" clip-rule="evenodd" d="M211.202 333.127H164.62L131.698 265.226H114.063V333.127H73.6895L73.6895 155.375H143.496C161.013 155.375 175.306 160.656 185.932 171.549C196.596 182.32 201.934 195.637 201.934 211.257C201.934 223.256 198.823 233.587 192.396 242.004C187.011 249.055 180.404 254.372 172.61 257.909L211.202 333.127ZM167.418 255.966C168.604 255.539 169.762 255.071 170.894 254.564C178.203 251.285 184.386 246.333 189.445 239.708C195.288 232.057 198.209 222.574 198.209 211.257C198.209 196.593 193.235 184.24 183.287 174.198C173.497 164.156 160.234 159.136 143.496 159.136H77.4149L77.4149 329.366H110.337V261.465H134.022L166.944 329.366H205.077L167.418 255.966ZM347.194 333.127H228.66V155.375H347.194V192.543H269.033V224.95H335.588V262.118H269.033V295.959H347.194V333.127ZM265.308 299.719V258.357H331.863V228.71H265.308V188.783H343.469V159.136H232.386V329.366H343.469V299.719H265.308ZM490.616 306.687L490.606 306.701C477.992 324.358 459.837 333.127 436.662 333.127H372.066V155.375L436.662 155.375C459.837 155.375 477.992 164.144 490.606 181.801L490.616 181.815C495.713 189.018 498.85 197.162 500.036 206.182C501.34 214.765 501.968 227.498 501.968 244.251C501.968 261.015 501.339 273.825 500.036 282.56C498.848 291.433 495.706 299.494 490.616 306.687ZM496.348 282.027C497.611 273.579 498.243 260.987 498.243 244.251C498.243 227.515 497.611 215.003 496.348 206.714C495.243 198.266 492.322 190.695 487.585 184.001C475.742 167.424 458.768 159.136 436.662 159.136L375.791 159.136V329.366H436.662C458.768 329.366 475.742 321.078 487.585 304.501C492.322 297.807 495.243 290.315 496.348 282.027ZM455.583 201.703L455.537 201.643C450.877 195.73 443.864 192.543 433.82 192.543H412.439V295.959H433.82C443.864 295.959 450.877 292.772 455.537 286.859L455.583 286.799L455.633 286.742C458.028 283.942 459.719 279.921 460.443 274.364C461.198 268.574 461.595 258.591 461.595 244.251C461.595 229.911 461.198 219.928 460.443 214.138C459.719 208.581 458.028 204.56 455.633 201.76L455.583 201.703ZM408.713 299.719V188.783H433.82C444.715 188.783 452.926 192.289 458.452 199.302C461.452 202.809 463.347 207.591 464.136 213.648C464.926 219.705 465.321 229.906 465.321 244.251C465.321 258.596 464.926 268.797 464.136 274.854C463.347 280.911 461.452 285.693 458.452 289.2C452.926 296.213 444.715 299.719 433.82 299.719H408.713ZM639.495 192.543H595.441V333.127H555.068V192.543H511.014V155.375H639.495V192.543ZM558.793 188.783V329.366H591.716V188.783H635.77V159.136H514.739V188.783H558.793ZM781.543 333.127H739.188L729.241 303.002H674.668L664.483 333.127H622.155L686.21 155.375H717.241L781.543 333.127ZM672.002 299.241H731.926L741.873 329.366H776.217L714.636 159.136H688.819L627.475 329.366H661.818L672.002 299.241ZM901.352 314.026C888.41 327.769 871.522 334.562 851.045 334.562C832.286 334.562 816.336 328.24 803.444 315.563L803.426 315.546L803.409 315.528C795.247 307.289 790.013 298.128 787.947 288.049L787.94 288.013L787.933 287.976C786.131 278.217 785.265 263.586 785.265 244.251C785.265 224.92 786.13 210.362 787.935 200.753L787.94 200.729L787.945 200.705C790.006 190.473 795.235 181.225 803.409 172.974L803.426 172.956L803.444 172.939C816.336 160.262 832.286 153.94 851.045 153.94C870.226 153.94 885.773 159.337 897.212 170.535C908.561 181.491 915.55 195.234 918.198 211.607L918.904 215.974L878.398 215.974L877.732 213.059C875.968 205.344 872.832 199.962 868.591 196.483C864.36 193.013 858.629 191.109 851.045 191.109C843.525 191.109 837.522 193.722 832.742 198.941C830.156 201.96 828.254 206.202 827.237 211.921C826.197 217.77 825.638 228.461 825.638 244.251C825.638 260.203 826.197 270.972 827.237 276.82C828.254 282.54 830.157 286.782 832.743 289.802C837.331 294.821 843.313 297.393 851.045 297.393C860.316 297.393 867.014 294.508 871.689 289.114L871.699 289.103L871.709 289.092C876.027 284.189 878.347 277.577 878.347 268.877V266.421H847.319V230.927H918.483V259.553C918.483 272.339 917.286 282.952 914.767 291.257C912.217 299.666 907.719 307.261 901.352 314.026ZM882.072 262.661V268.877C882.072 278.281 879.546 285.852 874.493 291.59C868.967 297.966 861.151 301.154 851.045 301.154C842.36 301.154 835.334 298.205 829.965 292.308C826.807 288.642 824.676 283.701 823.57 277.484C822.465 271.268 821.912 260.19 821.912 244.251C821.912 228.471 822.465 217.473 823.57 211.257C824.676 205.041 826.807 200.099 829.965 196.433C835.492 190.376 842.518 187.348 851.045 187.348C867.467 187.348 877.572 195.636 881.362 212.213L914.521 212.213C914.315 210.942 914.083 209.689 913.823 208.453C910.888 194.496 904.489 182.759 894.625 173.242C884.046 162.881 869.519 157.701 851.045 157.701C833.202 157.701 818.202 163.678 806.043 175.633C798.306 183.443 793.49 192.05 791.595 201.454C789.858 210.699 788.99 224.965 788.99 244.251C788.99 263.537 789.858 277.883 791.595 287.287C793.49 296.532 798.306 305.059 806.043 312.869C818.202 324.824 833.202 330.801 851.045 330.801C870.625 330.801 886.493 324.346 898.652 311.435C904.652 305.059 908.836 297.966 911.205 290.156C913.573 282.346 914.758 272.145 914.758 259.553V234.687H851.045V262.661H882.072ZM156.12 224.759C159.702 221.401 161.561 217.021 161.561 211.257C161.561 205.493 159.702 201.112 156.12 197.755C152.508 194.369 147.708 192.543 141.365 192.543H114.063V229.971H141.365C147.708 229.971 152.508 228.145 156.12 224.759ZM141.365 233.731C148.47 233.731 154.233 231.659 158.655 227.515C163.076 223.371 165.287 217.951 165.287 211.257C165.287 204.562 163.076 199.143 158.655 194.999C154.233 190.855 148.47 188.783 141.365 188.783H110.337V233.731H141.365ZM702.556 209.344L681.24 271.268H723.162L702.556 209.344ZM702.496 220.975L686.478 267.507H717.981L702.496 220.975Z" fill="#F30D30"/>
    </g>
    <defs>
        <filter id="filter0_dddddd_187_1546" x="-79.5988" y="0.652039" width="1151.79" height="487.198" filterUnits="userSpaceOnUse" color-interpolation-filters="sRGB">
            <feFlood flood-opacity="0" result="BackgroundImageFix"/>
            <feColorMatrix in="SourceAlpha" type="matrix" values="0 0 0 0 0 0 0 0 0 0 0 0 0 0 0 0 0 0 127 0" result="hardAlpha"/>
            <feOffset/>
            <feGaussianBlur stdDeviation="2.39513"/>
            <feComposite in2="hardAlpha" operator="out"/>
            <feColorMatrix type="matrix" values="0 0 0 0 0.760784 0 0 0 0 0.0392157 0 0 0 0 0.14902 0 0 0 0.5 0"/>
            <feBlend mode="normal" in2="BackgroundImageFix" result="effect1_dropShadow_187_1546"/>
            <feColorMatrix in="SourceAlpha" type="matrix" values="0 0 0 0 0 0 0 0 0 0 0 0 0 0 0 0 0 0 127 0" result="hardAlpha"/>
            <feOffset/>
            <feGaussianBlur stdDeviation="4.79026"/>
            <feComposite in2="hardAlpha" operator="out"/>
            <feColorMatrix type="matrix" values="0 0 0 0 0.760784 0 0 0 0 0.0392157 0 0 0 0 0.14902 0 0 0 0.5 0"/>
            <feBlend mode="normal" in2="effect1_dropShadow_187_1546" result="effect2_dropShadow_187_1546"/>
            <feColorMatrix in="SourceAlpha" type="matrix" values="0 0 0 0 0 0 0 0 0 0 0 0 0 0 0 0 0 0 127 0" result="hardAlpha"/>
            <feOffset/>
            <feGaussianBlur stdDeviation="9.58052"/>
            <feComposite in2="hardAlpha" operator="out"/>
            <feColorMatrix type="matrix" values="0 0 0 0 0.760784 0 0 0 0 0.0392157 0 0 0 0 0.14902 0 0 0 0.5 0"/>
            <feBlend mode="normal" in2="effect2_dropShadow_187_1546" result="effect3_dropShadow_187_1546"/>
            <feColorMatrix in="SourceAlpha" type="matrix" values="0 0 0 0 0 0 0 0 0 0 0 0 0 0 0 0 0 0 127 0" result="hardAlpha"/>
            <feOffset/>
            <feGaussianBlur stdDeviation="19.161"/>
            <feComposite in2="hardAlpha" operator="out"/>
            <feColorMatrix type="matrix" values="0 0 0 0 0.760784 0 0 0 0 0.0392157 0 0 0 0 0.14902 0 0 0 0.5 0"/>
            <feBlend mode="normal" in2="effect3_dropShadow_187_1546" result="effect4_dropShadow_187_1546"/>
            <feColorMatrix in="SourceAlpha" type="matrix" values="0 0 0 0 0 0 0 0 0 0 0 0 0 0 0 0 0 0 127 0" result="hardAlpha"/>
            <feOffset/>
            <feGaussianBlur stdDeviation="38.3221"/>
            <feComposite in2="hardAlpha" operator="out"/>
            <feColorMatrix type="matrix" values="0 0 0 0 0.760784 0 0 0 0 0.0392157 0 0 0 0 0.14902 0 0 0 0.5 0"/>
            <feBlend mode="normal" in2="effect4_dropShadow_187_1546" result="effect5_dropShadow_187_1546"/>
            <feColorMatrix in="SourceAlpha" type="matrix" values="0 0 0 0 0 0 0 0 0 0 0 0 0 0 0 0 0 0 127 0" result="hardAlpha"/>
            <feOffset/>
            <feGaussianBlur stdDeviation="76.6442"/>
            <feComposite in2="hardAlpha" operator="out"/>
            <feColorMatrix type="matrix" values="0 0 0 0 0.760784 0 0 0 0 0.0392157 0 0 0 0 0.14902 0 0 0 0.5 0"/>
            <feBlend mode="normal" in2="effect5_dropShadow_187_1546" result="effect6_dropShadow_187_1546"/>
            <feBlend mode="normal" in="SourceGraphic" in2="effect6_dropShadow_187_1546" result="shape"/>
        </filter>
    </defs>
</svg>