<svg xmlns="http://www.w3.org/2000/svg" width="67" height="62" viewBox="0 0 67 62" fill="none">
    <path
        d="M66.7372 32.5687V2.93092C66.7372 1.64054 65.7076 0.594482 64.4376 0.594482L56.8605 0.594482C55.5905 0.594482 54.561 1.64054 54.561 2.93092V32.5687C54.561 33.859 55.5905 34.9051 56.8605 34.9051H64.4376C65.7076 34.9051 66.7372 33.859 66.7372 32.5687Z"
        fill="#FF5129" />
    <path fill-rule="evenodd" clip-rule="evenodd"
        d="M12.2589 31.7702V2.93239C12.2589 1.64735 11.2241 0.595947 9.9593 0.595947H2.38221C1.11745 0.595947 0.0826416 1.64735 0.0826416 2.93239V34.9066H0.0845721V41.9564C0.0845721 43.2608 1.40107 44.3281 3.01011 44.3281H27.374V59.1957C27.374 60.4861 28.4036 61.5321 29.6736 61.5321H37.2507C38.5207 61.5321 39.5503 60.4861 39.5503 59.1957V44.3281H63.6859C65.2949 44.3281 66.6114 43.2608 66.6114 41.9564V31.7702H12.2589Z"
        fill="#FF5129" />
    <path
        d="M3.0116 0.376953H63.6874C65.2964 0.376953 66.6129 1.44419 66.6129 2.74859V10.5631C66.6129 11.8675 65.2964 12.9348 63.6874 12.9348H0.0860596V2.74859C0.0860596 1.44419 1.40255 0.376953 3.0116 0.376953Z"
        fill="#FF5129" />
</svg>