<svg xmlns="http://www.w3.org/2000/svg" width="86" height="62" viewBox="0 0 86 62" fill="none">
    <path
        d="M49.9117 59.3798V35.403C49.9117 34.108 48.8785 33.0581 47.6038 33.0581H39.9992C38.7246 33.0581 37.6913 34.108 37.6913 35.403V59.3798C37.6913 60.6749 38.7246 61.7247 39.9992 61.7247H47.6038C48.8785 61.7247 49.9117 60.6749 49.9117 59.3798Z"
        fill="#FF5129" />
    <path
        d="M86.0037 32.8755V2.93026C86.0037 1.62649 85.005 0.56958 83.7731 0.56958L76.4235 0.56958C75.1916 0.56958 74.193 1.62649 74.193 2.93026V32.8755C74.193 34.1793 75.1916 35.2362 76.4235 35.2362H83.7731C85.005 35.2362 86.0037 34.1793 86.0037 32.8755Z"
        fill="#FF5129" />
    <path fill-rule="evenodd" clip-rule="evenodd"
        d="M12.9185 31.9056V2.91597C12.9185 1.62626 11.8799 0.571045 10.6106 0.571045H3.00599C1.73663 0.571045 0.69807 1.62626 0.69807 2.91597V31.9056H0.695923V42.1801C0.695923 43.4959 2.38392 44.5724 4.44703 44.5724H82.2449C84.308 44.5724 85.996 43.4959 85.996 42.1801V31.9056H12.9185Z"
        fill="#FF5129" />
    <path
        d="M4.45398 0.56958H82.2518C84.3149 0.56958 86.0029 1.64608 86.0029 2.96179V10.8441C86.0029 12.1598 84.3149 13.2363 82.2518 13.2363H0.702881V2.96179C0.702881 1.64608 2.39088 0.56958 4.45398 0.56958Z"
        fill="#FF5129" />
</svg>