<svg width="561" height="330" viewBox="0 0 561 330" fill="none" xmlns="http://www.w3.org/2000/svg">
<path d="M187.358 284.573L187.365 284.567L187.372 284.561C208.24 266.563 219.422 241.505 221.09 209.684C222.628 180.344 215.121 156.484 198.319 138.406C181.549 120.074 158.22 110.237 128.636 108.687C111.42 107.784 96.8712 110.204 85.1425 116.128L89.4055 68.6981L199.919 74.4899C202.716 74.6364 205.312 74.1127 207.264 72.453C209.244 70.7695 210.105 68.3088 210.248 65.5757L212.556 21.5306C212.705 18.699 212.131 16.0796 210.372 14.1255C208.613 12.1712 206.068 11.3261 203.237 11.1777L38.5468 2.54666C35.7158 2.39829 33.0969 2.97277 31.1433 4.73253C29.201 6.48217 28.3549 9.00848 28.1996 11.8208L15.3807 155.053L15.3766 155.099L15.3742 155.145C15.2448 157.613 15.7504 159.901 17.0562 161.847C18.3543 163.782 20.2936 165.157 22.6441 166.08L22.6532 166.084L22.6623 166.087L53.4789 177.913C57.387 179.553 61.5351 178.712 65.6028 176.203C78.8921 168.231 94.6461 164.666 112.98 165.627C127.479 166.387 137.719 170.133 144.175 176.451C150.573 182.714 153.656 191.902 152.997 204.479C152.234 219.031 147.954 229.295 140.566 235.772C133.164 242.261 122.195 245.346 107.209 244.56C86.06 243.452 65.9964 235.656 46.9826 221.039C44.8297 219.14 42.4658 217.86 39.9383 217.829C37.279 217.796 35.0504 219.144 33.2776 221.216L33.2709 221.224L33.2642 221.232L6.25073 253.333C6.24837 253.336 6.24601 253.338 6.24365 253.341C4.54985 255.323 3.46841 257.524 3.34281 259.921C3.21613 262.338 4.08015 264.601 5.61381 266.651L5.71472 266.786L5.83283 266.906C30.9204 292.432 64.2197 306.202 105.5 308.366C139.126 310.128 166.508 302.288 187.358 284.573ZM263.598 159.789L263.608 159.799L263.619 159.81C275.01 170.961 289.896 176.943 308.065 177.895C326.492 178.861 341.94 174.475 354.181 164.536C366.515 154.521 373.055 139.947 374.038 121.188L376.303 77.9588C377.286 59.2151 372.307 44.1638 361.064 33.1794C350.188 22.0157 335.271 16.0526 316.598 15.074C298.177 14.1086 282.733 18.4909 270.495 28.4227C258.157 38.1718 251.629 52.6236 250.646 71.3733L248.38 114.603C247.397 133.362 252.378 148.539 263.598 159.789ZM279.701 308.616L279.726 308.685L279.755 308.753C281.034 311.686 283.943 312.81 287.087 312.975L322.96 314.855C327.544 315.095 331.326 313.418 333.923 309.771L333.928 309.765L523.751 41.6308L523.758 41.6201C524.652 40.344 525.29 38.9627 525.473 37.4947C525.651 36.0573 525.374 34.6765 524.682 33.4222C524.123 32.0347 523.185 30.9056 521.892 30.1197C520.577 29.3198 519.03 28.9546 517.398 28.869L481.933 27.0104C477.153 26.7599 473.199 28.3708 470.562 32.0727L470.557 32.0806L281.141 300.237L281.135 300.245C279.319 302.839 278.634 305.716 279.701 308.616ZM324.938 63.9504L324.974 63.9907L325.012 64.0295C327.45 66.5128 328.771 70.4194 328.464 76.2695L326.284 117.868C325.967 123.925 324.364 127.929 321.891 130.363C319.46 132.758 315.776 134.034 310.378 133.751C306.061 133.525 302.688 132.05 300.075 129.408C297.608 126.641 296.307 122.425 296.627 116.313L298.807 74.7153C299.114 68.8652 300.835 65.118 303.52 62.9032L303.562 62.8686L303.602 62.8322C306.51 60.2134 310.01 58.9944 314.284 59.2183C318.872 59.4588 322.346 61.0706 324.938 63.9504ZM536.064 313.11C548.398 303.094 554.938 288.521 555.921 269.762L558.186 226.532C559.169 207.782 554.186 192.727 542.935 181.741C531.802 170.585 516.901 164.613 498.481 163.647C480.059 162.682 464.616 167.064 452.377 176.996C440.04 186.746 433.511 201.197 432.529 219.947L430.263 263.176C429.28 281.935 434.261 297.113 445.48 308.362C456.615 319.527 471.52 325.503 489.947 326.469C508.375 327.435 523.823 323.049 536.064 313.11ZM481.958 277.982C479.474 275.196 478.184 271.1 478.489 265.295L480.69 223.289C480.98 217.764 482.679 213.933 485.485 211.406C488.392 208.787 491.893 207.568 496.167 207.792C500.441 208.016 503.795 209.594 506.413 212.503C508.939 215.309 510.229 219.297 509.939 224.822L507.738 266.828C507.434 272.633 505.723 276.572 502.962 279.082C500.087 281.437 496.578 282.551 492.261 282.325C487.944 282.098 484.571 280.624 481.958 277.982Z" stroke="white" stroke-width="5"/>
</svg>
