<svg width="815" height="171" viewBox="0 0 815 171" fill="none" xmlns="http://www.w3.org/2000/svg">
<path d="M349.478 0C353.225 7.06682 359.005 12.8472 366.072 16.5939C359.005 20.3406 353.225 26.121 349.478 33.1879C345.732 26.121 339.951 20.3406 332.884 16.5939C339.951 12.8472 345.732 7.06682 349.478 0Z" fill="white"/>
<path d="M8.21807 42.6349C10.0443 42.4135 12.3409 42.1921 15.108 41.9708C17.875 41.6941 20.9741 41.445 24.4052 41.2237C27.8363 41.0023 31.5718 40.8363 35.6116 40.7256C39.7068 40.5596 43.9957 40.4766 48.4783 40.4766C54.7318 40.4766 61.2896 40.6703 68.1519 41.0576C75.0694 41.445 82.0147 42.1368 88.9876 43.1329C95.9605 44.0737 102.823 45.4019 109.574 47.1174C116.381 48.7777 122.801 50.9359 128.833 53.5923C134.92 56.1933 140.51 59.32 145.601 62.9725C150.692 66.625 155.036 70.9139 158.634 75.8392C162.231 80.7091 164.832 85.9665 166.437 91.6112C168.097 97.256 168.927 103.067 168.927 109.043C168.927 110.538 168.872 112.06 168.761 113.609C168.429 119.586 167.322 125.092 165.441 130.128C163.559 135.164 161.096 139.702 158.053 143.742C155.064 147.727 151.578 151.241 147.593 154.284C143.664 157.328 139.403 159.874 134.81 161.921C130.216 163.969 125.402 165.491 120.366 166.487C115.33 167.538 110.266 168.064 105.175 168.064C98.5338 168.064 92.0036 167.179 85.5841 165.408C79.1646 163.692 73.2155 161.064 67.7368 157.522C62.3134 153.98 57.5818 149.553 53.542 144.24C49.5574 138.872 46.6521 132.619 44.8258 125.48L63.4203 120.748C64.3057 124.179 65.6615 127.278 67.4878 130.045C69.314 132.757 71.4446 135.164 73.8796 137.267C76.3146 139.37 78.9433 141.169 81.7656 142.663C84.588 144.102 87.4104 145.292 90.2327 146.232C93.1104 147.118 95.9051 147.782 98.6168 148.225C101.329 148.667 103.763 148.889 105.922 148.889C110.515 148.889 114.887 148.086 119.037 146.481C123.188 144.876 126.951 142.718 130.327 140.007C133.758 137.295 136.691 134.113 139.126 130.46C141.616 126.752 143.443 122.934 144.605 119.005C145.822 115.076 146.431 111.174 146.431 107.3C146.431 106.858 146.376 105.446 146.265 103.067C146.21 100.632 145.241 97.339 143.36 93.1884C141.478 88.9825 138.683 85.0257 134.976 81.3179C131.268 77.5547 126.453 74.2343 120.532 71.3566C114.666 68.4789 107.61 66.1546 99.3639 64.3837C91.1182 62.6128 81.5443 61.6167 70.6422 61.3953L23.9901 164.993H0L46.8181 61.0632C43.2763 61.0632 39.6515 61.1463 35.9437 61.3123C32.2359 61.4783 28.6664 61.6997 25.2353 61.9764C21.8042 62.1977 18.5944 62.4468 15.606 62.7235C12.673 63.0002 10.2103 63.2492 8.21807 63.4706V42.6349Z" fill="white"/>
<path d="M199.724 43.2989V78.6615C207.25 65.9886 216.437 56.4146 227.284 49.9398C238.13 43.465 250.499 40.2275 264.389 40.2275C273.687 40.2275 282.154 41.2513 289.791 43.2989C297.483 45.2912 304.152 48.2796 309.796 52.2641C315.22 56.0826 319.398 60.6205 322.331 65.8779C325.319 71.1352 326.814 76.6693 326.814 82.48C326.814 85.8558 326.288 89.2039 325.236 92.5243C324.185 95.8448 322.608 99.0269 320.505 102.071C318.457 105.059 315.884 107.854 312.785 110.455C309.686 113 306.088 115.214 301.993 117.096C297.898 118.977 293.305 120.471 288.214 121.578C283.178 122.63 277.643 123.155 271.611 123.155C260.654 123.155 250.637 121.661 241.561 118.673C244.218 122.436 247.206 126.144 250.527 129.796C253.847 133.393 257.527 136.603 261.567 139.425C265.662 142.248 270.089 144.544 274.849 146.315C279.663 148.031 284.838 148.889 290.372 148.889C292.198 148.889 294.163 148.667 296.266 148.225C298.424 147.782 300.61 147.173 302.823 146.398C305.092 145.568 307.334 144.572 309.547 143.41C311.816 142.248 313.975 140.975 316.022 139.591L326.814 155.447C323.936 157.439 320.947 159.21 317.848 160.759C314.749 162.309 311.623 163.637 308.468 164.744C305.369 165.795 302.27 166.598 299.171 167.151C296.127 167.76 293.194 168.064 290.372 168.064C283.51 168.064 277.09 167.123 271.113 165.242C265.192 163.416 259.713 160.953 254.677 157.854C249.641 154.755 245.048 151.213 240.897 147.228C236.747 143.244 232.984 139.121 229.608 134.86C226.287 130.543 223.354 126.254 220.809 121.993C218.263 117.732 216.105 113.803 214.334 110.206C214.223 109.984 214.057 109.597 213.836 109.043L234.09 93.9355C244.052 100.576 256.559 103.897 271.611 103.897C277.533 103.897 282.707 103.288 287.134 102.071C291.617 100.853 295.38 99.2482 298.424 97.256C301.468 95.2084 303.737 92.9117 305.231 90.3661C306.78 87.7651 307.555 85.1364 307.555 82.48C307.555 79.8237 306.78 77.2504 305.231 74.76C303.737 72.2144 301.551 69.9177 298.673 67.8701C297.289 66.9293 295.574 65.9609 293.526 64.9648C291.534 63.9686 289.127 63.0555 286.304 62.2254C283.537 61.3953 280.327 60.7312 276.675 60.2331C273.078 59.6797 268.983 59.403 264.389 59.403C251.882 59.403 241.091 62.9172 232.015 69.9454C222.939 76.9183 215.524 87.433 209.768 101.49C207.942 105.917 206.42 110.316 205.203 114.688C203.985 119.06 202.989 123.155 202.214 126.974C201.495 130.792 200.941 134.223 200.554 137.267C200.167 140.256 199.89 142.608 199.724 144.323V165.076H178.971V43.2989H199.724Z" fill="white"/>
<path d="M361.18 164.993H338.103V43.2989H361.18V164.993Z" fill="white"/>
<path d="M611.541 43.2159V164.993H588.298V64.8817C586.25 65.4905 583.483 66.4036 579.996 67.6211C576.565 68.7833 572.664 70.2221 568.292 71.9377C563.92 73.6532 559.216 75.6455 554.18 77.9144C549.199 80.1281 544.136 82.6184 538.989 85.3854C533.842 88.0971 528.723 91.0578 523.632 94.2676C518.596 97.422 513.865 100.798 509.437 104.395C513.145 109.099 515.995 113.692 517.987 118.175C519.98 122.602 521.28 126.531 521.889 129.962C522.553 133.393 522.885 136.409 522.885 139.01C522.885 140.062 522.774 141.722 522.553 143.991C522.387 146.26 521.834 148.833 520.893 151.711C520.007 154.533 518.901 156.996 517.572 159.099C516.244 161.202 514.944 162.834 513.671 163.997C511.07 166.432 508.081 168.203 504.706 169.309C501.33 170.416 497.899 170.97 494.412 170.97C490.649 170.97 487.024 170.361 483.538 169.143C480.051 167.981 477.118 166.266 474.739 163.997C472.027 161.451 469.813 158.048 468.098 153.786C466.438 149.525 465.608 144.738 465.608 139.425C465.608 134.113 466.631 128.468 468.679 122.491C470.782 116.459 474.213 110.427 478.972 104.395C475.043 101.185 470.865 98.1414 466.438 95.2637C462.066 92.386 457.556 89.6743 452.907 87.1286C448.314 84.5276 443.665 82.1203 438.961 79.9067C434.257 77.6377 429.636 75.5901 425.098 73.7639C420.616 71.8823 416.244 70.1944 411.983 68.7002C407.777 67.206 403.82 65.9332 400.112 64.8817V164.993H376.869V43.2159H397.954C402.215 44.3781 406.919 45.8446 412.066 47.6155C417.212 49.3311 422.58 51.2956 428.17 53.5093C433.814 55.7229 439.57 58.1855 445.436 60.8972C451.357 63.5536 457.168 66.4313 462.868 69.5303C468.568 72.6294 474.075 75.9222 479.387 79.4086C484.755 82.8951 489.708 86.5199 494.246 90.283C499.504 85.9111 505.508 81.5392 512.26 77.1673C519.011 72.7954 526.427 68.5896 534.507 64.5497C542.642 60.4545 551.385 56.6083 560.738 53.0112C570.146 49.3587 580.079 46.0936 590.539 43.2159H611.541ZM501.717 140.007C501.717 136.133 501.053 132.453 499.725 128.966C498.397 125.424 496.571 121.993 494.246 118.673C491.922 121.993 490.096 125.424 488.768 128.966C487.439 132.453 486.775 136.133 486.775 140.007C486.775 141.335 486.858 142.663 487.024 143.991C487.246 145.319 487.605 146.537 488.104 147.644C488.657 148.75 489.432 149.663 490.428 150.383C491.424 151.047 492.724 151.379 494.329 151.379C495.879 151.379 497.124 151.019 498.065 150.3C499.061 149.58 499.808 148.667 500.306 147.56C500.859 146.454 501.219 145.236 501.385 143.908C501.607 142.525 501.717 141.224 501.717 140.007Z" fill="white"/>
<path d="M730.578 92.0263C735.891 91.4175 740.844 91.0025 745.437 90.7811C750.086 90.5044 754.485 90.3661 758.636 90.3661C769.427 90.3661 778.42 91.1962 785.614 92.8564C792.808 94.5166 798.564 96.7579 802.88 99.5803C807.252 102.347 810.351 105.557 812.178 109.21C814.004 112.862 814.945 116.653 815 120.582C815 120.803 815 120.997 815 121.163C815 124.926 814.474 128.689 813.423 132.453C812.371 136.216 810.517 139.785 807.861 143.161C805.205 146.537 801.608 149.663 797.07 152.541C792.587 155.364 786.915 157.798 780.052 159.846C773.246 161.894 765.138 163.499 755.73 164.661C746.322 165.768 735.393 166.321 722.941 166.321C713.755 166.321 704.955 165.823 696.544 164.827C688.187 163.775 680.384 162.475 673.135 160.925C665.885 159.376 659.272 157.688 653.295 155.862C647.374 154.035 642.255 152.32 637.938 150.715C633.677 149.11 630.301 147.754 627.811 146.647C625.376 145.485 623.992 144.821 623.66 144.655L632.957 125.978C633.013 125.978 634.092 126.476 636.195 127.472C638.353 128.413 641.369 129.575 645.243 130.958C649.117 132.342 653.765 133.864 659.189 135.524C664.612 137.129 670.644 138.623 677.285 140.007C683.926 141.39 691.065 142.552 698.702 143.493C706.394 144.434 714.419 144.904 722.775 144.904C734.286 144.904 744.081 144.517 752.161 143.742C760.241 142.912 766.937 141.833 772.249 140.505C777.562 139.176 781.657 137.655 784.535 135.939C787.468 134.223 789.46 132.508 790.512 130.792C791.563 129.077 792.089 127.472 792.089 125.978C792.089 125.535 791.978 124.733 791.757 123.57C791.591 122.408 790.955 120.969 789.848 119.254C788.907 117.76 787.523 116.514 785.697 115.518C783.871 114.467 781.685 113.664 779.139 113.111C776.649 112.502 773.827 112.087 770.672 111.866C767.518 111.589 764.114 111.451 760.462 111.451C755.039 111.451 749.172 111.672 742.864 112.115C736.61 112.502 730.135 112.945 723.439 113.443C716.743 113.941 709.964 114.412 703.101 114.854C696.239 115.242 689.543 115.435 683.013 115.435C677.645 115.435 672.443 115.242 667.407 114.854C662.426 114.467 657.75 113.803 653.378 112.862C649.006 111.921 645.022 110.648 641.424 109.043C637.827 107.439 634.728 105.419 632.127 102.984C629.526 100.549 627.506 97.6433 626.067 94.2676C624.684 90.8918 623.992 86.9626 623.992 82.48C623.992 79.2703 624.49 76.0605 625.486 72.8508C626.482 69.641 628.226 66.5696 630.716 63.6366C633.262 60.6482 636.693 57.8812 641.009 55.3355C645.381 52.7345 650.915 50.4379 657.612 48.4456C664.363 46.4533 672.415 44.8485 681.768 43.631C691.176 42.4135 702.161 41.6664 714.723 41.3897C716.217 41.3897 717.684 41.3897 719.123 41.3897C726.76 41.3897 734.424 41.7771 742.117 42.5518C749.864 43.3266 757.391 44.4057 764.695 45.7893C772.056 47.1728 778.724 48.7223 784.701 50.4379C790.733 52.1534 795.935 53.7583 800.307 55.2525C804.679 56.7467 808.11 58.0472 810.6 59.154C813.146 60.2055 814.557 60.8142 814.834 60.9802L806.035 79.4916C805.979 79.4363 804.9 78.9382 802.797 77.9974C800.75 77.0013 797.844 75.7838 794.081 74.345C790.373 72.9061 785.863 71.3843 780.551 69.7794C775.238 68.1192 769.316 66.625 762.786 65.2968C756.311 63.9133 749.588 62.8341 742.615 62.0594C735.642 61.2846 728.724 60.8972 721.862 60.8972C720.478 60.8972 719.095 60.9249 717.711 60.9802C706.92 61.2016 697.595 61.6997 689.737 62.4744C681.878 63.1939 675.238 64.1346 669.814 65.2968C664.391 66.4589 660.047 67.7871 656.781 69.2813C653.516 70.7755 651.081 72.3804 649.477 74.0959C647.872 75.7562 647.014 77.1397 646.903 78.2465C646.792 79.3533 646.737 80.1004 646.737 80.4878C646.737 81.9266 647.014 83.3932 647.567 84.8873C648.342 86.8796 649.753 88.5398 651.801 89.868C653.848 91.1962 656.366 92.2753 659.355 93.1054C662.398 93.9355 665.885 94.5443 669.814 94.9316C673.799 95.2637 678.088 95.4297 682.681 95.4297C689.709 95.4297 697.291 95.0977 705.426 94.4336C713.561 93.7695 721.945 92.9671 730.578 92.0263Z" fill="white"/>
</svg>
