<svg xmlns="http://www.w3.org/2000/svg" width="130" height="46" viewBox="0 0 130 46" fill="none">
    <path d="M32.1802 18.0324C32.1594 19.0531 32.0356 20.1309 31.8789 20.7759C31.9366 19.6675 31.8 18.1019 31.5432 16.8805C31.2838 15.6586 30.5548 13.6171 29.973 12.6744C29.4328 13.5731 28.7698 15.338 28.4239 16.8682C28.0758 18.4 28.0627 20.2524 28.0627 20.8083C27.9713 20.3406 27.7387 18.672 27.8062 16.99C27.8585 15.6068 28.1868 14.182 28.3669 13.5299C29.0499 11.3424 29.8265 9.94433 29.973 9.72137C30.1184 9.94433 31.094 11.662 31.601 13.4711C32.1029 15.2825 32.2034 17.0149 32.1803 18.0324L32.1802 18.0324ZM29.9847 25.8438C29.6797 25.2773 29.2077 24.2037 29.1632 22.5408C29.1515 20.9326 29.8025 19.554 29.9909 19.2658C30.163 19.554 30.7232 20.755 30.7887 22.3959C30.835 24.0069 30.2969 25.2669 29.9847 25.8438ZM32.3607 13.4953C31.7453 10.8191 30.1965 8.64422 29.9847 8.28711C29.6447 8.78901 28.4122 10.7092 27.7844 12.8408C27.098 15.2153 26.9983 17.3233 27.2339 19.3995C27.4677 21.4745 28.3535 23.6058 28.3535 23.6058C28.8268 24.7239 29.5351 25.9197 29.9909 26.5117C30.6696 25.6456 32.2183 23.0629 32.6983 19.6866C32.9678 17.8115 32.9792 16.1717 32.3607 13.4953H32.3607Z" fill="white"/>
    <path d="M31.1998 27.4718H26.5464V30.6192L26.559 30.606C27.6568 29.5001 29.433 29.5001 30.5274 30.606C31.6237 31.7141 31.6237 33.5037 30.5274 34.6112C30.5249 34.6165 30.5162 34.6191 30.513 34.6278L30.4952 34.6409C29.404 35.7363 27.9747 36.2817 26.5464 36.2817C25.1122 36.2817 23.6785 35.7309 22.5844 34.6279C20.6577 32.6803 20.4266 29.6715 21.8976 27.4717C22.0958 27.1732 22.3236 26.8889 22.5844 26.6283C23.6785 25.5249 25.1122 24.9737 26.5464 24.9737V17.4004C21.0353 17.4004 16.5674 21.913 16.5674 27.4717C16.5674 33.0305 21.0353 37.5434 26.5464 37.5434C29.4206 37.5434 32.0111 36.3177 33.8328 34.3544V27.4717H31.1998L31.1998 27.4718Z" fill="white"/>
    <path d="M35.2716 27.4717H39.1084V28.7224H37.283V37.5432H35.2716V27.4717Z" fill="white"/>
    <path d="M39.109 37.5432H41.0837L41.2718 34.8687H42.2243L42.4106 37.5432H44.3844L43.3338 27.4717H40.1607L39.1089 37.5432H39.109ZM41.3424 33.761L41.6887 28.7199H41.8052L42.1505 33.761H41.3424Z" fill="white"/>
    <path d="M46.9335 34.0172V35.9135C46.9335 36.1746 47.1427 36.2448 47.2606 36.2448C47.4526 36.2448 47.5869 36.0869 47.5869 35.9135V33.5726C47.5869 33.2557 47.5262 32.9097 46.7579 32.9097H45.9128V31.8033H46.7853C47.3792 31.8033 47.587 31.6713 47.587 31.055V29.0519C47.587 28.8762 47.4527 28.7211 47.2606 28.7211C47.1428 28.7211 46.9335 28.7931 46.9335 29.0519V30.6945H44.8628V29.2705C44.8628 28.5662 44.9525 27.4707 46.4035 27.4707H48.1204C49.5684 27.4707 49.6587 28.5662 49.6587 29.2709V30.8801C49.6587 31.9733 48.8752 32.2756 48.2513 32.2498V32.3484C49.6449 32.3186 49.6587 33.3562 49.6587 33.7146V35.7461C49.6587 36.4494 49.5684 37.5422 48.1204 37.5422L46.4035 37.5419C44.9525 37.5419 44.8628 36.4493 44.8628 35.7461V34.0172H46.9335H46.9335Z" fill="white"/>
    <path d="M51.0978 27.4707H55.4141V37.5422H53.549V28.7215H52.9636L52.9626 37.5422H51.0978V27.4707Z" fill="white"/>
    <path d="M56.8528 37.5422H58.9246V34.1169H60.1103C61.5613 34.1169 61.6483 33.0229 61.6483 32.3189L61.6487 29.2705C61.6487 28.5661 61.5613 27.4707 60.1103 27.4707H56.8528V37.5422V37.5422ZM58.9246 33.0091V28.7216H59.1943C59.4168 28.7216 59.576 28.9045 59.576 29.2225V32.5077C59.576 32.8239 59.4168 33.0092 59.1943 33.0092H58.9246V33.0091Z" fill="white"/>
    <path d="M62.6082 35.7474C62.6082 36.4507 62.6878 37.5432 63.9933 37.5432H65.5387C66.8465 37.5432 66.9245 36.4506 66.9245 35.7474V29.2715C66.9245 28.5675 66.8465 27.4717 65.5387 27.4717H63.9933C62.6878 27.4717 62.6082 28.5675 62.6082 29.2715V35.7474ZM65.0597 35.9144C65.0597 36.0883 64.9394 36.2462 64.7662 36.2462C64.6615 36.2462 64.4744 36.176 64.4744 35.9144V29.0529C64.4744 28.7945 64.6615 28.7226 64.7662 28.7226C64.9394 28.7226 65.0597 28.8772 65.0597 29.0529V35.9144Z" fill="white"/>
    <path d="M73.4791 27.4717H76.0369V37.5432H74.0682V31.2269H73.9988L72.986 37.5432H71.4125L70.4048 31.2269H70.3286V37.5432H68.3634V27.4717H70.9216L72.201 34.5522L73.4791 27.4717Z" fill="white"/>
    <path d="M96.7093 33.8082C96.1622 34.4573 93.7821 37.0636 93.7821 37.0636H96.0775C98.1319 37.0636 99.6652 36.5421 100.926 35.0455C101.472 34.3971 103.854 31.7881 103.854 31.7881H101.557C99.5026 31.7881 97.9763 32.3089 96.7093 33.8083L96.7093 33.8082Z" fill="white"/>
    <path d="M83.4653 31.7881C82.3931 31.7881 81.5931 32.0248 80.9258 32.707C80.6404 33.0021 79.3944 34.1861 79.3944 34.1861H80.595C81.6724 34.1861 82.472 33.9481 83.1355 33.2667C83.4206 32.9739 84.67 31.7881 84.67 31.7881H83.4653Z" fill="white"/>
    <path d="M87.7817 24.5928C86.7062 24.5928 85.9057 24.8778 85.2407 25.693C84.9551 26.0493 83.7101 27.4703 83.7101 27.4703H84.9136C85.9883 27.4703 86.79 27.1861 87.4523 26.3701C87.7398 26.0177 88.9856 24.5928 88.9856 24.5928H87.7818H87.7817Z" fill="white"/>
    <path d="M104.935 23.6348C102.899 23.6348 101.387 24.1811 100.132 25.7535C99.8495 26.1104 98.3781 27.8333 98.3781 27.8333C97.8459 28.4236 97.2066 28.6329 96.3724 28.6329L94.6636 28.6351C94.2691 28.6351 93.8858 28.6479 93.5132 28.6783L93.5289 28.6582C91.9781 30.5292 90.0991 31.1943 87.5986 31.1943H84.7364L84.7276 31.2042H87.5865C87.6205 31.2042 87.6525 31.2042 87.6831 31.2024C87.4281 31.4614 87.1775 31.7421 86.9353 32.0466C86.0613 33.1401 82.2716 37.543 82.2716 37.543H85.9331C89.205 37.543 91.6428 36.6607 93.6584 34.1338C94.2234 33.4287 97.1854 29.9667 97.1854 29.9667C97.671 29.4285 98.2448 29.2038 98.9767 29.169H99.5099C101.543 29.169 103.058 28.6223 104.313 27.051C104.854 26.3702 107.211 23.6348 107.211 23.6348H104.935V23.6348Z" fill="white"/>
    <path d="M93.9039 28.8122C93.9351 28.7739 93.9663 28.7361 93.9971 28.6979C94.4356 28.154 95.817 26.5553 96.7437 25.4889V25.4911C97.207 24.9841 97.7561 24.7717 98.4551 24.7417C99.7501 24.7366 100.713 24.3894 101.515 23.4013C101.862 22.9688 103.373 21.2363 103.373 21.2363H101.916C100.61 21.2363 99.6438 21.5829 98.8385 22.5757C98.6365 22.8199 98.0659 23.4849 97.6089 24.0143C97.2821 24.3486 96.8939 24.469 96.3887 24.469L94.7792 24.472C92.2356 24.472 90.3371 25.1474 88.7689 27.0916C88.1 27.9193 85.2442 31.1989 85.1488 31.3078H87.9984C90.4886 31.3078 92.3593 30.6536 93.9038 28.8122H93.9039Z" fill="white"/>
    <path d="M105.867 29.8262C105.582 30.1233 104.333 31.3081 104.333 31.3081H105.536C106.61 31.3081 107.411 31.0714 108.079 30.391C108.36 30.0959 109.609 28.9102 109.609 28.9102H108.406C107.332 28.9102 106.532 29.1466 105.867 29.8262H105.867Z" fill="white"/>
    <path d="M111.761 20.7568C110.688 20.7568 109.886 21.0408 109.222 21.857C108.94 22.2087 107.69 23.6344 107.69 23.6344H108.892C109.97 23.6344 110.771 23.3477 111.431 22.5309C111.722 22.1787 112.966 20.7568 112.966 20.7568H111.761Z" fill="white"/>
    <path d="M48.1265 24.2948C48.0928 24.4935 48.0359 24.6714 47.9554 24.8283C47.8749 24.9854 47.774 25.1165 47.6526 25.2229C47.5307 25.329 47.3933 25.4104 47.2403 25.4673C47.0869 25.5238 46.9205 25.5527 46.741 25.5527C46.5426 25.5527 46.3565 25.515 46.1825 25.4393C46.0088 25.3639 45.8543 25.2544 45.7198 25.1114C45.6262 25.0122 45.5544 24.9089 45.5036 24.8013C45.4533 24.694 45.4159 24.5742 45.3916 24.4408C45.3673 24.3078 45.3532 24.1568 45.3496 23.9877C45.3459 23.8186 45.3438 23.621 45.3438 23.3947C45.3438 23.168 45.3459 22.97 45.3496 22.8013C45.3532 22.6325 45.3674 22.4815 45.3916 22.3482C45.4159 22.2152 45.4533 22.0949 45.5036 21.9877C45.5544 21.8801 45.6262 21.7767 45.7198 21.6776C45.8543 21.5346 46.0088 21.425 46.1825 21.3498C46.3565 21.274 46.5426 21.2363 46.741 21.2363C46.9205 21.2363 47.0869 21.2652 47.2403 21.3221C47.3933 21.3785 47.5307 21.46 47.6526 21.5664C47.774 21.6725 47.8749 21.8036 47.9554 21.9608C48.0359 22.1175 48.0928 22.2956 48.1265 22.4941H47.6888C47.6366 22.2321 47.5283 22.0234 47.3636 21.8682C47.1989 21.7132 46.9916 21.6355 46.741 21.6355C46.61 21.6355 46.4839 21.6614 46.362 21.7132C46.2406 21.7647 46.1369 21.8393 46.0508 21.935C45.9871 22.0022 45.9366 22.076 45.8993 22.1532C45.862 22.2309 45.834 22.3243 45.8151 22.4346C45.7967 22.5438 45.7844 22.676 45.7785 22.8289C45.7731 22.9831 45.7702 23.171 45.7702 23.3946C45.7702 23.6179 45.7731 23.8059 45.7785 23.9599C45.7844 24.1129 45.7967 24.2451 45.8151 24.3543C45.834 24.4645 45.862 24.558 45.8993 24.6355C45.9366 24.7132 45.9871 24.7866 46.0508 24.8543C46.1369 24.9495 46.2406 25.0241 46.362 25.0756C46.4839 25.1275 46.61 25.1532 46.741 25.1532C46.9916 25.1532 47.2008 25.0756 47.3691 24.9208C47.5377 24.7655 47.6479 24.5568 47.7001 24.2947H48.1265V24.2948ZM48.9396 25.5169V21.2721H51.4192V21.6715H49.3657V23.1799H51.116V23.5796H49.3657V25.1176H51.4192V25.5169H48.9396ZM53.3483 21.6715V25.5169H52.9219V21.6715H51.7662V21.2721H54.5041V21.6715H53.3483H53.3483ZM57.8529 24.2741C57.8529 24.4608 57.8228 24.6295 57.763 24.7825C57.7032 24.9347 57.6201 25.0657 57.5135 25.1752C57.4068 25.2844 57.2767 25.3678 57.1233 25.4273C56.9703 25.4869 56.8017 25.5169 56.6185 25.5169H55.1205V21.2721H55.5469V23.025H56.6185C56.8056 23.025 56.9745 23.0546 57.1262 23.1142C57.2777 23.1738 57.4075 23.2576 57.516 23.3667C57.6244 23.4762 57.7078 23.608 57.7659 23.7622C57.8238 23.9171 57.8529 24.0873 57.8529 24.2741L57.8529 24.2741ZM57.4265 24.2741C57.4265 24.0027 57.3536 23.7929 57.2067 23.646C57.061 23.4978 56.8524 23.4243 56.5819 23.4243H55.5469V25.1176H56.5819C56.8524 25.1176 57.061 25.0439 57.2067 24.8959C57.3536 24.7486 57.4265 24.5411 57.4265 24.2741ZM62.4187 25.5169L62.0989 24.5569H60.3543L60.0345 25.5169H59.5801L61.0498 21.2721H61.4092L62.8731 25.5169H62.4188H62.4187ZM61.2351 21.9221L60.4834 24.1637H61.9756L61.2351 21.9221H61.2351ZM63.8543 21.6715V25.5169H63.4279V21.2721H65.8293V21.6715H63.8543ZM68.7741 25.5169V23.5796H66.8776V25.5169H66.4515V21.2721H66.8776V23.1799H68.7741V21.2721H69.2002V25.5169H68.7741ZM70.2489 25.5169V21.2721H70.6754V23.2933L72.3862 21.2721H72.9247L71.1747 23.2871L73.0762 25.5169H72.5098L70.6754 23.3052V25.5169H70.2489ZM76.0379 24.2948C76.004 24.4935 75.9472 24.6714 75.8666 24.8283C75.7866 24.9854 75.6854 25.1165 75.5639 25.2229C75.4424 25.329 75.3049 25.4104 75.1516 25.4673C74.9981 25.5238 74.8317 25.5527 74.6522 25.5527C74.4538 25.5527 74.2678 25.515 74.0937 25.4393C73.92 25.3639 73.7659 25.2544 73.6311 25.1114C73.5375 25.0122 73.4657 24.9089 73.4153 24.8013C73.3645 24.694 73.3271 24.5742 73.3029 24.4408C73.2786 24.3078 73.2644 24.1568 73.2608 23.9877C73.2572 23.8186 73.2554 23.621 73.2554 23.3947C73.2554 23.168 73.2572 22.97 73.2608 22.8013C73.2644 22.6325 73.2786 22.4815 73.3029 22.3482C73.3271 22.2152 73.3645 22.0949 73.4153 21.9877C73.4657 21.8801 73.5375 21.7767 73.6311 21.6776C73.7659 21.5346 73.92 21.425 74.0937 21.3498C74.2678 21.274 74.4538 21.2363 74.6522 21.2363C74.8317 21.2363 74.9981 21.2652 75.1516 21.3221C75.3049 21.3785 75.4424 21.46 75.5639 21.5664C75.6854 21.6725 75.7865 21.8036 75.8666 21.9608C75.9472 22.1175 76.004 22.2956 76.0379 22.4941H75.6005C75.5479 22.2321 75.4395 22.0234 75.2748 21.8682C75.1102 21.7132 74.9028 21.6355 74.6522 21.6355C74.5213 21.6355 74.3951 21.6614 74.2737 21.7132C74.1518 21.7647 74.0481 21.8393 73.9622 21.935C73.8987 22.0022 73.8483 22.076 73.8106 22.1532C73.7733 22.2309 73.7453 22.3243 73.7264 22.4346C73.708 22.5438 73.6957 22.676 73.6902 22.8289C73.6844 22.9831 73.6815 23.171 73.6815 23.3946C73.6815 23.6179 73.6844 23.8059 73.6902 23.9599C73.6957 24.1129 73.708 24.2451 73.7264 24.3543C73.7453 24.4645 73.7733 24.558 73.8106 24.6355C73.8483 24.7132 73.8987 24.7866 73.9622 24.8543C74.0482 24.9495 74.1518 25.0241 74.2737 25.0756C74.3951 25.1275 74.5213 25.1532 74.6522 25.1532C74.9028 25.1532 75.112 25.0756 75.2807 24.9208C75.4489 24.7655 75.5592 24.5568 75.6114 24.2947H76.0379V24.2948Z" fill="white"/>
</svg>