<svg xmlns="http://www.w3.org/2000/svg" width="130" height="46" viewBox="0 0 130 46" fill="none">
    <path d="M13.9647 27.5137C15.7265 31.6499 19.8273 34.5514 24.6064 34.5514C22.8447 30.4134 18.7439 27.5137 13.9647 27.5137Z" fill="white"/>
    <path d="M24.6074 34.5512C28.1181 34.5512 31.141 32.4637 32.505 29.4629C28.995 29.4629 25.9722 31.5504 24.6074 34.5512Z" fill="white"/>
    <path fill-rule="evenodd" clip-rule="evenodd" d="M24.6075 28.7676C29.3965 28.7676 33.279 24.8841 33.279 20.0918C33.279 15.3013 29.3965 11.416 24.6075 11.416C19.8175 11.416 15.9359 15.3013 15.9359 20.0918C15.9359 24.8841 19.8175 28.7676 24.6075 28.7676ZM24.6075 24.4303C27.0016 24.4303 28.9428 22.4881 28.9428 20.0919C28.9428 17.6958 27.0016 15.7545 24.6075 15.7545C22.2124 15.7545 20.2712 17.6958 20.2712 20.0919C20.2712 22.4881 22.2124 24.4303 24.6075 24.4303Z" fill="white"/>
    <path d="M80.399 20.0917H84.0261V34.1582H80.399V28.68H74.0655V34.1582H70.4383V20.0917H74.0655V25.2757H80.399V20.0917ZM85.7346 23.5808H90.2504V34.1582H93.8776V23.5808H98.3387V20.0917H85.7346V23.5808ZM115.927 31.0986V34.0886C115.308 34.3983 114.536 34.5525 113.634 34.5525C111.75 34.5525 110.801 33.7322 110.421 32.4109L110.36 32.4994C109.263 33.8775 107.745 34.5525 105.777 34.5525C103.892 34.5525 102.289 33.8495 100.94 32.4145C99.6185 30.9795 98.9439 29.207 98.9439 27.125C98.9439 25.0447 99.6185 23.3001 100.94 21.8651C102.289 20.431 103.892 19.6982 105.777 19.6982C107.658 19.6982 109.128 20.3173 110.212 21.5781V20.0926H113.839V30.0428C113.839 30.8929 114.226 31.3306 114.999 31.3306C115.361 31.3297 115.67 31.2529 115.927 31.0986ZM110.36 27.124C110.36 25.9724 109.995 25.0158 109.236 24.2838C108.505 23.5248 107.576 23.1584 106.452 23.1584C105.327 23.1584 104.399 23.5239 103.668 24.2838C102.937 25.0158 102.571 25.9724 102.571 27.124C102.571 28.2784 102.937 29.235 103.668 29.9949C104.399 30.7259 105.327 31.0914 106.452 31.0914C107.576 31.0914 108.505 30.7259 109.236 29.9949C109.995 29.235 110.36 28.2784 110.36 27.124ZM40.5556 20.0917L40.4474 25.3768C40.4221 27.5166 40.3445 28.5735 40.0351 29.7837C39.7518 30.9443 39.2106 31.272 38.3618 31.272C38.0776 31.272 37.8205 31.2458 37.614 31.1681V34.1582C37.8972 34.3125 38.3617 34.3892 38.9797 34.3892C41.5298 34.3125 42.7666 33.1085 43.3853 30.9434C43.8229 29.3966 43.9005 28.2106 43.978 26.4327L44.0592 23.5798H48.5632V34.1573H52.1904V20.0908H40.5556V20.0917ZM58.025 28.0744C58.4156 30.475 60.318 31.2611 62.2485 31.2611C63.5275 31.2611 64.8681 30.7611 65.6926 30.013L67.9296 32.2647C66.5937 33.7448 64.7336 34.5525 62.1916 34.5525C58.6329 34.5525 54.34 32.4506 54.34 27.125C54.34 21.8002 58.4742 19.6982 61.9851 19.6982C66.4259 19.6982 68.2634 21.7857 68.2634 24.1259C68.2643 27.9517 63.404 29.7188 58.025 28.0744ZM64.3259 24.5401C64.3259 23.449 63.247 22.9616 62.0382 22.9616C60.1917 22.9616 58.5915 23.7414 58.1053 25.7486C61.8678 26.8361 64.3259 26.0248 64.3259 24.5401Z" fill="white"/>
</svg>