<svg xmlns="http://www.w3.org/2000/svg" width="130" height="46" viewBox="0 0 130 46" fill="none">
    <path fill-rule="evenodd" clip-rule="evenodd" d="M111.237 31.3572H117.628C118.133 31.3572 118.542 30.9468 118.542 30.4405V28.1501C118.542 27.6438 118.133 27.2334 117.628 27.2334H111.237C110.732 27.2334 110.323 27.6438 110.323 28.1501V30.4405C110.323 30.9468 110.732 31.3572 111.237 31.3572Z" fill="white"/>
    <path fill-rule="evenodd" clip-rule="evenodd" d="M90.689 31.3572H105.299C105.804 31.3572 106.213 30.9468 106.213 30.4405V28.1501C106.213 27.6438 105.804 27.2334 105.299 27.2334H90.689C90.1843 27.2334 89.7753 27.6438 89.7753 28.1501V30.4405C89.7753 30.9468 90.1843 31.3572 90.689 31.3572Z" fill="white"/>
    <path fill-rule="evenodd" clip-rule="evenodd" d="M78.3601 31.3572H84.7516C85.2562 31.3572 85.6653 30.9468 85.6653 30.4405V28.1501C85.6653 27.6438 85.2562 27.2334 84.7516 27.2334H78.3601C77.8555 27.2334 77.4464 27.6438 77.4464 28.1501V30.4405C77.4464 30.9468 77.8555 31.3572 78.3601 31.3572Z" fill="white"/>
    <path fill-rule="evenodd" clip-rule="evenodd" d="M57.812 31.3573H72.4224C72.666 31.3592 72.9002 31.2634 73.0731 31.0913C73.246 30.9192 73.3433 30.6849 73.3433 30.4405V28.1501C73.3433 27.6438 72.9342 27.2334 72.4296 27.2334H57.812C57.3074 27.2334 56.8983 27.6438 56.8983 28.1501V30.4405C56.8983 30.9468 57.3074 31.3573 57.812 31.3573Z" fill="white"/>
    <path fill-rule="evenodd" clip-rule="evenodd" d="M45.4829 31.3572H51.8744C52.379 31.3572 52.7881 30.9468 52.7881 30.4405V28.1501C52.7881 27.6438 52.379 27.2334 51.8744 27.2334H45.4829C45.2406 27.2334 45.0082 27.33 44.8368 27.5019C44.6655 27.6738 44.5692 27.907 44.5692 28.1501V30.4405C44.5692 30.9468 44.9783 31.3572 45.4829 31.3572Z" fill="white"/>
    <path fill-rule="evenodd" clip-rule="evenodd" d="M12.6061 31.3572H18.9976C19.5022 31.3572 19.9113 30.9468 19.9113 30.4405V28.1501C19.9113 27.6438 19.5022 27.2334 18.9976 27.2334H12.6061C12.1015 27.2334 11.6924 27.6438 11.6924 28.1501V30.4405C11.6924 30.9468 12.1015 31.3572 12.6061 31.3572Z" fill="white"/>
    <path fill-rule="evenodd" clip-rule="evenodd" d="M24.9294 31.3572H39.5398C40.0444 31.3572 40.4535 30.9468 40.4535 30.4405V28.1501C40.4535 27.6438 40.0444 27.2334 39.5398 27.2334H24.9294C24.4248 27.2334 24.0157 27.6438 24.0157 28.1501V30.4405C24.0157 30.9468 24.4248 31.3572 24.9294 31.3572Z" fill="white"/>
    <path d="M72.2845 14.8584H68.9285C68.8624 14.8576 68.7986 14.8833 68.7514 14.9299C68.7042 14.9764 68.6775 15.0399 68.6771 15.1063V22.1821C68.679 22.4287 68.7785 22.6644 68.9536 22.8374C69.1287 23.0104 69.3652 23.1065 69.6109 23.1046H70.7157C70.7818 23.1054 70.8456 23.0796 70.8928 23.0331C70.94 22.9866 70.9667 22.9231 70.9671 22.8567V20.82H72.2845C74.2957 20.82 75.2654 19.4204 75.2654 17.8262C75.2654 16.2608 74.1162 14.8555 72.2845 14.8555M71.8248 18.9087H70.9628V16.7466H71.8578C72.5359 16.7466 72.9195 17.1588 72.9195 17.8147C72.9195 18.4705 72.5359 18.9058 71.8204 18.9058" fill="white"/>
    <path d="M93.8411 21.2006H93.6874V15.1034C93.687 15.0371 93.6603 14.9736 93.6131 14.927C93.5659 14.8805 93.5021 14.8548 93.436 14.8555H88.5515C88.0371 14.8515 87.6167 15.2663 87.6119 15.7823V16.9888C87.6119 18.3783 87.5933 19.9292 86.8505 21.2049H86.7241C86.2426 21.2001 85.8477 21.5866 85.8406 22.0697V24.2102C85.841 24.2766 85.8677 24.3401 85.9149 24.3866C85.9621 24.4332 86.0258 24.4589 86.092 24.4581H87.6363C87.7738 24.4589 87.8862 24.3481 87.8878 24.2102V23.0917H92.6774V24.2102C92.6778 24.2766 92.7046 24.3401 92.7517 24.3866C92.7989 24.4332 92.8627 24.4589 92.9288 24.4581H94.4718C94.5379 24.4589 94.6017 24.4332 94.6489 24.3866C94.6961 24.3401 94.7228 24.2766 94.7232 24.2102V22.0755C94.7161 21.5929 94.3221 21.2066 93.8411 21.2106V21.2006ZM91.4103 21.2236H89.1534C89.6893 20.0546 89.787 18.4446 89.787 17.1719V16.7553H91.1288C91.3213 16.7553 91.4161 16.8432 91.4161 17.0335L91.4103 21.2236Z" fill="white"/>
    <path d="M103.065 14.8584H101.712C101.084 14.8584 100.829 15.0357 100.636 15.5906L99.5644 18.3985L98.3274 15.5906C98.0846 15.0487 97.8663 14.8584 97.2528 14.8584H95.8047C95.7169 14.857 95.6349 14.9024 95.5894 14.9778C95.5439 15.0531 95.5416 15.1471 95.5835 15.2245L98.484 20.6081C98.3752 20.9385 98.068 21.162 97.7212 21.1631C97.4921 21.1563 97.2699 21.0826 97.0819 20.9512C97.0251 20.9151 96.9563 20.9035 96.8908 20.919C96.8254 20.9344 96.769 20.9757 96.7342 21.0334L95.9886 22.2701C95.9222 22.3729 95.9446 22.5096 96.0403 22.5857C96.5273 22.9547 97.3146 23.207 98.0803 23.207C98.7584 23.207 99.2957 23.0311 99.6793 22.665C100.088 22.2778 100.41 21.8088 100.626 21.2885L103.297 15.2C103.329 15.1228 103.321 15.0344 103.274 14.9649C103.227 14.8954 103.149 14.8543 103.065 14.8555" fill="white"/>
    <path d="M109.681 14.8584H105.36C104.845 14.8544 104.425 15.2691 104.42 15.7852V22.8567C104.422 22.9947 104.534 23.1054 104.672 23.1046H106.46C106.598 23.1054 106.71 22.9947 106.712 22.8567V16.7495H109.681C109.747 16.7503 109.811 16.7245 109.858 16.678C109.905 16.6315 109.932 16.568 109.933 16.5016V15.1034C109.932 15.037 109.905 14.9735 109.858 14.927C109.811 14.8805 109.747 14.8547 109.681 14.8555" fill="white"/>
    <path d="M118.291 14.8594H116.774C116.444 14.8583 116.137 15.0306 115.966 15.3134L113.398 19.3277V15.779C113.396 15.5324 113.296 15.2967 113.121 15.1237C112.946 14.9507 112.709 14.8546 112.464 14.8565H111.359C111.221 14.8557 111.109 14.9665 111.108 15.1044V22.8548C111.109 22.9928 111.221 23.1035 111.359 23.1028H112.888C113.218 23.1035 113.525 22.9307 113.696 22.6473L116.252 18.6113V22.1817C116.257 22.6946 116.675 23.1067 117.186 23.1028H118.291C118.357 23.1035 118.421 23.0778 118.468 23.0312C118.515 22.9847 118.542 22.9212 118.542 22.8548V15.1044C118.542 15.038 118.515 14.9745 118.468 14.928C118.421 14.8815 118.357 14.8557 118.291 14.8565" fill="white"/>
    <path d="M26.5283 14.8584H21.5274C21.013 14.8544 20.5926 15.2691 20.5878 15.7852V17.8248C20.5878 20.2074 20.4327 20.8935 19.3121 21.1746C19.1965 21.1966 19.1113 21.2958 19.1067 21.4139V22.9576C19.1074 23.0265 19.1359 23.0923 19.1857 23.1398C19.2355 23.1873 19.3024 23.2126 19.371 23.2098C21.8449 23.0888 22.75 21.9962 22.75 17.8507V16.7524H24.211C24.2861 16.75 24.359 16.7783 24.4131 16.8307C24.4672 16.883 24.498 16.9551 24.4983 17.0306V22.8567C24.4987 22.9231 24.5254 22.9866 24.5726 23.0331C24.6198 23.0797 24.6836 23.1054 24.7497 23.1046H26.5369C26.603 23.1054 26.6668 23.0797 26.714 23.0331C26.7612 22.9866 26.7879 22.9231 26.7883 22.8567V15.1034C26.7879 15.037 26.7612 14.9735 26.714 14.927C26.6668 14.8805 26.603 14.8547 26.5369 14.8555" fill="white"/>
    <path d="M38.2814 14.8584H36.4942C36.428 14.8576 36.3643 14.8834 36.3171 14.9299C36.2699 14.9764 36.2432 15.0399 36.2428 15.1063V22.8553C36.2432 22.9216 36.2699 22.9851 36.3171 23.0317C36.3643 23.0782 36.428 23.1039 36.4942 23.1032H38.2814C38.3475 23.1039 38.4113 23.0782 38.4585 23.0317C38.5056 22.9851 38.5324 22.9216 38.5328 22.8553V15.1034C38.5324 15.037 38.5056 14.9735 38.4585 14.927C38.4113 14.8805 38.3475 14.8547 38.2814 14.8555" fill="white"/>
    <path d="M43.8337 17.8958H42.7979V16.7427H46.1782C46.2444 16.7434 46.3081 16.7177 46.3553 16.6712C46.4025 16.6246 46.4293 16.5611 46.4296 16.4947V15.0966C46.4293 15.0302 46.4025 14.9667 46.3553 14.9202C46.3081 14.8736 46.2444 14.8479 46.1782 14.8486H40.7593C40.693 14.8479 40.6291 14.8736 40.5817 14.9201C40.5343 14.9666 40.5072 15.0301 40.5065 15.0966V22.1724C40.5087 22.419 40.6086 22.6546 40.784 22.8273C40.9593 23 41.1959 23.0958 41.4417 23.0935H43.8078C46.263 23.0935 47.2873 21.9101 47.2873 20.4211C47.2873 18.7549 46.0303 17.89 43.8394 17.89M44.0305 21.2643H43.0852C42.8927 21.2643 42.7979 21.175 42.7979 20.9861V19.7292H44.0362C44.6109 19.7292 44.9327 20.0406 44.9327 20.486C44.9327 20.9314 44.5994 21.2643 44.0233 21.2643" fill="white"/>
    <path d="M31.9316 17.5479H31.0079V15.0976C31.0075 15.0312 30.9807 14.9677 30.9335 14.9211C30.8864 14.8746 30.8226 14.8489 30.7565 14.8496H28.9693C28.9031 14.8489 28.8394 14.8746 28.7922 14.9211C28.745 14.9677 28.7183 15.0312 28.7179 15.0976V22.1734C28.7226 22.6863 29.1405 23.0984 29.6517 23.0945H31.9057C34.3609 23.0945 35.3852 21.8303 35.3852 20.2419C35.3852 18.4632 34.1282 17.5422 31.9374 17.5422M32.1284 21.2653H31.2952C31.1041 21.2653 31.0079 21.1572 31.0079 20.9251V19.3944H32.1356C32.7103 19.3944 33.0321 19.7749 33.0321 20.3197C33.0321 20.8646 32.6988 21.2711 32.1227 21.2711" fill="white"/>
    <path d="M19.0824 14.8594H17.7276C17.1013 14.8594 16.8456 15.0367 16.653 15.5917L15.5813 18.3995L14.3444 15.5917C14.1016 15.0497 13.8832 14.8594 13.2698 14.8594H11.8217C11.7339 14.858 11.6519 14.9034 11.6064 14.9788C11.5608 15.0541 11.5586 15.1481 11.6005 15.2256L14.501 20.6121C14.3922 20.9424 14.0849 21.166 13.7381 21.167C13.5114 21.1606 13.2914 21.0885 13.1046 20.9594C13.0488 20.9213 12.9799 20.9075 12.9137 20.9214C12.8476 20.9353 12.79 20.9755 12.7541 21.0329L11.9998 22.2711C11.9377 22.3781 11.9627 22.5147 12.0587 22.5925C12.5472 22.9587 13.3302 23.208 14.093 23.208C14.7711 23.208 15.3084 23.0322 15.6919 22.6661C16.1002 22.2788 16.4227 21.8099 16.6387 21.2895L19.3094 15.2011C19.3403 15.1249 19.3317 15.0383 19.2862 14.9698C19.2407 14.9014 19.1643 14.86 19.0824 14.8594Z" fill="white"/>
    <path d="M64.2926 14.8586H62.5141C62.3729 14.8586 62.2584 14.9734 62.2584 15.1151V15.6139C61.6766 15.0748 60.8764 14.749 59.8262 14.749C57.7747 14.749 56.1125 16.643 56.1125 18.9795C56.1125 21.316 57.7747 23.21 59.8262 23.21C60.8979 23.21 61.7154 22.8655 62.3044 22.2933C62.4674 22.766 62.9051 23.088 63.4034 23.1019H64.2926C64.4331 23.1019 64.5469 22.9877 64.5469 22.8468V15.1123C64.5454 14.9722 64.4322 14.8593 64.2926 14.8586ZM60.3664 21.2007C59.1524 21.2007 58.4097 20.2033 58.4097 18.9723C58.4097 17.7414 59.2085 16.7425 60.3664 16.7425C61.5976 16.7425 62.3245 17.7414 62.3245 18.9723C62.3245 20.2033 61.655 21.2007 60.3678 21.2007" fill="white"/>
    <path d="M54.2134 19.6727C54.03 19.2937 53.6947 19.0107 53.2911 18.8944C53.6944 18.7765 54.0293 18.4933 54.2134 18.1146L55.673 15.2145C55.7118 15.1369 55.7073 15.0446 55.6611 14.9712C55.615 14.8978 55.534 14.8539 55.4475 14.8555H53.5181C53.4204 14.8559 53.3314 14.9117 53.2883 14.9997L51.9953 17.672C51.8516 17.9502 51.6117 17.9502 51.2914 17.9502H50.9897V15.778C50.9878 15.5315 50.8883 15.2958 50.7132 15.1228C50.5381 14.9497 50.3016 14.8536 50.0559 14.8555H48.9511C48.8136 14.8548 48.7013 14.9655 48.6997 15.1035V22.8539C48.7013 22.9918 48.8136 23.1026 48.9511 23.1018H50.7383C50.8044 23.1026 50.8682 23.0768 50.9154 23.0303C50.9625 22.9838 50.9893 22.9203 50.9897 22.8539V19.837H51.2971C51.6175 19.837 51.8603 19.837 52.001 20.1152L53.3745 22.9577C53.4168 23.0463 53.5063 23.1025 53.6043 23.1018H55.5323C55.6183 23.1032 55.6989 23.0595 55.7449 22.9865C55.791 22.9135 55.7959 22.8218 55.7578 22.7443L54.2134 19.6727Z" fill="white"/>
    <path d="M84.355 14.8586H82.575C82.4344 14.8594 82.3207 14.974 82.3207 15.1151V15.6139C81.7375 15.0748 80.9387 14.749 79.8871 14.749C77.8371 14.749 76.1735 16.643 76.1735 18.9795C76.1735 21.316 77.8371 23.21 79.8871 23.21C80.9603 23.21 81.7777 22.8655 82.3667 22.2933C82.5294 22.7663 82.9673 23.0884 83.4657 23.1019H84.355C84.4957 23.1019 84.6099 22.9879 84.6107 22.8468V15.1123C84.6107 14.9706 84.4962 14.8557 84.355 14.8557M80.4302 21.1978C79.2162 21.1978 78.472 20.2004 78.472 18.9694C78.472 17.7385 79.2722 16.7396 80.4302 16.7396C81.6613 16.7396 82.3883 17.7385 82.3883 18.9694C82.3883 20.2004 81.7159 21.2007 80.4302 21.2007" fill="white"/>
</svg>