<svg xmlns="http://www.w3.org/2000/svg" width="130" height="46" viewBox="0 0 130 46" fill="none">
    <path d="M18.2079 29.7277H20.5535V16.2539H17.1302C13.7069 16.2539 11.9002 17.9976 11.9002 20.6289C11.9002 22.7213 12.8828 23.9261 14.6578 25.1942L11.5833 29.7277H14.119L17.5423 24.6235L16.3695 23.8309C14.9431 22.8481 14.2458 22.0873 14.2458 20.4704C14.2458 19.0438 15.2601 18.061 17.1619 18.061H18.2079V29.7277ZM63.5027 29.9179C64.5804 29.9179 65.3411 29.7277 65.8799 29.3156V27.4451C65.3094 27.8572 64.6121 28.1109 63.6295 28.1109C61.9812 28.1109 61.3156 26.8427 61.3156 24.8137C61.3156 22.6896 62.1397 21.6117 63.6612 21.6117C64.5487 21.6117 65.4362 21.9288 65.8799 22.2141V20.2485C65.4045 19.9632 64.5487 19.7729 63.4076 19.7729C60.4598 19.7729 58.9383 21.8971 58.9383 24.8454C58.9066 28.1426 60.3964 29.9179 63.5027 29.9179ZM49.0489 29.0937V27.2232C48.3199 27.6987 47.1154 28.1426 46.006 28.1426C44.3261 28.1426 43.6922 27.35 43.5654 25.7014H49.144V24.465C49.144 21.0728 47.6543 19.7729 45.3404 19.7729C42.5194 19.7729 41.1881 21.9288 41.1881 24.8771C41.1881 28.2694 42.868 29.9179 45.8158 29.9179C47.2739 29.9179 48.3516 29.5375 49.0489 29.0937ZM27.8754 19.9632V23.8309H24.8008V19.9632H22.487V29.7277H24.8008V25.6697H27.8754V29.7594H30.1893V19.9632H27.8754ZM40.6176 27.9206H39.6033V19.9949H32.8518V20.8191C32.8518 23.1969 32.6933 26.3038 31.8692 27.9206H31.1402V31.9786H33.2639V29.7594H38.4622V31.9786H40.5859V27.9206H40.6176ZM56.4343 29.7277H59.0651L55.3249 24.465L58.5897 19.9632H56.2758L53.011 24.465V19.9632H50.6972V29.7277H53.011V24.9405L56.4343 29.7277ZM45.3087 21.6117C46.4498 21.6117 46.7984 22.5628 46.7984 23.7992V23.9895H43.5654C43.6288 22.4043 44.1993 21.6117 45.3087 21.6117ZM37.2894 27.9206H34.0246C34.6586 26.4306 34.8487 23.7992 34.8487 22.0873V21.8019H37.2894V27.9206Z" fill="white"/>
    <path d="M85.5003 27.8263C84.0422 29.1261 82.1087 29.887 80.0484 29.887C75.6743 29.887 72.3778 26.4948 72.3778 22.627C72.3778 18.9811 75.2939 16.0011 78.8757 16.0011C82.2672 16.0011 84.7396 18.6324 84.7396 21.4857C84.7396 24.1488 82.6159 26.3363 80.0484 26.3363C77.6712 26.3363 75.9912 24.5292 75.9912 22.627C75.9912 20.915 77.3225 19.5518 78.8757 19.5518C80.2703 19.5518 81.1261 20.5663 81.1261 21.4857C81.1261 22.2783 80.5556 22.7855 80.0167 22.7855C79.8266 22.7855 79.7632 22.7538 79.6998 22.6904C79.8583 22.4685 79.9533 22.1832 79.9217 21.8978C79.8266 21.3272 79.3194 20.9467 78.7489 21.0101C78.2734 21.0736 77.9564 21.4223 77.798 21.6442C77.6395 21.9295 77.5444 22.2466 77.5444 22.5953C77.5444 23.9585 78.8123 24.8462 80.0484 24.8462C81.8552 24.8462 83.2181 23.2611 83.2181 21.454C83.2181 19.2348 81.3163 17.4277 78.9073 17.4277C76.118 17.4277 73.9309 19.8054 73.9309 22.5953C73.9309 25.7656 76.6252 28.397 80.0484 28.397C83.8521 28.397 86.8316 25.2267 86.8316 21.454C86.8316 17.396 83.3766 13.877 78.9073 13.877C74.1211 13.877 70.3175 17.8081 70.3175 22.5953C70.3175 27.6995 74.5966 31.9477 80.0484 31.9477C82.6476 31.9477 85.0565 30.9649 86.895 29.3481L85.5003 27.8263Z" fill="white"/>
    <path d="M92.0299 16.2539V29.7594H99.7005V27.9206H94.3755V23.8626H98.813V22.0239H94.3755V18.061H99.6055V16.2539H92.0299Z" fill="white"/>
    <path d="M110.224 27.9189H109.21V19.9932H102.458V20.8174C102.458 23.1952 102.3 26.3021 101.476 27.9189H100.747V31.9769H102.87V29.7577H108.069V31.9769H110.192V27.9189H110.224ZM106.896 27.9189H103.631C104.265 26.4289 104.455 23.7975 104.455 22.0856V21.8002H106.896V27.9189Z" fill="white"/>
    <path d="M118.687 23.0691C118.687 20.6914 117.483 19.8037 115.042 19.8037C113.52 19.8037 112.316 20.2793 111.619 20.6914V22.6253C112.253 22.1497 113.584 21.6425 114.788 21.6425C115.898 21.6425 116.405 22.0229 116.405 23.0691V23.6081H116.024C112.506 23.6081 110.921 24.7811 110.921 26.7467C110.921 28.7123 112.126 29.8219 113.901 29.8219C115.264 29.8219 115.834 29.378 116.278 28.9025H116.373C116.405 29.1561 116.468 29.4732 116.532 29.6634H118.782C118.719 28.8708 118.655 28.0782 118.655 27.2856V23.0691H118.687ZM116.373 27.4124C116.088 27.8246 115.549 28.1733 114.725 28.1733C113.742 28.1733 113.267 27.6027 113.267 26.715C113.267 25.5737 114.059 25.1615 116.056 25.1615H116.373V27.4124Z" fill="white"/>
</svg>